G04 #@! TF.FileFunction,Legend,Top*
%FSLAX46Y46*%
G04 Gerber Fmt 4.6, Leading zero omitted, Abs format (unit mm)*
G04 Created by KiCad (PCBNEW 4.0.7) date 03/18/19 18:35:26*
%MOMM*%
%LPD*%
G01*
G04 APERTURE LIST*
%ADD10C,0.100000*%
%ADD11C,0.150000*%
%ADD12C,0.200000*%
%ADD13C,0.120000*%
%ADD14C,0.300000*%
G04 APERTURE END LIST*
D10*
D11*
X76479496Y-57323100D02*
X76384258Y-57275481D01*
X76241401Y-57275481D01*
X76098543Y-57323100D01*
X76003305Y-57418338D01*
X75955686Y-57513576D01*
X75908067Y-57704052D01*
X75908067Y-57846910D01*
X75955686Y-58037386D01*
X76003305Y-58132624D01*
X76098543Y-58227862D01*
X76241401Y-58275481D01*
X76336639Y-58275481D01*
X76479496Y-58227862D01*
X76527115Y-58180243D01*
X76527115Y-57846910D01*
X76336639Y-57846910D01*
X76955686Y-58275481D02*
X76955686Y-57275481D01*
X77527115Y-58275481D01*
X77527115Y-57275481D01*
X78003305Y-58275481D02*
X78003305Y-57275481D01*
X78241400Y-57275481D01*
X78384258Y-57323100D01*
X78479496Y-57418338D01*
X78527115Y-57513576D01*
X78574734Y-57704052D01*
X78574734Y-57846910D01*
X78527115Y-58037386D01*
X78479496Y-58132624D01*
X78384258Y-58227862D01*
X78241400Y-58275481D01*
X78003305Y-58275481D01*
X103321122Y-59727079D02*
X103130645Y-59727079D01*
X103035407Y-59679460D01*
X102940169Y-59584222D01*
X102892550Y-59393746D01*
X102892550Y-59060412D01*
X102940169Y-58869936D01*
X103035407Y-58774698D01*
X103130645Y-58727079D01*
X103321122Y-58727079D01*
X103416360Y-58774698D01*
X103511598Y-58869936D01*
X103559217Y-59060412D01*
X103559217Y-59393746D01*
X103511598Y-59584222D01*
X103416360Y-59679460D01*
X103321122Y-59727079D01*
X102463979Y-59727079D02*
X102463979Y-58917555D01*
X102416360Y-58822317D01*
X102368741Y-58774698D01*
X102273503Y-58727079D01*
X102083026Y-58727079D01*
X101987788Y-58774698D01*
X101940169Y-58822317D01*
X101892550Y-58917555D01*
X101892550Y-59727079D01*
X101559217Y-59727079D02*
X100987788Y-59727079D01*
X101273503Y-58727079D02*
X101273503Y-59727079D01*
X100654455Y-58727079D02*
X100654455Y-59727079D01*
X100273502Y-59727079D01*
X100178264Y-59679460D01*
X100130645Y-59631841D01*
X100083026Y-59536603D01*
X100083026Y-59393746D01*
X100130645Y-59298508D01*
X100178264Y-59250889D01*
X100273502Y-59203270D01*
X100654455Y-59203270D01*
X99463979Y-59727079D02*
X99273502Y-59727079D01*
X99178264Y-59679460D01*
X99083026Y-59584222D01*
X99035407Y-59393746D01*
X99035407Y-59060412D01*
X99083026Y-58869936D01*
X99178264Y-58774698D01*
X99273502Y-58727079D01*
X99463979Y-58727079D01*
X99559217Y-58774698D01*
X99654455Y-58869936D01*
X99702074Y-59060412D01*
X99702074Y-59393746D01*
X99654455Y-59584222D01*
X99559217Y-59679460D01*
X99463979Y-59727079D01*
X98035407Y-58727079D02*
X98368741Y-59203270D01*
X98606836Y-58727079D02*
X98606836Y-59727079D01*
X98225883Y-59727079D01*
X98130645Y-59679460D01*
X98083026Y-59631841D01*
X98035407Y-59536603D01*
X98035407Y-59393746D01*
X98083026Y-59298508D01*
X98130645Y-59250889D01*
X98225883Y-59203270D01*
X98606836Y-59203270D01*
X97749693Y-59727079D02*
X97178264Y-59727079D01*
X97463979Y-58727079D02*
X97463979Y-59727079D01*
X52024733Y-60752481D02*
X52024733Y-59752481D01*
X52405686Y-59752481D01*
X52500924Y-59800100D01*
X52548543Y-59847719D01*
X52596162Y-59942957D01*
X52596162Y-60085814D01*
X52548543Y-60181052D01*
X52500924Y-60228671D01*
X52405686Y-60276290D01*
X52024733Y-60276290D01*
X53024733Y-60752481D02*
X53024733Y-59752481D01*
X53024733Y-60228671D02*
X53596162Y-60228671D01*
X53596162Y-60752481D02*
X53596162Y-59752481D01*
X54024733Y-60466767D02*
X54500924Y-60466767D01*
X53929495Y-60752481D02*
X54262828Y-59752481D01*
X54596162Y-60752481D01*
X54881876Y-60704862D02*
X55024733Y-60752481D01*
X55262829Y-60752481D01*
X55358067Y-60704862D01*
X55405686Y-60657243D01*
X55453305Y-60562005D01*
X55453305Y-60466767D01*
X55405686Y-60371529D01*
X55358067Y-60323910D01*
X55262829Y-60276290D01*
X55072352Y-60228671D01*
X54977114Y-60181052D01*
X54929495Y-60133433D01*
X54881876Y-60038195D01*
X54881876Y-59942957D01*
X54929495Y-59847719D01*
X54977114Y-59800100D01*
X55072352Y-59752481D01*
X55310448Y-59752481D01*
X55453305Y-59800100D01*
X55881876Y-60228671D02*
X56215210Y-60228671D01*
X56358067Y-60752481D02*
X55881876Y-60752481D01*
X55881876Y-59752481D01*
X56358067Y-59752481D01*
X58119972Y-60752481D02*
X57786638Y-60276290D01*
X57548543Y-60752481D02*
X57548543Y-59752481D01*
X57929496Y-59752481D01*
X58024734Y-59800100D01*
X58072353Y-59847719D01*
X58119972Y-59942957D01*
X58119972Y-60085814D01*
X58072353Y-60181052D01*
X58024734Y-60228671D01*
X57929496Y-60276290D01*
X57548543Y-60276290D01*
X58548543Y-60228671D02*
X58881877Y-60228671D01*
X59024734Y-60752481D02*
X58548543Y-60752481D01*
X58548543Y-59752481D01*
X59024734Y-59752481D01*
X59310448Y-59752481D02*
X59643781Y-60752481D01*
X59977115Y-59752481D01*
X60310448Y-60228671D02*
X60643782Y-60228671D01*
X60786639Y-60752481D02*
X60310448Y-60752481D01*
X60310448Y-59752481D01*
X60786639Y-59752481D01*
X61786639Y-60752481D02*
X61453305Y-60276290D01*
X61215210Y-60752481D02*
X61215210Y-59752481D01*
X61596163Y-59752481D01*
X61691401Y-59800100D01*
X61739020Y-59847719D01*
X61786639Y-59942957D01*
X61786639Y-60085814D01*
X61739020Y-60181052D01*
X61691401Y-60228671D01*
X61596163Y-60276290D01*
X61215210Y-60276290D01*
X62167591Y-60704862D02*
X62310448Y-60752481D01*
X62548544Y-60752481D01*
X62643782Y-60704862D01*
X62691401Y-60657243D01*
X62739020Y-60562005D01*
X62739020Y-60466767D01*
X62691401Y-60371529D01*
X62643782Y-60323910D01*
X62548544Y-60276290D01*
X62358067Y-60228671D01*
X62262829Y-60181052D01*
X62215210Y-60133433D01*
X62167591Y-60038195D01*
X62167591Y-59942957D01*
X62215210Y-59847719D01*
X62262829Y-59800100D01*
X62358067Y-59752481D01*
X62596163Y-59752481D01*
X62739020Y-59800100D01*
X63119972Y-60466767D02*
X63596163Y-60466767D01*
X63024734Y-60752481D02*
X63358067Y-59752481D01*
X63691401Y-60752481D01*
X64500925Y-60752481D02*
X64024734Y-60752481D01*
X64024734Y-59752481D01*
X53000924Y-61402481D02*
X53572353Y-61402481D01*
X53286638Y-62402481D02*
X53286638Y-61402481D01*
X54477115Y-62402481D02*
X54143781Y-61926290D01*
X53905686Y-62402481D02*
X53905686Y-61402481D01*
X54286639Y-61402481D01*
X54381877Y-61450100D01*
X54429496Y-61497719D01*
X54477115Y-61592957D01*
X54477115Y-61735814D01*
X54429496Y-61831052D01*
X54381877Y-61878671D01*
X54286639Y-61926290D01*
X53905686Y-61926290D01*
X54858067Y-62116767D02*
X55334258Y-62116767D01*
X54762829Y-62402481D02*
X55096162Y-61402481D01*
X55429496Y-62402481D01*
X55762829Y-62402481D02*
X55762829Y-61402481D01*
X56334258Y-62402481D01*
X56334258Y-61402481D01*
X56762829Y-62354862D02*
X56905686Y-62402481D01*
X57143782Y-62402481D01*
X57239020Y-62354862D01*
X57286639Y-62307243D01*
X57334258Y-62212005D01*
X57334258Y-62116767D01*
X57286639Y-62021529D01*
X57239020Y-61973910D01*
X57143782Y-61926290D01*
X56953305Y-61878671D01*
X56858067Y-61831052D01*
X56810448Y-61783433D01*
X56762829Y-61688195D01*
X56762829Y-61592957D01*
X56810448Y-61497719D01*
X56858067Y-61450100D01*
X56953305Y-61402481D01*
X57191401Y-61402481D01*
X57334258Y-61450100D01*
X58096163Y-61878671D02*
X57762829Y-61878671D01*
X57762829Y-62402481D02*
X57762829Y-61402481D01*
X58239020Y-61402481D01*
X58810448Y-61402481D02*
X59000925Y-61402481D01*
X59096163Y-61450100D01*
X59191401Y-61545338D01*
X59239020Y-61735814D01*
X59239020Y-62069148D01*
X59191401Y-62259624D01*
X59096163Y-62354862D01*
X59000925Y-62402481D01*
X58810448Y-62402481D01*
X58715210Y-62354862D01*
X58619972Y-62259624D01*
X58572353Y-62069148D01*
X58572353Y-61735814D01*
X58619972Y-61545338D01*
X58715210Y-61450100D01*
X58810448Y-61402481D01*
X60239020Y-62402481D02*
X59905686Y-61926290D01*
X59667591Y-62402481D02*
X59667591Y-61402481D01*
X60048544Y-61402481D01*
X60143782Y-61450100D01*
X60191401Y-61497719D01*
X60239020Y-61592957D01*
X60239020Y-61735814D01*
X60191401Y-61831052D01*
X60143782Y-61878671D01*
X60048544Y-61926290D01*
X59667591Y-61926290D01*
X60667591Y-62402481D02*
X60667591Y-61402481D01*
X61000925Y-62116767D01*
X61334258Y-61402481D01*
X61334258Y-62402481D01*
X61810448Y-61878671D02*
X62143782Y-61878671D01*
X62286639Y-62402481D02*
X61810448Y-62402481D01*
X61810448Y-61402481D01*
X62286639Y-61402481D01*
X63286639Y-62402481D02*
X62953305Y-61926290D01*
X62715210Y-62402481D02*
X62715210Y-61402481D01*
X63096163Y-61402481D01*
X63191401Y-61450100D01*
X63239020Y-61497719D01*
X63286639Y-61592957D01*
X63286639Y-61735814D01*
X63239020Y-61831052D01*
X63191401Y-61878671D01*
X63096163Y-61926290D01*
X62715210Y-61926290D01*
X79754766Y-65273181D02*
X79754766Y-64273181D01*
X79992861Y-64273181D01*
X80135719Y-64320800D01*
X80230957Y-64416038D01*
X80278576Y-64511276D01*
X80326195Y-64701752D01*
X80326195Y-64844610D01*
X80278576Y-65035086D01*
X80230957Y-65130324D01*
X80135719Y-65225562D01*
X79992861Y-65273181D01*
X79754766Y-65273181D01*
X80754766Y-64749371D02*
X81088100Y-64749371D01*
X81230957Y-65273181D02*
X80754766Y-65273181D01*
X80754766Y-64273181D01*
X81230957Y-64273181D01*
X82135719Y-65273181D02*
X81659528Y-65273181D01*
X81659528Y-64273181D01*
X82421433Y-64987467D02*
X82897624Y-64987467D01*
X82326195Y-65273181D02*
X82659528Y-64273181D01*
X82992862Y-65273181D01*
X83516671Y-64796990D02*
X83516671Y-65273181D01*
X83183338Y-64273181D02*
X83516671Y-64796990D01*
X83850005Y-64273181D01*
X85373815Y-64273181D02*
X85183338Y-64273181D01*
X85088100Y-64320800D01*
X85040481Y-64368419D01*
X84945243Y-64511276D01*
X84897624Y-64701752D01*
X84897624Y-65082705D01*
X84945243Y-65177943D01*
X84992862Y-65225562D01*
X85088100Y-65273181D01*
X85278577Y-65273181D01*
X85373815Y-65225562D01*
X85421434Y-65177943D01*
X85469053Y-65082705D01*
X85469053Y-64844610D01*
X85421434Y-64749371D01*
X85373815Y-64701752D01*
X85278577Y-64654133D01*
X85088100Y-64654133D01*
X84992862Y-64701752D01*
X84945243Y-64749371D01*
X84897624Y-64844610D01*
X91934066Y-71648581D02*
X91934066Y-70648581D01*
X92172161Y-70648581D01*
X92315019Y-70696200D01*
X92410257Y-70791438D01*
X92457876Y-70886676D01*
X92505495Y-71077152D01*
X92505495Y-71220010D01*
X92457876Y-71410486D01*
X92410257Y-71505724D01*
X92315019Y-71600962D01*
X92172161Y-71648581D01*
X91934066Y-71648581D01*
X92934066Y-71124771D02*
X93267400Y-71124771D01*
X93410257Y-71648581D02*
X92934066Y-71648581D01*
X92934066Y-70648581D01*
X93410257Y-70648581D01*
X94315019Y-71648581D02*
X93838828Y-71648581D01*
X93838828Y-70648581D01*
X94600733Y-71362867D02*
X95076924Y-71362867D01*
X94505495Y-71648581D02*
X94838828Y-70648581D01*
X95172162Y-71648581D01*
X95695971Y-71172390D02*
X95695971Y-71648581D01*
X95362638Y-70648581D02*
X95695971Y-71172390D01*
X96029305Y-70648581D01*
X97553115Y-70648581D02*
X97362638Y-70648581D01*
X97267400Y-70696200D01*
X97219781Y-70743819D01*
X97124543Y-70886676D01*
X97076924Y-71077152D01*
X97076924Y-71458105D01*
X97124543Y-71553343D01*
X97172162Y-71600962D01*
X97267400Y-71648581D01*
X97457877Y-71648581D01*
X97553115Y-71600962D01*
X97600734Y-71553343D01*
X97648353Y-71458105D01*
X97648353Y-71220010D01*
X97600734Y-71124771D01*
X97553115Y-71077152D01*
X97457877Y-71029533D01*
X97267400Y-71029533D01*
X97172162Y-71077152D01*
X97124543Y-71124771D01*
X97076924Y-71220010D01*
X80148466Y-79687681D02*
X80148466Y-78687681D01*
X80386561Y-78687681D01*
X80529419Y-78735300D01*
X80624657Y-78830538D01*
X80672276Y-78925776D01*
X80719895Y-79116252D01*
X80719895Y-79259110D01*
X80672276Y-79449586D01*
X80624657Y-79544824D01*
X80529419Y-79640062D01*
X80386561Y-79687681D01*
X80148466Y-79687681D01*
X81148466Y-79163871D02*
X81481800Y-79163871D01*
X81624657Y-79687681D02*
X81148466Y-79687681D01*
X81148466Y-78687681D01*
X81624657Y-78687681D01*
X82529419Y-79687681D02*
X82053228Y-79687681D01*
X82053228Y-78687681D01*
X82815133Y-79401967D02*
X83291324Y-79401967D01*
X82719895Y-79687681D02*
X83053228Y-78687681D01*
X83386562Y-79687681D01*
X83910371Y-79211490D02*
X83910371Y-79687681D01*
X83577038Y-78687681D02*
X83910371Y-79211490D01*
X84243705Y-78687681D01*
X85815134Y-78687681D02*
X85338943Y-78687681D01*
X85291324Y-79163871D01*
X85338943Y-79116252D01*
X85434181Y-79068633D01*
X85672277Y-79068633D01*
X85767515Y-79116252D01*
X85815134Y-79163871D01*
X85862753Y-79259110D01*
X85862753Y-79497205D01*
X85815134Y-79592443D01*
X85767515Y-79640062D01*
X85672277Y-79687681D01*
X85434181Y-79687681D01*
X85338943Y-79640062D01*
X85291324Y-79592443D01*
X92276966Y-84500981D02*
X92276966Y-83500981D01*
X92515061Y-83500981D01*
X92657919Y-83548600D01*
X92753157Y-83643838D01*
X92800776Y-83739076D01*
X92848395Y-83929552D01*
X92848395Y-84072410D01*
X92800776Y-84262886D01*
X92753157Y-84358124D01*
X92657919Y-84453362D01*
X92515061Y-84500981D01*
X92276966Y-84500981D01*
X93276966Y-83977171D02*
X93610300Y-83977171D01*
X93753157Y-84500981D02*
X93276966Y-84500981D01*
X93276966Y-83500981D01*
X93753157Y-83500981D01*
X94657919Y-84500981D02*
X94181728Y-84500981D01*
X94181728Y-83500981D01*
X94943633Y-84215267D02*
X95419824Y-84215267D01*
X94848395Y-84500981D02*
X95181728Y-83500981D01*
X95515062Y-84500981D01*
X96038871Y-84024790D02*
X96038871Y-84500981D01*
X95705538Y-83500981D02*
X96038871Y-84024790D01*
X96372205Y-83500981D01*
X97943634Y-83500981D02*
X97467443Y-83500981D01*
X97419824Y-83977171D01*
X97467443Y-83929552D01*
X97562681Y-83881933D01*
X97800777Y-83881933D01*
X97896015Y-83929552D01*
X97943634Y-83977171D01*
X97991253Y-84072410D01*
X97991253Y-84310505D01*
X97943634Y-84405743D01*
X97896015Y-84453362D01*
X97800777Y-84500981D01*
X97562681Y-84500981D01*
X97467443Y-84453362D01*
X97419824Y-84405743D01*
X79589666Y-93886281D02*
X79589666Y-92886281D01*
X79827761Y-92886281D01*
X79970619Y-92933900D01*
X80065857Y-93029138D01*
X80113476Y-93124376D01*
X80161095Y-93314852D01*
X80161095Y-93457710D01*
X80113476Y-93648186D01*
X80065857Y-93743424D01*
X79970619Y-93838662D01*
X79827761Y-93886281D01*
X79589666Y-93886281D01*
X80589666Y-93362471D02*
X80923000Y-93362471D01*
X81065857Y-93886281D02*
X80589666Y-93886281D01*
X80589666Y-92886281D01*
X81065857Y-92886281D01*
X81970619Y-93886281D02*
X81494428Y-93886281D01*
X81494428Y-92886281D01*
X82256333Y-93600567D02*
X82732524Y-93600567D01*
X82161095Y-93886281D02*
X82494428Y-92886281D01*
X82827762Y-93886281D01*
X83351571Y-93410090D02*
X83351571Y-93886281D01*
X83018238Y-92886281D02*
X83351571Y-93410090D01*
X83684905Y-92886281D01*
X85208715Y-93219614D02*
X85208715Y-93886281D01*
X84970619Y-92838662D02*
X84732524Y-93552948D01*
X85351572Y-93552948D01*
X92327766Y-98242381D02*
X92327766Y-97242381D01*
X92565861Y-97242381D01*
X92708719Y-97290000D01*
X92803957Y-97385238D01*
X92851576Y-97480476D01*
X92899195Y-97670952D01*
X92899195Y-97813810D01*
X92851576Y-98004286D01*
X92803957Y-98099524D01*
X92708719Y-98194762D01*
X92565861Y-98242381D01*
X92327766Y-98242381D01*
X93327766Y-97718571D02*
X93661100Y-97718571D01*
X93803957Y-98242381D02*
X93327766Y-98242381D01*
X93327766Y-97242381D01*
X93803957Y-97242381D01*
X94708719Y-98242381D02*
X94232528Y-98242381D01*
X94232528Y-97242381D01*
X94994433Y-97956667D02*
X95470624Y-97956667D01*
X94899195Y-98242381D02*
X95232528Y-97242381D01*
X95565862Y-98242381D01*
X96089671Y-97766190D02*
X96089671Y-98242381D01*
X95756338Y-97242381D02*
X96089671Y-97766190D01*
X96423005Y-97242381D01*
X97946815Y-97575714D02*
X97946815Y-98242381D01*
X97708719Y-97194762D02*
X97470624Y-97909048D01*
X98089672Y-97909048D01*
X117359466Y-96121481D02*
X117359466Y-95121481D01*
X117597561Y-95121481D01*
X117740419Y-95169100D01*
X117835657Y-95264338D01*
X117883276Y-95359576D01*
X117930895Y-95550052D01*
X117930895Y-95692910D01*
X117883276Y-95883386D01*
X117835657Y-95978624D01*
X117740419Y-96073862D01*
X117597561Y-96121481D01*
X117359466Y-96121481D01*
X118359466Y-95597671D02*
X118692800Y-95597671D01*
X118835657Y-96121481D02*
X118359466Y-96121481D01*
X118359466Y-95121481D01*
X118835657Y-95121481D01*
X119740419Y-96121481D02*
X119264228Y-96121481D01*
X119264228Y-95121481D01*
X120026133Y-95835767D02*
X120502324Y-95835767D01*
X119930895Y-96121481D02*
X120264228Y-95121481D01*
X120597562Y-96121481D01*
X121121371Y-95645290D02*
X121121371Y-96121481D01*
X120788038Y-95121481D02*
X121121371Y-95645290D01*
X121454705Y-95121481D01*
X122454705Y-95121481D02*
X123073753Y-95121481D01*
X122740419Y-95502433D01*
X122883277Y-95502433D01*
X122978515Y-95550052D01*
X123026134Y-95597671D01*
X123073753Y-95692910D01*
X123073753Y-95931005D01*
X123026134Y-96026243D01*
X122978515Y-96073862D01*
X122883277Y-96121481D01*
X122597562Y-96121481D01*
X122502324Y-96073862D01*
X122454705Y-96026243D01*
X103668866Y-89530181D02*
X103668866Y-88530181D01*
X103906961Y-88530181D01*
X104049819Y-88577800D01*
X104145057Y-88673038D01*
X104192676Y-88768276D01*
X104240295Y-88958752D01*
X104240295Y-89101610D01*
X104192676Y-89292086D01*
X104145057Y-89387324D01*
X104049819Y-89482562D01*
X103906961Y-89530181D01*
X103668866Y-89530181D01*
X104668866Y-89006371D02*
X105002200Y-89006371D01*
X105145057Y-89530181D02*
X104668866Y-89530181D01*
X104668866Y-88530181D01*
X105145057Y-88530181D01*
X106049819Y-89530181D02*
X105573628Y-89530181D01*
X105573628Y-88530181D01*
X106335533Y-89244467D02*
X106811724Y-89244467D01*
X106240295Y-89530181D02*
X106573628Y-88530181D01*
X106906962Y-89530181D01*
X107430771Y-89053990D02*
X107430771Y-89530181D01*
X107097438Y-88530181D02*
X107430771Y-89053990D01*
X107764105Y-88530181D01*
X108764105Y-88530181D02*
X109383153Y-88530181D01*
X109049819Y-88911133D01*
X109192677Y-88911133D01*
X109287915Y-88958752D01*
X109335534Y-89006371D01*
X109383153Y-89101610D01*
X109383153Y-89339705D01*
X109335534Y-89434943D01*
X109287915Y-89482562D01*
X109192677Y-89530181D01*
X108906962Y-89530181D01*
X108811724Y-89482562D01*
X108764105Y-89434943D01*
X116559366Y-82773781D02*
X116559366Y-81773781D01*
X116797461Y-81773781D01*
X116940319Y-81821400D01*
X117035557Y-81916638D01*
X117083176Y-82011876D01*
X117130795Y-82202352D01*
X117130795Y-82345210D01*
X117083176Y-82535686D01*
X117035557Y-82630924D01*
X116940319Y-82726162D01*
X116797461Y-82773781D01*
X116559366Y-82773781D01*
X117559366Y-82249971D02*
X117892700Y-82249971D01*
X118035557Y-82773781D02*
X117559366Y-82773781D01*
X117559366Y-81773781D01*
X118035557Y-81773781D01*
X118940319Y-82773781D02*
X118464128Y-82773781D01*
X118464128Y-81773781D01*
X119226033Y-82488067D02*
X119702224Y-82488067D01*
X119130795Y-82773781D02*
X119464128Y-81773781D01*
X119797462Y-82773781D01*
X120321271Y-82297590D02*
X120321271Y-82773781D01*
X119987938Y-81773781D02*
X120321271Y-82297590D01*
X120654605Y-81773781D01*
X121702224Y-81869019D02*
X121749843Y-81821400D01*
X121845081Y-81773781D01*
X122083177Y-81773781D01*
X122178415Y-81821400D01*
X122226034Y-81869019D01*
X122273653Y-81964257D01*
X122273653Y-82059495D01*
X122226034Y-82202352D01*
X121654605Y-82773781D01*
X122273653Y-82773781D01*
X103668866Y-75128381D02*
X103668866Y-74128381D01*
X103906961Y-74128381D01*
X104049819Y-74176000D01*
X104145057Y-74271238D01*
X104192676Y-74366476D01*
X104240295Y-74556952D01*
X104240295Y-74699810D01*
X104192676Y-74890286D01*
X104145057Y-74985524D01*
X104049819Y-75080762D01*
X103906961Y-75128381D01*
X103668866Y-75128381D01*
X104668866Y-74604571D02*
X105002200Y-74604571D01*
X105145057Y-75128381D02*
X104668866Y-75128381D01*
X104668866Y-74128381D01*
X105145057Y-74128381D01*
X106049819Y-75128381D02*
X105573628Y-75128381D01*
X105573628Y-74128381D01*
X106335533Y-74842667D02*
X106811724Y-74842667D01*
X106240295Y-75128381D02*
X106573628Y-74128381D01*
X106906962Y-75128381D01*
X107430771Y-74652190D02*
X107430771Y-75128381D01*
X107097438Y-74128381D02*
X107430771Y-74652190D01*
X107764105Y-74128381D01*
X108811724Y-74223619D02*
X108859343Y-74176000D01*
X108954581Y-74128381D01*
X109192677Y-74128381D01*
X109287915Y-74176000D01*
X109335534Y-74223619D01*
X109383153Y-74318857D01*
X109383153Y-74414095D01*
X109335534Y-74556952D01*
X108764105Y-75128381D01*
X109383153Y-75128381D01*
X117003866Y-70149981D02*
X117003866Y-69149981D01*
X117241961Y-69149981D01*
X117384819Y-69197600D01*
X117480057Y-69292838D01*
X117527676Y-69388076D01*
X117575295Y-69578552D01*
X117575295Y-69721410D01*
X117527676Y-69911886D01*
X117480057Y-70007124D01*
X117384819Y-70102362D01*
X117241961Y-70149981D01*
X117003866Y-70149981D01*
X118003866Y-69626171D02*
X118337200Y-69626171D01*
X118480057Y-70149981D02*
X118003866Y-70149981D01*
X118003866Y-69149981D01*
X118480057Y-69149981D01*
X119384819Y-70149981D02*
X118908628Y-70149981D01*
X118908628Y-69149981D01*
X119670533Y-69864267D02*
X120146724Y-69864267D01*
X119575295Y-70149981D02*
X119908628Y-69149981D01*
X120241962Y-70149981D01*
X120765771Y-69673790D02*
X120765771Y-70149981D01*
X120432438Y-69149981D02*
X120765771Y-69673790D01*
X121099105Y-69149981D01*
X122718153Y-70149981D02*
X122146724Y-70149981D01*
X122432438Y-70149981D02*
X122432438Y-69149981D01*
X122337200Y-69292838D01*
X122241962Y-69388076D01*
X122146724Y-69435695D01*
X103846666Y-62060081D02*
X103846666Y-61060081D01*
X104084761Y-61060081D01*
X104227619Y-61107700D01*
X104322857Y-61202938D01*
X104370476Y-61298176D01*
X104418095Y-61488652D01*
X104418095Y-61631510D01*
X104370476Y-61821986D01*
X104322857Y-61917224D01*
X104227619Y-62012462D01*
X104084761Y-62060081D01*
X103846666Y-62060081D01*
X104846666Y-61536271D02*
X105180000Y-61536271D01*
X105322857Y-62060081D02*
X104846666Y-62060081D01*
X104846666Y-61060081D01*
X105322857Y-61060081D01*
X106227619Y-62060081D02*
X105751428Y-62060081D01*
X105751428Y-61060081D01*
X106513333Y-61774367D02*
X106989524Y-61774367D01*
X106418095Y-62060081D02*
X106751428Y-61060081D01*
X107084762Y-62060081D01*
X107608571Y-61583890D02*
X107608571Y-62060081D01*
X107275238Y-61060081D02*
X107608571Y-61583890D01*
X107941905Y-61060081D01*
X109560953Y-62060081D02*
X108989524Y-62060081D01*
X109275238Y-62060081D02*
X109275238Y-61060081D01*
X109180000Y-61202938D01*
X109084762Y-61298176D01*
X108989524Y-61345795D01*
X66946829Y-58529481D02*
X66946829Y-57529481D01*
X67327782Y-57529481D01*
X67423020Y-57577100D01*
X67470639Y-57624719D01*
X67518258Y-57719957D01*
X67518258Y-57862814D01*
X67470639Y-57958052D01*
X67423020Y-58005671D01*
X67327782Y-58053290D01*
X66946829Y-58053290D01*
X68518258Y-58529481D02*
X68184924Y-58053290D01*
X67946829Y-58529481D02*
X67946829Y-57529481D01*
X68327782Y-57529481D01*
X68423020Y-57577100D01*
X68470639Y-57624719D01*
X68518258Y-57719957D01*
X68518258Y-57862814D01*
X68470639Y-57958052D01*
X68423020Y-58005671D01*
X68327782Y-58053290D01*
X67946829Y-58053290D01*
X68946829Y-58529481D02*
X68946829Y-57529481D01*
X69423019Y-58529481D02*
X69423019Y-57529481D01*
X69756353Y-58243767D01*
X70089686Y-57529481D01*
X70089686Y-58529481D01*
X70518257Y-58243767D02*
X70994448Y-58243767D01*
X70423019Y-58529481D02*
X70756352Y-57529481D01*
X71089686Y-58529481D01*
X71994448Y-58529481D02*
X71661114Y-58053290D01*
X71423019Y-58529481D02*
X71423019Y-57529481D01*
X71803972Y-57529481D01*
X71899210Y-57577100D01*
X71946829Y-57624719D01*
X71994448Y-57719957D01*
X71994448Y-57862814D01*
X71946829Y-57958052D01*
X71899210Y-58005671D01*
X71803972Y-58053290D01*
X71423019Y-58053290D01*
X72613495Y-58053290D02*
X72613495Y-58529481D01*
X72280162Y-57529481D02*
X72613495Y-58053290D01*
X72946829Y-57529481D01*
X67295972Y-51925481D02*
X66962638Y-51449290D01*
X66724543Y-51925481D02*
X66724543Y-50925481D01*
X67105496Y-50925481D01*
X67200734Y-50973100D01*
X67248353Y-51020719D01*
X67295972Y-51115957D01*
X67295972Y-51258814D01*
X67248353Y-51354052D01*
X67200734Y-51401671D01*
X67105496Y-51449290D01*
X66724543Y-51449290D01*
X67724543Y-51401671D02*
X68057877Y-51401671D01*
X68200734Y-51925481D02*
X67724543Y-51925481D01*
X67724543Y-50925481D01*
X68200734Y-50925481D01*
X68486448Y-50925481D02*
X68819781Y-51925481D01*
X69153115Y-50925481D01*
X69486448Y-51925481D02*
X69486448Y-50925481D01*
X69867401Y-50925481D01*
X69962639Y-50973100D01*
X70010258Y-51020719D01*
X70057877Y-51115957D01*
X70057877Y-51258814D01*
X70010258Y-51354052D01*
X69962639Y-51401671D01*
X69867401Y-51449290D01*
X69486448Y-51449290D01*
X70486448Y-51925481D02*
X70486448Y-50925481D01*
X70486448Y-51401671D02*
X71057877Y-51401671D01*
X71057877Y-51925481D02*
X71057877Y-50925481D01*
X71486448Y-51877862D02*
X71629305Y-51925481D01*
X71867401Y-51925481D01*
X71962639Y-51877862D01*
X72010258Y-51830243D01*
X72057877Y-51735005D01*
X72057877Y-51639767D01*
X72010258Y-51544529D01*
X71962639Y-51496910D01*
X71867401Y-51449290D01*
X71676924Y-51401671D01*
X71581686Y-51354052D01*
X71534067Y-51306433D01*
X71486448Y-51211195D01*
X71486448Y-51115957D01*
X71534067Y-51020719D01*
X71581686Y-50973100D01*
X71676924Y-50925481D01*
X71915020Y-50925481D01*
X72057877Y-50973100D01*
X75971496Y-50719100D02*
X75876258Y-50671481D01*
X75733401Y-50671481D01*
X75590543Y-50719100D01*
X75495305Y-50814338D01*
X75447686Y-50909576D01*
X75400067Y-51100052D01*
X75400067Y-51242910D01*
X75447686Y-51433386D01*
X75495305Y-51528624D01*
X75590543Y-51623862D01*
X75733401Y-51671481D01*
X75828639Y-51671481D01*
X75971496Y-51623862D01*
X76019115Y-51576243D01*
X76019115Y-51242910D01*
X75828639Y-51242910D01*
X76447686Y-51671481D02*
X76447686Y-50671481D01*
X77019115Y-51671481D01*
X77019115Y-50671481D01*
X77495305Y-51671481D02*
X77495305Y-50671481D01*
X77733400Y-50671481D01*
X77876258Y-50719100D01*
X77971496Y-50814338D01*
X78019115Y-50909576D01*
X78066734Y-51100052D01*
X78066734Y-51242910D01*
X78019115Y-51433386D01*
X77971496Y-51528624D01*
X77876258Y-51623862D01*
X77733400Y-51671481D01*
X77495305Y-51671481D01*
X106959661Y-56616267D02*
X106483470Y-56949601D01*
X106959661Y-57187696D02*
X105959661Y-57187696D01*
X105959661Y-56806743D01*
X106007280Y-56711505D01*
X106054899Y-56663886D01*
X106150137Y-56616267D01*
X106292994Y-56616267D01*
X106388232Y-56663886D01*
X106435851Y-56711505D01*
X106483470Y-56806743D01*
X106483470Y-57187696D01*
X106435851Y-55854362D02*
X106435851Y-56187696D01*
X106959661Y-56187696D02*
X105959661Y-56187696D01*
X105959661Y-55711505D01*
X93043120Y-57147364D02*
X92995501Y-57242602D01*
X92995501Y-57385459D01*
X93043120Y-57528317D01*
X93138358Y-57623555D01*
X93233596Y-57671174D01*
X93424072Y-57718793D01*
X93566930Y-57718793D01*
X93757406Y-57671174D01*
X93852644Y-57623555D01*
X93947882Y-57528317D01*
X93995501Y-57385459D01*
X93995501Y-57290221D01*
X93947882Y-57147364D01*
X93900263Y-57099745D01*
X93566930Y-57099745D01*
X93566930Y-57290221D01*
X93995501Y-56671174D02*
X92995501Y-56671174D01*
X93995501Y-56099745D01*
X92995501Y-56099745D01*
X93995501Y-55623555D02*
X92995501Y-55623555D01*
X92995501Y-55385460D01*
X93043120Y-55242602D01*
X93138358Y-55147364D01*
X93233596Y-55099745D01*
X93424072Y-55052126D01*
X93566930Y-55052126D01*
X93757406Y-55099745D01*
X93852644Y-55147364D01*
X93947882Y-55242602D01*
X93995501Y-55385460D01*
X93995501Y-55623555D01*
X122123531Y-58838839D02*
X122123531Y-59838839D01*
X121647341Y-58838839D02*
X121647341Y-59838839D01*
X121075912Y-58838839D01*
X121075912Y-59838839D01*
X120599722Y-58838839D02*
X120599722Y-59838839D01*
X120218769Y-59838839D01*
X120123531Y-59791220D01*
X120075912Y-59743601D01*
X120028293Y-59648363D01*
X120028293Y-59505506D01*
X120075912Y-59410268D01*
X120123531Y-59362649D01*
X120218769Y-59315030D01*
X120599722Y-59315030D01*
X119409246Y-59838839D02*
X119218769Y-59838839D01*
X119123531Y-59791220D01*
X119028293Y-59695982D01*
X118980674Y-59505506D01*
X118980674Y-59172172D01*
X119028293Y-58981696D01*
X119123531Y-58886458D01*
X119218769Y-58838839D01*
X119409246Y-58838839D01*
X119504484Y-58886458D01*
X119599722Y-58981696D01*
X119647341Y-59172172D01*
X119647341Y-59505506D01*
X119599722Y-59695982D01*
X119504484Y-59791220D01*
X119409246Y-59838839D01*
X117980674Y-58838839D02*
X118314008Y-59315030D01*
X118552103Y-58838839D02*
X118552103Y-59838839D01*
X118171150Y-59838839D01*
X118075912Y-59791220D01*
X118028293Y-59743601D01*
X117980674Y-59648363D01*
X117980674Y-59505506D01*
X118028293Y-59410268D01*
X118075912Y-59362649D01*
X118171150Y-59315030D01*
X118552103Y-59315030D01*
X117694960Y-59838839D02*
X117123531Y-59838839D01*
X117409246Y-58838839D02*
X117409246Y-59838839D01*
X126182381Y-56316547D02*
X125706190Y-56649881D01*
X126182381Y-56887976D02*
X125182381Y-56887976D01*
X125182381Y-56507023D01*
X125230000Y-56411785D01*
X125277619Y-56364166D01*
X125372857Y-56316547D01*
X125515714Y-56316547D01*
X125610952Y-56364166D01*
X125658571Y-56411785D01*
X125706190Y-56507023D01*
X125706190Y-56887976D01*
X125658571Y-55554642D02*
X125658571Y-55887976D01*
X126182381Y-55887976D02*
X125182381Y-55887976D01*
X125182381Y-55411785D01*
X112542700Y-56972104D02*
X112495081Y-57067342D01*
X112495081Y-57210199D01*
X112542700Y-57353057D01*
X112637938Y-57448295D01*
X112733176Y-57495914D01*
X112923652Y-57543533D01*
X113066510Y-57543533D01*
X113256986Y-57495914D01*
X113352224Y-57448295D01*
X113447462Y-57353057D01*
X113495081Y-57210199D01*
X113495081Y-57114961D01*
X113447462Y-56972104D01*
X113399843Y-56924485D01*
X113066510Y-56924485D01*
X113066510Y-57114961D01*
X113495081Y-56495914D02*
X112495081Y-56495914D01*
X113495081Y-55924485D01*
X112495081Y-55924485D01*
X113495081Y-55448295D02*
X112495081Y-55448295D01*
X112495081Y-55210200D01*
X112542700Y-55067342D01*
X112637938Y-54972104D01*
X112733176Y-54924485D01*
X112923652Y-54876866D01*
X113066510Y-54876866D01*
X113256986Y-54924485D01*
X113352224Y-54972104D01*
X113447462Y-55067342D01*
X113495081Y-55210200D01*
X113495081Y-55448295D01*
X67533046Y-145166389D02*
X68294951Y-145166389D01*
X67913999Y-145547341D02*
X67913999Y-144785436D01*
X69247332Y-144547341D02*
X68771141Y-144547341D01*
X68723522Y-145023531D01*
X68771141Y-144975912D01*
X68866379Y-144928293D01*
X69104475Y-144928293D01*
X69199713Y-144975912D01*
X69247332Y-145023531D01*
X69294951Y-145118770D01*
X69294951Y-145356865D01*
X69247332Y-145452103D01*
X69199713Y-145499722D01*
X69104475Y-145547341D01*
X68866379Y-145547341D01*
X68771141Y-145499722D01*
X68723522Y-145452103D01*
X69580665Y-144547341D02*
X69913998Y-145547341D01*
X70247332Y-144547341D01*
X63190571Y-144993051D02*
X63523905Y-144993051D01*
X63666762Y-145516861D02*
X63190571Y-145516861D01*
X63190571Y-144516861D01*
X63666762Y-144516861D01*
X64000095Y-144516861D02*
X64666762Y-145516861D01*
X64666762Y-144516861D02*
X64000095Y-145516861D01*
X64904857Y-144516861D02*
X65476286Y-144516861D01*
X65190571Y-145516861D02*
X65190571Y-144516861D01*
X59988486Y-135453381D02*
X59988486Y-134453381D01*
X59988486Y-134929571D02*
X60559915Y-134929571D01*
X60559915Y-135453381D02*
X60559915Y-134453381D01*
X62125314Y-132983267D02*
X62601505Y-132983267D01*
X62030076Y-133268981D02*
X62363409Y-132268981D01*
X62696743Y-133268981D01*
X62982457Y-132364219D02*
X63030076Y-132316600D01*
X63125314Y-132268981D01*
X63363410Y-132268981D01*
X63458648Y-132316600D01*
X63506267Y-132364219D01*
X63553886Y-132459457D01*
X63553886Y-132554695D01*
X63506267Y-132697552D01*
X62934838Y-133268981D01*
X63553886Y-133268981D01*
D12*
X53594000Y-123190000D02*
X53594000Y-123063000D01*
X142240000Y-123215400D02*
X142240000Y-123393200D01*
D11*
X54844915Y-142768581D02*
X54273486Y-142768581D01*
X54559200Y-142768581D02*
X54559200Y-141768581D01*
X54463962Y-141911438D01*
X54368724Y-142006676D01*
X54273486Y-142054295D01*
X50647696Y-119977280D02*
X50552458Y-119929661D01*
X50409601Y-119929661D01*
X50266743Y-119977280D01*
X50171505Y-120072518D01*
X50123886Y-120167756D01*
X50076267Y-120358232D01*
X50076267Y-120501090D01*
X50123886Y-120691566D01*
X50171505Y-120786804D01*
X50266743Y-120882042D01*
X50409601Y-120929661D01*
X50504839Y-120929661D01*
X50647696Y-120882042D01*
X50695315Y-120834423D01*
X50695315Y-120501090D01*
X50504839Y-120501090D01*
X51123886Y-120929661D02*
X51123886Y-119929661D01*
X51695315Y-120929661D01*
X51695315Y-119929661D01*
X52171505Y-120929661D02*
X52171505Y-119929661D01*
X52409600Y-119929661D01*
X52552458Y-119977280D01*
X52647696Y-120072518D01*
X52695315Y-120167756D01*
X52742934Y-120358232D01*
X52742934Y-120501090D01*
X52695315Y-120691566D01*
X52647696Y-120786804D01*
X52552458Y-120882042D01*
X52409600Y-120929661D01*
X52171505Y-120929661D01*
X129383423Y-53429762D02*
X129526280Y-53477381D01*
X129764376Y-53477381D01*
X129859614Y-53429762D01*
X129907233Y-53382143D01*
X129954852Y-53286905D01*
X129954852Y-53191667D01*
X129907233Y-53096429D01*
X129859614Y-53048810D01*
X129764376Y-53001190D01*
X129573899Y-52953571D01*
X129478661Y-52905952D01*
X129431042Y-52858333D01*
X129383423Y-52763095D01*
X129383423Y-52667857D01*
X129431042Y-52572619D01*
X129478661Y-52525000D01*
X129573899Y-52477381D01*
X129811995Y-52477381D01*
X129954852Y-52525000D01*
X130383423Y-53477381D02*
X130383423Y-52477381D01*
X130716757Y-53191667D01*
X131050090Y-52477381D01*
X131050090Y-53477381D01*
X131478661Y-53191667D02*
X131954852Y-53191667D01*
X131383423Y-53477381D02*
X131716756Y-52477381D01*
X132050090Y-53477381D01*
X132859614Y-53477381D02*
X132383423Y-53477381D01*
X132383423Y-52477381D01*
X133669138Y-53477381D02*
X133192947Y-53477381D01*
X133192947Y-52477381D01*
X134764376Y-53477381D02*
X134764376Y-52477381D01*
X135002471Y-52477381D01*
X135145329Y-52525000D01*
X135240567Y-52620238D01*
X135288186Y-52715476D01*
X135335805Y-52905952D01*
X135335805Y-53048810D01*
X135288186Y-53239286D01*
X135240567Y-53334524D01*
X135145329Y-53429762D01*
X135002471Y-53477381D01*
X134764376Y-53477381D01*
X135764376Y-52953571D02*
X136097710Y-52953571D01*
X136240567Y-53477381D02*
X135764376Y-53477381D01*
X135764376Y-52477381D01*
X136240567Y-52477381D01*
X137145329Y-53477381D02*
X136669138Y-53477381D01*
X136669138Y-52477381D01*
X137431043Y-53191667D02*
X137907234Y-53191667D01*
X137335805Y-53477381D02*
X137669138Y-52477381D01*
X138002472Y-53477381D01*
X138526281Y-53001190D02*
X138526281Y-53477381D01*
X138192948Y-52477381D02*
X138526281Y-53001190D01*
X138859615Y-52477381D01*
X129859614Y-55079762D02*
X130002471Y-55127381D01*
X130240567Y-55127381D01*
X130335805Y-55079762D01*
X130383424Y-55032143D01*
X130431043Y-54936905D01*
X130431043Y-54841667D01*
X130383424Y-54746429D01*
X130335805Y-54698810D01*
X130240567Y-54651190D01*
X130050090Y-54603571D01*
X129954852Y-54555952D01*
X129907233Y-54508333D01*
X129859614Y-54413095D01*
X129859614Y-54317857D01*
X129907233Y-54222619D01*
X129954852Y-54175000D01*
X130050090Y-54127381D01*
X130288186Y-54127381D01*
X130431043Y-54175000D01*
X130859614Y-54603571D02*
X131192948Y-54603571D01*
X131335805Y-55127381D02*
X130859614Y-55127381D01*
X130859614Y-54127381D01*
X131335805Y-54127381D01*
X132335805Y-55032143D02*
X132288186Y-55079762D01*
X132145329Y-55127381D01*
X132050091Y-55127381D01*
X131907233Y-55079762D01*
X131811995Y-54984524D01*
X131764376Y-54889286D01*
X131716757Y-54698810D01*
X131716757Y-54555952D01*
X131764376Y-54365476D01*
X131811995Y-54270238D01*
X131907233Y-54175000D01*
X132050091Y-54127381D01*
X132145329Y-54127381D01*
X132288186Y-54175000D01*
X132335805Y-54222619D01*
X132621519Y-54127381D02*
X133192948Y-54127381D01*
X132907233Y-55127381D02*
X132907233Y-54127381D01*
X133526281Y-55127381D02*
X133526281Y-54127381D01*
X134192947Y-54127381D02*
X134383424Y-54127381D01*
X134478662Y-54175000D01*
X134573900Y-54270238D01*
X134621519Y-54460714D01*
X134621519Y-54794048D01*
X134573900Y-54984524D01*
X134478662Y-55079762D01*
X134383424Y-55127381D01*
X134192947Y-55127381D01*
X134097709Y-55079762D01*
X134002471Y-54984524D01*
X133954852Y-54794048D01*
X133954852Y-54460714D01*
X134002471Y-54270238D01*
X134097709Y-54175000D01*
X134192947Y-54127381D01*
X135050090Y-55127381D02*
X135050090Y-54127381D01*
X135621519Y-55127381D01*
X135621519Y-54127381D01*
X137192948Y-54603571D02*
X137335805Y-54651190D01*
X137383424Y-54698810D01*
X137431043Y-54794048D01*
X137431043Y-54936905D01*
X137383424Y-55032143D01*
X137335805Y-55079762D01*
X137240567Y-55127381D01*
X136859614Y-55127381D01*
X136859614Y-54127381D01*
X137192948Y-54127381D01*
X137288186Y-54175000D01*
X137335805Y-54222619D01*
X137383424Y-54317857D01*
X137383424Y-54413095D01*
X137335805Y-54508333D01*
X137288186Y-54555952D01*
X137192948Y-54603571D01*
X136859614Y-54603571D01*
X138050090Y-54651190D02*
X138050090Y-55127381D01*
X137716757Y-54127381D02*
X138050090Y-54651190D01*
X138383424Y-54127381D01*
X128407233Y-56777381D02*
X128407233Y-55777381D01*
X128645328Y-55777381D01*
X128788186Y-55825000D01*
X128883424Y-55920238D01*
X128931043Y-56015476D01*
X128978662Y-56205952D01*
X128978662Y-56348810D01*
X128931043Y-56539286D01*
X128883424Y-56634524D01*
X128788186Y-56729762D01*
X128645328Y-56777381D01*
X128407233Y-56777381D01*
X130169138Y-56777381D02*
X130169138Y-55777381D01*
X130502472Y-56491667D01*
X130835805Y-55777381D01*
X130835805Y-56777381D01*
X131264376Y-56491667D02*
X131740567Y-56491667D01*
X131169138Y-56777381D02*
X131502471Y-55777381D01*
X131835805Y-56777381D01*
X132740567Y-56777381D02*
X132407233Y-56301190D01*
X132169138Y-56777381D02*
X132169138Y-55777381D01*
X132550091Y-55777381D01*
X132645329Y-55825000D01*
X132692948Y-55872619D01*
X132740567Y-55967857D01*
X132740567Y-56110714D01*
X132692948Y-56205952D01*
X132645329Y-56253571D01*
X132550091Y-56301190D01*
X132169138Y-56301190D01*
X133169138Y-56777381D02*
X133169138Y-55777381D01*
X133740567Y-56777381D02*
X133311995Y-56205952D01*
X133740567Y-55777381D02*
X133169138Y-56348810D01*
X134121519Y-56729762D02*
X134264376Y-56777381D01*
X134502472Y-56777381D01*
X134597710Y-56729762D01*
X134645329Y-56682143D01*
X134692948Y-56586905D01*
X134692948Y-56491667D01*
X134645329Y-56396429D01*
X134597710Y-56348810D01*
X134502472Y-56301190D01*
X134311995Y-56253571D01*
X134216757Y-56205952D01*
X134169138Y-56158333D01*
X134121519Y-56063095D01*
X134121519Y-55967857D01*
X134169138Y-55872619D01*
X134216757Y-55825000D01*
X134311995Y-55777381D01*
X134550091Y-55777381D01*
X134692948Y-55825000D01*
X135883424Y-56777381D02*
X135883424Y-55777381D01*
X136454853Y-56777381D02*
X136026281Y-56205952D01*
X136454853Y-55777381D02*
X135883424Y-56348810D01*
X136788186Y-55777381D02*
X137026281Y-56777381D01*
X137216758Y-56063095D01*
X137407234Y-56777381D01*
X137645329Y-55777381D01*
X138454853Y-56110714D02*
X138454853Y-56777381D01*
X138216757Y-55729762D02*
X137978662Y-56444048D01*
X138597710Y-56444048D01*
X138835805Y-55777381D02*
X139407234Y-55777381D01*
X139121519Y-56777381D02*
X139121519Y-55777381D01*
X139740567Y-56777381D02*
X139740567Y-55777381D01*
X128811995Y-58427381D02*
X128478661Y-57951190D01*
X128240566Y-58427381D02*
X128240566Y-57427381D01*
X128621519Y-57427381D01*
X128716757Y-57475000D01*
X128764376Y-57522619D01*
X128811995Y-57617857D01*
X128811995Y-57760714D01*
X128764376Y-57855952D01*
X128716757Y-57903571D01*
X128621519Y-57951190D01*
X128240566Y-57951190D01*
X129240566Y-57903571D02*
X129573900Y-57903571D01*
X129716757Y-58427381D02*
X129240566Y-58427381D01*
X129240566Y-57427381D01*
X129716757Y-57427381D01*
X130621519Y-58427381D02*
X130145328Y-58427381D01*
X130145328Y-57427381D01*
X130907233Y-58141667D02*
X131383424Y-58141667D01*
X130811995Y-58427381D02*
X131145328Y-57427381D01*
X131478662Y-58427381D01*
X132002471Y-57951190D02*
X132002471Y-58427381D01*
X131669138Y-57427381D02*
X132002471Y-57951190D01*
X132335805Y-57427381D01*
X132621519Y-58379762D02*
X132764376Y-58427381D01*
X133002472Y-58427381D01*
X133097710Y-58379762D01*
X133145329Y-58332143D01*
X133192948Y-58236905D01*
X133192948Y-58141667D01*
X133145329Y-58046429D01*
X133097710Y-57998810D01*
X133002472Y-57951190D01*
X132811995Y-57903571D01*
X132716757Y-57855952D01*
X132669138Y-57808333D01*
X132621519Y-57713095D01*
X132621519Y-57617857D01*
X132669138Y-57522619D01*
X132716757Y-57475000D01*
X132811995Y-57427381D01*
X133050091Y-57427381D01*
X133192948Y-57475000D01*
X134383424Y-58427381D02*
X134383424Y-57427381D01*
X134383424Y-57903571D02*
X134954853Y-57903571D01*
X134954853Y-58427381D02*
X134954853Y-57427381D01*
X135431043Y-57427381D02*
X135431043Y-58236905D01*
X135478662Y-58332143D01*
X135526281Y-58379762D01*
X135621519Y-58427381D01*
X135811996Y-58427381D01*
X135907234Y-58379762D01*
X135954853Y-58332143D01*
X136002472Y-58236905D01*
X136002472Y-57427381D01*
X136478662Y-58427381D02*
X136478662Y-57427381D01*
X137716757Y-58427381D02*
X137716757Y-57427381D01*
X138288186Y-58427381D02*
X137859614Y-57855952D01*
X138288186Y-57427381D02*
X137716757Y-57998810D01*
X138716757Y-57903571D02*
X139050091Y-57903571D01*
X139192948Y-58427381D02*
X138716757Y-58427381D01*
X138716757Y-57427381D01*
X139192948Y-57427381D01*
X128597709Y-60077381D02*
X128597709Y-59077381D01*
X128597709Y-59553571D02*
X129169138Y-59553571D01*
X129169138Y-60077381D02*
X129169138Y-59077381D01*
X129645328Y-60077381D02*
X129645328Y-59077381D01*
X130216757Y-60077381D02*
X129788185Y-59505952D01*
X130216757Y-59077381D02*
X129645328Y-59648810D01*
X131169138Y-60077381D02*
X130597709Y-60077381D01*
X130883423Y-60077381D02*
X130883423Y-59077381D01*
X130788185Y-59220238D01*
X130692947Y-59315476D01*
X130597709Y-59363095D01*
X131645328Y-60077381D02*
X131835804Y-60077381D01*
X131931043Y-60029762D01*
X131978662Y-59982143D01*
X132073900Y-59839286D01*
X132121519Y-59648810D01*
X132121519Y-59267857D01*
X132073900Y-59172619D01*
X132026281Y-59125000D01*
X131931043Y-59077381D01*
X131740566Y-59077381D01*
X131645328Y-59125000D01*
X131597709Y-59172619D01*
X131550090Y-59267857D01*
X131550090Y-59505952D01*
X131597709Y-59601190D01*
X131645328Y-59648810D01*
X131740566Y-59696429D01*
X131931043Y-59696429D01*
X132026281Y-59648810D01*
X132073900Y-59601190D01*
X132121519Y-59505952D01*
X132883424Y-59553571D02*
X132550090Y-59553571D01*
X132550090Y-60077381D02*
X132550090Y-59077381D01*
X133026281Y-59077381D01*
X134169138Y-60077381D02*
X134169138Y-59077381D01*
X134169138Y-59553571D02*
X134740567Y-59553571D01*
X134740567Y-60077381D02*
X134740567Y-59077381D01*
X135407233Y-59077381D02*
X135597710Y-59077381D01*
X135692948Y-59125000D01*
X135788186Y-59220238D01*
X135835805Y-59410714D01*
X135835805Y-59744048D01*
X135788186Y-59934524D01*
X135692948Y-60029762D01*
X135597710Y-60077381D01*
X135407233Y-60077381D01*
X135311995Y-60029762D01*
X135216757Y-59934524D01*
X135169138Y-59744048D01*
X135169138Y-59410714D01*
X135216757Y-59220238D01*
X135311995Y-59125000D01*
X135407233Y-59077381D01*
X136264376Y-60077381D02*
X136264376Y-59077381D01*
X136835805Y-60077381D01*
X136835805Y-59077381D01*
X137835805Y-59125000D02*
X137740567Y-59077381D01*
X137597710Y-59077381D01*
X137454852Y-59125000D01*
X137359614Y-59220238D01*
X137311995Y-59315476D01*
X137264376Y-59505952D01*
X137264376Y-59648810D01*
X137311995Y-59839286D01*
X137359614Y-59934524D01*
X137454852Y-60029762D01*
X137597710Y-60077381D01*
X137692948Y-60077381D01*
X137835805Y-60029762D01*
X137883424Y-59982143D01*
X137883424Y-59648810D01*
X137692948Y-59648810D01*
X138645329Y-59553571D02*
X138311995Y-59553571D01*
X138311995Y-60077381D02*
X138311995Y-59077381D01*
X138788186Y-59077381D01*
X139121519Y-59791667D02*
X139597710Y-59791667D01*
X139026281Y-60077381D02*
X139359614Y-59077381D01*
X139692948Y-60077381D01*
X126478662Y-61727381D02*
X126478662Y-60727381D01*
X126478662Y-61203571D02*
X127050091Y-61203571D01*
X127050091Y-61727381D02*
X127050091Y-60727381D01*
X127526281Y-61727381D02*
X127526281Y-60727381D01*
X127764376Y-60727381D01*
X127907234Y-60775000D01*
X128002472Y-60870238D01*
X128050091Y-60965476D01*
X128097710Y-61155952D01*
X128097710Y-61298810D01*
X128050091Y-61489286D01*
X128002472Y-61584524D01*
X127907234Y-61679762D01*
X127764376Y-61727381D01*
X127526281Y-61727381D01*
X128859615Y-61203571D02*
X128526281Y-61203571D01*
X128526281Y-61727381D02*
X128526281Y-60727381D01*
X129002472Y-60727381D01*
X129335805Y-60822619D02*
X129383424Y-60775000D01*
X129478662Y-60727381D01*
X129716758Y-60727381D01*
X129811996Y-60775000D01*
X129859615Y-60822619D01*
X129907234Y-60917857D01*
X129907234Y-61013095D01*
X129859615Y-61155952D01*
X129288186Y-61727381D01*
X129907234Y-61727381D01*
X131288186Y-60727381D02*
X131478663Y-60727381D01*
X131573901Y-60775000D01*
X131669139Y-60870238D01*
X131716758Y-61060714D01*
X131716758Y-61394048D01*
X131669139Y-61584524D01*
X131573901Y-61679762D01*
X131478663Y-61727381D01*
X131288186Y-61727381D01*
X131192948Y-61679762D01*
X131097710Y-61584524D01*
X131050091Y-61394048D01*
X131050091Y-61060714D01*
X131097710Y-60870238D01*
X131192948Y-60775000D01*
X131288186Y-60727381D01*
X132145329Y-61727381D02*
X132145329Y-60727381D01*
X132478663Y-61441667D01*
X132811996Y-60727381D01*
X132811996Y-61727381D01*
X133859615Y-61727381D02*
X133526281Y-61251190D01*
X133288186Y-61727381D02*
X133288186Y-60727381D01*
X133669139Y-60727381D01*
X133764377Y-60775000D01*
X133811996Y-60822619D01*
X133859615Y-60917857D01*
X133859615Y-61060714D01*
X133811996Y-61155952D01*
X133764377Y-61203571D01*
X133669139Y-61251190D01*
X133288186Y-61251190D01*
X134478662Y-60727381D02*
X134669139Y-60727381D01*
X134764377Y-60775000D01*
X134859615Y-60870238D01*
X134907234Y-61060714D01*
X134907234Y-61394048D01*
X134859615Y-61584524D01*
X134764377Y-61679762D01*
X134669139Y-61727381D01*
X134478662Y-61727381D01*
X134383424Y-61679762D01*
X134288186Y-61584524D01*
X134240567Y-61394048D01*
X134240567Y-61060714D01*
X134288186Y-60870238D01*
X134383424Y-60775000D01*
X134478662Y-60727381D01*
X135335805Y-61727381D02*
X135335805Y-60727381D01*
X135907234Y-61727381D01*
X135907234Y-60727381D01*
X137669139Y-60775000D02*
X137573901Y-60727381D01*
X137431044Y-60727381D01*
X137288186Y-60775000D01*
X137192948Y-60870238D01*
X137145329Y-60965476D01*
X137097710Y-61155952D01*
X137097710Y-61298810D01*
X137145329Y-61489286D01*
X137192948Y-61584524D01*
X137288186Y-61679762D01*
X137431044Y-61727381D01*
X137526282Y-61727381D01*
X137669139Y-61679762D01*
X137716758Y-61632143D01*
X137716758Y-61298810D01*
X137526282Y-61298810D01*
X138621520Y-60727381D02*
X138145329Y-60727381D01*
X138097710Y-61203571D01*
X138145329Y-61155952D01*
X138240567Y-61108333D01*
X138478663Y-61108333D01*
X138573901Y-61155952D01*
X138621520Y-61203571D01*
X138669139Y-61298810D01*
X138669139Y-61536905D01*
X138621520Y-61632143D01*
X138573901Y-61679762D01*
X138478663Y-61727381D01*
X138240567Y-61727381D01*
X138145329Y-61679762D01*
X138097710Y-61632143D01*
X138954853Y-60727381D02*
X139288186Y-61727381D01*
X139621520Y-60727381D01*
X139954853Y-61346429D02*
X140716758Y-61346429D01*
X141145329Y-60822619D02*
X141192948Y-60775000D01*
X141288186Y-60727381D01*
X141526282Y-60727381D01*
X141621520Y-60775000D01*
X141669139Y-60822619D01*
X141716758Y-60917857D01*
X141716758Y-61013095D01*
X141669139Y-61155952D01*
X141097710Y-61727381D01*
X141716758Y-61727381D01*
X76509619Y-136493714D02*
X77509619Y-136493714D01*
X76795333Y-136827048D01*
X77509619Y-137160381D01*
X76509619Y-137160381D01*
X76604857Y-138208000D02*
X76557238Y-138160381D01*
X76509619Y-138017524D01*
X76509619Y-137922286D01*
X76557238Y-137779428D01*
X76652476Y-137684190D01*
X76747714Y-137636571D01*
X76938190Y-137588952D01*
X77081048Y-137588952D01*
X77271524Y-137636571D01*
X77366762Y-137684190D01*
X77462000Y-137779428D01*
X77509619Y-137922286D01*
X77509619Y-138017524D01*
X77462000Y-138160381D01*
X77414381Y-138208000D01*
X76509619Y-138636571D02*
X77509619Y-138636571D01*
X77509619Y-139017524D01*
X77462000Y-139112762D01*
X77414381Y-139160381D01*
X77319143Y-139208000D01*
X77176286Y-139208000D01*
X77081048Y-139160381D01*
X77033429Y-139112762D01*
X76985810Y-139017524D01*
X76985810Y-138636571D01*
X77414381Y-139588952D02*
X77462000Y-139636571D01*
X77509619Y-139731809D01*
X77509619Y-139969905D01*
X77462000Y-140065143D01*
X77414381Y-140112762D01*
X77319143Y-140160381D01*
X77223905Y-140160381D01*
X77081048Y-140112762D01*
X76509619Y-139541333D01*
X76509619Y-140160381D01*
X77509619Y-140493714D02*
X77509619Y-141112762D01*
X77128667Y-140779428D01*
X77128667Y-140922286D01*
X77081048Y-141017524D01*
X77033429Y-141065143D01*
X76938190Y-141112762D01*
X76700095Y-141112762D01*
X76604857Y-141065143D01*
X76557238Y-141017524D01*
X76509619Y-140922286D01*
X76509619Y-140636571D01*
X76557238Y-140541333D01*
X76604857Y-140493714D01*
X77509619Y-141731809D02*
X77509619Y-141827048D01*
X77462000Y-141922286D01*
X77414381Y-141969905D01*
X77319143Y-142017524D01*
X77128667Y-142065143D01*
X76890571Y-142065143D01*
X76700095Y-142017524D01*
X76604857Y-141969905D01*
X76557238Y-141922286D01*
X76509619Y-141827048D01*
X76509619Y-141731809D01*
X76557238Y-141636571D01*
X76604857Y-141588952D01*
X76700095Y-141541333D01*
X76890571Y-141493714D01*
X77128667Y-141493714D01*
X77319143Y-141541333D01*
X77414381Y-141588952D01*
X77462000Y-141636571D01*
X77509619Y-141731809D01*
X77509619Y-142684190D02*
X77509619Y-142779429D01*
X77462000Y-142874667D01*
X77414381Y-142922286D01*
X77319143Y-142969905D01*
X77128667Y-143017524D01*
X76890571Y-143017524D01*
X76700095Y-142969905D01*
X76604857Y-142922286D01*
X76557238Y-142874667D01*
X76509619Y-142779429D01*
X76509619Y-142684190D01*
X76557238Y-142588952D01*
X76604857Y-142541333D01*
X76700095Y-142493714D01*
X76890571Y-142446095D01*
X77128667Y-142446095D01*
X77319143Y-142493714D01*
X77414381Y-142541333D01*
X77462000Y-142588952D01*
X77509619Y-142684190D01*
X77081048Y-143588952D02*
X77128667Y-143493714D01*
X77176286Y-143446095D01*
X77271524Y-143398476D01*
X77319143Y-143398476D01*
X77414381Y-143446095D01*
X77462000Y-143493714D01*
X77509619Y-143588952D01*
X77509619Y-143779429D01*
X77462000Y-143874667D01*
X77414381Y-143922286D01*
X77319143Y-143969905D01*
X77271524Y-143969905D01*
X77176286Y-143922286D01*
X77128667Y-143874667D01*
X77081048Y-143779429D01*
X77081048Y-143588952D01*
X77033429Y-143493714D01*
X76985810Y-143446095D01*
X76890571Y-143398476D01*
X76700095Y-143398476D01*
X76604857Y-143446095D01*
X76557238Y-143493714D01*
X76509619Y-143588952D01*
X76509619Y-143779429D01*
X76557238Y-143874667D01*
X76604857Y-143922286D01*
X76700095Y-143969905D01*
X76890571Y-143969905D01*
X76985810Y-143922286D01*
X77033429Y-143874667D01*
X77081048Y-143779429D01*
X105767119Y-135136381D02*
X104957595Y-135136381D01*
X104862357Y-135184000D01*
X104814738Y-135231619D01*
X104767119Y-135326857D01*
X104767119Y-135517334D01*
X104814738Y-135612572D01*
X104862357Y-135660191D01*
X104957595Y-135707810D01*
X105767119Y-135707810D01*
X104767119Y-136660191D02*
X104767119Y-136184000D01*
X105767119Y-136184000D01*
X104767119Y-136993524D02*
X105767119Y-136993524D01*
X104767119Y-137564953D01*
X105767119Y-137564953D01*
X105671881Y-137993524D02*
X105719500Y-138041143D01*
X105767119Y-138136381D01*
X105767119Y-138374477D01*
X105719500Y-138469715D01*
X105671881Y-138517334D01*
X105576643Y-138564953D01*
X105481405Y-138564953D01*
X105338548Y-138517334D01*
X104767119Y-137945905D01*
X104767119Y-138564953D01*
X105338548Y-139136381D02*
X105386167Y-139041143D01*
X105433786Y-138993524D01*
X105529024Y-138945905D01*
X105576643Y-138945905D01*
X105671881Y-138993524D01*
X105719500Y-139041143D01*
X105767119Y-139136381D01*
X105767119Y-139326858D01*
X105719500Y-139422096D01*
X105671881Y-139469715D01*
X105576643Y-139517334D01*
X105529024Y-139517334D01*
X105433786Y-139469715D01*
X105386167Y-139422096D01*
X105338548Y-139326858D01*
X105338548Y-139136381D01*
X105290929Y-139041143D01*
X105243310Y-138993524D01*
X105148071Y-138945905D01*
X104957595Y-138945905D01*
X104862357Y-138993524D01*
X104814738Y-139041143D01*
X104767119Y-139136381D01*
X104767119Y-139326858D01*
X104814738Y-139422096D01*
X104862357Y-139469715D01*
X104957595Y-139517334D01*
X105148071Y-139517334D01*
X105243310Y-139469715D01*
X105290929Y-139422096D01*
X105338548Y-139326858D01*
X105767119Y-140136381D02*
X105767119Y-140231620D01*
X105719500Y-140326858D01*
X105671881Y-140374477D01*
X105576643Y-140422096D01*
X105386167Y-140469715D01*
X105148071Y-140469715D01*
X104957595Y-140422096D01*
X104862357Y-140374477D01*
X104814738Y-140326858D01*
X104767119Y-140231620D01*
X104767119Y-140136381D01*
X104814738Y-140041143D01*
X104862357Y-139993524D01*
X104957595Y-139945905D01*
X105148071Y-139898286D01*
X105386167Y-139898286D01*
X105576643Y-139945905D01*
X105671881Y-139993524D01*
X105719500Y-140041143D01*
X105767119Y-140136381D01*
X105767119Y-140803048D02*
X105767119Y-141422096D01*
X105386167Y-141088762D01*
X105386167Y-141231620D01*
X105338548Y-141326858D01*
X105290929Y-141374477D01*
X105195690Y-141422096D01*
X104957595Y-141422096D01*
X104862357Y-141374477D01*
X104814738Y-141326858D01*
X104767119Y-141231620D01*
X104767119Y-140945905D01*
X104814738Y-140850667D01*
X104862357Y-140803048D01*
X105052833Y-141803048D02*
X105052833Y-142279239D01*
X104767119Y-141707810D02*
X105767119Y-142041143D01*
X104767119Y-142374477D01*
X60507524Y-138120381D02*
X60031333Y-138120381D01*
X60031333Y-137120381D01*
X65300314Y-132983267D02*
X65776505Y-132983267D01*
X65205076Y-133268981D02*
X65538409Y-132268981D01*
X65871743Y-133268981D01*
X66728886Y-133268981D02*
X66157457Y-133268981D01*
X66443171Y-133268981D02*
X66443171Y-132268981D01*
X66347933Y-132411838D01*
X66252695Y-132507076D01*
X66157457Y-132554695D01*
X68907114Y-133059467D02*
X69383305Y-133059467D01*
X68811876Y-133345181D02*
X69145209Y-132345181D01*
X69478543Y-133345181D01*
X70002352Y-132345181D02*
X70097591Y-132345181D01*
X70192829Y-132392800D01*
X70240448Y-132440419D01*
X70288067Y-132535657D01*
X70335686Y-132726133D01*
X70335686Y-132964229D01*
X70288067Y-133154705D01*
X70240448Y-133249943D01*
X70192829Y-133297562D01*
X70097591Y-133345181D01*
X70002352Y-133345181D01*
X69907114Y-133297562D01*
X69859495Y-133249943D01*
X69811876Y-133154705D01*
X69764257Y-132964229D01*
X69764257Y-132726133D01*
X69811876Y-132535657D01*
X69859495Y-132440419D01*
X69907114Y-132392800D01*
X70002352Y-132345181D01*
D12*
X147217900Y-99724200D02*
X126217900Y-99724200D01*
X126217900Y-109724200D02*
X147217900Y-109724200D01*
X147217900Y-109724200D02*
X147217900Y-99724200D01*
X133217900Y-105724200D02*
X128217900Y-105724200D01*
X128217900Y-105724200D02*
X128217900Y-107724200D01*
X133217900Y-103724200D02*
X128217900Y-103724200D01*
X128217900Y-103724200D02*
X128217900Y-101724200D01*
X133217900Y-101724200D02*
X133217900Y-102724200D01*
X133217900Y-107724200D02*
X133217900Y-106724200D01*
X138217900Y-101724200D02*
X138217900Y-103724200D01*
X138217900Y-103724200D02*
X131217900Y-102724200D01*
X138217900Y-107724200D02*
X138217900Y-105724200D01*
X138217900Y-105724200D02*
X131217900Y-106724200D01*
X126217900Y-99724200D02*
X126217900Y-109724200D01*
X142217900Y-103724200D02*
X142217900Y-100724200D01*
X144217900Y-108724200D02*
X142217900Y-108724200D01*
X142217900Y-108724200D02*
X142217900Y-105724200D01*
X142217900Y-105724200D02*
X144217900Y-105724200D01*
X144217900Y-105724200D02*
X144217900Y-103724200D01*
X144217900Y-103724200D02*
X140217900Y-103724200D01*
X140217900Y-103724200D02*
X140217900Y-105724200D01*
X140217900Y-105724200D02*
X142217900Y-105724200D01*
X144217900Y-100724200D02*
X142217900Y-100724200D01*
X52921400Y-112365800D02*
X73921400Y-112365800D01*
X73921400Y-102365800D02*
X52921400Y-102365800D01*
X52921400Y-102365800D02*
X52921400Y-112365800D01*
X66921400Y-106365800D02*
X71921400Y-106365800D01*
X71921400Y-106365800D02*
X71921400Y-104365800D01*
X66921400Y-108365800D02*
X71921400Y-108365800D01*
X71921400Y-108365800D02*
X71921400Y-110365800D01*
X66921400Y-110365800D02*
X66921400Y-109365800D01*
X66921400Y-104365800D02*
X66921400Y-105365800D01*
X61921400Y-110365800D02*
X61921400Y-108365800D01*
X61921400Y-108365800D02*
X68921400Y-109365800D01*
X61921400Y-104365800D02*
X61921400Y-106365800D01*
X61921400Y-106365800D02*
X68921400Y-105365800D01*
X73921400Y-112365800D02*
X73921400Y-102365800D01*
X57921400Y-108365800D02*
X57921400Y-111365800D01*
X55921400Y-103365800D02*
X57921400Y-103365800D01*
X57921400Y-103365800D02*
X57921400Y-106365800D01*
X57921400Y-106365800D02*
X55921400Y-106365800D01*
X55921400Y-106365800D02*
X55921400Y-108365800D01*
X55921400Y-108365800D02*
X59921400Y-108365800D01*
X59921400Y-108365800D02*
X59921400Y-106365800D01*
X59921400Y-106365800D02*
X57921400Y-106365800D01*
X55921400Y-111365800D02*
X57921400Y-111365800D01*
X52794400Y-74342000D02*
X73794400Y-74342000D01*
X73794400Y-64342000D02*
X52794400Y-64342000D01*
X52794400Y-64342000D02*
X52794400Y-74342000D01*
X66794400Y-68342000D02*
X71794400Y-68342000D01*
X71794400Y-68342000D02*
X71794400Y-66342000D01*
X66794400Y-70342000D02*
X71794400Y-70342000D01*
X71794400Y-70342000D02*
X71794400Y-72342000D01*
X66794400Y-72342000D02*
X66794400Y-71342000D01*
X66794400Y-66342000D02*
X66794400Y-67342000D01*
X61794400Y-72342000D02*
X61794400Y-70342000D01*
X61794400Y-70342000D02*
X68794400Y-71342000D01*
X61794400Y-66342000D02*
X61794400Y-68342000D01*
X61794400Y-68342000D02*
X68794400Y-67342000D01*
X73794400Y-74342000D02*
X73794400Y-64342000D01*
X57794400Y-70342000D02*
X57794400Y-73342000D01*
X55794400Y-65342000D02*
X57794400Y-65342000D01*
X57794400Y-65342000D02*
X57794400Y-68342000D01*
X57794400Y-68342000D02*
X55794400Y-68342000D01*
X55794400Y-68342000D02*
X55794400Y-70342000D01*
X55794400Y-70342000D02*
X59794400Y-70342000D01*
X59794400Y-70342000D02*
X59794400Y-68342000D01*
X59794400Y-68342000D02*
X57794400Y-68342000D01*
X55794400Y-73342000D02*
X57794400Y-73342000D01*
D13*
X77835000Y-126432000D02*
G75*
G02X75835000Y-126432000I-1000000J0D01*
G01*
X75835000Y-126432000D02*
X74185000Y-126432000D01*
X74185000Y-126432000D02*
X74185000Y-149412000D01*
X74185000Y-149412000D02*
X79485000Y-149412000D01*
X79485000Y-149412000D02*
X79485000Y-126432000D01*
X79485000Y-126432000D02*
X77835000Y-126432000D01*
X71695000Y-126372000D02*
X71695000Y-149472000D01*
X71695000Y-149472000D02*
X81975000Y-149472000D01*
X81975000Y-149472000D02*
X81975000Y-126372000D01*
X81975000Y-126372000D02*
X71695000Y-126372000D01*
X117686000Y-144382000D02*
X117686000Y-146702000D01*
X117686000Y-146702000D02*
X123106000Y-146702000D01*
X123106000Y-146702000D02*
X123106000Y-144382000D01*
X123106000Y-144382000D02*
X117686000Y-144382000D01*
X117566000Y-145542000D02*
X117686000Y-145542000D01*
X123226000Y-145542000D02*
X123106000Y-145542000D01*
X139889608Y-142261335D02*
G75*
G03X140046516Y-139029000I-1078608J1672335D01*
G01*
X137732392Y-142261335D02*
G75*
G02X137575484Y-139029000I1078608J1672335D01*
G01*
X139890837Y-141630130D02*
G75*
G03X139891000Y-139548039I-1079837J1041130D01*
G01*
X137731163Y-141630130D02*
G75*
G02X137731000Y-139548039I1079837J1041130D01*
G01*
X140047000Y-139029000D02*
X139891000Y-139029000D01*
X137731000Y-139029000D02*
X137575000Y-139029000D01*
X126300608Y-142261335D02*
G75*
G03X126457516Y-139029000I-1078608J1672335D01*
G01*
X124143392Y-142261335D02*
G75*
G02X123986484Y-139029000I1078608J1672335D01*
G01*
X126301837Y-141630130D02*
G75*
G03X126302000Y-139548039I-1079837J1041130D01*
G01*
X124142163Y-141630130D02*
G75*
G02X124142000Y-139548039I1079837J1041130D01*
G01*
X126458000Y-139029000D02*
X126302000Y-139029000D01*
X124142000Y-139029000D02*
X123986000Y-139029000D01*
X142530000Y-136306000D02*
X142200000Y-136306000D01*
X142200000Y-136306000D02*
X142200000Y-129886000D01*
X142200000Y-129886000D02*
X142530000Y-129886000D01*
X144490000Y-136306000D02*
X144820000Y-136306000D01*
X144820000Y-136306000D02*
X144820000Y-129886000D01*
X144820000Y-129886000D02*
X144490000Y-129886000D01*
X121728608Y-142261335D02*
G75*
G03X121885516Y-139029000I-1078608J1672335D01*
G01*
X119571392Y-142261335D02*
G75*
G02X119414484Y-139029000I1078608J1672335D01*
G01*
X121729837Y-141630130D02*
G75*
G03X121730000Y-139548039I-1079837J1041130D01*
G01*
X119570163Y-141630130D02*
G75*
G02X119570000Y-139548039I1079837J1041130D01*
G01*
X121886000Y-139029000D02*
X121730000Y-139029000D01*
X119570000Y-139029000D02*
X119414000Y-139029000D01*
X106283000Y-126559000D02*
G75*
G02X104283000Y-126559000I-1000000J0D01*
G01*
X104283000Y-126559000D02*
X102633000Y-126559000D01*
X102633000Y-126559000D02*
X102633000Y-149539000D01*
X102633000Y-149539000D02*
X107933000Y-149539000D01*
X107933000Y-149539000D02*
X107933000Y-126559000D01*
X107933000Y-126559000D02*
X106283000Y-126559000D01*
X100143000Y-126499000D02*
X100143000Y-149599000D01*
X100143000Y-149599000D02*
X110423000Y-149599000D01*
X110423000Y-149599000D02*
X110423000Y-126499000D01*
X110423000Y-126499000D02*
X100143000Y-126499000D01*
X117388000Y-122642000D02*
X117388000Y-127762000D01*
X114768000Y-122642000D02*
X114768000Y-127762000D01*
X117388000Y-122642000D02*
X114768000Y-122642000D01*
X117388000Y-127762000D02*
X114768000Y-127762000D01*
X122214000Y-122642000D02*
X122214000Y-127762000D01*
X119594000Y-122642000D02*
X119594000Y-127762000D01*
X122214000Y-122642000D02*
X119594000Y-122642000D01*
X122214000Y-127762000D02*
X119594000Y-127762000D01*
X126532000Y-122642000D02*
X126532000Y-127762000D01*
X123912000Y-122642000D02*
X123912000Y-127762000D01*
X126532000Y-122642000D02*
X123912000Y-122642000D01*
X126532000Y-127762000D02*
X123912000Y-127762000D01*
X131358000Y-122642000D02*
X131358000Y-127762000D01*
X128738000Y-122642000D02*
X128738000Y-127762000D01*
X131358000Y-122642000D02*
X128738000Y-122642000D01*
X131358000Y-127762000D02*
X128738000Y-127762000D01*
X135676000Y-122642000D02*
X135676000Y-127762000D01*
X133056000Y-122642000D02*
X133056000Y-127762000D01*
X135676000Y-122642000D02*
X133056000Y-122642000D01*
X135676000Y-127762000D02*
X133056000Y-127762000D01*
X139994000Y-122642000D02*
X139994000Y-127762000D01*
X137374000Y-122642000D02*
X137374000Y-127762000D01*
X139994000Y-122642000D02*
X137374000Y-122642000D01*
X139994000Y-127762000D02*
X137374000Y-127762000D01*
X144820000Y-122642000D02*
X144820000Y-127762000D01*
X142200000Y-122642000D02*
X142200000Y-127762000D01*
X144820000Y-122642000D02*
X142200000Y-122642000D01*
X144820000Y-127762000D02*
X142200000Y-127762000D01*
X149138000Y-121880000D02*
X149138000Y-127000000D01*
X146518000Y-121880000D02*
X146518000Y-127000000D01*
X149138000Y-121880000D02*
X146518000Y-121880000D01*
X149138000Y-127000000D02*
X146518000Y-127000000D01*
X68616200Y-131535800D02*
X68616200Y-126415800D01*
X71236200Y-131535800D02*
X71236200Y-126415800D01*
X68616200Y-131535800D02*
X71236200Y-131535800D01*
X68616200Y-126415800D02*
X71236200Y-126415800D01*
X70672000Y-133848800D02*
X68012000Y-133848800D01*
X70672000Y-138988800D02*
X70672000Y-133848800D01*
X68012000Y-138988800D02*
X68012000Y-133848800D01*
X70672000Y-138988800D02*
X68012000Y-138988800D01*
X70672000Y-140258800D02*
X70672000Y-141588800D01*
X70672000Y-141588800D02*
X69342000Y-141588800D01*
X67293800Y-133772600D02*
X64633800Y-133772600D01*
X67293800Y-138912600D02*
X67293800Y-133772600D01*
X64633800Y-138912600D02*
X64633800Y-133772600D01*
X67293800Y-138912600D02*
X64633800Y-138912600D01*
X67293800Y-140182600D02*
X67293800Y-141512600D01*
X67293800Y-141512600D02*
X65963800Y-141512600D01*
X63941000Y-133772600D02*
X61281000Y-133772600D01*
X63941000Y-138912600D02*
X63941000Y-133772600D01*
X61281000Y-138912600D02*
X61281000Y-133772600D01*
X63941000Y-138912600D02*
X61281000Y-138912600D01*
X63941000Y-140182600D02*
X63941000Y-141512600D01*
X63941000Y-141512600D02*
X62611000Y-141512600D01*
X55286000Y-147000000D02*
G75*
G03X55286000Y-147000000I-2286000J0D01*
G01*
X149288500Y-147002500D02*
G75*
G03X149288500Y-147002500I-2286000J0D01*
G01*
X130872608Y-142261335D02*
G75*
G03X131029516Y-139029000I-1078608J1672335D01*
G01*
X128715392Y-142261335D02*
G75*
G02X128558484Y-139029000I1078608J1672335D01*
G01*
X130873837Y-141630130D02*
G75*
G03X130874000Y-139548039I-1079837J1041130D01*
G01*
X128714163Y-141630130D02*
G75*
G02X128714000Y-139548039I1079837J1041130D01*
G01*
X131030000Y-139029000D02*
X130874000Y-139029000D01*
X128714000Y-139029000D02*
X128558000Y-139029000D01*
X135317608Y-142261335D02*
G75*
G03X135474516Y-139029000I-1078608J1672335D01*
G01*
X133160392Y-142261335D02*
G75*
G02X133003484Y-139029000I1078608J1672335D01*
G01*
X135318837Y-141630130D02*
G75*
G03X135319000Y-139548039I-1079837J1041130D01*
G01*
X133159163Y-141630130D02*
G75*
G02X133159000Y-139548039I1079837J1041130D01*
G01*
X135475000Y-139029000D02*
X135319000Y-139029000D01*
X133159000Y-139029000D02*
X133003000Y-139029000D01*
X144461608Y-142261335D02*
G75*
G03X144618516Y-139029000I-1078608J1672335D01*
G01*
X142304392Y-142261335D02*
G75*
G02X142147484Y-139029000I1078608J1672335D01*
G01*
X144462837Y-141630130D02*
G75*
G03X144463000Y-139548039I-1079837J1041130D01*
G01*
X142303163Y-141630130D02*
G75*
G02X142303000Y-139548039I1079837J1041130D01*
G01*
X144619000Y-139029000D02*
X144463000Y-139029000D01*
X142303000Y-139029000D02*
X142147000Y-139029000D01*
X148906608Y-142261335D02*
G75*
G03X149063516Y-139029000I-1078608J1672335D01*
G01*
X146749392Y-142261335D02*
G75*
G02X146592484Y-139029000I1078608J1672335D01*
G01*
X148907837Y-141630130D02*
G75*
G03X148908000Y-139548039I-1079837J1041130D01*
G01*
X146748163Y-141630130D02*
G75*
G02X146748000Y-139548039I1079837J1041130D01*
G01*
X149064000Y-139029000D02*
X148908000Y-139029000D01*
X146748000Y-139029000D02*
X146592000Y-139029000D01*
X115161500Y-136369500D02*
X114831500Y-136369500D01*
X114831500Y-136369500D02*
X114831500Y-129949500D01*
X114831500Y-129949500D02*
X115161500Y-129949500D01*
X117121500Y-136369500D02*
X117451500Y-136369500D01*
X117451500Y-136369500D02*
X117451500Y-129949500D01*
X117451500Y-129949500D02*
X117121500Y-129949500D01*
X119797000Y-136560000D02*
X119467000Y-136560000D01*
X119467000Y-136560000D02*
X119467000Y-130140000D01*
X119467000Y-130140000D02*
X119797000Y-130140000D01*
X121757000Y-136560000D02*
X122087000Y-136560000D01*
X122087000Y-136560000D02*
X122087000Y-130140000D01*
X122087000Y-130140000D02*
X121757000Y-130140000D01*
X124242000Y-136306000D02*
X123912000Y-136306000D01*
X123912000Y-136306000D02*
X123912000Y-129886000D01*
X123912000Y-129886000D02*
X124242000Y-129886000D01*
X126202000Y-136306000D02*
X126532000Y-136306000D01*
X126532000Y-136306000D02*
X126532000Y-129886000D01*
X126532000Y-129886000D02*
X126202000Y-129886000D01*
X128814000Y-136306000D02*
X128484000Y-136306000D01*
X128484000Y-136306000D02*
X128484000Y-129886000D01*
X128484000Y-129886000D02*
X128814000Y-129886000D01*
X130774000Y-136306000D02*
X131104000Y-136306000D01*
X131104000Y-136306000D02*
X131104000Y-129886000D01*
X131104000Y-129886000D02*
X130774000Y-129886000D01*
X133386000Y-136306000D02*
X133056000Y-136306000D01*
X133056000Y-136306000D02*
X133056000Y-129886000D01*
X133056000Y-129886000D02*
X133386000Y-129886000D01*
X135346000Y-136306000D02*
X135676000Y-136306000D01*
X135676000Y-136306000D02*
X135676000Y-129886000D01*
X135676000Y-129886000D02*
X135346000Y-129886000D01*
X137704000Y-136306000D02*
X137374000Y-136306000D01*
X137374000Y-136306000D02*
X137374000Y-129886000D01*
X137374000Y-129886000D02*
X137704000Y-129886000D01*
X139664000Y-136306000D02*
X139994000Y-136306000D01*
X139994000Y-136306000D02*
X139994000Y-129886000D01*
X139994000Y-129886000D02*
X139664000Y-129886000D01*
X146467000Y-136306000D02*
X146137000Y-136306000D01*
X146137000Y-136306000D02*
X146137000Y-129886000D01*
X146137000Y-129886000D02*
X146467000Y-129886000D01*
X148427000Y-136306000D02*
X148757000Y-136306000D01*
X148757000Y-136306000D02*
X148757000Y-129886000D01*
X148757000Y-129886000D02*
X148427000Y-129886000D01*
X87416000Y-128462400D02*
X82296000Y-128462400D01*
X87416000Y-125842400D02*
X82296000Y-125842400D01*
X87416000Y-128462400D02*
X87416000Y-125842400D01*
X82296000Y-128462400D02*
X82296000Y-125842400D01*
X139640000Y-119821000D02*
X142300000Y-119821000D01*
X139640000Y-119761000D02*
X139640000Y-119821000D01*
X142300000Y-119761000D02*
X142300000Y-119821000D01*
X139640000Y-119761000D02*
X142300000Y-119761000D01*
X139640000Y-118491000D02*
X139640000Y-117161000D01*
X139640000Y-117161000D02*
X140970000Y-117161000D01*
X112899500Y-117415000D02*
X110239500Y-117415000D01*
X112899500Y-117475000D02*
X112899500Y-117415000D01*
X110239500Y-117475000D02*
X110239500Y-117415000D01*
X112899500Y-117475000D02*
X110239500Y-117475000D01*
X112899500Y-118745000D02*
X112899500Y-120075000D01*
X112899500Y-120075000D02*
X111569500Y-120075000D01*
X89475000Y-119630500D02*
X92135000Y-119630500D01*
X89475000Y-119570500D02*
X89475000Y-119630500D01*
X92135000Y-119570500D02*
X92135000Y-119630500D01*
X89475000Y-119570500D02*
X92135000Y-119570500D01*
X89475000Y-118300500D02*
X89475000Y-116970500D01*
X89475000Y-116970500D02*
X90805000Y-116970500D01*
X96777500Y-119821000D02*
X99437500Y-119821000D01*
X96777500Y-119761000D02*
X96777500Y-119821000D01*
X99437500Y-119761000D02*
X99437500Y-119821000D01*
X96777500Y-119761000D02*
X99437500Y-119761000D01*
X96777500Y-118491000D02*
X96777500Y-117161000D01*
X96777500Y-117161000D02*
X98107500Y-117161000D01*
X52010000Y-119567000D02*
X54670000Y-119567000D01*
X52010000Y-119507000D02*
X52010000Y-119567000D01*
X54670000Y-119507000D02*
X54670000Y-119567000D01*
X52010000Y-119507000D02*
X54670000Y-119507000D01*
X52010000Y-118237000D02*
X52010000Y-116907000D01*
X52010000Y-116907000D02*
X53340000Y-116907000D01*
X80140500Y-119630500D02*
X82800500Y-119630500D01*
X80140500Y-119570500D02*
X80140500Y-119630500D01*
X82800500Y-119570500D02*
X82800500Y-119630500D01*
X80140500Y-119570500D02*
X82800500Y-119570500D01*
X80140500Y-118300500D02*
X80140500Y-116970500D01*
X80140500Y-116970500D02*
X81470500Y-116970500D01*
X103699000Y-120011500D02*
X106359000Y-120011500D01*
X103699000Y-119951500D02*
X103699000Y-120011500D01*
X106359000Y-119951500D02*
X106359000Y-120011500D01*
X103699000Y-119951500D02*
X106359000Y-119951500D01*
X103699000Y-118681500D02*
X103699000Y-117351500D01*
X103699000Y-117351500D02*
X105029000Y-117351500D01*
X61344500Y-119503500D02*
X64004500Y-119503500D01*
X61344500Y-119443500D02*
X61344500Y-119503500D01*
X64004500Y-119443500D02*
X64004500Y-119503500D01*
X61344500Y-119443500D02*
X64004500Y-119443500D01*
X61344500Y-118173500D02*
X61344500Y-116843500D01*
X61344500Y-116843500D02*
X62674500Y-116843500D01*
X70488500Y-119503500D02*
X73148500Y-119503500D01*
X70488500Y-119443500D02*
X70488500Y-119503500D01*
X73148500Y-119443500D02*
X73148500Y-119503500D01*
X70488500Y-119443500D02*
X73148500Y-119443500D01*
X70488500Y-118173500D02*
X70488500Y-116843500D01*
X70488500Y-116843500D02*
X71818500Y-116843500D01*
X120653500Y-119694000D02*
X123313500Y-119694000D01*
X120653500Y-119634000D02*
X120653500Y-119694000D01*
X123313500Y-119634000D02*
X123313500Y-119694000D01*
X120653500Y-119634000D02*
X123313500Y-119634000D01*
X120653500Y-118364000D02*
X120653500Y-117034000D01*
X120653500Y-117034000D02*
X121983500Y-117034000D01*
X130496000Y-119821000D02*
X133156000Y-119821000D01*
X130496000Y-119761000D02*
X130496000Y-119821000D01*
X133156000Y-119761000D02*
X133156000Y-119821000D01*
X130496000Y-119761000D02*
X133156000Y-119761000D01*
X130496000Y-118491000D02*
X130496000Y-117161000D01*
X130496000Y-117161000D02*
X131826000Y-117161000D01*
X91397000Y-129142000D02*
X91397000Y-131462000D01*
X91397000Y-131462000D02*
X96817000Y-131462000D01*
X96817000Y-131462000D02*
X96817000Y-129142000D01*
X96817000Y-129142000D02*
X91397000Y-129142000D01*
X91277000Y-130302000D02*
X91397000Y-130302000D01*
X96937000Y-130302000D02*
X96817000Y-130302000D01*
X91397000Y-131682000D02*
X91397000Y-134002000D01*
X91397000Y-134002000D02*
X96817000Y-134002000D01*
X96817000Y-134002000D02*
X96817000Y-131682000D01*
X96817000Y-131682000D02*
X91397000Y-131682000D01*
X91277000Y-132842000D02*
X91397000Y-132842000D01*
X96937000Y-132842000D02*
X96817000Y-132842000D01*
X91397000Y-134095000D02*
X91397000Y-136415000D01*
X91397000Y-136415000D02*
X96817000Y-136415000D01*
X96817000Y-136415000D02*
X96817000Y-134095000D01*
X96817000Y-134095000D02*
X91397000Y-134095000D01*
X91277000Y-135255000D02*
X91397000Y-135255000D01*
X96937000Y-135255000D02*
X96817000Y-135255000D01*
X91397000Y-136508000D02*
X91397000Y-138828000D01*
X91397000Y-138828000D02*
X96817000Y-138828000D01*
X96817000Y-138828000D02*
X96817000Y-136508000D01*
X96817000Y-136508000D02*
X91397000Y-136508000D01*
X91277000Y-137668000D02*
X91397000Y-137668000D01*
X96937000Y-137668000D02*
X96817000Y-137668000D01*
X91524000Y-138921000D02*
X91524000Y-141241000D01*
X91524000Y-141241000D02*
X96944000Y-141241000D01*
X96944000Y-141241000D02*
X96944000Y-138921000D01*
X96944000Y-138921000D02*
X91524000Y-138921000D01*
X91404000Y-140081000D02*
X91524000Y-140081000D01*
X97064000Y-140081000D02*
X96944000Y-140081000D01*
X91524000Y-141461000D02*
X91524000Y-143781000D01*
X91524000Y-143781000D02*
X96944000Y-143781000D01*
X96944000Y-143781000D02*
X96944000Y-141461000D01*
X96944000Y-141461000D02*
X91524000Y-141461000D01*
X91404000Y-142621000D02*
X91524000Y-142621000D01*
X97064000Y-142621000D02*
X96944000Y-142621000D01*
X91524000Y-143874000D02*
X91524000Y-146194000D01*
X91524000Y-146194000D02*
X96944000Y-146194000D01*
X96944000Y-146194000D02*
X96944000Y-143874000D01*
X96944000Y-143874000D02*
X91524000Y-143874000D01*
X91404000Y-145034000D02*
X91524000Y-145034000D01*
X97064000Y-145034000D02*
X96944000Y-145034000D01*
X91651000Y-146541000D02*
X91651000Y-148861000D01*
X91651000Y-148861000D02*
X97071000Y-148861000D01*
X97071000Y-148861000D02*
X97071000Y-146541000D01*
X97071000Y-146541000D02*
X91651000Y-146541000D01*
X91531000Y-147701000D02*
X91651000Y-147701000D01*
X97191000Y-147701000D02*
X97071000Y-147701000D01*
X117156608Y-142261335D02*
G75*
G03X117313516Y-139029000I-1078608J1672335D01*
G01*
X114999392Y-142261335D02*
G75*
G02X114842484Y-139029000I1078608J1672335D01*
G01*
X117157837Y-141630130D02*
G75*
G03X117158000Y-139548039I-1079837J1041130D01*
G01*
X114998163Y-141630130D02*
G75*
G02X114998000Y-139548039I1079837J1041130D01*
G01*
X117314000Y-139029000D02*
X117158000Y-139029000D01*
X114998000Y-139029000D02*
X114842000Y-139029000D01*
X82510000Y-128865000D02*
X87630000Y-128865000D01*
X82510000Y-131485000D02*
X87630000Y-131485000D01*
X82510000Y-128865000D02*
X82510000Y-131485000D01*
X87630000Y-128865000D02*
X87630000Y-131485000D01*
X82510000Y-131532000D02*
X87630000Y-131532000D01*
X82510000Y-134152000D02*
X87630000Y-134152000D01*
X82510000Y-131532000D02*
X82510000Y-134152000D01*
X87630000Y-131532000D02*
X87630000Y-134152000D01*
X82256000Y-134072000D02*
X87376000Y-134072000D01*
X82256000Y-136692000D02*
X87376000Y-136692000D01*
X82256000Y-134072000D02*
X82256000Y-136692000D01*
X87376000Y-134072000D02*
X87376000Y-136692000D01*
X82383000Y-136612000D02*
X87503000Y-136612000D01*
X82383000Y-139232000D02*
X87503000Y-139232000D01*
X82383000Y-136612000D02*
X82383000Y-139232000D01*
X87503000Y-136612000D02*
X87503000Y-139232000D01*
X82383000Y-139215500D02*
X87503000Y-139215500D01*
X82383000Y-141835500D02*
X87503000Y-141835500D01*
X82383000Y-139215500D02*
X82383000Y-141835500D01*
X87503000Y-139215500D02*
X87503000Y-141835500D01*
X82446500Y-141819000D02*
X87566500Y-141819000D01*
X82446500Y-144439000D02*
X87566500Y-144439000D01*
X82446500Y-141819000D02*
X82446500Y-144439000D01*
X87566500Y-141819000D02*
X87566500Y-144439000D01*
X82446500Y-144486000D02*
X87566500Y-144486000D01*
X82446500Y-147106000D02*
X87566500Y-147106000D01*
X82446500Y-144486000D02*
X82446500Y-147106000D01*
X87566500Y-144486000D02*
X87566500Y-147106000D01*
X82383000Y-146962500D02*
X87503000Y-146962500D01*
X82383000Y-149582500D02*
X87503000Y-149582500D01*
X82383000Y-146962500D02*
X82383000Y-149582500D01*
X87503000Y-146962500D02*
X87503000Y-149582500D01*
X117686000Y-147303000D02*
X117686000Y-149623000D01*
X117686000Y-149623000D02*
X123106000Y-149623000D01*
X123106000Y-149623000D02*
X123106000Y-147303000D01*
X123106000Y-147303000D02*
X117686000Y-147303000D01*
X117566000Y-148463000D02*
X117686000Y-148463000D01*
X123226000Y-148463000D02*
X123106000Y-148463000D01*
X58354600Y-149442800D02*
X58354600Y-144322800D01*
X60974600Y-149442800D02*
X60974600Y-144322800D01*
X58354600Y-149442800D02*
X60974600Y-149442800D01*
X58354600Y-144322800D02*
X60974600Y-144322800D01*
X58380000Y-143804000D02*
X58380000Y-138684000D01*
X61000000Y-143804000D02*
X61000000Y-138684000D01*
X58380000Y-143804000D02*
X61000000Y-143804000D01*
X58380000Y-138684000D02*
X61000000Y-138684000D01*
X55533600Y-128545280D02*
X50333600Y-128545280D01*
X55533600Y-138765280D02*
X55533600Y-128545280D01*
X50333600Y-141365280D02*
X50333600Y-128545280D01*
X55533600Y-138765280D02*
X52933600Y-138765280D01*
X52933600Y-138765280D02*
X52933600Y-141365280D01*
X52933600Y-141365280D02*
X50333600Y-141365280D01*
X55533600Y-140035280D02*
X55533600Y-141365280D01*
X55533600Y-141365280D02*
X54203600Y-141365280D01*
X52846600Y-80198600D02*
X52846600Y-85318600D01*
X50226600Y-80198600D02*
X50226600Y-85318600D01*
X52846600Y-80198600D02*
X50226600Y-80198600D01*
X52846600Y-85318600D02*
X50226600Y-85318600D01*
X52694200Y-92949400D02*
X52694200Y-98069400D01*
X50074200Y-92949400D02*
X50074200Y-98069400D01*
X52694200Y-92949400D02*
X50074200Y-92949400D01*
X52694200Y-98069400D02*
X50074200Y-98069400D01*
X52821200Y-104912800D02*
X52821200Y-110032800D01*
X50201200Y-104912800D02*
X50201200Y-110032800D01*
X52821200Y-104912800D02*
X50201200Y-104912800D01*
X52821200Y-110032800D02*
X50201200Y-110032800D01*
X52630700Y-66584200D02*
X52630700Y-71704200D01*
X50010700Y-66584200D02*
X50010700Y-71704200D01*
X52630700Y-66584200D02*
X50010700Y-66584200D01*
X52630700Y-71704200D02*
X50010700Y-71704200D01*
X147419700Y-107990000D02*
X147419700Y-102870000D01*
X150039700Y-107990000D02*
X150039700Y-102870000D01*
X147419700Y-107990000D02*
X150039700Y-107990000D01*
X147419700Y-102870000D02*
X150039700Y-102870000D01*
X147381600Y-94401000D02*
X147381600Y-89281000D01*
X150001600Y-94401000D02*
X150001600Y-89281000D01*
X147381600Y-94401000D02*
X150001600Y-94401000D01*
X147381600Y-89281000D02*
X150001600Y-89281000D01*
X147445100Y-82056600D02*
X147445100Y-76936600D01*
X150065100Y-82056600D02*
X150065100Y-76936600D01*
X147445100Y-82056600D02*
X150065100Y-82056600D01*
X147445100Y-76936600D02*
X150065100Y-76936600D01*
X147280000Y-69712200D02*
X147280000Y-64592200D01*
X149900000Y-69712200D02*
X149900000Y-64592200D01*
X147280000Y-69712200D02*
X149900000Y-69712200D01*
X147280000Y-64592200D02*
X149900000Y-64592200D01*
X53101518Y-124207163D02*
G75*
G03X57712820Y-124207440I2305722J1179723D01*
G01*
X53101518Y-121847717D02*
G75*
G02X57712820Y-121847440I2305722J-1179723D01*
G01*
X53101518Y-121847717D02*
G75*
G03X53101660Y-124207440I2305722J-1179723D01*
G01*
X58857240Y-123027440D02*
X57657240Y-123027440D01*
X58257240Y-123677440D02*
X58257240Y-122377440D01*
X127448000Y-146695800D02*
X132568000Y-146695800D01*
X127448000Y-149315800D02*
X132568000Y-149315800D01*
X127448000Y-146695800D02*
X127448000Y-147009800D01*
X127448000Y-149001800D02*
X127448000Y-149315800D01*
X132568000Y-146695800D02*
X132568000Y-147009800D01*
X132568000Y-149001800D02*
X132568000Y-149315800D01*
X140725200Y-149290400D02*
X135605200Y-149290400D01*
X140725200Y-146670400D02*
X135605200Y-146670400D01*
X140725200Y-149290400D02*
X140725200Y-148976400D01*
X140725200Y-146984400D02*
X140725200Y-146670400D01*
X135605200Y-149290400D02*
X135605200Y-148976400D01*
X135605200Y-146984400D02*
X135605200Y-146670400D01*
X70478960Y-148909080D02*
X70478960Y-146249080D01*
X65338960Y-148909080D02*
X70478960Y-148909080D01*
X65338960Y-146249080D02*
X70478960Y-146249080D01*
X65338960Y-148909080D02*
X65338960Y-146249080D01*
X64068960Y-148909080D02*
X62738960Y-148909080D01*
X62738960Y-148909080D02*
X62738960Y-147579080D01*
X112482000Y-149747600D02*
X112482000Y-144627600D01*
X115102000Y-149747600D02*
X115102000Y-144627600D01*
X112482000Y-149747600D02*
X115102000Y-149747600D01*
X112482000Y-144627600D02*
X115102000Y-144627600D01*
X127407360Y-144099920D02*
X132527360Y-144099920D01*
X127407360Y-146719920D02*
X132527360Y-146719920D01*
X127407360Y-144099920D02*
X127407360Y-144413920D01*
X127407360Y-146405920D02*
X127407360Y-146719920D01*
X132527360Y-144099920D02*
X132527360Y-144413920D01*
X132527360Y-146405920D02*
X132527360Y-146719920D01*
X140715040Y-146658960D02*
X135595040Y-146658960D01*
X140715040Y-144038960D02*
X135595040Y-144038960D01*
X140715040Y-146658960D02*
X140715040Y-146344960D01*
X140715040Y-144352960D02*
X140715040Y-144038960D01*
X135595040Y-146658960D02*
X135595040Y-146344960D01*
X135595040Y-144352960D02*
X135595040Y-144038960D01*
X149286000Y-53000000D02*
G75*
G03X149286000Y-53000000I-2286000J0D01*
G01*
X55286000Y-53000000D02*
G75*
G03X55286000Y-53000000I-2286000J0D01*
G01*
X120457663Y-71309411D02*
G75*
G03X116995000Y-71323000I-1712663J-4763589D01*
G01*
X113981411Y-74360337D02*
G75*
G03X113995000Y-77823000I4763589J-1712663D01*
G01*
X117032337Y-80836589D02*
G75*
G03X120495000Y-80823000I1712663J4763589D01*
G01*
X123508589Y-77785663D02*
G75*
G03X123495000Y-74323000I-4763589J1712663D01*
G01*
X107376663Y-63181411D02*
G75*
G03X103914000Y-63195000I-1712663J-4763589D01*
G01*
X100900411Y-66232337D02*
G75*
G03X100914000Y-69695000I4763589J-1712663D01*
G01*
X103951337Y-72708589D02*
G75*
G03X107414000Y-72695000I1712663J4763589D01*
G01*
X110427589Y-69657663D02*
G75*
G03X110414000Y-66195000I-4763589J1712663D01*
G01*
X120330663Y-84009411D02*
G75*
G03X116868000Y-84023000I-1712663J-4763589D01*
G01*
X113854411Y-87060337D02*
G75*
G03X113868000Y-90523000I4763589J-1712663D01*
G01*
X116905337Y-93536589D02*
G75*
G03X120368000Y-93523000I1712663J4763589D01*
G01*
X123381589Y-90485663D02*
G75*
G03X123368000Y-87023000I-4763589J1712663D01*
G01*
X100773411Y-79313337D02*
G75*
G03X100787000Y-82776000I4763589J-1712663D01*
G01*
X103824337Y-85789589D02*
G75*
G03X107287000Y-85776000I1712663J4763589D01*
G01*
X110300589Y-82738663D02*
G75*
G03X110287000Y-79276000I-4763589J1712663D01*
G01*
X107249663Y-76262411D02*
G75*
G03X103787000Y-76276000I-1712663J-4763589D01*
G01*
X116905337Y-107125589D02*
G75*
G03X120368000Y-107112000I1712663J4763589D01*
G01*
X123381589Y-104074663D02*
G75*
G03X123368000Y-100612000I-4763589J1712663D01*
G01*
X120330663Y-97598411D02*
G75*
G03X116868000Y-97612000I-1712663J-4763589D01*
G01*
X113854411Y-100649337D02*
G75*
G03X113868000Y-104112000I4763589J-1712663D01*
G01*
X104078337Y-100394589D02*
G75*
G03X107541000Y-100381000I1712663J4763589D01*
G01*
X110554589Y-97343663D02*
G75*
G03X110541000Y-93881000I-4763589J1712663D01*
G01*
X107503663Y-90867411D02*
G75*
G03X104041000Y-90881000I-1712663J-4763589D01*
G01*
X101027411Y-93918337D02*
G75*
G03X101041000Y-97381000I4763589J-1712663D01*
G01*
X79186337Y-104712589D02*
G75*
G03X82649000Y-104699000I1712663J4763589D01*
G01*
X85662589Y-101661663D02*
G75*
G03X85649000Y-98199000I-4763589J1712663D01*
G01*
X82611663Y-95185411D02*
G75*
G03X79149000Y-95199000I-1712663J-4763589D01*
G01*
X76135411Y-98236337D02*
G75*
G03X76149000Y-101699000I4763589J-1712663D01*
G01*
X98108589Y-106106663D02*
G75*
G03X98095000Y-102644000I-4763589J1712663D01*
G01*
X95057663Y-99630411D02*
G75*
G03X91595000Y-99644000I-1712663J-4763589D01*
G01*
X88581411Y-102681337D02*
G75*
G03X88595000Y-106144000I4763589J-1712663D01*
G01*
X91632337Y-109157589D02*
G75*
G03X95095000Y-109144000I1712663J4763589D01*
G01*
X76262411Y-84012337D02*
G75*
G03X76276000Y-87475000I4763589J-1712663D01*
G01*
X79313337Y-90488589D02*
G75*
G03X82776000Y-90475000I1712663J4763589D01*
G01*
X85789589Y-87437663D02*
G75*
G03X85776000Y-83975000I-4763589J1712663D01*
G01*
X82738663Y-80961411D02*
G75*
G03X79276000Y-80975000I-1712663J-4763589D01*
G01*
X88454411Y-88965337D02*
G75*
G03X88468000Y-92428000I4763589J-1712663D01*
G01*
X91505337Y-95441589D02*
G75*
G03X94968000Y-95428000I1712663J4763589D01*
G01*
X97981589Y-92390663D02*
G75*
G03X97968000Y-88928000I-4763589J1712663D01*
G01*
X94930663Y-85914411D02*
G75*
G03X91468000Y-85928000I-1712663J-4763589D01*
G01*
X79186337Y-76010589D02*
G75*
G03X82649000Y-75997000I1712663J4763589D01*
G01*
X85662589Y-72959663D02*
G75*
G03X85649000Y-69497000I-4763589J1712663D01*
G01*
X82611663Y-66483411D02*
G75*
G03X79149000Y-66497000I-1712663J-4763589D01*
G01*
X76135411Y-69534337D02*
G75*
G03X76149000Y-72997000I4763589J-1712663D01*
G01*
X95057663Y-72833411D02*
G75*
G03X91595000Y-72847000I-1712663J-4763589D01*
G01*
X88581411Y-75884337D02*
G75*
G03X88595000Y-79347000I4763589J-1712663D01*
G01*
X91632337Y-82360589D02*
G75*
G03X95095000Y-82347000I1712663J4763589D01*
G01*
X98108589Y-79309663D02*
G75*
G03X98095000Y-75847000I-4763589J1712663D01*
G01*
D12*
X147052800Y-62056000D02*
X126052800Y-62056000D01*
X126052800Y-72056000D02*
X147052800Y-72056000D01*
X147052800Y-72056000D02*
X147052800Y-62056000D01*
X133052800Y-68056000D02*
X128052800Y-68056000D01*
X128052800Y-68056000D02*
X128052800Y-70056000D01*
X133052800Y-66056000D02*
X128052800Y-66056000D01*
X128052800Y-66056000D02*
X128052800Y-64056000D01*
X133052800Y-64056000D02*
X133052800Y-65056000D01*
X133052800Y-70056000D02*
X133052800Y-69056000D01*
X138052800Y-64056000D02*
X138052800Y-66056000D01*
X138052800Y-66056000D02*
X131052800Y-65056000D01*
X138052800Y-70056000D02*
X138052800Y-68056000D01*
X138052800Y-68056000D02*
X131052800Y-69056000D01*
X126052800Y-62056000D02*
X126052800Y-72056000D01*
X142052800Y-66056000D02*
X142052800Y-63056000D01*
X144052800Y-71056000D02*
X142052800Y-71056000D01*
X142052800Y-71056000D02*
X142052800Y-68056000D01*
X142052800Y-68056000D02*
X144052800Y-68056000D01*
X144052800Y-68056000D02*
X144052800Y-66056000D01*
X144052800Y-66056000D02*
X140052800Y-66056000D01*
X140052800Y-66056000D02*
X140052800Y-68056000D01*
X140052800Y-68056000D02*
X142052800Y-68056000D01*
X144052800Y-63056000D02*
X142052800Y-63056000D01*
X147103600Y-74578200D02*
X126103600Y-74578200D01*
X126103600Y-84578200D02*
X147103600Y-84578200D01*
X147103600Y-84578200D02*
X147103600Y-74578200D01*
X133103600Y-80578200D02*
X128103600Y-80578200D01*
X128103600Y-80578200D02*
X128103600Y-82578200D01*
X133103600Y-78578200D02*
X128103600Y-78578200D01*
X128103600Y-78578200D02*
X128103600Y-76578200D01*
X133103600Y-76578200D02*
X133103600Y-77578200D01*
X133103600Y-82578200D02*
X133103600Y-81578200D01*
X138103600Y-76578200D02*
X138103600Y-78578200D01*
X138103600Y-78578200D02*
X131103600Y-77578200D01*
X138103600Y-82578200D02*
X138103600Y-80578200D01*
X138103600Y-80578200D02*
X131103600Y-81578200D01*
X126103600Y-74578200D02*
X126103600Y-84578200D01*
X142103600Y-78578200D02*
X142103600Y-75578200D01*
X144103600Y-83578200D02*
X142103600Y-83578200D01*
X142103600Y-83578200D02*
X142103600Y-80578200D01*
X142103600Y-80578200D02*
X144103600Y-80578200D01*
X144103600Y-80578200D02*
X144103600Y-78578200D01*
X144103600Y-78578200D02*
X140103600Y-78578200D01*
X140103600Y-78578200D02*
X140103600Y-80578200D01*
X140103600Y-80578200D02*
X142103600Y-80578200D01*
X144103600Y-75578200D02*
X142103600Y-75578200D01*
X147002000Y-86922600D02*
X126002000Y-86922600D01*
X126002000Y-96922600D02*
X147002000Y-96922600D01*
X147002000Y-96922600D02*
X147002000Y-86922600D01*
X133002000Y-92922600D02*
X128002000Y-92922600D01*
X128002000Y-92922600D02*
X128002000Y-94922600D01*
X133002000Y-90922600D02*
X128002000Y-90922600D01*
X128002000Y-90922600D02*
X128002000Y-88922600D01*
X133002000Y-88922600D02*
X133002000Y-89922600D01*
X133002000Y-94922600D02*
X133002000Y-93922600D01*
X138002000Y-88922600D02*
X138002000Y-90922600D01*
X138002000Y-90922600D02*
X131002000Y-89922600D01*
X138002000Y-94922600D02*
X138002000Y-92922600D01*
X138002000Y-92922600D02*
X131002000Y-93922600D01*
X126002000Y-86922600D02*
X126002000Y-96922600D01*
X142002000Y-90922600D02*
X142002000Y-87922600D01*
X144002000Y-95922600D02*
X142002000Y-95922600D01*
X142002000Y-95922600D02*
X142002000Y-92922600D01*
X142002000Y-92922600D02*
X144002000Y-92922600D01*
X144002000Y-92922600D02*
X144002000Y-90922600D01*
X144002000Y-90922600D02*
X140002000Y-90922600D01*
X140002000Y-90922600D02*
X140002000Y-92922600D01*
X140002000Y-92922600D02*
X142002000Y-92922600D01*
X144002000Y-87922600D02*
X142002000Y-87922600D01*
X53035700Y-100173800D02*
X74035700Y-100173800D01*
X74035700Y-90173800D02*
X53035700Y-90173800D01*
X53035700Y-90173800D02*
X53035700Y-100173800D01*
X67035700Y-94173800D02*
X72035700Y-94173800D01*
X72035700Y-94173800D02*
X72035700Y-92173800D01*
X67035700Y-96173800D02*
X72035700Y-96173800D01*
X72035700Y-96173800D02*
X72035700Y-98173800D01*
X67035700Y-98173800D02*
X67035700Y-97173800D01*
X67035700Y-92173800D02*
X67035700Y-93173800D01*
X62035700Y-98173800D02*
X62035700Y-96173800D01*
X62035700Y-96173800D02*
X69035700Y-97173800D01*
X62035700Y-92173800D02*
X62035700Y-94173800D01*
X62035700Y-94173800D02*
X69035700Y-93173800D01*
X74035700Y-100173800D02*
X74035700Y-90173800D01*
X58035700Y-96173800D02*
X58035700Y-99173800D01*
X56035700Y-91173800D02*
X58035700Y-91173800D01*
X58035700Y-91173800D02*
X58035700Y-94173800D01*
X58035700Y-94173800D02*
X56035700Y-94173800D01*
X56035700Y-94173800D02*
X56035700Y-96173800D01*
X56035700Y-96173800D02*
X60035700Y-96173800D01*
X60035700Y-96173800D02*
X60035700Y-94173800D01*
X60035700Y-94173800D02*
X58035700Y-94173800D01*
X56035700Y-99173800D02*
X58035700Y-99173800D01*
X52921400Y-87334100D02*
X73921400Y-87334100D01*
X73921400Y-77334100D02*
X52921400Y-77334100D01*
X52921400Y-77334100D02*
X52921400Y-87334100D01*
X66921400Y-81334100D02*
X71921400Y-81334100D01*
X71921400Y-81334100D02*
X71921400Y-79334100D01*
X66921400Y-83334100D02*
X71921400Y-83334100D01*
X71921400Y-83334100D02*
X71921400Y-85334100D01*
X66921400Y-85334100D02*
X66921400Y-84334100D01*
X66921400Y-79334100D02*
X66921400Y-80334100D01*
X61921400Y-85334100D02*
X61921400Y-83334100D01*
X61921400Y-83334100D02*
X68921400Y-84334100D01*
X61921400Y-79334100D02*
X61921400Y-81334100D01*
X61921400Y-81334100D02*
X68921400Y-80334100D01*
X73921400Y-87334100D02*
X73921400Y-77334100D01*
X57921400Y-83334100D02*
X57921400Y-86334100D01*
X55921400Y-78334100D02*
X57921400Y-78334100D01*
X57921400Y-78334100D02*
X57921400Y-81334100D01*
X57921400Y-81334100D02*
X55921400Y-81334100D01*
X55921400Y-81334100D02*
X55921400Y-83334100D01*
X55921400Y-83334100D02*
X59921400Y-83334100D01*
X59921400Y-83334100D02*
X59921400Y-81334100D01*
X59921400Y-81334100D02*
X57921400Y-81334100D01*
X55921400Y-86334100D02*
X57921400Y-86334100D01*
D13*
X72161400Y-61125100D02*
G75*
G03X72161400Y-61125100I-2286000J0D01*
G01*
X72161400Y-55029100D02*
G75*
G03X72161400Y-55029100I-2286000J0D01*
G01*
X79273400Y-61125100D02*
G75*
G03X79273400Y-61125100I-2286000J0D01*
G01*
X58659320Y-126845500D02*
X58659320Y-126515500D01*
X58659320Y-126515500D02*
X65079320Y-126515500D01*
X65079320Y-126515500D02*
X65079320Y-126845500D01*
X58659320Y-128805500D02*
X58659320Y-129135500D01*
X58659320Y-129135500D02*
X65079320Y-129135500D01*
X65079320Y-129135500D02*
X65079320Y-128805500D01*
X58687260Y-129667440D02*
X58687260Y-129337440D01*
X58687260Y-129337440D02*
X65107260Y-129337440D01*
X65107260Y-129337440D02*
X65107260Y-129667440D01*
X58687260Y-131627440D02*
X58687260Y-131957440D01*
X58687260Y-131957440D02*
X65107260Y-131957440D01*
X65107260Y-131957440D02*
X65107260Y-131627440D01*
X79019400Y-54775100D02*
G75*
G03X79019400Y-54775100I-2286000J0D01*
G01*
D14*
X111995240Y-44630340D02*
X111995240Y-58330340D01*
X126795240Y-58330340D02*
X126795240Y-44630340D01*
X126795240Y-58330340D02*
X111995240Y-58330340D01*
X126795240Y-44630340D02*
X111995240Y-44630340D01*
X92792840Y-44630340D02*
X92792840Y-58330340D01*
X107592840Y-58330340D02*
X107592840Y-44630340D01*
X107592840Y-58330340D02*
X92792840Y-58330340D01*
X107592840Y-44630340D02*
X92792840Y-44630340D01*
D11*
X127670281Y-105724200D02*
X127194090Y-106057534D01*
X127670281Y-106295629D02*
X126670281Y-106295629D01*
X126670281Y-105914676D01*
X126717900Y-105819438D01*
X126765519Y-105771819D01*
X126860757Y-105724200D01*
X127003614Y-105724200D01*
X127098852Y-105771819D01*
X127146471Y-105819438D01*
X127194090Y-105914676D01*
X127194090Y-106295629D01*
X127670281Y-104819438D02*
X127670281Y-105295629D01*
X126670281Y-105295629D01*
X127194090Y-104295629D02*
X127670281Y-104295629D01*
X126670281Y-104628962D02*
X127194090Y-104295629D01*
X126670281Y-103962295D01*
X127003614Y-103200390D02*
X127670281Y-103200390D01*
X126622662Y-103438486D02*
X127336948Y-103676581D01*
X127336948Y-103057533D01*
X133479805Y-104224200D02*
X133384567Y-104176581D01*
X133241710Y-104176581D01*
X133098852Y-104224200D01*
X133003614Y-104319438D01*
X132955995Y-104414676D01*
X132908376Y-104605152D01*
X132908376Y-104748010D01*
X132955995Y-104938486D01*
X133003614Y-105033724D01*
X133098852Y-105128962D01*
X133241710Y-105176581D01*
X133336948Y-105176581D01*
X133479805Y-105128962D01*
X133527424Y-105081343D01*
X133527424Y-104748010D01*
X133336948Y-104748010D01*
X134432186Y-104176581D02*
X133955995Y-104176581D01*
X133908376Y-104652771D01*
X133955995Y-104605152D01*
X134051233Y-104557533D01*
X134289329Y-104557533D01*
X134384567Y-104605152D01*
X134432186Y-104652771D01*
X134479805Y-104748010D01*
X134479805Y-104986105D01*
X134432186Y-105081343D01*
X134384567Y-105128962D01*
X134289329Y-105176581D01*
X134051233Y-105176581D01*
X133955995Y-105128962D01*
X133908376Y-105081343D01*
X134765519Y-104176581D02*
X135098852Y-105176581D01*
X135432186Y-104176581D01*
X135765519Y-104795629D02*
X136527424Y-104795629D01*
X136955995Y-104271819D02*
X137003614Y-104224200D01*
X137098852Y-104176581D01*
X137336948Y-104176581D01*
X137432186Y-104224200D01*
X137479805Y-104271819D01*
X137527424Y-104367057D01*
X137527424Y-104462295D01*
X137479805Y-104605152D01*
X136908376Y-105176581D01*
X137527424Y-105176581D01*
X73373781Y-108365800D02*
X72897590Y-108699134D01*
X73373781Y-108937229D02*
X72373781Y-108937229D01*
X72373781Y-108556276D01*
X72421400Y-108461038D01*
X72469019Y-108413419D01*
X72564257Y-108365800D01*
X72707114Y-108365800D01*
X72802352Y-108413419D01*
X72849971Y-108461038D01*
X72897590Y-108556276D01*
X72897590Y-108937229D01*
X73373781Y-107461038D02*
X73373781Y-107937229D01*
X72373781Y-107937229D01*
X72897590Y-106937229D02*
X73373781Y-106937229D01*
X72373781Y-107270562D02*
X72897590Y-106937229D01*
X72373781Y-106603895D01*
X72373781Y-105794371D02*
X72373781Y-106270562D01*
X72849971Y-106318181D01*
X72802352Y-106270562D01*
X72754733Y-106175324D01*
X72754733Y-105937228D01*
X72802352Y-105841990D01*
X72849971Y-105794371D01*
X72945210Y-105746752D01*
X73183305Y-105746752D01*
X73278543Y-105794371D01*
X73326162Y-105841990D01*
X73373781Y-105937228D01*
X73373781Y-106175324D01*
X73326162Y-106270562D01*
X73278543Y-106318181D01*
X63183305Y-106865800D02*
X63088067Y-106818181D01*
X62945210Y-106818181D01*
X62802352Y-106865800D01*
X62707114Y-106961038D01*
X62659495Y-107056276D01*
X62611876Y-107246752D01*
X62611876Y-107389610D01*
X62659495Y-107580086D01*
X62707114Y-107675324D01*
X62802352Y-107770562D01*
X62945210Y-107818181D01*
X63040448Y-107818181D01*
X63183305Y-107770562D01*
X63230924Y-107722943D01*
X63230924Y-107389610D01*
X63040448Y-107389610D01*
X64135686Y-106818181D02*
X63659495Y-106818181D01*
X63611876Y-107294371D01*
X63659495Y-107246752D01*
X63754733Y-107199133D01*
X63992829Y-107199133D01*
X64088067Y-107246752D01*
X64135686Y-107294371D01*
X64183305Y-107389610D01*
X64183305Y-107627705D01*
X64135686Y-107722943D01*
X64088067Y-107770562D01*
X63992829Y-107818181D01*
X63754733Y-107818181D01*
X63659495Y-107770562D01*
X63611876Y-107722943D01*
X64469019Y-106818181D02*
X64802352Y-107818181D01*
X65135686Y-106818181D01*
X65469019Y-107437229D02*
X66230924Y-107437229D01*
X66659495Y-106913419D02*
X66707114Y-106865800D01*
X66802352Y-106818181D01*
X67040448Y-106818181D01*
X67135686Y-106865800D01*
X67183305Y-106913419D01*
X67230924Y-107008657D01*
X67230924Y-107103895D01*
X67183305Y-107246752D01*
X66611876Y-107818181D01*
X67230924Y-107818181D01*
X73246781Y-70342000D02*
X72770590Y-70675334D01*
X73246781Y-70913429D02*
X72246781Y-70913429D01*
X72246781Y-70532476D01*
X72294400Y-70437238D01*
X72342019Y-70389619D01*
X72437257Y-70342000D01*
X72580114Y-70342000D01*
X72675352Y-70389619D01*
X72722971Y-70437238D01*
X72770590Y-70532476D01*
X72770590Y-70913429D01*
X73246781Y-69437238D02*
X73246781Y-69913429D01*
X72246781Y-69913429D01*
X72770590Y-68913429D02*
X73246781Y-68913429D01*
X72246781Y-69246762D02*
X72770590Y-68913429D01*
X72246781Y-68580095D01*
X72675352Y-68103905D02*
X72627733Y-68199143D01*
X72580114Y-68246762D01*
X72484876Y-68294381D01*
X72437257Y-68294381D01*
X72342019Y-68246762D01*
X72294400Y-68199143D01*
X72246781Y-68103905D01*
X72246781Y-67913428D01*
X72294400Y-67818190D01*
X72342019Y-67770571D01*
X72437257Y-67722952D01*
X72484876Y-67722952D01*
X72580114Y-67770571D01*
X72627733Y-67818190D01*
X72675352Y-67913428D01*
X72675352Y-68103905D01*
X72722971Y-68199143D01*
X72770590Y-68246762D01*
X72865829Y-68294381D01*
X73056305Y-68294381D01*
X73151543Y-68246762D01*
X73199162Y-68199143D01*
X73246781Y-68103905D01*
X73246781Y-67913428D01*
X73199162Y-67818190D01*
X73151543Y-67770571D01*
X73056305Y-67722952D01*
X72865829Y-67722952D01*
X72770590Y-67770571D01*
X72722971Y-67818190D01*
X72675352Y-67913428D01*
X63056305Y-68842000D02*
X62961067Y-68794381D01*
X62818210Y-68794381D01*
X62675352Y-68842000D01*
X62580114Y-68937238D01*
X62532495Y-69032476D01*
X62484876Y-69222952D01*
X62484876Y-69365810D01*
X62532495Y-69556286D01*
X62580114Y-69651524D01*
X62675352Y-69746762D01*
X62818210Y-69794381D01*
X62913448Y-69794381D01*
X63056305Y-69746762D01*
X63103924Y-69699143D01*
X63103924Y-69365810D01*
X62913448Y-69365810D01*
X64008686Y-68794381D02*
X63532495Y-68794381D01*
X63484876Y-69270571D01*
X63532495Y-69222952D01*
X63627733Y-69175333D01*
X63865829Y-69175333D01*
X63961067Y-69222952D01*
X64008686Y-69270571D01*
X64056305Y-69365810D01*
X64056305Y-69603905D01*
X64008686Y-69699143D01*
X63961067Y-69746762D01*
X63865829Y-69794381D01*
X63627733Y-69794381D01*
X63532495Y-69746762D01*
X63484876Y-69699143D01*
X64342019Y-68794381D02*
X64675352Y-69794381D01*
X65008686Y-68794381D01*
X65342019Y-69413429D02*
X66103924Y-69413429D01*
X66532495Y-68889619D02*
X66580114Y-68842000D01*
X66675352Y-68794381D01*
X66913448Y-68794381D01*
X67008686Y-68842000D01*
X67056305Y-68889619D01*
X67103924Y-68984857D01*
X67103924Y-69080095D01*
X67056305Y-69222952D01*
X66484876Y-69794381D01*
X67103924Y-69794381D01*
X75986735Y-128204981D02*
X75986735Y-129014505D01*
X76034354Y-129109743D01*
X76081973Y-129157362D01*
X76177211Y-129204981D01*
X76367688Y-129204981D01*
X76462926Y-129157362D01*
X76510545Y-129109743D01*
X76558164Y-129014505D01*
X76558164Y-128204981D01*
X77558164Y-129204981D02*
X76986735Y-129204981D01*
X77272449Y-129204981D02*
X77272449Y-128204981D01*
X77177211Y-128347838D01*
X77081973Y-128443076D01*
X76986735Y-128490695D01*
X119626143Y-146121381D02*
X119149952Y-146121381D01*
X119149952Y-145121381D01*
X120483286Y-146121381D02*
X119911857Y-146121381D01*
X120197571Y-146121381D02*
X120197571Y-145121381D01*
X120102333Y-145264238D01*
X120007095Y-145359476D01*
X119911857Y-145407095D01*
X121102333Y-145121381D02*
X121197572Y-145121381D01*
X121292810Y-145169000D01*
X121340429Y-145216619D01*
X121388048Y-145311857D01*
X121435667Y-145502333D01*
X121435667Y-145740429D01*
X121388048Y-145930905D01*
X121340429Y-146026143D01*
X121292810Y-146073762D01*
X121197572Y-146121381D01*
X121102333Y-146121381D01*
X121007095Y-146073762D01*
X120959476Y-146026143D01*
X120911857Y-145930905D01*
X120864238Y-145740429D01*
X120864238Y-145502333D01*
X120911857Y-145311857D01*
X120959476Y-145216619D01*
X121007095Y-145169000D01*
X121102333Y-145121381D01*
X138149105Y-143860781D02*
X138149105Y-142860781D01*
X138387200Y-142860781D01*
X138530058Y-142908400D01*
X138625296Y-143003638D01*
X138672915Y-143098876D01*
X138720534Y-143289352D01*
X138720534Y-143432210D01*
X138672915Y-143622686D01*
X138625296Y-143717924D01*
X138530058Y-143813162D01*
X138387200Y-143860781D01*
X138149105Y-143860781D01*
X139577677Y-142860781D02*
X139387200Y-142860781D01*
X139291962Y-142908400D01*
X139244343Y-142956019D01*
X139149105Y-143098876D01*
X139101486Y-143289352D01*
X139101486Y-143670305D01*
X139149105Y-143765543D01*
X139196724Y-143813162D01*
X139291962Y-143860781D01*
X139482439Y-143860781D01*
X139577677Y-143813162D01*
X139625296Y-143765543D01*
X139672915Y-143670305D01*
X139672915Y-143432210D01*
X139625296Y-143336971D01*
X139577677Y-143289352D01*
X139482439Y-143241733D01*
X139291962Y-143241733D01*
X139196724Y-143289352D01*
X139149105Y-143336971D01*
X139101486Y-143432210D01*
X124534705Y-143860781D02*
X124534705Y-142860781D01*
X124772800Y-142860781D01*
X124915658Y-142908400D01*
X125010896Y-143003638D01*
X125058515Y-143098876D01*
X125106134Y-143289352D01*
X125106134Y-143432210D01*
X125058515Y-143622686D01*
X125010896Y-143717924D01*
X124915658Y-143813162D01*
X124772800Y-143860781D01*
X124534705Y-143860781D01*
X125439467Y-142860781D02*
X126058515Y-142860781D01*
X125725181Y-143241733D01*
X125868039Y-143241733D01*
X125963277Y-143289352D01*
X126010896Y-143336971D01*
X126058515Y-143432210D01*
X126058515Y-143670305D01*
X126010896Y-143765543D01*
X125963277Y-143813162D01*
X125868039Y-143860781D01*
X125582324Y-143860781D01*
X125487086Y-143813162D01*
X125439467Y-143765543D01*
X144038581Y-133364266D02*
X143562390Y-133697600D01*
X144038581Y-133935695D02*
X143038581Y-133935695D01*
X143038581Y-133554742D01*
X143086200Y-133459504D01*
X143133819Y-133411885D01*
X143229057Y-133364266D01*
X143371914Y-133364266D01*
X143467152Y-133411885D01*
X143514771Y-133459504D01*
X143562390Y-133554742D01*
X143562390Y-133935695D01*
X144038581Y-132888076D02*
X144038581Y-132697600D01*
X143990962Y-132602361D01*
X143943343Y-132554742D01*
X143800486Y-132459504D01*
X143610010Y-132411885D01*
X143229057Y-132411885D01*
X143133819Y-132459504D01*
X143086200Y-132507123D01*
X143038581Y-132602361D01*
X143038581Y-132792838D01*
X143086200Y-132888076D01*
X143133819Y-132935695D01*
X143229057Y-132983314D01*
X143467152Y-132983314D01*
X143562390Y-132935695D01*
X143610010Y-132888076D01*
X143657629Y-132792838D01*
X143657629Y-132602361D01*
X143610010Y-132507123D01*
X143562390Y-132459504D01*
X143467152Y-132411885D01*
X119861105Y-143809981D02*
X119861105Y-142809981D01*
X120099200Y-142809981D01*
X120242058Y-142857600D01*
X120337296Y-142952838D01*
X120384915Y-143048076D01*
X120432534Y-143238552D01*
X120432534Y-143381410D01*
X120384915Y-143571886D01*
X120337296Y-143667124D01*
X120242058Y-143762362D01*
X120099200Y-143809981D01*
X119861105Y-143809981D01*
X120813486Y-142905219D02*
X120861105Y-142857600D01*
X120956343Y-142809981D01*
X121194439Y-142809981D01*
X121289677Y-142857600D01*
X121337296Y-142905219D01*
X121384915Y-143000457D01*
X121384915Y-143095695D01*
X121337296Y-143238552D01*
X120765867Y-143809981D01*
X121384915Y-143809981D01*
X104434735Y-128230381D02*
X104434735Y-129039905D01*
X104482354Y-129135143D01*
X104529973Y-129182762D01*
X104625211Y-129230381D01*
X104815688Y-129230381D01*
X104910926Y-129182762D01*
X104958545Y-129135143D01*
X105006164Y-129039905D01*
X105006164Y-128230381D01*
X105434735Y-128325619D02*
X105482354Y-128278000D01*
X105577592Y-128230381D01*
X105815688Y-128230381D01*
X105910926Y-128278000D01*
X105958545Y-128325619D01*
X106006164Y-128420857D01*
X106006164Y-128516095D01*
X105958545Y-128658952D01*
X105387116Y-129230381D01*
X106006164Y-129230381D01*
X115758934Y-122226343D02*
X115711315Y-122273962D01*
X115568458Y-122321581D01*
X115473220Y-122321581D01*
X115330362Y-122273962D01*
X115235124Y-122178724D01*
X115187505Y-122083486D01*
X115139886Y-121893010D01*
X115139886Y-121750152D01*
X115187505Y-121559676D01*
X115235124Y-121464438D01*
X115330362Y-121369200D01*
X115473220Y-121321581D01*
X115568458Y-121321581D01*
X115711315Y-121369200D01*
X115758934Y-121416819D01*
X116711315Y-122321581D02*
X116139886Y-122321581D01*
X116425600Y-122321581D02*
X116425600Y-121321581D01*
X116330362Y-121464438D01*
X116235124Y-121559676D01*
X116139886Y-121607295D01*
X120483334Y-122175543D02*
X120435715Y-122223162D01*
X120292858Y-122270781D01*
X120197620Y-122270781D01*
X120054762Y-122223162D01*
X119959524Y-122127924D01*
X119911905Y-122032686D01*
X119864286Y-121842210D01*
X119864286Y-121699352D01*
X119911905Y-121508876D01*
X119959524Y-121413638D01*
X120054762Y-121318400D01*
X120197620Y-121270781D01*
X120292858Y-121270781D01*
X120435715Y-121318400D01*
X120483334Y-121366019D01*
X120864286Y-121366019D02*
X120911905Y-121318400D01*
X121007143Y-121270781D01*
X121245239Y-121270781D01*
X121340477Y-121318400D01*
X121388096Y-121366019D01*
X121435715Y-121461257D01*
X121435715Y-121556495D01*
X121388096Y-121699352D01*
X120816667Y-122270781D01*
X121435715Y-122270781D01*
X125055334Y-122023143D02*
X125007715Y-122070762D01*
X124864858Y-122118381D01*
X124769620Y-122118381D01*
X124626762Y-122070762D01*
X124531524Y-121975524D01*
X124483905Y-121880286D01*
X124436286Y-121689810D01*
X124436286Y-121546952D01*
X124483905Y-121356476D01*
X124531524Y-121261238D01*
X124626762Y-121166000D01*
X124769620Y-121118381D01*
X124864858Y-121118381D01*
X125007715Y-121166000D01*
X125055334Y-121213619D01*
X125388667Y-121118381D02*
X126007715Y-121118381D01*
X125674381Y-121499333D01*
X125817239Y-121499333D01*
X125912477Y-121546952D01*
X125960096Y-121594571D01*
X126007715Y-121689810D01*
X126007715Y-121927905D01*
X125960096Y-122023143D01*
X125912477Y-122070762D01*
X125817239Y-122118381D01*
X125531524Y-122118381D01*
X125436286Y-122070762D01*
X125388667Y-122023143D01*
X129881334Y-122023143D02*
X129833715Y-122070762D01*
X129690858Y-122118381D01*
X129595620Y-122118381D01*
X129452762Y-122070762D01*
X129357524Y-121975524D01*
X129309905Y-121880286D01*
X129262286Y-121689810D01*
X129262286Y-121546952D01*
X129309905Y-121356476D01*
X129357524Y-121261238D01*
X129452762Y-121166000D01*
X129595620Y-121118381D01*
X129690858Y-121118381D01*
X129833715Y-121166000D01*
X129881334Y-121213619D01*
X130738477Y-121451714D02*
X130738477Y-122118381D01*
X130500381Y-121070762D02*
X130262286Y-121785048D01*
X130881334Y-121785048D01*
X134199334Y-122023143D02*
X134151715Y-122070762D01*
X134008858Y-122118381D01*
X133913620Y-122118381D01*
X133770762Y-122070762D01*
X133675524Y-121975524D01*
X133627905Y-121880286D01*
X133580286Y-121689810D01*
X133580286Y-121546952D01*
X133627905Y-121356476D01*
X133675524Y-121261238D01*
X133770762Y-121166000D01*
X133913620Y-121118381D01*
X134008858Y-121118381D01*
X134151715Y-121166000D01*
X134199334Y-121213619D01*
X135104096Y-121118381D02*
X134627905Y-121118381D01*
X134580286Y-121594571D01*
X134627905Y-121546952D01*
X134723143Y-121499333D01*
X134961239Y-121499333D01*
X135056477Y-121546952D01*
X135104096Y-121594571D01*
X135151715Y-121689810D01*
X135151715Y-121927905D01*
X135104096Y-122023143D01*
X135056477Y-122070762D01*
X134961239Y-122118381D01*
X134723143Y-122118381D01*
X134627905Y-122070762D01*
X134580286Y-122023143D01*
X138517334Y-122023143D02*
X138469715Y-122070762D01*
X138326858Y-122118381D01*
X138231620Y-122118381D01*
X138088762Y-122070762D01*
X137993524Y-121975524D01*
X137945905Y-121880286D01*
X137898286Y-121689810D01*
X137898286Y-121546952D01*
X137945905Y-121356476D01*
X137993524Y-121261238D01*
X138088762Y-121166000D01*
X138231620Y-121118381D01*
X138326858Y-121118381D01*
X138469715Y-121166000D01*
X138517334Y-121213619D01*
X139374477Y-121118381D02*
X139184000Y-121118381D01*
X139088762Y-121166000D01*
X139041143Y-121213619D01*
X138945905Y-121356476D01*
X138898286Y-121546952D01*
X138898286Y-121927905D01*
X138945905Y-122023143D01*
X138993524Y-122070762D01*
X139088762Y-122118381D01*
X139279239Y-122118381D01*
X139374477Y-122070762D01*
X139422096Y-122023143D01*
X139469715Y-121927905D01*
X139469715Y-121689810D01*
X139422096Y-121594571D01*
X139374477Y-121546952D01*
X139279239Y-121499333D01*
X139088762Y-121499333D01*
X138993524Y-121546952D01*
X138945905Y-121594571D01*
X138898286Y-121689810D01*
X143089334Y-122023143D02*
X143041715Y-122070762D01*
X142898858Y-122118381D01*
X142803620Y-122118381D01*
X142660762Y-122070762D01*
X142565524Y-121975524D01*
X142517905Y-121880286D01*
X142470286Y-121689810D01*
X142470286Y-121546952D01*
X142517905Y-121356476D01*
X142565524Y-121261238D01*
X142660762Y-121166000D01*
X142803620Y-121118381D01*
X142898858Y-121118381D01*
X143041715Y-121166000D01*
X143089334Y-121213619D01*
X143422667Y-121118381D02*
X144089334Y-121118381D01*
X143660762Y-122118381D01*
X147661334Y-121515143D02*
X147613715Y-121562762D01*
X147470858Y-121610381D01*
X147375620Y-121610381D01*
X147232762Y-121562762D01*
X147137524Y-121467524D01*
X147089905Y-121372286D01*
X147042286Y-121181810D01*
X147042286Y-121038952D01*
X147089905Y-120848476D01*
X147137524Y-120753238D01*
X147232762Y-120658000D01*
X147375620Y-120610381D01*
X147470858Y-120610381D01*
X147613715Y-120658000D01*
X147661334Y-120705619D01*
X148232762Y-121038952D02*
X148137524Y-120991333D01*
X148089905Y-120943714D01*
X148042286Y-120848476D01*
X148042286Y-120800857D01*
X148089905Y-120705619D01*
X148137524Y-120658000D01*
X148232762Y-120610381D01*
X148423239Y-120610381D01*
X148518477Y-120658000D01*
X148566096Y-120705619D01*
X148613715Y-120800857D01*
X148613715Y-120848476D01*
X148566096Y-120943714D01*
X148518477Y-120991333D01*
X148423239Y-121038952D01*
X148232762Y-121038952D01*
X148137524Y-121086571D01*
X148089905Y-121134190D01*
X148042286Y-121229429D01*
X148042286Y-121419905D01*
X148089905Y-121515143D01*
X148137524Y-121562762D01*
X148232762Y-121610381D01*
X148423239Y-121610381D01*
X148518477Y-121562762D01*
X148566096Y-121515143D01*
X148613715Y-121419905D01*
X148613715Y-121229429D01*
X148566096Y-121134190D01*
X148518477Y-121086571D01*
X148423239Y-121038952D01*
X69334143Y-125985543D02*
X69286524Y-126033162D01*
X69143667Y-126080781D01*
X69048429Y-126080781D01*
X68905571Y-126033162D01*
X68810333Y-125937924D01*
X68762714Y-125842686D01*
X68715095Y-125652210D01*
X68715095Y-125509352D01*
X68762714Y-125318876D01*
X68810333Y-125223638D01*
X68905571Y-125128400D01*
X69048429Y-125080781D01*
X69143667Y-125080781D01*
X69286524Y-125128400D01*
X69334143Y-125176019D01*
X70286524Y-126080781D02*
X69715095Y-126080781D01*
X70000809Y-126080781D02*
X70000809Y-125080781D01*
X69905571Y-125223638D01*
X69810333Y-125318876D01*
X69715095Y-125366495D01*
X70905571Y-125080781D02*
X71000810Y-125080781D01*
X71096048Y-125128400D01*
X71143667Y-125176019D01*
X71191286Y-125271257D01*
X71238905Y-125461733D01*
X71238905Y-125699829D01*
X71191286Y-125890305D01*
X71143667Y-125985543D01*
X71096048Y-126033162D01*
X71000810Y-126080781D01*
X70905571Y-126080781D01*
X70810333Y-126033162D01*
X70762714Y-125985543D01*
X70715095Y-125890305D01*
X70667476Y-125699829D01*
X70667476Y-125461733D01*
X70715095Y-125271257D01*
X70762714Y-125176019D01*
X70810333Y-125128400D01*
X70905571Y-125080781D01*
X68508667Y-142041181D02*
X68508667Y-142755467D01*
X68461047Y-142898324D01*
X68365809Y-142993562D01*
X68222952Y-143041181D01*
X68127714Y-143041181D01*
X68984857Y-143041181D02*
X68984857Y-142041181D01*
X69365810Y-142041181D01*
X69461048Y-142088800D01*
X69508667Y-142136419D01*
X69556286Y-142231657D01*
X69556286Y-142374514D01*
X69508667Y-142469752D01*
X69461048Y-142517371D01*
X69365810Y-142564990D01*
X68984857Y-142564990D01*
X70508667Y-143041181D02*
X69937238Y-143041181D01*
X70222952Y-143041181D02*
X70222952Y-142041181D01*
X70127714Y-142184038D01*
X70032476Y-142279276D01*
X69937238Y-142326895D01*
X65130467Y-141964981D02*
X65130467Y-142679267D01*
X65082847Y-142822124D01*
X64987609Y-142917362D01*
X64844752Y-142964981D01*
X64749514Y-142964981D01*
X65606657Y-142964981D02*
X65606657Y-141964981D01*
X65987610Y-141964981D01*
X66082848Y-142012600D01*
X66130467Y-142060219D01*
X66178086Y-142155457D01*
X66178086Y-142298314D01*
X66130467Y-142393552D01*
X66082848Y-142441171D01*
X65987610Y-142488790D01*
X65606657Y-142488790D01*
X66559038Y-142060219D02*
X66606657Y-142012600D01*
X66701895Y-141964981D01*
X66939991Y-141964981D01*
X67035229Y-142012600D01*
X67082848Y-142060219D01*
X67130467Y-142155457D01*
X67130467Y-142250695D01*
X67082848Y-142393552D01*
X66511419Y-142964981D01*
X67130467Y-142964981D01*
X61764967Y-141971781D02*
X61764967Y-142686067D01*
X61717347Y-142828924D01*
X61622109Y-142924162D01*
X61479252Y-142971781D01*
X61384014Y-142971781D01*
X62241157Y-142971781D02*
X62241157Y-141971781D01*
X62622110Y-141971781D01*
X62717348Y-142019400D01*
X62764967Y-142067019D01*
X62812586Y-142162257D01*
X62812586Y-142305114D01*
X62764967Y-142400352D01*
X62717348Y-142447971D01*
X62622110Y-142495590D01*
X62241157Y-142495590D01*
X63145919Y-141971781D02*
X63764967Y-141971781D01*
X63431633Y-142352733D01*
X63574491Y-142352733D01*
X63669729Y-142400352D01*
X63717348Y-142447971D01*
X63764967Y-142543210D01*
X63764967Y-142781305D01*
X63717348Y-142876543D01*
X63669729Y-142924162D01*
X63574491Y-142971781D01*
X63288776Y-142971781D01*
X63193538Y-142924162D01*
X63145919Y-142876543D01*
X50752477Y-143470381D02*
X50752477Y-144184667D01*
X50704857Y-144327524D01*
X50609619Y-144422762D01*
X50466762Y-144470381D01*
X50371524Y-144470381D01*
X51752477Y-144470381D02*
X51181048Y-144470381D01*
X51466762Y-144470381D02*
X51466762Y-143470381D01*
X51371524Y-143613238D01*
X51276286Y-143708476D01*
X51181048Y-143756095D01*
X52085810Y-143470381D02*
X52704858Y-143470381D01*
X52371524Y-143851333D01*
X52514382Y-143851333D01*
X52609620Y-143898952D01*
X52657239Y-143946571D01*
X52704858Y-144041810D01*
X52704858Y-144279905D01*
X52657239Y-144375143D01*
X52609620Y-144422762D01*
X52514382Y-144470381D01*
X52228667Y-144470381D01*
X52133429Y-144422762D01*
X52085810Y-144375143D01*
X142725877Y-148626581D02*
X142725877Y-149340867D01*
X142678257Y-149483724D01*
X142583019Y-149578962D01*
X142440162Y-149626581D01*
X142344924Y-149626581D01*
X143725877Y-149626581D02*
X143154448Y-149626581D01*
X143440162Y-149626581D02*
X143440162Y-148626581D01*
X143344924Y-148769438D01*
X143249686Y-148864676D01*
X143154448Y-148912295D01*
X144583020Y-148959914D02*
X144583020Y-149626581D01*
X144344924Y-148578962D02*
X144106829Y-149293248D01*
X144725877Y-149293248D01*
X129106705Y-143809981D02*
X129106705Y-142809981D01*
X129344800Y-142809981D01*
X129487658Y-142857600D01*
X129582896Y-142952838D01*
X129630515Y-143048076D01*
X129678134Y-143238552D01*
X129678134Y-143381410D01*
X129630515Y-143571886D01*
X129582896Y-143667124D01*
X129487658Y-143762362D01*
X129344800Y-143809981D01*
X129106705Y-143809981D01*
X130535277Y-143143314D02*
X130535277Y-143809981D01*
X130297181Y-142762362D02*
X130059086Y-143476648D01*
X130678134Y-143476648D01*
X133475505Y-143911581D02*
X133475505Y-142911581D01*
X133713600Y-142911581D01*
X133856458Y-142959200D01*
X133951696Y-143054438D01*
X133999315Y-143149676D01*
X134046934Y-143340152D01*
X134046934Y-143483010D01*
X133999315Y-143673486D01*
X133951696Y-143768724D01*
X133856458Y-143863962D01*
X133713600Y-143911581D01*
X133475505Y-143911581D01*
X134951696Y-142911581D02*
X134475505Y-142911581D01*
X134427886Y-143387771D01*
X134475505Y-143340152D01*
X134570743Y-143292533D01*
X134808839Y-143292533D01*
X134904077Y-143340152D01*
X134951696Y-143387771D01*
X134999315Y-143483010D01*
X134999315Y-143721105D01*
X134951696Y-143816343D01*
X134904077Y-143863962D01*
X134808839Y-143911581D01*
X134570743Y-143911581D01*
X134475505Y-143863962D01*
X134427886Y-143816343D01*
X142822705Y-143860781D02*
X142822705Y-142860781D01*
X143060800Y-142860781D01*
X143203658Y-142908400D01*
X143298896Y-143003638D01*
X143346515Y-143098876D01*
X143394134Y-143289352D01*
X143394134Y-143432210D01*
X143346515Y-143622686D01*
X143298896Y-143717924D01*
X143203658Y-143813162D01*
X143060800Y-143860781D01*
X142822705Y-143860781D01*
X143727467Y-142860781D02*
X144394134Y-142860781D01*
X143965562Y-143860781D01*
X147242305Y-143860781D02*
X147242305Y-142860781D01*
X147480400Y-142860781D01*
X147623258Y-142908400D01*
X147718496Y-143003638D01*
X147766115Y-143098876D01*
X147813734Y-143289352D01*
X147813734Y-143432210D01*
X147766115Y-143622686D01*
X147718496Y-143717924D01*
X147623258Y-143813162D01*
X147480400Y-143860781D01*
X147242305Y-143860781D01*
X148385162Y-143289352D02*
X148289924Y-143241733D01*
X148242305Y-143194114D01*
X148194686Y-143098876D01*
X148194686Y-143051257D01*
X148242305Y-142956019D01*
X148289924Y-142908400D01*
X148385162Y-142860781D01*
X148575639Y-142860781D01*
X148670877Y-142908400D01*
X148718496Y-142956019D01*
X148766115Y-143051257D01*
X148766115Y-143098876D01*
X148718496Y-143194114D01*
X148670877Y-143241733D01*
X148575639Y-143289352D01*
X148385162Y-143289352D01*
X148289924Y-143336971D01*
X148242305Y-143384590D01*
X148194686Y-143479829D01*
X148194686Y-143670305D01*
X148242305Y-143765543D01*
X148289924Y-143813162D01*
X148385162Y-143860781D01*
X148575639Y-143860781D01*
X148670877Y-143813162D01*
X148718496Y-143765543D01*
X148766115Y-143670305D01*
X148766115Y-143479829D01*
X148718496Y-143384590D01*
X148670877Y-143336971D01*
X148575639Y-143289352D01*
X116822481Y-132983266D02*
X116346290Y-133316600D01*
X116822481Y-133554695D02*
X115822481Y-133554695D01*
X115822481Y-133173742D01*
X115870100Y-133078504D01*
X115917719Y-133030885D01*
X116012957Y-132983266D01*
X116155814Y-132983266D01*
X116251052Y-133030885D01*
X116298671Y-133078504D01*
X116346290Y-133173742D01*
X116346290Y-133554695D01*
X115822481Y-132649933D02*
X115822481Y-132030885D01*
X116203433Y-132364219D01*
X116203433Y-132221361D01*
X116251052Y-132126123D01*
X116298671Y-132078504D01*
X116393910Y-132030885D01*
X116632005Y-132030885D01*
X116727243Y-132078504D01*
X116774862Y-132126123D01*
X116822481Y-132221361D01*
X116822481Y-132507076D01*
X116774862Y-132602314D01*
X116727243Y-132649933D01*
X121254781Y-133580166D02*
X120778590Y-133913500D01*
X121254781Y-134151595D02*
X120254781Y-134151595D01*
X120254781Y-133770642D01*
X120302400Y-133675404D01*
X120350019Y-133627785D01*
X120445257Y-133580166D01*
X120588114Y-133580166D01*
X120683352Y-133627785D01*
X120730971Y-133675404D01*
X120778590Y-133770642D01*
X120778590Y-134151595D01*
X120588114Y-132723023D02*
X121254781Y-132723023D01*
X120207162Y-132961119D02*
X120921448Y-133199214D01*
X120921448Y-132580166D01*
X125814081Y-133249966D02*
X125337890Y-133583300D01*
X125814081Y-133821395D02*
X124814081Y-133821395D01*
X124814081Y-133440442D01*
X124861700Y-133345204D01*
X124909319Y-133297585D01*
X125004557Y-133249966D01*
X125147414Y-133249966D01*
X125242652Y-133297585D01*
X125290271Y-133345204D01*
X125337890Y-133440442D01*
X125337890Y-133821395D01*
X124814081Y-132345204D02*
X124814081Y-132821395D01*
X125290271Y-132869014D01*
X125242652Y-132821395D01*
X125195033Y-132726157D01*
X125195033Y-132488061D01*
X125242652Y-132392823D01*
X125290271Y-132345204D01*
X125385510Y-132297585D01*
X125623605Y-132297585D01*
X125718843Y-132345204D01*
X125766462Y-132392823D01*
X125814081Y-132488061D01*
X125814081Y-132726157D01*
X125766462Y-132821395D01*
X125718843Y-132869014D01*
X130259081Y-133135666D02*
X129782890Y-133469000D01*
X130259081Y-133707095D02*
X129259081Y-133707095D01*
X129259081Y-133326142D01*
X129306700Y-133230904D01*
X129354319Y-133183285D01*
X129449557Y-133135666D01*
X129592414Y-133135666D01*
X129687652Y-133183285D01*
X129735271Y-133230904D01*
X129782890Y-133326142D01*
X129782890Y-133707095D01*
X129259081Y-132278523D02*
X129259081Y-132469000D01*
X129306700Y-132564238D01*
X129354319Y-132611857D01*
X129497176Y-132707095D01*
X129687652Y-132754714D01*
X130068605Y-132754714D01*
X130163843Y-132707095D01*
X130211462Y-132659476D01*
X130259081Y-132564238D01*
X130259081Y-132373761D01*
X130211462Y-132278523D01*
X130163843Y-132230904D01*
X130068605Y-132183285D01*
X129830510Y-132183285D01*
X129735271Y-132230904D01*
X129687652Y-132278523D01*
X129640033Y-132373761D01*
X129640033Y-132564238D01*
X129687652Y-132659476D01*
X129735271Y-132707095D01*
X129830510Y-132754714D01*
X134894581Y-133161066D02*
X134418390Y-133494400D01*
X134894581Y-133732495D02*
X133894581Y-133732495D01*
X133894581Y-133351542D01*
X133942200Y-133256304D01*
X133989819Y-133208685D01*
X134085057Y-133161066D01*
X134227914Y-133161066D01*
X134323152Y-133208685D01*
X134370771Y-133256304D01*
X134418390Y-133351542D01*
X134418390Y-133732495D01*
X133894581Y-132827733D02*
X133894581Y-132161066D01*
X134894581Y-132589638D01*
X139237981Y-133110266D02*
X138761790Y-133443600D01*
X139237981Y-133681695D02*
X138237981Y-133681695D01*
X138237981Y-133300742D01*
X138285600Y-133205504D01*
X138333219Y-133157885D01*
X138428457Y-133110266D01*
X138571314Y-133110266D01*
X138666552Y-133157885D01*
X138714171Y-133205504D01*
X138761790Y-133300742D01*
X138761790Y-133681695D01*
X138666552Y-132538838D02*
X138618933Y-132634076D01*
X138571314Y-132681695D01*
X138476076Y-132729314D01*
X138428457Y-132729314D01*
X138333219Y-132681695D01*
X138285600Y-132634076D01*
X138237981Y-132538838D01*
X138237981Y-132348361D01*
X138285600Y-132253123D01*
X138333219Y-132205504D01*
X138428457Y-132157885D01*
X138476076Y-132157885D01*
X138571314Y-132205504D01*
X138618933Y-132253123D01*
X138666552Y-132348361D01*
X138666552Y-132538838D01*
X138714171Y-132634076D01*
X138761790Y-132681695D01*
X138857029Y-132729314D01*
X139047505Y-132729314D01*
X139142743Y-132681695D01*
X139190362Y-132634076D01*
X139237981Y-132538838D01*
X139237981Y-132348361D01*
X139190362Y-132253123D01*
X139142743Y-132205504D01*
X139047505Y-132157885D01*
X138857029Y-132157885D01*
X138761790Y-132205504D01*
X138714171Y-132253123D01*
X138666552Y-132348361D01*
X148115281Y-133751557D02*
X147639090Y-134084891D01*
X148115281Y-134322986D02*
X147115281Y-134322986D01*
X147115281Y-133942033D01*
X147162900Y-133846795D01*
X147210519Y-133799176D01*
X147305757Y-133751557D01*
X147448614Y-133751557D01*
X147543852Y-133799176D01*
X147591471Y-133846795D01*
X147639090Y-133942033D01*
X147639090Y-134322986D01*
X148115281Y-132799176D02*
X148115281Y-133370605D01*
X148115281Y-133084891D02*
X147115281Y-133084891D01*
X147258138Y-133180129D01*
X147353376Y-133275367D01*
X147400995Y-133370605D01*
X147115281Y-132180129D02*
X147115281Y-132084890D01*
X147162900Y-131989652D01*
X147210519Y-131942033D01*
X147305757Y-131894414D01*
X147496233Y-131846795D01*
X147734329Y-131846795D01*
X147924805Y-131894414D01*
X148020043Y-131942033D01*
X148067662Y-131989652D01*
X148115281Y-132084890D01*
X148115281Y-132180129D01*
X148067662Y-132275367D01*
X148020043Y-132322986D01*
X147924805Y-132370605D01*
X147734329Y-132418224D01*
X147496233Y-132418224D01*
X147305757Y-132370605D01*
X147210519Y-132322986D01*
X147162900Y-132275367D01*
X147115281Y-132180129D01*
X88901543Y-127744457D02*
X88949162Y-127792076D01*
X88996781Y-127934933D01*
X88996781Y-128030171D01*
X88949162Y-128173029D01*
X88853924Y-128268267D01*
X88758686Y-128315886D01*
X88568210Y-128363505D01*
X88425352Y-128363505D01*
X88234876Y-128315886D01*
X88139638Y-128268267D01*
X88044400Y-128173029D01*
X87996781Y-128030171D01*
X87996781Y-127934933D01*
X88044400Y-127792076D01*
X88092019Y-127744457D01*
X88996781Y-126792076D02*
X88996781Y-127363505D01*
X88996781Y-127077791D02*
X87996781Y-127077791D01*
X88139638Y-127173029D01*
X88234876Y-127268267D01*
X88282495Y-127363505D01*
X87996781Y-126458743D02*
X87996781Y-125839695D01*
X88377733Y-126173029D01*
X88377733Y-126030171D01*
X88425352Y-125934933D01*
X88472971Y-125887314D01*
X88568210Y-125839695D01*
X88806305Y-125839695D01*
X88901543Y-125887314D01*
X88949162Y-125934933D01*
X88996781Y-126030171D01*
X88996781Y-126315886D01*
X88949162Y-126411124D01*
X88901543Y-126458743D01*
X140358905Y-116530381D02*
X140358905Y-115530381D01*
X140739858Y-115530381D01*
X140835096Y-115578000D01*
X140882715Y-115625619D01*
X140930334Y-115720857D01*
X140930334Y-115863714D01*
X140882715Y-115958952D01*
X140835096Y-116006571D01*
X140739858Y-116054190D01*
X140358905Y-116054190D01*
X141311286Y-115625619D02*
X141358905Y-115578000D01*
X141454143Y-115530381D01*
X141692239Y-115530381D01*
X141787477Y-115578000D01*
X141835096Y-115625619D01*
X141882715Y-115720857D01*
X141882715Y-115816095D01*
X141835096Y-115958952D01*
X141263667Y-116530381D01*
X141882715Y-116530381D01*
X110704405Y-121673881D02*
X110704405Y-120673881D01*
X111085358Y-120673881D01*
X111180596Y-120721500D01*
X111228215Y-120769119D01*
X111275834Y-120864357D01*
X111275834Y-121007214D01*
X111228215Y-121102452D01*
X111180596Y-121150071D01*
X111085358Y-121197690D01*
X110704405Y-121197690D01*
X111609167Y-120673881D02*
X112228215Y-120673881D01*
X111894881Y-121054833D01*
X112037739Y-121054833D01*
X112132977Y-121102452D01*
X112180596Y-121150071D01*
X112228215Y-121245310D01*
X112228215Y-121483405D01*
X112180596Y-121578643D01*
X112132977Y-121626262D01*
X112037739Y-121673881D01*
X111752024Y-121673881D01*
X111656786Y-121626262D01*
X111609167Y-121578643D01*
X90193905Y-121419881D02*
X90193905Y-120419881D01*
X90574858Y-120419881D01*
X90670096Y-120467500D01*
X90717715Y-120515119D01*
X90765334Y-120610357D01*
X90765334Y-120753214D01*
X90717715Y-120848452D01*
X90670096Y-120896071D01*
X90574858Y-120943690D01*
X90193905Y-120943690D01*
X91622477Y-120753214D02*
X91622477Y-121419881D01*
X91384381Y-120372262D02*
X91146286Y-121086548D01*
X91765334Y-121086548D01*
X97305905Y-121483381D02*
X97305905Y-120483381D01*
X97686858Y-120483381D01*
X97782096Y-120531000D01*
X97829715Y-120578619D01*
X97877334Y-120673857D01*
X97877334Y-120816714D01*
X97829715Y-120911952D01*
X97782096Y-120959571D01*
X97686858Y-121007190D01*
X97305905Y-121007190D01*
X98782096Y-120483381D02*
X98305905Y-120483381D01*
X98258286Y-120959571D01*
X98305905Y-120911952D01*
X98401143Y-120864333D01*
X98639239Y-120864333D01*
X98734477Y-120911952D01*
X98782096Y-120959571D01*
X98829715Y-121054810D01*
X98829715Y-121292905D01*
X98782096Y-121388143D01*
X98734477Y-121435762D01*
X98639239Y-121483381D01*
X98401143Y-121483381D01*
X98305905Y-121435762D01*
X98258286Y-121388143D01*
X51222381Y-118668095D02*
X50222381Y-118668095D01*
X50222381Y-118287142D01*
X50270000Y-118191904D01*
X50317619Y-118144285D01*
X50412857Y-118096666D01*
X50555714Y-118096666D01*
X50650952Y-118144285D01*
X50698571Y-118191904D01*
X50746190Y-118287142D01*
X50746190Y-118668095D01*
X50222381Y-117239523D02*
X50222381Y-117430000D01*
X50270000Y-117525238D01*
X50317619Y-117572857D01*
X50460476Y-117668095D01*
X50650952Y-117715714D01*
X51031905Y-117715714D01*
X51127143Y-117668095D01*
X51174762Y-117620476D01*
X51222381Y-117525238D01*
X51222381Y-117334761D01*
X51174762Y-117239523D01*
X51127143Y-117191904D01*
X51031905Y-117144285D01*
X50793810Y-117144285D01*
X50698571Y-117191904D01*
X50650952Y-117239523D01*
X50603333Y-117334761D01*
X50603333Y-117525238D01*
X50650952Y-117620476D01*
X50698571Y-117668095D01*
X50793810Y-117715714D01*
X80478405Y-121419881D02*
X80478405Y-120419881D01*
X80859358Y-120419881D01*
X80954596Y-120467500D01*
X81002215Y-120515119D01*
X81049834Y-120610357D01*
X81049834Y-120753214D01*
X81002215Y-120848452D01*
X80954596Y-120896071D01*
X80859358Y-120943690D01*
X80478405Y-120943690D01*
X81383167Y-120419881D02*
X82049834Y-120419881D01*
X81621262Y-121419881D01*
X104290905Y-121737381D02*
X104290905Y-120737381D01*
X104671858Y-120737381D01*
X104767096Y-120785000D01*
X104814715Y-120832619D01*
X104862334Y-120927857D01*
X104862334Y-121070714D01*
X104814715Y-121165952D01*
X104767096Y-121213571D01*
X104671858Y-121261190D01*
X104290905Y-121261190D01*
X105433762Y-121165952D02*
X105338524Y-121118333D01*
X105290905Y-121070714D01*
X105243286Y-120975476D01*
X105243286Y-120927857D01*
X105290905Y-120832619D01*
X105338524Y-120785000D01*
X105433762Y-120737381D01*
X105624239Y-120737381D01*
X105719477Y-120785000D01*
X105767096Y-120832619D01*
X105814715Y-120927857D01*
X105814715Y-120975476D01*
X105767096Y-121070714D01*
X105719477Y-121118333D01*
X105624239Y-121165952D01*
X105433762Y-121165952D01*
X105338524Y-121213571D01*
X105290905Y-121261190D01*
X105243286Y-121356429D01*
X105243286Y-121546905D01*
X105290905Y-121642143D01*
X105338524Y-121689762D01*
X105433762Y-121737381D01*
X105624239Y-121737381D01*
X105719477Y-121689762D01*
X105767096Y-121642143D01*
X105814715Y-121546905D01*
X105814715Y-121356429D01*
X105767096Y-121261190D01*
X105719477Y-121213571D01*
X105624239Y-121165952D01*
X61618905Y-121292881D02*
X61618905Y-120292881D01*
X61999858Y-120292881D01*
X62095096Y-120340500D01*
X62142715Y-120388119D01*
X62190334Y-120483357D01*
X62190334Y-120626214D01*
X62142715Y-120721452D01*
X62095096Y-120769071D01*
X61999858Y-120816690D01*
X61618905Y-120816690D01*
X62666524Y-121292881D02*
X62857000Y-121292881D01*
X62952239Y-121245262D01*
X62999858Y-121197643D01*
X63095096Y-121054786D01*
X63142715Y-120864310D01*
X63142715Y-120483357D01*
X63095096Y-120388119D01*
X63047477Y-120340500D01*
X62952239Y-120292881D01*
X62761762Y-120292881D01*
X62666524Y-120340500D01*
X62618905Y-120388119D01*
X62571286Y-120483357D01*
X62571286Y-120721452D01*
X62618905Y-120816690D01*
X62666524Y-120864310D01*
X62761762Y-120911929D01*
X62952239Y-120911929D01*
X63047477Y-120864310D01*
X63095096Y-120816690D01*
X63142715Y-120721452D01*
X70540714Y-121292881D02*
X70540714Y-120292881D01*
X70921667Y-120292881D01*
X71016905Y-120340500D01*
X71064524Y-120388119D01*
X71112143Y-120483357D01*
X71112143Y-120626214D01*
X71064524Y-120721452D01*
X71016905Y-120769071D01*
X70921667Y-120816690D01*
X70540714Y-120816690D01*
X72064524Y-121292881D02*
X71493095Y-121292881D01*
X71778809Y-121292881D02*
X71778809Y-120292881D01*
X71683571Y-120435738D01*
X71588333Y-120530976D01*
X71493095Y-120578595D01*
X72683571Y-120292881D02*
X72778810Y-120292881D01*
X72874048Y-120340500D01*
X72921667Y-120388119D01*
X72969286Y-120483357D01*
X73016905Y-120673833D01*
X73016905Y-120911929D01*
X72969286Y-121102405D01*
X72921667Y-121197643D01*
X72874048Y-121245262D01*
X72778810Y-121292881D01*
X72683571Y-121292881D01*
X72588333Y-121245262D01*
X72540714Y-121197643D01*
X72493095Y-121102405D01*
X72445476Y-120911929D01*
X72445476Y-120673833D01*
X72493095Y-120483357D01*
X72540714Y-120388119D01*
X72588333Y-120340500D01*
X72683571Y-120292881D01*
X120769214Y-116403381D02*
X120769214Y-115403381D01*
X121150167Y-115403381D01*
X121245405Y-115451000D01*
X121293024Y-115498619D01*
X121340643Y-115593857D01*
X121340643Y-115736714D01*
X121293024Y-115831952D01*
X121245405Y-115879571D01*
X121150167Y-115927190D01*
X120769214Y-115927190D01*
X122293024Y-116403381D02*
X121721595Y-116403381D01*
X122007309Y-116403381D02*
X122007309Y-115403381D01*
X121912071Y-115546238D01*
X121816833Y-115641476D01*
X121721595Y-115689095D01*
X123245405Y-116403381D02*
X122673976Y-116403381D01*
X122959690Y-116403381D02*
X122959690Y-115403381D01*
X122864452Y-115546238D01*
X122769214Y-115641476D01*
X122673976Y-115689095D01*
X130611714Y-116403381D02*
X130611714Y-115403381D01*
X130992667Y-115403381D01*
X131087905Y-115451000D01*
X131135524Y-115498619D01*
X131183143Y-115593857D01*
X131183143Y-115736714D01*
X131135524Y-115831952D01*
X131087905Y-115879571D01*
X130992667Y-115927190D01*
X130611714Y-115927190D01*
X132135524Y-116403381D02*
X131564095Y-116403381D01*
X131849809Y-116403381D02*
X131849809Y-115403381D01*
X131754571Y-115546238D01*
X131659333Y-115641476D01*
X131564095Y-115689095D01*
X132516476Y-115498619D02*
X132564095Y-115451000D01*
X132659333Y-115403381D01*
X132897429Y-115403381D01*
X132992667Y-115451000D01*
X133040286Y-115498619D01*
X133087905Y-115593857D01*
X133087905Y-115689095D01*
X133040286Y-115831952D01*
X132468857Y-116403381D01*
X133087905Y-116403381D01*
X94016534Y-130830581D02*
X93540343Y-130830581D01*
X93540343Y-129830581D01*
X94873677Y-130830581D02*
X94302248Y-130830581D01*
X94587962Y-130830581D02*
X94587962Y-129830581D01*
X94492724Y-129973438D01*
X94397486Y-130068676D01*
X94302248Y-130116295D01*
X93813334Y-133294381D02*
X93337143Y-133294381D01*
X93337143Y-132294381D01*
X94099048Y-132389619D02*
X94146667Y-132342000D01*
X94241905Y-132294381D01*
X94480001Y-132294381D01*
X94575239Y-132342000D01*
X94622858Y-132389619D01*
X94670477Y-132484857D01*
X94670477Y-132580095D01*
X94622858Y-132722952D01*
X94051429Y-133294381D01*
X94670477Y-133294381D01*
X93940334Y-135707381D02*
X93464143Y-135707381D01*
X93464143Y-134707381D01*
X94178429Y-134707381D02*
X94797477Y-134707381D01*
X94464143Y-135088333D01*
X94607001Y-135088333D01*
X94702239Y-135135952D01*
X94749858Y-135183571D01*
X94797477Y-135278810D01*
X94797477Y-135516905D01*
X94749858Y-135612143D01*
X94702239Y-135659762D01*
X94607001Y-135707381D01*
X94321286Y-135707381D01*
X94226048Y-135659762D01*
X94178429Y-135612143D01*
X93940334Y-137993381D02*
X93464143Y-137993381D01*
X93464143Y-136993381D01*
X94702239Y-137326714D02*
X94702239Y-137993381D01*
X94464143Y-136945762D02*
X94226048Y-137660048D01*
X94845096Y-137660048D01*
X93940334Y-140660381D02*
X93464143Y-140660381D01*
X93464143Y-139660381D01*
X94749858Y-139660381D02*
X94273667Y-139660381D01*
X94226048Y-140136571D01*
X94273667Y-140088952D01*
X94368905Y-140041333D01*
X94607001Y-140041333D01*
X94702239Y-140088952D01*
X94749858Y-140136571D01*
X94797477Y-140231810D01*
X94797477Y-140469905D01*
X94749858Y-140565143D01*
X94702239Y-140612762D01*
X94607001Y-140660381D01*
X94368905Y-140660381D01*
X94273667Y-140612762D01*
X94226048Y-140565143D01*
X93813334Y-143073381D02*
X93337143Y-143073381D01*
X93337143Y-142073381D01*
X94575239Y-142073381D02*
X94384762Y-142073381D01*
X94289524Y-142121000D01*
X94241905Y-142168619D01*
X94146667Y-142311476D01*
X94099048Y-142501952D01*
X94099048Y-142882905D01*
X94146667Y-142978143D01*
X94194286Y-143025762D01*
X94289524Y-143073381D01*
X94480001Y-143073381D01*
X94575239Y-143025762D01*
X94622858Y-142978143D01*
X94670477Y-142882905D01*
X94670477Y-142644810D01*
X94622858Y-142549571D01*
X94575239Y-142501952D01*
X94480001Y-142454333D01*
X94289524Y-142454333D01*
X94194286Y-142501952D01*
X94146667Y-142549571D01*
X94099048Y-142644810D01*
X94067334Y-145486381D02*
X93591143Y-145486381D01*
X93591143Y-144486381D01*
X94305429Y-144486381D02*
X94972096Y-144486381D01*
X94543524Y-145486381D01*
X94067334Y-148153381D02*
X93591143Y-148153381D01*
X93591143Y-147153381D01*
X94543524Y-147581952D02*
X94448286Y-147534333D01*
X94400667Y-147486714D01*
X94353048Y-147391476D01*
X94353048Y-147343857D01*
X94400667Y-147248619D01*
X94448286Y-147201000D01*
X94543524Y-147153381D01*
X94734001Y-147153381D01*
X94829239Y-147201000D01*
X94876858Y-147248619D01*
X94924477Y-147343857D01*
X94924477Y-147391476D01*
X94876858Y-147486714D01*
X94829239Y-147534333D01*
X94734001Y-147581952D01*
X94543524Y-147581952D01*
X94448286Y-147629571D01*
X94400667Y-147677190D01*
X94353048Y-147772429D01*
X94353048Y-147962905D01*
X94400667Y-148058143D01*
X94448286Y-148105762D01*
X94543524Y-148153381D01*
X94734001Y-148153381D01*
X94829239Y-148105762D01*
X94876858Y-148058143D01*
X94924477Y-147962905D01*
X94924477Y-147772429D01*
X94876858Y-147677190D01*
X94829239Y-147629571D01*
X94734001Y-147581952D01*
X115390705Y-143784581D02*
X115390705Y-142784581D01*
X115628800Y-142784581D01*
X115771658Y-142832200D01*
X115866896Y-142927438D01*
X115914515Y-143022676D01*
X115962134Y-143213152D01*
X115962134Y-143356010D01*
X115914515Y-143546486D01*
X115866896Y-143641724D01*
X115771658Y-143736962D01*
X115628800Y-143784581D01*
X115390705Y-143784581D01*
X116914515Y-143784581D02*
X116343086Y-143784581D01*
X116628800Y-143784581D02*
X116628800Y-142784581D01*
X116533562Y-142927438D01*
X116438324Y-143022676D01*
X116343086Y-143070295D01*
X88957423Y-130396217D02*
X89005042Y-130443836D01*
X89052661Y-130586693D01*
X89052661Y-130681931D01*
X89005042Y-130824789D01*
X88909804Y-130920027D01*
X88814566Y-130967646D01*
X88624090Y-131015265D01*
X88481232Y-131015265D01*
X88290756Y-130967646D01*
X88195518Y-130920027D01*
X88100280Y-130824789D01*
X88052661Y-130681931D01*
X88052661Y-130586693D01*
X88100280Y-130443836D01*
X88147899Y-130396217D01*
X89052661Y-129443836D02*
X89052661Y-130015265D01*
X89052661Y-129729551D02*
X88052661Y-129729551D01*
X88195518Y-129824789D01*
X88290756Y-129920027D01*
X88338375Y-130015265D01*
X88052661Y-128539074D02*
X88052661Y-129015265D01*
X88528851Y-129062884D01*
X88481232Y-129015265D01*
X88433613Y-128920027D01*
X88433613Y-128681931D01*
X88481232Y-128586693D01*
X88528851Y-128539074D01*
X88624090Y-128491455D01*
X88862185Y-128491455D01*
X88957423Y-128539074D01*
X89005042Y-128586693D01*
X89052661Y-128681931D01*
X89052661Y-128920027D01*
X89005042Y-129015265D01*
X88957423Y-129062884D01*
X88926943Y-133190217D02*
X88974562Y-133237836D01*
X89022181Y-133380693D01*
X89022181Y-133475931D01*
X88974562Y-133618789D01*
X88879324Y-133714027D01*
X88784086Y-133761646D01*
X88593610Y-133809265D01*
X88450752Y-133809265D01*
X88260276Y-133761646D01*
X88165038Y-133714027D01*
X88069800Y-133618789D01*
X88022181Y-133475931D01*
X88022181Y-133380693D01*
X88069800Y-133237836D01*
X88117419Y-133190217D01*
X89022181Y-132237836D02*
X89022181Y-132809265D01*
X89022181Y-132523551D02*
X88022181Y-132523551D01*
X88165038Y-132618789D01*
X88260276Y-132714027D01*
X88307895Y-132809265D01*
X88022181Y-131380693D02*
X88022181Y-131571170D01*
X88069800Y-131666408D01*
X88117419Y-131714027D01*
X88260276Y-131809265D01*
X88450752Y-131856884D01*
X88831705Y-131856884D01*
X88926943Y-131809265D01*
X88974562Y-131761646D01*
X89022181Y-131666408D01*
X89022181Y-131475931D01*
X88974562Y-131380693D01*
X88926943Y-131333074D01*
X88831705Y-131285455D01*
X88593610Y-131285455D01*
X88498371Y-131333074D01*
X88450752Y-131380693D01*
X88403133Y-131475931D01*
X88403133Y-131666408D01*
X88450752Y-131761646D01*
X88498371Y-131809265D01*
X88593610Y-131856884D01*
X88926943Y-135872457D02*
X88974562Y-135920076D01*
X89022181Y-136062933D01*
X89022181Y-136158171D01*
X88974562Y-136301029D01*
X88879324Y-136396267D01*
X88784086Y-136443886D01*
X88593610Y-136491505D01*
X88450752Y-136491505D01*
X88260276Y-136443886D01*
X88165038Y-136396267D01*
X88069800Y-136301029D01*
X88022181Y-136158171D01*
X88022181Y-136062933D01*
X88069800Y-135920076D01*
X88117419Y-135872457D01*
X89022181Y-134920076D02*
X89022181Y-135491505D01*
X89022181Y-135205791D02*
X88022181Y-135205791D01*
X88165038Y-135301029D01*
X88260276Y-135396267D01*
X88307895Y-135491505D01*
X88022181Y-134586743D02*
X88022181Y-133920076D01*
X89022181Y-134348648D01*
X89069183Y-138610577D02*
X89116802Y-138658196D01*
X89164421Y-138801053D01*
X89164421Y-138896291D01*
X89116802Y-139039149D01*
X89021564Y-139134387D01*
X88926326Y-139182006D01*
X88735850Y-139229625D01*
X88592992Y-139229625D01*
X88402516Y-139182006D01*
X88307278Y-139134387D01*
X88212040Y-139039149D01*
X88164421Y-138896291D01*
X88164421Y-138801053D01*
X88212040Y-138658196D01*
X88259659Y-138610577D01*
X89164421Y-137658196D02*
X89164421Y-138229625D01*
X89164421Y-137943911D02*
X88164421Y-137943911D01*
X88307278Y-138039149D01*
X88402516Y-138134387D01*
X88450135Y-138229625D01*
X88592992Y-137086768D02*
X88545373Y-137182006D01*
X88497754Y-137229625D01*
X88402516Y-137277244D01*
X88354897Y-137277244D01*
X88259659Y-137229625D01*
X88212040Y-137182006D01*
X88164421Y-137086768D01*
X88164421Y-136896291D01*
X88212040Y-136801053D01*
X88259659Y-136753434D01*
X88354897Y-136705815D01*
X88402516Y-136705815D01*
X88497754Y-136753434D01*
X88545373Y-136801053D01*
X88592992Y-136896291D01*
X88592992Y-137086768D01*
X88640611Y-137182006D01*
X88688230Y-137229625D01*
X88783469Y-137277244D01*
X88973945Y-137277244D01*
X89069183Y-137229625D01*
X89116802Y-137182006D01*
X89164421Y-137086768D01*
X89164421Y-136896291D01*
X89116802Y-136801053D01*
X89069183Y-136753434D01*
X88973945Y-136705815D01*
X88783469Y-136705815D01*
X88688230Y-136753434D01*
X88640611Y-136801053D01*
X88592992Y-136896291D01*
X88982823Y-141069297D02*
X89030442Y-141116916D01*
X89078061Y-141259773D01*
X89078061Y-141355011D01*
X89030442Y-141497869D01*
X88935204Y-141593107D01*
X88839966Y-141640726D01*
X88649490Y-141688345D01*
X88506632Y-141688345D01*
X88316156Y-141640726D01*
X88220918Y-141593107D01*
X88125680Y-141497869D01*
X88078061Y-141355011D01*
X88078061Y-141259773D01*
X88125680Y-141116916D01*
X88173299Y-141069297D01*
X89078061Y-140116916D02*
X89078061Y-140688345D01*
X89078061Y-140402631D02*
X88078061Y-140402631D01*
X88220918Y-140497869D01*
X88316156Y-140593107D01*
X88363775Y-140688345D01*
X89078061Y-139640726D02*
X89078061Y-139450250D01*
X89030442Y-139355011D01*
X88982823Y-139307392D01*
X88839966Y-139212154D01*
X88649490Y-139164535D01*
X88268537Y-139164535D01*
X88173299Y-139212154D01*
X88125680Y-139259773D01*
X88078061Y-139355011D01*
X88078061Y-139545488D01*
X88125680Y-139640726D01*
X88173299Y-139688345D01*
X88268537Y-139735964D01*
X88506632Y-139735964D01*
X88601870Y-139688345D01*
X88649490Y-139640726D01*
X88697109Y-139545488D01*
X88697109Y-139355011D01*
X88649490Y-139259773D01*
X88601870Y-139212154D01*
X88506632Y-139164535D01*
X88957423Y-143726137D02*
X89005042Y-143773756D01*
X89052661Y-143916613D01*
X89052661Y-144011851D01*
X89005042Y-144154709D01*
X88909804Y-144249947D01*
X88814566Y-144297566D01*
X88624090Y-144345185D01*
X88481232Y-144345185D01*
X88290756Y-144297566D01*
X88195518Y-144249947D01*
X88100280Y-144154709D01*
X88052661Y-144011851D01*
X88052661Y-143916613D01*
X88100280Y-143773756D01*
X88147899Y-143726137D01*
X88147899Y-143345185D02*
X88100280Y-143297566D01*
X88052661Y-143202328D01*
X88052661Y-142964232D01*
X88100280Y-142868994D01*
X88147899Y-142821375D01*
X88243137Y-142773756D01*
X88338375Y-142773756D01*
X88481232Y-142821375D01*
X89052661Y-143392804D01*
X89052661Y-142773756D01*
X88052661Y-142154709D02*
X88052661Y-142059470D01*
X88100280Y-141964232D01*
X88147899Y-141916613D01*
X88243137Y-141868994D01*
X88433613Y-141821375D01*
X88671709Y-141821375D01*
X88862185Y-141868994D01*
X88957423Y-141916613D01*
X89005042Y-141964232D01*
X89052661Y-142059470D01*
X89052661Y-142154709D01*
X89005042Y-142249947D01*
X88957423Y-142297566D01*
X88862185Y-142345185D01*
X88671709Y-142392804D01*
X88433613Y-142392804D01*
X88243137Y-142345185D01*
X88147899Y-142297566D01*
X88100280Y-142249947D01*
X88052661Y-142154709D01*
X88957423Y-146377897D02*
X89005042Y-146425516D01*
X89052661Y-146568373D01*
X89052661Y-146663611D01*
X89005042Y-146806469D01*
X88909804Y-146901707D01*
X88814566Y-146949326D01*
X88624090Y-146996945D01*
X88481232Y-146996945D01*
X88290756Y-146949326D01*
X88195518Y-146901707D01*
X88100280Y-146806469D01*
X88052661Y-146663611D01*
X88052661Y-146568373D01*
X88100280Y-146425516D01*
X88147899Y-146377897D01*
X88147899Y-145996945D02*
X88100280Y-145949326D01*
X88052661Y-145854088D01*
X88052661Y-145615992D01*
X88100280Y-145520754D01*
X88147899Y-145473135D01*
X88243137Y-145425516D01*
X88338375Y-145425516D01*
X88481232Y-145473135D01*
X89052661Y-146044564D01*
X89052661Y-145425516D01*
X89052661Y-144473135D02*
X89052661Y-145044564D01*
X89052661Y-144758850D02*
X88052661Y-144758850D01*
X88195518Y-144854088D01*
X88290756Y-144949326D01*
X88338375Y-145044564D01*
X88926943Y-149090617D02*
X88974562Y-149138236D01*
X89022181Y-149281093D01*
X89022181Y-149376331D01*
X88974562Y-149519189D01*
X88879324Y-149614427D01*
X88784086Y-149662046D01*
X88593610Y-149709665D01*
X88450752Y-149709665D01*
X88260276Y-149662046D01*
X88165038Y-149614427D01*
X88069800Y-149519189D01*
X88022181Y-149376331D01*
X88022181Y-149281093D01*
X88069800Y-149138236D01*
X88117419Y-149090617D01*
X88117419Y-148709665D02*
X88069800Y-148662046D01*
X88022181Y-148566808D01*
X88022181Y-148328712D01*
X88069800Y-148233474D01*
X88117419Y-148185855D01*
X88212657Y-148138236D01*
X88307895Y-148138236D01*
X88450752Y-148185855D01*
X89022181Y-148757284D01*
X89022181Y-148138236D01*
X88117419Y-147757284D02*
X88069800Y-147709665D01*
X88022181Y-147614427D01*
X88022181Y-147376331D01*
X88069800Y-147281093D01*
X88117419Y-147233474D01*
X88212657Y-147185855D01*
X88307895Y-147185855D01*
X88450752Y-147233474D01*
X89022181Y-147804903D01*
X89022181Y-147185855D01*
X120102334Y-148851881D02*
X119626143Y-148851881D01*
X119626143Y-147851881D01*
X120483286Y-148851881D02*
X120673762Y-148851881D01*
X120769001Y-148804262D01*
X120816620Y-148756643D01*
X120911858Y-148613786D01*
X120959477Y-148423310D01*
X120959477Y-148042357D01*
X120911858Y-147947119D01*
X120864239Y-147899500D01*
X120769001Y-147851881D01*
X120578524Y-147851881D01*
X120483286Y-147899500D01*
X120435667Y-147947119D01*
X120388048Y-148042357D01*
X120388048Y-148280452D01*
X120435667Y-148375690D01*
X120483286Y-148423310D01*
X120578524Y-148470929D01*
X120769001Y-148470929D01*
X120864239Y-148423310D01*
X120911858Y-148375690D01*
X120959477Y-148280452D01*
X57461743Y-147525657D02*
X57509362Y-147573276D01*
X57556981Y-147716133D01*
X57556981Y-147811371D01*
X57509362Y-147954229D01*
X57414124Y-148049467D01*
X57318886Y-148097086D01*
X57128410Y-148144705D01*
X56985552Y-148144705D01*
X56795076Y-148097086D01*
X56699838Y-148049467D01*
X56604600Y-147954229D01*
X56556981Y-147811371D01*
X56556981Y-147716133D01*
X56604600Y-147573276D01*
X56652219Y-147525657D01*
X57556981Y-146573276D02*
X57556981Y-147144705D01*
X57556981Y-146858991D02*
X56556981Y-146858991D01*
X56699838Y-146954229D01*
X56795076Y-147049467D01*
X56842695Y-147144705D01*
X56652219Y-146192324D02*
X56604600Y-146144705D01*
X56556981Y-146049467D01*
X56556981Y-145811371D01*
X56604600Y-145716133D01*
X56652219Y-145668514D01*
X56747457Y-145620895D01*
X56842695Y-145620895D01*
X56985552Y-145668514D01*
X57556981Y-146239943D01*
X57556981Y-145620895D01*
X57761143Y-142374857D02*
X57808762Y-142422476D01*
X57856381Y-142565333D01*
X57856381Y-142660571D01*
X57808762Y-142803429D01*
X57713524Y-142898667D01*
X57618286Y-142946286D01*
X57427810Y-142993905D01*
X57284952Y-142993905D01*
X57094476Y-142946286D01*
X56999238Y-142898667D01*
X56904000Y-142803429D01*
X56856381Y-142660571D01*
X56856381Y-142565333D01*
X56904000Y-142422476D01*
X56951619Y-142374857D01*
X56951619Y-141993905D02*
X56904000Y-141946286D01*
X56856381Y-141851048D01*
X56856381Y-141612952D01*
X56904000Y-141517714D01*
X56951619Y-141470095D01*
X57046857Y-141422476D01*
X57142095Y-141422476D01*
X57284952Y-141470095D01*
X57856381Y-142041524D01*
X57856381Y-141422476D01*
X56856381Y-141089143D02*
X56856381Y-140470095D01*
X57237333Y-140803429D01*
X57237333Y-140660571D01*
X57284952Y-140565333D01*
X57332571Y-140517714D01*
X57427810Y-140470095D01*
X57665905Y-140470095D01*
X57761143Y-140517714D01*
X57808762Y-140565333D01*
X57856381Y-140660571D01*
X57856381Y-140946286D01*
X57808762Y-141041524D01*
X57761143Y-141089143D01*
X51311277Y-127092461D02*
X51311277Y-127806747D01*
X51263657Y-127949604D01*
X51168419Y-128044842D01*
X51025562Y-128092461D01*
X50930324Y-128092461D01*
X52311277Y-128092461D02*
X51739848Y-128092461D01*
X52025562Y-128092461D02*
X52025562Y-127092461D01*
X51930324Y-127235318D01*
X51835086Y-127330556D01*
X51739848Y-127378175D01*
X53263658Y-128092461D02*
X52692229Y-128092461D01*
X52977943Y-128092461D02*
X52977943Y-127092461D01*
X52882705Y-127235318D01*
X52787467Y-127330556D01*
X52692229Y-127378175D01*
X51957243Y-87675957D02*
X52004862Y-87723576D01*
X52052481Y-87866433D01*
X52052481Y-87961671D01*
X52004862Y-88104529D01*
X51909624Y-88199767D01*
X51814386Y-88247386D01*
X51623910Y-88295005D01*
X51481052Y-88295005D01*
X51290576Y-88247386D01*
X51195338Y-88199767D01*
X51100100Y-88104529D01*
X51052481Y-87961671D01*
X51052481Y-87866433D01*
X51100100Y-87723576D01*
X51147719Y-87675957D01*
X51147719Y-87295005D02*
X51100100Y-87247386D01*
X51052481Y-87152148D01*
X51052481Y-86914052D01*
X51100100Y-86818814D01*
X51147719Y-86771195D01*
X51242957Y-86723576D01*
X51338195Y-86723576D01*
X51481052Y-86771195D01*
X52052481Y-87342624D01*
X52052481Y-86723576D01*
X51052481Y-85818814D02*
X51052481Y-86295005D01*
X51528671Y-86342624D01*
X51481052Y-86295005D01*
X51433433Y-86199767D01*
X51433433Y-85961671D01*
X51481052Y-85866433D01*
X51528671Y-85818814D01*
X51623910Y-85771195D01*
X51862005Y-85771195D01*
X51957243Y-85818814D01*
X52004862Y-85866433D01*
X52052481Y-85961671D01*
X52052481Y-86199767D01*
X52004862Y-86295005D01*
X51957243Y-86342624D01*
X51550843Y-91727257D02*
X51598462Y-91774876D01*
X51646081Y-91917733D01*
X51646081Y-92012971D01*
X51598462Y-92155829D01*
X51503224Y-92251067D01*
X51407986Y-92298686D01*
X51217510Y-92346305D01*
X51074652Y-92346305D01*
X50884176Y-92298686D01*
X50788938Y-92251067D01*
X50693700Y-92155829D01*
X50646081Y-92012971D01*
X50646081Y-91917733D01*
X50693700Y-91774876D01*
X50741319Y-91727257D01*
X50741319Y-91346305D02*
X50693700Y-91298686D01*
X50646081Y-91203448D01*
X50646081Y-90965352D01*
X50693700Y-90870114D01*
X50741319Y-90822495D01*
X50836557Y-90774876D01*
X50931795Y-90774876D01*
X51074652Y-90822495D01*
X51646081Y-91393924D01*
X51646081Y-90774876D01*
X50646081Y-89917733D02*
X50646081Y-90108210D01*
X50693700Y-90203448D01*
X50741319Y-90251067D01*
X50884176Y-90346305D01*
X51074652Y-90393924D01*
X51455605Y-90393924D01*
X51550843Y-90346305D01*
X51598462Y-90298686D01*
X51646081Y-90203448D01*
X51646081Y-90012971D01*
X51598462Y-89917733D01*
X51550843Y-89870114D01*
X51455605Y-89822495D01*
X51217510Y-89822495D01*
X51122271Y-89870114D01*
X51074652Y-89917733D01*
X51027033Y-90012971D01*
X51027033Y-90203448D01*
X51074652Y-90298686D01*
X51122271Y-90346305D01*
X51217510Y-90393924D01*
X51614343Y-103627157D02*
X51661962Y-103674776D01*
X51709581Y-103817633D01*
X51709581Y-103912871D01*
X51661962Y-104055729D01*
X51566724Y-104150967D01*
X51471486Y-104198586D01*
X51281010Y-104246205D01*
X51138152Y-104246205D01*
X50947676Y-104198586D01*
X50852438Y-104150967D01*
X50757200Y-104055729D01*
X50709581Y-103912871D01*
X50709581Y-103817633D01*
X50757200Y-103674776D01*
X50804819Y-103627157D01*
X50804819Y-103246205D02*
X50757200Y-103198586D01*
X50709581Y-103103348D01*
X50709581Y-102865252D01*
X50757200Y-102770014D01*
X50804819Y-102722395D01*
X50900057Y-102674776D01*
X50995295Y-102674776D01*
X51138152Y-102722395D01*
X51709581Y-103293824D01*
X51709581Y-102674776D01*
X50709581Y-102341443D02*
X50709581Y-101674776D01*
X51709581Y-102103348D01*
X51563543Y-74467957D02*
X51611162Y-74515576D01*
X51658781Y-74658433D01*
X51658781Y-74753671D01*
X51611162Y-74896529D01*
X51515924Y-74991767D01*
X51420686Y-75039386D01*
X51230210Y-75087005D01*
X51087352Y-75087005D01*
X50896876Y-75039386D01*
X50801638Y-74991767D01*
X50706400Y-74896529D01*
X50658781Y-74753671D01*
X50658781Y-74658433D01*
X50706400Y-74515576D01*
X50754019Y-74467957D01*
X50754019Y-74087005D02*
X50706400Y-74039386D01*
X50658781Y-73944148D01*
X50658781Y-73706052D01*
X50706400Y-73610814D01*
X50754019Y-73563195D01*
X50849257Y-73515576D01*
X50944495Y-73515576D01*
X51087352Y-73563195D01*
X51658781Y-74134624D01*
X51658781Y-73515576D01*
X51087352Y-72944148D02*
X51039733Y-73039386D01*
X50992114Y-73087005D01*
X50896876Y-73134624D01*
X50849257Y-73134624D01*
X50754019Y-73087005D01*
X50706400Y-73039386D01*
X50658781Y-72944148D01*
X50658781Y-72753671D01*
X50706400Y-72658433D01*
X50754019Y-72610814D01*
X50849257Y-72563195D01*
X50896876Y-72563195D01*
X50992114Y-72610814D01*
X51039733Y-72658433D01*
X51087352Y-72753671D01*
X51087352Y-72944148D01*
X51134971Y-73039386D01*
X51182590Y-73087005D01*
X51277829Y-73134624D01*
X51468305Y-73134624D01*
X51563543Y-73087005D01*
X51611162Y-73039386D01*
X51658781Y-72944148D01*
X51658781Y-72753671D01*
X51611162Y-72658433D01*
X51563543Y-72610814D01*
X51468305Y-72563195D01*
X51277829Y-72563195D01*
X51182590Y-72610814D01*
X51134971Y-72658433D01*
X51087352Y-72753671D01*
X149213843Y-101353857D02*
X149261462Y-101401476D01*
X149309081Y-101544333D01*
X149309081Y-101639571D01*
X149261462Y-101782429D01*
X149166224Y-101877667D01*
X149070986Y-101925286D01*
X148880510Y-101972905D01*
X148737652Y-101972905D01*
X148547176Y-101925286D01*
X148451938Y-101877667D01*
X148356700Y-101782429D01*
X148309081Y-101639571D01*
X148309081Y-101544333D01*
X148356700Y-101401476D01*
X148404319Y-101353857D01*
X148404319Y-100972905D02*
X148356700Y-100925286D01*
X148309081Y-100830048D01*
X148309081Y-100591952D01*
X148356700Y-100496714D01*
X148404319Y-100449095D01*
X148499557Y-100401476D01*
X148594795Y-100401476D01*
X148737652Y-100449095D01*
X149309081Y-101020524D01*
X149309081Y-100401476D01*
X149309081Y-99925286D02*
X149309081Y-99734810D01*
X149261462Y-99639571D01*
X149213843Y-99591952D01*
X149070986Y-99496714D01*
X148880510Y-99449095D01*
X148499557Y-99449095D01*
X148404319Y-99496714D01*
X148356700Y-99544333D01*
X148309081Y-99639571D01*
X148309081Y-99830048D01*
X148356700Y-99925286D01*
X148404319Y-99972905D01*
X148499557Y-100020524D01*
X148737652Y-100020524D01*
X148832890Y-99972905D01*
X148880510Y-99925286D01*
X148928129Y-99830048D01*
X148928129Y-99639571D01*
X148880510Y-99544333D01*
X148832890Y-99496714D01*
X148737652Y-99449095D01*
X149048743Y-87891857D02*
X149096362Y-87939476D01*
X149143981Y-88082333D01*
X149143981Y-88177571D01*
X149096362Y-88320429D01*
X149001124Y-88415667D01*
X148905886Y-88463286D01*
X148715410Y-88510905D01*
X148572552Y-88510905D01*
X148382076Y-88463286D01*
X148286838Y-88415667D01*
X148191600Y-88320429D01*
X148143981Y-88177571D01*
X148143981Y-88082333D01*
X148191600Y-87939476D01*
X148239219Y-87891857D01*
X148143981Y-87558524D02*
X148143981Y-86939476D01*
X148524933Y-87272810D01*
X148524933Y-87129952D01*
X148572552Y-87034714D01*
X148620171Y-86987095D01*
X148715410Y-86939476D01*
X148953505Y-86939476D01*
X149048743Y-86987095D01*
X149096362Y-87034714D01*
X149143981Y-87129952D01*
X149143981Y-87415667D01*
X149096362Y-87510905D01*
X149048743Y-87558524D01*
X148143981Y-86320429D02*
X148143981Y-86225190D01*
X148191600Y-86129952D01*
X148239219Y-86082333D01*
X148334457Y-86034714D01*
X148524933Y-85987095D01*
X148763029Y-85987095D01*
X148953505Y-86034714D01*
X149048743Y-86082333D01*
X149096362Y-86129952D01*
X149143981Y-86225190D01*
X149143981Y-86320429D01*
X149096362Y-86415667D01*
X149048743Y-86463286D01*
X148953505Y-86510905D01*
X148763029Y-86558524D01*
X148524933Y-86558524D01*
X148334457Y-86510905D01*
X148239219Y-86463286D01*
X148191600Y-86415667D01*
X148143981Y-86320429D01*
X149048743Y-75801457D02*
X149096362Y-75849076D01*
X149143981Y-75991933D01*
X149143981Y-76087171D01*
X149096362Y-76230029D01*
X149001124Y-76325267D01*
X148905886Y-76372886D01*
X148715410Y-76420505D01*
X148572552Y-76420505D01*
X148382076Y-76372886D01*
X148286838Y-76325267D01*
X148191600Y-76230029D01*
X148143981Y-76087171D01*
X148143981Y-75991933D01*
X148191600Y-75849076D01*
X148239219Y-75801457D01*
X148143981Y-75468124D02*
X148143981Y-74849076D01*
X148524933Y-75182410D01*
X148524933Y-75039552D01*
X148572552Y-74944314D01*
X148620171Y-74896695D01*
X148715410Y-74849076D01*
X148953505Y-74849076D01*
X149048743Y-74896695D01*
X149096362Y-74944314D01*
X149143981Y-75039552D01*
X149143981Y-75325267D01*
X149096362Y-75420505D01*
X149048743Y-75468124D01*
X149143981Y-73896695D02*
X149143981Y-74468124D01*
X149143981Y-74182410D02*
X148143981Y-74182410D01*
X148286838Y-74277648D01*
X148382076Y-74372886D01*
X148429695Y-74468124D01*
X149074143Y-63393557D02*
X149121762Y-63441176D01*
X149169381Y-63584033D01*
X149169381Y-63679271D01*
X149121762Y-63822129D01*
X149026524Y-63917367D01*
X148931286Y-63964986D01*
X148740810Y-64012605D01*
X148597952Y-64012605D01*
X148407476Y-63964986D01*
X148312238Y-63917367D01*
X148217000Y-63822129D01*
X148169381Y-63679271D01*
X148169381Y-63584033D01*
X148217000Y-63441176D01*
X148264619Y-63393557D01*
X148169381Y-63060224D02*
X148169381Y-62441176D01*
X148550333Y-62774510D01*
X148550333Y-62631652D01*
X148597952Y-62536414D01*
X148645571Y-62488795D01*
X148740810Y-62441176D01*
X148978905Y-62441176D01*
X149074143Y-62488795D01*
X149121762Y-62536414D01*
X149169381Y-62631652D01*
X149169381Y-62917367D01*
X149121762Y-63012605D01*
X149074143Y-63060224D01*
X148264619Y-62060224D02*
X148217000Y-62012605D01*
X148169381Y-61917367D01*
X148169381Y-61679271D01*
X148217000Y-61584033D01*
X148264619Y-61536414D01*
X148359857Y-61488795D01*
X148455095Y-61488795D01*
X148597952Y-61536414D01*
X149169381Y-62107843D01*
X149169381Y-61488795D01*
X54764383Y-127194583D02*
X54716764Y-127242202D01*
X54573907Y-127289821D01*
X54478669Y-127289821D01*
X54335811Y-127242202D01*
X54240573Y-127146964D01*
X54192954Y-127051726D01*
X54145335Y-126861250D01*
X54145335Y-126718392D01*
X54192954Y-126527916D01*
X54240573Y-126432678D01*
X54335811Y-126337440D01*
X54478669Y-126289821D01*
X54573907Y-126289821D01*
X54716764Y-126337440D01*
X54764383Y-126385059D01*
X55716764Y-127289821D02*
X55145335Y-127289821D01*
X55431049Y-127289821D02*
X55431049Y-126289821D01*
X55335811Y-126432678D01*
X55240573Y-126527916D01*
X55145335Y-126575535D01*
X56669145Y-127289821D02*
X56097716Y-127289821D01*
X56383430Y-127289821D02*
X56383430Y-126289821D01*
X56288192Y-126432678D01*
X56192954Y-126527916D01*
X56097716Y-126575535D01*
X129817834Y-148362943D02*
X129770215Y-148410562D01*
X129627358Y-148458181D01*
X129532120Y-148458181D01*
X129389262Y-148410562D01*
X129294024Y-148315324D01*
X129246405Y-148220086D01*
X129198786Y-148029610D01*
X129198786Y-147886752D01*
X129246405Y-147696276D01*
X129294024Y-147601038D01*
X129389262Y-147505800D01*
X129532120Y-147458181D01*
X129627358Y-147458181D01*
X129770215Y-147505800D01*
X129817834Y-147553419D01*
X130294024Y-148458181D02*
X130484500Y-148458181D01*
X130579739Y-148410562D01*
X130627358Y-148362943D01*
X130722596Y-148220086D01*
X130770215Y-148029610D01*
X130770215Y-147648657D01*
X130722596Y-147553419D01*
X130674977Y-147505800D01*
X130579739Y-147458181D01*
X130389262Y-147458181D01*
X130294024Y-147505800D01*
X130246405Y-147553419D01*
X130198786Y-147648657D01*
X130198786Y-147886752D01*
X130246405Y-147981990D01*
X130294024Y-148029610D01*
X130389262Y-148077229D01*
X130579739Y-148077229D01*
X130674977Y-148029610D01*
X130722596Y-147981990D01*
X130770215Y-147886752D01*
X137533143Y-148362943D02*
X137485524Y-148410562D01*
X137342667Y-148458181D01*
X137247429Y-148458181D01*
X137104571Y-148410562D01*
X137009333Y-148315324D01*
X136961714Y-148220086D01*
X136914095Y-148029610D01*
X136914095Y-147886752D01*
X136961714Y-147696276D01*
X137009333Y-147601038D01*
X137104571Y-147505800D01*
X137247429Y-147458181D01*
X137342667Y-147458181D01*
X137485524Y-147505800D01*
X137533143Y-147553419D01*
X138485524Y-148458181D02*
X137914095Y-148458181D01*
X138199809Y-148458181D02*
X138199809Y-147458181D01*
X138104571Y-147601038D01*
X138009333Y-147696276D01*
X137914095Y-147743895D01*
X139342667Y-147791514D02*
X139342667Y-148458181D01*
X139104571Y-147410562D02*
X138866476Y-148124848D01*
X139485524Y-148124848D01*
X61395361Y-148356533D02*
X62109647Y-148356533D01*
X62252504Y-148404153D01*
X62347742Y-148499391D01*
X62395361Y-148642248D01*
X62395361Y-148737486D01*
X62395361Y-147880343D02*
X61395361Y-147880343D01*
X61395361Y-147499390D01*
X61442980Y-147404152D01*
X61490599Y-147356533D01*
X61585837Y-147308914D01*
X61728694Y-147308914D01*
X61823932Y-147356533D01*
X61871551Y-147404152D01*
X61919170Y-147499390D01*
X61919170Y-147880343D01*
X61728694Y-146451771D02*
X62395361Y-146451771D01*
X61347742Y-146689867D02*
X62062028Y-146927962D01*
X62062028Y-146308914D01*
X111913943Y-147861257D02*
X111961562Y-147908876D01*
X112009181Y-148051733D01*
X112009181Y-148146971D01*
X111961562Y-148289829D01*
X111866324Y-148385067D01*
X111771086Y-148432686D01*
X111580610Y-148480305D01*
X111437752Y-148480305D01*
X111247276Y-148432686D01*
X111152038Y-148385067D01*
X111056800Y-148289829D01*
X111009181Y-148146971D01*
X111009181Y-148051733D01*
X111056800Y-147908876D01*
X111104419Y-147861257D01*
X111009181Y-147527924D02*
X111009181Y-146908876D01*
X111390133Y-147242210D01*
X111390133Y-147099352D01*
X111437752Y-147004114D01*
X111485371Y-146956495D01*
X111580610Y-146908876D01*
X111818705Y-146908876D01*
X111913943Y-146956495D01*
X111961562Y-147004114D01*
X112009181Y-147099352D01*
X112009181Y-147385067D01*
X111961562Y-147480305D01*
X111913943Y-147527924D01*
X111009181Y-146575543D02*
X111009181Y-145956495D01*
X111390133Y-146289829D01*
X111390133Y-146146971D01*
X111437752Y-146051733D01*
X111485371Y-146004114D01*
X111580610Y-145956495D01*
X111818705Y-145956495D01*
X111913943Y-146004114D01*
X111961562Y-146051733D01*
X112009181Y-146146971D01*
X112009181Y-146432686D01*
X111961562Y-146527924D01*
X111913943Y-146575543D01*
X129323863Y-145772143D02*
X129276244Y-145819762D01*
X129133387Y-145867381D01*
X129038149Y-145867381D01*
X128895291Y-145819762D01*
X128800053Y-145724524D01*
X128752434Y-145629286D01*
X128704815Y-145438810D01*
X128704815Y-145295952D01*
X128752434Y-145105476D01*
X128800053Y-145010238D01*
X128895291Y-144915000D01*
X129038149Y-144867381D01*
X129133387Y-144867381D01*
X129276244Y-144915000D01*
X129323863Y-144962619D01*
X129657196Y-144867381D02*
X130276244Y-144867381D01*
X129942910Y-145248333D01*
X130085768Y-145248333D01*
X130181006Y-145295952D01*
X130228625Y-145343571D01*
X130276244Y-145438810D01*
X130276244Y-145676905D01*
X130228625Y-145772143D01*
X130181006Y-145819762D01*
X130085768Y-145867381D01*
X129800053Y-145867381D01*
X129704815Y-145819762D01*
X129657196Y-145772143D01*
X131133387Y-145200714D02*
X131133387Y-145867381D01*
X130895291Y-144819762D02*
X130657196Y-145534048D01*
X131276244Y-145534048D01*
X137528063Y-145690863D02*
X137480444Y-145738482D01*
X137337587Y-145786101D01*
X137242349Y-145786101D01*
X137099491Y-145738482D01*
X137004253Y-145643244D01*
X136956634Y-145548006D01*
X136909015Y-145357530D01*
X136909015Y-145214672D01*
X136956634Y-145024196D01*
X137004253Y-144928958D01*
X137099491Y-144833720D01*
X137242349Y-144786101D01*
X137337587Y-144786101D01*
X137480444Y-144833720D01*
X137528063Y-144881339D01*
X137861396Y-144786101D02*
X138480444Y-144786101D01*
X138147110Y-145167053D01*
X138289968Y-145167053D01*
X138385206Y-145214672D01*
X138432825Y-145262291D01*
X138480444Y-145357530D01*
X138480444Y-145595625D01*
X138432825Y-145690863D01*
X138385206Y-145738482D01*
X138289968Y-145786101D01*
X138004253Y-145786101D01*
X137909015Y-145738482D01*
X137861396Y-145690863D01*
X139385206Y-144786101D02*
X138909015Y-144786101D01*
X138861396Y-145262291D01*
X138909015Y-145214672D01*
X139004253Y-145167053D01*
X139242349Y-145167053D01*
X139337587Y-145214672D01*
X139385206Y-145262291D01*
X139432825Y-145357530D01*
X139432825Y-145595625D01*
X139385206Y-145690863D01*
X139337587Y-145738482D01*
X139242349Y-145786101D01*
X139004253Y-145786101D01*
X138909015Y-145738482D01*
X138861396Y-145690863D01*
X147323277Y-56145181D02*
X147323277Y-56859467D01*
X147275657Y-57002324D01*
X147180419Y-57097562D01*
X147037562Y-57145181D01*
X146942324Y-57145181D01*
X148323277Y-57145181D02*
X147751848Y-57145181D01*
X148037562Y-57145181D02*
X148037562Y-56145181D01*
X147942324Y-56288038D01*
X147847086Y-56383276D01*
X147751848Y-56430895D01*
X149228039Y-56145181D02*
X148751848Y-56145181D01*
X148704229Y-56621371D01*
X148751848Y-56573752D01*
X148847086Y-56526133D01*
X149085182Y-56526133D01*
X149180420Y-56573752D01*
X149228039Y-56621371D01*
X149275658Y-56716610D01*
X149275658Y-56954705D01*
X149228039Y-57049943D01*
X149180420Y-57097562D01*
X149085182Y-57145181D01*
X148847086Y-57145181D01*
X148751848Y-57097562D01*
X148704229Y-57049943D01*
X135288757Y-50752761D02*
X135288757Y-51467047D01*
X135241137Y-51609904D01*
X135145899Y-51705142D01*
X135003042Y-51752761D01*
X134907804Y-51752761D01*
X136288757Y-51752761D02*
X135717328Y-51752761D01*
X136003042Y-51752761D02*
X136003042Y-50752761D01*
X135907804Y-50895618D01*
X135812566Y-50990856D01*
X135717328Y-51038475D01*
X137145900Y-50752761D02*
X136955423Y-50752761D01*
X136860185Y-50800380D01*
X136812566Y-50847999D01*
X136717328Y-50990856D01*
X136669709Y-51181332D01*
X136669709Y-51562285D01*
X136717328Y-51657523D01*
X136764947Y-51705142D01*
X136860185Y-51752761D01*
X137050662Y-51752761D01*
X137145900Y-51705142D01*
X137193519Y-51657523D01*
X137241138Y-51562285D01*
X137241138Y-51324190D01*
X137193519Y-51228951D01*
X137145900Y-51181332D01*
X137050662Y-51133713D01*
X136860185Y-51133713D01*
X136764947Y-51181332D01*
X136717328Y-51228951D01*
X136669709Y-51324190D01*
X142555981Y-54568623D02*
X143270267Y-54568623D01*
X143413124Y-54616243D01*
X143508362Y-54711481D01*
X143555981Y-54854338D01*
X143555981Y-54949576D01*
X143555981Y-53568623D02*
X143555981Y-54140052D01*
X143555981Y-53854338D02*
X142555981Y-53854338D01*
X142698838Y-53949576D01*
X142794076Y-54044814D01*
X142841695Y-54140052D01*
X142984552Y-52997195D02*
X142936933Y-53092433D01*
X142889314Y-53140052D01*
X142794076Y-53187671D01*
X142746457Y-53187671D01*
X142651219Y-53140052D01*
X142603600Y-53092433D01*
X142555981Y-52997195D01*
X142555981Y-52806718D01*
X142603600Y-52711480D01*
X142651219Y-52663861D01*
X142746457Y-52616242D01*
X142794076Y-52616242D01*
X142889314Y-52663861D01*
X142936933Y-52711480D01*
X142984552Y-52806718D01*
X142984552Y-52997195D01*
X143032171Y-53092433D01*
X143079790Y-53140052D01*
X143175029Y-53187671D01*
X143365505Y-53187671D01*
X143460743Y-53140052D01*
X143508362Y-53092433D01*
X143555981Y-52997195D01*
X143555981Y-52806718D01*
X143508362Y-52711480D01*
X143460743Y-52663861D01*
X143365505Y-52616242D01*
X143175029Y-52616242D01*
X143079790Y-52663861D01*
X143032171Y-52711480D01*
X142984552Y-52806718D01*
X139927081Y-54416223D02*
X140641367Y-54416223D01*
X140784224Y-54463843D01*
X140879462Y-54559081D01*
X140927081Y-54701938D01*
X140927081Y-54797176D01*
X140927081Y-53416223D02*
X140927081Y-53987652D01*
X140927081Y-53701938D02*
X139927081Y-53701938D01*
X140069938Y-53797176D01*
X140165176Y-53892414D01*
X140212795Y-53987652D01*
X140927081Y-52940033D02*
X140927081Y-52749557D01*
X140879462Y-52654318D01*
X140831843Y-52606699D01*
X140688986Y-52511461D01*
X140498510Y-52463842D01*
X140117557Y-52463842D01*
X140022319Y-52511461D01*
X139974700Y-52559080D01*
X139927081Y-52654318D01*
X139927081Y-52844795D01*
X139974700Y-52940033D01*
X140022319Y-52987652D01*
X140117557Y-53035271D01*
X140355652Y-53035271D01*
X140450890Y-52987652D01*
X140498510Y-52940033D01*
X140546129Y-52844795D01*
X140546129Y-52654318D01*
X140498510Y-52559080D01*
X140450890Y-52511461D01*
X140355652Y-52463842D01*
X58342281Y-52498523D02*
X59056567Y-52498523D01*
X59199424Y-52546143D01*
X59294662Y-52641381D01*
X59342281Y-52784238D01*
X59342281Y-52879476D01*
X58437519Y-52069952D02*
X58389900Y-52022333D01*
X58342281Y-51927095D01*
X58342281Y-51688999D01*
X58389900Y-51593761D01*
X58437519Y-51546142D01*
X58532757Y-51498523D01*
X58627995Y-51498523D01*
X58770852Y-51546142D01*
X59342281Y-52117571D01*
X59342281Y-51498523D01*
X58342281Y-50879476D02*
X58342281Y-50784237D01*
X58389900Y-50688999D01*
X58437519Y-50641380D01*
X58532757Y-50593761D01*
X58723233Y-50546142D01*
X58961329Y-50546142D01*
X59151805Y-50593761D01*
X59247043Y-50641380D01*
X59294662Y-50688999D01*
X59342281Y-50784237D01*
X59342281Y-50879476D01*
X59294662Y-50974714D01*
X59247043Y-51022333D01*
X59151805Y-51069952D01*
X58961329Y-51117571D01*
X58723233Y-51117571D01*
X58532757Y-51069952D01*
X58437519Y-51022333D01*
X58389900Y-50974714D01*
X58342281Y-50879476D01*
X61212481Y-52523923D02*
X61926767Y-52523923D01*
X62069624Y-52571543D01*
X62164862Y-52666781D01*
X62212481Y-52809638D01*
X62212481Y-52904876D01*
X61307719Y-52095352D02*
X61260100Y-52047733D01*
X61212481Y-51952495D01*
X61212481Y-51714399D01*
X61260100Y-51619161D01*
X61307719Y-51571542D01*
X61402957Y-51523923D01*
X61498195Y-51523923D01*
X61641052Y-51571542D01*
X62212481Y-52142971D01*
X62212481Y-51523923D01*
X62212481Y-50571542D02*
X62212481Y-51142971D01*
X62212481Y-50857257D02*
X61212481Y-50857257D01*
X61355338Y-50952495D01*
X61450576Y-51047733D01*
X61498195Y-51142971D01*
X52187577Y-56195981D02*
X52187577Y-56910267D01*
X52139957Y-57053124D01*
X52044719Y-57148362D01*
X51901862Y-57195981D01*
X51806624Y-57195981D01*
X53187577Y-57195981D02*
X52616148Y-57195981D01*
X52901862Y-57195981D02*
X52901862Y-56195981D01*
X52806624Y-56338838D01*
X52711386Y-56434076D01*
X52616148Y-56481695D01*
X53568529Y-56291219D02*
X53616148Y-56243600D01*
X53711386Y-56195981D01*
X53949482Y-56195981D01*
X54044720Y-56243600D01*
X54092339Y-56291219D01*
X54139958Y-56386457D01*
X54139958Y-56481695D01*
X54092339Y-56624552D01*
X53520910Y-57195981D01*
X54139958Y-57195981D01*
X113992067Y-69149981D02*
X113992067Y-69864267D01*
X113944447Y-70007124D01*
X113849209Y-70102362D01*
X113706352Y-70149981D01*
X113611114Y-70149981D01*
X114992067Y-70149981D02*
X114420638Y-70149981D01*
X114706352Y-70149981D02*
X114706352Y-69149981D01*
X114611114Y-69292838D01*
X114515876Y-69388076D01*
X114420638Y-69435695D01*
X101622267Y-60983881D02*
X101622267Y-61698167D01*
X101574647Y-61841024D01*
X101479409Y-61936262D01*
X101336552Y-61983881D01*
X101241314Y-61983881D01*
X102050838Y-61079119D02*
X102098457Y-61031500D01*
X102193695Y-60983881D01*
X102431791Y-60983881D01*
X102527029Y-61031500D01*
X102574648Y-61079119D01*
X102622267Y-61174357D01*
X102622267Y-61269595D01*
X102574648Y-61412452D01*
X102003219Y-61983881D01*
X102622267Y-61983881D01*
X113623767Y-81786481D02*
X113623767Y-82500767D01*
X113576147Y-82643624D01*
X113480909Y-82738862D01*
X113338052Y-82786481D01*
X113242814Y-82786481D01*
X114004719Y-81786481D02*
X114623767Y-81786481D01*
X114290433Y-82167433D01*
X114433291Y-82167433D01*
X114528529Y-82215052D01*
X114576148Y-82262671D01*
X114623767Y-82357910D01*
X114623767Y-82596005D01*
X114576148Y-82691243D01*
X114528529Y-82738862D01*
X114433291Y-82786481D01*
X114147576Y-82786481D01*
X114052338Y-82738862D01*
X114004719Y-82691243D01*
X100847567Y-74318881D02*
X100847567Y-75033167D01*
X100799947Y-75176024D01*
X100704709Y-75271262D01*
X100561852Y-75318881D01*
X100466614Y-75318881D01*
X101752329Y-74652214D02*
X101752329Y-75318881D01*
X101514233Y-74271262D02*
X101276138Y-74985548D01*
X101895186Y-74985548D01*
X113750767Y-95451681D02*
X113750767Y-96165967D01*
X113703147Y-96308824D01*
X113607909Y-96404062D01*
X113465052Y-96451681D01*
X113369814Y-96451681D01*
X114703148Y-95451681D02*
X114226957Y-95451681D01*
X114179338Y-95927871D01*
X114226957Y-95880252D01*
X114322195Y-95832633D01*
X114560291Y-95832633D01*
X114655529Y-95880252D01*
X114703148Y-95927871D01*
X114750767Y-96023110D01*
X114750767Y-96261205D01*
X114703148Y-96356443D01*
X114655529Y-96404062D01*
X114560291Y-96451681D01*
X114322195Y-96451681D01*
X114226957Y-96404062D01*
X114179338Y-96356443D01*
X100568167Y-88580981D02*
X100568167Y-89295267D01*
X100520547Y-89438124D01*
X100425309Y-89533362D01*
X100282452Y-89580981D01*
X100187214Y-89580981D01*
X101472929Y-88580981D02*
X101282452Y-88580981D01*
X101187214Y-88628600D01*
X101139595Y-88676219D01*
X101044357Y-88819076D01*
X100996738Y-89009552D01*
X100996738Y-89390505D01*
X101044357Y-89485743D01*
X101091976Y-89533362D01*
X101187214Y-89580981D01*
X101377691Y-89580981D01*
X101472929Y-89533362D01*
X101520548Y-89485743D01*
X101568167Y-89390505D01*
X101568167Y-89152410D01*
X101520548Y-89057171D01*
X101472929Y-89009552D01*
X101377691Y-88961933D01*
X101187214Y-88961933D01*
X101091976Y-89009552D01*
X101044357Y-89057171D01*
X100996738Y-89152410D01*
X76374667Y-93025981D02*
X76374667Y-93740267D01*
X76327047Y-93883124D01*
X76231809Y-93978362D01*
X76088952Y-94025981D01*
X75993714Y-94025981D01*
X76755619Y-93025981D02*
X77422286Y-93025981D01*
X76993714Y-94025981D01*
X88331777Y-97331281D02*
X88331777Y-98045567D01*
X88284157Y-98188424D01*
X88188919Y-98283662D01*
X88046062Y-98331281D01*
X87950824Y-98331281D01*
X89331777Y-98331281D02*
X88760348Y-98331281D01*
X89046062Y-98331281D02*
X89046062Y-97331281D01*
X88950824Y-97474138D01*
X88855586Y-97569376D01*
X88760348Y-97616995D01*
X89950824Y-97331281D02*
X90046063Y-97331281D01*
X90141301Y-97378900D01*
X90188920Y-97426519D01*
X90236539Y-97521757D01*
X90284158Y-97712233D01*
X90284158Y-97950329D01*
X90236539Y-98140805D01*
X90188920Y-98236043D01*
X90141301Y-98283662D01*
X90046063Y-98331281D01*
X89950824Y-98331281D01*
X89855586Y-98283662D01*
X89807967Y-98236043D01*
X89760348Y-98140805D01*
X89712729Y-97950329D01*
X89712729Y-97712233D01*
X89760348Y-97521757D01*
X89807967Y-97426519D01*
X89855586Y-97378900D01*
X89950824Y-97331281D01*
X76088977Y-78801981D02*
X76088977Y-79516267D01*
X76041357Y-79659124D01*
X75946119Y-79754362D01*
X75803262Y-79801981D01*
X75708024Y-79801981D01*
X77088977Y-79801981D02*
X76517548Y-79801981D01*
X76803262Y-79801981D02*
X76803262Y-78801981D01*
X76708024Y-78944838D01*
X76612786Y-79040076D01*
X76517548Y-79087695D01*
X77422310Y-78801981D02*
X78088977Y-78801981D01*
X77660405Y-79801981D01*
X88268277Y-83539081D02*
X88268277Y-84253367D01*
X88220657Y-84396224D01*
X88125419Y-84491462D01*
X87982562Y-84539081D01*
X87887324Y-84539081D01*
X88696848Y-83634319D02*
X88744467Y-83586700D01*
X88839705Y-83539081D01*
X89077801Y-83539081D01*
X89173039Y-83586700D01*
X89220658Y-83634319D01*
X89268277Y-83729557D01*
X89268277Y-83824795D01*
X89220658Y-83967652D01*
X88649229Y-84539081D01*
X89268277Y-84539081D01*
X89649229Y-83634319D02*
X89696848Y-83586700D01*
X89792086Y-83539081D01*
X90030182Y-83539081D01*
X90125420Y-83586700D01*
X90173039Y-83634319D01*
X90220658Y-83729557D01*
X90220658Y-83824795D01*
X90173039Y-83967652D01*
X89601610Y-84539081D01*
X90220658Y-84539081D01*
X75936577Y-64450981D02*
X75936577Y-65165267D01*
X75888957Y-65308124D01*
X75793719Y-65403362D01*
X75650862Y-65450981D01*
X75555624Y-65450981D01*
X76365148Y-64546219D02*
X76412767Y-64498600D01*
X76508005Y-64450981D01*
X76746101Y-64450981D01*
X76841339Y-64498600D01*
X76888958Y-64546219D01*
X76936577Y-64641457D01*
X76936577Y-64736695D01*
X76888958Y-64879552D01*
X76317529Y-65450981D01*
X76936577Y-65450981D01*
X77269910Y-64450981D02*
X77888958Y-64450981D01*
X77555624Y-64831933D01*
X77698482Y-64831933D01*
X77793720Y-64879552D01*
X77841339Y-64927171D01*
X77888958Y-65022410D01*
X77888958Y-65260505D01*
X77841339Y-65355743D01*
X77793720Y-65403362D01*
X77698482Y-65450981D01*
X77412767Y-65450981D01*
X77317529Y-65403362D01*
X77269910Y-65355743D01*
X88534977Y-70686681D02*
X88534977Y-71400967D01*
X88487357Y-71543824D01*
X88392119Y-71639062D01*
X88249262Y-71686681D01*
X88154024Y-71686681D01*
X88963548Y-70781919D02*
X89011167Y-70734300D01*
X89106405Y-70686681D01*
X89344501Y-70686681D01*
X89439739Y-70734300D01*
X89487358Y-70781919D01*
X89534977Y-70877157D01*
X89534977Y-70972395D01*
X89487358Y-71115252D01*
X88915929Y-71686681D01*
X89534977Y-71686681D01*
X90392120Y-71020014D02*
X90392120Y-71686681D01*
X90154024Y-70639062D02*
X89915929Y-71353348D01*
X90534977Y-71353348D01*
X127505181Y-68056000D02*
X127028990Y-68389334D01*
X127505181Y-68627429D02*
X126505181Y-68627429D01*
X126505181Y-68246476D01*
X126552800Y-68151238D01*
X126600419Y-68103619D01*
X126695657Y-68056000D01*
X126838514Y-68056000D01*
X126933752Y-68103619D01*
X126981371Y-68151238D01*
X127028990Y-68246476D01*
X127028990Y-68627429D01*
X127505181Y-67151238D02*
X127505181Y-67627429D01*
X126505181Y-67627429D01*
X127028990Y-66627429D02*
X127505181Y-66627429D01*
X126505181Y-66960762D02*
X127028990Y-66627429D01*
X126505181Y-66294095D01*
X127505181Y-65436952D02*
X127505181Y-66008381D01*
X127505181Y-65722667D02*
X126505181Y-65722667D01*
X126648038Y-65817905D01*
X126743276Y-65913143D01*
X126790895Y-66008381D01*
X133314705Y-66556000D02*
X133219467Y-66508381D01*
X133076610Y-66508381D01*
X132933752Y-66556000D01*
X132838514Y-66651238D01*
X132790895Y-66746476D01*
X132743276Y-66936952D01*
X132743276Y-67079810D01*
X132790895Y-67270286D01*
X132838514Y-67365524D01*
X132933752Y-67460762D01*
X133076610Y-67508381D01*
X133171848Y-67508381D01*
X133314705Y-67460762D01*
X133362324Y-67413143D01*
X133362324Y-67079810D01*
X133171848Y-67079810D01*
X134267086Y-66508381D02*
X133790895Y-66508381D01*
X133743276Y-66984571D01*
X133790895Y-66936952D01*
X133886133Y-66889333D01*
X134124229Y-66889333D01*
X134219467Y-66936952D01*
X134267086Y-66984571D01*
X134314705Y-67079810D01*
X134314705Y-67317905D01*
X134267086Y-67413143D01*
X134219467Y-67460762D01*
X134124229Y-67508381D01*
X133886133Y-67508381D01*
X133790895Y-67460762D01*
X133743276Y-67413143D01*
X134600419Y-66508381D02*
X134933752Y-67508381D01*
X135267086Y-66508381D01*
X135600419Y-67127429D02*
X136362324Y-67127429D01*
X136790895Y-66603619D02*
X136838514Y-66556000D01*
X136933752Y-66508381D01*
X137171848Y-66508381D01*
X137267086Y-66556000D01*
X137314705Y-66603619D01*
X137362324Y-66698857D01*
X137362324Y-66794095D01*
X137314705Y-66936952D01*
X136743276Y-67508381D01*
X137362324Y-67508381D01*
X127555981Y-80578200D02*
X127079790Y-80911534D01*
X127555981Y-81149629D02*
X126555981Y-81149629D01*
X126555981Y-80768676D01*
X126603600Y-80673438D01*
X126651219Y-80625819D01*
X126746457Y-80578200D01*
X126889314Y-80578200D01*
X126984552Y-80625819D01*
X127032171Y-80673438D01*
X127079790Y-80768676D01*
X127079790Y-81149629D01*
X127555981Y-79673438D02*
X127555981Y-80149629D01*
X126555981Y-80149629D01*
X127079790Y-79149629D02*
X127555981Y-79149629D01*
X126555981Y-79482962D02*
X127079790Y-79149629D01*
X126555981Y-78816295D01*
X126651219Y-78530581D02*
X126603600Y-78482962D01*
X126555981Y-78387724D01*
X126555981Y-78149628D01*
X126603600Y-78054390D01*
X126651219Y-78006771D01*
X126746457Y-77959152D01*
X126841695Y-77959152D01*
X126984552Y-78006771D01*
X127555981Y-78578200D01*
X127555981Y-77959152D01*
X133365505Y-79078200D02*
X133270267Y-79030581D01*
X133127410Y-79030581D01*
X132984552Y-79078200D01*
X132889314Y-79173438D01*
X132841695Y-79268676D01*
X132794076Y-79459152D01*
X132794076Y-79602010D01*
X132841695Y-79792486D01*
X132889314Y-79887724D01*
X132984552Y-79982962D01*
X133127410Y-80030581D01*
X133222648Y-80030581D01*
X133365505Y-79982962D01*
X133413124Y-79935343D01*
X133413124Y-79602010D01*
X133222648Y-79602010D01*
X134317886Y-79030581D02*
X133841695Y-79030581D01*
X133794076Y-79506771D01*
X133841695Y-79459152D01*
X133936933Y-79411533D01*
X134175029Y-79411533D01*
X134270267Y-79459152D01*
X134317886Y-79506771D01*
X134365505Y-79602010D01*
X134365505Y-79840105D01*
X134317886Y-79935343D01*
X134270267Y-79982962D01*
X134175029Y-80030581D01*
X133936933Y-80030581D01*
X133841695Y-79982962D01*
X133794076Y-79935343D01*
X134651219Y-79030581D02*
X134984552Y-80030581D01*
X135317886Y-79030581D01*
X135651219Y-79649629D02*
X136413124Y-79649629D01*
X136841695Y-79125819D02*
X136889314Y-79078200D01*
X136984552Y-79030581D01*
X137222648Y-79030581D01*
X137317886Y-79078200D01*
X137365505Y-79125819D01*
X137413124Y-79221057D01*
X137413124Y-79316295D01*
X137365505Y-79459152D01*
X136794076Y-80030581D01*
X137413124Y-80030581D01*
X127454381Y-92922600D02*
X126978190Y-93255934D01*
X127454381Y-93494029D02*
X126454381Y-93494029D01*
X126454381Y-93113076D01*
X126502000Y-93017838D01*
X126549619Y-92970219D01*
X126644857Y-92922600D01*
X126787714Y-92922600D01*
X126882952Y-92970219D01*
X126930571Y-93017838D01*
X126978190Y-93113076D01*
X126978190Y-93494029D01*
X127454381Y-92017838D02*
X127454381Y-92494029D01*
X126454381Y-92494029D01*
X126978190Y-91494029D02*
X127454381Y-91494029D01*
X126454381Y-91827362D02*
X126978190Y-91494029D01*
X126454381Y-91160695D01*
X126454381Y-90922600D02*
X126454381Y-90303552D01*
X126835333Y-90636886D01*
X126835333Y-90494028D01*
X126882952Y-90398790D01*
X126930571Y-90351171D01*
X127025810Y-90303552D01*
X127263905Y-90303552D01*
X127359143Y-90351171D01*
X127406762Y-90398790D01*
X127454381Y-90494028D01*
X127454381Y-90779743D01*
X127406762Y-90874981D01*
X127359143Y-90922600D01*
X133263905Y-91422600D02*
X133168667Y-91374981D01*
X133025810Y-91374981D01*
X132882952Y-91422600D01*
X132787714Y-91517838D01*
X132740095Y-91613076D01*
X132692476Y-91803552D01*
X132692476Y-91946410D01*
X132740095Y-92136886D01*
X132787714Y-92232124D01*
X132882952Y-92327362D01*
X133025810Y-92374981D01*
X133121048Y-92374981D01*
X133263905Y-92327362D01*
X133311524Y-92279743D01*
X133311524Y-91946410D01*
X133121048Y-91946410D01*
X134216286Y-91374981D02*
X133740095Y-91374981D01*
X133692476Y-91851171D01*
X133740095Y-91803552D01*
X133835333Y-91755933D01*
X134073429Y-91755933D01*
X134168667Y-91803552D01*
X134216286Y-91851171D01*
X134263905Y-91946410D01*
X134263905Y-92184505D01*
X134216286Y-92279743D01*
X134168667Y-92327362D01*
X134073429Y-92374981D01*
X133835333Y-92374981D01*
X133740095Y-92327362D01*
X133692476Y-92279743D01*
X134549619Y-91374981D02*
X134882952Y-92374981D01*
X135216286Y-91374981D01*
X135549619Y-91994029D02*
X136311524Y-91994029D01*
X136740095Y-91470219D02*
X136787714Y-91422600D01*
X136882952Y-91374981D01*
X137121048Y-91374981D01*
X137216286Y-91422600D01*
X137263905Y-91470219D01*
X137311524Y-91565457D01*
X137311524Y-91660695D01*
X137263905Y-91803552D01*
X136692476Y-92374981D01*
X137311524Y-92374981D01*
X73488081Y-96173800D02*
X73011890Y-96507134D01*
X73488081Y-96745229D02*
X72488081Y-96745229D01*
X72488081Y-96364276D01*
X72535700Y-96269038D01*
X72583319Y-96221419D01*
X72678557Y-96173800D01*
X72821414Y-96173800D01*
X72916652Y-96221419D01*
X72964271Y-96269038D01*
X73011890Y-96364276D01*
X73011890Y-96745229D01*
X73488081Y-95269038D02*
X73488081Y-95745229D01*
X72488081Y-95745229D01*
X73011890Y-94745229D02*
X73488081Y-94745229D01*
X72488081Y-95078562D02*
X73011890Y-94745229D01*
X72488081Y-94411895D01*
X72488081Y-93649990D02*
X72488081Y-93840467D01*
X72535700Y-93935705D01*
X72583319Y-93983324D01*
X72726176Y-94078562D01*
X72916652Y-94126181D01*
X73297605Y-94126181D01*
X73392843Y-94078562D01*
X73440462Y-94030943D01*
X73488081Y-93935705D01*
X73488081Y-93745228D01*
X73440462Y-93649990D01*
X73392843Y-93602371D01*
X73297605Y-93554752D01*
X73059510Y-93554752D01*
X72964271Y-93602371D01*
X72916652Y-93649990D01*
X72869033Y-93745228D01*
X72869033Y-93935705D01*
X72916652Y-94030943D01*
X72964271Y-94078562D01*
X73059510Y-94126181D01*
X63297605Y-94673800D02*
X63202367Y-94626181D01*
X63059510Y-94626181D01*
X62916652Y-94673800D01*
X62821414Y-94769038D01*
X62773795Y-94864276D01*
X62726176Y-95054752D01*
X62726176Y-95197610D01*
X62773795Y-95388086D01*
X62821414Y-95483324D01*
X62916652Y-95578562D01*
X63059510Y-95626181D01*
X63154748Y-95626181D01*
X63297605Y-95578562D01*
X63345224Y-95530943D01*
X63345224Y-95197610D01*
X63154748Y-95197610D01*
X64249986Y-94626181D02*
X63773795Y-94626181D01*
X63726176Y-95102371D01*
X63773795Y-95054752D01*
X63869033Y-95007133D01*
X64107129Y-95007133D01*
X64202367Y-95054752D01*
X64249986Y-95102371D01*
X64297605Y-95197610D01*
X64297605Y-95435705D01*
X64249986Y-95530943D01*
X64202367Y-95578562D01*
X64107129Y-95626181D01*
X63869033Y-95626181D01*
X63773795Y-95578562D01*
X63726176Y-95530943D01*
X64583319Y-94626181D02*
X64916652Y-95626181D01*
X65249986Y-94626181D01*
X65583319Y-95245229D02*
X66345224Y-95245229D01*
X66773795Y-94721419D02*
X66821414Y-94673800D01*
X66916652Y-94626181D01*
X67154748Y-94626181D01*
X67249986Y-94673800D01*
X67297605Y-94721419D01*
X67345224Y-94816657D01*
X67345224Y-94911895D01*
X67297605Y-95054752D01*
X66726176Y-95626181D01*
X67345224Y-95626181D01*
X73373781Y-83334100D02*
X72897590Y-83667434D01*
X73373781Y-83905529D02*
X72373781Y-83905529D01*
X72373781Y-83524576D01*
X72421400Y-83429338D01*
X72469019Y-83381719D01*
X72564257Y-83334100D01*
X72707114Y-83334100D01*
X72802352Y-83381719D01*
X72849971Y-83429338D01*
X72897590Y-83524576D01*
X72897590Y-83905529D01*
X73373781Y-82429338D02*
X73373781Y-82905529D01*
X72373781Y-82905529D01*
X72897590Y-81905529D02*
X73373781Y-81905529D01*
X72373781Y-82238862D02*
X72897590Y-81905529D01*
X72373781Y-81572195D01*
X72373781Y-81334100D02*
X72373781Y-80667433D01*
X73373781Y-81096005D01*
X63183305Y-81834100D02*
X63088067Y-81786481D01*
X62945210Y-81786481D01*
X62802352Y-81834100D01*
X62707114Y-81929338D01*
X62659495Y-82024576D01*
X62611876Y-82215052D01*
X62611876Y-82357910D01*
X62659495Y-82548386D01*
X62707114Y-82643624D01*
X62802352Y-82738862D01*
X62945210Y-82786481D01*
X63040448Y-82786481D01*
X63183305Y-82738862D01*
X63230924Y-82691243D01*
X63230924Y-82357910D01*
X63040448Y-82357910D01*
X64135686Y-81786481D02*
X63659495Y-81786481D01*
X63611876Y-82262671D01*
X63659495Y-82215052D01*
X63754733Y-82167433D01*
X63992829Y-82167433D01*
X64088067Y-82215052D01*
X64135686Y-82262671D01*
X64183305Y-82357910D01*
X64183305Y-82596005D01*
X64135686Y-82691243D01*
X64088067Y-82738862D01*
X63992829Y-82786481D01*
X63754733Y-82786481D01*
X63659495Y-82738862D01*
X63611876Y-82691243D01*
X64469019Y-81786481D02*
X64802352Y-82786481D01*
X65135686Y-81786481D01*
X65469019Y-82405529D02*
X66230924Y-82405529D01*
X66659495Y-81881719D02*
X66707114Y-81834100D01*
X66802352Y-81786481D01*
X67040448Y-81786481D01*
X67135686Y-81834100D01*
X67183305Y-81881719D01*
X67230924Y-81976957D01*
X67230924Y-82072195D01*
X67183305Y-82215052D01*
X66611876Y-82786481D01*
X67230924Y-82786481D01*
X66101981Y-61540923D02*
X66816267Y-61540923D01*
X66959124Y-61588543D01*
X67054362Y-61683781D01*
X67101981Y-61826638D01*
X67101981Y-61921876D01*
X66197219Y-61112352D02*
X66149600Y-61064733D01*
X66101981Y-60969495D01*
X66101981Y-60731399D01*
X66149600Y-60636161D01*
X66197219Y-60588542D01*
X66292457Y-60540923D01*
X66387695Y-60540923D01*
X66530552Y-60588542D01*
X67101981Y-61159971D01*
X67101981Y-60540923D01*
X66101981Y-59636161D02*
X66101981Y-60112352D01*
X66578171Y-60159971D01*
X66530552Y-60112352D01*
X66482933Y-60017114D01*
X66482933Y-59779018D01*
X66530552Y-59683780D01*
X66578171Y-59636161D01*
X66673410Y-59588542D01*
X66911505Y-59588542D01*
X67006743Y-59636161D01*
X67054362Y-59683780D01*
X67101981Y-59779018D01*
X67101981Y-60017114D01*
X67054362Y-60112352D01*
X67006743Y-60159971D01*
X66025781Y-55635423D02*
X66740067Y-55635423D01*
X66882924Y-55683043D01*
X66978162Y-55778281D01*
X67025781Y-55921138D01*
X67025781Y-56016376D01*
X66121019Y-55206852D02*
X66073400Y-55159233D01*
X66025781Y-55063995D01*
X66025781Y-54825899D01*
X66073400Y-54730661D01*
X66121019Y-54683042D01*
X66216257Y-54635423D01*
X66311495Y-54635423D01*
X66454352Y-54683042D01*
X67025781Y-55254471D01*
X67025781Y-54635423D01*
X66025781Y-53778280D02*
X66025781Y-53968757D01*
X66073400Y-54063995D01*
X66121019Y-54111614D01*
X66263876Y-54206852D01*
X66454352Y-54254471D01*
X66835305Y-54254471D01*
X66930543Y-54206852D01*
X66978162Y-54159233D01*
X67025781Y-54063995D01*
X67025781Y-53873518D01*
X66978162Y-53778280D01*
X66930543Y-53730661D01*
X66835305Y-53683042D01*
X66597210Y-53683042D01*
X66501971Y-53730661D01*
X66454352Y-53778280D01*
X66406733Y-53873518D01*
X66406733Y-54063995D01*
X66454352Y-54159233D01*
X66501971Y-54206852D01*
X66597210Y-54254471D01*
X73163181Y-61477423D02*
X73877467Y-61477423D01*
X74020324Y-61525043D01*
X74115562Y-61620281D01*
X74163181Y-61763138D01*
X74163181Y-61858376D01*
X73258419Y-61048852D02*
X73210800Y-61001233D01*
X73163181Y-60905995D01*
X73163181Y-60667899D01*
X73210800Y-60572661D01*
X73258419Y-60525042D01*
X73353657Y-60477423D01*
X73448895Y-60477423D01*
X73591752Y-60525042D01*
X74163181Y-61096471D01*
X74163181Y-60477423D01*
X73163181Y-60144090D02*
X73163181Y-59477423D01*
X74163181Y-59905995D01*
X61804254Y-128163581D02*
X61470920Y-127687390D01*
X61232825Y-128163581D02*
X61232825Y-127163581D01*
X61613778Y-127163581D01*
X61709016Y-127211200D01*
X61756635Y-127258819D01*
X61804254Y-127354057D01*
X61804254Y-127496914D01*
X61756635Y-127592152D01*
X61709016Y-127639771D01*
X61613778Y-127687390D01*
X61232825Y-127687390D01*
X62756635Y-128163581D02*
X62185206Y-128163581D01*
X62470920Y-128163581D02*
X62470920Y-127163581D01*
X62375682Y-127306438D01*
X62280444Y-127401676D01*
X62185206Y-127449295D01*
X61743094Y-131032120D02*
X61409760Y-130555929D01*
X61171665Y-131032120D02*
X61171665Y-130032120D01*
X61552618Y-130032120D01*
X61647856Y-130079739D01*
X61695475Y-130127358D01*
X61743094Y-130222596D01*
X61743094Y-130365453D01*
X61695475Y-130460691D01*
X61647856Y-130508310D01*
X61552618Y-130555929D01*
X61171665Y-130555929D01*
X62124046Y-130127358D02*
X62171665Y-130079739D01*
X62266903Y-130032120D01*
X62504999Y-130032120D01*
X62600237Y-130079739D01*
X62647856Y-130127358D01*
X62695475Y-130222596D01*
X62695475Y-130317834D01*
X62647856Y-130460691D01*
X62076427Y-131032120D01*
X62695475Y-131032120D01*
X73137781Y-55584623D02*
X73852067Y-55584623D01*
X73994924Y-55632243D01*
X74090162Y-55727481D01*
X74137781Y-55870338D01*
X74137781Y-55965576D01*
X73233019Y-55156052D02*
X73185400Y-55108433D01*
X73137781Y-55013195D01*
X73137781Y-54775099D01*
X73185400Y-54679861D01*
X73233019Y-54632242D01*
X73328257Y-54584623D01*
X73423495Y-54584623D01*
X73566352Y-54632242D01*
X74137781Y-55203671D01*
X74137781Y-54584623D01*
X73566352Y-54013195D02*
X73518733Y-54108433D01*
X73471114Y-54156052D01*
X73375876Y-54203671D01*
X73328257Y-54203671D01*
X73233019Y-54156052D01*
X73185400Y-54108433D01*
X73137781Y-54013195D01*
X73137781Y-53822718D01*
X73185400Y-53727480D01*
X73233019Y-53679861D01*
X73328257Y-53632242D01*
X73375876Y-53632242D01*
X73471114Y-53679861D01*
X73518733Y-53727480D01*
X73566352Y-53822718D01*
X73566352Y-54013195D01*
X73613971Y-54108433D01*
X73661590Y-54156052D01*
X73756829Y-54203671D01*
X73947305Y-54203671D01*
X74042543Y-54156052D01*
X74090162Y-54108433D01*
X74137781Y-54013195D01*
X74137781Y-53822718D01*
X74090162Y-53727480D01*
X74042543Y-53679861D01*
X73947305Y-53632242D01*
X73756829Y-53632242D01*
X73661590Y-53679861D01*
X73613971Y-53727480D01*
X73566352Y-53822718D01*
D12*
X118467547Y-51702721D02*
X118467547Y-52417007D01*
X118419927Y-52559864D01*
X118324689Y-52655102D01*
X118181832Y-52702721D01*
X118086594Y-52702721D01*
X119086594Y-52131292D02*
X118991356Y-52083673D01*
X118943737Y-52036054D01*
X118896118Y-51940816D01*
X118896118Y-51893197D01*
X118943737Y-51797959D01*
X118991356Y-51750340D01*
X119086594Y-51702721D01*
X119277071Y-51702721D01*
X119372309Y-51750340D01*
X119419928Y-51797959D01*
X119467547Y-51893197D01*
X119467547Y-51940816D01*
X119419928Y-52036054D01*
X119372309Y-52083673D01*
X119277071Y-52131292D01*
X119086594Y-52131292D01*
X118991356Y-52178911D01*
X118943737Y-52226530D01*
X118896118Y-52321769D01*
X118896118Y-52512245D01*
X118943737Y-52607483D01*
X118991356Y-52655102D01*
X119086594Y-52702721D01*
X119277071Y-52702721D01*
X119372309Y-52655102D01*
X119419928Y-52607483D01*
X119467547Y-52512245D01*
X119467547Y-52321769D01*
X119419928Y-52226530D01*
X119372309Y-52178911D01*
X119277071Y-52131292D01*
X115057444Y-51322243D02*
X115009825Y-51369862D01*
X114866968Y-51417481D01*
X114771730Y-51417481D01*
X114628872Y-51369862D01*
X114533634Y-51274624D01*
X114486015Y-51179386D01*
X114438396Y-50988910D01*
X114438396Y-50846052D01*
X114486015Y-50655576D01*
X114533634Y-50560338D01*
X114628872Y-50465100D01*
X114771730Y-50417481D01*
X114866968Y-50417481D01*
X115009825Y-50465100D01*
X115057444Y-50512719D01*
X115628872Y-51417481D02*
X115533634Y-51369862D01*
X115486015Y-51322243D01*
X115438396Y-51227005D01*
X115438396Y-50941290D01*
X115486015Y-50846052D01*
X115533634Y-50798433D01*
X115628872Y-50750814D01*
X115771730Y-50750814D01*
X115866968Y-50798433D01*
X115914587Y-50846052D01*
X115962206Y-50941290D01*
X115962206Y-51227005D01*
X115914587Y-51322243D01*
X115866968Y-51369862D01*
X115771730Y-51417481D01*
X115628872Y-51417481D01*
X116390777Y-50750814D02*
X116390777Y-51417481D01*
X116390777Y-50846052D02*
X116438396Y-50798433D01*
X116533634Y-50750814D01*
X116676492Y-50750814D01*
X116771730Y-50798433D01*
X116819349Y-50893671D01*
X116819349Y-51417481D01*
X117295539Y-50750814D02*
X117295539Y-51417481D01*
X117295539Y-50846052D02*
X117343158Y-50798433D01*
X117438396Y-50750814D01*
X117581254Y-50750814D01*
X117676492Y-50798433D01*
X117724111Y-50893671D01*
X117724111Y-51417481D01*
X117962206Y-51512719D02*
X118724111Y-51512719D01*
X119533635Y-51322243D02*
X119486016Y-51369862D01*
X119343159Y-51417481D01*
X119247921Y-51417481D01*
X119105063Y-51369862D01*
X119009825Y-51274624D01*
X118962206Y-51179386D01*
X118914587Y-50988910D01*
X118914587Y-50846052D01*
X118962206Y-50655576D01*
X119009825Y-50560338D01*
X119105063Y-50465100D01*
X119247921Y-50417481D01*
X119343159Y-50417481D01*
X119486016Y-50465100D01*
X119533635Y-50512719D01*
X120105063Y-51417481D02*
X120009825Y-51369862D01*
X119962206Y-51322243D01*
X119914587Y-51227005D01*
X119914587Y-50941290D01*
X119962206Y-50846052D01*
X120009825Y-50798433D01*
X120105063Y-50750814D01*
X120247921Y-50750814D01*
X120343159Y-50798433D01*
X120390778Y-50846052D01*
X120438397Y-50941290D01*
X120438397Y-51227005D01*
X120390778Y-51322243D01*
X120343159Y-51369862D01*
X120247921Y-51417481D01*
X120105063Y-51417481D01*
X121295540Y-51417481D02*
X121295540Y-50893671D01*
X121247921Y-50798433D01*
X121152683Y-50750814D01*
X120962206Y-50750814D01*
X120866968Y-50798433D01*
X121295540Y-51369862D02*
X121200302Y-51417481D01*
X120962206Y-51417481D01*
X120866968Y-51369862D01*
X120819349Y-51274624D01*
X120819349Y-51179386D01*
X120866968Y-51084148D01*
X120962206Y-51036529D01*
X121200302Y-51036529D01*
X121295540Y-50988910D01*
X121676492Y-51417481D02*
X122200302Y-50750814D01*
X121676492Y-50750814D02*
X122200302Y-51417481D01*
X122581254Y-51417481D02*
X122581254Y-50750814D01*
X122581254Y-50417481D02*
X122533635Y-50465100D01*
X122581254Y-50512719D01*
X122628873Y-50465100D01*
X122581254Y-50417481D01*
X122581254Y-50512719D01*
X123486016Y-51417481D02*
X123486016Y-50893671D01*
X123438397Y-50798433D01*
X123343159Y-50750814D01*
X123152682Y-50750814D01*
X123057444Y-50798433D01*
X123486016Y-51369862D02*
X123390778Y-51417481D01*
X123152682Y-51417481D01*
X123057444Y-51369862D01*
X123009825Y-51274624D01*
X123009825Y-51179386D01*
X123057444Y-51084148D01*
X123152682Y-51036529D01*
X123390778Y-51036529D01*
X123486016Y-50988910D01*
X124105063Y-51417481D02*
X124009825Y-51369862D01*
X123962206Y-51274624D01*
X123962206Y-50417481D01*
X99412467Y-51870361D02*
X99412467Y-52584647D01*
X99364847Y-52727504D01*
X99269609Y-52822742D01*
X99126752Y-52870361D01*
X99031514Y-52870361D01*
X99936276Y-52870361D02*
X100126752Y-52870361D01*
X100221991Y-52822742D01*
X100269610Y-52775123D01*
X100364848Y-52632266D01*
X100412467Y-52441790D01*
X100412467Y-52060837D01*
X100364848Y-51965599D01*
X100317229Y-51917980D01*
X100221991Y-51870361D01*
X100031514Y-51870361D01*
X99936276Y-51917980D01*
X99888657Y-51965599D01*
X99841038Y-52060837D01*
X99841038Y-52298932D01*
X99888657Y-52394170D01*
X99936276Y-52441790D01*
X100031514Y-52489409D01*
X100221991Y-52489409D01*
X100317229Y-52441790D01*
X100364848Y-52394170D01*
X100412467Y-52298932D01*
X95890604Y-51210483D02*
X95842985Y-51258102D01*
X95700128Y-51305721D01*
X95604890Y-51305721D01*
X95462032Y-51258102D01*
X95366794Y-51162864D01*
X95319175Y-51067626D01*
X95271556Y-50877150D01*
X95271556Y-50734292D01*
X95319175Y-50543816D01*
X95366794Y-50448578D01*
X95462032Y-50353340D01*
X95604890Y-50305721D01*
X95700128Y-50305721D01*
X95842985Y-50353340D01*
X95890604Y-50400959D01*
X96462032Y-51305721D02*
X96366794Y-51258102D01*
X96319175Y-51210483D01*
X96271556Y-51115245D01*
X96271556Y-50829530D01*
X96319175Y-50734292D01*
X96366794Y-50686673D01*
X96462032Y-50639054D01*
X96604890Y-50639054D01*
X96700128Y-50686673D01*
X96747747Y-50734292D01*
X96795366Y-50829530D01*
X96795366Y-51115245D01*
X96747747Y-51210483D01*
X96700128Y-51258102D01*
X96604890Y-51305721D01*
X96462032Y-51305721D01*
X97223937Y-50639054D02*
X97223937Y-51305721D01*
X97223937Y-50734292D02*
X97271556Y-50686673D01*
X97366794Y-50639054D01*
X97509652Y-50639054D01*
X97604890Y-50686673D01*
X97652509Y-50781911D01*
X97652509Y-51305721D01*
X98128699Y-50639054D02*
X98128699Y-51305721D01*
X98128699Y-50734292D02*
X98176318Y-50686673D01*
X98271556Y-50639054D01*
X98414414Y-50639054D01*
X98509652Y-50686673D01*
X98557271Y-50781911D01*
X98557271Y-51305721D01*
X98795366Y-51400959D02*
X99557271Y-51400959D01*
X100366795Y-51210483D02*
X100319176Y-51258102D01*
X100176319Y-51305721D01*
X100081081Y-51305721D01*
X99938223Y-51258102D01*
X99842985Y-51162864D01*
X99795366Y-51067626D01*
X99747747Y-50877150D01*
X99747747Y-50734292D01*
X99795366Y-50543816D01*
X99842985Y-50448578D01*
X99938223Y-50353340D01*
X100081081Y-50305721D01*
X100176319Y-50305721D01*
X100319176Y-50353340D01*
X100366795Y-50400959D01*
X100938223Y-51305721D02*
X100842985Y-51258102D01*
X100795366Y-51210483D01*
X100747747Y-51115245D01*
X100747747Y-50829530D01*
X100795366Y-50734292D01*
X100842985Y-50686673D01*
X100938223Y-50639054D01*
X101081081Y-50639054D01*
X101176319Y-50686673D01*
X101223938Y-50734292D01*
X101271557Y-50829530D01*
X101271557Y-51115245D01*
X101223938Y-51210483D01*
X101176319Y-51258102D01*
X101081081Y-51305721D01*
X100938223Y-51305721D01*
X102128700Y-51305721D02*
X102128700Y-50781911D01*
X102081081Y-50686673D01*
X101985843Y-50639054D01*
X101795366Y-50639054D01*
X101700128Y-50686673D01*
X102128700Y-51258102D02*
X102033462Y-51305721D01*
X101795366Y-51305721D01*
X101700128Y-51258102D01*
X101652509Y-51162864D01*
X101652509Y-51067626D01*
X101700128Y-50972388D01*
X101795366Y-50924769D01*
X102033462Y-50924769D01*
X102128700Y-50877150D01*
X102509652Y-51305721D02*
X103033462Y-50639054D01*
X102509652Y-50639054D02*
X103033462Y-51305721D01*
X103414414Y-51305721D02*
X103414414Y-50639054D01*
X103414414Y-50305721D02*
X103366795Y-50353340D01*
X103414414Y-50400959D01*
X103462033Y-50353340D01*
X103414414Y-50305721D01*
X103414414Y-50400959D01*
X104319176Y-51305721D02*
X104319176Y-50781911D01*
X104271557Y-50686673D01*
X104176319Y-50639054D01*
X103985842Y-50639054D01*
X103890604Y-50686673D01*
X104319176Y-51258102D02*
X104223938Y-51305721D01*
X103985842Y-51305721D01*
X103890604Y-51258102D01*
X103842985Y-51162864D01*
X103842985Y-51067626D01*
X103890604Y-50972388D01*
X103985842Y-50924769D01*
X104223938Y-50924769D01*
X104319176Y-50877150D01*
X104938223Y-51305721D02*
X104842985Y-51258102D01*
X104795366Y-51162864D01*
X104795366Y-50305721D01*
M02*
