M48
;DRILL file {KiCad 4.0.7} date 03/12/19 17:19:54
;FORMAT={-:-/ absolute / metric / decimal}
FMAT,2
METRIC,TZ
T1C0.400
T2C0.800
T3C0.900
T4C1.000
T5C1.100
T6C1.200
T7C1.270
T8C1.500
T9C1.520
T10C1.524
T11C3.048
%
G90
G05
M71
T1
X56.858Y-91.58
X57.556Y-103.962
X58.331Y-116.395
X58.395Y-136.004
X120.396Y-135.382
X122.428Y-134.62
X126.492Y-133.858
X130.048Y-133.096
X132.842Y-132.334
X136.144Y-131.572
X139.649Y-112.484
X142.24Y-130.81
T2
X51.321Y-67.894
X51.321Y-70.394
X51.384Y-94.259
X51.384Y-96.759
X51.511Y-106.223
X51.511Y-108.723
X51.537Y-81.509
X51.537Y-84.009
X54.157Y-123.027
X56.657Y-123.027
X58.059Y-127.825
X58.087Y-130.647
X59.665Y-145.633
X59.665Y-148.133
X59.69Y-139.994
X59.69Y-142.494
X65.679Y-127.825
X65.707Y-130.647
X69.926Y-127.726
X69.926Y-130.226
X73.025Y-127.762
X73.025Y-130.302
X73.025Y-132.842
X73.025Y-135.382
X73.025Y-137.922
X73.025Y-140.462
X73.025Y-143.002
X73.025Y-145.542
X73.025Y-148.082
X80.645Y-127.762
X80.645Y-130.302
X80.645Y-132.842
X80.645Y-135.382
X80.645Y-137.922
X80.645Y-140.462
X80.645Y-143.002
X80.645Y-145.542
X80.645Y-148.082
X83.566Y-135.382
X83.606Y-127.152
X83.693Y-137.922
X83.693Y-140.525
X83.693Y-148.272
X83.757Y-143.129
X83.757Y-145.796
X83.82Y-130.175
X83.82Y-132.842
X86.066Y-135.382
X86.106Y-127.152
X86.193Y-137.922
X86.193Y-140.525
X86.193Y-148.272
X86.257Y-143.129
X86.257Y-145.796
X86.32Y-130.175
X86.32Y-132.842
X90.297Y-130.302
X90.297Y-132.842
X90.297Y-135.255
X90.297Y-137.668
X90.424Y-140.081
X90.424Y-142.621
X90.424Y-145.034
X90.551Y-147.701
X97.917Y-130.302
X97.917Y-132.842
X97.917Y-135.255
X97.917Y-137.668
X98.044Y-140.081
X98.044Y-142.621
X98.044Y-145.034
X98.171Y-147.701
X101.473Y-127.889
X101.473Y-130.429
X101.473Y-132.969
X101.473Y-135.509
X101.473Y-138.049
X101.473Y-140.589
X101.473Y-143.129
X101.473Y-145.669
X101.473Y-148.209
X109.093Y-127.889
X109.093Y-130.429
X109.093Y-132.969
X109.093Y-135.509
X109.093Y-138.049
X109.093Y-140.589
X109.093Y-143.129
X109.093Y-145.669
X109.093Y-148.209
X113.792Y-145.938
X113.792Y-148.438
X116.078Y-123.952
X116.078Y-126.452
X116.141Y-129.35
X116.141Y-136.969
X120.777Y-129.54
X120.777Y-137.16
X120.904Y-123.952
X120.904Y-126.452
X125.222Y-123.952
X125.222Y-126.452
X125.222Y-129.286
X125.222Y-136.906
X129.794Y-129.286
X129.794Y-136.906
X130.048Y-123.952
X130.048Y-126.452
X134.366Y-123.952
X134.366Y-126.452
X134.366Y-129.286
X134.366Y-136.906
X138.684Y-123.952
X138.684Y-126.452
X138.684Y-129.286
X138.684Y-136.906
X143.51Y-123.952
X143.51Y-126.452
X143.51Y-129.286
X143.51Y-136.906
X147.447Y-129.286
X147.447Y-136.906
X147.828Y-123.19
X147.828Y-125.69
X148.59Y-65.902
X148.59Y-68.402
X148.692Y-90.591
X148.692Y-93.091
X148.73Y-104.18
X148.73Y-106.68
X148.755Y-78.247
X148.755Y-80.747
T3
X97.653Y-57.01
X100.193Y-57.01
X116.078Y-139.319
X116.078Y-141.859
X116.855Y-57.01
X119.395Y-57.01
X120.65Y-139.319
X120.65Y-141.859
X125.222Y-139.319
X125.222Y-141.859
X129.794Y-139.319
X129.794Y-141.859
X134.239Y-139.319
X134.239Y-141.859
X138.811Y-139.319
X138.811Y-141.859
X143.383Y-139.319
X143.383Y-141.859
X147.828Y-139.319
X147.828Y-141.859
T4
X51.664Y-129.875
X51.664Y-132.415
X51.664Y-134.955
X51.664Y-137.495
X51.664Y-140.035
X53.34Y-118.237
X54.204Y-129.875
X54.204Y-132.415
X54.204Y-134.955
X54.204Y-137.495
X54.204Y-140.035
X57.493Y-52.197
X60.363Y-52.222
X62.611Y-135.103
X62.611Y-137.643
X62.611Y-140.183
X62.674Y-118.173
X64.069Y-147.579
X65.964Y-135.103
X65.964Y-137.643
X65.964Y-140.183
X66.609Y-147.579
X69.149Y-147.579
X69.342Y-135.179
X69.342Y-137.719
X69.342Y-140.259
X71.819Y-118.173
X81.471Y-118.3
X90.805Y-118.3
X98.108Y-118.491
X105.029Y-118.681
X111.569Y-118.745
X121.983Y-118.364
X131.826Y-118.491
X133.543Y-51.244
X140.068Y-51.397
X140.97Y-118.491
X142.951Y-51.46
T5
X54.414Y-65.542
X54.414Y-73.142
X54.541Y-78.534
X54.541Y-86.134
X54.541Y-103.566
X54.541Y-111.166
X54.656Y-91.374
X54.656Y-98.974
X62.034Y-65.542
X62.034Y-73.142
X62.161Y-78.534
X62.161Y-86.134
X62.161Y-103.566
X62.161Y-111.166
X62.276Y-91.374
X62.276Y-98.974
X67.114Y-65.542
X67.114Y-73.142
X67.241Y-78.534
X67.241Y-86.134
X67.241Y-103.566
X67.241Y-111.166
X67.356Y-91.374
X67.356Y-98.974
X72.194Y-65.542
X72.194Y-73.142
X72.321Y-78.534
X72.321Y-86.134
X72.321Y-103.566
X72.321Y-111.166
X72.436Y-91.374
X72.436Y-98.974
X127.602Y-88.123
X127.602Y-95.723
X127.653Y-63.256
X127.653Y-70.856
X127.704Y-75.778
X127.704Y-83.378
X127.818Y-100.924
X127.818Y-108.524
X132.682Y-88.123
X132.682Y-95.723
X132.733Y-63.256
X132.733Y-70.856
X132.784Y-75.778
X132.784Y-83.378
X132.898Y-100.924
X132.898Y-108.524
X137.762Y-88.123
X137.762Y-95.723
X137.813Y-63.256
X137.813Y-70.856
X137.864Y-75.778
X137.864Y-83.378
X137.978Y-100.924
X137.978Y-108.524
X145.382Y-88.123
X145.382Y-95.723
X145.433Y-63.256
X145.433Y-70.856
X145.484Y-75.778
X145.484Y-83.378
X145.598Y-100.924
X145.598Y-108.524
T6
X127.467Y-145.41
X127.508Y-148.006
X132.467Y-145.41
X132.508Y-148.006
X135.655Y-145.349
X135.665Y-147.98
X140.655Y-145.349
X140.665Y-147.98
T7
X80.899Y-71.247
X80.899Y-99.949
X81.026Y-85.725
X93.218Y-90.678
X93.345Y-77.597
X93.345Y-104.394
X105.537Y-81.026
X105.664Y-67.945
X105.791Y-95.631
X118.618Y-88.773
X118.618Y-102.362
X118.745Y-76.073
T8
X69.875Y-55.029
X69.875Y-61.125
X76.733Y-54.775
X76.987Y-61.125
X116.586Y-145.542
X116.586Y-148.463
X124.206Y-145.542
X124.206Y-148.463
T9
X97.399Y-54.282
X102.479Y-54.282
X116.601Y-54.282
X121.681Y-54.282
T10
X77.724Y-68.072
X77.724Y-74.422
X77.724Y-96.774
X77.724Y-103.124
X77.851Y-82.55
X77.851Y-88.9
X84.074Y-68.072
X84.074Y-74.422
X84.074Y-96.774
X84.074Y-103.124
X84.201Y-82.55
X84.201Y-88.9
X90.043Y-87.503
X90.043Y-93.853
X90.17Y-74.422
X90.17Y-80.772
X90.17Y-101.219
X90.17Y-107.569
X96.393Y-87.503
X96.393Y-93.853
X96.52Y-74.422
X96.52Y-80.772
X96.52Y-101.219
X96.52Y-107.569
X102.362Y-77.851
X102.362Y-84.201
X102.489Y-64.77
X102.489Y-71.12
X102.616Y-92.456
X102.616Y-98.806
X108.712Y-77.851
X108.712Y-84.201
X108.839Y-64.77
X108.839Y-71.12
X108.966Y-92.456
X108.966Y-98.806
X115.443Y-85.598
X115.443Y-91.948
X115.443Y-99.187
X115.443Y-105.537
X115.57Y-72.898
X115.57Y-79.248
X121.793Y-85.598
X121.793Y-91.948
X121.793Y-99.187
X121.793Y-105.537
X121.92Y-72.898
X121.92Y-79.248
T11
X53.Y-53.
X53.Y-147.
X147.Y-53.
X147.002Y-147.002
T0
M30
