M48
;DRILL file {KiCad 4.0.7} date 03/20/19 00:34:35
;FORMAT={-:-/ absolute / metric / decimal}
FMAT,2
METRIC,TZ
T1C0.400
T2C0.800
T3C0.900
T4C1.000
T5C1.100
T6C1.200
T7C1.270
T8C1.500
T9C1.520
T10C1.524
T11C3.048
%
G90
G05
M71
T1
X56.159Y-91.402
X56.82Y-103.365
X58.331Y-116.395
X58.395Y-136.004
X118.974Y-116.116
X120.396Y-135.382
X122.428Y-134.62
X126.492Y-133.858
X130.048Y-133.096
X132.842Y-132.334
X136.144Y-131.572
X142.24Y-130.81
T2
X51.435Y-101.359
X51.435Y-114.084
X51.537Y-75.908
X51.537Y-88.76
X53.935Y-101.359
X53.935Y-114.084
X54.037Y-75.908
X54.037Y-88.76
X54.157Y-123.027
X56.657Y-123.027
X58.059Y-127.825
X58.087Y-130.647
X59.665Y-145.633
X59.665Y-148.133
X59.69Y-139.994
X59.69Y-142.494
X65.679Y-127.825
X65.707Y-130.647
X69.926Y-127.726
X69.926Y-130.226
X73.025Y-127.762
X73.025Y-130.302
X73.025Y-132.842
X73.025Y-135.382
X73.025Y-137.922
X73.025Y-140.462
X73.025Y-143.002
X73.025Y-145.542
X73.025Y-148.082
X80.645Y-127.762
X80.645Y-130.302
X80.645Y-132.842
X80.645Y-135.382
X80.645Y-137.922
X80.645Y-140.462
X80.645Y-143.002
X80.645Y-145.542
X80.645Y-148.082
X83.566Y-135.382
X83.606Y-127.152
X83.693Y-137.922
X83.693Y-140.525
X83.693Y-148.272
X83.757Y-143.129
X83.757Y-145.796
X83.82Y-130.175
X83.82Y-132.842
X86.066Y-135.382
X86.106Y-127.152
X86.193Y-137.922
X86.193Y-140.525
X86.193Y-148.272
X86.257Y-143.129
X86.257Y-145.796
X86.32Y-130.175
X86.32Y-132.842
X90.297Y-130.302
X90.297Y-132.842
X90.297Y-135.255
X90.297Y-137.668
X90.424Y-140.081
X90.424Y-142.621
X90.424Y-145.034
X90.551Y-147.701
X97.917Y-130.302
X97.917Y-132.842
X97.917Y-135.255
X97.917Y-137.668
X98.044Y-140.081
X98.044Y-142.621
X98.044Y-145.034
X98.171Y-147.701
X101.473Y-127.889
X101.473Y-130.429
X101.473Y-132.969
X101.473Y-135.509
X101.473Y-138.049
X101.473Y-140.589
X101.473Y-143.129
X101.473Y-145.669
X101.473Y-148.209
X109.093Y-127.889
X109.093Y-130.429
X109.093Y-132.969
X109.093Y-135.509
X109.093Y-138.049
X109.093Y-140.589
X109.093Y-143.129
X109.093Y-145.669
X109.093Y-148.209
X113.792Y-145.938
X113.792Y-148.438
X116.078Y-123.952
X116.078Y-126.452
X116.141Y-129.35
X116.141Y-136.969
X120.777Y-129.54
X120.777Y-137.16
X120.904Y-123.952
X120.904Y-126.452
X125.222Y-123.952
X125.222Y-126.452
X125.222Y-129.286
X125.222Y-136.906
X129.794Y-129.286
X129.794Y-136.906
X130.048Y-123.952
X130.048Y-126.452
X134.366Y-123.952
X134.366Y-126.452
X134.366Y-129.286
X134.366Y-136.906
X138.684Y-123.952
X138.684Y-126.452
X138.684Y-129.286
X138.684Y-136.906
X143.51Y-123.952
X143.51Y-126.452
X143.51Y-129.286
X143.51Y-136.906
X145.938Y-98.222
X145.963Y-111.252
X146.004Y-85.72
X146.052Y-73.203
X147.447Y-129.286
X147.447Y-136.906
X147.828Y-123.19
X147.828Y-125.69
X148.438Y-98.222
X148.463Y-111.252
X148.504Y-85.72
X148.552Y-73.203
T3
X97.653Y-57.01
X100.193Y-57.01
X116.078Y-139.319
X116.078Y-141.859
X116.855Y-57.01
X119.395Y-57.01
X120.65Y-139.319
X120.65Y-141.859
X125.222Y-139.319
X125.222Y-141.859
X129.794Y-139.319
X129.794Y-141.859
X134.239Y-139.319
X134.239Y-141.859
X138.811Y-139.319
X138.811Y-141.859
X143.383Y-139.319
X143.383Y-141.859
X147.828Y-139.319
X147.828Y-141.859
T4
X51.664Y-129.875
X51.664Y-132.415
X51.664Y-134.955
X51.664Y-137.495
X51.664Y-140.035
X53.34Y-118.237
X54.204Y-129.875
X54.204Y-132.415
X54.204Y-134.955
X54.204Y-137.495
X54.204Y-140.035
X57.493Y-52.197
X60.363Y-52.222
X62.611Y-135.103
X62.611Y-137.643
X62.611Y-140.183
X62.674Y-118.173
X64.069Y-147.579
X65.964Y-135.103
X65.964Y-137.643
X65.964Y-140.183
X66.609Y-147.579
X69.149Y-147.579
X69.342Y-135.179
X69.342Y-137.719
X69.342Y-140.259
X71.819Y-118.173
X81.471Y-118.3
X90.805Y-118.3
X98.108Y-118.491
X105.029Y-118.681
X111.569Y-118.745
X121.983Y-118.364
X131.826Y-118.491
X133.543Y-51.244
X140.068Y-51.397
X140.97Y-118.491
X142.951Y-51.46
T5
X51.697Y-103.744
X51.697Y-111.344
X51.785Y-91.323
X51.785Y-98.923
X51.849Y-78.61
X51.849Y-86.21
X51.9Y-65.402
X51.9Y-73.002
X59.317Y-103.744
X59.317Y-111.344
X59.405Y-91.323
X59.405Y-98.923
X59.469Y-78.61
X59.469Y-86.21
X59.52Y-65.402
X59.52Y-73.002
X64.397Y-103.744
X64.397Y-111.344
X64.486Y-91.323
X64.486Y-98.923
X64.549Y-78.61
X64.549Y-86.21
X64.6Y-65.402
X64.6Y-73.002
X69.477Y-103.744
X69.477Y-111.344
X69.566Y-91.323
X69.566Y-98.923
X69.629Y-78.61
X69.629Y-86.21
X69.68Y-65.402
X69.68Y-73.002
X130.335Y-75.636
X130.335Y-83.236
X130.391Y-88.178
X130.391Y-95.778
X130.396Y-100.975
X130.396Y-108.575
X130.498Y-62.977
X130.498Y-70.577
X135.415Y-75.636
X135.415Y-83.236
X135.471Y-88.178
X135.471Y-95.778
X135.476Y-100.975
X135.476Y-108.575
X135.578Y-62.977
X135.578Y-70.577
X140.495Y-75.636
X140.495Y-83.236
X140.551Y-88.178
X140.551Y-95.778
X140.556Y-100.975
X140.556Y-108.575
X140.658Y-62.977
X140.658Y-70.577
X148.115Y-75.636
X148.115Y-83.236
X148.171Y-88.178
X148.171Y-95.778
X148.176Y-100.975
X148.176Y-108.575
X148.278Y-62.977
X148.278Y-70.577
T6
X127.467Y-145.41
X127.508Y-148.006
X132.467Y-145.41
X132.508Y-148.006
X135.655Y-145.349
X135.665Y-147.98
X140.655Y-145.349
X140.665Y-147.98
T7
X80.5Y-66.25
X80.5Y-82.55
X80.5Y-98.84
X93.333Y-74.4
X93.333Y-90.7
X93.333Y-107.
X106.167Y-98.85
X106.167Y-66.25
X106.167Y-82.55
X119.Y-74.4
X119.Y-90.7
X119.Y-107.
T8
X63.259Y-61.023
X65.608Y-54.927
X69.685Y-61.074
X72.53Y-54.877
X116.586Y-145.542
X116.586Y-148.463
X124.206Y-145.542
X124.206Y-148.463
T9
X97.399Y-54.282
X102.479Y-54.282
X116.601Y-54.282
X121.681Y-54.282
T10
X77.325Y-63.075
X77.325Y-69.425
X77.325Y-79.375
X77.325Y-85.725
X77.325Y-95.665
X77.325Y-102.015
X83.675Y-63.075
X83.675Y-69.425
X83.675Y-79.375
X83.675Y-85.725
X83.675Y-95.665
X83.675Y-102.015
X90.158Y-71.225
X90.158Y-77.575
X90.158Y-87.525
X90.158Y-93.875
X90.158Y-103.825
X90.158Y-110.175
X96.508Y-71.225
X96.508Y-77.575
X96.508Y-87.525
X96.508Y-93.875
X96.508Y-103.825
X96.508Y-110.175
X102.992Y-95.675
X102.992Y-102.025
X102.992Y-63.075
X102.992Y-69.425
X102.992Y-79.375
X102.992Y-85.725
X109.342Y-95.675
X109.342Y-102.025
X109.342Y-63.075
X109.342Y-69.425
X109.342Y-79.375
X109.342Y-85.725
X115.825Y-71.225
X115.825Y-77.575
X115.825Y-87.525
X115.825Y-93.875
X115.825Y-103.825
X115.825Y-110.175
X122.175Y-71.225
X122.175Y-77.575
X122.175Y-87.525
X122.175Y-93.875
X122.175Y-103.825
X122.175Y-110.175
T11
X53.Y-53.
X53.Y-147.
X147.Y-53.
X147.002Y-147.002
T0
M30
