G04 #@! TF.FileFunction,Copper,L2,Bot,Signal*
%FSLAX46Y46*%
G04 Gerber Fmt 4.6, Leading zero omitted, Abs format (unit mm)*
G04 Created by KiCad (PCBNEW 4.0.7) date 03/05/19 11:07:29*
%MOMM*%
%LPD*%
G01*
G04 APERTURE LIST*
%ADD10C,0.100000*%
%ADD11C,5.500000*%
%ADD12C,1.600000*%
%ADD13O,1.600000X1.600000*%
%ADD14R,1.700000X1.700000*%
%ADD15O,1.700000X1.700000*%
%ADD16R,2.200000X2.200000*%
%ADD17O,2.200000X2.200000*%
%ADD18C,1.000000*%
%ADD19R,1.000000X1.000000*%
%ADD20R,1.600000X1.600000*%
%ADD21R,2.000000X2.000000*%
%ADD22C,2.000000*%
%ADD23C,3.000000*%
%ADD24R,3.000000X3.000000*%
%ADD25R,1.800000X1.800000*%
%ADD26C,1.800000*%
%ADD27O,1.800000X1.800000*%
%ADD28C,1.524000*%
%ADD29C,1.500000*%
%ADD30C,0.600000*%
%ADD31C,1.000000*%
%ADD32C,0.350000*%
%ADD33C,0.500000*%
%ADD34C,0.250000*%
G04 APERTURE END LIST*
D10*
D11*
X151000000Y-31000000D03*
D12*
X87401400Y-50703480D03*
D13*
X79781400Y-50703480D03*
D12*
X100838000Y-46736000D03*
D13*
X100838000Y-54356000D03*
D12*
X120924320Y-62753240D03*
D13*
X113304320Y-62753240D03*
D12*
X101117400Y-40111680D03*
D13*
X88417400Y-40111680D03*
D14*
X140081000Y-86614000D03*
D15*
X137541000Y-86614000D03*
X140081000Y-84074000D03*
X137541000Y-84074000D03*
X140081000Y-81534000D03*
X137541000Y-81534000D03*
X140081000Y-78994000D03*
X137541000Y-78994000D03*
X140081000Y-76454000D03*
X137541000Y-76454000D03*
D16*
X138135360Y-120192800D03*
D17*
X145755360Y-120192800D03*
D12*
X78105000Y-64516000D03*
X78105000Y-67016000D03*
X58674000Y-77724000D03*
D13*
X58674000Y-85344000D03*
D18*
X74168000Y-60579000D03*
X72898000Y-59309000D03*
D19*
X75438000Y-59309000D03*
D20*
X76962000Y-106375200D03*
D13*
X92202000Y-98755200D03*
X79502000Y-106375200D03*
X89662000Y-98755200D03*
X82042000Y-106375200D03*
X87122000Y-98755200D03*
X84582000Y-106375200D03*
X84582000Y-98755200D03*
X87122000Y-106375200D03*
X82042000Y-98755200D03*
X89662000Y-106375200D03*
X79502000Y-98755200D03*
X92202000Y-106375200D03*
X76962000Y-98755200D03*
D21*
X105511600Y-68199000D03*
D22*
X105511600Y-63199000D03*
D12*
X96281240Y-64734440D03*
X96281240Y-59734440D03*
D16*
X82702400Y-59182000D03*
D17*
X82702400Y-66802000D03*
D12*
X111760000Y-96977200D03*
D13*
X111760000Y-89357200D03*
D20*
X77025500Y-94234000D03*
D13*
X92265500Y-86614000D03*
X79565500Y-94234000D03*
X89725500Y-86614000D03*
X82105500Y-94234000D03*
X87185500Y-86614000D03*
X84645500Y-94234000D03*
X84645500Y-86614000D03*
X87185500Y-94234000D03*
X82105500Y-86614000D03*
X89725500Y-94234000D03*
X79565500Y-86614000D03*
X92265500Y-94234000D03*
X77025500Y-86614000D03*
D18*
X63997840Y-89507060D03*
X65267840Y-88237060D03*
D19*
X65267840Y-90777060D03*
D12*
X99364800Y-106375200D03*
D13*
X99364800Y-98755200D03*
D12*
X108585000Y-76276200D03*
X113585000Y-76276200D03*
D16*
X89956640Y-59893200D03*
D17*
X89956640Y-67513200D03*
D16*
X93040200Y-59969400D03*
D17*
X93040200Y-67589400D03*
D20*
X83693000Y-117983000D03*
D13*
X98933000Y-110363000D03*
X86233000Y-117983000D03*
X96393000Y-110363000D03*
X88773000Y-117983000D03*
X93853000Y-110363000D03*
X91313000Y-117983000D03*
X91313000Y-110363000D03*
X93853000Y-117983000D03*
X88773000Y-110363000D03*
X96393000Y-117983000D03*
X86233000Y-110363000D03*
X98933000Y-117983000D03*
X83693000Y-110363000D03*
D12*
X84924900Y-40195500D03*
D13*
X72224900Y-40195500D03*
D20*
X60960000Y-67818000D03*
D13*
X60960000Y-75438000D03*
D20*
X74930000Y-47752000D03*
D13*
X67310000Y-47752000D03*
D20*
X92202000Y-54610000D03*
D13*
X92202000Y-46990000D03*
D20*
X58166000Y-75438000D03*
D13*
X58166000Y-67818000D03*
D20*
X107177840Y-50637440D03*
D13*
X107177840Y-58257440D03*
D11*
X57000000Y-31000000D03*
X151000000Y-125000000D03*
D14*
X132867400Y-71602600D03*
D15*
X130327400Y-71602600D03*
X127787400Y-71602600D03*
X125247400Y-71602600D03*
X122707400Y-71602600D03*
X120167400Y-71602600D03*
D14*
X63754000Y-125476000D03*
D15*
X66294000Y-125476000D03*
X68834000Y-125476000D03*
X71374000Y-125476000D03*
X73914000Y-125476000D03*
D23*
X140589000Y-41021000D03*
X140589000Y-45591000D03*
D16*
X124663200Y-84772500D03*
D17*
X124663200Y-92392500D03*
D16*
X80010000Y-122174000D03*
D17*
X87630000Y-122174000D03*
D12*
X123723400Y-77724000D03*
D13*
X131343400Y-77724000D03*
D12*
X123659900Y-80911700D03*
D13*
X131279900Y-80911700D03*
D12*
X63754000Y-75438000D03*
D13*
X63754000Y-67818000D03*
D12*
X67564000Y-53594000D03*
D13*
X59944000Y-53594000D03*
D12*
X87376000Y-125476000D03*
D13*
X79756000Y-125476000D03*
D12*
X73418700Y-110337600D03*
D13*
X81038700Y-110337600D03*
D12*
X70104000Y-78994000D03*
D13*
X70104000Y-71374000D03*
D12*
X70576440Y-108966000D03*
D13*
X70576440Y-116586000D03*
D12*
X69850000Y-50800000D03*
D13*
X77470000Y-50800000D03*
D12*
X73152000Y-69799200D03*
D13*
X73152000Y-77419200D03*
D12*
X87376000Y-53594000D03*
D13*
X79756000Y-53594000D03*
D12*
X58257440Y-57947560D03*
D13*
X58257440Y-65567560D03*
D12*
X73914000Y-63754000D03*
D13*
X66294000Y-63754000D03*
D12*
X66421000Y-66802000D03*
D13*
X74041000Y-66802000D03*
D12*
X120142000Y-60182760D03*
D13*
X120142000Y-52562760D03*
D12*
X116814600Y-52082700D03*
D13*
X116814600Y-59702700D03*
D12*
X99034600Y-126593600D03*
D13*
X91414600Y-126593600D03*
D12*
X141541500Y-116586000D03*
D13*
X133921500Y-116586000D03*
D12*
X123901200Y-116509800D03*
D13*
X131521200Y-116509800D03*
D20*
X67401440Y-115559840D03*
D12*
X64901440Y-115559840D03*
D24*
X59182000Y-114046000D03*
D23*
X59182000Y-119126000D03*
D18*
X93586300Y-123977400D03*
X92316300Y-122707400D03*
D19*
X94856300Y-122707400D03*
D25*
X123327160Y-62362080D03*
D26*
X125867160Y-62362080D03*
D12*
X77470000Y-53594000D03*
D13*
X69850000Y-53594000D03*
D12*
X70065900Y-103441500D03*
D13*
X62445900Y-103441500D03*
D12*
X98719640Y-87289640D03*
D13*
X98719640Y-94909640D03*
D12*
X113461800Y-52197000D03*
D13*
X113461800Y-59817000D03*
D12*
X72771000Y-97917000D03*
D13*
X72771000Y-90297000D03*
D14*
X131318000Y-46990000D03*
D15*
X131318000Y-49530000D03*
D14*
X129540000Y-42926000D03*
D15*
X132080000Y-42926000D03*
D20*
X65024000Y-47752000D03*
D13*
X57404000Y-47752000D03*
D12*
X70065900Y-44196000D03*
D13*
X57365900Y-44196000D03*
D12*
X59944000Y-50546000D03*
D13*
X67564000Y-50546000D03*
D12*
X95986600Y-106426000D03*
D13*
X95986600Y-98806000D03*
D12*
X111815880Y-114665760D03*
D13*
X111815880Y-122285760D03*
D12*
X108762800Y-114604800D03*
D13*
X108762800Y-122224800D03*
D12*
X101996240Y-87518240D03*
D13*
X101996240Y-95138240D03*
D12*
X83870800Y-69875400D03*
D13*
X76250800Y-69875400D03*
D16*
X86299040Y-59893200D03*
D17*
X86299040Y-67513200D03*
D12*
X108712000Y-96977200D03*
D13*
X108712000Y-89357200D03*
D12*
X111760000Y-111455200D03*
X111760000Y-106455200D03*
X108610400Y-111302800D03*
X108610400Y-106302800D03*
X111709200Y-99212400D03*
X111709200Y-104212400D03*
X108610400Y-99110800D03*
X108610400Y-104110800D03*
X140360400Y-56057800D03*
X145360400Y-56057800D03*
X80352900Y-118414800D03*
X80352900Y-113414800D03*
D20*
X104282240Y-58293000D03*
D13*
X104282240Y-50673000D03*
D20*
X64897000Y-98298000D03*
D13*
X57277000Y-98298000D03*
D20*
X57150000Y-95758000D03*
D13*
X64770000Y-95758000D03*
D12*
X103327200Y-72969120D03*
X108327200Y-72969120D03*
X110459520Y-73050400D03*
X115459520Y-73050400D03*
X76936600Y-113487200D03*
X76936600Y-118487200D03*
X73812400Y-113436400D03*
X73812400Y-118436400D03*
D18*
X62484000Y-63500000D03*
X63754000Y-64770000D03*
D19*
X61214000Y-64770000D03*
D18*
X122326400Y-48260000D03*
X123596400Y-49530000D03*
D19*
X121056400Y-49530000D03*
D18*
X68072000Y-93091000D03*
X69342000Y-91821000D03*
D19*
X69342000Y-94361000D03*
D18*
X116751100Y-47485300D03*
X118021100Y-48755300D03*
D19*
X115481100Y-48755300D03*
D12*
X69850000Y-88773000D03*
D13*
X69850000Y-81153000D03*
D12*
X110083600Y-51866800D03*
D13*
X110083600Y-44246800D03*
D12*
X63500000Y-100584000D03*
D13*
X71120000Y-100584000D03*
D12*
X110337600Y-61531500D03*
D13*
X110337600Y-53911500D03*
D12*
X72898000Y-80518000D03*
D13*
X72898000Y-88138000D03*
D12*
X116062760Y-126177040D03*
D13*
X108442760Y-126177040D03*
D12*
X101600000Y-80073500D03*
D13*
X93980000Y-80073500D03*
D12*
X101536500Y-83312000D03*
D13*
X93916500Y-83312000D03*
D12*
X91122500Y-83312000D03*
D13*
X83502500Y-83312000D03*
D12*
X83997800Y-79400400D03*
D13*
X76377800Y-79400400D03*
D12*
X83820000Y-76174600D03*
D13*
X76200000Y-76174600D03*
D12*
X83794600Y-72999600D03*
D13*
X76174600Y-72999600D03*
D18*
X87884000Y-78232000D03*
X89154000Y-79502000D03*
D19*
X86614000Y-79502000D03*
D12*
X95402400Y-87233760D03*
D13*
X95402400Y-94853760D03*
D12*
X100076000Y-76835000D03*
D13*
X92456000Y-76835000D03*
D20*
X136461500Y-56832500D03*
D12*
X136461500Y-54332500D03*
X135509000Y-49037240D03*
D13*
X143129000Y-49037240D03*
D12*
X137668000Y-52070000D03*
D13*
X145288000Y-52070000D03*
D25*
X148907500Y-54483000D03*
D27*
X148907500Y-57023000D03*
X148907500Y-59563000D03*
D16*
X150368000Y-63754000D03*
D17*
X150368000Y-71374000D03*
D20*
X60121800Y-101003100D03*
D13*
X60121800Y-108623100D03*
D20*
X106898440Y-40904160D03*
D13*
X106898440Y-48524160D03*
D20*
X69951600Y-106032300D03*
D13*
X62331600Y-106032300D03*
D20*
X104195880Y-48585120D03*
D13*
X104195880Y-40965120D03*
D20*
X67111880Y-78148180D03*
D13*
X67111880Y-85768180D03*
D20*
X64516000Y-85344000D03*
D13*
X64516000Y-77724000D03*
D12*
X57302400Y-101003100D03*
D13*
X57302400Y-108623100D03*
D12*
X97536000Y-46736000D03*
D13*
X97536000Y-54356000D03*
D12*
X61722000Y-85344000D03*
D13*
X61722000Y-77724000D03*
D12*
X66802000Y-72390000D03*
X66802000Y-69890000D03*
X63759080Y-60434220D03*
X61259080Y-60434220D03*
X112745520Y-49453800D03*
X112745520Y-46953800D03*
X67691000Y-97536000D03*
X70191000Y-97536000D03*
X119024400Y-44343320D03*
X121524400Y-44343320D03*
X73253600Y-106565700D03*
X73253600Y-104065700D03*
X64135000Y-109601000D03*
X66635000Y-109601000D03*
X113284000Y-68326000D03*
X113284000Y-65826000D03*
X58724800Y-89204800D03*
X61224800Y-89204800D03*
X86487000Y-73215500D03*
X88987000Y-73215500D03*
X81280000Y-82931000D03*
X78780000Y-82931000D03*
X113055400Y-80086200D03*
X108055400Y-80086200D03*
X113080800Y-83413600D03*
X108080800Y-83413600D03*
X112979200Y-86639400D03*
X107979200Y-86639400D03*
X64770000Y-93218000D03*
D13*
X57150000Y-93218000D03*
D12*
X117515640Y-41630600D03*
D13*
X109895640Y-41630600D03*
D12*
X62738000Y-57404000D03*
D13*
X70358000Y-57404000D03*
D12*
X78232000Y-47752000D03*
X80732000Y-47752000D03*
X89154000Y-47498000D03*
X86654000Y-47498000D03*
X57404000Y-50800000D03*
X57404000Y-53300000D03*
D28*
X105410000Y-77216000D03*
X105410000Y-79756000D03*
X105410000Y-82296000D03*
X105410000Y-84836000D03*
X105410000Y-87376000D03*
X105410000Y-89916000D03*
X105410000Y-92456000D03*
X105410000Y-94996000D03*
X105410000Y-97536000D03*
X105410000Y-100076000D03*
X105410000Y-102616000D03*
X105410000Y-105156000D03*
X105410000Y-107696000D03*
X105410000Y-110236000D03*
X105410000Y-112776000D03*
X105410000Y-115316000D03*
X105410000Y-117856000D03*
X105410000Y-120396000D03*
X105410000Y-122936000D03*
X105410000Y-125476000D03*
X120650000Y-77216000D03*
X120650000Y-79756000D03*
X120650000Y-82296000D03*
X120650000Y-84836000D03*
X120650000Y-87376000D03*
X120650000Y-89916000D03*
X120650000Y-92456000D03*
X120650000Y-94996000D03*
X120650000Y-97536000D03*
X120650000Y-100076000D03*
X120650000Y-102616000D03*
X120650000Y-105156000D03*
X120650000Y-107696000D03*
X120650000Y-110236000D03*
X120650000Y-112776000D03*
X120650000Y-115316000D03*
X120650000Y-117856000D03*
X120650000Y-120396000D03*
X120650000Y-122936000D03*
X120650000Y-125476000D03*
D16*
X127833120Y-120152160D03*
D17*
X135453120Y-120152160D03*
D16*
X124866400Y-126817120D03*
D17*
X124866400Y-119197120D03*
D12*
X127508000Y-40208200D03*
X122508000Y-40208200D03*
D14*
X131330700Y-124929900D03*
D15*
X133870700Y-124929900D03*
X136410700Y-124929900D03*
X138950700Y-124929900D03*
X141490700Y-124929900D03*
X144030700Y-124929900D03*
D12*
X147129500Y-68516500D03*
X147129500Y-66016500D03*
X128524000Y-60896500D03*
X128524000Y-63396500D03*
X137033000Y-92075000D03*
X134533000Y-92075000D03*
X146908520Y-116230400D03*
X144408520Y-116230400D03*
D14*
X149479000Y-86614000D03*
D15*
X146939000Y-86614000D03*
X149479000Y-84074000D03*
X146939000Y-84074000D03*
X149479000Y-81534000D03*
X146939000Y-81534000D03*
X149479000Y-78994000D03*
X146939000Y-78994000D03*
X149479000Y-76454000D03*
X146939000Y-76454000D03*
D14*
X140906500Y-108077000D03*
D15*
X138366500Y-108077000D03*
X140906500Y-105537000D03*
X138366500Y-105537000D03*
X140906500Y-102997000D03*
X138366500Y-102997000D03*
X140906500Y-100457000D03*
X138366500Y-100457000D03*
X140906500Y-97917000D03*
X138366500Y-97917000D03*
D14*
X149646640Y-107904280D03*
D15*
X147106640Y-107904280D03*
X149646640Y-105364280D03*
X147106640Y-105364280D03*
X149646640Y-102824280D03*
X147106640Y-102824280D03*
X149646640Y-100284280D03*
X147106640Y-100284280D03*
X149646640Y-97744280D03*
X147106640Y-97744280D03*
D14*
X131521200Y-108153200D03*
D15*
X128981200Y-108153200D03*
X131521200Y-105613200D03*
X128981200Y-105613200D03*
X131521200Y-103073200D03*
X128981200Y-103073200D03*
X131521200Y-100533200D03*
X128981200Y-100533200D03*
X131521200Y-97993200D03*
X128981200Y-97993200D03*
D12*
X64510920Y-119395240D03*
X67010920Y-119395240D03*
X150075900Y-119367300D03*
X150075900Y-116867300D03*
D11*
X57000000Y-125000000D03*
D12*
X149961600Y-43815000D03*
X149961600Y-38815000D03*
X57213500Y-36893500D03*
X59713500Y-36893500D03*
D16*
X131318000Y-84709000D03*
D17*
X131318000Y-92329000D03*
D16*
X128079500Y-84772500D03*
D17*
X128079500Y-92392500D03*
D24*
X143192500Y-65976500D03*
D23*
X138112500Y-65976500D03*
D12*
X85001100Y-44005500D03*
D13*
X72301100Y-44005500D03*
D12*
X100975160Y-43921680D03*
D13*
X88275160Y-43921680D03*
D12*
X69494400Y-40195500D03*
D13*
X56794400Y-40195500D03*
D29*
X71018400Y-36738600D03*
X68478400Y-36738600D03*
D24*
X73304400Y-34010600D03*
D23*
X68224400Y-34010600D03*
D29*
X104648000Y-36891000D03*
X102108000Y-36891000D03*
D24*
X106934000Y-34163000D03*
D23*
X101854000Y-34163000D03*
D29*
X87884000Y-36891000D03*
X85344000Y-36891000D03*
D24*
X90170000Y-34163000D03*
D23*
X85090000Y-34163000D03*
D29*
X138938000Y-37018000D03*
X136398000Y-37018000D03*
D24*
X141224000Y-34290000D03*
D23*
X136144000Y-34290000D03*
D29*
X121793000Y-37018000D03*
X119253000Y-37018000D03*
D24*
X124079000Y-34290000D03*
D23*
X118999000Y-34290000D03*
D30*
X150622000Y-49149000D03*
X149098000Y-51181000D03*
X147574000Y-51181000D03*
X146812000Y-50419000D03*
X145669000Y-49530000D03*
X142621000Y-50673000D03*
X141732000Y-50800000D03*
X139446000Y-50673000D03*
X138811000Y-50038000D03*
X138049000Y-50165000D03*
X142316200Y-54076600D03*
X142875000Y-55321200D03*
X142341600Y-55981600D03*
X139115800Y-59436000D03*
X138455400Y-59944000D03*
X137693400Y-60020200D03*
X135636000Y-60198000D03*
X134162800Y-60198000D03*
X133807200Y-59105800D03*
X133705600Y-57277000D03*
X133654800Y-55753000D03*
X134086600Y-54000400D03*
X133858000Y-52705000D03*
X135529320Y-51831240D03*
X96266000Y-69443600D03*
X116586000Y-91186000D03*
X116586000Y-118364000D03*
X115824000Y-91948000D03*
X115824000Y-119380000D03*
X115062000Y-90932000D03*
X115062000Y-120904000D03*
X117348000Y-117348000D03*
X117348000Y-92202000D03*
X85344000Y-113766600D03*
X106845100Y-109524800D03*
X80213200Y-65100200D03*
X101996240Y-103748840D03*
X85973920Y-102514400D03*
X92080080Y-79811880D03*
X100777040Y-91821000D03*
X102910640Y-83972400D03*
X82219800Y-80238600D03*
X104510840Y-88585040D03*
X99745800Y-86065360D03*
X143611600Y-72364600D03*
X143388080Y-87172800D03*
X143398240Y-96189800D03*
D31*
X138938000Y-37018000D02*
X138750000Y-37018000D01*
X138750000Y-37018000D02*
X135953500Y-39306500D01*
X128143000Y-39306500D02*
X127508000Y-40208200D01*
X135953500Y-39306500D02*
X128143000Y-39306500D01*
X138938000Y-37018000D02*
X138938000Y-36576000D01*
X138938000Y-36576000D02*
X141224000Y-34290000D01*
X127508000Y-40208200D02*
X127508000Y-40894000D01*
X127508000Y-40894000D02*
X129540000Y-42926000D01*
D32*
X100838000Y-54356000D02*
X100838000Y-54117240D01*
X100838000Y-54117240D02*
X104282240Y-50673000D01*
X107177840Y-50637440D02*
X108315760Y-50637440D01*
X109499400Y-49453800D02*
X112745520Y-49453800D01*
X108315760Y-50637440D02*
X109499400Y-49453800D01*
X104282240Y-50673000D02*
X107142280Y-50673000D01*
X107142280Y-50673000D02*
X107177840Y-50637440D01*
X107177840Y-50637440D02*
X107820460Y-50637440D01*
D33*
X77470000Y-50800000D02*
X77470000Y-53594000D01*
D32*
X77470000Y-53594000D02*
X77317600Y-53594000D01*
X77571600Y-53492400D02*
X77470000Y-53594000D01*
X110185200Y-77876400D02*
X108585000Y-76276200D01*
X110185200Y-90525600D02*
X110185200Y-77876400D01*
X109728000Y-90982800D02*
X110185200Y-90525600D01*
X108864400Y-76555600D02*
X108585000Y-76276200D01*
X105410000Y-89916000D02*
X105410000Y-90220800D01*
X105410000Y-90220800D02*
X106172000Y-90982800D01*
X106172000Y-90982800D02*
X109728000Y-90982800D01*
X105410000Y-89916000D02*
X105468420Y-89916000D01*
X105059480Y-89916000D02*
X105410000Y-89916000D01*
X105156000Y-90170000D02*
X105410000Y-89916000D01*
D33*
X105003600Y-90322400D02*
X105410000Y-89916000D01*
D32*
X79756000Y-53594000D02*
X81026000Y-53594000D01*
X81026000Y-53594000D02*
X84216240Y-50871120D01*
X84216240Y-50871120D02*
X87401400Y-50703480D01*
X104394000Y-80518000D02*
X104902000Y-81026000D01*
X103327200Y-72969120D02*
X103327200Y-77266800D01*
X104394000Y-80502180D02*
X104394000Y-80518000D01*
X103886000Y-79994180D02*
X104394000Y-80502180D01*
X103886000Y-77825600D02*
X103886000Y-79994180D01*
X103327200Y-77266800D02*
X103886000Y-77825600D01*
X103327200Y-72969120D02*
X103449120Y-72969120D01*
X104902000Y-81026000D02*
X106172000Y-81026000D01*
X106680000Y-81788000D02*
X106756200Y-81788000D01*
X106756200Y-86146640D02*
X106756200Y-81788000D01*
X105526840Y-87376000D02*
X106756200Y-86146640D01*
X106172000Y-81026000D02*
X106756200Y-81610200D01*
X106756200Y-81610200D02*
X106756200Y-81711800D01*
X106756200Y-81711800D02*
X106680000Y-81788000D01*
X105410000Y-87376000D02*
X105526840Y-87376000D01*
X105704640Y-87670640D02*
X105410000Y-87376000D01*
X104902000Y-86868000D02*
X105410000Y-87376000D01*
D33*
X105257600Y-87223600D02*
X105410000Y-87376000D01*
D31*
X125867160Y-62362080D02*
X125867160Y-62029340D01*
X125867160Y-62029340D02*
X127000000Y-60896500D01*
X127000000Y-60896500D02*
X128524000Y-60896500D01*
X125867160Y-62362080D02*
X125867160Y-64886840D01*
X125867160Y-64886840D02*
X125730000Y-65024000D01*
X148907500Y-57023000D02*
X147637500Y-57023000D01*
X142494000Y-62865000D02*
X139954000Y-62865000D01*
X143319500Y-62039500D02*
X142494000Y-62865000D01*
X143319500Y-61341000D02*
X143319500Y-62039500D01*
X147637500Y-57023000D02*
X143319500Y-61341000D01*
D33*
X120142000Y-60182760D02*
X119547640Y-60182760D01*
X119547640Y-60182760D02*
X118932960Y-60797440D01*
X118932960Y-60797440D02*
X118932960Y-62362080D01*
X67401440Y-115559840D02*
X67401440Y-115366800D01*
X67401440Y-115366800D02*
X68453000Y-114315240D01*
X66635000Y-109601000D02*
X68046600Y-109601000D01*
X68046600Y-109601000D02*
X68453000Y-109194600D01*
X72771000Y-97917000D02*
X72771000Y-103583100D01*
X72771000Y-103583100D02*
X73253600Y-104065700D01*
D32*
X66421000Y-66802000D02*
X66421000Y-66728340D01*
X66421000Y-66728340D02*
X64462660Y-64770000D01*
X64462660Y-64770000D02*
X63754000Y-64770000D01*
D31*
X72771000Y-97917000D02*
X73025000Y-97917000D01*
X73025000Y-97917000D02*
X73863200Y-98755200D01*
X73863200Y-98755200D02*
X76962000Y-98755200D01*
D32*
X72771000Y-97917000D02*
X72771000Y-93853000D01*
X70739000Y-91821000D02*
X69342000Y-91821000D01*
X72771000Y-93853000D02*
X70739000Y-91821000D01*
D33*
X66635000Y-109601000D02*
X66635000Y-112054000D01*
X66635000Y-112054000D02*
X66548000Y-112141000D01*
X73253600Y-104065700D02*
X72083300Y-104065700D01*
X71501000Y-107442000D02*
X71501000Y-104648000D01*
X69088000Y-107442000D02*
X71501000Y-107442000D01*
X68453000Y-108077000D02*
X69088000Y-107442000D01*
X68453000Y-109194600D02*
X68453000Y-108077000D01*
X72083300Y-104065700D02*
X71501000Y-104648000D01*
X67401440Y-115559840D02*
X67401440Y-115051840D01*
X68453000Y-114315240D02*
X68453000Y-109194600D01*
D31*
X148907500Y-57023000D02*
X148112480Y-57023000D01*
D33*
X125867160Y-62362080D02*
X125867160Y-62108080D01*
X120142000Y-60182760D02*
X120142000Y-56007000D01*
X123596400Y-52552600D02*
X123596400Y-49530000D01*
X120142000Y-56007000D02*
X123596400Y-52552600D01*
D31*
X148907500Y-57023000D02*
X148358860Y-57023000D01*
D33*
X137668000Y-52070000D02*
X142367000Y-52070000D01*
X147137120Y-55570120D02*
X148907500Y-57023000D01*
X145389600Y-53568600D02*
X147137120Y-55570120D01*
X144119600Y-53568600D02*
X145389600Y-53568600D01*
X142367000Y-52070000D02*
X144119600Y-53568600D01*
X79781400Y-50703480D02*
X80137000Y-50703480D01*
D32*
X135509000Y-49037240D02*
X135524240Y-49037240D01*
X135524240Y-49037240D02*
X136652000Y-50165000D01*
X147574000Y-51181000D02*
X149098000Y-51181000D01*
X146558000Y-50419000D02*
X146812000Y-50419000D01*
X145669000Y-49530000D02*
X146558000Y-50419000D01*
X141859000Y-50673000D02*
X142621000Y-50673000D01*
X141732000Y-50800000D02*
X141859000Y-50673000D01*
X138811000Y-50038000D02*
X139446000Y-50673000D01*
X136652000Y-50165000D02*
X138049000Y-50165000D01*
X142875000Y-55448200D02*
X142875000Y-55321200D01*
X142341600Y-55981600D02*
X142875000Y-55448200D01*
X135509000Y-49037240D02*
X135509000Y-49824640D01*
X135509000Y-49824640D02*
X135575040Y-50551080D01*
X138963400Y-59436000D02*
X139115800Y-59436000D01*
X138455400Y-59944000D02*
X138963400Y-59436000D01*
X135813800Y-60020200D02*
X137693400Y-60020200D01*
X135636000Y-60198000D02*
X135813800Y-60020200D01*
X134162800Y-59461400D02*
X134162800Y-60198000D01*
X133807200Y-59105800D02*
X134162800Y-59461400D01*
X133705600Y-55803800D02*
X133705600Y-57277000D01*
X133654800Y-55753000D02*
X133705600Y-55803800D01*
X134086600Y-52933600D02*
X134086600Y-54000400D01*
X133858000Y-52705000D02*
X134086600Y-52933600D01*
X135575040Y-50551080D02*
X135529320Y-51831240D01*
D33*
X96281240Y-64734440D02*
X96281240Y-69428360D01*
X96281240Y-69428360D02*
X96266000Y-69443600D01*
X96281240Y-64734440D02*
X83657440Y-64734440D01*
X82717640Y-65674240D02*
X82702400Y-66700400D01*
X83657440Y-64734440D02*
X82717640Y-65674240D01*
D31*
X105410000Y-122936000D02*
X102476300Y-122936000D01*
X98933000Y-119392700D02*
X98933000Y-117983000D01*
X102476300Y-122936000D02*
X98933000Y-119392700D01*
D32*
X95084900Y-122936000D02*
X94856300Y-122707400D01*
X121606152Y-75103378D02*
X121761862Y-75103378D01*
X126679960Y-72786240D02*
X126679960Y-72710040D01*
X125648720Y-73817480D02*
X126679960Y-72786240D01*
X123047760Y-73817480D02*
X125648720Y-73817480D01*
X121761862Y-75103378D02*
X123047760Y-73817480D01*
X126679960Y-72710040D02*
X127787400Y-71602600D01*
X116586000Y-118364000D02*
X116840000Y-119380000D01*
X117856000Y-120396000D02*
X120650000Y-120396000D01*
X116840000Y-119380000D02*
X117856000Y-120396000D01*
X116586000Y-91186000D02*
X116586000Y-80264000D01*
X117348000Y-79502000D02*
X117348000Y-79451200D01*
X116586000Y-80264000D02*
X117348000Y-79502000D01*
X117703600Y-76225400D02*
X118745000Y-75184000D01*
X117703600Y-79095600D02*
X117703600Y-76225400D01*
X117348000Y-79451200D02*
X117703600Y-79095600D01*
X118745000Y-75184000D02*
X121412000Y-75184000D01*
X121412000Y-75184000D02*
X121606152Y-75103378D01*
X117627400Y-74422000D02*
X121381520Y-74422000D01*
X122793760Y-73009760D02*
X123840240Y-73009760D01*
X121381520Y-74422000D02*
X122793760Y-73009760D01*
X123840240Y-73009760D02*
X125247400Y-71602600D01*
X115824000Y-91948000D02*
X115824000Y-80010000D01*
X116332000Y-79502000D02*
X116332000Y-79451200D01*
X115824000Y-80010000D02*
X116332000Y-79502000D01*
X115824000Y-119380000D02*
X115824000Y-120881140D01*
X115824000Y-120881140D02*
X117878860Y-122936000D01*
X116789200Y-75260200D02*
X117627400Y-74422000D01*
X116789200Y-78994000D02*
X116789200Y-75260200D01*
X116332000Y-79451200D02*
X116789200Y-78994000D01*
X120650000Y-122936000D02*
X117878860Y-122936000D01*
X117068600Y-73660000D02*
X120904000Y-73660000D01*
X120904000Y-73660000D02*
X122707400Y-71856600D01*
X122707400Y-71856600D02*
X122707400Y-71602600D01*
X115062000Y-120904000D02*
X115062000Y-122682000D01*
X115062000Y-122682000D02*
X117856000Y-125476000D01*
X114970014Y-90409849D02*
X114970014Y-79593986D01*
X115011200Y-90881200D02*
X114970014Y-90409849D01*
X115062000Y-90932000D02*
X115011200Y-90881200D01*
X115316000Y-79248000D02*
X115316000Y-79197200D01*
X114970014Y-79593986D02*
X115316000Y-79248000D01*
X115316000Y-79197200D02*
X115951000Y-78562200D01*
X115951000Y-78562200D02*
X115951000Y-74777600D01*
X115951000Y-74777600D02*
X117068600Y-73660000D01*
X120650000Y-125476000D02*
X117856000Y-125476000D01*
X122707400Y-72110600D02*
X122707400Y-71602600D01*
X117348000Y-117348000D02*
X117856000Y-117856000D01*
X117856000Y-117856000D02*
X120650000Y-117856000D01*
X120650000Y-117856000D02*
X120015000Y-117856000D01*
X122463560Y-75834240D02*
X122463560Y-75468480D01*
X127858520Y-73091040D02*
X128501247Y-73091040D01*
X126517400Y-74432160D02*
X127858520Y-73091040D01*
X123499880Y-74432160D02*
X126517400Y-74432160D01*
X122463560Y-75468480D02*
X123499880Y-74432160D01*
X118522750Y-79978250D02*
X118522750Y-77006450D01*
X118522750Y-77006450D02*
X118618000Y-76911200D01*
X118618000Y-76911200D02*
X119496840Y-75834240D01*
X119496840Y-75834240D02*
X122463560Y-75834240D01*
X130327400Y-71602600D02*
X128501247Y-73091040D01*
X117449600Y-81051400D02*
X118522750Y-79978250D01*
X117348000Y-92202000D02*
X117449600Y-81051400D01*
X106619040Y-114046000D02*
X106680000Y-114046000D01*
X107152440Y-113284000D02*
X118384320Y-113284000D01*
X106680000Y-114046000D02*
X107152440Y-113284000D01*
X106619040Y-113995200D02*
X106619040Y-114046000D01*
X118661180Y-108849535D02*
X118745000Y-108849535D01*
X118661180Y-113296700D02*
X118661180Y-108849535D01*
X118384320Y-113284000D02*
X118661180Y-113296700D01*
X102565200Y-113995200D02*
X106619040Y-113995200D01*
X102565200Y-113995200D02*
X98933000Y-110363000D01*
X85344000Y-113766600D02*
X85445600Y-113665000D01*
X85445600Y-113665000D02*
X96977200Y-113665000D01*
X96977200Y-113665000D02*
X98933000Y-111709200D01*
X98933000Y-111709200D02*
X98933000Y-110363000D01*
X118745000Y-104902000D02*
X120650000Y-102616000D01*
X118745000Y-108849535D02*
X118745000Y-104902000D01*
X122123200Y-105181400D02*
X122123200Y-101930200D01*
X118800880Y-100807520D02*
X118800880Y-88996520D01*
X119507000Y-101346000D02*
X118800880Y-100807520D01*
X121539000Y-101346000D02*
X119507000Y-101346000D01*
X122123200Y-101930200D02*
X121539000Y-101346000D01*
X114313970Y-120409970D02*
X114313970Y-122160030D01*
X105918000Y-121666000D02*
X105918000Y-121678700D01*
X106172000Y-121666000D02*
X105918000Y-121666000D01*
X108204000Y-123698000D02*
X106172000Y-121666000D01*
X112776000Y-123698000D02*
X108204000Y-123698000D01*
X114313970Y-122160030D02*
X112776000Y-123698000D01*
X114670840Y-116560600D02*
X114670840Y-116616480D01*
X105918000Y-121678700D02*
X103014780Y-121678700D01*
X114330480Y-120393460D02*
X114313970Y-120409970D01*
X114330480Y-116956840D02*
X114330480Y-120393460D01*
X114670840Y-116616480D02*
X114330480Y-116956840D01*
X119303800Y-114079020D02*
X119303800Y-106730800D01*
X118074440Y-115308380D02*
X119303800Y-114079020D01*
X115923060Y-115308380D02*
X118074440Y-115308380D01*
X114670840Y-116560600D02*
X115923060Y-115308380D01*
X103014780Y-121678700D02*
X100751640Y-119415560D01*
X100751640Y-119415560D02*
X100751640Y-117431820D01*
X100751640Y-117431820D02*
X99880420Y-116560600D01*
X97053400Y-116560600D02*
X99880420Y-116560600D01*
X96393000Y-117221000D02*
X97053400Y-116560600D01*
X96393000Y-117983000D02*
X96393000Y-117221000D01*
X119303800Y-106730800D02*
X119684800Y-106349800D01*
X119684800Y-106349800D02*
X121462800Y-106349800D01*
X121462800Y-106349800D02*
X122123200Y-105181400D01*
X118800880Y-88996520D02*
X120650000Y-87376000D01*
X132194300Y-105613200D02*
X133350000Y-104241600D01*
X133350000Y-104241600D02*
X139611100Y-104241600D01*
X139611100Y-104241600D02*
X140906500Y-105537000D01*
X131521200Y-105613200D02*
X132194300Y-105613200D01*
X128079500Y-84772500D02*
X126492000Y-84772500D01*
X126492000Y-84772500D02*
X126377700Y-84505800D01*
X138493500Y-82804000D02*
X148209000Y-82804000D01*
X148209000Y-82804000D02*
X149479000Y-84074000D01*
X131279900Y-80911700D02*
X132219700Y-80911700D01*
X138811000Y-82804000D02*
X140081000Y-84074000D01*
X134112000Y-82804000D02*
X138493500Y-82804000D01*
X138493500Y-82804000D02*
X138811000Y-82804000D01*
X132219700Y-80911700D02*
X134112000Y-82804000D01*
X140906500Y-105537000D02*
X141706600Y-105537000D01*
X125704600Y-103073200D02*
X125704600Y-103098600D01*
X125704600Y-103098600D02*
X127254000Y-104317800D01*
X120650000Y-92456000D02*
X121401840Y-92456000D01*
X121401840Y-92456000D02*
X122875040Y-90982800D01*
X127647700Y-80911700D02*
X131279900Y-80911700D01*
X126390400Y-82473800D02*
X127647700Y-80911700D01*
X126377700Y-87099140D02*
X126377700Y-84505800D01*
X126377700Y-84505800D02*
X126390400Y-82473800D01*
X122875040Y-90449400D02*
X126377700Y-87099140D01*
X122875040Y-90982800D02*
X122875040Y-90449400D01*
X140081000Y-84074000D02*
X140253720Y-84074000D01*
X131279900Y-80911700D02*
X131955540Y-80911700D01*
X120650000Y-92456000D02*
X121412000Y-92456000D01*
X121412000Y-92456000D02*
X122174000Y-93218000D01*
X129540000Y-104317800D02*
X131521200Y-105613200D01*
X127254000Y-104317800D02*
X129540000Y-104317800D01*
X125704600Y-97002600D02*
X125704600Y-103073200D01*
X125222000Y-96012000D02*
X125704600Y-97002600D01*
X122682000Y-96012000D02*
X125222000Y-96012000D01*
X122174000Y-95504000D02*
X122682000Y-96012000D01*
X122174000Y-93218000D02*
X122174000Y-95504000D01*
X140906500Y-105537000D02*
X141170660Y-105537000D01*
X141170660Y-105537000D02*
X142367000Y-104076500D01*
X148371560Y-104089200D02*
X149646640Y-105364280D01*
X142367000Y-104076500D02*
X148371560Y-104089200D01*
X131521200Y-105613200D02*
X131935220Y-105613200D01*
X131279900Y-80911700D02*
X131279900Y-81015840D01*
X131279900Y-80911700D02*
X132011420Y-80911700D01*
D33*
X131279900Y-80911700D02*
X131762500Y-80911700D01*
D32*
X140906500Y-100457000D02*
X140906500Y-99961700D01*
X140906500Y-99961700D02*
X140106400Y-99161600D01*
X132676900Y-99161600D02*
X131521200Y-100533200D01*
X140106400Y-99161600D02*
X132676900Y-99161600D01*
X139001500Y-77724000D02*
X148209000Y-77724000D01*
X148209000Y-77724000D02*
X149479000Y-78994000D01*
X131343400Y-77724000D02*
X133985000Y-77724000D01*
X139001500Y-77724000D02*
X140081000Y-78803500D01*
X133985000Y-77724000D02*
X139001500Y-77724000D01*
X140081000Y-78803500D02*
X140081000Y-78994000D01*
X120650000Y-89916000D02*
X120858280Y-89916000D01*
X120858280Y-89916000D02*
X122529600Y-88244680D01*
X128818640Y-78181200D02*
X130886200Y-78181200D01*
X124053600Y-82946240D02*
X128818640Y-78181200D01*
X123103640Y-82946240D02*
X124053600Y-82946240D01*
X122529600Y-83520280D02*
X123103640Y-82946240D01*
X122529600Y-88244680D02*
X122529600Y-83520280D01*
X130886200Y-78181200D02*
X131343400Y-77724000D01*
X140081000Y-78994000D02*
X140081000Y-78656180D01*
X131343400Y-77724000D02*
X131343400Y-77508100D01*
X140906500Y-100457000D02*
X140906500Y-100048060D01*
X140906500Y-100048060D02*
X141732000Y-98996500D01*
X148384260Y-99021900D02*
X149646640Y-100284280D01*
X141732000Y-98996500D02*
X148384260Y-99021900D01*
X131521200Y-100533200D02*
X131566920Y-100533200D01*
X140081000Y-78994000D02*
X139847320Y-78994000D01*
X120650000Y-89916000D02*
X121056400Y-89916000D01*
X138950700Y-124929900D02*
X138506200Y-124929900D01*
X138506200Y-124929900D02*
X136512300Y-122936000D01*
X123101100Y-117017800D02*
X123901200Y-116509800D01*
X123101100Y-121196100D02*
X123101100Y-117017800D01*
X124841000Y-122936000D02*
X123101100Y-121196100D01*
X136512300Y-122936000D02*
X124841000Y-122936000D01*
X138950700Y-124929900D02*
X138645900Y-124929900D01*
X79756000Y-125476000D02*
X79502000Y-125476000D01*
X79502000Y-125476000D02*
X76454000Y-122428000D01*
X76454000Y-122428000D02*
X71882000Y-122428000D01*
X71882000Y-122428000D02*
X68834000Y-125476000D01*
X73190100Y-127635000D02*
X89725500Y-127635000D01*
X90335100Y-127025400D02*
X91071700Y-126936500D01*
X89725500Y-127635000D02*
X90335100Y-127025400D01*
X91071700Y-126936500D02*
X91414600Y-126593600D01*
X73190100Y-127635000D02*
X71374000Y-125476000D01*
X91414600Y-126593600D02*
X90652600Y-126593600D01*
D31*
X124079000Y-34732000D02*
X121793000Y-37018000D01*
X121793000Y-37018000D02*
X122174000Y-38354000D01*
X122174000Y-38354000D02*
X122508000Y-40208200D01*
X124079000Y-34290000D02*
X124079000Y-34732000D01*
D33*
X123327160Y-62362080D02*
X121051320Y-62880240D01*
X121051320Y-62880240D02*
X120924320Y-62753240D01*
D32*
X133921500Y-116586000D02*
X133921500Y-116281200D01*
X133921500Y-116281200D02*
X132054600Y-114414300D01*
X132054600Y-114414300D02*
X123291600Y-114414300D01*
X123291600Y-114414300D02*
X122072400Y-113195100D01*
X122072400Y-113195100D02*
X122072400Y-111658400D01*
X122072400Y-111658400D02*
X120650000Y-110236000D01*
X120650000Y-112776000D02*
X120700800Y-112776000D01*
X120700800Y-112776000D02*
X122605800Y-115138200D01*
X130060700Y-115138200D02*
X131521200Y-116509800D01*
X122605800Y-115138200D02*
X130060700Y-115138200D01*
X120650000Y-112776000D02*
X120929400Y-112776000D01*
X92557600Y-122758200D02*
X91681300Y-122758200D01*
X91681300Y-122758200D02*
X89230200Y-125209300D01*
X89230200Y-125209300D02*
X89230200Y-126187200D01*
X89230200Y-126187200D02*
X88392000Y-127025400D01*
X88392000Y-127025400D02*
X75463400Y-127025400D01*
X75463400Y-127025400D02*
X73914000Y-125476000D01*
X102108000Y-127254000D02*
X107442000Y-127254000D01*
X99568000Y-124714000D02*
X102108000Y-127254000D01*
X94234000Y-124714000D02*
X99568000Y-124714000D01*
X107442000Y-127254000D02*
X108712000Y-125984000D01*
X93586300Y-123977400D02*
X93586300Y-124066300D01*
X93586300Y-124066300D02*
X94234000Y-124714000D01*
X108127800Y-112593120D02*
X108204000Y-112669320D01*
X107289600Y-112699800D02*
X108127800Y-112593120D01*
X108204000Y-112669320D02*
X117254020Y-112669320D01*
X118122700Y-108407200D02*
X118122700Y-86575900D01*
X119862600Y-84836000D02*
X118122700Y-86575900D01*
X120650000Y-84836000D02*
X119862600Y-84836000D01*
X118046500Y-108486418D02*
X118122700Y-108407200D01*
X117254020Y-112669320D02*
X118046500Y-111983520D01*
X118046500Y-111983520D02*
X118046500Y-108486418D01*
X120650000Y-84836000D02*
X120650000Y-84988400D01*
X106845100Y-109524800D02*
X106845100Y-112255300D01*
X106845100Y-112255300D02*
X107289600Y-112699800D01*
X62484000Y-63500000D02*
X62484000Y-65557400D01*
X65044320Y-68132320D02*
X66802000Y-69890000D01*
X65044320Y-66860420D02*
X65044320Y-68132320D01*
X64234060Y-66050160D02*
X65044320Y-66860420D01*
X62976760Y-66050160D02*
X64234060Y-66050160D01*
X62484000Y-65557400D02*
X62976760Y-66050160D01*
X70104000Y-71374000D02*
X73101200Y-69850000D01*
X73101200Y-69850000D02*
X73152000Y-69799200D01*
X66802000Y-69890000D02*
X70064000Y-71414000D01*
X70064000Y-71414000D02*
X70104000Y-71374000D01*
X70104000Y-71374000D02*
X70612000Y-71374000D01*
X70104000Y-71374000D02*
X70104000Y-71259700D01*
D31*
X132080000Y-42926000D02*
X133985000Y-42926000D01*
X135890000Y-41021000D02*
X140589000Y-41021000D01*
X133985000Y-42926000D02*
X135890000Y-41021000D01*
D32*
X80213200Y-65100200D02*
X82702400Y-62611000D01*
X82702400Y-62611000D02*
X82702400Y-59182000D01*
X82702400Y-59182000D02*
X82321400Y-59182000D01*
D33*
X82702400Y-59182000D02*
X82702400Y-59385200D01*
X82702400Y-59385200D02*
X83210400Y-59893200D01*
X83210400Y-59893200D02*
X86299040Y-59893200D01*
X93309440Y-59893200D02*
X96122480Y-59893200D01*
X96122480Y-59893200D02*
X96281240Y-59734440D01*
X89839800Y-60045600D02*
X93157040Y-60045600D01*
X93157040Y-60045600D02*
X93309440Y-59893200D01*
X86222840Y-59857640D02*
X89651840Y-59857640D01*
X89651840Y-59857640D02*
X89839800Y-60045600D01*
X86106000Y-59740800D02*
X86222840Y-59857640D01*
D31*
X87884000Y-36891000D02*
X87884000Y-36703000D01*
X87884000Y-36703000D02*
X90424000Y-34163000D01*
D33*
X67310000Y-47752000D02*
X68493640Y-47752000D01*
X83515200Y-45491400D02*
X85001100Y-44005500D01*
X70754240Y-45491400D02*
X83515200Y-45491400D01*
X68493640Y-47752000D02*
X70754240Y-45491400D01*
D31*
X84924900Y-40195500D02*
X84924900Y-43929300D01*
X84924900Y-43929300D02*
X85001100Y-44005500D01*
X87884000Y-36891000D02*
X87708700Y-36891000D01*
X87708700Y-36891000D02*
X86913720Y-38663880D01*
X86913720Y-38663880D02*
X84924900Y-40195500D01*
D32*
X62839600Y-53086000D02*
X62839600Y-52984400D01*
X62839600Y-52984400D02*
X67320160Y-48503840D01*
X67320160Y-48503840D02*
X67310000Y-47752000D01*
X67310000Y-47752000D02*
X67310000Y-47873920D01*
X61468000Y-55372000D02*
X61620400Y-55372000D01*
X62839600Y-54152800D02*
X62839600Y-53086000D01*
X61620400Y-55372000D02*
X62839600Y-54152800D01*
X57658000Y-55372000D02*
X61468000Y-55372000D01*
X56642000Y-56388000D02*
X57658000Y-55372000D01*
X56642000Y-77978000D02*
X56642000Y-56388000D01*
X61722000Y-83058000D02*
X56642000Y-77978000D01*
X61722000Y-85344000D02*
X61722000Y-83058000D01*
D31*
X104648000Y-36891000D02*
X104338080Y-36891000D01*
X104338080Y-36891000D02*
X101117400Y-40111680D01*
X104648000Y-36891000D02*
X104648000Y-36449000D01*
X104648000Y-36449000D02*
X106934000Y-34163000D01*
D33*
X97536000Y-46736000D02*
X92456000Y-46736000D01*
X92456000Y-46736000D02*
X92202000Y-46990000D01*
X97536000Y-46736000D02*
X98160840Y-46736000D01*
X98160840Y-46736000D02*
X100975160Y-43921680D01*
D31*
X101117400Y-40111680D02*
X101117400Y-43779440D01*
X101117400Y-43779440D02*
X100975160Y-43921680D01*
X107696000Y-34036000D02*
X107696000Y-34224000D01*
D32*
X61259080Y-60434220D02*
X61259080Y-64724920D01*
X61259080Y-64724920D02*
X61214000Y-64770000D01*
X58257440Y-57947560D02*
X58772420Y-57947560D01*
X58772420Y-57947560D02*
X61259080Y-60434220D01*
D31*
X71018400Y-36738600D02*
X71018400Y-36550600D01*
X71018400Y-36550600D02*
X73558400Y-34010600D01*
X69494400Y-40195500D02*
X70586600Y-38036500D01*
X70586600Y-38036500D02*
X71018400Y-36738600D01*
X69494400Y-40195500D02*
X69494400Y-43624500D01*
X69494400Y-43624500D02*
X70065900Y-44196000D01*
D33*
X57683400Y-45796200D02*
X57683400Y-47472600D01*
X57683400Y-47472600D02*
X57404000Y-47752000D01*
X57302400Y-101003100D02*
X56502300Y-101003100D01*
X68465700Y-45796200D02*
X70065900Y-44196000D01*
X56769000Y-45796200D02*
X57683400Y-45796200D01*
X57683400Y-45796200D02*
X68465700Y-45796200D01*
X55816500Y-46748700D02*
X56769000Y-45796200D01*
X55816500Y-100317300D02*
X55816500Y-46748700D01*
X56502300Y-101003100D02*
X55816500Y-100317300D01*
D32*
X57302400Y-101003100D02*
X57302400Y-100660200D01*
X69850000Y-88773000D02*
X69850000Y-88988900D01*
X69850000Y-88988900D02*
X71158100Y-90297000D01*
X71158100Y-90297000D02*
X72771000Y-90297000D01*
X68072000Y-93091000D02*
X70256400Y-93091000D01*
X70713600Y-96088200D02*
X70191000Y-97144200D01*
X70713600Y-93548200D02*
X70713600Y-96088200D01*
X70256400Y-93091000D02*
X70713600Y-93548200D01*
X70191000Y-97144200D02*
X70191000Y-97536000D01*
X68072000Y-93091000D02*
X68072000Y-90551000D01*
X68072000Y-90551000D02*
X69850000Y-88773000D01*
D33*
X78232000Y-47752000D02*
X74930000Y-47752000D01*
D32*
X69850000Y-50800000D02*
X71882000Y-50800000D01*
X71882000Y-50800000D02*
X74930000Y-47752000D01*
D33*
X75184000Y-48006000D02*
X75062080Y-47884080D01*
X75062080Y-47884080D02*
X74930000Y-47752000D01*
X74818240Y-47680880D02*
X74767440Y-47731680D01*
D32*
X69850000Y-50800000D02*
X69850000Y-50190400D01*
D33*
X89150258Y-53906376D02*
X89150258Y-47501742D01*
X89150258Y-47501742D02*
X89154000Y-47498000D01*
X92202000Y-54102000D02*
X89150258Y-53906376D01*
X89150258Y-53906376D02*
X88239600Y-53848000D01*
X88239600Y-53848000D02*
X87376000Y-53594000D01*
X89154000Y-47498000D02*
X88976200Y-47498000D01*
X89154000Y-47498000D02*
X89039700Y-47498000D01*
D32*
X117515640Y-41630600D02*
X117515640Y-42834560D01*
X117515640Y-42834560D02*
X119024400Y-44343320D01*
X118927880Y-44246800D02*
X119024400Y-44343320D01*
X101996240Y-103748840D02*
X100700840Y-102453440D01*
X100700840Y-102453440D02*
X100700840Y-98069400D01*
X106705400Y-107696000D02*
X105410000Y-107696000D01*
X108585000Y-109575600D02*
X106705400Y-107696000D01*
D34*
X98719640Y-94909640D02*
X98719640Y-96088200D01*
X98719640Y-96088200D02*
X99517200Y-96885760D01*
D32*
X100700840Y-98069400D02*
X99517200Y-96885760D01*
X98719640Y-95021400D02*
X98719640Y-94909640D01*
X111760000Y-111455200D02*
X111760000Y-111175800D01*
X111760000Y-111175800D02*
X110159800Y-109575600D01*
X110159800Y-109575600D02*
X108585000Y-109575600D01*
X98338640Y-95290640D02*
X98338640Y-94945200D01*
X105410000Y-110236000D02*
X104444800Y-110236000D01*
X104444800Y-110236000D02*
X101092000Y-106883200D01*
X95986600Y-100685600D02*
X95986600Y-98806000D01*
X101092000Y-105791000D02*
X95986600Y-100685600D01*
X101092000Y-106883200D02*
X101092000Y-105791000D01*
X65024000Y-47752000D02*
X65024000Y-48260000D01*
X65024000Y-48260000D02*
X62738000Y-50546000D01*
X62738000Y-50546000D02*
X59944000Y-50546000D01*
D33*
X59944000Y-50546000D02*
X59944000Y-50292000D01*
D32*
X64815720Y-47640240D02*
X64866520Y-47691040D01*
D33*
X59944000Y-50546000D02*
X57556400Y-50647600D01*
X57556400Y-50647600D02*
X57404000Y-50800000D01*
D32*
X57099200Y-50495200D02*
X57404000Y-50800000D01*
X99364800Y-98755200D02*
X99364800Y-102438200D01*
X99364800Y-102438200D02*
X102082600Y-105156000D01*
X111709200Y-101879400D02*
X111709200Y-99212400D01*
X111074200Y-102514400D02*
X111709200Y-101879400D01*
X107899200Y-102514400D02*
X111074200Y-102514400D01*
X107137200Y-103276400D02*
X107899200Y-102514400D01*
X107137200Y-104597200D02*
X107137200Y-103276400D01*
X102082600Y-105156000D02*
X105410000Y-105156000D01*
X105410000Y-105156000D02*
X106578400Y-105156000D01*
X106578400Y-105156000D02*
X107137200Y-104597200D01*
D34*
X101996240Y-95138240D02*
X101996240Y-95443040D01*
X101996240Y-95443040D02*
X102758240Y-96205040D01*
D32*
X101996240Y-95138240D02*
X102722680Y-95138240D01*
X102758240Y-96205040D02*
X107939840Y-96205040D01*
X107939840Y-96205040D02*
X108712000Y-96977200D01*
X106680000Y-101041200D02*
X108610400Y-99110800D01*
X105410000Y-102616000D02*
X105410000Y-102514400D01*
X105410000Y-102514400D02*
X106680000Y-101244400D01*
X106680000Y-101244400D02*
X106680000Y-101041200D01*
X105397300Y-102603300D02*
X105410000Y-102616000D01*
D33*
X67564000Y-50546000D02*
X67513200Y-53543200D01*
X67513200Y-53543200D02*
X67564000Y-53594000D01*
D32*
X105410000Y-92456000D02*
X106959400Y-92456000D01*
X106959400Y-92456000D02*
X107238800Y-92735400D01*
X107238800Y-92735400D02*
X111709200Y-92735400D01*
X111709200Y-92735400D02*
X113360200Y-91084400D01*
X113360200Y-91084400D02*
X113360200Y-88493600D01*
X113360200Y-88493600D02*
X112776000Y-87909400D01*
X112776000Y-87909400D02*
X112115600Y-87909400D01*
X112115600Y-87909400D02*
X111556800Y-87350600D01*
X105562400Y-92456000D02*
X105410000Y-92456000D01*
X105410000Y-92456000D02*
X105410000Y-91790520D01*
X105410000Y-92456000D02*
X104851200Y-92456000D01*
X105410000Y-92456000D02*
X106133900Y-92456000D01*
X105333800Y-92379800D02*
X105410000Y-92456000D01*
X110459520Y-73050400D02*
X110459520Y-76382880D01*
X111252000Y-77175360D02*
X111556800Y-77175360D01*
X110459520Y-76382880D02*
X111252000Y-77175360D01*
X111556800Y-87350600D02*
X111556800Y-77175360D01*
X98719640Y-87289640D02*
X98719640Y-91302840D01*
X97149920Y-92872560D02*
X97149920Y-92903040D01*
X98719640Y-91302840D02*
X97149920Y-92872560D01*
X94335600Y-96672400D02*
X95666560Y-96672400D01*
X96895920Y-93157040D02*
X97149920Y-92903040D01*
X96895920Y-93659960D02*
X96895920Y-93157040D01*
X96687640Y-93959680D02*
X96895920Y-93659960D01*
X96687640Y-95742760D02*
X96687640Y-93959680D01*
X95666560Y-96672400D02*
X96687640Y-95742760D01*
X92202000Y-98755200D02*
X92776040Y-98755200D01*
X92776040Y-98755200D02*
X94335600Y-96941640D01*
X94335600Y-96941640D02*
X94335600Y-96672400D01*
X92202000Y-98755200D02*
X92547440Y-98755200D01*
X94538800Y-108204000D02*
X94538800Y-107873800D01*
X94538800Y-107873800D02*
X95986600Y-106426000D01*
X89662000Y-106375200D02*
X89662000Y-107188000D01*
X89662000Y-107188000D02*
X90678000Y-108204000D01*
X90678000Y-108204000D02*
X94538800Y-108204000D01*
X86487000Y-104267000D02*
X97256600Y-104267000D01*
X97256600Y-104267000D02*
X99364800Y-106375200D01*
X86487000Y-104267000D02*
X84582000Y-102362000D01*
X84582000Y-102362000D02*
X84582000Y-98755200D01*
X97553780Y-94119700D02*
X97553780Y-93586300D01*
X97553780Y-93586300D02*
X100528120Y-90611960D01*
X100528120Y-90611960D02*
X101559360Y-90611960D01*
X101559360Y-90611960D02*
X101996240Y-90175080D01*
X101996240Y-90175080D02*
X101996240Y-87518240D01*
X94885602Y-97372078D02*
X95860962Y-97372078D01*
X97287080Y-94386400D02*
X97553780Y-94119700D01*
X97287080Y-95945960D02*
X97287080Y-94386400D01*
X95860962Y-97372078D02*
X97287080Y-95945960D01*
X85973920Y-102514400D02*
X86283800Y-102204520D01*
X86283800Y-102204520D02*
X91089480Y-102204520D01*
X91089480Y-102204520D02*
X94355920Y-98938080D01*
X94355920Y-98938080D02*
X94355920Y-97901760D01*
X94355920Y-97901760D02*
X94885602Y-97372078D01*
X84645500Y-94234000D02*
X87185500Y-94234000D01*
X84582000Y-96520000D02*
X84582000Y-94297500D01*
X84582000Y-94297500D02*
X84645500Y-94234000D01*
X84582000Y-106375200D02*
X84582000Y-105918000D01*
X84582000Y-105918000D02*
X85598000Y-104902000D01*
X88328500Y-108267500D02*
X86233000Y-110363000D01*
X88328500Y-105410000D02*
X88328500Y-108267500D01*
X87820500Y-104902000D02*
X88328500Y-105410000D01*
X85598000Y-104902000D02*
X87820500Y-104902000D01*
X82042000Y-98755200D02*
X82042000Y-97155000D01*
X88392000Y-97485200D02*
X89662000Y-98755200D01*
X88392000Y-96774000D02*
X88392000Y-97485200D01*
X87693500Y-96520000D02*
X88392000Y-96774000D01*
X83248500Y-96520000D02*
X84582000Y-96520000D01*
X84582000Y-96520000D02*
X87693500Y-96520000D01*
X82042000Y-97155000D02*
X83248500Y-96520000D01*
X82042000Y-98755200D02*
X82042000Y-98806000D01*
X86233000Y-110363000D02*
X86233000Y-109575600D01*
X70576440Y-108966000D02*
X72224900Y-108966000D01*
X79502000Y-101155500D02*
X79502000Y-98755200D01*
X78727300Y-101930200D02*
X79502000Y-101155500D01*
X76238100Y-101930200D02*
X78727300Y-101930200D01*
X74625200Y-103543100D02*
X76238100Y-101930200D01*
X74625200Y-107683300D02*
X74625200Y-103543100D01*
X74206100Y-108102400D02*
X74625200Y-107683300D01*
X73088500Y-108102400D02*
X74206100Y-108102400D01*
X72224900Y-108966000D02*
X73088500Y-108102400D01*
X83502500Y-83312000D02*
X82804000Y-83312000D01*
X82804000Y-83312000D02*
X80772000Y-85344000D01*
X80772000Y-90373200D02*
X83312000Y-92913200D01*
X80772000Y-85344000D02*
X80772000Y-90373200D01*
X79565500Y-95948500D02*
X82677000Y-95948500D01*
X83312000Y-95313500D02*
X83312000Y-92913200D01*
X82677000Y-95948500D02*
X83312000Y-95313500D01*
X83312000Y-83502500D02*
X83502500Y-83312000D01*
X79565500Y-94234000D02*
X79565500Y-95948500D01*
X79565500Y-95948500D02*
X79565500Y-98691700D01*
X79565500Y-98691700D02*
X79502000Y-98755200D01*
X91203780Y-80794860D02*
X92910660Y-80794860D01*
X92910660Y-80794860D02*
X93632020Y-80073500D01*
X93632020Y-80073500D02*
X93980000Y-80073500D01*
X88392000Y-83347560D02*
X88651080Y-83347560D01*
X88651080Y-83347560D02*
X91203780Y-80794860D01*
X92265500Y-86614000D02*
X92265500Y-86804500D01*
X92265500Y-86804500D02*
X90805000Y-88265000D01*
X88392000Y-87884000D02*
X88392000Y-83347560D01*
X88773000Y-88265000D02*
X88392000Y-87884000D01*
X90805000Y-88265000D02*
X88773000Y-88265000D01*
X73418700Y-110337600D02*
X73418700Y-110223300D01*
X73418700Y-110223300D02*
X75387200Y-108280200D01*
X75387200Y-108280200D02*
X75387200Y-104724200D01*
X75387200Y-104724200D02*
X76835000Y-103251000D01*
X76835000Y-103251000D02*
X81915000Y-103251000D01*
X81915000Y-103251000D02*
X83312000Y-101854000D01*
X83312000Y-101854000D02*
X83312000Y-98044000D01*
X83312000Y-98044000D02*
X84201000Y-97155000D01*
X84201000Y-97155000D02*
X85521800Y-97155000D01*
X85521800Y-97155000D02*
X87122000Y-98755200D01*
X63754000Y-67818000D02*
X63754000Y-71120000D01*
X65024000Y-72390000D02*
X66802000Y-72390000D01*
X63754000Y-71120000D02*
X65024000Y-72390000D01*
X63754000Y-67818000D02*
X63804800Y-67818000D01*
X60960000Y-67818000D02*
X63550800Y-68021200D01*
X63550800Y-68021200D02*
X63754000Y-67818000D01*
X60960000Y-67818000D02*
X58166000Y-67818000D01*
X62738000Y-57404000D02*
X62738000Y-59413140D01*
X62738000Y-59413140D02*
X63759080Y-60434220D01*
X112745520Y-46953800D02*
X112745520Y-46984920D01*
X112745520Y-46984920D02*
X114193320Y-48432720D01*
X114193320Y-48432720D02*
X114193320Y-49461420D01*
X114193320Y-49461420D02*
X116814600Y-52082700D01*
X116878100Y-52146200D02*
X116814600Y-52082700D01*
X120142000Y-52562760D02*
X120142000Y-52207160D01*
X120142000Y-52207160D02*
X122295920Y-50490120D01*
X122295920Y-50490120D02*
X122326400Y-48260000D01*
X62445900Y-103441500D02*
X66040000Y-103441500D01*
X67945000Y-101536500D02*
X67945000Y-97790000D01*
X66040000Y-103441500D02*
X67945000Y-101536500D01*
X67945000Y-97790000D02*
X67691000Y-97536000D01*
X64897000Y-98298000D02*
X66929000Y-98298000D01*
X66929000Y-98298000D02*
X67691000Y-97536000D01*
X64770000Y-95758000D02*
X64897000Y-98298000D01*
X121056400Y-49530000D02*
X120832880Y-49530000D01*
X120832880Y-49530000D02*
X120004840Y-48701960D01*
X120004840Y-45862880D02*
X121524400Y-44343320D01*
X120004840Y-48701960D02*
X120004840Y-45862880D01*
X58724800Y-89204800D02*
X58724800Y-89649300D01*
X62484000Y-93218000D02*
X64770000Y-93218000D01*
X58724800Y-89649300D02*
X62484000Y-93218000D01*
X58674000Y-89154000D02*
X58724800Y-89204800D01*
X61224800Y-89204800D02*
X61224800Y-89241000D01*
X61224800Y-89241000D02*
X63423800Y-90525600D01*
X66929000Y-93802200D02*
X67487800Y-94361000D01*
X63423800Y-90906600D02*
X64363600Y-91719400D01*
X66319400Y-91719400D02*
X66929000Y-92456000D01*
X66929000Y-92456000D02*
X66929000Y-93802200D01*
X64363600Y-91719400D02*
X66319400Y-91719400D01*
X67487800Y-94361000D02*
X69342000Y-94361000D01*
X63423800Y-90525600D02*
X63423800Y-90906600D01*
X76936600Y-113487200D02*
X76936600Y-112293400D01*
X78892400Y-110337600D02*
X81038700Y-110337600D01*
X76936600Y-112293400D02*
X78892400Y-110337600D01*
X81038700Y-110337600D02*
X81038700Y-109588300D01*
X81038700Y-109588300D02*
X82550000Y-108077000D01*
X82550000Y-108077000D02*
X85420200Y-108077000D01*
X85420200Y-108077000D02*
X87122000Y-106375200D01*
X73812400Y-113436400D02*
X73812400Y-113258600D01*
X73812400Y-113258600D02*
X79502000Y-107569000D01*
X79502000Y-107569000D02*
X79502000Y-106375200D01*
X70576440Y-116586000D02*
X70662800Y-116586000D01*
X70662800Y-116586000D02*
X73812400Y-113436400D01*
X73520300Y-113144300D02*
X73812400Y-113436400D01*
X73914000Y-63754000D02*
X73914000Y-66675000D01*
X73914000Y-66675000D02*
X74041000Y-66802000D01*
X72898000Y-59309000D02*
X72898000Y-62738000D01*
X72898000Y-62738000D02*
X73914000Y-63754000D01*
D33*
X74256900Y-66598800D02*
X74256900Y-68719700D01*
X74256900Y-68719700D02*
X74549000Y-69011800D01*
D32*
X74549000Y-88011000D02*
X74549000Y-69011800D01*
X78994000Y-92519500D02*
X78994000Y-92456000D01*
X78994000Y-92456000D02*
X74549000Y-88011000D01*
X80391000Y-92519500D02*
X82105500Y-94234000D01*
X78994000Y-92519500D02*
X80391000Y-92519500D01*
X118021100Y-48755300D02*
X118021100Y-49156620D01*
X118021100Y-49156620D02*
X118628160Y-49763680D01*
X118628160Y-49763680D02*
X118628160Y-52913280D01*
X118628160Y-52913280D02*
X117629940Y-53911500D01*
X117629940Y-53911500D02*
X110337600Y-53911500D01*
X110083600Y-51866800D02*
X110083600Y-53657500D01*
X110083600Y-53657500D02*
X110337600Y-53911500D01*
X110178452Y-57754682D02*
X110178452Y-54070648D01*
X110178452Y-54070648D02*
X110337600Y-53911500D01*
X107950000Y-59994800D02*
X107950000Y-69189600D01*
X110178452Y-57754682D02*
X110185200Y-57759600D01*
X89865200Y-86614000D02*
X91122500Y-85178900D01*
X91122500Y-85178900D02*
X94526100Y-85178900D01*
X107950000Y-59994800D02*
X110185200Y-57759600D01*
X95427800Y-78333600D02*
X95427800Y-84455000D01*
X95427800Y-84455000D02*
X94526100Y-85178900D01*
X107950000Y-69189600D02*
X106273600Y-70866000D01*
X106273600Y-70866000D02*
X102895400Y-70866000D01*
X102895400Y-70866000D02*
X95427800Y-78333600D01*
X89725500Y-86614000D02*
X89865200Y-86614000D01*
X89725500Y-86614000D02*
X90022680Y-86614000D01*
X89725500Y-86233000D02*
X89725500Y-86614000D01*
X110083600Y-51866800D02*
X109931200Y-51866800D01*
X110083600Y-51866800D02*
X110083600Y-51308000D01*
X65267840Y-88237060D02*
X65267840Y-87873840D01*
X65267840Y-87873840D02*
X64770000Y-87376000D01*
X63500000Y-87376000D02*
X62992000Y-86868000D01*
X64770000Y-87376000D02*
X63500000Y-87376000D01*
X62992000Y-82042000D02*
X58674000Y-77724000D01*
X62992000Y-86868000D02*
X62992000Y-82042000D01*
X72898000Y-88138000D02*
X72263000Y-88138000D01*
X72263000Y-88138000D02*
X71374000Y-87249000D01*
X66255900Y-87249000D02*
X65267840Y-88237060D01*
X71374000Y-87249000D02*
X66255900Y-87249000D01*
X72898000Y-88138000D02*
X73152000Y-88138000D01*
X73152000Y-88138000D02*
X77025500Y-92011500D01*
X77025500Y-92011500D02*
X77025500Y-94234000D01*
X72798940Y-88237060D02*
X72898000Y-88138000D01*
X120650000Y-115316000D02*
X120792240Y-115316000D01*
X120792240Y-115316000D02*
X122064780Y-117287040D01*
X122064780Y-117287040D02*
X122064780Y-126004320D01*
X122064780Y-126004320D02*
X121503440Y-127010160D01*
X121503440Y-127010160D02*
X116641880Y-127010160D01*
X116641880Y-127010160D02*
X116062760Y-126177040D01*
X104673400Y-94996000D02*
X100777040Y-91821000D01*
X105410000Y-94996000D02*
X104673400Y-94996000D01*
X105410000Y-94996000D02*
X105410000Y-94869000D01*
X104902000Y-95504000D02*
X105410000Y-94996000D01*
X92080080Y-79811880D02*
X92003880Y-79735680D01*
X92003880Y-79735680D02*
X90904583Y-79745172D01*
X90904583Y-79745172D02*
X88237583Y-76788612D01*
X88237583Y-76788612D02*
X85821520Y-76779120D01*
X85821520Y-76779120D02*
X83997800Y-79400400D01*
X102910640Y-81269840D02*
X101714300Y-80073500D01*
X102910640Y-83972400D02*
X102910640Y-81269840D01*
X101714300Y-80073500D02*
X101600000Y-80073500D01*
X105410000Y-97536000D02*
X105531920Y-97536000D01*
X105410000Y-100076000D02*
X106009440Y-100076000D01*
X82143600Y-74650600D02*
X83794600Y-72999600D01*
X82143600Y-80162400D02*
X82143600Y-74650600D01*
X82219800Y-80238600D02*
X82143600Y-80162400D01*
X102737920Y-86065360D02*
X102737920Y-86197440D01*
X102737920Y-86197440D02*
X103687880Y-87147400D01*
X99745800Y-86065360D02*
X102737920Y-86065360D01*
X104322880Y-88508840D02*
X104510840Y-88585040D01*
X103687880Y-87873840D02*
X104322880Y-88508840D01*
X103687880Y-87147400D02*
X103687880Y-87873840D01*
X84645500Y-86614000D02*
X84645500Y-85201760D01*
X87256620Y-80942180D02*
X89154000Y-79502000D01*
X87256620Y-82590640D02*
X87256620Y-80942180D01*
X84645500Y-85201760D02*
X87256620Y-82590640D01*
X84645500Y-86614000D02*
X84645500Y-88079580D01*
X93146880Y-89489280D02*
X95402400Y-87233760D01*
X86055200Y-89489280D02*
X93146880Y-89489280D01*
X84645500Y-88079580D02*
X86055200Y-89489280D01*
X95402400Y-94853760D02*
X95402400Y-92862400D01*
X91767660Y-92191840D02*
X89725500Y-94234000D01*
X94731840Y-92191840D02*
X91767660Y-92191840D01*
X95402400Y-92862400D02*
X94731840Y-92191840D01*
D33*
X145288000Y-52070000D02*
X145288000Y-50800000D01*
X143438880Y-48950880D02*
X143129000Y-49037240D01*
X145288000Y-50800000D02*
X143438880Y-48950880D01*
X148907500Y-54483000D02*
X148907500Y-54208680D01*
X148907500Y-54208680D02*
X147955000Y-52070000D01*
X147955000Y-52070000D02*
X145288000Y-52070000D01*
D31*
X152654000Y-92202000D02*
X144526000Y-92202000D01*
X144526000Y-92202000D02*
X143398240Y-91074240D01*
X149479000Y-81534000D02*
X151892000Y-81534000D01*
X151892000Y-81534000D02*
X152654000Y-82296000D01*
X149646640Y-102824280D02*
X151429720Y-102824280D01*
X151429720Y-102824280D02*
X152654000Y-101600000D01*
X152654000Y-101600000D02*
X152654000Y-92202000D01*
X152654000Y-92202000D02*
X152654000Y-82296000D01*
X152654000Y-66040000D02*
X150368000Y-63754000D01*
X152654000Y-82296000D02*
X152654000Y-66040000D01*
D32*
X140906500Y-102997000D02*
X140906500Y-102654100D01*
X140906500Y-102654100D02*
X139954000Y-101701600D01*
X132676900Y-101701600D02*
X131521200Y-103073200D01*
X139954000Y-101701600D02*
X132676900Y-101701600D01*
D31*
X145360400Y-56057800D02*
X145360400Y-56696600D01*
X145360400Y-56696600D02*
X143891000Y-58166000D01*
X137795000Y-58166000D02*
X136461500Y-56832500D01*
X143891000Y-58166000D02*
X137795000Y-58166000D01*
X143611600Y-72364600D02*
X143611600Y-66395600D01*
X143611600Y-66395600D02*
X143192500Y-65976500D01*
X148907500Y-61468000D02*
X148907500Y-62293500D01*
X148907500Y-62293500D02*
X150368000Y-63754000D01*
X148907500Y-61175900D02*
X148907500Y-61468000D01*
X146367500Y-61468000D02*
X143192500Y-65976500D01*
X148907500Y-61468000D02*
X146367500Y-61468000D01*
D32*
X140081000Y-81534000D02*
X140081000Y-81407000D01*
X140081000Y-81407000D02*
X141224000Y-80264000D01*
X148209000Y-80264000D02*
X149479000Y-81534000D01*
X141224000Y-80264000D02*
X148209000Y-80264000D01*
D31*
X143611600Y-72364600D02*
X143662400Y-72364600D01*
X143388080Y-87172800D02*
X143398240Y-87182960D01*
X143398240Y-87182960D02*
X143398240Y-91074240D01*
X143398240Y-91074240D02*
X143398240Y-96189800D01*
D32*
X140081000Y-81534000D02*
X140441680Y-81534000D01*
X140906500Y-102997000D02*
X140906500Y-102743000D01*
X140906500Y-102743000D02*
X141859000Y-101536500D01*
X148371560Y-101549200D02*
X149646640Y-102824280D01*
X141859000Y-101536500D02*
X148371560Y-101549200D01*
X131521200Y-103073200D02*
X131521200Y-102946200D01*
D31*
X140589000Y-45591000D02*
X143508000Y-45464000D01*
X149733000Y-50038000D02*
X151206200Y-51511200D01*
X148082000Y-50038000D02*
X149733000Y-50038000D01*
X143508000Y-45464000D02*
X148082000Y-50038000D01*
X150215600Y-59563000D02*
X148907500Y-59563000D01*
X151206200Y-58572400D02*
X150215600Y-59563000D01*
X151206200Y-51511200D02*
X151206200Y-58572400D01*
X148907500Y-59563000D02*
X148907500Y-61175900D01*
D32*
X62331600Y-106032300D02*
X66179700Y-106032300D01*
X68427600Y-103784400D02*
X69723000Y-103784400D01*
X66179700Y-106032300D02*
X68427600Y-103784400D01*
X69723000Y-103784400D02*
X70065900Y-103441500D01*
X57302400Y-108623100D02*
X57302400Y-107746800D01*
X59016900Y-106032300D02*
X62331600Y-106032300D01*
X57302400Y-107746800D02*
X59016900Y-106032300D01*
X60121800Y-101003100D02*
X60121800Y-103822500D01*
X60121800Y-103822500D02*
X62331600Y-106032300D01*
X100838000Y-46736000D02*
X101981000Y-46736000D01*
X101981000Y-46736000D02*
X104195880Y-44521120D01*
X104195880Y-44521120D02*
X104195880Y-40965120D01*
X97536000Y-54356000D02*
X97536000Y-53340000D01*
X97536000Y-53340000D02*
X100838000Y-50038000D01*
X100838000Y-50038000D02*
X100838000Y-46736000D01*
X98044000Y-54610000D02*
X98044000Y-54864000D01*
X104195880Y-40965120D02*
X106807000Y-40995600D01*
X106807000Y-40995600D02*
X106898440Y-40904160D01*
X64516000Y-77724000D02*
X66926460Y-78333600D01*
X66926460Y-78333600D02*
X67111880Y-78148180D01*
X61722000Y-77724000D02*
X64084200Y-77724000D01*
X64084200Y-77724000D02*
X64516000Y-77724000D01*
X63754000Y-75438000D02*
X63754000Y-77393800D01*
X63754000Y-77393800D02*
X64516000Y-77724000D01*
X70358000Y-57404000D02*
X70451980Y-57404000D01*
X70451980Y-57404000D02*
X71694040Y-58646060D01*
X70385940Y-63754000D02*
X66294000Y-63754000D01*
X71694040Y-62445900D02*
X70385940Y-63754000D01*
X71694040Y-58646060D02*
X71694040Y-62445900D01*
X74168000Y-60579000D02*
X74168000Y-58465720D01*
X73106280Y-57404000D02*
X70358000Y-57404000D01*
X74168000Y-58465720D02*
X73106280Y-57404000D01*
X116751100Y-47485300D02*
X116751100Y-45250100D01*
X116751100Y-45250100D02*
X115757960Y-44256960D01*
X115757960Y-44256960D02*
X110093760Y-44256960D01*
X110083600Y-44246800D02*
X110083600Y-41818560D01*
X110083600Y-41818560D02*
X109895640Y-41630600D01*
X110093760Y-44256960D02*
X110083600Y-44246800D01*
X58674000Y-85344000D02*
X58229500Y-85344000D01*
X58229500Y-85344000D02*
X56642000Y-86614000D01*
X56642000Y-86614000D02*
X56705500Y-92773500D01*
X56705500Y-92773500D02*
X57150000Y-93218000D01*
X58674000Y-85344000D02*
X58674000Y-85852000D01*
X58674000Y-85852000D02*
X59753500Y-86931500D01*
X61785500Y-86931500D02*
X63997840Y-89143840D01*
X59753500Y-86931500D02*
X61785500Y-86931500D01*
X63997840Y-89143840D02*
X63997840Y-89507060D01*
X63997840Y-89507060D02*
X63997840Y-89423240D01*
X63845440Y-89507060D02*
X63997840Y-89507060D01*
X58674000Y-85344000D02*
X58674000Y-85471000D01*
D33*
X138135360Y-120192800D02*
X135453120Y-120152160D01*
X124866400Y-119197120D02*
X126817120Y-119136160D01*
X126817120Y-119136160D02*
X127833120Y-120152160D01*
X124866400Y-126817120D02*
X128397000Y-126746000D01*
X128397000Y-126746000D02*
X130213100Y-124929900D01*
X130213100Y-124929900D02*
X131330700Y-124929900D01*
D32*
X141490700Y-124929900D02*
X141490700Y-123812300D01*
X121907300Y-100076000D02*
X120650000Y-100076000D01*
X122682000Y-100850700D02*
X121907300Y-100076000D01*
X122682000Y-111861600D02*
X122682000Y-100850700D01*
X124434600Y-113614200D02*
X122682000Y-111861600D01*
X133883400Y-113614200D02*
X124434600Y-113614200D01*
X137998200Y-117729000D02*
X133883400Y-113614200D01*
X139560300Y-117729000D02*
X137998200Y-117729000D01*
X139903200Y-118071900D02*
X139560300Y-117729000D01*
X139903200Y-122224800D02*
X139903200Y-118071900D01*
X141490700Y-123812300D02*
X139903200Y-122224800D01*
X120650000Y-100076000D02*
X121285000Y-100076000D01*
X144030700Y-124929900D02*
X144030700Y-123952000D01*
X123596400Y-100482400D02*
X120650000Y-97536000D01*
X123596400Y-111404400D02*
X123596400Y-100482400D01*
X125006100Y-112814100D02*
X123596400Y-111404400D01*
X134874000Y-112814100D02*
X125006100Y-112814100D01*
X139065000Y-117005100D02*
X134874000Y-112814100D01*
X139903200Y-117005100D02*
X139065000Y-117005100D01*
X141389100Y-118491000D02*
X139903200Y-117005100D01*
X141389100Y-121310400D02*
X141389100Y-118491000D01*
X144030700Y-123952000D02*
X141389100Y-121310400D01*
X121031000Y-97536000D02*
X120650000Y-97536000D01*
X144030700Y-124409200D02*
X144018000Y-124396500D01*
D31*
X150075900Y-119367300D02*
X150075900Y-124075900D01*
X150075900Y-124075900D02*
X151000000Y-125000000D01*
D33*
X149174200Y-124891800D02*
X149098000Y-124968000D01*
X150936960Y-123129040D02*
X149098000Y-124968000D01*
G36*
X69263180Y-108086849D02*
X69026710Y-108656333D01*
X69026172Y-109272961D01*
X69261648Y-109842857D01*
X69697289Y-110279260D01*
X70266773Y-110515730D01*
X70883401Y-110516268D01*
X71453297Y-110280792D01*
X71843771Y-109891000D01*
X71925829Y-109891000D01*
X71868970Y-110027933D01*
X71868432Y-110644561D01*
X72103908Y-111214457D01*
X72539549Y-111650860D01*
X73109033Y-111887330D01*
X73501710Y-111887673D01*
X72935543Y-112121608D01*
X72499140Y-112557249D01*
X72262670Y-113126733D01*
X72262189Y-113678463D01*
X70875526Y-115065126D01*
X70576440Y-115005634D01*
X69983281Y-115123621D01*
X69480424Y-115459618D01*
X69144427Y-115962475D01*
X69026440Y-116555634D01*
X69026440Y-116616366D01*
X69144427Y-117209525D01*
X69480424Y-117712382D01*
X69983281Y-118048379D01*
X70576440Y-118166366D01*
X71169599Y-118048379D01*
X71672456Y-117712382D01*
X72008453Y-117209525D01*
X72126440Y-116616366D01*
X72126440Y-116555634D01*
X72105680Y-116451268D01*
X73570759Y-114986189D01*
X74119361Y-114986668D01*
X74689257Y-114751192D01*
X75125660Y-114315551D01*
X75362130Y-113746067D01*
X75362668Y-113129439D01*
X75329641Y-113049507D01*
X75518418Y-112860730D01*
X75386870Y-113177533D01*
X75386332Y-113794161D01*
X75621808Y-114364057D01*
X76057449Y-114800460D01*
X76626933Y-115036930D01*
X77243561Y-115037468D01*
X77813457Y-114801992D01*
X77970117Y-114645605D01*
X79687781Y-114645605D01*
X79772883Y-114893646D01*
X80382964Y-115003039D01*
X80932917Y-114893646D01*
X81018019Y-114645605D01*
X80352900Y-113980485D01*
X79687781Y-114645605D01*
X77970117Y-114645605D01*
X78249860Y-114366351D01*
X78486330Y-113796867D01*
X78486637Y-113444864D01*
X78764661Y-113444864D01*
X78874054Y-113994817D01*
X79122095Y-114079919D01*
X79787215Y-113414800D01*
X80918585Y-113414800D01*
X81583705Y-114079919D01*
X81831746Y-113994817D01*
X81941139Y-113384736D01*
X81831746Y-112834783D01*
X81583705Y-112749681D01*
X80918585Y-113414800D01*
X79787215Y-113414800D01*
X79122095Y-112749681D01*
X78874054Y-112834783D01*
X78764661Y-113444864D01*
X78486637Y-113444864D01*
X78486868Y-113180239D01*
X78251392Y-112610343D01*
X78089740Y-112448408D01*
X78354153Y-112183995D01*
X79687781Y-112183995D01*
X80352900Y-112849115D01*
X81018019Y-112183995D01*
X80932917Y-111935954D01*
X80322836Y-111826561D01*
X79772883Y-111935954D01*
X79687781Y-112183995D01*
X78354153Y-112183995D01*
X79275548Y-111262600D01*
X79798049Y-111262600D01*
X79912318Y-111433616D01*
X80415175Y-111769613D01*
X81008334Y-111887600D01*
X81069066Y-111887600D01*
X81662225Y-111769613D01*
X82135000Y-111453716D01*
X82135000Y-111613002D01*
X82800939Y-111613002D01*
X83062369Y-111787665D01*
X83293000Y-111671737D01*
X83293000Y-110763000D01*
X82893000Y-110763000D01*
X82893000Y-109963000D01*
X83293000Y-109963000D01*
X83293000Y-109563000D01*
X84093000Y-109563000D01*
X84093000Y-109963000D01*
X84493000Y-109963000D01*
X84493000Y-110763000D01*
X84093000Y-110763000D01*
X84093000Y-111671737D01*
X84323631Y-111787665D01*
X84585061Y-111613002D01*
X85251000Y-111613002D01*
X85251000Y-111565565D01*
X85639841Y-111825379D01*
X86233000Y-111943366D01*
X86826159Y-111825379D01*
X87329016Y-111489382D01*
X87503000Y-111228996D01*
X87676984Y-111489382D01*
X88179841Y-111825379D01*
X88773000Y-111943366D01*
X89366159Y-111825379D01*
X89869016Y-111489382D01*
X90043000Y-111228996D01*
X90216984Y-111489382D01*
X90719841Y-111825379D01*
X91313000Y-111943366D01*
X91906159Y-111825379D01*
X92409016Y-111489382D01*
X92583000Y-111228996D01*
X92756984Y-111489382D01*
X93259841Y-111825379D01*
X93853000Y-111943366D01*
X94446159Y-111825379D01*
X94949016Y-111489382D01*
X95123000Y-111228996D01*
X95296984Y-111489382D01*
X95799841Y-111825379D01*
X96393000Y-111943366D01*
X96986159Y-111825379D01*
X97489016Y-111489382D01*
X97663000Y-111228996D01*
X97836984Y-111489382D01*
X97841591Y-111492461D01*
X96594052Y-112740000D01*
X85609689Y-112740000D01*
X85553774Y-112716782D01*
X85136058Y-112716418D01*
X84750000Y-112875934D01*
X84454372Y-113171046D01*
X84294182Y-113556826D01*
X84293818Y-113974542D01*
X84453334Y-114360600D01*
X84748446Y-114656228D01*
X85134226Y-114816418D01*
X85551942Y-114816782D01*
X85938000Y-114657266D01*
X86005384Y-114590000D01*
X96977200Y-114590000D01*
X97331183Y-114519589D01*
X97631274Y-114319074D01*
X99587074Y-112363274D01*
X99602316Y-112340463D01*
X101911124Y-114649271D01*
X101911126Y-114649274D01*
X102158078Y-114814282D01*
X102211218Y-114849789D01*
X102565200Y-114920201D01*
X102565205Y-114920200D01*
X103937181Y-114920200D01*
X103898263Y-115013925D01*
X103897738Y-115615436D01*
X104127441Y-116171360D01*
X104541708Y-116586351D01*
X104128936Y-116998402D01*
X103898263Y-117553925D01*
X103897738Y-118155436D01*
X104127441Y-118711360D01*
X104541708Y-119126351D01*
X104128936Y-119538402D01*
X103898263Y-120093925D01*
X103897738Y-120695436D01*
X103921812Y-120753700D01*
X103397928Y-120753700D01*
X101676640Y-119032412D01*
X101676640Y-117431820D01*
X101659967Y-117348000D01*
X101606229Y-117077837D01*
X101405714Y-116777746D01*
X100534494Y-115906526D01*
X100234403Y-115706011D01*
X99880420Y-115635600D01*
X97053405Y-115635600D01*
X97053400Y-115635599D01*
X96699418Y-115706011D01*
X96399326Y-115906526D01*
X95755812Y-116550040D01*
X95296984Y-116856618D01*
X95123000Y-117117004D01*
X94949016Y-116856618D01*
X94446159Y-116520621D01*
X93853000Y-116402634D01*
X93259841Y-116520621D01*
X92756984Y-116856618D01*
X92583000Y-117117004D01*
X92409016Y-116856618D01*
X91906159Y-116520621D01*
X91313000Y-116402634D01*
X90719841Y-116520621D01*
X90216984Y-116856618D01*
X90043000Y-117117004D01*
X89869016Y-116856618D01*
X89366159Y-116520621D01*
X88773000Y-116402634D01*
X88179841Y-116520621D01*
X87676984Y-116856618D01*
X87503000Y-117117004D01*
X87329016Y-116856618D01*
X86826159Y-116520621D01*
X86233000Y-116402634D01*
X85639841Y-116520621D01*
X85163024Y-116839219D01*
X85041138Y-116649802D01*
X84790508Y-116478554D01*
X84493000Y-116418307D01*
X82893000Y-116418307D01*
X82615067Y-116470604D01*
X82359802Y-116634862D01*
X82188554Y-116885492D01*
X82128307Y-117183000D01*
X82128307Y-118783000D01*
X82180604Y-119060933D01*
X82344862Y-119316198D01*
X82595492Y-119487446D01*
X82893000Y-119547693D01*
X84493000Y-119547693D01*
X84770933Y-119495396D01*
X85026198Y-119331138D01*
X85164950Y-119128068D01*
X85639841Y-119445379D01*
X86233000Y-119563366D01*
X86826159Y-119445379D01*
X87329016Y-119109382D01*
X87503000Y-118848996D01*
X87676984Y-119109382D01*
X88179841Y-119445379D01*
X88773000Y-119563366D01*
X89366159Y-119445379D01*
X89869016Y-119109382D01*
X90043000Y-118848996D01*
X90216984Y-119109382D01*
X90719841Y-119445379D01*
X91313000Y-119563366D01*
X91906159Y-119445379D01*
X92409016Y-119109382D01*
X92583000Y-118848996D01*
X92756984Y-119109382D01*
X93259841Y-119445379D01*
X93853000Y-119563366D01*
X94446159Y-119445379D01*
X94949016Y-119109382D01*
X95123000Y-118848996D01*
X95296984Y-119109382D01*
X95799841Y-119445379D01*
X96393000Y-119563366D01*
X96986159Y-119445379D01*
X97489016Y-119109382D01*
X97663000Y-118848996D01*
X97683000Y-118878928D01*
X97683000Y-119392700D01*
X97752466Y-119741926D01*
X97778151Y-119871054D01*
X98049117Y-120276583D01*
X101592417Y-123819884D01*
X101870992Y-124006021D01*
X101997946Y-124090849D01*
X102476300Y-124186000D01*
X104521392Y-124186000D01*
X104541708Y-124206351D01*
X104128936Y-124618402D01*
X103898263Y-125173925D01*
X103897738Y-125775436D01*
X104126466Y-126329000D01*
X102491147Y-126329000D01*
X100222074Y-124059926D01*
X99921983Y-123859411D01*
X99568000Y-123789000D01*
X95837496Y-123789000D01*
X95889498Y-123755538D01*
X96060746Y-123504908D01*
X96120993Y-123207400D01*
X96120993Y-122207400D01*
X96068696Y-121929467D01*
X95904438Y-121674202D01*
X95653808Y-121502954D01*
X95356300Y-121442707D01*
X94356300Y-121442707D01*
X94078367Y-121495004D01*
X93823102Y-121659262D01*
X93651854Y-121909892D01*
X93591607Y-122207400D01*
X93591607Y-122727404D01*
X93566284Y-122727382D01*
X93566517Y-122459850D01*
X93376616Y-122000257D01*
X93025293Y-121648319D01*
X92566031Y-121457617D01*
X92068750Y-121457183D01*
X91609157Y-121647084D01*
X91358368Y-121897435D01*
X91327317Y-121903611D01*
X91027226Y-122104126D01*
X88611570Y-124519782D01*
X88255151Y-124162740D01*
X87940294Y-124032000D01*
X88880002Y-124032000D01*
X88880002Y-123511963D01*
X89026264Y-123399861D01*
X89296840Y-122994857D01*
X89205244Y-122724000D01*
X88180000Y-122724000D01*
X88180000Y-123274000D01*
X87080000Y-123274000D01*
X87080000Y-122724000D01*
X86054756Y-122724000D01*
X85963160Y-122994857D01*
X86233736Y-123399861D01*
X86379998Y-123511963D01*
X86379998Y-124032000D01*
X86811851Y-124032000D01*
X86499143Y-124161208D01*
X86062740Y-124596849D01*
X85826270Y-125166333D01*
X85825732Y-125782961D01*
X85956895Y-126100400D01*
X81197505Y-126100400D01*
X81218379Y-126069159D01*
X81336366Y-125476000D01*
X81218379Y-124882841D01*
X80882382Y-124379984D01*
X80379525Y-124043987D01*
X80352910Y-124038693D01*
X81110000Y-124038693D01*
X81387933Y-123986396D01*
X81643198Y-123822138D01*
X81814446Y-123571508D01*
X81874693Y-123274000D01*
X81874693Y-121353143D01*
X85963160Y-121353143D01*
X86054756Y-121624000D01*
X87080000Y-121624000D01*
X87080000Y-120588736D01*
X88180000Y-120588736D01*
X88180000Y-121624000D01*
X89205244Y-121624000D01*
X89296840Y-121353143D01*
X89026264Y-120948139D01*
X88450863Y-120507125D01*
X88180000Y-120588736D01*
X87080000Y-120588736D01*
X86809137Y-120507125D01*
X86233736Y-120948139D01*
X85963160Y-121353143D01*
X81874693Y-121353143D01*
X81874693Y-121074000D01*
X81822396Y-120796067D01*
X81658138Y-120540802D01*
X81407508Y-120369554D01*
X81110000Y-120309307D01*
X78910000Y-120309307D01*
X78632067Y-120361604D01*
X78376802Y-120525862D01*
X78205554Y-120776492D01*
X78145307Y-121074000D01*
X78145307Y-122811159D01*
X77108074Y-121773926D01*
X76807983Y-121573411D01*
X76454000Y-121503000D01*
X71882000Y-121503000D01*
X71528017Y-121573411D01*
X71227926Y-121773926D01*
X69103576Y-123898276D01*
X68834000Y-123844654D01*
X68221707Y-123966447D01*
X67702629Y-124313283D01*
X67564000Y-124520756D01*
X67425371Y-124313283D01*
X66906293Y-123966447D01*
X66294000Y-123844654D01*
X65681707Y-123966447D01*
X65254509Y-124251891D01*
X65152138Y-124092802D01*
X64901508Y-123921554D01*
X64604000Y-123861307D01*
X62904000Y-123861307D01*
X62626067Y-123913604D01*
X62370802Y-124077862D01*
X62226000Y-124289787D01*
X62226000Y-121920000D01*
X62206304Y-121822736D01*
X62150318Y-121740798D01*
X62066864Y-121687097D01*
X61976000Y-121670000D01*
X58107186Y-121670000D01*
X57699247Y-121500609D01*
X56306861Y-121499394D01*
X56130000Y-121572471D01*
X56130000Y-121052961D01*
X58315699Y-121052961D01*
X58509361Y-121327784D01*
X59403149Y-121417592D01*
X59854639Y-121327784D01*
X60048301Y-121052961D01*
X59182000Y-120186660D01*
X58315699Y-121052961D01*
X56130000Y-121052961D01*
X56130000Y-119347149D01*
X56890408Y-119347149D01*
X56980216Y-119798639D01*
X57255039Y-119992301D01*
X58121340Y-119126000D01*
X60242660Y-119126000D01*
X61108961Y-119992301D01*
X61383784Y-119798639D01*
X61393474Y-119702201D01*
X62960652Y-119702201D01*
X63196128Y-120272097D01*
X63631769Y-120708500D01*
X64201253Y-120944970D01*
X64817881Y-120945508D01*
X65387777Y-120710032D01*
X65761189Y-120337272D01*
X66131769Y-120708500D01*
X66701253Y-120944970D01*
X67317881Y-120945508D01*
X67887777Y-120710032D01*
X68324180Y-120274391D01*
X68560650Y-119704907D01*
X68561188Y-119088279D01*
X68418671Y-118743361D01*
X72262132Y-118743361D01*
X72497608Y-119313257D01*
X72933249Y-119749660D01*
X73502733Y-119986130D01*
X74119361Y-119986668D01*
X74689257Y-119751192D01*
X75125660Y-119315551D01*
X75342159Y-118794161D01*
X75386332Y-118794161D01*
X75621808Y-119364057D01*
X76057449Y-119800460D01*
X76626933Y-120036930D01*
X77243561Y-120037468D01*
X77813457Y-119801992D01*
X78249860Y-119366351D01*
X78486330Y-118796867D01*
X78486395Y-118721761D01*
X78802632Y-118721761D01*
X79038108Y-119291657D01*
X79473749Y-119728060D01*
X80043233Y-119964530D01*
X80659861Y-119965068D01*
X81229757Y-119729592D01*
X81666160Y-119293951D01*
X81902630Y-118724467D01*
X81903168Y-118107839D01*
X81667692Y-117537943D01*
X81232051Y-117101540D01*
X80662567Y-116865070D01*
X80045939Y-116864532D01*
X79476043Y-117100008D01*
X79039640Y-117535649D01*
X78803170Y-118105133D01*
X78802632Y-118721761D01*
X78486395Y-118721761D01*
X78486868Y-118180239D01*
X78251392Y-117610343D01*
X77815751Y-117173940D01*
X77246267Y-116937470D01*
X76629639Y-116936932D01*
X76059743Y-117172408D01*
X75623340Y-117608049D01*
X75386870Y-118177533D01*
X75386332Y-118794161D01*
X75342159Y-118794161D01*
X75362130Y-118746067D01*
X75362668Y-118129439D01*
X75127192Y-117559543D01*
X74691551Y-117123140D01*
X74122067Y-116886670D01*
X73505439Y-116886132D01*
X72935543Y-117121608D01*
X72499140Y-117557249D01*
X72262670Y-118126733D01*
X72262132Y-118743361D01*
X68418671Y-118743361D01*
X68325712Y-118518383D01*
X67890071Y-118081980D01*
X67320587Y-117845510D01*
X66703959Y-117844972D01*
X66134063Y-118080448D01*
X65760651Y-118453208D01*
X65390071Y-118081980D01*
X64820587Y-117845510D01*
X64203959Y-117844972D01*
X63634063Y-118080448D01*
X63197660Y-118516089D01*
X62961190Y-119085573D01*
X62960652Y-119702201D01*
X61393474Y-119702201D01*
X61473592Y-118904851D01*
X61383784Y-118453361D01*
X61108961Y-118259699D01*
X60242660Y-119126000D01*
X58121340Y-119126000D01*
X57255039Y-118259699D01*
X56980216Y-118453361D01*
X56890408Y-119347149D01*
X56130000Y-119347149D01*
X56130000Y-117199039D01*
X58315699Y-117199039D01*
X59182000Y-118065340D01*
X60048301Y-117199039D01*
X59854639Y-116924216D01*
X58960851Y-116834408D01*
X58509361Y-116924216D01*
X58315699Y-117199039D01*
X56130000Y-117199039D01*
X56130000Y-112546000D01*
X56917307Y-112546000D01*
X56917307Y-115546000D01*
X56969604Y-115823933D01*
X57133862Y-116079198D01*
X57384492Y-116250446D01*
X57682000Y-116310693D01*
X60682000Y-116310693D01*
X60959933Y-116258396D01*
X61215198Y-116094138D01*
X61370530Y-115866801D01*
X63351172Y-115866801D01*
X63586648Y-116436697D01*
X64022289Y-116873100D01*
X64591773Y-117109570D01*
X65208401Y-117110108D01*
X65778297Y-116874632D01*
X65843440Y-116809603D01*
X65843440Y-116809842D01*
X65979468Y-116809842D01*
X66172067Y-117002441D01*
X66450664Y-117117840D01*
X66811940Y-117117840D01*
X67001440Y-116928340D01*
X67001440Y-115959840D01*
X67801440Y-115959840D01*
X67801440Y-116928340D01*
X67990940Y-117117840D01*
X68352216Y-117117840D01*
X68630813Y-117002441D01*
X68844042Y-116789212D01*
X68959440Y-116510615D01*
X68959440Y-116149340D01*
X68769940Y-115959840D01*
X67801440Y-115959840D01*
X67001440Y-115959840D01*
X66601440Y-115959840D01*
X66601440Y-115159840D01*
X67001440Y-115159840D01*
X67001440Y-114191340D01*
X67801440Y-114191340D01*
X67801440Y-115159840D01*
X68769940Y-115159840D01*
X68959440Y-114970340D01*
X68959440Y-114609065D01*
X68844042Y-114330468D01*
X68630813Y-114117239D01*
X68352216Y-114001840D01*
X67990940Y-114001840D01*
X67801440Y-114191340D01*
X67001440Y-114191340D01*
X66811940Y-114001840D01*
X66450664Y-114001840D01*
X66172067Y-114117239D01*
X65979468Y-114309838D01*
X65843739Y-114309838D01*
X65780591Y-114246580D01*
X65211107Y-114010110D01*
X64594479Y-114009572D01*
X64024583Y-114245048D01*
X63588180Y-114680689D01*
X63351710Y-115250173D01*
X63351172Y-115866801D01*
X61370530Y-115866801D01*
X61386446Y-115843508D01*
X61446693Y-115546000D01*
X61446693Y-112546000D01*
X61394396Y-112268067D01*
X61230138Y-112012802D01*
X60979508Y-111841554D01*
X60682000Y-111781307D01*
X57682000Y-111781307D01*
X57404067Y-111833604D01*
X57148802Y-111997862D01*
X56977554Y-112248492D01*
X56917307Y-112546000D01*
X56130000Y-112546000D01*
X56130000Y-111248000D01*
X66042416Y-111248000D01*
X66399093Y-111604677D01*
X66635000Y-111368770D01*
X66870907Y-111604677D01*
X67227584Y-111248000D01*
X68580000Y-111248000D01*
X68677264Y-111228304D01*
X68759202Y-111172318D01*
X68812903Y-111088864D01*
X68830000Y-110998000D01*
X68830000Y-107946000D01*
X69404275Y-107946000D01*
X69263180Y-108086849D01*
X69263180Y-108086849D01*
G37*
X69263180Y-108086849D02*
X69026710Y-108656333D01*
X69026172Y-109272961D01*
X69261648Y-109842857D01*
X69697289Y-110279260D01*
X70266773Y-110515730D01*
X70883401Y-110516268D01*
X71453297Y-110280792D01*
X71843771Y-109891000D01*
X71925829Y-109891000D01*
X71868970Y-110027933D01*
X71868432Y-110644561D01*
X72103908Y-111214457D01*
X72539549Y-111650860D01*
X73109033Y-111887330D01*
X73501710Y-111887673D01*
X72935543Y-112121608D01*
X72499140Y-112557249D01*
X72262670Y-113126733D01*
X72262189Y-113678463D01*
X70875526Y-115065126D01*
X70576440Y-115005634D01*
X69983281Y-115123621D01*
X69480424Y-115459618D01*
X69144427Y-115962475D01*
X69026440Y-116555634D01*
X69026440Y-116616366D01*
X69144427Y-117209525D01*
X69480424Y-117712382D01*
X69983281Y-118048379D01*
X70576440Y-118166366D01*
X71169599Y-118048379D01*
X71672456Y-117712382D01*
X72008453Y-117209525D01*
X72126440Y-116616366D01*
X72126440Y-116555634D01*
X72105680Y-116451268D01*
X73570759Y-114986189D01*
X74119361Y-114986668D01*
X74689257Y-114751192D01*
X75125660Y-114315551D01*
X75362130Y-113746067D01*
X75362668Y-113129439D01*
X75329641Y-113049507D01*
X75518418Y-112860730D01*
X75386870Y-113177533D01*
X75386332Y-113794161D01*
X75621808Y-114364057D01*
X76057449Y-114800460D01*
X76626933Y-115036930D01*
X77243561Y-115037468D01*
X77813457Y-114801992D01*
X77970117Y-114645605D01*
X79687781Y-114645605D01*
X79772883Y-114893646D01*
X80382964Y-115003039D01*
X80932917Y-114893646D01*
X81018019Y-114645605D01*
X80352900Y-113980485D01*
X79687781Y-114645605D01*
X77970117Y-114645605D01*
X78249860Y-114366351D01*
X78486330Y-113796867D01*
X78486637Y-113444864D01*
X78764661Y-113444864D01*
X78874054Y-113994817D01*
X79122095Y-114079919D01*
X79787215Y-113414800D01*
X80918585Y-113414800D01*
X81583705Y-114079919D01*
X81831746Y-113994817D01*
X81941139Y-113384736D01*
X81831746Y-112834783D01*
X81583705Y-112749681D01*
X80918585Y-113414800D01*
X79787215Y-113414800D01*
X79122095Y-112749681D01*
X78874054Y-112834783D01*
X78764661Y-113444864D01*
X78486637Y-113444864D01*
X78486868Y-113180239D01*
X78251392Y-112610343D01*
X78089740Y-112448408D01*
X78354153Y-112183995D01*
X79687781Y-112183995D01*
X80352900Y-112849115D01*
X81018019Y-112183995D01*
X80932917Y-111935954D01*
X80322836Y-111826561D01*
X79772883Y-111935954D01*
X79687781Y-112183995D01*
X78354153Y-112183995D01*
X79275548Y-111262600D01*
X79798049Y-111262600D01*
X79912318Y-111433616D01*
X80415175Y-111769613D01*
X81008334Y-111887600D01*
X81069066Y-111887600D01*
X81662225Y-111769613D01*
X82135000Y-111453716D01*
X82135000Y-111613002D01*
X82800939Y-111613002D01*
X83062369Y-111787665D01*
X83293000Y-111671737D01*
X83293000Y-110763000D01*
X82893000Y-110763000D01*
X82893000Y-109963000D01*
X83293000Y-109963000D01*
X83293000Y-109563000D01*
X84093000Y-109563000D01*
X84093000Y-109963000D01*
X84493000Y-109963000D01*
X84493000Y-110763000D01*
X84093000Y-110763000D01*
X84093000Y-111671737D01*
X84323631Y-111787665D01*
X84585061Y-111613002D01*
X85251000Y-111613002D01*
X85251000Y-111565565D01*
X85639841Y-111825379D01*
X86233000Y-111943366D01*
X86826159Y-111825379D01*
X87329016Y-111489382D01*
X87503000Y-111228996D01*
X87676984Y-111489382D01*
X88179841Y-111825379D01*
X88773000Y-111943366D01*
X89366159Y-111825379D01*
X89869016Y-111489382D01*
X90043000Y-111228996D01*
X90216984Y-111489382D01*
X90719841Y-111825379D01*
X91313000Y-111943366D01*
X91906159Y-111825379D01*
X92409016Y-111489382D01*
X92583000Y-111228996D01*
X92756984Y-111489382D01*
X93259841Y-111825379D01*
X93853000Y-111943366D01*
X94446159Y-111825379D01*
X94949016Y-111489382D01*
X95123000Y-111228996D01*
X95296984Y-111489382D01*
X95799841Y-111825379D01*
X96393000Y-111943366D01*
X96986159Y-111825379D01*
X97489016Y-111489382D01*
X97663000Y-111228996D01*
X97836984Y-111489382D01*
X97841591Y-111492461D01*
X96594052Y-112740000D01*
X85609689Y-112740000D01*
X85553774Y-112716782D01*
X85136058Y-112716418D01*
X84750000Y-112875934D01*
X84454372Y-113171046D01*
X84294182Y-113556826D01*
X84293818Y-113974542D01*
X84453334Y-114360600D01*
X84748446Y-114656228D01*
X85134226Y-114816418D01*
X85551942Y-114816782D01*
X85938000Y-114657266D01*
X86005384Y-114590000D01*
X96977200Y-114590000D01*
X97331183Y-114519589D01*
X97631274Y-114319074D01*
X99587074Y-112363274D01*
X99602316Y-112340463D01*
X101911124Y-114649271D01*
X101911126Y-114649274D01*
X102158078Y-114814282D01*
X102211218Y-114849789D01*
X102565200Y-114920201D01*
X102565205Y-114920200D01*
X103937181Y-114920200D01*
X103898263Y-115013925D01*
X103897738Y-115615436D01*
X104127441Y-116171360D01*
X104541708Y-116586351D01*
X104128936Y-116998402D01*
X103898263Y-117553925D01*
X103897738Y-118155436D01*
X104127441Y-118711360D01*
X104541708Y-119126351D01*
X104128936Y-119538402D01*
X103898263Y-120093925D01*
X103897738Y-120695436D01*
X103921812Y-120753700D01*
X103397928Y-120753700D01*
X101676640Y-119032412D01*
X101676640Y-117431820D01*
X101659967Y-117348000D01*
X101606229Y-117077837D01*
X101405714Y-116777746D01*
X100534494Y-115906526D01*
X100234403Y-115706011D01*
X99880420Y-115635600D01*
X97053405Y-115635600D01*
X97053400Y-115635599D01*
X96699418Y-115706011D01*
X96399326Y-115906526D01*
X95755812Y-116550040D01*
X95296984Y-116856618D01*
X95123000Y-117117004D01*
X94949016Y-116856618D01*
X94446159Y-116520621D01*
X93853000Y-116402634D01*
X93259841Y-116520621D01*
X92756984Y-116856618D01*
X92583000Y-117117004D01*
X92409016Y-116856618D01*
X91906159Y-116520621D01*
X91313000Y-116402634D01*
X90719841Y-116520621D01*
X90216984Y-116856618D01*
X90043000Y-117117004D01*
X89869016Y-116856618D01*
X89366159Y-116520621D01*
X88773000Y-116402634D01*
X88179841Y-116520621D01*
X87676984Y-116856618D01*
X87503000Y-117117004D01*
X87329016Y-116856618D01*
X86826159Y-116520621D01*
X86233000Y-116402634D01*
X85639841Y-116520621D01*
X85163024Y-116839219D01*
X85041138Y-116649802D01*
X84790508Y-116478554D01*
X84493000Y-116418307D01*
X82893000Y-116418307D01*
X82615067Y-116470604D01*
X82359802Y-116634862D01*
X82188554Y-116885492D01*
X82128307Y-117183000D01*
X82128307Y-118783000D01*
X82180604Y-119060933D01*
X82344862Y-119316198D01*
X82595492Y-119487446D01*
X82893000Y-119547693D01*
X84493000Y-119547693D01*
X84770933Y-119495396D01*
X85026198Y-119331138D01*
X85164950Y-119128068D01*
X85639841Y-119445379D01*
X86233000Y-119563366D01*
X86826159Y-119445379D01*
X87329016Y-119109382D01*
X87503000Y-118848996D01*
X87676984Y-119109382D01*
X88179841Y-119445379D01*
X88773000Y-119563366D01*
X89366159Y-119445379D01*
X89869016Y-119109382D01*
X90043000Y-118848996D01*
X90216984Y-119109382D01*
X90719841Y-119445379D01*
X91313000Y-119563366D01*
X91906159Y-119445379D01*
X92409016Y-119109382D01*
X92583000Y-118848996D01*
X92756984Y-119109382D01*
X93259841Y-119445379D01*
X93853000Y-119563366D01*
X94446159Y-119445379D01*
X94949016Y-119109382D01*
X95123000Y-118848996D01*
X95296984Y-119109382D01*
X95799841Y-119445379D01*
X96393000Y-119563366D01*
X96986159Y-119445379D01*
X97489016Y-119109382D01*
X97663000Y-118848996D01*
X97683000Y-118878928D01*
X97683000Y-119392700D01*
X97752466Y-119741926D01*
X97778151Y-119871054D01*
X98049117Y-120276583D01*
X101592417Y-123819884D01*
X101870992Y-124006021D01*
X101997946Y-124090849D01*
X102476300Y-124186000D01*
X104521392Y-124186000D01*
X104541708Y-124206351D01*
X104128936Y-124618402D01*
X103898263Y-125173925D01*
X103897738Y-125775436D01*
X104126466Y-126329000D01*
X102491147Y-126329000D01*
X100222074Y-124059926D01*
X99921983Y-123859411D01*
X99568000Y-123789000D01*
X95837496Y-123789000D01*
X95889498Y-123755538D01*
X96060746Y-123504908D01*
X96120993Y-123207400D01*
X96120993Y-122207400D01*
X96068696Y-121929467D01*
X95904438Y-121674202D01*
X95653808Y-121502954D01*
X95356300Y-121442707D01*
X94356300Y-121442707D01*
X94078367Y-121495004D01*
X93823102Y-121659262D01*
X93651854Y-121909892D01*
X93591607Y-122207400D01*
X93591607Y-122727404D01*
X93566284Y-122727382D01*
X93566517Y-122459850D01*
X93376616Y-122000257D01*
X93025293Y-121648319D01*
X92566031Y-121457617D01*
X92068750Y-121457183D01*
X91609157Y-121647084D01*
X91358368Y-121897435D01*
X91327317Y-121903611D01*
X91027226Y-122104126D01*
X88611570Y-124519782D01*
X88255151Y-124162740D01*
X87940294Y-124032000D01*
X88880002Y-124032000D01*
X88880002Y-123511963D01*
X89026264Y-123399861D01*
X89296840Y-122994857D01*
X89205244Y-122724000D01*
X88180000Y-122724000D01*
X88180000Y-123274000D01*
X87080000Y-123274000D01*
X87080000Y-122724000D01*
X86054756Y-122724000D01*
X85963160Y-122994857D01*
X86233736Y-123399861D01*
X86379998Y-123511963D01*
X86379998Y-124032000D01*
X86811851Y-124032000D01*
X86499143Y-124161208D01*
X86062740Y-124596849D01*
X85826270Y-125166333D01*
X85825732Y-125782961D01*
X85956895Y-126100400D01*
X81197505Y-126100400D01*
X81218379Y-126069159D01*
X81336366Y-125476000D01*
X81218379Y-124882841D01*
X80882382Y-124379984D01*
X80379525Y-124043987D01*
X80352910Y-124038693D01*
X81110000Y-124038693D01*
X81387933Y-123986396D01*
X81643198Y-123822138D01*
X81814446Y-123571508D01*
X81874693Y-123274000D01*
X81874693Y-121353143D01*
X85963160Y-121353143D01*
X86054756Y-121624000D01*
X87080000Y-121624000D01*
X87080000Y-120588736D01*
X88180000Y-120588736D01*
X88180000Y-121624000D01*
X89205244Y-121624000D01*
X89296840Y-121353143D01*
X89026264Y-120948139D01*
X88450863Y-120507125D01*
X88180000Y-120588736D01*
X87080000Y-120588736D01*
X86809137Y-120507125D01*
X86233736Y-120948139D01*
X85963160Y-121353143D01*
X81874693Y-121353143D01*
X81874693Y-121074000D01*
X81822396Y-120796067D01*
X81658138Y-120540802D01*
X81407508Y-120369554D01*
X81110000Y-120309307D01*
X78910000Y-120309307D01*
X78632067Y-120361604D01*
X78376802Y-120525862D01*
X78205554Y-120776492D01*
X78145307Y-121074000D01*
X78145307Y-122811159D01*
X77108074Y-121773926D01*
X76807983Y-121573411D01*
X76454000Y-121503000D01*
X71882000Y-121503000D01*
X71528017Y-121573411D01*
X71227926Y-121773926D01*
X69103576Y-123898276D01*
X68834000Y-123844654D01*
X68221707Y-123966447D01*
X67702629Y-124313283D01*
X67564000Y-124520756D01*
X67425371Y-124313283D01*
X66906293Y-123966447D01*
X66294000Y-123844654D01*
X65681707Y-123966447D01*
X65254509Y-124251891D01*
X65152138Y-124092802D01*
X64901508Y-123921554D01*
X64604000Y-123861307D01*
X62904000Y-123861307D01*
X62626067Y-123913604D01*
X62370802Y-124077862D01*
X62226000Y-124289787D01*
X62226000Y-121920000D01*
X62206304Y-121822736D01*
X62150318Y-121740798D01*
X62066864Y-121687097D01*
X61976000Y-121670000D01*
X58107186Y-121670000D01*
X57699247Y-121500609D01*
X56306861Y-121499394D01*
X56130000Y-121572471D01*
X56130000Y-121052961D01*
X58315699Y-121052961D01*
X58509361Y-121327784D01*
X59403149Y-121417592D01*
X59854639Y-121327784D01*
X60048301Y-121052961D01*
X59182000Y-120186660D01*
X58315699Y-121052961D01*
X56130000Y-121052961D01*
X56130000Y-119347149D01*
X56890408Y-119347149D01*
X56980216Y-119798639D01*
X57255039Y-119992301D01*
X58121340Y-119126000D01*
X60242660Y-119126000D01*
X61108961Y-119992301D01*
X61383784Y-119798639D01*
X61393474Y-119702201D01*
X62960652Y-119702201D01*
X63196128Y-120272097D01*
X63631769Y-120708500D01*
X64201253Y-120944970D01*
X64817881Y-120945508D01*
X65387777Y-120710032D01*
X65761189Y-120337272D01*
X66131769Y-120708500D01*
X66701253Y-120944970D01*
X67317881Y-120945508D01*
X67887777Y-120710032D01*
X68324180Y-120274391D01*
X68560650Y-119704907D01*
X68561188Y-119088279D01*
X68418671Y-118743361D01*
X72262132Y-118743361D01*
X72497608Y-119313257D01*
X72933249Y-119749660D01*
X73502733Y-119986130D01*
X74119361Y-119986668D01*
X74689257Y-119751192D01*
X75125660Y-119315551D01*
X75342159Y-118794161D01*
X75386332Y-118794161D01*
X75621808Y-119364057D01*
X76057449Y-119800460D01*
X76626933Y-120036930D01*
X77243561Y-120037468D01*
X77813457Y-119801992D01*
X78249860Y-119366351D01*
X78486330Y-118796867D01*
X78486395Y-118721761D01*
X78802632Y-118721761D01*
X79038108Y-119291657D01*
X79473749Y-119728060D01*
X80043233Y-119964530D01*
X80659861Y-119965068D01*
X81229757Y-119729592D01*
X81666160Y-119293951D01*
X81902630Y-118724467D01*
X81903168Y-118107839D01*
X81667692Y-117537943D01*
X81232051Y-117101540D01*
X80662567Y-116865070D01*
X80045939Y-116864532D01*
X79476043Y-117100008D01*
X79039640Y-117535649D01*
X78803170Y-118105133D01*
X78802632Y-118721761D01*
X78486395Y-118721761D01*
X78486868Y-118180239D01*
X78251392Y-117610343D01*
X77815751Y-117173940D01*
X77246267Y-116937470D01*
X76629639Y-116936932D01*
X76059743Y-117172408D01*
X75623340Y-117608049D01*
X75386870Y-118177533D01*
X75386332Y-118794161D01*
X75342159Y-118794161D01*
X75362130Y-118746067D01*
X75362668Y-118129439D01*
X75127192Y-117559543D01*
X74691551Y-117123140D01*
X74122067Y-116886670D01*
X73505439Y-116886132D01*
X72935543Y-117121608D01*
X72499140Y-117557249D01*
X72262670Y-118126733D01*
X72262132Y-118743361D01*
X68418671Y-118743361D01*
X68325712Y-118518383D01*
X67890071Y-118081980D01*
X67320587Y-117845510D01*
X66703959Y-117844972D01*
X66134063Y-118080448D01*
X65760651Y-118453208D01*
X65390071Y-118081980D01*
X64820587Y-117845510D01*
X64203959Y-117844972D01*
X63634063Y-118080448D01*
X63197660Y-118516089D01*
X62961190Y-119085573D01*
X62960652Y-119702201D01*
X61393474Y-119702201D01*
X61473592Y-118904851D01*
X61383784Y-118453361D01*
X61108961Y-118259699D01*
X60242660Y-119126000D01*
X58121340Y-119126000D01*
X57255039Y-118259699D01*
X56980216Y-118453361D01*
X56890408Y-119347149D01*
X56130000Y-119347149D01*
X56130000Y-117199039D01*
X58315699Y-117199039D01*
X59182000Y-118065340D01*
X60048301Y-117199039D01*
X59854639Y-116924216D01*
X58960851Y-116834408D01*
X58509361Y-116924216D01*
X58315699Y-117199039D01*
X56130000Y-117199039D01*
X56130000Y-112546000D01*
X56917307Y-112546000D01*
X56917307Y-115546000D01*
X56969604Y-115823933D01*
X57133862Y-116079198D01*
X57384492Y-116250446D01*
X57682000Y-116310693D01*
X60682000Y-116310693D01*
X60959933Y-116258396D01*
X61215198Y-116094138D01*
X61370530Y-115866801D01*
X63351172Y-115866801D01*
X63586648Y-116436697D01*
X64022289Y-116873100D01*
X64591773Y-117109570D01*
X65208401Y-117110108D01*
X65778297Y-116874632D01*
X65843440Y-116809603D01*
X65843440Y-116809842D01*
X65979468Y-116809842D01*
X66172067Y-117002441D01*
X66450664Y-117117840D01*
X66811940Y-117117840D01*
X67001440Y-116928340D01*
X67001440Y-115959840D01*
X67801440Y-115959840D01*
X67801440Y-116928340D01*
X67990940Y-117117840D01*
X68352216Y-117117840D01*
X68630813Y-117002441D01*
X68844042Y-116789212D01*
X68959440Y-116510615D01*
X68959440Y-116149340D01*
X68769940Y-115959840D01*
X67801440Y-115959840D01*
X67001440Y-115959840D01*
X66601440Y-115959840D01*
X66601440Y-115159840D01*
X67001440Y-115159840D01*
X67001440Y-114191340D01*
X67801440Y-114191340D01*
X67801440Y-115159840D01*
X68769940Y-115159840D01*
X68959440Y-114970340D01*
X68959440Y-114609065D01*
X68844042Y-114330468D01*
X68630813Y-114117239D01*
X68352216Y-114001840D01*
X67990940Y-114001840D01*
X67801440Y-114191340D01*
X67001440Y-114191340D01*
X66811940Y-114001840D01*
X66450664Y-114001840D01*
X66172067Y-114117239D01*
X65979468Y-114309838D01*
X65843739Y-114309838D01*
X65780591Y-114246580D01*
X65211107Y-114010110D01*
X64594479Y-114009572D01*
X64024583Y-114245048D01*
X63588180Y-114680689D01*
X63351710Y-115250173D01*
X63351172Y-115866801D01*
X61370530Y-115866801D01*
X61386446Y-115843508D01*
X61446693Y-115546000D01*
X61446693Y-112546000D01*
X61394396Y-112268067D01*
X61230138Y-112012802D01*
X60979508Y-111841554D01*
X60682000Y-111781307D01*
X57682000Y-111781307D01*
X57404067Y-111833604D01*
X57148802Y-111997862D01*
X56977554Y-112248492D01*
X56917307Y-112546000D01*
X56130000Y-112546000D01*
X56130000Y-111248000D01*
X66042416Y-111248000D01*
X66399093Y-111604677D01*
X66635000Y-111368770D01*
X66870907Y-111604677D01*
X67227584Y-111248000D01*
X68580000Y-111248000D01*
X68677264Y-111228304D01*
X68759202Y-111172318D01*
X68812903Y-111088864D01*
X68830000Y-110998000D01*
X68830000Y-107946000D01*
X69404275Y-107946000D01*
X69263180Y-108086849D01*
G36*
X122027924Y-96666071D02*
X122027926Y-96666074D01*
X122328018Y-96866589D01*
X122682000Y-96937000D01*
X124643708Y-96937000D01*
X124779600Y-97215936D01*
X124779600Y-103098600D01*
X124790405Y-103152922D01*
X124786109Y-103208145D01*
X124825323Y-103328467D01*
X124850011Y-103452582D01*
X124880783Y-103498635D01*
X124897946Y-103551298D01*
X124980220Y-103647454D01*
X125050526Y-103752674D01*
X125096580Y-103783446D01*
X125132589Y-103825531D01*
X126681989Y-105044731D01*
X126794797Y-105102083D01*
X126900018Y-105172389D01*
X126954340Y-105183194D01*
X127003714Y-105208296D01*
X127129885Y-105218112D01*
X127254000Y-105242800D01*
X127423531Y-105242800D01*
X127349854Y-105613200D01*
X127471647Y-106225493D01*
X127731198Y-106613939D01*
X127731198Y-107168666D01*
X127515959Y-107490831D01*
X127627864Y-107728200D01*
X128556200Y-107728200D01*
X128556200Y-107303200D01*
X129406200Y-107303200D01*
X129406200Y-107728200D01*
X129831200Y-107728200D01*
X129831200Y-108578200D01*
X129406200Y-108578200D01*
X129406200Y-109514550D01*
X129643574Y-109618472D01*
X129944534Y-109403202D01*
X130037353Y-109403202D01*
X130123062Y-109536398D01*
X130373692Y-109707646D01*
X130671200Y-109767893D01*
X132371200Y-109767893D01*
X132649133Y-109715596D01*
X132904398Y-109551338D01*
X133075646Y-109300708D01*
X133135893Y-109003200D01*
X133135893Y-108739369D01*
X136901259Y-108739369D01*
X137193811Y-109177255D01*
X137704126Y-109542272D01*
X137941500Y-109438350D01*
X137941500Y-108502000D01*
X137013164Y-108502000D01*
X136901259Y-108739369D01*
X133135893Y-108739369D01*
X133135893Y-107303200D01*
X133083596Y-107025267D01*
X132919338Y-106770002D01*
X132746042Y-106651594D01*
X133030753Y-106225493D01*
X133074877Y-106003666D01*
X133780183Y-105166600D01*
X136808831Y-105166600D01*
X136735154Y-105537000D01*
X136856947Y-106149293D01*
X137116498Y-106537739D01*
X137116498Y-107092466D01*
X136901259Y-107414631D01*
X137013164Y-107652000D01*
X137941500Y-107652000D01*
X137941500Y-107227000D01*
X138791500Y-107227000D01*
X138791500Y-107652000D01*
X139216500Y-107652000D01*
X139216500Y-108502000D01*
X138791500Y-108502000D01*
X138791500Y-109438350D01*
X139028874Y-109542272D01*
X139329834Y-109327002D01*
X139422653Y-109327002D01*
X139508362Y-109460198D01*
X139758992Y-109631446D01*
X140056500Y-109691693D01*
X141756500Y-109691693D01*
X142034433Y-109639396D01*
X142289698Y-109475138D01*
X142460946Y-109224508D01*
X142521193Y-108927000D01*
X142521193Y-108566649D01*
X145641399Y-108566649D01*
X145933951Y-109004535D01*
X146444266Y-109369552D01*
X146681640Y-109265630D01*
X146681640Y-108329280D01*
X145753304Y-108329280D01*
X145641399Y-108566649D01*
X142521193Y-108566649D01*
X142521193Y-107227000D01*
X142468896Y-106949067D01*
X142304638Y-106693802D01*
X142131342Y-106575394D01*
X142416053Y-106149293D01*
X142427694Y-106090772D01*
X142561189Y-105890982D01*
X142631600Y-105537000D01*
X142579778Y-105276472D01*
X142804257Y-105002427D01*
X145546118Y-105008226D01*
X145475294Y-105364280D01*
X145597087Y-105976573D01*
X145856638Y-106365019D01*
X145856638Y-106919746D01*
X145641399Y-107241911D01*
X145753304Y-107479280D01*
X146681640Y-107479280D01*
X146681640Y-107054280D01*
X147531640Y-107054280D01*
X147531640Y-107479280D01*
X147956640Y-107479280D01*
X147956640Y-108329280D01*
X147531640Y-108329280D01*
X147531640Y-109265630D01*
X147769014Y-109369552D01*
X148069974Y-109154282D01*
X148162793Y-109154282D01*
X148248502Y-109287478D01*
X148499132Y-109458726D01*
X148796640Y-109518973D01*
X150496640Y-109518973D01*
X150774573Y-109466676D01*
X151029838Y-109302418D01*
X151201086Y-109051788D01*
X151261333Y-108754280D01*
X151261333Y-107054280D01*
X151209036Y-106776347D01*
X151044778Y-106521082D01*
X150871482Y-106402674D01*
X151156193Y-105976573D01*
X151277986Y-105364280D01*
X151156193Y-104751987D01*
X150809357Y-104232909D01*
X150601884Y-104094280D01*
X150631816Y-104074280D01*
X151429720Y-104074280D01*
X151908074Y-103979129D01*
X152313603Y-103708163D01*
X153166000Y-102855767D01*
X153166000Y-120654000D01*
X151325900Y-120654000D01*
X151325900Y-120309601D01*
X151389160Y-120246451D01*
X151625630Y-119676967D01*
X151626168Y-119060339D01*
X151390692Y-118490443D01*
X151017932Y-118117031D01*
X151389160Y-117746451D01*
X151625630Y-117176967D01*
X151626168Y-116560339D01*
X151390692Y-115990443D01*
X150955051Y-115554040D01*
X150385567Y-115317570D01*
X149768939Y-115317032D01*
X149199043Y-115552508D01*
X148762640Y-115988149D01*
X148526170Y-116557633D01*
X148525632Y-117174261D01*
X148761108Y-117744157D01*
X149133868Y-118117569D01*
X148762640Y-118488149D01*
X148526170Y-119057633D01*
X148525632Y-119674261D01*
X148761108Y-120244157D01*
X148825900Y-120309062D01*
X148825900Y-120654000D01*
X145542000Y-120654000D01*
X145444736Y-120673696D01*
X145362798Y-120729682D01*
X145309097Y-120813136D01*
X145292000Y-120904000D01*
X145292000Y-121292800D01*
X145205360Y-121292800D01*
X145205360Y-120742800D01*
X144180116Y-120742800D01*
X144088520Y-121013657D01*
X144359096Y-121418661D01*
X144505358Y-121530763D01*
X144505358Y-122050800D01*
X145292000Y-122050800D01*
X145292000Y-123961636D01*
X145162071Y-123767183D01*
X144866248Y-123569521D01*
X144851001Y-123546702D01*
X144684774Y-123297926D01*
X144684771Y-123297924D01*
X142314100Y-120927252D01*
X142314100Y-119371943D01*
X144088520Y-119371943D01*
X144180116Y-119642800D01*
X145205360Y-119642800D01*
X145205360Y-118607536D01*
X146305360Y-118607536D01*
X146305360Y-119642800D01*
X147330604Y-119642800D01*
X147422200Y-119371943D01*
X147151624Y-118966939D01*
X146576223Y-118525925D01*
X146305360Y-118607536D01*
X145205360Y-118607536D01*
X144934497Y-118525925D01*
X144359096Y-118966939D01*
X144088520Y-119371943D01*
X142314100Y-119371943D01*
X142314100Y-118491000D01*
X142301778Y-118429053D01*
X142243689Y-118137017D01*
X142157788Y-118008457D01*
X142418357Y-117900792D01*
X142854760Y-117465151D01*
X143048661Y-116998186D01*
X143093728Y-117107257D01*
X143529369Y-117543660D01*
X144098853Y-117780130D01*
X144715481Y-117780668D01*
X145285377Y-117545192D01*
X145369510Y-117461205D01*
X146243401Y-117461205D01*
X146328503Y-117709246D01*
X146938584Y-117818639D01*
X147488537Y-117709246D01*
X147573639Y-117461205D01*
X146908520Y-116796085D01*
X146243401Y-117461205D01*
X145369510Y-117461205D01*
X145721780Y-117109551D01*
X145905052Y-116668182D01*
X146342835Y-116230400D01*
X147474205Y-116230400D01*
X148139325Y-116895519D01*
X148387366Y-116810417D01*
X148496759Y-116200336D01*
X148387366Y-115650383D01*
X148139325Y-115565281D01*
X147474205Y-116230400D01*
X146342835Y-116230400D01*
X145904510Y-115792075D01*
X145723312Y-115353543D01*
X145369983Y-114999595D01*
X146243401Y-114999595D01*
X146908520Y-115664715D01*
X147573639Y-114999595D01*
X147488537Y-114751554D01*
X146878456Y-114642161D01*
X146328503Y-114751554D01*
X146243401Y-114999595D01*
X145369983Y-114999595D01*
X145287671Y-114917140D01*
X144718187Y-114680670D01*
X144101559Y-114680132D01*
X143531663Y-114915608D01*
X143095260Y-115351249D01*
X142901359Y-115818214D01*
X142856292Y-115709143D01*
X142420651Y-115272740D01*
X141851167Y-115036270D01*
X141234539Y-115035732D01*
X140664643Y-115271208D01*
X140228240Y-115706849D01*
X140060279Y-116111345D01*
X139903200Y-116080100D01*
X139448148Y-116080100D01*
X135528074Y-112160026D01*
X135227983Y-111959511D01*
X134874000Y-111889100D01*
X125389248Y-111889100D01*
X124521400Y-111021252D01*
X124521400Y-108815569D01*
X127515959Y-108815569D01*
X127808511Y-109253455D01*
X128318826Y-109618472D01*
X128556200Y-109514550D01*
X128556200Y-108578200D01*
X127627864Y-108578200D01*
X127515959Y-108815569D01*
X124521400Y-108815569D01*
X124521400Y-100482400D01*
X124450989Y-100128418D01*
X124250474Y-99828326D01*
X122161823Y-97739675D01*
X122162262Y-97236564D01*
X121932559Y-96680640D01*
X121518292Y-96265649D01*
X121572945Y-96211092D01*
X122027924Y-96666071D01*
X122027924Y-96666071D01*
G37*
X122027924Y-96666071D02*
X122027926Y-96666074D01*
X122328018Y-96866589D01*
X122682000Y-96937000D01*
X124643708Y-96937000D01*
X124779600Y-97215936D01*
X124779600Y-103098600D01*
X124790405Y-103152922D01*
X124786109Y-103208145D01*
X124825323Y-103328467D01*
X124850011Y-103452582D01*
X124880783Y-103498635D01*
X124897946Y-103551298D01*
X124980220Y-103647454D01*
X125050526Y-103752674D01*
X125096580Y-103783446D01*
X125132589Y-103825531D01*
X126681989Y-105044731D01*
X126794797Y-105102083D01*
X126900018Y-105172389D01*
X126954340Y-105183194D01*
X127003714Y-105208296D01*
X127129885Y-105218112D01*
X127254000Y-105242800D01*
X127423531Y-105242800D01*
X127349854Y-105613200D01*
X127471647Y-106225493D01*
X127731198Y-106613939D01*
X127731198Y-107168666D01*
X127515959Y-107490831D01*
X127627864Y-107728200D01*
X128556200Y-107728200D01*
X128556200Y-107303200D01*
X129406200Y-107303200D01*
X129406200Y-107728200D01*
X129831200Y-107728200D01*
X129831200Y-108578200D01*
X129406200Y-108578200D01*
X129406200Y-109514550D01*
X129643574Y-109618472D01*
X129944534Y-109403202D01*
X130037353Y-109403202D01*
X130123062Y-109536398D01*
X130373692Y-109707646D01*
X130671200Y-109767893D01*
X132371200Y-109767893D01*
X132649133Y-109715596D01*
X132904398Y-109551338D01*
X133075646Y-109300708D01*
X133135893Y-109003200D01*
X133135893Y-108739369D01*
X136901259Y-108739369D01*
X137193811Y-109177255D01*
X137704126Y-109542272D01*
X137941500Y-109438350D01*
X137941500Y-108502000D01*
X137013164Y-108502000D01*
X136901259Y-108739369D01*
X133135893Y-108739369D01*
X133135893Y-107303200D01*
X133083596Y-107025267D01*
X132919338Y-106770002D01*
X132746042Y-106651594D01*
X133030753Y-106225493D01*
X133074877Y-106003666D01*
X133780183Y-105166600D01*
X136808831Y-105166600D01*
X136735154Y-105537000D01*
X136856947Y-106149293D01*
X137116498Y-106537739D01*
X137116498Y-107092466D01*
X136901259Y-107414631D01*
X137013164Y-107652000D01*
X137941500Y-107652000D01*
X137941500Y-107227000D01*
X138791500Y-107227000D01*
X138791500Y-107652000D01*
X139216500Y-107652000D01*
X139216500Y-108502000D01*
X138791500Y-108502000D01*
X138791500Y-109438350D01*
X139028874Y-109542272D01*
X139329834Y-109327002D01*
X139422653Y-109327002D01*
X139508362Y-109460198D01*
X139758992Y-109631446D01*
X140056500Y-109691693D01*
X141756500Y-109691693D01*
X142034433Y-109639396D01*
X142289698Y-109475138D01*
X142460946Y-109224508D01*
X142521193Y-108927000D01*
X142521193Y-108566649D01*
X145641399Y-108566649D01*
X145933951Y-109004535D01*
X146444266Y-109369552D01*
X146681640Y-109265630D01*
X146681640Y-108329280D01*
X145753304Y-108329280D01*
X145641399Y-108566649D01*
X142521193Y-108566649D01*
X142521193Y-107227000D01*
X142468896Y-106949067D01*
X142304638Y-106693802D01*
X142131342Y-106575394D01*
X142416053Y-106149293D01*
X142427694Y-106090772D01*
X142561189Y-105890982D01*
X142631600Y-105537000D01*
X142579778Y-105276472D01*
X142804257Y-105002427D01*
X145546118Y-105008226D01*
X145475294Y-105364280D01*
X145597087Y-105976573D01*
X145856638Y-106365019D01*
X145856638Y-106919746D01*
X145641399Y-107241911D01*
X145753304Y-107479280D01*
X146681640Y-107479280D01*
X146681640Y-107054280D01*
X147531640Y-107054280D01*
X147531640Y-107479280D01*
X147956640Y-107479280D01*
X147956640Y-108329280D01*
X147531640Y-108329280D01*
X147531640Y-109265630D01*
X147769014Y-109369552D01*
X148069974Y-109154282D01*
X148162793Y-109154282D01*
X148248502Y-109287478D01*
X148499132Y-109458726D01*
X148796640Y-109518973D01*
X150496640Y-109518973D01*
X150774573Y-109466676D01*
X151029838Y-109302418D01*
X151201086Y-109051788D01*
X151261333Y-108754280D01*
X151261333Y-107054280D01*
X151209036Y-106776347D01*
X151044778Y-106521082D01*
X150871482Y-106402674D01*
X151156193Y-105976573D01*
X151277986Y-105364280D01*
X151156193Y-104751987D01*
X150809357Y-104232909D01*
X150601884Y-104094280D01*
X150631816Y-104074280D01*
X151429720Y-104074280D01*
X151908074Y-103979129D01*
X152313603Y-103708163D01*
X153166000Y-102855767D01*
X153166000Y-120654000D01*
X151325900Y-120654000D01*
X151325900Y-120309601D01*
X151389160Y-120246451D01*
X151625630Y-119676967D01*
X151626168Y-119060339D01*
X151390692Y-118490443D01*
X151017932Y-118117031D01*
X151389160Y-117746451D01*
X151625630Y-117176967D01*
X151626168Y-116560339D01*
X151390692Y-115990443D01*
X150955051Y-115554040D01*
X150385567Y-115317570D01*
X149768939Y-115317032D01*
X149199043Y-115552508D01*
X148762640Y-115988149D01*
X148526170Y-116557633D01*
X148525632Y-117174261D01*
X148761108Y-117744157D01*
X149133868Y-118117569D01*
X148762640Y-118488149D01*
X148526170Y-119057633D01*
X148525632Y-119674261D01*
X148761108Y-120244157D01*
X148825900Y-120309062D01*
X148825900Y-120654000D01*
X145542000Y-120654000D01*
X145444736Y-120673696D01*
X145362798Y-120729682D01*
X145309097Y-120813136D01*
X145292000Y-120904000D01*
X145292000Y-121292800D01*
X145205360Y-121292800D01*
X145205360Y-120742800D01*
X144180116Y-120742800D01*
X144088520Y-121013657D01*
X144359096Y-121418661D01*
X144505358Y-121530763D01*
X144505358Y-122050800D01*
X145292000Y-122050800D01*
X145292000Y-123961636D01*
X145162071Y-123767183D01*
X144866248Y-123569521D01*
X144851001Y-123546702D01*
X144684774Y-123297926D01*
X144684771Y-123297924D01*
X142314100Y-120927252D01*
X142314100Y-119371943D01*
X144088520Y-119371943D01*
X144180116Y-119642800D01*
X145205360Y-119642800D01*
X145205360Y-118607536D01*
X146305360Y-118607536D01*
X146305360Y-119642800D01*
X147330604Y-119642800D01*
X147422200Y-119371943D01*
X147151624Y-118966939D01*
X146576223Y-118525925D01*
X146305360Y-118607536D01*
X145205360Y-118607536D01*
X144934497Y-118525925D01*
X144359096Y-118966939D01*
X144088520Y-119371943D01*
X142314100Y-119371943D01*
X142314100Y-118491000D01*
X142301778Y-118429053D01*
X142243689Y-118137017D01*
X142157788Y-118008457D01*
X142418357Y-117900792D01*
X142854760Y-117465151D01*
X143048661Y-116998186D01*
X143093728Y-117107257D01*
X143529369Y-117543660D01*
X144098853Y-117780130D01*
X144715481Y-117780668D01*
X145285377Y-117545192D01*
X145369510Y-117461205D01*
X146243401Y-117461205D01*
X146328503Y-117709246D01*
X146938584Y-117818639D01*
X147488537Y-117709246D01*
X147573639Y-117461205D01*
X146908520Y-116796085D01*
X146243401Y-117461205D01*
X145369510Y-117461205D01*
X145721780Y-117109551D01*
X145905052Y-116668182D01*
X146342835Y-116230400D01*
X147474205Y-116230400D01*
X148139325Y-116895519D01*
X148387366Y-116810417D01*
X148496759Y-116200336D01*
X148387366Y-115650383D01*
X148139325Y-115565281D01*
X147474205Y-116230400D01*
X146342835Y-116230400D01*
X145904510Y-115792075D01*
X145723312Y-115353543D01*
X145369983Y-114999595D01*
X146243401Y-114999595D01*
X146908520Y-115664715D01*
X147573639Y-114999595D01*
X147488537Y-114751554D01*
X146878456Y-114642161D01*
X146328503Y-114751554D01*
X146243401Y-114999595D01*
X145369983Y-114999595D01*
X145287671Y-114917140D01*
X144718187Y-114680670D01*
X144101559Y-114680132D01*
X143531663Y-114915608D01*
X143095260Y-115351249D01*
X142901359Y-115818214D01*
X142856292Y-115709143D01*
X142420651Y-115272740D01*
X141851167Y-115036270D01*
X141234539Y-115035732D01*
X140664643Y-115271208D01*
X140228240Y-115706849D01*
X140060279Y-116111345D01*
X139903200Y-116080100D01*
X139448148Y-116080100D01*
X135528074Y-112160026D01*
X135227983Y-111959511D01*
X134874000Y-111889100D01*
X125389248Y-111889100D01*
X124521400Y-111021252D01*
X124521400Y-108815569D01*
X127515959Y-108815569D01*
X127808511Y-109253455D01*
X128318826Y-109618472D01*
X128556200Y-109514550D01*
X128556200Y-108578200D01*
X127627864Y-108578200D01*
X127515959Y-108815569D01*
X124521400Y-108815569D01*
X124521400Y-100482400D01*
X124450989Y-100128418D01*
X124250474Y-99828326D01*
X122161823Y-97739675D01*
X122162262Y-97236564D01*
X121932559Y-96680640D01*
X121518292Y-96265649D01*
X121572945Y-96211092D01*
X122027924Y-96666071D01*
G36*
X73727106Y-103407835D02*
X73726194Y-103412418D01*
X73700200Y-103543100D01*
X73700200Y-104750471D01*
X73536443Y-104914228D01*
X73253600Y-104631385D01*
X72970757Y-104914228D01*
X72640000Y-104583471D01*
X72640000Y-104113615D01*
X72687915Y-104065700D01*
X72640000Y-104017785D01*
X72640000Y-103547929D01*
X72970757Y-103217172D01*
X73253600Y-103500015D01*
X73536443Y-103217172D01*
X73727106Y-103407835D01*
X73727106Y-103407835D01*
G37*
X73727106Y-103407835D02*
X73726194Y-103412418D01*
X73700200Y-103543100D01*
X73700200Y-104750471D01*
X73536443Y-104914228D01*
X73253600Y-104631385D01*
X72970757Y-104914228D01*
X72640000Y-104583471D01*
X72640000Y-104113615D01*
X72687915Y-104065700D01*
X72640000Y-104017785D01*
X72640000Y-103547929D01*
X72970757Y-103217172D01*
X73253600Y-103500015D01*
X73536443Y-103217172D01*
X73727106Y-103407835D01*
G36*
X130153518Y-82007716D02*
X130656375Y-82343713D01*
X131249534Y-82461700D01*
X131310266Y-82461700D01*
X131903425Y-82343713D01*
X132167270Y-82167418D01*
X133457926Y-83458074D01*
X133758017Y-83658589D01*
X134112000Y-83729000D01*
X135978279Y-83729000D01*
X135909654Y-84074000D01*
X136031447Y-84686293D01*
X136290998Y-85074739D01*
X136290998Y-85629466D01*
X136075759Y-85951631D01*
X136187664Y-86189000D01*
X137116000Y-86189000D01*
X137116000Y-85764000D01*
X137966000Y-85764000D01*
X137966000Y-86189000D01*
X138391000Y-86189000D01*
X138391000Y-87039000D01*
X137966000Y-87039000D01*
X137966000Y-87975350D01*
X138203374Y-88079272D01*
X138504334Y-87864002D01*
X138597153Y-87864002D01*
X138682862Y-87997198D01*
X138933492Y-88168446D01*
X139231000Y-88228693D01*
X140931000Y-88228693D01*
X141208933Y-88176396D01*
X141464198Y-88012138D01*
X141635446Y-87761508D01*
X141695693Y-87464000D01*
X141695693Y-85764000D01*
X141643396Y-85486067D01*
X141479138Y-85230802D01*
X141305842Y-85112394D01*
X141590553Y-84686293D01*
X141712346Y-84074000D01*
X141643721Y-83729000D01*
X145376279Y-83729000D01*
X145307654Y-84074000D01*
X145429447Y-84686293D01*
X145688998Y-85074739D01*
X145688998Y-85629466D01*
X145473759Y-85951631D01*
X145585664Y-86189000D01*
X146514000Y-86189000D01*
X146514000Y-85764000D01*
X147364000Y-85764000D01*
X147364000Y-86189000D01*
X147789000Y-86189000D01*
X147789000Y-87039000D01*
X147364000Y-87039000D01*
X147364000Y-87975350D01*
X147601374Y-88079272D01*
X147902334Y-87864002D01*
X147995153Y-87864002D01*
X148080862Y-87997198D01*
X148331492Y-88168446D01*
X148629000Y-88228693D01*
X150329000Y-88228693D01*
X150606933Y-88176396D01*
X150862198Y-88012138D01*
X151033446Y-87761508D01*
X151093693Y-87464000D01*
X151093693Y-85764000D01*
X151041396Y-85486067D01*
X150877138Y-85230802D01*
X150703842Y-85112394D01*
X150988553Y-84686293D01*
X151110346Y-84074000D01*
X150988553Y-83461707D01*
X150641717Y-82942629D01*
X150434244Y-82804000D01*
X150464176Y-82784000D01*
X151374234Y-82784000D01*
X151404000Y-82813767D01*
X151404000Y-90952000D01*
X145043767Y-90952000D01*
X144648240Y-90556474D01*
X144648240Y-87276369D01*
X145473759Y-87276369D01*
X145766311Y-87714255D01*
X146276626Y-88079272D01*
X146514000Y-87975350D01*
X146514000Y-87039000D01*
X145585664Y-87039000D01*
X145473759Y-87276369D01*
X144648240Y-87276369D01*
X144648240Y-87182960D01*
X144553089Y-86704606D01*
X144469028Y-86578800D01*
X144282123Y-86299076D01*
X144271963Y-86288917D01*
X143866434Y-86017951D01*
X143388080Y-85922801D01*
X142909726Y-86017951D01*
X142504197Y-86288917D01*
X142233231Y-86694446D01*
X142138081Y-87172800D01*
X142148240Y-87223873D01*
X142148240Y-96189800D01*
X142243391Y-96668154D01*
X142514357Y-97073683D01*
X142919886Y-97344649D01*
X143398240Y-97439800D01*
X143876594Y-97344649D01*
X144282123Y-97073683D01*
X144553089Y-96668154D01*
X144648240Y-96189800D01*
X144648240Y-93452000D01*
X151404000Y-93452000D01*
X151404000Y-101082233D01*
X150911954Y-101574280D01*
X150631816Y-101574280D01*
X150601884Y-101554280D01*
X150809357Y-101415651D01*
X151156193Y-100896573D01*
X151277986Y-100284280D01*
X151156193Y-99671987D01*
X150896642Y-99283541D01*
X150896642Y-98728814D01*
X151111881Y-98406649D01*
X150999976Y-98169280D01*
X150071640Y-98169280D01*
X150071640Y-98594280D01*
X149264788Y-98594280D01*
X149221640Y-98551132D01*
X149221640Y-98169280D01*
X148796640Y-98169280D01*
X148796640Y-97319280D01*
X149221640Y-97319280D01*
X149221640Y-96382930D01*
X150071640Y-96382930D01*
X150071640Y-97319280D01*
X150999976Y-97319280D01*
X151111881Y-97081911D01*
X150819329Y-96644025D01*
X150309014Y-96279008D01*
X150071640Y-96382930D01*
X149221640Y-96382930D01*
X148984266Y-96279008D01*
X148683306Y-96494278D01*
X148091813Y-96494278D01*
X147750279Y-96266073D01*
X147137986Y-96144280D01*
X147075294Y-96144280D01*
X146463001Y-96266073D01*
X145943923Y-96612909D01*
X145597087Y-97131987D01*
X145475294Y-97744280D01*
X145543276Y-98086046D01*
X141735532Y-98071507D01*
X141678915Y-98082544D01*
X141621399Y-98078136D01*
X141503271Y-98116785D01*
X141381284Y-98140566D01*
X141333201Y-98172429D01*
X141278375Y-98190367D01*
X141184032Y-98271278D01*
X141080428Y-98339933D01*
X141048197Y-98387774D01*
X141004412Y-98425325D01*
X140860982Y-98608034D01*
X140760474Y-98507526D01*
X140460383Y-98307011D01*
X140106400Y-98236600D01*
X140056500Y-98236600D01*
X140056500Y-97492000D01*
X140481500Y-97492000D01*
X140481500Y-96555650D01*
X141331500Y-96555650D01*
X141331500Y-97492000D01*
X142259836Y-97492000D01*
X142371741Y-97254631D01*
X142079189Y-96816745D01*
X141568874Y-96451728D01*
X141331500Y-96555650D01*
X140481500Y-96555650D01*
X140244126Y-96451728D01*
X139943166Y-96666998D01*
X139351673Y-96666998D01*
X139010139Y-96438793D01*
X138397846Y-96317000D01*
X138335154Y-96317000D01*
X137722861Y-96438793D01*
X137203783Y-96785629D01*
X136856947Y-97304707D01*
X136735154Y-97917000D01*
X136798727Y-98236600D01*
X132676900Y-98236600D01*
X132637793Y-98244379D01*
X132598167Y-98239957D01*
X132461977Y-98279351D01*
X132322918Y-98307011D01*
X132289764Y-98329164D01*
X132251462Y-98340243D01*
X132153921Y-98418200D01*
X131946200Y-98418200D01*
X131946200Y-98593258D01*
X131735600Y-98843200D01*
X131096200Y-98843200D01*
X131096200Y-98418200D01*
X130671200Y-98418200D01*
X130671200Y-97568200D01*
X131096200Y-97568200D01*
X131096200Y-96631850D01*
X131946200Y-96631850D01*
X131946200Y-97568200D01*
X132874536Y-97568200D01*
X132986441Y-97330831D01*
X132693889Y-96892945D01*
X132183574Y-96527928D01*
X131946200Y-96631850D01*
X131096200Y-96631850D01*
X130858826Y-96527928D01*
X130557866Y-96743198D01*
X129966373Y-96743198D01*
X129624839Y-96514993D01*
X129012546Y-96393200D01*
X128949854Y-96393200D01*
X128337561Y-96514993D01*
X127818483Y-96861829D01*
X127471647Y-97380907D01*
X127349854Y-97993200D01*
X127471647Y-98605493D01*
X127818483Y-99124571D01*
X128025956Y-99263200D01*
X127818483Y-99401829D01*
X127471647Y-99920907D01*
X127349854Y-100533200D01*
X127471647Y-101145493D01*
X127818483Y-101664571D01*
X128025956Y-101803200D01*
X127818483Y-101941829D01*
X127471647Y-102460907D01*
X127349854Y-103073200D01*
X127383574Y-103242722D01*
X126629600Y-102649431D01*
X126629600Y-97002600D01*
X126624053Y-96974714D01*
X126627900Y-96946542D01*
X126589027Y-96798626D01*
X126559189Y-96648618D01*
X126543391Y-96624975D01*
X126536165Y-96597478D01*
X126053566Y-95606878D01*
X125961042Y-95485090D01*
X125876074Y-95357926D01*
X125852434Y-95342130D01*
X125835234Y-95319490D01*
X125703152Y-95242383D01*
X125575982Y-95157411D01*
X125548095Y-95151864D01*
X125523541Y-95137530D01*
X125372007Y-95116838D01*
X125222000Y-95087000D01*
X123099000Y-95087000D01*
X123099000Y-93347325D01*
X123437339Y-93788764D01*
X123842343Y-94059340D01*
X124113200Y-93967744D01*
X124113200Y-92942500D01*
X123077936Y-92942500D01*
X123057615Y-93009943D01*
X123028589Y-92864018D01*
X122828074Y-92563926D01*
X122715068Y-92450920D01*
X123323487Y-91842500D01*
X124113200Y-91842500D01*
X124113200Y-90817256D01*
X125213200Y-90817256D01*
X125213200Y-91842500D01*
X125763200Y-91842500D01*
X125763200Y-92942500D01*
X125213200Y-92942500D01*
X125213200Y-93967744D01*
X125484057Y-94059340D01*
X125889061Y-93788764D01*
X126001163Y-93642502D01*
X126521200Y-93642502D01*
X126521200Y-93362512D01*
X126771352Y-93736892D01*
X127371536Y-94137921D01*
X128079500Y-94278744D01*
X128787464Y-94137921D01*
X129387648Y-93736892D01*
X129719965Y-93239544D01*
X130009852Y-93673392D01*
X130610036Y-94074421D01*
X131318000Y-94215244D01*
X132025964Y-94074421D01*
X132626148Y-93673392D01*
X133027177Y-93073208D01*
X133105550Y-92679203D01*
X133218208Y-92951857D01*
X133653849Y-93388260D01*
X134223333Y-93624730D01*
X134839961Y-93625268D01*
X135409857Y-93389792D01*
X135493990Y-93305805D01*
X136367881Y-93305805D01*
X136452983Y-93553846D01*
X137063064Y-93663239D01*
X137613017Y-93553846D01*
X137698119Y-93305805D01*
X137033000Y-92640685D01*
X136367881Y-93305805D01*
X135493990Y-93305805D01*
X135846260Y-92954151D01*
X136029532Y-92512782D01*
X136467315Y-92075000D01*
X137598685Y-92075000D01*
X138263805Y-92740119D01*
X138511846Y-92655017D01*
X138621239Y-92044936D01*
X138511846Y-91494983D01*
X138263805Y-91409881D01*
X137598685Y-92075000D01*
X136467315Y-92075000D01*
X136028990Y-91636675D01*
X135847792Y-91198143D01*
X135494463Y-90844195D01*
X136367881Y-90844195D01*
X137033000Y-91509315D01*
X137698119Y-90844195D01*
X137613017Y-90596154D01*
X137002936Y-90486761D01*
X136452983Y-90596154D01*
X136367881Y-90844195D01*
X135494463Y-90844195D01*
X135412151Y-90761740D01*
X134842667Y-90525270D01*
X134226039Y-90524732D01*
X133656143Y-90760208D01*
X133219740Y-91195849D01*
X133037237Y-91635366D01*
X133027177Y-91584792D01*
X132626148Y-90984608D01*
X132025964Y-90583579D01*
X131318000Y-90442756D01*
X130610036Y-90583579D01*
X130009852Y-90984608D01*
X129677535Y-91481956D01*
X129387648Y-91048108D01*
X128787464Y-90647079D01*
X128079500Y-90506256D01*
X127371536Y-90647079D01*
X126771352Y-91048108D01*
X126521200Y-91422488D01*
X126521200Y-91142498D01*
X126001163Y-91142498D01*
X125889061Y-90996236D01*
X125484057Y-90725660D01*
X125213200Y-90817256D01*
X124113200Y-90817256D01*
X123902999Y-90746172D01*
X127017070Y-87767594D01*
X127023074Y-87759027D01*
X127031774Y-87753214D01*
X127126430Y-87611552D01*
X127224207Y-87472036D01*
X127226476Y-87461822D01*
X127232289Y-87453122D01*
X127265530Y-87286010D01*
X127267671Y-87276369D01*
X136075759Y-87276369D01*
X136368311Y-87714255D01*
X136878626Y-88079272D01*
X137116000Y-87975350D01*
X137116000Y-87039000D01*
X136187664Y-87039000D01*
X136075759Y-87276369D01*
X127267671Y-87276369D01*
X127302471Y-87119706D01*
X127300659Y-87109403D01*
X127302700Y-87099140D01*
X127302700Y-86637193D01*
X129179500Y-86637193D01*
X129457433Y-86584896D01*
X129712698Y-86420638D01*
X129735602Y-86387116D01*
X129920492Y-86513446D01*
X130218000Y-86573693D01*
X132418000Y-86573693D01*
X132695933Y-86521396D01*
X132951198Y-86357138D01*
X133122446Y-86106508D01*
X133182693Y-85809000D01*
X133182693Y-83609000D01*
X133130396Y-83331067D01*
X132966138Y-83075802D01*
X132715508Y-82904554D01*
X132418000Y-82844307D01*
X130218000Y-82844307D01*
X129940067Y-82896604D01*
X129684802Y-83060862D01*
X129661898Y-83094384D01*
X129477008Y-82968054D01*
X129179500Y-82907807D01*
X127312706Y-82907807D01*
X127313365Y-82802344D01*
X128090590Y-81836700D01*
X130039249Y-81836700D01*
X130153518Y-82007716D01*
X130153518Y-82007716D01*
G37*
X130153518Y-82007716D02*
X130656375Y-82343713D01*
X131249534Y-82461700D01*
X131310266Y-82461700D01*
X131903425Y-82343713D01*
X132167270Y-82167418D01*
X133457926Y-83458074D01*
X133758017Y-83658589D01*
X134112000Y-83729000D01*
X135978279Y-83729000D01*
X135909654Y-84074000D01*
X136031447Y-84686293D01*
X136290998Y-85074739D01*
X136290998Y-85629466D01*
X136075759Y-85951631D01*
X136187664Y-86189000D01*
X137116000Y-86189000D01*
X137116000Y-85764000D01*
X137966000Y-85764000D01*
X137966000Y-86189000D01*
X138391000Y-86189000D01*
X138391000Y-87039000D01*
X137966000Y-87039000D01*
X137966000Y-87975350D01*
X138203374Y-88079272D01*
X138504334Y-87864002D01*
X138597153Y-87864002D01*
X138682862Y-87997198D01*
X138933492Y-88168446D01*
X139231000Y-88228693D01*
X140931000Y-88228693D01*
X141208933Y-88176396D01*
X141464198Y-88012138D01*
X141635446Y-87761508D01*
X141695693Y-87464000D01*
X141695693Y-85764000D01*
X141643396Y-85486067D01*
X141479138Y-85230802D01*
X141305842Y-85112394D01*
X141590553Y-84686293D01*
X141712346Y-84074000D01*
X141643721Y-83729000D01*
X145376279Y-83729000D01*
X145307654Y-84074000D01*
X145429447Y-84686293D01*
X145688998Y-85074739D01*
X145688998Y-85629466D01*
X145473759Y-85951631D01*
X145585664Y-86189000D01*
X146514000Y-86189000D01*
X146514000Y-85764000D01*
X147364000Y-85764000D01*
X147364000Y-86189000D01*
X147789000Y-86189000D01*
X147789000Y-87039000D01*
X147364000Y-87039000D01*
X147364000Y-87975350D01*
X147601374Y-88079272D01*
X147902334Y-87864002D01*
X147995153Y-87864002D01*
X148080862Y-87997198D01*
X148331492Y-88168446D01*
X148629000Y-88228693D01*
X150329000Y-88228693D01*
X150606933Y-88176396D01*
X150862198Y-88012138D01*
X151033446Y-87761508D01*
X151093693Y-87464000D01*
X151093693Y-85764000D01*
X151041396Y-85486067D01*
X150877138Y-85230802D01*
X150703842Y-85112394D01*
X150988553Y-84686293D01*
X151110346Y-84074000D01*
X150988553Y-83461707D01*
X150641717Y-82942629D01*
X150434244Y-82804000D01*
X150464176Y-82784000D01*
X151374234Y-82784000D01*
X151404000Y-82813767D01*
X151404000Y-90952000D01*
X145043767Y-90952000D01*
X144648240Y-90556474D01*
X144648240Y-87276369D01*
X145473759Y-87276369D01*
X145766311Y-87714255D01*
X146276626Y-88079272D01*
X146514000Y-87975350D01*
X146514000Y-87039000D01*
X145585664Y-87039000D01*
X145473759Y-87276369D01*
X144648240Y-87276369D01*
X144648240Y-87182960D01*
X144553089Y-86704606D01*
X144469028Y-86578800D01*
X144282123Y-86299076D01*
X144271963Y-86288917D01*
X143866434Y-86017951D01*
X143388080Y-85922801D01*
X142909726Y-86017951D01*
X142504197Y-86288917D01*
X142233231Y-86694446D01*
X142138081Y-87172800D01*
X142148240Y-87223873D01*
X142148240Y-96189800D01*
X142243391Y-96668154D01*
X142514357Y-97073683D01*
X142919886Y-97344649D01*
X143398240Y-97439800D01*
X143876594Y-97344649D01*
X144282123Y-97073683D01*
X144553089Y-96668154D01*
X144648240Y-96189800D01*
X144648240Y-93452000D01*
X151404000Y-93452000D01*
X151404000Y-101082233D01*
X150911954Y-101574280D01*
X150631816Y-101574280D01*
X150601884Y-101554280D01*
X150809357Y-101415651D01*
X151156193Y-100896573D01*
X151277986Y-100284280D01*
X151156193Y-99671987D01*
X150896642Y-99283541D01*
X150896642Y-98728814D01*
X151111881Y-98406649D01*
X150999976Y-98169280D01*
X150071640Y-98169280D01*
X150071640Y-98594280D01*
X149264788Y-98594280D01*
X149221640Y-98551132D01*
X149221640Y-98169280D01*
X148796640Y-98169280D01*
X148796640Y-97319280D01*
X149221640Y-97319280D01*
X149221640Y-96382930D01*
X150071640Y-96382930D01*
X150071640Y-97319280D01*
X150999976Y-97319280D01*
X151111881Y-97081911D01*
X150819329Y-96644025D01*
X150309014Y-96279008D01*
X150071640Y-96382930D01*
X149221640Y-96382930D01*
X148984266Y-96279008D01*
X148683306Y-96494278D01*
X148091813Y-96494278D01*
X147750279Y-96266073D01*
X147137986Y-96144280D01*
X147075294Y-96144280D01*
X146463001Y-96266073D01*
X145943923Y-96612909D01*
X145597087Y-97131987D01*
X145475294Y-97744280D01*
X145543276Y-98086046D01*
X141735532Y-98071507D01*
X141678915Y-98082544D01*
X141621399Y-98078136D01*
X141503271Y-98116785D01*
X141381284Y-98140566D01*
X141333201Y-98172429D01*
X141278375Y-98190367D01*
X141184032Y-98271278D01*
X141080428Y-98339933D01*
X141048197Y-98387774D01*
X141004412Y-98425325D01*
X140860982Y-98608034D01*
X140760474Y-98507526D01*
X140460383Y-98307011D01*
X140106400Y-98236600D01*
X140056500Y-98236600D01*
X140056500Y-97492000D01*
X140481500Y-97492000D01*
X140481500Y-96555650D01*
X141331500Y-96555650D01*
X141331500Y-97492000D01*
X142259836Y-97492000D01*
X142371741Y-97254631D01*
X142079189Y-96816745D01*
X141568874Y-96451728D01*
X141331500Y-96555650D01*
X140481500Y-96555650D01*
X140244126Y-96451728D01*
X139943166Y-96666998D01*
X139351673Y-96666998D01*
X139010139Y-96438793D01*
X138397846Y-96317000D01*
X138335154Y-96317000D01*
X137722861Y-96438793D01*
X137203783Y-96785629D01*
X136856947Y-97304707D01*
X136735154Y-97917000D01*
X136798727Y-98236600D01*
X132676900Y-98236600D01*
X132637793Y-98244379D01*
X132598167Y-98239957D01*
X132461977Y-98279351D01*
X132322918Y-98307011D01*
X132289764Y-98329164D01*
X132251462Y-98340243D01*
X132153921Y-98418200D01*
X131946200Y-98418200D01*
X131946200Y-98593258D01*
X131735600Y-98843200D01*
X131096200Y-98843200D01*
X131096200Y-98418200D01*
X130671200Y-98418200D01*
X130671200Y-97568200D01*
X131096200Y-97568200D01*
X131096200Y-96631850D01*
X131946200Y-96631850D01*
X131946200Y-97568200D01*
X132874536Y-97568200D01*
X132986441Y-97330831D01*
X132693889Y-96892945D01*
X132183574Y-96527928D01*
X131946200Y-96631850D01*
X131096200Y-96631850D01*
X130858826Y-96527928D01*
X130557866Y-96743198D01*
X129966373Y-96743198D01*
X129624839Y-96514993D01*
X129012546Y-96393200D01*
X128949854Y-96393200D01*
X128337561Y-96514993D01*
X127818483Y-96861829D01*
X127471647Y-97380907D01*
X127349854Y-97993200D01*
X127471647Y-98605493D01*
X127818483Y-99124571D01*
X128025956Y-99263200D01*
X127818483Y-99401829D01*
X127471647Y-99920907D01*
X127349854Y-100533200D01*
X127471647Y-101145493D01*
X127818483Y-101664571D01*
X128025956Y-101803200D01*
X127818483Y-101941829D01*
X127471647Y-102460907D01*
X127349854Y-103073200D01*
X127383574Y-103242722D01*
X126629600Y-102649431D01*
X126629600Y-97002600D01*
X126624053Y-96974714D01*
X126627900Y-96946542D01*
X126589027Y-96798626D01*
X126559189Y-96648618D01*
X126543391Y-96624975D01*
X126536165Y-96597478D01*
X126053566Y-95606878D01*
X125961042Y-95485090D01*
X125876074Y-95357926D01*
X125852434Y-95342130D01*
X125835234Y-95319490D01*
X125703152Y-95242383D01*
X125575982Y-95157411D01*
X125548095Y-95151864D01*
X125523541Y-95137530D01*
X125372007Y-95116838D01*
X125222000Y-95087000D01*
X123099000Y-95087000D01*
X123099000Y-93347325D01*
X123437339Y-93788764D01*
X123842343Y-94059340D01*
X124113200Y-93967744D01*
X124113200Y-92942500D01*
X123077936Y-92942500D01*
X123057615Y-93009943D01*
X123028589Y-92864018D01*
X122828074Y-92563926D01*
X122715068Y-92450920D01*
X123323487Y-91842500D01*
X124113200Y-91842500D01*
X124113200Y-90817256D01*
X125213200Y-90817256D01*
X125213200Y-91842500D01*
X125763200Y-91842500D01*
X125763200Y-92942500D01*
X125213200Y-92942500D01*
X125213200Y-93967744D01*
X125484057Y-94059340D01*
X125889061Y-93788764D01*
X126001163Y-93642502D01*
X126521200Y-93642502D01*
X126521200Y-93362512D01*
X126771352Y-93736892D01*
X127371536Y-94137921D01*
X128079500Y-94278744D01*
X128787464Y-94137921D01*
X129387648Y-93736892D01*
X129719965Y-93239544D01*
X130009852Y-93673392D01*
X130610036Y-94074421D01*
X131318000Y-94215244D01*
X132025964Y-94074421D01*
X132626148Y-93673392D01*
X133027177Y-93073208D01*
X133105550Y-92679203D01*
X133218208Y-92951857D01*
X133653849Y-93388260D01*
X134223333Y-93624730D01*
X134839961Y-93625268D01*
X135409857Y-93389792D01*
X135493990Y-93305805D01*
X136367881Y-93305805D01*
X136452983Y-93553846D01*
X137063064Y-93663239D01*
X137613017Y-93553846D01*
X137698119Y-93305805D01*
X137033000Y-92640685D01*
X136367881Y-93305805D01*
X135493990Y-93305805D01*
X135846260Y-92954151D01*
X136029532Y-92512782D01*
X136467315Y-92075000D01*
X137598685Y-92075000D01*
X138263805Y-92740119D01*
X138511846Y-92655017D01*
X138621239Y-92044936D01*
X138511846Y-91494983D01*
X138263805Y-91409881D01*
X137598685Y-92075000D01*
X136467315Y-92075000D01*
X136028990Y-91636675D01*
X135847792Y-91198143D01*
X135494463Y-90844195D01*
X136367881Y-90844195D01*
X137033000Y-91509315D01*
X137698119Y-90844195D01*
X137613017Y-90596154D01*
X137002936Y-90486761D01*
X136452983Y-90596154D01*
X136367881Y-90844195D01*
X135494463Y-90844195D01*
X135412151Y-90761740D01*
X134842667Y-90525270D01*
X134226039Y-90524732D01*
X133656143Y-90760208D01*
X133219740Y-91195849D01*
X133037237Y-91635366D01*
X133027177Y-91584792D01*
X132626148Y-90984608D01*
X132025964Y-90583579D01*
X131318000Y-90442756D01*
X130610036Y-90583579D01*
X130009852Y-90984608D01*
X129677535Y-91481956D01*
X129387648Y-91048108D01*
X128787464Y-90647079D01*
X128079500Y-90506256D01*
X127371536Y-90647079D01*
X126771352Y-91048108D01*
X126521200Y-91422488D01*
X126521200Y-91142498D01*
X126001163Y-91142498D01*
X125889061Y-90996236D01*
X125484057Y-90725660D01*
X125213200Y-90817256D01*
X124113200Y-90817256D01*
X123902999Y-90746172D01*
X127017070Y-87767594D01*
X127023074Y-87759027D01*
X127031774Y-87753214D01*
X127126430Y-87611552D01*
X127224207Y-87472036D01*
X127226476Y-87461822D01*
X127232289Y-87453122D01*
X127265530Y-87286010D01*
X127267671Y-87276369D01*
X136075759Y-87276369D01*
X136368311Y-87714255D01*
X136878626Y-88079272D01*
X137116000Y-87975350D01*
X137116000Y-87039000D01*
X136187664Y-87039000D01*
X136075759Y-87276369D01*
X127267671Y-87276369D01*
X127302471Y-87119706D01*
X127300659Y-87109403D01*
X127302700Y-87099140D01*
X127302700Y-86637193D01*
X129179500Y-86637193D01*
X129457433Y-86584896D01*
X129712698Y-86420638D01*
X129735602Y-86387116D01*
X129920492Y-86513446D01*
X130218000Y-86573693D01*
X132418000Y-86573693D01*
X132695933Y-86521396D01*
X132951198Y-86357138D01*
X133122446Y-86106508D01*
X133182693Y-85809000D01*
X133182693Y-83609000D01*
X133130396Y-83331067D01*
X132966138Y-83075802D01*
X132715508Y-82904554D01*
X132418000Y-82844307D01*
X130218000Y-82844307D01*
X129940067Y-82896604D01*
X129684802Y-83060862D01*
X129661898Y-83094384D01*
X129477008Y-82968054D01*
X129179500Y-82907807D01*
X127312706Y-82907807D01*
X127313365Y-82802344D01*
X128090590Y-81836700D01*
X130039249Y-81836700D01*
X130153518Y-82007716D01*
G36*
X76100500Y-92394648D02*
X76100500Y-92692828D01*
X75947567Y-92721604D01*
X75692302Y-92885862D01*
X75521054Y-93136492D01*
X75460807Y-93434000D01*
X75460807Y-95034000D01*
X75513104Y-95311933D01*
X75677362Y-95567198D01*
X75927992Y-95738446D01*
X76225500Y-95798693D01*
X77825500Y-95798693D01*
X78103433Y-95746396D01*
X78358698Y-95582138D01*
X78497450Y-95379068D01*
X78640500Y-95474651D01*
X78640500Y-97472120D01*
X78520000Y-97552635D01*
X78520000Y-97505198D01*
X77854061Y-97505198D01*
X77592631Y-97330535D01*
X77362000Y-97446463D01*
X77362000Y-98355200D01*
X77762000Y-98355200D01*
X77762000Y-99155200D01*
X77362000Y-99155200D01*
X77362000Y-100063937D01*
X77592631Y-100179865D01*
X77854061Y-100005202D01*
X78520000Y-100005202D01*
X78520000Y-99957765D01*
X78577000Y-99995851D01*
X78577000Y-100772352D01*
X78344152Y-101005200D01*
X76238100Y-101005200D01*
X75884117Y-101075611D01*
X75584026Y-101276126D01*
X74143818Y-102716334D01*
X73489507Y-102062023D01*
X73253600Y-102297930D01*
X73017693Y-102062023D01*
X72640000Y-102439716D01*
X72640000Y-100887480D01*
X72650638Y-100834000D01*
X74930000Y-100834000D01*
X75027264Y-100814304D01*
X75109202Y-100758318D01*
X75162903Y-100674864D01*
X75180000Y-100584000D01*
X75180000Y-99385835D01*
X75537306Y-99385835D01*
X75887088Y-99883038D01*
X76331369Y-100179865D01*
X76562000Y-100063937D01*
X76562000Y-99155200D01*
X75645693Y-99155200D01*
X75537306Y-99385835D01*
X75180000Y-99385835D01*
X75180000Y-98124565D01*
X75537306Y-98124565D01*
X75645693Y-98355200D01*
X76562000Y-98355200D01*
X76562000Y-97446463D01*
X76331369Y-97330535D01*
X75887088Y-97627362D01*
X75537306Y-98124565D01*
X75180000Y-98124565D01*
X75180000Y-91474148D01*
X76100500Y-92394648D01*
X76100500Y-92394648D01*
G37*
X76100500Y-92394648D02*
X76100500Y-92692828D01*
X75947567Y-92721604D01*
X75692302Y-92885862D01*
X75521054Y-93136492D01*
X75460807Y-93434000D01*
X75460807Y-95034000D01*
X75513104Y-95311933D01*
X75677362Y-95567198D01*
X75927992Y-95738446D01*
X76225500Y-95798693D01*
X77825500Y-95798693D01*
X78103433Y-95746396D01*
X78358698Y-95582138D01*
X78497450Y-95379068D01*
X78640500Y-95474651D01*
X78640500Y-97472120D01*
X78520000Y-97552635D01*
X78520000Y-97505198D01*
X77854061Y-97505198D01*
X77592631Y-97330535D01*
X77362000Y-97446463D01*
X77362000Y-98355200D01*
X77762000Y-98355200D01*
X77762000Y-99155200D01*
X77362000Y-99155200D01*
X77362000Y-100063937D01*
X77592631Y-100179865D01*
X77854061Y-100005202D01*
X78520000Y-100005202D01*
X78520000Y-99957765D01*
X78577000Y-99995851D01*
X78577000Y-100772352D01*
X78344152Y-101005200D01*
X76238100Y-101005200D01*
X75884117Y-101075611D01*
X75584026Y-101276126D01*
X74143818Y-102716334D01*
X73489507Y-102062023D01*
X73253600Y-102297930D01*
X73017693Y-102062023D01*
X72640000Y-102439716D01*
X72640000Y-100887480D01*
X72650638Y-100834000D01*
X74930000Y-100834000D01*
X75027264Y-100814304D01*
X75109202Y-100758318D01*
X75162903Y-100674864D01*
X75180000Y-100584000D01*
X75180000Y-99385835D01*
X75537306Y-99385835D01*
X75887088Y-99883038D01*
X76331369Y-100179865D01*
X76562000Y-100063937D01*
X76562000Y-99155200D01*
X75645693Y-99155200D01*
X75537306Y-99385835D01*
X75180000Y-99385835D01*
X75180000Y-98124565D01*
X75537306Y-98124565D01*
X75645693Y-98355200D01*
X76562000Y-98355200D01*
X76562000Y-97446463D01*
X76331369Y-97330535D01*
X75887088Y-97627362D01*
X75537306Y-98124565D01*
X75180000Y-98124565D01*
X75180000Y-91474148D01*
X76100500Y-92394648D01*
G36*
X80837707Y-60282000D02*
X80890004Y-60559933D01*
X81054262Y-60815198D01*
X81304892Y-60986446D01*
X81602400Y-61046693D01*
X81777400Y-61046693D01*
X81777400Y-62227853D01*
X79920011Y-64085242D01*
X79650183Y-64196732D01*
X79419792Y-63639143D01*
X78984151Y-63202740D01*
X78414667Y-62966270D01*
X77798039Y-62965732D01*
X77228143Y-63201208D01*
X76791740Y-63636849D01*
X76555270Y-64206333D01*
X76554732Y-64822961D01*
X76790208Y-65392857D01*
X77225849Y-65829260D01*
X77667218Y-66012532D01*
X78105000Y-66450315D01*
X78543325Y-66011990D01*
X78981857Y-65830792D01*
X79263007Y-65550133D01*
X79322534Y-65694200D01*
X79617646Y-65989828D01*
X80003426Y-66150018D01*
X80421142Y-66150382D01*
X80807200Y-65990866D01*
X81102828Y-65695754D01*
X81228539Y-65393009D01*
X83356471Y-63265076D01*
X83356474Y-63265074D01*
X83556989Y-62964982D01*
X83627400Y-62611000D01*
X83627400Y-61046693D01*
X83802400Y-61046693D01*
X84080333Y-60994396D01*
X84237597Y-60893200D01*
X84434347Y-60893200D01*
X84434347Y-60993200D01*
X84486644Y-61271133D01*
X84650902Y-61526398D01*
X84901532Y-61697646D01*
X85199040Y-61757893D01*
X87399040Y-61757893D01*
X87676973Y-61705596D01*
X87932238Y-61541338D01*
X88103486Y-61290708D01*
X88126522Y-61176951D01*
X88144244Y-61271133D01*
X88308502Y-61526398D01*
X88559132Y-61697646D01*
X88856640Y-61757893D01*
X91056640Y-61757893D01*
X91334573Y-61705596D01*
X91441811Y-61636590D01*
X91642692Y-61773846D01*
X91940200Y-61834093D01*
X94140200Y-61834093D01*
X94418133Y-61781796D01*
X94673398Y-61617538D01*
X94844646Y-61366908D01*
X94904893Y-61069400D01*
X94904893Y-60893200D01*
X95247859Y-60893200D01*
X95402089Y-61047700D01*
X95971573Y-61284170D01*
X96588201Y-61284708D01*
X97158097Y-61049232D01*
X97594500Y-60613591D01*
X97830970Y-60044107D01*
X97831508Y-59427479D01*
X97623475Y-58924000D01*
X100842000Y-58924000D01*
X100842000Y-60198000D01*
X100861696Y-60295264D01*
X100917682Y-60377202D01*
X101001136Y-60430903D01*
X101092000Y-60448000D01*
X107025000Y-60448000D01*
X107025000Y-62279080D01*
X106996043Y-62208999D01*
X106504190Y-61716287D01*
X105861224Y-61449304D01*
X105165031Y-61448696D01*
X104521599Y-61714557D01*
X104028887Y-62206410D01*
X103761904Y-62849376D01*
X103761296Y-63545569D01*
X104027157Y-64189001D01*
X104519010Y-64681713D01*
X105161976Y-64948696D01*
X105858169Y-64949304D01*
X106501601Y-64683443D01*
X106994313Y-64191590D01*
X107025000Y-64117688D01*
X107025000Y-66640426D01*
X106940972Y-66556398D01*
X106662375Y-66441000D01*
X106201100Y-66441000D01*
X106011600Y-66630500D01*
X106011600Y-67699000D01*
X106511600Y-67699000D01*
X106511600Y-68699000D01*
X106011600Y-68699000D01*
X106011600Y-69199000D01*
X105011600Y-69199000D01*
X105011600Y-68699000D01*
X103943100Y-68699000D01*
X103753600Y-68888500D01*
X103753600Y-69349776D01*
X103868999Y-69628373D01*
X104082228Y-69841602D01*
X104261598Y-69915899D01*
X104261598Y-69941000D01*
X102895400Y-69941000D01*
X102541417Y-70011411D01*
X102241326Y-70211926D01*
X94773726Y-77679526D01*
X94573211Y-77979617D01*
X94533436Y-78179583D01*
X94502800Y-78333600D01*
X94502800Y-78621451D01*
X94010366Y-78523500D01*
X93949634Y-78523500D01*
X93356475Y-78641487D01*
X92853618Y-78977484D01*
X92804360Y-79051203D01*
X92675634Y-78922252D01*
X92289854Y-78762062D01*
X91872138Y-78761698D01*
X91748337Y-78812852D01*
X91312702Y-78816613D01*
X89525165Y-76835000D01*
X90875634Y-76835000D01*
X90993621Y-77428159D01*
X91329618Y-77931016D01*
X91832475Y-78267013D01*
X92425634Y-78385000D01*
X92486366Y-78385000D01*
X93079525Y-78267013D01*
X93582382Y-77931016D01*
X93918379Y-77428159D01*
X94036366Y-76835000D01*
X93918379Y-76241841D01*
X93582382Y-75738984D01*
X93079525Y-75402987D01*
X92486366Y-75285000D01*
X92425634Y-75285000D01*
X91832475Y-75402987D01*
X91329618Y-75738984D01*
X90993621Y-76241841D01*
X90875634Y-76835000D01*
X89525165Y-76835000D01*
X88924425Y-76169038D01*
X88906543Y-76155710D01*
X88894222Y-76137113D01*
X88762434Y-76048304D01*
X88635042Y-75953357D01*
X88613420Y-75947887D01*
X88594920Y-75935420D01*
X88439193Y-75903808D01*
X88285149Y-75864835D01*
X88263075Y-75868056D01*
X88241217Y-75863619D01*
X85825154Y-75854127D01*
X85742425Y-75870245D01*
X85658157Y-75868660D01*
X85567008Y-75904422D01*
X85470898Y-75923147D01*
X85400634Y-75969698D01*
X85370169Y-75981651D01*
X85370268Y-75867639D01*
X85134792Y-75297743D01*
X84699151Y-74861340D01*
X84129667Y-74624870D01*
X83513039Y-74624332D01*
X83453354Y-74648993D01*
X83552958Y-74549389D01*
X84101561Y-74549868D01*
X84671457Y-74314392D01*
X85090931Y-73895651D01*
X85172208Y-74092357D01*
X85607849Y-74528760D01*
X86177333Y-74765230D01*
X86793961Y-74765768D01*
X87363857Y-74530292D01*
X87447990Y-74446305D01*
X88321881Y-74446305D01*
X88406983Y-74694346D01*
X89017064Y-74803739D01*
X89567017Y-74694346D01*
X89652119Y-74446305D01*
X88987000Y-73781185D01*
X88321881Y-74446305D01*
X87447990Y-74446305D01*
X87800260Y-74094651D01*
X87983532Y-73653282D01*
X88421315Y-73215500D01*
X89552685Y-73215500D01*
X90217805Y-73880619D01*
X90465846Y-73795517D01*
X90575239Y-73185436D01*
X90465846Y-72635483D01*
X90217805Y-72550381D01*
X89552685Y-73215500D01*
X88421315Y-73215500D01*
X87982990Y-72777175D01*
X87801792Y-72338643D01*
X87448463Y-71984695D01*
X88321881Y-71984695D01*
X88987000Y-72649815D01*
X89652119Y-71984695D01*
X89567017Y-71736654D01*
X88956936Y-71627261D01*
X88406983Y-71736654D01*
X88321881Y-71984695D01*
X87448463Y-71984695D01*
X87366151Y-71902240D01*
X86796667Y-71665770D01*
X86180039Y-71665232D01*
X85610143Y-71900708D01*
X85190669Y-72319449D01*
X85109392Y-72122743D01*
X84673751Y-71686340D01*
X84104267Y-71449870D01*
X83487639Y-71449332D01*
X82917743Y-71684808D01*
X82481340Y-72120449D01*
X82244870Y-72689933D01*
X82244389Y-73241664D01*
X81489526Y-73996526D01*
X81289011Y-74296617D01*
X81242835Y-74528760D01*
X81218600Y-74650600D01*
X81218600Y-79911741D01*
X81169982Y-80028826D01*
X81169618Y-80446542D01*
X81329134Y-80832600D01*
X81624246Y-81128228D01*
X82010026Y-81288418D01*
X82427742Y-81288782D01*
X82813800Y-81129266D01*
X83109428Y-80834154D01*
X83153459Y-80728115D01*
X83688133Y-80950130D01*
X84304761Y-80950668D01*
X84874657Y-80715192D01*
X85311060Y-80279551D01*
X85373319Y-80129614D01*
X85401604Y-80279933D01*
X85565862Y-80535198D01*
X85816492Y-80706446D01*
X86114000Y-80766693D01*
X86357425Y-80766693D01*
X86340178Y-80816640D01*
X86343995Y-80879964D01*
X86331620Y-80942180D01*
X86331620Y-82207492D01*
X85047049Y-83492063D01*
X85082866Y-83312000D01*
X84964879Y-82718841D01*
X84628882Y-82215984D01*
X84126025Y-81879987D01*
X83532866Y-81762000D01*
X83472134Y-81762000D01*
X82878975Y-81879987D01*
X82599885Y-82066468D01*
X82594792Y-82054143D01*
X82159151Y-81617740D01*
X81589667Y-81381270D01*
X80973039Y-81380732D01*
X80403143Y-81616208D01*
X79966740Y-82051849D01*
X79783468Y-82493218D01*
X79345685Y-82931000D01*
X79784010Y-83369325D01*
X79965208Y-83807857D01*
X80400849Y-84244260D01*
X80515843Y-84292009D01*
X80117926Y-84689926D01*
X79917411Y-84990017D01*
X79895672Y-85099309D01*
X79565500Y-85033634D01*
X78972341Y-85151621D01*
X78583500Y-85411435D01*
X78583500Y-85363998D01*
X77917561Y-85363998D01*
X77656131Y-85189335D01*
X77425500Y-85305263D01*
X77425500Y-86214000D01*
X77825500Y-86214000D01*
X77825500Y-87014000D01*
X77425500Y-87014000D01*
X77425500Y-87922737D01*
X77656131Y-88038665D01*
X77917561Y-87864002D01*
X78583500Y-87864002D01*
X78583500Y-87816565D01*
X78972341Y-88076379D01*
X79565500Y-88194366D01*
X79847000Y-88138372D01*
X79847000Y-90373200D01*
X79917411Y-90727183D01*
X80117926Y-91027274D01*
X80776869Y-91686216D01*
X80744983Y-91664911D01*
X80391000Y-91594500D01*
X79440648Y-91594500D01*
X75710150Y-87864002D01*
X76133439Y-87864002D01*
X76394869Y-88038665D01*
X76625500Y-87922737D01*
X76625500Y-87014000D01*
X76225500Y-87014000D01*
X76225500Y-86214000D01*
X76625500Y-86214000D01*
X76625500Y-85305263D01*
X76394869Y-85189335D01*
X76133439Y-85363998D01*
X75474000Y-85363998D01*
X75474000Y-84161805D01*
X78114881Y-84161805D01*
X78199983Y-84409846D01*
X78810064Y-84519239D01*
X79360017Y-84409846D01*
X79445119Y-84161805D01*
X78780000Y-83496685D01*
X78114881Y-84161805D01*
X75474000Y-84161805D01*
X75474000Y-82961064D01*
X77191761Y-82961064D01*
X77301154Y-83511017D01*
X77549195Y-83596119D01*
X78214315Y-82931000D01*
X77549195Y-82265881D01*
X77301154Y-82350983D01*
X77191761Y-82961064D01*
X75474000Y-82961064D01*
X75474000Y-81700195D01*
X78114881Y-81700195D01*
X78780000Y-82365315D01*
X79445119Y-81700195D01*
X79360017Y-81452154D01*
X78749936Y-81342761D01*
X78199983Y-81452154D01*
X78114881Y-81700195D01*
X75474000Y-81700195D01*
X75474000Y-80645140D01*
X75754275Y-80832413D01*
X76347434Y-80950400D01*
X76408166Y-80950400D01*
X77001325Y-80832413D01*
X77504182Y-80496416D01*
X77840179Y-79993559D01*
X77958166Y-79400400D01*
X77840179Y-78807241D01*
X77504182Y-78304384D01*
X77001325Y-77968387D01*
X76408166Y-77850400D01*
X76347434Y-77850400D01*
X75754275Y-77968387D01*
X75474000Y-78155660D01*
X75474000Y-77538142D01*
X75576475Y-77606613D01*
X76169634Y-77724600D01*
X76230366Y-77724600D01*
X76823525Y-77606613D01*
X77326382Y-77270616D01*
X77662379Y-76767759D01*
X77780366Y-76174600D01*
X77662379Y-75581441D01*
X77326382Y-75078584D01*
X76823525Y-74742587D01*
X76230366Y-74624600D01*
X76169634Y-74624600D01*
X75576475Y-74742587D01*
X75474000Y-74811058D01*
X75474000Y-74380113D01*
X75551075Y-74431613D01*
X76144234Y-74549600D01*
X76204966Y-74549600D01*
X76798125Y-74431613D01*
X77300982Y-74095616D01*
X77636979Y-73592759D01*
X77754966Y-72999600D01*
X77636979Y-72406441D01*
X77300982Y-71903584D01*
X76798125Y-71567587D01*
X76204966Y-71449600D01*
X76144234Y-71449600D01*
X75551075Y-71567587D01*
X75474000Y-71619087D01*
X75474000Y-71197267D01*
X75620165Y-71300094D01*
X75850800Y-71191707D01*
X75850800Y-70275400D01*
X76650800Y-70275400D01*
X76650800Y-71191707D01*
X76881435Y-71300094D01*
X77378638Y-70950312D01*
X77675465Y-70506031D01*
X77559537Y-70275400D01*
X76650800Y-70275400D01*
X75850800Y-70275400D01*
X75474000Y-70275400D01*
X75474000Y-69475400D01*
X75850800Y-69475400D01*
X75850800Y-68559093D01*
X76650800Y-68559093D01*
X76650800Y-69475400D01*
X77559537Y-69475400D01*
X77675465Y-69244769D01*
X77378638Y-68800488D01*
X76881435Y-68450706D01*
X76650800Y-68559093D01*
X75850800Y-68559093D01*
X75620165Y-68450706D01*
X75438884Y-68578237D01*
X75256900Y-68305880D01*
X75256900Y-68246805D01*
X77439881Y-68246805D01*
X77524983Y-68494846D01*
X78135064Y-68604239D01*
X78685017Y-68494846D01*
X78770119Y-68246805D01*
X78105000Y-67581685D01*
X77439881Y-68246805D01*
X75256900Y-68246805D01*
X75256900Y-67764042D01*
X75503379Y-67395159D01*
X75572818Y-67046064D01*
X76516761Y-67046064D01*
X76626154Y-67596017D01*
X76874195Y-67681119D01*
X77539315Y-67016000D01*
X78670685Y-67016000D01*
X79335805Y-67681119D01*
X79583846Y-67596017D01*
X79693239Y-66985936D01*
X79649443Y-66765756D01*
X80852400Y-66765756D01*
X80852400Y-66838244D01*
X80993223Y-67546208D01*
X81394252Y-68146392D01*
X81994436Y-68547421D01*
X82702400Y-68688244D01*
X82906816Y-68647583D01*
X82557540Y-68996249D01*
X82321070Y-69565733D01*
X82320532Y-70182361D01*
X82556008Y-70752257D01*
X82991649Y-71188660D01*
X83561133Y-71425130D01*
X84177761Y-71425668D01*
X84747657Y-71190192D01*
X85184060Y-70754551D01*
X85420530Y-70185067D01*
X85421068Y-69568439D01*
X85185592Y-68998543D01*
X85153044Y-68965938D01*
X85591076Y-69258621D01*
X86299040Y-69399444D01*
X87007004Y-69258621D01*
X87607188Y-68857592D01*
X88008217Y-68257408D01*
X88127840Y-67656023D01*
X88247463Y-68257408D01*
X88648492Y-68857592D01*
X89248676Y-69258621D01*
X89956640Y-69399444D01*
X90664604Y-69258621D01*
X91264788Y-68857592D01*
X91472962Y-68546036D01*
X91732052Y-68933792D01*
X92332236Y-69334821D01*
X93040200Y-69475644D01*
X93748164Y-69334821D01*
X94348348Y-68933792D01*
X94749377Y-68333608D01*
X94890200Y-67625644D01*
X94890200Y-67553156D01*
X94749377Y-66845192D01*
X94348348Y-66245008D01*
X93748164Y-65843979D01*
X93197475Y-65734440D01*
X95089376Y-65734440D01*
X95281240Y-65926640D01*
X95281240Y-69077149D01*
X95216182Y-69233826D01*
X95215818Y-69651542D01*
X95375334Y-70037600D01*
X95670446Y-70333228D01*
X96056226Y-70493418D01*
X96473942Y-70493782D01*
X96860000Y-70334266D01*
X97155628Y-70039154D01*
X97315818Y-69653374D01*
X97316182Y-69235658D01*
X97281240Y-69151092D01*
X97281240Y-67048224D01*
X103753600Y-67048224D01*
X103753600Y-67509500D01*
X103943100Y-67699000D01*
X105011600Y-67699000D01*
X105011600Y-66630500D01*
X104822100Y-66441000D01*
X104360825Y-66441000D01*
X104082228Y-66556398D01*
X103868999Y-66769627D01*
X103753600Y-67048224D01*
X97281240Y-67048224D01*
X97281240Y-65926304D01*
X97594500Y-65613591D01*
X97830970Y-65044107D01*
X97831508Y-64427479D01*
X97596032Y-63857583D01*
X97160391Y-63421180D01*
X96590907Y-63184710D01*
X95974279Y-63184172D01*
X95404383Y-63419648D01*
X95089040Y-63734440D01*
X83657440Y-63734440D01*
X83274756Y-63810560D01*
X82950333Y-64027333D01*
X82010533Y-64967133D01*
X81915545Y-65109292D01*
X81394252Y-65457608D01*
X80993223Y-66057792D01*
X80852400Y-66765756D01*
X79649443Y-66765756D01*
X79583846Y-66435983D01*
X79335805Y-66350881D01*
X78670685Y-67016000D01*
X77539315Y-67016000D01*
X76874195Y-66350881D01*
X76626154Y-66435983D01*
X76516761Y-67046064D01*
X75572818Y-67046064D01*
X75621366Y-66802000D01*
X75503379Y-66208841D01*
X75180000Y-65724868D01*
X75180000Y-64680328D01*
X75227260Y-64633151D01*
X75463730Y-64063667D01*
X75464268Y-63447039D01*
X75228792Y-62877143D01*
X75180000Y-62828266D01*
X75180000Y-61334992D01*
X75227081Y-61287993D01*
X75417783Y-60828731D01*
X75418006Y-60573693D01*
X75938000Y-60573693D01*
X76215933Y-60521396D01*
X76471198Y-60357138D01*
X76642446Y-60106508D01*
X76702693Y-59809000D01*
X76702693Y-58924000D01*
X80837707Y-58924000D01*
X80837707Y-60282000D01*
X80837707Y-60282000D01*
G37*
X80837707Y-60282000D02*
X80890004Y-60559933D01*
X81054262Y-60815198D01*
X81304892Y-60986446D01*
X81602400Y-61046693D01*
X81777400Y-61046693D01*
X81777400Y-62227853D01*
X79920011Y-64085242D01*
X79650183Y-64196732D01*
X79419792Y-63639143D01*
X78984151Y-63202740D01*
X78414667Y-62966270D01*
X77798039Y-62965732D01*
X77228143Y-63201208D01*
X76791740Y-63636849D01*
X76555270Y-64206333D01*
X76554732Y-64822961D01*
X76790208Y-65392857D01*
X77225849Y-65829260D01*
X77667218Y-66012532D01*
X78105000Y-66450315D01*
X78543325Y-66011990D01*
X78981857Y-65830792D01*
X79263007Y-65550133D01*
X79322534Y-65694200D01*
X79617646Y-65989828D01*
X80003426Y-66150018D01*
X80421142Y-66150382D01*
X80807200Y-65990866D01*
X81102828Y-65695754D01*
X81228539Y-65393009D01*
X83356471Y-63265076D01*
X83356474Y-63265074D01*
X83556989Y-62964982D01*
X83627400Y-62611000D01*
X83627400Y-61046693D01*
X83802400Y-61046693D01*
X84080333Y-60994396D01*
X84237597Y-60893200D01*
X84434347Y-60893200D01*
X84434347Y-60993200D01*
X84486644Y-61271133D01*
X84650902Y-61526398D01*
X84901532Y-61697646D01*
X85199040Y-61757893D01*
X87399040Y-61757893D01*
X87676973Y-61705596D01*
X87932238Y-61541338D01*
X88103486Y-61290708D01*
X88126522Y-61176951D01*
X88144244Y-61271133D01*
X88308502Y-61526398D01*
X88559132Y-61697646D01*
X88856640Y-61757893D01*
X91056640Y-61757893D01*
X91334573Y-61705596D01*
X91441811Y-61636590D01*
X91642692Y-61773846D01*
X91940200Y-61834093D01*
X94140200Y-61834093D01*
X94418133Y-61781796D01*
X94673398Y-61617538D01*
X94844646Y-61366908D01*
X94904893Y-61069400D01*
X94904893Y-60893200D01*
X95247859Y-60893200D01*
X95402089Y-61047700D01*
X95971573Y-61284170D01*
X96588201Y-61284708D01*
X97158097Y-61049232D01*
X97594500Y-60613591D01*
X97830970Y-60044107D01*
X97831508Y-59427479D01*
X97623475Y-58924000D01*
X100842000Y-58924000D01*
X100842000Y-60198000D01*
X100861696Y-60295264D01*
X100917682Y-60377202D01*
X101001136Y-60430903D01*
X101092000Y-60448000D01*
X107025000Y-60448000D01*
X107025000Y-62279080D01*
X106996043Y-62208999D01*
X106504190Y-61716287D01*
X105861224Y-61449304D01*
X105165031Y-61448696D01*
X104521599Y-61714557D01*
X104028887Y-62206410D01*
X103761904Y-62849376D01*
X103761296Y-63545569D01*
X104027157Y-64189001D01*
X104519010Y-64681713D01*
X105161976Y-64948696D01*
X105858169Y-64949304D01*
X106501601Y-64683443D01*
X106994313Y-64191590D01*
X107025000Y-64117688D01*
X107025000Y-66640426D01*
X106940972Y-66556398D01*
X106662375Y-66441000D01*
X106201100Y-66441000D01*
X106011600Y-66630500D01*
X106011600Y-67699000D01*
X106511600Y-67699000D01*
X106511600Y-68699000D01*
X106011600Y-68699000D01*
X106011600Y-69199000D01*
X105011600Y-69199000D01*
X105011600Y-68699000D01*
X103943100Y-68699000D01*
X103753600Y-68888500D01*
X103753600Y-69349776D01*
X103868999Y-69628373D01*
X104082228Y-69841602D01*
X104261598Y-69915899D01*
X104261598Y-69941000D01*
X102895400Y-69941000D01*
X102541417Y-70011411D01*
X102241326Y-70211926D01*
X94773726Y-77679526D01*
X94573211Y-77979617D01*
X94533436Y-78179583D01*
X94502800Y-78333600D01*
X94502800Y-78621451D01*
X94010366Y-78523500D01*
X93949634Y-78523500D01*
X93356475Y-78641487D01*
X92853618Y-78977484D01*
X92804360Y-79051203D01*
X92675634Y-78922252D01*
X92289854Y-78762062D01*
X91872138Y-78761698D01*
X91748337Y-78812852D01*
X91312702Y-78816613D01*
X89525165Y-76835000D01*
X90875634Y-76835000D01*
X90993621Y-77428159D01*
X91329618Y-77931016D01*
X91832475Y-78267013D01*
X92425634Y-78385000D01*
X92486366Y-78385000D01*
X93079525Y-78267013D01*
X93582382Y-77931016D01*
X93918379Y-77428159D01*
X94036366Y-76835000D01*
X93918379Y-76241841D01*
X93582382Y-75738984D01*
X93079525Y-75402987D01*
X92486366Y-75285000D01*
X92425634Y-75285000D01*
X91832475Y-75402987D01*
X91329618Y-75738984D01*
X90993621Y-76241841D01*
X90875634Y-76835000D01*
X89525165Y-76835000D01*
X88924425Y-76169038D01*
X88906543Y-76155710D01*
X88894222Y-76137113D01*
X88762434Y-76048304D01*
X88635042Y-75953357D01*
X88613420Y-75947887D01*
X88594920Y-75935420D01*
X88439193Y-75903808D01*
X88285149Y-75864835D01*
X88263075Y-75868056D01*
X88241217Y-75863619D01*
X85825154Y-75854127D01*
X85742425Y-75870245D01*
X85658157Y-75868660D01*
X85567008Y-75904422D01*
X85470898Y-75923147D01*
X85400634Y-75969698D01*
X85370169Y-75981651D01*
X85370268Y-75867639D01*
X85134792Y-75297743D01*
X84699151Y-74861340D01*
X84129667Y-74624870D01*
X83513039Y-74624332D01*
X83453354Y-74648993D01*
X83552958Y-74549389D01*
X84101561Y-74549868D01*
X84671457Y-74314392D01*
X85090931Y-73895651D01*
X85172208Y-74092357D01*
X85607849Y-74528760D01*
X86177333Y-74765230D01*
X86793961Y-74765768D01*
X87363857Y-74530292D01*
X87447990Y-74446305D01*
X88321881Y-74446305D01*
X88406983Y-74694346D01*
X89017064Y-74803739D01*
X89567017Y-74694346D01*
X89652119Y-74446305D01*
X88987000Y-73781185D01*
X88321881Y-74446305D01*
X87447990Y-74446305D01*
X87800260Y-74094651D01*
X87983532Y-73653282D01*
X88421315Y-73215500D01*
X89552685Y-73215500D01*
X90217805Y-73880619D01*
X90465846Y-73795517D01*
X90575239Y-73185436D01*
X90465846Y-72635483D01*
X90217805Y-72550381D01*
X89552685Y-73215500D01*
X88421315Y-73215500D01*
X87982990Y-72777175D01*
X87801792Y-72338643D01*
X87448463Y-71984695D01*
X88321881Y-71984695D01*
X88987000Y-72649815D01*
X89652119Y-71984695D01*
X89567017Y-71736654D01*
X88956936Y-71627261D01*
X88406983Y-71736654D01*
X88321881Y-71984695D01*
X87448463Y-71984695D01*
X87366151Y-71902240D01*
X86796667Y-71665770D01*
X86180039Y-71665232D01*
X85610143Y-71900708D01*
X85190669Y-72319449D01*
X85109392Y-72122743D01*
X84673751Y-71686340D01*
X84104267Y-71449870D01*
X83487639Y-71449332D01*
X82917743Y-71684808D01*
X82481340Y-72120449D01*
X82244870Y-72689933D01*
X82244389Y-73241664D01*
X81489526Y-73996526D01*
X81289011Y-74296617D01*
X81242835Y-74528760D01*
X81218600Y-74650600D01*
X81218600Y-79911741D01*
X81169982Y-80028826D01*
X81169618Y-80446542D01*
X81329134Y-80832600D01*
X81624246Y-81128228D01*
X82010026Y-81288418D01*
X82427742Y-81288782D01*
X82813800Y-81129266D01*
X83109428Y-80834154D01*
X83153459Y-80728115D01*
X83688133Y-80950130D01*
X84304761Y-80950668D01*
X84874657Y-80715192D01*
X85311060Y-80279551D01*
X85373319Y-80129614D01*
X85401604Y-80279933D01*
X85565862Y-80535198D01*
X85816492Y-80706446D01*
X86114000Y-80766693D01*
X86357425Y-80766693D01*
X86340178Y-80816640D01*
X86343995Y-80879964D01*
X86331620Y-80942180D01*
X86331620Y-82207492D01*
X85047049Y-83492063D01*
X85082866Y-83312000D01*
X84964879Y-82718841D01*
X84628882Y-82215984D01*
X84126025Y-81879987D01*
X83532866Y-81762000D01*
X83472134Y-81762000D01*
X82878975Y-81879987D01*
X82599885Y-82066468D01*
X82594792Y-82054143D01*
X82159151Y-81617740D01*
X81589667Y-81381270D01*
X80973039Y-81380732D01*
X80403143Y-81616208D01*
X79966740Y-82051849D01*
X79783468Y-82493218D01*
X79345685Y-82931000D01*
X79784010Y-83369325D01*
X79965208Y-83807857D01*
X80400849Y-84244260D01*
X80515843Y-84292009D01*
X80117926Y-84689926D01*
X79917411Y-84990017D01*
X79895672Y-85099309D01*
X79565500Y-85033634D01*
X78972341Y-85151621D01*
X78583500Y-85411435D01*
X78583500Y-85363998D01*
X77917561Y-85363998D01*
X77656131Y-85189335D01*
X77425500Y-85305263D01*
X77425500Y-86214000D01*
X77825500Y-86214000D01*
X77825500Y-87014000D01*
X77425500Y-87014000D01*
X77425500Y-87922737D01*
X77656131Y-88038665D01*
X77917561Y-87864002D01*
X78583500Y-87864002D01*
X78583500Y-87816565D01*
X78972341Y-88076379D01*
X79565500Y-88194366D01*
X79847000Y-88138372D01*
X79847000Y-90373200D01*
X79917411Y-90727183D01*
X80117926Y-91027274D01*
X80776869Y-91686216D01*
X80744983Y-91664911D01*
X80391000Y-91594500D01*
X79440648Y-91594500D01*
X75710150Y-87864002D01*
X76133439Y-87864002D01*
X76394869Y-88038665D01*
X76625500Y-87922737D01*
X76625500Y-87014000D01*
X76225500Y-87014000D01*
X76225500Y-86214000D01*
X76625500Y-86214000D01*
X76625500Y-85305263D01*
X76394869Y-85189335D01*
X76133439Y-85363998D01*
X75474000Y-85363998D01*
X75474000Y-84161805D01*
X78114881Y-84161805D01*
X78199983Y-84409846D01*
X78810064Y-84519239D01*
X79360017Y-84409846D01*
X79445119Y-84161805D01*
X78780000Y-83496685D01*
X78114881Y-84161805D01*
X75474000Y-84161805D01*
X75474000Y-82961064D01*
X77191761Y-82961064D01*
X77301154Y-83511017D01*
X77549195Y-83596119D01*
X78214315Y-82931000D01*
X77549195Y-82265881D01*
X77301154Y-82350983D01*
X77191761Y-82961064D01*
X75474000Y-82961064D01*
X75474000Y-81700195D01*
X78114881Y-81700195D01*
X78780000Y-82365315D01*
X79445119Y-81700195D01*
X79360017Y-81452154D01*
X78749936Y-81342761D01*
X78199983Y-81452154D01*
X78114881Y-81700195D01*
X75474000Y-81700195D01*
X75474000Y-80645140D01*
X75754275Y-80832413D01*
X76347434Y-80950400D01*
X76408166Y-80950400D01*
X77001325Y-80832413D01*
X77504182Y-80496416D01*
X77840179Y-79993559D01*
X77958166Y-79400400D01*
X77840179Y-78807241D01*
X77504182Y-78304384D01*
X77001325Y-77968387D01*
X76408166Y-77850400D01*
X76347434Y-77850400D01*
X75754275Y-77968387D01*
X75474000Y-78155660D01*
X75474000Y-77538142D01*
X75576475Y-77606613D01*
X76169634Y-77724600D01*
X76230366Y-77724600D01*
X76823525Y-77606613D01*
X77326382Y-77270616D01*
X77662379Y-76767759D01*
X77780366Y-76174600D01*
X77662379Y-75581441D01*
X77326382Y-75078584D01*
X76823525Y-74742587D01*
X76230366Y-74624600D01*
X76169634Y-74624600D01*
X75576475Y-74742587D01*
X75474000Y-74811058D01*
X75474000Y-74380113D01*
X75551075Y-74431613D01*
X76144234Y-74549600D01*
X76204966Y-74549600D01*
X76798125Y-74431613D01*
X77300982Y-74095616D01*
X77636979Y-73592759D01*
X77754966Y-72999600D01*
X77636979Y-72406441D01*
X77300982Y-71903584D01*
X76798125Y-71567587D01*
X76204966Y-71449600D01*
X76144234Y-71449600D01*
X75551075Y-71567587D01*
X75474000Y-71619087D01*
X75474000Y-71197267D01*
X75620165Y-71300094D01*
X75850800Y-71191707D01*
X75850800Y-70275400D01*
X76650800Y-70275400D01*
X76650800Y-71191707D01*
X76881435Y-71300094D01*
X77378638Y-70950312D01*
X77675465Y-70506031D01*
X77559537Y-70275400D01*
X76650800Y-70275400D01*
X75850800Y-70275400D01*
X75474000Y-70275400D01*
X75474000Y-69475400D01*
X75850800Y-69475400D01*
X75850800Y-68559093D01*
X76650800Y-68559093D01*
X76650800Y-69475400D01*
X77559537Y-69475400D01*
X77675465Y-69244769D01*
X77378638Y-68800488D01*
X76881435Y-68450706D01*
X76650800Y-68559093D01*
X75850800Y-68559093D01*
X75620165Y-68450706D01*
X75438884Y-68578237D01*
X75256900Y-68305880D01*
X75256900Y-68246805D01*
X77439881Y-68246805D01*
X77524983Y-68494846D01*
X78135064Y-68604239D01*
X78685017Y-68494846D01*
X78770119Y-68246805D01*
X78105000Y-67581685D01*
X77439881Y-68246805D01*
X75256900Y-68246805D01*
X75256900Y-67764042D01*
X75503379Y-67395159D01*
X75572818Y-67046064D01*
X76516761Y-67046064D01*
X76626154Y-67596017D01*
X76874195Y-67681119D01*
X77539315Y-67016000D01*
X78670685Y-67016000D01*
X79335805Y-67681119D01*
X79583846Y-67596017D01*
X79693239Y-66985936D01*
X79649443Y-66765756D01*
X80852400Y-66765756D01*
X80852400Y-66838244D01*
X80993223Y-67546208D01*
X81394252Y-68146392D01*
X81994436Y-68547421D01*
X82702400Y-68688244D01*
X82906816Y-68647583D01*
X82557540Y-68996249D01*
X82321070Y-69565733D01*
X82320532Y-70182361D01*
X82556008Y-70752257D01*
X82991649Y-71188660D01*
X83561133Y-71425130D01*
X84177761Y-71425668D01*
X84747657Y-71190192D01*
X85184060Y-70754551D01*
X85420530Y-70185067D01*
X85421068Y-69568439D01*
X85185592Y-68998543D01*
X85153044Y-68965938D01*
X85591076Y-69258621D01*
X86299040Y-69399444D01*
X87007004Y-69258621D01*
X87607188Y-68857592D01*
X88008217Y-68257408D01*
X88127840Y-67656023D01*
X88247463Y-68257408D01*
X88648492Y-68857592D01*
X89248676Y-69258621D01*
X89956640Y-69399444D01*
X90664604Y-69258621D01*
X91264788Y-68857592D01*
X91472962Y-68546036D01*
X91732052Y-68933792D01*
X92332236Y-69334821D01*
X93040200Y-69475644D01*
X93748164Y-69334821D01*
X94348348Y-68933792D01*
X94749377Y-68333608D01*
X94890200Y-67625644D01*
X94890200Y-67553156D01*
X94749377Y-66845192D01*
X94348348Y-66245008D01*
X93748164Y-65843979D01*
X93197475Y-65734440D01*
X95089376Y-65734440D01*
X95281240Y-65926640D01*
X95281240Y-69077149D01*
X95216182Y-69233826D01*
X95215818Y-69651542D01*
X95375334Y-70037600D01*
X95670446Y-70333228D01*
X96056226Y-70493418D01*
X96473942Y-70493782D01*
X96860000Y-70334266D01*
X97155628Y-70039154D01*
X97315818Y-69653374D01*
X97316182Y-69235658D01*
X97281240Y-69151092D01*
X97281240Y-67048224D01*
X103753600Y-67048224D01*
X103753600Y-67509500D01*
X103943100Y-67699000D01*
X105011600Y-67699000D01*
X105011600Y-66630500D01*
X104822100Y-66441000D01*
X104360825Y-66441000D01*
X104082228Y-66556398D01*
X103868999Y-66769627D01*
X103753600Y-67048224D01*
X97281240Y-67048224D01*
X97281240Y-65926304D01*
X97594500Y-65613591D01*
X97830970Y-65044107D01*
X97831508Y-64427479D01*
X97596032Y-63857583D01*
X97160391Y-63421180D01*
X96590907Y-63184710D01*
X95974279Y-63184172D01*
X95404383Y-63419648D01*
X95089040Y-63734440D01*
X83657440Y-63734440D01*
X83274756Y-63810560D01*
X82950333Y-64027333D01*
X82010533Y-64967133D01*
X81915545Y-65109292D01*
X81394252Y-65457608D01*
X80993223Y-66057792D01*
X80852400Y-66765756D01*
X79649443Y-66765756D01*
X79583846Y-66435983D01*
X79335805Y-66350881D01*
X78670685Y-67016000D01*
X77539315Y-67016000D01*
X76874195Y-66350881D01*
X76626154Y-66435983D01*
X76516761Y-67046064D01*
X75572818Y-67046064D01*
X75621366Y-66802000D01*
X75503379Y-66208841D01*
X75180000Y-65724868D01*
X75180000Y-64680328D01*
X75227260Y-64633151D01*
X75463730Y-64063667D01*
X75464268Y-63447039D01*
X75228792Y-62877143D01*
X75180000Y-62828266D01*
X75180000Y-61334992D01*
X75227081Y-61287993D01*
X75417783Y-60828731D01*
X75418006Y-60573693D01*
X75938000Y-60573693D01*
X76215933Y-60521396D01*
X76471198Y-60357138D01*
X76642446Y-60106508D01*
X76702693Y-59809000D01*
X76702693Y-58924000D01*
X80837707Y-58924000D01*
X80837707Y-60282000D01*
G36*
X112365784Y-60943382D02*
X112868641Y-61279379D01*
X112879910Y-61281621D01*
X112680795Y-61321227D01*
X112177938Y-61657224D01*
X111841941Y-62160081D01*
X111723954Y-62753240D01*
X111841941Y-63346399D01*
X112177938Y-63849256D01*
X112680795Y-64185253D01*
X113099353Y-64268510D01*
X112703983Y-64347154D01*
X112618881Y-64595195D01*
X113284000Y-65260315D01*
X113949119Y-64595195D01*
X113864017Y-64347154D01*
X113469527Y-64276418D01*
X113927845Y-64185253D01*
X114430702Y-63849256D01*
X114766699Y-63346399D01*
X114884686Y-62753240D01*
X114766699Y-62160081D01*
X114430702Y-61657224D01*
X113927845Y-61321227D01*
X113886210Y-61312945D01*
X114054959Y-61279379D01*
X114557816Y-60943382D01*
X114888818Y-60448000D01*
X115463954Y-60448000D01*
X115718584Y-60829082D01*
X116221441Y-61165079D01*
X116814600Y-61283066D01*
X117407759Y-61165079D01*
X117910616Y-60829082D01*
X118165246Y-60448000D01*
X118600541Y-60448000D01*
X118663154Y-60762777D01*
X118911195Y-60847879D01*
X119311075Y-60448000D01*
X120972925Y-60448000D01*
X120990528Y-60465603D01*
X120424843Y-61031288D01*
X120142000Y-60748445D01*
X119476881Y-61413565D01*
X119561983Y-61661606D01*
X119784030Y-61701421D01*
X119611060Y-61874089D01*
X119374590Y-62443573D01*
X119374052Y-63060201D01*
X119609528Y-63630097D01*
X120045169Y-64066500D01*
X120614653Y-64302970D01*
X121231281Y-64303508D01*
X121801177Y-64068032D01*
X121995015Y-63874533D01*
X122129652Y-63966526D01*
X122427160Y-64026773D01*
X124227160Y-64026773D01*
X124505093Y-63974476D01*
X124760358Y-63810218D01*
X124829837Y-63708533D01*
X125559157Y-64437853D01*
X125867160Y-64129850D01*
X126175163Y-64437853D01*
X126973788Y-63639228D01*
X126973732Y-63703461D01*
X127209208Y-64273357D01*
X127644849Y-64709760D01*
X128214333Y-64946230D01*
X128830961Y-64946768D01*
X129400857Y-64711292D01*
X129837260Y-64275651D01*
X130073730Y-63706167D01*
X130074268Y-63089539D01*
X129838792Y-62519643D01*
X129799218Y-62480000D01*
X144125970Y-62480000D01*
X143258500Y-63711807D01*
X141692500Y-63711807D01*
X141414567Y-63764104D01*
X141159302Y-63928362D01*
X140988054Y-64178992D01*
X140927807Y-64476500D01*
X140927807Y-67476500D01*
X140980104Y-67754433D01*
X141144362Y-68009698D01*
X141394992Y-68180946D01*
X141692500Y-68241193D01*
X142361600Y-68241193D01*
X142361600Y-72364600D01*
X142456751Y-72842954D01*
X142727717Y-73248483D01*
X143133246Y-73519449D01*
X143611600Y-73614600D01*
X143662400Y-73614600D01*
X144140754Y-73519449D01*
X144546283Y-73248483D01*
X144817249Y-72842954D01*
X144912400Y-72364600D01*
X144878638Y-72194863D01*
X148701125Y-72194863D01*
X149142139Y-72770264D01*
X149547143Y-73040840D01*
X149818000Y-72949244D01*
X149818000Y-71924000D01*
X148782736Y-71924000D01*
X148701125Y-72194863D01*
X144878638Y-72194863D01*
X144861600Y-72109212D01*
X144861600Y-70553137D01*
X148701125Y-70553137D01*
X148782736Y-70824000D01*
X149818000Y-70824000D01*
X149818000Y-69798756D01*
X149547143Y-69707160D01*
X149142139Y-69977736D01*
X148701125Y-70553137D01*
X144861600Y-70553137D01*
X144861600Y-69747305D01*
X146464381Y-69747305D01*
X146549483Y-69995346D01*
X147159564Y-70104739D01*
X147709517Y-69995346D01*
X147794619Y-69747305D01*
X147129500Y-69082185D01*
X146464381Y-69747305D01*
X144861600Y-69747305D01*
X144861600Y-68546564D01*
X145541261Y-68546564D01*
X145650654Y-69096517D01*
X145898695Y-69181619D01*
X146563815Y-68516500D01*
X147695185Y-68516500D01*
X148360305Y-69181619D01*
X148608346Y-69096517D01*
X148717739Y-68486436D01*
X148608346Y-67936483D01*
X148360305Y-67851381D01*
X147695185Y-68516500D01*
X146563815Y-68516500D01*
X145898695Y-67851381D01*
X145650654Y-67936483D01*
X145541261Y-68546564D01*
X144861600Y-68546564D01*
X144861600Y-68209374D01*
X144970433Y-68188896D01*
X145225698Y-68024638D01*
X145396946Y-67774008D01*
X145457193Y-67476500D01*
X145457193Y-66323461D01*
X145579232Y-66323461D01*
X145814708Y-66893357D01*
X146250349Y-67329760D01*
X146691718Y-67513032D01*
X147129500Y-67950815D01*
X147567825Y-67512490D01*
X148006357Y-67331292D01*
X148442760Y-66895651D01*
X148679230Y-66326167D01*
X148679768Y-65709539D01*
X148444292Y-65139643D01*
X148008651Y-64703240D01*
X147439167Y-64466770D01*
X146822539Y-64466232D01*
X146252643Y-64701708D01*
X145816240Y-65137349D01*
X145579770Y-65706833D01*
X145579232Y-66323461D01*
X145457193Y-66323461D01*
X145457193Y-64931609D01*
X147016072Y-62718000D01*
X147741939Y-62718000D01*
X147752651Y-62771854D01*
X148023617Y-63177383D01*
X148503307Y-63657073D01*
X148503307Y-64854000D01*
X148555604Y-65131933D01*
X148719862Y-65387198D01*
X148970492Y-65558446D01*
X149268000Y-65618693D01*
X150464927Y-65618693D01*
X151404000Y-66557767D01*
X151404000Y-69850893D01*
X151188857Y-69707160D01*
X150918000Y-69798756D01*
X150918000Y-70824000D01*
X151404000Y-70824000D01*
X151404000Y-71924000D01*
X150918000Y-71924000D01*
X150918000Y-72949244D01*
X151188857Y-73040840D01*
X151404000Y-72897107D01*
X151404000Y-80284000D01*
X150464176Y-80284000D01*
X150434244Y-80264000D01*
X150641717Y-80125371D01*
X150988553Y-79606293D01*
X151110346Y-78994000D01*
X150988553Y-78381707D01*
X150729002Y-77993261D01*
X150729002Y-77438534D01*
X150944241Y-77116369D01*
X150832336Y-76879000D01*
X149904000Y-76879000D01*
X149904000Y-77304000D01*
X149097148Y-77304000D01*
X149054000Y-77260852D01*
X149054000Y-76879000D01*
X148629000Y-76879000D01*
X148629000Y-76029000D01*
X149054000Y-76029000D01*
X149054000Y-75092650D01*
X149904000Y-75092650D01*
X149904000Y-76029000D01*
X150832336Y-76029000D01*
X150944241Y-75791631D01*
X150651689Y-75353745D01*
X150141374Y-74988728D01*
X149904000Y-75092650D01*
X149054000Y-75092650D01*
X148816626Y-74988728D01*
X148515666Y-75203998D01*
X147924173Y-75203998D01*
X147582639Y-74975793D01*
X146970346Y-74854000D01*
X146907654Y-74854000D01*
X146295361Y-74975793D01*
X145776283Y-75322629D01*
X145429447Y-75841707D01*
X145307654Y-76454000D01*
X145376279Y-76799000D01*
X139231000Y-76799000D01*
X139231000Y-76029000D01*
X139656000Y-76029000D01*
X139656000Y-75092650D01*
X140506000Y-75092650D01*
X140506000Y-76029000D01*
X141434336Y-76029000D01*
X141546241Y-75791631D01*
X141253689Y-75353745D01*
X140743374Y-74988728D01*
X140506000Y-75092650D01*
X139656000Y-75092650D01*
X139418626Y-74988728D01*
X139117666Y-75203998D01*
X138526173Y-75203998D01*
X138184639Y-74975793D01*
X137572346Y-74854000D01*
X137509654Y-74854000D01*
X136897361Y-74975793D01*
X136378283Y-75322629D01*
X136031447Y-75841707D01*
X135909654Y-76454000D01*
X135978279Y-76799000D01*
X132584051Y-76799000D01*
X132469782Y-76627984D01*
X131966925Y-76291987D01*
X131373766Y-76174000D01*
X131313034Y-76174000D01*
X130719875Y-76291987D01*
X130217018Y-76627984D01*
X129881021Y-77130841D01*
X129856085Y-77256200D01*
X128818640Y-77256200D01*
X128464657Y-77326611D01*
X128164566Y-77527126D01*
X125175456Y-80516236D01*
X125138746Y-80331683D01*
X124890705Y-80246581D01*
X124225585Y-80911700D01*
X124502789Y-81188903D01*
X123937103Y-81754589D01*
X123659900Y-81477385D01*
X123116046Y-82021240D01*
X123103640Y-82021240D01*
X122749657Y-82091651D01*
X122449566Y-82292166D01*
X122161753Y-82579979D01*
X122162262Y-81996564D01*
X121932559Y-81440640D01*
X121518292Y-81025649D01*
X121602323Y-80941764D01*
X122071661Y-80941764D01*
X122181054Y-81491717D01*
X122429095Y-81576819D01*
X123094215Y-80911700D01*
X122429095Y-80246581D01*
X122181054Y-80331683D01*
X122071661Y-80941764D01*
X121602323Y-80941764D01*
X121931064Y-80613598D01*
X122161737Y-80058075D01*
X122162066Y-79680895D01*
X122994781Y-79680895D01*
X123659900Y-80346015D01*
X124325019Y-79680895D01*
X124239917Y-79432854D01*
X123629836Y-79323461D01*
X123079883Y-79432854D01*
X122994781Y-79680895D01*
X122162066Y-79680895D01*
X122162262Y-79456564D01*
X121954940Y-78954805D01*
X123058281Y-78954805D01*
X123143383Y-79202846D01*
X123753464Y-79312239D01*
X124303417Y-79202846D01*
X124388519Y-78954805D01*
X123723400Y-78289685D01*
X123058281Y-78954805D01*
X121954940Y-78954805D01*
X121932559Y-78900640D01*
X121518292Y-78485649D01*
X121931064Y-78073598D01*
X122040845Y-77809215D01*
X122172274Y-77940643D01*
X122244554Y-78304017D01*
X122492595Y-78389119D01*
X123157715Y-77724000D01*
X124289085Y-77724000D01*
X124954205Y-78389119D01*
X125202246Y-78304017D01*
X125311639Y-77693936D01*
X125202246Y-77143983D01*
X124954205Y-77058881D01*
X124289085Y-77724000D01*
X123157715Y-77724000D01*
X122874872Y-77441157D01*
X123440557Y-76875472D01*
X123723400Y-77158315D01*
X124388519Y-76493195D01*
X124303417Y-76245154D01*
X123948723Y-76181554D01*
X123503679Y-75736509D01*
X123883028Y-75357160D01*
X126517400Y-75357160D01*
X126871383Y-75286749D01*
X127171474Y-75086234D01*
X128241668Y-74016040D01*
X128501247Y-74016040D01*
X128633023Y-73989828D01*
X128766784Y-73977108D01*
X128808700Y-73954884D01*
X128855229Y-73945629D01*
X128966947Y-73870982D01*
X129085654Y-73808043D01*
X129895428Y-73148021D01*
X130327400Y-73233946D01*
X130939693Y-73112153D01*
X131328139Y-72852602D01*
X131362633Y-72852602D01*
X131374799Y-72881973D01*
X131588028Y-73095202D01*
X131866625Y-73210600D01*
X132252900Y-73210600D01*
X132442400Y-73021100D01*
X132442400Y-72027600D01*
X133292400Y-72027600D01*
X133292400Y-73021100D01*
X133481900Y-73210600D01*
X133868175Y-73210600D01*
X134146772Y-73095202D01*
X134360001Y-72881973D01*
X134475400Y-72603376D01*
X134475400Y-72217100D01*
X134285900Y-72027600D01*
X133292400Y-72027600D01*
X132442400Y-72027600D01*
X132017400Y-72027600D01*
X132017400Y-71177600D01*
X132442400Y-71177600D01*
X132442400Y-70184100D01*
X133292400Y-70184100D01*
X133292400Y-71177600D01*
X134285900Y-71177600D01*
X134475400Y-70988100D01*
X134475400Y-70601824D01*
X134360001Y-70323227D01*
X134146772Y-70109998D01*
X133868175Y-69994600D01*
X133481900Y-69994600D01*
X133292400Y-70184100D01*
X132442400Y-70184100D01*
X132252900Y-69994600D01*
X131866625Y-69994600D01*
X131588028Y-70109998D01*
X131374799Y-70323227D01*
X131362633Y-70352598D01*
X131328139Y-70352598D01*
X130939693Y-70093047D01*
X130327400Y-69971254D01*
X129715107Y-70093047D01*
X129196029Y-70439883D01*
X129057400Y-70647356D01*
X128918771Y-70439883D01*
X128399693Y-70093047D01*
X127787400Y-69971254D01*
X127175107Y-70093047D01*
X126656029Y-70439883D01*
X126517400Y-70647356D01*
X126378771Y-70439883D01*
X125859693Y-70093047D01*
X125247400Y-69971254D01*
X124635107Y-70093047D01*
X124116029Y-70439883D01*
X123977400Y-70647356D01*
X123838771Y-70439883D01*
X123319693Y-70093047D01*
X122707400Y-69971254D01*
X122095107Y-70093047D01*
X121576029Y-70439883D01*
X121437400Y-70647356D01*
X121298771Y-70439883D01*
X120779693Y-70093047D01*
X120167400Y-69971254D01*
X119555107Y-70093047D01*
X119036029Y-70439883D01*
X118689193Y-70958961D01*
X118567400Y-71571254D01*
X118567400Y-71633946D01*
X118689193Y-72246239D01*
X119015772Y-72735000D01*
X117068600Y-72735000D01*
X117009785Y-72746699D01*
X117009788Y-72743439D01*
X116774312Y-72173543D01*
X116338671Y-71737140D01*
X115769187Y-71500670D01*
X115152559Y-71500132D01*
X114582663Y-71735608D01*
X114146260Y-72171249D01*
X113909790Y-72740733D01*
X113909252Y-73357361D01*
X114144728Y-73927257D01*
X114580369Y-74363660D01*
X115068057Y-74566165D01*
X115056487Y-74624332D01*
X115026000Y-74777600D01*
X115026000Y-75704790D01*
X114899792Y-75399343D01*
X114464151Y-74962940D01*
X113894667Y-74726470D01*
X113278039Y-74725932D01*
X112708143Y-74961408D01*
X112271740Y-75397049D01*
X112035270Y-75966533D01*
X112034889Y-76403696D01*
X111910782Y-76320771D01*
X111654602Y-76269814D01*
X111384520Y-75999732D01*
X111384520Y-74317133D01*
X111772780Y-73929551D01*
X112009250Y-73360067D01*
X112009788Y-72743439D01*
X111774312Y-72173543D01*
X111338671Y-71737140D01*
X110769187Y-71500670D01*
X110152559Y-71500132D01*
X109582663Y-71735608D01*
X109434052Y-71883959D01*
X109206351Y-71655860D01*
X108636867Y-71419390D01*
X108020239Y-71418852D01*
X107450343Y-71654328D01*
X107013940Y-72089969D01*
X106777470Y-72659453D01*
X106776932Y-73276081D01*
X107012408Y-73845977D01*
X107448049Y-74282380D01*
X108017533Y-74518850D01*
X108634161Y-74519388D01*
X109204057Y-74283912D01*
X109352668Y-74135561D01*
X109534520Y-74317731D01*
X109534520Y-75033432D01*
X109464151Y-74962940D01*
X108894667Y-74726470D01*
X108278039Y-74725932D01*
X107708143Y-74961408D01*
X107271740Y-75397049D01*
X107035270Y-75966533D01*
X107034732Y-76583161D01*
X107270208Y-77153057D01*
X107705849Y-77589460D01*
X108275333Y-77825930D01*
X108827064Y-77826411D01*
X109260200Y-78259547D01*
X109260200Y-79099159D01*
X108934551Y-78772940D01*
X108365067Y-78536470D01*
X107748439Y-78535932D01*
X107178543Y-78771408D01*
X106796672Y-79152612D01*
X106692559Y-78900640D01*
X106278292Y-78485649D01*
X106691064Y-78073598D01*
X106921737Y-77518075D01*
X106922262Y-76916564D01*
X106692559Y-76360640D01*
X106267598Y-75934936D01*
X105712075Y-75704263D01*
X105110564Y-75703738D01*
X104554640Y-75933441D01*
X104252200Y-76235353D01*
X104252200Y-74235853D01*
X104640460Y-73848271D01*
X104876930Y-73278787D01*
X104877468Y-72662159D01*
X104641992Y-72092263D01*
X104341255Y-71791000D01*
X106273600Y-71791000D01*
X106627583Y-71720589D01*
X106927674Y-71520074D01*
X108604074Y-69843674D01*
X108804589Y-69543582D01*
X108875001Y-69189600D01*
X108875000Y-69189595D01*
X108875000Y-68632961D01*
X111733732Y-68632961D01*
X111969208Y-69202857D01*
X112404849Y-69639260D01*
X112974333Y-69875730D01*
X113590961Y-69876268D01*
X114160857Y-69640792D01*
X114597260Y-69205151D01*
X114833730Y-68635667D01*
X114834268Y-68019039D01*
X114598792Y-67449143D01*
X114163151Y-67012740D01*
X113721782Y-66829468D01*
X113284000Y-66391685D01*
X112845675Y-66830010D01*
X112407143Y-67011208D01*
X111970740Y-67446849D01*
X111734270Y-68016333D01*
X111733732Y-68632961D01*
X108875000Y-68632961D01*
X108875000Y-65856064D01*
X111695761Y-65856064D01*
X111805154Y-66406017D01*
X112053195Y-66491119D01*
X112718315Y-65826000D01*
X113849685Y-65826000D01*
X114514805Y-66491119D01*
X114716002Y-66422089D01*
X135862110Y-66422089D01*
X136203931Y-67249358D01*
X136836313Y-67882845D01*
X137662984Y-68226108D01*
X138558089Y-68226890D01*
X139385358Y-67885069D01*
X140018845Y-67252687D01*
X140362108Y-66426016D01*
X140362890Y-65530911D01*
X140021069Y-64703642D01*
X139388687Y-64070155D01*
X138562016Y-63726892D01*
X137666911Y-63726110D01*
X136839642Y-64067931D01*
X136206155Y-64700313D01*
X135862892Y-65526984D01*
X135862110Y-66422089D01*
X114716002Y-66422089D01*
X114762846Y-66406017D01*
X114872239Y-65795936D01*
X114762846Y-65245983D01*
X114514805Y-65160881D01*
X113849685Y-65826000D01*
X112718315Y-65826000D01*
X112053195Y-65160881D01*
X111805154Y-65245983D01*
X111695761Y-65856064D01*
X108875000Y-65856064D01*
X108875000Y-62762305D01*
X109672481Y-62762305D01*
X109757583Y-63010346D01*
X110367664Y-63119739D01*
X110917617Y-63010346D01*
X111002719Y-62762305D01*
X110337600Y-62097185D01*
X109672481Y-62762305D01*
X108875000Y-62762305D01*
X108875000Y-62117091D01*
X109106795Y-62196619D01*
X109771915Y-61531500D01*
X109489072Y-61248657D01*
X110054757Y-60682972D01*
X110337600Y-60965815D01*
X110620443Y-60682972D01*
X111186128Y-61248657D01*
X110903285Y-61531500D01*
X111568405Y-62196619D01*
X111816446Y-62111517D01*
X111880046Y-61756823D01*
X112341277Y-61295593D01*
X111493684Y-60448000D01*
X112034782Y-60448000D01*
X112365784Y-60943382D01*
X112365784Y-60943382D01*
G37*
X112365784Y-60943382D02*
X112868641Y-61279379D01*
X112879910Y-61281621D01*
X112680795Y-61321227D01*
X112177938Y-61657224D01*
X111841941Y-62160081D01*
X111723954Y-62753240D01*
X111841941Y-63346399D01*
X112177938Y-63849256D01*
X112680795Y-64185253D01*
X113099353Y-64268510D01*
X112703983Y-64347154D01*
X112618881Y-64595195D01*
X113284000Y-65260315D01*
X113949119Y-64595195D01*
X113864017Y-64347154D01*
X113469527Y-64276418D01*
X113927845Y-64185253D01*
X114430702Y-63849256D01*
X114766699Y-63346399D01*
X114884686Y-62753240D01*
X114766699Y-62160081D01*
X114430702Y-61657224D01*
X113927845Y-61321227D01*
X113886210Y-61312945D01*
X114054959Y-61279379D01*
X114557816Y-60943382D01*
X114888818Y-60448000D01*
X115463954Y-60448000D01*
X115718584Y-60829082D01*
X116221441Y-61165079D01*
X116814600Y-61283066D01*
X117407759Y-61165079D01*
X117910616Y-60829082D01*
X118165246Y-60448000D01*
X118600541Y-60448000D01*
X118663154Y-60762777D01*
X118911195Y-60847879D01*
X119311075Y-60448000D01*
X120972925Y-60448000D01*
X120990528Y-60465603D01*
X120424843Y-61031288D01*
X120142000Y-60748445D01*
X119476881Y-61413565D01*
X119561983Y-61661606D01*
X119784030Y-61701421D01*
X119611060Y-61874089D01*
X119374590Y-62443573D01*
X119374052Y-63060201D01*
X119609528Y-63630097D01*
X120045169Y-64066500D01*
X120614653Y-64302970D01*
X121231281Y-64303508D01*
X121801177Y-64068032D01*
X121995015Y-63874533D01*
X122129652Y-63966526D01*
X122427160Y-64026773D01*
X124227160Y-64026773D01*
X124505093Y-63974476D01*
X124760358Y-63810218D01*
X124829837Y-63708533D01*
X125559157Y-64437853D01*
X125867160Y-64129850D01*
X126175163Y-64437853D01*
X126973788Y-63639228D01*
X126973732Y-63703461D01*
X127209208Y-64273357D01*
X127644849Y-64709760D01*
X128214333Y-64946230D01*
X128830961Y-64946768D01*
X129400857Y-64711292D01*
X129837260Y-64275651D01*
X130073730Y-63706167D01*
X130074268Y-63089539D01*
X129838792Y-62519643D01*
X129799218Y-62480000D01*
X144125970Y-62480000D01*
X143258500Y-63711807D01*
X141692500Y-63711807D01*
X141414567Y-63764104D01*
X141159302Y-63928362D01*
X140988054Y-64178992D01*
X140927807Y-64476500D01*
X140927807Y-67476500D01*
X140980104Y-67754433D01*
X141144362Y-68009698D01*
X141394992Y-68180946D01*
X141692500Y-68241193D01*
X142361600Y-68241193D01*
X142361600Y-72364600D01*
X142456751Y-72842954D01*
X142727717Y-73248483D01*
X143133246Y-73519449D01*
X143611600Y-73614600D01*
X143662400Y-73614600D01*
X144140754Y-73519449D01*
X144546283Y-73248483D01*
X144817249Y-72842954D01*
X144912400Y-72364600D01*
X144878638Y-72194863D01*
X148701125Y-72194863D01*
X149142139Y-72770264D01*
X149547143Y-73040840D01*
X149818000Y-72949244D01*
X149818000Y-71924000D01*
X148782736Y-71924000D01*
X148701125Y-72194863D01*
X144878638Y-72194863D01*
X144861600Y-72109212D01*
X144861600Y-70553137D01*
X148701125Y-70553137D01*
X148782736Y-70824000D01*
X149818000Y-70824000D01*
X149818000Y-69798756D01*
X149547143Y-69707160D01*
X149142139Y-69977736D01*
X148701125Y-70553137D01*
X144861600Y-70553137D01*
X144861600Y-69747305D01*
X146464381Y-69747305D01*
X146549483Y-69995346D01*
X147159564Y-70104739D01*
X147709517Y-69995346D01*
X147794619Y-69747305D01*
X147129500Y-69082185D01*
X146464381Y-69747305D01*
X144861600Y-69747305D01*
X144861600Y-68546564D01*
X145541261Y-68546564D01*
X145650654Y-69096517D01*
X145898695Y-69181619D01*
X146563815Y-68516500D01*
X147695185Y-68516500D01*
X148360305Y-69181619D01*
X148608346Y-69096517D01*
X148717739Y-68486436D01*
X148608346Y-67936483D01*
X148360305Y-67851381D01*
X147695185Y-68516500D01*
X146563815Y-68516500D01*
X145898695Y-67851381D01*
X145650654Y-67936483D01*
X145541261Y-68546564D01*
X144861600Y-68546564D01*
X144861600Y-68209374D01*
X144970433Y-68188896D01*
X145225698Y-68024638D01*
X145396946Y-67774008D01*
X145457193Y-67476500D01*
X145457193Y-66323461D01*
X145579232Y-66323461D01*
X145814708Y-66893357D01*
X146250349Y-67329760D01*
X146691718Y-67513032D01*
X147129500Y-67950815D01*
X147567825Y-67512490D01*
X148006357Y-67331292D01*
X148442760Y-66895651D01*
X148679230Y-66326167D01*
X148679768Y-65709539D01*
X148444292Y-65139643D01*
X148008651Y-64703240D01*
X147439167Y-64466770D01*
X146822539Y-64466232D01*
X146252643Y-64701708D01*
X145816240Y-65137349D01*
X145579770Y-65706833D01*
X145579232Y-66323461D01*
X145457193Y-66323461D01*
X145457193Y-64931609D01*
X147016072Y-62718000D01*
X147741939Y-62718000D01*
X147752651Y-62771854D01*
X148023617Y-63177383D01*
X148503307Y-63657073D01*
X148503307Y-64854000D01*
X148555604Y-65131933D01*
X148719862Y-65387198D01*
X148970492Y-65558446D01*
X149268000Y-65618693D01*
X150464927Y-65618693D01*
X151404000Y-66557767D01*
X151404000Y-69850893D01*
X151188857Y-69707160D01*
X150918000Y-69798756D01*
X150918000Y-70824000D01*
X151404000Y-70824000D01*
X151404000Y-71924000D01*
X150918000Y-71924000D01*
X150918000Y-72949244D01*
X151188857Y-73040840D01*
X151404000Y-72897107D01*
X151404000Y-80284000D01*
X150464176Y-80284000D01*
X150434244Y-80264000D01*
X150641717Y-80125371D01*
X150988553Y-79606293D01*
X151110346Y-78994000D01*
X150988553Y-78381707D01*
X150729002Y-77993261D01*
X150729002Y-77438534D01*
X150944241Y-77116369D01*
X150832336Y-76879000D01*
X149904000Y-76879000D01*
X149904000Y-77304000D01*
X149097148Y-77304000D01*
X149054000Y-77260852D01*
X149054000Y-76879000D01*
X148629000Y-76879000D01*
X148629000Y-76029000D01*
X149054000Y-76029000D01*
X149054000Y-75092650D01*
X149904000Y-75092650D01*
X149904000Y-76029000D01*
X150832336Y-76029000D01*
X150944241Y-75791631D01*
X150651689Y-75353745D01*
X150141374Y-74988728D01*
X149904000Y-75092650D01*
X149054000Y-75092650D01*
X148816626Y-74988728D01*
X148515666Y-75203998D01*
X147924173Y-75203998D01*
X147582639Y-74975793D01*
X146970346Y-74854000D01*
X146907654Y-74854000D01*
X146295361Y-74975793D01*
X145776283Y-75322629D01*
X145429447Y-75841707D01*
X145307654Y-76454000D01*
X145376279Y-76799000D01*
X139231000Y-76799000D01*
X139231000Y-76029000D01*
X139656000Y-76029000D01*
X139656000Y-75092650D01*
X140506000Y-75092650D01*
X140506000Y-76029000D01*
X141434336Y-76029000D01*
X141546241Y-75791631D01*
X141253689Y-75353745D01*
X140743374Y-74988728D01*
X140506000Y-75092650D01*
X139656000Y-75092650D01*
X139418626Y-74988728D01*
X139117666Y-75203998D01*
X138526173Y-75203998D01*
X138184639Y-74975793D01*
X137572346Y-74854000D01*
X137509654Y-74854000D01*
X136897361Y-74975793D01*
X136378283Y-75322629D01*
X136031447Y-75841707D01*
X135909654Y-76454000D01*
X135978279Y-76799000D01*
X132584051Y-76799000D01*
X132469782Y-76627984D01*
X131966925Y-76291987D01*
X131373766Y-76174000D01*
X131313034Y-76174000D01*
X130719875Y-76291987D01*
X130217018Y-76627984D01*
X129881021Y-77130841D01*
X129856085Y-77256200D01*
X128818640Y-77256200D01*
X128464657Y-77326611D01*
X128164566Y-77527126D01*
X125175456Y-80516236D01*
X125138746Y-80331683D01*
X124890705Y-80246581D01*
X124225585Y-80911700D01*
X124502789Y-81188903D01*
X123937103Y-81754589D01*
X123659900Y-81477385D01*
X123116046Y-82021240D01*
X123103640Y-82021240D01*
X122749657Y-82091651D01*
X122449566Y-82292166D01*
X122161753Y-82579979D01*
X122162262Y-81996564D01*
X121932559Y-81440640D01*
X121518292Y-81025649D01*
X121602323Y-80941764D01*
X122071661Y-80941764D01*
X122181054Y-81491717D01*
X122429095Y-81576819D01*
X123094215Y-80911700D01*
X122429095Y-80246581D01*
X122181054Y-80331683D01*
X122071661Y-80941764D01*
X121602323Y-80941764D01*
X121931064Y-80613598D01*
X122161737Y-80058075D01*
X122162066Y-79680895D01*
X122994781Y-79680895D01*
X123659900Y-80346015D01*
X124325019Y-79680895D01*
X124239917Y-79432854D01*
X123629836Y-79323461D01*
X123079883Y-79432854D01*
X122994781Y-79680895D01*
X122162066Y-79680895D01*
X122162262Y-79456564D01*
X121954940Y-78954805D01*
X123058281Y-78954805D01*
X123143383Y-79202846D01*
X123753464Y-79312239D01*
X124303417Y-79202846D01*
X124388519Y-78954805D01*
X123723400Y-78289685D01*
X123058281Y-78954805D01*
X121954940Y-78954805D01*
X121932559Y-78900640D01*
X121518292Y-78485649D01*
X121931064Y-78073598D01*
X122040845Y-77809215D01*
X122172274Y-77940643D01*
X122244554Y-78304017D01*
X122492595Y-78389119D01*
X123157715Y-77724000D01*
X124289085Y-77724000D01*
X124954205Y-78389119D01*
X125202246Y-78304017D01*
X125311639Y-77693936D01*
X125202246Y-77143983D01*
X124954205Y-77058881D01*
X124289085Y-77724000D01*
X123157715Y-77724000D01*
X122874872Y-77441157D01*
X123440557Y-76875472D01*
X123723400Y-77158315D01*
X124388519Y-76493195D01*
X124303417Y-76245154D01*
X123948723Y-76181554D01*
X123503679Y-75736509D01*
X123883028Y-75357160D01*
X126517400Y-75357160D01*
X126871383Y-75286749D01*
X127171474Y-75086234D01*
X128241668Y-74016040D01*
X128501247Y-74016040D01*
X128633023Y-73989828D01*
X128766784Y-73977108D01*
X128808700Y-73954884D01*
X128855229Y-73945629D01*
X128966947Y-73870982D01*
X129085654Y-73808043D01*
X129895428Y-73148021D01*
X130327400Y-73233946D01*
X130939693Y-73112153D01*
X131328139Y-72852602D01*
X131362633Y-72852602D01*
X131374799Y-72881973D01*
X131588028Y-73095202D01*
X131866625Y-73210600D01*
X132252900Y-73210600D01*
X132442400Y-73021100D01*
X132442400Y-72027600D01*
X133292400Y-72027600D01*
X133292400Y-73021100D01*
X133481900Y-73210600D01*
X133868175Y-73210600D01*
X134146772Y-73095202D01*
X134360001Y-72881973D01*
X134475400Y-72603376D01*
X134475400Y-72217100D01*
X134285900Y-72027600D01*
X133292400Y-72027600D01*
X132442400Y-72027600D01*
X132017400Y-72027600D01*
X132017400Y-71177600D01*
X132442400Y-71177600D01*
X132442400Y-70184100D01*
X133292400Y-70184100D01*
X133292400Y-71177600D01*
X134285900Y-71177600D01*
X134475400Y-70988100D01*
X134475400Y-70601824D01*
X134360001Y-70323227D01*
X134146772Y-70109998D01*
X133868175Y-69994600D01*
X133481900Y-69994600D01*
X133292400Y-70184100D01*
X132442400Y-70184100D01*
X132252900Y-69994600D01*
X131866625Y-69994600D01*
X131588028Y-70109998D01*
X131374799Y-70323227D01*
X131362633Y-70352598D01*
X131328139Y-70352598D01*
X130939693Y-70093047D01*
X130327400Y-69971254D01*
X129715107Y-70093047D01*
X129196029Y-70439883D01*
X129057400Y-70647356D01*
X128918771Y-70439883D01*
X128399693Y-70093047D01*
X127787400Y-69971254D01*
X127175107Y-70093047D01*
X126656029Y-70439883D01*
X126517400Y-70647356D01*
X126378771Y-70439883D01*
X125859693Y-70093047D01*
X125247400Y-69971254D01*
X124635107Y-70093047D01*
X124116029Y-70439883D01*
X123977400Y-70647356D01*
X123838771Y-70439883D01*
X123319693Y-70093047D01*
X122707400Y-69971254D01*
X122095107Y-70093047D01*
X121576029Y-70439883D01*
X121437400Y-70647356D01*
X121298771Y-70439883D01*
X120779693Y-70093047D01*
X120167400Y-69971254D01*
X119555107Y-70093047D01*
X119036029Y-70439883D01*
X118689193Y-70958961D01*
X118567400Y-71571254D01*
X118567400Y-71633946D01*
X118689193Y-72246239D01*
X119015772Y-72735000D01*
X117068600Y-72735000D01*
X117009785Y-72746699D01*
X117009788Y-72743439D01*
X116774312Y-72173543D01*
X116338671Y-71737140D01*
X115769187Y-71500670D01*
X115152559Y-71500132D01*
X114582663Y-71735608D01*
X114146260Y-72171249D01*
X113909790Y-72740733D01*
X113909252Y-73357361D01*
X114144728Y-73927257D01*
X114580369Y-74363660D01*
X115068057Y-74566165D01*
X115056487Y-74624332D01*
X115026000Y-74777600D01*
X115026000Y-75704790D01*
X114899792Y-75399343D01*
X114464151Y-74962940D01*
X113894667Y-74726470D01*
X113278039Y-74725932D01*
X112708143Y-74961408D01*
X112271740Y-75397049D01*
X112035270Y-75966533D01*
X112034889Y-76403696D01*
X111910782Y-76320771D01*
X111654602Y-76269814D01*
X111384520Y-75999732D01*
X111384520Y-74317133D01*
X111772780Y-73929551D01*
X112009250Y-73360067D01*
X112009788Y-72743439D01*
X111774312Y-72173543D01*
X111338671Y-71737140D01*
X110769187Y-71500670D01*
X110152559Y-71500132D01*
X109582663Y-71735608D01*
X109434052Y-71883959D01*
X109206351Y-71655860D01*
X108636867Y-71419390D01*
X108020239Y-71418852D01*
X107450343Y-71654328D01*
X107013940Y-72089969D01*
X106777470Y-72659453D01*
X106776932Y-73276081D01*
X107012408Y-73845977D01*
X107448049Y-74282380D01*
X108017533Y-74518850D01*
X108634161Y-74519388D01*
X109204057Y-74283912D01*
X109352668Y-74135561D01*
X109534520Y-74317731D01*
X109534520Y-75033432D01*
X109464151Y-74962940D01*
X108894667Y-74726470D01*
X108278039Y-74725932D01*
X107708143Y-74961408D01*
X107271740Y-75397049D01*
X107035270Y-75966533D01*
X107034732Y-76583161D01*
X107270208Y-77153057D01*
X107705849Y-77589460D01*
X108275333Y-77825930D01*
X108827064Y-77826411D01*
X109260200Y-78259547D01*
X109260200Y-79099159D01*
X108934551Y-78772940D01*
X108365067Y-78536470D01*
X107748439Y-78535932D01*
X107178543Y-78771408D01*
X106796672Y-79152612D01*
X106692559Y-78900640D01*
X106278292Y-78485649D01*
X106691064Y-78073598D01*
X106921737Y-77518075D01*
X106922262Y-76916564D01*
X106692559Y-76360640D01*
X106267598Y-75934936D01*
X105712075Y-75704263D01*
X105110564Y-75703738D01*
X104554640Y-75933441D01*
X104252200Y-76235353D01*
X104252200Y-74235853D01*
X104640460Y-73848271D01*
X104876930Y-73278787D01*
X104877468Y-72662159D01*
X104641992Y-72092263D01*
X104341255Y-71791000D01*
X106273600Y-71791000D01*
X106627583Y-71720589D01*
X106927674Y-71520074D01*
X108604074Y-69843674D01*
X108804589Y-69543582D01*
X108875001Y-69189600D01*
X108875000Y-69189595D01*
X108875000Y-68632961D01*
X111733732Y-68632961D01*
X111969208Y-69202857D01*
X112404849Y-69639260D01*
X112974333Y-69875730D01*
X113590961Y-69876268D01*
X114160857Y-69640792D01*
X114597260Y-69205151D01*
X114833730Y-68635667D01*
X114834268Y-68019039D01*
X114598792Y-67449143D01*
X114163151Y-67012740D01*
X113721782Y-66829468D01*
X113284000Y-66391685D01*
X112845675Y-66830010D01*
X112407143Y-67011208D01*
X111970740Y-67446849D01*
X111734270Y-68016333D01*
X111733732Y-68632961D01*
X108875000Y-68632961D01*
X108875000Y-65856064D01*
X111695761Y-65856064D01*
X111805154Y-66406017D01*
X112053195Y-66491119D01*
X112718315Y-65826000D01*
X113849685Y-65826000D01*
X114514805Y-66491119D01*
X114716002Y-66422089D01*
X135862110Y-66422089D01*
X136203931Y-67249358D01*
X136836313Y-67882845D01*
X137662984Y-68226108D01*
X138558089Y-68226890D01*
X139385358Y-67885069D01*
X140018845Y-67252687D01*
X140362108Y-66426016D01*
X140362890Y-65530911D01*
X140021069Y-64703642D01*
X139388687Y-64070155D01*
X138562016Y-63726892D01*
X137666911Y-63726110D01*
X136839642Y-64067931D01*
X136206155Y-64700313D01*
X135862892Y-65526984D01*
X135862110Y-66422089D01*
X114716002Y-66422089D01*
X114762846Y-66406017D01*
X114872239Y-65795936D01*
X114762846Y-65245983D01*
X114514805Y-65160881D01*
X113849685Y-65826000D01*
X112718315Y-65826000D01*
X112053195Y-65160881D01*
X111805154Y-65245983D01*
X111695761Y-65856064D01*
X108875000Y-65856064D01*
X108875000Y-62762305D01*
X109672481Y-62762305D01*
X109757583Y-63010346D01*
X110367664Y-63119739D01*
X110917617Y-63010346D01*
X111002719Y-62762305D01*
X110337600Y-62097185D01*
X109672481Y-62762305D01*
X108875000Y-62762305D01*
X108875000Y-62117091D01*
X109106795Y-62196619D01*
X109771915Y-61531500D01*
X109489072Y-61248657D01*
X110054757Y-60682972D01*
X110337600Y-60965815D01*
X110620443Y-60682972D01*
X111186128Y-61248657D01*
X110903285Y-61531500D01*
X111568405Y-62196619D01*
X111816446Y-62111517D01*
X111880046Y-61756823D01*
X112341277Y-61295593D01*
X111493684Y-60448000D01*
X112034782Y-60448000D01*
X112365784Y-60943382D01*
G36*
X136357528Y-48754397D02*
X136074685Y-49037240D01*
X136739805Y-49702359D01*
X136987846Y-49617257D01*
X137051446Y-49262563D01*
X137512677Y-48801333D01*
X137221344Y-48510000D01*
X141653509Y-48510000D01*
X141548634Y-49037240D01*
X141666621Y-49630399D01*
X142002618Y-50133256D01*
X142505475Y-50469253D01*
X143098634Y-50587240D01*
X143159366Y-50587240D01*
X143577795Y-50504009D01*
X144116017Y-51042231D01*
X143825621Y-51476841D01*
X143736430Y-51925231D01*
X143016884Y-51309966D01*
X142880087Y-51233253D01*
X142749683Y-51146120D01*
X142710981Y-51138422D01*
X142676563Y-51119121D01*
X142520827Y-51100598D01*
X142367000Y-51070000D01*
X138859864Y-51070000D01*
X138547151Y-50756740D01*
X137977667Y-50520270D01*
X137361039Y-50519732D01*
X136791143Y-50755208D01*
X136354740Y-51190849D01*
X136118270Y-51760333D01*
X136117732Y-52376961D01*
X136273144Y-52753087D01*
X136244857Y-52781374D01*
X135881483Y-52853654D01*
X135796381Y-53101695D01*
X136461500Y-53766815D01*
X136744343Y-53483972D01*
X137310028Y-54049657D01*
X137027185Y-54332500D01*
X137310028Y-54615343D01*
X136744343Y-55181028D01*
X136461500Y-54898185D01*
X136178657Y-55181028D01*
X135612972Y-54615343D01*
X135895815Y-54332500D01*
X135230695Y-53667381D01*
X134982654Y-53752483D01*
X134919054Y-54107177D01*
X134457823Y-54568407D01*
X135277666Y-55388250D01*
X135128302Y-55484362D01*
X134957054Y-55734992D01*
X134896807Y-56032500D01*
X134896807Y-57632500D01*
X134949104Y-57910433D01*
X135113362Y-58165698D01*
X135363992Y-58336946D01*
X135661500Y-58397193D01*
X136258426Y-58397193D01*
X136911117Y-59049884D01*
X137316646Y-59320849D01*
X137795000Y-59416000D01*
X143476734Y-59416000D01*
X142690734Y-60202000D01*
X133854000Y-60202000D01*
X133854000Y-50268045D01*
X134843881Y-50268045D01*
X134928983Y-50516086D01*
X135539064Y-50625479D01*
X136089017Y-50516086D01*
X136174119Y-50268045D01*
X135509000Y-49602925D01*
X134843881Y-50268045D01*
X133854000Y-50268045D01*
X133854000Y-49150009D01*
X133957874Y-49253883D01*
X134030154Y-49617257D01*
X134278195Y-49702359D01*
X134943315Y-49037240D01*
X134660472Y-48754397D01*
X134904869Y-48510000D01*
X136113131Y-48510000D01*
X136357528Y-48754397D01*
X136357528Y-48754397D01*
G37*
X136357528Y-48754397D02*
X136074685Y-49037240D01*
X136739805Y-49702359D01*
X136987846Y-49617257D01*
X137051446Y-49262563D01*
X137512677Y-48801333D01*
X137221344Y-48510000D01*
X141653509Y-48510000D01*
X141548634Y-49037240D01*
X141666621Y-49630399D01*
X142002618Y-50133256D01*
X142505475Y-50469253D01*
X143098634Y-50587240D01*
X143159366Y-50587240D01*
X143577795Y-50504009D01*
X144116017Y-51042231D01*
X143825621Y-51476841D01*
X143736430Y-51925231D01*
X143016884Y-51309966D01*
X142880087Y-51233253D01*
X142749683Y-51146120D01*
X142710981Y-51138422D01*
X142676563Y-51119121D01*
X142520827Y-51100598D01*
X142367000Y-51070000D01*
X138859864Y-51070000D01*
X138547151Y-50756740D01*
X137977667Y-50520270D01*
X137361039Y-50519732D01*
X136791143Y-50755208D01*
X136354740Y-51190849D01*
X136118270Y-51760333D01*
X136117732Y-52376961D01*
X136273144Y-52753087D01*
X136244857Y-52781374D01*
X135881483Y-52853654D01*
X135796381Y-53101695D01*
X136461500Y-53766815D01*
X136744343Y-53483972D01*
X137310028Y-54049657D01*
X137027185Y-54332500D01*
X137310028Y-54615343D01*
X136744343Y-55181028D01*
X136461500Y-54898185D01*
X136178657Y-55181028D01*
X135612972Y-54615343D01*
X135895815Y-54332500D01*
X135230695Y-53667381D01*
X134982654Y-53752483D01*
X134919054Y-54107177D01*
X134457823Y-54568407D01*
X135277666Y-55388250D01*
X135128302Y-55484362D01*
X134957054Y-55734992D01*
X134896807Y-56032500D01*
X134896807Y-57632500D01*
X134949104Y-57910433D01*
X135113362Y-58165698D01*
X135363992Y-58336946D01*
X135661500Y-58397193D01*
X136258426Y-58397193D01*
X136911117Y-59049884D01*
X137316646Y-59320849D01*
X137795000Y-59416000D01*
X143476734Y-59416000D01*
X142690734Y-60202000D01*
X133854000Y-60202000D01*
X133854000Y-50268045D01*
X134843881Y-50268045D01*
X134928983Y-50516086D01*
X135539064Y-50625479D01*
X136089017Y-50516086D01*
X136174119Y-50268045D01*
X135509000Y-49602925D01*
X134843881Y-50268045D01*
X133854000Y-50268045D01*
X133854000Y-49150009D01*
X133957874Y-49253883D01*
X134030154Y-49617257D01*
X134278195Y-49702359D01*
X134943315Y-49037240D01*
X134660472Y-48754397D01*
X134904869Y-48510000D01*
X136113131Y-48510000D01*
X136357528Y-48754397D01*
G36*
X143469716Y-54328634D02*
X143606511Y-54405346D01*
X143736917Y-54492480D01*
X143775621Y-54500179D01*
X143810038Y-54519479D01*
X143965777Y-54538003D01*
X144119600Y-54568600D01*
X144905643Y-54568600D01*
X144483543Y-54743008D01*
X144047140Y-55178649D01*
X143810670Y-55748133D01*
X143810132Y-56364761D01*
X143843563Y-56445670D01*
X143373234Y-56916000D01*
X141741784Y-56916000D01*
X142364077Y-56293707D01*
X141911526Y-55841157D01*
X141839246Y-55477783D01*
X141591205Y-55392681D01*
X140926085Y-56057800D01*
X141208928Y-56340643D01*
X140643243Y-56906328D01*
X140360400Y-56623485D01*
X140077557Y-56906328D01*
X139511872Y-56340643D01*
X139794715Y-56057800D01*
X139129595Y-55392681D01*
X138881554Y-55477783D01*
X138817954Y-55832477D01*
X138356723Y-56293707D01*
X138979016Y-56916000D01*
X138312767Y-56916000D01*
X138026193Y-56629426D01*
X138026193Y-56032500D01*
X137973896Y-55754567D01*
X137809638Y-55499302D01*
X137646054Y-55387530D01*
X138206589Y-54826995D01*
X139695281Y-54826995D01*
X140360400Y-55492115D01*
X141025519Y-54826995D01*
X140940417Y-54578954D01*
X140330336Y-54469561D01*
X139780383Y-54578954D01*
X139695281Y-54826995D01*
X138206589Y-54826995D01*
X138465177Y-54568407D01*
X138229270Y-54332500D01*
X138465177Y-54096593D01*
X137984791Y-53616207D01*
X138544857Y-53384792D01*
X138860200Y-53070000D01*
X141997754Y-53070000D01*
X143469716Y-54328634D01*
X143469716Y-54328634D01*
G37*
X143469716Y-54328634D02*
X143606511Y-54405346D01*
X143736917Y-54492480D01*
X143775621Y-54500179D01*
X143810038Y-54519479D01*
X143965777Y-54538003D01*
X144119600Y-54568600D01*
X144905643Y-54568600D01*
X144483543Y-54743008D01*
X144047140Y-55178649D01*
X143810670Y-55748133D01*
X143810132Y-56364761D01*
X143843563Y-56445670D01*
X143373234Y-56916000D01*
X141741784Y-56916000D01*
X142364077Y-56293707D01*
X141911526Y-55841157D01*
X141839246Y-55477783D01*
X141591205Y-55392681D01*
X140926085Y-56057800D01*
X141208928Y-56340643D01*
X140643243Y-56906328D01*
X140360400Y-56623485D01*
X140077557Y-56906328D01*
X139511872Y-56340643D01*
X139794715Y-56057800D01*
X139129595Y-55392681D01*
X138881554Y-55477783D01*
X138817954Y-55832477D01*
X138356723Y-56293707D01*
X138979016Y-56916000D01*
X138312767Y-56916000D01*
X138026193Y-56629426D01*
X138026193Y-56032500D01*
X137973896Y-55754567D01*
X137809638Y-55499302D01*
X137646054Y-55387530D01*
X138206589Y-54826995D01*
X139695281Y-54826995D01*
X140360400Y-55492115D01*
X141025519Y-54826995D01*
X140940417Y-54578954D01*
X140330336Y-54469561D01*
X139780383Y-54578954D01*
X139695281Y-54826995D01*
X138206589Y-54826995D01*
X138465177Y-54568407D01*
X138229270Y-54332500D01*
X138465177Y-54096593D01*
X137984791Y-53616207D01*
X138544857Y-53384792D01*
X138860200Y-53070000D01*
X141997754Y-53070000D01*
X143469716Y-54328634D01*
G36*
X147198117Y-50921884D02*
X147419789Y-51070000D01*
X146478538Y-51070000D01*
X146414382Y-50973984D01*
X146288000Y-50889539D01*
X146288000Y-50800005D01*
X146288001Y-50800000D01*
X146211880Y-50417316D01*
X146103494Y-50255105D01*
X145995107Y-50092893D01*
X145995104Y-50092891D01*
X144652234Y-48750021D01*
X144604491Y-48510000D01*
X144786233Y-48510000D01*
X147198117Y-50921884D01*
X147198117Y-50921884D01*
G37*
X147198117Y-50921884D02*
X147419789Y-51070000D01*
X146478538Y-51070000D01*
X146414382Y-50973984D01*
X146288000Y-50889539D01*
X146288000Y-50800005D01*
X146288001Y-50800000D01*
X146211880Y-50417316D01*
X146103494Y-50255105D01*
X145995107Y-50092893D01*
X145995104Y-50092891D01*
X144652234Y-48750021D01*
X144604491Y-48510000D01*
X144786233Y-48510000D01*
X147198117Y-50921884D01*
G36*
X151388000Y-49925233D02*
X150616883Y-49154117D01*
X150211354Y-48883151D01*
X149733000Y-48788000D01*
X148599767Y-48788000D01*
X148321767Y-48510000D01*
X151388000Y-48510000D01*
X151388000Y-49925233D01*
X151388000Y-49925233D01*
G37*
X151388000Y-49925233D02*
X150616883Y-49154117D01*
X150211354Y-48883151D01*
X149733000Y-48788000D01*
X148599767Y-48788000D01*
X148321767Y-48510000D01*
X151388000Y-48510000D01*
X151388000Y-49925233D01*
M02*
