G04 #@! TF.FileFunction,Copper,L2,Bot,Signal*
%FSLAX46Y46*%
G04 Gerber Fmt 4.6, Leading zero omitted, Abs format (unit mm)*
G04 Created by KiCad (PCBNEW 4.0.7) date 08/22/18 18:30:12*
%MOMM*%
%LPD*%
G01*
G04 APERTURE LIST*
%ADD10C,0.100000*%
%ADD11C,1.600000*%
%ADD12O,1.600000X1.600000*%
%ADD13C,1.000000*%
%ADD14R,1.000000X1.000000*%
%ADD15R,1.600000X1.600000*%
%ADD16R,2.000000X2.000000*%
%ADD17C,2.000000*%
%ADD18C,1.524000*%
%ADD19R,2.200000X2.200000*%
%ADD20O,2.200000X2.200000*%
%ADD21R,3.000000X3.000000*%
%ADD22C,3.000000*%
%ADD23R,1.700000X1.700000*%
%ADD24O,1.700000X1.700000*%
%ADD25C,2.400000*%
%ADD26C,4.064000*%
%ADD27C,5.000000*%
%ADD28C,6.000000*%
%ADD29R,1.800000X1.800000*%
%ADD30C,1.800000*%
%ADD31O,1.800000X1.800000*%
%ADD32R,2.600000X2.000000*%
%ADD33O,2.600000X2.000000*%
%ADD34C,0.600000*%
%ADD35C,1.000000*%
%ADD36C,0.350000*%
%ADD37C,0.500000*%
%ADD38C,0.250000*%
G04 APERTURE END LIST*
D10*
D11*
X78105000Y-64516000D03*
X78105000Y-67016000D03*
X58674000Y-77724000D03*
D12*
X58674000Y-85344000D03*
D13*
X74168000Y-60579000D03*
X72898000Y-59309000D03*
D14*
X75438000Y-59309000D03*
D15*
X76962000Y-106375200D03*
D12*
X92202000Y-98755200D03*
X79502000Y-106375200D03*
X89662000Y-98755200D03*
X82042000Y-106375200D03*
X87122000Y-98755200D03*
X84582000Y-106375200D03*
X84582000Y-98755200D03*
X87122000Y-106375200D03*
X82042000Y-98755200D03*
X89662000Y-106375200D03*
X79502000Y-98755200D03*
X92202000Y-106375200D03*
X76962000Y-98755200D03*
D16*
X105511600Y-68199000D03*
D17*
X105511600Y-63199000D03*
D18*
X105410000Y-77216000D03*
X105410000Y-79756000D03*
X105410000Y-82296000D03*
X105410000Y-84836000D03*
X105410000Y-87376000D03*
X105410000Y-89916000D03*
X105410000Y-92456000D03*
X105410000Y-94996000D03*
X105410000Y-97536000D03*
X105410000Y-100076000D03*
X105410000Y-102616000D03*
X105410000Y-105156000D03*
X105410000Y-107696000D03*
X105410000Y-110236000D03*
X105410000Y-112776000D03*
X105410000Y-115316000D03*
X105410000Y-117856000D03*
X105410000Y-120396000D03*
X105410000Y-122936000D03*
X105410000Y-125476000D03*
X120650000Y-77216000D03*
X120650000Y-79756000D03*
X120650000Y-82296000D03*
X120650000Y-84836000D03*
X120650000Y-87376000D03*
X120650000Y-89916000D03*
X120650000Y-92456000D03*
X120650000Y-94996000D03*
X120650000Y-97536000D03*
X120650000Y-100076000D03*
X120650000Y-102616000D03*
X120650000Y-105156000D03*
X120650000Y-107696000D03*
X120650000Y-110236000D03*
X120650000Y-112776000D03*
X120650000Y-115316000D03*
X120650000Y-117856000D03*
X120650000Y-120396000D03*
X120650000Y-122936000D03*
X120650000Y-125476000D03*
D11*
X96281240Y-64734440D03*
X96281240Y-59734440D03*
D19*
X82702400Y-59182000D03*
D20*
X82702400Y-66802000D03*
D11*
X111760000Y-96977200D03*
D12*
X111760000Y-89357200D03*
D15*
X77025500Y-94234000D03*
D12*
X92265500Y-86614000D03*
X79565500Y-94234000D03*
X89725500Y-86614000D03*
X82105500Y-94234000D03*
X87185500Y-86614000D03*
X84645500Y-94234000D03*
X84645500Y-86614000D03*
X87185500Y-94234000D03*
X82105500Y-86614000D03*
X89725500Y-94234000D03*
X79565500Y-86614000D03*
X92265500Y-94234000D03*
X77025500Y-86614000D03*
D13*
X63997840Y-89507060D03*
X65267840Y-88237060D03*
D14*
X65267840Y-90777060D03*
D11*
X99364800Y-106375200D03*
D12*
X99364800Y-98755200D03*
D11*
X108585000Y-76276200D03*
X113585000Y-76276200D03*
D19*
X89956640Y-59893200D03*
D20*
X89956640Y-67513200D03*
D19*
X93040200Y-59969400D03*
D20*
X93040200Y-67589400D03*
D15*
X83693000Y-117983000D03*
D12*
X98933000Y-110363000D03*
X86233000Y-117983000D03*
X96393000Y-110363000D03*
X88773000Y-117983000D03*
X93853000Y-110363000D03*
X91313000Y-117983000D03*
X91313000Y-110363000D03*
X93853000Y-117983000D03*
X88773000Y-110363000D03*
X96393000Y-117983000D03*
X86233000Y-110363000D03*
X98933000Y-117983000D03*
X83693000Y-110363000D03*
D21*
X88773000Y-40894000D03*
D22*
X83693000Y-40894000D03*
D11*
X78105000Y-46710600D03*
D12*
X90805000Y-46710600D03*
D11*
X94068900Y-36309300D03*
D12*
X94068900Y-49009300D03*
D23*
X144785080Y-57109360D03*
D24*
X144785080Y-59649360D03*
D21*
X139750800Y-34315400D03*
D22*
X134670800Y-34315400D03*
D25*
X126415800Y-31851600D03*
X126415800Y-39601600D03*
D15*
X60960000Y-67818000D03*
D12*
X60960000Y-75438000D03*
D15*
X70799960Y-49956720D03*
D12*
X78419960Y-49956720D03*
D15*
X97231200Y-50139600D03*
D12*
X97231200Y-42519600D03*
D15*
X58166000Y-75438000D03*
D12*
X58166000Y-67818000D03*
D15*
X107177840Y-50637440D03*
D12*
X107177840Y-58257440D03*
D21*
X73152000Y-41148000D03*
D22*
X78232000Y-41148000D03*
D26*
X58420000Y-32004000D03*
X149098000Y-32004000D03*
X58420000Y-125222000D03*
X149098000Y-124968000D03*
D23*
X132867400Y-71602600D03*
D24*
X130327400Y-71602600D03*
X127787400Y-71602600D03*
X125247400Y-71602600D03*
X122707400Y-71602600D03*
X120167400Y-71602600D03*
D23*
X131064000Y-125984000D03*
D24*
X133604000Y-125984000D03*
X136144000Y-125984000D03*
X138684000Y-125984000D03*
X141224000Y-125984000D03*
X143764000Y-125984000D03*
D23*
X130708400Y-120700800D03*
D24*
X133248400Y-120700800D03*
D23*
X63754000Y-125476000D03*
D24*
X66294000Y-125476000D03*
X68834000Y-125476000D03*
X71374000Y-125476000D03*
X73914000Y-125476000D03*
D27*
X66040000Y-33020000D03*
X82804000Y-32766000D03*
X74168000Y-33020000D03*
X90678000Y-32766000D03*
D17*
X140258800Y-56301640D03*
D28*
X135826500Y-58928000D03*
D21*
X115062000Y-34544000D03*
D22*
X109982000Y-34544000D03*
X149529800Y-42862500D03*
X144959800Y-42862500D03*
X135890000Y-40792400D03*
X135890000Y-45362400D03*
D21*
X103886000Y-34544000D03*
D22*
X98806000Y-34544000D03*
D25*
X121412000Y-39624000D03*
X121412000Y-31874000D03*
D19*
X123698000Y-85344000D03*
D20*
X123698000Y-77724000D03*
D19*
X80010000Y-122174000D03*
D20*
X87630000Y-122174000D03*
D11*
X126095760Y-76474320D03*
D12*
X133715760Y-76474320D03*
D11*
X126288800Y-79684880D03*
D12*
X133908800Y-79684880D03*
D11*
X124968000Y-64262000D03*
D12*
X117348000Y-64262000D03*
D11*
X63754000Y-75438000D03*
D12*
X63754000Y-67818000D03*
D11*
X88569800Y-52974240D03*
D12*
X80949800Y-52974240D03*
D11*
X61132720Y-52890420D03*
D12*
X68752720Y-52890420D03*
D11*
X87376000Y-125476000D03*
D12*
X79756000Y-125476000D03*
D11*
X73418700Y-110337600D03*
D12*
X81038700Y-110337600D03*
D11*
X70104000Y-78994000D03*
D12*
X70104000Y-71374000D03*
D11*
X70576440Y-108966000D03*
D12*
X70576440Y-116586000D03*
D11*
X71079360Y-52918360D03*
D12*
X78699360Y-52918360D03*
D11*
X73152000Y-69799200D03*
D12*
X73152000Y-77419200D03*
D11*
X88402160Y-56271160D03*
D12*
X80782160Y-56271160D03*
D11*
X58257440Y-57947560D03*
D12*
X58257440Y-65567560D03*
D11*
X73914000Y-63754000D03*
D12*
X66294000Y-63754000D03*
D11*
X66421000Y-66802000D03*
D12*
X74041000Y-66802000D03*
D11*
X101574600Y-50673000D03*
D12*
X101574600Y-58293000D03*
D11*
X120142000Y-60182760D03*
D12*
X120142000Y-52562760D03*
D11*
X116814600Y-52082700D03*
D12*
X116814600Y-59702700D03*
D11*
X99034600Y-126593600D03*
D12*
X91414600Y-126593600D03*
D11*
X143992600Y-120929400D03*
D12*
X136372600Y-120929400D03*
D11*
X126517400Y-127177800D03*
D12*
X126517400Y-119557800D03*
D15*
X67627500Y-118173500D03*
D11*
X65127500Y-118173500D03*
D21*
X59182000Y-114046000D03*
D22*
X59182000Y-119126000D03*
D13*
X93586300Y-123977400D03*
X92316300Y-122707400D03*
D14*
X94856300Y-122707400D03*
D29*
X127381000Y-64897000D03*
D30*
X129921000Y-64897000D03*
D11*
X80802480Y-49621440D03*
D12*
X88422480Y-49621440D03*
D11*
X70065900Y-103441500D03*
D12*
X62445900Y-103441500D03*
D11*
X98719640Y-87289640D03*
D12*
X98719640Y-94909640D03*
D11*
X113461800Y-52197000D03*
D12*
X113461800Y-59817000D03*
D11*
X72771000Y-97917000D03*
D12*
X72771000Y-90297000D03*
D23*
X130581400Y-33756600D03*
D24*
X130581400Y-36296600D03*
D23*
X144170400Y-30962600D03*
D24*
X144170400Y-33502600D03*
D15*
X60807600Y-46558200D03*
D12*
X68427600Y-46558200D03*
D21*
X62738000Y-41148000D03*
D22*
X67818000Y-41148000D03*
D11*
X57658000Y-36068000D03*
D12*
X57658000Y-48768000D03*
D11*
X68694300Y-49682400D03*
D12*
X61074300Y-49682400D03*
D11*
X95986600Y-106426000D03*
D12*
X95986600Y-98806000D03*
D11*
X111815880Y-114665760D03*
D12*
X111815880Y-122285760D03*
D11*
X108762800Y-114604800D03*
D12*
X108762800Y-122224800D03*
D11*
X101996240Y-87518240D03*
D12*
X101996240Y-95138240D03*
D11*
X83870800Y-69875400D03*
D12*
X76250800Y-69875400D03*
D19*
X86299040Y-59893200D03*
D20*
X86299040Y-67513200D03*
D11*
X108712000Y-96977200D03*
D12*
X108712000Y-89357200D03*
D11*
X111760000Y-111455200D03*
X111760000Y-106455200D03*
X108610400Y-111302800D03*
X108610400Y-106302800D03*
X111709200Y-99212400D03*
X111709200Y-104212400D03*
X108610400Y-99110800D03*
X108610400Y-104110800D03*
X127101600Y-49009300D03*
X132101600Y-49009300D03*
X80352900Y-118414800D03*
X80352900Y-113414800D03*
D15*
X104282240Y-58293000D03*
D12*
X104282240Y-50673000D03*
D15*
X64897000Y-98298000D03*
D12*
X57277000Y-98298000D03*
D15*
X57150000Y-95758000D03*
D12*
X64770000Y-95758000D03*
D11*
X103327200Y-72969120D03*
X108327200Y-72969120D03*
X110459520Y-73050400D03*
X115459520Y-73050400D03*
D25*
X134226300Y-53251100D03*
X126476300Y-53251100D03*
D11*
X130454400Y-57363360D03*
D12*
X122834400Y-57363360D03*
D11*
X76936600Y-113487200D03*
X76936600Y-118487200D03*
X73812400Y-113436400D03*
X73812400Y-118436400D03*
D13*
X62484000Y-63500000D03*
X63754000Y-64770000D03*
D14*
X61214000Y-64770000D03*
D13*
X122326400Y-48260000D03*
X123596400Y-49530000D03*
D14*
X121056400Y-49530000D03*
D13*
X68072000Y-93091000D03*
X69342000Y-91821000D03*
D14*
X69342000Y-94361000D03*
D13*
X116751100Y-47485300D03*
X118021100Y-48755300D03*
D14*
X115481100Y-48755300D03*
D11*
X69850000Y-88773000D03*
D12*
X69850000Y-81153000D03*
D11*
X110083600Y-51866800D03*
D12*
X110083600Y-44246800D03*
D11*
X63500000Y-100584000D03*
D12*
X71120000Y-100584000D03*
D11*
X110337600Y-61531500D03*
D12*
X110337600Y-53911500D03*
D11*
X72898000Y-80518000D03*
D12*
X72898000Y-88138000D03*
D11*
X116062760Y-126177040D03*
D12*
X108442760Y-126177040D03*
D11*
X101600000Y-80073500D03*
D12*
X93980000Y-80073500D03*
D11*
X101536500Y-83312000D03*
D12*
X93916500Y-83312000D03*
D11*
X91122500Y-83312000D03*
D12*
X83502500Y-83312000D03*
D11*
X83997800Y-79400400D03*
D12*
X76377800Y-79400400D03*
D11*
X83820000Y-76174600D03*
D12*
X76200000Y-76174600D03*
D11*
X83794600Y-72999600D03*
D12*
X76174600Y-72999600D03*
D13*
X87884000Y-78232000D03*
X89154000Y-79502000D03*
D14*
X86614000Y-79502000D03*
D11*
X95402400Y-87233760D03*
D12*
X95402400Y-94853760D03*
D11*
X100076000Y-76835000D03*
D12*
X92456000Y-76835000D03*
D15*
X125818900Y-43675300D03*
D11*
X125818900Y-46175300D03*
X134335520Y-48950880D03*
D12*
X141955520Y-48950880D03*
D11*
X137668000Y-52070000D03*
D12*
X145288000Y-52070000D03*
D29*
X148907500Y-54483000D03*
D31*
X148907500Y-57023000D03*
X148907500Y-59563000D03*
D19*
X130200400Y-60985400D03*
D20*
X122580400Y-60985400D03*
D32*
X147574000Y-97536000D03*
D33*
X147574000Y-94996000D03*
X147574000Y-92456000D03*
X147574000Y-89916000D03*
X147574000Y-87376000D03*
X147574000Y-84836000D03*
D32*
X129032000Y-97536000D03*
D33*
X129032000Y-94996000D03*
X129032000Y-92456000D03*
X129032000Y-89916000D03*
X129032000Y-87376000D03*
X129032000Y-84836000D03*
D32*
X138684000Y-97536000D03*
D33*
X138684000Y-94996000D03*
X138684000Y-92456000D03*
X138684000Y-89916000D03*
X138684000Y-87376000D03*
X138684000Y-84836000D03*
D32*
X129032000Y-115824000D03*
D33*
X129032000Y-113284000D03*
X129032000Y-110744000D03*
X129032000Y-108204000D03*
X129032000Y-105664000D03*
X129032000Y-103124000D03*
D32*
X137922000Y-115824000D03*
D33*
X137922000Y-113284000D03*
X137922000Y-110744000D03*
X137922000Y-108204000D03*
X137922000Y-105664000D03*
X137922000Y-103124000D03*
D32*
X147828000Y-79756000D03*
D33*
X147828000Y-77216000D03*
X147828000Y-74676000D03*
X147828000Y-72136000D03*
X147828000Y-69596000D03*
X147828000Y-67056000D03*
D32*
X138684000Y-79756000D03*
D33*
X138684000Y-77216000D03*
X138684000Y-74676000D03*
X138684000Y-72136000D03*
X138684000Y-69596000D03*
X138684000Y-67056000D03*
D32*
X147421600Y-115722400D03*
D33*
X147421600Y-113182400D03*
X147421600Y-110642400D03*
X147421600Y-108102400D03*
X147421600Y-105562400D03*
X147421600Y-103022400D03*
D15*
X60121800Y-101003100D03*
D12*
X60121800Y-108623100D03*
D15*
X106898440Y-40904160D03*
D12*
X106898440Y-48524160D03*
D15*
X69951600Y-106032300D03*
D12*
X62331600Y-106032300D03*
D15*
X104195880Y-48585120D03*
D12*
X104195880Y-40965120D03*
D15*
X67111880Y-78148180D03*
D12*
X67111880Y-85768180D03*
D15*
X64516000Y-85344000D03*
D12*
X64516000Y-77724000D03*
D11*
X57302400Y-101003100D03*
D12*
X57302400Y-108623100D03*
D11*
X100164900Y-40843200D03*
D12*
X100164900Y-48463200D03*
D11*
X61722000Y-85344000D03*
D12*
X61722000Y-77724000D03*
D11*
X66802000Y-72390000D03*
X66802000Y-69890000D03*
X63759080Y-60434220D03*
X61259080Y-60434220D03*
X112745520Y-49453800D03*
X112745520Y-46953800D03*
X67691000Y-97536000D03*
X70191000Y-97536000D03*
X119024400Y-44343320D03*
X121524400Y-44343320D03*
X73253600Y-106565700D03*
X73253600Y-104065700D03*
X64135000Y-109601000D03*
X66635000Y-109601000D03*
X113284000Y-68326000D03*
X113284000Y-65826000D03*
X58724800Y-89204800D03*
X61224800Y-89204800D03*
X86487000Y-73215500D03*
X88987000Y-73215500D03*
X81280000Y-82931000D03*
X78780000Y-82931000D03*
X113055400Y-80086200D03*
X108055400Y-80086200D03*
X113080800Y-83413600D03*
X108080800Y-83413600D03*
X112979200Y-86639400D03*
X107979200Y-86639400D03*
X64770000Y-93218000D03*
D12*
X57150000Y-93218000D03*
D11*
X117515640Y-41630600D03*
D12*
X109895640Y-41630600D03*
D11*
X62738000Y-57404000D03*
D12*
X70358000Y-57404000D03*
D11*
X70789800Y-46939200D03*
X73289800Y-46939200D03*
X90932000Y-52578000D03*
X90932000Y-50078000D03*
X57658000Y-51308000D03*
X57658000Y-53808000D03*
D34*
X96266000Y-69443600D03*
X116586000Y-91186000D03*
X116586000Y-118364000D03*
X115824000Y-91948000D03*
X115824000Y-119380000D03*
X115062000Y-90932000D03*
X115062000Y-120904000D03*
X117348000Y-92202000D03*
X117348000Y-117348000D03*
X85344000Y-113766600D03*
X131775200Y-118364000D03*
X106845100Y-109524800D03*
X80213200Y-65100200D03*
X101996240Y-103748840D03*
X85973920Y-102514400D03*
X92080080Y-79811880D03*
X100777040Y-91821000D03*
X102910640Y-83972400D03*
X82219800Y-80238600D03*
X104510840Y-88585040D03*
X99745800Y-86065360D03*
X142941040Y-81361280D03*
X142996920Y-68508880D03*
X142829280Y-100584000D03*
X142829280Y-86111080D03*
D35*
X139750800Y-34315400D02*
X139750800Y-32918400D01*
X139750800Y-32918400D02*
X141706600Y-30962600D01*
X141706600Y-30962600D02*
X144170400Y-30962600D01*
X126415800Y-31851600D02*
X127228600Y-31851600D01*
X127228600Y-31851600D02*
X127965200Y-31115000D01*
X127965200Y-31115000D02*
X138455400Y-31115000D01*
X139750800Y-32410400D02*
X139750800Y-34315400D01*
X138455400Y-31115000D02*
X139750800Y-32410400D01*
D36*
X107177840Y-50637440D02*
X108315760Y-50637440D01*
X109499400Y-49453800D02*
X112745520Y-49453800D01*
X108315760Y-50637440D02*
X109499400Y-49453800D01*
X104282240Y-50673000D02*
X107142280Y-50673000D01*
X107142280Y-50673000D02*
X107177840Y-50637440D01*
X101574600Y-58293000D02*
X101574600Y-56062880D01*
X104282240Y-53355240D02*
X104282240Y-50673000D01*
X101574600Y-56062880D02*
X104282240Y-53355240D01*
X107177840Y-50637440D02*
X107820460Y-50637440D01*
D37*
X78699360Y-52918360D02*
X78699360Y-52847240D01*
X78699360Y-52847240D02*
X80802480Y-50744120D01*
X80802480Y-50744120D02*
X80802480Y-49621440D01*
X78755240Y-52974240D02*
X78699360Y-52918360D01*
D36*
X105410000Y-89916000D02*
X105410000Y-90220800D01*
X105410000Y-90220800D02*
X106172000Y-90982800D01*
X110185200Y-77876400D02*
X108585000Y-76276200D01*
X110185200Y-90525600D02*
X110185200Y-77876400D01*
X109728000Y-90982800D02*
X110185200Y-90525600D01*
X106172000Y-90982800D02*
X109728000Y-90982800D01*
X108864400Y-76555600D02*
X108585000Y-76276200D01*
X105410000Y-89916000D02*
X105468420Y-89916000D01*
X105059480Y-89916000D02*
X105410000Y-89916000D01*
X105156000Y-90170000D02*
X105410000Y-89916000D01*
D37*
X105003600Y-90322400D02*
X105410000Y-89916000D01*
X80782160Y-56271160D02*
X81696560Y-56271160D01*
X84993480Y-52974240D02*
X88569800Y-52974240D01*
X81696560Y-56271160D02*
X84993480Y-52974240D01*
D36*
X104394000Y-80518000D02*
X104902000Y-81026000D01*
X104902000Y-81026000D02*
X106172000Y-81026000D01*
X103327200Y-72969120D02*
X103327200Y-77266800D01*
X106680000Y-81788000D02*
X106756200Y-81788000D01*
X106756200Y-86146640D02*
X106756200Y-81788000D01*
X105526840Y-87376000D02*
X106756200Y-86146640D01*
X106172000Y-81026000D02*
X106756200Y-81610200D01*
X106756200Y-81610200D02*
X106756200Y-81711800D01*
X106756200Y-81711800D02*
X106680000Y-81788000D01*
X104394000Y-80502180D02*
X104394000Y-80518000D01*
X103886000Y-79994180D02*
X104394000Y-80502180D01*
X103886000Y-77825600D02*
X103886000Y-79994180D01*
X103327200Y-77266800D02*
X103886000Y-77825600D01*
X103327200Y-72969120D02*
X103449120Y-72969120D01*
X105410000Y-87376000D02*
X105526840Y-87376000D01*
X105704640Y-87670640D02*
X105410000Y-87376000D01*
X104902000Y-86868000D02*
X105410000Y-87376000D01*
D37*
X105257600Y-87223600D02*
X105410000Y-87376000D01*
X66635000Y-109601000D02*
X68046600Y-109601000D01*
X68046600Y-109601000D02*
X68453000Y-109194600D01*
X72771000Y-97917000D02*
X72771000Y-103583100D01*
X72771000Y-103583100D02*
X73253600Y-104065700D01*
D36*
X66421000Y-66802000D02*
X66421000Y-66728340D01*
X66421000Y-66728340D02*
X64462660Y-64770000D01*
X64462660Y-64770000D02*
X63754000Y-64770000D01*
D35*
X72771000Y-97917000D02*
X73025000Y-97917000D01*
X73025000Y-97917000D02*
X73863200Y-98755200D01*
X73863200Y-98755200D02*
X76962000Y-98755200D01*
D36*
X72771000Y-97917000D02*
X72771000Y-93853000D01*
X70739000Y-91821000D02*
X69342000Y-91821000D01*
X72771000Y-93853000D02*
X70739000Y-91821000D01*
D37*
X66635000Y-109601000D02*
X66635000Y-112054000D01*
X66635000Y-112054000D02*
X66548000Y-112141000D01*
X73253600Y-104065700D02*
X72083300Y-104065700D01*
X71501000Y-107442000D02*
X71501000Y-104648000D01*
X69088000Y-107442000D02*
X71501000Y-107442000D01*
X68453000Y-108077000D02*
X69088000Y-107442000D01*
X68453000Y-109194600D02*
X68453000Y-108077000D01*
X72083300Y-104065700D02*
X71501000Y-104648000D01*
X67627500Y-118173500D02*
X67627500Y-117665500D01*
X67627500Y-117665500D02*
X68453000Y-116840000D01*
X68453000Y-116840000D02*
X68453000Y-109194600D01*
D35*
X148907500Y-57023000D02*
X148112480Y-57023000D01*
X148112480Y-57023000D02*
X147187920Y-57947560D01*
X147187920Y-57947560D02*
X147187920Y-62865000D01*
D37*
X129921000Y-64897000D02*
X129921000Y-64643000D01*
X120142000Y-60182760D02*
X120142000Y-56007000D01*
X123596400Y-52552600D02*
X123596400Y-49530000D01*
X120142000Y-56007000D02*
X123596400Y-52552600D01*
D35*
X148907500Y-57023000D02*
X148358860Y-57023000D01*
D37*
X137668000Y-52070000D02*
X142367000Y-52070000D01*
X147137120Y-55570120D02*
X148907500Y-57023000D01*
X145389600Y-53568600D02*
X147137120Y-55570120D01*
X144119600Y-53568600D02*
X145389600Y-53568600D01*
X142367000Y-52070000D02*
X144119600Y-53568600D01*
D36*
X130708400Y-120700800D02*
X128981200Y-120700800D01*
X99060000Y-122174000D02*
X98298000Y-122174000D01*
X101092000Y-124206000D02*
X99060000Y-122174000D01*
X106680000Y-124206000D02*
X101092000Y-124206000D01*
X106934000Y-124460000D02*
X106680000Y-124206000D01*
X109728000Y-124460000D02*
X106934000Y-124460000D01*
X113030000Y-127762000D02*
X109728000Y-124460000D01*
X123952000Y-127762000D02*
X113030000Y-127762000D01*
X124714000Y-127000000D02*
X123952000Y-127762000D01*
X124714000Y-124968000D02*
X124714000Y-127000000D01*
X128981200Y-120700800D02*
X124714000Y-124968000D01*
D37*
X120142000Y-60182760D02*
X120086120Y-62001400D01*
X120086120Y-62001400D02*
X120060720Y-62026800D01*
X80949800Y-52974240D02*
X81305400Y-52974240D01*
X81305400Y-52974240D02*
X84658200Y-49621440D01*
X84658200Y-49621440D02*
X88422480Y-49621440D01*
X88011000Y-50032920D02*
X88422480Y-49621440D01*
D35*
X138684000Y-79756000D02*
X147828000Y-79756000D01*
D37*
X96281240Y-64734440D02*
X96281240Y-69428360D01*
X96281240Y-69428360D02*
X96266000Y-69443600D01*
X96281240Y-64734440D02*
X83657440Y-64734440D01*
X82717640Y-65674240D02*
X82702400Y-66700400D01*
X83657440Y-64734440D02*
X82717640Y-65674240D01*
D35*
X105410000Y-122936000D02*
X102476300Y-122936000D01*
X98933000Y-119392700D02*
X98933000Y-117983000D01*
X102476300Y-122936000D02*
X98933000Y-119392700D01*
D36*
X95084900Y-122936000D02*
X94856300Y-122707400D01*
X121606152Y-75103378D02*
X121761862Y-75103378D01*
X126679960Y-72786240D02*
X126679960Y-72710040D01*
X125648720Y-73817480D02*
X126679960Y-72786240D01*
X123047760Y-73817480D02*
X125648720Y-73817480D01*
X121761862Y-75103378D02*
X123047760Y-73817480D01*
X126679960Y-72710040D02*
X127787400Y-71602600D01*
X116586000Y-118364000D02*
X116840000Y-119380000D01*
X117856000Y-120396000D02*
X120650000Y-120396000D01*
X116840000Y-119380000D02*
X117856000Y-120396000D01*
X116586000Y-91186000D02*
X116586000Y-80264000D01*
X117348000Y-79502000D02*
X117348000Y-79451200D01*
X116586000Y-80264000D02*
X117348000Y-79502000D01*
X117703600Y-76225400D02*
X118745000Y-75184000D01*
X117703600Y-79095600D02*
X117703600Y-76225400D01*
X117348000Y-79451200D02*
X117703600Y-79095600D01*
X118745000Y-75184000D02*
X121412000Y-75184000D01*
X121412000Y-75184000D02*
X121606152Y-75103378D01*
X117627400Y-74422000D02*
X121381520Y-74422000D01*
X122793760Y-73009760D02*
X123840240Y-73009760D01*
X121381520Y-74422000D02*
X122793760Y-73009760D01*
X123840240Y-73009760D02*
X125247400Y-71602600D01*
X115824000Y-91948000D02*
X115824000Y-80010000D01*
X116332000Y-79502000D02*
X116332000Y-79451200D01*
X115824000Y-80010000D02*
X116332000Y-79502000D01*
X115824000Y-119380000D02*
X115824000Y-120881140D01*
X115824000Y-120881140D02*
X117878860Y-122936000D01*
X116789200Y-75260200D02*
X117627400Y-74422000D01*
X116789200Y-78994000D02*
X116789200Y-75260200D01*
X116332000Y-79451200D02*
X116789200Y-78994000D01*
X120650000Y-122936000D02*
X117878860Y-122936000D01*
X117068600Y-73660000D02*
X120904000Y-73660000D01*
X120904000Y-73660000D02*
X122707400Y-71856600D01*
X122707400Y-71856600D02*
X122707400Y-71602600D01*
X115062000Y-120904000D02*
X115062000Y-122682000D01*
X115062000Y-122682000D02*
X117856000Y-125476000D01*
X114970014Y-90409849D02*
X114970014Y-79593986D01*
X115011200Y-90881200D02*
X114970014Y-90409849D01*
X115062000Y-90932000D02*
X115011200Y-90881200D01*
X115316000Y-79248000D02*
X115316000Y-79197200D01*
X114970014Y-79593986D02*
X115316000Y-79248000D01*
X115316000Y-79197200D02*
X115951000Y-78562200D01*
X115951000Y-78562200D02*
X115951000Y-74777600D01*
X115951000Y-74777600D02*
X117068600Y-73660000D01*
X120650000Y-125476000D02*
X117856000Y-125476000D01*
X122707400Y-72110600D02*
X122707400Y-71602600D01*
X122463560Y-75834240D02*
X122463560Y-75468480D01*
X127858520Y-73091040D02*
X128501247Y-73091040D01*
X126517400Y-74432160D02*
X127858520Y-73091040D01*
X123499880Y-74432160D02*
X126517400Y-74432160D01*
X122463560Y-75468480D02*
X123499880Y-74432160D01*
X118522750Y-79978250D02*
X118522750Y-77006450D01*
X118522750Y-77006450D02*
X118618000Y-76911200D01*
X117348000Y-117348000D02*
X117856000Y-117856000D01*
X117856000Y-117856000D02*
X120650000Y-117856000D01*
X120650000Y-117856000D02*
X120015000Y-117856000D01*
X118618000Y-76911200D02*
X119496840Y-75834240D01*
X119496840Y-75834240D02*
X122463560Y-75834240D01*
X130327400Y-71602600D02*
X128501247Y-73091040D01*
X117449600Y-81051400D02*
X118522750Y-79978250D01*
X117348000Y-92202000D02*
X117449600Y-81051400D01*
X106619040Y-114046000D02*
X106680000Y-114046000D01*
X107152440Y-113284000D02*
X118384320Y-113284000D01*
X106680000Y-114046000D02*
X107152440Y-113284000D01*
X106619040Y-113995200D02*
X106619040Y-114046000D01*
X118661180Y-108849535D02*
X118745000Y-108849535D01*
X118661180Y-113296700D02*
X118661180Y-108849535D01*
X118384320Y-113284000D02*
X118661180Y-113296700D01*
X102565200Y-113995200D02*
X106619040Y-113995200D01*
X102565200Y-113995200D02*
X98933000Y-110363000D01*
X85344000Y-113766600D02*
X85445600Y-113665000D01*
X85445600Y-113665000D02*
X96977200Y-113665000D01*
X96977200Y-113665000D02*
X98933000Y-111709200D01*
X98933000Y-111709200D02*
X98933000Y-110363000D01*
X118745000Y-104902000D02*
X120650000Y-102616000D01*
X118745000Y-108849535D02*
X118745000Y-104902000D01*
X114313970Y-120409970D02*
X114313970Y-122160030D01*
X105918000Y-121666000D02*
X105918000Y-121678700D01*
X106172000Y-121666000D02*
X105918000Y-121666000D01*
X108204000Y-123698000D02*
X106172000Y-121666000D01*
X112776000Y-123698000D02*
X108204000Y-123698000D01*
X114313970Y-122160030D02*
X112776000Y-123698000D01*
X114670840Y-116560600D02*
X114670840Y-116616480D01*
X105918000Y-121678700D02*
X103014780Y-121678700D01*
X114330480Y-120393460D02*
X114313970Y-120409970D01*
X114330480Y-116956840D02*
X114330480Y-120393460D01*
X114670840Y-116616480D02*
X114330480Y-116956840D01*
X119303800Y-114079020D02*
X119303800Y-106730800D01*
X118074440Y-115308380D02*
X119303800Y-114079020D01*
X115923060Y-115308380D02*
X118074440Y-115308380D01*
X114670840Y-116560600D02*
X115923060Y-115308380D01*
X119303800Y-106730800D02*
X119684800Y-106349800D01*
X119684800Y-106349800D02*
X121462800Y-106349800D01*
X121462800Y-106349800D02*
X122631200Y-105181400D01*
X122631200Y-105181400D02*
X122631200Y-94437200D01*
X122631200Y-94437200D02*
X121869200Y-93675200D01*
X121869200Y-93675200D02*
X119786400Y-93675200D01*
X103014780Y-121678700D02*
X100751640Y-119415560D01*
X100751640Y-119415560D02*
X100751640Y-117431820D01*
X100751640Y-117431820D02*
X99880420Y-116560600D01*
X97053400Y-116560600D02*
X99880420Y-116560600D01*
X96393000Y-117221000D02*
X97053400Y-116560600D01*
X96393000Y-117983000D02*
X96393000Y-117221000D01*
X119786400Y-93675200D02*
X118999000Y-92887800D01*
X118999000Y-92887800D02*
X118999000Y-89027000D01*
X118999000Y-89027000D02*
X120650000Y-87376000D01*
D37*
X133908800Y-79684880D02*
X134391400Y-79684880D01*
X138684000Y-74676000D02*
X138430000Y-74676000D01*
X138684000Y-74676000D02*
X138684000Y-74523600D01*
X120650000Y-92456000D02*
X129032000Y-92456000D01*
X147421600Y-110642400D02*
X138023600Y-110642400D01*
X138023600Y-110642400D02*
X137922000Y-110744000D01*
X129032000Y-110744000D02*
X137922000Y-110744000D01*
X147828000Y-74676000D02*
X138684000Y-74676000D01*
X147574000Y-92456000D02*
X138684000Y-92456000D01*
X138430000Y-92710000D02*
X138684000Y-92456000D01*
X138938000Y-92710000D02*
X138684000Y-92456000D01*
X138684000Y-72136000D02*
X137922000Y-72136000D01*
X138684000Y-72136000D02*
X137972800Y-72136000D01*
X120650000Y-89916000D02*
X129032000Y-89916000D01*
X147421600Y-108102400D02*
X149072600Y-108102400D01*
X149072600Y-108102400D02*
X151130000Y-106045000D01*
X147421600Y-108102400D02*
X138023600Y-108102400D01*
X138023600Y-108102400D02*
X137922000Y-108204000D01*
X138684000Y-72136000D02*
X137947400Y-72136000D01*
X151130000Y-91948000D02*
X151130000Y-73152000D01*
X151130000Y-73152000D02*
X150114000Y-72136000D01*
X150114000Y-72136000D02*
X147828000Y-72136000D01*
X151130000Y-106045000D02*
X151130000Y-91948000D01*
X151130000Y-91948000D02*
X151130000Y-91440000D01*
X151130000Y-91440000D02*
X149606000Y-89916000D01*
X149606000Y-89916000D02*
X147574000Y-89916000D01*
X137922000Y-108204000D02*
X129032000Y-108204000D01*
X147828000Y-72136000D02*
X138684000Y-72136000D01*
X147574000Y-89916000D02*
X138684000Y-89916000D01*
X147574000Y-89916000D02*
X148590000Y-89916000D01*
X138938000Y-90170000D02*
X138684000Y-89916000D01*
X147828000Y-69596000D02*
X138684000Y-69596000D01*
X147828000Y-69596000D02*
X147828000Y-69001640D01*
X147421600Y-105562400D02*
X138023600Y-105562400D01*
X138023600Y-105562400D02*
X137922000Y-105664000D01*
X129032000Y-105664000D02*
X137922000Y-105664000D01*
X147574000Y-87376000D02*
X138684000Y-87376000D01*
X138938000Y-87630000D02*
X138684000Y-87376000D01*
X136144000Y-125984000D02*
X136144000Y-123977400D01*
X141757400Y-123164600D02*
X143992600Y-120929400D01*
X136956800Y-123164600D02*
X141757400Y-123164600D01*
X136144000Y-123977400D02*
X136956800Y-123164600D01*
D36*
X138684000Y-125984000D02*
X138684000Y-125222000D01*
X79756000Y-125476000D02*
X79502000Y-125476000D01*
X79502000Y-125476000D02*
X76454000Y-122428000D01*
X76454000Y-122428000D02*
X71882000Y-122428000D01*
X71882000Y-122428000D02*
X68834000Y-125476000D01*
X73190100Y-127635000D02*
X89725500Y-127635000D01*
X90335100Y-127025400D02*
X91071700Y-126936500D01*
X89725500Y-127635000D02*
X90335100Y-127025400D01*
X91071700Y-126936500D02*
X91414600Y-126593600D01*
X73190100Y-127635000D02*
X71374000Y-125476000D01*
X91414600Y-126593600D02*
X90652600Y-126593600D01*
D35*
X126415800Y-39601600D02*
X121542000Y-39754000D01*
X121542000Y-39754000D02*
X121412000Y-39624000D01*
D37*
X127381000Y-64897000D02*
X125095000Y-64389000D01*
X125095000Y-64389000D02*
X124968000Y-64262000D01*
D36*
X126517400Y-127177800D02*
X126492000Y-125476000D01*
X131318000Y-123698000D02*
X133604000Y-125984000D01*
X128270000Y-123698000D02*
X131318000Y-123698000D01*
X126492000Y-125476000D02*
X128270000Y-123698000D01*
X136372600Y-120929400D02*
X136372600Y-120345200D01*
X136372600Y-120345200D02*
X134391400Y-118364000D01*
X134391400Y-118364000D02*
X131775200Y-118364000D01*
X120650000Y-112776000D02*
X122428000Y-112776000D01*
X124460000Y-117094000D02*
X126517400Y-119557800D01*
X124460000Y-114808000D02*
X124460000Y-117094000D01*
X122428000Y-112776000D02*
X124460000Y-114808000D01*
D37*
X123698000Y-85344000D02*
X123408440Y-82641440D01*
X123063000Y-82296000D02*
X120650000Y-82296000D01*
X123408440Y-82641440D02*
X123063000Y-82296000D01*
D36*
X92557600Y-122758200D02*
X91681300Y-122758200D01*
X91681300Y-122758200D02*
X89230200Y-125209300D01*
X89230200Y-125209300D02*
X89230200Y-126187200D01*
X89230200Y-126187200D02*
X88392000Y-127025400D01*
X88392000Y-127025400D02*
X75463400Y-127025400D01*
X75463400Y-127025400D02*
X73914000Y-125476000D01*
X107442000Y-127254000D02*
X108712000Y-125984000D01*
X102108000Y-127254000D02*
X107442000Y-127254000D01*
X93586300Y-123977400D02*
X93586300Y-124066300D01*
X93586300Y-124066300D02*
X94234000Y-124714000D01*
X99568000Y-124714000D02*
X102108000Y-127254000D01*
X94234000Y-124714000D02*
X99568000Y-124714000D01*
X106845100Y-109524800D02*
X106845100Y-112255300D01*
X108127800Y-112593120D02*
X108204000Y-112669320D01*
X107289600Y-112699800D02*
X108127800Y-112593120D01*
X106845100Y-112255300D02*
X107289600Y-112699800D01*
X108204000Y-112669320D02*
X117254020Y-112669320D01*
X118122700Y-108407200D02*
X118122700Y-86575900D01*
X119862600Y-84836000D02*
X118122700Y-86575900D01*
X120650000Y-84836000D02*
X119862600Y-84836000D01*
X118046500Y-108486418D02*
X118122700Y-108407200D01*
X117254020Y-112669320D02*
X118046500Y-111983520D01*
X118046500Y-111983520D02*
X118046500Y-108486418D01*
X120650000Y-84836000D02*
X120650000Y-84988400D01*
X62484000Y-63500000D02*
X62484000Y-65557400D01*
X65044320Y-68132320D02*
X66802000Y-69890000D01*
X65044320Y-66860420D02*
X65044320Y-68132320D01*
X64234060Y-66050160D02*
X65044320Y-66860420D01*
X62976760Y-66050160D02*
X64234060Y-66050160D01*
X62484000Y-65557400D02*
X62976760Y-66050160D01*
X70104000Y-71374000D02*
X73101200Y-69850000D01*
X73101200Y-69850000D02*
X73152000Y-69799200D01*
X66802000Y-69890000D02*
X70064000Y-71414000D01*
X70064000Y-71414000D02*
X70104000Y-71374000D01*
X70104000Y-71374000D02*
X70612000Y-71374000D01*
X70104000Y-71374000D02*
X70104000Y-71259700D01*
D35*
X149529800Y-42862500D02*
X149529800Y-41846500D01*
X149529800Y-41846500D02*
X147307300Y-39624000D01*
X147307300Y-39624000D02*
X145288000Y-39624000D01*
X145288000Y-39624000D02*
X144170400Y-38506400D01*
X144170400Y-38506400D02*
X144170400Y-33502600D01*
D36*
X80213200Y-65100200D02*
X82702400Y-62611000D01*
X82702400Y-62611000D02*
X82702400Y-59182000D01*
X82702400Y-59182000D02*
X82321400Y-59182000D01*
D37*
X82702400Y-59182000D02*
X82702400Y-59385200D01*
X82702400Y-59385200D02*
X83210400Y-59893200D01*
X83210400Y-59893200D02*
X86299040Y-59893200D01*
X93309440Y-59893200D02*
X96122480Y-59893200D01*
X96122480Y-59893200D02*
X96281240Y-59734440D01*
X89839800Y-60045600D02*
X93157040Y-60045600D01*
X93157040Y-60045600D02*
X93309440Y-59893200D01*
X86222840Y-59857640D02*
X89651840Y-59857640D01*
X89651840Y-59857640D02*
X89839800Y-60045600D01*
X86106000Y-59740800D02*
X86222840Y-59857640D01*
D36*
X61722000Y-85344000D02*
X61722000Y-83058000D01*
X74020680Y-54356000D02*
X78419960Y-49956720D01*
X63500000Y-54356000D02*
X74020680Y-54356000D01*
X62484000Y-55372000D02*
X63500000Y-54356000D01*
X57658000Y-55372000D02*
X62484000Y-55372000D01*
X56642000Y-56388000D02*
X57658000Y-55372000D01*
X56642000Y-77978000D02*
X56642000Y-56388000D01*
X61722000Y-83058000D02*
X56642000Y-77978000D01*
X78419960Y-49956720D02*
X78419960Y-50091340D01*
D37*
X78419960Y-49956720D02*
X78313280Y-49956720D01*
X78105000Y-46710600D02*
X78105000Y-49641760D01*
X78105000Y-49641760D02*
X78419960Y-49956720D01*
X73152000Y-41148000D02*
X73228200Y-41148000D01*
X73228200Y-41148000D02*
X77470000Y-45389800D01*
X77470000Y-45389800D02*
X78105000Y-46710600D01*
X77597000Y-46202600D02*
X78105000Y-46710600D01*
X72771000Y-41021000D02*
X72771000Y-41148000D01*
X72771000Y-41021000D02*
X72771000Y-41529000D01*
X97154257Y-41010812D02*
X97154257Y-42442657D01*
X97154257Y-42442657D02*
X97231200Y-42519600D01*
X88773000Y-40894000D02*
X89433400Y-40894000D01*
X88773000Y-40894000D02*
X97154257Y-41010812D01*
X97154257Y-41010812D02*
X99707700Y-41046400D01*
X88773000Y-40894000D02*
X88900000Y-40894000D01*
X88900000Y-40894000D02*
X94068900Y-36309300D01*
X88773000Y-40894000D02*
X88392000Y-40894000D01*
X88392000Y-40894000D02*
X85344000Y-43942000D01*
X81026000Y-43942000D02*
X78232000Y-41148000D01*
X85344000Y-43942000D02*
X81026000Y-43942000D01*
X88773000Y-40894000D02*
X88773000Y-40767000D01*
X99707700Y-41046400D02*
X100063300Y-40690800D01*
D36*
X61259080Y-60434220D02*
X61259080Y-64724920D01*
X61259080Y-64724920D02*
X61214000Y-64770000D01*
X58257440Y-57947560D02*
X58772420Y-57947560D01*
X58772420Y-57947560D02*
X61259080Y-60434220D01*
X57302400Y-101003100D02*
X57302400Y-100660200D01*
X57302400Y-100660200D02*
X55829200Y-99187000D01*
X55829200Y-99187000D02*
X55829200Y-37896800D01*
X55829200Y-37896800D02*
X57658000Y-36068000D01*
D37*
X62738000Y-41148000D02*
X63017400Y-41148000D01*
X63017400Y-41148000D02*
X68427600Y-46558200D01*
X62738000Y-41148000D02*
X57658000Y-36068000D01*
D36*
X69850000Y-88773000D02*
X69850000Y-88988900D01*
X69850000Y-88988900D02*
X71158100Y-90297000D01*
X71158100Y-90297000D02*
X72771000Y-90297000D01*
X68072000Y-93091000D02*
X70256400Y-93091000D01*
X70713600Y-96088200D02*
X70191000Y-97144200D01*
X70713600Y-93548200D02*
X70713600Y-96088200D01*
X70256400Y-93091000D02*
X70713600Y-93548200D01*
X70191000Y-97144200D02*
X70191000Y-97536000D01*
X68072000Y-93091000D02*
X68072000Y-90551000D01*
X68072000Y-90551000D02*
X69850000Y-88773000D01*
D37*
X70799960Y-49956720D02*
X70799960Y-52638960D01*
X70799960Y-52638960D02*
X71079360Y-52918360D01*
X70789800Y-46939200D02*
X70789800Y-49946560D01*
X70789800Y-49946560D02*
X70799960Y-49956720D01*
X88402160Y-56271160D02*
X89524840Y-56271160D01*
X90932000Y-54864000D02*
X90932000Y-52578000D01*
X89524840Y-56271160D02*
X90932000Y-54864000D01*
X97231200Y-50139600D02*
X95656400Y-50139600D01*
X95656400Y-50139600D02*
X93218000Y-52578000D01*
X93218000Y-52578000D02*
X90932000Y-52578000D01*
X88402160Y-56271160D02*
X88851740Y-56271160D01*
X90932000Y-52578000D02*
X91440000Y-52578000D01*
D36*
X117515640Y-41630600D02*
X117515640Y-42834560D01*
X117515640Y-42834560D02*
X119024400Y-44343320D01*
X118927880Y-44246800D02*
X119024400Y-44343320D01*
D38*
X98719640Y-94909640D02*
X98719640Y-96088200D01*
X98719640Y-96088200D02*
X99517200Y-96885760D01*
D36*
X101996240Y-103748840D02*
X100700840Y-102453440D01*
X100700840Y-102453440D02*
X100700840Y-98069400D01*
X100700840Y-98069400D02*
X99517200Y-96885760D01*
X98719640Y-95021400D02*
X98719640Y-94909640D01*
X111760000Y-111455200D02*
X111760000Y-111175800D01*
X111760000Y-111175800D02*
X110159800Y-109575600D01*
X106705400Y-107696000D02*
X105410000Y-107696000D01*
X108585000Y-109575600D02*
X106705400Y-107696000D01*
X110159800Y-109575600D02*
X108585000Y-109575600D01*
X98338640Y-95290640D02*
X98338640Y-94945200D01*
X105410000Y-110236000D02*
X104444800Y-110236000D01*
X95986600Y-100685600D02*
X95986600Y-98806000D01*
X101092000Y-105791000D02*
X95986600Y-100685600D01*
X101092000Y-106883200D02*
X101092000Y-105791000D01*
X104444800Y-110236000D02*
X101092000Y-106883200D01*
D37*
X57658000Y-51308000D02*
X58729880Y-50962560D01*
X59456320Y-47909480D02*
X60807600Y-46558200D01*
X59456320Y-50236120D02*
X59456320Y-47909480D01*
X58729880Y-50962560D02*
X59456320Y-50236120D01*
X60807600Y-46558200D02*
X62931040Y-46558200D01*
X67627500Y-48615600D02*
X68694300Y-49682400D01*
X64988440Y-48615600D02*
X67627500Y-48615600D01*
X62931040Y-46558200D02*
X64988440Y-48615600D01*
D36*
X99364800Y-98755200D02*
X99364800Y-102438200D01*
X102082600Y-105156000D02*
X105410000Y-105156000D01*
X99364800Y-102438200D02*
X102082600Y-105156000D01*
X105410000Y-105156000D02*
X106578400Y-105156000D01*
X111709200Y-101879400D02*
X111709200Y-99212400D01*
X111074200Y-102514400D02*
X111709200Y-101879400D01*
X107899200Y-102514400D02*
X111074200Y-102514400D01*
X107137200Y-103276400D02*
X107899200Y-102514400D01*
X107137200Y-104597200D02*
X107137200Y-103276400D01*
X106578400Y-105156000D02*
X107137200Y-104597200D01*
D38*
X101996240Y-95138240D02*
X101996240Y-95443040D01*
X101996240Y-95443040D02*
X102758240Y-96205040D01*
D36*
X101996240Y-95138240D02*
X102722680Y-95138240D01*
X102758240Y-96205040D02*
X107939840Y-96205040D01*
X107939840Y-96205040D02*
X108712000Y-96977200D01*
X105410000Y-102616000D02*
X105410000Y-102514400D01*
X105410000Y-102514400D02*
X106680000Y-101244400D01*
X106680000Y-101041200D02*
X108610400Y-99110800D01*
X106680000Y-101244400D02*
X106680000Y-101041200D01*
X105397300Y-102603300D02*
X105410000Y-102616000D01*
D37*
X61132720Y-52890420D02*
X60982860Y-52844700D01*
X61074300Y-52753260D02*
X61074300Y-49682400D01*
X60982860Y-52844700D02*
X61074300Y-52753260D01*
D36*
X110459520Y-73050400D02*
X110459520Y-76382880D01*
X111252000Y-77175360D02*
X111556800Y-77175360D01*
X110459520Y-76382880D02*
X111252000Y-77175360D01*
X105410000Y-92456000D02*
X106959400Y-92456000D01*
X106959400Y-92456000D02*
X107238800Y-92735400D01*
X107238800Y-92735400D02*
X111709200Y-92735400D01*
X111709200Y-92735400D02*
X113360200Y-91084400D01*
X113360200Y-91084400D02*
X113360200Y-88493600D01*
X113360200Y-88493600D02*
X112776000Y-87909400D01*
X112776000Y-87909400D02*
X112115600Y-87909400D01*
X112115600Y-87909400D02*
X111556800Y-87350600D01*
X111556800Y-87350600D02*
X111556800Y-77175360D01*
X105562400Y-92456000D02*
X105410000Y-92456000D01*
X105410000Y-92456000D02*
X105410000Y-91790520D01*
X105410000Y-92456000D02*
X104851200Y-92456000D01*
X105410000Y-92456000D02*
X106133900Y-92456000D01*
X105333800Y-92379800D02*
X105410000Y-92456000D01*
X98719640Y-87289640D02*
X98719640Y-91302840D01*
X97149920Y-92872560D02*
X97149920Y-92903040D01*
X98719640Y-91302840D02*
X97149920Y-92872560D01*
X94335600Y-96672400D02*
X95666560Y-96672400D01*
X96895920Y-93157040D02*
X97149920Y-92903040D01*
X96895920Y-93659960D02*
X96895920Y-93157040D01*
X96687640Y-93959680D02*
X96895920Y-93659960D01*
X96687640Y-95742760D02*
X96687640Y-93959680D01*
X95666560Y-96672400D02*
X96687640Y-95742760D01*
X92202000Y-98755200D02*
X92776040Y-98755200D01*
X92776040Y-98755200D02*
X94335600Y-96941640D01*
X94335600Y-96941640D02*
X94335600Y-96672400D01*
X92202000Y-98755200D02*
X92547440Y-98755200D01*
X94538800Y-108204000D02*
X94538800Y-107873800D01*
X94538800Y-107873800D02*
X95986600Y-106426000D01*
X89662000Y-106375200D02*
X89662000Y-107188000D01*
X89662000Y-107188000D02*
X90678000Y-108204000D01*
X90678000Y-108204000D02*
X94538800Y-108204000D01*
X86487000Y-104267000D02*
X97256600Y-104267000D01*
X97256600Y-104267000D02*
X99364800Y-106375200D01*
X86487000Y-104267000D02*
X84582000Y-102362000D01*
X84582000Y-102362000D02*
X84582000Y-98755200D01*
X97553780Y-94119700D02*
X97553780Y-93586300D01*
X97553780Y-93586300D02*
X100528120Y-90611960D01*
X100528120Y-90611960D02*
X101559360Y-90611960D01*
X101559360Y-90611960D02*
X101996240Y-90175080D01*
X101996240Y-90175080D02*
X101996240Y-87518240D01*
X94885602Y-97372078D02*
X95860962Y-97372078D01*
X97287080Y-94386400D02*
X97553780Y-94119700D01*
X97287080Y-95945960D02*
X97287080Y-94386400D01*
X95860962Y-97372078D02*
X97287080Y-95945960D01*
X85973920Y-102514400D02*
X86283800Y-102204520D01*
X86283800Y-102204520D02*
X91089480Y-102204520D01*
X91089480Y-102204520D02*
X94355920Y-98938080D01*
X94355920Y-98938080D02*
X94355920Y-97901760D01*
X94355920Y-97901760D02*
X94885602Y-97372078D01*
X84645500Y-94234000D02*
X87185500Y-94234000D01*
X84582000Y-96520000D02*
X84582000Y-94297500D01*
X84582000Y-94297500D02*
X84645500Y-94234000D01*
X84582000Y-106375200D02*
X84582000Y-105918000D01*
X84582000Y-105918000D02*
X85598000Y-104902000D01*
X88328500Y-108267500D02*
X86233000Y-110363000D01*
X88328500Y-105410000D02*
X88328500Y-108267500D01*
X87820500Y-104902000D02*
X88328500Y-105410000D01*
X85598000Y-104902000D02*
X87820500Y-104902000D01*
X82042000Y-98755200D02*
X82042000Y-97155000D01*
X88392000Y-97485200D02*
X89662000Y-98755200D01*
X88392000Y-96774000D02*
X88392000Y-97485200D01*
X87693500Y-96520000D02*
X88392000Y-96774000D01*
X83248500Y-96520000D02*
X84582000Y-96520000D01*
X84582000Y-96520000D02*
X87693500Y-96520000D01*
X82042000Y-97155000D02*
X83248500Y-96520000D01*
X82042000Y-98755200D02*
X82042000Y-98806000D01*
X86233000Y-110363000D02*
X86233000Y-109575600D01*
X70576440Y-108966000D02*
X72224900Y-108966000D01*
X79502000Y-101155500D02*
X79502000Y-98755200D01*
X78727300Y-101930200D02*
X79502000Y-101155500D01*
X76238100Y-101930200D02*
X78727300Y-101930200D01*
X74625200Y-103543100D02*
X76238100Y-101930200D01*
X74625200Y-107683300D02*
X74625200Y-103543100D01*
X74206100Y-108102400D02*
X74625200Y-107683300D01*
X73088500Y-108102400D02*
X74206100Y-108102400D01*
X72224900Y-108966000D02*
X73088500Y-108102400D01*
X83502500Y-83312000D02*
X82804000Y-83312000D01*
X82804000Y-83312000D02*
X80772000Y-85344000D01*
X80772000Y-90373200D02*
X83312000Y-92913200D01*
X80772000Y-85344000D02*
X80772000Y-90373200D01*
X79565500Y-95948500D02*
X82677000Y-95948500D01*
X83312000Y-95313500D02*
X83312000Y-92913200D01*
X82677000Y-95948500D02*
X83312000Y-95313500D01*
X83312000Y-83502500D02*
X83502500Y-83312000D01*
X79565500Y-94234000D02*
X79565500Y-95948500D01*
X79565500Y-95948500D02*
X79565500Y-98691700D01*
X79565500Y-98691700D02*
X79502000Y-98755200D01*
X91203780Y-80794860D02*
X92910660Y-80794860D01*
X92910660Y-80794860D02*
X93632020Y-80073500D01*
X93632020Y-80073500D02*
X93980000Y-80073500D01*
X88392000Y-83347560D02*
X88651080Y-83347560D01*
X88651080Y-83347560D02*
X91203780Y-80794860D01*
X92265500Y-86614000D02*
X92265500Y-86804500D01*
X92265500Y-86804500D02*
X90805000Y-88265000D01*
X88392000Y-87884000D02*
X88392000Y-83347560D01*
X88773000Y-88265000D02*
X88392000Y-87884000D01*
X90805000Y-88265000D02*
X88773000Y-88265000D01*
X73418700Y-110337600D02*
X73418700Y-110223300D01*
X73418700Y-110223300D02*
X75387200Y-108280200D01*
X75387200Y-108280200D02*
X75387200Y-104724200D01*
X75387200Y-104724200D02*
X76835000Y-103251000D01*
X76835000Y-103251000D02*
X81915000Y-103251000D01*
X81915000Y-103251000D02*
X83312000Y-101854000D01*
X83312000Y-101854000D02*
X83312000Y-98044000D01*
X83312000Y-98044000D02*
X84201000Y-97155000D01*
X84201000Y-97155000D02*
X85521800Y-97155000D01*
X85521800Y-97155000D02*
X87122000Y-98755200D01*
X63754000Y-67818000D02*
X63754000Y-71120000D01*
X65024000Y-72390000D02*
X66802000Y-72390000D01*
X63754000Y-71120000D02*
X65024000Y-72390000D01*
X63754000Y-67818000D02*
X63804800Y-67818000D01*
X60960000Y-67818000D02*
X63550800Y-68021200D01*
X63550800Y-68021200D02*
X63754000Y-67818000D01*
X60960000Y-67818000D02*
X58166000Y-67818000D01*
X62738000Y-57404000D02*
X62738000Y-59413140D01*
X62738000Y-59413140D02*
X63759080Y-60434220D01*
X112745520Y-46953800D02*
X112745520Y-46984920D01*
X112745520Y-46984920D02*
X114193320Y-48432720D01*
X114193320Y-48432720D02*
X114193320Y-49461420D01*
X114193320Y-49461420D02*
X116814600Y-52082700D01*
X116878100Y-52146200D02*
X116814600Y-52082700D01*
X120142000Y-52562760D02*
X120142000Y-52207160D01*
X120142000Y-52207160D02*
X122295920Y-50490120D01*
X122295920Y-50490120D02*
X122326400Y-48260000D01*
X62445900Y-103441500D02*
X66040000Y-103441500D01*
X67945000Y-101536500D02*
X67945000Y-97790000D01*
X66040000Y-103441500D02*
X67945000Y-101536500D01*
X67945000Y-97790000D02*
X67691000Y-97536000D01*
X64897000Y-98298000D02*
X66929000Y-98298000D01*
X66929000Y-98298000D02*
X67691000Y-97536000D01*
X64770000Y-95758000D02*
X64897000Y-98298000D01*
X121056400Y-49530000D02*
X120832880Y-49530000D01*
X120832880Y-49530000D02*
X120004840Y-48701960D01*
X120004840Y-45862880D02*
X121524400Y-44343320D01*
X120004840Y-48701960D02*
X120004840Y-45862880D01*
X58724800Y-89204800D02*
X58724800Y-89649300D01*
X62484000Y-93218000D02*
X64770000Y-93218000D01*
X58724800Y-89649300D02*
X62484000Y-93218000D01*
X58674000Y-89154000D02*
X58724800Y-89204800D01*
X61224800Y-89204800D02*
X61224800Y-89241000D01*
X61224800Y-89241000D02*
X63423800Y-90525600D01*
X67183000Y-94056200D02*
X67487800Y-94361000D01*
X66929000Y-93802200D02*
X67183000Y-94056200D01*
X63423800Y-90906600D02*
X64363600Y-91719400D01*
X66319400Y-91719400D02*
X66929000Y-92456000D01*
X66929000Y-92456000D02*
X66929000Y-93802200D01*
X64363600Y-91719400D02*
X66319400Y-91719400D01*
X67487800Y-94361000D02*
X69342000Y-94361000D01*
X63423800Y-90525600D02*
X63423800Y-90906600D01*
X76936600Y-113487200D02*
X76936600Y-112293400D01*
X78892400Y-110337600D02*
X81038700Y-110337600D01*
X76936600Y-112293400D02*
X78892400Y-110337600D01*
X81038700Y-110337600D02*
X81038700Y-109588300D01*
X81038700Y-109588300D02*
X82550000Y-108077000D01*
X82550000Y-108077000D02*
X85420200Y-108077000D01*
X85420200Y-108077000D02*
X87122000Y-106375200D01*
X73812400Y-113436400D02*
X73812400Y-113258600D01*
X73812400Y-113258600D02*
X79502000Y-107569000D01*
X79502000Y-107569000D02*
X79502000Y-106375200D01*
X70576440Y-116586000D02*
X70662800Y-116586000D01*
X70662800Y-116586000D02*
X73812400Y-113436400D01*
X73520300Y-113144300D02*
X73812400Y-113436400D01*
X73914000Y-63754000D02*
X73914000Y-66675000D01*
X73914000Y-66675000D02*
X74041000Y-66802000D01*
X72898000Y-59309000D02*
X72898000Y-62738000D01*
X72898000Y-62738000D02*
X73914000Y-63754000D01*
D37*
X74256900Y-66598800D02*
X74256900Y-68719700D01*
X74256900Y-68719700D02*
X74549000Y-69011800D01*
D36*
X74549000Y-88011000D02*
X74549000Y-69011800D01*
X78994000Y-92519500D02*
X78994000Y-92456000D01*
X78994000Y-92456000D02*
X74549000Y-88011000D01*
X80391000Y-92519500D02*
X82105500Y-94234000D01*
X78994000Y-92519500D02*
X80391000Y-92519500D01*
X118021100Y-48755300D02*
X118021100Y-49156620D01*
X118021100Y-49156620D02*
X118628160Y-49763680D01*
X118628160Y-49763680D02*
X118628160Y-52913280D01*
X118628160Y-52913280D02*
X117629940Y-53911500D01*
X117629940Y-53911500D02*
X110337600Y-53911500D01*
X110083600Y-51866800D02*
X110083600Y-53657500D01*
X110083600Y-53657500D02*
X110337600Y-53911500D01*
X110178452Y-57754682D02*
X110178452Y-54070648D01*
X110178452Y-54070648D02*
X110337600Y-53911500D01*
X107950000Y-59994800D02*
X107950000Y-69189600D01*
X110178452Y-57754682D02*
X110185200Y-57759600D01*
X89865200Y-86614000D02*
X91122500Y-85178900D01*
X91122500Y-85178900D02*
X94526100Y-85178900D01*
X107950000Y-59994800D02*
X110185200Y-57759600D01*
X95427800Y-78333600D02*
X95427800Y-84455000D01*
X95427800Y-84455000D02*
X94526100Y-85178900D01*
X107950000Y-69189600D02*
X106273600Y-70866000D01*
X106273600Y-70866000D02*
X102895400Y-70866000D01*
X102895400Y-70866000D02*
X95427800Y-78333600D01*
X89725500Y-86614000D02*
X89865200Y-86614000D01*
X89725500Y-86614000D02*
X90022680Y-86614000D01*
X89725500Y-86233000D02*
X89725500Y-86614000D01*
X110083600Y-51866800D02*
X109931200Y-51866800D01*
X110083600Y-51866800D02*
X110083600Y-51308000D01*
X65267840Y-88237060D02*
X65267840Y-87873840D01*
X65267840Y-87873840D02*
X64770000Y-87376000D01*
X63500000Y-87376000D02*
X62992000Y-86868000D01*
X64770000Y-87376000D02*
X63500000Y-87376000D01*
X62992000Y-82042000D02*
X58674000Y-77724000D01*
X62992000Y-86868000D02*
X62992000Y-82042000D01*
X72898000Y-88138000D02*
X72263000Y-88138000D01*
X72263000Y-88138000D02*
X71374000Y-87249000D01*
X66255900Y-87249000D02*
X65267840Y-88237060D01*
X71374000Y-87249000D02*
X66255900Y-87249000D01*
X72898000Y-88138000D02*
X73152000Y-88138000D01*
X73152000Y-88138000D02*
X77025500Y-92011500D01*
X77025500Y-92011500D02*
X77025500Y-94234000D01*
X72798940Y-88237060D02*
X72898000Y-88138000D01*
X120650000Y-115316000D02*
X120792240Y-115316000D01*
X120792240Y-115316000D02*
X123271280Y-117795040D01*
X123271280Y-117795040D02*
X123271280Y-126512320D01*
X123271280Y-126512320D02*
X122265440Y-127010160D01*
X122265440Y-127010160D02*
X117403880Y-127010160D01*
X117403880Y-127010160D02*
X116062760Y-126177040D01*
X92080080Y-79811880D02*
X92003880Y-79735680D01*
X92003880Y-79735680D02*
X90904583Y-79745172D01*
X90904583Y-79745172D02*
X88237583Y-76788612D01*
X88237583Y-76788612D02*
X85821520Y-76779120D01*
X85821520Y-76779120D02*
X83997800Y-79400400D01*
X104673400Y-94996000D02*
X100777040Y-91821000D01*
X105410000Y-94996000D02*
X104673400Y-94996000D01*
X105410000Y-94996000D02*
X105410000Y-94869000D01*
X104902000Y-95504000D02*
X105410000Y-94996000D01*
X102910640Y-81269840D02*
X101714300Y-80073500D01*
X102910640Y-83972400D02*
X102910640Y-81269840D01*
X101714300Y-80073500D02*
X101600000Y-80073500D01*
X105410000Y-97536000D02*
X105531920Y-97536000D01*
X82143600Y-74650600D02*
X83794600Y-72999600D01*
X82143600Y-80162400D02*
X82143600Y-74650600D01*
X82219800Y-80238600D02*
X82143600Y-80162400D01*
X102737920Y-86065360D02*
X102737920Y-86197440D01*
X102737920Y-86197440D02*
X103687880Y-87147400D01*
X99745800Y-86065360D02*
X102737920Y-86065360D01*
X104322880Y-88508840D02*
X104510840Y-88585040D01*
X103687880Y-87873840D02*
X104322880Y-88508840D01*
X103687880Y-87147400D02*
X103687880Y-87873840D01*
X105410000Y-100076000D02*
X106009440Y-100076000D01*
X84645500Y-86614000D02*
X84645500Y-85201760D01*
X87256620Y-80942180D02*
X89154000Y-79502000D01*
X87256620Y-82590640D02*
X87256620Y-80942180D01*
X84645500Y-85201760D02*
X87256620Y-82590640D01*
X84645500Y-86614000D02*
X84645500Y-88079580D01*
X93146880Y-89489280D02*
X95402400Y-87233760D01*
X86055200Y-89489280D02*
X93146880Y-89489280D01*
X84645500Y-88079580D02*
X86055200Y-89489280D01*
X95402400Y-94853760D02*
X95402400Y-92862400D01*
X91767660Y-92191840D02*
X89725500Y-94234000D01*
X94731840Y-92191840D02*
X91767660Y-92191840D01*
X95402400Y-92862400D02*
X94731840Y-92191840D01*
D37*
X145288000Y-52070000D02*
X145288000Y-50800000D01*
X143438880Y-48950880D02*
X141955520Y-48950880D01*
X145288000Y-50800000D02*
X143438880Y-48950880D01*
X148907500Y-54483000D02*
X148907500Y-54208680D01*
X148907500Y-54208680D02*
X147955000Y-52070000D01*
X147955000Y-52070000D02*
X145288000Y-52070000D01*
D35*
X142941040Y-84836000D02*
X142941040Y-81361280D01*
X142996920Y-68508880D02*
X142885160Y-68397120D01*
X142885160Y-68397120D02*
X142885160Y-67056000D01*
X142829280Y-103022400D02*
X142829280Y-100584000D01*
X142829280Y-86111080D02*
X142941040Y-85999320D01*
X142941040Y-85999320D02*
X142941040Y-84836000D01*
X138684000Y-67056000D02*
X142885160Y-67056000D01*
X142885160Y-67056000D02*
X147828000Y-67056000D01*
X148907500Y-59563000D02*
X148907500Y-64416940D01*
X147828000Y-65496440D02*
X147828000Y-67056000D01*
X148907500Y-64416940D02*
X147828000Y-65496440D01*
X137922000Y-103124000D02*
X129032000Y-103124000D01*
X147421600Y-103022400D02*
X142829280Y-103022400D01*
X142829280Y-103022400D02*
X138023600Y-103022400D01*
X138023600Y-103022400D02*
X137922000Y-103124000D01*
X138684000Y-84836000D02*
X142941040Y-84836000D01*
X142941040Y-84836000D02*
X147574000Y-84836000D01*
D37*
X132473700Y-50380900D02*
X132473700Y-51066700D01*
X127863600Y-58648600D02*
X130200400Y-60985400D01*
X127863600Y-55676800D02*
X127863600Y-58648600D01*
X132473700Y-51066700D02*
X127863600Y-55676800D01*
D35*
X132101600Y-49009300D02*
X132101600Y-50008800D01*
X135674100Y-50761900D02*
X143573500Y-42862500D01*
X132854700Y-50761900D02*
X135674100Y-50761900D01*
X132101600Y-50008800D02*
X132473700Y-50380900D01*
X132473700Y-50380900D02*
X132854700Y-50761900D01*
X143573500Y-42862500D02*
X144959800Y-42862500D01*
X125818900Y-43675300D02*
X130302000Y-43675300D01*
X131711700Y-45085000D02*
X131711700Y-48619400D01*
X130302000Y-43675300D02*
X131711700Y-45085000D01*
X131711700Y-48619400D02*
X132101600Y-49009300D01*
X148907500Y-59563000D02*
X150939500Y-59499500D01*
X147527740Y-45430440D02*
X144959800Y-42862500D01*
X148305520Y-45430440D02*
X147527740Y-45430440D01*
X151043640Y-48168560D02*
X148305520Y-45430440D01*
X151043640Y-56829960D02*
X151043640Y-48168560D01*
X150939500Y-59499500D02*
X151043640Y-56829960D01*
X115062000Y-34544000D02*
X115062000Y-33528000D01*
X106934000Y-31496000D02*
X103886000Y-34544000D01*
X113284000Y-31496000D02*
X106934000Y-31496000D01*
X115062000Y-33528000D02*
X113284000Y-31496000D01*
X121412000Y-31874000D02*
X119256000Y-31874000D01*
X119256000Y-31874000D02*
X115062000Y-34544000D01*
X114808000Y-34544000D02*
X114808000Y-35306000D01*
D36*
X62331600Y-106032300D02*
X66179700Y-106032300D01*
X68427600Y-103784400D02*
X69723000Y-103784400D01*
X66179700Y-106032300D02*
X68427600Y-103784400D01*
X69723000Y-103784400D02*
X70065900Y-103441500D01*
X57302400Y-108623100D02*
X57302400Y-107746800D01*
X59016900Y-106032300D02*
X62331600Y-106032300D01*
X57302400Y-107746800D02*
X59016900Y-106032300D01*
X60121800Y-101003100D02*
X60121800Y-103822500D01*
X60121800Y-103822500D02*
X62331600Y-106032300D01*
X104195880Y-40965120D02*
X106807000Y-40995600D01*
X106807000Y-40995600D02*
X106898440Y-40904160D01*
X101574600Y-50673000D02*
X101574600Y-48547020D01*
X104663240Y-45458380D02*
X104195880Y-40965120D01*
X101574600Y-48547020D02*
X104663240Y-45458380D01*
X100164900Y-48463200D02*
X99552760Y-48310800D01*
X99552760Y-48310800D02*
X101574600Y-50332640D01*
X101574600Y-50332640D02*
X101574600Y-50673000D01*
X64516000Y-77724000D02*
X66926460Y-78333600D01*
X66926460Y-78333600D02*
X67111880Y-78148180D01*
X61722000Y-77724000D02*
X64084200Y-77724000D01*
X64084200Y-77724000D02*
X64516000Y-77724000D01*
X63754000Y-75438000D02*
X63754000Y-77393800D01*
X63754000Y-77393800D02*
X64516000Y-77724000D01*
X70358000Y-57404000D02*
X70451980Y-57404000D01*
X70451980Y-57404000D02*
X71694040Y-58646060D01*
X70385940Y-63754000D02*
X66294000Y-63754000D01*
X71694040Y-62445900D02*
X70385940Y-63754000D01*
X71694040Y-58646060D02*
X71694040Y-62445900D01*
X74168000Y-60579000D02*
X74168000Y-58465720D01*
X73106280Y-57404000D02*
X70358000Y-57404000D01*
X74168000Y-58465720D02*
X73106280Y-57404000D01*
X116751100Y-47485300D02*
X116751100Y-45250100D01*
X116751100Y-45250100D02*
X115757960Y-44256960D01*
X115757960Y-44256960D02*
X110093760Y-44256960D01*
X110083600Y-44246800D02*
X110083600Y-41818560D01*
X110083600Y-41818560D02*
X109895640Y-41630600D01*
X110093760Y-44256960D02*
X110083600Y-44246800D01*
X58674000Y-85344000D02*
X58229500Y-85344000D01*
X58229500Y-85344000D02*
X56642000Y-86614000D01*
X56642000Y-86614000D02*
X56705500Y-92773500D01*
X56705500Y-92773500D02*
X57150000Y-93218000D01*
X58674000Y-85344000D02*
X58674000Y-85852000D01*
X58674000Y-85852000D02*
X59753500Y-86931500D01*
X61785500Y-86931500D02*
X63997840Y-89143840D01*
X59753500Y-86931500D02*
X60007500Y-86931500D01*
X60007500Y-86931500D02*
X61785500Y-86931500D01*
X63997840Y-89143840D02*
X63997840Y-89507060D01*
X63997840Y-89507060D02*
X63997840Y-89423240D01*
X63845440Y-89507060D02*
X63997840Y-89507060D01*
X58674000Y-85344000D02*
X58674000Y-85471000D01*
D37*
G36*
X112365784Y-60943382D02*
X112868641Y-61279379D01*
X113461800Y-61397366D01*
X114054959Y-61279379D01*
X114557816Y-60943382D01*
X114888818Y-60448000D01*
X115463954Y-60448000D01*
X115718584Y-60829082D01*
X116221441Y-61165079D01*
X116814600Y-61283066D01*
X117407759Y-61165079D01*
X117910616Y-60829082D01*
X118165246Y-60448000D01*
X118600541Y-60448000D01*
X118663154Y-60762777D01*
X118911195Y-60847879D01*
X119311075Y-60448000D01*
X120972925Y-60448000D01*
X121372805Y-60847879D01*
X121620846Y-60762777D01*
X121677289Y-60448000D01*
X125226000Y-60448000D01*
X125226000Y-62230000D01*
X125245696Y-62327264D01*
X125301682Y-62409202D01*
X125385136Y-62462903D01*
X125476000Y-62480000D01*
X128463077Y-62480000D01*
X128552262Y-62618598D01*
X128802892Y-62789846D01*
X129100400Y-62850093D01*
X129584131Y-62850093D01*
X128884456Y-63549768D01*
X128829138Y-63463802D01*
X128578508Y-63292554D01*
X128281000Y-63232307D01*
X126481000Y-63232307D01*
X126203067Y-63284604D01*
X126190501Y-63292690D01*
X125847151Y-62948740D01*
X125277667Y-62712270D01*
X124661039Y-62711732D01*
X124091143Y-62947208D01*
X123654740Y-63382849D01*
X123418270Y-63952333D01*
X123417732Y-64568961D01*
X123653208Y-65138857D01*
X124088849Y-65575260D01*
X124658333Y-65811730D01*
X125274961Y-65812268D01*
X125716307Y-65629908D01*
X125716307Y-65797000D01*
X125768604Y-66074933D01*
X125932862Y-66330198D01*
X126183492Y-66501446D01*
X126481000Y-66561693D01*
X128281000Y-66561693D01*
X128558933Y-66509396D01*
X128814198Y-66345138D01*
X128883677Y-66243453D01*
X129612997Y-66972773D01*
X130004490Y-66581280D01*
X130514731Y-66479786D01*
X130615335Y-66227731D01*
X129921000Y-65533396D01*
X129602802Y-65851594D01*
X129045693Y-65294485D01*
X129045693Y-65135911D01*
X129284604Y-64897000D01*
X130557396Y-64897000D01*
X131251731Y-65591335D01*
X131503786Y-65490731D01*
X131610515Y-64839830D01*
X131503786Y-64303269D01*
X131251731Y-64202665D01*
X130557396Y-64897000D01*
X129284604Y-64897000D01*
X129045693Y-64658089D01*
X129045693Y-64499515D01*
X129602802Y-63942406D01*
X129921000Y-64260604D01*
X130615335Y-63566269D01*
X130514731Y-63314214D01*
X130025816Y-63234046D01*
X129641863Y-62850093D01*
X131300400Y-62850093D01*
X131578333Y-62797796D01*
X131833598Y-62633538D01*
X131938506Y-62480000D01*
X134602039Y-62480000D01*
X135077306Y-62677348D01*
X136569149Y-62678650D01*
X137049918Y-62480000D01*
X147657500Y-62480000D01*
X147657500Y-63899173D01*
X146944117Y-64612557D01*
X146673151Y-65018086D01*
X146578000Y-65496440D01*
X146578000Y-65599669D01*
X146269203Y-65806000D01*
X140242797Y-65806000D01*
X139693858Y-65439211D01*
X139024162Y-65306000D01*
X138343838Y-65306000D01*
X137674142Y-65439211D01*
X137106401Y-65818563D01*
X136727049Y-66386304D01*
X136593838Y-67056000D01*
X136727049Y-67725696D01*
X137106401Y-68293437D01*
X137155135Y-68326000D01*
X137106401Y-68358563D01*
X136727049Y-68926304D01*
X136593838Y-69596000D01*
X136727049Y-70265696D01*
X137106401Y-70833437D01*
X137155135Y-70866000D01*
X137106401Y-70898563D01*
X136727049Y-71466304D01*
X136593838Y-72136000D01*
X136727049Y-72805696D01*
X137106401Y-73373437D01*
X137155135Y-73406000D01*
X137106401Y-73438563D01*
X136727049Y-74006304D01*
X136593838Y-74676000D01*
X136727049Y-75345696D01*
X137106401Y-75913437D01*
X137190576Y-75969681D01*
X136797570Y-76458502D01*
X136897328Y-76716000D01*
X138034000Y-76716000D01*
X138034000Y-76364369D01*
X138343838Y-76426000D01*
X139024162Y-76426000D01*
X139334000Y-76364369D01*
X139334000Y-76716000D01*
X140470672Y-76716000D01*
X140570430Y-76458502D01*
X140177424Y-75969681D01*
X140261599Y-75913437D01*
X140420249Y-75676000D01*
X146091751Y-75676000D01*
X146250401Y-75913437D01*
X146334576Y-75969681D01*
X145941570Y-76458502D01*
X146041328Y-76716000D01*
X147178000Y-76716000D01*
X147178000Y-76364369D01*
X147487838Y-76426000D01*
X148168162Y-76426000D01*
X148478000Y-76364369D01*
X148478000Y-76716000D01*
X149614672Y-76716000D01*
X149714430Y-76458502D01*
X149321424Y-75969681D01*
X149405599Y-75913437D01*
X149784951Y-75345696D01*
X149918162Y-74676000D01*
X149784951Y-74006304D01*
X149405599Y-73438563D01*
X149356865Y-73406000D01*
X149405599Y-73373437D01*
X149564249Y-73136000D01*
X149699786Y-73136000D01*
X150130000Y-73566214D01*
X150130000Y-89086545D01*
X149988684Y-88992120D01*
X149606000Y-88916000D01*
X149310249Y-88916000D01*
X149151599Y-88678563D01*
X149102865Y-88646000D01*
X149151599Y-88613437D01*
X149530951Y-88045696D01*
X149664162Y-87376000D01*
X149530951Y-86706304D01*
X149151599Y-86138563D01*
X149102865Y-86106000D01*
X149151599Y-86073437D01*
X149530951Y-85505696D01*
X149664162Y-84836000D01*
X149530951Y-84166304D01*
X149151599Y-83598563D01*
X148583858Y-83219211D01*
X147914162Y-83086000D01*
X147233838Y-83086000D01*
X146564142Y-83219211D01*
X146015203Y-83586000D01*
X144191040Y-83586000D01*
X144191040Y-81361280D01*
X144120370Y-81006000D01*
X145810348Y-81006000D01*
X145815604Y-81033933D01*
X145979862Y-81289198D01*
X146230492Y-81460446D01*
X146528000Y-81520693D01*
X149128000Y-81520693D01*
X149405933Y-81468396D01*
X149661198Y-81304138D01*
X149832446Y-81053508D01*
X149892693Y-80756000D01*
X149892693Y-78756000D01*
X149840396Y-78478067D01*
X149676138Y-78222802D01*
X149571484Y-78151295D01*
X149714430Y-77973498D01*
X149614672Y-77716000D01*
X148478000Y-77716000D01*
X148478000Y-77991307D01*
X147178000Y-77991307D01*
X147178000Y-77716000D01*
X146041328Y-77716000D01*
X145941570Y-77973498D01*
X146083901Y-78150529D01*
X145994802Y-78207862D01*
X145823554Y-78458492D01*
X145813933Y-78506000D01*
X140701652Y-78506000D01*
X140696396Y-78478067D01*
X140532138Y-78222802D01*
X140427484Y-78151295D01*
X140570430Y-77973498D01*
X140470672Y-77716000D01*
X139334000Y-77716000D01*
X139334000Y-77991307D01*
X138034000Y-77991307D01*
X138034000Y-77716000D01*
X136897328Y-77716000D01*
X136797570Y-77973498D01*
X136939901Y-78150529D01*
X136850802Y-78207862D01*
X136679554Y-78458492D01*
X136619307Y-78756000D01*
X136619307Y-80756000D01*
X136671604Y-81033933D01*
X136835862Y-81289198D01*
X137086492Y-81460446D01*
X137384000Y-81520693D01*
X139984000Y-81520693D01*
X140261933Y-81468396D01*
X140517198Y-81304138D01*
X140688446Y-81053508D01*
X140698067Y-81006000D01*
X141761710Y-81006000D01*
X141691040Y-81361280D01*
X141691040Y-83586000D01*
X140242797Y-83586000D01*
X139693858Y-83219211D01*
X139024162Y-83086000D01*
X138343838Y-83086000D01*
X137674142Y-83219211D01*
X137106401Y-83598563D01*
X136727049Y-84166304D01*
X136593838Y-84836000D01*
X136727049Y-85505696D01*
X137106401Y-86073437D01*
X137155135Y-86106000D01*
X137106401Y-86138563D01*
X136727049Y-86706304D01*
X136593838Y-87376000D01*
X136727049Y-88045696D01*
X137106401Y-88613437D01*
X137155135Y-88646000D01*
X137106401Y-88678563D01*
X136727049Y-89246304D01*
X136593838Y-89916000D01*
X136727049Y-90585696D01*
X137106401Y-91153437D01*
X137155135Y-91186000D01*
X137106401Y-91218563D01*
X136727049Y-91786304D01*
X136593838Y-92456000D01*
X136727049Y-93125696D01*
X137106401Y-93693437D01*
X137190576Y-93749681D01*
X136797570Y-94238502D01*
X136897328Y-94496000D01*
X138034000Y-94496000D01*
X138034000Y-94144369D01*
X138343838Y-94206000D01*
X139024162Y-94206000D01*
X139334000Y-94144369D01*
X139334000Y-94496000D01*
X140470672Y-94496000D01*
X140570430Y-94238502D01*
X140177424Y-93749681D01*
X140261599Y-93693437D01*
X140420249Y-93456000D01*
X145837751Y-93456000D01*
X145996401Y-93693437D01*
X146080576Y-93749681D01*
X145687570Y-94238502D01*
X145787328Y-94496000D01*
X146924000Y-94496000D01*
X146924000Y-94144369D01*
X147233838Y-94206000D01*
X147914162Y-94206000D01*
X148224000Y-94144369D01*
X148224000Y-94496000D01*
X149360672Y-94496000D01*
X149460430Y-94238502D01*
X149067424Y-93749681D01*
X149151599Y-93693437D01*
X149530951Y-93125696D01*
X149664162Y-92456000D01*
X149530951Y-91786304D01*
X149151599Y-91218563D01*
X149102865Y-91186000D01*
X149151599Y-91153437D01*
X149262800Y-90987013D01*
X150130000Y-91854213D01*
X150130000Y-105630786D01*
X149076222Y-106684564D01*
X149378551Y-106232096D01*
X149511762Y-105562400D01*
X149378551Y-104892704D01*
X148999199Y-104324963D01*
X148950465Y-104292400D01*
X148999199Y-104259837D01*
X149378551Y-103692096D01*
X149511762Y-103022400D01*
X149378551Y-102352704D01*
X148999199Y-101784963D01*
X148431458Y-101405611D01*
X147761762Y-101272400D01*
X147081438Y-101272400D01*
X146411742Y-101405611D01*
X145862803Y-101772400D01*
X144079280Y-101772400D01*
X144079280Y-100584000D01*
X143984129Y-100105646D01*
X143713163Y-99700117D01*
X143307634Y-99429151D01*
X142829280Y-99334000D01*
X142350926Y-99429151D01*
X141945397Y-99700117D01*
X141674431Y-100105646D01*
X141579280Y-100584000D01*
X141579280Y-101772400D01*
X139328742Y-101772400D01*
X138931858Y-101507211D01*
X138262162Y-101374000D01*
X137581838Y-101374000D01*
X136912142Y-101507211D01*
X136363203Y-101874000D01*
X130590797Y-101874000D01*
X130041858Y-101507211D01*
X129372162Y-101374000D01*
X128691838Y-101374000D01*
X128022142Y-101507211D01*
X127454401Y-101886563D01*
X127075049Y-102454304D01*
X126941838Y-103124000D01*
X127075049Y-103793696D01*
X127454401Y-104361437D01*
X127503135Y-104394000D01*
X127454401Y-104426563D01*
X127075049Y-104994304D01*
X126941838Y-105664000D01*
X127075049Y-106333696D01*
X127454401Y-106901437D01*
X127503135Y-106934000D01*
X127454401Y-106966563D01*
X127075049Y-107534304D01*
X126941838Y-108204000D01*
X127075049Y-108873696D01*
X127454401Y-109441437D01*
X127503135Y-109474000D01*
X127454401Y-109506563D01*
X127075049Y-110074304D01*
X126941838Y-110744000D01*
X127075049Y-111413696D01*
X127454401Y-111981437D01*
X127538576Y-112037681D01*
X127145570Y-112526502D01*
X127245328Y-112784000D01*
X128382000Y-112784000D01*
X128382000Y-112432369D01*
X128691838Y-112494000D01*
X129372162Y-112494000D01*
X129682000Y-112432369D01*
X129682000Y-112784000D01*
X130818672Y-112784000D01*
X130918430Y-112526502D01*
X130525424Y-112037681D01*
X130609599Y-111981437D01*
X130768249Y-111744000D01*
X136185751Y-111744000D01*
X136344401Y-111981437D01*
X136428576Y-112037681D01*
X136035570Y-112526502D01*
X136135328Y-112784000D01*
X137272000Y-112784000D01*
X137272000Y-112432369D01*
X137581838Y-112494000D01*
X138262162Y-112494000D01*
X138572000Y-112432369D01*
X138572000Y-112784000D01*
X139708672Y-112784000D01*
X139808430Y-112526502D01*
X139415424Y-112037681D01*
X139499599Y-111981437D01*
X139726136Y-111642400D01*
X145685351Y-111642400D01*
X145844001Y-111879837D01*
X145928176Y-111936081D01*
X145535170Y-112424902D01*
X145634928Y-112682400D01*
X146771600Y-112682400D01*
X146771600Y-112330769D01*
X147081438Y-112392400D01*
X147761762Y-112392400D01*
X148071600Y-112330769D01*
X148071600Y-112682400D01*
X149208272Y-112682400D01*
X149308030Y-112424902D01*
X148915024Y-111936081D01*
X148999199Y-111879837D01*
X149378551Y-111312096D01*
X149511762Y-110642400D01*
X149378551Y-109972704D01*
X148999199Y-109404963D01*
X148950465Y-109372400D01*
X148999199Y-109339837D01*
X149170916Y-109082844D01*
X149455284Y-109026280D01*
X149779707Y-108809507D01*
X151321000Y-107268214D01*
X151321000Y-120654000D01*
X145542840Y-120654000D01*
X145542868Y-120622439D01*
X145307392Y-120052543D01*
X144871751Y-119616140D01*
X144302267Y-119379670D01*
X143685639Y-119379132D01*
X143115743Y-119614608D01*
X142679340Y-120050249D01*
X142442870Y-120619733D01*
X142442481Y-121065305D01*
X141343186Y-122164600D01*
X137290678Y-122164600D01*
X137498982Y-122025416D01*
X137834979Y-121522559D01*
X137952966Y-120929400D01*
X137834979Y-120336241D01*
X137498982Y-119833384D01*
X136996125Y-119497387D01*
X136792414Y-119456866D01*
X135045474Y-117709926D01*
X134745383Y-117509411D01*
X134391400Y-117439000D01*
X132285569Y-117439000D01*
X131984974Y-117314182D01*
X131567258Y-117313818D01*
X131181200Y-117473334D01*
X130885572Y-117768446D01*
X130725382Y-118154226D01*
X130725018Y-118571942D01*
X130884534Y-118958000D01*
X131170867Y-119244833D01*
X131133400Y-119282300D01*
X131133400Y-120275800D01*
X131558400Y-120275800D01*
X131558400Y-121125800D01*
X131133400Y-121125800D01*
X131133400Y-122119300D01*
X131322900Y-122308800D01*
X131709175Y-122308800D01*
X131987772Y-122193402D01*
X132201001Y-121980173D01*
X132213167Y-121950802D01*
X132247661Y-121950802D01*
X132636107Y-122210353D01*
X133248400Y-122332146D01*
X133860693Y-122210353D01*
X134379771Y-121863517D01*
X134726607Y-121344439D01*
X134800699Y-120971955D01*
X134910221Y-121522559D01*
X135246218Y-122025416D01*
X135749075Y-122361413D01*
X136246774Y-122460412D01*
X135436893Y-123270293D01*
X135220120Y-123594716D01*
X135157039Y-123911846D01*
X135144000Y-123977400D01*
X135144000Y-124733504D01*
X135012629Y-124821283D01*
X134874000Y-125028756D01*
X134735371Y-124821283D01*
X134216293Y-124474447D01*
X133604000Y-124352654D01*
X133334424Y-124406276D01*
X131972074Y-123043926D01*
X131671983Y-122843411D01*
X131318000Y-122773000D01*
X128270005Y-122773000D01*
X128270000Y-122772999D01*
X127916018Y-122843411D01*
X127615926Y-123043926D01*
X125837926Y-124821926D01*
X125834022Y-124827769D01*
X125828238Y-124831760D01*
X125733916Y-124977588D01*
X125637411Y-125122017D01*
X125636040Y-125128910D01*
X125632223Y-125134811D01*
X125600882Y-125305662D01*
X125567000Y-125476000D01*
X125568371Y-125482892D01*
X125567103Y-125489804D01*
X125573670Y-125929765D01*
X125204140Y-126298649D01*
X124967670Y-126868133D01*
X124967330Y-127258000D01*
X123789877Y-127258000D01*
X123800550Y-127249786D01*
X123925354Y-127166394D01*
X123942771Y-127140327D01*
X123967616Y-127121206D01*
X124042479Y-126991104D01*
X124125869Y-126866302D01*
X124131985Y-126835554D01*
X124147621Y-126808381D01*
X124166997Y-126659535D01*
X124196280Y-126512320D01*
X124196280Y-121315300D01*
X129100400Y-121315300D01*
X129100400Y-121701576D01*
X129215799Y-121980173D01*
X129429028Y-122193402D01*
X129707625Y-122308800D01*
X130093900Y-122308800D01*
X130283400Y-122119300D01*
X130283400Y-121125800D01*
X129289900Y-121125800D01*
X129100400Y-121315300D01*
X124196280Y-121315300D01*
X124196280Y-118221329D01*
X125028874Y-119218386D01*
X124967400Y-119527434D01*
X124967400Y-119588166D01*
X125085387Y-120181325D01*
X125421384Y-120684182D01*
X125924241Y-121020179D01*
X126517400Y-121138166D01*
X127110559Y-121020179D01*
X127613416Y-120684182D01*
X127949413Y-120181325D01*
X128045149Y-119700024D01*
X129100400Y-119700024D01*
X129100400Y-120086300D01*
X129289900Y-120275800D01*
X130283400Y-120275800D01*
X130283400Y-119282300D01*
X130093900Y-119092800D01*
X129707625Y-119092800D01*
X129429028Y-119208198D01*
X129215799Y-119421427D01*
X129100400Y-119700024D01*
X128045149Y-119700024D01*
X128067400Y-119588166D01*
X128067400Y-119527434D01*
X127949413Y-118934275D01*
X127613416Y-118431418D01*
X127110559Y-118095421D01*
X126517400Y-117977434D01*
X126419134Y-117996980D01*
X125385000Y-116758574D01*
X125385000Y-114824000D01*
X126967307Y-114824000D01*
X126967307Y-116824000D01*
X127019604Y-117101933D01*
X127183862Y-117357198D01*
X127434492Y-117528446D01*
X127732000Y-117588693D01*
X130332000Y-117588693D01*
X130609933Y-117536396D01*
X130865198Y-117372138D01*
X131036446Y-117121508D01*
X131096693Y-116824000D01*
X131096693Y-114824000D01*
X135857307Y-114824000D01*
X135857307Y-116824000D01*
X135909604Y-117101933D01*
X136073862Y-117357198D01*
X136324492Y-117528446D01*
X136622000Y-117588693D01*
X139222000Y-117588693D01*
X139499933Y-117536396D01*
X139755198Y-117372138D01*
X139926446Y-117121508D01*
X139986693Y-116824000D01*
X139986693Y-114824000D01*
X139967576Y-114722400D01*
X145356907Y-114722400D01*
X145356907Y-116722400D01*
X145409204Y-117000333D01*
X145573462Y-117255598D01*
X145824092Y-117426846D01*
X146121600Y-117487093D01*
X148721600Y-117487093D01*
X148999533Y-117434796D01*
X149254798Y-117270538D01*
X149426046Y-117019908D01*
X149486293Y-116722400D01*
X149486293Y-114722400D01*
X149433996Y-114444467D01*
X149269738Y-114189202D01*
X149165084Y-114117695D01*
X149308030Y-113939898D01*
X149208272Y-113682400D01*
X148071600Y-113682400D01*
X148071600Y-113957707D01*
X146771600Y-113957707D01*
X146771600Y-113682400D01*
X145634928Y-113682400D01*
X145535170Y-113939898D01*
X145677501Y-114116929D01*
X145588402Y-114174262D01*
X145417154Y-114424892D01*
X145356907Y-114722400D01*
X139967576Y-114722400D01*
X139934396Y-114546067D01*
X139770138Y-114290802D01*
X139665484Y-114219295D01*
X139808430Y-114041498D01*
X139708672Y-113784000D01*
X138572000Y-113784000D01*
X138572000Y-114059307D01*
X137272000Y-114059307D01*
X137272000Y-113784000D01*
X136135328Y-113784000D01*
X136035570Y-114041498D01*
X136177901Y-114218529D01*
X136088802Y-114275862D01*
X135917554Y-114526492D01*
X135857307Y-114824000D01*
X131096693Y-114824000D01*
X131044396Y-114546067D01*
X130880138Y-114290802D01*
X130775484Y-114219295D01*
X130918430Y-114041498D01*
X130818672Y-113784000D01*
X129682000Y-113784000D01*
X129682000Y-114059307D01*
X128382000Y-114059307D01*
X128382000Y-113784000D01*
X127245328Y-113784000D01*
X127145570Y-114041498D01*
X127287901Y-114218529D01*
X127198802Y-114275862D01*
X127027554Y-114526492D01*
X126967307Y-114824000D01*
X125385000Y-114824000D01*
X125385000Y-114808000D01*
X125314589Y-114454018D01*
X125314589Y-114454017D01*
X125114074Y-114153926D01*
X123082074Y-112121926D01*
X122781983Y-111921411D01*
X122428000Y-111851000D01*
X121863041Y-111851000D01*
X121518292Y-111505649D01*
X121931064Y-111093598D01*
X122161737Y-110538075D01*
X122162262Y-109936564D01*
X121932559Y-109380640D01*
X121518292Y-108965649D01*
X121931064Y-108553598D01*
X122161737Y-107998075D01*
X122162262Y-107396564D01*
X122025291Y-107065068D01*
X122116874Y-107003874D01*
X123285274Y-105835474D01*
X123485789Y-105535383D01*
X123556200Y-105181400D01*
X123556200Y-96536000D01*
X126967307Y-96536000D01*
X126967307Y-98536000D01*
X127019604Y-98813933D01*
X127183862Y-99069198D01*
X127434492Y-99240446D01*
X127732000Y-99300693D01*
X130332000Y-99300693D01*
X130609933Y-99248396D01*
X130865198Y-99084138D01*
X131036446Y-98833508D01*
X131096693Y-98536000D01*
X131096693Y-96536000D01*
X136619307Y-96536000D01*
X136619307Y-98536000D01*
X136671604Y-98813933D01*
X136835862Y-99069198D01*
X137086492Y-99240446D01*
X137384000Y-99300693D01*
X139984000Y-99300693D01*
X140261933Y-99248396D01*
X140517198Y-99084138D01*
X140688446Y-98833508D01*
X140748693Y-98536000D01*
X140748693Y-96536000D01*
X145509307Y-96536000D01*
X145509307Y-98536000D01*
X145561604Y-98813933D01*
X145725862Y-99069198D01*
X145976492Y-99240446D01*
X146274000Y-99300693D01*
X148874000Y-99300693D01*
X149151933Y-99248396D01*
X149407198Y-99084138D01*
X149578446Y-98833508D01*
X149638693Y-98536000D01*
X149638693Y-96536000D01*
X149586396Y-96258067D01*
X149422138Y-96002802D01*
X149317484Y-95931295D01*
X149460430Y-95753498D01*
X149360672Y-95496000D01*
X148224000Y-95496000D01*
X148224000Y-95771307D01*
X146924000Y-95771307D01*
X146924000Y-95496000D01*
X145787328Y-95496000D01*
X145687570Y-95753498D01*
X145829901Y-95930529D01*
X145740802Y-95987862D01*
X145569554Y-96238492D01*
X145509307Y-96536000D01*
X140748693Y-96536000D01*
X140696396Y-96258067D01*
X140532138Y-96002802D01*
X140427484Y-95931295D01*
X140570430Y-95753498D01*
X140470672Y-95496000D01*
X139334000Y-95496000D01*
X139334000Y-95771307D01*
X138034000Y-95771307D01*
X138034000Y-95496000D01*
X136897328Y-95496000D01*
X136797570Y-95753498D01*
X136939901Y-95930529D01*
X136850802Y-95987862D01*
X136679554Y-96238492D01*
X136619307Y-96536000D01*
X131096693Y-96536000D01*
X131044396Y-96258067D01*
X130880138Y-96002802D01*
X130775484Y-95931295D01*
X130918430Y-95753498D01*
X130818672Y-95496000D01*
X129682000Y-95496000D01*
X129682000Y-95771307D01*
X128382000Y-95771307D01*
X128382000Y-95496000D01*
X127245328Y-95496000D01*
X127145570Y-95753498D01*
X127287901Y-95930529D01*
X127198802Y-95987862D01*
X127027554Y-96238492D01*
X126967307Y-96536000D01*
X123556200Y-96536000D01*
X123556200Y-94437205D01*
X123556201Y-94437200D01*
X123485789Y-94083218D01*
X123285274Y-93783126D01*
X122958148Y-93456000D01*
X127295751Y-93456000D01*
X127454401Y-93693437D01*
X127538576Y-93749681D01*
X127145570Y-94238502D01*
X127245328Y-94496000D01*
X128382000Y-94496000D01*
X128382000Y-94144369D01*
X128691838Y-94206000D01*
X129372162Y-94206000D01*
X129682000Y-94144369D01*
X129682000Y-94496000D01*
X130818672Y-94496000D01*
X130918430Y-94238502D01*
X130525424Y-93749681D01*
X130609599Y-93693437D01*
X130988951Y-93125696D01*
X131122162Y-92456000D01*
X130988951Y-91786304D01*
X130609599Y-91218563D01*
X130560865Y-91186000D01*
X130609599Y-91153437D01*
X130988951Y-90585696D01*
X131122162Y-89916000D01*
X130988951Y-89246304D01*
X130609599Y-88678563D01*
X130560865Y-88646000D01*
X130609599Y-88613437D01*
X130988951Y-88045696D01*
X131122162Y-87376000D01*
X130988951Y-86706304D01*
X130609599Y-86138563D01*
X130560865Y-86106000D01*
X130609599Y-86073437D01*
X130988951Y-85505696D01*
X131122162Y-84836000D01*
X130988951Y-84166304D01*
X130609599Y-83598563D01*
X130041858Y-83219211D01*
X129372162Y-83086000D01*
X128691838Y-83086000D01*
X128022142Y-83219211D01*
X127454401Y-83598563D01*
X127075049Y-84166304D01*
X126941838Y-84836000D01*
X127075049Y-85505696D01*
X127454401Y-86073437D01*
X127503135Y-86106000D01*
X127454401Y-86138563D01*
X127075049Y-86706304D01*
X126941838Y-87376000D01*
X127075049Y-88045696D01*
X127454401Y-88613437D01*
X127503135Y-88646000D01*
X127454401Y-88678563D01*
X127295751Y-88916000D01*
X121788171Y-88916000D01*
X121518292Y-88645649D01*
X121931064Y-88233598D01*
X122161737Y-87678075D01*
X122162262Y-87076564D01*
X122149270Y-87045120D01*
X122300492Y-87148446D01*
X122598000Y-87208693D01*
X124798000Y-87208693D01*
X125075933Y-87156396D01*
X125331198Y-86992138D01*
X125502446Y-86741508D01*
X125562693Y-86444000D01*
X125562693Y-84244000D01*
X125510396Y-83966067D01*
X125346138Y-83710802D01*
X125095508Y-83539554D01*
X124798000Y-83479307D01*
X124503935Y-83479307D01*
X124402749Y-82534907D01*
X124360160Y-82398716D01*
X124332320Y-82258756D01*
X124302378Y-82213945D01*
X124286294Y-82162511D01*
X124194827Y-82052984D01*
X124115547Y-81934333D01*
X123770107Y-81588893D01*
X123445684Y-81372120D01*
X123063000Y-81296000D01*
X121788171Y-81296000D01*
X121518292Y-81025649D01*
X121628448Y-80915685D01*
X125623681Y-80915685D01*
X125708783Y-81163726D01*
X126318864Y-81273119D01*
X126868817Y-81163726D01*
X126953919Y-80915685D01*
X126288800Y-80250565D01*
X125623681Y-80915685D01*
X121628448Y-80915685D01*
X121931064Y-80613598D01*
X122161737Y-80058075D01*
X122162262Y-79456564D01*
X121962872Y-78974002D01*
X122360037Y-78974002D01*
X122472139Y-79120264D01*
X122877143Y-79390840D01*
X123148000Y-79299244D01*
X123148000Y-78274000D01*
X122598000Y-78274000D01*
X122598000Y-77174000D01*
X123148000Y-77174000D01*
X123148000Y-76442868D01*
X123318149Y-76188222D01*
X123384243Y-75855945D01*
X123883028Y-75357160D01*
X124973336Y-75357160D01*
X124092083Y-76238413D01*
X124248000Y-76394330D01*
X124248000Y-77174000D01*
X124798000Y-77174000D01*
X124798000Y-78274000D01*
X124248000Y-78274000D01*
X124248000Y-79299244D01*
X124387632Y-79346464D01*
X124285123Y-79448973D01*
X124737674Y-79901523D01*
X124809954Y-80264897D01*
X125057995Y-80349999D01*
X125723115Y-79684880D01*
X126854485Y-79684880D01*
X127519605Y-80349999D01*
X127767646Y-80264897D01*
X127871648Y-79684880D01*
X132328434Y-79684880D01*
X132446421Y-80278039D01*
X132782418Y-80780896D01*
X133285275Y-81116893D01*
X133878434Y-81234880D01*
X133939166Y-81234880D01*
X134532325Y-81116893D01*
X135035182Y-80780896D01*
X135371179Y-80278039D01*
X135489166Y-79684880D01*
X135371179Y-79091721D01*
X135035182Y-78588864D01*
X134532325Y-78252867D01*
X133939166Y-78134880D01*
X133878434Y-78134880D01*
X133285275Y-78252867D01*
X132782418Y-78588864D01*
X132446421Y-79091721D01*
X132328434Y-79684880D01*
X127871648Y-79684880D01*
X127877039Y-79654816D01*
X127767646Y-79104863D01*
X127519605Y-79019761D01*
X126854485Y-79684880D01*
X125723115Y-79684880D01*
X125440272Y-79402037D01*
X126005957Y-78836352D01*
X126288800Y-79119195D01*
X126953919Y-78454075D01*
X126868817Y-78206034D01*
X126514123Y-78142434D01*
X126383077Y-78011388D01*
X126675777Y-77953166D01*
X126760879Y-77705125D01*
X126095760Y-77040005D01*
X125556000Y-77579766D01*
X125556000Y-76474320D01*
X126661445Y-76474320D01*
X127326565Y-77139439D01*
X127574606Y-77054337D01*
X127678608Y-76474320D01*
X132135394Y-76474320D01*
X132253381Y-77067479D01*
X132589378Y-77570336D01*
X133092235Y-77906333D01*
X133685394Y-78024320D01*
X133746126Y-78024320D01*
X134339285Y-77906333D01*
X134842142Y-77570336D01*
X135178139Y-77067479D01*
X135296126Y-76474320D01*
X135178139Y-75881161D01*
X134842142Y-75378304D01*
X134339285Y-75042307D01*
X133746126Y-74924320D01*
X133685394Y-74924320D01*
X133092235Y-75042307D01*
X132589378Y-75378304D01*
X132253381Y-75881161D01*
X132135394Y-76474320D01*
X127678608Y-76474320D01*
X127683999Y-76444256D01*
X127574606Y-75894303D01*
X127326565Y-75809201D01*
X126661445Y-76474320D01*
X125556000Y-76474320D01*
X125556000Y-76473998D01*
X125529753Y-76473998D01*
X125247232Y-76191477D01*
X125812917Y-75625792D01*
X126095760Y-75908635D01*
X126679472Y-75324922D01*
X126871383Y-75286749D01*
X127171474Y-75086234D01*
X128241668Y-74016040D01*
X128501247Y-74016040D01*
X128633023Y-73989828D01*
X128766784Y-73977108D01*
X128808700Y-73954884D01*
X128855229Y-73945629D01*
X128966947Y-73870982D01*
X129085654Y-73808043D01*
X129895428Y-73148021D01*
X130327400Y-73233946D01*
X130939693Y-73112153D01*
X131328139Y-72852602D01*
X131362633Y-72852602D01*
X131374799Y-72881973D01*
X131588028Y-73095202D01*
X131866625Y-73210600D01*
X132252900Y-73210600D01*
X132442400Y-73021100D01*
X132442400Y-72027600D01*
X133292400Y-72027600D01*
X133292400Y-73021100D01*
X133481900Y-73210600D01*
X133868175Y-73210600D01*
X134146772Y-73095202D01*
X134360001Y-72881973D01*
X134475400Y-72603376D01*
X134475400Y-72217100D01*
X134285900Y-72027600D01*
X133292400Y-72027600D01*
X132442400Y-72027600D01*
X132017400Y-72027600D01*
X132017400Y-71177600D01*
X132442400Y-71177600D01*
X132442400Y-70184100D01*
X133292400Y-70184100D01*
X133292400Y-71177600D01*
X134285900Y-71177600D01*
X134475400Y-70988100D01*
X134475400Y-70601824D01*
X134360001Y-70323227D01*
X134146772Y-70109998D01*
X133868175Y-69994600D01*
X133481900Y-69994600D01*
X133292400Y-70184100D01*
X132442400Y-70184100D01*
X132252900Y-69994600D01*
X131866625Y-69994600D01*
X131588028Y-70109998D01*
X131374799Y-70323227D01*
X131362633Y-70352598D01*
X131328139Y-70352598D01*
X130939693Y-70093047D01*
X130327400Y-69971254D01*
X129715107Y-70093047D01*
X129196029Y-70439883D01*
X129057400Y-70647356D01*
X128918771Y-70439883D01*
X128399693Y-70093047D01*
X127787400Y-69971254D01*
X127175107Y-70093047D01*
X126656029Y-70439883D01*
X126517400Y-70647356D01*
X126378771Y-70439883D01*
X125859693Y-70093047D01*
X125247400Y-69971254D01*
X124635107Y-70093047D01*
X124116029Y-70439883D01*
X123977400Y-70647356D01*
X123838771Y-70439883D01*
X123319693Y-70093047D01*
X122707400Y-69971254D01*
X122095107Y-70093047D01*
X121576029Y-70439883D01*
X121437400Y-70647356D01*
X121298771Y-70439883D01*
X120779693Y-70093047D01*
X120167400Y-69971254D01*
X119555107Y-70093047D01*
X119036029Y-70439883D01*
X118689193Y-70958961D01*
X118567400Y-71571254D01*
X118567400Y-71633946D01*
X118689193Y-72246239D01*
X119015772Y-72735000D01*
X117068600Y-72735000D01*
X117009785Y-72746699D01*
X117009788Y-72743439D01*
X116774312Y-72173543D01*
X116338671Y-71737140D01*
X115769187Y-71500670D01*
X115152559Y-71500132D01*
X114582663Y-71735608D01*
X114146260Y-72171249D01*
X113909790Y-72740733D01*
X113909252Y-73357361D01*
X114144728Y-73927257D01*
X114580369Y-74363660D01*
X115068057Y-74566165D01*
X115056487Y-74624332D01*
X115026000Y-74777600D01*
X115026000Y-75704790D01*
X114899792Y-75399343D01*
X114464151Y-74962940D01*
X113894667Y-74726470D01*
X113278039Y-74725932D01*
X112708143Y-74961408D01*
X112271740Y-75397049D01*
X112035270Y-75966533D01*
X112034889Y-76403696D01*
X111910782Y-76320771D01*
X111654602Y-76269814D01*
X111384520Y-75999732D01*
X111384520Y-74317133D01*
X111772780Y-73929551D01*
X112009250Y-73360067D01*
X112009788Y-72743439D01*
X111774312Y-72173543D01*
X111338671Y-71737140D01*
X110769187Y-71500670D01*
X110152559Y-71500132D01*
X109582663Y-71735608D01*
X109434052Y-71883959D01*
X109206351Y-71655860D01*
X108636867Y-71419390D01*
X108020239Y-71418852D01*
X107450343Y-71654328D01*
X107013940Y-72089969D01*
X106777470Y-72659453D01*
X106776932Y-73276081D01*
X107012408Y-73845977D01*
X107448049Y-74282380D01*
X108017533Y-74518850D01*
X108634161Y-74519388D01*
X109204057Y-74283912D01*
X109352668Y-74135561D01*
X109534520Y-74317731D01*
X109534520Y-75033432D01*
X109464151Y-74962940D01*
X108894667Y-74726470D01*
X108278039Y-74725932D01*
X107708143Y-74961408D01*
X107271740Y-75397049D01*
X107035270Y-75966533D01*
X107034732Y-76583161D01*
X107270208Y-77153057D01*
X107705849Y-77589460D01*
X108275333Y-77825930D01*
X108827064Y-77826411D01*
X109260200Y-78259547D01*
X109260200Y-79099159D01*
X108934551Y-78772940D01*
X108365067Y-78536470D01*
X107748439Y-78535932D01*
X107178543Y-78771408D01*
X106796672Y-79152612D01*
X106692559Y-78900640D01*
X106278292Y-78485649D01*
X106691064Y-78073598D01*
X106921737Y-77518075D01*
X106922262Y-76916564D01*
X106692559Y-76360640D01*
X106267598Y-75934936D01*
X105712075Y-75704263D01*
X105110564Y-75703738D01*
X104554640Y-75933441D01*
X104252200Y-76235353D01*
X104252200Y-74235853D01*
X104640460Y-73848271D01*
X104876930Y-73278787D01*
X104877468Y-72662159D01*
X104641992Y-72092263D01*
X104341255Y-71791000D01*
X106273600Y-71791000D01*
X106627583Y-71720589D01*
X106927674Y-71520074D01*
X108604074Y-69843674D01*
X108804589Y-69543582D01*
X108875001Y-69189600D01*
X108875000Y-69189595D01*
X108875000Y-68632961D01*
X111733732Y-68632961D01*
X111969208Y-69202857D01*
X112404849Y-69639260D01*
X112974333Y-69875730D01*
X113590961Y-69876268D01*
X114160857Y-69640792D01*
X114597260Y-69205151D01*
X114833730Y-68635667D01*
X114834268Y-68019039D01*
X114598792Y-67449143D01*
X114163151Y-67012740D01*
X113721782Y-66829468D01*
X113284000Y-66391685D01*
X112845675Y-66830010D01*
X112407143Y-67011208D01*
X111970740Y-67446849D01*
X111734270Y-68016333D01*
X111733732Y-68632961D01*
X108875000Y-68632961D01*
X108875000Y-65856064D01*
X111695761Y-65856064D01*
X111805154Y-66406017D01*
X112053195Y-66491119D01*
X112718315Y-65826000D01*
X113849685Y-65826000D01*
X114514805Y-66491119D01*
X114762846Y-66406017D01*
X114872239Y-65795936D01*
X114762846Y-65245983D01*
X114514805Y-65160881D01*
X113849685Y-65826000D01*
X112718315Y-65826000D01*
X112053195Y-65160881D01*
X111805154Y-65245983D01*
X111695761Y-65856064D01*
X108875000Y-65856064D01*
X108875000Y-64595195D01*
X112618881Y-64595195D01*
X113284000Y-65260315D01*
X113949119Y-64595195D01*
X113864017Y-64347154D01*
X113389117Y-64262000D01*
X115767634Y-64262000D01*
X115885621Y-64855159D01*
X116221618Y-65358016D01*
X116724475Y-65694013D01*
X117317634Y-65812000D01*
X117378366Y-65812000D01*
X117971525Y-65694013D01*
X118474382Y-65358016D01*
X118810379Y-64855159D01*
X118928366Y-64262000D01*
X118810379Y-63668841D01*
X118474382Y-63165984D01*
X117971525Y-62829987D01*
X117378366Y-62712000D01*
X117317634Y-62712000D01*
X116724475Y-62829987D01*
X116221618Y-63165984D01*
X115885621Y-63668841D01*
X115767634Y-64262000D01*
X113389117Y-64262000D01*
X113253936Y-64237761D01*
X112703983Y-64347154D01*
X112618881Y-64595195D01*
X108875000Y-64595195D01*
X108875000Y-62762305D01*
X109672481Y-62762305D01*
X109757583Y-63010346D01*
X110367664Y-63119739D01*
X110917617Y-63010346D01*
X111002719Y-62762305D01*
X110337600Y-62097185D01*
X109672481Y-62762305D01*
X108875000Y-62762305D01*
X108875000Y-62117091D01*
X109106795Y-62196619D01*
X109771915Y-61531500D01*
X109489072Y-61248657D01*
X110054757Y-60682972D01*
X110337600Y-60965815D01*
X110620443Y-60682972D01*
X111186128Y-61248657D01*
X110903285Y-61531500D01*
X111568405Y-62196619D01*
X111816446Y-62111517D01*
X111871182Y-61806257D01*
X120913560Y-61806257D01*
X121184136Y-62211261D01*
X121759537Y-62652275D01*
X122030400Y-62570664D01*
X122030400Y-61535400D01*
X123130400Y-61535400D01*
X123130400Y-62570664D01*
X123401263Y-62652275D01*
X123976664Y-62211261D01*
X124247240Y-61806257D01*
X124155644Y-61535400D01*
X123130400Y-61535400D01*
X122030400Y-61535400D01*
X121005156Y-61535400D01*
X120913560Y-61806257D01*
X111871182Y-61806257D01*
X111880046Y-61756823D01*
X112223304Y-61413565D01*
X119476881Y-61413565D01*
X119561983Y-61661606D01*
X120172064Y-61770999D01*
X120722017Y-61661606D01*
X120807119Y-61413565D01*
X120142000Y-60748445D01*
X119476881Y-61413565D01*
X112223304Y-61413565D01*
X112341277Y-61295593D01*
X111493684Y-60448000D01*
X112034782Y-60448000D01*
X112365784Y-60943382D01*
X112365784Y-60943382D01*
G37*
X112365784Y-60943382D02*
X112868641Y-61279379D01*
X113461800Y-61397366D01*
X114054959Y-61279379D01*
X114557816Y-60943382D01*
X114888818Y-60448000D01*
X115463954Y-60448000D01*
X115718584Y-60829082D01*
X116221441Y-61165079D01*
X116814600Y-61283066D01*
X117407759Y-61165079D01*
X117910616Y-60829082D01*
X118165246Y-60448000D01*
X118600541Y-60448000D01*
X118663154Y-60762777D01*
X118911195Y-60847879D01*
X119311075Y-60448000D01*
X120972925Y-60448000D01*
X121372805Y-60847879D01*
X121620846Y-60762777D01*
X121677289Y-60448000D01*
X125226000Y-60448000D01*
X125226000Y-62230000D01*
X125245696Y-62327264D01*
X125301682Y-62409202D01*
X125385136Y-62462903D01*
X125476000Y-62480000D01*
X128463077Y-62480000D01*
X128552262Y-62618598D01*
X128802892Y-62789846D01*
X129100400Y-62850093D01*
X129584131Y-62850093D01*
X128884456Y-63549768D01*
X128829138Y-63463802D01*
X128578508Y-63292554D01*
X128281000Y-63232307D01*
X126481000Y-63232307D01*
X126203067Y-63284604D01*
X126190501Y-63292690D01*
X125847151Y-62948740D01*
X125277667Y-62712270D01*
X124661039Y-62711732D01*
X124091143Y-62947208D01*
X123654740Y-63382849D01*
X123418270Y-63952333D01*
X123417732Y-64568961D01*
X123653208Y-65138857D01*
X124088849Y-65575260D01*
X124658333Y-65811730D01*
X125274961Y-65812268D01*
X125716307Y-65629908D01*
X125716307Y-65797000D01*
X125768604Y-66074933D01*
X125932862Y-66330198D01*
X126183492Y-66501446D01*
X126481000Y-66561693D01*
X128281000Y-66561693D01*
X128558933Y-66509396D01*
X128814198Y-66345138D01*
X128883677Y-66243453D01*
X129612997Y-66972773D01*
X130004490Y-66581280D01*
X130514731Y-66479786D01*
X130615335Y-66227731D01*
X129921000Y-65533396D01*
X129602802Y-65851594D01*
X129045693Y-65294485D01*
X129045693Y-65135911D01*
X129284604Y-64897000D01*
X130557396Y-64897000D01*
X131251731Y-65591335D01*
X131503786Y-65490731D01*
X131610515Y-64839830D01*
X131503786Y-64303269D01*
X131251731Y-64202665D01*
X130557396Y-64897000D01*
X129284604Y-64897000D01*
X129045693Y-64658089D01*
X129045693Y-64499515D01*
X129602802Y-63942406D01*
X129921000Y-64260604D01*
X130615335Y-63566269D01*
X130514731Y-63314214D01*
X130025816Y-63234046D01*
X129641863Y-62850093D01*
X131300400Y-62850093D01*
X131578333Y-62797796D01*
X131833598Y-62633538D01*
X131938506Y-62480000D01*
X134602039Y-62480000D01*
X135077306Y-62677348D01*
X136569149Y-62678650D01*
X137049918Y-62480000D01*
X147657500Y-62480000D01*
X147657500Y-63899173D01*
X146944117Y-64612557D01*
X146673151Y-65018086D01*
X146578000Y-65496440D01*
X146578000Y-65599669D01*
X146269203Y-65806000D01*
X140242797Y-65806000D01*
X139693858Y-65439211D01*
X139024162Y-65306000D01*
X138343838Y-65306000D01*
X137674142Y-65439211D01*
X137106401Y-65818563D01*
X136727049Y-66386304D01*
X136593838Y-67056000D01*
X136727049Y-67725696D01*
X137106401Y-68293437D01*
X137155135Y-68326000D01*
X137106401Y-68358563D01*
X136727049Y-68926304D01*
X136593838Y-69596000D01*
X136727049Y-70265696D01*
X137106401Y-70833437D01*
X137155135Y-70866000D01*
X137106401Y-70898563D01*
X136727049Y-71466304D01*
X136593838Y-72136000D01*
X136727049Y-72805696D01*
X137106401Y-73373437D01*
X137155135Y-73406000D01*
X137106401Y-73438563D01*
X136727049Y-74006304D01*
X136593838Y-74676000D01*
X136727049Y-75345696D01*
X137106401Y-75913437D01*
X137190576Y-75969681D01*
X136797570Y-76458502D01*
X136897328Y-76716000D01*
X138034000Y-76716000D01*
X138034000Y-76364369D01*
X138343838Y-76426000D01*
X139024162Y-76426000D01*
X139334000Y-76364369D01*
X139334000Y-76716000D01*
X140470672Y-76716000D01*
X140570430Y-76458502D01*
X140177424Y-75969681D01*
X140261599Y-75913437D01*
X140420249Y-75676000D01*
X146091751Y-75676000D01*
X146250401Y-75913437D01*
X146334576Y-75969681D01*
X145941570Y-76458502D01*
X146041328Y-76716000D01*
X147178000Y-76716000D01*
X147178000Y-76364369D01*
X147487838Y-76426000D01*
X148168162Y-76426000D01*
X148478000Y-76364369D01*
X148478000Y-76716000D01*
X149614672Y-76716000D01*
X149714430Y-76458502D01*
X149321424Y-75969681D01*
X149405599Y-75913437D01*
X149784951Y-75345696D01*
X149918162Y-74676000D01*
X149784951Y-74006304D01*
X149405599Y-73438563D01*
X149356865Y-73406000D01*
X149405599Y-73373437D01*
X149564249Y-73136000D01*
X149699786Y-73136000D01*
X150130000Y-73566214D01*
X150130000Y-89086545D01*
X149988684Y-88992120D01*
X149606000Y-88916000D01*
X149310249Y-88916000D01*
X149151599Y-88678563D01*
X149102865Y-88646000D01*
X149151599Y-88613437D01*
X149530951Y-88045696D01*
X149664162Y-87376000D01*
X149530951Y-86706304D01*
X149151599Y-86138563D01*
X149102865Y-86106000D01*
X149151599Y-86073437D01*
X149530951Y-85505696D01*
X149664162Y-84836000D01*
X149530951Y-84166304D01*
X149151599Y-83598563D01*
X148583858Y-83219211D01*
X147914162Y-83086000D01*
X147233838Y-83086000D01*
X146564142Y-83219211D01*
X146015203Y-83586000D01*
X144191040Y-83586000D01*
X144191040Y-81361280D01*
X144120370Y-81006000D01*
X145810348Y-81006000D01*
X145815604Y-81033933D01*
X145979862Y-81289198D01*
X146230492Y-81460446D01*
X146528000Y-81520693D01*
X149128000Y-81520693D01*
X149405933Y-81468396D01*
X149661198Y-81304138D01*
X149832446Y-81053508D01*
X149892693Y-80756000D01*
X149892693Y-78756000D01*
X149840396Y-78478067D01*
X149676138Y-78222802D01*
X149571484Y-78151295D01*
X149714430Y-77973498D01*
X149614672Y-77716000D01*
X148478000Y-77716000D01*
X148478000Y-77991307D01*
X147178000Y-77991307D01*
X147178000Y-77716000D01*
X146041328Y-77716000D01*
X145941570Y-77973498D01*
X146083901Y-78150529D01*
X145994802Y-78207862D01*
X145823554Y-78458492D01*
X145813933Y-78506000D01*
X140701652Y-78506000D01*
X140696396Y-78478067D01*
X140532138Y-78222802D01*
X140427484Y-78151295D01*
X140570430Y-77973498D01*
X140470672Y-77716000D01*
X139334000Y-77716000D01*
X139334000Y-77991307D01*
X138034000Y-77991307D01*
X138034000Y-77716000D01*
X136897328Y-77716000D01*
X136797570Y-77973498D01*
X136939901Y-78150529D01*
X136850802Y-78207862D01*
X136679554Y-78458492D01*
X136619307Y-78756000D01*
X136619307Y-80756000D01*
X136671604Y-81033933D01*
X136835862Y-81289198D01*
X137086492Y-81460446D01*
X137384000Y-81520693D01*
X139984000Y-81520693D01*
X140261933Y-81468396D01*
X140517198Y-81304138D01*
X140688446Y-81053508D01*
X140698067Y-81006000D01*
X141761710Y-81006000D01*
X141691040Y-81361280D01*
X141691040Y-83586000D01*
X140242797Y-83586000D01*
X139693858Y-83219211D01*
X139024162Y-83086000D01*
X138343838Y-83086000D01*
X137674142Y-83219211D01*
X137106401Y-83598563D01*
X136727049Y-84166304D01*
X136593838Y-84836000D01*
X136727049Y-85505696D01*
X137106401Y-86073437D01*
X137155135Y-86106000D01*
X137106401Y-86138563D01*
X136727049Y-86706304D01*
X136593838Y-87376000D01*
X136727049Y-88045696D01*
X137106401Y-88613437D01*
X137155135Y-88646000D01*
X137106401Y-88678563D01*
X136727049Y-89246304D01*
X136593838Y-89916000D01*
X136727049Y-90585696D01*
X137106401Y-91153437D01*
X137155135Y-91186000D01*
X137106401Y-91218563D01*
X136727049Y-91786304D01*
X136593838Y-92456000D01*
X136727049Y-93125696D01*
X137106401Y-93693437D01*
X137190576Y-93749681D01*
X136797570Y-94238502D01*
X136897328Y-94496000D01*
X138034000Y-94496000D01*
X138034000Y-94144369D01*
X138343838Y-94206000D01*
X139024162Y-94206000D01*
X139334000Y-94144369D01*
X139334000Y-94496000D01*
X140470672Y-94496000D01*
X140570430Y-94238502D01*
X140177424Y-93749681D01*
X140261599Y-93693437D01*
X140420249Y-93456000D01*
X145837751Y-93456000D01*
X145996401Y-93693437D01*
X146080576Y-93749681D01*
X145687570Y-94238502D01*
X145787328Y-94496000D01*
X146924000Y-94496000D01*
X146924000Y-94144369D01*
X147233838Y-94206000D01*
X147914162Y-94206000D01*
X148224000Y-94144369D01*
X148224000Y-94496000D01*
X149360672Y-94496000D01*
X149460430Y-94238502D01*
X149067424Y-93749681D01*
X149151599Y-93693437D01*
X149530951Y-93125696D01*
X149664162Y-92456000D01*
X149530951Y-91786304D01*
X149151599Y-91218563D01*
X149102865Y-91186000D01*
X149151599Y-91153437D01*
X149262800Y-90987013D01*
X150130000Y-91854213D01*
X150130000Y-105630786D01*
X149076222Y-106684564D01*
X149378551Y-106232096D01*
X149511762Y-105562400D01*
X149378551Y-104892704D01*
X148999199Y-104324963D01*
X148950465Y-104292400D01*
X148999199Y-104259837D01*
X149378551Y-103692096D01*
X149511762Y-103022400D01*
X149378551Y-102352704D01*
X148999199Y-101784963D01*
X148431458Y-101405611D01*
X147761762Y-101272400D01*
X147081438Y-101272400D01*
X146411742Y-101405611D01*
X145862803Y-101772400D01*
X144079280Y-101772400D01*
X144079280Y-100584000D01*
X143984129Y-100105646D01*
X143713163Y-99700117D01*
X143307634Y-99429151D01*
X142829280Y-99334000D01*
X142350926Y-99429151D01*
X141945397Y-99700117D01*
X141674431Y-100105646D01*
X141579280Y-100584000D01*
X141579280Y-101772400D01*
X139328742Y-101772400D01*
X138931858Y-101507211D01*
X138262162Y-101374000D01*
X137581838Y-101374000D01*
X136912142Y-101507211D01*
X136363203Y-101874000D01*
X130590797Y-101874000D01*
X130041858Y-101507211D01*
X129372162Y-101374000D01*
X128691838Y-101374000D01*
X128022142Y-101507211D01*
X127454401Y-101886563D01*
X127075049Y-102454304D01*
X126941838Y-103124000D01*
X127075049Y-103793696D01*
X127454401Y-104361437D01*
X127503135Y-104394000D01*
X127454401Y-104426563D01*
X127075049Y-104994304D01*
X126941838Y-105664000D01*
X127075049Y-106333696D01*
X127454401Y-106901437D01*
X127503135Y-106934000D01*
X127454401Y-106966563D01*
X127075049Y-107534304D01*
X126941838Y-108204000D01*
X127075049Y-108873696D01*
X127454401Y-109441437D01*
X127503135Y-109474000D01*
X127454401Y-109506563D01*
X127075049Y-110074304D01*
X126941838Y-110744000D01*
X127075049Y-111413696D01*
X127454401Y-111981437D01*
X127538576Y-112037681D01*
X127145570Y-112526502D01*
X127245328Y-112784000D01*
X128382000Y-112784000D01*
X128382000Y-112432369D01*
X128691838Y-112494000D01*
X129372162Y-112494000D01*
X129682000Y-112432369D01*
X129682000Y-112784000D01*
X130818672Y-112784000D01*
X130918430Y-112526502D01*
X130525424Y-112037681D01*
X130609599Y-111981437D01*
X130768249Y-111744000D01*
X136185751Y-111744000D01*
X136344401Y-111981437D01*
X136428576Y-112037681D01*
X136035570Y-112526502D01*
X136135328Y-112784000D01*
X137272000Y-112784000D01*
X137272000Y-112432369D01*
X137581838Y-112494000D01*
X138262162Y-112494000D01*
X138572000Y-112432369D01*
X138572000Y-112784000D01*
X139708672Y-112784000D01*
X139808430Y-112526502D01*
X139415424Y-112037681D01*
X139499599Y-111981437D01*
X139726136Y-111642400D01*
X145685351Y-111642400D01*
X145844001Y-111879837D01*
X145928176Y-111936081D01*
X145535170Y-112424902D01*
X145634928Y-112682400D01*
X146771600Y-112682400D01*
X146771600Y-112330769D01*
X147081438Y-112392400D01*
X147761762Y-112392400D01*
X148071600Y-112330769D01*
X148071600Y-112682400D01*
X149208272Y-112682400D01*
X149308030Y-112424902D01*
X148915024Y-111936081D01*
X148999199Y-111879837D01*
X149378551Y-111312096D01*
X149511762Y-110642400D01*
X149378551Y-109972704D01*
X148999199Y-109404963D01*
X148950465Y-109372400D01*
X148999199Y-109339837D01*
X149170916Y-109082844D01*
X149455284Y-109026280D01*
X149779707Y-108809507D01*
X151321000Y-107268214D01*
X151321000Y-120654000D01*
X145542840Y-120654000D01*
X145542868Y-120622439D01*
X145307392Y-120052543D01*
X144871751Y-119616140D01*
X144302267Y-119379670D01*
X143685639Y-119379132D01*
X143115743Y-119614608D01*
X142679340Y-120050249D01*
X142442870Y-120619733D01*
X142442481Y-121065305D01*
X141343186Y-122164600D01*
X137290678Y-122164600D01*
X137498982Y-122025416D01*
X137834979Y-121522559D01*
X137952966Y-120929400D01*
X137834979Y-120336241D01*
X137498982Y-119833384D01*
X136996125Y-119497387D01*
X136792414Y-119456866D01*
X135045474Y-117709926D01*
X134745383Y-117509411D01*
X134391400Y-117439000D01*
X132285569Y-117439000D01*
X131984974Y-117314182D01*
X131567258Y-117313818D01*
X131181200Y-117473334D01*
X130885572Y-117768446D01*
X130725382Y-118154226D01*
X130725018Y-118571942D01*
X130884534Y-118958000D01*
X131170867Y-119244833D01*
X131133400Y-119282300D01*
X131133400Y-120275800D01*
X131558400Y-120275800D01*
X131558400Y-121125800D01*
X131133400Y-121125800D01*
X131133400Y-122119300D01*
X131322900Y-122308800D01*
X131709175Y-122308800D01*
X131987772Y-122193402D01*
X132201001Y-121980173D01*
X132213167Y-121950802D01*
X132247661Y-121950802D01*
X132636107Y-122210353D01*
X133248400Y-122332146D01*
X133860693Y-122210353D01*
X134379771Y-121863517D01*
X134726607Y-121344439D01*
X134800699Y-120971955D01*
X134910221Y-121522559D01*
X135246218Y-122025416D01*
X135749075Y-122361413D01*
X136246774Y-122460412D01*
X135436893Y-123270293D01*
X135220120Y-123594716D01*
X135157039Y-123911846D01*
X135144000Y-123977400D01*
X135144000Y-124733504D01*
X135012629Y-124821283D01*
X134874000Y-125028756D01*
X134735371Y-124821283D01*
X134216293Y-124474447D01*
X133604000Y-124352654D01*
X133334424Y-124406276D01*
X131972074Y-123043926D01*
X131671983Y-122843411D01*
X131318000Y-122773000D01*
X128270005Y-122773000D01*
X128270000Y-122772999D01*
X127916018Y-122843411D01*
X127615926Y-123043926D01*
X125837926Y-124821926D01*
X125834022Y-124827769D01*
X125828238Y-124831760D01*
X125733916Y-124977588D01*
X125637411Y-125122017D01*
X125636040Y-125128910D01*
X125632223Y-125134811D01*
X125600882Y-125305662D01*
X125567000Y-125476000D01*
X125568371Y-125482892D01*
X125567103Y-125489804D01*
X125573670Y-125929765D01*
X125204140Y-126298649D01*
X124967670Y-126868133D01*
X124967330Y-127258000D01*
X123789877Y-127258000D01*
X123800550Y-127249786D01*
X123925354Y-127166394D01*
X123942771Y-127140327D01*
X123967616Y-127121206D01*
X124042479Y-126991104D01*
X124125869Y-126866302D01*
X124131985Y-126835554D01*
X124147621Y-126808381D01*
X124166997Y-126659535D01*
X124196280Y-126512320D01*
X124196280Y-121315300D01*
X129100400Y-121315300D01*
X129100400Y-121701576D01*
X129215799Y-121980173D01*
X129429028Y-122193402D01*
X129707625Y-122308800D01*
X130093900Y-122308800D01*
X130283400Y-122119300D01*
X130283400Y-121125800D01*
X129289900Y-121125800D01*
X129100400Y-121315300D01*
X124196280Y-121315300D01*
X124196280Y-118221329D01*
X125028874Y-119218386D01*
X124967400Y-119527434D01*
X124967400Y-119588166D01*
X125085387Y-120181325D01*
X125421384Y-120684182D01*
X125924241Y-121020179D01*
X126517400Y-121138166D01*
X127110559Y-121020179D01*
X127613416Y-120684182D01*
X127949413Y-120181325D01*
X128045149Y-119700024D01*
X129100400Y-119700024D01*
X129100400Y-120086300D01*
X129289900Y-120275800D01*
X130283400Y-120275800D01*
X130283400Y-119282300D01*
X130093900Y-119092800D01*
X129707625Y-119092800D01*
X129429028Y-119208198D01*
X129215799Y-119421427D01*
X129100400Y-119700024D01*
X128045149Y-119700024D01*
X128067400Y-119588166D01*
X128067400Y-119527434D01*
X127949413Y-118934275D01*
X127613416Y-118431418D01*
X127110559Y-118095421D01*
X126517400Y-117977434D01*
X126419134Y-117996980D01*
X125385000Y-116758574D01*
X125385000Y-114824000D01*
X126967307Y-114824000D01*
X126967307Y-116824000D01*
X127019604Y-117101933D01*
X127183862Y-117357198D01*
X127434492Y-117528446D01*
X127732000Y-117588693D01*
X130332000Y-117588693D01*
X130609933Y-117536396D01*
X130865198Y-117372138D01*
X131036446Y-117121508D01*
X131096693Y-116824000D01*
X131096693Y-114824000D01*
X135857307Y-114824000D01*
X135857307Y-116824000D01*
X135909604Y-117101933D01*
X136073862Y-117357198D01*
X136324492Y-117528446D01*
X136622000Y-117588693D01*
X139222000Y-117588693D01*
X139499933Y-117536396D01*
X139755198Y-117372138D01*
X139926446Y-117121508D01*
X139986693Y-116824000D01*
X139986693Y-114824000D01*
X139967576Y-114722400D01*
X145356907Y-114722400D01*
X145356907Y-116722400D01*
X145409204Y-117000333D01*
X145573462Y-117255598D01*
X145824092Y-117426846D01*
X146121600Y-117487093D01*
X148721600Y-117487093D01*
X148999533Y-117434796D01*
X149254798Y-117270538D01*
X149426046Y-117019908D01*
X149486293Y-116722400D01*
X149486293Y-114722400D01*
X149433996Y-114444467D01*
X149269738Y-114189202D01*
X149165084Y-114117695D01*
X149308030Y-113939898D01*
X149208272Y-113682400D01*
X148071600Y-113682400D01*
X148071600Y-113957707D01*
X146771600Y-113957707D01*
X146771600Y-113682400D01*
X145634928Y-113682400D01*
X145535170Y-113939898D01*
X145677501Y-114116929D01*
X145588402Y-114174262D01*
X145417154Y-114424892D01*
X145356907Y-114722400D01*
X139967576Y-114722400D01*
X139934396Y-114546067D01*
X139770138Y-114290802D01*
X139665484Y-114219295D01*
X139808430Y-114041498D01*
X139708672Y-113784000D01*
X138572000Y-113784000D01*
X138572000Y-114059307D01*
X137272000Y-114059307D01*
X137272000Y-113784000D01*
X136135328Y-113784000D01*
X136035570Y-114041498D01*
X136177901Y-114218529D01*
X136088802Y-114275862D01*
X135917554Y-114526492D01*
X135857307Y-114824000D01*
X131096693Y-114824000D01*
X131044396Y-114546067D01*
X130880138Y-114290802D01*
X130775484Y-114219295D01*
X130918430Y-114041498D01*
X130818672Y-113784000D01*
X129682000Y-113784000D01*
X129682000Y-114059307D01*
X128382000Y-114059307D01*
X128382000Y-113784000D01*
X127245328Y-113784000D01*
X127145570Y-114041498D01*
X127287901Y-114218529D01*
X127198802Y-114275862D01*
X127027554Y-114526492D01*
X126967307Y-114824000D01*
X125385000Y-114824000D01*
X125385000Y-114808000D01*
X125314589Y-114454018D01*
X125314589Y-114454017D01*
X125114074Y-114153926D01*
X123082074Y-112121926D01*
X122781983Y-111921411D01*
X122428000Y-111851000D01*
X121863041Y-111851000D01*
X121518292Y-111505649D01*
X121931064Y-111093598D01*
X122161737Y-110538075D01*
X122162262Y-109936564D01*
X121932559Y-109380640D01*
X121518292Y-108965649D01*
X121931064Y-108553598D01*
X122161737Y-107998075D01*
X122162262Y-107396564D01*
X122025291Y-107065068D01*
X122116874Y-107003874D01*
X123285274Y-105835474D01*
X123485789Y-105535383D01*
X123556200Y-105181400D01*
X123556200Y-96536000D01*
X126967307Y-96536000D01*
X126967307Y-98536000D01*
X127019604Y-98813933D01*
X127183862Y-99069198D01*
X127434492Y-99240446D01*
X127732000Y-99300693D01*
X130332000Y-99300693D01*
X130609933Y-99248396D01*
X130865198Y-99084138D01*
X131036446Y-98833508D01*
X131096693Y-98536000D01*
X131096693Y-96536000D01*
X136619307Y-96536000D01*
X136619307Y-98536000D01*
X136671604Y-98813933D01*
X136835862Y-99069198D01*
X137086492Y-99240446D01*
X137384000Y-99300693D01*
X139984000Y-99300693D01*
X140261933Y-99248396D01*
X140517198Y-99084138D01*
X140688446Y-98833508D01*
X140748693Y-98536000D01*
X140748693Y-96536000D01*
X145509307Y-96536000D01*
X145509307Y-98536000D01*
X145561604Y-98813933D01*
X145725862Y-99069198D01*
X145976492Y-99240446D01*
X146274000Y-99300693D01*
X148874000Y-99300693D01*
X149151933Y-99248396D01*
X149407198Y-99084138D01*
X149578446Y-98833508D01*
X149638693Y-98536000D01*
X149638693Y-96536000D01*
X149586396Y-96258067D01*
X149422138Y-96002802D01*
X149317484Y-95931295D01*
X149460430Y-95753498D01*
X149360672Y-95496000D01*
X148224000Y-95496000D01*
X148224000Y-95771307D01*
X146924000Y-95771307D01*
X146924000Y-95496000D01*
X145787328Y-95496000D01*
X145687570Y-95753498D01*
X145829901Y-95930529D01*
X145740802Y-95987862D01*
X145569554Y-96238492D01*
X145509307Y-96536000D01*
X140748693Y-96536000D01*
X140696396Y-96258067D01*
X140532138Y-96002802D01*
X140427484Y-95931295D01*
X140570430Y-95753498D01*
X140470672Y-95496000D01*
X139334000Y-95496000D01*
X139334000Y-95771307D01*
X138034000Y-95771307D01*
X138034000Y-95496000D01*
X136897328Y-95496000D01*
X136797570Y-95753498D01*
X136939901Y-95930529D01*
X136850802Y-95987862D01*
X136679554Y-96238492D01*
X136619307Y-96536000D01*
X131096693Y-96536000D01*
X131044396Y-96258067D01*
X130880138Y-96002802D01*
X130775484Y-95931295D01*
X130918430Y-95753498D01*
X130818672Y-95496000D01*
X129682000Y-95496000D01*
X129682000Y-95771307D01*
X128382000Y-95771307D01*
X128382000Y-95496000D01*
X127245328Y-95496000D01*
X127145570Y-95753498D01*
X127287901Y-95930529D01*
X127198802Y-95987862D01*
X127027554Y-96238492D01*
X126967307Y-96536000D01*
X123556200Y-96536000D01*
X123556200Y-94437205D01*
X123556201Y-94437200D01*
X123485789Y-94083218D01*
X123285274Y-93783126D01*
X122958148Y-93456000D01*
X127295751Y-93456000D01*
X127454401Y-93693437D01*
X127538576Y-93749681D01*
X127145570Y-94238502D01*
X127245328Y-94496000D01*
X128382000Y-94496000D01*
X128382000Y-94144369D01*
X128691838Y-94206000D01*
X129372162Y-94206000D01*
X129682000Y-94144369D01*
X129682000Y-94496000D01*
X130818672Y-94496000D01*
X130918430Y-94238502D01*
X130525424Y-93749681D01*
X130609599Y-93693437D01*
X130988951Y-93125696D01*
X131122162Y-92456000D01*
X130988951Y-91786304D01*
X130609599Y-91218563D01*
X130560865Y-91186000D01*
X130609599Y-91153437D01*
X130988951Y-90585696D01*
X131122162Y-89916000D01*
X130988951Y-89246304D01*
X130609599Y-88678563D01*
X130560865Y-88646000D01*
X130609599Y-88613437D01*
X130988951Y-88045696D01*
X131122162Y-87376000D01*
X130988951Y-86706304D01*
X130609599Y-86138563D01*
X130560865Y-86106000D01*
X130609599Y-86073437D01*
X130988951Y-85505696D01*
X131122162Y-84836000D01*
X130988951Y-84166304D01*
X130609599Y-83598563D01*
X130041858Y-83219211D01*
X129372162Y-83086000D01*
X128691838Y-83086000D01*
X128022142Y-83219211D01*
X127454401Y-83598563D01*
X127075049Y-84166304D01*
X126941838Y-84836000D01*
X127075049Y-85505696D01*
X127454401Y-86073437D01*
X127503135Y-86106000D01*
X127454401Y-86138563D01*
X127075049Y-86706304D01*
X126941838Y-87376000D01*
X127075049Y-88045696D01*
X127454401Y-88613437D01*
X127503135Y-88646000D01*
X127454401Y-88678563D01*
X127295751Y-88916000D01*
X121788171Y-88916000D01*
X121518292Y-88645649D01*
X121931064Y-88233598D01*
X122161737Y-87678075D01*
X122162262Y-87076564D01*
X122149270Y-87045120D01*
X122300492Y-87148446D01*
X122598000Y-87208693D01*
X124798000Y-87208693D01*
X125075933Y-87156396D01*
X125331198Y-86992138D01*
X125502446Y-86741508D01*
X125562693Y-86444000D01*
X125562693Y-84244000D01*
X125510396Y-83966067D01*
X125346138Y-83710802D01*
X125095508Y-83539554D01*
X124798000Y-83479307D01*
X124503935Y-83479307D01*
X124402749Y-82534907D01*
X124360160Y-82398716D01*
X124332320Y-82258756D01*
X124302378Y-82213945D01*
X124286294Y-82162511D01*
X124194827Y-82052984D01*
X124115547Y-81934333D01*
X123770107Y-81588893D01*
X123445684Y-81372120D01*
X123063000Y-81296000D01*
X121788171Y-81296000D01*
X121518292Y-81025649D01*
X121628448Y-80915685D01*
X125623681Y-80915685D01*
X125708783Y-81163726D01*
X126318864Y-81273119D01*
X126868817Y-81163726D01*
X126953919Y-80915685D01*
X126288800Y-80250565D01*
X125623681Y-80915685D01*
X121628448Y-80915685D01*
X121931064Y-80613598D01*
X122161737Y-80058075D01*
X122162262Y-79456564D01*
X121962872Y-78974002D01*
X122360037Y-78974002D01*
X122472139Y-79120264D01*
X122877143Y-79390840D01*
X123148000Y-79299244D01*
X123148000Y-78274000D01*
X122598000Y-78274000D01*
X122598000Y-77174000D01*
X123148000Y-77174000D01*
X123148000Y-76442868D01*
X123318149Y-76188222D01*
X123384243Y-75855945D01*
X123883028Y-75357160D01*
X124973336Y-75357160D01*
X124092083Y-76238413D01*
X124248000Y-76394330D01*
X124248000Y-77174000D01*
X124798000Y-77174000D01*
X124798000Y-78274000D01*
X124248000Y-78274000D01*
X124248000Y-79299244D01*
X124387632Y-79346464D01*
X124285123Y-79448973D01*
X124737674Y-79901523D01*
X124809954Y-80264897D01*
X125057995Y-80349999D01*
X125723115Y-79684880D01*
X126854485Y-79684880D01*
X127519605Y-80349999D01*
X127767646Y-80264897D01*
X127871648Y-79684880D01*
X132328434Y-79684880D01*
X132446421Y-80278039D01*
X132782418Y-80780896D01*
X133285275Y-81116893D01*
X133878434Y-81234880D01*
X133939166Y-81234880D01*
X134532325Y-81116893D01*
X135035182Y-80780896D01*
X135371179Y-80278039D01*
X135489166Y-79684880D01*
X135371179Y-79091721D01*
X135035182Y-78588864D01*
X134532325Y-78252867D01*
X133939166Y-78134880D01*
X133878434Y-78134880D01*
X133285275Y-78252867D01*
X132782418Y-78588864D01*
X132446421Y-79091721D01*
X132328434Y-79684880D01*
X127871648Y-79684880D01*
X127877039Y-79654816D01*
X127767646Y-79104863D01*
X127519605Y-79019761D01*
X126854485Y-79684880D01*
X125723115Y-79684880D01*
X125440272Y-79402037D01*
X126005957Y-78836352D01*
X126288800Y-79119195D01*
X126953919Y-78454075D01*
X126868817Y-78206034D01*
X126514123Y-78142434D01*
X126383077Y-78011388D01*
X126675777Y-77953166D01*
X126760879Y-77705125D01*
X126095760Y-77040005D01*
X125556000Y-77579766D01*
X125556000Y-76474320D01*
X126661445Y-76474320D01*
X127326565Y-77139439D01*
X127574606Y-77054337D01*
X127678608Y-76474320D01*
X132135394Y-76474320D01*
X132253381Y-77067479D01*
X132589378Y-77570336D01*
X133092235Y-77906333D01*
X133685394Y-78024320D01*
X133746126Y-78024320D01*
X134339285Y-77906333D01*
X134842142Y-77570336D01*
X135178139Y-77067479D01*
X135296126Y-76474320D01*
X135178139Y-75881161D01*
X134842142Y-75378304D01*
X134339285Y-75042307D01*
X133746126Y-74924320D01*
X133685394Y-74924320D01*
X133092235Y-75042307D01*
X132589378Y-75378304D01*
X132253381Y-75881161D01*
X132135394Y-76474320D01*
X127678608Y-76474320D01*
X127683999Y-76444256D01*
X127574606Y-75894303D01*
X127326565Y-75809201D01*
X126661445Y-76474320D01*
X125556000Y-76474320D01*
X125556000Y-76473998D01*
X125529753Y-76473998D01*
X125247232Y-76191477D01*
X125812917Y-75625792D01*
X126095760Y-75908635D01*
X126679472Y-75324922D01*
X126871383Y-75286749D01*
X127171474Y-75086234D01*
X128241668Y-74016040D01*
X128501247Y-74016040D01*
X128633023Y-73989828D01*
X128766784Y-73977108D01*
X128808700Y-73954884D01*
X128855229Y-73945629D01*
X128966947Y-73870982D01*
X129085654Y-73808043D01*
X129895428Y-73148021D01*
X130327400Y-73233946D01*
X130939693Y-73112153D01*
X131328139Y-72852602D01*
X131362633Y-72852602D01*
X131374799Y-72881973D01*
X131588028Y-73095202D01*
X131866625Y-73210600D01*
X132252900Y-73210600D01*
X132442400Y-73021100D01*
X132442400Y-72027600D01*
X133292400Y-72027600D01*
X133292400Y-73021100D01*
X133481900Y-73210600D01*
X133868175Y-73210600D01*
X134146772Y-73095202D01*
X134360001Y-72881973D01*
X134475400Y-72603376D01*
X134475400Y-72217100D01*
X134285900Y-72027600D01*
X133292400Y-72027600D01*
X132442400Y-72027600D01*
X132017400Y-72027600D01*
X132017400Y-71177600D01*
X132442400Y-71177600D01*
X132442400Y-70184100D01*
X133292400Y-70184100D01*
X133292400Y-71177600D01*
X134285900Y-71177600D01*
X134475400Y-70988100D01*
X134475400Y-70601824D01*
X134360001Y-70323227D01*
X134146772Y-70109998D01*
X133868175Y-69994600D01*
X133481900Y-69994600D01*
X133292400Y-70184100D01*
X132442400Y-70184100D01*
X132252900Y-69994600D01*
X131866625Y-69994600D01*
X131588028Y-70109998D01*
X131374799Y-70323227D01*
X131362633Y-70352598D01*
X131328139Y-70352598D01*
X130939693Y-70093047D01*
X130327400Y-69971254D01*
X129715107Y-70093047D01*
X129196029Y-70439883D01*
X129057400Y-70647356D01*
X128918771Y-70439883D01*
X128399693Y-70093047D01*
X127787400Y-69971254D01*
X127175107Y-70093047D01*
X126656029Y-70439883D01*
X126517400Y-70647356D01*
X126378771Y-70439883D01*
X125859693Y-70093047D01*
X125247400Y-69971254D01*
X124635107Y-70093047D01*
X124116029Y-70439883D01*
X123977400Y-70647356D01*
X123838771Y-70439883D01*
X123319693Y-70093047D01*
X122707400Y-69971254D01*
X122095107Y-70093047D01*
X121576029Y-70439883D01*
X121437400Y-70647356D01*
X121298771Y-70439883D01*
X120779693Y-70093047D01*
X120167400Y-69971254D01*
X119555107Y-70093047D01*
X119036029Y-70439883D01*
X118689193Y-70958961D01*
X118567400Y-71571254D01*
X118567400Y-71633946D01*
X118689193Y-72246239D01*
X119015772Y-72735000D01*
X117068600Y-72735000D01*
X117009785Y-72746699D01*
X117009788Y-72743439D01*
X116774312Y-72173543D01*
X116338671Y-71737140D01*
X115769187Y-71500670D01*
X115152559Y-71500132D01*
X114582663Y-71735608D01*
X114146260Y-72171249D01*
X113909790Y-72740733D01*
X113909252Y-73357361D01*
X114144728Y-73927257D01*
X114580369Y-74363660D01*
X115068057Y-74566165D01*
X115056487Y-74624332D01*
X115026000Y-74777600D01*
X115026000Y-75704790D01*
X114899792Y-75399343D01*
X114464151Y-74962940D01*
X113894667Y-74726470D01*
X113278039Y-74725932D01*
X112708143Y-74961408D01*
X112271740Y-75397049D01*
X112035270Y-75966533D01*
X112034889Y-76403696D01*
X111910782Y-76320771D01*
X111654602Y-76269814D01*
X111384520Y-75999732D01*
X111384520Y-74317133D01*
X111772780Y-73929551D01*
X112009250Y-73360067D01*
X112009788Y-72743439D01*
X111774312Y-72173543D01*
X111338671Y-71737140D01*
X110769187Y-71500670D01*
X110152559Y-71500132D01*
X109582663Y-71735608D01*
X109434052Y-71883959D01*
X109206351Y-71655860D01*
X108636867Y-71419390D01*
X108020239Y-71418852D01*
X107450343Y-71654328D01*
X107013940Y-72089969D01*
X106777470Y-72659453D01*
X106776932Y-73276081D01*
X107012408Y-73845977D01*
X107448049Y-74282380D01*
X108017533Y-74518850D01*
X108634161Y-74519388D01*
X109204057Y-74283912D01*
X109352668Y-74135561D01*
X109534520Y-74317731D01*
X109534520Y-75033432D01*
X109464151Y-74962940D01*
X108894667Y-74726470D01*
X108278039Y-74725932D01*
X107708143Y-74961408D01*
X107271740Y-75397049D01*
X107035270Y-75966533D01*
X107034732Y-76583161D01*
X107270208Y-77153057D01*
X107705849Y-77589460D01*
X108275333Y-77825930D01*
X108827064Y-77826411D01*
X109260200Y-78259547D01*
X109260200Y-79099159D01*
X108934551Y-78772940D01*
X108365067Y-78536470D01*
X107748439Y-78535932D01*
X107178543Y-78771408D01*
X106796672Y-79152612D01*
X106692559Y-78900640D01*
X106278292Y-78485649D01*
X106691064Y-78073598D01*
X106921737Y-77518075D01*
X106922262Y-76916564D01*
X106692559Y-76360640D01*
X106267598Y-75934936D01*
X105712075Y-75704263D01*
X105110564Y-75703738D01*
X104554640Y-75933441D01*
X104252200Y-76235353D01*
X104252200Y-74235853D01*
X104640460Y-73848271D01*
X104876930Y-73278787D01*
X104877468Y-72662159D01*
X104641992Y-72092263D01*
X104341255Y-71791000D01*
X106273600Y-71791000D01*
X106627583Y-71720589D01*
X106927674Y-71520074D01*
X108604074Y-69843674D01*
X108804589Y-69543582D01*
X108875001Y-69189600D01*
X108875000Y-69189595D01*
X108875000Y-68632961D01*
X111733732Y-68632961D01*
X111969208Y-69202857D01*
X112404849Y-69639260D01*
X112974333Y-69875730D01*
X113590961Y-69876268D01*
X114160857Y-69640792D01*
X114597260Y-69205151D01*
X114833730Y-68635667D01*
X114834268Y-68019039D01*
X114598792Y-67449143D01*
X114163151Y-67012740D01*
X113721782Y-66829468D01*
X113284000Y-66391685D01*
X112845675Y-66830010D01*
X112407143Y-67011208D01*
X111970740Y-67446849D01*
X111734270Y-68016333D01*
X111733732Y-68632961D01*
X108875000Y-68632961D01*
X108875000Y-65856064D01*
X111695761Y-65856064D01*
X111805154Y-66406017D01*
X112053195Y-66491119D01*
X112718315Y-65826000D01*
X113849685Y-65826000D01*
X114514805Y-66491119D01*
X114762846Y-66406017D01*
X114872239Y-65795936D01*
X114762846Y-65245983D01*
X114514805Y-65160881D01*
X113849685Y-65826000D01*
X112718315Y-65826000D01*
X112053195Y-65160881D01*
X111805154Y-65245983D01*
X111695761Y-65856064D01*
X108875000Y-65856064D01*
X108875000Y-64595195D01*
X112618881Y-64595195D01*
X113284000Y-65260315D01*
X113949119Y-64595195D01*
X113864017Y-64347154D01*
X113389117Y-64262000D01*
X115767634Y-64262000D01*
X115885621Y-64855159D01*
X116221618Y-65358016D01*
X116724475Y-65694013D01*
X117317634Y-65812000D01*
X117378366Y-65812000D01*
X117971525Y-65694013D01*
X118474382Y-65358016D01*
X118810379Y-64855159D01*
X118928366Y-64262000D01*
X118810379Y-63668841D01*
X118474382Y-63165984D01*
X117971525Y-62829987D01*
X117378366Y-62712000D01*
X117317634Y-62712000D01*
X116724475Y-62829987D01*
X116221618Y-63165984D01*
X115885621Y-63668841D01*
X115767634Y-64262000D01*
X113389117Y-64262000D01*
X113253936Y-64237761D01*
X112703983Y-64347154D01*
X112618881Y-64595195D01*
X108875000Y-64595195D01*
X108875000Y-62762305D01*
X109672481Y-62762305D01*
X109757583Y-63010346D01*
X110367664Y-63119739D01*
X110917617Y-63010346D01*
X111002719Y-62762305D01*
X110337600Y-62097185D01*
X109672481Y-62762305D01*
X108875000Y-62762305D01*
X108875000Y-62117091D01*
X109106795Y-62196619D01*
X109771915Y-61531500D01*
X109489072Y-61248657D01*
X110054757Y-60682972D01*
X110337600Y-60965815D01*
X110620443Y-60682972D01*
X111186128Y-61248657D01*
X110903285Y-61531500D01*
X111568405Y-62196619D01*
X111816446Y-62111517D01*
X111871182Y-61806257D01*
X120913560Y-61806257D01*
X121184136Y-62211261D01*
X121759537Y-62652275D01*
X122030400Y-62570664D01*
X122030400Y-61535400D01*
X123130400Y-61535400D01*
X123130400Y-62570664D01*
X123401263Y-62652275D01*
X123976664Y-62211261D01*
X124247240Y-61806257D01*
X124155644Y-61535400D01*
X123130400Y-61535400D01*
X122030400Y-61535400D01*
X121005156Y-61535400D01*
X120913560Y-61806257D01*
X111871182Y-61806257D01*
X111880046Y-61756823D01*
X112223304Y-61413565D01*
X119476881Y-61413565D01*
X119561983Y-61661606D01*
X120172064Y-61770999D01*
X120722017Y-61661606D01*
X120807119Y-61413565D01*
X120142000Y-60748445D01*
X119476881Y-61413565D01*
X112223304Y-61413565D01*
X112341277Y-61295593D01*
X111493684Y-60448000D01*
X112034782Y-60448000D01*
X112365784Y-60943382D01*
G36*
X115715341Y-124643489D02*
X115185903Y-124862248D01*
X114749500Y-125297889D01*
X114513030Y-125867373D01*
X114512492Y-126484001D01*
X114747968Y-127053897D01*
X114951715Y-127258000D01*
X109579202Y-127258000D01*
X109905139Y-126770199D01*
X110023126Y-126177040D01*
X109905139Y-125583881D01*
X109569142Y-125081024D01*
X109066285Y-124745027D01*
X108473126Y-124627040D01*
X108412394Y-124627040D01*
X107819235Y-124745027D01*
X107316378Y-125081024D01*
X106980381Y-125583881D01*
X106862394Y-126177040D01*
X106892621Y-126329000D01*
X106692973Y-126329000D01*
X106921737Y-125778075D01*
X106922262Y-125176564D01*
X106692559Y-124620640D01*
X106278292Y-124205649D01*
X106691064Y-123793598D01*
X106779198Y-123581346D01*
X107549926Y-124352074D01*
X107850017Y-124552589D01*
X108204000Y-124623000D01*
X112776000Y-124623000D01*
X113129983Y-124552589D01*
X113430074Y-124352074D01*
X114427000Y-123355148D01*
X115715341Y-124643489D01*
X115715341Y-124643489D01*
G37*
X115715341Y-124643489D02*
X115185903Y-124862248D01*
X114749500Y-125297889D01*
X114513030Y-125867373D01*
X114512492Y-126484001D01*
X114747968Y-127053897D01*
X114951715Y-127258000D01*
X109579202Y-127258000D01*
X109905139Y-126770199D01*
X110023126Y-126177040D01*
X109905139Y-125583881D01*
X109569142Y-125081024D01*
X109066285Y-124745027D01*
X108473126Y-124627040D01*
X108412394Y-124627040D01*
X107819235Y-124745027D01*
X107316378Y-125081024D01*
X106980381Y-125583881D01*
X106862394Y-126177040D01*
X106892621Y-126329000D01*
X106692973Y-126329000D01*
X106921737Y-125778075D01*
X106922262Y-125176564D01*
X106692559Y-124620640D01*
X106278292Y-124205649D01*
X106691064Y-123793598D01*
X106779198Y-123581346D01*
X107549926Y-124352074D01*
X107850017Y-124552589D01*
X108204000Y-124623000D01*
X112776000Y-124623000D01*
X113129983Y-124552589D01*
X113430074Y-124352074D01*
X114427000Y-123355148D01*
X115715341Y-124643489D01*
G36*
X69263180Y-108086849D02*
X69026710Y-108656333D01*
X69026172Y-109272961D01*
X69261648Y-109842857D01*
X69697289Y-110279260D01*
X70266773Y-110515730D01*
X70883401Y-110516268D01*
X71453297Y-110280792D01*
X71843771Y-109891000D01*
X71925829Y-109891000D01*
X71868970Y-110027933D01*
X71868432Y-110644561D01*
X72103908Y-111214457D01*
X72539549Y-111650860D01*
X73109033Y-111887330D01*
X73501710Y-111887673D01*
X72935543Y-112121608D01*
X72499140Y-112557249D01*
X72262670Y-113126733D01*
X72262189Y-113678463D01*
X70875526Y-115065126D01*
X70576440Y-115005634D01*
X69983281Y-115123621D01*
X69480424Y-115459618D01*
X69144427Y-115962475D01*
X69026440Y-116555634D01*
X69026440Y-116616366D01*
X69111531Y-117044148D01*
X69070102Y-116944128D01*
X68856873Y-116730899D01*
X68578276Y-116615500D01*
X68217000Y-116615500D01*
X68027500Y-116805000D01*
X68027500Y-117773500D01*
X68996000Y-117773500D01*
X69185500Y-117584000D01*
X69185500Y-117270995D01*
X69480424Y-117712382D01*
X69983281Y-118048379D01*
X70576440Y-118166366D01*
X71169599Y-118048379D01*
X71672456Y-117712382D01*
X72008453Y-117209525D01*
X72126440Y-116616366D01*
X72126440Y-116555634D01*
X72105680Y-116451268D01*
X73570759Y-114986189D01*
X74119361Y-114986668D01*
X74689257Y-114751192D01*
X75125660Y-114315551D01*
X75362130Y-113746067D01*
X75362668Y-113129439D01*
X75329641Y-113049507D01*
X75518418Y-112860730D01*
X75386870Y-113177533D01*
X75386332Y-113794161D01*
X75621808Y-114364057D01*
X76057449Y-114800460D01*
X76626933Y-115036930D01*
X77243561Y-115037468D01*
X77813457Y-114801992D01*
X77970117Y-114645605D01*
X79687781Y-114645605D01*
X79772883Y-114893646D01*
X80382964Y-115003039D01*
X80932917Y-114893646D01*
X81018019Y-114645605D01*
X80352900Y-113980485D01*
X79687781Y-114645605D01*
X77970117Y-114645605D01*
X78249860Y-114366351D01*
X78486330Y-113796867D01*
X78486637Y-113444864D01*
X78764661Y-113444864D01*
X78874054Y-113994817D01*
X79122095Y-114079919D01*
X79787215Y-113414800D01*
X80918585Y-113414800D01*
X81583705Y-114079919D01*
X81831746Y-113994817D01*
X81941139Y-113384736D01*
X81831746Y-112834783D01*
X81583705Y-112749681D01*
X80918585Y-113414800D01*
X79787215Y-113414800D01*
X79122095Y-112749681D01*
X78874054Y-112834783D01*
X78764661Y-113444864D01*
X78486637Y-113444864D01*
X78486868Y-113180239D01*
X78251392Y-112610343D01*
X78089740Y-112448408D01*
X78354153Y-112183995D01*
X79687781Y-112183995D01*
X80352900Y-112849115D01*
X81018019Y-112183995D01*
X80932917Y-111935954D01*
X80322836Y-111826561D01*
X79772883Y-111935954D01*
X79687781Y-112183995D01*
X78354153Y-112183995D01*
X79275548Y-111262600D01*
X79798049Y-111262600D01*
X79912318Y-111433616D01*
X80415175Y-111769613D01*
X81008334Y-111887600D01*
X81069066Y-111887600D01*
X81662225Y-111769613D01*
X82135000Y-111453716D01*
X82135000Y-111613002D01*
X82800939Y-111613002D01*
X83062369Y-111787665D01*
X83293000Y-111671737D01*
X83293000Y-110763000D01*
X82893000Y-110763000D01*
X82893000Y-109963000D01*
X83293000Y-109963000D01*
X83293000Y-109563000D01*
X84093000Y-109563000D01*
X84093000Y-109963000D01*
X84493000Y-109963000D01*
X84493000Y-110763000D01*
X84093000Y-110763000D01*
X84093000Y-111671737D01*
X84323631Y-111787665D01*
X84585061Y-111613002D01*
X85251000Y-111613002D01*
X85251000Y-111565565D01*
X85639841Y-111825379D01*
X86233000Y-111943366D01*
X86826159Y-111825379D01*
X87329016Y-111489382D01*
X87503000Y-111228996D01*
X87676984Y-111489382D01*
X88179841Y-111825379D01*
X88773000Y-111943366D01*
X89366159Y-111825379D01*
X89869016Y-111489382D01*
X90043000Y-111228996D01*
X90216984Y-111489382D01*
X90719841Y-111825379D01*
X91313000Y-111943366D01*
X91906159Y-111825379D01*
X92409016Y-111489382D01*
X92583000Y-111228996D01*
X92756984Y-111489382D01*
X93259841Y-111825379D01*
X93853000Y-111943366D01*
X94446159Y-111825379D01*
X94949016Y-111489382D01*
X95123000Y-111228996D01*
X95296984Y-111489382D01*
X95799841Y-111825379D01*
X96393000Y-111943366D01*
X96986159Y-111825379D01*
X97489016Y-111489382D01*
X97663000Y-111228996D01*
X97836984Y-111489382D01*
X97841591Y-111492461D01*
X96594052Y-112740000D01*
X85609689Y-112740000D01*
X85553774Y-112716782D01*
X85136058Y-112716418D01*
X84750000Y-112875934D01*
X84454372Y-113171046D01*
X84294182Y-113556826D01*
X84293818Y-113974542D01*
X84453334Y-114360600D01*
X84748446Y-114656228D01*
X85134226Y-114816418D01*
X85551942Y-114816782D01*
X85938000Y-114657266D01*
X86005384Y-114590000D01*
X96977200Y-114590000D01*
X97331183Y-114519589D01*
X97631274Y-114319074D01*
X99587074Y-112363274D01*
X99602316Y-112340463D01*
X101911124Y-114649271D01*
X101911126Y-114649274D01*
X102161275Y-114816418D01*
X102211218Y-114849789D01*
X102565200Y-114920201D01*
X102565205Y-114920200D01*
X103937181Y-114920200D01*
X103898263Y-115013925D01*
X103897738Y-115615436D01*
X104127441Y-116171360D01*
X104541708Y-116586351D01*
X104128936Y-116998402D01*
X103898263Y-117553925D01*
X103897738Y-118155436D01*
X104127441Y-118711360D01*
X104541708Y-119126351D01*
X104128936Y-119538402D01*
X103898263Y-120093925D01*
X103897738Y-120695436D01*
X103921812Y-120753700D01*
X103397928Y-120753700D01*
X101676640Y-119032412D01*
X101676640Y-117431820D01*
X101659967Y-117348000D01*
X101606229Y-117077837D01*
X101405714Y-116777746D01*
X100534494Y-115906526D01*
X100234403Y-115706011D01*
X99880420Y-115635600D01*
X97053405Y-115635600D01*
X97053400Y-115635599D01*
X96699418Y-115706011D01*
X96399326Y-115906526D01*
X95755812Y-116550040D01*
X95296984Y-116856618D01*
X95123000Y-117117004D01*
X94949016Y-116856618D01*
X94446159Y-116520621D01*
X93853000Y-116402634D01*
X93259841Y-116520621D01*
X92756984Y-116856618D01*
X92583000Y-117117004D01*
X92409016Y-116856618D01*
X91906159Y-116520621D01*
X91313000Y-116402634D01*
X90719841Y-116520621D01*
X90216984Y-116856618D01*
X90043000Y-117117004D01*
X89869016Y-116856618D01*
X89366159Y-116520621D01*
X88773000Y-116402634D01*
X88179841Y-116520621D01*
X87676984Y-116856618D01*
X87503000Y-117117004D01*
X87329016Y-116856618D01*
X86826159Y-116520621D01*
X86233000Y-116402634D01*
X85639841Y-116520621D01*
X85163024Y-116839219D01*
X85041138Y-116649802D01*
X84790508Y-116478554D01*
X84493000Y-116418307D01*
X82893000Y-116418307D01*
X82615067Y-116470604D01*
X82359802Y-116634862D01*
X82188554Y-116885492D01*
X82128307Y-117183000D01*
X82128307Y-118783000D01*
X82180604Y-119060933D01*
X82344862Y-119316198D01*
X82595492Y-119487446D01*
X82893000Y-119547693D01*
X84493000Y-119547693D01*
X84770933Y-119495396D01*
X85026198Y-119331138D01*
X85164950Y-119128068D01*
X85639841Y-119445379D01*
X86233000Y-119563366D01*
X86826159Y-119445379D01*
X87329016Y-119109382D01*
X87503000Y-118848996D01*
X87676984Y-119109382D01*
X88179841Y-119445379D01*
X88773000Y-119563366D01*
X89366159Y-119445379D01*
X89869016Y-119109382D01*
X90043000Y-118848996D01*
X90216984Y-119109382D01*
X90719841Y-119445379D01*
X91313000Y-119563366D01*
X91906159Y-119445379D01*
X92409016Y-119109382D01*
X92583000Y-118848996D01*
X92756984Y-119109382D01*
X93259841Y-119445379D01*
X93853000Y-119563366D01*
X94446159Y-119445379D01*
X94949016Y-119109382D01*
X95123000Y-118848996D01*
X95296984Y-119109382D01*
X95799841Y-119445379D01*
X96393000Y-119563366D01*
X96986159Y-119445379D01*
X97489016Y-119109382D01*
X97663000Y-118848996D01*
X97683000Y-118878928D01*
X97683000Y-119392700D01*
X97752466Y-119741926D01*
X97778151Y-119871054D01*
X98049117Y-120276583D01*
X101592417Y-123819884D01*
X101829723Y-123978446D01*
X101997946Y-124090849D01*
X102476300Y-124186000D01*
X104521392Y-124186000D01*
X104541708Y-124206351D01*
X104128936Y-124618402D01*
X103898263Y-125173925D01*
X103897738Y-125775436D01*
X104126466Y-126329000D01*
X102491147Y-126329000D01*
X100222074Y-124059926D01*
X99921983Y-123859411D01*
X99568000Y-123789000D01*
X95837496Y-123789000D01*
X95889498Y-123755538D01*
X96060746Y-123504908D01*
X96120993Y-123207400D01*
X96120993Y-122207400D01*
X96068696Y-121929467D01*
X95904438Y-121674202D01*
X95653808Y-121502954D01*
X95356300Y-121442707D01*
X94356300Y-121442707D01*
X94078367Y-121495004D01*
X93823102Y-121659262D01*
X93651854Y-121909892D01*
X93591607Y-122207400D01*
X93591607Y-122727404D01*
X93566284Y-122727382D01*
X93566517Y-122459850D01*
X93376616Y-122000257D01*
X93025293Y-121648319D01*
X92566031Y-121457617D01*
X92068750Y-121457183D01*
X91609157Y-121647084D01*
X91358368Y-121897435D01*
X91327317Y-121903611D01*
X91027226Y-122104126D01*
X88611570Y-124519782D01*
X88255151Y-124162740D01*
X87940294Y-124032000D01*
X88880002Y-124032000D01*
X88880002Y-123511963D01*
X89026264Y-123399861D01*
X89296840Y-122994857D01*
X89205244Y-122724000D01*
X88180000Y-122724000D01*
X88180000Y-123274000D01*
X87080000Y-123274000D01*
X87080000Y-122724000D01*
X86054756Y-122724000D01*
X85963160Y-122994857D01*
X86233736Y-123399861D01*
X86379998Y-123511963D01*
X86379998Y-124032000D01*
X86811851Y-124032000D01*
X86499143Y-124161208D01*
X86062740Y-124596849D01*
X85826270Y-125166333D01*
X85825732Y-125782961D01*
X85956895Y-126100400D01*
X81197505Y-126100400D01*
X81218379Y-126069159D01*
X81336366Y-125476000D01*
X81218379Y-124882841D01*
X80882382Y-124379984D01*
X80379525Y-124043987D01*
X80352910Y-124038693D01*
X81110000Y-124038693D01*
X81387933Y-123986396D01*
X81643198Y-123822138D01*
X81814446Y-123571508D01*
X81874693Y-123274000D01*
X81874693Y-121353143D01*
X85963160Y-121353143D01*
X86054756Y-121624000D01*
X87080000Y-121624000D01*
X87080000Y-120588736D01*
X88180000Y-120588736D01*
X88180000Y-121624000D01*
X89205244Y-121624000D01*
X89296840Y-121353143D01*
X89026264Y-120948139D01*
X88450863Y-120507125D01*
X88180000Y-120588736D01*
X87080000Y-120588736D01*
X86809137Y-120507125D01*
X86233736Y-120948139D01*
X85963160Y-121353143D01*
X81874693Y-121353143D01*
X81874693Y-121074000D01*
X81822396Y-120796067D01*
X81658138Y-120540802D01*
X81407508Y-120369554D01*
X81110000Y-120309307D01*
X78910000Y-120309307D01*
X78632067Y-120361604D01*
X78376802Y-120525862D01*
X78205554Y-120776492D01*
X78145307Y-121074000D01*
X78145307Y-122811159D01*
X77108074Y-121773926D01*
X76807983Y-121573411D01*
X76454000Y-121503000D01*
X71882000Y-121503000D01*
X71528017Y-121573411D01*
X71227926Y-121773926D01*
X69103576Y-123898276D01*
X68834000Y-123844654D01*
X68221707Y-123966447D01*
X67702629Y-124313283D01*
X67564000Y-124520756D01*
X67425371Y-124313283D01*
X66906293Y-123966447D01*
X66294000Y-123844654D01*
X65681707Y-123966447D01*
X65254509Y-124251891D01*
X65152138Y-124092802D01*
X64901508Y-123921554D01*
X64604000Y-123861307D01*
X62904000Y-123861307D01*
X62626067Y-123913604D01*
X62370802Y-124077862D01*
X62226000Y-124289787D01*
X62226000Y-121920000D01*
X62206304Y-121822736D01*
X62150318Y-121740798D01*
X62066864Y-121687097D01*
X61976000Y-121670000D01*
X56197000Y-121670000D01*
X56197000Y-121052961D01*
X58315699Y-121052961D01*
X58509361Y-121327784D01*
X59403149Y-121417592D01*
X59854639Y-121327784D01*
X60048301Y-121052961D01*
X59182000Y-120186660D01*
X58315699Y-121052961D01*
X56197000Y-121052961D01*
X56197000Y-119347149D01*
X56890408Y-119347149D01*
X56980216Y-119798639D01*
X57255039Y-119992301D01*
X58121340Y-119126000D01*
X60242660Y-119126000D01*
X61108961Y-119992301D01*
X61383784Y-119798639D01*
X61473592Y-118904851D01*
X61389175Y-118480461D01*
X63577232Y-118480461D01*
X63812708Y-119050357D01*
X64248349Y-119486760D01*
X64817833Y-119723230D01*
X65434461Y-119723768D01*
X66004357Y-119488292D01*
X66069500Y-119423263D01*
X66069500Y-119423502D01*
X66205528Y-119423502D01*
X66398127Y-119616101D01*
X66676724Y-119731500D01*
X67038000Y-119731500D01*
X67227500Y-119542000D01*
X67227500Y-118573500D01*
X68027500Y-118573500D01*
X68027500Y-119542000D01*
X68217000Y-119731500D01*
X68578276Y-119731500D01*
X68856873Y-119616101D01*
X69070102Y-119402872D01*
X69185500Y-119124275D01*
X69185500Y-118763000D01*
X69165861Y-118743361D01*
X72262132Y-118743361D01*
X72497608Y-119313257D01*
X72933249Y-119749660D01*
X73502733Y-119986130D01*
X74119361Y-119986668D01*
X74689257Y-119751192D01*
X75125660Y-119315551D01*
X75342159Y-118794161D01*
X75386332Y-118794161D01*
X75621808Y-119364057D01*
X76057449Y-119800460D01*
X76626933Y-120036930D01*
X77243561Y-120037468D01*
X77813457Y-119801992D01*
X78249860Y-119366351D01*
X78486330Y-118796867D01*
X78486395Y-118721761D01*
X78802632Y-118721761D01*
X79038108Y-119291657D01*
X79473749Y-119728060D01*
X80043233Y-119964530D01*
X80659861Y-119965068D01*
X81229757Y-119729592D01*
X81666160Y-119293951D01*
X81902630Y-118724467D01*
X81903168Y-118107839D01*
X81667692Y-117537943D01*
X81232051Y-117101540D01*
X80662567Y-116865070D01*
X80045939Y-116864532D01*
X79476043Y-117100008D01*
X79039640Y-117535649D01*
X78803170Y-118105133D01*
X78802632Y-118721761D01*
X78486395Y-118721761D01*
X78486868Y-118180239D01*
X78251392Y-117610343D01*
X77815751Y-117173940D01*
X77246267Y-116937470D01*
X76629639Y-116936932D01*
X76059743Y-117172408D01*
X75623340Y-117608049D01*
X75386870Y-118177533D01*
X75386332Y-118794161D01*
X75342159Y-118794161D01*
X75362130Y-118746067D01*
X75362668Y-118129439D01*
X75127192Y-117559543D01*
X74691551Y-117123140D01*
X74122067Y-116886670D01*
X73505439Y-116886132D01*
X72935543Y-117121608D01*
X72499140Y-117557249D01*
X72262670Y-118126733D01*
X72262132Y-118743361D01*
X69165861Y-118743361D01*
X68996000Y-118573500D01*
X68027500Y-118573500D01*
X67227500Y-118573500D01*
X66827500Y-118573500D01*
X66827500Y-117773500D01*
X67227500Y-117773500D01*
X67227500Y-116805000D01*
X67038000Y-116615500D01*
X66676724Y-116615500D01*
X66398127Y-116730899D01*
X66205528Y-116923498D01*
X66069799Y-116923498D01*
X66006651Y-116860240D01*
X65437167Y-116623770D01*
X64820539Y-116623232D01*
X64250643Y-116858708D01*
X63814240Y-117294349D01*
X63577770Y-117863833D01*
X63577232Y-118480461D01*
X61389175Y-118480461D01*
X61383784Y-118453361D01*
X61108961Y-118259699D01*
X60242660Y-119126000D01*
X58121340Y-119126000D01*
X57255039Y-118259699D01*
X56980216Y-118453361D01*
X56890408Y-119347149D01*
X56197000Y-119347149D01*
X56197000Y-117199039D01*
X58315699Y-117199039D01*
X59182000Y-118065340D01*
X60048301Y-117199039D01*
X59854639Y-116924216D01*
X58960851Y-116834408D01*
X58509361Y-116924216D01*
X58315699Y-117199039D01*
X56197000Y-117199039D01*
X56197000Y-112546000D01*
X56917307Y-112546000D01*
X56917307Y-115546000D01*
X56969604Y-115823933D01*
X57133862Y-116079198D01*
X57384492Y-116250446D01*
X57682000Y-116310693D01*
X60682000Y-116310693D01*
X60959933Y-116258396D01*
X61215198Y-116094138D01*
X61386446Y-115843508D01*
X61446693Y-115546000D01*
X61446693Y-112546000D01*
X61394396Y-112268067D01*
X61230138Y-112012802D01*
X60979508Y-111841554D01*
X60682000Y-111781307D01*
X57682000Y-111781307D01*
X57404067Y-111833604D01*
X57148802Y-111997862D01*
X56977554Y-112248492D01*
X56917307Y-112546000D01*
X56197000Y-112546000D01*
X56197000Y-111248000D01*
X66042416Y-111248000D01*
X66399093Y-111604677D01*
X66635000Y-111368770D01*
X66870907Y-111604677D01*
X67227584Y-111248000D01*
X68580000Y-111248000D01*
X68677264Y-111228304D01*
X68759202Y-111172318D01*
X68812903Y-111088864D01*
X68830000Y-110998000D01*
X68830000Y-107946000D01*
X69404275Y-107946000D01*
X69263180Y-108086849D01*
X69263180Y-108086849D01*
G37*
X69263180Y-108086849D02*
X69026710Y-108656333D01*
X69026172Y-109272961D01*
X69261648Y-109842857D01*
X69697289Y-110279260D01*
X70266773Y-110515730D01*
X70883401Y-110516268D01*
X71453297Y-110280792D01*
X71843771Y-109891000D01*
X71925829Y-109891000D01*
X71868970Y-110027933D01*
X71868432Y-110644561D01*
X72103908Y-111214457D01*
X72539549Y-111650860D01*
X73109033Y-111887330D01*
X73501710Y-111887673D01*
X72935543Y-112121608D01*
X72499140Y-112557249D01*
X72262670Y-113126733D01*
X72262189Y-113678463D01*
X70875526Y-115065126D01*
X70576440Y-115005634D01*
X69983281Y-115123621D01*
X69480424Y-115459618D01*
X69144427Y-115962475D01*
X69026440Y-116555634D01*
X69026440Y-116616366D01*
X69111531Y-117044148D01*
X69070102Y-116944128D01*
X68856873Y-116730899D01*
X68578276Y-116615500D01*
X68217000Y-116615500D01*
X68027500Y-116805000D01*
X68027500Y-117773500D01*
X68996000Y-117773500D01*
X69185500Y-117584000D01*
X69185500Y-117270995D01*
X69480424Y-117712382D01*
X69983281Y-118048379D01*
X70576440Y-118166366D01*
X71169599Y-118048379D01*
X71672456Y-117712382D01*
X72008453Y-117209525D01*
X72126440Y-116616366D01*
X72126440Y-116555634D01*
X72105680Y-116451268D01*
X73570759Y-114986189D01*
X74119361Y-114986668D01*
X74689257Y-114751192D01*
X75125660Y-114315551D01*
X75362130Y-113746067D01*
X75362668Y-113129439D01*
X75329641Y-113049507D01*
X75518418Y-112860730D01*
X75386870Y-113177533D01*
X75386332Y-113794161D01*
X75621808Y-114364057D01*
X76057449Y-114800460D01*
X76626933Y-115036930D01*
X77243561Y-115037468D01*
X77813457Y-114801992D01*
X77970117Y-114645605D01*
X79687781Y-114645605D01*
X79772883Y-114893646D01*
X80382964Y-115003039D01*
X80932917Y-114893646D01*
X81018019Y-114645605D01*
X80352900Y-113980485D01*
X79687781Y-114645605D01*
X77970117Y-114645605D01*
X78249860Y-114366351D01*
X78486330Y-113796867D01*
X78486637Y-113444864D01*
X78764661Y-113444864D01*
X78874054Y-113994817D01*
X79122095Y-114079919D01*
X79787215Y-113414800D01*
X80918585Y-113414800D01*
X81583705Y-114079919D01*
X81831746Y-113994817D01*
X81941139Y-113384736D01*
X81831746Y-112834783D01*
X81583705Y-112749681D01*
X80918585Y-113414800D01*
X79787215Y-113414800D01*
X79122095Y-112749681D01*
X78874054Y-112834783D01*
X78764661Y-113444864D01*
X78486637Y-113444864D01*
X78486868Y-113180239D01*
X78251392Y-112610343D01*
X78089740Y-112448408D01*
X78354153Y-112183995D01*
X79687781Y-112183995D01*
X80352900Y-112849115D01*
X81018019Y-112183995D01*
X80932917Y-111935954D01*
X80322836Y-111826561D01*
X79772883Y-111935954D01*
X79687781Y-112183995D01*
X78354153Y-112183995D01*
X79275548Y-111262600D01*
X79798049Y-111262600D01*
X79912318Y-111433616D01*
X80415175Y-111769613D01*
X81008334Y-111887600D01*
X81069066Y-111887600D01*
X81662225Y-111769613D01*
X82135000Y-111453716D01*
X82135000Y-111613002D01*
X82800939Y-111613002D01*
X83062369Y-111787665D01*
X83293000Y-111671737D01*
X83293000Y-110763000D01*
X82893000Y-110763000D01*
X82893000Y-109963000D01*
X83293000Y-109963000D01*
X83293000Y-109563000D01*
X84093000Y-109563000D01*
X84093000Y-109963000D01*
X84493000Y-109963000D01*
X84493000Y-110763000D01*
X84093000Y-110763000D01*
X84093000Y-111671737D01*
X84323631Y-111787665D01*
X84585061Y-111613002D01*
X85251000Y-111613002D01*
X85251000Y-111565565D01*
X85639841Y-111825379D01*
X86233000Y-111943366D01*
X86826159Y-111825379D01*
X87329016Y-111489382D01*
X87503000Y-111228996D01*
X87676984Y-111489382D01*
X88179841Y-111825379D01*
X88773000Y-111943366D01*
X89366159Y-111825379D01*
X89869016Y-111489382D01*
X90043000Y-111228996D01*
X90216984Y-111489382D01*
X90719841Y-111825379D01*
X91313000Y-111943366D01*
X91906159Y-111825379D01*
X92409016Y-111489382D01*
X92583000Y-111228996D01*
X92756984Y-111489382D01*
X93259841Y-111825379D01*
X93853000Y-111943366D01*
X94446159Y-111825379D01*
X94949016Y-111489382D01*
X95123000Y-111228996D01*
X95296984Y-111489382D01*
X95799841Y-111825379D01*
X96393000Y-111943366D01*
X96986159Y-111825379D01*
X97489016Y-111489382D01*
X97663000Y-111228996D01*
X97836984Y-111489382D01*
X97841591Y-111492461D01*
X96594052Y-112740000D01*
X85609689Y-112740000D01*
X85553774Y-112716782D01*
X85136058Y-112716418D01*
X84750000Y-112875934D01*
X84454372Y-113171046D01*
X84294182Y-113556826D01*
X84293818Y-113974542D01*
X84453334Y-114360600D01*
X84748446Y-114656228D01*
X85134226Y-114816418D01*
X85551942Y-114816782D01*
X85938000Y-114657266D01*
X86005384Y-114590000D01*
X96977200Y-114590000D01*
X97331183Y-114519589D01*
X97631274Y-114319074D01*
X99587074Y-112363274D01*
X99602316Y-112340463D01*
X101911124Y-114649271D01*
X101911126Y-114649274D01*
X102161275Y-114816418D01*
X102211218Y-114849789D01*
X102565200Y-114920201D01*
X102565205Y-114920200D01*
X103937181Y-114920200D01*
X103898263Y-115013925D01*
X103897738Y-115615436D01*
X104127441Y-116171360D01*
X104541708Y-116586351D01*
X104128936Y-116998402D01*
X103898263Y-117553925D01*
X103897738Y-118155436D01*
X104127441Y-118711360D01*
X104541708Y-119126351D01*
X104128936Y-119538402D01*
X103898263Y-120093925D01*
X103897738Y-120695436D01*
X103921812Y-120753700D01*
X103397928Y-120753700D01*
X101676640Y-119032412D01*
X101676640Y-117431820D01*
X101659967Y-117348000D01*
X101606229Y-117077837D01*
X101405714Y-116777746D01*
X100534494Y-115906526D01*
X100234403Y-115706011D01*
X99880420Y-115635600D01*
X97053405Y-115635600D01*
X97053400Y-115635599D01*
X96699418Y-115706011D01*
X96399326Y-115906526D01*
X95755812Y-116550040D01*
X95296984Y-116856618D01*
X95123000Y-117117004D01*
X94949016Y-116856618D01*
X94446159Y-116520621D01*
X93853000Y-116402634D01*
X93259841Y-116520621D01*
X92756984Y-116856618D01*
X92583000Y-117117004D01*
X92409016Y-116856618D01*
X91906159Y-116520621D01*
X91313000Y-116402634D01*
X90719841Y-116520621D01*
X90216984Y-116856618D01*
X90043000Y-117117004D01*
X89869016Y-116856618D01*
X89366159Y-116520621D01*
X88773000Y-116402634D01*
X88179841Y-116520621D01*
X87676984Y-116856618D01*
X87503000Y-117117004D01*
X87329016Y-116856618D01*
X86826159Y-116520621D01*
X86233000Y-116402634D01*
X85639841Y-116520621D01*
X85163024Y-116839219D01*
X85041138Y-116649802D01*
X84790508Y-116478554D01*
X84493000Y-116418307D01*
X82893000Y-116418307D01*
X82615067Y-116470604D01*
X82359802Y-116634862D01*
X82188554Y-116885492D01*
X82128307Y-117183000D01*
X82128307Y-118783000D01*
X82180604Y-119060933D01*
X82344862Y-119316198D01*
X82595492Y-119487446D01*
X82893000Y-119547693D01*
X84493000Y-119547693D01*
X84770933Y-119495396D01*
X85026198Y-119331138D01*
X85164950Y-119128068D01*
X85639841Y-119445379D01*
X86233000Y-119563366D01*
X86826159Y-119445379D01*
X87329016Y-119109382D01*
X87503000Y-118848996D01*
X87676984Y-119109382D01*
X88179841Y-119445379D01*
X88773000Y-119563366D01*
X89366159Y-119445379D01*
X89869016Y-119109382D01*
X90043000Y-118848996D01*
X90216984Y-119109382D01*
X90719841Y-119445379D01*
X91313000Y-119563366D01*
X91906159Y-119445379D01*
X92409016Y-119109382D01*
X92583000Y-118848996D01*
X92756984Y-119109382D01*
X93259841Y-119445379D01*
X93853000Y-119563366D01*
X94446159Y-119445379D01*
X94949016Y-119109382D01*
X95123000Y-118848996D01*
X95296984Y-119109382D01*
X95799841Y-119445379D01*
X96393000Y-119563366D01*
X96986159Y-119445379D01*
X97489016Y-119109382D01*
X97663000Y-118848996D01*
X97683000Y-118878928D01*
X97683000Y-119392700D01*
X97752466Y-119741926D01*
X97778151Y-119871054D01*
X98049117Y-120276583D01*
X101592417Y-123819884D01*
X101829723Y-123978446D01*
X101997946Y-124090849D01*
X102476300Y-124186000D01*
X104521392Y-124186000D01*
X104541708Y-124206351D01*
X104128936Y-124618402D01*
X103898263Y-125173925D01*
X103897738Y-125775436D01*
X104126466Y-126329000D01*
X102491147Y-126329000D01*
X100222074Y-124059926D01*
X99921983Y-123859411D01*
X99568000Y-123789000D01*
X95837496Y-123789000D01*
X95889498Y-123755538D01*
X96060746Y-123504908D01*
X96120993Y-123207400D01*
X96120993Y-122207400D01*
X96068696Y-121929467D01*
X95904438Y-121674202D01*
X95653808Y-121502954D01*
X95356300Y-121442707D01*
X94356300Y-121442707D01*
X94078367Y-121495004D01*
X93823102Y-121659262D01*
X93651854Y-121909892D01*
X93591607Y-122207400D01*
X93591607Y-122727404D01*
X93566284Y-122727382D01*
X93566517Y-122459850D01*
X93376616Y-122000257D01*
X93025293Y-121648319D01*
X92566031Y-121457617D01*
X92068750Y-121457183D01*
X91609157Y-121647084D01*
X91358368Y-121897435D01*
X91327317Y-121903611D01*
X91027226Y-122104126D01*
X88611570Y-124519782D01*
X88255151Y-124162740D01*
X87940294Y-124032000D01*
X88880002Y-124032000D01*
X88880002Y-123511963D01*
X89026264Y-123399861D01*
X89296840Y-122994857D01*
X89205244Y-122724000D01*
X88180000Y-122724000D01*
X88180000Y-123274000D01*
X87080000Y-123274000D01*
X87080000Y-122724000D01*
X86054756Y-122724000D01*
X85963160Y-122994857D01*
X86233736Y-123399861D01*
X86379998Y-123511963D01*
X86379998Y-124032000D01*
X86811851Y-124032000D01*
X86499143Y-124161208D01*
X86062740Y-124596849D01*
X85826270Y-125166333D01*
X85825732Y-125782961D01*
X85956895Y-126100400D01*
X81197505Y-126100400D01*
X81218379Y-126069159D01*
X81336366Y-125476000D01*
X81218379Y-124882841D01*
X80882382Y-124379984D01*
X80379525Y-124043987D01*
X80352910Y-124038693D01*
X81110000Y-124038693D01*
X81387933Y-123986396D01*
X81643198Y-123822138D01*
X81814446Y-123571508D01*
X81874693Y-123274000D01*
X81874693Y-121353143D01*
X85963160Y-121353143D01*
X86054756Y-121624000D01*
X87080000Y-121624000D01*
X87080000Y-120588736D01*
X88180000Y-120588736D01*
X88180000Y-121624000D01*
X89205244Y-121624000D01*
X89296840Y-121353143D01*
X89026264Y-120948139D01*
X88450863Y-120507125D01*
X88180000Y-120588736D01*
X87080000Y-120588736D01*
X86809137Y-120507125D01*
X86233736Y-120948139D01*
X85963160Y-121353143D01*
X81874693Y-121353143D01*
X81874693Y-121074000D01*
X81822396Y-120796067D01*
X81658138Y-120540802D01*
X81407508Y-120369554D01*
X81110000Y-120309307D01*
X78910000Y-120309307D01*
X78632067Y-120361604D01*
X78376802Y-120525862D01*
X78205554Y-120776492D01*
X78145307Y-121074000D01*
X78145307Y-122811159D01*
X77108074Y-121773926D01*
X76807983Y-121573411D01*
X76454000Y-121503000D01*
X71882000Y-121503000D01*
X71528017Y-121573411D01*
X71227926Y-121773926D01*
X69103576Y-123898276D01*
X68834000Y-123844654D01*
X68221707Y-123966447D01*
X67702629Y-124313283D01*
X67564000Y-124520756D01*
X67425371Y-124313283D01*
X66906293Y-123966447D01*
X66294000Y-123844654D01*
X65681707Y-123966447D01*
X65254509Y-124251891D01*
X65152138Y-124092802D01*
X64901508Y-123921554D01*
X64604000Y-123861307D01*
X62904000Y-123861307D01*
X62626067Y-123913604D01*
X62370802Y-124077862D01*
X62226000Y-124289787D01*
X62226000Y-121920000D01*
X62206304Y-121822736D01*
X62150318Y-121740798D01*
X62066864Y-121687097D01*
X61976000Y-121670000D01*
X56197000Y-121670000D01*
X56197000Y-121052961D01*
X58315699Y-121052961D01*
X58509361Y-121327784D01*
X59403149Y-121417592D01*
X59854639Y-121327784D01*
X60048301Y-121052961D01*
X59182000Y-120186660D01*
X58315699Y-121052961D01*
X56197000Y-121052961D01*
X56197000Y-119347149D01*
X56890408Y-119347149D01*
X56980216Y-119798639D01*
X57255039Y-119992301D01*
X58121340Y-119126000D01*
X60242660Y-119126000D01*
X61108961Y-119992301D01*
X61383784Y-119798639D01*
X61473592Y-118904851D01*
X61389175Y-118480461D01*
X63577232Y-118480461D01*
X63812708Y-119050357D01*
X64248349Y-119486760D01*
X64817833Y-119723230D01*
X65434461Y-119723768D01*
X66004357Y-119488292D01*
X66069500Y-119423263D01*
X66069500Y-119423502D01*
X66205528Y-119423502D01*
X66398127Y-119616101D01*
X66676724Y-119731500D01*
X67038000Y-119731500D01*
X67227500Y-119542000D01*
X67227500Y-118573500D01*
X68027500Y-118573500D01*
X68027500Y-119542000D01*
X68217000Y-119731500D01*
X68578276Y-119731500D01*
X68856873Y-119616101D01*
X69070102Y-119402872D01*
X69185500Y-119124275D01*
X69185500Y-118763000D01*
X69165861Y-118743361D01*
X72262132Y-118743361D01*
X72497608Y-119313257D01*
X72933249Y-119749660D01*
X73502733Y-119986130D01*
X74119361Y-119986668D01*
X74689257Y-119751192D01*
X75125660Y-119315551D01*
X75342159Y-118794161D01*
X75386332Y-118794161D01*
X75621808Y-119364057D01*
X76057449Y-119800460D01*
X76626933Y-120036930D01*
X77243561Y-120037468D01*
X77813457Y-119801992D01*
X78249860Y-119366351D01*
X78486330Y-118796867D01*
X78486395Y-118721761D01*
X78802632Y-118721761D01*
X79038108Y-119291657D01*
X79473749Y-119728060D01*
X80043233Y-119964530D01*
X80659861Y-119965068D01*
X81229757Y-119729592D01*
X81666160Y-119293951D01*
X81902630Y-118724467D01*
X81903168Y-118107839D01*
X81667692Y-117537943D01*
X81232051Y-117101540D01*
X80662567Y-116865070D01*
X80045939Y-116864532D01*
X79476043Y-117100008D01*
X79039640Y-117535649D01*
X78803170Y-118105133D01*
X78802632Y-118721761D01*
X78486395Y-118721761D01*
X78486868Y-118180239D01*
X78251392Y-117610343D01*
X77815751Y-117173940D01*
X77246267Y-116937470D01*
X76629639Y-116936932D01*
X76059743Y-117172408D01*
X75623340Y-117608049D01*
X75386870Y-118177533D01*
X75386332Y-118794161D01*
X75342159Y-118794161D01*
X75362130Y-118746067D01*
X75362668Y-118129439D01*
X75127192Y-117559543D01*
X74691551Y-117123140D01*
X74122067Y-116886670D01*
X73505439Y-116886132D01*
X72935543Y-117121608D01*
X72499140Y-117557249D01*
X72262670Y-118126733D01*
X72262132Y-118743361D01*
X69165861Y-118743361D01*
X68996000Y-118573500D01*
X68027500Y-118573500D01*
X67227500Y-118573500D01*
X66827500Y-118573500D01*
X66827500Y-117773500D01*
X67227500Y-117773500D01*
X67227500Y-116805000D01*
X67038000Y-116615500D01*
X66676724Y-116615500D01*
X66398127Y-116730899D01*
X66205528Y-116923498D01*
X66069799Y-116923498D01*
X66006651Y-116860240D01*
X65437167Y-116623770D01*
X64820539Y-116623232D01*
X64250643Y-116858708D01*
X63814240Y-117294349D01*
X63577770Y-117863833D01*
X63577232Y-118480461D01*
X61389175Y-118480461D01*
X61383784Y-118453361D01*
X61108961Y-118259699D01*
X60242660Y-119126000D01*
X58121340Y-119126000D01*
X57255039Y-118259699D01*
X56980216Y-118453361D01*
X56890408Y-119347149D01*
X56197000Y-119347149D01*
X56197000Y-117199039D01*
X58315699Y-117199039D01*
X59182000Y-118065340D01*
X60048301Y-117199039D01*
X59854639Y-116924216D01*
X58960851Y-116834408D01*
X58509361Y-116924216D01*
X58315699Y-117199039D01*
X56197000Y-117199039D01*
X56197000Y-112546000D01*
X56917307Y-112546000D01*
X56917307Y-115546000D01*
X56969604Y-115823933D01*
X57133862Y-116079198D01*
X57384492Y-116250446D01*
X57682000Y-116310693D01*
X60682000Y-116310693D01*
X60959933Y-116258396D01*
X61215198Y-116094138D01*
X61386446Y-115843508D01*
X61446693Y-115546000D01*
X61446693Y-112546000D01*
X61394396Y-112268067D01*
X61230138Y-112012802D01*
X60979508Y-111841554D01*
X60682000Y-111781307D01*
X57682000Y-111781307D01*
X57404067Y-111833604D01*
X57148802Y-111997862D01*
X56977554Y-112248492D01*
X56917307Y-112546000D01*
X56197000Y-112546000D01*
X56197000Y-111248000D01*
X66042416Y-111248000D01*
X66399093Y-111604677D01*
X66635000Y-111368770D01*
X66870907Y-111604677D01*
X67227584Y-111248000D01*
X68580000Y-111248000D01*
X68677264Y-111228304D01*
X68759202Y-111172318D01*
X68812903Y-111088864D01*
X68830000Y-110998000D01*
X68830000Y-107946000D01*
X69404275Y-107946000D01*
X69263180Y-108086849D01*
G36*
X73727106Y-103407835D02*
X73722614Y-103430417D01*
X73700200Y-103543100D01*
X73700200Y-104750471D01*
X73536443Y-104914228D01*
X73253600Y-104631385D01*
X72970757Y-104914228D01*
X72640000Y-104583471D01*
X72640000Y-104113615D01*
X72687915Y-104065700D01*
X72640000Y-104017785D01*
X72640000Y-103547929D01*
X72970757Y-103217172D01*
X73253600Y-103500015D01*
X73536443Y-103217172D01*
X73727106Y-103407835D01*
X73727106Y-103407835D01*
G37*
X73727106Y-103407835D02*
X73722614Y-103430417D01*
X73700200Y-103543100D01*
X73700200Y-104750471D01*
X73536443Y-104914228D01*
X73253600Y-104631385D01*
X72970757Y-104914228D01*
X72640000Y-104583471D01*
X72640000Y-104113615D01*
X72687915Y-104065700D01*
X72640000Y-104017785D01*
X72640000Y-103547929D01*
X72970757Y-103217172D01*
X73253600Y-103500015D01*
X73536443Y-103217172D01*
X73727106Y-103407835D01*
G36*
X76100500Y-92394648D02*
X76100500Y-92692828D01*
X75947567Y-92721604D01*
X75692302Y-92885862D01*
X75521054Y-93136492D01*
X75460807Y-93434000D01*
X75460807Y-95034000D01*
X75513104Y-95311933D01*
X75677362Y-95567198D01*
X75927992Y-95738446D01*
X76225500Y-95798693D01*
X77825500Y-95798693D01*
X78103433Y-95746396D01*
X78358698Y-95582138D01*
X78497450Y-95379068D01*
X78640500Y-95474651D01*
X78640500Y-97472120D01*
X78520000Y-97552635D01*
X78520000Y-97505198D01*
X77854061Y-97505198D01*
X77592631Y-97330535D01*
X77362000Y-97446463D01*
X77362000Y-98355200D01*
X77762000Y-98355200D01*
X77762000Y-99155200D01*
X77362000Y-99155200D01*
X77362000Y-100063937D01*
X77592631Y-100179865D01*
X77854061Y-100005202D01*
X78520000Y-100005202D01*
X78520000Y-99957765D01*
X78577000Y-99995851D01*
X78577000Y-100772352D01*
X78344152Y-101005200D01*
X76238100Y-101005200D01*
X75884117Y-101075611D01*
X75584026Y-101276126D01*
X74143818Y-102716334D01*
X73489507Y-102062023D01*
X73253600Y-102297930D01*
X73017693Y-102062023D01*
X72640000Y-102439716D01*
X72640000Y-100887480D01*
X72650638Y-100834000D01*
X74930000Y-100834000D01*
X75027264Y-100814304D01*
X75109202Y-100758318D01*
X75162903Y-100674864D01*
X75180000Y-100584000D01*
X75180000Y-99385835D01*
X75537306Y-99385835D01*
X75887088Y-99883038D01*
X76331369Y-100179865D01*
X76562000Y-100063937D01*
X76562000Y-99155200D01*
X75645693Y-99155200D01*
X75537306Y-99385835D01*
X75180000Y-99385835D01*
X75180000Y-98124565D01*
X75537306Y-98124565D01*
X75645693Y-98355200D01*
X76562000Y-98355200D01*
X76562000Y-97446463D01*
X76331369Y-97330535D01*
X75887088Y-97627362D01*
X75537306Y-98124565D01*
X75180000Y-98124565D01*
X75180000Y-91474148D01*
X76100500Y-92394648D01*
X76100500Y-92394648D01*
G37*
X76100500Y-92394648D02*
X76100500Y-92692828D01*
X75947567Y-92721604D01*
X75692302Y-92885862D01*
X75521054Y-93136492D01*
X75460807Y-93434000D01*
X75460807Y-95034000D01*
X75513104Y-95311933D01*
X75677362Y-95567198D01*
X75927992Y-95738446D01*
X76225500Y-95798693D01*
X77825500Y-95798693D01*
X78103433Y-95746396D01*
X78358698Y-95582138D01*
X78497450Y-95379068D01*
X78640500Y-95474651D01*
X78640500Y-97472120D01*
X78520000Y-97552635D01*
X78520000Y-97505198D01*
X77854061Y-97505198D01*
X77592631Y-97330535D01*
X77362000Y-97446463D01*
X77362000Y-98355200D01*
X77762000Y-98355200D01*
X77762000Y-99155200D01*
X77362000Y-99155200D01*
X77362000Y-100063937D01*
X77592631Y-100179865D01*
X77854061Y-100005202D01*
X78520000Y-100005202D01*
X78520000Y-99957765D01*
X78577000Y-99995851D01*
X78577000Y-100772352D01*
X78344152Y-101005200D01*
X76238100Y-101005200D01*
X75884117Y-101075611D01*
X75584026Y-101276126D01*
X74143818Y-102716334D01*
X73489507Y-102062023D01*
X73253600Y-102297930D01*
X73017693Y-102062023D01*
X72640000Y-102439716D01*
X72640000Y-100887480D01*
X72650638Y-100834000D01*
X74930000Y-100834000D01*
X75027264Y-100814304D01*
X75109202Y-100758318D01*
X75162903Y-100674864D01*
X75180000Y-100584000D01*
X75180000Y-99385835D01*
X75537306Y-99385835D01*
X75887088Y-99883038D01*
X76331369Y-100179865D01*
X76562000Y-100063937D01*
X76562000Y-99155200D01*
X75645693Y-99155200D01*
X75537306Y-99385835D01*
X75180000Y-99385835D01*
X75180000Y-98124565D01*
X75537306Y-98124565D01*
X75645693Y-98355200D01*
X76562000Y-98355200D01*
X76562000Y-97446463D01*
X76331369Y-97330535D01*
X75887088Y-97627362D01*
X75537306Y-98124565D01*
X75180000Y-98124565D01*
X75180000Y-91474148D01*
X76100500Y-92394648D01*
G36*
X80837707Y-60282000D02*
X80890004Y-60559933D01*
X81054262Y-60815198D01*
X81304892Y-60986446D01*
X81602400Y-61046693D01*
X81777400Y-61046693D01*
X81777400Y-62227853D01*
X79920011Y-64085242D01*
X79650183Y-64196732D01*
X79419792Y-63639143D01*
X78984151Y-63202740D01*
X78414667Y-62966270D01*
X77798039Y-62965732D01*
X77228143Y-63201208D01*
X76791740Y-63636849D01*
X76555270Y-64206333D01*
X76554732Y-64822961D01*
X76790208Y-65392857D01*
X77225849Y-65829260D01*
X77667218Y-66012532D01*
X78105000Y-66450315D01*
X78543325Y-66011990D01*
X78981857Y-65830792D01*
X79263007Y-65550133D01*
X79322534Y-65694200D01*
X79617646Y-65989828D01*
X80003426Y-66150018D01*
X80421142Y-66150382D01*
X80807200Y-65990866D01*
X81102828Y-65695754D01*
X81228539Y-65393009D01*
X83356471Y-63265076D01*
X83356474Y-63265074D01*
X83556989Y-62964982D01*
X83627400Y-62611000D01*
X83627400Y-61046693D01*
X83802400Y-61046693D01*
X84080333Y-60994396D01*
X84237597Y-60893200D01*
X84434347Y-60893200D01*
X84434347Y-60993200D01*
X84486644Y-61271133D01*
X84650902Y-61526398D01*
X84901532Y-61697646D01*
X85199040Y-61757893D01*
X87399040Y-61757893D01*
X87676973Y-61705596D01*
X87932238Y-61541338D01*
X88103486Y-61290708D01*
X88126522Y-61176951D01*
X88144244Y-61271133D01*
X88308502Y-61526398D01*
X88559132Y-61697646D01*
X88856640Y-61757893D01*
X91056640Y-61757893D01*
X91334573Y-61705596D01*
X91441811Y-61636590D01*
X91642692Y-61773846D01*
X91940200Y-61834093D01*
X94140200Y-61834093D01*
X94418133Y-61781796D01*
X94673398Y-61617538D01*
X94844646Y-61366908D01*
X94904893Y-61069400D01*
X94904893Y-60893200D01*
X95247859Y-60893200D01*
X95402089Y-61047700D01*
X95971573Y-61284170D01*
X96588201Y-61284708D01*
X97158097Y-61049232D01*
X97594500Y-60613591D01*
X97830970Y-60044107D01*
X97831508Y-59427479D01*
X97623475Y-58924000D01*
X100147582Y-58924000D01*
X100478584Y-59419382D01*
X100842000Y-59662208D01*
X100842000Y-60198000D01*
X100861696Y-60295264D01*
X100917682Y-60377202D01*
X101001136Y-60430903D01*
X101092000Y-60448000D01*
X107025000Y-60448000D01*
X107025000Y-62279080D01*
X106996043Y-62208999D01*
X106504190Y-61716287D01*
X105861224Y-61449304D01*
X105165031Y-61448696D01*
X104521599Y-61714557D01*
X104028887Y-62206410D01*
X103761904Y-62849376D01*
X103761296Y-63545569D01*
X104027157Y-64189001D01*
X104519010Y-64681713D01*
X105161976Y-64948696D01*
X105858169Y-64949304D01*
X106501601Y-64683443D01*
X106994313Y-64191590D01*
X107025000Y-64117688D01*
X107025000Y-66640426D01*
X106940972Y-66556398D01*
X106662375Y-66441000D01*
X106201100Y-66441000D01*
X106011600Y-66630500D01*
X106011600Y-67699000D01*
X106511600Y-67699000D01*
X106511600Y-68699000D01*
X106011600Y-68699000D01*
X106011600Y-69199000D01*
X105011600Y-69199000D01*
X105011600Y-68699000D01*
X103943100Y-68699000D01*
X103753600Y-68888500D01*
X103753600Y-69349776D01*
X103868999Y-69628373D01*
X104082228Y-69841602D01*
X104261598Y-69915899D01*
X104261598Y-69941000D01*
X102895400Y-69941000D01*
X102541417Y-70011411D01*
X102241326Y-70211926D01*
X94773726Y-77679526D01*
X94573211Y-77979617D01*
X94533436Y-78179583D01*
X94502800Y-78333600D01*
X94502800Y-78621451D01*
X94010366Y-78523500D01*
X93949634Y-78523500D01*
X93356475Y-78641487D01*
X92853618Y-78977484D01*
X92804360Y-79051203D01*
X92675634Y-78922252D01*
X92289854Y-78762062D01*
X91872138Y-78761698D01*
X91748337Y-78812852D01*
X91312702Y-78816613D01*
X89525165Y-76835000D01*
X90875634Y-76835000D01*
X90993621Y-77428159D01*
X91329618Y-77931016D01*
X91832475Y-78267013D01*
X92425634Y-78385000D01*
X92486366Y-78385000D01*
X93079525Y-78267013D01*
X93582382Y-77931016D01*
X93918379Y-77428159D01*
X94036366Y-76835000D01*
X93918379Y-76241841D01*
X93582382Y-75738984D01*
X93079525Y-75402987D01*
X92486366Y-75285000D01*
X92425634Y-75285000D01*
X91832475Y-75402987D01*
X91329618Y-75738984D01*
X90993621Y-76241841D01*
X90875634Y-76835000D01*
X89525165Y-76835000D01*
X88924425Y-76169038D01*
X88906543Y-76155710D01*
X88894222Y-76137113D01*
X88762434Y-76048304D01*
X88635042Y-75953357D01*
X88613420Y-75947887D01*
X88594920Y-75935420D01*
X88439193Y-75903808D01*
X88285149Y-75864835D01*
X88263075Y-75868056D01*
X88241217Y-75863619D01*
X85825154Y-75854127D01*
X85742425Y-75870245D01*
X85658157Y-75868660D01*
X85567008Y-75904422D01*
X85470898Y-75923147D01*
X85400634Y-75969698D01*
X85370169Y-75981651D01*
X85370268Y-75867639D01*
X85134792Y-75297743D01*
X84699151Y-74861340D01*
X84129667Y-74624870D01*
X83513039Y-74624332D01*
X83453354Y-74648993D01*
X83552958Y-74549389D01*
X84101561Y-74549868D01*
X84671457Y-74314392D01*
X85090931Y-73895651D01*
X85172208Y-74092357D01*
X85607849Y-74528760D01*
X86177333Y-74765230D01*
X86793961Y-74765768D01*
X87363857Y-74530292D01*
X87447990Y-74446305D01*
X88321881Y-74446305D01*
X88406983Y-74694346D01*
X89017064Y-74803739D01*
X89567017Y-74694346D01*
X89652119Y-74446305D01*
X88987000Y-73781185D01*
X88321881Y-74446305D01*
X87447990Y-74446305D01*
X87800260Y-74094651D01*
X87983532Y-73653282D01*
X88421315Y-73215500D01*
X89552685Y-73215500D01*
X90217805Y-73880619D01*
X90465846Y-73795517D01*
X90575239Y-73185436D01*
X90465846Y-72635483D01*
X90217805Y-72550381D01*
X89552685Y-73215500D01*
X88421315Y-73215500D01*
X87982990Y-72777175D01*
X87801792Y-72338643D01*
X87448463Y-71984695D01*
X88321881Y-71984695D01*
X88987000Y-72649815D01*
X89652119Y-71984695D01*
X89567017Y-71736654D01*
X88956936Y-71627261D01*
X88406983Y-71736654D01*
X88321881Y-71984695D01*
X87448463Y-71984695D01*
X87366151Y-71902240D01*
X86796667Y-71665770D01*
X86180039Y-71665232D01*
X85610143Y-71900708D01*
X85190669Y-72319449D01*
X85109392Y-72122743D01*
X84673751Y-71686340D01*
X84104267Y-71449870D01*
X83487639Y-71449332D01*
X82917743Y-71684808D01*
X82481340Y-72120449D01*
X82244870Y-72689933D01*
X82244389Y-73241664D01*
X81489526Y-73996526D01*
X81289011Y-74296617D01*
X81243862Y-74523600D01*
X81218600Y-74650600D01*
X81218600Y-79911741D01*
X81169982Y-80028826D01*
X81169618Y-80446542D01*
X81329134Y-80832600D01*
X81624246Y-81128228D01*
X82010026Y-81288418D01*
X82427742Y-81288782D01*
X82813800Y-81129266D01*
X83109428Y-80834154D01*
X83153459Y-80728115D01*
X83688133Y-80950130D01*
X84304761Y-80950668D01*
X84874657Y-80715192D01*
X85311060Y-80279551D01*
X85373319Y-80129614D01*
X85401604Y-80279933D01*
X85565862Y-80535198D01*
X85816492Y-80706446D01*
X86114000Y-80766693D01*
X86357425Y-80766693D01*
X86340178Y-80816640D01*
X86343995Y-80879964D01*
X86331620Y-80942180D01*
X86331620Y-82207492D01*
X85047049Y-83492063D01*
X85082866Y-83312000D01*
X84964879Y-82718841D01*
X84628882Y-82215984D01*
X84126025Y-81879987D01*
X83532866Y-81762000D01*
X83472134Y-81762000D01*
X82878975Y-81879987D01*
X82599885Y-82066468D01*
X82594792Y-82054143D01*
X82159151Y-81617740D01*
X81589667Y-81381270D01*
X80973039Y-81380732D01*
X80403143Y-81616208D01*
X79966740Y-82051849D01*
X79783468Y-82493218D01*
X79345685Y-82931000D01*
X79784010Y-83369325D01*
X79965208Y-83807857D01*
X80400849Y-84244260D01*
X80515843Y-84292009D01*
X80117926Y-84689926D01*
X79917411Y-84990017D01*
X79897696Y-85089132D01*
X79895672Y-85099309D01*
X79565500Y-85033634D01*
X78972341Y-85151621D01*
X78583500Y-85411435D01*
X78583500Y-85363998D01*
X77917561Y-85363998D01*
X77656131Y-85189335D01*
X77425500Y-85305263D01*
X77425500Y-86214000D01*
X77825500Y-86214000D01*
X77825500Y-87014000D01*
X77425500Y-87014000D01*
X77425500Y-87922737D01*
X77656131Y-88038665D01*
X77917561Y-87864002D01*
X78583500Y-87864002D01*
X78583500Y-87816565D01*
X78972341Y-88076379D01*
X79565500Y-88194366D01*
X79847000Y-88138372D01*
X79847000Y-90373200D01*
X79917411Y-90727183D01*
X80117926Y-91027274D01*
X80776869Y-91686216D01*
X80744983Y-91664911D01*
X80391000Y-91594500D01*
X79440648Y-91594500D01*
X75710150Y-87864002D01*
X76133439Y-87864002D01*
X76394869Y-88038665D01*
X76625500Y-87922737D01*
X76625500Y-87014000D01*
X76225500Y-87014000D01*
X76225500Y-86214000D01*
X76625500Y-86214000D01*
X76625500Y-85305263D01*
X76394869Y-85189335D01*
X76133439Y-85363998D01*
X75474000Y-85363998D01*
X75474000Y-84161805D01*
X78114881Y-84161805D01*
X78199983Y-84409846D01*
X78810064Y-84519239D01*
X79360017Y-84409846D01*
X79445119Y-84161805D01*
X78780000Y-83496685D01*
X78114881Y-84161805D01*
X75474000Y-84161805D01*
X75474000Y-82961064D01*
X77191761Y-82961064D01*
X77301154Y-83511017D01*
X77549195Y-83596119D01*
X78214315Y-82931000D01*
X77549195Y-82265881D01*
X77301154Y-82350983D01*
X77191761Y-82961064D01*
X75474000Y-82961064D01*
X75474000Y-81700195D01*
X78114881Y-81700195D01*
X78780000Y-82365315D01*
X79445119Y-81700195D01*
X79360017Y-81452154D01*
X78749936Y-81342761D01*
X78199983Y-81452154D01*
X78114881Y-81700195D01*
X75474000Y-81700195D01*
X75474000Y-80645140D01*
X75754275Y-80832413D01*
X76347434Y-80950400D01*
X76408166Y-80950400D01*
X77001325Y-80832413D01*
X77504182Y-80496416D01*
X77840179Y-79993559D01*
X77958166Y-79400400D01*
X77840179Y-78807241D01*
X77504182Y-78304384D01*
X77001325Y-77968387D01*
X76408166Y-77850400D01*
X76347434Y-77850400D01*
X75754275Y-77968387D01*
X75474000Y-78155660D01*
X75474000Y-77538142D01*
X75576475Y-77606613D01*
X76169634Y-77724600D01*
X76230366Y-77724600D01*
X76823525Y-77606613D01*
X77326382Y-77270616D01*
X77662379Y-76767759D01*
X77780366Y-76174600D01*
X77662379Y-75581441D01*
X77326382Y-75078584D01*
X76823525Y-74742587D01*
X76230366Y-74624600D01*
X76169634Y-74624600D01*
X75576475Y-74742587D01*
X75474000Y-74811058D01*
X75474000Y-74380113D01*
X75551075Y-74431613D01*
X76144234Y-74549600D01*
X76204966Y-74549600D01*
X76798125Y-74431613D01*
X77300982Y-74095616D01*
X77636979Y-73592759D01*
X77754966Y-72999600D01*
X77636979Y-72406441D01*
X77300982Y-71903584D01*
X76798125Y-71567587D01*
X76204966Y-71449600D01*
X76144234Y-71449600D01*
X75551075Y-71567587D01*
X75474000Y-71619087D01*
X75474000Y-71197267D01*
X75620165Y-71300094D01*
X75850800Y-71191707D01*
X75850800Y-70275400D01*
X76650800Y-70275400D01*
X76650800Y-71191707D01*
X76881435Y-71300094D01*
X77378638Y-70950312D01*
X77675465Y-70506031D01*
X77559537Y-70275400D01*
X76650800Y-70275400D01*
X75850800Y-70275400D01*
X75474000Y-70275400D01*
X75474000Y-69475400D01*
X75850800Y-69475400D01*
X75850800Y-68559093D01*
X76650800Y-68559093D01*
X76650800Y-69475400D01*
X77559537Y-69475400D01*
X77675465Y-69244769D01*
X77378638Y-68800488D01*
X76881435Y-68450706D01*
X76650800Y-68559093D01*
X75850800Y-68559093D01*
X75620165Y-68450706D01*
X75438884Y-68578237D01*
X75256900Y-68305880D01*
X75256900Y-68246805D01*
X77439881Y-68246805D01*
X77524983Y-68494846D01*
X78135064Y-68604239D01*
X78685017Y-68494846D01*
X78770119Y-68246805D01*
X78105000Y-67581685D01*
X77439881Y-68246805D01*
X75256900Y-68246805D01*
X75256900Y-67764042D01*
X75503379Y-67395159D01*
X75572818Y-67046064D01*
X76516761Y-67046064D01*
X76626154Y-67596017D01*
X76874195Y-67681119D01*
X77539315Y-67016000D01*
X78670685Y-67016000D01*
X79335805Y-67681119D01*
X79583846Y-67596017D01*
X79693239Y-66985936D01*
X79649443Y-66765756D01*
X80852400Y-66765756D01*
X80852400Y-66838244D01*
X80993223Y-67546208D01*
X81394252Y-68146392D01*
X81994436Y-68547421D01*
X82702400Y-68688244D01*
X82906816Y-68647583D01*
X82557540Y-68996249D01*
X82321070Y-69565733D01*
X82320532Y-70182361D01*
X82556008Y-70752257D01*
X82991649Y-71188660D01*
X83561133Y-71425130D01*
X84177761Y-71425668D01*
X84747657Y-71190192D01*
X85184060Y-70754551D01*
X85420530Y-70185067D01*
X85421068Y-69568439D01*
X85185592Y-68998543D01*
X85153044Y-68965938D01*
X85591076Y-69258621D01*
X86299040Y-69399444D01*
X87007004Y-69258621D01*
X87607188Y-68857592D01*
X88008217Y-68257408D01*
X88127840Y-67656023D01*
X88247463Y-68257408D01*
X88648492Y-68857592D01*
X89248676Y-69258621D01*
X89956640Y-69399444D01*
X90664604Y-69258621D01*
X91264788Y-68857592D01*
X91472962Y-68546036D01*
X91732052Y-68933792D01*
X92332236Y-69334821D01*
X93040200Y-69475644D01*
X93748164Y-69334821D01*
X94348348Y-68933792D01*
X94749377Y-68333608D01*
X94890200Y-67625644D01*
X94890200Y-67553156D01*
X94749377Y-66845192D01*
X94348348Y-66245008D01*
X93748164Y-65843979D01*
X93197475Y-65734440D01*
X95089376Y-65734440D01*
X95281240Y-65926640D01*
X95281240Y-69077149D01*
X95216182Y-69233826D01*
X95215818Y-69651542D01*
X95375334Y-70037600D01*
X95670446Y-70333228D01*
X96056226Y-70493418D01*
X96473942Y-70493782D01*
X96860000Y-70334266D01*
X97155628Y-70039154D01*
X97315818Y-69653374D01*
X97316182Y-69235658D01*
X97281240Y-69151092D01*
X97281240Y-67048224D01*
X103753600Y-67048224D01*
X103753600Y-67509500D01*
X103943100Y-67699000D01*
X105011600Y-67699000D01*
X105011600Y-66630500D01*
X104822100Y-66441000D01*
X104360825Y-66441000D01*
X104082228Y-66556398D01*
X103868999Y-66769627D01*
X103753600Y-67048224D01*
X97281240Y-67048224D01*
X97281240Y-65926304D01*
X97594500Y-65613591D01*
X97830970Y-65044107D01*
X97831508Y-64427479D01*
X97596032Y-63857583D01*
X97160391Y-63421180D01*
X96590907Y-63184710D01*
X95974279Y-63184172D01*
X95404383Y-63419648D01*
X95089040Y-63734440D01*
X83657440Y-63734440D01*
X83274756Y-63810560D01*
X82950333Y-64027333D01*
X82010533Y-64967133D01*
X81915545Y-65109292D01*
X81394252Y-65457608D01*
X80993223Y-66057792D01*
X80852400Y-66765756D01*
X79649443Y-66765756D01*
X79583846Y-66435983D01*
X79335805Y-66350881D01*
X78670685Y-67016000D01*
X77539315Y-67016000D01*
X76874195Y-66350881D01*
X76626154Y-66435983D01*
X76516761Y-67046064D01*
X75572818Y-67046064D01*
X75621366Y-66802000D01*
X75503379Y-66208841D01*
X75180000Y-65724868D01*
X75180000Y-64680328D01*
X75227260Y-64633151D01*
X75463730Y-64063667D01*
X75464268Y-63447039D01*
X75228792Y-62877143D01*
X75180000Y-62828266D01*
X75180000Y-61334992D01*
X75227081Y-61287993D01*
X75417783Y-60828731D01*
X75418006Y-60573693D01*
X75938000Y-60573693D01*
X76215933Y-60521396D01*
X76471198Y-60357138D01*
X76642446Y-60106508D01*
X76702693Y-59809000D01*
X76702693Y-58924000D01*
X80837707Y-58924000D01*
X80837707Y-60282000D01*
X80837707Y-60282000D01*
G37*
X80837707Y-60282000D02*
X80890004Y-60559933D01*
X81054262Y-60815198D01*
X81304892Y-60986446D01*
X81602400Y-61046693D01*
X81777400Y-61046693D01*
X81777400Y-62227853D01*
X79920011Y-64085242D01*
X79650183Y-64196732D01*
X79419792Y-63639143D01*
X78984151Y-63202740D01*
X78414667Y-62966270D01*
X77798039Y-62965732D01*
X77228143Y-63201208D01*
X76791740Y-63636849D01*
X76555270Y-64206333D01*
X76554732Y-64822961D01*
X76790208Y-65392857D01*
X77225849Y-65829260D01*
X77667218Y-66012532D01*
X78105000Y-66450315D01*
X78543325Y-66011990D01*
X78981857Y-65830792D01*
X79263007Y-65550133D01*
X79322534Y-65694200D01*
X79617646Y-65989828D01*
X80003426Y-66150018D01*
X80421142Y-66150382D01*
X80807200Y-65990866D01*
X81102828Y-65695754D01*
X81228539Y-65393009D01*
X83356471Y-63265076D01*
X83356474Y-63265074D01*
X83556989Y-62964982D01*
X83627400Y-62611000D01*
X83627400Y-61046693D01*
X83802400Y-61046693D01*
X84080333Y-60994396D01*
X84237597Y-60893200D01*
X84434347Y-60893200D01*
X84434347Y-60993200D01*
X84486644Y-61271133D01*
X84650902Y-61526398D01*
X84901532Y-61697646D01*
X85199040Y-61757893D01*
X87399040Y-61757893D01*
X87676973Y-61705596D01*
X87932238Y-61541338D01*
X88103486Y-61290708D01*
X88126522Y-61176951D01*
X88144244Y-61271133D01*
X88308502Y-61526398D01*
X88559132Y-61697646D01*
X88856640Y-61757893D01*
X91056640Y-61757893D01*
X91334573Y-61705596D01*
X91441811Y-61636590D01*
X91642692Y-61773846D01*
X91940200Y-61834093D01*
X94140200Y-61834093D01*
X94418133Y-61781796D01*
X94673398Y-61617538D01*
X94844646Y-61366908D01*
X94904893Y-61069400D01*
X94904893Y-60893200D01*
X95247859Y-60893200D01*
X95402089Y-61047700D01*
X95971573Y-61284170D01*
X96588201Y-61284708D01*
X97158097Y-61049232D01*
X97594500Y-60613591D01*
X97830970Y-60044107D01*
X97831508Y-59427479D01*
X97623475Y-58924000D01*
X100147582Y-58924000D01*
X100478584Y-59419382D01*
X100842000Y-59662208D01*
X100842000Y-60198000D01*
X100861696Y-60295264D01*
X100917682Y-60377202D01*
X101001136Y-60430903D01*
X101092000Y-60448000D01*
X107025000Y-60448000D01*
X107025000Y-62279080D01*
X106996043Y-62208999D01*
X106504190Y-61716287D01*
X105861224Y-61449304D01*
X105165031Y-61448696D01*
X104521599Y-61714557D01*
X104028887Y-62206410D01*
X103761904Y-62849376D01*
X103761296Y-63545569D01*
X104027157Y-64189001D01*
X104519010Y-64681713D01*
X105161976Y-64948696D01*
X105858169Y-64949304D01*
X106501601Y-64683443D01*
X106994313Y-64191590D01*
X107025000Y-64117688D01*
X107025000Y-66640426D01*
X106940972Y-66556398D01*
X106662375Y-66441000D01*
X106201100Y-66441000D01*
X106011600Y-66630500D01*
X106011600Y-67699000D01*
X106511600Y-67699000D01*
X106511600Y-68699000D01*
X106011600Y-68699000D01*
X106011600Y-69199000D01*
X105011600Y-69199000D01*
X105011600Y-68699000D01*
X103943100Y-68699000D01*
X103753600Y-68888500D01*
X103753600Y-69349776D01*
X103868999Y-69628373D01*
X104082228Y-69841602D01*
X104261598Y-69915899D01*
X104261598Y-69941000D01*
X102895400Y-69941000D01*
X102541417Y-70011411D01*
X102241326Y-70211926D01*
X94773726Y-77679526D01*
X94573211Y-77979617D01*
X94533436Y-78179583D01*
X94502800Y-78333600D01*
X94502800Y-78621451D01*
X94010366Y-78523500D01*
X93949634Y-78523500D01*
X93356475Y-78641487D01*
X92853618Y-78977484D01*
X92804360Y-79051203D01*
X92675634Y-78922252D01*
X92289854Y-78762062D01*
X91872138Y-78761698D01*
X91748337Y-78812852D01*
X91312702Y-78816613D01*
X89525165Y-76835000D01*
X90875634Y-76835000D01*
X90993621Y-77428159D01*
X91329618Y-77931016D01*
X91832475Y-78267013D01*
X92425634Y-78385000D01*
X92486366Y-78385000D01*
X93079525Y-78267013D01*
X93582382Y-77931016D01*
X93918379Y-77428159D01*
X94036366Y-76835000D01*
X93918379Y-76241841D01*
X93582382Y-75738984D01*
X93079525Y-75402987D01*
X92486366Y-75285000D01*
X92425634Y-75285000D01*
X91832475Y-75402987D01*
X91329618Y-75738984D01*
X90993621Y-76241841D01*
X90875634Y-76835000D01*
X89525165Y-76835000D01*
X88924425Y-76169038D01*
X88906543Y-76155710D01*
X88894222Y-76137113D01*
X88762434Y-76048304D01*
X88635042Y-75953357D01*
X88613420Y-75947887D01*
X88594920Y-75935420D01*
X88439193Y-75903808D01*
X88285149Y-75864835D01*
X88263075Y-75868056D01*
X88241217Y-75863619D01*
X85825154Y-75854127D01*
X85742425Y-75870245D01*
X85658157Y-75868660D01*
X85567008Y-75904422D01*
X85470898Y-75923147D01*
X85400634Y-75969698D01*
X85370169Y-75981651D01*
X85370268Y-75867639D01*
X85134792Y-75297743D01*
X84699151Y-74861340D01*
X84129667Y-74624870D01*
X83513039Y-74624332D01*
X83453354Y-74648993D01*
X83552958Y-74549389D01*
X84101561Y-74549868D01*
X84671457Y-74314392D01*
X85090931Y-73895651D01*
X85172208Y-74092357D01*
X85607849Y-74528760D01*
X86177333Y-74765230D01*
X86793961Y-74765768D01*
X87363857Y-74530292D01*
X87447990Y-74446305D01*
X88321881Y-74446305D01*
X88406983Y-74694346D01*
X89017064Y-74803739D01*
X89567017Y-74694346D01*
X89652119Y-74446305D01*
X88987000Y-73781185D01*
X88321881Y-74446305D01*
X87447990Y-74446305D01*
X87800260Y-74094651D01*
X87983532Y-73653282D01*
X88421315Y-73215500D01*
X89552685Y-73215500D01*
X90217805Y-73880619D01*
X90465846Y-73795517D01*
X90575239Y-73185436D01*
X90465846Y-72635483D01*
X90217805Y-72550381D01*
X89552685Y-73215500D01*
X88421315Y-73215500D01*
X87982990Y-72777175D01*
X87801792Y-72338643D01*
X87448463Y-71984695D01*
X88321881Y-71984695D01*
X88987000Y-72649815D01*
X89652119Y-71984695D01*
X89567017Y-71736654D01*
X88956936Y-71627261D01*
X88406983Y-71736654D01*
X88321881Y-71984695D01*
X87448463Y-71984695D01*
X87366151Y-71902240D01*
X86796667Y-71665770D01*
X86180039Y-71665232D01*
X85610143Y-71900708D01*
X85190669Y-72319449D01*
X85109392Y-72122743D01*
X84673751Y-71686340D01*
X84104267Y-71449870D01*
X83487639Y-71449332D01*
X82917743Y-71684808D01*
X82481340Y-72120449D01*
X82244870Y-72689933D01*
X82244389Y-73241664D01*
X81489526Y-73996526D01*
X81289011Y-74296617D01*
X81243862Y-74523600D01*
X81218600Y-74650600D01*
X81218600Y-79911741D01*
X81169982Y-80028826D01*
X81169618Y-80446542D01*
X81329134Y-80832600D01*
X81624246Y-81128228D01*
X82010026Y-81288418D01*
X82427742Y-81288782D01*
X82813800Y-81129266D01*
X83109428Y-80834154D01*
X83153459Y-80728115D01*
X83688133Y-80950130D01*
X84304761Y-80950668D01*
X84874657Y-80715192D01*
X85311060Y-80279551D01*
X85373319Y-80129614D01*
X85401604Y-80279933D01*
X85565862Y-80535198D01*
X85816492Y-80706446D01*
X86114000Y-80766693D01*
X86357425Y-80766693D01*
X86340178Y-80816640D01*
X86343995Y-80879964D01*
X86331620Y-80942180D01*
X86331620Y-82207492D01*
X85047049Y-83492063D01*
X85082866Y-83312000D01*
X84964879Y-82718841D01*
X84628882Y-82215984D01*
X84126025Y-81879987D01*
X83532866Y-81762000D01*
X83472134Y-81762000D01*
X82878975Y-81879987D01*
X82599885Y-82066468D01*
X82594792Y-82054143D01*
X82159151Y-81617740D01*
X81589667Y-81381270D01*
X80973039Y-81380732D01*
X80403143Y-81616208D01*
X79966740Y-82051849D01*
X79783468Y-82493218D01*
X79345685Y-82931000D01*
X79784010Y-83369325D01*
X79965208Y-83807857D01*
X80400849Y-84244260D01*
X80515843Y-84292009D01*
X80117926Y-84689926D01*
X79917411Y-84990017D01*
X79897696Y-85089132D01*
X79895672Y-85099309D01*
X79565500Y-85033634D01*
X78972341Y-85151621D01*
X78583500Y-85411435D01*
X78583500Y-85363998D01*
X77917561Y-85363998D01*
X77656131Y-85189335D01*
X77425500Y-85305263D01*
X77425500Y-86214000D01*
X77825500Y-86214000D01*
X77825500Y-87014000D01*
X77425500Y-87014000D01*
X77425500Y-87922737D01*
X77656131Y-88038665D01*
X77917561Y-87864002D01*
X78583500Y-87864002D01*
X78583500Y-87816565D01*
X78972341Y-88076379D01*
X79565500Y-88194366D01*
X79847000Y-88138372D01*
X79847000Y-90373200D01*
X79917411Y-90727183D01*
X80117926Y-91027274D01*
X80776869Y-91686216D01*
X80744983Y-91664911D01*
X80391000Y-91594500D01*
X79440648Y-91594500D01*
X75710150Y-87864002D01*
X76133439Y-87864002D01*
X76394869Y-88038665D01*
X76625500Y-87922737D01*
X76625500Y-87014000D01*
X76225500Y-87014000D01*
X76225500Y-86214000D01*
X76625500Y-86214000D01*
X76625500Y-85305263D01*
X76394869Y-85189335D01*
X76133439Y-85363998D01*
X75474000Y-85363998D01*
X75474000Y-84161805D01*
X78114881Y-84161805D01*
X78199983Y-84409846D01*
X78810064Y-84519239D01*
X79360017Y-84409846D01*
X79445119Y-84161805D01*
X78780000Y-83496685D01*
X78114881Y-84161805D01*
X75474000Y-84161805D01*
X75474000Y-82961064D01*
X77191761Y-82961064D01*
X77301154Y-83511017D01*
X77549195Y-83596119D01*
X78214315Y-82931000D01*
X77549195Y-82265881D01*
X77301154Y-82350983D01*
X77191761Y-82961064D01*
X75474000Y-82961064D01*
X75474000Y-81700195D01*
X78114881Y-81700195D01*
X78780000Y-82365315D01*
X79445119Y-81700195D01*
X79360017Y-81452154D01*
X78749936Y-81342761D01*
X78199983Y-81452154D01*
X78114881Y-81700195D01*
X75474000Y-81700195D01*
X75474000Y-80645140D01*
X75754275Y-80832413D01*
X76347434Y-80950400D01*
X76408166Y-80950400D01*
X77001325Y-80832413D01*
X77504182Y-80496416D01*
X77840179Y-79993559D01*
X77958166Y-79400400D01*
X77840179Y-78807241D01*
X77504182Y-78304384D01*
X77001325Y-77968387D01*
X76408166Y-77850400D01*
X76347434Y-77850400D01*
X75754275Y-77968387D01*
X75474000Y-78155660D01*
X75474000Y-77538142D01*
X75576475Y-77606613D01*
X76169634Y-77724600D01*
X76230366Y-77724600D01*
X76823525Y-77606613D01*
X77326382Y-77270616D01*
X77662379Y-76767759D01*
X77780366Y-76174600D01*
X77662379Y-75581441D01*
X77326382Y-75078584D01*
X76823525Y-74742587D01*
X76230366Y-74624600D01*
X76169634Y-74624600D01*
X75576475Y-74742587D01*
X75474000Y-74811058D01*
X75474000Y-74380113D01*
X75551075Y-74431613D01*
X76144234Y-74549600D01*
X76204966Y-74549600D01*
X76798125Y-74431613D01*
X77300982Y-74095616D01*
X77636979Y-73592759D01*
X77754966Y-72999600D01*
X77636979Y-72406441D01*
X77300982Y-71903584D01*
X76798125Y-71567587D01*
X76204966Y-71449600D01*
X76144234Y-71449600D01*
X75551075Y-71567587D01*
X75474000Y-71619087D01*
X75474000Y-71197267D01*
X75620165Y-71300094D01*
X75850800Y-71191707D01*
X75850800Y-70275400D01*
X76650800Y-70275400D01*
X76650800Y-71191707D01*
X76881435Y-71300094D01*
X77378638Y-70950312D01*
X77675465Y-70506031D01*
X77559537Y-70275400D01*
X76650800Y-70275400D01*
X75850800Y-70275400D01*
X75474000Y-70275400D01*
X75474000Y-69475400D01*
X75850800Y-69475400D01*
X75850800Y-68559093D01*
X76650800Y-68559093D01*
X76650800Y-69475400D01*
X77559537Y-69475400D01*
X77675465Y-69244769D01*
X77378638Y-68800488D01*
X76881435Y-68450706D01*
X76650800Y-68559093D01*
X75850800Y-68559093D01*
X75620165Y-68450706D01*
X75438884Y-68578237D01*
X75256900Y-68305880D01*
X75256900Y-68246805D01*
X77439881Y-68246805D01*
X77524983Y-68494846D01*
X78135064Y-68604239D01*
X78685017Y-68494846D01*
X78770119Y-68246805D01*
X78105000Y-67581685D01*
X77439881Y-68246805D01*
X75256900Y-68246805D01*
X75256900Y-67764042D01*
X75503379Y-67395159D01*
X75572818Y-67046064D01*
X76516761Y-67046064D01*
X76626154Y-67596017D01*
X76874195Y-67681119D01*
X77539315Y-67016000D01*
X78670685Y-67016000D01*
X79335805Y-67681119D01*
X79583846Y-67596017D01*
X79693239Y-66985936D01*
X79649443Y-66765756D01*
X80852400Y-66765756D01*
X80852400Y-66838244D01*
X80993223Y-67546208D01*
X81394252Y-68146392D01*
X81994436Y-68547421D01*
X82702400Y-68688244D01*
X82906816Y-68647583D01*
X82557540Y-68996249D01*
X82321070Y-69565733D01*
X82320532Y-70182361D01*
X82556008Y-70752257D01*
X82991649Y-71188660D01*
X83561133Y-71425130D01*
X84177761Y-71425668D01*
X84747657Y-71190192D01*
X85184060Y-70754551D01*
X85420530Y-70185067D01*
X85421068Y-69568439D01*
X85185592Y-68998543D01*
X85153044Y-68965938D01*
X85591076Y-69258621D01*
X86299040Y-69399444D01*
X87007004Y-69258621D01*
X87607188Y-68857592D01*
X88008217Y-68257408D01*
X88127840Y-67656023D01*
X88247463Y-68257408D01*
X88648492Y-68857592D01*
X89248676Y-69258621D01*
X89956640Y-69399444D01*
X90664604Y-69258621D01*
X91264788Y-68857592D01*
X91472962Y-68546036D01*
X91732052Y-68933792D01*
X92332236Y-69334821D01*
X93040200Y-69475644D01*
X93748164Y-69334821D01*
X94348348Y-68933792D01*
X94749377Y-68333608D01*
X94890200Y-67625644D01*
X94890200Y-67553156D01*
X94749377Y-66845192D01*
X94348348Y-66245008D01*
X93748164Y-65843979D01*
X93197475Y-65734440D01*
X95089376Y-65734440D01*
X95281240Y-65926640D01*
X95281240Y-69077149D01*
X95216182Y-69233826D01*
X95215818Y-69651542D01*
X95375334Y-70037600D01*
X95670446Y-70333228D01*
X96056226Y-70493418D01*
X96473942Y-70493782D01*
X96860000Y-70334266D01*
X97155628Y-70039154D01*
X97315818Y-69653374D01*
X97316182Y-69235658D01*
X97281240Y-69151092D01*
X97281240Y-67048224D01*
X103753600Y-67048224D01*
X103753600Y-67509500D01*
X103943100Y-67699000D01*
X105011600Y-67699000D01*
X105011600Y-66630500D01*
X104822100Y-66441000D01*
X104360825Y-66441000D01*
X104082228Y-66556398D01*
X103868999Y-66769627D01*
X103753600Y-67048224D01*
X97281240Y-67048224D01*
X97281240Y-65926304D01*
X97594500Y-65613591D01*
X97830970Y-65044107D01*
X97831508Y-64427479D01*
X97596032Y-63857583D01*
X97160391Y-63421180D01*
X96590907Y-63184710D01*
X95974279Y-63184172D01*
X95404383Y-63419648D01*
X95089040Y-63734440D01*
X83657440Y-63734440D01*
X83274756Y-63810560D01*
X82950333Y-64027333D01*
X82010533Y-64967133D01*
X81915545Y-65109292D01*
X81394252Y-65457608D01*
X80993223Y-66057792D01*
X80852400Y-66765756D01*
X79649443Y-66765756D01*
X79583846Y-66435983D01*
X79335805Y-66350881D01*
X78670685Y-67016000D01*
X77539315Y-67016000D01*
X76874195Y-66350881D01*
X76626154Y-66435983D01*
X76516761Y-67046064D01*
X75572818Y-67046064D01*
X75621366Y-66802000D01*
X75503379Y-66208841D01*
X75180000Y-65724868D01*
X75180000Y-64680328D01*
X75227260Y-64633151D01*
X75463730Y-64063667D01*
X75464268Y-63447039D01*
X75228792Y-62877143D01*
X75180000Y-62828266D01*
X75180000Y-61334992D01*
X75227081Y-61287993D01*
X75417783Y-60828731D01*
X75418006Y-60573693D01*
X75938000Y-60573693D01*
X76215933Y-60521396D01*
X76471198Y-60357138D01*
X76642446Y-60106508D01*
X76702693Y-59809000D01*
X76702693Y-58924000D01*
X80837707Y-58924000D01*
X80837707Y-60282000D01*
M02*
