G04 #@! TF.FileFunction,Copper,L1,Top,Signal*
%FSLAX46Y46*%
G04 Gerber Fmt 4.6, Leading zero omitted, Abs format (unit mm)*
G04 Created by KiCad (PCBNEW 4.0.7) date 04/08/19 00:35:26*
%MOMM*%
%LPD*%
G01*
G04 APERTURE LIST*
%ADD10C,0.100000*%
%ADD11R,1.800000X1.800000*%
%ADD12C,1.800000*%
%ADD13C,1.600000*%
%ADD14C,5.000000*%
%ADD15R,1.700000X1.700000*%
%ADD16O,1.700000X1.700000*%
%ADD17R,3.000000X3.000000*%
%ADD18C,3.000000*%
%ADD19O,1.600000X1.600000*%
%ADD20C,0.350000*%
%ADD21C,1.000000*%
%ADD22C,0.500000*%
G04 APERTURE END LIST*
D10*
D11*
X110109000Y-66103500D03*
D12*
X110109000Y-68643500D03*
D13*
X52197000Y-57404000D03*
X52197000Y-62404000D03*
X57404000Y-146558000D03*
X62404000Y-146558000D03*
X142240000Y-52832000D03*
X137240000Y-52832000D03*
X142240000Y-146812000D03*
X137240000Y-146812000D03*
D14*
X53000000Y-53000000D03*
X53000000Y-147000000D03*
X147000000Y-53000000D03*
X147000000Y-147000000D03*
D15*
X142296800Y-84082400D03*
D16*
X144836800Y-84082400D03*
X142296800Y-86622400D03*
X144836800Y-86622400D03*
X142296800Y-89162400D03*
X144836800Y-89162400D03*
X142296800Y-91702400D03*
X144836800Y-91702400D03*
X142296800Y-94242400D03*
X144836800Y-94242400D03*
X142296800Y-96782400D03*
X144836800Y-96782400D03*
X142296800Y-99322400D03*
X144836800Y-99322400D03*
X142296800Y-101862400D03*
X144836800Y-101862400D03*
X142296800Y-104402400D03*
X144836800Y-104402400D03*
X142296800Y-106942400D03*
X144836800Y-106942400D03*
X142296800Y-109482400D03*
X144836800Y-109482400D03*
X142296800Y-112022400D03*
X144836800Y-112022400D03*
X142296800Y-114562400D03*
X144836800Y-114562400D03*
X142296800Y-117102400D03*
X144836800Y-117102400D03*
X142296800Y-119642400D03*
X144836800Y-119642400D03*
X142296800Y-122182400D03*
X144836800Y-122182400D03*
D13*
X133908800Y-84226400D03*
X136408800Y-84226400D03*
X133908800Y-86766400D03*
X136408800Y-86766400D03*
X133908800Y-89306400D03*
X136408800Y-89306400D03*
X133908800Y-91846400D03*
X136408800Y-91846400D03*
X133908800Y-94386400D03*
X136408800Y-94386400D03*
X133908800Y-96926400D03*
X136408800Y-96926400D03*
X133908800Y-99466400D03*
X136408800Y-99466400D03*
X133908800Y-102006400D03*
X136408800Y-102006400D03*
X133908800Y-104546400D03*
X136408800Y-104546400D03*
X133908800Y-107086400D03*
X136408800Y-107086400D03*
X133908800Y-109626400D03*
X136408800Y-109626400D03*
X133908800Y-112166400D03*
X136408800Y-112166400D03*
X133908800Y-114706400D03*
X136408800Y-114706400D03*
X133908800Y-117246400D03*
X136408800Y-117246400D03*
X133908800Y-119786400D03*
X136408800Y-119786400D03*
X133908800Y-122326400D03*
X136408800Y-122326400D03*
X137668000Y-60706000D03*
X137668000Y-63206000D03*
D11*
X138430000Y-65722500D03*
D12*
X138430000Y-68262500D03*
D17*
X133350000Y-55372000D03*
D18*
X128270000Y-55372000D03*
D13*
X131318000Y-68326000D03*
D19*
X131318000Y-60706000D03*
D13*
X128270000Y-68326000D03*
D19*
X128270000Y-60706000D03*
D13*
X134620000Y-68326000D03*
D19*
X134620000Y-60706000D03*
D13*
X123444000Y-60960000D03*
X123444000Y-63460000D03*
X109474000Y-60960000D03*
X109474000Y-63460000D03*
X95440500Y-61150500D03*
X95440500Y-63650500D03*
D11*
X124333000Y-65913000D03*
D12*
X124333000Y-68453000D03*
D11*
X96139000Y-66484500D03*
D12*
X96139000Y-69024500D03*
D17*
X119634000Y-55372000D03*
D18*
X114554000Y-55372000D03*
D17*
X106426000Y-55372000D03*
D18*
X101346000Y-55372000D03*
D17*
X91948000Y-55372000D03*
D18*
X86868000Y-55372000D03*
D13*
X116840000Y-68326000D03*
D19*
X116840000Y-60706000D03*
D13*
X113792000Y-68326000D03*
D19*
X113792000Y-60706000D03*
D13*
X103124000Y-68326000D03*
D19*
X103124000Y-60706000D03*
D13*
X100076000Y-68326000D03*
D19*
X100076000Y-60706000D03*
D13*
X89154000Y-68326000D03*
D19*
X89154000Y-60706000D03*
D13*
X86106000Y-68326000D03*
D19*
X86106000Y-60706000D03*
D13*
X120142000Y-68326000D03*
D19*
X120142000Y-60706000D03*
D13*
X106172000Y-68326000D03*
D19*
X106172000Y-60706000D03*
D13*
X92202000Y-68326000D03*
D19*
X92202000Y-60706000D03*
D13*
X81724500Y-61214000D03*
X81724500Y-63714000D03*
X67500500Y-61214000D03*
X67500500Y-63714000D03*
D11*
X82423000Y-66611500D03*
D12*
X82423000Y-69151500D03*
D11*
X68097400Y-66497200D03*
D12*
X68097400Y-69037200D03*
D17*
X78295500Y-55372000D03*
D18*
X73215500Y-55372000D03*
D17*
X64198500Y-55372000D03*
D18*
X59118500Y-55372000D03*
D13*
X75311000Y-68262500D03*
D19*
X75311000Y-60642500D03*
D13*
X72199500Y-68389500D03*
D19*
X72199500Y-60769500D03*
D13*
X60833000Y-68326000D03*
D19*
X60833000Y-60706000D03*
D13*
X57785000Y-68326000D03*
D19*
X57785000Y-60706000D03*
D13*
X78486000Y-68389500D03*
D19*
X78486000Y-60769500D03*
D13*
X64198500Y-68326000D03*
D19*
X64198500Y-60706000D03*
D13*
X54752240Y-65532000D03*
X54752240Y-68032000D03*
X61478160Y-81986120D03*
X63978160Y-81986120D03*
X61244480Y-94381320D03*
X63744480Y-94381320D03*
X61620400Y-106791760D03*
X64120400Y-106791760D03*
D11*
X71135240Y-73649840D03*
D12*
X73675240Y-73649840D03*
D11*
X71470520Y-85608160D03*
D12*
X74010520Y-85608160D03*
D11*
X71008240Y-98186240D03*
D12*
X73548240Y-98186240D03*
D11*
X71348600Y-110911640D03*
D12*
X73888600Y-110911640D03*
D17*
X55473600Y-72466200D03*
D18*
X55473600Y-77546200D03*
D17*
X55595520Y-84780120D03*
D18*
X55595520Y-89860120D03*
D17*
X55361840Y-97297240D03*
D18*
X55361840Y-102377240D03*
D17*
X55438040Y-110109000D03*
D18*
X55438040Y-115189000D03*
D13*
X68564760Y-75829160D03*
D19*
X60944760Y-75829160D03*
D13*
X68564760Y-78958440D03*
D19*
X60944760Y-78958440D03*
D13*
X68930520Y-88249760D03*
D19*
X61310520Y-88249760D03*
D13*
X69021960Y-91094560D03*
D19*
X61401960Y-91094560D03*
D13*
X68397120Y-100584000D03*
D19*
X60777120Y-100584000D03*
D13*
X68508880Y-103545640D03*
D19*
X60888880Y-103545640D03*
D13*
X68635880Y-113217960D03*
D19*
X61015880Y-113217960D03*
D13*
X68605400Y-116179600D03*
D19*
X60985400Y-116179600D03*
D13*
X68508880Y-72867520D03*
D19*
X60888880Y-72867520D03*
D13*
X68844160Y-85227160D03*
D19*
X61224160Y-85227160D03*
D13*
X68468240Y-97617280D03*
D19*
X60848240Y-97617280D03*
D13*
X68661280Y-110144560D03*
D19*
X61041280Y-110144560D03*
D13*
X61468000Y-119888000D03*
X63968000Y-119888000D03*
X61722000Y-132842000D03*
X64222000Y-132842000D03*
D11*
X70866000Y-122936000D03*
D12*
X73406000Y-122936000D03*
D11*
X71120000Y-136398000D03*
D12*
X73660000Y-136398000D03*
D17*
X55372000Y-122682000D03*
D18*
X55372000Y-127762000D03*
D17*
X55372000Y-135382000D03*
D18*
X55372000Y-140462000D03*
D13*
X68580000Y-125984000D03*
D19*
X60960000Y-125984000D03*
D13*
X68580000Y-129032000D03*
D19*
X60960000Y-129032000D03*
D13*
X68834000Y-139192000D03*
D19*
X61214000Y-139192000D03*
D13*
X68834000Y-141986000D03*
D19*
X61214000Y-141986000D03*
D13*
X68580000Y-122936000D03*
D19*
X60960000Y-122936000D03*
D13*
X68834000Y-136144000D03*
D19*
X61214000Y-136144000D03*
D13*
X75120500Y-141795500D03*
X75120500Y-144295500D03*
X91122500Y-138239500D03*
X91122500Y-135739500D03*
X106235500Y-138366500D03*
X106235500Y-135866500D03*
X120840500Y-138493500D03*
X120840500Y-135993500D03*
D11*
X75692000Y-132461000D03*
D12*
X75692000Y-129921000D03*
D11*
X90487500Y-132651500D03*
D12*
X90487500Y-130111500D03*
D11*
X105537000Y-132778500D03*
D12*
X105537000Y-130238500D03*
D11*
X120205500Y-133032500D03*
D12*
X120205500Y-130492500D03*
D17*
X79438500Y-144272000D03*
D18*
X84518500Y-144272000D03*
D17*
X94488000Y-144272000D03*
D18*
X99568000Y-144272000D03*
D17*
X109410500Y-144462500D03*
D18*
X114490500Y-144462500D03*
D17*
X123825000Y-144526000D03*
D18*
X128905000Y-144526000D03*
D13*
X82677000Y-131000500D03*
D19*
X82677000Y-138620500D03*
D13*
X85661500Y-130937000D03*
D19*
X85661500Y-138557000D03*
D13*
X97472500Y-130619500D03*
D19*
X97472500Y-138239500D03*
D13*
X100393500Y-130683000D03*
D19*
X100393500Y-138303000D03*
D13*
X112776000Y-130937000D03*
D19*
X112776000Y-138557000D03*
D13*
X115760500Y-130873500D03*
D19*
X115760500Y-138493500D03*
D13*
X127000000Y-131254500D03*
D19*
X127000000Y-138874500D03*
D13*
X130175000Y-131127500D03*
D19*
X130175000Y-138747500D03*
D13*
X79629000Y-131000500D03*
D19*
X79629000Y-138620500D03*
D13*
X94488000Y-130619500D03*
D19*
X94488000Y-138239500D03*
D13*
X109728000Y-131000500D03*
D19*
X109728000Y-138620500D03*
D13*
X124079000Y-131318000D03*
D19*
X124079000Y-138938000D03*
D20*
X68834000Y-141986000D02*
X68834000Y-148018500D01*
X68834000Y-148018500D02*
X69532500Y-148717000D01*
X130175000Y-131127500D02*
X130556000Y-131127500D01*
X130556000Y-131127500D02*
X132969000Y-133540500D01*
X132969000Y-133540500D02*
X132969000Y-148717000D01*
X115760500Y-130873500D02*
X116522500Y-130873500D01*
X116522500Y-130873500D02*
X117919500Y-132270500D01*
X117919500Y-132270500D02*
X117919500Y-148717000D01*
X100393500Y-130683000D02*
X101409500Y-130683000D01*
X103378000Y-132651500D02*
X103378000Y-148717000D01*
X101409500Y-130683000D02*
X103378000Y-132651500D01*
X85661500Y-130937000D02*
X86868000Y-130937000D01*
X87947500Y-132016500D02*
X87947500Y-148717000D01*
X86868000Y-130937000D02*
X87947500Y-132016500D01*
X124333000Y-70040500D02*
X124333000Y-68453000D01*
X71437500Y-116179600D02*
X71437500Y-113362740D01*
X71437500Y-113362740D02*
X73888600Y-110911640D01*
X133908800Y-107086400D02*
X133642100Y-107086400D01*
X133642100Y-107086400D02*
X130111500Y-110617000D01*
X71602600Y-116179600D02*
X71437500Y-116179600D01*
X71437500Y-116179600D02*
X68605400Y-116179600D01*
X75120500Y-119697500D02*
X71602600Y-116179600D01*
X75120500Y-125476000D02*
X75120500Y-119697500D01*
X76073000Y-126428500D02*
X75120500Y-125476000D01*
X83947000Y-126428500D02*
X76073000Y-126428500D01*
X85407500Y-124968000D02*
X83947000Y-126428500D01*
X96075500Y-124968000D02*
X85407500Y-124968000D01*
X97218500Y-123825000D02*
X96075500Y-124968000D01*
X112268000Y-123825000D02*
X97218500Y-123825000D01*
X112585500Y-123507500D02*
X112268000Y-123825000D01*
X126047500Y-123507500D02*
X112585500Y-123507500D01*
X127444500Y-122110500D02*
X126047500Y-123507500D01*
X127444500Y-116141500D02*
X127444500Y-122110500D01*
X130111500Y-113474500D02*
X127444500Y-116141500D01*
X130111500Y-110617000D02*
X130111500Y-113474500D01*
X73279000Y-127381000D02*
X73279000Y-123063000D01*
X73279000Y-123063000D02*
X73406000Y-122936000D01*
X133908800Y-109626400D02*
X133451600Y-109626400D01*
X133451600Y-109626400D02*
X131191000Y-111887000D01*
X70231000Y-127381000D02*
X68580000Y-129032000D01*
X84836000Y-127381000D02*
X73279000Y-127381000D01*
X73279000Y-127381000D02*
X70231000Y-127381000D01*
X86296500Y-125920500D02*
X84836000Y-127381000D01*
X96774000Y-125920500D02*
X86296500Y-125920500D01*
X97726500Y-124968000D02*
X96774000Y-125920500D01*
X112268000Y-124968000D02*
X97726500Y-124968000D01*
X112585500Y-124650500D02*
X112268000Y-124968000D01*
X127190500Y-124650500D02*
X112585500Y-124650500D01*
X128270000Y-123571000D02*
X127190500Y-124650500D01*
X128270000Y-117030500D02*
X128270000Y-123571000D01*
X131191000Y-114109500D02*
X128270000Y-117030500D01*
X131191000Y-111887000D02*
X131191000Y-114109500D01*
X73660000Y-136398000D02*
X73660000Y-136842500D01*
X73660000Y-136842500D02*
X68834000Y-141668500D01*
X68834000Y-141668500D02*
X68834000Y-141986000D01*
X133908800Y-112166400D02*
X133908800Y-112661700D01*
X133908800Y-112661700D02*
X132080000Y-114490500D01*
X73660000Y-132715000D02*
X73660000Y-136398000D01*
X72898000Y-131953000D02*
X73660000Y-132715000D01*
X72898000Y-129349500D02*
X72898000Y-131953000D01*
X73914000Y-128333500D02*
X72898000Y-129349500D01*
X85725000Y-128333500D02*
X73914000Y-128333500D01*
X86995000Y-127063500D02*
X85725000Y-128333500D01*
X97853500Y-127063500D02*
X86995000Y-127063500D01*
X98615500Y-126301500D02*
X97853500Y-127063500D01*
X112776000Y-126301500D02*
X98615500Y-126301500D01*
X113538000Y-125539500D02*
X112776000Y-126301500D01*
X128905000Y-125539500D02*
X113538000Y-125539500D01*
X129222500Y-125222000D02*
X128905000Y-125539500D01*
X129222500Y-118491000D02*
X129222500Y-125222000D01*
X132080000Y-115633500D02*
X129222500Y-118491000D01*
X132080000Y-114490500D02*
X132080000Y-115633500D01*
X86074250Y-129381250D02*
X84677250Y-129381250D01*
X84391500Y-129667000D02*
X75946000Y-129667000D01*
X84677250Y-129381250D02*
X84391500Y-129667000D01*
X75946000Y-129667000D02*
X75692000Y-129921000D01*
X133908800Y-114706400D02*
X133908800Y-115265200D01*
X133908800Y-115265200D02*
X130175000Y-118999000D01*
X85661500Y-129794000D02*
X85661500Y-130937000D01*
X87439500Y-128016000D02*
X86074250Y-129381250D01*
X86074250Y-129381250D02*
X85661500Y-129794000D01*
X98298000Y-128016000D02*
X87439500Y-128016000D01*
X98806000Y-127508000D02*
X98298000Y-128016000D01*
X113284000Y-127508000D02*
X98806000Y-127508000D01*
X114363500Y-126428500D02*
X113284000Y-127508000D01*
X129857500Y-126428500D02*
X114363500Y-126428500D01*
X130175000Y-126111000D02*
X129857500Y-126428500D01*
X130175000Y-118999000D02*
X130175000Y-126111000D01*
X102298500Y-128778000D02*
X99536250Y-128682750D01*
X91313000Y-129286000D02*
X90487500Y-130111500D01*
X99028250Y-129190750D02*
X91313000Y-129286000D01*
X99536250Y-128682750D02*
X99028250Y-129190750D01*
X133908800Y-117246400D02*
X133908800Y-117678200D01*
X133908800Y-117678200D02*
X131000500Y-120586500D01*
X102362000Y-128714500D02*
X102298500Y-128778000D01*
X102298500Y-128778000D02*
X100393500Y-130683000D01*
X113284000Y-128714500D02*
X102362000Y-128714500D01*
X114427000Y-127571500D02*
X113284000Y-128714500D01*
X130365500Y-127571500D02*
X114427000Y-127571500D01*
X131000500Y-126936500D02*
X130365500Y-127571500D01*
X131000500Y-120586500D02*
X131000500Y-126936500D01*
X118745000Y-128460500D02*
X115316000Y-128460500D01*
X114173000Y-129603500D02*
X106172000Y-129603500D01*
X115316000Y-128460500D02*
X114173000Y-129603500D01*
X106172000Y-129603500D02*
X105537000Y-130238500D01*
X133908800Y-119786400D02*
X133578600Y-119786400D01*
X133578600Y-119786400D02*
X132080000Y-121285000D01*
X117983000Y-128460500D02*
X115760500Y-130873500D01*
X130873500Y-128460500D02*
X118745000Y-128460500D01*
X118745000Y-128460500D02*
X117983000Y-128460500D01*
X132080000Y-127444500D02*
X130873500Y-128460500D01*
X132080000Y-121285000D02*
X132080000Y-127444500D01*
X132016500Y-129476500D02*
X121031000Y-129476500D01*
X121031000Y-129476500D02*
X120205500Y-130492500D01*
X133908800Y-122326400D02*
X133908800Y-127965200D01*
X131699000Y-129603500D02*
X130175000Y-131127500D01*
X132270500Y-129603500D02*
X132016500Y-129476500D01*
X132016500Y-129476500D02*
X131699000Y-129603500D01*
X133908800Y-127965200D02*
X132270500Y-129603500D01*
D21*
X62404000Y-146558000D02*
X62404000Y-148256000D01*
X62865000Y-148717000D02*
X69532500Y-148717000D01*
X62404000Y-148256000D02*
X62865000Y-148717000D01*
X69532500Y-148717000D02*
X87947500Y-148717000D01*
X135335000Y-148717000D02*
X137240000Y-146812000D01*
X103378000Y-148717000D02*
X117919500Y-148717000D01*
X117919500Y-148717000D02*
X132969000Y-148717000D01*
X132969000Y-148717000D02*
X135335000Y-148717000D01*
X87947500Y-148717000D02*
X103378000Y-148717000D01*
D20*
X72199500Y-68389500D02*
X72199500Y-64833500D01*
X69342000Y-57150000D02*
X69342000Y-50850800D01*
X69977000Y-57785000D02*
X69342000Y-57150000D01*
X69977000Y-62611000D02*
X69977000Y-57785000D01*
X72199500Y-64833500D02*
X69977000Y-62611000D01*
X68580000Y-129032000D02*
X66802000Y-130810000D01*
X52271520Y-130227480D02*
X52271520Y-130226560D01*
X52854040Y-130810000D02*
X52271520Y-130227480D01*
X66802000Y-130810000D02*
X52854040Y-130810000D01*
X68605400Y-116179600D02*
X68351400Y-116179600D01*
X68351400Y-116179600D02*
X66802000Y-117729000D01*
X66802000Y-117729000D02*
X52269489Y-117729000D01*
X52269489Y-117729000D02*
X52269489Y-117729817D01*
X69021960Y-91094560D02*
X67274440Y-91094560D01*
X52265381Y-92456000D02*
X52265381Y-92453293D01*
X65913000Y-92456000D02*
X52265381Y-92456000D01*
X67274440Y-91094560D02*
X65913000Y-92456000D01*
X128270000Y-68326000D02*
X128270000Y-64135000D01*
X125349000Y-51562000D02*
X126060200Y-50850800D01*
X125349000Y-57785000D02*
X125349000Y-51562000D01*
X126365000Y-58801000D02*
X125349000Y-57785000D01*
X126365000Y-62230000D02*
X126365000Y-58801000D01*
X128270000Y-64135000D02*
X126365000Y-62230000D01*
X113792000Y-68326000D02*
X113792000Y-65278000D01*
X111252000Y-54356000D02*
X111252000Y-50850800D01*
X112141000Y-55245000D02*
X111252000Y-54356000D01*
X112141000Y-63627000D02*
X112141000Y-55245000D01*
X113792000Y-65278000D02*
X112141000Y-63627000D01*
X100076000Y-68326000D02*
X100076000Y-64008000D01*
X98298000Y-52451000D02*
X96697800Y-50850800D01*
X98298000Y-62230000D02*
X98298000Y-52451000D01*
X100076000Y-64008000D02*
X98298000Y-62230000D01*
X86106000Y-68326000D02*
X86106000Y-65659000D01*
X83185000Y-56007000D02*
X83185000Y-50850800D01*
X84201000Y-57023000D02*
X83185000Y-56007000D01*
X84201000Y-63754000D02*
X84201000Y-57023000D01*
X86106000Y-65659000D02*
X84201000Y-63754000D01*
X68508880Y-103545640D02*
X68412360Y-103545640D01*
X68412360Y-103545640D02*
X67056000Y-104902000D01*
X52267404Y-104902000D02*
X52267404Y-104900812D01*
X67056000Y-104902000D02*
X52267404Y-104902000D01*
X68564760Y-78958440D02*
X68234560Y-78958440D01*
X68234560Y-78958440D02*
X67056000Y-80137000D01*
X52263379Y-80137000D02*
X52263379Y-80134987D01*
X67056000Y-80137000D02*
X52263379Y-80137000D01*
X73548240Y-98186240D02*
X73548240Y-98059240D01*
X75311000Y-100203000D02*
X75311000Y-99949000D01*
X75311000Y-99949000D02*
X73548240Y-98186240D01*
X133908800Y-104546400D02*
X133883400Y-104546400D01*
X133883400Y-104546400D02*
X126619000Y-97282000D01*
X70962520Y-101092000D02*
X68508880Y-103545640D01*
X74422000Y-101092000D02*
X70962520Y-101092000D01*
X76454000Y-99060000D02*
X75311000Y-100203000D01*
X75311000Y-100203000D02*
X74422000Y-101092000D01*
X76454000Y-82550000D02*
X76454000Y-99060000D01*
X73787000Y-79883000D02*
X76454000Y-82550000D01*
X73787000Y-78105000D02*
X73787000Y-79883000D01*
X77343000Y-74549000D02*
X73787000Y-78105000D01*
X91059000Y-74549000D02*
X77343000Y-74549000D01*
X93472000Y-76962000D02*
X91059000Y-74549000D01*
X126238000Y-76962000D02*
X93472000Y-76962000D01*
X126619000Y-77343000D02*
X126238000Y-76962000D01*
X126619000Y-97282000D02*
X126619000Y-77343000D01*
X75438000Y-85598000D02*
X74020680Y-85598000D01*
X74020680Y-85598000D02*
X74010520Y-85608160D01*
X133908800Y-102006400D02*
X133629400Y-102006400D01*
X133629400Y-102006400D02*
X131826000Y-100203000D01*
X71851520Y-88265000D02*
X69021960Y-91094560D01*
X74676000Y-88265000D02*
X71851520Y-88265000D01*
X75438000Y-87503000D02*
X74676000Y-88265000D01*
X75438000Y-82931000D02*
X75438000Y-85598000D01*
X75438000Y-85598000D02*
X75438000Y-87503000D01*
X73025000Y-80518000D02*
X75438000Y-82931000D01*
X73025000Y-77724000D02*
X73025000Y-80518000D01*
X76962000Y-73787000D02*
X73025000Y-77724000D01*
X91694000Y-73787000D02*
X76962000Y-73787000D01*
X93726000Y-75819000D02*
X91694000Y-73787000D01*
X126619000Y-75819000D02*
X93726000Y-75819000D01*
X127381000Y-76581000D02*
X126619000Y-75819000D01*
X127381000Y-94742000D02*
X127381000Y-76581000D01*
X131826000Y-99187000D02*
X127381000Y-94742000D01*
X131826000Y-100203000D02*
X131826000Y-99187000D01*
X74739500Y-74485500D02*
X74510900Y-74485500D01*
X74510900Y-74485500D02*
X73675240Y-73649840D01*
X133908800Y-99466400D02*
X133908800Y-99237800D01*
X133908800Y-99237800D02*
X128143000Y-93472000D01*
X71247000Y-75946000D02*
X68564760Y-78628240D01*
X73660000Y-75946000D02*
X71247000Y-75946000D01*
X74549000Y-75057000D02*
X73660000Y-75946000D01*
X74549000Y-74676000D02*
X74549000Y-75057000D01*
X76454000Y-72771000D02*
X74739500Y-74485500D01*
X74739500Y-74485500D02*
X74549000Y-74676000D01*
X92202000Y-72771000D02*
X76454000Y-72771000D01*
X94234000Y-74803000D02*
X92202000Y-72771000D01*
X127508000Y-74803000D02*
X94234000Y-74803000D01*
X128143000Y-75438000D02*
X127508000Y-74803000D01*
X128143000Y-93472000D02*
X128143000Y-75438000D01*
X68564760Y-78628240D02*
X68564760Y-78958440D01*
X67950080Y-70866000D02*
X67950080Y-69184520D01*
X67950080Y-69184520D02*
X68097400Y-69037200D01*
X133908800Y-96926400D02*
X133908800Y-96682560D01*
X133908800Y-96682560D02*
X128950720Y-91724480D01*
X59532520Y-70073520D02*
X57785000Y-68326000D01*
X64780160Y-70073520D02*
X59532520Y-70073520D01*
X65572640Y-70866000D02*
X64780160Y-70073520D01*
X79136240Y-70866000D02*
X67950080Y-70866000D01*
X67950080Y-70866000D02*
X65572640Y-70866000D01*
X80243680Y-71973440D02*
X79136240Y-70866000D01*
X93045280Y-71973440D02*
X80243680Y-71973440D01*
X94894400Y-73822560D02*
X93045280Y-71973440D01*
X127513080Y-73822560D02*
X94894400Y-73822560D01*
X128950720Y-75260200D02*
X127513080Y-73822560D01*
X128950720Y-91724480D02*
X128950720Y-75260200D01*
X82423000Y-69151500D02*
X82423000Y-70561200D01*
X82423000Y-70561200D02*
X82664300Y-70802500D01*
X133908800Y-96926400D02*
X133908800Y-96634300D01*
X133908800Y-94386400D02*
X133908800Y-93903800D01*
X133908800Y-93903800D02*
X132969000Y-92964000D01*
X73660000Y-69850000D02*
X72199500Y-68389500D01*
X79946500Y-69850000D02*
X73660000Y-69850000D01*
X80899000Y-70802500D02*
X79946500Y-69850000D01*
X93218000Y-70802500D02*
X82664300Y-70802500D01*
X82664300Y-70802500D02*
X81534000Y-70802500D01*
X81534000Y-70802500D02*
X80899000Y-70802500D01*
X95059500Y-72644000D02*
X93218000Y-70802500D01*
X127571500Y-72644000D02*
X95059500Y-72644000D01*
X129857500Y-74930000D02*
X127571500Y-72644000D01*
X129857500Y-90995500D02*
X129857500Y-74930000D01*
X131826000Y-92964000D02*
X129857500Y-90995500D01*
X132969000Y-92964000D02*
X131826000Y-92964000D01*
D21*
X52197000Y-62404000D02*
X52975500Y-62404000D01*
X52975500Y-62404000D02*
X54737000Y-60642500D01*
X54737000Y-60642500D02*
X54737000Y-56705500D01*
X54737000Y-56705500D02*
X56451500Y-54991000D01*
X56451500Y-54991000D02*
X56451500Y-52070000D01*
X56451500Y-52070000D02*
X57670700Y-50850800D01*
X57670700Y-50850800D02*
X64639200Y-50850800D01*
X69342000Y-50850800D02*
X64639200Y-50850800D01*
X83185000Y-50850800D02*
X69342000Y-50850800D01*
X136652000Y-52832000D02*
X134670800Y-50850800D01*
X134670800Y-50850800D02*
X126060200Y-50850800D01*
X126060200Y-50850800D02*
X111252000Y-50850800D01*
X111252000Y-50850800D02*
X96697800Y-50850800D01*
X96697800Y-50850800D02*
X83185000Y-50850800D01*
D20*
X133908800Y-91846400D02*
X133908800Y-90500200D01*
X87439500Y-69659500D02*
X86106000Y-68326000D01*
X93662500Y-69659500D02*
X87439500Y-69659500D01*
X133858000Y-90551000D02*
X131572000Y-90551000D01*
X133908800Y-90500200D02*
X133858000Y-90551000D01*
X133908800Y-89306400D02*
X133908800Y-88887300D01*
X133908800Y-88887300D02*
X132969000Y-87947500D01*
X102552500Y-70802500D02*
X100076000Y-68326000D01*
X132969000Y-87947500D02*
X132270500Y-87947500D01*
X86106000Y-68326000D02*
X86106000Y-68072000D01*
X133908800Y-86766400D02*
X133908800Y-86410800D01*
X133908800Y-86410800D02*
X132334000Y-84836000D01*
X115316000Y-70104000D02*
X113792000Y-68326000D01*
X132334000Y-84836000D02*
X132334000Y-73787000D01*
X128270000Y-68326000D02*
X128524000Y-68326000D01*
X128270000Y-68326000D02*
X129032000Y-68326000D01*
X133908800Y-84226400D02*
X134213600Y-84226400D01*
X134213600Y-84226400D02*
X136398000Y-82042000D01*
X129540000Y-69596000D02*
X128270000Y-68326000D01*
X135636000Y-69596000D02*
X129540000Y-69596000D01*
D21*
X137240000Y-146812000D02*
X139192000Y-146812000D01*
X139192000Y-146812000D02*
X141732000Y-144272000D01*
X141732000Y-144272000D02*
X144526000Y-144272000D01*
X144526000Y-144272000D02*
X149098000Y-139700000D01*
X149098000Y-139700000D02*
X149098000Y-126443600D01*
X149098000Y-126443600D02*
X144836800Y-122182400D01*
X144836800Y-84082400D02*
X145787600Y-84082400D01*
X139700000Y-52832000D02*
X137240000Y-52832000D01*
X143764000Y-56896000D02*
X139700000Y-52832000D01*
X148082000Y-56896000D02*
X143764000Y-56896000D01*
X148336000Y-57150000D02*
X148082000Y-56896000D01*
X148336000Y-81534000D02*
X148336000Y-57150000D01*
X145787600Y-84082400D02*
X148336000Y-81534000D01*
X137240000Y-52832000D02*
X136652000Y-52832000D01*
X144836800Y-122182400D02*
X145601200Y-122182400D01*
X62658000Y-146812000D02*
X62404000Y-146558000D01*
X61010800Y-146558000D02*
X62404000Y-146558000D01*
X57505600Y-143052800D02*
X61010800Y-146558000D01*
X54762400Y-143052800D02*
X57505600Y-143052800D01*
X52273200Y-140563600D02*
X54762400Y-143052800D01*
X52260500Y-62420500D02*
X52263379Y-80134987D01*
X52263379Y-80134987D02*
X52265381Y-92453293D01*
X52265381Y-92453293D02*
X52265423Y-92711719D01*
X52265423Y-92711719D02*
X52267404Y-104900812D01*
X52267404Y-104900812D02*
X52269489Y-117729817D01*
X52269489Y-117729817D02*
X52271520Y-130226560D01*
X52271520Y-130226560D02*
X52273200Y-140563600D01*
D22*
X144836800Y-84082400D02*
X145432000Y-84082400D01*
X62658000Y-146812000D02*
X62404000Y-146558000D01*
X144836800Y-122182400D02*
X144836800Y-122637200D01*
X133908800Y-119786400D02*
X133908800Y-117246400D01*
X133908800Y-114706400D02*
X133908800Y-117246400D01*
X133908800Y-112166400D02*
X133908800Y-114706400D01*
X133908800Y-109626400D02*
X133908800Y-112166400D01*
X133908800Y-107086400D02*
X133908800Y-109626400D01*
X133908800Y-104546400D02*
X133908800Y-107086400D01*
X133908800Y-102006400D02*
X133908800Y-104546400D01*
X133908800Y-99466400D02*
X133908800Y-102006400D01*
X133908800Y-96926400D02*
X133908800Y-99466400D01*
X133908800Y-94386400D02*
X133908800Y-96926400D01*
X133908800Y-91846400D02*
X133908800Y-94386400D01*
X133908800Y-89306400D02*
X133908800Y-91846400D01*
X133908800Y-86766400D02*
X133908800Y-89306400D01*
X133908800Y-84226400D02*
X133908800Y-86766400D01*
X144836800Y-86622400D02*
X144836800Y-84082400D01*
X144836800Y-89162400D02*
X144836800Y-86622400D01*
X144836800Y-94242400D02*
X144836800Y-89162400D01*
X144836800Y-96782400D02*
X144836800Y-94242400D01*
X144836800Y-99322400D02*
X144836800Y-96782400D01*
X144836800Y-101862400D02*
X144836800Y-99322400D01*
X144836800Y-106942400D02*
X144836800Y-101862400D01*
X144836800Y-109482400D02*
X144836800Y-106942400D01*
X144836800Y-112022400D02*
X144836800Y-109482400D01*
X144836800Y-114562400D02*
X144836800Y-112022400D01*
X144836800Y-117102400D02*
X144836800Y-114562400D01*
X144836800Y-119642400D02*
X144836800Y-117102400D01*
X144836800Y-119642400D02*
X144836800Y-122182400D01*
D20*
X133908800Y-122326400D02*
X133908800Y-122682000D01*
X133908800Y-122682000D02*
X134924800Y-123698000D01*
X134924800Y-123698000D02*
X143321200Y-123698000D01*
X143321200Y-123698000D02*
X144836800Y-122182400D01*
X133908800Y-119786400D02*
X134264400Y-119786400D01*
X134264400Y-119786400D02*
X135483600Y-121005600D01*
X135483600Y-121005600D02*
X140258800Y-121005600D01*
X140258800Y-121005600D02*
X140360400Y-120904000D01*
X140360400Y-120904000D02*
X143575200Y-120904000D01*
X143575200Y-120904000D02*
X144836800Y-119642400D01*
X133908800Y-117246400D02*
X133908800Y-117652800D01*
X133908800Y-117652800D02*
X134721600Y-118465600D01*
X143575200Y-118364000D02*
X144836800Y-117102400D01*
X141122400Y-118364000D02*
X143575200Y-118364000D01*
X141020800Y-118465600D02*
X141122400Y-118364000D01*
X134721600Y-118465600D02*
X141020800Y-118465600D01*
X133908800Y-115265200D02*
X134620000Y-115976400D01*
X143524400Y-115874800D02*
X144836800Y-114562400D01*
X140970000Y-115874800D02*
X143524400Y-115874800D01*
X140868400Y-115976400D02*
X140970000Y-115874800D01*
X134620000Y-115976400D02*
X140868400Y-115976400D01*
X133908800Y-112166400D02*
X133959600Y-112166400D01*
X133959600Y-112166400D02*
X135178800Y-113385600D01*
X143524400Y-113334800D02*
X144836800Y-112022400D01*
X138379200Y-113334800D02*
X143524400Y-113334800D01*
X138328400Y-113385600D02*
X138379200Y-113334800D01*
X135178800Y-113385600D02*
X138328400Y-113385600D01*
X133908800Y-109626400D02*
X133908800Y-109778800D01*
X133908800Y-109778800D02*
X135026400Y-110896400D01*
X143524400Y-110794800D02*
X144836800Y-109482400D01*
X141173200Y-110794800D02*
X143524400Y-110794800D01*
X141071600Y-110896400D02*
X141173200Y-110794800D01*
X135026400Y-110896400D02*
X141071600Y-110896400D01*
X133908800Y-107086400D02*
X133908800Y-107137200D01*
X133908800Y-107137200D02*
X135128000Y-108356400D01*
X143575200Y-108204000D02*
X144836800Y-106942400D01*
X139395200Y-108204000D02*
X143575200Y-108204000D01*
X139242800Y-108356400D02*
X139395200Y-108204000D01*
X135128000Y-108356400D02*
X139242800Y-108356400D01*
X133908800Y-104546400D02*
X133908800Y-104597200D01*
X133908800Y-104597200D02*
X135077200Y-105765600D01*
X135077200Y-105765600D02*
X141224000Y-105765600D01*
X141224000Y-105765600D02*
X141325600Y-105664000D01*
X141325600Y-105664000D02*
X143575200Y-105664000D01*
X143575200Y-105664000D02*
X144836800Y-104402400D01*
X133908800Y-102006400D02*
X134112000Y-102006400D01*
X134112000Y-102006400D02*
X135382000Y-103276400D01*
X143575200Y-103124000D02*
X144836800Y-101862400D01*
X141478000Y-103124000D02*
X143575200Y-103124000D01*
X141325600Y-103276400D02*
X141478000Y-103124000D01*
X135382000Y-103276400D02*
X141325600Y-103276400D01*
X133908800Y-99466400D02*
X133908800Y-99822000D01*
X133908800Y-99822000D02*
X134772400Y-100685600D01*
X134772400Y-100685600D02*
X139293600Y-100685600D01*
X139293600Y-100685600D02*
X139395200Y-100584000D01*
X139395200Y-100584000D02*
X143764000Y-100584000D01*
X143764000Y-100584000D02*
X144836800Y-99511200D01*
X144836800Y-99511200D02*
X144836800Y-99322400D01*
X133908800Y-96926400D02*
X133908800Y-97282000D01*
X133908800Y-97282000D02*
X134874000Y-98247200D01*
X143575200Y-98044000D02*
X144836800Y-96782400D01*
X140004800Y-98044000D02*
X143575200Y-98044000D01*
X139801600Y-98247200D02*
X140004800Y-98044000D01*
X134874000Y-98247200D02*
X139801600Y-98247200D01*
X144836800Y-94242400D02*
X144836800Y-94329600D01*
X144836800Y-94329600D02*
X143662400Y-95504000D01*
X135128000Y-95605600D02*
X133908800Y-94386400D01*
X138988800Y-95605600D02*
X135128000Y-95605600D01*
X139090400Y-95504000D02*
X138988800Y-95605600D01*
X143662400Y-95504000D02*
X139090400Y-95504000D01*
X133908800Y-91846400D02*
X134112000Y-91846400D01*
X134112000Y-91846400D02*
X135432800Y-93167200D01*
X135432800Y-93167200D02*
X141020800Y-93167200D01*
X141020800Y-93167200D02*
X141173200Y-93014800D01*
X141173200Y-93014800D02*
X143524400Y-93014800D01*
X143524400Y-93014800D02*
X144836800Y-91702400D01*
X144836800Y-89162400D02*
X144771600Y-89162400D01*
X144771600Y-89162400D02*
X143510000Y-90424000D01*
X135178800Y-90576400D02*
X133908800Y-89306400D01*
X137007600Y-90576400D02*
X135178800Y-90576400D01*
X137160000Y-90424000D02*
X137007600Y-90576400D01*
X143510000Y-90424000D02*
X137160000Y-90424000D01*
X133908800Y-86766400D02*
X134112000Y-86766400D01*
X134112000Y-86766400D02*
X135382000Y-88036400D01*
X143575200Y-87884000D02*
X144836800Y-86622400D01*
X137871200Y-87884000D02*
X143575200Y-87884000D01*
X137718800Y-88036400D02*
X137871200Y-87884000D01*
X135382000Y-88036400D02*
X137718800Y-88036400D01*
X144836800Y-84082400D02*
X144619200Y-84082400D01*
X144619200Y-84082400D02*
X143357600Y-85344000D01*
X143357600Y-85344000D02*
X136906000Y-85344000D01*
X136906000Y-85344000D02*
X136753600Y-85496400D01*
X136753600Y-85496400D02*
X135178800Y-85496400D01*
X135178800Y-85496400D02*
X133908800Y-84226400D01*
X136271000Y-70231000D02*
X135636000Y-69596000D01*
X136398000Y-82042000D02*
X136398000Y-70358000D01*
X124142500Y-70040500D02*
X123888514Y-70038646D01*
X123888514Y-70038646D02*
X115316000Y-70104000D01*
X132334000Y-73787000D02*
X128524000Y-70040500D01*
X110172500Y-70802500D02*
X102552500Y-70802500D01*
X132270500Y-87947500D02*
X131572000Y-87249000D01*
X94424500Y-70421500D02*
X94551500Y-70421500D01*
X95758000Y-71755000D02*
X94424500Y-70421500D01*
X94424500Y-70421500D02*
X93662500Y-69659500D01*
X127698500Y-71755000D02*
X95758000Y-71755000D01*
X130556000Y-74612500D02*
X127698500Y-71755000D01*
X130556000Y-89535000D02*
X130556000Y-74612500D01*
X131572000Y-90551000D02*
X130556000Y-89535000D01*
X136271000Y-70231000D02*
X136398000Y-70231000D01*
X136398000Y-70358000D02*
X136271000Y-70231000D01*
X128524000Y-70040500D02*
X124333000Y-70040500D01*
X124333000Y-70040500D02*
X124142500Y-70040500D01*
X128016000Y-70802500D02*
X110172500Y-70802500D01*
X131572000Y-74358500D02*
X128016000Y-70802500D01*
X131572000Y-87249000D02*
X131572000Y-74358500D01*
X136398000Y-70231000D02*
X138430000Y-68199000D01*
X110172500Y-70802500D02*
X110172500Y-68834000D01*
X110172500Y-68834000D02*
X110109000Y-68770500D01*
X94551500Y-70421500D02*
X95948500Y-69024500D01*
X68389500Y-69278500D02*
X68199000Y-69088000D01*
X133350000Y-55372000D02*
X133350000Y-56388000D01*
X133350000Y-56388000D02*
X137668000Y-60706000D01*
X131318000Y-60706000D02*
X131318000Y-57404000D01*
X131318000Y-57404000D02*
X133350000Y-55372000D01*
X128270000Y-60706000D02*
X128270000Y-60833000D01*
X128270000Y-60833000D02*
X130643000Y-63206000D01*
X130643000Y-63206000D02*
X137668000Y-63206000D01*
X128270000Y-60706000D02*
X128016000Y-55626000D01*
X128016000Y-55626000D02*
X128270000Y-55372000D01*
X119634000Y-55372000D02*
X119634000Y-56515000D01*
X119634000Y-56515000D02*
X123444000Y-60325000D01*
X123444000Y-60325000D02*
X123444000Y-60960000D01*
X116840000Y-60706000D02*
X116840000Y-58166000D01*
X116840000Y-58166000D02*
X119634000Y-55372000D01*
X113792000Y-60706000D02*
X113792000Y-61849000D01*
X114935000Y-62992000D02*
X122976000Y-62992000D01*
X113792000Y-61849000D02*
X114935000Y-62992000D01*
X122976000Y-62992000D02*
X123444000Y-63460000D01*
X113792000Y-60706000D02*
X113792000Y-56134000D01*
X113792000Y-56134000D02*
X114554000Y-55372000D01*
X109474000Y-60960000D02*
X109474000Y-58420000D01*
X109474000Y-58420000D02*
X106426000Y-55372000D01*
X103124000Y-60706000D02*
X103124000Y-58674000D01*
X103124000Y-58674000D02*
X106426000Y-55372000D01*
X100076000Y-60706000D02*
X100076000Y-61404500D01*
X100076000Y-61404500D02*
X102131500Y-63460000D01*
X102131500Y-63460000D02*
X109474000Y-63460000D01*
X100076000Y-60706000D02*
X100076000Y-56642000D01*
X100076000Y-56642000D02*
X101346000Y-55372000D01*
X91948000Y-55372000D02*
X91948000Y-55626000D01*
X91948000Y-55626000D02*
X95440500Y-59118500D01*
X95440500Y-59118500D02*
X95440500Y-61150500D01*
X89154000Y-60706000D02*
X89154000Y-58166000D01*
X89154000Y-58166000D02*
X91948000Y-55372000D01*
X86106000Y-60706000D02*
X86106000Y-62674500D01*
X87082000Y-63650500D02*
X95440500Y-63650500D01*
X86106000Y-62674500D02*
X87082000Y-63650500D01*
X86106000Y-60706000D02*
X86106000Y-56134000D01*
X86106000Y-56134000D02*
X86868000Y-55372000D01*
X78295500Y-55372000D02*
X78295500Y-57785000D01*
X78295500Y-57785000D02*
X81724500Y-61214000D01*
X75311000Y-60642500D02*
X75311000Y-58356500D01*
X75311000Y-58356500D02*
X78295500Y-55372000D01*
X81724500Y-63714000D02*
X75144000Y-63714000D01*
X75144000Y-63714000D02*
X72199500Y-60769500D01*
X72199500Y-60769500D02*
X72199500Y-56388000D01*
X72199500Y-56388000D02*
X73215500Y-55372000D01*
X64198500Y-55372000D02*
X65278000Y-55372000D01*
X65278000Y-55372000D02*
X67500500Y-57594500D01*
X67500500Y-57594500D02*
X67500500Y-61214000D01*
X60833000Y-60706000D02*
X60896500Y-58674000D01*
X60896500Y-58674000D02*
X64198500Y-55372000D01*
X57785000Y-60706000D02*
X57848500Y-62420500D01*
X59142000Y-63714000D02*
X67500500Y-63714000D01*
X57848500Y-62420500D02*
X59142000Y-63714000D01*
X57785000Y-60706000D02*
X57848500Y-56642000D01*
X57848500Y-56642000D02*
X59118500Y-55372000D01*
X54752240Y-65532000D02*
X55133240Y-65532000D01*
X55133240Y-65532000D02*
X56200040Y-66598800D01*
X56200040Y-66598800D02*
X56200040Y-71739760D01*
X56200040Y-71739760D02*
X55473600Y-72466200D01*
X55473600Y-72466200D02*
X56286400Y-72466200D01*
X56286400Y-72466200D02*
X59649360Y-75829160D01*
X59649360Y-75829160D02*
X60944760Y-75829160D01*
X55473600Y-77546200D02*
X55473600Y-77495400D01*
X55473600Y-77495400D02*
X53380640Y-75402440D01*
X53380640Y-69403600D02*
X54752240Y-68032000D01*
X53380640Y-75402440D02*
X53380640Y-69403600D01*
X55473600Y-77546200D02*
X59532520Y-77546200D01*
X59532520Y-77546200D02*
X60944760Y-78958440D01*
X61310520Y-88249760D02*
X61615320Y-88249760D01*
X61615320Y-88249760D02*
X62809120Y-87055960D01*
X62809120Y-87055960D02*
X62809120Y-83317080D01*
X62809120Y-83317080D02*
X61478160Y-81986120D01*
X55595520Y-84780120D02*
X58684160Y-84780120D01*
X58684160Y-84780120D02*
X61478160Y-81986120D01*
X63978160Y-81986120D02*
X63978160Y-88518360D01*
X63978160Y-88518360D02*
X61401960Y-91094560D01*
X55595520Y-89860120D02*
X60167520Y-89860120D01*
X60167520Y-89860120D02*
X61401960Y-91094560D01*
X55361840Y-97297240D02*
X58328560Y-97297240D01*
X58328560Y-97297240D02*
X61244480Y-94381320D01*
X55361840Y-97297240D02*
X56113680Y-97297240D01*
X56113680Y-97297240D02*
X59400440Y-100584000D01*
X59400440Y-100584000D02*
X60777120Y-100584000D01*
X60888880Y-103545640D02*
X62311280Y-103545640D01*
X63744480Y-102112440D02*
X63744480Y-94381320D01*
X62311280Y-103545640D02*
X63744480Y-102112440D01*
X55361840Y-102377240D02*
X56200040Y-102377240D01*
X56200040Y-102377240D02*
X57368440Y-103545640D01*
X57368440Y-103545640D02*
X60888880Y-103545640D01*
X55438040Y-110109000D02*
X57906920Y-110109000D01*
X57906920Y-110109000D02*
X61015880Y-113217960D01*
X55438040Y-110109000D02*
X58303160Y-110109000D01*
X58303160Y-110109000D02*
X61620400Y-106791760D01*
X55438040Y-115189000D02*
X59994800Y-115189000D01*
X59994800Y-115189000D02*
X60985400Y-116179600D01*
X64120400Y-106791760D02*
X64120400Y-113044600D01*
X64120400Y-113044600D02*
X60985400Y-116179600D01*
X134620000Y-60706000D02*
X134874000Y-60706000D01*
X55372000Y-122682000D02*
X57658000Y-122682000D01*
X57658000Y-122682000D02*
X60960000Y-125984000D01*
X55372000Y-122682000D02*
X55626000Y-122682000D01*
X55626000Y-122682000D02*
X58420000Y-119888000D01*
X58420000Y-119888000D02*
X61468000Y-119888000D01*
X55372000Y-127762000D02*
X59690000Y-127762000D01*
X59690000Y-127762000D02*
X60960000Y-129032000D01*
X60960000Y-129032000D02*
X61976000Y-129032000D01*
X63968000Y-127040000D02*
X63968000Y-119888000D01*
X61976000Y-129032000D02*
X63968000Y-127040000D01*
X55372000Y-135382000D02*
X57404000Y-135382000D01*
X57404000Y-135382000D02*
X61214000Y-139192000D01*
X55372000Y-135382000D02*
X56134000Y-135382000D01*
X56134000Y-135382000D02*
X58674000Y-132842000D01*
X58674000Y-132842000D02*
X61722000Y-132842000D01*
X55372000Y-140462000D02*
X56896000Y-140462000D01*
X58420000Y-141986000D02*
X61214000Y-141986000D01*
X56896000Y-140462000D02*
X58420000Y-141986000D01*
X61214000Y-141986000D02*
X61976000Y-141986000D01*
X61976000Y-141986000D02*
X64222000Y-139740000D01*
X64222000Y-139740000D02*
X64222000Y-132842000D01*
X75120500Y-141795500D02*
X76962000Y-141795500D01*
X76962000Y-141795500D02*
X79438500Y-144272000D01*
X79438500Y-144272000D02*
X79438500Y-141859000D01*
X79438500Y-141859000D02*
X82677000Y-138620500D01*
X75120500Y-144295500D02*
X75120500Y-145288000D01*
X81216500Y-147574000D02*
X84518500Y-144272000D01*
X77406500Y-147574000D02*
X81216500Y-147574000D01*
X75120500Y-145288000D02*
X77406500Y-147574000D01*
X85661500Y-138557000D02*
X85661500Y-143129000D01*
X85661500Y-143129000D02*
X84518500Y-144272000D01*
X97472500Y-138239500D02*
X97472500Y-141287500D01*
X97472500Y-141287500D02*
X94488000Y-144272000D01*
X91122500Y-138239500D02*
X91122500Y-140906500D01*
X91122500Y-140906500D02*
X94488000Y-144272000D01*
X91122500Y-135739500D02*
X97830000Y-135739500D01*
X97830000Y-135739500D02*
X100393500Y-138303000D01*
X100393500Y-138303000D02*
X100393500Y-143446500D01*
X100393500Y-143446500D02*
X99568000Y-144272000D01*
X106235500Y-138366500D02*
X106235500Y-141287500D01*
X106235500Y-141287500D02*
X109410500Y-144462500D01*
X112776000Y-138557000D02*
X112776000Y-141097000D01*
X112776000Y-141097000D02*
X109410500Y-144462500D01*
X106235500Y-135866500D02*
X113133500Y-135866500D01*
X113133500Y-135866500D02*
X115760500Y-138493500D01*
X115760500Y-138493500D02*
X115760500Y-143192500D01*
X115760500Y-143192500D02*
X114490500Y-144462500D01*
X127000000Y-138874500D02*
X127000000Y-141351000D01*
X127000000Y-141351000D02*
X123825000Y-144526000D01*
X120840500Y-138493500D02*
X120840500Y-141541500D01*
X120840500Y-141541500D02*
X123825000Y-144526000D01*
X128905000Y-144526000D02*
X128905000Y-143700500D01*
X128905000Y-143700500D02*
X130175000Y-142430500D01*
X130175000Y-142430500D02*
X130175000Y-138747500D01*
X120840500Y-135993500D02*
X127421000Y-135993500D01*
X127421000Y-135993500D02*
X130175000Y-138747500D01*
M02*
