G04 #@! TF.FileFunction,Soldermask,Top*
%FSLAX46Y46*%
G04 Gerber Fmt 4.6, Leading zero omitted, Abs format (unit mm)*
G04 Created by KiCad (PCBNEW 4.0.7) date 04/07/19 22:06:40*
%MOMM*%
%LPD*%
G01*
G04 APERTURE LIST*
%ADD10C,0.100000*%
%ADD11R,2.200000X2.200000*%
%ADD12C,2.200000*%
%ADD13C,2.000000*%
%ADD14C,5.400000*%
%ADD15R,2.100000X2.100000*%
%ADD16O,2.100000X2.100000*%
%ADD17R,3.400000X3.400000*%
%ADD18C,3.400000*%
%ADD19O,2.000000X2.000000*%
G04 APERTURE END LIST*
D10*
D11*
X110109000Y-66103500D03*
D12*
X110109000Y-68643500D03*
D13*
X52197000Y-57404000D03*
X52197000Y-62404000D03*
X57404000Y-146558000D03*
X62404000Y-146558000D03*
X142240000Y-52832000D03*
X137240000Y-52832000D03*
X142240000Y-146812000D03*
X137240000Y-146812000D03*
D14*
X53000000Y-53000000D03*
X53000000Y-147000000D03*
X147000000Y-53000000D03*
X147000000Y-147000000D03*
D15*
X142296800Y-84082400D03*
D16*
X144836800Y-84082400D03*
X142296800Y-86622400D03*
X144836800Y-86622400D03*
X142296800Y-89162400D03*
X144836800Y-89162400D03*
X142296800Y-91702400D03*
X144836800Y-91702400D03*
X142296800Y-94242400D03*
X144836800Y-94242400D03*
X142296800Y-96782400D03*
X144836800Y-96782400D03*
X142296800Y-99322400D03*
X144836800Y-99322400D03*
X142296800Y-101862400D03*
X144836800Y-101862400D03*
X142296800Y-104402400D03*
X144836800Y-104402400D03*
X142296800Y-106942400D03*
X144836800Y-106942400D03*
X142296800Y-109482400D03*
X144836800Y-109482400D03*
X142296800Y-112022400D03*
X144836800Y-112022400D03*
X142296800Y-114562400D03*
X144836800Y-114562400D03*
X142296800Y-117102400D03*
X144836800Y-117102400D03*
X142296800Y-119642400D03*
X144836800Y-119642400D03*
X142296800Y-122182400D03*
X144836800Y-122182400D03*
D13*
X133908800Y-84226400D03*
X136408800Y-84226400D03*
X133908800Y-86766400D03*
X136408800Y-86766400D03*
X133908800Y-89306400D03*
X136408800Y-89306400D03*
X133908800Y-91846400D03*
X136408800Y-91846400D03*
X133908800Y-94386400D03*
X136408800Y-94386400D03*
X133908800Y-96926400D03*
X136408800Y-96926400D03*
X133908800Y-99466400D03*
X136408800Y-99466400D03*
X133908800Y-102006400D03*
X136408800Y-102006400D03*
X133908800Y-104546400D03*
X136408800Y-104546400D03*
X133908800Y-107086400D03*
X136408800Y-107086400D03*
X133908800Y-109626400D03*
X136408800Y-109626400D03*
X133908800Y-112166400D03*
X136408800Y-112166400D03*
X133908800Y-114706400D03*
X136408800Y-114706400D03*
X133908800Y-117246400D03*
X136408800Y-117246400D03*
X133908800Y-119786400D03*
X136408800Y-119786400D03*
X133908800Y-122326400D03*
X136408800Y-122326400D03*
X137668000Y-60706000D03*
X137668000Y-63206000D03*
D11*
X138430000Y-65722500D03*
D12*
X138430000Y-68262500D03*
D17*
X133350000Y-55372000D03*
D18*
X128270000Y-55372000D03*
D13*
X131318000Y-68326000D03*
D19*
X131318000Y-60706000D03*
D13*
X128270000Y-68326000D03*
D19*
X128270000Y-60706000D03*
D13*
X134620000Y-68326000D03*
D19*
X134620000Y-60706000D03*
D13*
X123444000Y-60960000D03*
X123444000Y-63460000D03*
X109474000Y-60960000D03*
X109474000Y-63460000D03*
X95440500Y-61150500D03*
X95440500Y-63650500D03*
D11*
X124333000Y-65913000D03*
D12*
X124333000Y-68453000D03*
D11*
X96139000Y-66484500D03*
D12*
X96139000Y-69024500D03*
D17*
X119634000Y-55372000D03*
D18*
X114554000Y-55372000D03*
D17*
X106426000Y-55372000D03*
D18*
X101346000Y-55372000D03*
D17*
X91948000Y-55372000D03*
D18*
X86868000Y-55372000D03*
D13*
X116840000Y-68326000D03*
D19*
X116840000Y-60706000D03*
D13*
X113792000Y-68326000D03*
D19*
X113792000Y-60706000D03*
D13*
X103124000Y-68326000D03*
D19*
X103124000Y-60706000D03*
D13*
X100076000Y-68326000D03*
D19*
X100076000Y-60706000D03*
D13*
X89154000Y-68326000D03*
D19*
X89154000Y-60706000D03*
D13*
X86106000Y-68326000D03*
D19*
X86106000Y-60706000D03*
D13*
X120142000Y-68326000D03*
D19*
X120142000Y-60706000D03*
D13*
X106172000Y-68326000D03*
D19*
X106172000Y-60706000D03*
D13*
X92202000Y-68326000D03*
D19*
X92202000Y-60706000D03*
D13*
X81724500Y-61214000D03*
X81724500Y-63714000D03*
X67500500Y-61214000D03*
X67500500Y-63714000D03*
D11*
X82423000Y-66611500D03*
D12*
X82423000Y-69151500D03*
D11*
X68097400Y-66497200D03*
D12*
X68097400Y-69037200D03*
D17*
X78295500Y-55372000D03*
D18*
X73215500Y-55372000D03*
D17*
X64198500Y-55372000D03*
D18*
X59118500Y-55372000D03*
D13*
X75311000Y-68262500D03*
D19*
X75311000Y-60642500D03*
D13*
X72199500Y-68389500D03*
D19*
X72199500Y-60769500D03*
D13*
X60833000Y-68326000D03*
D19*
X60833000Y-60706000D03*
D13*
X57785000Y-68326000D03*
D19*
X57785000Y-60706000D03*
D13*
X78486000Y-68389500D03*
D19*
X78486000Y-60769500D03*
D13*
X64198500Y-68326000D03*
D19*
X64198500Y-60706000D03*
D13*
X54752240Y-65532000D03*
X54752240Y-68032000D03*
X61478160Y-81986120D03*
X63978160Y-81986120D03*
X61244480Y-94381320D03*
X63744480Y-94381320D03*
X61620400Y-106791760D03*
X64120400Y-106791760D03*
D11*
X71135240Y-73649840D03*
D12*
X73675240Y-73649840D03*
D11*
X71470520Y-85608160D03*
D12*
X74010520Y-85608160D03*
D11*
X71008240Y-98186240D03*
D12*
X73548240Y-98186240D03*
D11*
X71348600Y-110911640D03*
D12*
X73888600Y-110911640D03*
D17*
X55473600Y-72466200D03*
D18*
X55473600Y-77546200D03*
D17*
X55595520Y-84780120D03*
D18*
X55595520Y-89860120D03*
D17*
X55361840Y-97297240D03*
D18*
X55361840Y-102377240D03*
D17*
X55438040Y-110109000D03*
D18*
X55438040Y-115189000D03*
D13*
X68564760Y-75829160D03*
D19*
X60944760Y-75829160D03*
D13*
X68564760Y-78958440D03*
D19*
X60944760Y-78958440D03*
D13*
X68930520Y-88249760D03*
D19*
X61310520Y-88249760D03*
D13*
X69021960Y-91094560D03*
D19*
X61401960Y-91094560D03*
D13*
X68397120Y-100584000D03*
D19*
X60777120Y-100584000D03*
D13*
X68508880Y-103545640D03*
D19*
X60888880Y-103545640D03*
D13*
X68635880Y-113217960D03*
D19*
X61015880Y-113217960D03*
D13*
X68605400Y-116179600D03*
D19*
X60985400Y-116179600D03*
D13*
X68508880Y-72867520D03*
D19*
X60888880Y-72867520D03*
D13*
X68844160Y-85227160D03*
D19*
X61224160Y-85227160D03*
D13*
X68468240Y-97617280D03*
D19*
X60848240Y-97617280D03*
D13*
X68661280Y-110144560D03*
D19*
X61041280Y-110144560D03*
D13*
X61468000Y-119888000D03*
X63968000Y-119888000D03*
X61722000Y-132842000D03*
X64222000Y-132842000D03*
D11*
X70866000Y-122936000D03*
D12*
X73406000Y-122936000D03*
D11*
X71120000Y-136398000D03*
D12*
X73660000Y-136398000D03*
D17*
X55372000Y-122682000D03*
D18*
X55372000Y-127762000D03*
D17*
X55372000Y-135382000D03*
D18*
X55372000Y-140462000D03*
D13*
X68580000Y-125984000D03*
D19*
X60960000Y-125984000D03*
D13*
X68580000Y-129032000D03*
D19*
X60960000Y-129032000D03*
D13*
X68834000Y-139192000D03*
D19*
X61214000Y-139192000D03*
D13*
X68834000Y-141986000D03*
D19*
X61214000Y-141986000D03*
D13*
X68580000Y-122936000D03*
D19*
X60960000Y-122936000D03*
D13*
X68834000Y-136144000D03*
D19*
X61214000Y-136144000D03*
D13*
X75120500Y-141795500D03*
X75120500Y-144295500D03*
X91122500Y-138239500D03*
X91122500Y-135739500D03*
X106235500Y-138366500D03*
X106235500Y-135866500D03*
X120840500Y-138493500D03*
X120840500Y-135993500D03*
D11*
X75692000Y-132461000D03*
D12*
X75692000Y-129921000D03*
D11*
X90487500Y-132651500D03*
D12*
X90487500Y-130111500D03*
D11*
X105537000Y-132778500D03*
D12*
X105537000Y-130238500D03*
D11*
X120205500Y-133032500D03*
D12*
X120205500Y-130492500D03*
D17*
X79438500Y-144272000D03*
D18*
X84518500Y-144272000D03*
D17*
X94488000Y-144272000D03*
D18*
X99568000Y-144272000D03*
D17*
X109410500Y-144462500D03*
D18*
X114490500Y-144462500D03*
D17*
X123825000Y-144526000D03*
D18*
X128905000Y-144526000D03*
D13*
X82677000Y-131000500D03*
D19*
X82677000Y-138620500D03*
D13*
X85661500Y-130937000D03*
D19*
X85661500Y-138557000D03*
D13*
X97472500Y-130619500D03*
D19*
X97472500Y-138239500D03*
D13*
X100393500Y-130683000D03*
D19*
X100393500Y-138303000D03*
D13*
X112776000Y-130937000D03*
D19*
X112776000Y-138557000D03*
D13*
X115760500Y-130873500D03*
D19*
X115760500Y-138493500D03*
D13*
X127000000Y-131254500D03*
D19*
X127000000Y-138874500D03*
D13*
X130175000Y-131127500D03*
D19*
X130175000Y-138747500D03*
D13*
X79629000Y-131000500D03*
D19*
X79629000Y-138620500D03*
D13*
X94488000Y-130619500D03*
D19*
X94488000Y-138239500D03*
D13*
X109728000Y-131000500D03*
D19*
X109728000Y-138620500D03*
D13*
X124079000Y-131318000D03*
D19*
X124079000Y-138938000D03*
M02*
