G04 #@! TF.FileFunction,Copper,L1,Top,Signal*
%FSLAX46Y46*%
G04 Gerber Fmt 4.6, Leading zero omitted, Abs format (unit mm)*
G04 Created by KiCad (PCBNEW 4.0.7) date 10/30/18 22:57:11*
%MOMM*%
%LPD*%
G01*
G04 APERTURE LIST*
%ADD10C,0.100000*%
%ADD11C,1.800000*%
%ADD12C,1.600000*%
%ADD13O,1.600000X1.600000*%
%ADD14R,1.800000X1.800000*%
%ADD15R,3.000000X3.000000*%
%ADD16C,3.000000*%
%ADD17C,5.500000*%
%ADD18O,3.000000X1.500000*%
%ADD19R,1.700000X1.700000*%
%ADD20O,1.700000X1.700000*%
%ADD21C,2.000000*%
%ADD22C,1.700000*%
%ADD23O,12.000000X2.000000*%
%ADD24C,2.400000*%
%ADD25O,1.500000X1.500000*%
%ADD26C,0.600000*%
%ADD27C,1.000000*%
%ADD28C,0.500000*%
%ADD29C,0.350000*%
G04 APERTURE END LIST*
D10*
D11*
X71973280Y-129766080D03*
X71973280Y-119606080D03*
X71973280Y-124686080D03*
X79573280Y-124686080D03*
X79573280Y-129766080D03*
X79573280Y-119606080D03*
X71973280Y-137386080D03*
X79573280Y-137386080D03*
D12*
X53479700Y-129921000D03*
D13*
X53479700Y-137541000D03*
D12*
X85156040Y-59359800D03*
X87656040Y-59359800D03*
X63535560Y-111257080D03*
X61035560Y-111257080D03*
D14*
X63538100Y-129552700D03*
D11*
X60998100Y-129552700D03*
D12*
X52946300Y-71691500D03*
D13*
X52946300Y-79311500D03*
D14*
X63538100Y-138582400D03*
D11*
X60998100Y-138582400D03*
D14*
X63538100Y-133997700D03*
D11*
X60998100Y-133997700D03*
D15*
X146657060Y-114861340D03*
D16*
X146657060Y-119941340D03*
D15*
X147116800Y-70408800D03*
D16*
X147116800Y-75488800D03*
D12*
X113436400Y-140985240D03*
X110936400Y-140985240D03*
X101727000Y-141224000D03*
X99227000Y-141224000D03*
X89077800Y-140970000D03*
X86577800Y-140970000D03*
X77231240Y-141046200D03*
X74731240Y-141046200D03*
X74488040Y-59359800D03*
X76988040Y-59359800D03*
X97454720Y-59065160D03*
X99954720Y-59065160D03*
X109611160Y-59151520D03*
X112111160Y-59151520D03*
X121762520Y-58618120D03*
X124262520Y-58618120D03*
X135620760Y-140705840D03*
X133120760Y-140705840D03*
X59334400Y-59283600D03*
D13*
X51714400Y-59283600D03*
D15*
X147116800Y-59740800D03*
D16*
X147116800Y-64820800D03*
D17*
X147000000Y-53000000D03*
X53000000Y-147000000D03*
D12*
X52920900Y-69596000D03*
D13*
X52920900Y-61976000D03*
D14*
X63538100Y-125031500D03*
D11*
X60998100Y-125031500D03*
D14*
X63512700Y-120535700D03*
D11*
X60972700Y-120535700D03*
D14*
X61800000Y-81200000D03*
D11*
X59260000Y-81200000D03*
D14*
X61800000Y-76600000D03*
D11*
X59260000Y-76600000D03*
D14*
X61800000Y-72000000D03*
D11*
X59260000Y-72000000D03*
D12*
X56667400Y-130048000D03*
D13*
X56667400Y-137668000D03*
D12*
X53644800Y-127025400D03*
D13*
X53644800Y-119405400D03*
D12*
X56730900Y-126949200D03*
D13*
X56730900Y-119329200D03*
D12*
X56273700Y-116624100D03*
D13*
X63893700Y-116624100D03*
D12*
X55525000Y-79325000D03*
D13*
X55525000Y-71705000D03*
D12*
X55475000Y-69625000D03*
D13*
X55475000Y-62005000D03*
D18*
X119329200Y-84734400D03*
X123829200Y-84734400D03*
X114829200Y-84734400D03*
X102000000Y-84500000D03*
X106500000Y-84500000D03*
X97500000Y-84500000D03*
X84100000Y-84800000D03*
X88600000Y-84800000D03*
X79600000Y-84800000D03*
X86680040Y-115559840D03*
X82180040Y-115559840D03*
X91180040Y-115559840D03*
X102224840Y-115366800D03*
X97724840Y-115366800D03*
X106724840Y-115366800D03*
X117922040Y-115519200D03*
X113422040Y-115519200D03*
X122422040Y-115519200D03*
D14*
X61800000Y-67600000D03*
D11*
X59260000Y-67600000D03*
D14*
X61800000Y-63200000D03*
D11*
X59260000Y-63200000D03*
D18*
X72263000Y-116205000D03*
X67763000Y-116205000D03*
X76763000Y-116205000D03*
D15*
X146710400Y-140817600D03*
D16*
X146710400Y-135737600D03*
D15*
X146812000Y-130352800D03*
D16*
X146812000Y-125272800D03*
D15*
X146723100Y-85839300D03*
D16*
X146723100Y-80759300D03*
D18*
X133756400Y-84734400D03*
X129256400Y-84734400D03*
X138256400Y-84734400D03*
D19*
X54864000Y-111061500D03*
D20*
X52324000Y-111061500D03*
X54864000Y-108521500D03*
X52324000Y-108521500D03*
X54864000Y-105981500D03*
X52324000Y-105981500D03*
X54864000Y-103441500D03*
X52324000Y-103441500D03*
X54864000Y-100901500D03*
X52324000Y-100901500D03*
X54864000Y-98361500D03*
X52324000Y-98361500D03*
X54864000Y-95821500D03*
X52324000Y-95821500D03*
X54864000Y-93281500D03*
X52324000Y-93281500D03*
X54864000Y-90741500D03*
X52324000Y-90741500D03*
X54864000Y-88201500D03*
X52324000Y-88201500D03*
D12*
X125003560Y-140817600D03*
X122503560Y-140817600D03*
X133162040Y-58785760D03*
X135662040Y-58785760D03*
X63652400Y-88011000D03*
X61152400Y-88011000D03*
X63601600Y-90627200D03*
X61101600Y-90627200D03*
X63652400Y-93141800D03*
X61152400Y-93141800D03*
X63601600Y-95935800D03*
X61101600Y-95935800D03*
X63652400Y-98399600D03*
X61152400Y-98399600D03*
X63601600Y-101041200D03*
X61101600Y-101041200D03*
X63627000Y-103632000D03*
X61127000Y-103632000D03*
X63627000Y-106146600D03*
X61127000Y-106146600D03*
X63591440Y-108686600D03*
X61091440Y-108686600D03*
D21*
X58790840Y-148859240D03*
X58790840Y-143859240D03*
X62191900Y-148805900D03*
X62191900Y-143805900D03*
X56121300Y-141401800D03*
X51121300Y-141401800D03*
D17*
X147000000Y-147000000D03*
D22*
X93094800Y-109968800D03*
X96094800Y-109968800D03*
X99094800Y-109968800D03*
X102094800Y-109968800D03*
X93094800Y-102365800D03*
X96094800Y-102365800D03*
X99094800Y-102365800D03*
X102094800Y-102365800D03*
D23*
X97594800Y-109968800D03*
X97594800Y-102365800D03*
D24*
X89840800Y-106476800D03*
X105460800Y-106476800D03*
D22*
X112271800Y-110146600D03*
X115271800Y-110146600D03*
X118271800Y-110146600D03*
X121271800Y-110146600D03*
X112271800Y-102543600D03*
X115271800Y-102543600D03*
X118271800Y-102543600D03*
X121271800Y-102543600D03*
D23*
X116771800Y-110146600D03*
X116771800Y-102543600D03*
D24*
X109017800Y-106654600D03*
X124637800Y-106654600D03*
D22*
X131461500Y-110108500D03*
X134461500Y-110108500D03*
X137461500Y-110108500D03*
X140461500Y-110108500D03*
X131461500Y-102505500D03*
X134461500Y-102505500D03*
X137461500Y-102505500D03*
X140461500Y-102505500D03*
D23*
X135961500Y-110108500D03*
X135961500Y-102505500D03*
D24*
X128207500Y-106616500D03*
X143827500Y-106616500D03*
D22*
X73841600Y-110019600D03*
X76841600Y-110019600D03*
X79841600Y-110019600D03*
X82841600Y-110019600D03*
X73841600Y-102416600D03*
X76841600Y-102416600D03*
X79841600Y-102416600D03*
X82841600Y-102416600D03*
D23*
X78341600Y-110019600D03*
X78341600Y-102416600D03*
D24*
X70587600Y-106527600D03*
X86207600Y-106527600D03*
D22*
X81860400Y-90488000D03*
X78860400Y-90488000D03*
X75860400Y-90488000D03*
X72860400Y-90488000D03*
X81860400Y-98091000D03*
X78860400Y-98091000D03*
X75860400Y-98091000D03*
X72860400Y-98091000D03*
D23*
X77360400Y-90488000D03*
X77360400Y-98091000D03*
D24*
X85114400Y-93980000D03*
X69494400Y-93980000D03*
D22*
X100946000Y-90508000D03*
X97946000Y-90508000D03*
X94946000Y-90508000D03*
X91946000Y-90508000D03*
X100946000Y-98111000D03*
X97946000Y-98111000D03*
X94946000Y-98111000D03*
X91946000Y-98111000D03*
D23*
X96446000Y-90508000D03*
X96446000Y-98111000D03*
D24*
X104200000Y-94000000D03*
X88580000Y-94000000D03*
D22*
X120011200Y-90488000D03*
X117011200Y-90488000D03*
X114011200Y-90488000D03*
X111011200Y-90488000D03*
X120011200Y-98091000D03*
X117011200Y-98091000D03*
X114011200Y-98091000D03*
X111011200Y-98091000D03*
D23*
X115511200Y-90488000D03*
X115511200Y-98091000D03*
D24*
X123265200Y-93980000D03*
X107645200Y-93980000D03*
D22*
X139315200Y-90538800D03*
X136315200Y-90538800D03*
X133315200Y-90538800D03*
X130315200Y-90538800D03*
X139315200Y-98141800D03*
X136315200Y-98141800D03*
X133315200Y-98141800D03*
X130315200Y-98141800D03*
D23*
X134815200Y-90538800D03*
X134815200Y-98141800D03*
D24*
X142569200Y-94030800D03*
X126949200Y-94030800D03*
D17*
X53000000Y-53000000D03*
D11*
X130479640Y-129710200D03*
X130479640Y-119550200D03*
X130479640Y-124630200D03*
X138079640Y-124630200D03*
X138079640Y-129710200D03*
X138079640Y-119550200D03*
X130479640Y-137330200D03*
X138079640Y-137330200D03*
X118996300Y-129748300D03*
X118996300Y-119588300D03*
X118996300Y-124668300D03*
X126596300Y-124668300D03*
X126596300Y-129748300D03*
X126596300Y-119588300D03*
X118996300Y-137368300D03*
X126596300Y-137368300D03*
X138135520Y-69557880D03*
X138135520Y-79717880D03*
X138135520Y-74637880D03*
X130535520Y-74637880D03*
X130535520Y-69557880D03*
X130535520Y-79717880D03*
X138135520Y-61937880D03*
X130535520Y-61937880D03*
X126233080Y-69557880D03*
X126233080Y-79717880D03*
X126233080Y-74637880D03*
X118633080Y-74637880D03*
X118633080Y-69557880D03*
X118633080Y-79717880D03*
X126233080Y-61937880D03*
X118633080Y-61937880D03*
X114366200Y-69898240D03*
X114366200Y-80058240D03*
X114366200Y-74978240D03*
X106766200Y-74978240D03*
X106766200Y-69898240D03*
X106766200Y-80058240D03*
X114366200Y-62278240D03*
X106766200Y-62278240D03*
X90469880Y-70228440D03*
X90469880Y-80388440D03*
X90469880Y-75308440D03*
X82869880Y-75308440D03*
X82869880Y-70228440D03*
X82869880Y-80388440D03*
X90469880Y-62608440D03*
X82869880Y-62608440D03*
X78971300Y-70314800D03*
X78971300Y-80474800D03*
X78971300Y-75394800D03*
X71371300Y-75394800D03*
X71371300Y-70314800D03*
X71371300Y-80474800D03*
X78971300Y-62694800D03*
X71371300Y-62694800D03*
X83642040Y-129786400D03*
X83642040Y-119626400D03*
X83642040Y-124706400D03*
X91242040Y-124706400D03*
X91242040Y-129786400D03*
X91242040Y-119626400D03*
X83642040Y-137406400D03*
X91242040Y-137406400D03*
X95641000Y-129634000D03*
X95641000Y-119474000D03*
X95641000Y-124554000D03*
X103241000Y-124554000D03*
X103241000Y-129634000D03*
X103241000Y-119474000D03*
X95641000Y-137254000D03*
X103241000Y-137254000D03*
X107579000Y-129761000D03*
X107579000Y-119601000D03*
X107579000Y-124681000D03*
X115179000Y-124681000D03*
X115179000Y-129761000D03*
X115179000Y-119601000D03*
X107579000Y-137381000D03*
X115179000Y-137381000D03*
X102595840Y-69893160D03*
X102595840Y-80053160D03*
X102595840Y-74973160D03*
X94995840Y-74973160D03*
X94995840Y-69893160D03*
X94995840Y-80053160D03*
X102595840Y-62273160D03*
X94995840Y-62273160D03*
D25*
X128638300Y-123240800D03*
X131483100Y-116459000D03*
X138506200Y-115595400D03*
X128422400Y-75387200D03*
X128397000Y-80937100D03*
X142875000Y-51981100D03*
X139725400Y-51955700D03*
X138633200Y-146989800D03*
X141579600Y-146913600D03*
D26*
X104160320Y-56001920D03*
X123977400Y-144018000D03*
X115290600Y-55438040D03*
D27*
X138135520Y-69557880D02*
X130535520Y-69557880D01*
X138135520Y-69557880D02*
X142290780Y-69557880D01*
X143332200Y-77368400D02*
X146723100Y-80759300D01*
X143332200Y-70599300D02*
X143332200Y-77368400D01*
X142290780Y-69557880D02*
X143332200Y-70599300D01*
X146657060Y-119941340D02*
X146657060Y-121363740D01*
X130315200Y-98141800D02*
X130315200Y-101359200D01*
X130315200Y-101359200D02*
X131461500Y-102505500D01*
X146723100Y-80759300D02*
X146977100Y-80759300D01*
X146977100Y-80759300D02*
X149352000Y-82804000D01*
X149352000Y-82804000D02*
X149352000Y-108966000D01*
X72860400Y-98091000D02*
X73647800Y-102222800D01*
X73647800Y-102222800D02*
X73841600Y-102416600D01*
X77360400Y-98091000D02*
X91768200Y-98288800D01*
X91768200Y-98288800D02*
X91946000Y-98111000D01*
X82841600Y-102416600D02*
X93044000Y-102416600D01*
X93044000Y-102416600D02*
X93094800Y-102365800D01*
X81860400Y-98091000D02*
X82647800Y-102222800D01*
X82647800Y-102222800D02*
X82841600Y-102416600D01*
X91946000Y-98111000D02*
X93256600Y-102204000D01*
X93256600Y-102204000D02*
X93094800Y-102365800D01*
X100946000Y-98111000D02*
X102256600Y-102204000D01*
X102256600Y-102204000D02*
X102094800Y-102365800D01*
X111011200Y-98091000D02*
X112433600Y-102381800D01*
X112433600Y-102381800D02*
X112271800Y-102543600D01*
X102094800Y-102365800D02*
X116619400Y-102391200D01*
X116619400Y-102391200D02*
X116771800Y-102543600D01*
X96446000Y-98111000D02*
X110935000Y-98014800D01*
X110935000Y-98014800D02*
X111011200Y-98091000D01*
X121271800Y-102543600D02*
X135948800Y-102518200D01*
X135948800Y-102518200D02*
X135961500Y-102505500D01*
X120011200Y-98091000D02*
X121433600Y-102381800D01*
X121433600Y-102381800D02*
X121271800Y-102543600D01*
X130315200Y-98141800D02*
X120239800Y-97862400D01*
X120239800Y-97862400D02*
X120011200Y-98091000D01*
X140461500Y-102505500D02*
X143272500Y-102505500D01*
X149352000Y-117551200D02*
X146657060Y-119941340D01*
X149352000Y-108966000D02*
X149352000Y-117551200D01*
X146265900Y-104241600D02*
X149352000Y-108966000D01*
X146265900Y-103860600D02*
X146265900Y-104241600D01*
X143272500Y-102505500D02*
X146265900Y-103860600D01*
X140461500Y-102505500D02*
X140461500Y-102162500D01*
X140461500Y-102162500D02*
X140496300Y-102127700D01*
X140496300Y-102127700D02*
X139315200Y-98141800D01*
D28*
X146657060Y-119941340D02*
X146809460Y-119941340D01*
D27*
X103649760Y-129634000D02*
X105511600Y-128905000D01*
X105511600Y-128905000D02*
X105511600Y-123698000D01*
X105511600Y-123698000D02*
X106532680Y-122041920D01*
X106532680Y-122041920D02*
X109077760Y-122041920D01*
X114752120Y-117683280D02*
X116916200Y-115519200D01*
X113436400Y-117683280D02*
X114752120Y-117683280D01*
X109077760Y-122041920D02*
X113436400Y-117683280D01*
X103241000Y-129634000D02*
X95641000Y-129634000D01*
X116916200Y-115519200D02*
X117922040Y-115519200D01*
X124637800Y-106654600D02*
X124587000Y-111188500D01*
X124587000Y-111188500D02*
X118372040Y-115519200D01*
X122422040Y-115519200D02*
X123022040Y-115319200D01*
X127698500Y-112204500D02*
X128207500Y-106616500D01*
X123022040Y-115319200D02*
X127698500Y-112204500D01*
X91242040Y-129786400D02*
X83642040Y-129786400D01*
X91242040Y-129786400D02*
X91701600Y-129786400D01*
X91701600Y-129786400D02*
X93268800Y-127711200D01*
X93268800Y-127711200D02*
X93268800Y-122986800D01*
X93268800Y-122986800D02*
X94805500Y-121958100D01*
X100050600Y-117541040D02*
X102224840Y-115366800D01*
X100050600Y-120472200D02*
X100050600Y-117541040D01*
X98564700Y-121958100D02*
X100050600Y-120472200D01*
X102224840Y-115366800D02*
X102374840Y-114866800D01*
X105277920Y-111871760D02*
X105460800Y-106476800D01*
X102374840Y-114866800D02*
X105277920Y-111871760D01*
X102707440Y-114884200D02*
X102224840Y-115366800D01*
X94805500Y-121958100D02*
X98564700Y-121958100D01*
X109017800Y-106654600D02*
X109017800Y-107482200D01*
X109017800Y-107482200D02*
X108407200Y-110083600D01*
X108407200Y-110083600D02*
X106724840Y-115366800D01*
X79573280Y-129766080D02*
X71973280Y-129766080D01*
X86680040Y-115559840D02*
X86680040Y-116138960D01*
X86680040Y-116138960D02*
X85344000Y-117475000D01*
X81534000Y-127805360D02*
X79573280Y-129766080D01*
X81534000Y-118465600D02*
X81534000Y-127805360D01*
X82524600Y-117475000D02*
X81534000Y-118465600D01*
X85344000Y-117475000D02*
X82524600Y-117475000D01*
X86680040Y-115559840D02*
X86680040Y-116159280D01*
X86680040Y-115559840D02*
X86466680Y-115559840D01*
X86207600Y-106527600D02*
X86095840Y-114975640D01*
X86095840Y-114975640D02*
X86680040Y-115559840D01*
X91242040Y-124706400D02*
X91242040Y-124480160D01*
X89840800Y-106476800D02*
X89917000Y-114423800D01*
X89917000Y-114423800D02*
X91180040Y-115559840D01*
X78971300Y-70314800D02*
X71371300Y-70314800D01*
X69189600Y-77995780D02*
X69494400Y-72651440D01*
X69494400Y-72651440D02*
X71371300Y-70314800D01*
X69189600Y-94170500D02*
X69189600Y-77995780D01*
X72263000Y-116205000D02*
X71577200Y-116205000D01*
X71577200Y-116205000D02*
X67869140Y-112261760D01*
X67869140Y-112261760D02*
X67528440Y-99197160D01*
X67528440Y-99197160D02*
X69189600Y-94170500D01*
X78971300Y-70314800D02*
X79644220Y-70314800D01*
X78971300Y-70074800D02*
X79155300Y-70074800D01*
X76763000Y-116205000D02*
X76763000Y-116031400D01*
X76763000Y-116031400D02*
X74625200Y-114147600D01*
X70799960Y-111760000D02*
X70587600Y-106527600D01*
X72400000Y-113360200D02*
X70799960Y-111760000D01*
X74625200Y-114147600D02*
X72400000Y-113360200D01*
X84100000Y-84800000D02*
X84036500Y-84800000D01*
X84036500Y-84800000D02*
X88200000Y-88100000D01*
X88200000Y-88100000D02*
X88580000Y-94000000D01*
X88935600Y-93644400D02*
X88580000Y-94000000D01*
X78971300Y-75074800D02*
X78971300Y-75244800D01*
X79600000Y-84800000D02*
X79600000Y-85172500D01*
X79600000Y-85172500D02*
X84900000Y-88100000D01*
X84900000Y-88100000D02*
X85114400Y-93980000D01*
X84958800Y-93824400D02*
X85114400Y-93980000D01*
X94995840Y-69893160D02*
X102595840Y-69893160D01*
X102595840Y-69893160D02*
X100642440Y-69893160D01*
X100050600Y-82550600D02*
X102000000Y-84500000D01*
X100050600Y-70485000D02*
X100050600Y-82550600D01*
X100642440Y-69893160D02*
X100050600Y-70485000D01*
X102000000Y-84500000D02*
X103100000Y-84500000D01*
X103100000Y-84500000D02*
X106490003Y-88955432D01*
X106490003Y-88955432D02*
X107645200Y-93980000D01*
X104200000Y-94000000D02*
X104000000Y-89400000D01*
X99700000Y-86700000D02*
X97500000Y-84500000D01*
X102300000Y-87400000D02*
X99700000Y-86700000D01*
X104000000Y-89400000D02*
X102300000Y-87400000D01*
X97500000Y-84500000D02*
X97500000Y-85200000D01*
X104311100Y-93888900D02*
X104200000Y-94000000D01*
X97500000Y-84500000D02*
X97500000Y-84902200D01*
X119329200Y-84734400D02*
X119329200Y-85598000D01*
X126715520Y-89651840D02*
X126949200Y-94030800D01*
X123525280Y-87030560D02*
X126715520Y-89651840D01*
X122976640Y-86766400D02*
X123525280Y-87030560D01*
X119329200Y-85598000D02*
X122976640Y-86766400D01*
X114366200Y-69658240D02*
X114366200Y-69842540D01*
X114829200Y-84734400D02*
X114829200Y-85568400D01*
X114829200Y-85568400D02*
X117390783Y-87480387D01*
X117390783Y-87480387D02*
X120985280Y-87924640D01*
X120985280Y-87924640D02*
X123240800Y-89347040D01*
X123240800Y-89347040D02*
X123265200Y-93980000D01*
X114829200Y-84734400D02*
X115620800Y-84734400D01*
X116035700Y-84683600D02*
X115972200Y-84565100D01*
X103241000Y-119474000D02*
X103241000Y-118780400D01*
X103241000Y-118780400D02*
X104861360Y-117657880D01*
X104861360Y-117657880D02*
X109357160Y-117657880D01*
X109357160Y-117657880D02*
X110586520Y-116428520D01*
X110586520Y-116428520D02*
X110586520Y-111831880D01*
X110586520Y-111831880D02*
X112271800Y-110146600D01*
X111475000Y-110943400D02*
X112271800Y-110146600D01*
X103241000Y-119874000D02*
X103417400Y-119874000D01*
X79573280Y-119606080D02*
X79573280Y-110287920D01*
X79573280Y-110287920D02*
X79841600Y-110019600D01*
X71973280Y-119606080D02*
X79573280Y-119606080D01*
X79573280Y-120006080D02*
X79201040Y-120102600D01*
X90469880Y-80388440D02*
X91821000Y-85090000D01*
X91821000Y-85090000D02*
X91946000Y-90508000D01*
X90469880Y-79988440D02*
X82869880Y-79988440D01*
X90469880Y-79988440D02*
X90469880Y-80599440D01*
X91242040Y-119626400D02*
X91564440Y-119626400D01*
X91564440Y-119626400D02*
X94335600Y-116855240D01*
X94335600Y-116855240D02*
X94335600Y-111728000D01*
X94335600Y-111728000D02*
X96094800Y-109968800D01*
X91242040Y-120026400D02*
X83642040Y-120026400D01*
X91242040Y-120026400D02*
X91242040Y-119847200D01*
X73258680Y-80474800D02*
X73258680Y-86386280D01*
X73258680Y-86386280D02*
X77360400Y-90488000D01*
X78971300Y-80474800D02*
X73258680Y-80474800D01*
X73258680Y-80474800D02*
X71371300Y-80474800D01*
X78971300Y-80474800D02*
X78247260Y-80474800D01*
X73015000Y-90333400D02*
X72860400Y-90488000D01*
X111011200Y-90488000D02*
X109575600Y-84378800D01*
X109575600Y-84378800D02*
X107990640Y-82397600D01*
X102595840Y-79653160D02*
X103026240Y-79653160D01*
X103026240Y-79653160D02*
X103936800Y-82341720D01*
X103936800Y-82341720D02*
X107990640Y-82397600D01*
X126233080Y-79717880D02*
X118633080Y-79717880D01*
D29*
X56667400Y-137668000D02*
X57277000Y-137668000D01*
X57277000Y-137668000D02*
X59969400Y-142036800D01*
X109443520Y-144871440D02*
X113436400Y-140985240D01*
X68783200Y-144881600D02*
X109443520Y-144871440D01*
X64262000Y-142036800D02*
X68783200Y-144881600D01*
X59969400Y-142036800D02*
X64262000Y-142036800D01*
X53479700Y-137541000D02*
X53479700Y-136994900D01*
X53479700Y-136994900D02*
X54406800Y-136067800D01*
X101086920Y-144170400D02*
X101727000Y-141224000D01*
X98018600Y-144170400D02*
X101086920Y-144170400D01*
X69138800Y-144170400D02*
X98018600Y-144170400D01*
X64414842Y-141293998D02*
X69138800Y-144170400D01*
X60833000Y-141274800D02*
X64414842Y-141293998D01*
X59283600Y-139725400D02*
X60833000Y-141274800D01*
X59283600Y-136829800D02*
X59283600Y-139725400D01*
X58521600Y-136067800D02*
X59283600Y-136829800D01*
X54406800Y-136067800D02*
X58521600Y-136067800D01*
X53644800Y-119405400D02*
X53644800Y-119532400D01*
X53644800Y-119532400D02*
X56261000Y-123139200D01*
X87680800Y-143601440D02*
X89077800Y-140970000D01*
X69357820Y-143611600D02*
X87680800Y-143601440D01*
X64973200Y-140893800D02*
X69357820Y-143611600D01*
X64973200Y-123190000D02*
X64973200Y-140893800D01*
X64008000Y-123139200D02*
X64973200Y-123190000D01*
X56261000Y-123139200D02*
X64008000Y-123139200D01*
X53644800Y-119405400D02*
X53644800Y-119329200D01*
X53644800Y-119405400D02*
X53644800Y-119595900D01*
X56730900Y-119329200D02*
X56730900Y-120967500D01*
X77216000Y-142768320D02*
X77231240Y-141046200D01*
X71365202Y-142798800D02*
X77216000Y-142768320D01*
X69237675Y-142798800D02*
X71365202Y-142798800D01*
X65639327Y-140598170D02*
X69237675Y-142798800D01*
X65623743Y-122976943D02*
X65639327Y-140598170D01*
X65151000Y-122504200D02*
X65623743Y-122976943D01*
X58267600Y-122504200D02*
X65151000Y-122504200D01*
X56730900Y-120967500D02*
X58267600Y-122504200D01*
X56730900Y-119329200D02*
X56730900Y-119405400D01*
X63601600Y-101041200D02*
X64104520Y-101041200D01*
X55525000Y-71705000D02*
X55525000Y-72008400D01*
X55525000Y-72008400D02*
X53873400Y-73660000D01*
X81813400Y-56413400D02*
X85156040Y-59359800D01*
X81457800Y-56489600D02*
X81813400Y-56413400D01*
X58801000Y-56489600D02*
X81457800Y-56489600D01*
X54203600Y-60401200D02*
X58801000Y-56489600D01*
X54203600Y-63195200D02*
X54203600Y-60401200D01*
X51155600Y-66243200D02*
X54203600Y-63195200D01*
X51155600Y-72567800D02*
X51155600Y-66243200D01*
X52247800Y-73660000D02*
X51155600Y-72567800D01*
X53873400Y-73660000D02*
X52247800Y-73660000D01*
X52946300Y-79311500D02*
X52362100Y-79311500D01*
X52362100Y-79311500D02*
X50292000Y-77851000D01*
X89331800Y-55778400D02*
X97454720Y-59065160D01*
X58724800Y-55778400D02*
X89331800Y-55778400D01*
X53136800Y-60350400D02*
X58724800Y-55778400D01*
X52247800Y-60350400D02*
X53136800Y-60350400D01*
X50292000Y-61087000D02*
X52247800Y-60350400D01*
X50292000Y-77851000D02*
X50292000Y-61087000D01*
X52946300Y-79311500D02*
X52946300Y-79286100D01*
X104160320Y-56001920D02*
X107143000Y-61901440D01*
X107143000Y-61901440D02*
X106766200Y-62278240D01*
D28*
X62191900Y-143805900D02*
X62335400Y-143805900D01*
X51121300Y-141401800D02*
X51130200Y-141401800D01*
X51130200Y-141401800D02*
X52971700Y-139560300D01*
X58790840Y-141544040D02*
X58790840Y-143859240D01*
X56807100Y-139560300D02*
X58790840Y-141544040D01*
X52971700Y-139560300D02*
X56807100Y-139560300D01*
X60998100Y-133997700D02*
X60998100Y-138582400D01*
X60998100Y-133997700D02*
X60998100Y-129552700D01*
X60998100Y-125031500D02*
X60998100Y-129552700D01*
X60972700Y-125006100D02*
X60998100Y-125031500D01*
X60972700Y-120535700D02*
X60972700Y-111319940D01*
X60972700Y-111319940D02*
X61035560Y-111257080D01*
X51121300Y-141401800D02*
X51386740Y-141401800D01*
X51384200Y-137414000D02*
X51536600Y-140986500D01*
X51536600Y-140986500D02*
X51121300Y-141401800D01*
X59260000Y-67600000D02*
X59254920Y-71994920D01*
X59254920Y-71994920D02*
X59260000Y-72000000D01*
X53649880Y-86720680D02*
X54076600Y-86720680D01*
X54076600Y-86720680D02*
X59260000Y-81200000D01*
X59183800Y-76523800D02*
X59260000Y-76600000D01*
D29*
X52324000Y-88201500D02*
X52324000Y-87630000D01*
D28*
X52324000Y-111061500D02*
X52324000Y-113792000D01*
X52324000Y-113792000D02*
X51384200Y-115290600D01*
X62191900Y-143805900D02*
X58844180Y-143805900D01*
X58844180Y-143805900D02*
X58790840Y-143859240D01*
X62217300Y-143780500D02*
X62191900Y-143805900D01*
D29*
X52324000Y-88046560D02*
X53649880Y-86720680D01*
X53649880Y-86720680D02*
X53812440Y-86558120D01*
X53812440Y-86558120D02*
X59699520Y-86558120D01*
X59699520Y-86558120D02*
X61152400Y-88011000D01*
X59336200Y-81123800D02*
X59260000Y-81200000D01*
X59219360Y-76559360D02*
X59260000Y-76600000D01*
X52324000Y-111061500D02*
X52331620Y-111061500D01*
X52331620Y-111061500D02*
X53588920Y-109804200D01*
X59582680Y-109804200D02*
X61035560Y-111257080D01*
X53588920Y-109804200D02*
X59582680Y-109804200D01*
X52324000Y-108521500D02*
X52552600Y-108521500D01*
X52552600Y-108521500D02*
X53840380Y-107233720D01*
X59638560Y-107233720D02*
X61091440Y-108686600D01*
X53840380Y-107233720D02*
X59638560Y-107233720D01*
X52324000Y-105981500D02*
X52410360Y-105981500D01*
X52410360Y-105981500D02*
X53672740Y-104719120D01*
X59699520Y-104719120D02*
X61127000Y-106146600D01*
X53672740Y-104719120D02*
X59699520Y-104719120D01*
X52324000Y-100901500D02*
X52377340Y-100901500D01*
X52377340Y-100901500D02*
X53672740Y-99606100D01*
X59666500Y-99606100D02*
X61101600Y-101041200D01*
X53672740Y-99606100D02*
X59666500Y-99606100D01*
X52324000Y-103441500D02*
X52631340Y-103441500D01*
X52631340Y-103441500D02*
X53868320Y-102204520D01*
X59699520Y-102204520D02*
X61127000Y-103632000D01*
X53868320Y-102204520D02*
X59699520Y-102204520D01*
X52324000Y-98361500D02*
X52738020Y-98361500D01*
X52738020Y-98361500D02*
X54035960Y-97063560D01*
X59816360Y-97063560D02*
X61152400Y-98399600D01*
X54035960Y-97063560D02*
X59816360Y-97063560D01*
X52324000Y-95821500D02*
X52324000Y-95562420D01*
X52324000Y-95562420D02*
X53309520Y-94576900D01*
X59742700Y-94576900D02*
X61101600Y-95935800D01*
X53309520Y-94576900D02*
X59742700Y-94576900D01*
X52324000Y-93281500D02*
X52324000Y-93159580D01*
X52324000Y-93159580D02*
X53505100Y-91978480D01*
X59989080Y-91978480D02*
X61152400Y-93141800D01*
X53505100Y-91978480D02*
X59989080Y-91978480D01*
X52324000Y-90741500D02*
X52451000Y-90741500D01*
X52451000Y-90741500D02*
X53700680Y-89491820D01*
X59966220Y-89491820D02*
X61101600Y-90627200D01*
X53700680Y-89491820D02*
X59966220Y-89491820D01*
X52324000Y-88201500D02*
X52324000Y-88046560D01*
D28*
X52324000Y-108521500D02*
X52324000Y-111061500D01*
X52324000Y-105981500D02*
X52324000Y-108521500D01*
X52324000Y-103441500D02*
X52324000Y-105981500D01*
X52324000Y-100901500D02*
X52324000Y-103441500D01*
X52324000Y-98361500D02*
X52324000Y-100901500D01*
X52324000Y-95821500D02*
X52324000Y-98361500D01*
X52324000Y-93281500D02*
X52324000Y-95821500D01*
X52324000Y-90741500D02*
X52324000Y-93281500D01*
X52324000Y-88201500D02*
X52324000Y-90741500D01*
X58801000Y-143849080D02*
X58790840Y-143859240D01*
X61091440Y-108686600D02*
X61091440Y-111201200D01*
X61091440Y-111201200D02*
X61035560Y-111257080D01*
X61127000Y-106146600D02*
X61127000Y-108651040D01*
X61127000Y-108651040D02*
X61091440Y-108686600D01*
X61127000Y-103632000D02*
X61127000Y-106146600D01*
X61101600Y-103606600D02*
X61127000Y-103632000D01*
X61101600Y-101041200D02*
X61101600Y-103606600D01*
X61152400Y-100990400D02*
X61101600Y-101041200D01*
X61152400Y-98399600D02*
X61152400Y-100990400D01*
X61101600Y-98348800D02*
X61152400Y-98399600D01*
X61101600Y-95935800D02*
X61101600Y-98348800D01*
X61152400Y-95885000D02*
X61101600Y-95935800D01*
X61152400Y-93141800D02*
X61152400Y-95885000D01*
X61101600Y-93091000D02*
X61152400Y-93141800D01*
X61101600Y-90627200D02*
X61101600Y-93091000D01*
X61152400Y-90576400D02*
X61101600Y-90627200D01*
X61152400Y-88011000D02*
X61152400Y-90576400D01*
D29*
X61152400Y-88011000D02*
X61152400Y-87691600D01*
D28*
X51384200Y-115290600D02*
X51384200Y-137414000D01*
D29*
X55525000Y-79325000D02*
X60604400Y-79349600D01*
X60604400Y-79349600D02*
X61800000Y-81047600D01*
X61800000Y-81047600D02*
X61800000Y-81200000D01*
X52946300Y-71691500D02*
X53403500Y-71691500D01*
X55475000Y-69625000D02*
X56059200Y-69625000D01*
X55475000Y-69625000D02*
X55475000Y-69167800D01*
X124444760Y-142773400D02*
X125003560Y-140817600D01*
X123977400Y-144018000D02*
X124444760Y-142773400D01*
D28*
X125003560Y-140817600D02*
X125003560Y-141198600D01*
X125003560Y-141198600D02*
X128549400Y-143134080D01*
X134264400Y-143179800D02*
X135620760Y-140705840D01*
X128549400Y-143134080D02*
X134264400Y-143179800D01*
D29*
X115288400Y-55440240D02*
X118633080Y-61937880D01*
X115290600Y-55438040D02*
X115288400Y-55440240D01*
D28*
X118633080Y-61937880D02*
X118633080Y-61546880D01*
X118633080Y-61546880D02*
X119877840Y-60208160D01*
X129147040Y-60238640D02*
X130535520Y-61937880D01*
X119877840Y-60208160D02*
X129147040Y-60238640D01*
D29*
X52920900Y-69596000D02*
X53073300Y-67271900D01*
X59928760Y-65405000D02*
X61800000Y-67600000D01*
X54940200Y-65405000D02*
X59928760Y-65405000D01*
X53073300Y-67271900D02*
X54940200Y-65405000D01*
X61800000Y-67600000D02*
X61800000Y-68351840D01*
D27*
X113422040Y-115519200D02*
X112972040Y-115519200D01*
X126596300Y-124668300D02*
X118996300Y-124668300D01*
X126596300Y-124668300D02*
X126596300Y-125453300D01*
X126596300Y-125453300D02*
X128574800Y-127127000D01*
X143891000Y-137998200D02*
X146710400Y-140817600D01*
X143891000Y-136347200D02*
X143891000Y-137998200D01*
X140817600Y-133273800D02*
X143891000Y-136347200D01*
X140817600Y-129209800D02*
X140817600Y-133273800D01*
X138734800Y-127127000D02*
X140817600Y-129209800D01*
X128574800Y-127127000D02*
X138734800Y-127127000D01*
X118828660Y-124835940D02*
X118996300Y-124668300D01*
X128638300Y-123240800D02*
X128638300Y-123698000D01*
X128638300Y-123698000D02*
X129456200Y-124630200D01*
X129456200Y-124630200D02*
X130479640Y-124630200D01*
X130479640Y-124630200D02*
X138079640Y-124630200D01*
X138079640Y-124630200D02*
X139209800Y-124630200D01*
X142392400Y-131419600D02*
X146710400Y-135737600D01*
X142392400Y-127812800D02*
X142392400Y-131419600D01*
X139209800Y-124630200D02*
X142392400Y-127812800D01*
X126596300Y-119588300D02*
X126939200Y-120792400D01*
X143560800Y-127101600D02*
X146812000Y-130352800D01*
X143560800Y-125628400D02*
X143560800Y-127101600D01*
X139814300Y-121564400D02*
X143560800Y-125628400D01*
X128028700Y-121564400D02*
X139814300Y-121564400D01*
X126939200Y-120792400D02*
X128028700Y-121564400D01*
X126596300Y-119988300D02*
X118996300Y-119988300D01*
X131483100Y-116459000D02*
X131483100Y-118546740D01*
X131483100Y-118546740D02*
X130479640Y-119550200D01*
X138981200Y-119550200D02*
X142181600Y-119550200D01*
X143281400Y-121742200D02*
X146812000Y-125272800D01*
X143281400Y-120650000D02*
X143281400Y-121742200D01*
X142181600Y-119550200D02*
X143281400Y-120650000D01*
X130479640Y-119550200D02*
X138079640Y-119550200D01*
X138079640Y-119550200D02*
X138981200Y-119550200D01*
X136410700Y-82854800D02*
X143332200Y-82854800D01*
X126233080Y-69557880D02*
X118633080Y-69557880D01*
X126233080Y-69557880D02*
X126631680Y-69557880D01*
X126631680Y-69557880D02*
X129235200Y-72161400D01*
X129235200Y-72161400D02*
X133883400Y-72161400D01*
X133883400Y-72161400D02*
X133756400Y-72288400D01*
X133756400Y-72288400D02*
X133756400Y-84734400D01*
X133756400Y-84734400D02*
X133908800Y-84734400D01*
X133908800Y-84734400D02*
X136410700Y-82854800D01*
X143332200Y-82854800D02*
X145986500Y-85839300D01*
X145986500Y-85839300D02*
X146723100Y-85839300D01*
X114366200Y-74978240D02*
X106766200Y-74978240D01*
X138256400Y-84734400D02*
X139357100Y-84734400D01*
X139357100Y-84734400D02*
X142569200Y-86943200D01*
X142569200Y-86943200D02*
X142569200Y-94030800D01*
X142675000Y-93925000D02*
X142569200Y-94030800D01*
X114366200Y-80058240D02*
X106766200Y-80058240D01*
X114366200Y-80058240D02*
X114366200Y-80496940D01*
X114366200Y-80496940D02*
X118135400Y-82473800D01*
X118135400Y-82473800D02*
X125882400Y-82550000D01*
X125882400Y-82550000D02*
X126593600Y-84510880D01*
X126593600Y-84510880D02*
X126674880Y-86502240D01*
X126674880Y-86502240D02*
X130315200Y-90538800D01*
X133413500Y-90440500D02*
X133315200Y-90538800D01*
D28*
X56121300Y-141401800D02*
X56121300Y-143878700D01*
X56121300Y-143878700D02*
X53000000Y-147000000D01*
X53058060Y-146941940D02*
X53000000Y-147000000D01*
X62191900Y-148805900D02*
X58844180Y-148805900D01*
X58844180Y-148805900D02*
X58790840Y-148859240D01*
X62217300Y-148780500D02*
X62191900Y-148805900D01*
X53000000Y-147000000D02*
X56931600Y-147000000D01*
X56931600Y-147000000D02*
X58790840Y-148859240D01*
D27*
X131461500Y-110108500D02*
X131461500Y-112607100D01*
X117962680Y-117627400D02*
X115179000Y-119601000D01*
X126603760Y-117464840D02*
X117962680Y-117627400D01*
X131461500Y-112607100D02*
X126603760Y-117464840D01*
X115179000Y-119601000D02*
X115770640Y-119601000D01*
X139725400Y-51955700D02*
X142849600Y-51955700D01*
X142849600Y-51955700D02*
X142875000Y-51981100D01*
X142875000Y-51981100D02*
X145981100Y-51981100D01*
X145981100Y-51981100D02*
X147000000Y-53000000D01*
D28*
X145498500Y-51498500D02*
X147000000Y-53000000D01*
X145308000Y-51308000D02*
X147000000Y-53000000D01*
X148041360Y-54041360D02*
X147000000Y-53000000D01*
D27*
X138633200Y-146989800D02*
X141503400Y-146989800D01*
X141503400Y-146989800D02*
X141579600Y-146913600D01*
X141579600Y-146913600D02*
X146913600Y-146913600D01*
X146913600Y-146913600D02*
X147000000Y-147000000D01*
D28*
X145410000Y-148590000D02*
X147000000Y-147000000D01*
D27*
X147000000Y-147000000D02*
X147000000Y-146684960D01*
M02*
