G04 #@! TF.FileFunction,Copper,L2,Bot,Signal*
%FSLAX46Y46*%
G04 Gerber Fmt 4.6, Leading zero omitted, Abs format (unit mm)*
G04 Created by KiCad (PCBNEW 4.0.7) date 10/24/18 09:24:49*
%MOMM*%
%LPD*%
G01*
G04 APERTURE LIST*
%ADD10C,0.100000*%
%ADD11C,1.800000*%
%ADD12C,1.600000*%
%ADD13O,1.600000X1.600000*%
%ADD14R,1.800000X1.800000*%
%ADD15R,3.000000X3.000000*%
%ADD16C,3.000000*%
%ADD17C,5.500000*%
%ADD18O,3.000000X1.500000*%
%ADD19R,1.700000X1.700000*%
%ADD20O,1.700000X1.700000*%
%ADD21C,2.000000*%
%ADD22C,1.700000*%
%ADD23C,2.400000*%
%ADD24C,0.600000*%
%ADD25C,1.000000*%
%ADD26C,0.500000*%
%ADD27C,0.350000*%
G04 APERTURE END LIST*
D10*
D11*
X71973280Y-129766080D03*
X71973280Y-119606080D03*
X71973280Y-124686080D03*
X79573280Y-124686080D03*
X79573280Y-129766080D03*
X79573280Y-119606080D03*
X71973280Y-137386080D03*
X79573280Y-137386080D03*
D12*
X53479700Y-129921000D03*
D13*
X53479700Y-137541000D03*
D12*
X85156040Y-59359800D03*
X87656040Y-59359800D03*
X63535560Y-111257080D03*
X61035560Y-111257080D03*
D14*
X63538100Y-129552700D03*
D11*
X60998100Y-129552700D03*
D12*
X52946300Y-71691500D03*
D13*
X52946300Y-79311500D03*
D14*
X63538100Y-138582400D03*
D11*
X60998100Y-138582400D03*
D14*
X63538100Y-133997700D03*
D11*
X60998100Y-133997700D03*
D15*
X146657060Y-114861340D03*
D16*
X146657060Y-119941340D03*
D15*
X147116800Y-70408800D03*
D16*
X147116800Y-75488800D03*
D12*
X113436400Y-140985240D03*
X110936400Y-140985240D03*
X101727000Y-141224000D03*
X99227000Y-141224000D03*
X89077800Y-140970000D03*
X86577800Y-140970000D03*
X77231240Y-141046200D03*
X74731240Y-141046200D03*
X74488040Y-59359800D03*
X76988040Y-59359800D03*
X97454720Y-59065160D03*
X99954720Y-59065160D03*
X109611160Y-59151520D03*
X112111160Y-59151520D03*
X121762520Y-58618120D03*
X124262520Y-58618120D03*
X135620760Y-140705840D03*
X133120760Y-140705840D03*
X59334400Y-59283600D03*
D13*
X51714400Y-59283600D03*
D15*
X147116800Y-59740800D03*
D16*
X147116800Y-64820800D03*
D17*
X147000000Y-53000000D03*
X53000000Y-147000000D03*
D12*
X52920900Y-69596000D03*
D13*
X52920900Y-61976000D03*
D14*
X63538100Y-125031500D03*
D11*
X60998100Y-125031500D03*
D14*
X63512700Y-120535700D03*
D11*
X60972700Y-120535700D03*
D14*
X61800000Y-81200000D03*
D11*
X59260000Y-81200000D03*
D14*
X61800000Y-76600000D03*
D11*
X59260000Y-76600000D03*
D14*
X61800000Y-72000000D03*
D11*
X59260000Y-72000000D03*
D12*
X56667400Y-130048000D03*
D13*
X56667400Y-137668000D03*
D12*
X53644800Y-127025400D03*
D13*
X53644800Y-119405400D03*
D12*
X56730900Y-126949200D03*
D13*
X56730900Y-119329200D03*
D12*
X56273700Y-116624100D03*
D13*
X63893700Y-116624100D03*
D12*
X55525000Y-79325000D03*
D13*
X55525000Y-71705000D03*
D12*
X55475000Y-69625000D03*
D13*
X55475000Y-62005000D03*
D18*
X119329200Y-84734400D03*
X123829200Y-84734400D03*
X114829200Y-84734400D03*
X102000000Y-84500000D03*
X106500000Y-84500000D03*
X97500000Y-84500000D03*
X84100000Y-84800000D03*
X88600000Y-84800000D03*
X79600000Y-84800000D03*
X86680040Y-115559840D03*
X82180040Y-115559840D03*
X91180040Y-115559840D03*
X102224840Y-115366800D03*
X97724840Y-115366800D03*
X106724840Y-115366800D03*
X117922040Y-115519200D03*
X113422040Y-115519200D03*
X122422040Y-115519200D03*
D14*
X61800000Y-67600000D03*
D11*
X59260000Y-67600000D03*
D14*
X61800000Y-63200000D03*
D11*
X59260000Y-63200000D03*
D18*
X72263000Y-116205000D03*
X67763000Y-116205000D03*
X76763000Y-116205000D03*
D15*
X146710400Y-140817600D03*
D16*
X146710400Y-135737600D03*
D15*
X146812000Y-130352800D03*
D16*
X146812000Y-125272800D03*
D15*
X146723100Y-85839300D03*
D16*
X146723100Y-80759300D03*
D18*
X133756400Y-84734400D03*
X129256400Y-84734400D03*
X138256400Y-84734400D03*
D19*
X54864000Y-111061500D03*
D20*
X52324000Y-111061500D03*
X54864000Y-108521500D03*
X52324000Y-108521500D03*
X54864000Y-105981500D03*
X52324000Y-105981500D03*
X54864000Y-103441500D03*
X52324000Y-103441500D03*
X54864000Y-100901500D03*
X52324000Y-100901500D03*
X54864000Y-98361500D03*
X52324000Y-98361500D03*
X54864000Y-95821500D03*
X52324000Y-95821500D03*
X54864000Y-93281500D03*
X52324000Y-93281500D03*
X54864000Y-90741500D03*
X52324000Y-90741500D03*
X54864000Y-88201500D03*
X52324000Y-88201500D03*
D12*
X125003560Y-140817600D03*
X122503560Y-140817600D03*
X133162040Y-58785760D03*
X135662040Y-58785760D03*
X63652400Y-88011000D03*
X61152400Y-88011000D03*
X63601600Y-90627200D03*
X61101600Y-90627200D03*
X63652400Y-93141800D03*
X61152400Y-93141800D03*
X63601600Y-95935800D03*
X61101600Y-95935800D03*
X63652400Y-98399600D03*
X61152400Y-98399600D03*
X63601600Y-101041200D03*
X61101600Y-101041200D03*
X63627000Y-103632000D03*
X61127000Y-103632000D03*
X63627000Y-106146600D03*
X61127000Y-106146600D03*
X63591440Y-108686600D03*
X61091440Y-108686600D03*
D21*
X58790840Y-148859240D03*
X58790840Y-143859240D03*
X62191900Y-148805900D03*
X62191900Y-143805900D03*
X56121300Y-141401800D03*
X51121300Y-141401800D03*
X142049500Y-148590000D03*
X137049500Y-148590000D03*
D17*
X147000000Y-147000000D03*
D12*
X141681200Y-51498500D03*
X141681200Y-53998500D03*
D22*
X93094800Y-109968800D03*
X96094800Y-109968800D03*
X99094800Y-109968800D03*
X102094800Y-109968800D03*
X93094800Y-102365800D03*
X96094800Y-102365800D03*
X99094800Y-102365800D03*
X102094800Y-102365800D03*
D23*
X89840800Y-106476800D03*
X105460800Y-106476800D03*
D22*
X112271800Y-110146600D03*
X115271800Y-110146600D03*
X118271800Y-110146600D03*
X121271800Y-110146600D03*
X112271800Y-102543600D03*
X115271800Y-102543600D03*
X118271800Y-102543600D03*
X121271800Y-102543600D03*
D23*
X109017800Y-106654600D03*
X124637800Y-106654600D03*
D22*
X131461500Y-110108500D03*
X134461500Y-110108500D03*
X137461500Y-110108500D03*
X140461500Y-110108500D03*
X131461500Y-102505500D03*
X134461500Y-102505500D03*
X137461500Y-102505500D03*
X140461500Y-102505500D03*
D23*
X128207500Y-106616500D03*
X143827500Y-106616500D03*
D22*
X73841600Y-110019600D03*
X76841600Y-110019600D03*
X79841600Y-110019600D03*
X82841600Y-110019600D03*
X73841600Y-102416600D03*
X76841600Y-102416600D03*
X79841600Y-102416600D03*
X82841600Y-102416600D03*
D23*
X70587600Y-106527600D03*
X86207600Y-106527600D03*
D22*
X81860400Y-90488000D03*
X78860400Y-90488000D03*
X75860400Y-90488000D03*
X72860400Y-90488000D03*
X81860400Y-98091000D03*
X78860400Y-98091000D03*
X75860400Y-98091000D03*
X72860400Y-98091000D03*
D23*
X85114400Y-93980000D03*
X69494400Y-93980000D03*
D22*
X100946000Y-90508000D03*
X97946000Y-90508000D03*
X94946000Y-90508000D03*
X91946000Y-90508000D03*
X100946000Y-98111000D03*
X97946000Y-98111000D03*
X94946000Y-98111000D03*
X91946000Y-98111000D03*
D23*
X104200000Y-94000000D03*
X88580000Y-94000000D03*
D22*
X120011200Y-90488000D03*
X117011200Y-90488000D03*
X114011200Y-90488000D03*
X111011200Y-90488000D03*
X120011200Y-98091000D03*
X117011200Y-98091000D03*
X114011200Y-98091000D03*
X111011200Y-98091000D03*
D23*
X123265200Y-93980000D03*
X107645200Y-93980000D03*
D22*
X139315200Y-90538800D03*
X136315200Y-90538800D03*
X133315200Y-90538800D03*
X130315200Y-90538800D03*
X139315200Y-98141800D03*
X136315200Y-98141800D03*
X133315200Y-98141800D03*
X130315200Y-98141800D03*
D23*
X142569200Y-94030800D03*
X126949200Y-94030800D03*
D17*
X53000000Y-53000000D03*
D11*
X130479640Y-129710200D03*
X130479640Y-119550200D03*
X130479640Y-124630200D03*
X138079640Y-124630200D03*
X138079640Y-129710200D03*
X138079640Y-119550200D03*
X130479640Y-137330200D03*
X138079640Y-137330200D03*
X118996300Y-129748300D03*
X118996300Y-119588300D03*
X118996300Y-124668300D03*
X126596300Y-124668300D03*
X126596300Y-129748300D03*
X126596300Y-119588300D03*
X118996300Y-137368300D03*
X126596300Y-137368300D03*
X138135520Y-69557880D03*
X138135520Y-79717880D03*
X138135520Y-74637880D03*
X130535520Y-74637880D03*
X130535520Y-69557880D03*
X130535520Y-79717880D03*
X138135520Y-61937880D03*
X130535520Y-61937880D03*
X126233080Y-69557880D03*
X126233080Y-79717880D03*
X126233080Y-74637880D03*
X118633080Y-74637880D03*
X118633080Y-69557880D03*
X118633080Y-79717880D03*
X126233080Y-61937880D03*
X118633080Y-61937880D03*
X114366200Y-69898240D03*
X114366200Y-80058240D03*
X114366200Y-74978240D03*
X106766200Y-74978240D03*
X106766200Y-69898240D03*
X106766200Y-80058240D03*
X114366200Y-62278240D03*
X106766200Y-62278240D03*
X90469880Y-70228440D03*
X90469880Y-80388440D03*
X90469880Y-75308440D03*
X82869880Y-75308440D03*
X82869880Y-70228440D03*
X82869880Y-80388440D03*
X90469880Y-62608440D03*
X82869880Y-62608440D03*
X78971300Y-70314800D03*
X78971300Y-80474800D03*
X78971300Y-75394800D03*
X71371300Y-75394800D03*
X71371300Y-70314800D03*
X71371300Y-80474800D03*
X78971300Y-62694800D03*
X71371300Y-62694800D03*
X83642040Y-129786400D03*
X83642040Y-119626400D03*
X83642040Y-124706400D03*
X91242040Y-124706400D03*
X91242040Y-129786400D03*
X91242040Y-119626400D03*
X83642040Y-137406400D03*
X91242040Y-137406400D03*
X95641000Y-129634000D03*
X95641000Y-119474000D03*
X95641000Y-124554000D03*
X103241000Y-124554000D03*
X103241000Y-129634000D03*
X103241000Y-119474000D03*
X95641000Y-137254000D03*
X103241000Y-137254000D03*
X107579000Y-129761000D03*
X107579000Y-119601000D03*
X107579000Y-124681000D03*
X115179000Y-124681000D03*
X115179000Y-129761000D03*
X115179000Y-119601000D03*
X107579000Y-137381000D03*
X115179000Y-137381000D03*
X102595840Y-69893160D03*
X102595840Y-80053160D03*
X102595840Y-74973160D03*
X94995840Y-74973160D03*
X94995840Y-69893160D03*
X94995840Y-80053160D03*
X102595840Y-62273160D03*
X94995840Y-62273160D03*
D24*
X104160320Y-56001920D03*
X123977400Y-144018000D03*
X115290600Y-55438040D03*
D25*
X146657060Y-119941340D02*
X145348960Y-119941340D01*
X145348960Y-119941340D02*
X142722600Y-122567700D01*
X141066500Y-129710200D02*
X138079640Y-129710200D01*
X142722600Y-128054100D02*
X141066500Y-129710200D01*
X142722600Y-122567700D02*
X142722600Y-128054100D01*
X117922040Y-115519200D02*
X117522040Y-115519200D01*
X118028840Y-115647200D02*
X118028840Y-115473600D01*
X118028840Y-115647200D02*
X118028840Y-115245000D01*
X107579000Y-124681000D02*
X115179000Y-124681000D01*
X115179000Y-124681000D02*
X115179000Y-124276960D01*
X115179000Y-124276960D02*
X117779800Y-122072400D01*
X121056400Y-122072400D02*
X122422040Y-120706760D01*
X117779800Y-122072400D02*
X121056400Y-122072400D01*
X122422040Y-120706760D02*
X122422040Y-115519200D01*
X121392280Y-115905760D02*
X122422040Y-115519200D01*
X122528840Y-115647200D02*
X122274840Y-115647200D01*
X107579000Y-125001000D02*
X107579000Y-124821900D01*
X102224840Y-115366800D02*
X101774840Y-115366800D01*
X102624840Y-115766800D02*
X102224840Y-115366800D01*
X103241000Y-124554000D02*
X103576280Y-123118720D01*
X103576280Y-123118720D02*
X105537000Y-120777000D01*
X105537000Y-120777000D02*
X105537000Y-116173640D01*
X105537000Y-116173640D02*
X106724840Y-115366800D01*
X95641000Y-124554000D02*
X103241000Y-124554000D01*
X103241000Y-124874000D02*
X103400200Y-124874000D01*
X106724840Y-115366800D02*
X105814840Y-115366800D01*
X106724840Y-115366800D02*
X106124840Y-115366800D01*
X89154000Y-124706400D02*
X89154000Y-117585880D01*
X89154000Y-117585880D02*
X91180040Y-115559840D01*
X91242040Y-124706400D02*
X89154000Y-124706400D01*
X89154000Y-124706400D02*
X83642040Y-124706400D01*
X91242040Y-125026400D02*
X91242040Y-124927200D01*
X91180040Y-115559840D02*
X90886280Y-115559840D01*
X76763000Y-116205000D02*
X76763000Y-123693800D01*
X76763000Y-123693800D02*
X75770720Y-124686080D01*
X79573280Y-124686080D02*
X75770720Y-124686080D01*
X75770720Y-124686080D02*
X71973280Y-124686080D01*
X77002666Y-116444666D02*
X76763000Y-116205000D01*
X77509760Y-116042440D02*
X75615800Y-116205000D01*
X82869880Y-70228440D02*
X82438260Y-70228440D01*
X82438260Y-70228440D02*
X80924400Y-71742300D01*
X80924400Y-71742300D02*
X80924400Y-81838800D01*
X80924400Y-81838800D02*
X82219800Y-83134200D01*
X82219800Y-83134200D02*
X82434200Y-83134200D01*
X82434200Y-83134200D02*
X84100000Y-84800000D01*
X83600000Y-84300000D02*
X84100000Y-84800000D01*
X90469880Y-69988440D02*
X82869880Y-69988440D01*
X78971300Y-75394800D02*
X76111100Y-75293200D01*
X79600000Y-84800000D02*
X78665900Y-84800000D01*
X78665900Y-84800000D02*
X76111100Y-83451700D01*
X76111100Y-83451700D02*
X76111100Y-75293200D01*
X71371300Y-75394800D02*
X76111100Y-75293200D01*
X102000000Y-84500000D02*
X102000000Y-84341920D01*
X102000000Y-84500000D02*
X101431040Y-84500000D01*
X90469880Y-75308440D02*
X91577140Y-75308440D01*
X92849700Y-76581000D02*
X92849700Y-81724598D01*
X91577140Y-75308440D02*
X92849700Y-76581000D01*
X82869880Y-75308440D02*
X90469880Y-75308440D01*
X90469880Y-74988440D02*
X90469880Y-75285440D01*
X92649040Y-81604840D02*
X92849700Y-81724598D01*
X92849700Y-81724598D02*
X97500000Y-84500000D01*
X112014000Y-73647300D02*
X112014000Y-70548500D01*
X112014000Y-70548500D02*
X112664260Y-69898240D01*
X118948200Y-84734400D02*
X116586000Y-82372200D01*
X116586000Y-82372200D02*
X113690400Y-82372200D01*
X113690400Y-82372200D02*
X112014000Y-80695800D01*
X112014000Y-80695800D02*
X112014000Y-73647300D01*
X119329200Y-84734400D02*
X118948200Y-84734400D01*
X114366200Y-69898240D02*
X112664260Y-69898240D01*
X112664260Y-69898240D02*
X106766200Y-69898240D01*
X102595840Y-74973160D02*
X102595840Y-75963940D01*
X112737900Y-84734400D02*
X114829200Y-84734400D01*
X109918500Y-81915000D02*
X112737900Y-84734400D01*
X109918500Y-79476600D02*
X109918500Y-81915000D01*
X108280200Y-77838300D02*
X109918500Y-79476600D01*
X104470200Y-77838300D02*
X108280200Y-77838300D01*
X102595840Y-75963940D02*
X104470200Y-77838300D01*
X102595840Y-74973160D02*
X103019840Y-74973160D01*
X94995840Y-74973160D02*
X102595840Y-74973160D01*
X102595840Y-74653160D02*
X102831880Y-74653160D01*
X102595840Y-74653160D02*
X102649040Y-74653160D01*
X114400000Y-84700000D02*
X114829200Y-84734400D01*
X103241000Y-119474000D02*
X95641000Y-119474000D01*
X102595840Y-80053160D02*
X94995840Y-80053160D01*
X126233080Y-79717880D02*
X126669820Y-79717880D01*
X126669820Y-79717880D02*
X129235200Y-77152500D01*
X144526000Y-72999600D02*
X147116800Y-70408800D01*
X142646400Y-72999600D02*
X144526000Y-72999600D01*
X138493500Y-77152500D02*
X142646400Y-72999600D01*
X129235200Y-77152500D02*
X138493500Y-77152500D01*
X126233080Y-79717880D02*
X126954280Y-79717880D01*
X126233080Y-79317880D02*
X126356080Y-79317880D01*
X126233080Y-74637880D02*
X127063520Y-74637880D01*
X127063520Y-74637880D02*
X128435100Y-73266300D01*
X144094200Y-62763400D02*
X147116800Y-59740800D01*
X144094200Y-64465200D02*
X144094200Y-62763400D01*
X141160500Y-67398900D02*
X144094200Y-64465200D01*
X129425700Y-67398900D02*
X141160500Y-67398900D01*
X128435100Y-68389500D02*
X129425700Y-67398900D01*
X128435100Y-73266300D02*
X128435100Y-68389500D01*
X118633080Y-74637880D02*
X126233080Y-74637880D01*
D26*
X113436400Y-140985240D02*
X113436400Y-140294540D01*
X113436400Y-140294540D02*
X115179000Y-137381000D01*
D27*
X63535560Y-111257080D02*
X63535560Y-112638840D01*
X54724300Y-139255500D02*
X56667400Y-137668000D01*
X53098700Y-139255500D02*
X54724300Y-139255500D01*
X50969002Y-137024202D02*
X53098700Y-139255500D01*
X50969002Y-114308798D02*
X50969002Y-137024202D01*
X52120800Y-113157000D02*
X50969002Y-114308798D01*
X63017400Y-113157000D02*
X52120800Y-113157000D01*
X63535560Y-112638840D02*
X63017400Y-113157000D01*
X54864000Y-111061500D02*
X55377080Y-111061500D01*
X55377080Y-111061500D02*
X56494680Y-109943900D01*
X56494680Y-109943900D02*
X62222380Y-109943900D01*
X62222380Y-109943900D02*
X63535560Y-111257080D01*
D26*
X101727000Y-141224000D02*
X101727000Y-140622200D01*
X101727000Y-140622200D02*
X103241000Y-137254000D01*
D27*
X53479700Y-137541000D02*
X53492400Y-137541000D01*
X63591440Y-108686600D02*
X64795400Y-108686600D01*
X51663600Y-134975600D02*
X53479700Y-137541000D01*
X51663600Y-114681000D02*
X51663600Y-134975600D01*
X52501800Y-113842800D02*
X51663600Y-114681000D01*
X63741300Y-113842800D02*
X52501800Y-113842800D01*
X65036700Y-112547400D02*
X63741300Y-113842800D01*
X65036700Y-108927900D02*
X65036700Y-112547400D01*
X64795400Y-108686600D02*
X65036700Y-108927900D01*
X54864000Y-108521500D02*
X55262780Y-108521500D01*
X55262780Y-108521500D02*
X56410860Y-107373420D01*
X56410860Y-107373420D02*
X62278260Y-107373420D01*
X62278260Y-107373420D02*
X63591440Y-108686600D01*
X63591440Y-108686600D02*
X63982600Y-108686600D01*
D26*
X89077800Y-140970000D02*
X89077800Y-140186800D01*
X89077800Y-140186800D02*
X91242040Y-137406400D01*
D27*
X63627000Y-106146600D02*
X63969900Y-106146600D01*
X63969900Y-106146600D02*
X65722500Y-108165900D01*
X52425600Y-118186200D02*
X53644800Y-119405400D01*
X52425600Y-115062000D02*
X52425600Y-118186200D01*
X53073300Y-114414300D02*
X52425600Y-115062000D01*
X64160400Y-114414300D02*
X53073300Y-114414300D01*
X65722500Y-112737900D02*
X64160400Y-114414300D01*
X65722500Y-108165900D02*
X65722500Y-112737900D01*
X54864000Y-105981500D02*
X55511700Y-105981500D01*
X55511700Y-105981500D02*
X56662320Y-104830880D01*
X56662320Y-104830880D02*
X62311280Y-104830880D01*
X62311280Y-104830880D02*
X63627000Y-106146600D01*
X63627000Y-106146600D02*
X64046100Y-106146600D01*
D26*
X77231240Y-141046200D02*
X77231240Y-140575800D01*
X77231240Y-140575800D02*
X79573280Y-137386080D01*
D27*
X63627000Y-103632000D02*
X63715900Y-103632000D01*
X63715900Y-103632000D02*
X65239900Y-105156000D01*
X53949600Y-116547900D02*
X56730900Y-119329200D01*
X53949600Y-115163600D02*
X53949600Y-116547900D01*
X54140100Y-114973100D02*
X53949600Y-115163600D01*
X64516000Y-114973100D02*
X54140100Y-114973100D01*
X66400000Y-112966500D02*
X64516000Y-114973100D01*
X66400000Y-107810300D02*
X66400000Y-112966500D01*
X65239900Y-106527600D02*
X66400000Y-107810300D01*
X65239900Y-105156000D02*
X65239900Y-106527600D01*
X54864000Y-103441500D02*
X55592980Y-103441500D01*
X55592980Y-103441500D02*
X56634380Y-102400100D01*
X56634380Y-102400100D02*
X62395100Y-102400100D01*
X62395100Y-102400100D02*
X63627000Y-103632000D01*
X63881000Y-65100200D02*
X63881000Y-60817760D01*
X65338960Y-59359800D02*
X74488040Y-59359800D01*
X63881000Y-60817760D02*
X65338960Y-59359800D01*
X63601600Y-101041200D02*
X64287400Y-101041200D01*
X64287400Y-101041200D02*
X65125600Y-100203000D01*
X63881000Y-82677000D02*
X63881000Y-65100200D01*
X64033400Y-82829400D02*
X63881000Y-82677000D01*
X66395600Y-82829400D02*
X64033400Y-82829400D01*
X67716400Y-84150200D02*
X66395600Y-82829400D01*
X67716400Y-92329000D02*
X67716400Y-84150200D01*
X66018502Y-94026898D02*
X67716400Y-92329000D01*
X66018502Y-96947898D02*
X66018502Y-94026898D01*
X65125600Y-97840800D02*
X66018502Y-96947898D01*
X65125600Y-100203000D02*
X65125600Y-97840800D01*
D26*
X71371300Y-62694800D02*
X71371300Y-62368600D01*
X71371300Y-62368600D02*
X74488040Y-59359800D01*
D27*
X63601600Y-101041200D02*
X63652400Y-101041200D01*
X63652400Y-101041200D02*
X65151000Y-102539800D01*
X64714304Y-115803496D02*
X63893700Y-116624100D01*
X64714304Y-115557300D02*
X64714304Y-115803496D01*
X67000000Y-113799002D02*
X64714304Y-115557300D01*
X67000000Y-107576002D02*
X67000000Y-113799002D01*
X65938400Y-105841800D02*
X67000000Y-107576002D01*
X65938400Y-104711500D02*
X65938400Y-105841800D01*
X65151000Y-103924100D02*
X65938400Y-104711500D01*
X65151000Y-102539800D02*
X65151000Y-103924100D01*
X63601600Y-101041200D02*
X64312800Y-101041200D01*
X54864000Y-100901500D02*
X54919880Y-100901500D01*
X54919880Y-100901500D02*
X56075580Y-99745800D01*
X56075580Y-99745800D02*
X62306200Y-99745800D01*
X62306200Y-99745800D02*
X63601600Y-101041200D01*
X63601600Y-101041200D02*
X64211200Y-101041200D01*
D26*
X82869880Y-62608440D02*
X82869880Y-61885440D01*
X82869880Y-61885440D02*
X85156040Y-59359800D01*
D27*
X63652400Y-98399600D02*
X63690500Y-98399600D01*
X63690500Y-98399600D02*
X65468500Y-96621600D01*
X54155600Y-73254400D02*
X55525000Y-71705000D01*
X54155600Y-82741300D02*
X54155600Y-73254400D01*
X55130700Y-83591400D02*
X54155600Y-82741300D01*
X66179700Y-83591400D02*
X55130700Y-83591400D01*
X66941700Y-84353400D02*
X66179700Y-83591400D01*
X66941700Y-92278200D02*
X66941700Y-84353400D01*
X65468500Y-93751400D02*
X66941700Y-92278200D01*
X65468500Y-96621600D02*
X65468500Y-93751400D01*
X63652400Y-98399600D02*
X63804800Y-98399600D01*
X54864000Y-98361500D02*
X55336440Y-98361500D01*
X55336440Y-98361500D02*
X56550560Y-97147380D01*
X56550560Y-97147380D02*
X62400180Y-97147380D01*
X62400180Y-97147380D02*
X63652400Y-98399600D01*
X63652400Y-98399600D02*
X63652400Y-98348800D01*
D26*
X94995840Y-62273160D02*
X94995840Y-61620560D01*
X94995840Y-61620560D02*
X97454720Y-59065160D01*
D27*
X63601600Y-95935800D02*
X63627000Y-95935800D01*
X63627000Y-95935800D02*
X64846200Y-94716600D01*
X53301900Y-84010500D02*
X53301900Y-79667100D01*
X53682900Y-84391500D02*
X53301900Y-84010500D01*
X65684400Y-84391500D02*
X53682900Y-84391500D01*
X66255900Y-84963000D02*
X65684400Y-84391500D01*
X66255900Y-92163900D02*
X66255900Y-84963000D01*
X64846200Y-93573600D02*
X66255900Y-92163900D01*
X64846200Y-94716600D02*
X64846200Y-93573600D01*
X53301900Y-79667100D02*
X52946300Y-79311500D01*
X63601600Y-95935800D02*
X63957200Y-95935800D01*
X54864000Y-95821500D02*
X55222140Y-95821500D01*
X55222140Y-95821500D02*
X56522620Y-94521020D01*
X56522620Y-94521020D02*
X62186820Y-94521020D01*
X62186820Y-94521020D02*
X63601600Y-95935800D01*
X55475000Y-62005000D02*
X55475000Y-60425200D01*
X55475000Y-60425200D02*
X57226200Y-58674000D01*
X57226200Y-58674000D02*
X57226200Y-57353200D01*
X57226200Y-57353200D02*
X58547000Y-56032400D01*
X58547000Y-56032400D02*
X104160320Y-56001920D01*
D26*
X106766200Y-62278240D02*
X106766200Y-61420440D01*
X106766200Y-61420440D02*
X109611160Y-59151520D01*
D27*
X52146200Y-84429600D02*
X52019200Y-84429600D01*
X54571900Y-63207900D02*
X55475000Y-62005000D01*
X53606700Y-63207900D02*
X54571900Y-63207900D01*
X51587400Y-65227200D02*
X53606700Y-63207900D01*
X51587400Y-83997800D02*
X51587400Y-65227200D01*
X52019200Y-84429600D02*
X51587400Y-83997800D01*
X63652400Y-93141800D02*
X64389000Y-93141800D01*
X64389000Y-93141800D02*
X65659000Y-91719400D01*
X52730400Y-85013800D02*
X52146200Y-84429600D01*
X65125600Y-85013800D02*
X52730400Y-85013800D01*
X65659000Y-85750400D02*
X65125600Y-85013800D01*
X65659000Y-91719400D02*
X65659000Y-85750400D01*
X54864000Y-93281500D02*
X55331360Y-93281500D01*
X55331360Y-93281500D02*
X56774080Y-91838780D01*
X56774080Y-91838780D02*
X62349380Y-91838780D01*
X62349380Y-91838780D02*
X63652400Y-93141800D01*
D26*
X76988040Y-59359800D02*
X76988040Y-57393200D01*
X76988040Y-57393200D02*
X77561440Y-56819800D01*
X99227000Y-141224000D02*
X99314000Y-142240000D01*
X99314000Y-142240000D02*
X99588320Y-143129000D01*
X110936400Y-140985240D02*
X110911000Y-142677520D01*
X110911000Y-142677520D02*
X110458882Y-143129638D01*
X86577800Y-140970000D02*
X87537920Y-142844998D01*
X87537920Y-142844998D02*
X87253918Y-143129000D01*
X74731240Y-141046200D02*
X75229080Y-142814680D01*
X75229080Y-142814680D02*
X74914760Y-143129000D01*
X71973280Y-137386080D02*
X72532080Y-138344120D01*
X72532080Y-138344120D02*
X74731240Y-141046200D01*
X99954720Y-59065160D02*
X99954720Y-59690460D01*
X99954720Y-59690460D02*
X102595840Y-62273160D01*
X60972700Y-120535700D02*
X60972700Y-125006100D01*
X60972700Y-125006100D02*
X60998100Y-125031500D01*
X83642040Y-137406400D02*
X83642040Y-137998400D01*
X83642040Y-137998400D02*
X86577800Y-140970000D01*
X95641000Y-137254000D02*
X95641000Y-138044400D01*
X95641000Y-138044400D02*
X99227000Y-141224000D01*
X107579000Y-137381000D02*
X107579000Y-137879300D01*
X107579000Y-137879300D02*
X110936400Y-140985240D01*
X130479640Y-137330200D02*
X130479640Y-137561600D01*
X130479640Y-137561600D02*
X133120760Y-140705840D01*
X118996300Y-137368300D02*
X118996300Y-138171400D01*
X118996300Y-138171400D02*
X122503560Y-140817600D01*
X122503560Y-140817600D02*
X122209560Y-141909800D01*
X122209560Y-141909800D02*
X121904760Y-143134080D01*
X62191900Y-143805900D02*
X63331100Y-143805900D01*
X68935600Y-143129000D02*
X74914760Y-143129000D01*
X64008000Y-143129000D02*
X68935600Y-143129000D01*
X63331100Y-143805900D02*
X64008000Y-143129000D01*
X131790440Y-143027400D02*
X133120760Y-140705840D01*
X74914760Y-143129000D02*
X82346800Y-143129000D01*
X82346800Y-143129000D02*
X87253918Y-143129000D01*
X87253918Y-143129000D02*
X95402400Y-143129000D01*
X95402400Y-143129000D02*
X99588320Y-143129000D01*
X108813600Y-143129000D02*
X110458882Y-143129638D01*
X99588320Y-143129000D02*
X108813600Y-143129000D01*
X110458882Y-143129638D02*
X121904760Y-143134080D01*
X121904760Y-143134080D02*
X131790440Y-143027400D01*
X76988040Y-59359800D02*
X76988040Y-60108000D01*
X76988040Y-60108000D02*
X78971300Y-62694800D01*
X87656040Y-59359800D02*
X87656040Y-59809600D01*
X87656040Y-59809600D02*
X90469880Y-62608440D01*
X84480400Y-56819800D02*
X87823040Y-59192800D01*
X87823040Y-59192800D02*
X87656040Y-59359800D01*
X98018600Y-56819800D02*
X100020120Y-58999760D01*
X100020120Y-58999760D02*
X99954720Y-59065160D01*
X110413800Y-56819800D02*
X111617760Y-58658120D01*
X111617760Y-58658120D02*
X112111160Y-59151520D01*
X114366200Y-62278240D02*
X114366200Y-61906040D01*
X114366200Y-61906040D02*
X112111160Y-59151520D01*
X124262520Y-58618120D02*
X124216800Y-57618000D01*
X124216800Y-57618000D02*
X123418600Y-56819800D01*
X124262520Y-58618120D02*
X124262520Y-59272920D01*
X124262520Y-59272920D02*
X126233080Y-61937880D01*
X135662040Y-58785760D02*
X138186800Y-60306800D01*
X138186800Y-60306800D02*
X138135520Y-61937880D01*
X59260000Y-63200000D02*
X59260000Y-62409600D01*
X59260000Y-62409600D02*
X57886600Y-61036200D01*
X70408800Y-56819800D02*
X77561440Y-56819800D01*
X58851800Y-56819800D02*
X70408800Y-56819800D01*
X57886600Y-57785000D02*
X58851800Y-56819800D01*
X57886600Y-61036200D02*
X57886600Y-57785000D01*
X77561440Y-56819800D02*
X84480400Y-56819800D01*
X84480400Y-56819800D02*
X98018600Y-56819800D01*
X98018600Y-56819800D02*
X110413800Y-56819800D01*
X110413800Y-56819800D02*
X123418600Y-56819800D01*
X134254240Y-56804560D02*
X135662040Y-58785760D01*
X123418600Y-56819800D02*
X134254240Y-56804560D01*
X60998100Y-138582400D02*
X60998100Y-142612100D01*
X60998100Y-142612100D02*
X62191900Y-143805900D01*
X59260000Y-76600000D02*
X59260000Y-81200000D01*
X59260000Y-72000000D02*
X59183800Y-76523800D01*
X59183800Y-76523800D02*
X59260000Y-76600000D01*
X59254920Y-71994920D02*
X59260000Y-72000000D01*
X59260000Y-67600000D02*
X59204120Y-63255880D01*
X59204120Y-63255880D02*
X59260000Y-63200000D01*
X59260000Y-63113640D02*
X59260000Y-63200000D01*
D27*
X59310800Y-71949200D02*
X59260000Y-72000000D01*
D26*
X61035560Y-111257080D02*
X61020960Y-111257080D01*
D27*
X59326040Y-67640640D02*
X59219360Y-67640640D01*
D25*
X138135520Y-74637880D02*
X130535520Y-74637880D01*
X138135520Y-74637880D02*
X138135520Y-73802080D01*
X138135520Y-73802080D02*
X147116800Y-64820800D01*
X138135520Y-79717880D02*
X130535520Y-79717880D01*
X147116800Y-75488800D02*
X144611200Y-75488800D01*
X144611200Y-75488800D02*
X138135520Y-79717880D01*
D27*
X56667400Y-130048000D02*
X57505600Y-130048000D01*
X61912500Y-136956800D02*
X63538100Y-138582400D01*
X61734700Y-136956800D02*
X61912500Y-136956800D01*
X59436000Y-134658100D02*
X61734700Y-136956800D01*
X59436000Y-131978400D02*
X59436000Y-134658100D01*
X57505600Y-130048000D02*
X59436000Y-131978400D01*
X53479700Y-129921000D02*
X53886100Y-129921000D01*
X53886100Y-129921000D02*
X55041800Y-128765300D01*
X55041800Y-128765300D02*
X57696100Y-128765300D01*
X57696100Y-128765300D02*
X60426600Y-131495800D01*
X60426600Y-131495800D02*
X61798200Y-131495800D01*
X61798200Y-131495800D02*
X63538100Y-133235700D01*
X63538100Y-133235700D02*
X63538100Y-133997700D01*
X53644800Y-127025400D02*
X53924200Y-127025400D01*
X53924200Y-127025400D02*
X55194200Y-128206500D01*
X55194200Y-128206500D02*
X59296300Y-128206500D01*
X59296300Y-128206500D02*
X60071000Y-127800100D01*
X60071000Y-127800100D02*
X61785500Y-127800100D01*
X61785500Y-127800100D02*
X63538100Y-129552700D01*
X56730900Y-126949200D02*
X61683900Y-126949200D01*
X61683900Y-126949200D02*
X63538100Y-125095000D01*
X63538100Y-125095000D02*
X63538100Y-125031500D01*
X56273700Y-116624100D02*
X60401200Y-116624100D01*
X60401200Y-116624100D02*
X63512700Y-119735600D01*
X63512700Y-119735600D02*
X63512700Y-120535700D01*
X52946300Y-71691500D02*
X53721000Y-71691500D01*
X53721000Y-71691500D02*
X54178200Y-71234300D01*
X63232598Y-75332682D02*
X61800000Y-76600000D01*
X63232598Y-70735098D02*
X63232598Y-75332682D01*
X62357000Y-69659500D02*
X63232598Y-70735098D01*
X58153300Y-69659500D02*
X62357000Y-69659500D01*
X56705500Y-68211700D02*
X58153300Y-69659500D01*
X54825900Y-68211700D02*
X56705500Y-68211700D01*
X54178200Y-68859400D02*
X54825900Y-68211700D01*
X54178200Y-71234300D02*
X54178200Y-68859400D01*
X55475000Y-69625000D02*
X56540400Y-69545200D01*
X60568840Y-70510400D02*
X61800000Y-72000000D01*
X57505600Y-70510400D02*
X60568840Y-70510400D01*
X56540400Y-69545200D02*
X57505600Y-70510400D01*
X61800000Y-72000000D02*
X62485800Y-72000000D01*
X50419000Y-88849200D02*
X50419000Y-137947400D01*
X65303400Y-144018000D02*
X123977400Y-144018000D01*
X63703200Y-145618200D02*
X65303400Y-144018000D01*
X57531000Y-145618200D02*
X63703200Y-145618200D01*
X53975000Y-142062200D02*
X57531000Y-145618200D01*
X53975000Y-141503400D02*
X53975000Y-142062200D01*
X50419000Y-137947400D02*
X53975000Y-141503400D01*
D26*
X135620760Y-140705840D02*
X136738360Y-139227560D01*
X136738360Y-139227560D02*
X138079640Y-137330200D01*
X126596300Y-137368300D02*
X126596300Y-137703400D01*
X126596300Y-137703400D02*
X125003560Y-140817600D01*
D27*
X54864000Y-88201500D02*
X54864000Y-88493600D01*
X54864000Y-88493600D02*
X53898800Y-89458800D01*
X53898800Y-89458800D02*
X50774600Y-89458800D01*
X50774600Y-89458800D02*
X50419000Y-89103200D01*
X50419000Y-89103200D02*
X50419000Y-88849200D01*
X50419000Y-88849200D02*
X50419000Y-60579000D01*
X50419000Y-60579000D02*
X51714400Y-59283600D01*
X54864000Y-88201500D02*
X54810660Y-88201500D01*
X54864000Y-88201500D02*
X55130700Y-88201500D01*
X55130700Y-88201500D02*
X56690260Y-86641940D01*
X62283340Y-86641940D02*
X63652400Y-88011000D01*
X56690260Y-86641940D02*
X62283340Y-86641940D01*
X52920900Y-61976000D02*
X52920900Y-61252100D01*
X52920900Y-61252100D02*
X58242200Y-55321200D01*
X115163600Y-55311040D02*
X115290600Y-55438040D01*
X58242200Y-55321200D02*
X115163600Y-55311040D01*
D26*
X130535520Y-61937880D02*
X130535520Y-61908880D01*
X130535520Y-61908880D02*
X133162040Y-58785760D01*
X118633080Y-61937880D02*
X118633080Y-61216680D01*
X118633080Y-61216680D02*
X121762520Y-58618120D01*
D27*
X52920900Y-61976000D02*
X52438300Y-63233300D01*
X64643000Y-90627200D02*
X65074800Y-90195400D01*
X65074800Y-90195400D02*
X65074800Y-86410800D01*
X65074800Y-86410800D02*
X64287400Y-85623400D01*
X64287400Y-85623400D02*
X52019200Y-85623400D01*
X52019200Y-85623400D02*
X50969002Y-84573202D01*
X50969002Y-84573202D02*
X50969002Y-64702598D01*
X50969002Y-64702598D02*
X52438300Y-63233300D01*
X64643000Y-90627200D02*
X63601600Y-90627200D01*
X63601600Y-90627200D02*
X63385700Y-90627200D01*
X63385700Y-90627200D02*
X62194440Y-89435940D01*
X56169560Y-89435940D02*
X54864000Y-90741500D01*
X62194440Y-89435940D02*
X56169560Y-89435940D01*
X61800000Y-67600000D02*
X62018440Y-67600000D01*
X59334400Y-59283600D02*
X60528200Y-59283600D01*
X62194440Y-60949840D02*
X61800000Y-63200000D01*
X60528200Y-59283600D02*
X62194440Y-60949840D01*
X61916840Y-63200000D02*
X61800000Y-63200000D01*
D25*
X126596300Y-129748300D02*
X127541000Y-129748300D01*
X128625600Y-128663700D02*
X128625600Y-113360200D01*
X127541000Y-129748300D02*
X128625600Y-128663700D01*
X118996300Y-129748300D02*
X115255200Y-129837200D01*
X115255200Y-129837200D02*
X115179000Y-129761000D01*
X126596300Y-129748300D02*
X118996300Y-129748300D01*
X115179000Y-130001000D02*
X107579000Y-130001000D01*
X113004600Y-113360200D02*
X113004600Y-115101760D01*
X113004600Y-115101760D02*
X113422040Y-115519200D01*
X97348040Y-113360200D02*
X97348040Y-114990000D01*
X97348040Y-114990000D02*
X97724840Y-115366800D01*
X143827500Y-106616500D02*
X144604731Y-103869951D01*
X144604731Y-103869951D02*
X146801840Y-102311200D01*
X123829200Y-84734400D02*
X123829200Y-86025600D01*
X123829200Y-86025600D02*
X122859800Y-86995000D01*
X129256400Y-84734400D02*
X130069200Y-86300700D01*
X130069200Y-86300700D02*
X129374900Y-86995000D01*
X123829200Y-84734400D02*
X123929200Y-84734400D01*
X106500000Y-84500000D02*
X106500000Y-86300000D01*
X106500000Y-86300000D02*
X105831205Y-86968795D01*
X113422040Y-115519200D02*
X112672040Y-115569200D01*
X100279200Y-113360200D02*
X113004600Y-113360200D01*
X113004600Y-113360200D02*
X116589800Y-113360200D01*
X116589800Y-113360200D02*
X125577600Y-113360200D01*
X127523240Y-113360200D02*
X128625600Y-113360200D01*
X125577600Y-113360200D02*
X126492000Y-113360200D01*
X126492000Y-113360200D02*
X127523240Y-113360200D01*
X146801840Y-91782900D02*
X146433540Y-91782900D01*
X140385800Y-86995000D02*
X129374900Y-86995000D01*
X146801840Y-102311200D02*
X146801840Y-91782900D01*
X146433540Y-91782900D02*
X140385800Y-86995000D01*
X143827500Y-106616500D02*
X143958700Y-106616500D01*
X106500000Y-84500000D02*
X106500000Y-84872500D01*
X90700000Y-86900000D02*
X88600000Y-84800000D01*
X105831205Y-86968795D02*
X90700000Y-86900000D01*
X111595000Y-86995000D02*
X105831205Y-86968795D01*
X122859800Y-86995000D02*
X111595000Y-86995000D01*
X129374900Y-86995000D02*
X122859800Y-86995000D01*
X97449640Y-115091600D02*
X97724840Y-115366800D01*
X82143600Y-113360200D02*
X82006440Y-115386240D01*
X82006440Y-115386240D02*
X82180040Y-115559840D01*
X67763000Y-116205000D02*
X68827854Y-115215690D01*
X69761100Y-113360200D02*
X82143600Y-113360200D01*
X82143600Y-113360200D02*
X97348040Y-113360200D01*
X97348040Y-113360200D02*
X100279200Y-113360200D01*
X68827854Y-115215690D02*
X69761100Y-113360200D01*
X146098260Y-114302540D02*
X146657060Y-114861340D01*
X67763000Y-116205000D02*
X67763000Y-115879000D01*
X96941640Y-115366800D02*
X97724840Y-115366800D01*
X143827500Y-106616500D02*
X144157700Y-113360200D01*
X144157700Y-113360200D02*
X146657060Y-114861340D01*
X128625600Y-113360200D02*
X144157700Y-113360200D01*
X126596300Y-119588300D02*
X126596300Y-120271700D01*
X126596300Y-119588300D02*
X126596300Y-119697660D01*
X126596300Y-119588300D02*
X126992400Y-119588300D01*
X126596300Y-119988300D02*
X126467900Y-119988300D01*
X146723100Y-85839300D02*
X146723100Y-86347300D01*
X114366200Y-74978240D02*
X114366200Y-75923300D01*
X122262900Y-77647800D02*
X122262900Y-80576420D01*
X121653300Y-77038200D02*
X122262900Y-77647800D01*
X115481100Y-77038200D02*
X121653300Y-77038200D01*
X114366200Y-75923300D02*
X115481100Y-77038200D01*
X124277120Y-82590640D02*
X136544440Y-82590640D01*
X136544440Y-82590640D02*
X138256400Y-84734400D01*
X122262900Y-80576420D02*
X124277120Y-82590640D01*
X121986040Y-80299560D02*
X122262900Y-80576420D01*
X115179000Y-119601000D02*
X107579000Y-119601000D01*
M02*
