G04 #@! TF.FileFunction,Legend,Top*
%FSLAX46Y46*%
G04 Gerber Fmt 4.6, Leading zero omitted, Abs format (unit mm)*
G04 Created by KiCad (PCBNEW 4.0.7) date 10/23/18 19:03:35*
%MOMM*%
%LPD*%
G01*
G04 APERTURE LIST*
%ADD10C,0.100000*%
%ADD11C,0.150000*%
%ADD12C,0.120000*%
%ADD13C,0.200000*%
G04 APERTURE END LIST*
D10*
D11*
X55784715Y-114498381D02*
X55213286Y-114498381D01*
X55499000Y-114498381D02*
X55499000Y-113498381D01*
X55403762Y-113641238D01*
X55308524Y-113736476D01*
X55213286Y-113784095D01*
X144741381Y-104885334D02*
X145550905Y-104885334D01*
X145646143Y-104837715D01*
X145693762Y-104790096D01*
X145741381Y-104694858D01*
X145741381Y-104504381D01*
X145693762Y-104409143D01*
X145646143Y-104361524D01*
X145550905Y-104313905D01*
X144741381Y-104313905D01*
X145741381Y-103837715D02*
X144741381Y-103837715D01*
X145741381Y-103266286D01*
X144741381Y-103266286D01*
X145741381Y-102790096D02*
X144741381Y-102790096D01*
X144741381Y-102456763D02*
X145741381Y-102123430D01*
X144741381Y-101790096D01*
X145217571Y-101456763D02*
X145217571Y-101123429D01*
X145741381Y-100980572D02*
X145741381Y-101456763D01*
X144741381Y-101456763D01*
X144741381Y-100980572D01*
X145741381Y-99980572D02*
X145265190Y-100313906D01*
X145741381Y-100552001D02*
X144741381Y-100552001D01*
X144741381Y-100171048D01*
X144789000Y-100075810D01*
X144836619Y-100028191D01*
X144931857Y-99980572D01*
X145074714Y-99980572D01*
X145169952Y-100028191D01*
X145217571Y-100075810D01*
X145265190Y-100171048D01*
X145265190Y-100552001D01*
X145693762Y-99599620D02*
X145741381Y-99456763D01*
X145741381Y-99218667D01*
X145693762Y-99123429D01*
X145646143Y-99075810D01*
X145550905Y-99028191D01*
X145455667Y-99028191D01*
X145360429Y-99075810D01*
X145312810Y-99123429D01*
X145265190Y-99218667D01*
X145217571Y-99409144D01*
X145169952Y-99504382D01*
X145122333Y-99552001D01*
X145027095Y-99599620D01*
X144931857Y-99599620D01*
X144836619Y-99552001D01*
X144789000Y-99504382D01*
X144741381Y-99409144D01*
X144741381Y-99171048D01*
X144789000Y-99028191D01*
X145455667Y-98647239D02*
X145455667Y-98171048D01*
X145741381Y-98742477D02*
X144741381Y-98409144D01*
X145741381Y-98075810D01*
X145741381Y-97266286D02*
X145741381Y-97742477D01*
X144741381Y-97742477D01*
X145741381Y-95599619D02*
X145265190Y-95932953D01*
X145741381Y-96171048D02*
X144741381Y-96171048D01*
X144741381Y-95790095D01*
X144789000Y-95694857D01*
X144836619Y-95647238D01*
X144931857Y-95599619D01*
X145074714Y-95599619D01*
X145169952Y-95647238D01*
X145217571Y-95694857D01*
X145265190Y-95790095D01*
X145265190Y-96171048D01*
X145217571Y-95171048D02*
X145217571Y-94837714D01*
X145741381Y-94694857D02*
X145741381Y-95171048D01*
X144741381Y-95171048D01*
X144741381Y-94694857D01*
X145741381Y-93790095D02*
X145741381Y-94266286D01*
X144741381Y-94266286D01*
X145455667Y-93504381D02*
X145455667Y-93028190D01*
X145741381Y-93599619D02*
X144741381Y-93266286D01*
X145741381Y-92932952D01*
X145265190Y-92409143D02*
X145741381Y-92409143D01*
X144741381Y-92742476D02*
X145265190Y-92409143D01*
X144741381Y-92075809D01*
X146867571Y-101742476D02*
X146915190Y-101599619D01*
X146962810Y-101552000D01*
X147058048Y-101504381D01*
X147200905Y-101504381D01*
X147296143Y-101552000D01*
X147343762Y-101599619D01*
X147391381Y-101694857D01*
X147391381Y-102075810D01*
X146391381Y-102075810D01*
X146391381Y-101742476D01*
X146439000Y-101647238D01*
X146486619Y-101599619D01*
X146581857Y-101552000D01*
X146677095Y-101552000D01*
X146772333Y-101599619D01*
X146819952Y-101647238D01*
X146867571Y-101742476D01*
X146867571Y-102075810D01*
X146391381Y-100885334D02*
X146391381Y-100694857D01*
X146439000Y-100599619D01*
X146534238Y-100504381D01*
X146724714Y-100456762D01*
X147058048Y-100456762D01*
X147248524Y-100504381D01*
X147343762Y-100599619D01*
X147391381Y-100694857D01*
X147391381Y-100885334D01*
X147343762Y-100980572D01*
X147248524Y-101075810D01*
X147058048Y-101123429D01*
X146724714Y-101123429D01*
X146534238Y-101075810D01*
X146439000Y-100980572D01*
X146391381Y-100885334D01*
X147105667Y-100075810D02*
X147105667Y-99599619D01*
X147391381Y-100171048D02*
X146391381Y-99837715D01*
X147391381Y-99504381D01*
X147391381Y-98599619D02*
X146915190Y-98932953D01*
X147391381Y-99171048D02*
X146391381Y-99171048D01*
X146391381Y-98790095D01*
X146439000Y-98694857D01*
X146486619Y-98647238D01*
X146581857Y-98599619D01*
X146724714Y-98599619D01*
X146819952Y-98647238D01*
X146867571Y-98694857D01*
X146915190Y-98790095D01*
X146915190Y-99171048D01*
X147391381Y-98171048D02*
X146391381Y-98171048D01*
X146391381Y-97932953D01*
X146439000Y-97790095D01*
X146534238Y-97694857D01*
X146629476Y-97647238D01*
X146819952Y-97599619D01*
X146962810Y-97599619D01*
X147153286Y-97647238D01*
X147248524Y-97694857D01*
X147343762Y-97790095D01*
X147391381Y-97932953D01*
X147391381Y-98171048D01*
X146867571Y-96075809D02*
X146915190Y-95932952D01*
X146962810Y-95885333D01*
X147058048Y-95837714D01*
X147200905Y-95837714D01*
X147296143Y-95885333D01*
X147343762Y-95932952D01*
X147391381Y-96028190D01*
X147391381Y-96409143D01*
X146391381Y-96409143D01*
X146391381Y-96075809D01*
X146439000Y-95980571D01*
X146486619Y-95932952D01*
X146581857Y-95885333D01*
X146677095Y-95885333D01*
X146772333Y-95932952D01*
X146819952Y-95980571D01*
X146867571Y-96075809D01*
X146867571Y-96409143D01*
X146915190Y-95218667D02*
X147391381Y-95218667D01*
X146391381Y-95552000D02*
X146915190Y-95218667D01*
X146391381Y-94885333D01*
X149041381Y-104218667D02*
X148041381Y-104218667D01*
X148041381Y-103980572D01*
X148089000Y-103837714D01*
X148184238Y-103742476D01*
X148279476Y-103694857D01*
X148469952Y-103647238D01*
X148612810Y-103647238D01*
X148803286Y-103694857D01*
X148898524Y-103742476D01*
X148993762Y-103837714D01*
X149041381Y-103980572D01*
X149041381Y-104218667D01*
X149041381Y-102456762D02*
X148041381Y-102456762D01*
X148755667Y-102123428D01*
X148041381Y-101790095D01*
X149041381Y-101790095D01*
X148755667Y-101361524D02*
X148755667Y-100885333D01*
X149041381Y-101456762D02*
X148041381Y-101123429D01*
X149041381Y-100790095D01*
X149041381Y-99885333D02*
X148565190Y-100218667D01*
X149041381Y-100456762D02*
X148041381Y-100456762D01*
X148041381Y-100075809D01*
X148089000Y-99980571D01*
X148136619Y-99932952D01*
X148231857Y-99885333D01*
X148374714Y-99885333D01*
X148469952Y-99932952D01*
X148517571Y-99980571D01*
X148565190Y-100075809D01*
X148565190Y-100456762D01*
X149041381Y-99456762D02*
X148041381Y-99456762D01*
X149041381Y-98885333D02*
X148469952Y-99313905D01*
X148041381Y-98885333D02*
X148612810Y-99456762D01*
X148993762Y-98504381D02*
X149041381Y-98361524D01*
X149041381Y-98123428D01*
X148993762Y-98028190D01*
X148946143Y-97980571D01*
X148850905Y-97932952D01*
X148755667Y-97932952D01*
X148660429Y-97980571D01*
X148612810Y-98028190D01*
X148565190Y-98123428D01*
X148517571Y-98313905D01*
X148469952Y-98409143D01*
X148422333Y-98456762D01*
X148327095Y-98504381D01*
X148231857Y-98504381D01*
X148136619Y-98456762D01*
X148089000Y-98409143D01*
X148041381Y-98313905D01*
X148041381Y-98075809D01*
X148089000Y-97932952D01*
X149041381Y-96742476D02*
X148041381Y-96742476D01*
X149041381Y-96171047D02*
X148469952Y-96599619D01*
X148041381Y-96171047D02*
X148612810Y-96742476D01*
X148041381Y-95837714D02*
X149041381Y-95599619D01*
X148327095Y-95409142D01*
X149041381Y-95218666D01*
X148041381Y-94980571D01*
X148374714Y-94171047D02*
X149041381Y-94171047D01*
X147993762Y-94409143D02*
X148708048Y-94647238D01*
X148708048Y-94028190D01*
X148041381Y-93790095D02*
X148041381Y-93218666D01*
X149041381Y-93504381D02*
X148041381Y-93504381D01*
X149041381Y-92885333D02*
X148041381Y-92885333D01*
D12*
X54459700Y-130521000D02*
X54789700Y-130521000D01*
X54789700Y-130521000D02*
X54789700Y-136941000D01*
X54789700Y-136941000D02*
X54459700Y-136941000D01*
X52499700Y-130521000D02*
X52169700Y-130521000D01*
X52169700Y-130521000D02*
X52169700Y-136941000D01*
X52169700Y-136941000D02*
X52499700Y-136941000D01*
X80503400Y-57973600D02*
X85623400Y-57973600D01*
X80503400Y-60593600D02*
X85623400Y-60593600D01*
X80503400Y-57973600D02*
X80503400Y-60593600D01*
X85623400Y-57973600D02*
X85623400Y-60593600D01*
X64845560Y-112567080D02*
X59725560Y-112567080D01*
X64845560Y-109947080D02*
X59725560Y-109947080D01*
X64845560Y-112567080D02*
X64845560Y-109947080D01*
X59725560Y-112567080D02*
X59725560Y-109947080D01*
X60595765Y-130631308D02*
G75*
G03X63828100Y-130788216I1672335J1078608D01*
G01*
X60595765Y-128474092D02*
G75*
G02X63828100Y-128317184I1672335J-1078608D01*
G01*
X61226970Y-130632537D02*
G75*
G03X63309061Y-130632700I1041130J1079837D01*
G01*
X61226970Y-128472863D02*
G75*
G02X63309061Y-128472700I1041130J-1079837D01*
G01*
X63828100Y-130788700D02*
X63828100Y-130632700D01*
X63828100Y-128472700D02*
X63828100Y-128316700D01*
X53926300Y-72291500D02*
X54256300Y-72291500D01*
X54256300Y-72291500D02*
X54256300Y-78711500D01*
X54256300Y-78711500D02*
X53926300Y-78711500D01*
X51966300Y-72291500D02*
X51636300Y-72291500D01*
X51636300Y-72291500D02*
X51636300Y-78711500D01*
X51636300Y-78711500D02*
X51966300Y-78711500D01*
X60595765Y-139661008D02*
G75*
G03X63828100Y-139817916I1672335J1078608D01*
G01*
X60595765Y-137503792D02*
G75*
G02X63828100Y-137346884I1672335J-1078608D01*
G01*
X61226970Y-139662237D02*
G75*
G03X63309061Y-139662400I1041130J1079837D01*
G01*
X61226970Y-137502563D02*
G75*
G02X63309061Y-137502400I1041130J-1079837D01*
G01*
X63828100Y-139818400D02*
X63828100Y-139662400D01*
X63828100Y-137502400D02*
X63828100Y-137346400D01*
X60595765Y-135076308D02*
G75*
G03X63828100Y-135233216I1672335J1078608D01*
G01*
X60595765Y-132919092D02*
G75*
G02X63828100Y-132762184I1672335J-1078608D01*
G01*
X61226970Y-135077537D02*
G75*
G03X63309061Y-135077700I1041130J1079837D01*
G01*
X61226970Y-132917863D02*
G75*
G02X63309061Y-132917700I1041130J-1079837D01*
G01*
X63828100Y-135233700D02*
X63828100Y-135077700D01*
X63828100Y-132917700D02*
X63828100Y-132761700D01*
X144399000Y-122428000D02*
X144399000Y-112268000D01*
X143129000Y-122428000D02*
X150749000Y-122428000D01*
X150749000Y-122428000D02*
X150749000Y-112268000D01*
X150749000Y-112268000D02*
X143129000Y-112268000D01*
X143129000Y-112268000D02*
X143129000Y-122428000D01*
X144576800Y-78028800D02*
X144576800Y-67868800D01*
X143306800Y-78028800D02*
X150926800Y-78028800D01*
X150926800Y-78028800D02*
X150926800Y-67868800D01*
X150926800Y-67868800D02*
X143306800Y-67868800D01*
X143306800Y-67868800D02*
X143306800Y-78028800D01*
X113070000Y-141949800D02*
X107950000Y-141949800D01*
X113070000Y-139329800D02*
X107950000Y-139329800D01*
X113070000Y-141949800D02*
X113070000Y-139329800D01*
X107950000Y-141949800D02*
X107950000Y-139329800D01*
X99811200Y-142051400D02*
X94691200Y-142051400D01*
X99811200Y-139431400D02*
X94691200Y-139431400D01*
X99811200Y-142051400D02*
X99811200Y-139431400D01*
X94691200Y-142051400D02*
X94691200Y-139431400D01*
X86755600Y-142127600D02*
X81635600Y-142127600D01*
X86755600Y-139507600D02*
X81635600Y-139507600D01*
X86755600Y-142127600D02*
X86755600Y-139507600D01*
X81635600Y-142127600D02*
X81635600Y-139507600D01*
X73242800Y-142127600D02*
X68122800Y-142127600D01*
X73242800Y-139507600D02*
X68122800Y-139507600D01*
X73242800Y-142127600D02*
X73242800Y-139507600D01*
X68122800Y-142127600D02*
X68122800Y-139507600D01*
X67651000Y-57922800D02*
X72771000Y-57922800D01*
X67651000Y-60542800D02*
X72771000Y-60542800D01*
X67651000Y-57922800D02*
X67651000Y-60542800D01*
X72771000Y-57922800D02*
X72771000Y-60542800D01*
X94143200Y-57592600D02*
X99263200Y-57592600D01*
X94143200Y-60212600D02*
X99263200Y-60212600D01*
X94143200Y-57592600D02*
X94143200Y-60212600D01*
X99263200Y-57592600D02*
X99263200Y-60212600D01*
X107097200Y-57745000D02*
X112217200Y-57745000D01*
X107097200Y-60365000D02*
X112217200Y-60365000D01*
X107097200Y-57745000D02*
X107097200Y-60365000D01*
X112217200Y-57745000D02*
X112217200Y-60365000D01*
X120406800Y-57872000D02*
X125526800Y-57872000D01*
X120406800Y-60492000D02*
X125526800Y-60492000D01*
X120406800Y-57872000D02*
X120406800Y-60492000D01*
X125526800Y-57872000D02*
X125526800Y-60492000D01*
X139638400Y-141949800D02*
X134518400Y-141949800D01*
X139638400Y-139329800D02*
X134518400Y-139329800D01*
X139638400Y-141949800D02*
X139638400Y-139329800D01*
X134518400Y-141949800D02*
X134518400Y-139329800D01*
X58734400Y-60263600D02*
X58734400Y-60593600D01*
X58734400Y-60593600D02*
X52314400Y-60593600D01*
X52314400Y-60593600D02*
X52314400Y-60263600D01*
X58734400Y-58303600D02*
X58734400Y-57973600D01*
X58734400Y-57973600D02*
X52314400Y-57973600D01*
X52314400Y-57973600D02*
X52314400Y-58303600D01*
X144576800Y-67360800D02*
X144576800Y-57200800D01*
X143306800Y-67360800D02*
X150926800Y-67360800D01*
X150926800Y-67360800D02*
X150926800Y-57200800D01*
X150926800Y-57200800D02*
X143306800Y-57200800D01*
X143306800Y-57200800D02*
X143306800Y-67360800D01*
X149286000Y-53000000D02*
G75*
G03X149286000Y-53000000I-2286000J0D01*
G01*
X55286000Y-147000000D02*
G75*
G03X55286000Y-147000000I-2286000J0D01*
G01*
X51940900Y-68996000D02*
X51610900Y-68996000D01*
X51610900Y-68996000D02*
X51610900Y-62576000D01*
X51610900Y-62576000D02*
X51940900Y-62576000D01*
X53900900Y-68996000D02*
X54230900Y-68996000D01*
X54230900Y-68996000D02*
X54230900Y-62576000D01*
X54230900Y-62576000D02*
X53900900Y-62576000D01*
X60595765Y-126110108D02*
G75*
G03X63828100Y-126267016I1672335J1078608D01*
G01*
X60595765Y-123952892D02*
G75*
G02X63828100Y-123795984I1672335J-1078608D01*
G01*
X61226970Y-126111337D02*
G75*
G03X63309061Y-126111500I1041130J1079837D01*
G01*
X61226970Y-123951663D02*
G75*
G02X63309061Y-123951500I1041130J-1079837D01*
G01*
X63828100Y-126267500D02*
X63828100Y-126111500D01*
X63828100Y-123951500D02*
X63828100Y-123795500D01*
X60570365Y-121614308D02*
G75*
G03X63802700Y-121771216I1672335J1078608D01*
G01*
X60570365Y-119457092D02*
G75*
G02X63802700Y-119300184I1672335J-1078608D01*
G01*
X61201570Y-121615537D02*
G75*
G03X63283661Y-121615700I1041130J1079837D01*
G01*
X61201570Y-119455863D02*
G75*
G02X63283661Y-119455700I1041130J-1079837D01*
G01*
X63802700Y-121771700D02*
X63802700Y-121615700D01*
X63802700Y-119455700D02*
X63802700Y-119299700D01*
X58857665Y-82278608D02*
G75*
G03X62090000Y-82435516I1672335J1078608D01*
G01*
X58857665Y-80121392D02*
G75*
G02X62090000Y-79964484I1672335J-1078608D01*
G01*
X59488870Y-82279837D02*
G75*
G03X61570961Y-82280000I1041130J1079837D01*
G01*
X59488870Y-80120163D02*
G75*
G02X61570961Y-80120000I1041130J-1079837D01*
G01*
X62090000Y-82436000D02*
X62090000Y-82280000D01*
X62090000Y-80120000D02*
X62090000Y-79964000D01*
X58857665Y-77678608D02*
G75*
G03X62090000Y-77835516I1672335J1078608D01*
G01*
X58857665Y-75521392D02*
G75*
G02X62090000Y-75364484I1672335J-1078608D01*
G01*
X59488870Y-77679837D02*
G75*
G03X61570961Y-77680000I1041130J1079837D01*
G01*
X59488870Y-75520163D02*
G75*
G02X61570961Y-75520000I1041130J-1079837D01*
G01*
X62090000Y-77836000D02*
X62090000Y-77680000D01*
X62090000Y-75520000D02*
X62090000Y-75364000D01*
X58857665Y-73078608D02*
G75*
G03X62090000Y-73235516I1672335J1078608D01*
G01*
X58857665Y-70921392D02*
G75*
G02X62090000Y-70764484I1672335J-1078608D01*
G01*
X59488870Y-73079837D02*
G75*
G03X61570961Y-73080000I1041130J1079837D01*
G01*
X59488870Y-70920163D02*
G75*
G02X61570961Y-70920000I1041130J-1079837D01*
G01*
X62090000Y-73236000D02*
X62090000Y-73080000D01*
X62090000Y-70920000D02*
X62090000Y-70764000D01*
X57647400Y-130648000D02*
X57977400Y-130648000D01*
X57977400Y-130648000D02*
X57977400Y-137068000D01*
X57977400Y-137068000D02*
X57647400Y-137068000D01*
X55687400Y-130648000D02*
X55357400Y-130648000D01*
X55357400Y-130648000D02*
X55357400Y-137068000D01*
X55357400Y-137068000D02*
X55687400Y-137068000D01*
X52664800Y-126425400D02*
X52334800Y-126425400D01*
X52334800Y-126425400D02*
X52334800Y-120005400D01*
X52334800Y-120005400D02*
X52664800Y-120005400D01*
X54624800Y-126425400D02*
X54954800Y-126425400D01*
X54954800Y-126425400D02*
X54954800Y-120005400D01*
X54954800Y-120005400D02*
X54624800Y-120005400D01*
X55750900Y-126349200D02*
X55420900Y-126349200D01*
X55420900Y-126349200D02*
X55420900Y-119929200D01*
X55420900Y-119929200D02*
X55750900Y-119929200D01*
X57710900Y-126349200D02*
X58040900Y-126349200D01*
X58040900Y-126349200D02*
X58040900Y-119929200D01*
X58040900Y-119929200D02*
X57710900Y-119929200D01*
X56873700Y-115644100D02*
X56873700Y-115314100D01*
X56873700Y-115314100D02*
X63293700Y-115314100D01*
X63293700Y-115314100D02*
X63293700Y-115644100D01*
X56873700Y-117604100D02*
X56873700Y-117934100D01*
X56873700Y-117934100D02*
X63293700Y-117934100D01*
X63293700Y-117934100D02*
X63293700Y-117604100D01*
X54545000Y-78725000D02*
X54215000Y-78725000D01*
X54215000Y-78725000D02*
X54215000Y-72305000D01*
X54215000Y-72305000D02*
X54545000Y-72305000D01*
X56505000Y-78725000D02*
X56835000Y-78725000D01*
X56835000Y-78725000D02*
X56835000Y-72305000D01*
X56835000Y-72305000D02*
X56505000Y-72305000D01*
X54495000Y-69025000D02*
X54165000Y-69025000D01*
X54165000Y-69025000D02*
X54165000Y-62605000D01*
X54165000Y-62605000D02*
X54495000Y-62605000D01*
X56455000Y-69025000D02*
X56785000Y-69025000D01*
X56785000Y-69025000D02*
X56785000Y-62605000D01*
X56785000Y-62605000D02*
X56455000Y-62605000D01*
X58857665Y-68678608D02*
G75*
G03X62090000Y-68835516I1672335J1078608D01*
G01*
X58857665Y-66521392D02*
G75*
G02X62090000Y-66364484I1672335J-1078608D01*
G01*
X59488870Y-68679837D02*
G75*
G03X61570961Y-68680000I1041130J1079837D01*
G01*
X59488870Y-66520163D02*
G75*
G02X61570961Y-66520000I1041130J-1079837D01*
G01*
X62090000Y-68836000D02*
X62090000Y-68680000D01*
X62090000Y-66520000D02*
X62090000Y-66364000D01*
X58857665Y-64278608D02*
G75*
G03X62090000Y-64435516I1672335J1078608D01*
G01*
X58857665Y-62121392D02*
G75*
G02X62090000Y-61964484I1672335J-1078608D01*
G01*
X59488870Y-64279837D02*
G75*
G03X61570961Y-64280000I1041130J1079837D01*
G01*
X59488870Y-62120163D02*
G75*
G02X61570961Y-62120000I1041130J-1079837D01*
G01*
X62090000Y-64436000D02*
X62090000Y-64280000D01*
X62090000Y-62120000D02*
X62090000Y-61964000D01*
X149250400Y-133197600D02*
X149250400Y-143357600D01*
X150520400Y-133197600D02*
X142900400Y-133197600D01*
X142900400Y-133197600D02*
X142900400Y-143357600D01*
X142900400Y-143357600D02*
X150520400Y-143357600D01*
X150520400Y-143357600D02*
X150520400Y-133197600D01*
X149352000Y-122732800D02*
X149352000Y-132892800D01*
X150622000Y-122732800D02*
X143002000Y-122732800D01*
X143002000Y-122732800D02*
X143002000Y-132892800D01*
X143002000Y-132892800D02*
X150622000Y-132892800D01*
X150622000Y-132892800D02*
X150622000Y-122732800D01*
X149606000Y-78232000D02*
X149606000Y-88392000D01*
X150876000Y-78232000D02*
X143256000Y-78232000D01*
X143256000Y-78232000D02*
X143256000Y-88392000D01*
X143256000Y-88392000D02*
X150876000Y-88392000D01*
X150876000Y-88392000D02*
X150876000Y-78232000D01*
X56194000Y-86871500D02*
X50994000Y-86871500D01*
X56194000Y-109791500D02*
X56194000Y-86871500D01*
X50994000Y-112391500D02*
X50994000Y-86871500D01*
X56194000Y-109791500D02*
X53594000Y-109791500D01*
X53594000Y-109791500D02*
X53594000Y-112391500D01*
X53594000Y-112391500D02*
X50994000Y-112391500D01*
X56194000Y-111061500D02*
X56194000Y-112391500D01*
X56194000Y-112391500D02*
X54864000Y-112391500D01*
X125770000Y-141873600D02*
X120650000Y-141873600D01*
X125770000Y-139253600D02*
X120650000Y-139253600D01*
X125770000Y-141873600D02*
X125770000Y-139253600D01*
X120650000Y-141873600D02*
X120650000Y-139253600D01*
X134376800Y-57694200D02*
X139496800Y-57694200D01*
X134376800Y-60314200D02*
X139496800Y-60314200D01*
X134376800Y-57694200D02*
X134376800Y-60314200D01*
X139496800Y-57694200D02*
X139496800Y-60314200D01*
X64962400Y-89321000D02*
X59842400Y-89321000D01*
X64962400Y-86701000D02*
X59842400Y-86701000D01*
X64962400Y-89321000D02*
X64962400Y-86701000D01*
X59842400Y-89321000D02*
X59842400Y-86701000D01*
X64911600Y-91937200D02*
X59791600Y-91937200D01*
X64911600Y-89317200D02*
X59791600Y-89317200D01*
X64911600Y-91937200D02*
X64911600Y-89317200D01*
X59791600Y-91937200D02*
X59791600Y-89317200D01*
X64962400Y-94451800D02*
X59842400Y-94451800D01*
X64962400Y-91831800D02*
X59842400Y-91831800D01*
X64962400Y-94451800D02*
X64962400Y-91831800D01*
X59842400Y-94451800D02*
X59842400Y-91831800D01*
X64911600Y-97245800D02*
X59791600Y-97245800D01*
X64911600Y-94625800D02*
X59791600Y-94625800D01*
X64911600Y-97245800D02*
X64911600Y-94625800D01*
X59791600Y-97245800D02*
X59791600Y-94625800D01*
X64962400Y-99709600D02*
X59842400Y-99709600D01*
X64962400Y-97089600D02*
X59842400Y-97089600D01*
X64962400Y-99709600D02*
X64962400Y-97089600D01*
X59842400Y-99709600D02*
X59842400Y-97089600D01*
X64911600Y-102351200D02*
X59791600Y-102351200D01*
X64911600Y-99731200D02*
X59791600Y-99731200D01*
X64911600Y-102351200D02*
X64911600Y-99731200D01*
X59791600Y-102351200D02*
X59791600Y-99731200D01*
X64937000Y-104942000D02*
X59817000Y-104942000D01*
X64937000Y-102322000D02*
X59817000Y-102322000D01*
X64937000Y-104942000D02*
X64937000Y-102322000D01*
X59817000Y-104942000D02*
X59817000Y-102322000D01*
X64937000Y-107456600D02*
X59817000Y-107456600D01*
X64937000Y-104836600D02*
X59817000Y-104836600D01*
X64937000Y-107456600D02*
X64937000Y-104836600D01*
X59817000Y-107456600D02*
X59817000Y-104836600D01*
X64901440Y-109996600D02*
X59781440Y-109996600D01*
X64901440Y-107376600D02*
X59781440Y-107376600D01*
X64901440Y-109996600D02*
X64901440Y-107376600D01*
X59781440Y-109996600D02*
X59781440Y-107376600D01*
X55245000Y-53035200D02*
G75*
G03X55245000Y-53035200I-2286000J0D01*
G01*
X57480840Y-148919240D02*
X57480840Y-143799240D01*
X60100840Y-148919240D02*
X60100840Y-143799240D01*
X57480840Y-148919240D02*
X57794840Y-148919240D01*
X59786840Y-148919240D02*
X60100840Y-148919240D01*
X57480840Y-143799240D02*
X57794840Y-143799240D01*
X59786840Y-143799240D02*
X60100840Y-143799240D01*
X60881900Y-148865900D02*
X60881900Y-143745900D01*
X63501900Y-148865900D02*
X63501900Y-143745900D01*
X60881900Y-148865900D02*
X61195900Y-148865900D01*
X63187900Y-148865900D02*
X63501900Y-148865900D01*
X60881900Y-143745900D02*
X61195900Y-143745900D01*
X63187900Y-143745900D02*
X63501900Y-143745900D01*
X56181300Y-142711800D02*
X51061300Y-142711800D01*
X56181300Y-140091800D02*
X51061300Y-140091800D01*
X56181300Y-142711800D02*
X56181300Y-142397800D01*
X56181300Y-140405800D02*
X56181300Y-140091800D01*
X51061300Y-142711800D02*
X51061300Y-142397800D01*
X51061300Y-140405800D02*
X51061300Y-140091800D01*
X142109500Y-149900000D02*
X136989500Y-149900000D01*
X142109500Y-147280000D02*
X136989500Y-147280000D01*
X142109500Y-149900000D02*
X142109500Y-149586000D01*
X142109500Y-147594000D02*
X142109500Y-147280000D01*
X136989500Y-149900000D02*
X136989500Y-149586000D01*
X136989500Y-147594000D02*
X136989500Y-147280000D01*
X149286000Y-147000000D02*
G75*
G03X149286000Y-147000000I-2286000J0D01*
G01*
X144058000Y-52618000D02*
X138938000Y-52618000D01*
X144058000Y-49998000D02*
X138938000Y-49998000D01*
X144058000Y-52618000D02*
X144058000Y-49998000D01*
X138938000Y-52618000D02*
X138938000Y-49998000D01*
D13*
X101840800Y-105476800D02*
X101840800Y-106476800D01*
X92840800Y-105476800D02*
X92840800Y-106476800D01*
X92340800Y-104976800D02*
X89840800Y-104976800D01*
X89840800Y-104976800D02*
X89840800Y-105476800D01*
X102840800Y-104976800D02*
X105340800Y-104976800D01*
X105340800Y-104976800D02*
X105340800Y-105476800D01*
X101840800Y-106968800D02*
X101840800Y-107968800D01*
X92840800Y-106968800D02*
X92840800Y-107968800D01*
X94717800Y-105234800D02*
G75*
G03X92717800Y-105234800I-1000000J-1000000D01*
G01*
X96717800Y-105234800D02*
G75*
G03X94717800Y-105234800I-1000000J-1000000D01*
G01*
X98717800Y-105234800D02*
G75*
G03X96717800Y-105234800I-1000000J-1000000D01*
G01*
X100717800Y-105234800D02*
G75*
G03X98717800Y-105234800I-1000000J-1000000D01*
G01*
X102717800Y-105234800D02*
G75*
G03X100717800Y-105234800I-1000000J-1000000D01*
G01*
X93840800Y-106476800D02*
X92840800Y-106476800D01*
X91840800Y-106476800D02*
X93840800Y-106476800D01*
X91840800Y-106968800D02*
X92840800Y-106968800D01*
X93840800Y-106968800D02*
X91840800Y-106968800D01*
X102840800Y-106968800D02*
X100840800Y-106968800D01*
X100840800Y-106968800D02*
X101840800Y-106968800D01*
X100840800Y-106476800D02*
X102840800Y-106476800D01*
X102840800Y-106476800D02*
X101840800Y-106476800D01*
X121017800Y-105654600D02*
X121017800Y-106654600D01*
X112017800Y-105654600D02*
X112017800Y-106654600D01*
X111517800Y-105154600D02*
X109017800Y-105154600D01*
X109017800Y-105154600D02*
X109017800Y-105654600D01*
X122017800Y-105154600D02*
X124517800Y-105154600D01*
X124517800Y-105154600D02*
X124517800Y-105654600D01*
X121017800Y-107146600D02*
X121017800Y-108146600D01*
X112017800Y-107146600D02*
X112017800Y-108146600D01*
X113894800Y-105412600D02*
G75*
G03X111894800Y-105412600I-1000000J-1000000D01*
G01*
X115894800Y-105412600D02*
G75*
G03X113894800Y-105412600I-1000000J-1000000D01*
G01*
X117894800Y-105412600D02*
G75*
G03X115894800Y-105412600I-1000000J-1000000D01*
G01*
X119894800Y-105412600D02*
G75*
G03X117894800Y-105412600I-1000000J-1000000D01*
G01*
X121894800Y-105412600D02*
G75*
G03X119894800Y-105412600I-1000000J-1000000D01*
G01*
X113017800Y-106654600D02*
X112017800Y-106654600D01*
X111017800Y-106654600D02*
X113017800Y-106654600D01*
X111017800Y-107146600D02*
X112017800Y-107146600D01*
X113017800Y-107146600D02*
X111017800Y-107146600D01*
X122017800Y-107146600D02*
X120017800Y-107146600D01*
X120017800Y-107146600D02*
X121017800Y-107146600D01*
X120017800Y-106654600D02*
X122017800Y-106654600D01*
X122017800Y-106654600D02*
X121017800Y-106654600D01*
X140207500Y-105616500D02*
X140207500Y-106616500D01*
X131207500Y-105616500D02*
X131207500Y-106616500D01*
X130707500Y-105116500D02*
X128207500Y-105116500D01*
X128207500Y-105116500D02*
X128207500Y-105616500D01*
X141207500Y-105116500D02*
X143707500Y-105116500D01*
X143707500Y-105116500D02*
X143707500Y-105616500D01*
X140207500Y-107108500D02*
X140207500Y-108108500D01*
X131207500Y-107108500D02*
X131207500Y-108108500D01*
X133084500Y-105374500D02*
G75*
G03X131084500Y-105374500I-1000000J-1000000D01*
G01*
X135084500Y-105374500D02*
G75*
G03X133084500Y-105374500I-1000000J-1000000D01*
G01*
X137084500Y-105374500D02*
G75*
G03X135084500Y-105374500I-1000000J-1000000D01*
G01*
X139084500Y-105374500D02*
G75*
G03X137084500Y-105374500I-1000000J-1000000D01*
G01*
X141084500Y-105374500D02*
G75*
G03X139084500Y-105374500I-1000000J-1000000D01*
G01*
X132207500Y-106616500D02*
X131207500Y-106616500D01*
X130207500Y-106616500D02*
X132207500Y-106616500D01*
X130207500Y-107108500D02*
X131207500Y-107108500D01*
X132207500Y-107108500D02*
X130207500Y-107108500D01*
X141207500Y-107108500D02*
X139207500Y-107108500D01*
X139207500Y-107108500D02*
X140207500Y-107108500D01*
X139207500Y-106616500D02*
X141207500Y-106616500D01*
X141207500Y-106616500D02*
X140207500Y-106616500D01*
X82587600Y-105527600D02*
X82587600Y-106527600D01*
X73587600Y-105527600D02*
X73587600Y-106527600D01*
X73087600Y-105027600D02*
X70587600Y-105027600D01*
X70587600Y-105027600D02*
X70587600Y-105527600D01*
X83587600Y-105027600D02*
X86087600Y-105027600D01*
X86087600Y-105027600D02*
X86087600Y-105527600D01*
X82587600Y-107019600D02*
X82587600Y-108019600D01*
X73587600Y-107019600D02*
X73587600Y-108019600D01*
X75464600Y-105285600D02*
G75*
G03X73464600Y-105285600I-1000000J-1000000D01*
G01*
X77464600Y-105285600D02*
G75*
G03X75464600Y-105285600I-1000000J-1000000D01*
G01*
X79464600Y-105285600D02*
G75*
G03X77464600Y-105285600I-1000000J-1000000D01*
G01*
X81464600Y-105285600D02*
G75*
G03X79464600Y-105285600I-1000000J-1000000D01*
G01*
X83464600Y-105285600D02*
G75*
G03X81464600Y-105285600I-1000000J-1000000D01*
G01*
X74587600Y-106527600D02*
X73587600Y-106527600D01*
X72587600Y-106527600D02*
X74587600Y-106527600D01*
X72587600Y-107019600D02*
X73587600Y-107019600D01*
X74587600Y-107019600D02*
X72587600Y-107019600D01*
X83587600Y-107019600D02*
X81587600Y-107019600D01*
X81587600Y-107019600D02*
X82587600Y-107019600D01*
X81587600Y-106527600D02*
X83587600Y-106527600D01*
X83587600Y-106527600D02*
X82587600Y-106527600D01*
X73114400Y-94980000D02*
X73114400Y-93980000D01*
X82114400Y-94980000D02*
X82114400Y-93980000D01*
X82614400Y-95480000D02*
X85114400Y-95480000D01*
X85114400Y-95480000D02*
X85114400Y-94980000D01*
X72114400Y-95480000D02*
X69614400Y-95480000D01*
X69614400Y-95480000D02*
X69614400Y-94980000D01*
X73114400Y-93488000D02*
X73114400Y-92488000D01*
X82114400Y-93488000D02*
X82114400Y-92488000D01*
X80237400Y-95222000D02*
G75*
G03X82237400Y-95222000I1000000J1000000D01*
G01*
X78237400Y-95222000D02*
G75*
G03X80237400Y-95222000I1000000J1000000D01*
G01*
X76237400Y-95222000D02*
G75*
G03X78237400Y-95222000I1000000J1000000D01*
G01*
X74237400Y-95222000D02*
G75*
G03X76237400Y-95222000I1000000J1000000D01*
G01*
X72237400Y-95222000D02*
G75*
G03X74237400Y-95222000I1000000J1000000D01*
G01*
X81114400Y-93980000D02*
X82114400Y-93980000D01*
X83114400Y-93980000D02*
X81114400Y-93980000D01*
X83114400Y-93488000D02*
X82114400Y-93488000D01*
X81114400Y-93488000D02*
X83114400Y-93488000D01*
X72114400Y-93488000D02*
X74114400Y-93488000D01*
X74114400Y-93488000D02*
X73114400Y-93488000D01*
X74114400Y-93980000D02*
X72114400Y-93980000D01*
X72114400Y-93980000D02*
X73114400Y-93980000D01*
X92200000Y-95000000D02*
X92200000Y-94000000D01*
X101200000Y-95000000D02*
X101200000Y-94000000D01*
X101700000Y-95500000D02*
X104200000Y-95500000D01*
X104200000Y-95500000D02*
X104200000Y-95000000D01*
X91200000Y-95500000D02*
X88700000Y-95500000D01*
X88700000Y-95500000D02*
X88700000Y-95000000D01*
X92200000Y-93508000D02*
X92200000Y-92508000D01*
X101200000Y-93508000D02*
X101200000Y-92508000D01*
X99323000Y-95242000D02*
G75*
G03X101323000Y-95242000I1000000J1000000D01*
G01*
X97323000Y-95242000D02*
G75*
G03X99323000Y-95242000I1000000J1000000D01*
G01*
X95323000Y-95242000D02*
G75*
G03X97323000Y-95242000I1000000J1000000D01*
G01*
X93323000Y-95242000D02*
G75*
G03X95323000Y-95242000I1000000J1000000D01*
G01*
X91323000Y-95242000D02*
G75*
G03X93323000Y-95242000I1000000J1000000D01*
G01*
X100200000Y-94000000D02*
X101200000Y-94000000D01*
X102200000Y-94000000D02*
X100200000Y-94000000D01*
X102200000Y-93508000D02*
X101200000Y-93508000D01*
X100200000Y-93508000D02*
X102200000Y-93508000D01*
X91200000Y-93508000D02*
X93200000Y-93508000D01*
X93200000Y-93508000D02*
X92200000Y-93508000D01*
X93200000Y-94000000D02*
X91200000Y-94000000D01*
X91200000Y-94000000D02*
X92200000Y-94000000D01*
X111265200Y-94980000D02*
X111265200Y-93980000D01*
X120265200Y-94980000D02*
X120265200Y-93980000D01*
X120765200Y-95480000D02*
X123265200Y-95480000D01*
X123265200Y-95480000D02*
X123265200Y-94980000D01*
X110265200Y-95480000D02*
X107765200Y-95480000D01*
X107765200Y-95480000D02*
X107765200Y-94980000D01*
X111265200Y-93488000D02*
X111265200Y-92488000D01*
X120265200Y-93488000D02*
X120265200Y-92488000D01*
X118388200Y-95222000D02*
G75*
G03X120388200Y-95222000I1000000J1000000D01*
G01*
X116388200Y-95222000D02*
G75*
G03X118388200Y-95222000I1000000J1000000D01*
G01*
X114388200Y-95222000D02*
G75*
G03X116388200Y-95222000I1000000J1000000D01*
G01*
X112388200Y-95222000D02*
G75*
G03X114388200Y-95222000I1000000J1000000D01*
G01*
X110388200Y-95222000D02*
G75*
G03X112388200Y-95222000I1000000J1000000D01*
G01*
X119265200Y-93980000D02*
X120265200Y-93980000D01*
X121265200Y-93980000D02*
X119265200Y-93980000D01*
X121265200Y-93488000D02*
X120265200Y-93488000D01*
X119265200Y-93488000D02*
X121265200Y-93488000D01*
X110265200Y-93488000D02*
X112265200Y-93488000D01*
X112265200Y-93488000D02*
X111265200Y-93488000D01*
X112265200Y-93980000D02*
X110265200Y-93980000D01*
X110265200Y-93980000D02*
X111265200Y-93980000D01*
X130569200Y-95030800D02*
X130569200Y-94030800D01*
X139569200Y-95030800D02*
X139569200Y-94030800D01*
X140069200Y-95530800D02*
X142569200Y-95530800D01*
X142569200Y-95530800D02*
X142569200Y-95030800D01*
X129569200Y-95530800D02*
X127069200Y-95530800D01*
X127069200Y-95530800D02*
X127069200Y-95030800D01*
X130569200Y-93538800D02*
X130569200Y-92538800D01*
X139569200Y-93538800D02*
X139569200Y-92538800D01*
X137692200Y-95272800D02*
G75*
G03X139692200Y-95272800I1000000J1000000D01*
G01*
X135692200Y-95272800D02*
G75*
G03X137692200Y-95272800I1000000J1000000D01*
G01*
X133692200Y-95272800D02*
G75*
G03X135692200Y-95272800I1000000J1000000D01*
G01*
X131692200Y-95272800D02*
G75*
G03X133692200Y-95272800I1000000J1000000D01*
G01*
X129692200Y-95272800D02*
G75*
G03X131692200Y-95272800I1000000J1000000D01*
G01*
X138569200Y-94030800D02*
X139569200Y-94030800D01*
X140569200Y-94030800D02*
X138569200Y-94030800D01*
X140569200Y-93538800D02*
X139569200Y-93538800D01*
X138569200Y-93538800D02*
X140569200Y-93538800D01*
X129569200Y-93538800D02*
X131569200Y-93538800D01*
X131569200Y-93538800D02*
X130569200Y-93538800D01*
X131569200Y-94030800D02*
X129569200Y-94030800D01*
X129569200Y-94030800D02*
X130569200Y-94030800D01*
X115413800Y-139115300D02*
X115413800Y-118115300D01*
X105413800Y-118115300D02*
X105413800Y-139115300D01*
X105413800Y-139115300D02*
X115413800Y-139115300D01*
X109413800Y-125115300D02*
X109413800Y-120115300D01*
X109413800Y-120115300D02*
X107413800Y-120115300D01*
X111413800Y-125115300D02*
X111413800Y-120115300D01*
X111413800Y-120115300D02*
X113413800Y-120115300D01*
X113413800Y-125115300D02*
X112413800Y-125115300D01*
X107413800Y-125115300D02*
X108413800Y-125115300D01*
X113413800Y-130115300D02*
X111413800Y-130115300D01*
X111413800Y-130115300D02*
X112413800Y-123115300D01*
X107413800Y-130115300D02*
X109413800Y-130115300D01*
X109413800Y-130115300D02*
X108413800Y-123115300D01*
X115413800Y-118115300D02*
X105413800Y-118115300D01*
X111413800Y-134115300D02*
X114413800Y-134115300D01*
X106413800Y-136115300D02*
X106413800Y-134115300D01*
X106413800Y-134115300D02*
X109413800Y-134115300D01*
X109413800Y-134115300D02*
X109413800Y-136115300D01*
X109413800Y-136115300D02*
X111413800Y-136115300D01*
X111413800Y-136115300D02*
X111413800Y-132115300D01*
X111413800Y-132115300D02*
X109413800Y-132115300D01*
X109413800Y-132115300D02*
X109413800Y-134115300D01*
X114413800Y-136115300D02*
X114413800Y-134115300D01*
X102345500Y-139115300D02*
X102345500Y-118115300D01*
X92345500Y-118115300D02*
X92345500Y-139115300D01*
X92345500Y-139115300D02*
X102345500Y-139115300D01*
X96345500Y-125115300D02*
X96345500Y-120115300D01*
X96345500Y-120115300D02*
X94345500Y-120115300D01*
X98345500Y-125115300D02*
X98345500Y-120115300D01*
X98345500Y-120115300D02*
X100345500Y-120115300D01*
X100345500Y-125115300D02*
X99345500Y-125115300D01*
X94345500Y-125115300D02*
X95345500Y-125115300D01*
X100345500Y-130115300D02*
X98345500Y-130115300D01*
X98345500Y-130115300D02*
X99345500Y-123115300D01*
X94345500Y-130115300D02*
X96345500Y-130115300D01*
X96345500Y-130115300D02*
X95345500Y-123115300D01*
X102345500Y-118115300D02*
X92345500Y-118115300D01*
X98345500Y-134115300D02*
X101345500Y-134115300D01*
X93345500Y-136115300D02*
X93345500Y-134115300D01*
X93345500Y-134115300D02*
X96345500Y-134115300D01*
X96345500Y-134115300D02*
X96345500Y-136115300D01*
X96345500Y-136115300D02*
X98345500Y-136115300D01*
X98345500Y-136115300D02*
X98345500Y-132115300D01*
X98345500Y-132115300D02*
X96345500Y-132115300D01*
X96345500Y-132115300D02*
X96345500Y-134115300D01*
X101345500Y-136115300D02*
X101345500Y-134115300D01*
X89100000Y-139200000D02*
X89100000Y-118200000D01*
X79100000Y-118200000D02*
X79100000Y-139200000D01*
X79100000Y-139200000D02*
X89100000Y-139200000D01*
X83100000Y-125200000D02*
X83100000Y-120200000D01*
X83100000Y-120200000D02*
X81100000Y-120200000D01*
X85100000Y-125200000D02*
X85100000Y-120200000D01*
X85100000Y-120200000D02*
X87100000Y-120200000D01*
X87100000Y-125200000D02*
X86100000Y-125200000D01*
X81100000Y-125200000D02*
X82100000Y-125200000D01*
X87100000Y-130200000D02*
X85100000Y-130200000D01*
X85100000Y-130200000D02*
X86100000Y-123200000D01*
X81100000Y-130200000D02*
X83100000Y-130200000D01*
X83100000Y-130200000D02*
X82100000Y-123200000D01*
X89100000Y-118200000D02*
X79100000Y-118200000D01*
X85100000Y-134200000D02*
X88100000Y-134200000D01*
X80100000Y-136200000D02*
X80100000Y-134200000D01*
X80100000Y-134200000D02*
X83100000Y-134200000D01*
X83100000Y-134200000D02*
X83100000Y-136200000D01*
X83100000Y-136200000D02*
X85100000Y-136200000D01*
X85100000Y-136200000D02*
X85100000Y-132200000D01*
X85100000Y-132200000D02*
X83100000Y-132200000D01*
X83100000Y-132200000D02*
X83100000Y-134200000D01*
X88100000Y-136200000D02*
X88100000Y-134200000D01*
X76000000Y-139100000D02*
X76000000Y-118100000D01*
X66000000Y-118100000D02*
X66000000Y-139100000D01*
X66000000Y-139100000D02*
X76000000Y-139100000D01*
X70000000Y-125100000D02*
X70000000Y-120100000D01*
X70000000Y-120100000D02*
X68000000Y-120100000D01*
X72000000Y-125100000D02*
X72000000Y-120100000D01*
X72000000Y-120100000D02*
X74000000Y-120100000D01*
X74000000Y-125100000D02*
X73000000Y-125100000D01*
X68000000Y-125100000D02*
X69000000Y-125100000D01*
X74000000Y-130100000D02*
X72000000Y-130100000D01*
X72000000Y-130100000D02*
X73000000Y-123100000D01*
X68000000Y-130100000D02*
X70000000Y-130100000D01*
X70000000Y-130100000D02*
X69000000Y-123100000D01*
X76000000Y-118100000D02*
X66000000Y-118100000D01*
X72000000Y-134100000D02*
X75000000Y-134100000D01*
X67000000Y-136100000D02*
X67000000Y-134100000D01*
X67000000Y-134100000D02*
X70000000Y-134100000D01*
X70000000Y-134100000D02*
X70000000Y-136100000D01*
X70000000Y-136100000D02*
X72000000Y-136100000D01*
X72000000Y-136100000D02*
X72000000Y-132100000D01*
X72000000Y-132100000D02*
X70000000Y-132100000D01*
X70000000Y-132100000D02*
X70000000Y-134100000D01*
X75000000Y-136100000D02*
X75000000Y-134100000D01*
X65000000Y-60700000D02*
X65000000Y-81700000D01*
X75000000Y-81700000D02*
X75000000Y-60700000D01*
X75000000Y-60700000D02*
X65000000Y-60700000D01*
X71000000Y-74700000D02*
X71000000Y-79700000D01*
X71000000Y-79700000D02*
X73000000Y-79700000D01*
X69000000Y-74700000D02*
X69000000Y-79700000D01*
X69000000Y-79700000D02*
X67000000Y-79700000D01*
X67000000Y-74700000D02*
X68000000Y-74700000D01*
X73000000Y-74700000D02*
X72000000Y-74700000D01*
X67000000Y-69700000D02*
X69000000Y-69700000D01*
X69000000Y-69700000D02*
X68000000Y-76700000D01*
X73000000Y-69700000D02*
X71000000Y-69700000D01*
X71000000Y-69700000D02*
X72000000Y-76700000D01*
X65000000Y-81700000D02*
X75000000Y-81700000D01*
X69000000Y-65700000D02*
X66000000Y-65700000D01*
X74000000Y-63700000D02*
X74000000Y-65700000D01*
X74000000Y-65700000D02*
X71000000Y-65700000D01*
X71000000Y-65700000D02*
X71000000Y-63700000D01*
X71000000Y-63700000D02*
X69000000Y-63700000D01*
X69000000Y-63700000D02*
X69000000Y-67700000D01*
X69000000Y-67700000D02*
X71000000Y-67700000D01*
X71000000Y-67700000D02*
X71000000Y-65700000D01*
X66000000Y-63700000D02*
X66000000Y-65700000D01*
X78200000Y-60800000D02*
X78200000Y-81800000D01*
X88200000Y-81800000D02*
X88200000Y-60800000D01*
X88200000Y-60800000D02*
X78200000Y-60800000D01*
X84200000Y-74800000D02*
X84200000Y-79800000D01*
X84200000Y-79800000D02*
X86200000Y-79800000D01*
X82200000Y-74800000D02*
X82200000Y-79800000D01*
X82200000Y-79800000D02*
X80200000Y-79800000D01*
X80200000Y-74800000D02*
X81200000Y-74800000D01*
X86200000Y-74800000D02*
X85200000Y-74800000D01*
X80200000Y-69800000D02*
X82200000Y-69800000D01*
X82200000Y-69800000D02*
X81200000Y-76800000D01*
X86200000Y-69800000D02*
X84200000Y-69800000D01*
X84200000Y-69800000D02*
X85200000Y-76800000D01*
X78200000Y-81800000D02*
X88200000Y-81800000D01*
X82200000Y-65800000D02*
X79200000Y-65800000D01*
X87200000Y-63800000D02*
X87200000Y-65800000D01*
X87200000Y-65800000D02*
X84200000Y-65800000D01*
X84200000Y-65800000D02*
X84200000Y-63800000D01*
X84200000Y-63800000D02*
X82200000Y-63800000D01*
X82200000Y-63800000D02*
X82200000Y-67800000D01*
X82200000Y-67800000D02*
X84200000Y-67800000D01*
X84200000Y-67800000D02*
X84200000Y-65800000D01*
X79200000Y-63800000D02*
X79200000Y-65800000D01*
X91570800Y-60617600D02*
X91570800Y-81617600D01*
X101570800Y-81617600D02*
X101570800Y-60617600D01*
X101570800Y-60617600D02*
X91570800Y-60617600D01*
X97570800Y-74617600D02*
X97570800Y-79617600D01*
X97570800Y-79617600D02*
X99570800Y-79617600D01*
X95570800Y-74617600D02*
X95570800Y-79617600D01*
X95570800Y-79617600D02*
X93570800Y-79617600D01*
X93570800Y-74617600D02*
X94570800Y-74617600D01*
X99570800Y-74617600D02*
X98570800Y-74617600D01*
X93570800Y-69617600D02*
X95570800Y-69617600D01*
X95570800Y-69617600D02*
X94570800Y-76617600D01*
X99570800Y-69617600D02*
X97570800Y-69617600D01*
X97570800Y-69617600D02*
X98570800Y-76617600D01*
X91570800Y-81617600D02*
X101570800Y-81617600D01*
X95570800Y-65617600D02*
X92570800Y-65617600D01*
X100570800Y-63617600D02*
X100570800Y-65617600D01*
X100570800Y-65617600D02*
X97570800Y-65617600D01*
X97570800Y-65617600D02*
X97570800Y-63617600D01*
X97570800Y-63617600D02*
X95570800Y-63617600D01*
X95570800Y-63617600D02*
X95570800Y-67617600D01*
X95570800Y-67617600D02*
X97570800Y-67617600D01*
X97570800Y-67617600D02*
X97570800Y-65617600D01*
X92570800Y-63617600D02*
X92570800Y-65617600D01*
X104900000Y-60600000D02*
X104900000Y-81600000D01*
X114900000Y-81600000D02*
X114900000Y-60600000D01*
X114900000Y-60600000D02*
X104900000Y-60600000D01*
X110900000Y-74600000D02*
X110900000Y-79600000D01*
X110900000Y-79600000D02*
X112900000Y-79600000D01*
X108900000Y-74600000D02*
X108900000Y-79600000D01*
X108900000Y-79600000D02*
X106900000Y-79600000D01*
X106900000Y-74600000D02*
X107900000Y-74600000D01*
X112900000Y-74600000D02*
X111900000Y-74600000D01*
X106900000Y-69600000D02*
X108900000Y-69600000D01*
X108900000Y-69600000D02*
X107900000Y-76600000D01*
X112900000Y-69600000D02*
X110900000Y-69600000D01*
X110900000Y-69600000D02*
X111900000Y-76600000D01*
X104900000Y-81600000D02*
X114900000Y-81600000D01*
X108900000Y-65600000D02*
X105900000Y-65600000D01*
X113900000Y-63600000D02*
X113900000Y-65600000D01*
X113900000Y-65600000D02*
X110900000Y-65600000D01*
X110900000Y-65600000D02*
X110900000Y-63600000D01*
X110900000Y-63600000D02*
X108900000Y-63600000D01*
X108900000Y-63600000D02*
X108900000Y-67600000D01*
X108900000Y-67600000D02*
X110900000Y-67600000D01*
X110900000Y-67600000D02*
X110900000Y-65600000D01*
X105900000Y-63600000D02*
X105900000Y-65600000D01*
X118000000Y-60800000D02*
X118000000Y-81800000D01*
X128000000Y-81800000D02*
X128000000Y-60800000D01*
X128000000Y-60800000D02*
X118000000Y-60800000D01*
X124000000Y-74800000D02*
X124000000Y-79800000D01*
X124000000Y-79800000D02*
X126000000Y-79800000D01*
X122000000Y-74800000D02*
X122000000Y-79800000D01*
X122000000Y-79800000D02*
X120000000Y-79800000D01*
X120000000Y-74800000D02*
X121000000Y-74800000D01*
X126000000Y-74800000D02*
X125000000Y-74800000D01*
X120000000Y-69800000D02*
X122000000Y-69800000D01*
X122000000Y-69800000D02*
X121000000Y-76800000D01*
X126000000Y-69800000D02*
X124000000Y-69800000D01*
X124000000Y-69800000D02*
X125000000Y-76800000D01*
X118000000Y-81800000D02*
X128000000Y-81800000D01*
X122000000Y-65800000D02*
X119000000Y-65800000D01*
X127000000Y-63800000D02*
X127000000Y-65800000D01*
X127000000Y-65800000D02*
X124000000Y-65800000D01*
X124000000Y-65800000D02*
X124000000Y-63800000D01*
X124000000Y-63800000D02*
X122000000Y-63800000D01*
X122000000Y-63800000D02*
X122000000Y-67800000D01*
X122000000Y-67800000D02*
X124000000Y-67800000D01*
X124000000Y-67800000D02*
X124000000Y-65800000D01*
X119000000Y-63800000D02*
X119000000Y-65800000D01*
X131300000Y-60600000D02*
X131300000Y-81600000D01*
X141300000Y-81600000D02*
X141300000Y-60600000D01*
X141300000Y-60600000D02*
X131300000Y-60600000D01*
X137300000Y-74600000D02*
X137300000Y-79600000D01*
X137300000Y-79600000D02*
X139300000Y-79600000D01*
X135300000Y-74600000D02*
X135300000Y-79600000D01*
X135300000Y-79600000D02*
X133300000Y-79600000D01*
X133300000Y-74600000D02*
X134300000Y-74600000D01*
X139300000Y-74600000D02*
X138300000Y-74600000D01*
X133300000Y-69600000D02*
X135300000Y-69600000D01*
X135300000Y-69600000D02*
X134300000Y-76600000D01*
X139300000Y-69600000D02*
X137300000Y-69600000D01*
X137300000Y-69600000D02*
X138300000Y-76600000D01*
X131300000Y-81600000D02*
X141300000Y-81600000D01*
X135300000Y-65600000D02*
X132300000Y-65600000D01*
X140300000Y-63600000D02*
X140300000Y-65600000D01*
X140300000Y-65600000D02*
X137300000Y-65600000D01*
X137300000Y-65600000D02*
X137300000Y-63600000D01*
X137300000Y-63600000D02*
X135300000Y-63600000D01*
X135300000Y-63600000D02*
X135300000Y-67600000D01*
X135300000Y-67600000D02*
X137300000Y-67600000D01*
X137300000Y-67600000D02*
X137300000Y-65600000D01*
X132300000Y-63600000D02*
X132300000Y-65600000D01*
X128444000Y-139064500D02*
X128444000Y-118064500D01*
X118444000Y-118064500D02*
X118444000Y-139064500D01*
X118444000Y-139064500D02*
X128444000Y-139064500D01*
X122444000Y-125064500D02*
X122444000Y-120064500D01*
X122444000Y-120064500D02*
X120444000Y-120064500D01*
X124444000Y-125064500D02*
X124444000Y-120064500D01*
X124444000Y-120064500D02*
X126444000Y-120064500D01*
X126444000Y-125064500D02*
X125444000Y-125064500D01*
X120444000Y-125064500D02*
X121444000Y-125064500D01*
X126444000Y-130064500D02*
X124444000Y-130064500D01*
X124444000Y-130064500D02*
X125444000Y-123064500D01*
X120444000Y-130064500D02*
X122444000Y-130064500D01*
X122444000Y-130064500D02*
X121444000Y-123064500D01*
X128444000Y-118064500D02*
X118444000Y-118064500D01*
X124444000Y-134064500D02*
X127444000Y-134064500D01*
X119444000Y-136064500D02*
X119444000Y-134064500D01*
X119444000Y-134064500D02*
X122444000Y-134064500D01*
X122444000Y-134064500D02*
X122444000Y-136064500D01*
X122444000Y-136064500D02*
X124444000Y-136064500D01*
X124444000Y-136064500D02*
X124444000Y-132064500D01*
X124444000Y-132064500D02*
X122444000Y-132064500D01*
X122444000Y-132064500D02*
X122444000Y-134064500D01*
X127444000Y-136064500D02*
X127444000Y-134064500D01*
X141700000Y-139100000D02*
X141700000Y-118100000D01*
X131700000Y-118100000D02*
X131700000Y-139100000D01*
X131700000Y-139100000D02*
X141700000Y-139100000D01*
X135700000Y-125100000D02*
X135700000Y-120100000D01*
X135700000Y-120100000D02*
X133700000Y-120100000D01*
X137700000Y-125100000D02*
X137700000Y-120100000D01*
X137700000Y-120100000D02*
X139700000Y-120100000D01*
X139700000Y-125100000D02*
X138700000Y-125100000D01*
X133700000Y-125100000D02*
X134700000Y-125100000D01*
X139700000Y-130100000D02*
X137700000Y-130100000D01*
X137700000Y-130100000D02*
X138700000Y-123100000D01*
X133700000Y-130100000D02*
X135700000Y-130100000D01*
X135700000Y-130100000D02*
X134700000Y-123100000D01*
X141700000Y-118100000D02*
X131700000Y-118100000D01*
X137700000Y-134100000D02*
X140700000Y-134100000D01*
X132700000Y-136100000D02*
X132700000Y-134100000D01*
X132700000Y-134100000D02*
X135700000Y-134100000D01*
X135700000Y-134100000D02*
X135700000Y-136100000D01*
X135700000Y-136100000D02*
X137700000Y-136100000D01*
X137700000Y-136100000D02*
X137700000Y-132100000D01*
X137700000Y-132100000D02*
X135700000Y-132100000D01*
X135700000Y-132100000D02*
X135700000Y-134100000D01*
X140700000Y-136100000D02*
X140700000Y-134100000D01*
D11*
X53906681Y-133834166D02*
X53430490Y-134167500D01*
X53906681Y-134405595D02*
X52906681Y-134405595D01*
X52906681Y-134024642D01*
X52954300Y-133929404D01*
X53001919Y-133881785D01*
X53097157Y-133834166D01*
X53240014Y-133834166D01*
X53335252Y-133881785D01*
X53382871Y-133929404D01*
X53430490Y-134024642D01*
X53430490Y-134405595D01*
X53240014Y-132977023D02*
X53906681Y-132977023D01*
X52859062Y-133215119D02*
X53573348Y-133453214D01*
X53573348Y-132834166D01*
X79164334Y-59652943D02*
X79116715Y-59700562D01*
X78973858Y-59748181D01*
X78878620Y-59748181D01*
X78735762Y-59700562D01*
X78640524Y-59605324D01*
X78592905Y-59510086D01*
X78545286Y-59319610D01*
X78545286Y-59176752D01*
X78592905Y-58986276D01*
X78640524Y-58891038D01*
X78735762Y-58795800D01*
X78878620Y-58748181D01*
X78973858Y-58748181D01*
X79116715Y-58795800D01*
X79164334Y-58843419D01*
X80021477Y-58748181D02*
X79831000Y-58748181D01*
X79735762Y-58795800D01*
X79688143Y-58843419D01*
X79592905Y-58986276D01*
X79545286Y-59176752D01*
X79545286Y-59557705D01*
X79592905Y-59652943D01*
X79640524Y-59700562D01*
X79735762Y-59748181D01*
X79926239Y-59748181D01*
X80021477Y-59700562D01*
X80069096Y-59652943D01*
X80116715Y-59557705D01*
X80116715Y-59319610D01*
X80069096Y-59224371D01*
X80021477Y-59176752D01*
X79926239Y-59129133D01*
X79735762Y-59129133D01*
X79640524Y-59176752D01*
X79592905Y-59224371D01*
X79545286Y-59319610D01*
X57584103Y-111558343D02*
X57536484Y-111605962D01*
X57393627Y-111653581D01*
X57298389Y-111653581D01*
X57155531Y-111605962D01*
X57060293Y-111510724D01*
X57012674Y-111415486D01*
X56965055Y-111225010D01*
X56965055Y-111082152D01*
X57012674Y-110891676D01*
X57060293Y-110796438D01*
X57155531Y-110701200D01*
X57298389Y-110653581D01*
X57393627Y-110653581D01*
X57536484Y-110701200D01*
X57584103Y-110748819D01*
X57965055Y-110748819D02*
X58012674Y-110701200D01*
X58107912Y-110653581D01*
X58346008Y-110653581D01*
X58441246Y-110701200D01*
X58488865Y-110748819D01*
X58536484Y-110844057D01*
X58536484Y-110939295D01*
X58488865Y-111082152D01*
X57917436Y-111653581D01*
X58536484Y-111653581D01*
X58869817Y-110653581D02*
X59488865Y-110653581D01*
X59155531Y-111034533D01*
X59298389Y-111034533D01*
X59393627Y-111082152D01*
X59441246Y-111129771D01*
X59488865Y-111225010D01*
X59488865Y-111463105D01*
X59441246Y-111558343D01*
X59393627Y-111605962D01*
X59298389Y-111653581D01*
X59012674Y-111653581D01*
X58917436Y-111605962D01*
X58869817Y-111558343D01*
X59454041Y-130062195D02*
X58454041Y-130062195D01*
X58454041Y-129824100D01*
X58501660Y-129681242D01*
X58596898Y-129586004D01*
X58692136Y-129538385D01*
X58882612Y-129490766D01*
X59025470Y-129490766D01*
X59215946Y-129538385D01*
X59311184Y-129586004D01*
X59406422Y-129681242D01*
X59454041Y-129824100D01*
X59454041Y-130062195D01*
X58454041Y-129157433D02*
X58454041Y-128538385D01*
X58834993Y-128871719D01*
X58834993Y-128728861D01*
X58882612Y-128633623D01*
X58930231Y-128586004D01*
X59025470Y-128538385D01*
X59263565Y-128538385D01*
X59358803Y-128586004D01*
X59406422Y-128633623D01*
X59454041Y-128728861D01*
X59454041Y-129014576D01*
X59406422Y-129109814D01*
X59358803Y-129157433D01*
X53322481Y-75566566D02*
X52846290Y-75899900D01*
X53322481Y-76137995D02*
X52322481Y-76137995D01*
X52322481Y-75757042D01*
X52370100Y-75661804D01*
X52417719Y-75614185D01*
X52512957Y-75566566D01*
X52655814Y-75566566D01*
X52751052Y-75614185D01*
X52798671Y-75661804D01*
X52846290Y-75757042D01*
X52846290Y-76137995D01*
X53322481Y-75090376D02*
X53322481Y-74899900D01*
X53274862Y-74804661D01*
X53227243Y-74757042D01*
X53084386Y-74661804D01*
X52893910Y-74614185D01*
X52512957Y-74614185D01*
X52417719Y-74661804D01*
X52370100Y-74709423D01*
X52322481Y-74804661D01*
X52322481Y-74995138D01*
X52370100Y-75090376D01*
X52417719Y-75137995D01*
X52512957Y-75185614D01*
X52751052Y-75185614D01*
X52846290Y-75137995D01*
X52893910Y-75090376D01*
X52941529Y-74995138D01*
X52941529Y-74804661D01*
X52893910Y-74709423D01*
X52846290Y-74661804D01*
X52751052Y-74614185D01*
X59456581Y-139053795D02*
X58456581Y-139053795D01*
X58456581Y-138815700D01*
X58504200Y-138672842D01*
X58599438Y-138577604D01*
X58694676Y-138529985D01*
X58885152Y-138482366D01*
X59028010Y-138482366D01*
X59218486Y-138529985D01*
X59313724Y-138577604D01*
X59408962Y-138672842D01*
X59456581Y-138815700D01*
X59456581Y-139053795D01*
X59456581Y-137529985D02*
X59456581Y-138101414D01*
X59456581Y-137815700D02*
X58456581Y-137815700D01*
X58599438Y-137910938D01*
X58694676Y-138006176D01*
X58742295Y-138101414D01*
X59408321Y-134878035D02*
X58408321Y-134878035D01*
X58408321Y-134639940D01*
X58455940Y-134497082D01*
X58551178Y-134401844D01*
X58646416Y-134354225D01*
X58836892Y-134306606D01*
X58979750Y-134306606D01*
X59170226Y-134354225D01*
X59265464Y-134401844D01*
X59360702Y-134497082D01*
X59408321Y-134639940D01*
X59408321Y-134878035D01*
X58503559Y-133925654D02*
X58455940Y-133878035D01*
X58408321Y-133782797D01*
X58408321Y-133544701D01*
X58455940Y-133449463D01*
X58503559Y-133401844D01*
X58598797Y-133354225D01*
X58694035Y-133354225D01*
X58836892Y-133401844D01*
X59408321Y-133973273D01*
X59408321Y-133354225D01*
X145767467Y-110991401D02*
X145767467Y-111705687D01*
X145719847Y-111848544D01*
X145624609Y-111943782D01*
X145481752Y-111991401D01*
X145386514Y-111991401D01*
X146386514Y-111419972D02*
X146291276Y-111372353D01*
X146243657Y-111324734D01*
X146196038Y-111229496D01*
X146196038Y-111181877D01*
X146243657Y-111086639D01*
X146291276Y-111039020D01*
X146386514Y-110991401D01*
X146576991Y-110991401D01*
X146672229Y-111039020D01*
X146719848Y-111086639D01*
X146767467Y-111181877D01*
X146767467Y-111229496D01*
X146719848Y-111324734D01*
X146672229Y-111372353D01*
X146576991Y-111419972D01*
X146386514Y-111419972D01*
X146291276Y-111467591D01*
X146243657Y-111515210D01*
X146196038Y-111610449D01*
X146196038Y-111800925D01*
X146243657Y-111896163D01*
X146291276Y-111943782D01*
X146386514Y-111991401D01*
X146576991Y-111991401D01*
X146672229Y-111943782D01*
X146719848Y-111896163D01*
X146767467Y-111800925D01*
X146767467Y-111610449D01*
X146719848Y-111515210D01*
X146672229Y-111467591D01*
X146576991Y-111419972D01*
X142225781Y-73174123D02*
X142940067Y-73174123D01*
X143082924Y-73221743D01*
X143178162Y-73316981D01*
X143225781Y-73459838D01*
X143225781Y-73555076D01*
X143225781Y-72174123D02*
X143225781Y-72745552D01*
X143225781Y-72459838D02*
X142225781Y-72459838D01*
X142368638Y-72555076D01*
X142463876Y-72650314D01*
X142511495Y-72745552D01*
X142225781Y-71555076D02*
X142225781Y-71459837D01*
X142273400Y-71364599D01*
X142321019Y-71316980D01*
X142416257Y-71269361D01*
X142606733Y-71221742D01*
X142844829Y-71221742D01*
X143035305Y-71269361D01*
X143130543Y-71316980D01*
X143178162Y-71364599D01*
X143225781Y-71459837D01*
X143225781Y-71555076D01*
X143178162Y-71650314D01*
X143130543Y-71697933D01*
X143035305Y-71745552D01*
X142844829Y-71793171D01*
X142606733Y-71793171D01*
X142416257Y-71745552D01*
X142321019Y-71697933D01*
X142273400Y-71650314D01*
X142225781Y-71555076D01*
X106494334Y-141063343D02*
X106446715Y-141110962D01*
X106303858Y-141158581D01*
X106208620Y-141158581D01*
X106065762Y-141110962D01*
X105970524Y-141015724D01*
X105922905Y-140920486D01*
X105875286Y-140730010D01*
X105875286Y-140587152D01*
X105922905Y-140396676D01*
X105970524Y-140301438D01*
X106065762Y-140206200D01*
X106208620Y-140158581D01*
X106303858Y-140158581D01*
X106446715Y-140206200D01*
X106494334Y-140253819D01*
X107446715Y-141158581D02*
X106875286Y-141158581D01*
X107161000Y-141158581D02*
X107161000Y-140158581D01*
X107065762Y-140301438D01*
X106970524Y-140396676D01*
X106875286Y-140444295D01*
X100970134Y-141164143D02*
X100922515Y-141211762D01*
X100779658Y-141259381D01*
X100684420Y-141259381D01*
X100541562Y-141211762D01*
X100446324Y-141116524D01*
X100398705Y-141021286D01*
X100351086Y-140830810D01*
X100351086Y-140687952D01*
X100398705Y-140497476D01*
X100446324Y-140402238D01*
X100541562Y-140307000D01*
X100684420Y-140259381D01*
X100779658Y-140259381D01*
X100922515Y-140307000D01*
X100970134Y-140354619D01*
X101351086Y-140354619D02*
X101398705Y-140307000D01*
X101493943Y-140259381D01*
X101732039Y-140259381D01*
X101827277Y-140307000D01*
X101874896Y-140354619D01*
X101922515Y-140449857D01*
X101922515Y-140545095D01*
X101874896Y-140687952D01*
X101303467Y-141259381D01*
X101922515Y-141259381D01*
X87996334Y-141315743D02*
X87948715Y-141363362D01*
X87805858Y-141410981D01*
X87710620Y-141410981D01*
X87567762Y-141363362D01*
X87472524Y-141268124D01*
X87424905Y-141172886D01*
X87377286Y-140982410D01*
X87377286Y-140839552D01*
X87424905Y-140649076D01*
X87472524Y-140553838D01*
X87567762Y-140458600D01*
X87710620Y-140410981D01*
X87805858Y-140410981D01*
X87948715Y-140458600D01*
X87996334Y-140506219D01*
X88329667Y-140410981D02*
X88948715Y-140410981D01*
X88615381Y-140791933D01*
X88758239Y-140791933D01*
X88853477Y-140839552D01*
X88901096Y-140887171D01*
X88948715Y-140982410D01*
X88948715Y-141220505D01*
X88901096Y-141315743D01*
X88853477Y-141363362D01*
X88758239Y-141410981D01*
X88472524Y-141410981D01*
X88377286Y-141363362D01*
X88329667Y-141315743D01*
X74519734Y-141192343D02*
X74472115Y-141239962D01*
X74329258Y-141287581D01*
X74234020Y-141287581D01*
X74091162Y-141239962D01*
X73995924Y-141144724D01*
X73948305Y-141049486D01*
X73900686Y-140859010D01*
X73900686Y-140716152D01*
X73948305Y-140525676D01*
X73995924Y-140430438D01*
X74091162Y-140335200D01*
X74234020Y-140287581D01*
X74329258Y-140287581D01*
X74472115Y-140335200D01*
X74519734Y-140382819D01*
X75376877Y-140620914D02*
X75376877Y-141287581D01*
X75138781Y-140239962D02*
X74900686Y-140954248D01*
X75519734Y-140954248D01*
X66245534Y-59577543D02*
X66197915Y-59625162D01*
X66055058Y-59672781D01*
X65959820Y-59672781D01*
X65816962Y-59625162D01*
X65721724Y-59529924D01*
X65674105Y-59434686D01*
X65626486Y-59244210D01*
X65626486Y-59101352D01*
X65674105Y-58910876D01*
X65721724Y-58815638D01*
X65816962Y-58720400D01*
X65959820Y-58672781D01*
X66055058Y-58672781D01*
X66197915Y-58720400D01*
X66245534Y-58768019D01*
X67150296Y-58672781D02*
X66674105Y-58672781D01*
X66626486Y-59148971D01*
X66674105Y-59101352D01*
X66769343Y-59053733D01*
X67007439Y-59053733D01*
X67102677Y-59101352D01*
X67150296Y-59148971D01*
X67197915Y-59244210D01*
X67197915Y-59482305D01*
X67150296Y-59577543D01*
X67102677Y-59625162D01*
X67007439Y-59672781D01*
X66769343Y-59672781D01*
X66674105Y-59625162D01*
X66626486Y-59577543D01*
X92584934Y-59171943D02*
X92537315Y-59219562D01*
X92394458Y-59267181D01*
X92299220Y-59267181D01*
X92156362Y-59219562D01*
X92061124Y-59124324D01*
X92013505Y-59029086D01*
X91965886Y-58838610D01*
X91965886Y-58695752D01*
X92013505Y-58505276D01*
X92061124Y-58410038D01*
X92156362Y-58314800D01*
X92299220Y-58267181D01*
X92394458Y-58267181D01*
X92537315Y-58314800D01*
X92584934Y-58362419D01*
X92918267Y-58267181D02*
X93584934Y-58267181D01*
X93156362Y-59267181D01*
X105630134Y-59350143D02*
X105582515Y-59397762D01*
X105439658Y-59445381D01*
X105344420Y-59445381D01*
X105201562Y-59397762D01*
X105106324Y-59302524D01*
X105058705Y-59207286D01*
X105011086Y-59016810D01*
X105011086Y-58873952D01*
X105058705Y-58683476D01*
X105106324Y-58588238D01*
X105201562Y-58493000D01*
X105344420Y-58445381D01*
X105439658Y-58445381D01*
X105582515Y-58493000D01*
X105630134Y-58540619D01*
X106201562Y-58873952D02*
X106106324Y-58826333D01*
X106058705Y-58778714D01*
X106011086Y-58683476D01*
X106011086Y-58635857D01*
X106058705Y-58540619D01*
X106106324Y-58493000D01*
X106201562Y-58445381D01*
X106392039Y-58445381D01*
X106487277Y-58493000D01*
X106534896Y-58540619D01*
X106582515Y-58635857D01*
X106582515Y-58683476D01*
X106534896Y-58778714D01*
X106487277Y-58826333D01*
X106392039Y-58873952D01*
X106201562Y-58873952D01*
X106106324Y-58921571D01*
X106058705Y-58969190D01*
X106011086Y-59064429D01*
X106011086Y-59254905D01*
X106058705Y-59350143D01*
X106106324Y-59397762D01*
X106201562Y-59445381D01*
X106392039Y-59445381D01*
X106487277Y-59397762D01*
X106534896Y-59350143D01*
X106582515Y-59254905D01*
X106582515Y-59064429D01*
X106534896Y-58969190D01*
X106487277Y-58921571D01*
X106392039Y-58873952D01*
X118862734Y-59600943D02*
X118815115Y-59648562D01*
X118672258Y-59696181D01*
X118577020Y-59696181D01*
X118434162Y-59648562D01*
X118338924Y-59553324D01*
X118291305Y-59458086D01*
X118243686Y-59267610D01*
X118243686Y-59124752D01*
X118291305Y-58934276D01*
X118338924Y-58839038D01*
X118434162Y-58743800D01*
X118577020Y-58696181D01*
X118672258Y-58696181D01*
X118815115Y-58743800D01*
X118862734Y-58791419D01*
X119338924Y-59696181D02*
X119529400Y-59696181D01*
X119624639Y-59648562D01*
X119672258Y-59600943D01*
X119767496Y-59458086D01*
X119815115Y-59267610D01*
X119815115Y-58886657D01*
X119767496Y-58791419D01*
X119719877Y-58743800D01*
X119624639Y-58696181D01*
X119434162Y-58696181D01*
X119338924Y-58743800D01*
X119291305Y-58791419D01*
X119243686Y-58886657D01*
X119243686Y-59124752D01*
X119291305Y-59219990D01*
X119338924Y-59267610D01*
X119434162Y-59315229D01*
X119624639Y-59315229D01*
X119719877Y-59267610D01*
X119767496Y-59219990D01*
X119815115Y-59124752D01*
X132199143Y-141073143D02*
X132151524Y-141120762D01*
X132008667Y-141168381D01*
X131913429Y-141168381D01*
X131770571Y-141120762D01*
X131675333Y-141025524D01*
X131627714Y-140930286D01*
X131580095Y-140739810D01*
X131580095Y-140596952D01*
X131627714Y-140406476D01*
X131675333Y-140311238D01*
X131770571Y-140216000D01*
X131913429Y-140168381D01*
X132008667Y-140168381D01*
X132151524Y-140216000D01*
X132199143Y-140263619D01*
X133151524Y-141168381D02*
X132580095Y-141168381D01*
X132865809Y-141168381D02*
X132865809Y-140168381D01*
X132770571Y-140311238D01*
X132675333Y-140406476D01*
X132580095Y-140454095D01*
X133770571Y-140168381D02*
X133865810Y-140168381D01*
X133961048Y-140216000D01*
X134008667Y-140263619D01*
X134056286Y-140358857D01*
X134103905Y-140549333D01*
X134103905Y-140787429D01*
X134056286Y-140977905D01*
X134008667Y-141073143D01*
X133961048Y-141120762D01*
X133865810Y-141168381D01*
X133770571Y-141168381D01*
X133675333Y-141120762D01*
X133627714Y-141073143D01*
X133580095Y-140977905D01*
X133532476Y-140787429D01*
X133532476Y-140549333D01*
X133580095Y-140358857D01*
X133627714Y-140263619D01*
X133675333Y-140216000D01*
X133770571Y-140168381D01*
X55408534Y-59837581D02*
X55075200Y-59361390D01*
X54837105Y-59837581D02*
X54837105Y-58837581D01*
X55218058Y-58837581D01*
X55313296Y-58885200D01*
X55360915Y-58932819D01*
X55408534Y-59028057D01*
X55408534Y-59170914D01*
X55360915Y-59266152D01*
X55313296Y-59313771D01*
X55218058Y-59361390D01*
X54837105Y-59361390D01*
X56360915Y-59837581D02*
X55789486Y-59837581D01*
X56075200Y-59837581D02*
X56075200Y-58837581D01*
X55979962Y-58980438D01*
X55884724Y-59075676D01*
X55789486Y-59123295D01*
X143013181Y-56314933D02*
X143727467Y-56314933D01*
X143870324Y-56362553D01*
X143965562Y-56457791D01*
X144013181Y-56600648D01*
X144013181Y-56695886D01*
X144013181Y-55791124D02*
X144013181Y-55600648D01*
X143965562Y-55505409D01*
X143917943Y-55457790D01*
X143775086Y-55362552D01*
X143584610Y-55314933D01*
X143203657Y-55314933D01*
X143108419Y-55362552D01*
X143060800Y-55410171D01*
X143013181Y-55505409D01*
X143013181Y-55695886D01*
X143060800Y-55791124D01*
X143108419Y-55838743D01*
X143203657Y-55886362D01*
X143441752Y-55886362D01*
X143536990Y-55838743D01*
X143584610Y-55791124D01*
X143632229Y-55695886D01*
X143632229Y-55505409D01*
X143584610Y-55410171D01*
X143536990Y-55362552D01*
X143441752Y-55314933D01*
X147704277Y-55459381D02*
X147704277Y-56173667D01*
X147656657Y-56316524D01*
X147561419Y-56411762D01*
X147418562Y-56459381D01*
X147323324Y-56459381D01*
X148704277Y-56459381D02*
X148132848Y-56459381D01*
X148418562Y-56459381D02*
X148418562Y-55459381D01*
X148323324Y-55602238D01*
X148228086Y-55697476D01*
X148132848Y-55745095D01*
X149037610Y-55459381D02*
X149656658Y-55459381D01*
X149323324Y-55840333D01*
X149466182Y-55840333D01*
X149561420Y-55887952D01*
X149609039Y-55935571D01*
X149656658Y-56030810D01*
X149656658Y-56268905D01*
X149609039Y-56364143D01*
X149561420Y-56411762D01*
X149466182Y-56459381D01*
X149180467Y-56459381D01*
X149085229Y-56411762D01*
X149037610Y-56364143D01*
X51641477Y-142708381D02*
X51641477Y-143422667D01*
X51593857Y-143565524D01*
X51498619Y-143660762D01*
X51355762Y-143708381D01*
X51260524Y-143708381D01*
X52641477Y-143708381D02*
X52070048Y-143708381D01*
X52355762Y-143708381D02*
X52355762Y-142708381D01*
X52260524Y-142851238D01*
X52165286Y-142946476D01*
X52070048Y-142994095D01*
X53498620Y-143041714D02*
X53498620Y-143708381D01*
X53260524Y-142660762D02*
X53022429Y-143375048D01*
X53641477Y-143375048D01*
X53322481Y-66155866D02*
X52846290Y-66489200D01*
X53322481Y-66727295D02*
X52322481Y-66727295D01*
X52322481Y-66346342D01*
X52370100Y-66251104D01*
X52417719Y-66203485D01*
X52512957Y-66155866D01*
X52655814Y-66155866D01*
X52751052Y-66203485D01*
X52798671Y-66251104D01*
X52846290Y-66346342D01*
X52846290Y-66727295D01*
X52417719Y-65774914D02*
X52370100Y-65727295D01*
X52322481Y-65632057D01*
X52322481Y-65393961D01*
X52370100Y-65298723D01*
X52417719Y-65251104D01*
X52512957Y-65203485D01*
X52608195Y-65203485D01*
X52751052Y-65251104D01*
X53322481Y-65822533D01*
X53322481Y-65203485D01*
X59570881Y-125652755D02*
X58570881Y-125652755D01*
X58570881Y-125414660D01*
X58618500Y-125271802D01*
X58713738Y-125176564D01*
X58808976Y-125128945D01*
X58999452Y-125081326D01*
X59142310Y-125081326D01*
X59332786Y-125128945D01*
X59428024Y-125176564D01*
X59523262Y-125271802D01*
X59570881Y-125414660D01*
X59570881Y-125652755D01*
X58904214Y-124224183D02*
X59570881Y-124224183D01*
X58523262Y-124462279D02*
X59237548Y-124700374D01*
X59237548Y-124081326D01*
X59494681Y-121070595D02*
X58494681Y-121070595D01*
X58494681Y-120832500D01*
X58542300Y-120689642D01*
X58637538Y-120594404D01*
X58732776Y-120546785D01*
X58923252Y-120499166D01*
X59066110Y-120499166D01*
X59256586Y-120546785D01*
X59351824Y-120594404D01*
X59447062Y-120689642D01*
X59494681Y-120832500D01*
X59494681Y-121070595D01*
X58494681Y-119594404D02*
X58494681Y-120070595D01*
X58970871Y-120118214D01*
X58923252Y-120070595D01*
X58875633Y-119975357D01*
X58875633Y-119737261D01*
X58923252Y-119642023D01*
X58970871Y-119594404D01*
X59066110Y-119546785D01*
X59304205Y-119546785D01*
X59399443Y-119594404D01*
X59447062Y-119642023D01*
X59494681Y-119737261D01*
X59494681Y-119975357D01*
X59447062Y-120070595D01*
X59399443Y-120118214D01*
X58058841Y-81668855D02*
X57058841Y-81668855D01*
X57058841Y-81430760D01*
X57106460Y-81287902D01*
X57201698Y-81192664D01*
X57296936Y-81145045D01*
X57487412Y-81097426D01*
X57630270Y-81097426D01*
X57820746Y-81145045D01*
X57915984Y-81192664D01*
X58011222Y-81287902D01*
X58058841Y-81430760D01*
X58058841Y-81668855D01*
X57058841Y-80240283D02*
X57058841Y-80430760D01*
X57106460Y-80525998D01*
X57154079Y-80573617D01*
X57296936Y-80668855D01*
X57487412Y-80716474D01*
X57868365Y-80716474D01*
X57963603Y-80668855D01*
X58011222Y-80621236D01*
X58058841Y-80525998D01*
X58058841Y-80335521D01*
X58011222Y-80240283D01*
X57963603Y-80192664D01*
X57868365Y-80145045D01*
X57630270Y-80145045D01*
X57535031Y-80192664D01*
X57487412Y-80240283D01*
X57439793Y-80335521D01*
X57439793Y-80525998D01*
X57487412Y-80621236D01*
X57535031Y-80668855D01*
X57630270Y-80716474D01*
X57982641Y-77221255D02*
X56982641Y-77221255D01*
X56982641Y-76983160D01*
X57030260Y-76840302D01*
X57125498Y-76745064D01*
X57220736Y-76697445D01*
X57411212Y-76649826D01*
X57554070Y-76649826D01*
X57744546Y-76697445D01*
X57839784Y-76745064D01*
X57935022Y-76840302D01*
X57982641Y-76983160D01*
X57982641Y-77221255D01*
X56982641Y-76316493D02*
X56982641Y-75649826D01*
X57982641Y-76078398D01*
X58096941Y-72661895D02*
X57096941Y-72661895D01*
X57096941Y-72423800D01*
X57144560Y-72280942D01*
X57239798Y-72185704D01*
X57335036Y-72138085D01*
X57525512Y-72090466D01*
X57668370Y-72090466D01*
X57858846Y-72138085D01*
X57954084Y-72185704D01*
X58049322Y-72280942D01*
X58096941Y-72423800D01*
X58096941Y-72661895D01*
X57525512Y-71519038D02*
X57477893Y-71614276D01*
X57430274Y-71661895D01*
X57335036Y-71709514D01*
X57287417Y-71709514D01*
X57192179Y-71661895D01*
X57144560Y-71614276D01*
X57096941Y-71519038D01*
X57096941Y-71328561D01*
X57144560Y-71233323D01*
X57192179Y-71185704D01*
X57287417Y-71138085D01*
X57335036Y-71138085D01*
X57430274Y-71185704D01*
X57477893Y-71233323D01*
X57525512Y-71328561D01*
X57525512Y-71519038D01*
X57573131Y-71614276D01*
X57620750Y-71661895D01*
X57715989Y-71709514D01*
X57906465Y-71709514D01*
X58001703Y-71661895D01*
X58049322Y-71614276D01*
X58096941Y-71519038D01*
X58096941Y-71328561D01*
X58049322Y-71233323D01*
X58001703Y-71185704D01*
X57906465Y-71138085D01*
X57715989Y-71138085D01*
X57620750Y-71185704D01*
X57573131Y-71233323D01*
X57525512Y-71328561D01*
X56891181Y-134367566D02*
X56414990Y-134700900D01*
X56891181Y-134938995D02*
X55891181Y-134938995D01*
X55891181Y-134558042D01*
X55938800Y-134462804D01*
X55986419Y-134415185D01*
X56081657Y-134367566D01*
X56224514Y-134367566D01*
X56319752Y-134415185D01*
X56367371Y-134462804D01*
X56414990Y-134558042D01*
X56414990Y-134938995D01*
X55891181Y-134034233D02*
X55891181Y-133415185D01*
X56272133Y-133748519D01*
X56272133Y-133605661D01*
X56319752Y-133510423D01*
X56367371Y-133462804D01*
X56462610Y-133415185D01*
X56700705Y-133415185D01*
X56795943Y-133462804D01*
X56843562Y-133510423D01*
X56891181Y-133605661D01*
X56891181Y-133891376D01*
X56843562Y-133986614D01*
X56795943Y-134034233D01*
X54236881Y-123369366D02*
X53760690Y-123702700D01*
X54236881Y-123940795D02*
X53236881Y-123940795D01*
X53236881Y-123559842D01*
X53284500Y-123464604D01*
X53332119Y-123416985D01*
X53427357Y-123369366D01*
X53570214Y-123369366D01*
X53665452Y-123416985D01*
X53713071Y-123464604D01*
X53760690Y-123559842D01*
X53760690Y-123940795D01*
X53236881Y-122464604D02*
X53236881Y-122940795D01*
X53713071Y-122988414D01*
X53665452Y-122940795D01*
X53617833Y-122845557D01*
X53617833Y-122607461D01*
X53665452Y-122512223D01*
X53713071Y-122464604D01*
X53808310Y-122416985D01*
X54046405Y-122416985D01*
X54141643Y-122464604D01*
X54189262Y-122512223D01*
X54236881Y-122607461D01*
X54236881Y-122845557D01*
X54189262Y-122940795D01*
X54141643Y-122988414D01*
X57195981Y-123178866D02*
X56719790Y-123512200D01*
X57195981Y-123750295D02*
X56195981Y-123750295D01*
X56195981Y-123369342D01*
X56243600Y-123274104D01*
X56291219Y-123226485D01*
X56386457Y-123178866D01*
X56529314Y-123178866D01*
X56624552Y-123226485D01*
X56672171Y-123274104D01*
X56719790Y-123369342D01*
X56719790Y-123750295D01*
X56195981Y-122321723D02*
X56195981Y-122512200D01*
X56243600Y-122607438D01*
X56291219Y-122655057D01*
X56434076Y-122750295D01*
X56624552Y-122797914D01*
X57005505Y-122797914D01*
X57100743Y-122750295D01*
X57148362Y-122702676D01*
X57195981Y-122607438D01*
X57195981Y-122416961D01*
X57148362Y-122321723D01*
X57100743Y-122274104D01*
X57005505Y-122226485D01*
X56767410Y-122226485D01*
X56672171Y-122274104D01*
X56624552Y-122321723D01*
X56576933Y-122416961D01*
X56576933Y-122607438D01*
X56624552Y-122702676D01*
X56672171Y-122750295D01*
X56767410Y-122797914D01*
X60018634Y-117152681D02*
X59685300Y-116676490D01*
X59447205Y-117152681D02*
X59447205Y-116152681D01*
X59828158Y-116152681D01*
X59923396Y-116200300D01*
X59971015Y-116247919D01*
X60018634Y-116343157D01*
X60018634Y-116486014D01*
X59971015Y-116581252D01*
X59923396Y-116628871D01*
X59828158Y-116676490D01*
X59447205Y-116676490D01*
X60351967Y-116152681D02*
X61018634Y-116152681D01*
X60590062Y-117152681D01*
X56078981Y-75529266D02*
X55602790Y-75862600D01*
X56078981Y-76100695D02*
X55078981Y-76100695D01*
X55078981Y-75719742D01*
X55126600Y-75624504D01*
X55174219Y-75576885D01*
X55269457Y-75529266D01*
X55412314Y-75529266D01*
X55507552Y-75576885D01*
X55555171Y-75624504D01*
X55602790Y-75719742D01*
X55602790Y-76100695D01*
X55507552Y-74957838D02*
X55459933Y-75053076D01*
X55412314Y-75100695D01*
X55317076Y-75148314D01*
X55269457Y-75148314D01*
X55174219Y-75100695D01*
X55126600Y-75053076D01*
X55078981Y-74957838D01*
X55078981Y-74767361D01*
X55126600Y-74672123D01*
X55174219Y-74624504D01*
X55269457Y-74576885D01*
X55317076Y-74576885D01*
X55412314Y-74624504D01*
X55459933Y-74672123D01*
X55507552Y-74767361D01*
X55507552Y-74957838D01*
X55555171Y-75053076D01*
X55602790Y-75100695D01*
X55698029Y-75148314D01*
X55888505Y-75148314D01*
X55983743Y-75100695D01*
X56031362Y-75053076D01*
X56078981Y-74957838D01*
X56078981Y-74767361D01*
X56031362Y-74672123D01*
X55983743Y-74624504D01*
X55888505Y-74576885D01*
X55698029Y-74576885D01*
X55602790Y-74624504D01*
X55555171Y-74672123D01*
X55507552Y-74767361D01*
X56143281Y-66470557D02*
X55667090Y-66803891D01*
X56143281Y-67041986D02*
X55143281Y-67041986D01*
X55143281Y-66661033D01*
X55190900Y-66565795D01*
X55238519Y-66518176D01*
X55333757Y-66470557D01*
X55476614Y-66470557D01*
X55571852Y-66518176D01*
X55619471Y-66565795D01*
X55667090Y-66661033D01*
X55667090Y-67041986D01*
X56143281Y-65518176D02*
X56143281Y-66089605D01*
X56143281Y-65803891D02*
X55143281Y-65803891D01*
X55286138Y-65899129D01*
X55381376Y-65994367D01*
X55428995Y-66089605D01*
X55143281Y-64899129D02*
X55143281Y-64803890D01*
X55190900Y-64708652D01*
X55238519Y-64661033D01*
X55333757Y-64613414D01*
X55524233Y-64565795D01*
X55762329Y-64565795D01*
X55952805Y-64613414D01*
X56048043Y-64661033D01*
X56095662Y-64708652D01*
X56143281Y-64803890D01*
X56143281Y-64899129D01*
X56095662Y-64994367D01*
X56048043Y-65041986D01*
X55952805Y-65089605D01*
X55762329Y-65137224D01*
X55524233Y-65137224D01*
X55333757Y-65089605D01*
X55238519Y-65041986D01*
X55190900Y-64994367D01*
X55143281Y-64899129D01*
X116531581Y-85067733D02*
X117245867Y-85067733D01*
X117388724Y-85115353D01*
X117483962Y-85210591D01*
X117531581Y-85353448D01*
X117531581Y-85448686D01*
X116531581Y-84686781D02*
X116531581Y-84020114D01*
X117531581Y-84448686D01*
X122086343Y-84424876D02*
X122133962Y-84472495D01*
X122181581Y-84615352D01*
X122181581Y-84710590D01*
X122133962Y-84853448D01*
X122038724Y-84948686D01*
X121943486Y-84996305D01*
X121753010Y-85043924D01*
X121610152Y-85043924D01*
X121419676Y-84996305D01*
X121324438Y-84948686D01*
X121229200Y-84853448D01*
X121181581Y-84710590D01*
X121181581Y-84615352D01*
X121229200Y-84472495D01*
X121276819Y-84424876D01*
X112881581Y-84424876D02*
X112881581Y-84901067D01*
X111881581Y-84901067D01*
X99202381Y-84833333D02*
X99916667Y-84833333D01*
X100059524Y-84880953D01*
X100154762Y-84976191D01*
X100202381Y-85119048D01*
X100202381Y-85214286D01*
X99202381Y-83928571D02*
X99202381Y-84119048D01*
X99250000Y-84214286D01*
X99297619Y-84261905D01*
X99440476Y-84357143D01*
X99630952Y-84404762D01*
X100011905Y-84404762D01*
X100107143Y-84357143D01*
X100154762Y-84309524D01*
X100202381Y-84214286D01*
X100202381Y-84023809D01*
X100154762Y-83928571D01*
X100107143Y-83880952D01*
X100011905Y-83833333D01*
X99773810Y-83833333D01*
X99678571Y-83880952D01*
X99630952Y-83928571D01*
X99583333Y-84023809D01*
X99583333Y-84214286D01*
X99630952Y-84309524D01*
X99678571Y-84357143D01*
X99773810Y-84404762D01*
X104757143Y-84190476D02*
X104804762Y-84238095D01*
X104852381Y-84380952D01*
X104852381Y-84476190D01*
X104804762Y-84619048D01*
X104709524Y-84714286D01*
X104614286Y-84761905D01*
X104423810Y-84809524D01*
X104280952Y-84809524D01*
X104090476Y-84761905D01*
X103995238Y-84714286D01*
X103900000Y-84619048D01*
X103852381Y-84476190D01*
X103852381Y-84380952D01*
X103900000Y-84238095D01*
X103947619Y-84190476D01*
X95552381Y-84190476D02*
X95552381Y-84666667D01*
X94552381Y-84666667D01*
X81302381Y-85133333D02*
X82016667Y-85133333D01*
X82159524Y-85180953D01*
X82254762Y-85276191D01*
X82302381Y-85419048D01*
X82302381Y-85514286D01*
X81302381Y-84180952D02*
X81302381Y-84657143D01*
X81778571Y-84704762D01*
X81730952Y-84657143D01*
X81683333Y-84561905D01*
X81683333Y-84323809D01*
X81730952Y-84228571D01*
X81778571Y-84180952D01*
X81873810Y-84133333D01*
X82111905Y-84133333D01*
X82207143Y-84180952D01*
X82254762Y-84228571D01*
X82302381Y-84323809D01*
X82302381Y-84561905D01*
X82254762Y-84657143D01*
X82207143Y-84704762D01*
X86857143Y-84490476D02*
X86904762Y-84538095D01*
X86952381Y-84680952D01*
X86952381Y-84776190D01*
X86904762Y-84919048D01*
X86809524Y-85014286D01*
X86714286Y-85061905D01*
X86523810Y-85109524D01*
X86380952Y-85109524D01*
X86190476Y-85061905D01*
X86095238Y-85014286D01*
X86000000Y-84919048D01*
X85952381Y-84776190D01*
X85952381Y-84680952D01*
X86000000Y-84538095D01*
X86047619Y-84490476D01*
X77652381Y-84490476D02*
X77652381Y-84966667D01*
X76652381Y-84966667D01*
X88519581Y-116157333D02*
X89233867Y-116157333D01*
X89376724Y-116204953D01*
X89471962Y-116300191D01*
X89519581Y-116443048D01*
X89519581Y-116538286D01*
X88519581Y-115776381D02*
X88519581Y-115157333D01*
X88900533Y-115490667D01*
X88900533Y-115347809D01*
X88948152Y-115252571D01*
X88995771Y-115204952D01*
X89091010Y-115157333D01*
X89329105Y-115157333D01*
X89424343Y-115204952D01*
X89471962Y-115252571D01*
X89519581Y-115347809D01*
X89519581Y-115633524D01*
X89471962Y-115728762D01*
X89424343Y-115776381D01*
X84774343Y-115514476D02*
X84821962Y-115562095D01*
X84869581Y-115704952D01*
X84869581Y-115800190D01*
X84821962Y-115943048D01*
X84726724Y-116038286D01*
X84631486Y-116085905D01*
X84441010Y-116133524D01*
X84298152Y-116133524D01*
X84107676Y-116085905D01*
X84012438Y-116038286D01*
X83917200Y-115943048D01*
X83869581Y-115800190D01*
X83869581Y-115704952D01*
X83917200Y-115562095D01*
X83964819Y-115514476D01*
X94169581Y-115514476D02*
X94169581Y-115990667D01*
X93169581Y-115990667D01*
X104652381Y-116083333D02*
X105366667Y-116083333D01*
X105509524Y-116130953D01*
X105604762Y-116226191D01*
X105652381Y-116369048D01*
X105652381Y-116464286D01*
X104747619Y-115654762D02*
X104700000Y-115607143D01*
X104652381Y-115511905D01*
X104652381Y-115273809D01*
X104700000Y-115178571D01*
X104747619Y-115130952D01*
X104842857Y-115083333D01*
X104938095Y-115083333D01*
X105080952Y-115130952D01*
X105652381Y-115702381D01*
X105652381Y-115083333D01*
X100907143Y-115440476D02*
X100954762Y-115488095D01*
X101002381Y-115630952D01*
X101002381Y-115726190D01*
X100954762Y-115869048D01*
X100859524Y-115964286D01*
X100764286Y-116011905D01*
X100573810Y-116059524D01*
X100430952Y-116059524D01*
X100240476Y-116011905D01*
X100145238Y-115964286D01*
X100050000Y-115869048D01*
X100002381Y-115726190D01*
X100002381Y-115630952D01*
X100050000Y-115488095D01*
X100097619Y-115440476D01*
X110302381Y-115440476D02*
X110302381Y-115916667D01*
X109302381Y-115916667D01*
X120802381Y-115933333D02*
X121516667Y-115933333D01*
X121659524Y-115980953D01*
X121754762Y-116076191D01*
X121802381Y-116219048D01*
X121802381Y-116314286D01*
X121802381Y-114933333D02*
X121802381Y-115504762D01*
X121802381Y-115219048D02*
X120802381Y-115219048D01*
X120945238Y-115314286D01*
X121040476Y-115409524D01*
X121088095Y-115504762D01*
X117057143Y-115290476D02*
X117104762Y-115338095D01*
X117152381Y-115480952D01*
X117152381Y-115576190D01*
X117104762Y-115719048D01*
X117009524Y-115814286D01*
X116914286Y-115861905D01*
X116723810Y-115909524D01*
X116580952Y-115909524D01*
X116390476Y-115861905D01*
X116295238Y-115814286D01*
X116200000Y-115719048D01*
X116152381Y-115576190D01*
X116152381Y-115480952D01*
X116200000Y-115338095D01*
X116247619Y-115290476D01*
X126452381Y-115290476D02*
X126452381Y-115766667D01*
X125452381Y-115766667D01*
X57911521Y-68198395D02*
X56911521Y-68198395D01*
X56911521Y-67960300D01*
X56959140Y-67817442D01*
X57054378Y-67722204D01*
X57149616Y-67674585D01*
X57340092Y-67626966D01*
X57482950Y-67626966D01*
X57673426Y-67674585D01*
X57768664Y-67722204D01*
X57863902Y-67817442D01*
X57911521Y-67960300D01*
X57911521Y-68198395D01*
X57911521Y-67150776D02*
X57911521Y-66960300D01*
X57863902Y-66865061D01*
X57816283Y-66817442D01*
X57673426Y-66722204D01*
X57482950Y-66674585D01*
X57101997Y-66674585D01*
X57006759Y-66722204D01*
X56959140Y-66769823D01*
X56911521Y-66865061D01*
X56911521Y-67055538D01*
X56959140Y-67150776D01*
X57006759Y-67198395D01*
X57101997Y-67246014D01*
X57340092Y-67246014D01*
X57435330Y-67198395D01*
X57482950Y-67150776D01*
X57530569Y-67055538D01*
X57530569Y-66865061D01*
X57482950Y-66769823D01*
X57435330Y-66722204D01*
X57340092Y-66674585D01*
X57969941Y-64553986D02*
X56969941Y-64553986D01*
X56969941Y-64315891D01*
X57017560Y-64173033D01*
X57112798Y-64077795D01*
X57208036Y-64030176D01*
X57398512Y-63982557D01*
X57541370Y-63982557D01*
X57731846Y-64030176D01*
X57827084Y-64077795D01*
X57922322Y-64173033D01*
X57969941Y-64315891D01*
X57969941Y-64553986D01*
X57969941Y-63030176D02*
X57969941Y-63601605D01*
X57969941Y-63315891D02*
X56969941Y-63315891D01*
X57112798Y-63411129D01*
X57208036Y-63506367D01*
X57255655Y-63601605D01*
X56969941Y-62411129D02*
X56969941Y-62315890D01*
X57017560Y-62220652D01*
X57065179Y-62173033D01*
X57160417Y-62125414D01*
X57350893Y-62077795D01*
X57588989Y-62077795D01*
X57779465Y-62125414D01*
X57874703Y-62173033D01*
X57922322Y-62220652D01*
X57969941Y-62315890D01*
X57969941Y-62411129D01*
X57922322Y-62506367D01*
X57874703Y-62553986D01*
X57779465Y-62601605D01*
X57588989Y-62649224D01*
X57350893Y-62649224D01*
X57160417Y-62601605D01*
X57065179Y-62553986D01*
X57017560Y-62506367D01*
X56969941Y-62411129D01*
X73965381Y-116538333D02*
X74679667Y-116538333D01*
X74822524Y-116585953D01*
X74917762Y-116681191D01*
X74965381Y-116824048D01*
X74965381Y-116919286D01*
X74298714Y-115633571D02*
X74965381Y-115633571D01*
X73917762Y-115871667D02*
X74632048Y-116109762D01*
X74632048Y-115490714D01*
X70220143Y-115895476D02*
X70267762Y-115943095D01*
X70315381Y-116085952D01*
X70315381Y-116181190D01*
X70267762Y-116324048D01*
X70172524Y-116419286D01*
X70077286Y-116466905D01*
X69886810Y-116514524D01*
X69743952Y-116514524D01*
X69553476Y-116466905D01*
X69458238Y-116419286D01*
X69363000Y-116324048D01*
X69315381Y-116181190D01*
X69315381Y-116085952D01*
X69363000Y-115943095D01*
X69410619Y-115895476D01*
X79615381Y-115895476D02*
X79615381Y-116371667D01*
X78615381Y-116371667D01*
X142969717Y-143622781D02*
X142969717Y-144337067D01*
X142922097Y-144479924D01*
X142826859Y-144575162D01*
X142684002Y-144622781D01*
X142588764Y-144622781D01*
X143969717Y-144622781D02*
X143398288Y-144622781D01*
X143684002Y-144622781D02*
X143684002Y-143622781D01*
X143588764Y-143765638D01*
X143493526Y-143860876D01*
X143398288Y-143908495D01*
X144922098Y-144622781D02*
X144350669Y-144622781D01*
X144636383Y-144622781D02*
X144636383Y-143622781D01*
X144541145Y-143765638D01*
X144445907Y-143860876D01*
X144350669Y-143908495D01*
X141821781Y-129914923D02*
X142536067Y-129914923D01*
X142678924Y-129962543D01*
X142774162Y-130057781D01*
X142821781Y-130200638D01*
X142821781Y-130295876D01*
X142821781Y-128914923D02*
X142821781Y-129486352D01*
X142821781Y-129200638D02*
X141821781Y-129200638D01*
X141964638Y-129295876D01*
X142059876Y-129391114D01*
X142107495Y-129486352D01*
X141821781Y-128057780D02*
X141821781Y-128248257D01*
X141869400Y-128343495D01*
X141917019Y-128391114D01*
X142059876Y-128486352D01*
X142250352Y-128533971D01*
X142631305Y-128533971D01*
X142726543Y-128486352D01*
X142774162Y-128438733D01*
X142821781Y-128343495D01*
X142821781Y-128153018D01*
X142774162Y-128057780D01*
X142726543Y-128010161D01*
X142631305Y-127962542D01*
X142393210Y-127962542D01*
X142297971Y-128010161D01*
X142250352Y-128057780D01*
X142202733Y-128153018D01*
X142202733Y-128343495D01*
X142250352Y-128438733D01*
X142297971Y-128486352D01*
X142393210Y-128533971D01*
X146891477Y-88606381D02*
X146891477Y-89320667D01*
X146843857Y-89463524D01*
X146748619Y-89558762D01*
X146605762Y-89606381D01*
X146510524Y-89606381D01*
X147891477Y-89606381D02*
X147320048Y-89606381D01*
X147605762Y-89606381D02*
X147605762Y-88606381D01*
X147510524Y-88749238D01*
X147415286Y-88844476D01*
X147320048Y-88892095D01*
X148462905Y-89034952D02*
X148367667Y-88987333D01*
X148320048Y-88939714D01*
X148272429Y-88844476D01*
X148272429Y-88796857D01*
X148320048Y-88701619D01*
X148367667Y-88654000D01*
X148462905Y-88606381D01*
X148653382Y-88606381D01*
X148748620Y-88654000D01*
X148796239Y-88701619D01*
X148843858Y-88796857D01*
X148843858Y-88844476D01*
X148796239Y-88939714D01*
X148748620Y-88987333D01*
X148653382Y-89034952D01*
X148462905Y-89034952D01*
X148367667Y-89082571D01*
X148320048Y-89130190D01*
X148272429Y-89225429D01*
X148272429Y-89415905D01*
X148320048Y-89511143D01*
X148367667Y-89558762D01*
X148462905Y-89606381D01*
X148653382Y-89606381D01*
X148748620Y-89558762D01*
X148796239Y-89511143D01*
X148843858Y-89415905D01*
X148843858Y-89225429D01*
X148796239Y-89130190D01*
X148748620Y-89082571D01*
X148653382Y-89034952D01*
X136149661Y-85803003D02*
X136863947Y-85803003D01*
X137006804Y-85850623D01*
X137102042Y-85945861D01*
X137149661Y-86088718D01*
X137149661Y-86183956D01*
X137149661Y-84803003D02*
X137149661Y-85374432D01*
X137149661Y-85088718D02*
X136149661Y-85088718D01*
X136292518Y-85183956D01*
X136387756Y-85279194D01*
X136435375Y-85374432D01*
X137149661Y-84326813D02*
X137149661Y-84136337D01*
X137102042Y-84041098D01*
X137054423Y-83993479D01*
X136911566Y-83898241D01*
X136721090Y-83850622D01*
X136340137Y-83850622D01*
X136244899Y-83898241D01*
X136197280Y-83945860D01*
X136149661Y-84041098D01*
X136149661Y-84231575D01*
X136197280Y-84326813D01*
X136244899Y-84374432D01*
X136340137Y-84422051D01*
X136578232Y-84422051D01*
X136673470Y-84374432D01*
X136721090Y-84326813D01*
X136768709Y-84231575D01*
X136768709Y-84041098D01*
X136721090Y-83945860D01*
X136673470Y-83898241D01*
X136578232Y-83850622D01*
X132404423Y-84683956D02*
X132452042Y-84731575D01*
X132499661Y-84874432D01*
X132499661Y-84969670D01*
X132452042Y-85112528D01*
X132356804Y-85207766D01*
X132261566Y-85255385D01*
X132071090Y-85303004D01*
X131928232Y-85303004D01*
X131737756Y-85255385D01*
X131642518Y-85207766D01*
X131547280Y-85112528D01*
X131499661Y-84969670D01*
X131499661Y-84874432D01*
X131547280Y-84731575D01*
X131594899Y-84683956D01*
X141799661Y-84683956D02*
X141799661Y-85160147D01*
X140799661Y-85160147D01*
X51260477Y-113498381D02*
X51260477Y-114212667D01*
X51212857Y-114355524D01*
X51117619Y-114450762D01*
X50974762Y-114498381D01*
X50879524Y-114498381D01*
X52260477Y-114498381D02*
X51689048Y-114498381D01*
X51974762Y-114498381D02*
X51974762Y-113498381D01*
X51879524Y-113641238D01*
X51784286Y-113736476D01*
X51689048Y-113784095D01*
X52593810Y-113498381D02*
X53260477Y-113498381D01*
X52831905Y-114498381D01*
X118203743Y-141111243D02*
X118156124Y-141158862D01*
X118013267Y-141206481D01*
X117918029Y-141206481D01*
X117775171Y-141158862D01*
X117679933Y-141063624D01*
X117632314Y-140968386D01*
X117584695Y-140777910D01*
X117584695Y-140635052D01*
X117632314Y-140444576D01*
X117679933Y-140349338D01*
X117775171Y-140254100D01*
X117918029Y-140206481D01*
X118013267Y-140206481D01*
X118156124Y-140254100D01*
X118203743Y-140301719D01*
X119156124Y-141206481D02*
X118584695Y-141206481D01*
X118870409Y-141206481D02*
X118870409Y-140206481D01*
X118775171Y-140349338D01*
X118679933Y-140444576D01*
X118584695Y-140492195D01*
X119537076Y-140301719D02*
X119584695Y-140254100D01*
X119679933Y-140206481D01*
X119918029Y-140206481D01*
X120013267Y-140254100D01*
X120060886Y-140301719D01*
X120108505Y-140396957D01*
X120108505Y-140492195D01*
X120060886Y-140635052D01*
X119489457Y-141206481D01*
X120108505Y-141206481D01*
X132092743Y-59473543D02*
X132045124Y-59521162D01*
X131902267Y-59568781D01*
X131807029Y-59568781D01*
X131664171Y-59521162D01*
X131568933Y-59425924D01*
X131521314Y-59330686D01*
X131473695Y-59140210D01*
X131473695Y-58997352D01*
X131521314Y-58806876D01*
X131568933Y-58711638D01*
X131664171Y-58616400D01*
X131807029Y-58568781D01*
X131902267Y-58568781D01*
X132045124Y-58616400D01*
X132092743Y-58664019D01*
X133045124Y-59568781D02*
X132473695Y-59568781D01*
X132759409Y-59568781D02*
X132759409Y-58568781D01*
X132664171Y-58711638D01*
X132568933Y-58806876D01*
X132473695Y-58854495D01*
X133378457Y-58568781D02*
X133997505Y-58568781D01*
X133664171Y-58949733D01*
X133807029Y-58949733D01*
X133902267Y-58997352D01*
X133949886Y-59044971D01*
X133997505Y-59140210D01*
X133997505Y-59378305D01*
X133949886Y-59473543D01*
X133902267Y-59521162D01*
X133807029Y-59568781D01*
X133521314Y-59568781D01*
X133426076Y-59521162D01*
X133378457Y-59473543D01*
X57614583Y-88484983D02*
X57566964Y-88532602D01*
X57424107Y-88580221D01*
X57328869Y-88580221D01*
X57186011Y-88532602D01*
X57090773Y-88437364D01*
X57043154Y-88342126D01*
X56995535Y-88151650D01*
X56995535Y-88008792D01*
X57043154Y-87818316D01*
X57090773Y-87723078D01*
X57186011Y-87627840D01*
X57328869Y-87580221D01*
X57424107Y-87580221D01*
X57566964Y-87627840D01*
X57614583Y-87675459D01*
X58566964Y-88580221D02*
X57995535Y-88580221D01*
X58281249Y-88580221D02*
X58281249Y-87580221D01*
X58186011Y-87723078D01*
X58090773Y-87818316D01*
X57995535Y-87865935D01*
X59424107Y-87913554D02*
X59424107Y-88580221D01*
X59186011Y-87532602D02*
X58947916Y-88246888D01*
X59566964Y-88246888D01*
X57538383Y-90923383D02*
X57490764Y-90971002D01*
X57347907Y-91018621D01*
X57252669Y-91018621D01*
X57109811Y-90971002D01*
X57014573Y-90875764D01*
X56966954Y-90780526D01*
X56919335Y-90590050D01*
X56919335Y-90447192D01*
X56966954Y-90256716D01*
X57014573Y-90161478D01*
X57109811Y-90066240D01*
X57252669Y-90018621D01*
X57347907Y-90018621D01*
X57490764Y-90066240D01*
X57538383Y-90113859D01*
X58490764Y-91018621D02*
X57919335Y-91018621D01*
X58205049Y-91018621D02*
X58205049Y-90018621D01*
X58109811Y-90161478D01*
X58014573Y-90256716D01*
X57919335Y-90304335D01*
X59395526Y-90018621D02*
X58919335Y-90018621D01*
X58871716Y-90494811D01*
X58919335Y-90447192D01*
X59014573Y-90399573D01*
X59252669Y-90399573D01*
X59347907Y-90447192D01*
X59395526Y-90494811D01*
X59443145Y-90590050D01*
X59443145Y-90828145D01*
X59395526Y-90923383D01*
X59347907Y-90971002D01*
X59252669Y-91018621D01*
X59014573Y-91018621D01*
X58919335Y-90971002D01*
X58871716Y-90923383D01*
X57421543Y-93437983D02*
X57373924Y-93485602D01*
X57231067Y-93533221D01*
X57135829Y-93533221D01*
X56992971Y-93485602D01*
X56897733Y-93390364D01*
X56850114Y-93295126D01*
X56802495Y-93104650D01*
X56802495Y-92961792D01*
X56850114Y-92771316D01*
X56897733Y-92676078D01*
X56992971Y-92580840D01*
X57135829Y-92533221D01*
X57231067Y-92533221D01*
X57373924Y-92580840D01*
X57421543Y-92628459D01*
X58373924Y-93533221D02*
X57802495Y-93533221D01*
X58088209Y-93533221D02*
X58088209Y-92533221D01*
X57992971Y-92676078D01*
X57897733Y-92771316D01*
X57802495Y-92818935D01*
X59231067Y-92533221D02*
X59040590Y-92533221D01*
X58945352Y-92580840D01*
X58897733Y-92628459D01*
X58802495Y-92771316D01*
X58754876Y-92961792D01*
X58754876Y-93342745D01*
X58802495Y-93437983D01*
X58850114Y-93485602D01*
X58945352Y-93533221D01*
X59135829Y-93533221D01*
X59231067Y-93485602D01*
X59278686Y-93437983D01*
X59326305Y-93342745D01*
X59326305Y-93104650D01*
X59278686Y-93009411D01*
X59231067Y-92961792D01*
X59135829Y-92914173D01*
X58945352Y-92914173D01*
X58850114Y-92961792D01*
X58802495Y-93009411D01*
X58754876Y-93104650D01*
X57421543Y-96140543D02*
X57373924Y-96188162D01*
X57231067Y-96235781D01*
X57135829Y-96235781D01*
X56992971Y-96188162D01*
X56897733Y-96092924D01*
X56850114Y-95997686D01*
X56802495Y-95807210D01*
X56802495Y-95664352D01*
X56850114Y-95473876D01*
X56897733Y-95378638D01*
X56992971Y-95283400D01*
X57135829Y-95235781D01*
X57231067Y-95235781D01*
X57373924Y-95283400D01*
X57421543Y-95331019D01*
X58373924Y-96235781D02*
X57802495Y-96235781D01*
X58088209Y-96235781D02*
X58088209Y-95235781D01*
X57992971Y-95378638D01*
X57897733Y-95473876D01*
X57802495Y-95521495D01*
X58707257Y-95235781D02*
X59373924Y-95235781D01*
X58945352Y-96235781D01*
X57421543Y-98731343D02*
X57373924Y-98778962D01*
X57231067Y-98826581D01*
X57135829Y-98826581D01*
X56992971Y-98778962D01*
X56897733Y-98683724D01*
X56850114Y-98588486D01*
X56802495Y-98398010D01*
X56802495Y-98255152D01*
X56850114Y-98064676D01*
X56897733Y-97969438D01*
X56992971Y-97874200D01*
X57135829Y-97826581D01*
X57231067Y-97826581D01*
X57373924Y-97874200D01*
X57421543Y-97921819D01*
X58373924Y-98826581D02*
X57802495Y-98826581D01*
X58088209Y-98826581D02*
X58088209Y-97826581D01*
X57992971Y-97969438D01*
X57897733Y-98064676D01*
X57802495Y-98112295D01*
X58945352Y-98255152D02*
X58850114Y-98207533D01*
X58802495Y-98159914D01*
X58754876Y-98064676D01*
X58754876Y-98017057D01*
X58802495Y-97921819D01*
X58850114Y-97874200D01*
X58945352Y-97826581D01*
X59135829Y-97826581D01*
X59231067Y-97874200D01*
X59278686Y-97921819D01*
X59326305Y-98017057D01*
X59326305Y-98064676D01*
X59278686Y-98159914D01*
X59231067Y-98207533D01*
X59135829Y-98255152D01*
X58945352Y-98255152D01*
X58850114Y-98302771D01*
X58802495Y-98350390D01*
X58754876Y-98445629D01*
X58754876Y-98636105D01*
X58802495Y-98731343D01*
X58850114Y-98778962D01*
X58945352Y-98826581D01*
X59135829Y-98826581D01*
X59231067Y-98778962D01*
X59278686Y-98731343D01*
X59326305Y-98636105D01*
X59326305Y-98445629D01*
X59278686Y-98350390D01*
X59231067Y-98302771D01*
X59135829Y-98255152D01*
X57416463Y-101444063D02*
X57368844Y-101491682D01*
X57225987Y-101539301D01*
X57130749Y-101539301D01*
X56987891Y-101491682D01*
X56892653Y-101396444D01*
X56845034Y-101301206D01*
X56797415Y-101110730D01*
X56797415Y-100967872D01*
X56845034Y-100777396D01*
X56892653Y-100682158D01*
X56987891Y-100586920D01*
X57130749Y-100539301D01*
X57225987Y-100539301D01*
X57368844Y-100586920D01*
X57416463Y-100634539D01*
X58368844Y-101539301D02*
X57797415Y-101539301D01*
X58083129Y-101539301D02*
X58083129Y-100539301D01*
X57987891Y-100682158D01*
X57892653Y-100777396D01*
X57797415Y-100825015D01*
X58845034Y-101539301D02*
X59035510Y-101539301D01*
X59130749Y-101491682D01*
X59178368Y-101444063D01*
X59273606Y-101301206D01*
X59321225Y-101110730D01*
X59321225Y-100729777D01*
X59273606Y-100634539D01*
X59225987Y-100586920D01*
X59130749Y-100539301D01*
X58940272Y-100539301D01*
X58845034Y-100586920D01*
X58797415Y-100634539D01*
X58749796Y-100729777D01*
X58749796Y-100967872D01*
X58797415Y-101063110D01*
X58845034Y-101110730D01*
X58940272Y-101158349D01*
X59130749Y-101158349D01*
X59225987Y-101110730D01*
X59273606Y-101063110D01*
X59321225Y-100967872D01*
X57472343Y-103902783D02*
X57424724Y-103950402D01*
X57281867Y-103998021D01*
X57186629Y-103998021D01*
X57043771Y-103950402D01*
X56948533Y-103855164D01*
X56900914Y-103759926D01*
X56853295Y-103569450D01*
X56853295Y-103426592D01*
X56900914Y-103236116D01*
X56948533Y-103140878D01*
X57043771Y-103045640D01*
X57186629Y-102998021D01*
X57281867Y-102998021D01*
X57424724Y-103045640D01*
X57472343Y-103093259D01*
X57853295Y-103093259D02*
X57900914Y-103045640D01*
X57996152Y-102998021D01*
X58234248Y-102998021D01*
X58329486Y-103045640D01*
X58377105Y-103093259D01*
X58424724Y-103188497D01*
X58424724Y-103283735D01*
X58377105Y-103426592D01*
X57805676Y-103998021D01*
X58424724Y-103998021D01*
X59043771Y-102998021D02*
X59139010Y-102998021D01*
X59234248Y-103045640D01*
X59281867Y-103093259D01*
X59329486Y-103188497D01*
X59377105Y-103378973D01*
X59377105Y-103617069D01*
X59329486Y-103807545D01*
X59281867Y-103902783D01*
X59234248Y-103950402D01*
X59139010Y-103998021D01*
X59043771Y-103998021D01*
X58948533Y-103950402D01*
X58900914Y-103902783D01*
X58853295Y-103807545D01*
X58805676Y-103617069D01*
X58805676Y-103378973D01*
X58853295Y-103188497D01*
X58900914Y-103093259D01*
X58948533Y-103045640D01*
X59043771Y-102998021D01*
X57472343Y-106305623D02*
X57424724Y-106353242D01*
X57281867Y-106400861D01*
X57186629Y-106400861D01*
X57043771Y-106353242D01*
X56948533Y-106258004D01*
X56900914Y-106162766D01*
X56853295Y-105972290D01*
X56853295Y-105829432D01*
X56900914Y-105638956D01*
X56948533Y-105543718D01*
X57043771Y-105448480D01*
X57186629Y-105400861D01*
X57281867Y-105400861D01*
X57424724Y-105448480D01*
X57472343Y-105496099D01*
X57853295Y-105496099D02*
X57900914Y-105448480D01*
X57996152Y-105400861D01*
X58234248Y-105400861D01*
X58329486Y-105448480D01*
X58377105Y-105496099D01*
X58424724Y-105591337D01*
X58424724Y-105686575D01*
X58377105Y-105829432D01*
X57805676Y-106400861D01*
X58424724Y-106400861D01*
X59377105Y-106400861D02*
X58805676Y-106400861D01*
X59091390Y-106400861D02*
X59091390Y-105400861D01*
X58996152Y-105543718D01*
X58900914Y-105638956D01*
X58805676Y-105686575D01*
X57416463Y-108931983D02*
X57368844Y-108979602D01*
X57225987Y-109027221D01*
X57130749Y-109027221D01*
X56987891Y-108979602D01*
X56892653Y-108884364D01*
X56845034Y-108789126D01*
X56797415Y-108598650D01*
X56797415Y-108455792D01*
X56845034Y-108265316D01*
X56892653Y-108170078D01*
X56987891Y-108074840D01*
X57130749Y-108027221D01*
X57225987Y-108027221D01*
X57368844Y-108074840D01*
X57416463Y-108122459D01*
X57797415Y-108122459D02*
X57845034Y-108074840D01*
X57940272Y-108027221D01*
X58178368Y-108027221D01*
X58273606Y-108074840D01*
X58321225Y-108122459D01*
X58368844Y-108217697D01*
X58368844Y-108312935D01*
X58321225Y-108455792D01*
X57749796Y-109027221D01*
X58368844Y-109027221D01*
X58749796Y-108122459D02*
X58797415Y-108074840D01*
X58892653Y-108027221D01*
X59130749Y-108027221D01*
X59225987Y-108074840D01*
X59273606Y-108122459D01*
X59321225Y-108217697D01*
X59321225Y-108312935D01*
X59273606Y-108455792D01*
X58702177Y-109027221D01*
X59321225Y-109027221D01*
X52149477Y-55992781D02*
X52149477Y-56707067D01*
X52101857Y-56849924D01*
X52006619Y-56945162D01*
X51863762Y-56992781D01*
X51768524Y-56992781D01*
X53149477Y-56992781D02*
X52578048Y-56992781D01*
X52863762Y-56992781D02*
X52863762Y-55992781D01*
X52768524Y-56135638D01*
X52673286Y-56230876D01*
X52578048Y-56278495D01*
X53530429Y-56088019D02*
X53578048Y-56040400D01*
X53673286Y-55992781D01*
X53911382Y-55992781D01*
X54006620Y-56040400D01*
X54054239Y-56088019D01*
X54101858Y-56183257D01*
X54101858Y-56278495D01*
X54054239Y-56421352D01*
X53482810Y-56992781D01*
X54101858Y-56992781D01*
X59147983Y-147089097D02*
X59195602Y-147136716D01*
X59243221Y-147279573D01*
X59243221Y-147374811D01*
X59195602Y-147517669D01*
X59100364Y-147612907D01*
X59005126Y-147660526D01*
X58814650Y-147708145D01*
X58671792Y-147708145D01*
X58481316Y-147660526D01*
X58386078Y-147612907D01*
X58290840Y-147517669D01*
X58243221Y-147374811D01*
X58243221Y-147279573D01*
X58290840Y-147136716D01*
X58338459Y-147089097D01*
X59243221Y-146136716D02*
X59243221Y-146708145D01*
X59243221Y-146422431D02*
X58243221Y-146422431D01*
X58386078Y-146517669D01*
X58481316Y-146612907D01*
X58528935Y-146708145D01*
X59243221Y-145184335D02*
X59243221Y-145755764D01*
X59243221Y-145470050D02*
X58243221Y-145470050D01*
X58386078Y-145565288D01*
X58481316Y-145660526D01*
X58528935Y-145755764D01*
X62612543Y-146984957D02*
X62660162Y-147032576D01*
X62707781Y-147175433D01*
X62707781Y-147270671D01*
X62660162Y-147413529D01*
X62564924Y-147508767D01*
X62469686Y-147556386D01*
X62279210Y-147604005D01*
X62136352Y-147604005D01*
X61945876Y-147556386D01*
X61850638Y-147508767D01*
X61755400Y-147413529D01*
X61707781Y-147270671D01*
X61707781Y-147175433D01*
X61755400Y-147032576D01*
X61803019Y-146984957D01*
X61803019Y-146604005D02*
X61755400Y-146556386D01*
X61707781Y-146461148D01*
X61707781Y-146223052D01*
X61755400Y-146127814D01*
X61803019Y-146080195D01*
X61898257Y-146032576D01*
X61993495Y-146032576D01*
X62136352Y-146080195D01*
X62707781Y-146651624D01*
X62707781Y-146032576D01*
X62041114Y-145175433D02*
X62707781Y-145175433D01*
X61660162Y-145413529D02*
X62374448Y-145651624D01*
X62374448Y-145032576D01*
X52963843Y-141758943D02*
X52916224Y-141806562D01*
X52773367Y-141854181D01*
X52678129Y-141854181D01*
X52535271Y-141806562D01*
X52440033Y-141711324D01*
X52392414Y-141616086D01*
X52344795Y-141425610D01*
X52344795Y-141282752D01*
X52392414Y-141092276D01*
X52440033Y-140997038D01*
X52535271Y-140901800D01*
X52678129Y-140854181D01*
X52773367Y-140854181D01*
X52916224Y-140901800D01*
X52963843Y-140949419D01*
X53344795Y-140949419D02*
X53392414Y-140901800D01*
X53487652Y-140854181D01*
X53725748Y-140854181D01*
X53820986Y-140901800D01*
X53868605Y-140949419D01*
X53916224Y-141044657D01*
X53916224Y-141139895D01*
X53868605Y-141282752D01*
X53297176Y-141854181D01*
X53916224Y-141854181D01*
X54820986Y-140854181D02*
X54344795Y-140854181D01*
X54297176Y-141330371D01*
X54344795Y-141282752D01*
X54440033Y-141235133D01*
X54678129Y-141235133D01*
X54773367Y-141282752D01*
X54820986Y-141330371D01*
X54868605Y-141425610D01*
X54868605Y-141663705D01*
X54820986Y-141758943D01*
X54773367Y-141806562D01*
X54678129Y-141854181D01*
X54440033Y-141854181D01*
X54344795Y-141806562D01*
X54297176Y-141758943D01*
X138836163Y-148947143D02*
X138788544Y-148994762D01*
X138645687Y-149042381D01*
X138550449Y-149042381D01*
X138407591Y-148994762D01*
X138312353Y-148899524D01*
X138264734Y-148804286D01*
X138217115Y-148613810D01*
X138217115Y-148470952D01*
X138264734Y-148280476D01*
X138312353Y-148185238D01*
X138407591Y-148090000D01*
X138550449Y-148042381D01*
X138645687Y-148042381D01*
X138788544Y-148090000D01*
X138836163Y-148137619D01*
X139217115Y-148137619D02*
X139264734Y-148090000D01*
X139359972Y-148042381D01*
X139598068Y-148042381D01*
X139693306Y-148090000D01*
X139740925Y-148137619D01*
X139788544Y-148232857D01*
X139788544Y-148328095D01*
X139740925Y-148470952D01*
X139169496Y-149042381D01*
X139788544Y-149042381D01*
X140121877Y-148042381D02*
X140788544Y-148042381D01*
X140359972Y-149042381D01*
X143063981Y-148993123D02*
X143778267Y-148993123D01*
X143921124Y-149040743D01*
X144016362Y-149135981D01*
X144063981Y-149278838D01*
X144063981Y-149374076D01*
X144063981Y-147993123D02*
X144063981Y-148564552D01*
X144063981Y-148278838D02*
X143063981Y-148278838D01*
X143206838Y-148374076D01*
X143302076Y-148469314D01*
X143349695Y-148564552D01*
X143063981Y-147088361D02*
X143063981Y-147564552D01*
X143540171Y-147612171D01*
X143492552Y-147564552D01*
X143444933Y-147469314D01*
X143444933Y-147231218D01*
X143492552Y-147135980D01*
X143540171Y-147088361D01*
X143635410Y-147040742D01*
X143873505Y-147040742D01*
X143968743Y-147088361D01*
X144016362Y-147135980D01*
X144063981Y-147231218D01*
X144063981Y-147469314D01*
X144016362Y-147564552D01*
X143968743Y-147612171D01*
X136582143Y-51857143D02*
X136534524Y-51904762D01*
X136391667Y-51952381D01*
X136296429Y-51952381D01*
X136153571Y-51904762D01*
X136058333Y-51809524D01*
X136010714Y-51714286D01*
X135963095Y-51523810D01*
X135963095Y-51380952D01*
X136010714Y-51190476D01*
X136058333Y-51095238D01*
X136153571Y-51000000D01*
X136296429Y-50952381D01*
X136391667Y-50952381D01*
X136534524Y-51000000D01*
X136582143Y-51047619D01*
X136963095Y-51047619D02*
X137010714Y-51000000D01*
X137105952Y-50952381D01*
X137344048Y-50952381D01*
X137439286Y-51000000D01*
X137486905Y-51047619D01*
X137534524Y-51142857D01*
X137534524Y-51238095D01*
X137486905Y-51380952D01*
X136915476Y-51952381D01*
X137534524Y-51952381D01*
X138391667Y-50952381D02*
X138201190Y-50952381D01*
X138105952Y-51000000D01*
X138058333Y-51047619D01*
X137963095Y-51190476D01*
X137915476Y-51380952D01*
X137915476Y-51761905D01*
X137963095Y-51857143D01*
X138010714Y-51904762D01*
X138105952Y-51952381D01*
X138296429Y-51952381D01*
X138391667Y-51904762D01*
X138439286Y-51857143D01*
X138486905Y-51761905D01*
X138486905Y-51523810D01*
X138439286Y-51428571D01*
X138391667Y-51380952D01*
X138296429Y-51333333D01*
X138105952Y-51333333D01*
X138010714Y-51380952D01*
X137963095Y-51428571D01*
X137915476Y-51523810D01*
X96674134Y-106921181D02*
X96197943Y-106921181D01*
X96197943Y-105921181D01*
X97578896Y-106825943D02*
X97531277Y-106873562D01*
X97388420Y-106921181D01*
X97293182Y-106921181D01*
X97150324Y-106873562D01*
X97055086Y-106778324D01*
X97007467Y-106683086D01*
X96959848Y-106492610D01*
X96959848Y-106349752D01*
X97007467Y-106159276D01*
X97055086Y-106064038D01*
X97150324Y-105968800D01*
X97293182Y-105921181D01*
X97388420Y-105921181D01*
X97531277Y-105968800D01*
X97578896Y-106016419D01*
X97912229Y-105921181D02*
X98531277Y-105921181D01*
X98197943Y-106302133D01*
X98340801Y-106302133D01*
X98436039Y-106349752D01*
X98483658Y-106397371D01*
X98531277Y-106492610D01*
X98531277Y-106730705D01*
X98483658Y-106825943D01*
X98436039Y-106873562D01*
X98340801Y-106921181D01*
X98055086Y-106921181D01*
X97959848Y-106873562D01*
X97912229Y-106825943D01*
X115851134Y-107098981D02*
X115374943Y-107098981D01*
X115374943Y-106098981D01*
X116755896Y-107003743D02*
X116708277Y-107051362D01*
X116565420Y-107098981D01*
X116470182Y-107098981D01*
X116327324Y-107051362D01*
X116232086Y-106956124D01*
X116184467Y-106860886D01*
X116136848Y-106670410D01*
X116136848Y-106527552D01*
X116184467Y-106337076D01*
X116232086Y-106241838D01*
X116327324Y-106146600D01*
X116470182Y-106098981D01*
X116565420Y-106098981D01*
X116708277Y-106146600D01*
X116755896Y-106194219D01*
X117136848Y-106194219D02*
X117184467Y-106146600D01*
X117279705Y-106098981D01*
X117517801Y-106098981D01*
X117613039Y-106146600D01*
X117660658Y-106194219D01*
X117708277Y-106289457D01*
X117708277Y-106384695D01*
X117660658Y-106527552D01*
X117089229Y-107098981D01*
X117708277Y-107098981D01*
X135040834Y-107060881D02*
X134564643Y-107060881D01*
X134564643Y-106060881D01*
X135945596Y-106965643D02*
X135897977Y-107013262D01*
X135755120Y-107060881D01*
X135659882Y-107060881D01*
X135517024Y-107013262D01*
X135421786Y-106918024D01*
X135374167Y-106822786D01*
X135326548Y-106632310D01*
X135326548Y-106489452D01*
X135374167Y-106298976D01*
X135421786Y-106203738D01*
X135517024Y-106108500D01*
X135659882Y-106060881D01*
X135755120Y-106060881D01*
X135897977Y-106108500D01*
X135945596Y-106156119D01*
X136897977Y-107060881D02*
X136326548Y-107060881D01*
X136612262Y-107060881D02*
X136612262Y-106060881D01*
X136517024Y-106203738D01*
X136421786Y-106298976D01*
X136326548Y-106346595D01*
X77420934Y-106971981D02*
X76944743Y-106971981D01*
X76944743Y-105971981D01*
X78325696Y-106876743D02*
X78278077Y-106924362D01*
X78135220Y-106971981D01*
X78039982Y-106971981D01*
X77897124Y-106924362D01*
X77801886Y-106829124D01*
X77754267Y-106733886D01*
X77706648Y-106543410D01*
X77706648Y-106400552D01*
X77754267Y-106210076D01*
X77801886Y-106114838D01*
X77897124Y-106019600D01*
X78039982Y-105971981D01*
X78135220Y-105971981D01*
X78278077Y-106019600D01*
X78325696Y-106067219D01*
X79182839Y-106305314D02*
X79182839Y-106971981D01*
X78944743Y-105924362D02*
X78706648Y-106638648D01*
X79325696Y-106638648D01*
X76947734Y-94440381D02*
X76471543Y-94440381D01*
X76471543Y-93440381D01*
X77852496Y-94345143D02*
X77804877Y-94392762D01*
X77662020Y-94440381D01*
X77566782Y-94440381D01*
X77423924Y-94392762D01*
X77328686Y-94297524D01*
X77281067Y-94202286D01*
X77233448Y-94011810D01*
X77233448Y-93868952D01*
X77281067Y-93678476D01*
X77328686Y-93583238D01*
X77423924Y-93488000D01*
X77566782Y-93440381D01*
X77662020Y-93440381D01*
X77804877Y-93488000D01*
X77852496Y-93535619D01*
X78757258Y-93440381D02*
X78281067Y-93440381D01*
X78233448Y-93916571D01*
X78281067Y-93868952D01*
X78376305Y-93821333D01*
X78614401Y-93821333D01*
X78709639Y-93868952D01*
X78757258Y-93916571D01*
X78804877Y-94011810D01*
X78804877Y-94249905D01*
X78757258Y-94345143D01*
X78709639Y-94392762D01*
X78614401Y-94440381D01*
X78376305Y-94440381D01*
X78281067Y-94392762D01*
X78233448Y-94345143D01*
X96033334Y-94460381D02*
X95557143Y-94460381D01*
X95557143Y-93460381D01*
X96938096Y-94365143D02*
X96890477Y-94412762D01*
X96747620Y-94460381D01*
X96652382Y-94460381D01*
X96509524Y-94412762D01*
X96414286Y-94317524D01*
X96366667Y-94222286D01*
X96319048Y-94031810D01*
X96319048Y-93888952D01*
X96366667Y-93698476D01*
X96414286Y-93603238D01*
X96509524Y-93508000D01*
X96652382Y-93460381D01*
X96747620Y-93460381D01*
X96890477Y-93508000D01*
X96938096Y-93555619D01*
X97795239Y-93460381D02*
X97604762Y-93460381D01*
X97509524Y-93508000D01*
X97461905Y-93555619D01*
X97366667Y-93698476D01*
X97319048Y-93888952D01*
X97319048Y-94269905D01*
X97366667Y-94365143D01*
X97414286Y-94412762D01*
X97509524Y-94460381D01*
X97700001Y-94460381D01*
X97795239Y-94412762D01*
X97842858Y-94365143D01*
X97890477Y-94269905D01*
X97890477Y-94031810D01*
X97842858Y-93936571D01*
X97795239Y-93888952D01*
X97700001Y-93841333D01*
X97509524Y-93841333D01*
X97414286Y-93888952D01*
X97366667Y-93936571D01*
X97319048Y-94031810D01*
X115098534Y-94440381D02*
X114622343Y-94440381D01*
X114622343Y-93440381D01*
X116003296Y-94345143D02*
X115955677Y-94392762D01*
X115812820Y-94440381D01*
X115717582Y-94440381D01*
X115574724Y-94392762D01*
X115479486Y-94297524D01*
X115431867Y-94202286D01*
X115384248Y-94011810D01*
X115384248Y-93868952D01*
X115431867Y-93678476D01*
X115479486Y-93583238D01*
X115574724Y-93488000D01*
X115717582Y-93440381D01*
X115812820Y-93440381D01*
X115955677Y-93488000D01*
X116003296Y-93535619D01*
X116336629Y-93440381D02*
X117003296Y-93440381D01*
X116574724Y-94440381D01*
X134402534Y-94491181D02*
X133926343Y-94491181D01*
X133926343Y-93491181D01*
X135307296Y-94395943D02*
X135259677Y-94443562D01*
X135116820Y-94491181D01*
X135021582Y-94491181D01*
X134878724Y-94443562D01*
X134783486Y-94348324D01*
X134735867Y-94253086D01*
X134688248Y-94062610D01*
X134688248Y-93919752D01*
X134735867Y-93729276D01*
X134783486Y-93634038D01*
X134878724Y-93538800D01*
X135021582Y-93491181D01*
X135116820Y-93491181D01*
X135259677Y-93538800D01*
X135307296Y-93586419D01*
X135878724Y-93919752D02*
X135783486Y-93872133D01*
X135735867Y-93824514D01*
X135688248Y-93729276D01*
X135688248Y-93681657D01*
X135735867Y-93586419D01*
X135783486Y-93538800D01*
X135878724Y-93491181D01*
X136069201Y-93491181D01*
X136164439Y-93538800D01*
X136212058Y-93586419D01*
X136259677Y-93681657D01*
X136259677Y-93729276D01*
X136212058Y-93824514D01*
X136164439Y-93872133D01*
X136069201Y-93919752D01*
X135878724Y-93919752D01*
X135783486Y-93967371D01*
X135735867Y-94014990D01*
X135688248Y-94110229D01*
X135688248Y-94300705D01*
X135735867Y-94395943D01*
X135783486Y-94443562D01*
X135878724Y-94491181D01*
X136069201Y-94491181D01*
X136164439Y-94443562D01*
X136212058Y-94395943D01*
X136259677Y-94300705D01*
X136259677Y-94110229D01*
X136212058Y-94014990D01*
X136164439Y-93967371D01*
X136069201Y-93919752D01*
X109413800Y-119567681D02*
X109080466Y-119091490D01*
X108842371Y-119567681D02*
X108842371Y-118567681D01*
X109223324Y-118567681D01*
X109318562Y-118615300D01*
X109366181Y-118662919D01*
X109413800Y-118758157D01*
X109413800Y-118901014D01*
X109366181Y-118996252D01*
X109318562Y-119043871D01*
X109223324Y-119091490D01*
X108842371Y-119091490D01*
X110318562Y-119567681D02*
X109842371Y-119567681D01*
X109842371Y-118567681D01*
X110842371Y-119091490D02*
X110842371Y-119567681D01*
X110509038Y-118567681D02*
X110842371Y-119091490D01*
X111175705Y-118567681D01*
X112032848Y-119567681D02*
X111461419Y-119567681D01*
X111747133Y-119567681D02*
X111747133Y-118567681D01*
X111651895Y-118710538D01*
X111556657Y-118805776D01*
X111461419Y-118853395D01*
X110866181Y-131305777D02*
X109866181Y-131305777D01*
X110342371Y-131305777D02*
X110342371Y-130734348D01*
X110866181Y-130734348D02*
X109866181Y-130734348D01*
X110866181Y-130258158D02*
X109866181Y-130258158D01*
X110866181Y-129686729D02*
X110294752Y-130115301D01*
X109866181Y-129686729D02*
X110437610Y-130258158D01*
X110866181Y-128734348D02*
X110866181Y-129305777D01*
X110866181Y-129020063D02*
X109866181Y-129020063D01*
X110009038Y-129115301D01*
X110104276Y-129210539D01*
X110151895Y-129305777D01*
X110866181Y-128258158D02*
X110866181Y-128067682D01*
X110818562Y-127972443D01*
X110770943Y-127924824D01*
X110628086Y-127829586D01*
X110437610Y-127781967D01*
X110056657Y-127781967D01*
X109961419Y-127829586D01*
X109913800Y-127877205D01*
X109866181Y-127972443D01*
X109866181Y-128162920D01*
X109913800Y-128258158D01*
X109961419Y-128305777D01*
X110056657Y-128353396D01*
X110294752Y-128353396D01*
X110389990Y-128305777D01*
X110437610Y-128258158D01*
X110485229Y-128162920D01*
X110485229Y-127972443D01*
X110437610Y-127877205D01*
X110389990Y-127829586D01*
X110294752Y-127781967D01*
X110342371Y-127020062D02*
X110342371Y-127353396D01*
X110866181Y-127353396D02*
X109866181Y-127353396D01*
X109866181Y-126877205D01*
X110866181Y-125924824D02*
X110389990Y-126258158D01*
X110866181Y-126496253D02*
X109866181Y-126496253D01*
X109866181Y-126115300D01*
X109913800Y-126020062D01*
X109961419Y-125972443D01*
X110056657Y-125924824D01*
X110199514Y-125924824D01*
X110294752Y-125972443D01*
X110342371Y-126020062D01*
X110389990Y-126115300D01*
X110389990Y-126496253D01*
X110818562Y-125115300D02*
X110866181Y-125210538D01*
X110866181Y-125401015D01*
X110818562Y-125496253D01*
X110723324Y-125543872D01*
X110342371Y-125543872D01*
X110247133Y-125496253D01*
X110199514Y-125401015D01*
X110199514Y-125210538D01*
X110247133Y-125115300D01*
X110342371Y-125067681D01*
X110437610Y-125067681D01*
X110532848Y-125543872D01*
X110866181Y-124496253D02*
X110818562Y-124591491D01*
X110723324Y-124639110D01*
X109866181Y-124639110D01*
X110866181Y-123686728D02*
X110342371Y-123686728D01*
X110247133Y-123734347D01*
X110199514Y-123829585D01*
X110199514Y-124020062D01*
X110247133Y-124115300D01*
X110818562Y-123686728D02*
X110866181Y-123781966D01*
X110866181Y-124020062D01*
X110818562Y-124115300D01*
X110723324Y-124162919D01*
X110628086Y-124162919D01*
X110532848Y-124115300D01*
X110485229Y-124020062D01*
X110485229Y-123781966D01*
X110437610Y-123686728D01*
X110199514Y-123305776D02*
X110866181Y-123067681D01*
X110199514Y-122829585D02*
X110866181Y-123067681D01*
X111104276Y-123162919D01*
X111151895Y-123210538D01*
X111199514Y-123305776D01*
X96345500Y-119567681D02*
X96012166Y-119091490D01*
X95774071Y-119567681D02*
X95774071Y-118567681D01*
X96155024Y-118567681D01*
X96250262Y-118615300D01*
X96297881Y-118662919D01*
X96345500Y-118758157D01*
X96345500Y-118901014D01*
X96297881Y-118996252D01*
X96250262Y-119043871D01*
X96155024Y-119091490D01*
X95774071Y-119091490D01*
X97250262Y-119567681D02*
X96774071Y-119567681D01*
X96774071Y-118567681D01*
X97774071Y-119091490D02*
X97774071Y-119567681D01*
X97440738Y-118567681D02*
X97774071Y-119091490D01*
X98107405Y-118567681D01*
X98393119Y-118662919D02*
X98440738Y-118615300D01*
X98535976Y-118567681D01*
X98774072Y-118567681D01*
X98869310Y-118615300D01*
X98916929Y-118662919D01*
X98964548Y-118758157D01*
X98964548Y-118853395D01*
X98916929Y-118996252D01*
X98345500Y-119567681D01*
X98964548Y-119567681D01*
X97797881Y-131305777D02*
X96797881Y-131305777D01*
X97274071Y-131305777D02*
X97274071Y-130734348D01*
X97797881Y-130734348D02*
X96797881Y-130734348D01*
X97797881Y-130258158D02*
X96797881Y-130258158D01*
X97797881Y-129686729D02*
X97226452Y-130115301D01*
X96797881Y-129686729D02*
X97369310Y-130258158D01*
X97797881Y-128734348D02*
X97797881Y-129305777D01*
X97797881Y-129020063D02*
X96797881Y-129020063D01*
X96940738Y-129115301D01*
X97035976Y-129210539D01*
X97083595Y-129305777D01*
X97797881Y-128258158D02*
X97797881Y-128067682D01*
X97750262Y-127972443D01*
X97702643Y-127924824D01*
X97559786Y-127829586D01*
X97369310Y-127781967D01*
X96988357Y-127781967D01*
X96893119Y-127829586D01*
X96845500Y-127877205D01*
X96797881Y-127972443D01*
X96797881Y-128162920D01*
X96845500Y-128258158D01*
X96893119Y-128305777D01*
X96988357Y-128353396D01*
X97226452Y-128353396D01*
X97321690Y-128305777D01*
X97369310Y-128258158D01*
X97416929Y-128162920D01*
X97416929Y-127972443D01*
X97369310Y-127877205D01*
X97321690Y-127829586D01*
X97226452Y-127781967D01*
X97274071Y-127020062D02*
X97274071Y-127353396D01*
X97797881Y-127353396D02*
X96797881Y-127353396D01*
X96797881Y-126877205D01*
X97797881Y-125924824D02*
X97321690Y-126258158D01*
X97797881Y-126496253D02*
X96797881Y-126496253D01*
X96797881Y-126115300D01*
X96845500Y-126020062D01*
X96893119Y-125972443D01*
X96988357Y-125924824D01*
X97131214Y-125924824D01*
X97226452Y-125972443D01*
X97274071Y-126020062D01*
X97321690Y-126115300D01*
X97321690Y-126496253D01*
X97750262Y-125115300D02*
X97797881Y-125210538D01*
X97797881Y-125401015D01*
X97750262Y-125496253D01*
X97655024Y-125543872D01*
X97274071Y-125543872D01*
X97178833Y-125496253D01*
X97131214Y-125401015D01*
X97131214Y-125210538D01*
X97178833Y-125115300D01*
X97274071Y-125067681D01*
X97369310Y-125067681D01*
X97464548Y-125543872D01*
X97797881Y-124496253D02*
X97750262Y-124591491D01*
X97655024Y-124639110D01*
X96797881Y-124639110D01*
X97797881Y-123686728D02*
X97274071Y-123686728D01*
X97178833Y-123734347D01*
X97131214Y-123829585D01*
X97131214Y-124020062D01*
X97178833Y-124115300D01*
X97750262Y-123686728D02*
X97797881Y-123781966D01*
X97797881Y-124020062D01*
X97750262Y-124115300D01*
X97655024Y-124162919D01*
X97559786Y-124162919D01*
X97464548Y-124115300D01*
X97416929Y-124020062D01*
X97416929Y-123781966D01*
X97369310Y-123686728D01*
X97131214Y-123305776D02*
X97797881Y-123067681D01*
X97131214Y-122829585D02*
X97797881Y-123067681D01*
X98035976Y-123162919D01*
X98083595Y-123210538D01*
X98131214Y-123305776D01*
X83100000Y-119652381D02*
X82766666Y-119176190D01*
X82528571Y-119652381D02*
X82528571Y-118652381D01*
X82909524Y-118652381D01*
X83004762Y-118700000D01*
X83052381Y-118747619D01*
X83100000Y-118842857D01*
X83100000Y-118985714D01*
X83052381Y-119080952D01*
X83004762Y-119128571D01*
X82909524Y-119176190D01*
X82528571Y-119176190D01*
X84004762Y-119652381D02*
X83528571Y-119652381D01*
X83528571Y-118652381D01*
X84528571Y-119176190D02*
X84528571Y-119652381D01*
X84195238Y-118652381D02*
X84528571Y-119176190D01*
X84861905Y-118652381D01*
X85100000Y-118652381D02*
X85719048Y-118652381D01*
X85385714Y-119033333D01*
X85528572Y-119033333D01*
X85623810Y-119080952D01*
X85671429Y-119128571D01*
X85719048Y-119223810D01*
X85719048Y-119461905D01*
X85671429Y-119557143D01*
X85623810Y-119604762D01*
X85528572Y-119652381D01*
X85242857Y-119652381D01*
X85147619Y-119604762D01*
X85100000Y-119557143D01*
X84552381Y-131390477D02*
X83552381Y-131390477D01*
X84028571Y-131390477D02*
X84028571Y-130819048D01*
X84552381Y-130819048D02*
X83552381Y-130819048D01*
X84552381Y-130342858D02*
X83552381Y-130342858D01*
X84552381Y-129771429D02*
X83980952Y-130200001D01*
X83552381Y-129771429D02*
X84123810Y-130342858D01*
X84552381Y-128819048D02*
X84552381Y-129390477D01*
X84552381Y-129104763D02*
X83552381Y-129104763D01*
X83695238Y-129200001D01*
X83790476Y-129295239D01*
X83838095Y-129390477D01*
X84552381Y-128342858D02*
X84552381Y-128152382D01*
X84504762Y-128057143D01*
X84457143Y-128009524D01*
X84314286Y-127914286D01*
X84123810Y-127866667D01*
X83742857Y-127866667D01*
X83647619Y-127914286D01*
X83600000Y-127961905D01*
X83552381Y-128057143D01*
X83552381Y-128247620D01*
X83600000Y-128342858D01*
X83647619Y-128390477D01*
X83742857Y-128438096D01*
X83980952Y-128438096D01*
X84076190Y-128390477D01*
X84123810Y-128342858D01*
X84171429Y-128247620D01*
X84171429Y-128057143D01*
X84123810Y-127961905D01*
X84076190Y-127914286D01*
X83980952Y-127866667D01*
X84028571Y-127104762D02*
X84028571Y-127438096D01*
X84552381Y-127438096D02*
X83552381Y-127438096D01*
X83552381Y-126961905D01*
X84552381Y-126009524D02*
X84076190Y-126342858D01*
X84552381Y-126580953D02*
X83552381Y-126580953D01*
X83552381Y-126200000D01*
X83600000Y-126104762D01*
X83647619Y-126057143D01*
X83742857Y-126009524D01*
X83885714Y-126009524D01*
X83980952Y-126057143D01*
X84028571Y-126104762D01*
X84076190Y-126200000D01*
X84076190Y-126580953D01*
X84504762Y-125200000D02*
X84552381Y-125295238D01*
X84552381Y-125485715D01*
X84504762Y-125580953D01*
X84409524Y-125628572D01*
X84028571Y-125628572D01*
X83933333Y-125580953D01*
X83885714Y-125485715D01*
X83885714Y-125295238D01*
X83933333Y-125200000D01*
X84028571Y-125152381D01*
X84123810Y-125152381D01*
X84219048Y-125628572D01*
X84552381Y-124580953D02*
X84504762Y-124676191D01*
X84409524Y-124723810D01*
X83552381Y-124723810D01*
X84552381Y-123771428D02*
X84028571Y-123771428D01*
X83933333Y-123819047D01*
X83885714Y-123914285D01*
X83885714Y-124104762D01*
X83933333Y-124200000D01*
X84504762Y-123771428D02*
X84552381Y-123866666D01*
X84552381Y-124104762D01*
X84504762Y-124200000D01*
X84409524Y-124247619D01*
X84314286Y-124247619D01*
X84219048Y-124200000D01*
X84171429Y-124104762D01*
X84171429Y-123866666D01*
X84123810Y-123771428D01*
X83885714Y-123390476D02*
X84552381Y-123152381D01*
X83885714Y-122914285D02*
X84552381Y-123152381D01*
X84790476Y-123247619D01*
X84838095Y-123295238D01*
X84885714Y-123390476D01*
X70000000Y-119552381D02*
X69666666Y-119076190D01*
X69428571Y-119552381D02*
X69428571Y-118552381D01*
X69809524Y-118552381D01*
X69904762Y-118600000D01*
X69952381Y-118647619D01*
X70000000Y-118742857D01*
X70000000Y-118885714D01*
X69952381Y-118980952D01*
X69904762Y-119028571D01*
X69809524Y-119076190D01*
X69428571Y-119076190D01*
X70904762Y-119552381D02*
X70428571Y-119552381D01*
X70428571Y-118552381D01*
X71428571Y-119076190D02*
X71428571Y-119552381D01*
X71095238Y-118552381D02*
X71428571Y-119076190D01*
X71761905Y-118552381D01*
X72523810Y-118885714D02*
X72523810Y-119552381D01*
X72285714Y-118504762D02*
X72047619Y-119219048D01*
X72666667Y-119219048D01*
X71452381Y-131290477D02*
X70452381Y-131290477D01*
X70928571Y-131290477D02*
X70928571Y-130719048D01*
X71452381Y-130719048D02*
X70452381Y-130719048D01*
X71452381Y-130242858D02*
X70452381Y-130242858D01*
X71452381Y-129671429D02*
X70880952Y-130100001D01*
X70452381Y-129671429D02*
X71023810Y-130242858D01*
X71452381Y-128719048D02*
X71452381Y-129290477D01*
X71452381Y-129004763D02*
X70452381Y-129004763D01*
X70595238Y-129100001D01*
X70690476Y-129195239D01*
X70738095Y-129290477D01*
X71452381Y-128242858D02*
X71452381Y-128052382D01*
X71404762Y-127957143D01*
X71357143Y-127909524D01*
X71214286Y-127814286D01*
X71023810Y-127766667D01*
X70642857Y-127766667D01*
X70547619Y-127814286D01*
X70500000Y-127861905D01*
X70452381Y-127957143D01*
X70452381Y-128147620D01*
X70500000Y-128242858D01*
X70547619Y-128290477D01*
X70642857Y-128338096D01*
X70880952Y-128338096D01*
X70976190Y-128290477D01*
X71023810Y-128242858D01*
X71071429Y-128147620D01*
X71071429Y-127957143D01*
X71023810Y-127861905D01*
X70976190Y-127814286D01*
X70880952Y-127766667D01*
X70928571Y-127004762D02*
X70928571Y-127338096D01*
X71452381Y-127338096D02*
X70452381Y-127338096D01*
X70452381Y-126861905D01*
X71452381Y-125909524D02*
X70976190Y-126242858D01*
X71452381Y-126480953D02*
X70452381Y-126480953D01*
X70452381Y-126100000D01*
X70500000Y-126004762D01*
X70547619Y-125957143D01*
X70642857Y-125909524D01*
X70785714Y-125909524D01*
X70880952Y-125957143D01*
X70928571Y-126004762D01*
X70976190Y-126100000D01*
X70976190Y-126480953D01*
X71404762Y-125100000D02*
X71452381Y-125195238D01*
X71452381Y-125385715D01*
X71404762Y-125480953D01*
X71309524Y-125528572D01*
X70928571Y-125528572D01*
X70833333Y-125480953D01*
X70785714Y-125385715D01*
X70785714Y-125195238D01*
X70833333Y-125100000D01*
X70928571Y-125052381D01*
X71023810Y-125052381D01*
X71119048Y-125528572D01*
X71452381Y-124480953D02*
X71404762Y-124576191D01*
X71309524Y-124623810D01*
X70452381Y-124623810D01*
X71452381Y-123671428D02*
X70928571Y-123671428D01*
X70833333Y-123719047D01*
X70785714Y-123814285D01*
X70785714Y-124004762D01*
X70833333Y-124100000D01*
X71404762Y-123671428D02*
X71452381Y-123766666D01*
X71452381Y-124004762D01*
X71404762Y-124100000D01*
X71309524Y-124147619D01*
X71214286Y-124147619D01*
X71119048Y-124100000D01*
X71071429Y-124004762D01*
X71071429Y-123766666D01*
X71023810Y-123671428D01*
X70785714Y-123290476D02*
X71452381Y-123052381D01*
X70785714Y-122814285D02*
X71452381Y-123052381D01*
X71690476Y-123147619D01*
X71738095Y-123195238D01*
X71785714Y-123290476D01*
X69000000Y-81152381D02*
X68666666Y-80676190D01*
X68428571Y-81152381D02*
X68428571Y-80152381D01*
X68809524Y-80152381D01*
X68904762Y-80200000D01*
X68952381Y-80247619D01*
X69000000Y-80342857D01*
X69000000Y-80485714D01*
X68952381Y-80580952D01*
X68904762Y-80628571D01*
X68809524Y-80676190D01*
X68428571Y-80676190D01*
X69904762Y-81152381D02*
X69428571Y-81152381D01*
X69428571Y-80152381D01*
X70428571Y-80676190D02*
X70428571Y-81152381D01*
X70095238Y-80152381D02*
X70428571Y-80676190D01*
X70761905Y-80152381D01*
X71571429Y-80152381D02*
X71095238Y-80152381D01*
X71047619Y-80628571D01*
X71095238Y-80580952D01*
X71190476Y-80533333D01*
X71428572Y-80533333D01*
X71523810Y-80580952D01*
X71571429Y-80628571D01*
X71619048Y-80723810D01*
X71619048Y-80961905D01*
X71571429Y-81057143D01*
X71523810Y-81104762D01*
X71428572Y-81152381D01*
X71190476Y-81152381D01*
X71095238Y-81104762D01*
X71047619Y-81057143D01*
X70452381Y-76890477D02*
X69452381Y-76890477D01*
X69928571Y-76890477D02*
X69928571Y-76319048D01*
X70452381Y-76319048D02*
X69452381Y-76319048D01*
X70452381Y-75842858D02*
X69452381Y-75842858D01*
X70452381Y-75271429D02*
X69880952Y-75700001D01*
X69452381Y-75271429D02*
X70023810Y-75842858D01*
X70452381Y-74319048D02*
X70452381Y-74890477D01*
X70452381Y-74604763D02*
X69452381Y-74604763D01*
X69595238Y-74700001D01*
X69690476Y-74795239D01*
X69738095Y-74890477D01*
X70452381Y-73842858D02*
X70452381Y-73652382D01*
X70404762Y-73557143D01*
X70357143Y-73509524D01*
X70214286Y-73414286D01*
X70023810Y-73366667D01*
X69642857Y-73366667D01*
X69547619Y-73414286D01*
X69500000Y-73461905D01*
X69452381Y-73557143D01*
X69452381Y-73747620D01*
X69500000Y-73842858D01*
X69547619Y-73890477D01*
X69642857Y-73938096D01*
X69880952Y-73938096D01*
X69976190Y-73890477D01*
X70023810Y-73842858D01*
X70071429Y-73747620D01*
X70071429Y-73557143D01*
X70023810Y-73461905D01*
X69976190Y-73414286D01*
X69880952Y-73366667D01*
X69928571Y-72604762D02*
X69928571Y-72938096D01*
X70452381Y-72938096D02*
X69452381Y-72938096D01*
X69452381Y-72461905D01*
X70452381Y-71509524D02*
X69976190Y-71842858D01*
X70452381Y-72080953D02*
X69452381Y-72080953D01*
X69452381Y-71700000D01*
X69500000Y-71604762D01*
X69547619Y-71557143D01*
X69642857Y-71509524D01*
X69785714Y-71509524D01*
X69880952Y-71557143D01*
X69928571Y-71604762D01*
X69976190Y-71700000D01*
X69976190Y-72080953D01*
X70404762Y-70700000D02*
X70452381Y-70795238D01*
X70452381Y-70985715D01*
X70404762Y-71080953D01*
X70309524Y-71128572D01*
X69928571Y-71128572D01*
X69833333Y-71080953D01*
X69785714Y-70985715D01*
X69785714Y-70795238D01*
X69833333Y-70700000D01*
X69928571Y-70652381D01*
X70023810Y-70652381D01*
X70119048Y-71128572D01*
X70452381Y-70080953D02*
X70404762Y-70176191D01*
X70309524Y-70223810D01*
X69452381Y-70223810D01*
X70452381Y-69271428D02*
X69928571Y-69271428D01*
X69833333Y-69319047D01*
X69785714Y-69414285D01*
X69785714Y-69604762D01*
X69833333Y-69700000D01*
X70404762Y-69271428D02*
X70452381Y-69366666D01*
X70452381Y-69604762D01*
X70404762Y-69700000D01*
X70309524Y-69747619D01*
X70214286Y-69747619D01*
X70119048Y-69700000D01*
X70071429Y-69604762D01*
X70071429Y-69366666D01*
X70023810Y-69271428D01*
X69785714Y-68890476D02*
X70452381Y-68652381D01*
X69785714Y-68414285D02*
X70452381Y-68652381D01*
X70690476Y-68747619D01*
X70738095Y-68795238D01*
X70785714Y-68890476D01*
X82200000Y-81252381D02*
X81866666Y-80776190D01*
X81628571Y-81252381D02*
X81628571Y-80252381D01*
X82009524Y-80252381D01*
X82104762Y-80300000D01*
X82152381Y-80347619D01*
X82200000Y-80442857D01*
X82200000Y-80585714D01*
X82152381Y-80680952D01*
X82104762Y-80728571D01*
X82009524Y-80776190D01*
X81628571Y-80776190D01*
X83104762Y-81252381D02*
X82628571Y-81252381D01*
X82628571Y-80252381D01*
X83628571Y-80776190D02*
X83628571Y-81252381D01*
X83295238Y-80252381D02*
X83628571Y-80776190D01*
X83961905Y-80252381D01*
X84723810Y-80252381D02*
X84533333Y-80252381D01*
X84438095Y-80300000D01*
X84390476Y-80347619D01*
X84295238Y-80490476D01*
X84247619Y-80680952D01*
X84247619Y-81061905D01*
X84295238Y-81157143D01*
X84342857Y-81204762D01*
X84438095Y-81252381D01*
X84628572Y-81252381D01*
X84723810Y-81204762D01*
X84771429Y-81157143D01*
X84819048Y-81061905D01*
X84819048Y-80823810D01*
X84771429Y-80728571D01*
X84723810Y-80680952D01*
X84628572Y-80633333D01*
X84438095Y-80633333D01*
X84342857Y-80680952D01*
X84295238Y-80728571D01*
X84247619Y-80823810D01*
X83652381Y-76990477D02*
X82652381Y-76990477D01*
X83128571Y-76990477D02*
X83128571Y-76419048D01*
X83652381Y-76419048D02*
X82652381Y-76419048D01*
X83652381Y-75942858D02*
X82652381Y-75942858D01*
X83652381Y-75371429D02*
X83080952Y-75800001D01*
X82652381Y-75371429D02*
X83223810Y-75942858D01*
X83652381Y-74419048D02*
X83652381Y-74990477D01*
X83652381Y-74704763D02*
X82652381Y-74704763D01*
X82795238Y-74800001D01*
X82890476Y-74895239D01*
X82938095Y-74990477D01*
X83652381Y-73942858D02*
X83652381Y-73752382D01*
X83604762Y-73657143D01*
X83557143Y-73609524D01*
X83414286Y-73514286D01*
X83223810Y-73466667D01*
X82842857Y-73466667D01*
X82747619Y-73514286D01*
X82700000Y-73561905D01*
X82652381Y-73657143D01*
X82652381Y-73847620D01*
X82700000Y-73942858D01*
X82747619Y-73990477D01*
X82842857Y-74038096D01*
X83080952Y-74038096D01*
X83176190Y-73990477D01*
X83223810Y-73942858D01*
X83271429Y-73847620D01*
X83271429Y-73657143D01*
X83223810Y-73561905D01*
X83176190Y-73514286D01*
X83080952Y-73466667D01*
X83128571Y-72704762D02*
X83128571Y-73038096D01*
X83652381Y-73038096D02*
X82652381Y-73038096D01*
X82652381Y-72561905D01*
X83652381Y-71609524D02*
X83176190Y-71942858D01*
X83652381Y-72180953D02*
X82652381Y-72180953D01*
X82652381Y-71800000D01*
X82700000Y-71704762D01*
X82747619Y-71657143D01*
X82842857Y-71609524D01*
X82985714Y-71609524D01*
X83080952Y-71657143D01*
X83128571Y-71704762D01*
X83176190Y-71800000D01*
X83176190Y-72180953D01*
X83604762Y-70800000D02*
X83652381Y-70895238D01*
X83652381Y-71085715D01*
X83604762Y-71180953D01*
X83509524Y-71228572D01*
X83128571Y-71228572D01*
X83033333Y-71180953D01*
X82985714Y-71085715D01*
X82985714Y-70895238D01*
X83033333Y-70800000D01*
X83128571Y-70752381D01*
X83223810Y-70752381D01*
X83319048Y-71228572D01*
X83652381Y-70180953D02*
X83604762Y-70276191D01*
X83509524Y-70323810D01*
X82652381Y-70323810D01*
X83652381Y-69371428D02*
X83128571Y-69371428D01*
X83033333Y-69419047D01*
X82985714Y-69514285D01*
X82985714Y-69704762D01*
X83033333Y-69800000D01*
X83604762Y-69371428D02*
X83652381Y-69466666D01*
X83652381Y-69704762D01*
X83604762Y-69800000D01*
X83509524Y-69847619D01*
X83414286Y-69847619D01*
X83319048Y-69800000D01*
X83271429Y-69704762D01*
X83271429Y-69466666D01*
X83223810Y-69371428D01*
X82985714Y-68990476D02*
X83652381Y-68752381D01*
X82985714Y-68514285D02*
X83652381Y-68752381D01*
X83890476Y-68847619D01*
X83938095Y-68895238D01*
X83985714Y-68990476D01*
X95570800Y-81069981D02*
X95237466Y-80593790D01*
X94999371Y-81069981D02*
X94999371Y-80069981D01*
X95380324Y-80069981D01*
X95475562Y-80117600D01*
X95523181Y-80165219D01*
X95570800Y-80260457D01*
X95570800Y-80403314D01*
X95523181Y-80498552D01*
X95475562Y-80546171D01*
X95380324Y-80593790D01*
X94999371Y-80593790D01*
X96475562Y-81069981D02*
X95999371Y-81069981D01*
X95999371Y-80069981D01*
X96999371Y-80593790D02*
X96999371Y-81069981D01*
X96666038Y-80069981D02*
X96999371Y-80593790D01*
X97332705Y-80069981D01*
X97570800Y-80069981D02*
X98237467Y-80069981D01*
X97808895Y-81069981D01*
X97023181Y-76808077D02*
X96023181Y-76808077D01*
X96499371Y-76808077D02*
X96499371Y-76236648D01*
X97023181Y-76236648D02*
X96023181Y-76236648D01*
X97023181Y-75760458D02*
X96023181Y-75760458D01*
X97023181Y-75189029D02*
X96451752Y-75617601D01*
X96023181Y-75189029D02*
X96594610Y-75760458D01*
X97023181Y-74236648D02*
X97023181Y-74808077D01*
X97023181Y-74522363D02*
X96023181Y-74522363D01*
X96166038Y-74617601D01*
X96261276Y-74712839D01*
X96308895Y-74808077D01*
X97023181Y-73760458D02*
X97023181Y-73569982D01*
X96975562Y-73474743D01*
X96927943Y-73427124D01*
X96785086Y-73331886D01*
X96594610Y-73284267D01*
X96213657Y-73284267D01*
X96118419Y-73331886D01*
X96070800Y-73379505D01*
X96023181Y-73474743D01*
X96023181Y-73665220D01*
X96070800Y-73760458D01*
X96118419Y-73808077D01*
X96213657Y-73855696D01*
X96451752Y-73855696D01*
X96546990Y-73808077D01*
X96594610Y-73760458D01*
X96642229Y-73665220D01*
X96642229Y-73474743D01*
X96594610Y-73379505D01*
X96546990Y-73331886D01*
X96451752Y-73284267D01*
X96499371Y-72522362D02*
X96499371Y-72855696D01*
X97023181Y-72855696D02*
X96023181Y-72855696D01*
X96023181Y-72379505D01*
X97023181Y-71427124D02*
X96546990Y-71760458D01*
X97023181Y-71998553D02*
X96023181Y-71998553D01*
X96023181Y-71617600D01*
X96070800Y-71522362D01*
X96118419Y-71474743D01*
X96213657Y-71427124D01*
X96356514Y-71427124D01*
X96451752Y-71474743D01*
X96499371Y-71522362D01*
X96546990Y-71617600D01*
X96546990Y-71998553D01*
X96975562Y-70617600D02*
X97023181Y-70712838D01*
X97023181Y-70903315D01*
X96975562Y-70998553D01*
X96880324Y-71046172D01*
X96499371Y-71046172D01*
X96404133Y-70998553D01*
X96356514Y-70903315D01*
X96356514Y-70712838D01*
X96404133Y-70617600D01*
X96499371Y-70569981D01*
X96594610Y-70569981D01*
X96689848Y-71046172D01*
X97023181Y-69998553D02*
X96975562Y-70093791D01*
X96880324Y-70141410D01*
X96023181Y-70141410D01*
X97023181Y-69189028D02*
X96499371Y-69189028D01*
X96404133Y-69236647D01*
X96356514Y-69331885D01*
X96356514Y-69522362D01*
X96404133Y-69617600D01*
X96975562Y-69189028D02*
X97023181Y-69284266D01*
X97023181Y-69522362D01*
X96975562Y-69617600D01*
X96880324Y-69665219D01*
X96785086Y-69665219D01*
X96689848Y-69617600D01*
X96642229Y-69522362D01*
X96642229Y-69284266D01*
X96594610Y-69189028D01*
X96356514Y-68808076D02*
X97023181Y-68569981D01*
X96356514Y-68331885D02*
X97023181Y-68569981D01*
X97261276Y-68665219D01*
X97308895Y-68712838D01*
X97356514Y-68808076D01*
X108900000Y-81052381D02*
X108566666Y-80576190D01*
X108328571Y-81052381D02*
X108328571Y-80052381D01*
X108709524Y-80052381D01*
X108804762Y-80100000D01*
X108852381Y-80147619D01*
X108900000Y-80242857D01*
X108900000Y-80385714D01*
X108852381Y-80480952D01*
X108804762Y-80528571D01*
X108709524Y-80576190D01*
X108328571Y-80576190D01*
X109804762Y-81052381D02*
X109328571Y-81052381D01*
X109328571Y-80052381D01*
X110328571Y-80576190D02*
X110328571Y-81052381D01*
X109995238Y-80052381D02*
X110328571Y-80576190D01*
X110661905Y-80052381D01*
X111138095Y-80480952D02*
X111042857Y-80433333D01*
X110995238Y-80385714D01*
X110947619Y-80290476D01*
X110947619Y-80242857D01*
X110995238Y-80147619D01*
X111042857Y-80100000D01*
X111138095Y-80052381D01*
X111328572Y-80052381D01*
X111423810Y-80100000D01*
X111471429Y-80147619D01*
X111519048Y-80242857D01*
X111519048Y-80290476D01*
X111471429Y-80385714D01*
X111423810Y-80433333D01*
X111328572Y-80480952D01*
X111138095Y-80480952D01*
X111042857Y-80528571D01*
X110995238Y-80576190D01*
X110947619Y-80671429D01*
X110947619Y-80861905D01*
X110995238Y-80957143D01*
X111042857Y-81004762D01*
X111138095Y-81052381D01*
X111328572Y-81052381D01*
X111423810Y-81004762D01*
X111471429Y-80957143D01*
X111519048Y-80861905D01*
X111519048Y-80671429D01*
X111471429Y-80576190D01*
X111423810Y-80528571D01*
X111328572Y-80480952D01*
X110352381Y-76790477D02*
X109352381Y-76790477D01*
X109828571Y-76790477D02*
X109828571Y-76219048D01*
X110352381Y-76219048D02*
X109352381Y-76219048D01*
X110352381Y-75742858D02*
X109352381Y-75742858D01*
X110352381Y-75171429D02*
X109780952Y-75600001D01*
X109352381Y-75171429D02*
X109923810Y-75742858D01*
X110352381Y-74219048D02*
X110352381Y-74790477D01*
X110352381Y-74504763D02*
X109352381Y-74504763D01*
X109495238Y-74600001D01*
X109590476Y-74695239D01*
X109638095Y-74790477D01*
X110352381Y-73742858D02*
X110352381Y-73552382D01*
X110304762Y-73457143D01*
X110257143Y-73409524D01*
X110114286Y-73314286D01*
X109923810Y-73266667D01*
X109542857Y-73266667D01*
X109447619Y-73314286D01*
X109400000Y-73361905D01*
X109352381Y-73457143D01*
X109352381Y-73647620D01*
X109400000Y-73742858D01*
X109447619Y-73790477D01*
X109542857Y-73838096D01*
X109780952Y-73838096D01*
X109876190Y-73790477D01*
X109923810Y-73742858D01*
X109971429Y-73647620D01*
X109971429Y-73457143D01*
X109923810Y-73361905D01*
X109876190Y-73314286D01*
X109780952Y-73266667D01*
X109828571Y-72504762D02*
X109828571Y-72838096D01*
X110352381Y-72838096D02*
X109352381Y-72838096D01*
X109352381Y-72361905D01*
X110352381Y-71409524D02*
X109876190Y-71742858D01*
X110352381Y-71980953D02*
X109352381Y-71980953D01*
X109352381Y-71600000D01*
X109400000Y-71504762D01*
X109447619Y-71457143D01*
X109542857Y-71409524D01*
X109685714Y-71409524D01*
X109780952Y-71457143D01*
X109828571Y-71504762D01*
X109876190Y-71600000D01*
X109876190Y-71980953D01*
X110304762Y-70600000D02*
X110352381Y-70695238D01*
X110352381Y-70885715D01*
X110304762Y-70980953D01*
X110209524Y-71028572D01*
X109828571Y-71028572D01*
X109733333Y-70980953D01*
X109685714Y-70885715D01*
X109685714Y-70695238D01*
X109733333Y-70600000D01*
X109828571Y-70552381D01*
X109923810Y-70552381D01*
X110019048Y-71028572D01*
X110352381Y-69980953D02*
X110304762Y-70076191D01*
X110209524Y-70123810D01*
X109352381Y-70123810D01*
X110352381Y-69171428D02*
X109828571Y-69171428D01*
X109733333Y-69219047D01*
X109685714Y-69314285D01*
X109685714Y-69504762D01*
X109733333Y-69600000D01*
X110304762Y-69171428D02*
X110352381Y-69266666D01*
X110352381Y-69504762D01*
X110304762Y-69600000D01*
X110209524Y-69647619D01*
X110114286Y-69647619D01*
X110019048Y-69600000D01*
X109971429Y-69504762D01*
X109971429Y-69266666D01*
X109923810Y-69171428D01*
X109685714Y-68790476D02*
X110352381Y-68552381D01*
X109685714Y-68314285D02*
X110352381Y-68552381D01*
X110590476Y-68647619D01*
X110638095Y-68695238D01*
X110685714Y-68790476D01*
X122000000Y-81252381D02*
X121666666Y-80776190D01*
X121428571Y-81252381D02*
X121428571Y-80252381D01*
X121809524Y-80252381D01*
X121904762Y-80300000D01*
X121952381Y-80347619D01*
X122000000Y-80442857D01*
X122000000Y-80585714D01*
X121952381Y-80680952D01*
X121904762Y-80728571D01*
X121809524Y-80776190D01*
X121428571Y-80776190D01*
X122904762Y-81252381D02*
X122428571Y-81252381D01*
X122428571Y-80252381D01*
X123428571Y-80776190D02*
X123428571Y-81252381D01*
X123095238Y-80252381D02*
X123428571Y-80776190D01*
X123761905Y-80252381D01*
X124142857Y-81252381D02*
X124333333Y-81252381D01*
X124428572Y-81204762D01*
X124476191Y-81157143D01*
X124571429Y-81014286D01*
X124619048Y-80823810D01*
X124619048Y-80442857D01*
X124571429Y-80347619D01*
X124523810Y-80300000D01*
X124428572Y-80252381D01*
X124238095Y-80252381D01*
X124142857Y-80300000D01*
X124095238Y-80347619D01*
X124047619Y-80442857D01*
X124047619Y-80680952D01*
X124095238Y-80776190D01*
X124142857Y-80823810D01*
X124238095Y-80871429D01*
X124428572Y-80871429D01*
X124523810Y-80823810D01*
X124571429Y-80776190D01*
X124619048Y-80680952D01*
X123452381Y-76990477D02*
X122452381Y-76990477D01*
X122928571Y-76990477D02*
X122928571Y-76419048D01*
X123452381Y-76419048D02*
X122452381Y-76419048D01*
X123452381Y-75942858D02*
X122452381Y-75942858D01*
X123452381Y-75371429D02*
X122880952Y-75800001D01*
X122452381Y-75371429D02*
X123023810Y-75942858D01*
X123452381Y-74419048D02*
X123452381Y-74990477D01*
X123452381Y-74704763D02*
X122452381Y-74704763D01*
X122595238Y-74800001D01*
X122690476Y-74895239D01*
X122738095Y-74990477D01*
X123452381Y-73942858D02*
X123452381Y-73752382D01*
X123404762Y-73657143D01*
X123357143Y-73609524D01*
X123214286Y-73514286D01*
X123023810Y-73466667D01*
X122642857Y-73466667D01*
X122547619Y-73514286D01*
X122500000Y-73561905D01*
X122452381Y-73657143D01*
X122452381Y-73847620D01*
X122500000Y-73942858D01*
X122547619Y-73990477D01*
X122642857Y-74038096D01*
X122880952Y-74038096D01*
X122976190Y-73990477D01*
X123023810Y-73942858D01*
X123071429Y-73847620D01*
X123071429Y-73657143D01*
X123023810Y-73561905D01*
X122976190Y-73514286D01*
X122880952Y-73466667D01*
X122928571Y-72704762D02*
X122928571Y-73038096D01*
X123452381Y-73038096D02*
X122452381Y-73038096D01*
X122452381Y-72561905D01*
X123452381Y-71609524D02*
X122976190Y-71942858D01*
X123452381Y-72180953D02*
X122452381Y-72180953D01*
X122452381Y-71800000D01*
X122500000Y-71704762D01*
X122547619Y-71657143D01*
X122642857Y-71609524D01*
X122785714Y-71609524D01*
X122880952Y-71657143D01*
X122928571Y-71704762D01*
X122976190Y-71800000D01*
X122976190Y-72180953D01*
X123404762Y-70800000D02*
X123452381Y-70895238D01*
X123452381Y-71085715D01*
X123404762Y-71180953D01*
X123309524Y-71228572D01*
X122928571Y-71228572D01*
X122833333Y-71180953D01*
X122785714Y-71085715D01*
X122785714Y-70895238D01*
X122833333Y-70800000D01*
X122928571Y-70752381D01*
X123023810Y-70752381D01*
X123119048Y-71228572D01*
X123452381Y-70180953D02*
X123404762Y-70276191D01*
X123309524Y-70323810D01*
X122452381Y-70323810D01*
X123452381Y-69371428D02*
X122928571Y-69371428D01*
X122833333Y-69419047D01*
X122785714Y-69514285D01*
X122785714Y-69704762D01*
X122833333Y-69800000D01*
X123404762Y-69371428D02*
X123452381Y-69466666D01*
X123452381Y-69704762D01*
X123404762Y-69800000D01*
X123309524Y-69847619D01*
X123214286Y-69847619D01*
X123119048Y-69800000D01*
X123071429Y-69704762D01*
X123071429Y-69466666D01*
X123023810Y-69371428D01*
X122785714Y-68990476D02*
X123452381Y-68752381D01*
X122785714Y-68514285D02*
X123452381Y-68752381D01*
X123690476Y-68847619D01*
X123738095Y-68895238D01*
X123785714Y-68990476D01*
X134823810Y-81052381D02*
X134490476Y-80576190D01*
X134252381Y-81052381D02*
X134252381Y-80052381D01*
X134633334Y-80052381D01*
X134728572Y-80100000D01*
X134776191Y-80147619D01*
X134823810Y-80242857D01*
X134823810Y-80385714D01*
X134776191Y-80480952D01*
X134728572Y-80528571D01*
X134633334Y-80576190D01*
X134252381Y-80576190D01*
X135728572Y-81052381D02*
X135252381Y-81052381D01*
X135252381Y-80052381D01*
X136252381Y-80576190D02*
X136252381Y-81052381D01*
X135919048Y-80052381D02*
X136252381Y-80576190D01*
X136585715Y-80052381D01*
X137442858Y-81052381D02*
X136871429Y-81052381D01*
X137157143Y-81052381D02*
X137157143Y-80052381D01*
X137061905Y-80195238D01*
X136966667Y-80290476D01*
X136871429Y-80338095D01*
X138061905Y-80052381D02*
X138157144Y-80052381D01*
X138252382Y-80100000D01*
X138300001Y-80147619D01*
X138347620Y-80242857D01*
X138395239Y-80433333D01*
X138395239Y-80671429D01*
X138347620Y-80861905D01*
X138300001Y-80957143D01*
X138252382Y-81004762D01*
X138157144Y-81052381D01*
X138061905Y-81052381D01*
X137966667Y-81004762D01*
X137919048Y-80957143D01*
X137871429Y-80861905D01*
X137823810Y-80671429D01*
X137823810Y-80433333D01*
X137871429Y-80242857D01*
X137919048Y-80147619D01*
X137966667Y-80100000D01*
X138061905Y-80052381D01*
X136752381Y-76790477D02*
X135752381Y-76790477D01*
X136228571Y-76790477D02*
X136228571Y-76219048D01*
X136752381Y-76219048D02*
X135752381Y-76219048D01*
X136752381Y-75742858D02*
X135752381Y-75742858D01*
X136752381Y-75171429D02*
X136180952Y-75600001D01*
X135752381Y-75171429D02*
X136323810Y-75742858D01*
X136752381Y-74219048D02*
X136752381Y-74790477D01*
X136752381Y-74504763D02*
X135752381Y-74504763D01*
X135895238Y-74600001D01*
X135990476Y-74695239D01*
X136038095Y-74790477D01*
X136752381Y-73742858D02*
X136752381Y-73552382D01*
X136704762Y-73457143D01*
X136657143Y-73409524D01*
X136514286Y-73314286D01*
X136323810Y-73266667D01*
X135942857Y-73266667D01*
X135847619Y-73314286D01*
X135800000Y-73361905D01*
X135752381Y-73457143D01*
X135752381Y-73647620D01*
X135800000Y-73742858D01*
X135847619Y-73790477D01*
X135942857Y-73838096D01*
X136180952Y-73838096D01*
X136276190Y-73790477D01*
X136323810Y-73742858D01*
X136371429Y-73647620D01*
X136371429Y-73457143D01*
X136323810Y-73361905D01*
X136276190Y-73314286D01*
X136180952Y-73266667D01*
X136228571Y-72504762D02*
X136228571Y-72838096D01*
X136752381Y-72838096D02*
X135752381Y-72838096D01*
X135752381Y-72361905D01*
X136752381Y-71409524D02*
X136276190Y-71742858D01*
X136752381Y-71980953D02*
X135752381Y-71980953D01*
X135752381Y-71600000D01*
X135800000Y-71504762D01*
X135847619Y-71457143D01*
X135942857Y-71409524D01*
X136085714Y-71409524D01*
X136180952Y-71457143D01*
X136228571Y-71504762D01*
X136276190Y-71600000D01*
X136276190Y-71980953D01*
X136704762Y-70600000D02*
X136752381Y-70695238D01*
X136752381Y-70885715D01*
X136704762Y-70980953D01*
X136609524Y-71028572D01*
X136228571Y-71028572D01*
X136133333Y-70980953D01*
X136085714Y-70885715D01*
X136085714Y-70695238D01*
X136133333Y-70600000D01*
X136228571Y-70552381D01*
X136323810Y-70552381D01*
X136419048Y-71028572D01*
X136752381Y-69980953D02*
X136704762Y-70076191D01*
X136609524Y-70123810D01*
X135752381Y-70123810D01*
X136752381Y-69171428D02*
X136228571Y-69171428D01*
X136133333Y-69219047D01*
X136085714Y-69314285D01*
X136085714Y-69504762D01*
X136133333Y-69600000D01*
X136704762Y-69171428D02*
X136752381Y-69266666D01*
X136752381Y-69504762D01*
X136704762Y-69600000D01*
X136609524Y-69647619D01*
X136514286Y-69647619D01*
X136419048Y-69600000D01*
X136371429Y-69504762D01*
X136371429Y-69266666D01*
X136323810Y-69171428D01*
X136085714Y-68790476D02*
X136752381Y-68552381D01*
X136085714Y-68314285D02*
X136752381Y-68552381D01*
X136990476Y-68647619D01*
X137038095Y-68695238D01*
X137085714Y-68790476D01*
X121967810Y-119516881D02*
X121634476Y-119040690D01*
X121396381Y-119516881D02*
X121396381Y-118516881D01*
X121777334Y-118516881D01*
X121872572Y-118564500D01*
X121920191Y-118612119D01*
X121967810Y-118707357D01*
X121967810Y-118850214D01*
X121920191Y-118945452D01*
X121872572Y-118993071D01*
X121777334Y-119040690D01*
X121396381Y-119040690D01*
X122872572Y-119516881D02*
X122396381Y-119516881D01*
X122396381Y-118516881D01*
X123396381Y-119040690D02*
X123396381Y-119516881D01*
X123063048Y-118516881D02*
X123396381Y-119040690D01*
X123729715Y-118516881D01*
X124586858Y-119516881D02*
X124015429Y-119516881D01*
X124301143Y-119516881D02*
X124301143Y-118516881D01*
X124205905Y-118659738D01*
X124110667Y-118754976D01*
X124015429Y-118802595D01*
X125539239Y-119516881D02*
X124967810Y-119516881D01*
X125253524Y-119516881D02*
X125253524Y-118516881D01*
X125158286Y-118659738D01*
X125063048Y-118754976D01*
X124967810Y-118802595D01*
X123896381Y-131254977D02*
X122896381Y-131254977D01*
X123372571Y-131254977D02*
X123372571Y-130683548D01*
X123896381Y-130683548D02*
X122896381Y-130683548D01*
X123896381Y-130207358D02*
X122896381Y-130207358D01*
X123896381Y-129635929D02*
X123324952Y-130064501D01*
X122896381Y-129635929D02*
X123467810Y-130207358D01*
X123896381Y-128683548D02*
X123896381Y-129254977D01*
X123896381Y-128969263D02*
X122896381Y-128969263D01*
X123039238Y-129064501D01*
X123134476Y-129159739D01*
X123182095Y-129254977D01*
X123896381Y-128207358D02*
X123896381Y-128016882D01*
X123848762Y-127921643D01*
X123801143Y-127874024D01*
X123658286Y-127778786D01*
X123467810Y-127731167D01*
X123086857Y-127731167D01*
X122991619Y-127778786D01*
X122944000Y-127826405D01*
X122896381Y-127921643D01*
X122896381Y-128112120D01*
X122944000Y-128207358D01*
X122991619Y-128254977D01*
X123086857Y-128302596D01*
X123324952Y-128302596D01*
X123420190Y-128254977D01*
X123467810Y-128207358D01*
X123515429Y-128112120D01*
X123515429Y-127921643D01*
X123467810Y-127826405D01*
X123420190Y-127778786D01*
X123324952Y-127731167D01*
X123372571Y-126969262D02*
X123372571Y-127302596D01*
X123896381Y-127302596D02*
X122896381Y-127302596D01*
X122896381Y-126826405D01*
X123896381Y-125874024D02*
X123420190Y-126207358D01*
X123896381Y-126445453D02*
X122896381Y-126445453D01*
X122896381Y-126064500D01*
X122944000Y-125969262D01*
X122991619Y-125921643D01*
X123086857Y-125874024D01*
X123229714Y-125874024D01*
X123324952Y-125921643D01*
X123372571Y-125969262D01*
X123420190Y-126064500D01*
X123420190Y-126445453D01*
X123848762Y-125064500D02*
X123896381Y-125159738D01*
X123896381Y-125350215D01*
X123848762Y-125445453D01*
X123753524Y-125493072D01*
X123372571Y-125493072D01*
X123277333Y-125445453D01*
X123229714Y-125350215D01*
X123229714Y-125159738D01*
X123277333Y-125064500D01*
X123372571Y-125016881D01*
X123467810Y-125016881D01*
X123563048Y-125493072D01*
X123896381Y-124445453D02*
X123848762Y-124540691D01*
X123753524Y-124588310D01*
X122896381Y-124588310D01*
X123896381Y-123635928D02*
X123372571Y-123635928D01*
X123277333Y-123683547D01*
X123229714Y-123778785D01*
X123229714Y-123969262D01*
X123277333Y-124064500D01*
X123848762Y-123635928D02*
X123896381Y-123731166D01*
X123896381Y-123969262D01*
X123848762Y-124064500D01*
X123753524Y-124112119D01*
X123658286Y-124112119D01*
X123563048Y-124064500D01*
X123515429Y-123969262D01*
X123515429Y-123731166D01*
X123467810Y-123635928D01*
X123229714Y-123254976D02*
X123896381Y-123016881D01*
X123229714Y-122778785D02*
X123896381Y-123016881D01*
X124134476Y-123112119D01*
X124182095Y-123159738D01*
X124229714Y-123254976D01*
X135223810Y-119552381D02*
X134890476Y-119076190D01*
X134652381Y-119552381D02*
X134652381Y-118552381D01*
X135033334Y-118552381D01*
X135128572Y-118600000D01*
X135176191Y-118647619D01*
X135223810Y-118742857D01*
X135223810Y-118885714D01*
X135176191Y-118980952D01*
X135128572Y-119028571D01*
X135033334Y-119076190D01*
X134652381Y-119076190D01*
X136128572Y-119552381D02*
X135652381Y-119552381D01*
X135652381Y-118552381D01*
X136652381Y-119076190D02*
X136652381Y-119552381D01*
X136319048Y-118552381D02*
X136652381Y-119076190D01*
X136985715Y-118552381D01*
X137842858Y-119552381D02*
X137271429Y-119552381D01*
X137557143Y-119552381D02*
X137557143Y-118552381D01*
X137461905Y-118695238D01*
X137366667Y-118790476D01*
X137271429Y-118838095D01*
X138223810Y-118647619D02*
X138271429Y-118600000D01*
X138366667Y-118552381D01*
X138604763Y-118552381D01*
X138700001Y-118600000D01*
X138747620Y-118647619D01*
X138795239Y-118742857D01*
X138795239Y-118838095D01*
X138747620Y-118980952D01*
X138176191Y-119552381D01*
X138795239Y-119552381D01*
X137152381Y-131290477D02*
X136152381Y-131290477D01*
X136628571Y-131290477D02*
X136628571Y-130719048D01*
X137152381Y-130719048D02*
X136152381Y-130719048D01*
X137152381Y-130242858D02*
X136152381Y-130242858D01*
X137152381Y-129671429D02*
X136580952Y-130100001D01*
X136152381Y-129671429D02*
X136723810Y-130242858D01*
X137152381Y-128719048D02*
X137152381Y-129290477D01*
X137152381Y-129004763D02*
X136152381Y-129004763D01*
X136295238Y-129100001D01*
X136390476Y-129195239D01*
X136438095Y-129290477D01*
X137152381Y-128242858D02*
X137152381Y-128052382D01*
X137104762Y-127957143D01*
X137057143Y-127909524D01*
X136914286Y-127814286D01*
X136723810Y-127766667D01*
X136342857Y-127766667D01*
X136247619Y-127814286D01*
X136200000Y-127861905D01*
X136152381Y-127957143D01*
X136152381Y-128147620D01*
X136200000Y-128242858D01*
X136247619Y-128290477D01*
X136342857Y-128338096D01*
X136580952Y-128338096D01*
X136676190Y-128290477D01*
X136723810Y-128242858D01*
X136771429Y-128147620D01*
X136771429Y-127957143D01*
X136723810Y-127861905D01*
X136676190Y-127814286D01*
X136580952Y-127766667D01*
X136628571Y-127004762D02*
X136628571Y-127338096D01*
X137152381Y-127338096D02*
X136152381Y-127338096D01*
X136152381Y-126861905D01*
X137152381Y-125909524D02*
X136676190Y-126242858D01*
X137152381Y-126480953D02*
X136152381Y-126480953D01*
X136152381Y-126100000D01*
X136200000Y-126004762D01*
X136247619Y-125957143D01*
X136342857Y-125909524D01*
X136485714Y-125909524D01*
X136580952Y-125957143D01*
X136628571Y-126004762D01*
X136676190Y-126100000D01*
X136676190Y-126480953D01*
X137104762Y-125100000D02*
X137152381Y-125195238D01*
X137152381Y-125385715D01*
X137104762Y-125480953D01*
X137009524Y-125528572D01*
X136628571Y-125528572D01*
X136533333Y-125480953D01*
X136485714Y-125385715D01*
X136485714Y-125195238D01*
X136533333Y-125100000D01*
X136628571Y-125052381D01*
X136723810Y-125052381D01*
X136819048Y-125528572D01*
X137152381Y-124480953D02*
X137104762Y-124576191D01*
X137009524Y-124623810D01*
X136152381Y-124623810D01*
X137152381Y-123671428D02*
X136628571Y-123671428D01*
X136533333Y-123719047D01*
X136485714Y-123814285D01*
X136485714Y-124004762D01*
X136533333Y-124100000D01*
X137104762Y-123671428D02*
X137152381Y-123766666D01*
X137152381Y-124004762D01*
X137104762Y-124100000D01*
X137009524Y-124147619D01*
X136914286Y-124147619D01*
X136819048Y-124100000D01*
X136771429Y-124004762D01*
X136771429Y-123766666D01*
X136723810Y-123671428D01*
X136485714Y-123290476D02*
X137152381Y-123052381D01*
X136485714Y-122814285D02*
X137152381Y-123052381D01*
X137390476Y-123147619D01*
X137438095Y-123195238D01*
X137485714Y-123290476D01*
M02*
