M48
;DRILL file {KiCad 4.0.7} date 03/16/19 09:25:39
;FORMAT={-:-/ absolute / metric / decimal}
FMAT,2
METRIC,TZ
T1C0.400
T2C0.500
T3C0.600
T4C0.762
T5C0.800
T6C0.810
T7C0.900
T8C1.000
T9C1.100
T10C1.200
T11C1.500
T12C1.520
T13C2.300
T14C3.048
%
G90
G05
M71
T1
X58.4Y-89.428
X58.887Y-87.295
X59.182Y-37.655
X63.055Y-62.293
X63.691Y-63.627
X64.105Y-50.945
X64.821Y-41.3
X64.823Y-51.493
X67.361Y-57.099
X68.199Y-53.975
X68.516Y-42.862
X68.529Y-54.762
X68.58Y-58.483
X69.025Y-52.07
X69.215Y-50.101
X69.342Y-44.196
X69.659Y-48.895
X69.698Y-41.554
X70.333Y-52.852
X70.675Y-43.752
X70.675Y-47.561
X71.12Y-68.936
X71.425Y-54.61
X71.628Y-78.384
X72.263Y-56.197
X72.517Y-50.482
X72.517Y-54.292
X72.707Y-62.928
X73.279Y-61.658
X73.66Y-89.052
X73.85Y-60.325
X74.295Y-58.991
X74.739Y-51.689
X74.739Y-57.594
X77.729Y-32.273
X78.435Y-42.103
X98.234Y-104.267
X99.009Y-106.502
X113.538Y-70.602
X114.91Y-70.526
X134.168Y-101.422
X135.001Y-100.203
X144.335Y-71.374
T2
X71.882Y-48.768
X73.782Y-48.768
T3
X107.01Y-114.389
X108.28Y-115.659
X109.55Y-114.389
X110.439Y-87.96
X110.49Y-93.447
X110.668Y-98.806
X111.709Y-86.69
X111.709Y-89.23
X111.76Y-92.177
X111.76Y-94.717
X111.938Y-97.536
X111.938Y-100.076
X135.89Y-123.952
X137.16Y-122.682
X137.16Y-125.222
T4
X117.348Y-77.47
X117.348Y-80.01
X117.348Y-82.55
X117.348Y-85.09
X117.348Y-87.63
X117.348Y-90.17
X117.348Y-92.71
X117.348Y-95.25
X117.348Y-97.79
X117.348Y-100.33
X117.348Y-102.87
X117.348Y-105.41
X117.348Y-107.95
X117.348Y-110.49
X117.348Y-113.03
X117.348Y-115.57
X117.348Y-118.11
X117.348Y-120.65
X117.348Y-123.19
X117.348Y-125.73
X132.588Y-77.47
X132.588Y-80.01
X132.588Y-82.55
X132.588Y-85.09
X132.588Y-87.63
X132.588Y-90.17
X132.588Y-92.71
X132.588Y-95.25
X132.588Y-97.79
X132.588Y-100.33
X132.588Y-102.87
X132.588Y-105.41
X132.588Y-107.95
X132.588Y-110.49
X132.588Y-113.03
X132.588Y-115.57
X132.588Y-118.11
X132.588Y-120.65
X132.588Y-123.19
X132.588Y-125.73
T5
X58.064Y-95.062
X58.064Y-102.682
X58.141Y-85.232
X58.141Y-92.852
X61.153Y-93.497
X63.653Y-93.497
X64.516Y-45.466
X64.516Y-47.966
X64.709Y-80.076
X64.709Y-82.576
X64.732Y-74.386
X64.732Y-76.886
X64.77Y-36.83
X66.621Y-41.021
X66.865Y-62.166
X67.27Y-36.83
X67.627Y-45.466
X67.627Y-47.966
X69.365Y-62.166
X70.485Y-85.217
X70.485Y-92.837
X70.866Y-36.83
X70.866Y-45.466
X71.501Y-41.021
X73.366Y-36.83
X73.366Y-45.466
X73.533Y-85.09
X73.533Y-92.71
X76.835Y-85.471
X76.835Y-93.091
X88.519Y-59.004
X88.544Y-62.357
X88.646Y-52.324
X88.722Y-55.88
X89.016Y-65.38
X91.516Y-65.38
X92.583Y-90.195
X92.659Y-93.345
X92.71Y-86.919
X93.027Y-119.951
X93.411Y-75.773
X94.488Y-65.494
X95.527Y-119.951
X95.923Y-106.947
X95.946Y-109.832
X96.012Y-104.102
X96.139Y-59.004
X96.164Y-62.357
X96.342Y-55.88
X99.835Y-57.952
X99.835Y-60.452
X100.203Y-90.195
X100.279Y-93.345
X100.33Y-86.919
X101.031Y-75.773
X101.346Y-52.324
X102.108Y-65.494
X102.845Y-93.269
X102.87Y-90.348
X102.946Y-86.868
X103.251Y-61.747
X103.378Y-118.808
X103.543Y-106.947
X103.566Y-109.832
X103.632Y-104.102
X103.695Y-122.301
X103.746Y-51.384
X103.746Y-59.004
X105.345Y-93.269
X105.37Y-90.348
X105.446Y-86.868
X106.489Y-103.784
X106.489Y-111.404
X107.036Y-51.295
X107.036Y-58.915
X109.69Y-103.784
X109.69Y-111.404
X109.969Y-51.333
X109.969Y-58.953
X109.972Y-83.541
X110.871Y-61.747
X110.998Y-118.808
X111.316Y-122.301
X112.472Y-83.541
X112.852Y-103.937
X112.852Y-111.557
X113.284Y-43.18
X113.284Y-55.88
X120.345Y-122.489
X120.457Y-125.786
X121.539Y-95.631
X121.539Y-98.131
X121.59Y-116.065
X121.59Y-118.565
X121.793Y-90.718
X121.793Y-93.218
X127.965Y-122.489
X128.077Y-125.786
X128.854Y-101.082
X128.854Y-108.702
X128.93Y-91.252
X128.93Y-98.872
X129.083Y-75.438
X129.083Y-77.938
X136.144Y-112.141
X136.144Y-119.761
X136.843Y-105.537
X139.319Y-112.014
X139.319Y-119.634
X142.367Y-111.887
X142.367Y-114.387
X144.463Y-105.537
X144.844Y-56.872
X144.844Y-59.372
X145.225Y-110.045
X145.225Y-117.665
X147.929Y-120.589
X150.05Y-97.853
X150.05Y-100.353
X150.429Y-120.589
T6
X71.415Y-96.586
X71.415Y-98.586
X73.955Y-96.586
X73.955Y-98.586
T7
X62.22Y-97.932
X62.22Y-100.472
X98.572Y-69.545
X98.572Y-72.085
T8
X61.11Y-34.158
X61.11Y-36.698
X61.11Y-39.238
X61.11Y-41.778
X61.11Y-44.318
X61.11Y-46.858
X61.11Y-49.398
X61.11Y-51.938
X61.11Y-54.478
X61.11Y-57.018
X61.11Y-59.558
X61.11Y-62.098
X61.11Y-64.638
X61.11Y-67.178
X61.11Y-69.718
X61.11Y-72.258
X61.11Y-74.798
X61.11Y-77.338
X61.11Y-79.878
X61.11Y-82.418
X64.77Y-33.528
X66.027Y-70.942
X66.04Y-64.834
X66.04Y-67.373
X67.31Y-33.528
X68.567Y-70.942
X68.58Y-64.834
X68.58Y-67.373
X69.85Y-33.528
X71.107Y-70.942
X71.12Y-64.834
X71.12Y-67.373
X72.39Y-33.528
X76.35Y-34.158
X76.35Y-36.698
X76.35Y-39.238
X76.35Y-41.778
X76.35Y-44.318
X76.35Y-46.858
X76.35Y-49.398
X76.35Y-51.938
X76.35Y-54.478
X76.35Y-57.018
X76.35Y-59.558
X76.35Y-62.098
X76.35Y-64.638
X76.35Y-67.178
X76.35Y-69.718
X76.35Y-72.258
X76.35Y-74.798
X76.35Y-77.338
X76.35Y-79.878
X76.35Y-82.418
X89.649Y-68.313
X89.649Y-83.553
X91.029Y-99.634
X91.029Y-102.174
X91.029Y-104.714
X91.029Y-107.254
X91.029Y-109.794
X97.572Y-81.864
X100.112Y-81.864
X100.393Y-115.697
X100.393Y-118.237
X100.393Y-120.777
X100.393Y-123.317
X100.393Y-125.857
X102.652Y-81.864
X105.169Y-73.647
X110.169Y-73.647
X110.871Y-35.687
X110.871Y-37.973
X118.618Y-65.024
X118.999Y-35.687
X118.999Y-37.973
X121.158Y-65.024
X123.698Y-65.024
X126.238Y-65.024
X128.778Y-65.024
X131.318Y-65.024
X137.414Y-101.409
X137.922Y-108.839
X138.303Y-73.152
X138.303Y-75.692
X138.303Y-78.232
X138.303Y-80.772
X138.303Y-83.312
X139.954Y-101.409
X140.462Y-108.839
X140.843Y-73.152
X140.843Y-75.692
X140.843Y-78.232
X140.843Y-80.772
X140.843Y-83.312
X142.494Y-101.409
X145.034Y-101.409
X147.891Y-73.088
X147.891Y-75.629
X147.891Y-78.168
X147.891Y-80.709
X147.891Y-83.248
X149.098Y-55.88
X149.098Y-58.42
X149.098Y-60.96
X149.2Y-104.534
X149.2Y-107.074
X149.2Y-109.614
X149.2Y-112.154
X149.2Y-114.694
X149.2Y-117.234
X150.431Y-73.088
X150.431Y-75.629
X150.431Y-78.168
X150.431Y-80.709
X150.431Y-83.248
T9
X60.96Y-86.106
X60.96Y-90.606
X67.46Y-86.106
X67.46Y-90.606
X69.05Y-74.587
X69.05Y-82.207
X72.2Y-74.447
X72.2Y-82.067
X104.013Y-125.984
X111.633Y-125.984
X121.59Y-103.251
X121.59Y-110.871
X121.793Y-77.216
X121.793Y-84.836
X128.895Y-81.041
X128.895Y-88.661
X132.639Y-59.284
X140.259Y-59.284
X142.24Y-117.602
X142.24Y-125.222
T10
X111.025Y-31.826
X118.775Y-31.826
X124.46Y-47.872
X124.46Y-55.372
X134.693Y-34.188
X142.443Y-34.188
T11
X137.856Y-40.625
X137.856Y-45.195
X146.014Y-42.692
X150.584Y-42.692
T12
X92.202Y-45.72
X97.282Y-45.72
X100.178Y-34.798
X103.322Y-45.989
X105.258Y-34.798
X108.402Y-45.989
X124.003Y-34.671
X129.083Y-34.671
X136.906Y-51.308
X141.986Y-51.308
T13
X66.685Y-101.286
X78.685Y-101.286
T14
X90.043Y-32.131
X90.043Y-124.841
X149.098Y-32.004
X149.098Y-124.841
T0
M30
