G04 #@! TF.FileFunction,Copper,L2,Bot,Signal*
%FSLAX46Y46*%
G04 Gerber Fmt 4.6, Leading zero omitted, Abs format (unit mm)*
G04 Created by KiCad (PCBNEW 4.0.7) date 08/04/18 16:12:32*
%MOMM*%
%LPD*%
G01*
G04 APERTURE LIST*
%ADD10C,0.100000*%
%ADD11R,2.400000X2.400000*%
%ADD12C,2.400000*%
%ADD13C,1.600000*%
%ADD14O,1.600000X1.600000*%
%ADD15C,1.000000*%
%ADD16R,1.000000X1.000000*%
%ADD17R,3.000000X3.000000*%
%ADD18C,3.000000*%
%ADD19C,4.064000*%
%ADD20R,1.700000X1.700000*%
%ADD21O,1.700000X1.700000*%
%ADD22R,1.800000X1.800000*%
%ADD23C,1.800000*%
%ADD24R,2.200000X2.200000*%
%ADD25O,2.200000X2.200000*%
%ADD26R,2.600000X2.000000*%
%ADD27O,2.600000X2.000000*%
%ADD28C,1.500000*%
%ADD29R,1.600000X1.600000*%
%ADD30C,1.520000*%
%ADD31C,2.700000*%
%ADD32C,2.000000*%
%ADD33O,1.800000X1.800000*%
%ADD34C,4.000000*%
%ADD35O,2.000000X2.000000*%
%ADD36R,2.000000X2.000000*%
%ADD37C,1.524000*%
%ADD38C,0.600000*%
%ADD39C,2.000000*%
%ADD40C,1.000000*%
%ADD41C,0.500000*%
%ADD42C,0.350000*%
%ADD43C,0.250000*%
G04 APERTURE END LIST*
D10*
D11*
X124460000Y-55372000D03*
D12*
X124460000Y-47872000D03*
D13*
X96164400Y-62357000D03*
D14*
X88544400Y-62357000D03*
D15*
X108280200Y-115658900D03*
X107010200Y-114388900D03*
D16*
X109550200Y-114388900D03*
D17*
X141732000Y-35306000D03*
D18*
X136652000Y-35306000D03*
D12*
X128412240Y-32298640D03*
X128412240Y-40048640D03*
D19*
X90043000Y-32131000D03*
X149098000Y-32004000D03*
X90043000Y-124841000D03*
X149098000Y-124841000D03*
D20*
X131318000Y-65024000D03*
D21*
X128778000Y-65024000D03*
X126238000Y-65024000D03*
X123698000Y-65024000D03*
X121158000Y-65024000D03*
X118618000Y-65024000D03*
D13*
X137922000Y-75438000D03*
X142922000Y-75438000D03*
D20*
X149098000Y-118110000D03*
D21*
X149098000Y-115570000D03*
X149098000Y-113030000D03*
X149098000Y-110490000D03*
X149098000Y-107950000D03*
X149098000Y-105410000D03*
D20*
X138684000Y-119126000D03*
D21*
X141224000Y-119126000D03*
D20*
X100393500Y-125857000D03*
D21*
X100393500Y-123317000D03*
X100393500Y-120777000D03*
X100393500Y-118237000D03*
X100393500Y-115697000D03*
D13*
X119291100Y-40424100D03*
X114291100Y-40424100D03*
D17*
X117962680Y-34422080D03*
D18*
X112882680Y-34422080D03*
X146014440Y-42692320D03*
X150584440Y-42692320D03*
X137855960Y-40624760D03*
X137855960Y-45194760D03*
D22*
X93878400Y-91922600D03*
D23*
X93878400Y-89382600D03*
D12*
X123215400Y-40065960D03*
X123215400Y-32315960D03*
D24*
X135636000Y-71374000D03*
D25*
X135636000Y-63754000D03*
D24*
X104013000Y-125984000D03*
D25*
X111633000Y-125984000D03*
D13*
X142494000Y-71120000D03*
D14*
X142494000Y-63500000D03*
D13*
X139192000Y-71120000D03*
D14*
X139192000Y-63500000D03*
D13*
X95123000Y-94869000D03*
D14*
X95123000Y-102489000D03*
D13*
X111315500Y-122301000D03*
D14*
X103695500Y-122301000D03*
D13*
X110998000Y-118808500D03*
D14*
X103378000Y-118808500D03*
D13*
X143891000Y-122682000D03*
D14*
X136271000Y-122682000D03*
D13*
X144018000Y-126365000D03*
D14*
X136398000Y-126365000D03*
D17*
X141986000Y-51308000D03*
D18*
X136906000Y-51308000D03*
D26*
X148285200Y-79578200D03*
D27*
X148285200Y-77038200D03*
X148285200Y-74498200D03*
X148285200Y-71958200D03*
X148285200Y-69418200D03*
D26*
X148793200Y-98831400D03*
D27*
X148793200Y-96291400D03*
X148793200Y-93751400D03*
X148793200Y-91211400D03*
X148793200Y-88671400D03*
D20*
X61110000Y-34158000D03*
D21*
X61110000Y-36698000D03*
X61110000Y-39238000D03*
X61110000Y-41778000D03*
X61110000Y-44318000D03*
X61110000Y-46858000D03*
X61110000Y-49398000D03*
X61110000Y-51938000D03*
X61110000Y-54478000D03*
X61110000Y-57018000D03*
X61110000Y-59558000D03*
X61110000Y-62098000D03*
X61110000Y-64638000D03*
X61110000Y-67178000D03*
X61110000Y-69718000D03*
X61110000Y-72258000D03*
X61110000Y-74798000D03*
X61110000Y-77338000D03*
X61110000Y-79878000D03*
X61110000Y-82418000D03*
D20*
X76350000Y-34158000D03*
D21*
X76350000Y-36698000D03*
X76350000Y-39238000D03*
X76350000Y-41778000D03*
X76350000Y-44318000D03*
X76350000Y-46858000D03*
X76350000Y-49398000D03*
X76350000Y-51938000D03*
X76350000Y-54478000D03*
X76350000Y-57018000D03*
X76350000Y-59558000D03*
X76350000Y-62098000D03*
X76350000Y-64638000D03*
X76350000Y-67178000D03*
X76350000Y-69718000D03*
X76350000Y-72258000D03*
X76350000Y-74798000D03*
X76350000Y-77338000D03*
X76350000Y-79878000D03*
X76350000Y-82418000D03*
D24*
X141986000Y-108013500D03*
D25*
X141986000Y-100393500D03*
D15*
X142684500Y-114554000D03*
X141414500Y-113284000D03*
D16*
X143954500Y-113284000D03*
D13*
X138455400Y-106375200D03*
D14*
X138455400Y-98755200D03*
D13*
X138430000Y-116205000D03*
D14*
X138430000Y-108585000D03*
D26*
X140436600Y-93395800D03*
D27*
X140436600Y-90855800D03*
X140436600Y-88315800D03*
X140436600Y-85775800D03*
D15*
X110490000Y-99555300D03*
X111760000Y-98285300D03*
D16*
X111760000Y-100825300D03*
D15*
X110566200Y-93687900D03*
X111836200Y-92417900D03*
D16*
X111836200Y-94957900D03*
D13*
X113093500Y-83985100D03*
D14*
X105473500Y-83985100D03*
D13*
X107950000Y-103568500D03*
D14*
X107950000Y-111188500D03*
D13*
X111531400Y-103606600D03*
D14*
X111531400Y-111226600D03*
D13*
X112903000Y-88823800D03*
D14*
X105283000Y-88823800D03*
D26*
X101955600Y-98323400D03*
D27*
X101955600Y-100863400D03*
X101955600Y-103403400D03*
X101955600Y-105943400D03*
D20*
X105702100Y-92608400D03*
D21*
X103162100Y-92608400D03*
X100622100Y-92608400D03*
D13*
X101193600Y-89179400D03*
X101193600Y-84179400D03*
X67627500Y-45466000D03*
X67627500Y-47966000D03*
X64516000Y-45466000D03*
X64516000Y-47966000D03*
X70866000Y-36830000D03*
X73366000Y-36830000D03*
X64770000Y-36830000D03*
X67270000Y-36830000D03*
D20*
X64770000Y-33528000D03*
D21*
X67310000Y-33528000D03*
X69850000Y-33528000D03*
X72390000Y-33528000D03*
D28*
X71501000Y-41021000D03*
X66621000Y-41021000D03*
D15*
X71882000Y-48768000D03*
X73782000Y-48768000D03*
D13*
X70866000Y-45466000D03*
X73366000Y-45466000D03*
D29*
X64709040Y-80076040D03*
D13*
X64709040Y-82576040D03*
X66865500Y-62166500D03*
X69365500Y-62166500D03*
D29*
X64731900Y-76885800D03*
D13*
X64731900Y-74385800D03*
X61153040Y-93497400D03*
X63653040Y-93497400D03*
D22*
X62219840Y-100472240D03*
D23*
X62219840Y-97932240D03*
D24*
X69049900Y-74587100D03*
D25*
X69049900Y-82207100D03*
D24*
X72199500Y-74447400D03*
D25*
X72199500Y-82067400D03*
D30*
X71414640Y-96586040D03*
X73954640Y-96586040D03*
X73954640Y-98586040D03*
X71414640Y-98586040D03*
D31*
X66684640Y-101286040D03*
X78684640Y-101286040D03*
D20*
X71120000Y-64833500D03*
D21*
X71120000Y-67373500D03*
X68580000Y-64833500D03*
X68580000Y-67373500D03*
X66040000Y-64833500D03*
X66040000Y-67373500D03*
D32*
X60960000Y-90606000D03*
X60960000Y-86106000D03*
X67460000Y-90606000D03*
X67460000Y-86106000D03*
D13*
X70485000Y-85217000D03*
D14*
X70485000Y-92837000D03*
D13*
X73533000Y-85090000D03*
D14*
X73533000Y-92710000D03*
D13*
X76835000Y-85471000D03*
D14*
X76835000Y-93091000D03*
D13*
X58140600Y-85232240D03*
D14*
X58140600Y-92852240D03*
D13*
X58064400Y-95062040D03*
D14*
X58064400Y-102682040D03*
D22*
X66027300Y-70942200D03*
D33*
X68567300Y-70942200D03*
X71107300Y-70942200D03*
D13*
X96278700Y-65697100D03*
X91278700Y-65697100D03*
X99834700Y-60452000D03*
X99834700Y-55452000D03*
D29*
X96342200Y-55880000D03*
D14*
X88722200Y-55880000D03*
D29*
X109969300Y-58953400D03*
D14*
X109969300Y-51333400D03*
D24*
X121793000Y-77216000D03*
D25*
X121793000Y-84836000D03*
D24*
X121589800Y-110871000D03*
D25*
X121589800Y-103251000D03*
D34*
X95778320Y-38613080D03*
X101757480Y-38557200D03*
D17*
X92202000Y-45720000D03*
D18*
X97282000Y-45720000D03*
D34*
X107289600Y-38557200D03*
X89941400Y-38658800D03*
D17*
X103322120Y-45989240D03*
D18*
X108402120Y-45989240D03*
D32*
X91871800Y-84048600D03*
D35*
X91871800Y-68808600D03*
D13*
X88519000Y-59004200D03*
D14*
X96139000Y-59004200D03*
D13*
X107035600Y-51295300D03*
D14*
X107035600Y-58915300D03*
D13*
X103746300Y-51384200D03*
D14*
X103746300Y-59004200D03*
D13*
X101346000Y-52324000D03*
D14*
X88646000Y-52324000D03*
D13*
X113284000Y-55880000D03*
D14*
X113284000Y-43180000D03*
D36*
X105168700Y-73647300D03*
D32*
X110168700Y-73647300D03*
D13*
X121539000Y-95631000D03*
X121539000Y-100631000D03*
X121589800Y-116065300D03*
X121589800Y-121065300D03*
X121793000Y-93218000D03*
X121793000Y-88218000D03*
D37*
X117348000Y-77470000D03*
X117348000Y-80010000D03*
X117348000Y-82550000D03*
X117348000Y-85090000D03*
X117348000Y-87630000D03*
X117348000Y-90170000D03*
X117348000Y-92710000D03*
X117348000Y-95250000D03*
X117348000Y-97790000D03*
X117348000Y-100330000D03*
X117348000Y-102870000D03*
X117348000Y-105410000D03*
X117348000Y-107950000D03*
X117348000Y-110490000D03*
X117348000Y-113030000D03*
X117348000Y-115570000D03*
X117348000Y-118110000D03*
X117348000Y-120650000D03*
X117348000Y-123190000D03*
X117348000Y-125730000D03*
X132588000Y-77470000D03*
X132588000Y-80010000D03*
X132588000Y-82550000D03*
X132588000Y-85090000D03*
X132588000Y-87630000D03*
X132588000Y-90170000D03*
X132588000Y-92710000D03*
X132588000Y-95250000D03*
X132588000Y-97790000D03*
X132588000Y-100330000D03*
X132588000Y-102870000D03*
X132588000Y-105410000D03*
X132588000Y-107950000D03*
X132588000Y-110490000D03*
X132588000Y-113030000D03*
X132588000Y-115570000D03*
X132588000Y-118110000D03*
X132588000Y-120650000D03*
X132588000Y-123190000D03*
X132588000Y-125730000D03*
D13*
X95834200Y-76276200D03*
D14*
X95834200Y-68656200D03*
D13*
X110871000Y-61747400D03*
D14*
X103251000Y-61747400D03*
D22*
X149098000Y-55880000D03*
D33*
X149098000Y-58420000D03*
X149098000Y-60960000D03*
D24*
X140258800Y-59283600D03*
D25*
X132638800Y-59283600D03*
D38*
X58887360Y-87294720D03*
X58399680Y-89428320D03*
X59182000Y-37655500D03*
X69024500Y-52070000D03*
X73660000Y-89052400D03*
X69697600Y-41554400D03*
X64820800Y-41300400D03*
X71120000Y-68935600D03*
X71628000Y-78384400D03*
X70332600Y-52852320D03*
X64823340Y-51493420D03*
X68529200Y-54762400D03*
X72263000Y-56197500D03*
X68580000Y-58483500D03*
X70675500Y-43751500D03*
X69659500Y-48895000D03*
X68516500Y-42862500D03*
X69342000Y-44196000D03*
X68199000Y-53975000D03*
X70675500Y-47561500D03*
X77729080Y-32273240D03*
X78435200Y-42103040D03*
X74739500Y-57594500D03*
X69215000Y-50101500D03*
X64104520Y-50944780D03*
X72517000Y-50482500D03*
X74739500Y-51689000D03*
X72517000Y-54292500D03*
X74295000Y-58991500D03*
X63055500Y-62293500D03*
X73850500Y-60325000D03*
X63690500Y-63627000D03*
X73279000Y-61658500D03*
X72707500Y-62928500D03*
X71424800Y-54610000D03*
X67360800Y-57099200D03*
X134620000Y-108267500D03*
X113538000Y-70601840D03*
X114909600Y-70525640D03*
D39*
X141732000Y-35306000D02*
X141732000Y-32512000D01*
X129722880Y-30988000D02*
X128412240Y-32298640D01*
X140208000Y-30988000D02*
X129722880Y-30988000D01*
X141732000Y-32512000D02*
X140208000Y-30988000D01*
X146014440Y-42692320D02*
X146014440Y-38572440D01*
X146014440Y-38572440D02*
X142748000Y-35306000D01*
X142748000Y-35306000D02*
X141732000Y-35306000D01*
D40*
X143154400Y-35306000D02*
X141732000Y-35306000D01*
X128412240Y-32298640D02*
X128666240Y-32298640D01*
X141230000Y-35306000D02*
X141732000Y-35306000D01*
X141732000Y-35814000D02*
X141732000Y-35306000D01*
D41*
X131318000Y-65024000D02*
X131318000Y-63144400D01*
X132638800Y-61823600D02*
X132638800Y-59283600D01*
X131318000Y-63144400D02*
X132638800Y-61823600D01*
X93878400Y-89382600D02*
X98107500Y-89382600D01*
X98107500Y-89382600D02*
X98488500Y-89001600D01*
D40*
X149098000Y-60960000D02*
X149199600Y-63652400D01*
X149199600Y-63652400D02*
X148920200Y-63931800D01*
D41*
X138430000Y-116205000D02*
X138430000Y-118872000D01*
X138430000Y-118872000D02*
X138684000Y-119126000D01*
D40*
X135178800Y-63296800D02*
X135636000Y-63754000D01*
D42*
X135636000Y-63754000D02*
X135636000Y-62738000D01*
X109550200Y-114388900D02*
X109131100Y-114388900D01*
X128803400Y-74676000D02*
X128803400Y-69621400D01*
X126238000Y-67056000D02*
X126238000Y-65024000D01*
X128803400Y-69621400D02*
X126238000Y-67056000D01*
X128803400Y-116319300D02*
X132588000Y-120650000D01*
X128803400Y-74206100D02*
X128803400Y-74676000D01*
X128803400Y-74676000D02*
X128803400Y-116319300D01*
X132588000Y-120650000D02*
X131851400Y-120650000D01*
X128054100Y-74891900D02*
X128054100Y-70396100D01*
X125222000Y-66548000D02*
X123698000Y-65024000D01*
X125222000Y-67564000D02*
X125222000Y-66548000D01*
X128054100Y-70396100D02*
X125222000Y-67564000D01*
X128048084Y-74887372D02*
X128054100Y-74891900D01*
X128054100Y-74891900D02*
X128054100Y-74891900D01*
X128054100Y-74891900D02*
X128054100Y-117767100D01*
X128054100Y-117767100D02*
X132588000Y-123190000D01*
X127243246Y-75961373D02*
X127243246Y-71130754D01*
X127330200Y-76022200D02*
X127330200Y-118846600D01*
X132588000Y-125730000D02*
X127330200Y-118846600D01*
X127243246Y-75961373D02*
X127330200Y-76022200D01*
X127243246Y-71130754D02*
X121158000Y-65045508D01*
X121158000Y-65045508D02*
X121158000Y-65024000D01*
X129540000Y-72136000D02*
X129540000Y-68834000D01*
X128778000Y-68072000D02*
X128778000Y-65024000D01*
X129540000Y-68834000D02*
X128778000Y-68072000D01*
X129540000Y-115493800D02*
X132156200Y-118110000D01*
X129540000Y-71628000D02*
X129540000Y-72136000D01*
X129540000Y-72136000D02*
X129540000Y-115493800D01*
X132156200Y-118110000D02*
X132588000Y-118110000D01*
X132588000Y-118110000D02*
X132207000Y-118110000D01*
D41*
X150393400Y-74498200D02*
X148285200Y-74498200D01*
X151104600Y-75209400D02*
X150393400Y-74498200D01*
X148793200Y-93751400D02*
X151130000Y-93751400D01*
X151130000Y-93751400D02*
X151104600Y-93726000D01*
X151104600Y-93726000D02*
X151104600Y-75209400D01*
X148285200Y-74498200D02*
X145745200Y-74498200D01*
X140741400Y-65049400D02*
X139192000Y-63500000D01*
X142392400Y-65049400D02*
X140741400Y-65049400D01*
X143941800Y-66598800D02*
X142392400Y-65049400D01*
X143941800Y-72694800D02*
X143941800Y-66598800D01*
X145745200Y-74498200D02*
X143941800Y-72694800D01*
X142494000Y-63500000D02*
X142494000Y-64262000D01*
X148285200Y-71958200D02*
X146151600Y-71958200D01*
X144983200Y-65989200D02*
X142494000Y-63500000D01*
X144983200Y-70789800D02*
X144983200Y-65989200D01*
X146151600Y-71958200D02*
X144983200Y-70789800D01*
X143891000Y-122682000D02*
X143891000Y-118237000D01*
X143891000Y-118237000D02*
X149098000Y-113030000D01*
X141224000Y-119126000D02*
X141224000Y-118364000D01*
X141224000Y-118364000D02*
X149098000Y-110490000D01*
X100393500Y-120777000D02*
X102171500Y-120777000D01*
X102171500Y-120777000D02*
X103695500Y-122301000D01*
X102806500Y-118237000D02*
X103378000Y-118808500D01*
X100393500Y-118237000D02*
X102806500Y-118237000D01*
X104013000Y-125984000D02*
X100520500Y-125984000D01*
X100520500Y-125984000D02*
X100393500Y-125857000D01*
D39*
X123215400Y-40065960D02*
X128394920Y-40065960D01*
X128394920Y-40065960D02*
X128412240Y-40048640D01*
D40*
X123345400Y-40195960D02*
X123215400Y-40065960D01*
D41*
X93878400Y-91922600D02*
X93878400Y-93078300D01*
X93878400Y-93078300D02*
X95123000Y-94869000D01*
D39*
X117962680Y-34422080D02*
X117962680Y-34056320D01*
X117962680Y-34056320D02*
X119703040Y-32315960D01*
X119703040Y-32315960D02*
X123215400Y-32315960D01*
D40*
X122528803Y-32080997D02*
X122914397Y-32014957D01*
X122914397Y-32014957D02*
X123215400Y-32315960D01*
X117708680Y-34422080D02*
X117708680Y-35184080D01*
D41*
X144018000Y-126365000D02*
X145034000Y-126365000D01*
X145923000Y-118745000D02*
X149098000Y-115570000D01*
X145923000Y-125476000D02*
X145923000Y-118745000D01*
X145034000Y-126365000D02*
X145923000Y-125476000D01*
X148590000Y-115062000D02*
X149098000Y-115570000D01*
D42*
X111315500Y-122301000D02*
X111912400Y-122301000D01*
X111912400Y-122301000D02*
X114731800Y-119481600D01*
X114731800Y-119481600D02*
X114731800Y-115646200D01*
X114731800Y-115646200D02*
X117348000Y-113030000D01*
D41*
X136271000Y-122682000D02*
X136271000Y-114173000D01*
X136271000Y-114173000D02*
X132588000Y-110490000D01*
X136398000Y-126365000D02*
X135636000Y-126365000D01*
X135636000Y-126365000D02*
X134493000Y-125222000D01*
X134493000Y-125222000D02*
X134493000Y-114935000D01*
X134493000Y-114935000D02*
X132588000Y-113030000D01*
X132588000Y-82550000D02*
X134366000Y-82550000D01*
X136652000Y-80264000D02*
X136652000Y-72390000D01*
X134366000Y-82550000D02*
X136652000Y-80264000D01*
X136652000Y-72390000D02*
X135636000Y-71374000D01*
D43*
X59314080Y-53685440D02*
X59992260Y-53007260D01*
X59314080Y-84510880D02*
X59314080Y-53685440D01*
X59366998Y-84563798D02*
X59314080Y-84510880D01*
X59366998Y-86815082D02*
X59366998Y-84563798D01*
X58887360Y-87294720D02*
X59366998Y-86815082D01*
X58399680Y-91338400D02*
X58399680Y-89428320D01*
X59314080Y-92252800D02*
X58399680Y-91338400D01*
X59314080Y-94488000D02*
X59314080Y-92252800D01*
X58740040Y-95062040D02*
X59314080Y-94488000D01*
X58064400Y-95062040D02*
X58740040Y-95062040D01*
X59992260Y-53007260D02*
X60134500Y-53149500D01*
X63436500Y-54165500D02*
X66929000Y-54165500D01*
X59182000Y-37655500D02*
X59245500Y-37719000D01*
X59245500Y-37719000D02*
X59245500Y-52260500D01*
X59245500Y-52260500D02*
X59992260Y-53007260D01*
X60134500Y-53149500D02*
X62420500Y-53149500D01*
X62420500Y-53149500D02*
X63436500Y-54165500D01*
X66929000Y-54165500D02*
X69024500Y-52070000D01*
X73863200Y-88849200D02*
X73863200Y-88188800D01*
X73660000Y-89052400D02*
X73863200Y-88849200D01*
X70866000Y-45466000D02*
X70866000Y-44450000D01*
X70866000Y-44450000D02*
X71729600Y-43586400D01*
X70866000Y-45466000D02*
X70866000Y-45364400D01*
X71729600Y-43586400D02*
X69697600Y-41554400D01*
X67270000Y-36830000D02*
X67208400Y-36830000D01*
X67208400Y-36830000D02*
X64820800Y-39217600D01*
X64820800Y-39217600D02*
X64820800Y-41300400D01*
X66027300Y-70942200D02*
X66027300Y-69964300D01*
X67056000Y-68935600D02*
X71120000Y-68935600D01*
X66027300Y-69964300D02*
X67056000Y-68935600D01*
X71882000Y-78130400D02*
X72898000Y-78130400D01*
X71628000Y-78384400D02*
X71882000Y-78130400D01*
X70424040Y-52943760D02*
X70424040Y-53436520D01*
X70332600Y-52852320D02*
X70424040Y-52943760D01*
X68529200Y-54762400D02*
X68529200Y-54838600D01*
X68529200Y-54838600D02*
X67132200Y-56235600D01*
X64516000Y-49034700D02*
X64516000Y-47966000D01*
X65143380Y-49662080D02*
X64516000Y-49034700D01*
X65143380Y-51173380D02*
X65143380Y-49662080D01*
X64823340Y-51493420D02*
X65143380Y-51173380D01*
D41*
X66684640Y-101286040D02*
X66684640Y-91381360D01*
X66684640Y-91381360D02*
X67460000Y-90606000D01*
X73954640Y-98586040D02*
X72339200Y-100584000D01*
X72339200Y-100584000D02*
X71601600Y-101321600D01*
X78684640Y-101286040D02*
X71601600Y-101321600D01*
X71601600Y-101321600D02*
X66684640Y-101286040D01*
X67460000Y-90606000D02*
X60960000Y-90606000D01*
X61110000Y-79878000D02*
X63174800Y-79878000D01*
X63174800Y-79878000D02*
X63317120Y-79735680D01*
X61110000Y-79878000D02*
X61630480Y-79878000D01*
X61630480Y-79878000D02*
X62951360Y-78557120D01*
X62951360Y-78557120D02*
X62951360Y-76166340D01*
X62951360Y-76166340D02*
X64731900Y-74385800D01*
X64709040Y-82576040D02*
X61268040Y-82576040D01*
X61268040Y-82576040D02*
X61110000Y-82418000D01*
D43*
X68732400Y-54559200D02*
X68732400Y-54457600D01*
X68529200Y-54762400D02*
X68732400Y-54559200D01*
X72263000Y-56197500D02*
X72009000Y-56451500D01*
X72009000Y-56451500D02*
X72009000Y-56515000D01*
X68580000Y-58483500D02*
X68326000Y-58229500D01*
X68326000Y-58229500D02*
X68199000Y-58229500D01*
D41*
X75779000Y-36830000D02*
X76218000Y-36830000D01*
D43*
X75779000Y-36830000D02*
X76091000Y-36830000D01*
X64516000Y-45466000D02*
X64706500Y-45466000D01*
X69659500Y-48895000D02*
X69659500Y-48704500D01*
X69278500Y-45148500D02*
X70675500Y-43751500D01*
X69278500Y-48323500D02*
X69278500Y-45148500D01*
X69659500Y-48704500D02*
X69278500Y-48323500D01*
X72639000Y-47625000D02*
X73782000Y-48768000D01*
X71501000Y-47625000D02*
X72639000Y-47625000D01*
X70421500Y-48704500D02*
X71501000Y-47625000D01*
X69850000Y-48704500D02*
X70421500Y-48704500D01*
X69659500Y-48895000D02*
X69850000Y-48704500D01*
X73782000Y-48768000D02*
X73660000Y-48768000D01*
X68516500Y-43370500D02*
X68516500Y-42862500D01*
X69342000Y-44196000D02*
X68516500Y-43370500D01*
X67460000Y-86106000D02*
X60960000Y-86106000D01*
X61110000Y-74798000D02*
X61110000Y-75161000D01*
X61110000Y-75161000D02*
X59817000Y-76454000D01*
X59817000Y-84963000D02*
X60960000Y-86106000D01*
X59817000Y-76454000D02*
X59817000Y-84963000D01*
X61110000Y-74798000D02*
X61028500Y-74798000D01*
X63436500Y-72471500D02*
X61110000Y-74798000D01*
X63436500Y-65341500D02*
X63436500Y-72471500D01*
X64389000Y-64389000D02*
X63436500Y-65341500D01*
X64389000Y-62674500D02*
X64389000Y-64389000D01*
X62801500Y-61087000D02*
X64389000Y-62674500D01*
X62801500Y-57340500D02*
X62801500Y-61087000D01*
X63055500Y-57086500D02*
X62801500Y-57340500D01*
X63309500Y-57086500D02*
X63055500Y-57086500D01*
X65341500Y-55054500D02*
X63309500Y-57086500D01*
X67119500Y-55054500D02*
X65341500Y-55054500D01*
X68199000Y-53975000D02*
X67119500Y-55054500D01*
D41*
X140436600Y-90855800D02*
X141046200Y-90855800D01*
X141046200Y-90855800D02*
X144114520Y-92649040D01*
X144114520Y-92649040D02*
X144145000Y-105854500D01*
X144145000Y-105854500D02*
X141986000Y-108013500D01*
D42*
X141986000Y-108013500D02*
X142875000Y-108013500D01*
D43*
X58140600Y-85232240D02*
X58140600Y-87939880D01*
X59344560Y-89143840D02*
X59512200Y-89143840D01*
X58140600Y-87939880D02*
X59344560Y-89143840D01*
X59512200Y-89143840D02*
X59512200Y-91653360D01*
X62219840Y-97576640D02*
X59908440Y-95265240D01*
X59908440Y-95265240D02*
X59908440Y-92369640D01*
X59512200Y-91653360D02*
X59832240Y-91973400D01*
X59832240Y-91973400D02*
X59832240Y-92293440D01*
X59832240Y-92293440D02*
X59908440Y-92369640D01*
X62219840Y-97932240D02*
X62219840Y-97576640D01*
D41*
X74018140Y-43964860D02*
X74018140Y-39001700D01*
X74018140Y-39001700D02*
X74930000Y-38089840D01*
D43*
X70675500Y-47561500D02*
X72771000Y-45466000D01*
X72771000Y-45466000D02*
X73366000Y-45466000D01*
D41*
X73366000Y-45466000D02*
X73366000Y-44617000D01*
X73366000Y-44617000D02*
X74018140Y-43964860D01*
X74930000Y-38089840D02*
X74930000Y-35578000D01*
X74930000Y-35578000D02*
X76350000Y-34158000D01*
X64770000Y-33528000D02*
X64770000Y-33274000D01*
D43*
X77660500Y-45760640D02*
X77764640Y-45760640D01*
X76332080Y-32217360D02*
X76332080Y-32131000D01*
X76418440Y-32131000D02*
X76332080Y-32217360D01*
X77586840Y-32131000D02*
X76418440Y-32131000D01*
X77729080Y-32273240D02*
X77586840Y-32131000D01*
X78435200Y-45090080D02*
X78435200Y-42103040D01*
X77764640Y-45760640D02*
X78435200Y-45090080D01*
X74739500Y-57594500D02*
X75501500Y-58356500D01*
X77660500Y-58102500D02*
X77660500Y-45760640D01*
X77406500Y-58356500D02*
X77660500Y-58102500D01*
X75501500Y-58356500D02*
X77406500Y-58356500D01*
X76332080Y-32131000D02*
X68707000Y-32131000D01*
X68707000Y-32131000D02*
X67310000Y-33528000D01*
X63881000Y-53594000D02*
X66611500Y-53594000D01*
X61028500Y-34158000D02*
X59817000Y-35369500D01*
X62992000Y-52705000D02*
X63881000Y-53594000D01*
X62992000Y-51244500D02*
X62992000Y-52705000D01*
X62420500Y-50673000D02*
X62992000Y-51244500D01*
X60261500Y-50673000D02*
X62420500Y-50673000D01*
X59817000Y-50228500D02*
X60261500Y-50673000D01*
X59817000Y-35369500D02*
X59817000Y-50228500D01*
X69215000Y-50990500D02*
X69215000Y-50101500D01*
X66611500Y-53594000D02*
X69215000Y-50990500D01*
X61110000Y-34158000D02*
X61028500Y-34158000D01*
D41*
X72199500Y-82067400D02*
X73431400Y-82067400D01*
X78100000Y-39238000D02*
X79263240Y-40401240D01*
X79263240Y-40401240D02*
X79263240Y-45796200D01*
X79263240Y-45796200D02*
X78369160Y-46690280D01*
X78369160Y-46690280D02*
X78369160Y-83093560D01*
X78369160Y-83093560D02*
X77365860Y-84096860D01*
X78100000Y-39238000D02*
X76350000Y-39238000D01*
X75460860Y-84096860D02*
X73431400Y-82067400D01*
X77365860Y-84096860D02*
X75460860Y-84096860D01*
D43*
X63878460Y-49717960D02*
X63878460Y-50718720D01*
X63878460Y-50718720D02*
X64104520Y-50944780D01*
X63119000Y-46327000D02*
X61110000Y-44318000D01*
X63119000Y-48958500D02*
X63119000Y-46327000D01*
X63878460Y-49717960D02*
X63119000Y-48958500D01*
X61590000Y-44318000D02*
X61110000Y-44318000D01*
X72517000Y-50482500D02*
X72707500Y-50292000D01*
X72707500Y-50292000D02*
X73596500Y-50292000D01*
X73596500Y-50292000D02*
X74676000Y-49212500D01*
X74676000Y-49212500D02*
X74676000Y-45992000D01*
X74676000Y-45992000D02*
X76350000Y-44318000D01*
X74866500Y-52994500D02*
X76350000Y-54478000D01*
X74866500Y-51816000D02*
X74866500Y-52994500D01*
X74739500Y-51689000D02*
X74866500Y-51816000D01*
X74577000Y-55245000D02*
X76350000Y-57018000D01*
X73025000Y-55245000D02*
X74577000Y-55245000D01*
X72580500Y-54800500D02*
X73025000Y-55245000D01*
X72580500Y-54356000D02*
X72580500Y-54800500D01*
X72517000Y-54292500D02*
X72580500Y-54356000D01*
X75120500Y-63627000D02*
X76131500Y-64638000D01*
X75120500Y-59563000D02*
X75120500Y-63627000D01*
X74676000Y-59118500D02*
X75120500Y-59563000D01*
X74422000Y-59118500D02*
X74676000Y-59118500D01*
X74295000Y-58991500D02*
X74422000Y-59118500D01*
X76131500Y-64638000D02*
X76350000Y-64638000D01*
X76004500Y-64638000D02*
X76350000Y-64638000D01*
X63055500Y-62293500D02*
X62357000Y-62992000D01*
X62357000Y-62992000D02*
X62357000Y-65931000D01*
X62357000Y-65931000D02*
X61110000Y-67178000D01*
X73850500Y-60325000D02*
X74549000Y-61150500D01*
X74549000Y-61150500D02*
X74549000Y-68770500D01*
X74549000Y-68770500D02*
X75496500Y-69718000D01*
X75496500Y-69718000D02*
X76350000Y-69718000D01*
X63690500Y-63627000D02*
X63309500Y-64008000D01*
X63309500Y-64008000D02*
X63119000Y-64008000D01*
X63119000Y-64008000D02*
X62865000Y-64262000D01*
X62865000Y-64262000D02*
X62865000Y-70503000D01*
X62865000Y-70503000D02*
X61110000Y-72258000D01*
X74970670Y-73418670D02*
X74970670Y-71264810D01*
X74970670Y-71264810D02*
X74612500Y-70906640D01*
X74612500Y-70294500D02*
X74612500Y-70906640D01*
X74041000Y-69596000D02*
X74612500Y-70294500D01*
X74041000Y-62293500D02*
X74041000Y-69596000D01*
X73279000Y-61658500D02*
X74041000Y-62293500D01*
X74970670Y-73418670D02*
X76350000Y-74798000D01*
X74482960Y-73609200D02*
X74482960Y-71554340D01*
X74482960Y-71554340D02*
X73977500Y-71048880D01*
X74985880Y-75826620D02*
X74866500Y-75946000D01*
X74985880Y-74112120D02*
X74985880Y-75826620D01*
X74482960Y-73609200D02*
X74985880Y-74112120D01*
X73977500Y-70485000D02*
X73977500Y-71048880D01*
X73469500Y-69977000D02*
X73977500Y-70485000D01*
X73469500Y-63690500D02*
X73469500Y-69977000D01*
X72707500Y-62928500D02*
X73469500Y-63690500D01*
X74866500Y-75946000D02*
X74866500Y-78394500D01*
X74866500Y-78394500D02*
X76350000Y-79878000D01*
X71424800Y-54610000D02*
X71374000Y-54660800D01*
X71374000Y-54660800D02*
X71374000Y-58928000D01*
X71374000Y-58928000D02*
X70612000Y-59690000D01*
X70612000Y-59690000D02*
X70612000Y-62801500D01*
X70612000Y-62801500D02*
X68580000Y-64833500D01*
X67360800Y-57099200D02*
X67157600Y-57302400D01*
X67157600Y-57302400D02*
X67157600Y-58166000D01*
X67157600Y-58166000D02*
X64973200Y-60350400D01*
X64973200Y-60350400D02*
X64973200Y-62026800D01*
X64973200Y-62026800D02*
X65989200Y-63042800D01*
X65989200Y-63042800D02*
X65989200Y-63449200D01*
X65989200Y-63449200D02*
X66141600Y-63601600D01*
X66141600Y-63601600D02*
X66852800Y-63601600D01*
X66852800Y-63601600D02*
X67360800Y-64109600D01*
X67360800Y-64109600D02*
X67360800Y-66154300D01*
X67360800Y-66154300D02*
X68580000Y-67373500D01*
D41*
X73954640Y-96586040D02*
X73954640Y-96398080D01*
X73954640Y-96398080D02*
X71897240Y-94340680D01*
X71897240Y-94340680D02*
X71897240Y-89956640D01*
X71897240Y-89956640D02*
X69049900Y-87109300D01*
X69049900Y-87109300D02*
X69049900Y-82207100D01*
D42*
X131064000Y-93091000D02*
X131064000Y-89154000D01*
X131064000Y-89154000D02*
X132588000Y-87630000D01*
X132588000Y-87630000D02*
X132969000Y-87630000D01*
X134620000Y-95123000D02*
X134620000Y-108267500D01*
X133413500Y-93916500D02*
X134620000Y-95123000D01*
X131889500Y-93916500D02*
X133413500Y-93916500D01*
X131064000Y-93091000D02*
X131889500Y-93916500D01*
X140436600Y-93395800D02*
X140436600Y-97723960D01*
X139923520Y-107091480D02*
X138430000Y-108585000D01*
X139923520Y-98237040D02*
X139923520Y-107091480D01*
X140436600Y-97723960D02*
X139923520Y-98237040D01*
D41*
X138430000Y-108585000D02*
X139014200Y-108585000D01*
D42*
X121589800Y-110871000D02*
X121589800Y-116065300D01*
X121793000Y-77216000D02*
X122262900Y-77216000D01*
X122262900Y-77216000D02*
X124383800Y-79336900D01*
X124383800Y-79336900D02*
X124383800Y-108077000D01*
X124383800Y-108077000D02*
X121589800Y-110871000D01*
X117348000Y-120650000D02*
X118351300Y-120650000D01*
X118351300Y-120650000D02*
X121589800Y-117411500D01*
X121589800Y-117411500D02*
X121589800Y-116065300D01*
X111531400Y-111226600D02*
X112750600Y-111226600D01*
X118948200Y-119049800D02*
X117348000Y-120650000D01*
X118948200Y-110083600D02*
X118948200Y-119049800D01*
X118059200Y-109194600D02*
X118948200Y-110083600D01*
X114782600Y-109194600D02*
X118059200Y-109194600D01*
X112750600Y-111226600D02*
X114782600Y-109194600D01*
X110490000Y-99555300D02*
X110490000Y-101422200D01*
X110045500Y-109740700D02*
X111531400Y-111226600D01*
X110045500Y-101866700D02*
X110045500Y-109740700D01*
X110490000Y-101422200D02*
X110045500Y-101866700D01*
X114274600Y-85166200D02*
X113093500Y-83985100D01*
X114274600Y-95377000D02*
X114274600Y-85166200D01*
X101955600Y-105943400D02*
X102285800Y-105943400D01*
X102285800Y-105943400D02*
X107086400Y-101142800D01*
X108356400Y-98285300D02*
X111760000Y-98285300D01*
X107086400Y-99555300D02*
X108356400Y-98285300D01*
X107086400Y-101142800D02*
X107086400Y-99555300D01*
X111760000Y-98285300D02*
X111760000Y-97891600D01*
X111760000Y-97891600D02*
X114274600Y-95377000D01*
X101955600Y-105943400D02*
X102908100Y-105943400D01*
D41*
X102590600Y-105943400D02*
X101955600Y-105943400D01*
D42*
X111760000Y-100825300D02*
X111848900Y-100825300D01*
X111848900Y-100825300D02*
X117348000Y-95326200D01*
X117348000Y-95326200D02*
X117348000Y-95250000D01*
X111760000Y-100825300D02*
X111760000Y-103378000D01*
X111760000Y-103378000D02*
X111531400Y-103606600D01*
X101955600Y-103403400D02*
X102793800Y-103403400D01*
X102793800Y-103403400D02*
X104876600Y-101320600D01*
X104876600Y-96850200D02*
X112903000Y-88823800D01*
X104876600Y-101320600D02*
X104876600Y-96850200D01*
X112903000Y-88823800D02*
X112903000Y-91351100D01*
X112903000Y-91351100D02*
X111836200Y-92417900D01*
D41*
X101955600Y-103403400D02*
X102463600Y-103403400D01*
D42*
X105473500Y-83985100D02*
X105473500Y-88633300D01*
X105473500Y-88633300D02*
X105283000Y-88823800D01*
X103162100Y-92608400D02*
X103162100Y-90944700D01*
X103162100Y-90944700D02*
X105283000Y-88823800D01*
D41*
X100622100Y-92608400D02*
X100622100Y-96989900D01*
X100622100Y-96989900D02*
X101955600Y-98323400D01*
D42*
X101701600Y-114388900D02*
X100393500Y-115697000D01*
X107010200Y-114388900D02*
X101701600Y-114388900D01*
X108280200Y-115658900D02*
X111163100Y-115658900D01*
X111163100Y-115658900D02*
X116332000Y-110490000D01*
X116332000Y-110490000D02*
X117348000Y-110490000D01*
D41*
X114971598Y-87793598D02*
X117348000Y-90170000D01*
X114971598Y-83119998D02*
X114971598Y-87793598D01*
X114376200Y-82524600D02*
X114971598Y-83119998D01*
X114376200Y-71440040D02*
X114376200Y-82524600D01*
X113538000Y-70601840D02*
X114376200Y-71440040D01*
X96139000Y-59004200D02*
X96139000Y-62331600D01*
X96139000Y-62331600D02*
X96164400Y-62357000D01*
D42*
X121539000Y-95631000D02*
X121539000Y-95669100D01*
X121539000Y-95669100D02*
X123266200Y-97396300D01*
X123266200Y-101574600D02*
X121589800Y-103251000D01*
X123266200Y-97396300D02*
X123266200Y-101574600D01*
X121539000Y-95631000D02*
X120713500Y-95631000D01*
X120713500Y-95631000D02*
X119303800Y-94221300D01*
X119303800Y-94221300D02*
X119303800Y-92125800D01*
X119303800Y-92125800D02*
X117348000Y-90170000D01*
D41*
X108402120Y-45989240D02*
X110474760Y-45989240D01*
X110474760Y-45989240D02*
X113284000Y-43180000D01*
X88646000Y-52324000D02*
X88646000Y-45212000D01*
X90718640Y-43139360D02*
X105552240Y-43139360D01*
X105552240Y-43139360D02*
X108402120Y-45989240D01*
X88646000Y-45212000D02*
X90718640Y-43139360D01*
X115671600Y-85841840D02*
X117348000Y-87630000D01*
X115671600Y-71175880D02*
X115671600Y-85841840D01*
X114909600Y-70525640D02*
X115671600Y-71175880D01*
X103746300Y-51384200D02*
X103746300Y-54165500D01*
X105460800Y-57340500D02*
X107035600Y-58915300D01*
X105460800Y-55880000D02*
X105460800Y-57340500D01*
X103746300Y-54165500D02*
X105460800Y-55880000D01*
D42*
X118135400Y-87630000D02*
X118808500Y-87630000D01*
X119976900Y-91401900D02*
X121793000Y-93218000D01*
X119976900Y-88798400D02*
X119976900Y-91401900D01*
X118808500Y-87630000D02*
X119976900Y-88798400D01*
X117348000Y-87630000D02*
X118135400Y-87630000D01*
X118135400Y-87630000D02*
X118338600Y-87630000D01*
X118338600Y-87630000D02*
X121132600Y-84836000D01*
X121132600Y-84836000D02*
X121793000Y-84836000D01*
X117348000Y-87630000D02*
X117170200Y-87630000D01*
D41*
X88722200Y-55880000D02*
X89789000Y-55880000D01*
X92202000Y-53467000D02*
X92202000Y-45720000D01*
X89789000Y-55880000D02*
X92202000Y-53467000D01*
X92202000Y-45720000D02*
X92202000Y-48260000D01*
X92202000Y-48260000D02*
X96252736Y-52310736D01*
X101346000Y-52324000D02*
X96252736Y-52310736D01*
X109639100Y-48221900D02*
X109639100Y-51003200D01*
X109639100Y-51003200D02*
X109969300Y-51333400D01*
X113284000Y-55880000D02*
X113284000Y-49364900D01*
X105613200Y-48221900D02*
X103380540Y-45989240D01*
X112141000Y-48221900D02*
X109639100Y-48221900D01*
X109639100Y-48221900D02*
X105613200Y-48221900D01*
X113284000Y-49364900D02*
X112141000Y-48221900D01*
X103380540Y-45989240D02*
X103322120Y-45989240D01*
X103322120Y-45989240D02*
X97449640Y-45887640D01*
X97449640Y-45887640D02*
X97282000Y-45720000D01*
X102986840Y-46324520D02*
X103322120Y-45989240D01*
X140258800Y-59283600D02*
X140258800Y-56794400D01*
X140258800Y-56794400D02*
X139649200Y-56184800D01*
D39*
X149098000Y-55880000D02*
X149098000Y-54991000D01*
X149098000Y-54991000D02*
X146304000Y-51308000D01*
X146304000Y-51308000D02*
X144780000Y-51308000D01*
X141986000Y-51308000D02*
X144780000Y-51308000D01*
X144780000Y-51308000D02*
X144018000Y-51308000D01*
X144018000Y-51308000D02*
X144780000Y-51308000D01*
X141986000Y-51308000D02*
X141986000Y-53848000D01*
X141986000Y-53848000D02*
X139649200Y-56184800D01*
D40*
X149098000Y-55880000D02*
X149098000Y-55245000D01*
D39*
X138785600Y-56184800D02*
X139649200Y-56184800D01*
X150584440Y-44487560D02*
X150584440Y-42692320D01*
X144780000Y-51308000D02*
X144780000Y-50292000D01*
X144780000Y-50292000D02*
X150584440Y-44487560D01*
X138785600Y-56184800D02*
X125272800Y-56184800D01*
X125272800Y-56184800D02*
X124460000Y-55372000D01*
D40*
X114291100Y-40424100D02*
X114688620Y-40424100D01*
X114688620Y-40424100D02*
X117627400Y-43362880D01*
X117627400Y-43362880D02*
X117627400Y-48539400D01*
X117627400Y-48539400D02*
X124460000Y-55372000D01*
X138785600Y-56184800D02*
X140258800Y-56184800D01*
X137972800Y-55372000D02*
X138785600Y-56184800D01*
X149098000Y-55880000D02*
X149098000Y-55118000D01*
D41*
X96342200Y-55880000D02*
X96342200Y-55930800D01*
X96342200Y-55930800D02*
X94437200Y-57835800D01*
X94437200Y-63855600D02*
X96278700Y-65697100D01*
X94437200Y-57835800D02*
X94437200Y-63855600D01*
X96342200Y-55880000D02*
X94107000Y-55880000D01*
X90982800Y-59004200D02*
X88519000Y-59004200D01*
X94107000Y-55880000D02*
X90982800Y-59004200D01*
X99834700Y-60452000D02*
X105156000Y-60452000D01*
X108521500Y-60401200D02*
X109969300Y-58953400D01*
X105206800Y-60401200D02*
X108521500Y-60401200D01*
X105156000Y-60452000D02*
X105206800Y-60401200D01*
X109969300Y-58953400D02*
X109969300Y-55321200D01*
X108521500Y-52781200D02*
X107035600Y-51295300D01*
X108521500Y-53873400D02*
X108521500Y-52781200D01*
X109969300Y-55321200D02*
X108521500Y-53873400D01*
G36*
X151082487Y-73779052D02*
X150776084Y-73574320D01*
X150393400Y-73498200D01*
X150021449Y-73498200D01*
X149862799Y-73260763D01*
X149814065Y-73228200D01*
X149862799Y-73195637D01*
X150242151Y-72627896D01*
X150375362Y-71958200D01*
X150242151Y-71288504D01*
X149862799Y-70720763D01*
X149814065Y-70688200D01*
X149862799Y-70655637D01*
X150242151Y-70087896D01*
X150375362Y-69418200D01*
X150242151Y-68748504D01*
X149862799Y-68180763D01*
X149295058Y-67801411D01*
X148625362Y-67668200D01*
X147945038Y-67668200D01*
X147275342Y-67801411D01*
X146707601Y-68180763D01*
X146328249Y-68748504D01*
X146195038Y-69418200D01*
X146328249Y-70087896D01*
X146707601Y-70655637D01*
X146756335Y-70688200D01*
X146707601Y-70720763D01*
X146555705Y-70948091D01*
X145983200Y-70375586D01*
X145983200Y-65989200D01*
X145907080Y-65606517D01*
X145690307Y-65282093D01*
X145690304Y-65282091D01*
X144026510Y-63618296D01*
X144044000Y-63530366D01*
X144044000Y-63469634D01*
X143926013Y-62876475D01*
X143590016Y-62373618D01*
X143087159Y-62037621D01*
X142494000Y-61919634D01*
X141900841Y-62037621D01*
X141397984Y-62373618D01*
X141061987Y-62876475D01*
X140944000Y-63469634D01*
X140944000Y-63530366D01*
X141020334Y-63914120D01*
X140724510Y-63618296D01*
X140742000Y-63530366D01*
X140742000Y-63469634D01*
X140624013Y-62876475D01*
X140288016Y-62373618D01*
X139785159Y-62037621D01*
X139192000Y-61919634D01*
X138598841Y-62037621D01*
X138095984Y-62373618D01*
X137759987Y-62876475D01*
X137642000Y-63469634D01*
X137642000Y-63530366D01*
X137759987Y-64123525D01*
X138095984Y-64626382D01*
X138598841Y-64962379D01*
X139192000Y-65080366D01*
X139330586Y-65052799D01*
X140034291Y-65756504D01*
X140034293Y-65756507D01*
X140358717Y-65973280D01*
X140741400Y-66049400D01*
X141978186Y-66049400D01*
X142941800Y-67013013D01*
X142941800Y-69328216D01*
X142729907Y-69116323D01*
X142277357Y-69568874D01*
X141913983Y-69641154D01*
X141828881Y-69889195D01*
X142494000Y-70554315D01*
X142776843Y-70271472D01*
X142941800Y-70436429D01*
X142941800Y-71803571D01*
X142776843Y-71968528D01*
X142494000Y-71685685D01*
X141828881Y-72350805D01*
X141913983Y-72598846D01*
X142268677Y-72662446D01*
X142729907Y-73123677D01*
X142977800Y-72875784D01*
X143017920Y-73077484D01*
X143234693Y-73401907D01*
X145038093Y-75205307D01*
X145362516Y-75422080D01*
X145745200Y-75498200D01*
X146548951Y-75498200D01*
X146707601Y-75735637D01*
X146791776Y-75791881D01*
X146398770Y-76280702D01*
X146498528Y-76538200D01*
X147635200Y-76538200D01*
X147635200Y-76186569D01*
X147945038Y-76248200D01*
X148625362Y-76248200D01*
X148935200Y-76186569D01*
X148935200Y-76538200D01*
X149555200Y-76538200D01*
X149555200Y-77538200D01*
X148935200Y-77538200D01*
X148935200Y-77813507D01*
X147635200Y-77813507D01*
X147635200Y-77538200D01*
X146498528Y-77538200D01*
X146398770Y-77795698D01*
X146541101Y-77972729D01*
X146452002Y-78030062D01*
X146280754Y-78280692D01*
X146220507Y-78578200D01*
X146220507Y-80578200D01*
X146272804Y-80856133D01*
X146437062Y-81111398D01*
X146687692Y-81282646D01*
X146985200Y-81342893D01*
X149585200Y-81342893D01*
X149863133Y-81290596D01*
X150104600Y-81135217D01*
X150104600Y-87256095D01*
X149803058Y-87054611D01*
X149133362Y-86921400D01*
X148453038Y-86921400D01*
X147783342Y-87054611D01*
X147215601Y-87433963D01*
X146836249Y-88001704D01*
X146703038Y-88671400D01*
X146836249Y-89341096D01*
X147215601Y-89908837D01*
X147264335Y-89941400D01*
X147215601Y-89973963D01*
X146836249Y-90541704D01*
X146703038Y-91211400D01*
X146836249Y-91881096D01*
X147215601Y-92448837D01*
X147264335Y-92481400D01*
X147215601Y-92513963D01*
X146836249Y-93081704D01*
X146703038Y-93751400D01*
X146836249Y-94421096D01*
X147215601Y-94988837D01*
X147299776Y-95045081D01*
X146906770Y-95533902D01*
X147006528Y-95791400D01*
X148143200Y-95791400D01*
X148143200Y-95439769D01*
X148453038Y-95501400D01*
X149133362Y-95501400D01*
X149443200Y-95439769D01*
X149443200Y-95791400D01*
X150579872Y-95791400D01*
X150679630Y-95533902D01*
X150286624Y-95045081D01*
X150370799Y-94988837D01*
X150529449Y-94751400D01*
X150994737Y-94751400D01*
X150881044Y-121924000D01*
X146923000Y-121924000D01*
X146923000Y-119159214D01*
X147483307Y-118598907D01*
X147483307Y-118960000D01*
X147535604Y-119237933D01*
X147699862Y-119493198D01*
X147950492Y-119664446D01*
X148248000Y-119724693D01*
X149948000Y-119724693D01*
X150225933Y-119672396D01*
X150481198Y-119508138D01*
X150652446Y-119257508D01*
X150712693Y-118960000D01*
X150712693Y-117260000D01*
X150660396Y-116982067D01*
X150496138Y-116726802D01*
X150322842Y-116608394D01*
X150607553Y-116182293D01*
X150729346Y-115570000D01*
X150607553Y-114957707D01*
X150260717Y-114438629D01*
X150053244Y-114300000D01*
X150260717Y-114161371D01*
X150607553Y-113642293D01*
X150729346Y-113030000D01*
X150607553Y-112417707D01*
X150260717Y-111898629D01*
X150053244Y-111760000D01*
X150260717Y-111621371D01*
X150607553Y-111102293D01*
X150729346Y-110490000D01*
X150607553Y-109877707D01*
X150260717Y-109358629D01*
X150053244Y-109220000D01*
X150260717Y-109081371D01*
X150607553Y-108562293D01*
X150729346Y-107950000D01*
X150607553Y-107337707D01*
X150260717Y-106818629D01*
X150053244Y-106680000D01*
X150260717Y-106541371D01*
X150607553Y-106022293D01*
X150729346Y-105410000D01*
X150607553Y-104797707D01*
X150260717Y-104278629D01*
X149741639Y-103931793D01*
X149129346Y-103810000D01*
X149066654Y-103810000D01*
X148454361Y-103931793D01*
X147935283Y-104278629D01*
X147588447Y-104797707D01*
X147466654Y-105410000D01*
X147588447Y-106022293D01*
X147935283Y-106541371D01*
X148142756Y-106680000D01*
X147935283Y-106818629D01*
X147588447Y-107337707D01*
X147466654Y-107950000D01*
X147588447Y-108562293D01*
X147935283Y-109081371D01*
X148142756Y-109220000D01*
X147935283Y-109358629D01*
X147588447Y-109877707D01*
X147466654Y-110490000D01*
X147502679Y-110671108D01*
X145219193Y-112954594D01*
X145219193Y-112784000D01*
X145166896Y-112506067D01*
X145002638Y-112250802D01*
X144752008Y-112079554D01*
X144454500Y-112019307D01*
X143454500Y-112019307D01*
X143176567Y-112071604D01*
X142921302Y-112235862D01*
X142750054Y-112486492D01*
X142689807Y-112784000D01*
X142689807Y-113304004D01*
X142664484Y-113303982D01*
X142664717Y-113036450D01*
X142474816Y-112576857D01*
X142123493Y-112224919D01*
X141664231Y-112034217D01*
X141166950Y-112033783D01*
X140707357Y-112223684D01*
X140355419Y-112575007D01*
X140164717Y-113034269D01*
X140164283Y-113531550D01*
X140354184Y-113991143D01*
X140705507Y-114343081D01*
X141164769Y-114533783D01*
X141434516Y-114534018D01*
X141434283Y-114801550D01*
X141624184Y-115261143D01*
X141975507Y-115613081D01*
X142389006Y-115784780D01*
X140516893Y-117656893D01*
X140489242Y-117698275D01*
X140223261Y-117875998D01*
X140188767Y-117875998D01*
X140176601Y-117846627D01*
X139963372Y-117633398D01*
X139934002Y-117621233D01*
X139934002Y-117518000D01*
X139066918Y-117518000D01*
X139095119Y-117435805D01*
X138430000Y-116770685D01*
X137764881Y-117435805D01*
X137793082Y-117518000D01*
X137433998Y-117518000D01*
X137433998Y-117621233D01*
X137404628Y-117633398D01*
X137271000Y-117767026D01*
X137271000Y-116798314D01*
X137864315Y-116205000D01*
X138995685Y-116205000D01*
X139660805Y-116870119D01*
X139908846Y-116785017D01*
X140018239Y-116174936D01*
X139908846Y-115624983D01*
X139660805Y-115539881D01*
X138995685Y-116205000D01*
X137864315Y-116205000D01*
X137271000Y-115611686D01*
X137271000Y-114974195D01*
X137764881Y-114974195D01*
X138430000Y-115639315D01*
X139095119Y-114974195D01*
X139010017Y-114726154D01*
X138399936Y-114616761D01*
X137849983Y-114726154D01*
X137764881Y-114974195D01*
X137271000Y-114974195D01*
X137271000Y-114173005D01*
X137271001Y-114173000D01*
X137194880Y-113790316D01*
X137023822Y-113534311D01*
X136978107Y-113465893D01*
X136978104Y-113465891D01*
X134099915Y-110587702D01*
X134100262Y-110190564D01*
X133870559Y-109634640D01*
X133456292Y-109219649D01*
X133772126Y-108904367D01*
X134024446Y-109157128D01*
X134410226Y-109317318D01*
X134827942Y-109317682D01*
X135214000Y-109158166D01*
X135509628Y-108863054D01*
X135669818Y-108477274D01*
X135670182Y-108059558D01*
X135545000Y-107756595D01*
X135545000Y-106611107D01*
X136451723Y-106611107D01*
X137320065Y-107479449D01*
X136997987Y-107961475D01*
X136880000Y-108554634D01*
X136880000Y-108615366D01*
X136997987Y-109208525D01*
X137333984Y-109711382D01*
X137836841Y-110047379D01*
X138430000Y-110165366D01*
X139023159Y-110047379D01*
X139526016Y-109711382D01*
X139862013Y-109208525D01*
X139897983Y-109027693D01*
X139938080Y-108967683D01*
X140014200Y-108585000D01*
X139968400Y-108354748D01*
X140121307Y-108201841D01*
X140121307Y-109113500D01*
X140173604Y-109391433D01*
X140337862Y-109646698D01*
X140588492Y-109817946D01*
X140886000Y-109878193D01*
X143086000Y-109878193D01*
X143363933Y-109825896D01*
X143619198Y-109661638D01*
X143790446Y-109411008D01*
X143850693Y-109113500D01*
X143850693Y-107563021D01*
X144852107Y-106561607D01*
X144852761Y-106560629D01*
X144853737Y-106559973D01*
X144961115Y-106398465D01*
X145068879Y-106237184D01*
X145069108Y-106236031D01*
X145069761Y-106235049D01*
X145107184Y-106044614D01*
X145145000Y-105854500D01*
X145144770Y-105853345D01*
X145144997Y-105852192D01*
X145126484Y-97831400D01*
X146728507Y-97831400D01*
X146728507Y-99831400D01*
X146780804Y-100109333D01*
X146945062Y-100364598D01*
X147195692Y-100535846D01*
X147493200Y-100596093D01*
X150093200Y-100596093D01*
X150371133Y-100543796D01*
X150626398Y-100379538D01*
X150797646Y-100128908D01*
X150857893Y-99831400D01*
X150857893Y-97831400D01*
X150805596Y-97553467D01*
X150641338Y-97298202D01*
X150536684Y-97226695D01*
X150679630Y-97048898D01*
X150579872Y-96791400D01*
X149443200Y-96791400D01*
X149443200Y-97066707D01*
X148143200Y-97066707D01*
X148143200Y-96791400D01*
X147006528Y-96791400D01*
X146906770Y-97048898D01*
X147049101Y-97225929D01*
X146960002Y-97283262D01*
X146788754Y-97533892D01*
X146728507Y-97831400D01*
X145126484Y-97831400D01*
X145114517Y-92646732D01*
X145089443Y-92522177D01*
X145081804Y-92395343D01*
X145051281Y-92332613D01*
X145037514Y-92264226D01*
X144966682Y-92158746D01*
X144911088Y-92044490D01*
X144858882Y-91998215D01*
X144819993Y-91940303D01*
X144714185Y-91869957D01*
X144619102Y-91785676D01*
X142460822Y-90524297D01*
X142393551Y-90186104D01*
X142014199Y-89618363D01*
X141965465Y-89585800D01*
X142014199Y-89553237D01*
X142393551Y-88985496D01*
X142526762Y-88315800D01*
X142393551Y-87646104D01*
X142014199Y-87078363D01*
X141965465Y-87045800D01*
X142014199Y-87013237D01*
X142393551Y-86445496D01*
X142526762Y-85775800D01*
X142393551Y-85106104D01*
X142014199Y-84538363D01*
X141446458Y-84159011D01*
X140776762Y-84025800D01*
X140096438Y-84025800D01*
X139426742Y-84159011D01*
X138859001Y-84538363D01*
X138479649Y-85106104D01*
X138346438Y-85775800D01*
X138479649Y-86445496D01*
X138859001Y-87013237D01*
X138907735Y-87045800D01*
X138859001Y-87078363D01*
X138479649Y-87646104D01*
X138346438Y-88315800D01*
X138479649Y-88985496D01*
X138859001Y-89553237D01*
X138907735Y-89585800D01*
X138859001Y-89618363D01*
X138479649Y-90186104D01*
X138346438Y-90855800D01*
X138479649Y-91525496D01*
X138667398Y-91806482D01*
X138603402Y-91847662D01*
X138432154Y-92098292D01*
X138371907Y-92395800D01*
X138371907Y-94395800D01*
X138424204Y-94673733D01*
X138588462Y-94928998D01*
X138839092Y-95100246D01*
X139136600Y-95160493D01*
X139511600Y-95160493D01*
X139511600Y-97340812D01*
X139354901Y-97497511D01*
X139048559Y-97292821D01*
X138455400Y-97174834D01*
X137862241Y-97292821D01*
X137359384Y-97628818D01*
X137023387Y-98131675D01*
X136905400Y-98724834D01*
X136905400Y-98785566D01*
X137023387Y-99378725D01*
X137359384Y-99881582D01*
X137862241Y-100217579D01*
X138455400Y-100335566D01*
X138998520Y-100227532D01*
X138998520Y-104678736D01*
X138691307Y-104371523D01*
X138238757Y-104824074D01*
X137875383Y-104896354D01*
X137790281Y-105144395D01*
X138455400Y-105809515D01*
X138738243Y-105526672D01*
X138998520Y-105786949D01*
X138998520Y-106708332D01*
X138657054Y-107049798D01*
X138541285Y-107026770D01*
X138455400Y-106940885D01*
X138382129Y-107014156D01*
X138032526Y-107083697D01*
X137606872Y-106658043D01*
X137889715Y-106375200D01*
X137224595Y-105710081D01*
X136976554Y-105795183D01*
X136912954Y-106149877D01*
X136451723Y-106611107D01*
X135545000Y-106611107D01*
X135545000Y-95123005D01*
X135545001Y-95123000D01*
X135474589Y-94769018D01*
X135274074Y-94468926D01*
X134067574Y-93262426D01*
X134011375Y-93224875D01*
X134099737Y-93012075D01*
X134100262Y-92410564D01*
X133870559Y-91854640D01*
X133456292Y-91439649D01*
X133869064Y-91027598D01*
X134099737Y-90472075D01*
X134100262Y-89870564D01*
X133870559Y-89314640D01*
X133456292Y-88899649D01*
X133869064Y-88487598D01*
X134099737Y-87932075D01*
X134100262Y-87330564D01*
X133870559Y-86774640D01*
X133456292Y-86359649D01*
X133869064Y-85947598D01*
X134099737Y-85392075D01*
X134100262Y-84790564D01*
X133870559Y-84234640D01*
X133456292Y-83819649D01*
X133726413Y-83550000D01*
X134366000Y-83550000D01*
X134748684Y-83473880D01*
X135073107Y-83257107D01*
X137359107Y-80971107D01*
X137575880Y-80646683D01*
X137652000Y-80264000D01*
X137652000Y-76987765D01*
X138228961Y-76988268D01*
X138798857Y-76752792D01*
X138882990Y-76668805D01*
X142256881Y-76668805D01*
X142341983Y-76916846D01*
X142952064Y-77026239D01*
X143502017Y-76916846D01*
X143587119Y-76668805D01*
X142922000Y-76003685D01*
X142256881Y-76668805D01*
X138882990Y-76668805D01*
X139235260Y-76317151D01*
X139471730Y-75747667D01*
X139471973Y-75468064D01*
X141333761Y-75468064D01*
X141443154Y-76018017D01*
X141691195Y-76103119D01*
X142356315Y-75438000D01*
X143487685Y-75438000D01*
X144152805Y-76103119D01*
X144400846Y-76018017D01*
X144510239Y-75407936D01*
X144400846Y-74857983D01*
X144152805Y-74772881D01*
X143487685Y-75438000D01*
X142356315Y-75438000D01*
X141691195Y-74772881D01*
X141443154Y-74857983D01*
X141333761Y-75468064D01*
X139471973Y-75468064D01*
X139472268Y-75131039D01*
X139236792Y-74561143D01*
X138883463Y-74207195D01*
X142256881Y-74207195D01*
X142922000Y-74872315D01*
X143587119Y-74207195D01*
X143502017Y-73959154D01*
X142891936Y-73849761D01*
X142341983Y-73959154D01*
X142256881Y-74207195D01*
X138883463Y-74207195D01*
X138801151Y-74124740D01*
X138231667Y-73888270D01*
X137652000Y-73887764D01*
X137652000Y-72390000D01*
X137644204Y-72350805D01*
X138526881Y-72350805D01*
X138611983Y-72598846D01*
X139222064Y-72708239D01*
X139772017Y-72598846D01*
X139857119Y-72350805D01*
X139192000Y-71685685D01*
X138526881Y-72350805D01*
X137644204Y-72350805D01*
X137575880Y-72007317D01*
X137575880Y-72007316D01*
X137500693Y-71894791D01*
X137500693Y-71150064D01*
X137603761Y-71150064D01*
X137713154Y-71700017D01*
X137961195Y-71785119D01*
X138626315Y-71120000D01*
X139757685Y-71120000D01*
X140422805Y-71785119D01*
X140670846Y-71700017D01*
X140769457Y-71150064D01*
X140905761Y-71150064D01*
X141015154Y-71700017D01*
X141263195Y-71785119D01*
X141928315Y-71120000D01*
X141263195Y-70454881D01*
X141015154Y-70539983D01*
X140905761Y-71150064D01*
X140769457Y-71150064D01*
X140780239Y-71089936D01*
X140670846Y-70539983D01*
X140422805Y-70454881D01*
X139757685Y-71120000D01*
X138626315Y-71120000D01*
X137961195Y-70454881D01*
X137713154Y-70539983D01*
X137603761Y-71150064D01*
X137500693Y-71150064D01*
X137500693Y-70274000D01*
X137448396Y-69996067D01*
X137379626Y-69889195D01*
X138526881Y-69889195D01*
X139192000Y-70554315D01*
X139857119Y-69889195D01*
X139772017Y-69641154D01*
X139161936Y-69531761D01*
X138611983Y-69641154D01*
X138526881Y-69889195D01*
X137379626Y-69889195D01*
X137284138Y-69740802D01*
X137033508Y-69569554D01*
X136736000Y-69509307D01*
X134536000Y-69509307D01*
X134258067Y-69561604D01*
X134002802Y-69725862D01*
X133831554Y-69976492D01*
X133771307Y-70274000D01*
X133771307Y-72474000D01*
X133823604Y-72751933D01*
X133987862Y-73007198D01*
X134238492Y-73178446D01*
X134536000Y-73238693D01*
X135652000Y-73238693D01*
X135652000Y-79849786D01*
X133951786Y-81550000D01*
X133726171Y-81550000D01*
X133456292Y-81279649D01*
X133869064Y-80867598D01*
X134099737Y-80312075D01*
X134100262Y-79710564D01*
X133870559Y-79154640D01*
X133456292Y-78739649D01*
X133869064Y-78327598D01*
X134099737Y-77772075D01*
X134100262Y-77170564D01*
X133870559Y-76614640D01*
X133445598Y-76188936D01*
X132890075Y-75958263D01*
X132288564Y-75957738D01*
X131732640Y-76187441D01*
X131306936Y-76612402D01*
X131076263Y-77167925D01*
X131075738Y-77769436D01*
X131305441Y-78325360D01*
X131719708Y-78740351D01*
X131306936Y-79152402D01*
X131076263Y-79707925D01*
X131075738Y-80309436D01*
X131305441Y-80865360D01*
X131719708Y-81280351D01*
X131306936Y-81692402D01*
X131076263Y-82247925D01*
X131075738Y-82849436D01*
X131305441Y-83405360D01*
X131719708Y-83820351D01*
X131306936Y-84232402D01*
X131076263Y-84787925D01*
X131075738Y-85389436D01*
X131305441Y-85945360D01*
X131719708Y-86360351D01*
X131306936Y-86772402D01*
X131076263Y-87327925D01*
X131075821Y-87834031D01*
X130465000Y-88444852D01*
X130465000Y-68834005D01*
X130465001Y-68834000D01*
X130394589Y-68480018D01*
X130194074Y-68179926D01*
X129703000Y-67688852D01*
X129703000Y-66324609D01*
X129778739Y-66274002D01*
X129813233Y-66274002D01*
X129825399Y-66303373D01*
X130038628Y-66516602D01*
X130317225Y-66632000D01*
X130703500Y-66632000D01*
X130893000Y-66442500D01*
X130893000Y-65449000D01*
X131743000Y-65449000D01*
X131743000Y-66442500D01*
X131932500Y-66632000D01*
X132318775Y-66632000D01*
X132597372Y-66516602D01*
X132810601Y-66303373D01*
X132926000Y-66024776D01*
X132926000Y-65638500D01*
X132736500Y-65449000D01*
X131743000Y-65449000D01*
X130893000Y-65449000D01*
X130468000Y-65449000D01*
X130468000Y-64599000D01*
X130893000Y-64599000D01*
X130893000Y-63605500D01*
X131743000Y-63605500D01*
X131743000Y-64599000D01*
X132736500Y-64599000D01*
X132760637Y-64574863D01*
X133969125Y-64574863D01*
X134410139Y-65150264D01*
X134815143Y-65420840D01*
X135086000Y-65329244D01*
X135086000Y-64304000D01*
X136186000Y-64304000D01*
X136186000Y-65329244D01*
X136456857Y-65420840D01*
X136861861Y-65150264D01*
X137302875Y-64574863D01*
X137221264Y-64304000D01*
X136186000Y-64304000D01*
X135086000Y-64304000D01*
X134050736Y-64304000D01*
X133969125Y-64574863D01*
X132760637Y-64574863D01*
X132926000Y-64409500D01*
X132926000Y-64023224D01*
X132810601Y-63744627D01*
X132597372Y-63531398D01*
X132318775Y-63416000D01*
X131932500Y-63416000D01*
X131743000Y-63605500D01*
X130893000Y-63605500D01*
X130703500Y-63416000D01*
X130317225Y-63416000D01*
X130038628Y-63531398D01*
X129825399Y-63744627D01*
X129813233Y-63773998D01*
X129778739Y-63773998D01*
X129390293Y-63514447D01*
X128778000Y-63392654D01*
X128165707Y-63514447D01*
X127646629Y-63861283D01*
X127508000Y-64068756D01*
X127369371Y-63861283D01*
X126850293Y-63514447D01*
X126238000Y-63392654D01*
X125625707Y-63514447D01*
X125106629Y-63861283D01*
X124968000Y-64068756D01*
X124829371Y-63861283D01*
X124310293Y-63514447D01*
X123698000Y-63392654D01*
X123085707Y-63514447D01*
X122566629Y-63861283D01*
X122428000Y-64068756D01*
X122289371Y-63861283D01*
X121770293Y-63514447D01*
X121158000Y-63392654D01*
X120545707Y-63514447D01*
X120026629Y-63861283D01*
X119888000Y-64068756D01*
X119749371Y-63861283D01*
X119230293Y-63514447D01*
X118618000Y-63392654D01*
X118005707Y-63514447D01*
X117486629Y-63861283D01*
X117139793Y-64380361D01*
X117018000Y-64992654D01*
X117018000Y-65055346D01*
X117139793Y-65667639D01*
X117486629Y-66186717D01*
X118005707Y-66533553D01*
X118618000Y-66655346D01*
X119230293Y-66533553D01*
X119749371Y-66186717D01*
X119888000Y-65979244D01*
X120026629Y-66186717D01*
X120545707Y-66533553D01*
X121158000Y-66655346D01*
X121409636Y-66605292D01*
X126318246Y-71513901D01*
X126318246Y-75961373D01*
X126334109Y-76041121D01*
X126332372Y-76122411D01*
X126368976Y-76216412D01*
X126388657Y-76315355D01*
X126405200Y-76340113D01*
X126405200Y-118846600D01*
X126428609Y-118964287D01*
X126436194Y-119084042D01*
X126463509Y-119139739D01*
X126475611Y-119200582D01*
X126542276Y-119300353D01*
X126595111Y-119408089D01*
X131117476Y-125328673D01*
X131076263Y-125427925D01*
X131075738Y-126029436D01*
X131305441Y-126585360D01*
X131730402Y-127011064D01*
X132285925Y-127241737D01*
X132887436Y-127242262D01*
X133443360Y-127012559D01*
X133869064Y-126587598D01*
X134037865Y-126181079D01*
X134928893Y-127072107D01*
X135078594Y-127172134D01*
X135260916Y-127445000D01*
X112883002Y-127445000D01*
X112883002Y-127321963D01*
X113029264Y-127209861D01*
X113299840Y-126804857D01*
X113208244Y-126534000D01*
X112183000Y-126534000D01*
X112183000Y-127084000D01*
X111083000Y-127084000D01*
X111083000Y-126534000D01*
X110057756Y-126534000D01*
X109966160Y-126804857D01*
X110236736Y-127209861D01*
X110382998Y-127321963D01*
X110382998Y-127445000D01*
X109096066Y-127445000D01*
X105846536Y-127237859D01*
X105877693Y-127084000D01*
X105877693Y-125163143D01*
X109966160Y-125163143D01*
X110057756Y-125434000D01*
X111083000Y-125434000D01*
X111083000Y-124398736D01*
X112183000Y-124398736D01*
X112183000Y-125434000D01*
X113208244Y-125434000D01*
X113299840Y-125163143D01*
X113029264Y-124758139D01*
X112453863Y-124317125D01*
X112183000Y-124398736D01*
X111083000Y-124398736D01*
X110812137Y-124317125D01*
X110236736Y-124758139D01*
X109966160Y-125163143D01*
X105877693Y-125163143D01*
X105877693Y-124884000D01*
X105825396Y-124606067D01*
X105661138Y-124350802D01*
X105410508Y-124179554D01*
X105113000Y-124119307D01*
X102913000Y-124119307D01*
X102635067Y-124171604D01*
X102379802Y-124335862D01*
X102208554Y-124586492D01*
X102148307Y-124884000D01*
X102148307Y-124984000D01*
X102003865Y-124984000D01*
X101955896Y-124729067D01*
X101791638Y-124473802D01*
X101618342Y-124355394D01*
X101903053Y-123929293D01*
X102024846Y-123317000D01*
X101903053Y-122704707D01*
X101556217Y-122185629D01*
X101348744Y-122047000D01*
X101556217Y-121908371D01*
X101643996Y-121777000D01*
X101757286Y-121777000D01*
X102142701Y-122162414D01*
X102115134Y-122301000D01*
X102233121Y-122894159D01*
X102569118Y-123397016D01*
X103071975Y-123733013D01*
X103665134Y-123851000D01*
X103725866Y-123851000D01*
X104319025Y-123733013D01*
X104821882Y-123397016D01*
X105157879Y-122894159D01*
X105275866Y-122301000D01*
X105157879Y-121707841D01*
X104821882Y-121204984D01*
X104319025Y-120868987D01*
X103725866Y-120751000D01*
X103665134Y-120751000D01*
X103577204Y-120768490D01*
X103122415Y-120313701D01*
X103347634Y-120358500D01*
X103408366Y-120358500D01*
X104001525Y-120240513D01*
X104504382Y-119904516D01*
X104840379Y-119401659D01*
X104897307Y-119115461D01*
X109447732Y-119115461D01*
X109683208Y-119685357D01*
X110118849Y-120121760D01*
X110688333Y-120358230D01*
X111304961Y-120358768D01*
X111874857Y-120123292D01*
X112311260Y-119687651D01*
X112547730Y-119118167D01*
X112548268Y-118501539D01*
X112312792Y-117931643D01*
X111877151Y-117495240D01*
X111307667Y-117258770D01*
X110691039Y-117258232D01*
X110121143Y-117493708D01*
X109684740Y-117929349D01*
X109448270Y-118498833D01*
X109447732Y-119115461D01*
X104897307Y-119115461D01*
X104958366Y-118808500D01*
X104840379Y-118215341D01*
X104504382Y-117712484D01*
X104001525Y-117376487D01*
X103408366Y-117258500D01*
X103347634Y-117258500D01*
X103131112Y-117301569D01*
X102806500Y-117237000D01*
X101643996Y-117237000D01*
X101556217Y-117105629D01*
X101348744Y-116967000D01*
X101556217Y-116828371D01*
X101903053Y-116309293D01*
X102024846Y-115697000D01*
X101971224Y-115427424D01*
X102084748Y-115313900D01*
X106167360Y-115313900D01*
X106301207Y-115447981D01*
X106760469Y-115638683D01*
X107030216Y-115638918D01*
X107029983Y-115906450D01*
X107219884Y-116366043D01*
X107571207Y-116717981D01*
X108030469Y-116908683D01*
X108527750Y-116909117D01*
X108987343Y-116719216D01*
X109122896Y-116583900D01*
X111163100Y-116583900D01*
X111517083Y-116513489D01*
X111817174Y-116312974D01*
X116424800Y-111705347D01*
X116479708Y-111760351D01*
X116066936Y-112172402D01*
X115836263Y-112727925D01*
X115835821Y-113234031D01*
X114077726Y-114992126D01*
X113877211Y-115292217D01*
X113853948Y-115409169D01*
X113806800Y-115646200D01*
X113806800Y-119098452D01*
X111998826Y-120906426D01*
X111625167Y-120751270D01*
X111008539Y-120750732D01*
X110438643Y-120986208D01*
X110002240Y-121421849D01*
X109765770Y-121991333D01*
X109765232Y-122607961D01*
X110000708Y-123177857D01*
X110436349Y-123614260D01*
X111005833Y-123850730D01*
X111622461Y-123851268D01*
X112192357Y-123615792D01*
X112628760Y-123180151D01*
X112832814Y-122688734D01*
X115385874Y-120135674D01*
X115586389Y-119835582D01*
X115656801Y-119481600D01*
X115656800Y-119481595D01*
X115656800Y-116029348D01*
X115835755Y-115850393D01*
X115835738Y-115869436D01*
X116065441Y-116425360D01*
X116479708Y-116840351D01*
X116066936Y-117252402D01*
X115836263Y-117807925D01*
X115835738Y-118409436D01*
X116065441Y-118965360D01*
X116479708Y-119380351D01*
X116066936Y-119792402D01*
X115836263Y-120347925D01*
X115835738Y-120949436D01*
X116065441Y-121505360D01*
X116479708Y-121920351D01*
X116066936Y-122332402D01*
X115836263Y-122887925D01*
X115835738Y-123489436D01*
X116065441Y-124045360D01*
X116479708Y-124460351D01*
X116066936Y-124872402D01*
X115836263Y-125427925D01*
X115835738Y-126029436D01*
X116065441Y-126585360D01*
X116490402Y-127011064D01*
X117045925Y-127241737D01*
X117647436Y-127242262D01*
X118203360Y-127012559D01*
X118629064Y-126587598D01*
X118859737Y-126032075D01*
X118860262Y-125430564D01*
X118630559Y-124874640D01*
X118216292Y-124459649D01*
X118629064Y-124047598D01*
X118859737Y-123492075D01*
X118860262Y-122890564D01*
X118630559Y-122334640D01*
X118216292Y-121919649D01*
X118613862Y-121522774D01*
X118705283Y-121504589D01*
X118903325Y-121372261D01*
X120039532Y-121372261D01*
X120275008Y-121942157D01*
X120710649Y-122378560D01*
X121280133Y-122615030D01*
X121896761Y-122615568D01*
X122466657Y-122380092D01*
X122903060Y-121944451D01*
X123139530Y-121374967D01*
X123140068Y-120758339D01*
X122904592Y-120188443D01*
X122468951Y-119752040D01*
X121899467Y-119515570D01*
X121282839Y-119515032D01*
X120712943Y-119750508D01*
X120276540Y-120186149D01*
X120040070Y-120755633D01*
X120039532Y-121372261D01*
X118903325Y-121372261D01*
X119005374Y-121304074D01*
X122243874Y-118065574D01*
X122444389Y-117765482D01*
X122514801Y-117411500D01*
X122514800Y-117411495D01*
X122514800Y-117332033D01*
X122903060Y-116944451D01*
X123139530Y-116374967D01*
X123140068Y-115758339D01*
X122904592Y-115188443D01*
X122514800Y-114797969D01*
X122514800Y-112735693D01*
X122689800Y-112735693D01*
X122967733Y-112683396D01*
X123222998Y-112519138D01*
X123394246Y-112268508D01*
X123454493Y-111971000D01*
X123454493Y-110314455D01*
X125037874Y-108731074D01*
X125238389Y-108430982D01*
X125308801Y-108077000D01*
X125308800Y-108076995D01*
X125308800Y-79336905D01*
X125308801Y-79336900D01*
X125238389Y-78982918D01*
X125083469Y-78751064D01*
X125037874Y-78682826D01*
X125037871Y-78682824D01*
X123657693Y-77302645D01*
X123657693Y-76116000D01*
X123605396Y-75838067D01*
X123441138Y-75582802D01*
X123190508Y-75411554D01*
X122893000Y-75351307D01*
X120693000Y-75351307D01*
X120415067Y-75403604D01*
X120159802Y-75567862D01*
X119988554Y-75818492D01*
X119928307Y-76116000D01*
X119928307Y-78316000D01*
X119980604Y-78593933D01*
X120144862Y-78849198D01*
X120395492Y-79020446D01*
X120693000Y-79080693D01*
X122819446Y-79080693D01*
X123458800Y-79720047D01*
X123458800Y-84026874D01*
X123101148Y-83491608D01*
X122500964Y-83090579D01*
X121793000Y-82949756D01*
X121085036Y-83090579D01*
X120484852Y-83491608D01*
X120083823Y-84091792D01*
X119963436Y-84697016D01*
X118258511Y-86401941D01*
X118216292Y-86359649D01*
X118629064Y-85947598D01*
X118859737Y-85392075D01*
X118860262Y-84790564D01*
X118630559Y-84234640D01*
X118216292Y-83819649D01*
X118629064Y-83407598D01*
X118859737Y-82852075D01*
X118860262Y-82250564D01*
X118630559Y-81694640D01*
X118216292Y-81279649D01*
X118629064Y-80867598D01*
X118859737Y-80312075D01*
X118860262Y-79710564D01*
X118630559Y-79154640D01*
X118216292Y-78739649D01*
X118629064Y-78327598D01*
X118859737Y-77772075D01*
X118860262Y-77170564D01*
X118630559Y-76614640D01*
X118205598Y-76188936D01*
X117650075Y-75958263D01*
X117048564Y-75957738D01*
X116671600Y-76113496D01*
X116671600Y-71175880D01*
X116663803Y-71136683D01*
X116668484Y-71096990D01*
X116625979Y-70946529D01*
X116595480Y-70793197D01*
X116573277Y-70759967D01*
X116562411Y-70721504D01*
X116465564Y-70598764D01*
X116378707Y-70468773D01*
X116345476Y-70446569D01*
X116320720Y-70415194D01*
X115825433Y-69992549D01*
X115800266Y-69931640D01*
X115505154Y-69636012D01*
X115119374Y-69475822D01*
X114701658Y-69475458D01*
X114315600Y-69634974D01*
X114185799Y-69764548D01*
X114133554Y-69712212D01*
X113747774Y-69552022D01*
X113330058Y-69551658D01*
X112944000Y-69711174D01*
X112648372Y-70006286D01*
X112488182Y-70392066D01*
X112487818Y-70809782D01*
X112647334Y-71195840D01*
X112942446Y-71491468D01*
X113063808Y-71541862D01*
X113376200Y-71854254D01*
X113376200Y-82435346D01*
X112786539Y-82434832D01*
X112216643Y-82670308D01*
X111780240Y-83105949D01*
X111543770Y-83675433D01*
X111543232Y-84292061D01*
X111778708Y-84861957D01*
X112214349Y-85298360D01*
X112783833Y-85534830D01*
X113335563Y-85535311D01*
X113349600Y-85549348D01*
X113349600Y-87330929D01*
X113212667Y-87274070D01*
X112596039Y-87273532D01*
X112026143Y-87509008D01*
X111589740Y-87944649D01*
X111353270Y-88514133D01*
X111352789Y-89065863D01*
X107252926Y-93165726D01*
X107120600Y-93033400D01*
X106127100Y-93033400D01*
X106127100Y-94026900D01*
X106259426Y-94159226D01*
X104222526Y-96196126D01*
X104022011Y-96496217D01*
X104016547Y-96523689D01*
X103951600Y-96850200D01*
X103951600Y-97019987D01*
X103803738Y-96790202D01*
X103553108Y-96618954D01*
X103255600Y-96558707D01*
X101622100Y-96558707D01*
X101622100Y-93858896D01*
X101753471Y-93771117D01*
X101892100Y-93563644D01*
X102030729Y-93771117D01*
X102549807Y-94117953D01*
X103162100Y-94239746D01*
X103774393Y-94117953D01*
X104162839Y-93858402D01*
X104197333Y-93858402D01*
X104209499Y-93887773D01*
X104422728Y-94101002D01*
X104701325Y-94216400D01*
X105087600Y-94216400D01*
X105277100Y-94026900D01*
X105277100Y-93033400D01*
X104852100Y-93033400D01*
X104852100Y-92183400D01*
X105277100Y-92183400D01*
X105277100Y-91189900D01*
X106127100Y-91189900D01*
X106127100Y-92183400D01*
X107120600Y-92183400D01*
X107310100Y-91993900D01*
X107310100Y-91607624D01*
X107194701Y-91329027D01*
X106981472Y-91115798D01*
X106702875Y-91000400D01*
X106316600Y-91000400D01*
X106127100Y-91189900D01*
X105277100Y-91189900D01*
X105087600Y-91000400D01*
X104701325Y-91000400D01*
X104422728Y-91115798D01*
X104209499Y-91329027D01*
X104197333Y-91358398D01*
X104162839Y-91358398D01*
X104099123Y-91315824D01*
X105076235Y-90338712D01*
X105252634Y-90373800D01*
X105313366Y-90373800D01*
X105906525Y-90255813D01*
X106409382Y-89919816D01*
X106745379Y-89416959D01*
X106863366Y-88823800D01*
X106745379Y-88230641D01*
X106409382Y-87727784D01*
X106398500Y-87720513D01*
X106398500Y-85215675D01*
X106599882Y-85081116D01*
X106935879Y-84578259D01*
X107053866Y-83985100D01*
X106935879Y-83391941D01*
X106599882Y-82889084D01*
X106097025Y-82553087D01*
X105503866Y-82435100D01*
X105443134Y-82435100D01*
X104849975Y-82553087D01*
X104347118Y-82889084D01*
X104011121Y-83391941D01*
X103893134Y-83985100D01*
X104011121Y-84578259D01*
X104347118Y-85081116D01*
X104548500Y-85215675D01*
X104548500Y-87465938D01*
X104156618Y-87727784D01*
X103820621Y-88230641D01*
X103702634Y-88823800D01*
X103747798Y-89050855D01*
X102508026Y-90290626D01*
X102307511Y-90590717D01*
X102307511Y-90590718D01*
X102237100Y-90944700D01*
X102237100Y-91307791D01*
X102030729Y-91445683D01*
X101892100Y-91653156D01*
X101753471Y-91445683D01*
X101234393Y-91098847D01*
X100622100Y-90977054D01*
X100009807Y-91098847D01*
X99490729Y-91445683D01*
X99143893Y-91964761D01*
X99022100Y-92577054D01*
X99022100Y-92639746D01*
X99143893Y-93252039D01*
X99490729Y-93771117D01*
X99622100Y-93858896D01*
X99622100Y-96989900D01*
X99698220Y-97372584D01*
X99890907Y-97660960D01*
X99890907Y-99323400D01*
X99943204Y-99601333D01*
X100107462Y-99856598D01*
X100187400Y-99911217D01*
X99998649Y-100193704D01*
X99865438Y-100863400D01*
X99998649Y-101533096D01*
X100378001Y-102100837D01*
X100426735Y-102133400D01*
X100378001Y-102165963D01*
X99998649Y-102733704D01*
X99865438Y-103403400D01*
X99998649Y-104073096D01*
X100378001Y-104640837D01*
X100426735Y-104673400D01*
X100378001Y-104705963D01*
X99998649Y-105273704D01*
X99865438Y-105943400D01*
X99998649Y-106613096D01*
X100378001Y-107180837D01*
X100945742Y-107560189D01*
X101615438Y-107693400D01*
X102295762Y-107693400D01*
X102965458Y-107560189D01*
X103533199Y-107180837D01*
X103912551Y-106613096D01*
X104045762Y-105943400D01*
X103970801Y-105566547D01*
X106486727Y-103050621D01*
X106400270Y-103258833D01*
X106399732Y-103875461D01*
X106635208Y-104445357D01*
X107070849Y-104881760D01*
X107640333Y-105118230D01*
X108256961Y-105118768D01*
X108826857Y-104883292D01*
X109120500Y-104590162D01*
X109120500Y-109740700D01*
X109190911Y-110094683D01*
X109391426Y-110394774D01*
X110016488Y-111019836D01*
X109981400Y-111196234D01*
X109981400Y-111256966D01*
X110099387Y-111850125D01*
X110435384Y-112352982D01*
X110938241Y-112688979D01*
X111531400Y-112806966D01*
X112124559Y-112688979D01*
X112627416Y-112352982D01*
X112763718Y-112148991D01*
X113104583Y-112081189D01*
X113404674Y-111880674D01*
X115165748Y-110119600D01*
X115394253Y-110119600D01*
X110814893Y-114698959D01*
X110814893Y-113888900D01*
X110762596Y-113610967D01*
X110598338Y-113355702D01*
X110347708Y-113184454D01*
X110050200Y-113124207D01*
X109050200Y-113124207D01*
X108772267Y-113176504D01*
X108517002Y-113340762D01*
X108345754Y-113591392D01*
X108285507Y-113888900D01*
X108285507Y-114021455D01*
X108276511Y-114034918D01*
X108256990Y-114133056D01*
X108070516Y-113681757D01*
X107719193Y-113329819D01*
X107259931Y-113139117D01*
X106762650Y-113138683D01*
X106303057Y-113328584D01*
X106167504Y-113463900D01*
X101701600Y-113463900D01*
X101347618Y-113534311D01*
X101047526Y-113734826D01*
X100642131Y-114140221D01*
X100424846Y-114097000D01*
X100362154Y-114097000D01*
X99749861Y-114218793D01*
X99230783Y-114565629D01*
X98883947Y-115084707D01*
X98762154Y-115697000D01*
X98883947Y-116309293D01*
X99230783Y-116828371D01*
X99438256Y-116967000D01*
X99230783Y-117105629D01*
X98883947Y-117624707D01*
X98762154Y-118237000D01*
X98883947Y-118849293D01*
X99230783Y-119368371D01*
X99438256Y-119507000D01*
X99230783Y-119645629D01*
X98883947Y-120164707D01*
X98762154Y-120777000D01*
X98883947Y-121389293D01*
X99230783Y-121908371D01*
X99438256Y-122047000D01*
X99230783Y-122185629D01*
X98883947Y-122704707D01*
X98762154Y-123317000D01*
X98883947Y-123929293D01*
X99169391Y-124356491D01*
X99010302Y-124458862D01*
X98839054Y-124709492D01*
X98778807Y-125007000D01*
X98778807Y-126707000D01*
X98794105Y-126788301D01*
X97241949Y-126689359D01*
X97377054Y-111158134D01*
X106400000Y-111158134D01*
X106400000Y-111218866D01*
X106517987Y-111812025D01*
X106853984Y-112314882D01*
X107356841Y-112650879D01*
X107950000Y-112768866D01*
X108543159Y-112650879D01*
X109046016Y-112314882D01*
X109382013Y-111812025D01*
X109500000Y-111218866D01*
X109500000Y-111158134D01*
X109382013Y-110564975D01*
X109046016Y-110062118D01*
X108543159Y-109726121D01*
X107950000Y-109608134D01*
X107356841Y-109726121D01*
X106853984Y-110062118D01*
X106517987Y-110564975D01*
X106400000Y-111158134D01*
X97377054Y-111158134D01*
X97531991Y-93347175D01*
X97531992Y-93347016D01*
X97563126Y-89486361D01*
X99643332Y-89486361D01*
X99878808Y-90056257D01*
X100314449Y-90492660D01*
X100883933Y-90729130D01*
X101500561Y-90729668D01*
X102070457Y-90494192D01*
X102506860Y-90058551D01*
X102743330Y-89489067D01*
X102743868Y-88872439D01*
X102508392Y-88302543D01*
X102072751Y-87866140D01*
X101503267Y-87629670D01*
X100886639Y-87629132D01*
X100316743Y-87864608D01*
X99880340Y-88300249D01*
X99643870Y-88869733D01*
X99643332Y-89486361D01*
X97563126Y-89486361D01*
X97603448Y-84486361D01*
X99643332Y-84486361D01*
X99878808Y-85056257D01*
X100314449Y-85492660D01*
X100883933Y-85729130D01*
X101500561Y-85729668D01*
X102070457Y-85494192D01*
X102506860Y-85058551D01*
X102743330Y-84489067D01*
X102743868Y-83872439D01*
X102508392Y-83302543D01*
X102072751Y-82866140D01*
X101503267Y-82629670D01*
X100886639Y-82629132D01*
X100316743Y-82864608D01*
X99880340Y-83300249D01*
X99643870Y-83869733D01*
X99643332Y-84486361D01*
X97603448Y-84486361D01*
X97685299Y-74336800D01*
X103410700Y-74336800D01*
X103410700Y-74798075D01*
X103526098Y-75076672D01*
X103739327Y-75289901D01*
X104017924Y-75405300D01*
X104479200Y-75405300D01*
X104668700Y-75215800D01*
X104668700Y-74147300D01*
X105668700Y-74147300D01*
X105668700Y-75215800D01*
X105858200Y-75405300D01*
X106319476Y-75405300D01*
X106598073Y-75289901D01*
X106811302Y-75076672D01*
X106926700Y-74798075D01*
X106926700Y-74336800D01*
X106737200Y-74147300D01*
X105668700Y-74147300D01*
X104668700Y-74147300D01*
X103600200Y-74147300D01*
X103410700Y-74336800D01*
X97685299Y-74336800D01*
X97688064Y-73993869D01*
X108418396Y-73993869D01*
X108684257Y-74637301D01*
X109176110Y-75130013D01*
X109819076Y-75396996D01*
X110515269Y-75397604D01*
X111158701Y-75131743D01*
X111651413Y-74639890D01*
X111918396Y-73996924D01*
X111919004Y-73300731D01*
X111653143Y-72657299D01*
X111161290Y-72164587D01*
X110518324Y-71897604D01*
X109822131Y-71896996D01*
X109178699Y-72162857D01*
X108685987Y-72654710D01*
X108419004Y-73297676D01*
X108418396Y-73993869D01*
X97688064Y-73993869D01*
X97700140Y-72496525D01*
X103410700Y-72496525D01*
X103410700Y-72957800D01*
X103600200Y-73147300D01*
X104668700Y-73147300D01*
X104668700Y-72078800D01*
X105668700Y-72078800D01*
X105668700Y-73147300D01*
X106737200Y-73147300D01*
X106926700Y-72957800D01*
X106926700Y-72496525D01*
X106811302Y-72217928D01*
X106598073Y-72004699D01*
X106319476Y-71889300D01*
X105858200Y-71889300D01*
X105668700Y-72078800D01*
X104668700Y-72078800D01*
X104479200Y-71889300D01*
X104017924Y-71889300D01*
X103739327Y-72004699D01*
X103526098Y-72217928D01*
X103410700Y-72496525D01*
X97700140Y-72496525D01*
X97750973Y-66193304D01*
X97828430Y-66006767D01*
X97828968Y-65390139D01*
X97758820Y-65220367D01*
X97784006Y-62097252D01*
X101734664Y-62069299D01*
X101788621Y-62340559D01*
X102124618Y-62843416D01*
X102627475Y-63179413D01*
X103220634Y-63297400D01*
X103281366Y-63297400D01*
X103874525Y-63179413D01*
X104377382Y-62843416D01*
X104713379Y-62340559D01*
X104771610Y-62047811D01*
X109320766Y-62015624D01*
X109320732Y-62054361D01*
X109556208Y-62624257D01*
X109991849Y-63060660D01*
X110561333Y-63297130D01*
X111177961Y-63297668D01*
X111747857Y-63062192D01*
X111877137Y-62933137D01*
X133969125Y-62933137D01*
X134050736Y-63204000D01*
X135086000Y-63204000D01*
X135086000Y-62178756D01*
X136186000Y-62178756D01*
X136186000Y-63204000D01*
X137221264Y-63204000D01*
X137302875Y-62933137D01*
X136861861Y-62357736D01*
X136456857Y-62087160D01*
X136186000Y-62178756D01*
X135086000Y-62178756D01*
X134815143Y-62087160D01*
X134410139Y-62357736D01*
X133969125Y-62933137D01*
X111877137Y-62933137D01*
X112184260Y-62626551D01*
X112420730Y-62057067D01*
X112420785Y-61993690D01*
X147440000Y-61745912D01*
X147440000Y-62210002D01*
X148021149Y-62210002D01*
X148403908Y-62465722D01*
X148648000Y-62357853D01*
X148648000Y-61737365D01*
X149548000Y-61730997D01*
X149548000Y-62357853D01*
X149792092Y-62465722D01*
X150174851Y-62210002D01*
X150756000Y-62210002D01*
X150756000Y-61722450D01*
X151132944Y-61719783D01*
X151082487Y-73779052D01*
X151082487Y-73779052D01*
G37*
X151082487Y-73779052D02*
X150776084Y-73574320D01*
X150393400Y-73498200D01*
X150021449Y-73498200D01*
X149862799Y-73260763D01*
X149814065Y-73228200D01*
X149862799Y-73195637D01*
X150242151Y-72627896D01*
X150375362Y-71958200D01*
X150242151Y-71288504D01*
X149862799Y-70720763D01*
X149814065Y-70688200D01*
X149862799Y-70655637D01*
X150242151Y-70087896D01*
X150375362Y-69418200D01*
X150242151Y-68748504D01*
X149862799Y-68180763D01*
X149295058Y-67801411D01*
X148625362Y-67668200D01*
X147945038Y-67668200D01*
X147275342Y-67801411D01*
X146707601Y-68180763D01*
X146328249Y-68748504D01*
X146195038Y-69418200D01*
X146328249Y-70087896D01*
X146707601Y-70655637D01*
X146756335Y-70688200D01*
X146707601Y-70720763D01*
X146555705Y-70948091D01*
X145983200Y-70375586D01*
X145983200Y-65989200D01*
X145907080Y-65606517D01*
X145690307Y-65282093D01*
X145690304Y-65282091D01*
X144026510Y-63618296D01*
X144044000Y-63530366D01*
X144044000Y-63469634D01*
X143926013Y-62876475D01*
X143590016Y-62373618D01*
X143087159Y-62037621D01*
X142494000Y-61919634D01*
X141900841Y-62037621D01*
X141397984Y-62373618D01*
X141061987Y-62876475D01*
X140944000Y-63469634D01*
X140944000Y-63530366D01*
X141020334Y-63914120D01*
X140724510Y-63618296D01*
X140742000Y-63530366D01*
X140742000Y-63469634D01*
X140624013Y-62876475D01*
X140288016Y-62373618D01*
X139785159Y-62037621D01*
X139192000Y-61919634D01*
X138598841Y-62037621D01*
X138095984Y-62373618D01*
X137759987Y-62876475D01*
X137642000Y-63469634D01*
X137642000Y-63530366D01*
X137759987Y-64123525D01*
X138095984Y-64626382D01*
X138598841Y-64962379D01*
X139192000Y-65080366D01*
X139330586Y-65052799D01*
X140034291Y-65756504D01*
X140034293Y-65756507D01*
X140358717Y-65973280D01*
X140741400Y-66049400D01*
X141978186Y-66049400D01*
X142941800Y-67013013D01*
X142941800Y-69328216D01*
X142729907Y-69116323D01*
X142277357Y-69568874D01*
X141913983Y-69641154D01*
X141828881Y-69889195D01*
X142494000Y-70554315D01*
X142776843Y-70271472D01*
X142941800Y-70436429D01*
X142941800Y-71803571D01*
X142776843Y-71968528D01*
X142494000Y-71685685D01*
X141828881Y-72350805D01*
X141913983Y-72598846D01*
X142268677Y-72662446D01*
X142729907Y-73123677D01*
X142977800Y-72875784D01*
X143017920Y-73077484D01*
X143234693Y-73401907D01*
X145038093Y-75205307D01*
X145362516Y-75422080D01*
X145745200Y-75498200D01*
X146548951Y-75498200D01*
X146707601Y-75735637D01*
X146791776Y-75791881D01*
X146398770Y-76280702D01*
X146498528Y-76538200D01*
X147635200Y-76538200D01*
X147635200Y-76186569D01*
X147945038Y-76248200D01*
X148625362Y-76248200D01*
X148935200Y-76186569D01*
X148935200Y-76538200D01*
X149555200Y-76538200D01*
X149555200Y-77538200D01*
X148935200Y-77538200D01*
X148935200Y-77813507D01*
X147635200Y-77813507D01*
X147635200Y-77538200D01*
X146498528Y-77538200D01*
X146398770Y-77795698D01*
X146541101Y-77972729D01*
X146452002Y-78030062D01*
X146280754Y-78280692D01*
X146220507Y-78578200D01*
X146220507Y-80578200D01*
X146272804Y-80856133D01*
X146437062Y-81111398D01*
X146687692Y-81282646D01*
X146985200Y-81342893D01*
X149585200Y-81342893D01*
X149863133Y-81290596D01*
X150104600Y-81135217D01*
X150104600Y-87256095D01*
X149803058Y-87054611D01*
X149133362Y-86921400D01*
X148453038Y-86921400D01*
X147783342Y-87054611D01*
X147215601Y-87433963D01*
X146836249Y-88001704D01*
X146703038Y-88671400D01*
X146836249Y-89341096D01*
X147215601Y-89908837D01*
X147264335Y-89941400D01*
X147215601Y-89973963D01*
X146836249Y-90541704D01*
X146703038Y-91211400D01*
X146836249Y-91881096D01*
X147215601Y-92448837D01*
X147264335Y-92481400D01*
X147215601Y-92513963D01*
X146836249Y-93081704D01*
X146703038Y-93751400D01*
X146836249Y-94421096D01*
X147215601Y-94988837D01*
X147299776Y-95045081D01*
X146906770Y-95533902D01*
X147006528Y-95791400D01*
X148143200Y-95791400D01*
X148143200Y-95439769D01*
X148453038Y-95501400D01*
X149133362Y-95501400D01*
X149443200Y-95439769D01*
X149443200Y-95791400D01*
X150579872Y-95791400D01*
X150679630Y-95533902D01*
X150286624Y-95045081D01*
X150370799Y-94988837D01*
X150529449Y-94751400D01*
X150994737Y-94751400D01*
X150881044Y-121924000D01*
X146923000Y-121924000D01*
X146923000Y-119159214D01*
X147483307Y-118598907D01*
X147483307Y-118960000D01*
X147535604Y-119237933D01*
X147699862Y-119493198D01*
X147950492Y-119664446D01*
X148248000Y-119724693D01*
X149948000Y-119724693D01*
X150225933Y-119672396D01*
X150481198Y-119508138D01*
X150652446Y-119257508D01*
X150712693Y-118960000D01*
X150712693Y-117260000D01*
X150660396Y-116982067D01*
X150496138Y-116726802D01*
X150322842Y-116608394D01*
X150607553Y-116182293D01*
X150729346Y-115570000D01*
X150607553Y-114957707D01*
X150260717Y-114438629D01*
X150053244Y-114300000D01*
X150260717Y-114161371D01*
X150607553Y-113642293D01*
X150729346Y-113030000D01*
X150607553Y-112417707D01*
X150260717Y-111898629D01*
X150053244Y-111760000D01*
X150260717Y-111621371D01*
X150607553Y-111102293D01*
X150729346Y-110490000D01*
X150607553Y-109877707D01*
X150260717Y-109358629D01*
X150053244Y-109220000D01*
X150260717Y-109081371D01*
X150607553Y-108562293D01*
X150729346Y-107950000D01*
X150607553Y-107337707D01*
X150260717Y-106818629D01*
X150053244Y-106680000D01*
X150260717Y-106541371D01*
X150607553Y-106022293D01*
X150729346Y-105410000D01*
X150607553Y-104797707D01*
X150260717Y-104278629D01*
X149741639Y-103931793D01*
X149129346Y-103810000D01*
X149066654Y-103810000D01*
X148454361Y-103931793D01*
X147935283Y-104278629D01*
X147588447Y-104797707D01*
X147466654Y-105410000D01*
X147588447Y-106022293D01*
X147935283Y-106541371D01*
X148142756Y-106680000D01*
X147935283Y-106818629D01*
X147588447Y-107337707D01*
X147466654Y-107950000D01*
X147588447Y-108562293D01*
X147935283Y-109081371D01*
X148142756Y-109220000D01*
X147935283Y-109358629D01*
X147588447Y-109877707D01*
X147466654Y-110490000D01*
X147502679Y-110671108D01*
X145219193Y-112954594D01*
X145219193Y-112784000D01*
X145166896Y-112506067D01*
X145002638Y-112250802D01*
X144752008Y-112079554D01*
X144454500Y-112019307D01*
X143454500Y-112019307D01*
X143176567Y-112071604D01*
X142921302Y-112235862D01*
X142750054Y-112486492D01*
X142689807Y-112784000D01*
X142689807Y-113304004D01*
X142664484Y-113303982D01*
X142664717Y-113036450D01*
X142474816Y-112576857D01*
X142123493Y-112224919D01*
X141664231Y-112034217D01*
X141166950Y-112033783D01*
X140707357Y-112223684D01*
X140355419Y-112575007D01*
X140164717Y-113034269D01*
X140164283Y-113531550D01*
X140354184Y-113991143D01*
X140705507Y-114343081D01*
X141164769Y-114533783D01*
X141434516Y-114534018D01*
X141434283Y-114801550D01*
X141624184Y-115261143D01*
X141975507Y-115613081D01*
X142389006Y-115784780D01*
X140516893Y-117656893D01*
X140489242Y-117698275D01*
X140223261Y-117875998D01*
X140188767Y-117875998D01*
X140176601Y-117846627D01*
X139963372Y-117633398D01*
X139934002Y-117621233D01*
X139934002Y-117518000D01*
X139066918Y-117518000D01*
X139095119Y-117435805D01*
X138430000Y-116770685D01*
X137764881Y-117435805D01*
X137793082Y-117518000D01*
X137433998Y-117518000D01*
X137433998Y-117621233D01*
X137404628Y-117633398D01*
X137271000Y-117767026D01*
X137271000Y-116798314D01*
X137864315Y-116205000D01*
X138995685Y-116205000D01*
X139660805Y-116870119D01*
X139908846Y-116785017D01*
X140018239Y-116174936D01*
X139908846Y-115624983D01*
X139660805Y-115539881D01*
X138995685Y-116205000D01*
X137864315Y-116205000D01*
X137271000Y-115611686D01*
X137271000Y-114974195D01*
X137764881Y-114974195D01*
X138430000Y-115639315D01*
X139095119Y-114974195D01*
X139010017Y-114726154D01*
X138399936Y-114616761D01*
X137849983Y-114726154D01*
X137764881Y-114974195D01*
X137271000Y-114974195D01*
X137271000Y-114173005D01*
X137271001Y-114173000D01*
X137194880Y-113790316D01*
X137023822Y-113534311D01*
X136978107Y-113465893D01*
X136978104Y-113465891D01*
X134099915Y-110587702D01*
X134100262Y-110190564D01*
X133870559Y-109634640D01*
X133456292Y-109219649D01*
X133772126Y-108904367D01*
X134024446Y-109157128D01*
X134410226Y-109317318D01*
X134827942Y-109317682D01*
X135214000Y-109158166D01*
X135509628Y-108863054D01*
X135669818Y-108477274D01*
X135670182Y-108059558D01*
X135545000Y-107756595D01*
X135545000Y-106611107D01*
X136451723Y-106611107D01*
X137320065Y-107479449D01*
X136997987Y-107961475D01*
X136880000Y-108554634D01*
X136880000Y-108615366D01*
X136997987Y-109208525D01*
X137333984Y-109711382D01*
X137836841Y-110047379D01*
X138430000Y-110165366D01*
X139023159Y-110047379D01*
X139526016Y-109711382D01*
X139862013Y-109208525D01*
X139897983Y-109027693D01*
X139938080Y-108967683D01*
X140014200Y-108585000D01*
X139968400Y-108354748D01*
X140121307Y-108201841D01*
X140121307Y-109113500D01*
X140173604Y-109391433D01*
X140337862Y-109646698D01*
X140588492Y-109817946D01*
X140886000Y-109878193D01*
X143086000Y-109878193D01*
X143363933Y-109825896D01*
X143619198Y-109661638D01*
X143790446Y-109411008D01*
X143850693Y-109113500D01*
X143850693Y-107563021D01*
X144852107Y-106561607D01*
X144852761Y-106560629D01*
X144853737Y-106559973D01*
X144961115Y-106398465D01*
X145068879Y-106237184D01*
X145069108Y-106236031D01*
X145069761Y-106235049D01*
X145107184Y-106044614D01*
X145145000Y-105854500D01*
X145144770Y-105853345D01*
X145144997Y-105852192D01*
X145126484Y-97831400D01*
X146728507Y-97831400D01*
X146728507Y-99831400D01*
X146780804Y-100109333D01*
X146945062Y-100364598D01*
X147195692Y-100535846D01*
X147493200Y-100596093D01*
X150093200Y-100596093D01*
X150371133Y-100543796D01*
X150626398Y-100379538D01*
X150797646Y-100128908D01*
X150857893Y-99831400D01*
X150857893Y-97831400D01*
X150805596Y-97553467D01*
X150641338Y-97298202D01*
X150536684Y-97226695D01*
X150679630Y-97048898D01*
X150579872Y-96791400D01*
X149443200Y-96791400D01*
X149443200Y-97066707D01*
X148143200Y-97066707D01*
X148143200Y-96791400D01*
X147006528Y-96791400D01*
X146906770Y-97048898D01*
X147049101Y-97225929D01*
X146960002Y-97283262D01*
X146788754Y-97533892D01*
X146728507Y-97831400D01*
X145126484Y-97831400D01*
X145114517Y-92646732D01*
X145089443Y-92522177D01*
X145081804Y-92395343D01*
X145051281Y-92332613D01*
X145037514Y-92264226D01*
X144966682Y-92158746D01*
X144911088Y-92044490D01*
X144858882Y-91998215D01*
X144819993Y-91940303D01*
X144714185Y-91869957D01*
X144619102Y-91785676D01*
X142460822Y-90524297D01*
X142393551Y-90186104D01*
X142014199Y-89618363D01*
X141965465Y-89585800D01*
X142014199Y-89553237D01*
X142393551Y-88985496D01*
X142526762Y-88315800D01*
X142393551Y-87646104D01*
X142014199Y-87078363D01*
X141965465Y-87045800D01*
X142014199Y-87013237D01*
X142393551Y-86445496D01*
X142526762Y-85775800D01*
X142393551Y-85106104D01*
X142014199Y-84538363D01*
X141446458Y-84159011D01*
X140776762Y-84025800D01*
X140096438Y-84025800D01*
X139426742Y-84159011D01*
X138859001Y-84538363D01*
X138479649Y-85106104D01*
X138346438Y-85775800D01*
X138479649Y-86445496D01*
X138859001Y-87013237D01*
X138907735Y-87045800D01*
X138859001Y-87078363D01*
X138479649Y-87646104D01*
X138346438Y-88315800D01*
X138479649Y-88985496D01*
X138859001Y-89553237D01*
X138907735Y-89585800D01*
X138859001Y-89618363D01*
X138479649Y-90186104D01*
X138346438Y-90855800D01*
X138479649Y-91525496D01*
X138667398Y-91806482D01*
X138603402Y-91847662D01*
X138432154Y-92098292D01*
X138371907Y-92395800D01*
X138371907Y-94395800D01*
X138424204Y-94673733D01*
X138588462Y-94928998D01*
X138839092Y-95100246D01*
X139136600Y-95160493D01*
X139511600Y-95160493D01*
X139511600Y-97340812D01*
X139354901Y-97497511D01*
X139048559Y-97292821D01*
X138455400Y-97174834D01*
X137862241Y-97292821D01*
X137359384Y-97628818D01*
X137023387Y-98131675D01*
X136905400Y-98724834D01*
X136905400Y-98785566D01*
X137023387Y-99378725D01*
X137359384Y-99881582D01*
X137862241Y-100217579D01*
X138455400Y-100335566D01*
X138998520Y-100227532D01*
X138998520Y-104678736D01*
X138691307Y-104371523D01*
X138238757Y-104824074D01*
X137875383Y-104896354D01*
X137790281Y-105144395D01*
X138455400Y-105809515D01*
X138738243Y-105526672D01*
X138998520Y-105786949D01*
X138998520Y-106708332D01*
X138657054Y-107049798D01*
X138541285Y-107026770D01*
X138455400Y-106940885D01*
X138382129Y-107014156D01*
X138032526Y-107083697D01*
X137606872Y-106658043D01*
X137889715Y-106375200D01*
X137224595Y-105710081D01*
X136976554Y-105795183D01*
X136912954Y-106149877D01*
X136451723Y-106611107D01*
X135545000Y-106611107D01*
X135545000Y-95123005D01*
X135545001Y-95123000D01*
X135474589Y-94769018D01*
X135274074Y-94468926D01*
X134067574Y-93262426D01*
X134011375Y-93224875D01*
X134099737Y-93012075D01*
X134100262Y-92410564D01*
X133870559Y-91854640D01*
X133456292Y-91439649D01*
X133869064Y-91027598D01*
X134099737Y-90472075D01*
X134100262Y-89870564D01*
X133870559Y-89314640D01*
X133456292Y-88899649D01*
X133869064Y-88487598D01*
X134099737Y-87932075D01*
X134100262Y-87330564D01*
X133870559Y-86774640D01*
X133456292Y-86359649D01*
X133869064Y-85947598D01*
X134099737Y-85392075D01*
X134100262Y-84790564D01*
X133870559Y-84234640D01*
X133456292Y-83819649D01*
X133726413Y-83550000D01*
X134366000Y-83550000D01*
X134748684Y-83473880D01*
X135073107Y-83257107D01*
X137359107Y-80971107D01*
X137575880Y-80646683D01*
X137652000Y-80264000D01*
X137652000Y-76987765D01*
X138228961Y-76988268D01*
X138798857Y-76752792D01*
X138882990Y-76668805D01*
X142256881Y-76668805D01*
X142341983Y-76916846D01*
X142952064Y-77026239D01*
X143502017Y-76916846D01*
X143587119Y-76668805D01*
X142922000Y-76003685D01*
X142256881Y-76668805D01*
X138882990Y-76668805D01*
X139235260Y-76317151D01*
X139471730Y-75747667D01*
X139471973Y-75468064D01*
X141333761Y-75468064D01*
X141443154Y-76018017D01*
X141691195Y-76103119D01*
X142356315Y-75438000D01*
X143487685Y-75438000D01*
X144152805Y-76103119D01*
X144400846Y-76018017D01*
X144510239Y-75407936D01*
X144400846Y-74857983D01*
X144152805Y-74772881D01*
X143487685Y-75438000D01*
X142356315Y-75438000D01*
X141691195Y-74772881D01*
X141443154Y-74857983D01*
X141333761Y-75468064D01*
X139471973Y-75468064D01*
X139472268Y-75131039D01*
X139236792Y-74561143D01*
X138883463Y-74207195D01*
X142256881Y-74207195D01*
X142922000Y-74872315D01*
X143587119Y-74207195D01*
X143502017Y-73959154D01*
X142891936Y-73849761D01*
X142341983Y-73959154D01*
X142256881Y-74207195D01*
X138883463Y-74207195D01*
X138801151Y-74124740D01*
X138231667Y-73888270D01*
X137652000Y-73887764D01*
X137652000Y-72390000D01*
X137644204Y-72350805D01*
X138526881Y-72350805D01*
X138611983Y-72598846D01*
X139222064Y-72708239D01*
X139772017Y-72598846D01*
X139857119Y-72350805D01*
X139192000Y-71685685D01*
X138526881Y-72350805D01*
X137644204Y-72350805D01*
X137575880Y-72007317D01*
X137575880Y-72007316D01*
X137500693Y-71894791D01*
X137500693Y-71150064D01*
X137603761Y-71150064D01*
X137713154Y-71700017D01*
X137961195Y-71785119D01*
X138626315Y-71120000D01*
X139757685Y-71120000D01*
X140422805Y-71785119D01*
X140670846Y-71700017D01*
X140769457Y-71150064D01*
X140905761Y-71150064D01*
X141015154Y-71700017D01*
X141263195Y-71785119D01*
X141928315Y-71120000D01*
X141263195Y-70454881D01*
X141015154Y-70539983D01*
X140905761Y-71150064D01*
X140769457Y-71150064D01*
X140780239Y-71089936D01*
X140670846Y-70539983D01*
X140422805Y-70454881D01*
X139757685Y-71120000D01*
X138626315Y-71120000D01*
X137961195Y-70454881D01*
X137713154Y-70539983D01*
X137603761Y-71150064D01*
X137500693Y-71150064D01*
X137500693Y-70274000D01*
X137448396Y-69996067D01*
X137379626Y-69889195D01*
X138526881Y-69889195D01*
X139192000Y-70554315D01*
X139857119Y-69889195D01*
X139772017Y-69641154D01*
X139161936Y-69531761D01*
X138611983Y-69641154D01*
X138526881Y-69889195D01*
X137379626Y-69889195D01*
X137284138Y-69740802D01*
X137033508Y-69569554D01*
X136736000Y-69509307D01*
X134536000Y-69509307D01*
X134258067Y-69561604D01*
X134002802Y-69725862D01*
X133831554Y-69976492D01*
X133771307Y-70274000D01*
X133771307Y-72474000D01*
X133823604Y-72751933D01*
X133987862Y-73007198D01*
X134238492Y-73178446D01*
X134536000Y-73238693D01*
X135652000Y-73238693D01*
X135652000Y-79849786D01*
X133951786Y-81550000D01*
X133726171Y-81550000D01*
X133456292Y-81279649D01*
X133869064Y-80867598D01*
X134099737Y-80312075D01*
X134100262Y-79710564D01*
X133870559Y-79154640D01*
X133456292Y-78739649D01*
X133869064Y-78327598D01*
X134099737Y-77772075D01*
X134100262Y-77170564D01*
X133870559Y-76614640D01*
X133445598Y-76188936D01*
X132890075Y-75958263D01*
X132288564Y-75957738D01*
X131732640Y-76187441D01*
X131306936Y-76612402D01*
X131076263Y-77167925D01*
X131075738Y-77769436D01*
X131305441Y-78325360D01*
X131719708Y-78740351D01*
X131306936Y-79152402D01*
X131076263Y-79707925D01*
X131075738Y-80309436D01*
X131305441Y-80865360D01*
X131719708Y-81280351D01*
X131306936Y-81692402D01*
X131076263Y-82247925D01*
X131075738Y-82849436D01*
X131305441Y-83405360D01*
X131719708Y-83820351D01*
X131306936Y-84232402D01*
X131076263Y-84787925D01*
X131075738Y-85389436D01*
X131305441Y-85945360D01*
X131719708Y-86360351D01*
X131306936Y-86772402D01*
X131076263Y-87327925D01*
X131075821Y-87834031D01*
X130465000Y-88444852D01*
X130465000Y-68834005D01*
X130465001Y-68834000D01*
X130394589Y-68480018D01*
X130194074Y-68179926D01*
X129703000Y-67688852D01*
X129703000Y-66324609D01*
X129778739Y-66274002D01*
X129813233Y-66274002D01*
X129825399Y-66303373D01*
X130038628Y-66516602D01*
X130317225Y-66632000D01*
X130703500Y-66632000D01*
X130893000Y-66442500D01*
X130893000Y-65449000D01*
X131743000Y-65449000D01*
X131743000Y-66442500D01*
X131932500Y-66632000D01*
X132318775Y-66632000D01*
X132597372Y-66516602D01*
X132810601Y-66303373D01*
X132926000Y-66024776D01*
X132926000Y-65638500D01*
X132736500Y-65449000D01*
X131743000Y-65449000D01*
X130893000Y-65449000D01*
X130468000Y-65449000D01*
X130468000Y-64599000D01*
X130893000Y-64599000D01*
X130893000Y-63605500D01*
X131743000Y-63605500D01*
X131743000Y-64599000D01*
X132736500Y-64599000D01*
X132760637Y-64574863D01*
X133969125Y-64574863D01*
X134410139Y-65150264D01*
X134815143Y-65420840D01*
X135086000Y-65329244D01*
X135086000Y-64304000D01*
X136186000Y-64304000D01*
X136186000Y-65329244D01*
X136456857Y-65420840D01*
X136861861Y-65150264D01*
X137302875Y-64574863D01*
X137221264Y-64304000D01*
X136186000Y-64304000D01*
X135086000Y-64304000D01*
X134050736Y-64304000D01*
X133969125Y-64574863D01*
X132760637Y-64574863D01*
X132926000Y-64409500D01*
X132926000Y-64023224D01*
X132810601Y-63744627D01*
X132597372Y-63531398D01*
X132318775Y-63416000D01*
X131932500Y-63416000D01*
X131743000Y-63605500D01*
X130893000Y-63605500D01*
X130703500Y-63416000D01*
X130317225Y-63416000D01*
X130038628Y-63531398D01*
X129825399Y-63744627D01*
X129813233Y-63773998D01*
X129778739Y-63773998D01*
X129390293Y-63514447D01*
X128778000Y-63392654D01*
X128165707Y-63514447D01*
X127646629Y-63861283D01*
X127508000Y-64068756D01*
X127369371Y-63861283D01*
X126850293Y-63514447D01*
X126238000Y-63392654D01*
X125625707Y-63514447D01*
X125106629Y-63861283D01*
X124968000Y-64068756D01*
X124829371Y-63861283D01*
X124310293Y-63514447D01*
X123698000Y-63392654D01*
X123085707Y-63514447D01*
X122566629Y-63861283D01*
X122428000Y-64068756D01*
X122289371Y-63861283D01*
X121770293Y-63514447D01*
X121158000Y-63392654D01*
X120545707Y-63514447D01*
X120026629Y-63861283D01*
X119888000Y-64068756D01*
X119749371Y-63861283D01*
X119230293Y-63514447D01*
X118618000Y-63392654D01*
X118005707Y-63514447D01*
X117486629Y-63861283D01*
X117139793Y-64380361D01*
X117018000Y-64992654D01*
X117018000Y-65055346D01*
X117139793Y-65667639D01*
X117486629Y-66186717D01*
X118005707Y-66533553D01*
X118618000Y-66655346D01*
X119230293Y-66533553D01*
X119749371Y-66186717D01*
X119888000Y-65979244D01*
X120026629Y-66186717D01*
X120545707Y-66533553D01*
X121158000Y-66655346D01*
X121409636Y-66605292D01*
X126318246Y-71513901D01*
X126318246Y-75961373D01*
X126334109Y-76041121D01*
X126332372Y-76122411D01*
X126368976Y-76216412D01*
X126388657Y-76315355D01*
X126405200Y-76340113D01*
X126405200Y-118846600D01*
X126428609Y-118964287D01*
X126436194Y-119084042D01*
X126463509Y-119139739D01*
X126475611Y-119200582D01*
X126542276Y-119300353D01*
X126595111Y-119408089D01*
X131117476Y-125328673D01*
X131076263Y-125427925D01*
X131075738Y-126029436D01*
X131305441Y-126585360D01*
X131730402Y-127011064D01*
X132285925Y-127241737D01*
X132887436Y-127242262D01*
X133443360Y-127012559D01*
X133869064Y-126587598D01*
X134037865Y-126181079D01*
X134928893Y-127072107D01*
X135078594Y-127172134D01*
X135260916Y-127445000D01*
X112883002Y-127445000D01*
X112883002Y-127321963D01*
X113029264Y-127209861D01*
X113299840Y-126804857D01*
X113208244Y-126534000D01*
X112183000Y-126534000D01*
X112183000Y-127084000D01*
X111083000Y-127084000D01*
X111083000Y-126534000D01*
X110057756Y-126534000D01*
X109966160Y-126804857D01*
X110236736Y-127209861D01*
X110382998Y-127321963D01*
X110382998Y-127445000D01*
X109096066Y-127445000D01*
X105846536Y-127237859D01*
X105877693Y-127084000D01*
X105877693Y-125163143D01*
X109966160Y-125163143D01*
X110057756Y-125434000D01*
X111083000Y-125434000D01*
X111083000Y-124398736D01*
X112183000Y-124398736D01*
X112183000Y-125434000D01*
X113208244Y-125434000D01*
X113299840Y-125163143D01*
X113029264Y-124758139D01*
X112453863Y-124317125D01*
X112183000Y-124398736D01*
X111083000Y-124398736D01*
X110812137Y-124317125D01*
X110236736Y-124758139D01*
X109966160Y-125163143D01*
X105877693Y-125163143D01*
X105877693Y-124884000D01*
X105825396Y-124606067D01*
X105661138Y-124350802D01*
X105410508Y-124179554D01*
X105113000Y-124119307D01*
X102913000Y-124119307D01*
X102635067Y-124171604D01*
X102379802Y-124335862D01*
X102208554Y-124586492D01*
X102148307Y-124884000D01*
X102148307Y-124984000D01*
X102003865Y-124984000D01*
X101955896Y-124729067D01*
X101791638Y-124473802D01*
X101618342Y-124355394D01*
X101903053Y-123929293D01*
X102024846Y-123317000D01*
X101903053Y-122704707D01*
X101556217Y-122185629D01*
X101348744Y-122047000D01*
X101556217Y-121908371D01*
X101643996Y-121777000D01*
X101757286Y-121777000D01*
X102142701Y-122162414D01*
X102115134Y-122301000D01*
X102233121Y-122894159D01*
X102569118Y-123397016D01*
X103071975Y-123733013D01*
X103665134Y-123851000D01*
X103725866Y-123851000D01*
X104319025Y-123733013D01*
X104821882Y-123397016D01*
X105157879Y-122894159D01*
X105275866Y-122301000D01*
X105157879Y-121707841D01*
X104821882Y-121204984D01*
X104319025Y-120868987D01*
X103725866Y-120751000D01*
X103665134Y-120751000D01*
X103577204Y-120768490D01*
X103122415Y-120313701D01*
X103347634Y-120358500D01*
X103408366Y-120358500D01*
X104001525Y-120240513D01*
X104504382Y-119904516D01*
X104840379Y-119401659D01*
X104897307Y-119115461D01*
X109447732Y-119115461D01*
X109683208Y-119685357D01*
X110118849Y-120121760D01*
X110688333Y-120358230D01*
X111304961Y-120358768D01*
X111874857Y-120123292D01*
X112311260Y-119687651D01*
X112547730Y-119118167D01*
X112548268Y-118501539D01*
X112312792Y-117931643D01*
X111877151Y-117495240D01*
X111307667Y-117258770D01*
X110691039Y-117258232D01*
X110121143Y-117493708D01*
X109684740Y-117929349D01*
X109448270Y-118498833D01*
X109447732Y-119115461D01*
X104897307Y-119115461D01*
X104958366Y-118808500D01*
X104840379Y-118215341D01*
X104504382Y-117712484D01*
X104001525Y-117376487D01*
X103408366Y-117258500D01*
X103347634Y-117258500D01*
X103131112Y-117301569D01*
X102806500Y-117237000D01*
X101643996Y-117237000D01*
X101556217Y-117105629D01*
X101348744Y-116967000D01*
X101556217Y-116828371D01*
X101903053Y-116309293D01*
X102024846Y-115697000D01*
X101971224Y-115427424D01*
X102084748Y-115313900D01*
X106167360Y-115313900D01*
X106301207Y-115447981D01*
X106760469Y-115638683D01*
X107030216Y-115638918D01*
X107029983Y-115906450D01*
X107219884Y-116366043D01*
X107571207Y-116717981D01*
X108030469Y-116908683D01*
X108527750Y-116909117D01*
X108987343Y-116719216D01*
X109122896Y-116583900D01*
X111163100Y-116583900D01*
X111517083Y-116513489D01*
X111817174Y-116312974D01*
X116424800Y-111705347D01*
X116479708Y-111760351D01*
X116066936Y-112172402D01*
X115836263Y-112727925D01*
X115835821Y-113234031D01*
X114077726Y-114992126D01*
X113877211Y-115292217D01*
X113853948Y-115409169D01*
X113806800Y-115646200D01*
X113806800Y-119098452D01*
X111998826Y-120906426D01*
X111625167Y-120751270D01*
X111008539Y-120750732D01*
X110438643Y-120986208D01*
X110002240Y-121421849D01*
X109765770Y-121991333D01*
X109765232Y-122607961D01*
X110000708Y-123177857D01*
X110436349Y-123614260D01*
X111005833Y-123850730D01*
X111622461Y-123851268D01*
X112192357Y-123615792D01*
X112628760Y-123180151D01*
X112832814Y-122688734D01*
X115385874Y-120135674D01*
X115586389Y-119835582D01*
X115656801Y-119481600D01*
X115656800Y-119481595D01*
X115656800Y-116029348D01*
X115835755Y-115850393D01*
X115835738Y-115869436D01*
X116065441Y-116425360D01*
X116479708Y-116840351D01*
X116066936Y-117252402D01*
X115836263Y-117807925D01*
X115835738Y-118409436D01*
X116065441Y-118965360D01*
X116479708Y-119380351D01*
X116066936Y-119792402D01*
X115836263Y-120347925D01*
X115835738Y-120949436D01*
X116065441Y-121505360D01*
X116479708Y-121920351D01*
X116066936Y-122332402D01*
X115836263Y-122887925D01*
X115835738Y-123489436D01*
X116065441Y-124045360D01*
X116479708Y-124460351D01*
X116066936Y-124872402D01*
X115836263Y-125427925D01*
X115835738Y-126029436D01*
X116065441Y-126585360D01*
X116490402Y-127011064D01*
X117045925Y-127241737D01*
X117647436Y-127242262D01*
X118203360Y-127012559D01*
X118629064Y-126587598D01*
X118859737Y-126032075D01*
X118860262Y-125430564D01*
X118630559Y-124874640D01*
X118216292Y-124459649D01*
X118629064Y-124047598D01*
X118859737Y-123492075D01*
X118860262Y-122890564D01*
X118630559Y-122334640D01*
X118216292Y-121919649D01*
X118613862Y-121522774D01*
X118705283Y-121504589D01*
X118903325Y-121372261D01*
X120039532Y-121372261D01*
X120275008Y-121942157D01*
X120710649Y-122378560D01*
X121280133Y-122615030D01*
X121896761Y-122615568D01*
X122466657Y-122380092D01*
X122903060Y-121944451D01*
X123139530Y-121374967D01*
X123140068Y-120758339D01*
X122904592Y-120188443D01*
X122468951Y-119752040D01*
X121899467Y-119515570D01*
X121282839Y-119515032D01*
X120712943Y-119750508D01*
X120276540Y-120186149D01*
X120040070Y-120755633D01*
X120039532Y-121372261D01*
X118903325Y-121372261D01*
X119005374Y-121304074D01*
X122243874Y-118065574D01*
X122444389Y-117765482D01*
X122514801Y-117411500D01*
X122514800Y-117411495D01*
X122514800Y-117332033D01*
X122903060Y-116944451D01*
X123139530Y-116374967D01*
X123140068Y-115758339D01*
X122904592Y-115188443D01*
X122514800Y-114797969D01*
X122514800Y-112735693D01*
X122689800Y-112735693D01*
X122967733Y-112683396D01*
X123222998Y-112519138D01*
X123394246Y-112268508D01*
X123454493Y-111971000D01*
X123454493Y-110314455D01*
X125037874Y-108731074D01*
X125238389Y-108430982D01*
X125308801Y-108077000D01*
X125308800Y-108076995D01*
X125308800Y-79336905D01*
X125308801Y-79336900D01*
X125238389Y-78982918D01*
X125083469Y-78751064D01*
X125037874Y-78682826D01*
X125037871Y-78682824D01*
X123657693Y-77302645D01*
X123657693Y-76116000D01*
X123605396Y-75838067D01*
X123441138Y-75582802D01*
X123190508Y-75411554D01*
X122893000Y-75351307D01*
X120693000Y-75351307D01*
X120415067Y-75403604D01*
X120159802Y-75567862D01*
X119988554Y-75818492D01*
X119928307Y-76116000D01*
X119928307Y-78316000D01*
X119980604Y-78593933D01*
X120144862Y-78849198D01*
X120395492Y-79020446D01*
X120693000Y-79080693D01*
X122819446Y-79080693D01*
X123458800Y-79720047D01*
X123458800Y-84026874D01*
X123101148Y-83491608D01*
X122500964Y-83090579D01*
X121793000Y-82949756D01*
X121085036Y-83090579D01*
X120484852Y-83491608D01*
X120083823Y-84091792D01*
X119963436Y-84697016D01*
X118258511Y-86401941D01*
X118216292Y-86359649D01*
X118629064Y-85947598D01*
X118859737Y-85392075D01*
X118860262Y-84790564D01*
X118630559Y-84234640D01*
X118216292Y-83819649D01*
X118629064Y-83407598D01*
X118859737Y-82852075D01*
X118860262Y-82250564D01*
X118630559Y-81694640D01*
X118216292Y-81279649D01*
X118629064Y-80867598D01*
X118859737Y-80312075D01*
X118860262Y-79710564D01*
X118630559Y-79154640D01*
X118216292Y-78739649D01*
X118629064Y-78327598D01*
X118859737Y-77772075D01*
X118860262Y-77170564D01*
X118630559Y-76614640D01*
X118205598Y-76188936D01*
X117650075Y-75958263D01*
X117048564Y-75957738D01*
X116671600Y-76113496D01*
X116671600Y-71175880D01*
X116663803Y-71136683D01*
X116668484Y-71096990D01*
X116625979Y-70946529D01*
X116595480Y-70793197D01*
X116573277Y-70759967D01*
X116562411Y-70721504D01*
X116465564Y-70598764D01*
X116378707Y-70468773D01*
X116345476Y-70446569D01*
X116320720Y-70415194D01*
X115825433Y-69992549D01*
X115800266Y-69931640D01*
X115505154Y-69636012D01*
X115119374Y-69475822D01*
X114701658Y-69475458D01*
X114315600Y-69634974D01*
X114185799Y-69764548D01*
X114133554Y-69712212D01*
X113747774Y-69552022D01*
X113330058Y-69551658D01*
X112944000Y-69711174D01*
X112648372Y-70006286D01*
X112488182Y-70392066D01*
X112487818Y-70809782D01*
X112647334Y-71195840D01*
X112942446Y-71491468D01*
X113063808Y-71541862D01*
X113376200Y-71854254D01*
X113376200Y-82435346D01*
X112786539Y-82434832D01*
X112216643Y-82670308D01*
X111780240Y-83105949D01*
X111543770Y-83675433D01*
X111543232Y-84292061D01*
X111778708Y-84861957D01*
X112214349Y-85298360D01*
X112783833Y-85534830D01*
X113335563Y-85535311D01*
X113349600Y-85549348D01*
X113349600Y-87330929D01*
X113212667Y-87274070D01*
X112596039Y-87273532D01*
X112026143Y-87509008D01*
X111589740Y-87944649D01*
X111353270Y-88514133D01*
X111352789Y-89065863D01*
X107252926Y-93165726D01*
X107120600Y-93033400D01*
X106127100Y-93033400D01*
X106127100Y-94026900D01*
X106259426Y-94159226D01*
X104222526Y-96196126D01*
X104022011Y-96496217D01*
X104016547Y-96523689D01*
X103951600Y-96850200D01*
X103951600Y-97019987D01*
X103803738Y-96790202D01*
X103553108Y-96618954D01*
X103255600Y-96558707D01*
X101622100Y-96558707D01*
X101622100Y-93858896D01*
X101753471Y-93771117D01*
X101892100Y-93563644D01*
X102030729Y-93771117D01*
X102549807Y-94117953D01*
X103162100Y-94239746D01*
X103774393Y-94117953D01*
X104162839Y-93858402D01*
X104197333Y-93858402D01*
X104209499Y-93887773D01*
X104422728Y-94101002D01*
X104701325Y-94216400D01*
X105087600Y-94216400D01*
X105277100Y-94026900D01*
X105277100Y-93033400D01*
X104852100Y-93033400D01*
X104852100Y-92183400D01*
X105277100Y-92183400D01*
X105277100Y-91189900D01*
X106127100Y-91189900D01*
X106127100Y-92183400D01*
X107120600Y-92183400D01*
X107310100Y-91993900D01*
X107310100Y-91607624D01*
X107194701Y-91329027D01*
X106981472Y-91115798D01*
X106702875Y-91000400D01*
X106316600Y-91000400D01*
X106127100Y-91189900D01*
X105277100Y-91189900D01*
X105087600Y-91000400D01*
X104701325Y-91000400D01*
X104422728Y-91115798D01*
X104209499Y-91329027D01*
X104197333Y-91358398D01*
X104162839Y-91358398D01*
X104099123Y-91315824D01*
X105076235Y-90338712D01*
X105252634Y-90373800D01*
X105313366Y-90373800D01*
X105906525Y-90255813D01*
X106409382Y-89919816D01*
X106745379Y-89416959D01*
X106863366Y-88823800D01*
X106745379Y-88230641D01*
X106409382Y-87727784D01*
X106398500Y-87720513D01*
X106398500Y-85215675D01*
X106599882Y-85081116D01*
X106935879Y-84578259D01*
X107053866Y-83985100D01*
X106935879Y-83391941D01*
X106599882Y-82889084D01*
X106097025Y-82553087D01*
X105503866Y-82435100D01*
X105443134Y-82435100D01*
X104849975Y-82553087D01*
X104347118Y-82889084D01*
X104011121Y-83391941D01*
X103893134Y-83985100D01*
X104011121Y-84578259D01*
X104347118Y-85081116D01*
X104548500Y-85215675D01*
X104548500Y-87465938D01*
X104156618Y-87727784D01*
X103820621Y-88230641D01*
X103702634Y-88823800D01*
X103747798Y-89050855D01*
X102508026Y-90290626D01*
X102307511Y-90590717D01*
X102307511Y-90590718D01*
X102237100Y-90944700D01*
X102237100Y-91307791D01*
X102030729Y-91445683D01*
X101892100Y-91653156D01*
X101753471Y-91445683D01*
X101234393Y-91098847D01*
X100622100Y-90977054D01*
X100009807Y-91098847D01*
X99490729Y-91445683D01*
X99143893Y-91964761D01*
X99022100Y-92577054D01*
X99022100Y-92639746D01*
X99143893Y-93252039D01*
X99490729Y-93771117D01*
X99622100Y-93858896D01*
X99622100Y-96989900D01*
X99698220Y-97372584D01*
X99890907Y-97660960D01*
X99890907Y-99323400D01*
X99943204Y-99601333D01*
X100107462Y-99856598D01*
X100187400Y-99911217D01*
X99998649Y-100193704D01*
X99865438Y-100863400D01*
X99998649Y-101533096D01*
X100378001Y-102100837D01*
X100426735Y-102133400D01*
X100378001Y-102165963D01*
X99998649Y-102733704D01*
X99865438Y-103403400D01*
X99998649Y-104073096D01*
X100378001Y-104640837D01*
X100426735Y-104673400D01*
X100378001Y-104705963D01*
X99998649Y-105273704D01*
X99865438Y-105943400D01*
X99998649Y-106613096D01*
X100378001Y-107180837D01*
X100945742Y-107560189D01*
X101615438Y-107693400D01*
X102295762Y-107693400D01*
X102965458Y-107560189D01*
X103533199Y-107180837D01*
X103912551Y-106613096D01*
X104045762Y-105943400D01*
X103970801Y-105566547D01*
X106486727Y-103050621D01*
X106400270Y-103258833D01*
X106399732Y-103875461D01*
X106635208Y-104445357D01*
X107070849Y-104881760D01*
X107640333Y-105118230D01*
X108256961Y-105118768D01*
X108826857Y-104883292D01*
X109120500Y-104590162D01*
X109120500Y-109740700D01*
X109190911Y-110094683D01*
X109391426Y-110394774D01*
X110016488Y-111019836D01*
X109981400Y-111196234D01*
X109981400Y-111256966D01*
X110099387Y-111850125D01*
X110435384Y-112352982D01*
X110938241Y-112688979D01*
X111531400Y-112806966D01*
X112124559Y-112688979D01*
X112627416Y-112352982D01*
X112763718Y-112148991D01*
X113104583Y-112081189D01*
X113404674Y-111880674D01*
X115165748Y-110119600D01*
X115394253Y-110119600D01*
X110814893Y-114698959D01*
X110814893Y-113888900D01*
X110762596Y-113610967D01*
X110598338Y-113355702D01*
X110347708Y-113184454D01*
X110050200Y-113124207D01*
X109050200Y-113124207D01*
X108772267Y-113176504D01*
X108517002Y-113340762D01*
X108345754Y-113591392D01*
X108285507Y-113888900D01*
X108285507Y-114021455D01*
X108276511Y-114034918D01*
X108256990Y-114133056D01*
X108070516Y-113681757D01*
X107719193Y-113329819D01*
X107259931Y-113139117D01*
X106762650Y-113138683D01*
X106303057Y-113328584D01*
X106167504Y-113463900D01*
X101701600Y-113463900D01*
X101347618Y-113534311D01*
X101047526Y-113734826D01*
X100642131Y-114140221D01*
X100424846Y-114097000D01*
X100362154Y-114097000D01*
X99749861Y-114218793D01*
X99230783Y-114565629D01*
X98883947Y-115084707D01*
X98762154Y-115697000D01*
X98883947Y-116309293D01*
X99230783Y-116828371D01*
X99438256Y-116967000D01*
X99230783Y-117105629D01*
X98883947Y-117624707D01*
X98762154Y-118237000D01*
X98883947Y-118849293D01*
X99230783Y-119368371D01*
X99438256Y-119507000D01*
X99230783Y-119645629D01*
X98883947Y-120164707D01*
X98762154Y-120777000D01*
X98883947Y-121389293D01*
X99230783Y-121908371D01*
X99438256Y-122047000D01*
X99230783Y-122185629D01*
X98883947Y-122704707D01*
X98762154Y-123317000D01*
X98883947Y-123929293D01*
X99169391Y-124356491D01*
X99010302Y-124458862D01*
X98839054Y-124709492D01*
X98778807Y-125007000D01*
X98778807Y-126707000D01*
X98794105Y-126788301D01*
X97241949Y-126689359D01*
X97377054Y-111158134D01*
X106400000Y-111158134D01*
X106400000Y-111218866D01*
X106517987Y-111812025D01*
X106853984Y-112314882D01*
X107356841Y-112650879D01*
X107950000Y-112768866D01*
X108543159Y-112650879D01*
X109046016Y-112314882D01*
X109382013Y-111812025D01*
X109500000Y-111218866D01*
X109500000Y-111158134D01*
X109382013Y-110564975D01*
X109046016Y-110062118D01*
X108543159Y-109726121D01*
X107950000Y-109608134D01*
X107356841Y-109726121D01*
X106853984Y-110062118D01*
X106517987Y-110564975D01*
X106400000Y-111158134D01*
X97377054Y-111158134D01*
X97531991Y-93347175D01*
X97531992Y-93347016D01*
X97563126Y-89486361D01*
X99643332Y-89486361D01*
X99878808Y-90056257D01*
X100314449Y-90492660D01*
X100883933Y-90729130D01*
X101500561Y-90729668D01*
X102070457Y-90494192D01*
X102506860Y-90058551D01*
X102743330Y-89489067D01*
X102743868Y-88872439D01*
X102508392Y-88302543D01*
X102072751Y-87866140D01*
X101503267Y-87629670D01*
X100886639Y-87629132D01*
X100316743Y-87864608D01*
X99880340Y-88300249D01*
X99643870Y-88869733D01*
X99643332Y-89486361D01*
X97563126Y-89486361D01*
X97603448Y-84486361D01*
X99643332Y-84486361D01*
X99878808Y-85056257D01*
X100314449Y-85492660D01*
X100883933Y-85729130D01*
X101500561Y-85729668D01*
X102070457Y-85494192D01*
X102506860Y-85058551D01*
X102743330Y-84489067D01*
X102743868Y-83872439D01*
X102508392Y-83302543D01*
X102072751Y-82866140D01*
X101503267Y-82629670D01*
X100886639Y-82629132D01*
X100316743Y-82864608D01*
X99880340Y-83300249D01*
X99643870Y-83869733D01*
X99643332Y-84486361D01*
X97603448Y-84486361D01*
X97685299Y-74336800D01*
X103410700Y-74336800D01*
X103410700Y-74798075D01*
X103526098Y-75076672D01*
X103739327Y-75289901D01*
X104017924Y-75405300D01*
X104479200Y-75405300D01*
X104668700Y-75215800D01*
X104668700Y-74147300D01*
X105668700Y-74147300D01*
X105668700Y-75215800D01*
X105858200Y-75405300D01*
X106319476Y-75405300D01*
X106598073Y-75289901D01*
X106811302Y-75076672D01*
X106926700Y-74798075D01*
X106926700Y-74336800D01*
X106737200Y-74147300D01*
X105668700Y-74147300D01*
X104668700Y-74147300D01*
X103600200Y-74147300D01*
X103410700Y-74336800D01*
X97685299Y-74336800D01*
X97688064Y-73993869D01*
X108418396Y-73993869D01*
X108684257Y-74637301D01*
X109176110Y-75130013D01*
X109819076Y-75396996D01*
X110515269Y-75397604D01*
X111158701Y-75131743D01*
X111651413Y-74639890D01*
X111918396Y-73996924D01*
X111919004Y-73300731D01*
X111653143Y-72657299D01*
X111161290Y-72164587D01*
X110518324Y-71897604D01*
X109822131Y-71896996D01*
X109178699Y-72162857D01*
X108685987Y-72654710D01*
X108419004Y-73297676D01*
X108418396Y-73993869D01*
X97688064Y-73993869D01*
X97700140Y-72496525D01*
X103410700Y-72496525D01*
X103410700Y-72957800D01*
X103600200Y-73147300D01*
X104668700Y-73147300D01*
X104668700Y-72078800D01*
X105668700Y-72078800D01*
X105668700Y-73147300D01*
X106737200Y-73147300D01*
X106926700Y-72957800D01*
X106926700Y-72496525D01*
X106811302Y-72217928D01*
X106598073Y-72004699D01*
X106319476Y-71889300D01*
X105858200Y-71889300D01*
X105668700Y-72078800D01*
X104668700Y-72078800D01*
X104479200Y-71889300D01*
X104017924Y-71889300D01*
X103739327Y-72004699D01*
X103526098Y-72217928D01*
X103410700Y-72496525D01*
X97700140Y-72496525D01*
X97750973Y-66193304D01*
X97828430Y-66006767D01*
X97828968Y-65390139D01*
X97758820Y-65220367D01*
X97784006Y-62097252D01*
X101734664Y-62069299D01*
X101788621Y-62340559D01*
X102124618Y-62843416D01*
X102627475Y-63179413D01*
X103220634Y-63297400D01*
X103281366Y-63297400D01*
X103874525Y-63179413D01*
X104377382Y-62843416D01*
X104713379Y-62340559D01*
X104771610Y-62047811D01*
X109320766Y-62015624D01*
X109320732Y-62054361D01*
X109556208Y-62624257D01*
X109991849Y-63060660D01*
X110561333Y-63297130D01*
X111177961Y-63297668D01*
X111747857Y-63062192D01*
X111877137Y-62933137D01*
X133969125Y-62933137D01*
X134050736Y-63204000D01*
X135086000Y-63204000D01*
X135086000Y-62178756D01*
X136186000Y-62178756D01*
X136186000Y-63204000D01*
X137221264Y-63204000D01*
X137302875Y-62933137D01*
X136861861Y-62357736D01*
X136456857Y-62087160D01*
X136186000Y-62178756D01*
X135086000Y-62178756D01*
X134815143Y-62087160D01*
X134410139Y-62357736D01*
X133969125Y-62933137D01*
X111877137Y-62933137D01*
X112184260Y-62626551D01*
X112420730Y-62057067D01*
X112420785Y-61993690D01*
X147440000Y-61745912D01*
X147440000Y-62210002D01*
X148021149Y-62210002D01*
X148403908Y-62465722D01*
X148648000Y-62357853D01*
X148648000Y-61737365D01*
X149548000Y-61730997D01*
X149548000Y-62357853D01*
X149792092Y-62465722D01*
X150174851Y-62210002D01*
X150756000Y-62210002D01*
X150756000Y-61722450D01*
X151132944Y-61719783D01*
X151082487Y-73779052D01*
G36*
X142899312Y-118195211D02*
X142891000Y-118237000D01*
X142891000Y-121490136D01*
X142577740Y-121802849D01*
X142341270Y-122372333D01*
X142340732Y-122988961D01*
X142576208Y-123558857D01*
X143011849Y-123995260D01*
X143581333Y-124231730D01*
X144197961Y-124232268D01*
X144767857Y-123996792D01*
X144923000Y-123841920D01*
X144923000Y-125061786D01*
X144915083Y-125069703D01*
X144897151Y-125051740D01*
X144327667Y-124815270D01*
X143711039Y-124814732D01*
X143141143Y-125050208D01*
X142704740Y-125485849D01*
X142468270Y-126055333D01*
X142467732Y-126671961D01*
X142703208Y-127241857D01*
X142905996Y-127445000D01*
X137535084Y-127445000D01*
X137860379Y-126958159D01*
X137978366Y-126365000D01*
X137860379Y-125771841D01*
X137524382Y-125268984D01*
X137021525Y-124932987D01*
X136428366Y-124815000D01*
X136367634Y-124815000D01*
X135774475Y-124932987D01*
X135680795Y-124995581D01*
X135493000Y-124807786D01*
X135493000Y-124010797D01*
X135647475Y-124114013D01*
X136240634Y-124232000D01*
X136301366Y-124232000D01*
X136894525Y-124114013D01*
X137397382Y-123778016D01*
X137733379Y-123275159D01*
X137851366Y-122682000D01*
X137733379Y-122088841D01*
X137397382Y-121585984D01*
X137271000Y-121501539D01*
X137271000Y-120484974D01*
X137404628Y-120618602D01*
X137683225Y-120734000D01*
X138069500Y-120734000D01*
X138259000Y-120544500D01*
X138259000Y-119551000D01*
X137834000Y-119551000D01*
X137834000Y-118701000D01*
X138259000Y-118701000D01*
X138259000Y-118276000D01*
X139109000Y-118276000D01*
X139109000Y-118701000D01*
X139534000Y-118701000D01*
X139534000Y-119551000D01*
X139109000Y-119551000D01*
X139109000Y-120544500D01*
X139298500Y-120734000D01*
X139684775Y-120734000D01*
X139963372Y-120618602D01*
X140176601Y-120405373D01*
X140188767Y-120376002D01*
X140223261Y-120376002D01*
X140611707Y-120635553D01*
X141224000Y-120757346D01*
X141836293Y-120635553D01*
X142355371Y-120288717D01*
X142702207Y-119769639D01*
X142824000Y-119157346D01*
X142824000Y-119094654D01*
X142702207Y-118482361D01*
X142629166Y-118373048D01*
X142922233Y-118079981D01*
X142899312Y-118195211D01*
X142899312Y-118195211D01*
G37*
X142899312Y-118195211D02*
X142891000Y-118237000D01*
X142891000Y-121490136D01*
X142577740Y-121802849D01*
X142341270Y-122372333D01*
X142340732Y-122988961D01*
X142576208Y-123558857D01*
X143011849Y-123995260D01*
X143581333Y-124231730D01*
X144197961Y-124232268D01*
X144767857Y-123996792D01*
X144923000Y-123841920D01*
X144923000Y-125061786D01*
X144915083Y-125069703D01*
X144897151Y-125051740D01*
X144327667Y-124815270D01*
X143711039Y-124814732D01*
X143141143Y-125050208D01*
X142704740Y-125485849D01*
X142468270Y-126055333D01*
X142467732Y-126671961D01*
X142703208Y-127241857D01*
X142905996Y-127445000D01*
X137535084Y-127445000D01*
X137860379Y-126958159D01*
X137978366Y-126365000D01*
X137860379Y-125771841D01*
X137524382Y-125268984D01*
X137021525Y-124932987D01*
X136428366Y-124815000D01*
X136367634Y-124815000D01*
X135774475Y-124932987D01*
X135680795Y-124995581D01*
X135493000Y-124807786D01*
X135493000Y-124010797D01*
X135647475Y-124114013D01*
X136240634Y-124232000D01*
X136301366Y-124232000D01*
X136894525Y-124114013D01*
X137397382Y-123778016D01*
X137733379Y-123275159D01*
X137851366Y-122682000D01*
X137733379Y-122088841D01*
X137397382Y-121585984D01*
X137271000Y-121501539D01*
X137271000Y-120484974D01*
X137404628Y-120618602D01*
X137683225Y-120734000D01*
X138069500Y-120734000D01*
X138259000Y-120544500D01*
X138259000Y-119551000D01*
X137834000Y-119551000D01*
X137834000Y-118701000D01*
X138259000Y-118701000D01*
X138259000Y-118276000D01*
X139109000Y-118276000D01*
X139109000Y-118701000D01*
X139534000Y-118701000D01*
X139534000Y-119551000D01*
X139109000Y-119551000D01*
X139109000Y-120544500D01*
X139298500Y-120734000D01*
X139684775Y-120734000D01*
X139963372Y-120618602D01*
X140176601Y-120405373D01*
X140188767Y-120376002D01*
X140223261Y-120376002D01*
X140611707Y-120635553D01*
X141224000Y-120757346D01*
X141836293Y-120635553D01*
X142355371Y-120288717D01*
X142702207Y-119769639D01*
X142824000Y-119157346D01*
X142824000Y-119094654D01*
X142702207Y-118482361D01*
X142629166Y-118373048D01*
X142922233Y-118079981D01*
X142899312Y-118195211D01*
D43*
G36*
X66293652Y-86883857D02*
X66680108Y-87270989D01*
X67185296Y-87480761D01*
X67732305Y-87481238D01*
X68237857Y-87272348D01*
X68424900Y-87085632D01*
X68424900Y-87109300D01*
X68472475Y-87348477D01*
X68607958Y-87551242D01*
X71272240Y-90215524D01*
X71272240Y-91953991D01*
X70934653Y-91728422D01*
X70485000Y-91638980D01*
X70035347Y-91728422D01*
X69654150Y-91983130D01*
X69399442Y-92364327D01*
X69310000Y-92813980D01*
X69310000Y-92860020D01*
X69399442Y-93309673D01*
X69654150Y-93690870D01*
X70035347Y-93945578D01*
X70485000Y-94035020D01*
X70934653Y-93945578D01*
X71272240Y-93720009D01*
X71272240Y-94340680D01*
X71319815Y-94579857D01*
X71455298Y-94782622D01*
X71861176Y-95188500D01*
X63906487Y-95188500D01*
X64059628Y-95035359D01*
X63937086Y-94912817D01*
X64155420Y-94869387D01*
X64246938Y-94656984D01*
X63653040Y-94063085D01*
X63370197Y-94345928D01*
X62998065Y-93973796D01*
X63000409Y-93584346D01*
X63087355Y-93497400D01*
X64218725Y-93497400D01*
X64812624Y-94091298D01*
X65025027Y-93999780D01*
X65112844Y-93436503D01*
X65025027Y-92995020D01*
X64812624Y-92903502D01*
X64218725Y-93497400D01*
X63087355Y-93497400D01*
X63001449Y-93411494D01*
X63003834Y-93015235D01*
X63370197Y-92648872D01*
X63653040Y-92931715D01*
X64246938Y-92337816D01*
X64155420Y-92125413D01*
X63928962Y-92090107D01*
X64054460Y-91964609D01*
X66808498Y-91964609D01*
X66931021Y-92184727D01*
X67575440Y-92266985D01*
X67988979Y-92184727D01*
X68111502Y-91964609D01*
X67460000Y-91313107D01*
X66808498Y-91964609D01*
X64054460Y-91964609D01*
X64059628Y-91959441D01*
X63593910Y-91493723D01*
X63009473Y-92078160D01*
X63017637Y-90721440D01*
X65799015Y-90721440D01*
X65881273Y-91134979D01*
X66101391Y-91257502D01*
X66752893Y-90606000D01*
X68167107Y-90606000D01*
X68818609Y-91257502D01*
X69038727Y-91134979D01*
X69120985Y-90490560D01*
X69038727Y-90077021D01*
X68818609Y-89954498D01*
X68167107Y-90606000D01*
X66752893Y-90606000D01*
X66101391Y-89954498D01*
X65881273Y-90077021D01*
X65799015Y-90721440D01*
X63017637Y-90721440D01*
X63026508Y-89247391D01*
X66808498Y-89247391D01*
X67460000Y-89898893D01*
X68111502Y-89247391D01*
X67988979Y-89027273D01*
X67344560Y-88945015D01*
X66931021Y-89027273D01*
X66808498Y-89247391D01*
X63026508Y-89247391D01*
X63042405Y-86606000D01*
X66178844Y-86606000D01*
X66293652Y-86883857D01*
X66293652Y-86883857D01*
G37*
X66293652Y-86883857D02*
X66680108Y-87270989D01*
X67185296Y-87480761D01*
X67732305Y-87481238D01*
X68237857Y-87272348D01*
X68424900Y-87085632D01*
X68424900Y-87109300D01*
X68472475Y-87348477D01*
X68607958Y-87551242D01*
X71272240Y-90215524D01*
X71272240Y-91953991D01*
X70934653Y-91728422D01*
X70485000Y-91638980D01*
X70035347Y-91728422D01*
X69654150Y-91983130D01*
X69399442Y-92364327D01*
X69310000Y-92813980D01*
X69310000Y-92860020D01*
X69399442Y-93309673D01*
X69654150Y-93690870D01*
X70035347Y-93945578D01*
X70485000Y-94035020D01*
X70934653Y-93945578D01*
X71272240Y-93720009D01*
X71272240Y-94340680D01*
X71319815Y-94579857D01*
X71455298Y-94782622D01*
X71861176Y-95188500D01*
X63906487Y-95188500D01*
X64059628Y-95035359D01*
X63937086Y-94912817D01*
X64155420Y-94869387D01*
X64246938Y-94656984D01*
X63653040Y-94063085D01*
X63370197Y-94345928D01*
X62998065Y-93973796D01*
X63000409Y-93584346D01*
X63087355Y-93497400D01*
X64218725Y-93497400D01*
X64812624Y-94091298D01*
X65025027Y-93999780D01*
X65112844Y-93436503D01*
X65025027Y-92995020D01*
X64812624Y-92903502D01*
X64218725Y-93497400D01*
X63087355Y-93497400D01*
X63001449Y-93411494D01*
X63003834Y-93015235D01*
X63370197Y-92648872D01*
X63653040Y-92931715D01*
X64246938Y-92337816D01*
X64155420Y-92125413D01*
X63928962Y-92090107D01*
X64054460Y-91964609D01*
X66808498Y-91964609D01*
X66931021Y-92184727D01*
X67575440Y-92266985D01*
X67988979Y-92184727D01*
X68111502Y-91964609D01*
X67460000Y-91313107D01*
X66808498Y-91964609D01*
X64054460Y-91964609D01*
X64059628Y-91959441D01*
X63593910Y-91493723D01*
X63009473Y-92078160D01*
X63017637Y-90721440D01*
X65799015Y-90721440D01*
X65881273Y-91134979D01*
X66101391Y-91257502D01*
X66752893Y-90606000D01*
X68167107Y-90606000D01*
X68818609Y-91257502D01*
X69038727Y-91134979D01*
X69120985Y-90490560D01*
X69038727Y-90077021D01*
X68818609Y-89954498D01*
X68167107Y-90606000D01*
X66752893Y-90606000D01*
X66101391Y-89954498D01*
X65881273Y-90077021D01*
X65799015Y-90721440D01*
X63017637Y-90721440D01*
X63026508Y-89247391D01*
X66808498Y-89247391D01*
X67460000Y-89898893D01*
X68111502Y-89247391D01*
X67988979Y-89027273D01*
X67344560Y-88945015D01*
X66931021Y-89027273D01*
X66808498Y-89247391D01*
X63026508Y-89247391D01*
X63042405Y-86606000D01*
X66178844Y-86606000D01*
X66293652Y-86883857D01*
G36*
X72083025Y-54813195D02*
X72115807Y-54978000D01*
X72118560Y-54991842D01*
X72226947Y-55154053D01*
X72671447Y-55598553D01*
X72833658Y-55706940D01*
X73025000Y-55745000D01*
X74369894Y-55745000D01*
X74660375Y-56035481D01*
X74655055Y-56919426D01*
X74605823Y-56919383D01*
X74357643Y-57021929D01*
X74167597Y-57211644D01*
X74064617Y-57459645D01*
X74064383Y-57728177D01*
X74166929Y-57976357D01*
X74356644Y-58166403D01*
X74604645Y-58269383D01*
X74646931Y-58269420D01*
X74646106Y-58406413D01*
X74429855Y-58316617D01*
X74161323Y-58316383D01*
X73913143Y-58418929D01*
X73723097Y-58608644D01*
X73620117Y-58856645D01*
X73619883Y-59125177D01*
X73722429Y-59373357D01*
X73912144Y-59563403D01*
X74160145Y-59666383D01*
X74428677Y-59666617D01*
X74491184Y-59640790D01*
X74620500Y-59770106D01*
X74620500Y-60460937D01*
X74525480Y-60348641D01*
X74525617Y-60191323D01*
X74423071Y-59943143D01*
X74233356Y-59753097D01*
X73985355Y-59650117D01*
X73716823Y-59649883D01*
X73468643Y-59752429D01*
X73278597Y-59942144D01*
X73175617Y-60190145D01*
X73175383Y-60458677D01*
X73277929Y-60706857D01*
X73467644Y-60896903D01*
X73715645Y-60999883D01*
X73766616Y-60999927D01*
X74049000Y-61333654D01*
X74049000Y-61649313D01*
X73954077Y-61570211D01*
X73954117Y-61524823D01*
X73851571Y-61276643D01*
X73661856Y-61086597D01*
X73413855Y-60983617D01*
X73145323Y-60983383D01*
X72897143Y-61085929D01*
X72707097Y-61275644D01*
X72604117Y-61523645D01*
X72603883Y-61792177D01*
X72706429Y-62040357D01*
X72896144Y-62230403D01*
X73144145Y-62333383D01*
X73308006Y-62333526D01*
X73541000Y-62527688D01*
X73541000Y-63054893D01*
X73382528Y-62896422D01*
X73382617Y-62794823D01*
X73280071Y-62546643D01*
X73090356Y-62356597D01*
X72842355Y-62253617D01*
X72573823Y-62253383D01*
X72325643Y-62355929D01*
X72135597Y-62545644D01*
X72032617Y-62793645D01*
X72032383Y-63062177D01*
X72134929Y-63310357D01*
X72324644Y-63500403D01*
X72572645Y-63603383D01*
X72675366Y-63603473D01*
X72969500Y-63897607D01*
X72969500Y-69977000D01*
X73000221Y-70131446D01*
X73007560Y-70168342D01*
X73115947Y-70330553D01*
X73477500Y-70692107D01*
X73477500Y-71048880D01*
X73507716Y-71200786D01*
X73515560Y-71240222D01*
X73623947Y-71402433D01*
X73982960Y-71761447D01*
X73982960Y-73609200D01*
X74012671Y-73758566D01*
X74021020Y-73800542D01*
X74129407Y-73962753D01*
X74485880Y-74319227D01*
X74485880Y-75632955D01*
X74404560Y-75754658D01*
X74366500Y-75946000D01*
X74366500Y-78394500D01*
X74404560Y-78585842D01*
X74512947Y-78748053D01*
X74523625Y-78758731D01*
X74502586Y-82254702D01*
X73873342Y-81625458D01*
X73670577Y-81489975D01*
X73557889Y-81467560D01*
X73242483Y-80995520D01*
X72763958Y-80675781D01*
X72199500Y-80563503D01*
X71635042Y-80675781D01*
X71156517Y-80995520D01*
X70836778Y-81474045D01*
X70724500Y-82038503D01*
X70724500Y-82096297D01*
X70836778Y-82660755D01*
X71156517Y-83139280D01*
X71635042Y-83459019D01*
X72199500Y-83571297D01*
X72763958Y-83459019D01*
X73242483Y-83139280D01*
X73393453Y-82913337D01*
X74492011Y-84011895D01*
X74489764Y-84385282D01*
X74199453Y-84094464D01*
X73767747Y-83915204D01*
X73300303Y-83914796D01*
X72868285Y-84093302D01*
X72537464Y-84423547D01*
X72358204Y-84855253D01*
X72357796Y-85322697D01*
X72536302Y-85754715D01*
X72866547Y-86085536D01*
X73298253Y-86264796D01*
X73765697Y-86265204D01*
X74197715Y-86086698D01*
X74481228Y-85803678D01*
X74444082Y-91976205D01*
X74363850Y-91856130D01*
X73982653Y-91601422D01*
X73533000Y-91511980D01*
X73083347Y-91601422D01*
X72702150Y-91856130D01*
X72522240Y-92125384D01*
X72522240Y-89956640D01*
X72474665Y-89717463D01*
X72339182Y-89514698D01*
X69674900Y-86850416D01*
X69674900Y-86068638D01*
X69818547Y-86212536D01*
X70250253Y-86391796D01*
X70717697Y-86392204D01*
X71149715Y-86213698D01*
X71480536Y-85883453D01*
X71659796Y-85451747D01*
X71660204Y-84984303D01*
X71481698Y-84552285D01*
X71151453Y-84221464D01*
X70719747Y-84042204D01*
X70252303Y-84041796D01*
X69820285Y-84220302D01*
X69674900Y-84365434D01*
X69674900Y-83558266D01*
X70092883Y-83278980D01*
X70412622Y-82800455D01*
X70524900Y-82235997D01*
X70524900Y-82178203D01*
X70412622Y-81613745D01*
X70092883Y-81135220D01*
X69614358Y-80815481D01*
X69049900Y-80703203D01*
X68485442Y-80815481D01*
X68006917Y-81135220D01*
X67687178Y-81613745D01*
X67574900Y-82178203D01*
X67574900Y-82235997D01*
X67687178Y-82800455D01*
X68006917Y-83278980D01*
X68424900Y-83558266D01*
X68424900Y-85126343D01*
X68239892Y-84941011D01*
X67734704Y-84731239D01*
X67187695Y-84730762D01*
X66682143Y-84939652D01*
X66295011Y-85326108D01*
X66178790Y-85606000D01*
X63048423Y-85606000D01*
X63059678Y-83735624D01*
X64115142Y-83735624D01*
X64206660Y-83948027D01*
X64769937Y-84035844D01*
X65211420Y-83948027D01*
X65302938Y-83735624D01*
X64709040Y-83141725D01*
X64115142Y-83735624D01*
X63059678Y-83735624D01*
X63066290Y-82636937D01*
X63249236Y-82636937D01*
X63337053Y-83078420D01*
X63549456Y-83169938D01*
X64143355Y-82576040D01*
X65274725Y-82576040D01*
X65868624Y-83169938D01*
X66081027Y-83078420D01*
X66168844Y-82515143D01*
X66081027Y-82073660D01*
X65868624Y-81982142D01*
X65274725Y-82576040D01*
X64143355Y-82576040D01*
X63549456Y-81982142D01*
X63337053Y-82073660D01*
X63249236Y-82636937D01*
X63066290Y-82636937D01*
X63086516Y-79276040D01*
X63526694Y-79276040D01*
X63526694Y-80876040D01*
X63552842Y-81015006D01*
X63634971Y-81142639D01*
X63760286Y-81228263D01*
X63909040Y-81258386D01*
X64183250Y-81258386D01*
X64115142Y-81416456D01*
X64709040Y-82010355D01*
X65302938Y-81416456D01*
X65234830Y-81258386D01*
X65509040Y-81258386D01*
X65648006Y-81232238D01*
X65775639Y-81150109D01*
X65861263Y-81024794D01*
X65891386Y-80876040D01*
X65891386Y-79276040D01*
X65865238Y-79137074D01*
X65783109Y-79009441D01*
X65657794Y-78923817D01*
X65509040Y-78893694D01*
X63909040Y-78893694D01*
X63770074Y-78919842D01*
X63642441Y-79001971D01*
X63556817Y-79127286D01*
X63526694Y-79276040D01*
X63086516Y-79276040D01*
X63105715Y-76085800D01*
X63549554Y-76085800D01*
X63549554Y-77685800D01*
X63575702Y-77824766D01*
X63657831Y-77952399D01*
X63783146Y-78038023D01*
X63931900Y-78068146D01*
X65531900Y-78068146D01*
X65670866Y-78041998D01*
X65798499Y-77959869D01*
X65884123Y-77834554D01*
X65914246Y-77685800D01*
X65914246Y-76085800D01*
X65888098Y-75946834D01*
X65805969Y-75819201D01*
X65680654Y-75733577D01*
X65531900Y-75703454D01*
X65257690Y-75703454D01*
X65325798Y-75545384D01*
X64731900Y-74951485D01*
X64138002Y-75545384D01*
X64206110Y-75703454D01*
X63931900Y-75703454D01*
X63792934Y-75729602D01*
X63665301Y-75811731D01*
X63579677Y-75937046D01*
X63549554Y-76085800D01*
X63105715Y-76085800D01*
X63115580Y-74446697D01*
X63272096Y-74446697D01*
X63359913Y-74888180D01*
X63572316Y-74979698D01*
X64166215Y-74385800D01*
X65297585Y-74385800D01*
X65891484Y-74979698D01*
X66103887Y-74888180D01*
X66191704Y-74324903D01*
X66103887Y-73883420D01*
X65891484Y-73791902D01*
X65297585Y-74385800D01*
X64166215Y-74385800D01*
X63572316Y-73791902D01*
X63359913Y-73883420D01*
X63272096Y-74446697D01*
X63115580Y-74446697D01*
X63121315Y-73493791D01*
X63388890Y-73226216D01*
X64138002Y-73226216D01*
X64731900Y-73820115D01*
X65064914Y-73487100D01*
X67567554Y-73487100D01*
X67567554Y-75687100D01*
X67593702Y-75826066D01*
X67675831Y-75953699D01*
X67801146Y-76039323D01*
X67949900Y-76069446D01*
X70149900Y-76069446D01*
X70288866Y-76043298D01*
X70416499Y-75961169D01*
X70502123Y-75835854D01*
X70532246Y-75687100D01*
X70532246Y-73487100D01*
X70506098Y-73348134D01*
X70505626Y-73347400D01*
X70717154Y-73347400D01*
X70717154Y-75547400D01*
X70743302Y-75686366D01*
X70825431Y-75813999D01*
X70950746Y-75899623D01*
X71099500Y-75929746D01*
X73299500Y-75929746D01*
X73438466Y-75903598D01*
X73566099Y-75821469D01*
X73651723Y-75696154D01*
X73681846Y-75547400D01*
X73681846Y-73347400D01*
X73655698Y-73208434D01*
X73573569Y-73080801D01*
X73448254Y-72995177D01*
X73299500Y-72965054D01*
X71099500Y-72965054D01*
X70960534Y-72991202D01*
X70832901Y-73073331D01*
X70747277Y-73198646D01*
X70717154Y-73347400D01*
X70505626Y-73347400D01*
X70423969Y-73220501D01*
X70298654Y-73134877D01*
X70149900Y-73104754D01*
X67949900Y-73104754D01*
X67810934Y-73130902D01*
X67683301Y-73213031D01*
X67597677Y-73338346D01*
X67567554Y-73487100D01*
X65064914Y-73487100D01*
X65325798Y-73226216D01*
X65234280Y-73013813D01*
X64671003Y-72925996D01*
X64229520Y-73013813D01*
X64138002Y-73226216D01*
X63388890Y-73226216D01*
X63790053Y-72825053D01*
X63898440Y-72662842D01*
X63936500Y-72471500D01*
X63936500Y-71550450D01*
X64494300Y-71550450D01*
X64494300Y-71968112D01*
X64590669Y-72200766D01*
X64768735Y-72378832D01*
X65001389Y-72475200D01*
X65419050Y-72475200D01*
X65577300Y-72316950D01*
X65577300Y-71392200D01*
X64652550Y-71392200D01*
X64494300Y-71550450D01*
X63936500Y-71550450D01*
X63936500Y-69916288D01*
X64494300Y-69916288D01*
X64494300Y-70333950D01*
X64652550Y-70492200D01*
X65577300Y-70492200D01*
X65577300Y-69567450D01*
X66477300Y-69567450D01*
X66477300Y-70492200D01*
X66927300Y-70492200D01*
X66927300Y-71392200D01*
X66477300Y-71392200D01*
X66477300Y-72316950D01*
X66635550Y-72475200D01*
X67053211Y-72475200D01*
X67285865Y-72378832D01*
X67347495Y-72317202D01*
X67560300Y-72317202D01*
X67560300Y-71723344D01*
X67640760Y-71843761D01*
X68054400Y-72120146D01*
X68542321Y-72217200D01*
X68592279Y-72217200D01*
X69080200Y-72120146D01*
X69493840Y-71843761D01*
X69770225Y-71430121D01*
X69837300Y-71092914D01*
X69904375Y-71430121D01*
X70180760Y-71843761D01*
X70594400Y-72120146D01*
X71082321Y-72217200D01*
X71132279Y-72217200D01*
X71620200Y-72120146D01*
X72033840Y-71843761D01*
X72310225Y-71430121D01*
X72407279Y-70942200D01*
X72310225Y-70454279D01*
X72033840Y-70040639D01*
X71620200Y-69764254D01*
X71132279Y-69667200D01*
X71082321Y-69667200D01*
X70594400Y-69764254D01*
X70180760Y-70040639D01*
X69904375Y-70454279D01*
X69837300Y-70791486D01*
X69770225Y-70454279D01*
X69493840Y-70040639D01*
X69080200Y-69764254D01*
X68592279Y-69667200D01*
X68542321Y-69667200D01*
X68054400Y-69764254D01*
X67640760Y-70040639D01*
X67560300Y-70161056D01*
X67560300Y-69567198D01*
X67347495Y-69567198D01*
X67285865Y-69505568D01*
X67053211Y-69409200D01*
X66635550Y-69409200D01*
X66477300Y-69567450D01*
X65577300Y-69567450D01*
X65419050Y-69409200D01*
X65001389Y-69409200D01*
X64768735Y-69505568D01*
X64590669Y-69683634D01*
X64494300Y-69916288D01*
X63936500Y-69916288D01*
X63936500Y-68015534D01*
X64703146Y-68015534D01*
X65050604Y-68478254D01*
X65397971Y-68710320D01*
X65615000Y-68628226D01*
X65615000Y-67798500D01*
X64777419Y-67798500D01*
X64703146Y-68015534D01*
X63936500Y-68015534D01*
X63936500Y-65548606D01*
X64557000Y-64928107D01*
X64557000Y-66208502D01*
X65140780Y-66208502D01*
X65050604Y-66268746D01*
X64703146Y-66731466D01*
X64777419Y-66948500D01*
X65615000Y-66948500D01*
X65615000Y-66118774D01*
X65574621Y-66103500D01*
X65615000Y-66088226D01*
X65615000Y-65258500D01*
X65190000Y-65258500D01*
X65190000Y-64408500D01*
X65615000Y-64408500D01*
X65615000Y-63983500D01*
X65830471Y-63983500D01*
X65950258Y-64063540D01*
X66141600Y-64101600D01*
X66465000Y-64101600D01*
X66465000Y-64408500D01*
X66860800Y-64408500D01*
X66860800Y-65258500D01*
X66465000Y-65258500D01*
X66465000Y-66088226D01*
X66505379Y-66103500D01*
X66465000Y-66118774D01*
X66465000Y-66948500D01*
X66890000Y-66948500D01*
X66890000Y-67798500D01*
X66465000Y-67798500D01*
X66465000Y-68628226D01*
X66682029Y-68710320D01*
X66890000Y-68571380D01*
X66890000Y-68748502D01*
X67523000Y-68748502D01*
X67523000Y-67978161D01*
X67713794Y-68263705D01*
X68111213Y-68529251D01*
X68580000Y-68622499D01*
X69048787Y-68529251D01*
X69446206Y-68263705D01*
X69711752Y-67866286D01*
X69805000Y-67397499D01*
X69805000Y-67349501D01*
X69895000Y-67349501D01*
X69895000Y-67397499D01*
X69988248Y-67866286D01*
X70253794Y-68263705D01*
X70651213Y-68529251D01*
X71120000Y-68622499D01*
X71588787Y-68529251D01*
X71986206Y-68263705D01*
X72251752Y-67866286D01*
X72345000Y-67397499D01*
X72345000Y-67349501D01*
X72251752Y-66880714D01*
X71986206Y-66483295D01*
X71588787Y-66217749D01*
X71120000Y-66124501D01*
X70651213Y-66217749D01*
X70253794Y-66483295D01*
X69988248Y-66880714D01*
X69895000Y-67349501D01*
X69805000Y-67349501D01*
X69711752Y-66880714D01*
X69446206Y-66483295D01*
X69048787Y-66217749D01*
X68580000Y-66124501D01*
X68128013Y-66214407D01*
X67860800Y-65947194D01*
X67860800Y-65821931D01*
X68111213Y-65989251D01*
X68580000Y-66082499D01*
X69048787Y-65989251D01*
X69446206Y-65723705D01*
X69711752Y-65326286D01*
X69805000Y-64857499D01*
X69805000Y-64809501D01*
X69723057Y-64397549D01*
X69887654Y-64232952D01*
X69887654Y-65683500D01*
X69913802Y-65822466D01*
X69995931Y-65950099D01*
X70121246Y-66035723D01*
X70270000Y-66065846D01*
X71970000Y-66065846D01*
X72108966Y-66039698D01*
X72236599Y-65957569D01*
X72322223Y-65832254D01*
X72352346Y-65683500D01*
X72352346Y-63983500D01*
X72326198Y-63844534D01*
X72244069Y-63716901D01*
X72118754Y-63631277D01*
X71970000Y-63601154D01*
X70519452Y-63601154D01*
X70965553Y-63155053D01*
X71073940Y-62992842D01*
X71075050Y-62987260D01*
X71112000Y-62801500D01*
X71112000Y-59897106D01*
X71727554Y-59281553D01*
X71793510Y-59182842D01*
X71835940Y-59119342D01*
X71874000Y-58928000D01*
X71874000Y-55115345D01*
X71996703Y-54992856D01*
X72074748Y-54804904D01*
X72083025Y-54813195D01*
X72083025Y-54813195D01*
G37*
X72083025Y-54813195D02*
X72115807Y-54978000D01*
X72118560Y-54991842D01*
X72226947Y-55154053D01*
X72671447Y-55598553D01*
X72833658Y-55706940D01*
X73025000Y-55745000D01*
X74369894Y-55745000D01*
X74660375Y-56035481D01*
X74655055Y-56919426D01*
X74605823Y-56919383D01*
X74357643Y-57021929D01*
X74167597Y-57211644D01*
X74064617Y-57459645D01*
X74064383Y-57728177D01*
X74166929Y-57976357D01*
X74356644Y-58166403D01*
X74604645Y-58269383D01*
X74646931Y-58269420D01*
X74646106Y-58406413D01*
X74429855Y-58316617D01*
X74161323Y-58316383D01*
X73913143Y-58418929D01*
X73723097Y-58608644D01*
X73620117Y-58856645D01*
X73619883Y-59125177D01*
X73722429Y-59373357D01*
X73912144Y-59563403D01*
X74160145Y-59666383D01*
X74428677Y-59666617D01*
X74491184Y-59640790D01*
X74620500Y-59770106D01*
X74620500Y-60460937D01*
X74525480Y-60348641D01*
X74525617Y-60191323D01*
X74423071Y-59943143D01*
X74233356Y-59753097D01*
X73985355Y-59650117D01*
X73716823Y-59649883D01*
X73468643Y-59752429D01*
X73278597Y-59942144D01*
X73175617Y-60190145D01*
X73175383Y-60458677D01*
X73277929Y-60706857D01*
X73467644Y-60896903D01*
X73715645Y-60999883D01*
X73766616Y-60999927D01*
X74049000Y-61333654D01*
X74049000Y-61649313D01*
X73954077Y-61570211D01*
X73954117Y-61524823D01*
X73851571Y-61276643D01*
X73661856Y-61086597D01*
X73413855Y-60983617D01*
X73145323Y-60983383D01*
X72897143Y-61085929D01*
X72707097Y-61275644D01*
X72604117Y-61523645D01*
X72603883Y-61792177D01*
X72706429Y-62040357D01*
X72896144Y-62230403D01*
X73144145Y-62333383D01*
X73308006Y-62333526D01*
X73541000Y-62527688D01*
X73541000Y-63054893D01*
X73382528Y-62896422D01*
X73382617Y-62794823D01*
X73280071Y-62546643D01*
X73090356Y-62356597D01*
X72842355Y-62253617D01*
X72573823Y-62253383D01*
X72325643Y-62355929D01*
X72135597Y-62545644D01*
X72032617Y-62793645D01*
X72032383Y-63062177D01*
X72134929Y-63310357D01*
X72324644Y-63500403D01*
X72572645Y-63603383D01*
X72675366Y-63603473D01*
X72969500Y-63897607D01*
X72969500Y-69977000D01*
X73000221Y-70131446D01*
X73007560Y-70168342D01*
X73115947Y-70330553D01*
X73477500Y-70692107D01*
X73477500Y-71048880D01*
X73507716Y-71200786D01*
X73515560Y-71240222D01*
X73623947Y-71402433D01*
X73982960Y-71761447D01*
X73982960Y-73609200D01*
X74012671Y-73758566D01*
X74021020Y-73800542D01*
X74129407Y-73962753D01*
X74485880Y-74319227D01*
X74485880Y-75632955D01*
X74404560Y-75754658D01*
X74366500Y-75946000D01*
X74366500Y-78394500D01*
X74404560Y-78585842D01*
X74512947Y-78748053D01*
X74523625Y-78758731D01*
X74502586Y-82254702D01*
X73873342Y-81625458D01*
X73670577Y-81489975D01*
X73557889Y-81467560D01*
X73242483Y-80995520D01*
X72763958Y-80675781D01*
X72199500Y-80563503D01*
X71635042Y-80675781D01*
X71156517Y-80995520D01*
X70836778Y-81474045D01*
X70724500Y-82038503D01*
X70724500Y-82096297D01*
X70836778Y-82660755D01*
X71156517Y-83139280D01*
X71635042Y-83459019D01*
X72199500Y-83571297D01*
X72763958Y-83459019D01*
X73242483Y-83139280D01*
X73393453Y-82913337D01*
X74492011Y-84011895D01*
X74489764Y-84385282D01*
X74199453Y-84094464D01*
X73767747Y-83915204D01*
X73300303Y-83914796D01*
X72868285Y-84093302D01*
X72537464Y-84423547D01*
X72358204Y-84855253D01*
X72357796Y-85322697D01*
X72536302Y-85754715D01*
X72866547Y-86085536D01*
X73298253Y-86264796D01*
X73765697Y-86265204D01*
X74197715Y-86086698D01*
X74481228Y-85803678D01*
X74444082Y-91976205D01*
X74363850Y-91856130D01*
X73982653Y-91601422D01*
X73533000Y-91511980D01*
X73083347Y-91601422D01*
X72702150Y-91856130D01*
X72522240Y-92125384D01*
X72522240Y-89956640D01*
X72474665Y-89717463D01*
X72339182Y-89514698D01*
X69674900Y-86850416D01*
X69674900Y-86068638D01*
X69818547Y-86212536D01*
X70250253Y-86391796D01*
X70717697Y-86392204D01*
X71149715Y-86213698D01*
X71480536Y-85883453D01*
X71659796Y-85451747D01*
X71660204Y-84984303D01*
X71481698Y-84552285D01*
X71151453Y-84221464D01*
X70719747Y-84042204D01*
X70252303Y-84041796D01*
X69820285Y-84220302D01*
X69674900Y-84365434D01*
X69674900Y-83558266D01*
X70092883Y-83278980D01*
X70412622Y-82800455D01*
X70524900Y-82235997D01*
X70524900Y-82178203D01*
X70412622Y-81613745D01*
X70092883Y-81135220D01*
X69614358Y-80815481D01*
X69049900Y-80703203D01*
X68485442Y-80815481D01*
X68006917Y-81135220D01*
X67687178Y-81613745D01*
X67574900Y-82178203D01*
X67574900Y-82235997D01*
X67687178Y-82800455D01*
X68006917Y-83278980D01*
X68424900Y-83558266D01*
X68424900Y-85126343D01*
X68239892Y-84941011D01*
X67734704Y-84731239D01*
X67187695Y-84730762D01*
X66682143Y-84939652D01*
X66295011Y-85326108D01*
X66178790Y-85606000D01*
X63048423Y-85606000D01*
X63059678Y-83735624D01*
X64115142Y-83735624D01*
X64206660Y-83948027D01*
X64769937Y-84035844D01*
X65211420Y-83948027D01*
X65302938Y-83735624D01*
X64709040Y-83141725D01*
X64115142Y-83735624D01*
X63059678Y-83735624D01*
X63066290Y-82636937D01*
X63249236Y-82636937D01*
X63337053Y-83078420D01*
X63549456Y-83169938D01*
X64143355Y-82576040D01*
X65274725Y-82576040D01*
X65868624Y-83169938D01*
X66081027Y-83078420D01*
X66168844Y-82515143D01*
X66081027Y-82073660D01*
X65868624Y-81982142D01*
X65274725Y-82576040D01*
X64143355Y-82576040D01*
X63549456Y-81982142D01*
X63337053Y-82073660D01*
X63249236Y-82636937D01*
X63066290Y-82636937D01*
X63086516Y-79276040D01*
X63526694Y-79276040D01*
X63526694Y-80876040D01*
X63552842Y-81015006D01*
X63634971Y-81142639D01*
X63760286Y-81228263D01*
X63909040Y-81258386D01*
X64183250Y-81258386D01*
X64115142Y-81416456D01*
X64709040Y-82010355D01*
X65302938Y-81416456D01*
X65234830Y-81258386D01*
X65509040Y-81258386D01*
X65648006Y-81232238D01*
X65775639Y-81150109D01*
X65861263Y-81024794D01*
X65891386Y-80876040D01*
X65891386Y-79276040D01*
X65865238Y-79137074D01*
X65783109Y-79009441D01*
X65657794Y-78923817D01*
X65509040Y-78893694D01*
X63909040Y-78893694D01*
X63770074Y-78919842D01*
X63642441Y-79001971D01*
X63556817Y-79127286D01*
X63526694Y-79276040D01*
X63086516Y-79276040D01*
X63105715Y-76085800D01*
X63549554Y-76085800D01*
X63549554Y-77685800D01*
X63575702Y-77824766D01*
X63657831Y-77952399D01*
X63783146Y-78038023D01*
X63931900Y-78068146D01*
X65531900Y-78068146D01*
X65670866Y-78041998D01*
X65798499Y-77959869D01*
X65884123Y-77834554D01*
X65914246Y-77685800D01*
X65914246Y-76085800D01*
X65888098Y-75946834D01*
X65805969Y-75819201D01*
X65680654Y-75733577D01*
X65531900Y-75703454D01*
X65257690Y-75703454D01*
X65325798Y-75545384D01*
X64731900Y-74951485D01*
X64138002Y-75545384D01*
X64206110Y-75703454D01*
X63931900Y-75703454D01*
X63792934Y-75729602D01*
X63665301Y-75811731D01*
X63579677Y-75937046D01*
X63549554Y-76085800D01*
X63105715Y-76085800D01*
X63115580Y-74446697D01*
X63272096Y-74446697D01*
X63359913Y-74888180D01*
X63572316Y-74979698D01*
X64166215Y-74385800D01*
X65297585Y-74385800D01*
X65891484Y-74979698D01*
X66103887Y-74888180D01*
X66191704Y-74324903D01*
X66103887Y-73883420D01*
X65891484Y-73791902D01*
X65297585Y-74385800D01*
X64166215Y-74385800D01*
X63572316Y-73791902D01*
X63359913Y-73883420D01*
X63272096Y-74446697D01*
X63115580Y-74446697D01*
X63121315Y-73493791D01*
X63388890Y-73226216D01*
X64138002Y-73226216D01*
X64731900Y-73820115D01*
X65064914Y-73487100D01*
X67567554Y-73487100D01*
X67567554Y-75687100D01*
X67593702Y-75826066D01*
X67675831Y-75953699D01*
X67801146Y-76039323D01*
X67949900Y-76069446D01*
X70149900Y-76069446D01*
X70288866Y-76043298D01*
X70416499Y-75961169D01*
X70502123Y-75835854D01*
X70532246Y-75687100D01*
X70532246Y-73487100D01*
X70506098Y-73348134D01*
X70505626Y-73347400D01*
X70717154Y-73347400D01*
X70717154Y-75547400D01*
X70743302Y-75686366D01*
X70825431Y-75813999D01*
X70950746Y-75899623D01*
X71099500Y-75929746D01*
X73299500Y-75929746D01*
X73438466Y-75903598D01*
X73566099Y-75821469D01*
X73651723Y-75696154D01*
X73681846Y-75547400D01*
X73681846Y-73347400D01*
X73655698Y-73208434D01*
X73573569Y-73080801D01*
X73448254Y-72995177D01*
X73299500Y-72965054D01*
X71099500Y-72965054D01*
X70960534Y-72991202D01*
X70832901Y-73073331D01*
X70747277Y-73198646D01*
X70717154Y-73347400D01*
X70505626Y-73347400D01*
X70423969Y-73220501D01*
X70298654Y-73134877D01*
X70149900Y-73104754D01*
X67949900Y-73104754D01*
X67810934Y-73130902D01*
X67683301Y-73213031D01*
X67597677Y-73338346D01*
X67567554Y-73487100D01*
X65064914Y-73487100D01*
X65325798Y-73226216D01*
X65234280Y-73013813D01*
X64671003Y-72925996D01*
X64229520Y-73013813D01*
X64138002Y-73226216D01*
X63388890Y-73226216D01*
X63790053Y-72825053D01*
X63898440Y-72662842D01*
X63936500Y-72471500D01*
X63936500Y-71550450D01*
X64494300Y-71550450D01*
X64494300Y-71968112D01*
X64590669Y-72200766D01*
X64768735Y-72378832D01*
X65001389Y-72475200D01*
X65419050Y-72475200D01*
X65577300Y-72316950D01*
X65577300Y-71392200D01*
X64652550Y-71392200D01*
X64494300Y-71550450D01*
X63936500Y-71550450D01*
X63936500Y-69916288D01*
X64494300Y-69916288D01*
X64494300Y-70333950D01*
X64652550Y-70492200D01*
X65577300Y-70492200D01*
X65577300Y-69567450D01*
X66477300Y-69567450D01*
X66477300Y-70492200D01*
X66927300Y-70492200D01*
X66927300Y-71392200D01*
X66477300Y-71392200D01*
X66477300Y-72316950D01*
X66635550Y-72475200D01*
X67053211Y-72475200D01*
X67285865Y-72378832D01*
X67347495Y-72317202D01*
X67560300Y-72317202D01*
X67560300Y-71723344D01*
X67640760Y-71843761D01*
X68054400Y-72120146D01*
X68542321Y-72217200D01*
X68592279Y-72217200D01*
X69080200Y-72120146D01*
X69493840Y-71843761D01*
X69770225Y-71430121D01*
X69837300Y-71092914D01*
X69904375Y-71430121D01*
X70180760Y-71843761D01*
X70594400Y-72120146D01*
X71082321Y-72217200D01*
X71132279Y-72217200D01*
X71620200Y-72120146D01*
X72033840Y-71843761D01*
X72310225Y-71430121D01*
X72407279Y-70942200D01*
X72310225Y-70454279D01*
X72033840Y-70040639D01*
X71620200Y-69764254D01*
X71132279Y-69667200D01*
X71082321Y-69667200D01*
X70594400Y-69764254D01*
X70180760Y-70040639D01*
X69904375Y-70454279D01*
X69837300Y-70791486D01*
X69770225Y-70454279D01*
X69493840Y-70040639D01*
X69080200Y-69764254D01*
X68592279Y-69667200D01*
X68542321Y-69667200D01*
X68054400Y-69764254D01*
X67640760Y-70040639D01*
X67560300Y-70161056D01*
X67560300Y-69567198D01*
X67347495Y-69567198D01*
X67285865Y-69505568D01*
X67053211Y-69409200D01*
X66635550Y-69409200D01*
X66477300Y-69567450D01*
X65577300Y-69567450D01*
X65419050Y-69409200D01*
X65001389Y-69409200D01*
X64768735Y-69505568D01*
X64590669Y-69683634D01*
X64494300Y-69916288D01*
X63936500Y-69916288D01*
X63936500Y-68015534D01*
X64703146Y-68015534D01*
X65050604Y-68478254D01*
X65397971Y-68710320D01*
X65615000Y-68628226D01*
X65615000Y-67798500D01*
X64777419Y-67798500D01*
X64703146Y-68015534D01*
X63936500Y-68015534D01*
X63936500Y-65548606D01*
X64557000Y-64928107D01*
X64557000Y-66208502D01*
X65140780Y-66208502D01*
X65050604Y-66268746D01*
X64703146Y-66731466D01*
X64777419Y-66948500D01*
X65615000Y-66948500D01*
X65615000Y-66118774D01*
X65574621Y-66103500D01*
X65615000Y-66088226D01*
X65615000Y-65258500D01*
X65190000Y-65258500D01*
X65190000Y-64408500D01*
X65615000Y-64408500D01*
X65615000Y-63983500D01*
X65830471Y-63983500D01*
X65950258Y-64063540D01*
X66141600Y-64101600D01*
X66465000Y-64101600D01*
X66465000Y-64408500D01*
X66860800Y-64408500D01*
X66860800Y-65258500D01*
X66465000Y-65258500D01*
X66465000Y-66088226D01*
X66505379Y-66103500D01*
X66465000Y-66118774D01*
X66465000Y-66948500D01*
X66890000Y-66948500D01*
X66890000Y-67798500D01*
X66465000Y-67798500D01*
X66465000Y-68628226D01*
X66682029Y-68710320D01*
X66890000Y-68571380D01*
X66890000Y-68748502D01*
X67523000Y-68748502D01*
X67523000Y-67978161D01*
X67713794Y-68263705D01*
X68111213Y-68529251D01*
X68580000Y-68622499D01*
X69048787Y-68529251D01*
X69446206Y-68263705D01*
X69711752Y-67866286D01*
X69805000Y-67397499D01*
X69805000Y-67349501D01*
X69895000Y-67349501D01*
X69895000Y-67397499D01*
X69988248Y-67866286D01*
X70253794Y-68263705D01*
X70651213Y-68529251D01*
X71120000Y-68622499D01*
X71588787Y-68529251D01*
X71986206Y-68263705D01*
X72251752Y-67866286D01*
X72345000Y-67397499D01*
X72345000Y-67349501D01*
X72251752Y-66880714D01*
X71986206Y-66483295D01*
X71588787Y-66217749D01*
X71120000Y-66124501D01*
X70651213Y-66217749D01*
X70253794Y-66483295D01*
X69988248Y-66880714D01*
X69895000Y-67349501D01*
X69805000Y-67349501D01*
X69711752Y-66880714D01*
X69446206Y-66483295D01*
X69048787Y-66217749D01*
X68580000Y-66124501D01*
X68128013Y-66214407D01*
X67860800Y-65947194D01*
X67860800Y-65821931D01*
X68111213Y-65989251D01*
X68580000Y-66082499D01*
X69048787Y-65989251D01*
X69446206Y-65723705D01*
X69711752Y-65326286D01*
X69805000Y-64857499D01*
X69805000Y-64809501D01*
X69723057Y-64397549D01*
X69887654Y-64232952D01*
X69887654Y-65683500D01*
X69913802Y-65822466D01*
X69995931Y-65950099D01*
X70121246Y-66035723D01*
X70270000Y-66065846D01*
X71970000Y-66065846D01*
X72108966Y-66039698D01*
X72236599Y-65957569D01*
X72322223Y-65832254D01*
X72352346Y-65683500D01*
X72352346Y-63983500D01*
X72326198Y-63844534D01*
X72244069Y-63716901D01*
X72118754Y-63631277D01*
X71970000Y-63601154D01*
X70519452Y-63601154D01*
X70965553Y-63155053D01*
X71073940Y-62992842D01*
X71075050Y-62987260D01*
X71112000Y-62801500D01*
X71112000Y-59897106D01*
X71727554Y-59281553D01*
X71793510Y-59182842D01*
X71835940Y-59119342D01*
X71874000Y-58928000D01*
X71874000Y-55115345D01*
X71996703Y-54992856D01*
X72074748Y-54804904D01*
X72083025Y-54813195D01*
G36*
X72907146Y-48600252D02*
X72906849Y-48941285D01*
X73039779Y-49263000D01*
X73285705Y-49509356D01*
X73558686Y-49622708D01*
X73389394Y-49792000D01*
X72707500Y-49792000D01*
X72629087Y-49807597D01*
X72383323Y-49807383D01*
X72135143Y-49909929D01*
X71945097Y-50099644D01*
X71842117Y-50347645D01*
X71841883Y-50616177D01*
X71944429Y-50864357D01*
X72134144Y-51054403D01*
X72382145Y-51157383D01*
X72650677Y-51157617D01*
X72898857Y-51055071D01*
X73088903Y-50865356D01*
X73119363Y-50792000D01*
X73596500Y-50792000D01*
X73787842Y-50753940D01*
X73950053Y-50645553D01*
X74697309Y-49898298D01*
X74690594Y-51013957D01*
X74605823Y-51013883D01*
X74357643Y-51116429D01*
X74167597Y-51306144D01*
X74064617Y-51554145D01*
X74064383Y-51822677D01*
X74166929Y-52070857D01*
X74356644Y-52260903D01*
X74366500Y-52264996D01*
X74366500Y-52994500D01*
X74400800Y-53166940D01*
X74404560Y-53185842D01*
X74512947Y-53348053D01*
X74675569Y-53510675D01*
X74668032Y-54763107D01*
X74577000Y-54745000D01*
X73232106Y-54745000D01*
X73110486Y-54623380D01*
X73191883Y-54427355D01*
X73192117Y-54158823D01*
X73089571Y-53910643D01*
X72899856Y-53720597D01*
X72651855Y-53617617D01*
X72383323Y-53617383D01*
X72135143Y-53719929D01*
X71945097Y-53909644D01*
X71867052Y-54097596D01*
X71807656Y-54038097D01*
X71559655Y-53935117D01*
X71291123Y-53934883D01*
X71042943Y-54037429D01*
X70852897Y-54227144D01*
X70749917Y-54475145D01*
X70749683Y-54743677D01*
X70852229Y-54991857D01*
X70874000Y-55013666D01*
X70874000Y-58720893D01*
X70258447Y-59336447D01*
X70150060Y-59498658D01*
X70112000Y-59690000D01*
X70112000Y-61251151D01*
X70031953Y-61170964D01*
X69600247Y-60991704D01*
X69132803Y-60991296D01*
X68700785Y-61169802D01*
X68369964Y-61500047D01*
X68258328Y-61768896D01*
X68237487Y-61664120D01*
X68025084Y-61572602D01*
X67431185Y-62166500D01*
X68025084Y-62760398D01*
X68237487Y-62668880D01*
X68255085Y-62556000D01*
X68368802Y-62831215D01*
X68699047Y-63162036D01*
X69130753Y-63341296D01*
X69364894Y-63341500D01*
X69031987Y-63674407D01*
X68580000Y-63584501D01*
X68111213Y-63677749D01*
X67800679Y-63885241D01*
X67714353Y-63756046D01*
X67523000Y-63564694D01*
X67523000Y-63458498D01*
X67416804Y-63458498D01*
X67415002Y-63456696D01*
X67415002Y-63429123D01*
X67459398Y-63326084D01*
X66865500Y-62732185D01*
X66582657Y-63015028D01*
X66459099Y-62891470D01*
X66451140Y-62851458D01*
X66342753Y-62689247D01*
X66059910Y-62406404D01*
X66299815Y-62166500D01*
X65705916Y-61572602D01*
X65493513Y-61664120D01*
X65473200Y-61794412D01*
X65473200Y-61006916D01*
X66271602Y-61006916D01*
X66865500Y-61600815D01*
X67459398Y-61006916D01*
X67367880Y-60794513D01*
X66804603Y-60706696D01*
X66363120Y-60794513D01*
X66271602Y-61006916D01*
X65473200Y-61006916D01*
X65473200Y-60557506D01*
X67511153Y-58519553D01*
X67619540Y-58357342D01*
X67624382Y-58333000D01*
X67657600Y-58166000D01*
X67657600Y-57706916D01*
X67742657Y-57671771D01*
X67932703Y-57482056D01*
X68035683Y-57234055D01*
X68035917Y-56965523D01*
X67933371Y-56717343D01*
X67743656Y-56527297D01*
X67495655Y-56424317D01*
X67227123Y-56424083D01*
X66978943Y-56526629D01*
X66788897Y-56716344D01*
X66685917Y-56964345D01*
X66685746Y-57160901D01*
X66657600Y-57302400D01*
X66657600Y-57958894D01*
X64619647Y-59996847D01*
X64511260Y-60159058D01*
X64473200Y-60350400D01*
X64473200Y-62026800D01*
X64479356Y-62057750D01*
X63301500Y-60879894D01*
X63301500Y-57586500D01*
X63309500Y-57586500D01*
X63500842Y-57548440D01*
X63663053Y-57440053D01*
X65548606Y-55554500D01*
X67119500Y-55554500D01*
X67310842Y-55516440D01*
X67473053Y-55408053D01*
X68231078Y-54650028D01*
X68332677Y-54650117D01*
X68580857Y-54547571D01*
X68770903Y-54357856D01*
X68873883Y-54109855D01*
X68874117Y-53841323D01*
X68771571Y-53593143D01*
X68581856Y-53403097D01*
X68452305Y-53349302D01*
X69056578Y-52745028D01*
X69158177Y-52745117D01*
X69406357Y-52642571D01*
X69596403Y-52452856D01*
X69699383Y-52204855D01*
X69699617Y-51936323D01*
X69597071Y-51688143D01*
X69410929Y-51501677D01*
X69568553Y-51344053D01*
X69676940Y-51181842D01*
X69678699Y-51173000D01*
X69715000Y-50990500D01*
X69715000Y-50556134D01*
X69786903Y-50484356D01*
X69889883Y-50236355D01*
X69890117Y-49967823D01*
X69787571Y-49719643D01*
X69638171Y-49569982D01*
X69793177Y-49570117D01*
X70041357Y-49467571D01*
X70231403Y-49277856D01*
X70261863Y-49204500D01*
X70421500Y-49204500D01*
X70612842Y-49166440D01*
X70775053Y-49058053D01*
X71006949Y-48826157D01*
X71006849Y-48941285D01*
X71139779Y-49263000D01*
X71385705Y-49509356D01*
X71707188Y-49642848D01*
X72055285Y-49643151D01*
X72377000Y-49510221D01*
X72623356Y-49264295D01*
X72756848Y-48942812D01*
X72757151Y-48594715D01*
X72655433Y-48348539D01*
X72907146Y-48600252D01*
X72907146Y-48600252D01*
G37*
X72907146Y-48600252D02*
X72906849Y-48941285D01*
X73039779Y-49263000D01*
X73285705Y-49509356D01*
X73558686Y-49622708D01*
X73389394Y-49792000D01*
X72707500Y-49792000D01*
X72629087Y-49807597D01*
X72383323Y-49807383D01*
X72135143Y-49909929D01*
X71945097Y-50099644D01*
X71842117Y-50347645D01*
X71841883Y-50616177D01*
X71944429Y-50864357D01*
X72134144Y-51054403D01*
X72382145Y-51157383D01*
X72650677Y-51157617D01*
X72898857Y-51055071D01*
X73088903Y-50865356D01*
X73119363Y-50792000D01*
X73596500Y-50792000D01*
X73787842Y-50753940D01*
X73950053Y-50645553D01*
X74697309Y-49898298D01*
X74690594Y-51013957D01*
X74605823Y-51013883D01*
X74357643Y-51116429D01*
X74167597Y-51306144D01*
X74064617Y-51554145D01*
X74064383Y-51822677D01*
X74166929Y-52070857D01*
X74356644Y-52260903D01*
X74366500Y-52264996D01*
X74366500Y-52994500D01*
X74400800Y-53166940D01*
X74404560Y-53185842D01*
X74512947Y-53348053D01*
X74675569Y-53510675D01*
X74668032Y-54763107D01*
X74577000Y-54745000D01*
X73232106Y-54745000D01*
X73110486Y-54623380D01*
X73191883Y-54427355D01*
X73192117Y-54158823D01*
X73089571Y-53910643D01*
X72899856Y-53720597D01*
X72651855Y-53617617D01*
X72383323Y-53617383D01*
X72135143Y-53719929D01*
X71945097Y-53909644D01*
X71867052Y-54097596D01*
X71807656Y-54038097D01*
X71559655Y-53935117D01*
X71291123Y-53934883D01*
X71042943Y-54037429D01*
X70852897Y-54227144D01*
X70749917Y-54475145D01*
X70749683Y-54743677D01*
X70852229Y-54991857D01*
X70874000Y-55013666D01*
X70874000Y-58720893D01*
X70258447Y-59336447D01*
X70150060Y-59498658D01*
X70112000Y-59690000D01*
X70112000Y-61251151D01*
X70031953Y-61170964D01*
X69600247Y-60991704D01*
X69132803Y-60991296D01*
X68700785Y-61169802D01*
X68369964Y-61500047D01*
X68258328Y-61768896D01*
X68237487Y-61664120D01*
X68025084Y-61572602D01*
X67431185Y-62166500D01*
X68025084Y-62760398D01*
X68237487Y-62668880D01*
X68255085Y-62556000D01*
X68368802Y-62831215D01*
X68699047Y-63162036D01*
X69130753Y-63341296D01*
X69364894Y-63341500D01*
X69031987Y-63674407D01*
X68580000Y-63584501D01*
X68111213Y-63677749D01*
X67800679Y-63885241D01*
X67714353Y-63756046D01*
X67523000Y-63564694D01*
X67523000Y-63458498D01*
X67416804Y-63458498D01*
X67415002Y-63456696D01*
X67415002Y-63429123D01*
X67459398Y-63326084D01*
X66865500Y-62732185D01*
X66582657Y-63015028D01*
X66459099Y-62891470D01*
X66451140Y-62851458D01*
X66342753Y-62689247D01*
X66059910Y-62406404D01*
X66299815Y-62166500D01*
X65705916Y-61572602D01*
X65493513Y-61664120D01*
X65473200Y-61794412D01*
X65473200Y-61006916D01*
X66271602Y-61006916D01*
X66865500Y-61600815D01*
X67459398Y-61006916D01*
X67367880Y-60794513D01*
X66804603Y-60706696D01*
X66363120Y-60794513D01*
X66271602Y-61006916D01*
X65473200Y-61006916D01*
X65473200Y-60557506D01*
X67511153Y-58519553D01*
X67619540Y-58357342D01*
X67624382Y-58333000D01*
X67657600Y-58166000D01*
X67657600Y-57706916D01*
X67742657Y-57671771D01*
X67932703Y-57482056D01*
X68035683Y-57234055D01*
X68035917Y-56965523D01*
X67933371Y-56717343D01*
X67743656Y-56527297D01*
X67495655Y-56424317D01*
X67227123Y-56424083D01*
X66978943Y-56526629D01*
X66788897Y-56716344D01*
X66685917Y-56964345D01*
X66685746Y-57160901D01*
X66657600Y-57302400D01*
X66657600Y-57958894D01*
X64619647Y-59996847D01*
X64511260Y-60159058D01*
X64473200Y-60350400D01*
X64473200Y-62026800D01*
X64479356Y-62057750D01*
X63301500Y-60879894D01*
X63301500Y-57586500D01*
X63309500Y-57586500D01*
X63500842Y-57548440D01*
X63663053Y-57440053D01*
X65548606Y-55554500D01*
X67119500Y-55554500D01*
X67310842Y-55516440D01*
X67473053Y-55408053D01*
X68231078Y-54650028D01*
X68332677Y-54650117D01*
X68580857Y-54547571D01*
X68770903Y-54357856D01*
X68873883Y-54109855D01*
X68874117Y-53841323D01*
X68771571Y-53593143D01*
X68581856Y-53403097D01*
X68452305Y-53349302D01*
X69056578Y-52745028D01*
X69158177Y-52745117D01*
X69406357Y-52642571D01*
X69596403Y-52452856D01*
X69699383Y-52204855D01*
X69699617Y-51936323D01*
X69597071Y-51688143D01*
X69410929Y-51501677D01*
X69568553Y-51344053D01*
X69676940Y-51181842D01*
X69678699Y-51173000D01*
X69715000Y-50990500D01*
X69715000Y-50556134D01*
X69786903Y-50484356D01*
X69889883Y-50236355D01*
X69890117Y-49967823D01*
X69787571Y-49719643D01*
X69638171Y-49569982D01*
X69793177Y-49570117D01*
X70041357Y-49467571D01*
X70231403Y-49277856D01*
X70261863Y-49204500D01*
X70421500Y-49204500D01*
X70612842Y-49166440D01*
X70775053Y-49058053D01*
X71006949Y-48826157D01*
X71006849Y-48941285D01*
X71139779Y-49263000D01*
X71385705Y-49509356D01*
X71707188Y-49642848D01*
X72055285Y-49643151D01*
X72377000Y-49510221D01*
X72623356Y-49264295D01*
X72756848Y-48942812D01*
X72757151Y-48594715D01*
X72655433Y-48348539D01*
X72907146Y-48600252D01*
G36*
X67761986Y-32368907D02*
X67310000Y-32279001D01*
X66841213Y-32372249D01*
X66443794Y-32637795D01*
X66178248Y-33035214D01*
X66085000Y-33504001D01*
X66085000Y-33551999D01*
X66178248Y-34020786D01*
X66443794Y-34418205D01*
X66841213Y-34683751D01*
X67310000Y-34776999D01*
X67778787Y-34683751D01*
X68176206Y-34418205D01*
X68441752Y-34020786D01*
X68535000Y-33551999D01*
X68535000Y-33504001D01*
X68453057Y-33092049D01*
X68914107Y-32631000D01*
X68993963Y-32631000D01*
X68983794Y-32637795D01*
X68718248Y-33035214D01*
X68625000Y-33504001D01*
X68625000Y-33551999D01*
X68718248Y-34020786D01*
X68983794Y-34418205D01*
X69381213Y-34683751D01*
X69850000Y-34776999D01*
X70318787Y-34683751D01*
X70716206Y-34418205D01*
X70907000Y-34132661D01*
X70907000Y-34903002D01*
X71540000Y-34903002D01*
X71540000Y-34725880D01*
X71747971Y-34864820D01*
X71965000Y-34782726D01*
X71965000Y-33953000D01*
X72815000Y-33953000D01*
X72815000Y-34782726D01*
X73032029Y-34864820D01*
X73379396Y-34632754D01*
X73726854Y-34170034D01*
X73652581Y-33953000D01*
X72815000Y-33953000D01*
X71965000Y-33953000D01*
X71540000Y-33953000D01*
X71540000Y-33103000D01*
X71965000Y-33103000D01*
X71965000Y-32678000D01*
X72815000Y-32678000D01*
X72815000Y-33103000D01*
X73652581Y-33103000D01*
X73726854Y-32885966D01*
X73570691Y-32678000D01*
X73765002Y-32678000D01*
X73765002Y-32631000D01*
X74801224Y-32631000D01*
X74787953Y-34836163D01*
X74488058Y-35136058D01*
X74352575Y-35338823D01*
X74305000Y-35578000D01*
X74305000Y-35706193D01*
X73425130Y-34826323D01*
X72959412Y-35292041D01*
X73081954Y-35414583D01*
X72863620Y-35458013D01*
X72772102Y-35670416D01*
X73366000Y-36264315D01*
X73648843Y-35981472D01*
X74214528Y-36547157D01*
X73931685Y-36830000D01*
X74214528Y-37112843D01*
X73648843Y-37678528D01*
X73366000Y-37395685D01*
X72772102Y-37989584D01*
X72863620Y-38201987D01*
X73090078Y-38237293D01*
X72959412Y-38367959D01*
X73425130Y-38833677D01*
X73426917Y-38831890D01*
X73393140Y-39001700D01*
X73393140Y-43705976D01*
X72924058Y-44175058D01*
X72788575Y-44377823D01*
X72776566Y-44438197D01*
X72701285Y-44469302D01*
X72370464Y-44799547D01*
X72258828Y-45068396D01*
X72237987Y-44963620D01*
X72025584Y-44872102D01*
X71431685Y-45466000D01*
X71714528Y-45748843D01*
X71148843Y-46314528D01*
X70866000Y-46031685D01*
X70272102Y-46625584D01*
X70363620Y-46837987D01*
X70590078Y-46873293D01*
X70576957Y-46886414D01*
X70541823Y-46886383D01*
X70293643Y-46988929D01*
X70103597Y-47178644D01*
X70000617Y-47426645D01*
X70000383Y-47695177D01*
X70102929Y-47943357D01*
X70289071Y-48129823D01*
X70214394Y-48204500D01*
X69866607Y-48204500D01*
X69778500Y-48116394D01*
X69778500Y-45987814D01*
X70300315Y-45466000D01*
X70017472Y-45183157D01*
X70583157Y-44617472D01*
X70866000Y-44900315D01*
X71459898Y-44306416D01*
X71368380Y-44094013D01*
X71270492Y-44078752D01*
X71350383Y-43886355D01*
X71350617Y-43617823D01*
X71248071Y-43369643D01*
X71058356Y-43179597D01*
X70810355Y-43076617D01*
X70541823Y-43076383D01*
X70293643Y-43178929D01*
X70103597Y-43368644D01*
X70000617Y-43616645D01*
X70000527Y-43719366D01*
X69910164Y-43809729D01*
X69724856Y-43624097D01*
X69476855Y-43521117D01*
X69374134Y-43521027D01*
X69091354Y-43238248D01*
X69191383Y-42997355D01*
X69191617Y-42728823D01*
X69089071Y-42480643D01*
X68899356Y-42290597D01*
X68651355Y-42187617D01*
X68382823Y-42187383D01*
X68134643Y-42289929D01*
X67944597Y-42479644D01*
X67841617Y-42727645D01*
X67841383Y-42996177D01*
X67943929Y-43244357D01*
X68016500Y-43317055D01*
X68016500Y-43370500D01*
X68054225Y-43560159D01*
X68054560Y-43561842D01*
X68162947Y-43724053D01*
X68666972Y-44228078D01*
X68666883Y-44329677D01*
X68769429Y-44577857D01*
X68955571Y-44764323D01*
X68924947Y-44794947D01*
X68816560Y-44957158D01*
X68778500Y-45148500D01*
X68778500Y-45174725D01*
X68624198Y-44801285D01*
X68293953Y-44470464D01*
X67862247Y-44291204D01*
X67394803Y-44290796D01*
X66962785Y-44469302D01*
X66631964Y-44799547D01*
X66452704Y-45231253D01*
X66452296Y-45698697D01*
X66630802Y-46130715D01*
X66961047Y-46461536D01*
X67229896Y-46573172D01*
X67125120Y-46594013D01*
X67033602Y-46806416D01*
X67627500Y-47400315D01*
X68221398Y-46806416D01*
X68129880Y-46594013D01*
X68017000Y-46576415D01*
X68292215Y-46462698D01*
X68623036Y-46132453D01*
X68778500Y-45758054D01*
X68778500Y-47380686D01*
X68193185Y-47966000D01*
X68787084Y-48559898D01*
X68833347Y-48539965D01*
X68924947Y-48677053D01*
X68991489Y-48743595D01*
X68984617Y-48760145D01*
X68984383Y-49028677D01*
X69086929Y-49276857D01*
X69236329Y-49426518D01*
X69081323Y-49426383D01*
X68833143Y-49528929D01*
X68643097Y-49718644D01*
X68540117Y-49966645D01*
X68539883Y-50235177D01*
X68642429Y-50483357D01*
X68715000Y-50556055D01*
X68715000Y-50783394D01*
X66404394Y-53094000D01*
X64088106Y-53094000D01*
X63492000Y-52497894D01*
X63492000Y-51244500D01*
X63486420Y-51216450D01*
X63531949Y-51326637D01*
X63721664Y-51516683D01*
X63969665Y-51619663D01*
X64238197Y-51619897D01*
X64486377Y-51517351D01*
X64676423Y-51327636D01*
X64779403Y-51079635D01*
X64779637Y-50811103D01*
X64677091Y-50562923D01*
X64487376Y-50372877D01*
X64378460Y-50327651D01*
X64378460Y-49891267D01*
X64456870Y-49969677D01*
X64922588Y-49503959D01*
X64800046Y-49381417D01*
X65018380Y-49337987D01*
X65109898Y-49125584D01*
X67033602Y-49125584D01*
X67125120Y-49337987D01*
X67688397Y-49425804D01*
X68129880Y-49337987D01*
X68221398Y-49125584D01*
X67627500Y-48531685D01*
X67033602Y-49125584D01*
X65109898Y-49125584D01*
X64516000Y-48531685D01*
X64233157Y-48814528D01*
X63667472Y-48248843D01*
X63950315Y-47966000D01*
X65081685Y-47966000D01*
X65675584Y-48559898D01*
X65887987Y-48468380D01*
X65956815Y-48026897D01*
X66167696Y-48026897D01*
X66255513Y-48468380D01*
X66467916Y-48559898D01*
X67061815Y-47966000D01*
X66467916Y-47372102D01*
X66255513Y-47463620D01*
X66167696Y-48026897D01*
X65956815Y-48026897D01*
X65975804Y-47905103D01*
X65887987Y-47463620D01*
X65675584Y-47372102D01*
X65081685Y-47966000D01*
X63950315Y-47966000D01*
X63667472Y-47683157D01*
X64233157Y-47117472D01*
X64516000Y-47400315D01*
X65109898Y-46806416D01*
X65018380Y-46594013D01*
X64905500Y-46576415D01*
X65180715Y-46462698D01*
X65511536Y-46132453D01*
X65690796Y-45700747D01*
X65691204Y-45233303D01*
X65512698Y-44801285D01*
X65182453Y-44470464D01*
X64750747Y-44291204D01*
X64283303Y-44290796D01*
X63851285Y-44469302D01*
X63520464Y-44799547D01*
X63341204Y-45231253D01*
X63340796Y-45698697D01*
X63441482Y-45942376D01*
X63288044Y-45788938D01*
X63315396Y-41243795D01*
X65495805Y-41243795D01*
X65666715Y-41657429D01*
X65982907Y-41974172D01*
X66396242Y-42145804D01*
X66843795Y-42146195D01*
X67257429Y-41975285D01*
X67574172Y-41659093D01*
X67745804Y-41245758D01*
X67745805Y-41243795D01*
X70375805Y-41243795D01*
X70546715Y-41657429D01*
X70862907Y-41974172D01*
X71276242Y-42145804D01*
X71723795Y-42146195D01*
X72137429Y-41975285D01*
X72454172Y-41659093D01*
X72625804Y-41245758D01*
X72626195Y-40798205D01*
X72455285Y-40384571D01*
X72139093Y-40067828D01*
X71725758Y-39896196D01*
X71278205Y-39895805D01*
X70864571Y-40066715D01*
X70547828Y-40382907D01*
X70376196Y-40796242D01*
X70375805Y-41243795D01*
X67745805Y-41243795D01*
X67746195Y-40798205D01*
X67575285Y-40384571D01*
X67259093Y-40067828D01*
X66845758Y-39896196D01*
X66398205Y-39895805D01*
X65984571Y-40066715D01*
X65667828Y-40382907D01*
X65496196Y-40796242D01*
X65495805Y-41243795D01*
X63315396Y-41243795D01*
X63340558Y-37062697D01*
X63594796Y-37062697D01*
X63773302Y-37494715D01*
X64103547Y-37825536D01*
X64535253Y-38004796D01*
X65002697Y-38005204D01*
X65040500Y-37989584D01*
X66676102Y-37989584D01*
X66767620Y-38201987D01*
X67330897Y-38289804D01*
X67772380Y-38201987D01*
X67863898Y-37989584D01*
X67270000Y-37395685D01*
X66676102Y-37989584D01*
X65040500Y-37989584D01*
X65434715Y-37826698D01*
X65765536Y-37496453D01*
X65877172Y-37227604D01*
X65898013Y-37332380D01*
X66110416Y-37423898D01*
X66704315Y-36830000D01*
X67835685Y-36830000D01*
X68429584Y-37423898D01*
X68641987Y-37332380D01*
X68684031Y-37062697D01*
X69690796Y-37062697D01*
X69869302Y-37494715D01*
X70199547Y-37825536D01*
X70631253Y-38004796D01*
X71098697Y-38005204D01*
X71530715Y-37826698D01*
X71861536Y-37496453D01*
X71973172Y-37227604D01*
X71994013Y-37332380D01*
X72206416Y-37423898D01*
X72800315Y-36830000D01*
X72206416Y-36236102D01*
X71994013Y-36327620D01*
X71976415Y-36440500D01*
X71862698Y-36165285D01*
X71532453Y-35834464D01*
X71100747Y-35655204D01*
X70633303Y-35654796D01*
X70201285Y-35833302D01*
X69870464Y-36163547D01*
X69691204Y-36595253D01*
X69690796Y-37062697D01*
X68684031Y-37062697D01*
X68729804Y-36769103D01*
X68641987Y-36327620D01*
X68429584Y-36236102D01*
X67835685Y-36830000D01*
X66704315Y-36830000D01*
X66110416Y-36236102D01*
X65898013Y-36327620D01*
X65880415Y-36440500D01*
X65766698Y-36165285D01*
X65436453Y-35834464D01*
X65041382Y-35670416D01*
X66676102Y-35670416D01*
X67270000Y-36264315D01*
X67863898Y-35670416D01*
X67772380Y-35458013D01*
X67209103Y-35370196D01*
X66767620Y-35458013D01*
X66676102Y-35670416D01*
X65041382Y-35670416D01*
X65004747Y-35655204D01*
X64537303Y-35654796D01*
X64105285Y-35833302D01*
X63774464Y-36163547D01*
X63595204Y-36595253D01*
X63594796Y-37062697D01*
X63340558Y-37062697D01*
X63366946Y-32678000D01*
X63537654Y-32678000D01*
X63537654Y-34378000D01*
X63563802Y-34516966D01*
X63645931Y-34644599D01*
X63771246Y-34730223D01*
X63920000Y-34760346D01*
X65620000Y-34760346D01*
X65758966Y-34734198D01*
X65886599Y-34652069D01*
X65972223Y-34526754D01*
X66002346Y-34378000D01*
X66002346Y-32678000D01*
X65976198Y-32539034D01*
X65894069Y-32411401D01*
X65768754Y-32325777D01*
X65620000Y-32295654D01*
X63920000Y-32295654D01*
X63781034Y-32321802D01*
X63653401Y-32403931D01*
X63567777Y-32529246D01*
X63537654Y-32678000D01*
X63366946Y-32678000D01*
X63370250Y-32129000D01*
X68001893Y-32129000D01*
X67761986Y-32368907D01*
X67761986Y-32368907D01*
G37*
X67761986Y-32368907D02*
X67310000Y-32279001D01*
X66841213Y-32372249D01*
X66443794Y-32637795D01*
X66178248Y-33035214D01*
X66085000Y-33504001D01*
X66085000Y-33551999D01*
X66178248Y-34020786D01*
X66443794Y-34418205D01*
X66841213Y-34683751D01*
X67310000Y-34776999D01*
X67778787Y-34683751D01*
X68176206Y-34418205D01*
X68441752Y-34020786D01*
X68535000Y-33551999D01*
X68535000Y-33504001D01*
X68453057Y-33092049D01*
X68914107Y-32631000D01*
X68993963Y-32631000D01*
X68983794Y-32637795D01*
X68718248Y-33035214D01*
X68625000Y-33504001D01*
X68625000Y-33551999D01*
X68718248Y-34020786D01*
X68983794Y-34418205D01*
X69381213Y-34683751D01*
X69850000Y-34776999D01*
X70318787Y-34683751D01*
X70716206Y-34418205D01*
X70907000Y-34132661D01*
X70907000Y-34903002D01*
X71540000Y-34903002D01*
X71540000Y-34725880D01*
X71747971Y-34864820D01*
X71965000Y-34782726D01*
X71965000Y-33953000D01*
X72815000Y-33953000D01*
X72815000Y-34782726D01*
X73032029Y-34864820D01*
X73379396Y-34632754D01*
X73726854Y-34170034D01*
X73652581Y-33953000D01*
X72815000Y-33953000D01*
X71965000Y-33953000D01*
X71540000Y-33953000D01*
X71540000Y-33103000D01*
X71965000Y-33103000D01*
X71965000Y-32678000D01*
X72815000Y-32678000D01*
X72815000Y-33103000D01*
X73652581Y-33103000D01*
X73726854Y-32885966D01*
X73570691Y-32678000D01*
X73765002Y-32678000D01*
X73765002Y-32631000D01*
X74801224Y-32631000D01*
X74787953Y-34836163D01*
X74488058Y-35136058D01*
X74352575Y-35338823D01*
X74305000Y-35578000D01*
X74305000Y-35706193D01*
X73425130Y-34826323D01*
X72959412Y-35292041D01*
X73081954Y-35414583D01*
X72863620Y-35458013D01*
X72772102Y-35670416D01*
X73366000Y-36264315D01*
X73648843Y-35981472D01*
X74214528Y-36547157D01*
X73931685Y-36830000D01*
X74214528Y-37112843D01*
X73648843Y-37678528D01*
X73366000Y-37395685D01*
X72772102Y-37989584D01*
X72863620Y-38201987D01*
X73090078Y-38237293D01*
X72959412Y-38367959D01*
X73425130Y-38833677D01*
X73426917Y-38831890D01*
X73393140Y-39001700D01*
X73393140Y-43705976D01*
X72924058Y-44175058D01*
X72788575Y-44377823D01*
X72776566Y-44438197D01*
X72701285Y-44469302D01*
X72370464Y-44799547D01*
X72258828Y-45068396D01*
X72237987Y-44963620D01*
X72025584Y-44872102D01*
X71431685Y-45466000D01*
X71714528Y-45748843D01*
X71148843Y-46314528D01*
X70866000Y-46031685D01*
X70272102Y-46625584D01*
X70363620Y-46837987D01*
X70590078Y-46873293D01*
X70576957Y-46886414D01*
X70541823Y-46886383D01*
X70293643Y-46988929D01*
X70103597Y-47178644D01*
X70000617Y-47426645D01*
X70000383Y-47695177D01*
X70102929Y-47943357D01*
X70289071Y-48129823D01*
X70214394Y-48204500D01*
X69866607Y-48204500D01*
X69778500Y-48116394D01*
X69778500Y-45987814D01*
X70300315Y-45466000D01*
X70017472Y-45183157D01*
X70583157Y-44617472D01*
X70866000Y-44900315D01*
X71459898Y-44306416D01*
X71368380Y-44094013D01*
X71270492Y-44078752D01*
X71350383Y-43886355D01*
X71350617Y-43617823D01*
X71248071Y-43369643D01*
X71058356Y-43179597D01*
X70810355Y-43076617D01*
X70541823Y-43076383D01*
X70293643Y-43178929D01*
X70103597Y-43368644D01*
X70000617Y-43616645D01*
X70000527Y-43719366D01*
X69910164Y-43809729D01*
X69724856Y-43624097D01*
X69476855Y-43521117D01*
X69374134Y-43521027D01*
X69091354Y-43238248D01*
X69191383Y-42997355D01*
X69191617Y-42728823D01*
X69089071Y-42480643D01*
X68899356Y-42290597D01*
X68651355Y-42187617D01*
X68382823Y-42187383D01*
X68134643Y-42289929D01*
X67944597Y-42479644D01*
X67841617Y-42727645D01*
X67841383Y-42996177D01*
X67943929Y-43244357D01*
X68016500Y-43317055D01*
X68016500Y-43370500D01*
X68054225Y-43560159D01*
X68054560Y-43561842D01*
X68162947Y-43724053D01*
X68666972Y-44228078D01*
X68666883Y-44329677D01*
X68769429Y-44577857D01*
X68955571Y-44764323D01*
X68924947Y-44794947D01*
X68816560Y-44957158D01*
X68778500Y-45148500D01*
X68778500Y-45174725D01*
X68624198Y-44801285D01*
X68293953Y-44470464D01*
X67862247Y-44291204D01*
X67394803Y-44290796D01*
X66962785Y-44469302D01*
X66631964Y-44799547D01*
X66452704Y-45231253D01*
X66452296Y-45698697D01*
X66630802Y-46130715D01*
X66961047Y-46461536D01*
X67229896Y-46573172D01*
X67125120Y-46594013D01*
X67033602Y-46806416D01*
X67627500Y-47400315D01*
X68221398Y-46806416D01*
X68129880Y-46594013D01*
X68017000Y-46576415D01*
X68292215Y-46462698D01*
X68623036Y-46132453D01*
X68778500Y-45758054D01*
X68778500Y-47380686D01*
X68193185Y-47966000D01*
X68787084Y-48559898D01*
X68833347Y-48539965D01*
X68924947Y-48677053D01*
X68991489Y-48743595D01*
X68984617Y-48760145D01*
X68984383Y-49028677D01*
X69086929Y-49276857D01*
X69236329Y-49426518D01*
X69081323Y-49426383D01*
X68833143Y-49528929D01*
X68643097Y-49718644D01*
X68540117Y-49966645D01*
X68539883Y-50235177D01*
X68642429Y-50483357D01*
X68715000Y-50556055D01*
X68715000Y-50783394D01*
X66404394Y-53094000D01*
X64088106Y-53094000D01*
X63492000Y-52497894D01*
X63492000Y-51244500D01*
X63486420Y-51216450D01*
X63531949Y-51326637D01*
X63721664Y-51516683D01*
X63969665Y-51619663D01*
X64238197Y-51619897D01*
X64486377Y-51517351D01*
X64676423Y-51327636D01*
X64779403Y-51079635D01*
X64779637Y-50811103D01*
X64677091Y-50562923D01*
X64487376Y-50372877D01*
X64378460Y-50327651D01*
X64378460Y-49891267D01*
X64456870Y-49969677D01*
X64922588Y-49503959D01*
X64800046Y-49381417D01*
X65018380Y-49337987D01*
X65109898Y-49125584D01*
X67033602Y-49125584D01*
X67125120Y-49337987D01*
X67688397Y-49425804D01*
X68129880Y-49337987D01*
X68221398Y-49125584D01*
X67627500Y-48531685D01*
X67033602Y-49125584D01*
X65109898Y-49125584D01*
X64516000Y-48531685D01*
X64233157Y-48814528D01*
X63667472Y-48248843D01*
X63950315Y-47966000D01*
X65081685Y-47966000D01*
X65675584Y-48559898D01*
X65887987Y-48468380D01*
X65956815Y-48026897D01*
X66167696Y-48026897D01*
X66255513Y-48468380D01*
X66467916Y-48559898D01*
X67061815Y-47966000D01*
X66467916Y-47372102D01*
X66255513Y-47463620D01*
X66167696Y-48026897D01*
X65956815Y-48026897D01*
X65975804Y-47905103D01*
X65887987Y-47463620D01*
X65675584Y-47372102D01*
X65081685Y-47966000D01*
X63950315Y-47966000D01*
X63667472Y-47683157D01*
X64233157Y-47117472D01*
X64516000Y-47400315D01*
X65109898Y-46806416D01*
X65018380Y-46594013D01*
X64905500Y-46576415D01*
X65180715Y-46462698D01*
X65511536Y-46132453D01*
X65690796Y-45700747D01*
X65691204Y-45233303D01*
X65512698Y-44801285D01*
X65182453Y-44470464D01*
X64750747Y-44291204D01*
X64283303Y-44290796D01*
X63851285Y-44469302D01*
X63520464Y-44799547D01*
X63341204Y-45231253D01*
X63340796Y-45698697D01*
X63441482Y-45942376D01*
X63288044Y-45788938D01*
X63315396Y-41243795D01*
X65495805Y-41243795D01*
X65666715Y-41657429D01*
X65982907Y-41974172D01*
X66396242Y-42145804D01*
X66843795Y-42146195D01*
X67257429Y-41975285D01*
X67574172Y-41659093D01*
X67745804Y-41245758D01*
X67745805Y-41243795D01*
X70375805Y-41243795D01*
X70546715Y-41657429D01*
X70862907Y-41974172D01*
X71276242Y-42145804D01*
X71723795Y-42146195D01*
X72137429Y-41975285D01*
X72454172Y-41659093D01*
X72625804Y-41245758D01*
X72626195Y-40798205D01*
X72455285Y-40384571D01*
X72139093Y-40067828D01*
X71725758Y-39896196D01*
X71278205Y-39895805D01*
X70864571Y-40066715D01*
X70547828Y-40382907D01*
X70376196Y-40796242D01*
X70375805Y-41243795D01*
X67745805Y-41243795D01*
X67746195Y-40798205D01*
X67575285Y-40384571D01*
X67259093Y-40067828D01*
X66845758Y-39896196D01*
X66398205Y-39895805D01*
X65984571Y-40066715D01*
X65667828Y-40382907D01*
X65496196Y-40796242D01*
X65495805Y-41243795D01*
X63315396Y-41243795D01*
X63340558Y-37062697D01*
X63594796Y-37062697D01*
X63773302Y-37494715D01*
X64103547Y-37825536D01*
X64535253Y-38004796D01*
X65002697Y-38005204D01*
X65040500Y-37989584D01*
X66676102Y-37989584D01*
X66767620Y-38201987D01*
X67330897Y-38289804D01*
X67772380Y-38201987D01*
X67863898Y-37989584D01*
X67270000Y-37395685D01*
X66676102Y-37989584D01*
X65040500Y-37989584D01*
X65434715Y-37826698D01*
X65765536Y-37496453D01*
X65877172Y-37227604D01*
X65898013Y-37332380D01*
X66110416Y-37423898D01*
X66704315Y-36830000D01*
X67835685Y-36830000D01*
X68429584Y-37423898D01*
X68641987Y-37332380D01*
X68684031Y-37062697D01*
X69690796Y-37062697D01*
X69869302Y-37494715D01*
X70199547Y-37825536D01*
X70631253Y-38004796D01*
X71098697Y-38005204D01*
X71530715Y-37826698D01*
X71861536Y-37496453D01*
X71973172Y-37227604D01*
X71994013Y-37332380D01*
X72206416Y-37423898D01*
X72800315Y-36830000D01*
X72206416Y-36236102D01*
X71994013Y-36327620D01*
X71976415Y-36440500D01*
X71862698Y-36165285D01*
X71532453Y-35834464D01*
X71100747Y-35655204D01*
X70633303Y-35654796D01*
X70201285Y-35833302D01*
X69870464Y-36163547D01*
X69691204Y-36595253D01*
X69690796Y-37062697D01*
X68684031Y-37062697D01*
X68729804Y-36769103D01*
X68641987Y-36327620D01*
X68429584Y-36236102D01*
X67835685Y-36830000D01*
X66704315Y-36830000D01*
X66110416Y-36236102D01*
X65898013Y-36327620D01*
X65880415Y-36440500D01*
X65766698Y-36165285D01*
X65436453Y-35834464D01*
X65041382Y-35670416D01*
X66676102Y-35670416D01*
X67270000Y-36264315D01*
X67863898Y-35670416D01*
X67772380Y-35458013D01*
X67209103Y-35370196D01*
X66767620Y-35458013D01*
X66676102Y-35670416D01*
X65041382Y-35670416D01*
X65004747Y-35655204D01*
X64537303Y-35654796D01*
X64105285Y-35833302D01*
X63774464Y-36163547D01*
X63595204Y-36595253D01*
X63594796Y-37062697D01*
X63340558Y-37062697D01*
X63366946Y-32678000D01*
X63537654Y-32678000D01*
X63537654Y-34378000D01*
X63563802Y-34516966D01*
X63645931Y-34644599D01*
X63771246Y-34730223D01*
X63920000Y-34760346D01*
X65620000Y-34760346D01*
X65758966Y-34734198D01*
X65886599Y-34652069D01*
X65972223Y-34526754D01*
X66002346Y-34378000D01*
X66002346Y-32678000D01*
X65976198Y-32539034D01*
X65894069Y-32411401D01*
X65768754Y-32325777D01*
X65620000Y-32295654D01*
X63920000Y-32295654D01*
X63781034Y-32321802D01*
X63653401Y-32403931D01*
X63567777Y-32529246D01*
X63537654Y-32678000D01*
X63366946Y-32678000D01*
X63370250Y-32129000D01*
X68001893Y-32129000D01*
X67761986Y-32368907D01*
M02*
