M48
;DRILL file {KiCad 4.0.7} date 08/04/18 16:12:34
;FORMAT={-:-/ absolute / metric / decimal}
FMAT,2
METRIC,TZ
T1C0.400
T2C0.500
T3C0.600
T4C0.762
T5C0.800
T6C0.810
T7C0.900
T8C1.000
T9C1.100
T10C1.200
T11C1.500
T12C1.520
T13C2.300
T14C3.048
T15C4.000
%
G90
G05
M71
T1
X58.4Y-89.428
X58.887Y-87.295
X59.182Y-37.655
X63.055Y-62.293
X63.691Y-63.627
X64.105Y-50.945
X64.821Y-41.3
X64.823Y-51.493
X67.361Y-57.099
X68.199Y-53.975
X68.516Y-42.862
X68.529Y-54.762
X68.58Y-58.483
X69.025Y-52.07
X69.215Y-50.101
X69.342Y-44.196
X69.659Y-48.895
X69.698Y-41.554
X70.333Y-52.852
X70.675Y-43.752
X70.675Y-47.561
X71.12Y-68.936
X71.425Y-54.61
X71.628Y-78.384
X72.263Y-56.197
X72.517Y-50.482
X72.517Y-54.292
X72.707Y-62.928
X73.279Y-61.658
X73.66Y-89.052
X73.85Y-60.325
X74.295Y-58.991
X74.739Y-51.689
X74.739Y-57.594
X77.729Y-32.273
X78.435Y-42.103
X113.538Y-70.602
X114.91Y-70.526
X134.62Y-108.267
T2
X71.882Y-48.768
X73.782Y-48.768
T3
X107.01Y-114.389
X108.28Y-115.659
X109.55Y-114.389
X110.49Y-99.555
X110.566Y-93.688
X111.76Y-98.285
X111.76Y-100.825
X111.836Y-92.418
X111.836Y-94.958
X141.415Y-113.284
X142.684Y-114.554
X143.954Y-113.284
T4
X117.348Y-77.47
X117.348Y-80.01
X117.348Y-82.55
X117.348Y-85.09
X117.348Y-87.63
X117.348Y-90.17
X117.348Y-92.71
X117.348Y-95.25
X117.348Y-97.79
X117.348Y-100.33
X117.348Y-102.87
X117.348Y-105.41
X117.348Y-107.95
X117.348Y-110.49
X117.348Y-113.03
X117.348Y-115.57
X117.348Y-118.11
X117.348Y-120.65
X117.348Y-123.19
X117.348Y-125.73
X132.588Y-77.47
X132.588Y-80.01
X132.588Y-82.55
X132.588Y-85.09
X132.588Y-87.63
X132.588Y-90.17
X132.588Y-92.71
X132.588Y-95.25
X132.588Y-97.79
X132.588Y-100.33
X132.588Y-102.87
X132.588Y-105.41
X132.588Y-107.95
X132.588Y-110.49
X132.588Y-113.03
X132.588Y-115.57
X132.588Y-118.11
X132.588Y-120.65
X132.588Y-123.19
X132.588Y-125.73
T5
X58.064Y-95.062
X58.064Y-102.682
X58.141Y-85.232
X58.141Y-92.852
X61.153Y-93.497
X63.653Y-93.497
X64.516Y-45.466
X64.516Y-47.966
X64.709Y-80.076
X64.709Y-82.576
X64.732Y-74.386
X64.732Y-76.886
X64.77Y-36.83
X66.621Y-41.021
X66.865Y-62.166
X67.27Y-36.83
X67.627Y-45.466
X67.627Y-47.966
X69.365Y-62.166
X70.485Y-85.217
X70.485Y-92.837
X70.866Y-36.83
X70.866Y-45.466
X71.501Y-41.021
X73.366Y-36.83
X73.366Y-45.466
X73.533Y-85.09
X73.533Y-92.71
X76.835Y-85.471
X76.835Y-93.091
X88.519Y-59.004
X88.544Y-62.357
X88.646Y-52.324
X88.722Y-55.88
X91.279Y-65.697
X95.123Y-94.869
X95.123Y-102.489
X95.834Y-68.656
X95.834Y-76.276
X96.139Y-59.004
X96.164Y-62.357
X96.279Y-65.697
X96.342Y-55.88
X99.835Y-55.452
X99.835Y-60.452
X101.194Y-84.179
X101.194Y-89.179
X101.346Y-52.324
X103.251Y-61.747
X103.378Y-118.808
X103.695Y-122.301
X103.746Y-51.384
X103.746Y-59.004
X105.283Y-88.824
X105.474Y-83.985
X107.036Y-51.295
X107.036Y-58.915
X107.95Y-103.569
X107.95Y-111.188
X109.969Y-51.333
X109.969Y-58.953
X110.871Y-61.747
X110.998Y-118.808
X111.316Y-122.301
X111.531Y-103.607
X111.531Y-111.227
X112.903Y-88.824
X113.093Y-83.985
X113.284Y-43.18
X113.284Y-55.88
X114.291Y-40.424
X119.291Y-40.424
X121.539Y-95.631
X121.539Y-100.631
X121.59Y-116.065
X121.59Y-121.065
X121.793Y-88.218
X121.793Y-93.218
X136.271Y-122.682
X136.398Y-126.365
X137.922Y-75.438
X138.43Y-108.585
X138.43Y-116.205
X138.455Y-98.755
X138.455Y-106.375
X139.192Y-63.5
X139.192Y-71.12
X142.494Y-63.5
X142.494Y-71.12
X142.922Y-75.438
X143.891Y-122.682
X144.018Y-126.365
T6
X71.415Y-96.586
X71.415Y-98.586
X73.955Y-96.586
X73.955Y-98.586
T7
X62.22Y-97.932
X62.22Y-100.472
X93.878Y-89.383
X93.878Y-91.923
T8
X61.11Y-34.158
X61.11Y-36.698
X61.11Y-39.238
X61.11Y-41.778
X61.11Y-44.318
X61.11Y-46.858
X61.11Y-49.398
X61.11Y-51.938
X61.11Y-54.478
X61.11Y-57.018
X61.11Y-59.558
X61.11Y-62.098
X61.11Y-64.638
X61.11Y-67.178
X61.11Y-69.718
X61.11Y-72.258
X61.11Y-74.798
X61.11Y-77.338
X61.11Y-79.878
X61.11Y-82.418
X64.77Y-33.528
X66.027Y-70.942
X66.04Y-64.834
X66.04Y-67.373
X67.31Y-33.528
X68.567Y-70.942
X68.58Y-64.834
X68.58Y-67.373
X69.85Y-33.528
X71.107Y-70.942
X71.12Y-64.834
X71.12Y-67.373
X72.39Y-33.528
X76.35Y-34.158
X76.35Y-36.698
X76.35Y-39.238
X76.35Y-41.778
X76.35Y-44.318
X76.35Y-46.858
X76.35Y-49.398
X76.35Y-51.938
X76.35Y-54.478
X76.35Y-57.018
X76.35Y-59.558
X76.35Y-62.098
X76.35Y-64.638
X76.35Y-67.178
X76.35Y-69.718
X76.35Y-72.258
X76.35Y-74.798
X76.35Y-77.338
X76.35Y-79.878
X76.35Y-82.418
X91.872Y-68.809
X91.872Y-84.049
X100.393Y-115.697
X100.393Y-118.237
X100.393Y-120.777
X100.393Y-123.317
X100.393Y-125.857
X100.622Y-92.608
X103.162Y-92.608
X105.169Y-73.647
X105.702Y-92.608
X110.169Y-73.647
X118.618Y-65.024
X121.158Y-65.024
X123.698Y-65.024
X126.238Y-65.024
X128.778Y-65.024
X131.318Y-65.024
X138.684Y-119.126
X141.224Y-119.126
X149.098Y-55.88
X149.098Y-58.42
X149.098Y-60.96
X149.098Y-105.41
X149.098Y-107.95
X149.098Y-110.49
X149.098Y-113.03
X149.098Y-115.57
X149.098Y-118.11
T9
X60.96Y-86.106
X60.96Y-90.606
X67.46Y-86.106
X67.46Y-90.606
X69.05Y-74.587
X69.05Y-82.207
X72.2Y-74.447
X72.2Y-82.067
X104.013Y-125.984
X111.633Y-125.984
X121.59Y-103.251
X121.59Y-110.871
X121.793Y-77.216
X121.793Y-84.836
X132.639Y-59.284
X135.636Y-63.754
X135.636Y-71.374
X140.259Y-59.284
X141.986Y-100.393
X141.986Y-108.013
T10
X101.956Y-98.323
X101.956Y-100.863
X101.956Y-103.403
X101.956Y-105.943
X123.215Y-32.316
X123.215Y-40.066
X124.46Y-47.872
X124.46Y-55.372
X128.412Y-32.299
X128.412Y-40.049
X140.437Y-85.776
X140.437Y-88.316
X140.437Y-90.856
X140.437Y-93.396
X148.285Y-69.418
X148.285Y-71.958
X148.285Y-74.498
X148.285Y-77.038
X148.285Y-79.578
X148.793Y-88.671
X148.793Y-91.211
X148.793Y-93.751
X148.793Y-96.291
X148.793Y-98.831
T11
X137.856Y-40.625
X137.856Y-45.195
X146.014Y-42.692
X150.584Y-42.692
T12
X92.202Y-45.72
X97.282Y-45.72
X103.322Y-45.989
X108.402Y-45.989
X112.883Y-34.422
X117.963Y-34.422
X136.652Y-35.306
X136.906Y-51.308
X141.732Y-35.306
X141.986Y-51.308
T13
X66.685Y-101.286
X78.685Y-101.286
T14
X90.043Y-32.131
X90.043Y-124.841
X149.098Y-32.004
X149.098Y-124.841
T15
X89.941Y-38.659
X95.778Y-38.613
X101.757Y-38.557
X107.29Y-38.557
T0
M30
