G04 #@! TF.FileFunction,Soldermask,Top*
%FSLAX46Y46*%
G04 Gerber Fmt 4.6, Leading zero omitted, Abs format (unit mm)*
G04 Created by KiCad (PCBNEW 4.0.7) date 03/16/19 09:38:44*
%MOMM*%
%LPD*%
G01*
G04 APERTURE LIST*
%ADD10C,0.100000*%
%ADD11C,2.000000*%
%ADD12R,2.000000X2.000000*%
%ADD13O,2.000000X2.000000*%
%ADD14R,2.100000X2.100000*%
%ADD15O,2.100000X2.100000*%
%ADD16C,5.900000*%
%ADD17C,2.900000*%
%ADD18O,2.900000X2.900000*%
G04 APERTURE END LIST*
D10*
D11*
X88392000Y-144424400D03*
X88392000Y-146924400D03*
X118618000Y-115214400D03*
X121118000Y-115214400D03*
D12*
X124714000Y-74320400D03*
D13*
X132334000Y-94640400D03*
X124714000Y-76860400D03*
X132334000Y-92100400D03*
X124714000Y-79400400D03*
X132334000Y-89560400D03*
X124714000Y-81940400D03*
X132334000Y-87020400D03*
X124714000Y-84480400D03*
X132334000Y-84480400D03*
X124714000Y-87020400D03*
X132334000Y-81940400D03*
X124714000Y-89560400D03*
X132334000Y-79400400D03*
X124714000Y-92100400D03*
X132334000Y-76860400D03*
X124714000Y-94640400D03*
X132334000Y-74320400D03*
D12*
X124561600Y-50850800D03*
D13*
X132181600Y-71170800D03*
X124561600Y-53390800D03*
X132181600Y-68630800D03*
X124561600Y-55930800D03*
X132181600Y-66090800D03*
X124561600Y-58470800D03*
X132181600Y-63550800D03*
X124561600Y-61010800D03*
X132181600Y-61010800D03*
X124561600Y-63550800D03*
X132181600Y-58470800D03*
X124561600Y-66090800D03*
X132181600Y-55930800D03*
X124561600Y-68630800D03*
X132181600Y-53390800D03*
X124561600Y-71170800D03*
X132181600Y-50850800D03*
D11*
X95478600Y-51993800D03*
X92978600Y-51993800D03*
X101447600Y-51968400D03*
X98947600Y-51968400D03*
X95402400Y-55549800D03*
X92902400Y-55549800D03*
X101371400Y-55524400D03*
X98871400Y-55524400D03*
X95402400Y-58877200D03*
X92902400Y-58877200D03*
X101396800Y-59029600D03*
X98896800Y-59029600D03*
X95427800Y-62204600D03*
X92927800Y-62204600D03*
X101346000Y-62509400D03*
X98846000Y-62509400D03*
D12*
X76835000Y-93624400D03*
D11*
X71835000Y-93624400D03*
D14*
X88963500Y-95973900D03*
D15*
X88963500Y-93433900D03*
X88963500Y-90893900D03*
D14*
X85407500Y-95973900D03*
D15*
X85407500Y-93433900D03*
X85407500Y-90893900D03*
D14*
X66548000Y-93878400D03*
D15*
X64008000Y-93878400D03*
X61468000Y-93878400D03*
D11*
X63982600Y-62915800D03*
D13*
X56362600Y-62915800D03*
D16*
X54000000Y-52000000D03*
X56000000Y-95000000D03*
X148000000Y-52000000D03*
D11*
X63931800Y-59512200D03*
D13*
X56311800Y-59512200D03*
D11*
X67970400Y-81026000D03*
X65470400Y-81026000D03*
X65227200Y-75539600D03*
X65227200Y-73039600D03*
X101854000Y-79908400D03*
X99354000Y-79908400D03*
X96012000Y-79908400D03*
X93512000Y-79908400D03*
X118948200Y-50939700D03*
X121448200Y-50939700D03*
X101854000Y-83210400D03*
X99354000Y-83210400D03*
X118986300Y-53454300D03*
X121486300Y-53454300D03*
X96012000Y-83210400D03*
X93512000Y-83210400D03*
X118948200Y-56083200D03*
X121448200Y-56083200D03*
X101981000Y-86766400D03*
X99481000Y-86766400D03*
D14*
X81851500Y-95910400D03*
D15*
X81851500Y-93370400D03*
X81851500Y-90830400D03*
D12*
X68564760Y-73258680D03*
D13*
X101584760Y-65638680D03*
X71104760Y-73258680D03*
X99044760Y-65638680D03*
X73644760Y-73258680D03*
X96504760Y-65638680D03*
X76184760Y-73258680D03*
X93964760Y-65638680D03*
X78724760Y-73258680D03*
X91424760Y-65638680D03*
X81264760Y-73258680D03*
X88884760Y-65638680D03*
X83804760Y-73258680D03*
X86344760Y-65638680D03*
X86344760Y-73258680D03*
X83804760Y-65638680D03*
X88884760Y-73258680D03*
X81264760Y-65638680D03*
X91424760Y-73258680D03*
X78724760Y-65638680D03*
X93964760Y-73258680D03*
X76184760Y-65638680D03*
X96504760Y-73258680D03*
X73644760Y-65638680D03*
X99044760Y-73258680D03*
X71104760Y-65638680D03*
X101584760Y-73258680D03*
X68564760Y-65638680D03*
D11*
X114330480Y-51130200D03*
D13*
X106710480Y-51130200D03*
D11*
X114261900Y-53644800D03*
D13*
X106641900Y-53644800D03*
D11*
X114261900Y-56121300D03*
D13*
X106641900Y-56121300D03*
D11*
X114218720Y-58701940D03*
D13*
X106598720Y-58701940D03*
D11*
X114185700Y-61188600D03*
D13*
X106565700Y-61188600D03*
D11*
X114376200Y-64084200D03*
D13*
X106756200Y-64084200D03*
D11*
X114274600Y-66664840D03*
D13*
X106654600Y-66664840D03*
D11*
X114300000Y-69265800D03*
D13*
X106680000Y-69265800D03*
D11*
X114218720Y-72252840D03*
D13*
X106598720Y-72252840D03*
D11*
X114249200Y-75189080D03*
D13*
X106629200Y-75189080D03*
D11*
X114193320Y-78094840D03*
D13*
X106573320Y-78094840D03*
D11*
X114137440Y-81056480D03*
D13*
X106517440Y-81056480D03*
D11*
X114081560Y-83931760D03*
D13*
X106461560Y-83931760D03*
D11*
X114035840Y-89728040D03*
D13*
X106415840Y-89728040D03*
D11*
X114056160Y-92618560D03*
D13*
X106436160Y-92618560D03*
D17*
X95554800Y-92649040D03*
D18*
X103174800Y-92649040D03*
D11*
X114096800Y-86847680D03*
D13*
X106476800Y-86847680D03*
D14*
X137693400Y-50800000D03*
D15*
X140233400Y-50800000D03*
X137693400Y-53340000D03*
X140233400Y-53340000D03*
X137693400Y-55880000D03*
X140233400Y-55880000D03*
X137693400Y-58420000D03*
X140233400Y-58420000D03*
X137693400Y-60960000D03*
X140233400Y-60960000D03*
X137693400Y-63500000D03*
X140233400Y-63500000D03*
X137693400Y-66040000D03*
X140233400Y-66040000D03*
X137693400Y-68580000D03*
X140233400Y-68580000D03*
X137693400Y-71120000D03*
X140233400Y-71120000D03*
X137693400Y-73660000D03*
X140233400Y-73660000D03*
X137693400Y-76200000D03*
X140233400Y-76200000D03*
X137693400Y-78740000D03*
X140233400Y-78740000D03*
X137693400Y-81280000D03*
X140233400Y-81280000D03*
X137693400Y-83820000D03*
X140233400Y-83820000D03*
X137693400Y-86360000D03*
X140233400Y-86360000D03*
X137693400Y-88900000D03*
X140233400Y-88900000D03*
D12*
X66319400Y-54229000D03*
D11*
X71319400Y-54229000D03*
X96012000Y-76606400D03*
X93512000Y-76606400D03*
X119024400Y-58635900D03*
X121524400Y-58635900D03*
X95885000Y-86766400D03*
X93385000Y-86766400D03*
X118999000Y-61244480D03*
X121499000Y-61244480D03*
X118999000Y-63789560D03*
X121499000Y-63789560D03*
X118968520Y-66273680D03*
X121468520Y-66273680D03*
X118968520Y-68955920D03*
X121468520Y-68955920D03*
X119014240Y-73436480D03*
X121514240Y-73436480D03*
X119054880Y-76443840D03*
X121554880Y-76443840D03*
X118973600Y-79400400D03*
X121473600Y-79400400D03*
X118872000Y-82105500D03*
X121372000Y-82105500D03*
X118917720Y-84612480D03*
X121417720Y-84612480D03*
X118910100Y-87058500D03*
X121410100Y-87058500D03*
X118910100Y-89573100D03*
X121410100Y-89573100D03*
X118943120Y-92232480D03*
X121443120Y-92232480D03*
X145897600Y-60452000D03*
X148397600Y-60452000D03*
X145897600Y-63195200D03*
X148397600Y-63195200D03*
X145897600Y-65938400D03*
X148397600Y-65938400D03*
D16*
X148000000Y-95000000D03*
D17*
X103098600Y-96758760D03*
D18*
X95478600Y-96758760D03*
D11*
X92511880Y-93182440D03*
X92511880Y-95682440D03*
X101854000Y-76606400D03*
X99354000Y-76606400D03*
X145897600Y-68834000D03*
X148397600Y-68834000D03*
X146050000Y-71678800D03*
X148550000Y-71678800D03*
X146050000Y-74218800D03*
X148550000Y-74218800D03*
X146050000Y-76708000D03*
X148550000Y-76708000D03*
X145999200Y-79248000D03*
X148499200Y-79248000D03*
X145999200Y-81686400D03*
X148499200Y-81686400D03*
X145999200Y-84226400D03*
X148499200Y-84226400D03*
X146050000Y-86766400D03*
X148550000Y-86766400D03*
X145999200Y-89357200D03*
X148499200Y-89357200D03*
X142646400Y-94691200D03*
X142646400Y-97191200D03*
X139943840Y-94716600D03*
X139943840Y-97216600D03*
X137581640Y-94681040D03*
X137581640Y-97181040D03*
X135143240Y-94640400D03*
X135143240Y-97140400D03*
X64922400Y-131368800D03*
X64922400Y-128868800D03*
X68580000Y-103276400D03*
X66080000Y-103276400D03*
D12*
X65278000Y-144424400D03*
D11*
X70278000Y-144424400D03*
D12*
X66040000Y-109118400D03*
D11*
X71040000Y-109118400D03*
X96164400Y-103327200D03*
X93664400Y-103327200D03*
X101752400Y-103327200D03*
X99252400Y-103327200D03*
X95961200Y-106527600D03*
X93461200Y-106527600D03*
X101701600Y-106578400D03*
X99201600Y-106578400D03*
X96012000Y-109931200D03*
X93512000Y-109931200D03*
X101854000Y-109880400D03*
X99354000Y-109880400D03*
X96012000Y-113182400D03*
X93512000Y-113182400D03*
X101854000Y-113182400D03*
X99354000Y-113182400D03*
X101854000Y-127660400D03*
X99354000Y-127660400D03*
X96012000Y-127660400D03*
X93512000Y-127660400D03*
X101854000Y-131216400D03*
X99354000Y-131216400D03*
X96012000Y-130962400D03*
X93512000Y-130962400D03*
X118618000Y-103784400D03*
X121118000Y-103784400D03*
X101854000Y-134518400D03*
X99354000Y-134518400D03*
X118618000Y-106832400D03*
X121118000Y-106832400D03*
X96266000Y-134518400D03*
X93766000Y-134518400D03*
X118618000Y-109626400D03*
X121118000Y-109626400D03*
X101904800Y-137718800D03*
X99404800Y-137718800D03*
X118618000Y-112420400D03*
X121118000Y-112420400D03*
X96164400Y-137769600D03*
X93664400Y-137769600D03*
X118618000Y-117754400D03*
X121118000Y-117754400D03*
X118364000Y-120294400D03*
X120864000Y-120294400D03*
X118364000Y-122834400D03*
X120864000Y-122834400D03*
X118364000Y-125628400D03*
X120864000Y-125628400D03*
X118364000Y-128676400D03*
X120864000Y-128676400D03*
X118364000Y-131470400D03*
X120864000Y-131470400D03*
X118364000Y-134264400D03*
X120864000Y-134264400D03*
X118364000Y-137058400D03*
X120864000Y-137058400D03*
X118364000Y-140106400D03*
X120864000Y-140106400D03*
X118364000Y-142900400D03*
X120864000Y-142900400D03*
X118364000Y-145694400D03*
X120864000Y-145694400D03*
X143802100Y-105308400D03*
X143802100Y-102808400D03*
X146558000Y-107848400D03*
X149058000Y-107848400D03*
X146558000Y-110388400D03*
X149058000Y-110388400D03*
X146558000Y-112928400D03*
X149058000Y-112928400D03*
X146558000Y-115468400D03*
X149058000Y-115468400D03*
X146558000Y-118008400D03*
X149058000Y-118008400D03*
X146558000Y-120802400D03*
X149058000Y-120802400D03*
X146558000Y-123342400D03*
X149058000Y-123342400D03*
X146558000Y-125882400D03*
X149058000Y-125882400D03*
X146558000Y-128422400D03*
X149058000Y-128422400D03*
X146558000Y-130962400D03*
X149058000Y-130962400D03*
X146558000Y-133502400D03*
X149058000Y-133502400D03*
X146558000Y-136042400D03*
X149058000Y-136042400D03*
X146558000Y-138582400D03*
X149058000Y-138582400D03*
X146629120Y-141183360D03*
X149129120Y-141183360D03*
X143129000Y-147472400D03*
X143129000Y-144972400D03*
D16*
X56000000Y-103000000D03*
X54000000Y-146000000D03*
X148000000Y-103000000D03*
D14*
X136906000Y-103276400D03*
D15*
X139446000Y-103276400D03*
X136906000Y-105816400D03*
X139446000Y-105816400D03*
X136906000Y-108356400D03*
X139446000Y-108356400D03*
X136906000Y-110896400D03*
X139446000Y-110896400D03*
X136906000Y-113436400D03*
X139446000Y-113436400D03*
X136906000Y-115976400D03*
X139446000Y-115976400D03*
X136906000Y-118516400D03*
X139446000Y-118516400D03*
X136906000Y-121056400D03*
X139446000Y-121056400D03*
X136906000Y-123596400D03*
X139446000Y-123596400D03*
X136906000Y-126136400D03*
X139446000Y-126136400D03*
X136906000Y-128676400D03*
X139446000Y-128676400D03*
X136906000Y-131216400D03*
X139446000Y-131216400D03*
X136906000Y-133756400D03*
X139446000Y-133756400D03*
X136906000Y-136296400D03*
X139446000Y-136296400D03*
X136906000Y-138836400D03*
X139446000Y-138836400D03*
X136906000Y-141376400D03*
X139446000Y-141376400D03*
D16*
X148000000Y-146000000D03*
D14*
X82550000Y-145694400D03*
D15*
X82550000Y-143154400D03*
X82550000Y-140614400D03*
D14*
X78952000Y-145692400D03*
D15*
X78952000Y-143152400D03*
X78952000Y-140612400D03*
D14*
X63373000Y-138455400D03*
D15*
X60833000Y-138455400D03*
X58293000Y-138455400D03*
D14*
X75552000Y-145692400D03*
D15*
X75552000Y-143152400D03*
X75552000Y-140612400D03*
D11*
X114132000Y-104126400D03*
D13*
X106512000Y-104126400D03*
D11*
X114182000Y-106876400D03*
D13*
X106562000Y-106876400D03*
D11*
X114082000Y-109726400D03*
D13*
X106462000Y-109726400D03*
D11*
X114182000Y-112376400D03*
D13*
X106562000Y-112376400D03*
D11*
X114232000Y-114976400D03*
D13*
X106612000Y-114976400D03*
D11*
X114132000Y-117726400D03*
D13*
X106512000Y-117726400D03*
D11*
X114032000Y-120526400D03*
D13*
X106412000Y-120526400D03*
D11*
X114232000Y-123376400D03*
D13*
X106612000Y-123376400D03*
D11*
X114082000Y-126226400D03*
D13*
X106462000Y-126226400D03*
D11*
X114152000Y-129256400D03*
D13*
X106532000Y-129256400D03*
D11*
X114082000Y-131976400D03*
D13*
X106462000Y-131976400D03*
D11*
X114062000Y-134856400D03*
D13*
X106442000Y-134856400D03*
D11*
X114082000Y-137876400D03*
D13*
X106462000Y-137876400D03*
D11*
X114232000Y-140636400D03*
D13*
X106612000Y-140636400D03*
D11*
X114222000Y-143526400D03*
D13*
X106602000Y-143526400D03*
D11*
X114182000Y-145996400D03*
D13*
X106562000Y-145996400D03*
D17*
X91617800Y-142941040D03*
D18*
X99237800Y-142941040D03*
D17*
X99329240Y-147218400D03*
D18*
X91709240Y-147218400D03*
D11*
X61722000Y-112166400D03*
D13*
X54102000Y-112166400D03*
D11*
X61722000Y-109372400D03*
D13*
X54102000Y-109372400D03*
D12*
X66132000Y-124076400D03*
D13*
X99152000Y-116456400D03*
X68672000Y-124076400D03*
X96612000Y-116456400D03*
X71212000Y-124076400D03*
X94072000Y-116456400D03*
X73752000Y-124076400D03*
X91532000Y-116456400D03*
X76292000Y-124076400D03*
X88992000Y-116456400D03*
X78832000Y-124076400D03*
X86452000Y-116456400D03*
X81372000Y-124076400D03*
X83912000Y-116456400D03*
X83912000Y-124076400D03*
X81372000Y-116456400D03*
X86452000Y-124076400D03*
X78832000Y-116456400D03*
X88992000Y-124076400D03*
X76292000Y-116456400D03*
X91532000Y-124076400D03*
X73752000Y-116456400D03*
X94072000Y-124076400D03*
X71212000Y-116456400D03*
X96612000Y-124076400D03*
X68672000Y-116456400D03*
X99152000Y-124076400D03*
X66132000Y-116456400D03*
D12*
X124739400Y-103479600D03*
D13*
X132359400Y-123799600D03*
X124739400Y-106019600D03*
X132359400Y-121259600D03*
X124739400Y-108559600D03*
X132359400Y-118719600D03*
X124739400Y-111099600D03*
X132359400Y-116179600D03*
X124739400Y-113639600D03*
X132359400Y-113639600D03*
X124739400Y-116179600D03*
X132359400Y-111099600D03*
X124739400Y-118719600D03*
X132359400Y-108559600D03*
X124739400Y-121259600D03*
X132359400Y-106019600D03*
X124739400Y-123799600D03*
X132359400Y-103479600D03*
D12*
X124632000Y-127076400D03*
D13*
X132252000Y-147396400D03*
X124632000Y-129616400D03*
X132252000Y-144856400D03*
X124632000Y-132156400D03*
X132252000Y-142316400D03*
X124632000Y-134696400D03*
X132252000Y-139776400D03*
X124632000Y-137236400D03*
X132252000Y-137236400D03*
X124632000Y-139776400D03*
X132252000Y-134696400D03*
X124632000Y-142316400D03*
X132252000Y-132156400D03*
X124632000Y-144856400D03*
X132252000Y-129616400D03*
X124632000Y-147396400D03*
X132252000Y-127076400D03*
D11*
X108625640Y-96621600D03*
X111125640Y-96621600D03*
X102641400Y-144744440D03*
X102641400Y-147244440D03*
X148386800Y-57708800D03*
X145886800Y-57708800D03*
X139649200Y-147751800D03*
X137149200Y-147751800D03*
X56134000Y-87147400D03*
X56134000Y-89647400D03*
X61760100Y-54584600D03*
X61760100Y-52084600D03*
X60706000Y-146964400D03*
X60706000Y-144464400D03*
X61137800Y-105524300D03*
X61137800Y-103024300D03*
D14*
X60007500Y-80276700D03*
D15*
X57467500Y-80276700D03*
X60007500Y-77736700D03*
X57467500Y-77736700D03*
X60007500Y-75196700D03*
X57467500Y-75196700D03*
X60007500Y-72656700D03*
X57467500Y-72656700D03*
X60007500Y-70116700D03*
X57467500Y-70116700D03*
D14*
X58623200Y-129133600D03*
D15*
X56083200Y-129133600D03*
X58623200Y-126593600D03*
X56083200Y-126593600D03*
X58623200Y-124053600D03*
X56083200Y-124053600D03*
X58623200Y-121513600D03*
X56083200Y-121513600D03*
X58623200Y-118973600D03*
X56083200Y-118973600D03*
M02*
