G04 #@! TF.FileFunction,Copper,L1,Top,Signal*
%FSLAX46Y46*%
G04 Gerber Fmt 4.6, Leading zero omitted, Abs format (unit mm)*
G04 Created by KiCad (PCBNEW 4.0.7) date 09/10/18 17:49:30*
%MOMM*%
%LPD*%
G01*
G04 APERTURE LIST*
%ADD10C,0.100000*%
%ADD11C,1.600000*%
%ADD12R,1.600000X1.600000*%
%ADD13O,1.600000X1.600000*%
%ADD14R,1.700000X1.700000*%
%ADD15O,1.700000X1.700000*%
%ADD16C,4.064000*%
%ADD17C,5.500000*%
%ADD18C,2.500000*%
%ADD19O,2.500000X2.500000*%
%ADD20R,2.600000X2.000000*%
%ADD21O,2.600000X2.000000*%
%ADD22C,1.000000*%
%ADD23C,0.350000*%
%ADD24C,0.500000*%
G04 APERTURE END LIST*
D10*
D11*
X118618000Y-115214400D03*
X121118000Y-115214400D03*
D12*
X124714000Y-74320400D03*
D13*
X132334000Y-94640400D03*
X124714000Y-76860400D03*
X132334000Y-92100400D03*
X124714000Y-79400400D03*
X132334000Y-89560400D03*
X124714000Y-81940400D03*
X132334000Y-87020400D03*
X124714000Y-84480400D03*
X132334000Y-84480400D03*
X124714000Y-87020400D03*
X132334000Y-81940400D03*
X124714000Y-89560400D03*
X132334000Y-79400400D03*
X124714000Y-92100400D03*
X132334000Y-76860400D03*
X124714000Y-94640400D03*
X132334000Y-74320400D03*
D12*
X124561600Y-50850800D03*
D13*
X132181600Y-71170800D03*
X124561600Y-53390800D03*
X132181600Y-68630800D03*
X124561600Y-55930800D03*
X132181600Y-66090800D03*
X124561600Y-58470800D03*
X132181600Y-63550800D03*
X124561600Y-61010800D03*
X132181600Y-61010800D03*
X124561600Y-63550800D03*
X132181600Y-58470800D03*
X124561600Y-66090800D03*
X132181600Y-55930800D03*
X124561600Y-68630800D03*
X132181600Y-53390800D03*
X124561600Y-71170800D03*
X132181600Y-50850800D03*
D11*
X94234000Y-51968400D03*
X91734000Y-51968400D03*
X101727000Y-52095400D03*
X99227000Y-52095400D03*
X94361000Y-55524400D03*
X91861000Y-55524400D03*
X101854000Y-55778400D03*
X99354000Y-55778400D03*
X94107000Y-58826400D03*
X91607000Y-58826400D03*
X101854000Y-59207400D03*
X99354000Y-59207400D03*
X94234000Y-62255400D03*
X91734000Y-62255400D03*
X101854000Y-62509400D03*
X99354000Y-62509400D03*
D12*
X76835000Y-93624400D03*
D11*
X71835000Y-93624400D03*
D14*
X88963500Y-95973900D03*
D15*
X88963500Y-93433900D03*
X88963500Y-90893900D03*
D14*
X85407500Y-95973900D03*
D15*
X85407500Y-93433900D03*
X85407500Y-90893900D03*
D14*
X66608960Y-90860880D03*
D15*
X64068960Y-90860880D03*
X61528960Y-90860880D03*
D11*
X63982600Y-59400440D03*
D13*
X56362600Y-59400440D03*
D16*
X54632000Y-53076400D03*
X54632000Y-94576400D03*
D17*
X147000000Y-53000000D03*
D11*
X63982600Y-62697360D03*
D13*
X56362600Y-62697360D03*
D11*
X67970400Y-81026000D03*
X65470400Y-81026000D03*
X65227200Y-75539600D03*
X65227200Y-73039600D03*
X101854000Y-79908400D03*
X99354000Y-79908400D03*
X96012000Y-79908400D03*
X93512000Y-79908400D03*
X118948200Y-50939700D03*
X121448200Y-50939700D03*
X101854000Y-83210400D03*
X99354000Y-83210400D03*
X118986300Y-53454300D03*
X121486300Y-53454300D03*
X96012000Y-83210400D03*
X93512000Y-83210400D03*
X118948200Y-56083200D03*
X121448200Y-56083200D03*
X101981000Y-86766400D03*
X99481000Y-86766400D03*
D14*
X81851500Y-95910400D03*
D15*
X81851500Y-93370400D03*
X81851500Y-90830400D03*
D12*
X68564760Y-73258680D03*
D13*
X101584760Y-65638680D03*
X71104760Y-73258680D03*
X99044760Y-65638680D03*
X73644760Y-73258680D03*
X96504760Y-65638680D03*
X76184760Y-73258680D03*
X93964760Y-65638680D03*
X78724760Y-73258680D03*
X91424760Y-65638680D03*
X81264760Y-73258680D03*
X88884760Y-65638680D03*
X83804760Y-73258680D03*
X86344760Y-65638680D03*
X86344760Y-73258680D03*
X83804760Y-65638680D03*
X88884760Y-73258680D03*
X81264760Y-65638680D03*
X91424760Y-73258680D03*
X78724760Y-65638680D03*
X93964760Y-73258680D03*
X76184760Y-65638680D03*
X96504760Y-73258680D03*
X73644760Y-65638680D03*
X99044760Y-73258680D03*
X71104760Y-65638680D03*
X101584760Y-73258680D03*
X68564760Y-65638680D03*
D11*
X114330480Y-51130200D03*
D13*
X106710480Y-51130200D03*
D11*
X114261900Y-53644800D03*
D13*
X106641900Y-53644800D03*
D11*
X114261900Y-56121300D03*
D13*
X106641900Y-56121300D03*
D11*
X114218720Y-58701940D03*
D13*
X106598720Y-58701940D03*
D11*
X114185700Y-61188600D03*
D13*
X106565700Y-61188600D03*
D11*
X114376200Y-64084200D03*
D13*
X106756200Y-64084200D03*
D11*
X114274600Y-66664840D03*
D13*
X106654600Y-66664840D03*
D11*
X114300000Y-69265800D03*
D13*
X106680000Y-69265800D03*
D11*
X114046000Y-73304400D03*
D13*
X106426000Y-73304400D03*
D11*
X114046000Y-76098400D03*
D13*
X106426000Y-76098400D03*
D11*
X114046000Y-78638400D03*
D13*
X106426000Y-78638400D03*
D11*
X114046000Y-81432400D03*
D13*
X106426000Y-81432400D03*
D11*
X114046000Y-84226400D03*
D13*
X106426000Y-84226400D03*
D11*
X114046000Y-89560400D03*
D13*
X106426000Y-89560400D03*
D11*
X114046000Y-92100400D03*
D13*
X106426000Y-92100400D03*
D18*
X112268000Y-95656400D03*
D19*
X119888000Y-95656400D03*
D11*
X114046000Y-87020400D03*
D13*
X106426000Y-87020400D03*
D14*
X137693400Y-50800000D03*
D15*
X140233400Y-50800000D03*
X137693400Y-53340000D03*
X140233400Y-53340000D03*
X137693400Y-55880000D03*
X140233400Y-55880000D03*
X137693400Y-58420000D03*
X140233400Y-58420000D03*
X137693400Y-60960000D03*
X140233400Y-60960000D03*
X137693400Y-63500000D03*
X140233400Y-63500000D03*
X137693400Y-66040000D03*
X140233400Y-66040000D03*
X137693400Y-68580000D03*
X140233400Y-68580000D03*
X137693400Y-71120000D03*
X140233400Y-71120000D03*
X137693400Y-73660000D03*
X140233400Y-73660000D03*
X137693400Y-76200000D03*
X140233400Y-76200000D03*
X137693400Y-78740000D03*
X140233400Y-78740000D03*
X137693400Y-81280000D03*
X140233400Y-81280000D03*
X137693400Y-83820000D03*
X140233400Y-83820000D03*
X137693400Y-86360000D03*
X140233400Y-86360000D03*
X137693400Y-88900000D03*
X140233400Y-88900000D03*
D20*
X57779920Y-80634840D03*
D21*
X57779920Y-78094840D03*
X57779920Y-75554840D03*
X57779920Y-73014840D03*
X57779920Y-70474840D03*
X57779920Y-67934840D03*
D12*
X66319400Y-54229000D03*
D11*
X71319400Y-54229000D03*
X96012000Y-76606400D03*
X93512000Y-76606400D03*
X119024400Y-58635900D03*
X121524400Y-58635900D03*
X95885000Y-86766400D03*
X93385000Y-86766400D03*
X118999000Y-61244480D03*
X121499000Y-61244480D03*
X118999000Y-63789560D03*
X121499000Y-63789560D03*
X118968520Y-66273680D03*
X121468520Y-66273680D03*
X118968520Y-68955920D03*
X121468520Y-68955920D03*
X119014240Y-73436480D03*
X121514240Y-73436480D03*
X119054880Y-76443840D03*
X121554880Y-76443840D03*
X118973600Y-79400400D03*
X121473600Y-79400400D03*
X118872000Y-82105500D03*
X121372000Y-82105500D03*
X118917720Y-84612480D03*
X121417720Y-84612480D03*
X118910100Y-87058500D03*
X121410100Y-87058500D03*
X118910100Y-89573100D03*
X121410100Y-89573100D03*
X118943120Y-92232480D03*
X121443120Y-92232480D03*
X145796000Y-57937400D03*
X148296000Y-57937400D03*
X145897600Y-60528200D03*
X148397600Y-60528200D03*
X145846800Y-63195200D03*
X148346800Y-63195200D03*
D17*
X146812000Y-94615000D03*
D18*
X132400040Y-97652840D03*
D19*
X124780040Y-97652840D03*
D11*
X93091000Y-92608400D03*
X93091000Y-95108400D03*
X101854000Y-76606400D03*
X99354000Y-76606400D03*
X145846800Y-65887600D03*
X148346800Y-65887600D03*
X145681700Y-68503800D03*
X148181700Y-68503800D03*
X145846800Y-71081900D03*
X148346800Y-71081900D03*
X145884900Y-73647300D03*
X148384900Y-73647300D03*
X145961100Y-76276200D03*
X148461100Y-76276200D03*
X145961100Y-78905100D03*
X148461100Y-78905100D03*
X145961100Y-81381600D03*
X148461100Y-81381600D03*
X146037300Y-83972400D03*
X148537300Y-83972400D03*
X146126200Y-86563200D03*
X148626200Y-86563200D03*
X146240500Y-89522300D03*
X148740500Y-89522300D03*
X142227300Y-93573600D03*
X142227300Y-96073600D03*
X139649200Y-93548200D03*
X139649200Y-96048200D03*
X137017760Y-93543120D03*
X137017760Y-96043120D03*
X62992000Y-127406400D03*
X62992000Y-124906400D03*
X65278000Y-103530400D03*
X62778000Y-103530400D03*
X91186000Y-144424400D03*
X91186000Y-146924400D03*
D12*
X65278000Y-144424400D03*
D11*
X70278000Y-144424400D03*
D12*
X63382000Y-109326400D03*
D11*
X68382000Y-109326400D03*
X96164400Y-103327200D03*
X93664400Y-103327200D03*
X101752400Y-103327200D03*
X99252400Y-103327200D03*
X95961200Y-106527600D03*
X93461200Y-106527600D03*
X101701600Y-106578400D03*
X99201600Y-106578400D03*
X96012000Y-109931200D03*
X93512000Y-109931200D03*
X101854000Y-109880400D03*
X99354000Y-109880400D03*
X96012000Y-113182400D03*
X93512000Y-113182400D03*
X101854000Y-113182400D03*
X99354000Y-113182400D03*
X101854000Y-127660400D03*
X99354000Y-127660400D03*
X96012000Y-127660400D03*
X93512000Y-127660400D03*
X101854000Y-131216400D03*
X99354000Y-131216400D03*
X96012000Y-130962400D03*
X93512000Y-130962400D03*
X118618000Y-103784400D03*
X121118000Y-103784400D03*
X101854000Y-134518400D03*
X99354000Y-134518400D03*
X118618000Y-106832400D03*
X121118000Y-106832400D03*
X96266000Y-134518400D03*
X93766000Y-134518400D03*
X118618000Y-109626400D03*
X121118000Y-109626400D03*
X101904800Y-137718800D03*
X99404800Y-137718800D03*
X118618000Y-112420400D03*
X121118000Y-112420400D03*
X96164400Y-137769600D03*
X93664400Y-137769600D03*
X118618000Y-117754400D03*
X121118000Y-117754400D03*
X118364000Y-120294400D03*
X120864000Y-120294400D03*
X118364000Y-122834400D03*
X120864000Y-122834400D03*
X118364000Y-125628400D03*
X120864000Y-125628400D03*
X118364000Y-128676400D03*
X120864000Y-128676400D03*
X118364000Y-131470400D03*
X120864000Y-131470400D03*
X118364000Y-134264400D03*
X120864000Y-134264400D03*
X118364000Y-137058400D03*
X120864000Y-137058400D03*
X118364000Y-140106400D03*
X120864000Y-140106400D03*
X118364000Y-142900400D03*
X120864000Y-142900400D03*
X118364000Y-145694400D03*
X120864000Y-145694400D03*
X143510000Y-104292400D03*
X143510000Y-101792400D03*
X146558000Y-107848400D03*
X149058000Y-107848400D03*
X146558000Y-110388400D03*
X149058000Y-110388400D03*
X146558000Y-112928400D03*
X149058000Y-112928400D03*
X146558000Y-115468400D03*
X149058000Y-115468400D03*
X146558000Y-118008400D03*
X149058000Y-118008400D03*
X146558000Y-120802400D03*
X149058000Y-120802400D03*
X146558000Y-123342400D03*
X149058000Y-123342400D03*
X146558000Y-125882400D03*
X149058000Y-125882400D03*
X146558000Y-128422400D03*
X149058000Y-128422400D03*
X146558000Y-130962400D03*
X149058000Y-130962400D03*
X146558000Y-133502400D03*
X149058000Y-133502400D03*
X146558000Y-136042400D03*
X149058000Y-136042400D03*
X146558000Y-138582400D03*
X149058000Y-138582400D03*
X146629120Y-141183360D03*
X149129120Y-141183360D03*
X143256000Y-146710400D03*
X143256000Y-144210400D03*
D20*
X57404000Y-130454400D03*
D21*
X57404000Y-127914400D03*
X57404000Y-125374400D03*
X57404000Y-122834400D03*
X57404000Y-120294400D03*
X57404000Y-117754400D03*
D16*
X54610000Y-103784400D03*
X54356000Y-145948400D03*
X147828000Y-103784400D03*
D14*
X137160000Y-105054400D03*
D15*
X139700000Y-105054400D03*
X137160000Y-107594400D03*
X139700000Y-107594400D03*
X137160000Y-110134400D03*
X139700000Y-110134400D03*
X137160000Y-112674400D03*
X139700000Y-112674400D03*
X137160000Y-115214400D03*
X139700000Y-115214400D03*
X137160000Y-117754400D03*
X139700000Y-117754400D03*
X137160000Y-120294400D03*
X139700000Y-120294400D03*
X137160000Y-122834400D03*
X139700000Y-122834400D03*
X137160000Y-125374400D03*
X139700000Y-125374400D03*
X137160000Y-127914400D03*
X139700000Y-127914400D03*
X137160000Y-130454400D03*
X139700000Y-130454400D03*
X137160000Y-132994400D03*
X139700000Y-132994400D03*
X137160000Y-135534400D03*
X139700000Y-135534400D03*
X137160000Y-138074400D03*
X139700000Y-138074400D03*
X137160000Y-140614400D03*
X139700000Y-140614400D03*
X137160000Y-143154400D03*
X139700000Y-143154400D03*
D16*
X147828000Y-145948400D03*
D14*
X82550000Y-145694400D03*
D15*
X82550000Y-143154400D03*
X82550000Y-140614400D03*
D14*
X78952000Y-145692400D03*
D15*
X78952000Y-143152400D03*
X78952000Y-140612400D03*
D14*
X63246000Y-136296400D03*
D15*
X60706000Y-136296400D03*
X58166000Y-136296400D03*
D14*
X75552000Y-145692400D03*
D15*
X75552000Y-143152400D03*
X75552000Y-140612400D03*
D11*
X114132000Y-104126400D03*
D13*
X106512000Y-104126400D03*
D11*
X114182000Y-106876400D03*
D13*
X106562000Y-106876400D03*
D11*
X114082000Y-109726400D03*
D13*
X106462000Y-109726400D03*
D11*
X114182000Y-112376400D03*
D13*
X106562000Y-112376400D03*
D11*
X114232000Y-114976400D03*
D13*
X106612000Y-114976400D03*
D11*
X114132000Y-117726400D03*
D13*
X106512000Y-117726400D03*
D11*
X114032000Y-120526400D03*
D13*
X106412000Y-120526400D03*
D11*
X114232000Y-123376400D03*
D13*
X106612000Y-123376400D03*
D11*
X114082000Y-126226400D03*
D13*
X106462000Y-126226400D03*
D11*
X114152000Y-129256400D03*
D13*
X106532000Y-129256400D03*
D11*
X114082000Y-131976400D03*
D13*
X106462000Y-131976400D03*
D11*
X114062000Y-134856400D03*
D13*
X106442000Y-134856400D03*
D11*
X114082000Y-137876400D03*
D13*
X106462000Y-137876400D03*
D11*
X114232000Y-140636400D03*
D13*
X106612000Y-140636400D03*
D11*
X114222000Y-143526400D03*
D13*
X106602000Y-143526400D03*
D11*
X114182000Y-145996400D03*
D13*
X106562000Y-145996400D03*
D18*
X94183200Y-143027400D03*
D19*
X101803200Y-143027400D03*
D18*
X101854000Y-147218400D03*
D19*
X94234000Y-147218400D03*
D11*
X59791600Y-112268000D03*
D13*
X52171600Y-112268000D03*
D11*
X59842400Y-109169200D03*
D13*
X52222400Y-109169200D03*
D12*
X66132000Y-124076400D03*
D13*
X99152000Y-116456400D03*
X68672000Y-124076400D03*
X96612000Y-116456400D03*
X71212000Y-124076400D03*
X94072000Y-116456400D03*
X73752000Y-124076400D03*
X91532000Y-116456400D03*
X76292000Y-124076400D03*
X88992000Y-116456400D03*
X78832000Y-124076400D03*
X86452000Y-116456400D03*
X81372000Y-124076400D03*
X83912000Y-116456400D03*
X83912000Y-124076400D03*
X81372000Y-116456400D03*
X86452000Y-124076400D03*
X78832000Y-116456400D03*
X88992000Y-124076400D03*
X76292000Y-116456400D03*
X91532000Y-124076400D03*
X73752000Y-116456400D03*
X94072000Y-124076400D03*
X71212000Y-116456400D03*
X96612000Y-124076400D03*
X68672000Y-116456400D03*
X99152000Y-124076400D03*
X66132000Y-116456400D03*
D12*
X124739400Y-103479600D03*
D13*
X132359400Y-123799600D03*
X124739400Y-106019600D03*
X132359400Y-121259600D03*
X124739400Y-108559600D03*
X132359400Y-118719600D03*
X124739400Y-111099600D03*
X132359400Y-116179600D03*
X124739400Y-113639600D03*
X132359400Y-113639600D03*
X124739400Y-116179600D03*
X132359400Y-111099600D03*
X124739400Y-118719600D03*
X132359400Y-108559600D03*
X124739400Y-121259600D03*
X132359400Y-106019600D03*
X124739400Y-123799600D03*
X132359400Y-103479600D03*
D12*
X124632000Y-127076400D03*
D13*
X132252000Y-147396400D03*
X124632000Y-129616400D03*
X132252000Y-144856400D03*
X124632000Y-132156400D03*
X132252000Y-142316400D03*
X124632000Y-134696400D03*
X132252000Y-139776400D03*
X124632000Y-137236400D03*
X132252000Y-137236400D03*
X124632000Y-139776400D03*
X132252000Y-134696400D03*
X124632000Y-142316400D03*
X132252000Y-132156400D03*
X124632000Y-144856400D03*
X132252000Y-129616400D03*
X124632000Y-147396400D03*
X132252000Y-127076400D03*
D22*
X94183200Y-143027400D02*
X91186000Y-144424400D01*
X88963500Y-95973900D02*
X88963500Y-96227900D01*
X88963500Y-96227900D02*
X90424000Y-97688400D01*
X103124000Y-95656400D02*
X112268000Y-95656400D01*
X101092000Y-97688400D02*
X103124000Y-95656400D01*
X90424000Y-97688400D02*
X101092000Y-97688400D01*
X88963500Y-95973900D02*
X90360500Y-95973900D01*
X91216940Y-92608400D02*
X93091000Y-92608400D01*
X90932000Y-92893340D02*
X91216940Y-92608400D01*
X90932000Y-95402400D02*
X90932000Y-92893340D01*
X90360500Y-95973900D02*
X90932000Y-95402400D01*
D23*
X57779920Y-80634840D02*
X57779920Y-81305400D01*
D22*
X82105500Y-95656400D02*
X81851500Y-95910400D01*
X62778000Y-103530400D02*
X62778000Y-94016200D01*
X63769240Y-93700600D02*
X66608960Y-90860880D01*
X63093600Y-93700600D02*
X63769240Y-93700600D01*
X62778000Y-94016200D02*
X63093600Y-93700600D01*
D24*
X62992000Y-124906400D02*
X62992000Y-109716400D01*
X62992000Y-109716400D02*
X63382000Y-109326400D01*
X88884760Y-73258680D02*
X88884760Y-72151240D01*
X92354400Y-67249040D02*
X93964760Y-65638680D01*
X92354400Y-68681600D02*
X92354400Y-67249040D01*
X88884760Y-72151240D02*
X92354400Y-68681600D01*
X86452000Y-124076400D02*
X86452000Y-123301200D01*
X86452000Y-123301200D02*
X90119200Y-119634000D01*
X90119200Y-117869200D02*
X91532000Y-116456400D01*
X90119200Y-119634000D02*
X90119200Y-117869200D01*
D22*
X63982600Y-59400440D02*
X63982600Y-57988200D01*
X66344800Y-55626000D02*
X66319400Y-54229000D01*
X63982600Y-57988200D02*
X66344800Y-55626000D01*
X63982600Y-62697360D02*
X63982600Y-63220600D01*
X63982600Y-63220600D02*
X64109600Y-63347600D01*
X64109600Y-63347600D02*
X64109600Y-71922000D01*
X64109600Y-71922000D02*
X65227200Y-73039600D01*
D23*
X88963500Y-93433900D02*
X88963500Y-92944900D01*
X88963500Y-92944900D02*
X91432000Y-90476400D01*
X104832000Y-68885920D02*
X101584760Y-65638680D01*
X104832000Y-88676400D02*
X104832000Y-68885920D01*
X103032000Y-90476400D02*
X104832000Y-88676400D01*
X91432000Y-90476400D02*
X103032000Y-90476400D01*
X89154000Y-93433900D02*
X88963500Y-93433900D01*
X85407500Y-93433900D02*
X86274500Y-93433900D01*
X100682480Y-67276400D02*
X99044760Y-65638680D01*
X101632000Y-67276400D02*
X100682480Y-67276400D01*
X104032000Y-69676400D02*
X101632000Y-67276400D01*
X104032000Y-88076400D02*
X104032000Y-69676400D01*
X102632000Y-89476400D02*
X104032000Y-88076400D01*
X88032000Y-89476400D02*
X102632000Y-89476400D01*
X87232000Y-90276400D02*
X88032000Y-89476400D01*
X87232000Y-92476400D02*
X87232000Y-90276400D01*
X86274500Y-93433900D02*
X87232000Y-92476400D01*
X85407500Y-93433900D02*
X86169500Y-93433900D01*
X85407500Y-93433900D02*
X85153500Y-93433900D01*
X98653600Y-66029840D02*
X99044760Y-65638680D01*
X85407500Y-93433900D02*
X85661500Y-93433900D01*
D22*
X121443120Y-92232480D02*
X121443120Y-93823160D01*
X121443120Y-93823160D02*
X122260360Y-94640400D01*
X122260360Y-94640400D02*
X124714000Y-94640400D01*
X121410100Y-89573100D02*
X121410100Y-92199460D01*
X119888000Y-95656400D02*
X121666000Y-95656400D01*
X122682000Y-94640400D02*
X124714000Y-94640400D01*
X121666000Y-95656400D02*
X122682000Y-94640400D01*
X121410100Y-92199460D02*
X121443120Y-92232480D01*
X121410100Y-87058500D02*
X121410100Y-89573100D01*
X121417720Y-84612480D02*
X121417720Y-87050880D01*
X121417720Y-87050880D02*
X121410100Y-87058500D01*
X121372000Y-82105500D02*
X121372000Y-84566760D01*
X121372000Y-84566760D02*
X121417720Y-84612480D01*
X121473600Y-79400400D02*
X121473600Y-82003900D01*
X121473600Y-82003900D02*
X121372000Y-82105500D01*
X121554880Y-76443840D02*
X121554880Y-79319120D01*
X121554880Y-79319120D02*
X121473600Y-79400400D01*
X121514240Y-73436480D02*
X121514240Y-76403200D01*
X121514240Y-76403200D02*
X121554880Y-76443840D01*
X121468520Y-70525640D02*
X121468520Y-73390760D01*
X121468520Y-73390760D02*
X121514240Y-73436480D01*
X121468520Y-68955920D02*
X121468520Y-70525640D01*
X121468520Y-70525640D02*
X121468520Y-70338320D01*
X122301000Y-71170800D02*
X124561600Y-71170800D01*
X121468520Y-70338320D02*
X122301000Y-71170800D01*
X121468520Y-66273680D02*
X121468520Y-68955920D01*
X121499000Y-63789560D02*
X121499000Y-66243200D01*
X121499000Y-66243200D02*
X121468520Y-66273680D01*
X121499000Y-61244480D02*
X121499000Y-63789560D01*
X121524400Y-58635900D02*
X121524400Y-61219080D01*
X121524400Y-61219080D02*
X121499000Y-61244480D01*
X121448200Y-56083200D02*
X121448200Y-58559700D01*
X121448200Y-58559700D02*
X121524400Y-58635900D01*
X121486300Y-53454300D02*
X121486300Y-56045100D01*
X121486300Y-56045100D02*
X121448200Y-56083200D01*
X121448200Y-50939700D02*
X121448200Y-53416200D01*
X121448200Y-53416200D02*
X121486300Y-53454300D01*
D23*
X81851500Y-93370400D02*
X82338000Y-93370400D01*
X82338000Y-93370400D02*
X83632000Y-92076400D01*
X98742480Y-67876400D02*
X96504760Y-65638680D01*
X100432000Y-67876400D02*
X98742480Y-67876400D01*
X103232000Y-70676400D02*
X100432000Y-67876400D01*
X103232000Y-87676400D02*
X103232000Y-70676400D01*
X102432000Y-88476400D02*
X103232000Y-87676400D01*
X84832000Y-88476400D02*
X102432000Y-88476400D01*
X83632000Y-89676400D02*
X84832000Y-88476400D01*
X83632000Y-92076400D02*
X83632000Y-89676400D01*
X81851500Y-93243400D02*
X81851500Y-93370400D01*
X81851500Y-93370400D02*
X82257900Y-93370400D01*
X140233400Y-68580000D02*
X140411200Y-68580000D01*
X140411200Y-68580000D02*
X144226280Y-72395080D01*
X147523200Y-72395080D02*
X148346800Y-71571480D01*
X144226280Y-72395080D02*
X147523200Y-72395080D01*
X148346800Y-71571480D02*
X148346800Y-71081900D01*
X138277222Y-96039455D02*
X138277222Y-92511502D01*
X139339320Y-89794080D02*
X140233400Y-88900000D01*
X139339320Y-91449404D02*
X139339320Y-89794080D01*
X138277222Y-92511502D02*
X139339320Y-91449404D01*
X140233400Y-88900000D02*
X140233400Y-90164920D01*
X140233400Y-90164920D02*
X140985240Y-90916760D01*
X140985240Y-90916760D02*
X140985240Y-96048200D01*
X140233400Y-88900000D02*
X141071600Y-88900000D01*
X141071600Y-88900000D02*
X143256000Y-91084400D01*
X143256000Y-91084400D02*
X148740500Y-91084400D01*
X140233400Y-86360000D02*
X141071600Y-86360000D01*
X141071600Y-86360000D02*
X142494000Y-87782400D01*
X142494000Y-87782400D02*
X148626200Y-87782400D01*
D22*
X148626200Y-86563200D02*
X148626200Y-87782400D01*
X148626200Y-87782400D02*
X148626200Y-89408000D01*
X148626200Y-89408000D02*
X148740500Y-89522300D01*
D23*
X140233400Y-81280000D02*
X140233400Y-81711800D01*
X140233400Y-81711800D02*
X143764000Y-85242400D01*
X143764000Y-85242400D02*
X148537300Y-85242400D01*
X140233400Y-78740000D02*
X140233400Y-78917800D01*
X140233400Y-78917800D02*
X144018000Y-82702400D01*
X144018000Y-82702400D02*
X148461100Y-82702400D01*
X140233400Y-76200000D02*
X140309600Y-76200000D01*
X140309600Y-76200000D02*
X144272000Y-80162400D01*
X144272000Y-80162400D02*
X148461100Y-80162400D01*
X148461100Y-80162400D02*
X148082000Y-80162400D01*
X148082000Y-80162400D02*
X148461100Y-80162400D01*
X140233400Y-73660000D02*
X140309600Y-73660000D01*
X140309600Y-73660000D02*
X144272000Y-77622400D01*
X144272000Y-77622400D02*
X148461100Y-77622400D01*
X140233400Y-71120000D02*
X140233400Y-71551800D01*
X140233400Y-71551800D02*
X143764000Y-75082400D01*
X143764000Y-75082400D02*
X148384900Y-75082400D01*
X140233400Y-66040000D02*
X140309600Y-66040000D01*
X140309600Y-66040000D02*
X144018000Y-69748400D01*
X144018000Y-69748400D02*
X148181700Y-69748400D01*
X140233400Y-63500000D02*
X140563600Y-63500000D01*
X140563600Y-63500000D02*
X144272000Y-67208400D01*
X144272000Y-67208400D02*
X148346800Y-67208400D01*
X140233400Y-60960000D02*
X140309600Y-60960000D01*
X140309600Y-60960000D02*
X144018000Y-64668400D01*
X144018000Y-64668400D02*
X148346800Y-64668400D01*
X140233400Y-58420000D02*
X141071600Y-58420000D01*
X141071600Y-58420000D02*
X144526000Y-61874400D01*
X144526000Y-61874400D02*
X148397600Y-61874400D01*
X148397600Y-61874400D02*
X148082000Y-61874400D01*
X148082000Y-61874400D02*
X148397600Y-61874400D01*
X140233400Y-55880000D02*
X140563600Y-55880000D01*
X140563600Y-55880000D02*
X144018000Y-59334400D01*
X144018000Y-59334400D02*
X148296000Y-59334400D01*
X140233400Y-53340000D02*
X140309600Y-53340000D01*
X140309600Y-53340000D02*
X143510000Y-56540400D01*
X143510000Y-56540400D02*
X148296000Y-56540400D01*
D22*
X140233400Y-50800000D02*
X144800000Y-50800000D01*
X144800000Y-50800000D02*
X147000000Y-53000000D01*
X137017760Y-96043120D02*
X138277222Y-96039455D01*
X138277222Y-96039455D02*
X139636500Y-96035500D01*
X139636500Y-96035500D02*
X139649200Y-96048200D01*
X139649200Y-96048200D02*
X140985240Y-96048200D01*
X140985240Y-96048200D02*
X142201900Y-96048200D01*
X142201900Y-96048200D02*
X142227300Y-96073600D01*
X142227300Y-96073600D02*
X144016100Y-96073600D01*
X144016100Y-96073600D02*
X145474700Y-94615000D01*
X145474700Y-94615000D02*
X146812000Y-94615000D01*
X148740500Y-89522300D02*
X148740500Y-91084400D01*
X148740500Y-91084400D02*
X148740500Y-92686500D01*
X148740500Y-92686500D02*
X146812000Y-94615000D01*
X148537300Y-83972400D02*
X148537300Y-85242400D01*
X148537300Y-85242400D02*
X148537300Y-86474300D01*
X148537300Y-86474300D02*
X148626200Y-86563200D01*
X148461100Y-81381600D02*
X148461100Y-82702400D01*
X148461100Y-82702400D02*
X148461100Y-83896200D01*
X148461100Y-83896200D02*
X148537300Y-83972400D01*
X148461100Y-78905100D02*
X148461100Y-80162400D01*
X148461100Y-80162400D02*
X148461100Y-81381600D01*
X148461100Y-76276200D02*
X148461100Y-77622400D01*
X148461100Y-77622400D02*
X148461100Y-78905100D01*
X148384900Y-73647300D02*
X148384900Y-75082400D01*
X148384900Y-75082400D02*
X148384900Y-76200000D01*
X148384900Y-76200000D02*
X148461100Y-76276200D01*
X148346800Y-71081900D02*
X148346800Y-73609200D01*
X148346800Y-73609200D02*
X148384900Y-73647300D01*
X148181700Y-68503800D02*
X148181700Y-69748400D01*
X148181700Y-69748400D02*
X148181700Y-70916800D01*
X148181700Y-70916800D02*
X148346800Y-71081900D01*
X148346800Y-65887600D02*
X148346800Y-67208400D01*
X148346800Y-67208400D02*
X148346800Y-68338700D01*
X148346800Y-68338700D02*
X148181700Y-68503800D01*
X148346800Y-63195200D02*
X148346800Y-64668400D01*
X148346800Y-64668400D02*
X148346800Y-65887600D01*
X148397600Y-60528200D02*
X148397600Y-61874400D01*
X148397600Y-61874400D02*
X148397600Y-63144400D01*
X148397600Y-63144400D02*
X148346800Y-63195200D01*
X148296000Y-57937400D02*
X148296000Y-59334400D01*
X148296000Y-59334400D02*
X148296000Y-60426600D01*
X148296000Y-60426600D02*
X148397600Y-60528200D01*
X147000000Y-53000000D02*
X147000000Y-54150300D01*
X147000000Y-54150300D02*
X148296000Y-55446300D01*
X148296000Y-55446300D02*
X148296000Y-56540400D01*
X148296000Y-56540400D02*
X148296000Y-57937400D01*
X140233400Y-55880000D02*
X140233400Y-58420000D01*
X140233400Y-53340000D02*
X140233400Y-55880000D01*
X140233400Y-50800000D02*
X140233400Y-53340000D01*
X140233400Y-60960000D02*
X140233400Y-58420000D01*
X140233400Y-63500000D02*
X140233400Y-60960000D01*
X140233400Y-66040000D02*
X140233400Y-63500000D01*
X140233400Y-68580000D02*
X140233400Y-66040000D01*
X140233400Y-71120000D02*
X140233400Y-68580000D01*
X140233400Y-73660000D02*
X140233400Y-71120000D01*
X140233400Y-76200000D02*
X140233400Y-73660000D01*
X140233400Y-78740000D02*
X140233400Y-76200000D01*
X140233400Y-81280000D02*
X140233400Y-78740000D01*
X140233400Y-83820000D02*
X140233400Y-81280000D01*
X140233400Y-86360000D02*
X140233400Y-83820000D01*
X140233400Y-88900000D02*
X140233400Y-86360000D01*
D23*
X82550000Y-143154400D02*
X83515200Y-143154400D01*
X102971600Y-116586000D02*
X99281600Y-116586000D01*
X104952800Y-118211600D02*
X102971600Y-116586000D01*
X104952800Y-140157200D02*
X104952800Y-118211600D01*
X104241600Y-140817600D02*
X104952800Y-140157200D01*
X86156800Y-140817600D02*
X104241600Y-140817600D01*
X83515200Y-143154400D02*
X86156800Y-140817600D01*
X99281600Y-116586000D02*
X99152000Y-116456400D01*
X78952000Y-143152400D02*
X79046800Y-143152400D01*
X79046800Y-143152400D02*
X80213200Y-141986000D01*
X80213200Y-141986000D02*
X80213200Y-140817600D01*
X80213200Y-140817600D02*
X81788000Y-139242800D01*
X81788000Y-139242800D02*
X84378800Y-139242800D01*
X84378800Y-139242800D02*
X86116160Y-140187680D01*
X86116160Y-140187680D02*
X103752558Y-140187680D01*
X103752558Y-140187680D02*
X104241600Y-139962798D01*
X104241600Y-139962798D02*
X104241600Y-119481600D01*
X104241600Y-119481600D02*
X102666800Y-117906800D01*
X102666800Y-117906800D02*
X98062400Y-117906800D01*
X98062400Y-117906800D02*
X96612000Y-116456400D01*
X75552000Y-143152400D02*
X75998800Y-143152400D01*
X75998800Y-143152400D02*
X77165200Y-141986000D01*
X77165200Y-141986000D02*
X77165200Y-139242800D01*
X77165200Y-139242800D02*
X77876400Y-138531600D01*
X77876400Y-138531600D02*
X84836000Y-138531600D01*
X84836000Y-138531600D02*
X86227920Y-139557760D01*
X86227920Y-139557760D02*
X102991920Y-139557760D01*
X102991920Y-139557760D02*
X103530400Y-139547600D01*
X103530400Y-139547600D02*
X103530400Y-120243600D01*
X103530400Y-120243600D02*
X102463600Y-119176800D01*
X102463600Y-119176800D02*
X96977200Y-119176800D01*
X96977200Y-119176800D02*
X94256800Y-116456400D01*
X94256800Y-116456400D02*
X94072000Y-116456400D01*
D24*
X57779920Y-75554840D02*
X54035960Y-75554840D01*
X50749200Y-110845600D02*
X52171600Y-112268000D01*
X50749200Y-78841600D02*
X50749200Y-110845600D01*
X54035960Y-75554840D02*
X50749200Y-78841600D01*
X52171600Y-112268000D02*
X52171600Y-125044200D01*
X52171600Y-125044200D02*
X52501800Y-125374400D01*
X52501800Y-125374400D02*
X57404000Y-125374400D01*
X56362600Y-59400440D02*
X54315360Y-59400440D01*
X56164480Y-75554840D02*
X57779920Y-75554840D01*
X54371240Y-73761600D02*
X56164480Y-75554840D01*
X54371240Y-59456320D02*
X54371240Y-73761600D01*
X54315360Y-59400440D02*
X54371240Y-59456320D01*
X57404000Y-122834400D02*
X53949600Y-122834400D01*
X53594000Y-110794800D02*
X52222400Y-109423200D01*
X53594000Y-122478800D02*
X53594000Y-110794800D01*
X53949600Y-122834400D02*
X53594000Y-122478800D01*
X52222400Y-109423200D02*
X52222400Y-109169200D01*
X57779920Y-73014840D02*
X55859680Y-73014840D01*
X55859680Y-73014840D02*
X55321200Y-72476360D01*
X55321200Y-72476360D02*
X55321200Y-63738760D01*
X55321200Y-63738760D02*
X56362600Y-62697360D01*
D22*
X101803200Y-143027400D02*
X102565200Y-143027400D01*
X102565200Y-143027400D02*
X104140000Y-145948400D01*
X104140000Y-145948400D02*
X104140000Y-146964400D01*
X104140000Y-146964400D02*
X105410000Y-148234400D01*
X105410000Y-148234400D02*
X123794000Y-148234400D01*
X123794000Y-148234400D02*
X124632000Y-147396400D01*
X120864000Y-145694400D02*
X122930000Y-145694400D01*
X122930000Y-145694400D02*
X124632000Y-147396400D01*
X120864000Y-145694400D02*
X120864000Y-145908400D01*
X120864000Y-125628400D02*
X120904000Y-125628400D01*
X120904000Y-125628400D02*
X122136000Y-124396400D01*
X122136000Y-124396400D02*
X124739400Y-123799600D01*
X120864000Y-142900400D02*
X120864000Y-145694400D01*
X120864000Y-140106400D02*
X120864000Y-142900400D01*
X120864000Y-140106400D02*
X120864000Y-137058400D01*
X120864000Y-134264400D02*
X120864000Y-137058400D01*
X120864000Y-131470400D02*
X120864000Y-134264400D01*
X120864000Y-128676400D02*
X120864000Y-131470400D01*
X120864000Y-125628400D02*
X120864000Y-128676400D01*
X120864000Y-122834400D02*
X120864000Y-125628400D01*
X120864000Y-120294400D02*
X120864000Y-122834400D01*
X121118000Y-117754400D02*
X121118000Y-120040400D01*
X121118000Y-120040400D02*
X120864000Y-120294400D01*
X121118000Y-115214400D02*
X121118000Y-117754400D01*
X121118000Y-112420400D02*
X121118000Y-115214400D01*
X121118000Y-109626400D02*
X121118000Y-112420400D01*
X121118000Y-106832400D02*
X121118000Y-109626400D01*
X121118000Y-103784400D02*
X121118000Y-106832400D01*
D23*
X139700000Y-140614400D02*
X141843760Y-140614400D01*
X143256000Y-142026640D02*
X143256000Y-144210400D01*
X141843760Y-140614400D02*
X143256000Y-142026640D01*
X149091510Y-139807909D02*
X143526469Y-139807909D01*
X141792960Y-138074400D02*
X139700000Y-138074400D01*
X143526469Y-139807909D02*
X141792960Y-138074400D01*
X149058000Y-137327640D02*
X141493240Y-137327640D01*
X141493240Y-137327640D02*
X139700000Y-135534400D01*
X149058000Y-134838440D02*
X141544040Y-134838440D01*
X141544040Y-134838440D02*
X139700000Y-132994400D01*
X149058000Y-132323840D02*
X141569440Y-132323840D01*
X141569440Y-132323840D02*
X139700000Y-130454400D01*
X149058000Y-129697480D02*
X141483080Y-129697480D01*
X141483080Y-129697480D02*
X139700000Y-127914400D01*
X149058000Y-127071120D02*
X141396720Y-127071120D01*
X141396720Y-127071120D02*
X139700000Y-125374400D01*
X149058000Y-124551440D02*
X141417040Y-124551440D01*
X141417040Y-124551440D02*
X139700000Y-122834400D01*
X149058000Y-122148600D02*
X141554200Y-122148600D01*
X141554200Y-122148600D02*
X139700000Y-120294400D01*
X149058000Y-119217440D02*
X141163040Y-119217440D01*
X141163040Y-119217440D02*
X139700000Y-117754400D01*
X149058000Y-116702840D02*
X141188440Y-116702840D01*
X141188440Y-116702840D02*
X139700000Y-115214400D01*
X149058000Y-114223800D02*
X141249400Y-114223800D01*
X141249400Y-114223800D02*
X139700000Y-112674400D01*
X149058000Y-111597440D02*
X141163040Y-111597440D01*
X141163040Y-111597440D02*
X139700000Y-110134400D01*
X149058000Y-109082840D02*
X142570200Y-109082840D01*
X141081760Y-107594400D02*
X139700000Y-107594400D01*
X142570200Y-109082840D02*
X141081760Y-107594400D01*
X139700000Y-105054400D02*
X141594840Y-105054400D01*
X149196866Y-106299000D02*
X149196866Y-106299005D01*
X142839440Y-106299000D02*
X149196866Y-106299000D01*
X141594840Y-105054400D02*
X142839440Y-106299000D01*
D22*
X139700000Y-107594400D02*
X139700000Y-105054400D01*
X139700000Y-110134400D02*
X139700000Y-107594400D01*
X139700000Y-112674400D02*
X139700000Y-110134400D01*
X139700000Y-112674400D02*
X139700000Y-115214400D01*
X139700000Y-115214400D02*
X139700000Y-117754400D01*
X139700000Y-120294400D02*
X139700000Y-117754400D01*
X139700000Y-120294400D02*
X139700000Y-122834400D01*
X139700000Y-122834400D02*
X139700000Y-125374400D01*
X139700000Y-130454400D02*
X139700000Y-127914400D01*
X143256000Y-144210400D02*
X146090000Y-144210400D01*
X146090000Y-144210400D02*
X147828000Y-145948400D01*
X139700000Y-143154400D02*
X142240000Y-143154400D01*
X142240000Y-143154400D02*
X143256000Y-144170400D01*
X143256000Y-144170400D02*
X143256000Y-144210400D01*
X139700000Y-127914400D02*
X139700000Y-125374400D01*
X139700000Y-130454400D02*
X139700000Y-132994400D01*
X139700000Y-132994400D02*
X139700000Y-135534400D01*
X139700000Y-138074400D02*
X139700000Y-135534400D01*
X139700000Y-140614400D02*
X139700000Y-138074400D01*
X139700000Y-143154400D02*
X139700000Y-140614400D01*
X149129120Y-141183360D02*
X149058000Y-143956400D01*
X149058000Y-143956400D02*
X147828000Y-145948400D01*
X149058000Y-138582400D02*
X149091510Y-139807909D01*
X149091510Y-139807909D02*
X149129120Y-141183360D01*
X149058000Y-136042400D02*
X149058000Y-137327640D01*
X149058000Y-137327640D02*
X149058000Y-138582400D01*
X149058000Y-133502400D02*
X149058000Y-134838440D01*
X149058000Y-134838440D02*
X149058000Y-136042400D01*
X149058000Y-130962400D02*
X149058000Y-132323840D01*
X149058000Y-132323840D02*
X149058000Y-133502400D01*
X149058000Y-128422400D02*
X149058000Y-129697480D01*
X149058000Y-129697480D02*
X149058000Y-130962400D01*
X149058000Y-125882400D02*
X149058000Y-127071120D01*
X149058000Y-127071120D02*
X149058000Y-128422400D01*
X149058000Y-123342400D02*
X149058000Y-124551440D01*
X149058000Y-124551440D02*
X149058000Y-125882400D01*
X149058000Y-120802400D02*
X149058000Y-122148600D01*
X149058000Y-122148600D02*
X149058000Y-123342400D01*
X149058000Y-118008400D02*
X149058000Y-119217440D01*
X149058000Y-119217440D02*
X149058000Y-120802400D01*
X149058000Y-115468400D02*
X149058000Y-116702840D01*
X149058000Y-116702840D02*
X149058000Y-118008400D01*
X149058000Y-112928400D02*
X149058000Y-114223800D01*
X149058000Y-114223800D02*
X149058000Y-115468400D01*
X149058000Y-110388400D02*
X149058000Y-111597440D01*
X149058000Y-111597440D02*
X149058000Y-112928400D01*
X149058000Y-107848400D02*
X149058000Y-109082840D01*
X149058000Y-109082840D02*
X149058000Y-110388400D01*
X147828000Y-103784400D02*
X148082000Y-103784400D01*
X148082000Y-103784400D02*
X149312000Y-105014400D01*
X149312000Y-105014400D02*
X149196866Y-106299005D01*
X149196866Y-106299005D02*
X149058000Y-107848400D01*
X143510000Y-101792400D02*
X145582000Y-101792400D01*
X145582000Y-101792400D02*
X147828000Y-103784400D01*
D23*
X139700000Y-105054400D02*
X139700000Y-104038400D01*
X141946000Y-101792400D02*
X143510000Y-101792400D01*
X139700000Y-104038400D02*
X141946000Y-101792400D01*
D24*
G36*
X103824422Y-66570194D02*
X103099672Y-65845444D01*
X103134760Y-65669046D01*
X103134760Y-65608314D01*
X103016773Y-65015155D01*
X102680776Y-64512298D01*
X102177919Y-64176301D01*
X101589058Y-64059169D01*
X102160961Y-64059668D01*
X102730857Y-63824192D01*
X103167260Y-63388551D01*
X103403730Y-62819067D01*
X103404268Y-62202439D01*
X103168792Y-61632543D01*
X102733151Y-61196140D01*
X102163667Y-60959670D01*
X101547039Y-60959132D01*
X100977143Y-61194608D01*
X100540740Y-61630249D01*
X100357468Y-62071618D01*
X99919685Y-62509400D01*
X100358010Y-62947725D01*
X100539208Y-63386257D01*
X100974849Y-63822660D01*
X101544333Y-64059130D01*
X101580499Y-64059162D01*
X100991601Y-64176301D01*
X100488744Y-64512298D01*
X100314760Y-64772684D01*
X100140776Y-64512298D01*
X99637919Y-64176301D01*
X99044760Y-64058314D01*
X98451601Y-64176301D01*
X97948744Y-64512298D01*
X97774760Y-64772684D01*
X97600776Y-64512298D01*
X97097919Y-64176301D01*
X96504760Y-64058314D01*
X95911601Y-64176301D01*
X95408744Y-64512298D01*
X95234760Y-64772684D01*
X95060776Y-64512298D01*
X94557919Y-64176301D01*
X93964760Y-64058314D01*
X93371601Y-64176301D01*
X92868744Y-64512298D01*
X92694760Y-64772684D01*
X92520776Y-64512298D01*
X92017919Y-64176301D01*
X91424760Y-64058314D01*
X90831601Y-64176301D01*
X90328744Y-64512298D01*
X90154760Y-64772684D01*
X89980776Y-64512298D01*
X89477919Y-64176301D01*
X88884760Y-64058314D01*
X88291601Y-64176301D01*
X87788744Y-64512298D01*
X87614760Y-64772684D01*
X87440776Y-64512298D01*
X86937919Y-64176301D01*
X86344760Y-64058314D01*
X85751601Y-64176301D01*
X85248744Y-64512298D01*
X85074760Y-64772684D01*
X84900776Y-64512298D01*
X84397919Y-64176301D01*
X83804760Y-64058314D01*
X83211601Y-64176301D01*
X82708744Y-64512298D01*
X82534760Y-64772684D01*
X82360776Y-64512298D01*
X81857919Y-64176301D01*
X81264760Y-64058314D01*
X80671601Y-64176301D01*
X80168744Y-64512298D01*
X79994760Y-64772684D01*
X79820776Y-64512298D01*
X79317919Y-64176301D01*
X78724760Y-64058314D01*
X78131601Y-64176301D01*
X77628744Y-64512298D01*
X77454760Y-64772684D01*
X77280776Y-64512298D01*
X76777919Y-64176301D01*
X76184760Y-64058314D01*
X75591601Y-64176301D01*
X75088744Y-64512298D01*
X74914760Y-64772684D01*
X74740776Y-64512298D01*
X74237919Y-64176301D01*
X73644760Y-64058314D01*
X73051601Y-64176301D01*
X72548744Y-64512298D01*
X72374760Y-64772684D01*
X72200776Y-64512298D01*
X71697919Y-64176301D01*
X71104760Y-64058314D01*
X70511601Y-64176301D01*
X70008744Y-64512298D01*
X69834760Y-64772684D01*
X69660776Y-64512298D01*
X69157919Y-64176301D01*
X68564760Y-64058314D01*
X67971601Y-64176301D01*
X67468744Y-64512298D01*
X67132747Y-65015155D01*
X67014760Y-65608314D01*
X67014760Y-65669046D01*
X67132747Y-66262205D01*
X67468744Y-66765062D01*
X67971601Y-67101059D01*
X68564760Y-67219046D01*
X69157919Y-67101059D01*
X69660776Y-66765062D01*
X69834760Y-66504676D01*
X70008744Y-66765062D01*
X70511601Y-67101059D01*
X71104760Y-67219046D01*
X71697919Y-67101059D01*
X72200776Y-66765062D01*
X72374760Y-66504676D01*
X72548744Y-66765062D01*
X73051601Y-67101059D01*
X73644760Y-67219046D01*
X74237919Y-67101059D01*
X74740776Y-66765062D01*
X74914760Y-66504676D01*
X75088744Y-66765062D01*
X75591601Y-67101059D01*
X76184760Y-67219046D01*
X76777919Y-67101059D01*
X77280776Y-66765062D01*
X77454760Y-66504676D01*
X77628744Y-66765062D01*
X78131601Y-67101059D01*
X78724760Y-67219046D01*
X79317919Y-67101059D01*
X79820776Y-66765062D01*
X79994760Y-66504676D01*
X80168744Y-66765062D01*
X80671601Y-67101059D01*
X81264760Y-67219046D01*
X81857919Y-67101059D01*
X82360776Y-66765062D01*
X82534760Y-66504676D01*
X82708744Y-66765062D01*
X83211601Y-67101059D01*
X83804760Y-67219046D01*
X84397919Y-67101059D01*
X84900776Y-66765062D01*
X85074760Y-66504676D01*
X85248744Y-66765062D01*
X85751601Y-67101059D01*
X86344760Y-67219046D01*
X86937919Y-67101059D01*
X87440776Y-66765062D01*
X87614760Y-66504676D01*
X87788744Y-66765062D01*
X88291601Y-67101059D01*
X88884760Y-67219046D01*
X89477919Y-67101059D01*
X89980776Y-66765062D01*
X90154760Y-66504676D01*
X90328744Y-66765062D01*
X90831601Y-67101059D01*
X91362817Y-67206725D01*
X91354400Y-67249040D01*
X91354400Y-68267386D01*
X88177653Y-71444133D01*
X87960880Y-71768556D01*
X87903823Y-72055405D01*
X87788744Y-72132298D01*
X87614760Y-72392684D01*
X87440776Y-72132298D01*
X86937919Y-71796301D01*
X86344760Y-71678314D01*
X85751601Y-71796301D01*
X85248744Y-72132298D01*
X85074760Y-72392684D01*
X84900776Y-72132298D01*
X84397919Y-71796301D01*
X83804760Y-71678314D01*
X83211601Y-71796301D01*
X82708744Y-72132298D01*
X82534760Y-72392684D01*
X82360776Y-72132298D01*
X81857919Y-71796301D01*
X81264760Y-71678314D01*
X80671601Y-71796301D01*
X80168744Y-72132298D01*
X79994760Y-72392684D01*
X79820776Y-72132298D01*
X79317919Y-71796301D01*
X78724760Y-71678314D01*
X78131601Y-71796301D01*
X77628744Y-72132298D01*
X77454760Y-72392684D01*
X77280776Y-72132298D01*
X76777919Y-71796301D01*
X76184760Y-71678314D01*
X75591601Y-71796301D01*
X75088744Y-72132298D01*
X74914760Y-72392684D01*
X74740776Y-72132298D01*
X74237919Y-71796301D01*
X73644760Y-71678314D01*
X73051601Y-71796301D01*
X72548744Y-72132298D01*
X72374760Y-72392684D01*
X72200776Y-72132298D01*
X71697919Y-71796301D01*
X71104760Y-71678314D01*
X70511601Y-71796301D01*
X70034784Y-72114899D01*
X69912898Y-71925482D01*
X69662268Y-71754234D01*
X69364760Y-71693987D01*
X67764760Y-71693987D01*
X67486827Y-71746284D01*
X67231562Y-71910542D01*
X67060314Y-72161172D01*
X67000067Y-72458680D01*
X67000067Y-74058680D01*
X67052364Y-74336613D01*
X67216622Y-74591878D01*
X67467252Y-74763126D01*
X67764760Y-74823373D01*
X69364760Y-74823373D01*
X69642693Y-74771076D01*
X69897958Y-74606818D01*
X70036710Y-74403748D01*
X70511601Y-74721059D01*
X71104760Y-74839046D01*
X71697919Y-74721059D01*
X72200776Y-74385062D01*
X72374760Y-74124676D01*
X72548744Y-74385062D01*
X73051601Y-74721059D01*
X73644760Y-74839046D01*
X74237919Y-74721059D01*
X74740776Y-74385062D01*
X74914760Y-74124676D01*
X75088744Y-74385062D01*
X75591601Y-74721059D01*
X76184760Y-74839046D01*
X76777919Y-74721059D01*
X77280776Y-74385062D01*
X77454760Y-74124676D01*
X77628744Y-74385062D01*
X78131601Y-74721059D01*
X78724760Y-74839046D01*
X79317919Y-74721059D01*
X79820776Y-74385062D01*
X79994760Y-74124676D01*
X80168744Y-74385062D01*
X80671601Y-74721059D01*
X81264760Y-74839046D01*
X81857919Y-74721059D01*
X82360776Y-74385062D01*
X82534760Y-74124676D01*
X82708744Y-74385062D01*
X83211601Y-74721059D01*
X83804760Y-74839046D01*
X84397919Y-74721059D01*
X84900776Y-74385062D01*
X85074760Y-74124676D01*
X85248744Y-74385062D01*
X85751601Y-74721059D01*
X86344760Y-74839046D01*
X86937919Y-74721059D01*
X87440776Y-74385062D01*
X87614760Y-74124676D01*
X87788744Y-74385062D01*
X88291601Y-74721059D01*
X88884760Y-74839046D01*
X89477919Y-74721059D01*
X89866760Y-74461245D01*
X89866760Y-74508682D01*
X90532699Y-74508682D01*
X90794129Y-74683345D01*
X91024760Y-74567417D01*
X91024760Y-73658680D01*
X90624760Y-73658680D01*
X90624760Y-72858680D01*
X91024760Y-72858680D01*
X91024760Y-71949943D01*
X90794129Y-71834015D01*
X90532699Y-72008678D01*
X90441536Y-72008678D01*
X93061507Y-69388707D01*
X93278280Y-69064284D01*
X93354400Y-68681600D01*
X93354400Y-67663254D01*
X93826174Y-67191480D01*
X93964760Y-67219046D01*
X94557919Y-67101059D01*
X95060776Y-66765062D01*
X95234760Y-66504676D01*
X95408744Y-66765062D01*
X95911601Y-67101059D01*
X96504760Y-67219046D01*
X96731814Y-67173882D01*
X98088406Y-68530474D01*
X98388497Y-68730989D01*
X98742480Y-68801400D01*
X100048852Y-68801400D01*
X102307000Y-71059548D01*
X102307000Y-71882550D01*
X102177919Y-71796301D01*
X101584760Y-71678314D01*
X100991601Y-71796301D01*
X100488744Y-72132298D01*
X100314760Y-72392684D01*
X100140776Y-72132298D01*
X99637919Y-71796301D01*
X99044760Y-71678314D01*
X98451601Y-71796301D01*
X97948744Y-72132298D01*
X97774760Y-72392684D01*
X97600776Y-72132298D01*
X97097919Y-71796301D01*
X96504760Y-71678314D01*
X95911601Y-71796301D01*
X95408744Y-72132298D01*
X95234760Y-72392684D01*
X95060776Y-72132298D01*
X94557919Y-71796301D01*
X93964760Y-71678314D01*
X93371601Y-71796301D01*
X92982760Y-72056115D01*
X92982760Y-72008678D01*
X92316821Y-72008678D01*
X92055391Y-71834015D01*
X91824760Y-71949943D01*
X91824760Y-72858680D01*
X92224760Y-72858680D01*
X92224760Y-73658680D01*
X91824760Y-73658680D01*
X91824760Y-74567417D01*
X92055391Y-74683345D01*
X92316821Y-74508682D01*
X92982760Y-74508682D01*
X92982760Y-74461245D01*
X93371601Y-74721059D01*
X93964760Y-74839046D01*
X94557919Y-74721059D01*
X95060776Y-74385062D01*
X95234760Y-74124676D01*
X95408744Y-74385062D01*
X95911601Y-74721059D01*
X96504760Y-74839046D01*
X97097919Y-74721059D01*
X97600776Y-74385062D01*
X97774760Y-74124676D01*
X97948744Y-74385062D01*
X98451601Y-74721059D01*
X99044760Y-74839046D01*
X99637919Y-74721059D01*
X100140776Y-74385062D01*
X100314760Y-74124676D01*
X100488744Y-74385062D01*
X100991601Y-74721059D01*
X101584760Y-74839046D01*
X102177919Y-74721059D01*
X102307000Y-74634810D01*
X102307000Y-75116187D01*
X102163667Y-75056670D01*
X101547039Y-75056132D01*
X100977143Y-75291608D01*
X100540740Y-75727249D01*
X100357468Y-76168618D01*
X99919685Y-76606400D01*
X100358010Y-77044725D01*
X100539208Y-77483257D01*
X100974849Y-77919660D01*
X101544333Y-78156130D01*
X102160961Y-78156668D01*
X102307000Y-78096326D01*
X102307000Y-78418187D01*
X102163667Y-78358670D01*
X101547039Y-78358132D01*
X100977143Y-78593608D01*
X100540740Y-79029249D01*
X100357468Y-79470618D01*
X99919685Y-79908400D01*
X100358010Y-80346725D01*
X100539208Y-80785257D01*
X100974849Y-81221660D01*
X101544333Y-81458130D01*
X102160961Y-81458668D01*
X102307000Y-81398326D01*
X102307000Y-81720187D01*
X102163667Y-81660670D01*
X101547039Y-81660132D01*
X100977143Y-81895608D01*
X100540740Y-82331249D01*
X100357468Y-82772618D01*
X99919685Y-83210400D01*
X100358010Y-83648725D01*
X100539208Y-84087257D01*
X100974849Y-84523660D01*
X101544333Y-84760130D01*
X102160961Y-84760668D01*
X102307000Y-84700326D01*
X102307000Y-85223452D01*
X102290667Y-85216670D01*
X101674039Y-85216132D01*
X101104143Y-85451608D01*
X100667740Y-85887249D01*
X100484468Y-86328618D01*
X100046685Y-86766400D01*
X100329528Y-87049243D01*
X99827371Y-87551400D01*
X99700315Y-87551400D01*
X99481000Y-87332085D01*
X99261685Y-87551400D01*
X99134629Y-87551400D01*
X98632472Y-87049243D01*
X98915315Y-86766400D01*
X98250195Y-86101281D01*
X98002154Y-86186383D01*
X97938554Y-86541077D01*
X97477323Y-87002307D01*
X98026416Y-87551400D01*
X97237355Y-87551400D01*
X97434730Y-87076067D01*
X97435268Y-86459439D01*
X97199792Y-85889543D01*
X96846463Y-85535595D01*
X98815881Y-85535595D01*
X99481000Y-86200715D01*
X100146119Y-85535595D01*
X100061017Y-85287554D01*
X99450936Y-85178161D01*
X98900983Y-85287554D01*
X98815881Y-85535595D01*
X96846463Y-85535595D01*
X96764151Y-85453140D01*
X96194667Y-85216670D01*
X95578039Y-85216132D01*
X95008143Y-85451608D01*
X94571740Y-85887249D01*
X94388468Y-86328618D01*
X93950685Y-86766400D01*
X94233528Y-87049243D01*
X93731371Y-87551400D01*
X93604315Y-87551400D01*
X93385000Y-87332085D01*
X93165685Y-87551400D01*
X93038629Y-87551400D01*
X92536472Y-87049243D01*
X92819315Y-86766400D01*
X92154195Y-86101281D01*
X91906154Y-86186383D01*
X91842554Y-86541077D01*
X91381323Y-87002307D01*
X91930416Y-87551400D01*
X84832000Y-87551400D01*
X84478017Y-87621811D01*
X84177926Y-87822326D01*
X82977926Y-89022326D01*
X82777411Y-89322417D01*
X82749499Y-89462742D01*
X82739068Y-89515181D01*
X82495139Y-89352193D01*
X81882846Y-89230400D01*
X81820154Y-89230400D01*
X81207861Y-89352193D01*
X80688783Y-89699029D01*
X80341947Y-90218107D01*
X80220154Y-90830400D01*
X80341947Y-91442693D01*
X80688783Y-91961771D01*
X80896256Y-92100400D01*
X80688783Y-92239029D01*
X80341947Y-92758107D01*
X80220154Y-93370400D01*
X80341947Y-93982693D01*
X80601498Y-94371139D01*
X80601498Y-94405633D01*
X80572127Y-94417799D01*
X80358898Y-94631028D01*
X80243500Y-94909625D01*
X80243500Y-95295900D01*
X80433000Y-95485400D01*
X81426500Y-95485400D01*
X81426500Y-95060400D01*
X82276500Y-95060400D01*
X82276500Y-95485400D01*
X83270000Y-95485400D01*
X83459500Y-95295900D01*
X83459500Y-94909625D01*
X83344102Y-94631028D01*
X83130873Y-94417799D01*
X83101502Y-94405633D01*
X83101502Y-94371139D01*
X83361053Y-93982693D01*
X83442297Y-93574251D01*
X83824202Y-93192346D01*
X83776154Y-93433900D01*
X83897947Y-94046193D01*
X84157498Y-94434639D01*
X84157498Y-94469133D01*
X84128127Y-94481299D01*
X83914898Y-94694528D01*
X83799500Y-94973125D01*
X83799500Y-95359400D01*
X83989000Y-95548900D01*
X84982500Y-95548900D01*
X84982500Y-95123900D01*
X85832500Y-95123900D01*
X85832500Y-95548900D01*
X86826000Y-95548900D01*
X87015500Y-95359400D01*
X87015500Y-94973125D01*
X86900102Y-94694528D01*
X86686873Y-94481299D01*
X86657502Y-94469133D01*
X86657502Y-94434639D01*
X86857327Y-94135580D01*
X86928574Y-94087974D01*
X87373714Y-93642834D01*
X87453947Y-94046193D01*
X87713498Y-94434639D01*
X87713498Y-94469133D01*
X87684127Y-94481299D01*
X87470898Y-94694528D01*
X87355500Y-94973125D01*
X87355500Y-95359400D01*
X87545000Y-95548900D01*
X88538500Y-95548900D01*
X88538500Y-95123900D01*
X89388500Y-95123900D01*
X89388500Y-95548900D01*
X90382000Y-95548900D01*
X90515539Y-95415361D01*
X91540732Y-95415361D01*
X91776208Y-95985257D01*
X92211849Y-96421660D01*
X92781333Y-96658130D01*
X93397961Y-96658668D01*
X93967857Y-96423192D01*
X94404260Y-95987551D01*
X94640730Y-95418067D01*
X94641268Y-94801439D01*
X94405792Y-94231543D01*
X93970151Y-93795140D01*
X93528782Y-93611868D01*
X93091000Y-93174085D01*
X92652675Y-93612410D01*
X92214143Y-93793608D01*
X91777740Y-94229249D01*
X91541270Y-94798733D01*
X91540732Y-95415361D01*
X90515539Y-95415361D01*
X90571500Y-95359400D01*
X90571500Y-94973125D01*
X90456102Y-94694528D01*
X90242873Y-94481299D01*
X90213502Y-94469133D01*
X90213502Y-94434639D01*
X90473053Y-94046193D01*
X90594846Y-93433900D01*
X90473053Y-92821607D01*
X90441766Y-92774782D01*
X90578084Y-92638464D01*
X91502761Y-92638464D01*
X91612154Y-93188417D01*
X91860195Y-93273519D01*
X92525315Y-92608400D01*
X93656685Y-92608400D01*
X94321805Y-93273519D01*
X94569846Y-93188417D01*
X94679239Y-92578336D01*
X94569846Y-92028383D01*
X94321805Y-91943281D01*
X93656685Y-92608400D01*
X92525315Y-92608400D01*
X91860195Y-91943281D01*
X91612154Y-92028383D01*
X91502761Y-92638464D01*
X90578084Y-92638464D01*
X91815148Y-91401400D01*
X92449686Y-91401400D01*
X93091000Y-92042715D01*
X93732314Y-91401400D01*
X103032000Y-91401400D01*
X103385983Y-91330989D01*
X103686074Y-91130474D01*
X103802573Y-91013975D01*
X103780192Y-116052937D01*
X103558343Y-115870907D01*
X103438532Y-115806882D01*
X103325582Y-115731411D01*
X103280536Y-115722451D01*
X103240026Y-115700803D01*
X103104831Y-115687501D01*
X102971600Y-115661000D01*
X100469170Y-115661000D01*
X100248016Y-115330018D01*
X99745159Y-114994021D01*
X99152000Y-114876034D01*
X98558841Y-114994021D01*
X98055984Y-115330018D01*
X97882000Y-115590404D01*
X97708016Y-115330018D01*
X97205159Y-114994021D01*
X96612000Y-114876034D01*
X96018841Y-114994021D01*
X95515984Y-115330018D01*
X95342000Y-115590404D01*
X95168016Y-115330018D01*
X94665159Y-114994021D01*
X94072000Y-114876034D01*
X93478841Y-114994021D01*
X92975984Y-115330018D01*
X92802000Y-115590404D01*
X92628016Y-115330018D01*
X92125159Y-114994021D01*
X91532000Y-114876034D01*
X90938841Y-114994021D01*
X90435984Y-115330018D01*
X90262000Y-115590404D01*
X90088016Y-115330018D01*
X89585159Y-114994021D01*
X88992000Y-114876034D01*
X88398841Y-114994021D01*
X87895984Y-115330018D01*
X87722000Y-115590404D01*
X87548016Y-115330018D01*
X87045159Y-114994021D01*
X86452000Y-114876034D01*
X85858841Y-114994021D01*
X85355984Y-115330018D01*
X85182000Y-115590404D01*
X85008016Y-115330018D01*
X84505159Y-114994021D01*
X83912000Y-114876034D01*
X83318841Y-114994021D01*
X82815984Y-115330018D01*
X82642000Y-115590404D01*
X82468016Y-115330018D01*
X81965159Y-114994021D01*
X81372000Y-114876034D01*
X80778841Y-114994021D01*
X80275984Y-115330018D01*
X80102000Y-115590404D01*
X79928016Y-115330018D01*
X79425159Y-114994021D01*
X78832000Y-114876034D01*
X78238841Y-114994021D01*
X77735984Y-115330018D01*
X77562000Y-115590404D01*
X77388016Y-115330018D01*
X76885159Y-114994021D01*
X76292000Y-114876034D01*
X75698841Y-114994021D01*
X75195984Y-115330018D01*
X75022000Y-115590404D01*
X74848016Y-115330018D01*
X74345159Y-114994021D01*
X73752000Y-114876034D01*
X73158841Y-114994021D01*
X72655984Y-115330018D01*
X72482000Y-115590404D01*
X72308016Y-115330018D01*
X71805159Y-114994021D01*
X71212000Y-114876034D01*
X70618841Y-114994021D01*
X70115984Y-115330018D01*
X69942000Y-115590404D01*
X69768016Y-115330018D01*
X69265159Y-114994021D01*
X68672000Y-114876034D01*
X68078841Y-114994021D01*
X67575984Y-115330018D01*
X67402000Y-115590404D01*
X67228016Y-115330018D01*
X66725159Y-114994021D01*
X66132000Y-114876034D01*
X65538841Y-114994021D01*
X65035984Y-115330018D01*
X64699987Y-115832875D01*
X64582000Y-116426034D01*
X64582000Y-116486766D01*
X64699987Y-117079925D01*
X65035984Y-117582782D01*
X65538841Y-117918779D01*
X66132000Y-118036766D01*
X66725159Y-117918779D01*
X67228016Y-117582782D01*
X67402000Y-117322396D01*
X67575984Y-117582782D01*
X68078841Y-117918779D01*
X68672000Y-118036766D01*
X69265159Y-117918779D01*
X69768016Y-117582782D01*
X69942000Y-117322396D01*
X70115984Y-117582782D01*
X70618841Y-117918779D01*
X71212000Y-118036766D01*
X71805159Y-117918779D01*
X72308016Y-117582782D01*
X72482000Y-117322396D01*
X72655984Y-117582782D01*
X73158841Y-117918779D01*
X73752000Y-118036766D01*
X74345159Y-117918779D01*
X74848016Y-117582782D01*
X75022000Y-117322396D01*
X75195984Y-117582782D01*
X75698841Y-117918779D01*
X76292000Y-118036766D01*
X76885159Y-117918779D01*
X77388016Y-117582782D01*
X77562000Y-117322396D01*
X77735984Y-117582782D01*
X78238841Y-117918779D01*
X78832000Y-118036766D01*
X79425159Y-117918779D01*
X79928016Y-117582782D01*
X80102000Y-117322396D01*
X80275984Y-117582782D01*
X80778841Y-117918779D01*
X81372000Y-118036766D01*
X81965159Y-117918779D01*
X82468016Y-117582782D01*
X82642000Y-117322396D01*
X82815984Y-117582782D01*
X83318841Y-117918779D01*
X83912000Y-118036766D01*
X84505159Y-117918779D01*
X85008016Y-117582782D01*
X85182000Y-117322396D01*
X85355984Y-117582782D01*
X85858841Y-117918779D01*
X86452000Y-118036766D01*
X87045159Y-117918779D01*
X87548016Y-117582782D01*
X87722000Y-117322396D01*
X87895984Y-117582782D01*
X88398841Y-117918779D01*
X88992000Y-118036766D01*
X89119200Y-118011464D01*
X89119200Y-119219786D01*
X85744893Y-122594093D01*
X85628932Y-122767641D01*
X85355984Y-122950018D01*
X85182000Y-123210404D01*
X85008016Y-122950018D01*
X84505159Y-122614021D01*
X83912000Y-122496034D01*
X83318841Y-122614021D01*
X82815984Y-122950018D01*
X82642000Y-123210404D01*
X82468016Y-122950018D01*
X81965159Y-122614021D01*
X81372000Y-122496034D01*
X80778841Y-122614021D01*
X80275984Y-122950018D01*
X80102000Y-123210404D01*
X79928016Y-122950018D01*
X79425159Y-122614021D01*
X78832000Y-122496034D01*
X78238841Y-122614021D01*
X77735984Y-122950018D01*
X77562000Y-123210404D01*
X77388016Y-122950018D01*
X76885159Y-122614021D01*
X76292000Y-122496034D01*
X75698841Y-122614021D01*
X75195984Y-122950018D01*
X75022000Y-123210404D01*
X74848016Y-122950018D01*
X74345159Y-122614021D01*
X73752000Y-122496034D01*
X73158841Y-122614021D01*
X72655984Y-122950018D01*
X72482000Y-123210404D01*
X72308016Y-122950018D01*
X71805159Y-122614021D01*
X71212000Y-122496034D01*
X70618841Y-122614021D01*
X70115984Y-122950018D01*
X69942000Y-123210404D01*
X69768016Y-122950018D01*
X69265159Y-122614021D01*
X68672000Y-122496034D01*
X68078841Y-122614021D01*
X67602024Y-122932619D01*
X67480138Y-122743202D01*
X67229508Y-122571954D01*
X66932000Y-122511707D01*
X65332000Y-122511707D01*
X65054067Y-122564004D01*
X64798802Y-122728262D01*
X64627554Y-122978892D01*
X64567307Y-123276400D01*
X64567307Y-124876400D01*
X64619604Y-125154333D01*
X64783862Y-125409598D01*
X65034492Y-125580846D01*
X65332000Y-125641093D01*
X66932000Y-125641093D01*
X67209933Y-125588796D01*
X67465198Y-125424538D01*
X67603950Y-125221468D01*
X68078841Y-125538779D01*
X68672000Y-125656766D01*
X69265159Y-125538779D01*
X69768016Y-125202782D01*
X69942000Y-124942396D01*
X70115984Y-125202782D01*
X70618841Y-125538779D01*
X71212000Y-125656766D01*
X71805159Y-125538779D01*
X72308016Y-125202782D01*
X72482000Y-124942396D01*
X72655984Y-125202782D01*
X73158841Y-125538779D01*
X73752000Y-125656766D01*
X74345159Y-125538779D01*
X74848016Y-125202782D01*
X75022000Y-124942396D01*
X75195984Y-125202782D01*
X75698841Y-125538779D01*
X76292000Y-125656766D01*
X76885159Y-125538779D01*
X77388016Y-125202782D01*
X77562000Y-124942396D01*
X77735984Y-125202782D01*
X78238841Y-125538779D01*
X78832000Y-125656766D01*
X79425159Y-125538779D01*
X79928016Y-125202782D01*
X80102000Y-124942396D01*
X80275984Y-125202782D01*
X80778841Y-125538779D01*
X81372000Y-125656766D01*
X81965159Y-125538779D01*
X82468016Y-125202782D01*
X82642000Y-124942396D01*
X82815984Y-125202782D01*
X83318841Y-125538779D01*
X83912000Y-125656766D01*
X84505159Y-125538779D01*
X85008016Y-125202782D01*
X85182000Y-124942396D01*
X85355984Y-125202782D01*
X85858841Y-125538779D01*
X86452000Y-125656766D01*
X87045159Y-125538779D01*
X87434000Y-125278965D01*
X87434000Y-125326402D01*
X88099939Y-125326402D01*
X88361369Y-125501065D01*
X88592000Y-125385137D01*
X88592000Y-124476400D01*
X88192000Y-124476400D01*
X88192000Y-123676400D01*
X88592000Y-123676400D01*
X88592000Y-122767663D01*
X89392000Y-122767663D01*
X89392000Y-123676400D01*
X89792000Y-123676400D01*
X89792000Y-124476400D01*
X89392000Y-124476400D01*
X89392000Y-125385137D01*
X89622631Y-125501065D01*
X89884061Y-125326402D01*
X90550000Y-125326402D01*
X90550000Y-125278965D01*
X90938841Y-125538779D01*
X91532000Y-125656766D01*
X92125159Y-125538779D01*
X92628016Y-125202782D01*
X92802000Y-124942396D01*
X92975984Y-125202782D01*
X93478841Y-125538779D01*
X94072000Y-125656766D01*
X94665159Y-125538779D01*
X95168016Y-125202782D01*
X95342000Y-124942396D01*
X95515984Y-125202782D01*
X96018841Y-125538779D01*
X96612000Y-125656766D01*
X97205159Y-125538779D01*
X97708016Y-125202782D01*
X97882000Y-124942396D01*
X98055984Y-125202782D01*
X98558841Y-125538779D01*
X99152000Y-125656766D01*
X99745159Y-125538779D01*
X100248016Y-125202782D01*
X100584013Y-124699925D01*
X100702000Y-124106766D01*
X100702000Y-124046034D01*
X100584013Y-123452875D01*
X100248016Y-122950018D01*
X99745159Y-122614021D01*
X99152000Y-122496034D01*
X98558841Y-122614021D01*
X98055984Y-122950018D01*
X97882000Y-123210404D01*
X97708016Y-122950018D01*
X97205159Y-122614021D01*
X96612000Y-122496034D01*
X96018841Y-122614021D01*
X95515984Y-122950018D01*
X95342000Y-123210404D01*
X95168016Y-122950018D01*
X94665159Y-122614021D01*
X94072000Y-122496034D01*
X93478841Y-122614021D01*
X92975984Y-122950018D01*
X92802000Y-123210404D01*
X92628016Y-122950018D01*
X92125159Y-122614021D01*
X91532000Y-122496034D01*
X90938841Y-122614021D01*
X90550000Y-122873835D01*
X90550000Y-122826398D01*
X89884061Y-122826398D01*
X89622631Y-122651735D01*
X89392000Y-122767663D01*
X88592000Y-122767663D01*
X88464061Y-122703353D01*
X90826307Y-120341107D01*
X91043080Y-120016684D01*
X91119200Y-119634000D01*
X91119200Y-118283414D01*
X91393414Y-118009200D01*
X91532000Y-118036766D01*
X92125159Y-117918779D01*
X92628016Y-117582782D01*
X92802000Y-117322396D01*
X92975984Y-117582782D01*
X93478841Y-117918779D01*
X94072000Y-118036766D01*
X94453194Y-117960942D01*
X96323124Y-119830871D01*
X96323126Y-119830874D01*
X96411043Y-119889618D01*
X96623218Y-120031389D01*
X96977200Y-120101801D01*
X96977205Y-120101800D01*
X102080452Y-120101800D01*
X102605400Y-120626748D01*
X102605400Y-126294093D01*
X102163667Y-126110670D01*
X101547039Y-126110132D01*
X100977143Y-126345608D01*
X100540740Y-126781249D01*
X100357468Y-127222618D01*
X99919685Y-127660400D01*
X100358010Y-128098725D01*
X100539208Y-128537257D01*
X100974849Y-128973660D01*
X101544333Y-129210130D01*
X102160961Y-129210668D01*
X102605400Y-129027030D01*
X102605400Y-129850093D01*
X102163667Y-129666670D01*
X101547039Y-129666132D01*
X100977143Y-129901608D01*
X100540740Y-130337249D01*
X100357468Y-130778618D01*
X99919685Y-131216400D01*
X100358010Y-131654725D01*
X100539208Y-132093257D01*
X100974849Y-132529660D01*
X101544333Y-132766130D01*
X102160961Y-132766668D01*
X102605400Y-132583030D01*
X102605400Y-133152093D01*
X102163667Y-132968670D01*
X101547039Y-132968132D01*
X100977143Y-133203608D01*
X100540740Y-133639249D01*
X100357468Y-134080618D01*
X99919685Y-134518400D01*
X100358010Y-134956725D01*
X100539208Y-135395257D01*
X100974849Y-135831660D01*
X101544333Y-136068130D01*
X102160961Y-136068668D01*
X102605400Y-135885030D01*
X102605400Y-136331399D01*
X102214467Y-136169070D01*
X101597839Y-136168532D01*
X101027943Y-136404008D01*
X100591540Y-136839649D01*
X100408268Y-137281018D01*
X99970485Y-137718800D01*
X100253328Y-138001643D01*
X99687643Y-138567328D01*
X99404800Y-138284485D01*
X99121957Y-138567328D01*
X98556272Y-138001643D01*
X98839115Y-137718800D01*
X98173995Y-137053681D01*
X97925954Y-137138783D01*
X97862354Y-137493477D01*
X97714512Y-137641318D01*
X97714668Y-137462639D01*
X97479192Y-136892743D01*
X97075151Y-136487995D01*
X98739681Y-136487995D01*
X99404800Y-137153115D01*
X100069919Y-136487995D01*
X99984817Y-136239954D01*
X99374736Y-136130561D01*
X98824783Y-136239954D01*
X98739681Y-136487995D01*
X97075151Y-136487995D01*
X97043551Y-136456340D01*
X96474067Y-136219870D01*
X95857439Y-136219332D01*
X95287543Y-136454808D01*
X94851140Y-136890449D01*
X94667868Y-137331818D01*
X94230085Y-137769600D01*
X94512928Y-138052443D01*
X93947243Y-138618128D01*
X93664400Y-138335285D01*
X93381557Y-138618128D01*
X92815872Y-138052443D01*
X93098715Y-137769600D01*
X92433595Y-137104481D01*
X92185554Y-137189583D01*
X92121954Y-137544277D01*
X91660723Y-138005507D01*
X92287976Y-138632760D01*
X86532032Y-138632760D01*
X85384894Y-137787060D01*
X85283303Y-137739366D01*
X85189982Y-137677011D01*
X85121444Y-137663378D01*
X85058190Y-137633682D01*
X84946076Y-137628495D01*
X84836000Y-137606600D01*
X77876405Y-137606600D01*
X77876400Y-137606599D01*
X77522418Y-137677011D01*
X77222326Y-137877526D01*
X76511126Y-138588726D01*
X76310611Y-138888817D01*
X76281814Y-139033592D01*
X76254041Y-139173216D01*
X76195639Y-139134193D01*
X75583346Y-139012400D01*
X75520654Y-139012400D01*
X74908361Y-139134193D01*
X74389283Y-139481029D01*
X74042447Y-140000107D01*
X73920654Y-140612400D01*
X74042447Y-141224693D01*
X74389283Y-141743771D01*
X74596756Y-141882400D01*
X74389283Y-142021029D01*
X74042447Y-142540107D01*
X73920654Y-143152400D01*
X74042447Y-143764693D01*
X74301998Y-144153139D01*
X74301998Y-144187633D01*
X74272627Y-144199799D01*
X74059398Y-144413028D01*
X73944000Y-144691625D01*
X73944000Y-145077900D01*
X74133500Y-145267400D01*
X75127000Y-145267400D01*
X75127000Y-144842400D01*
X75977000Y-144842400D01*
X75977000Y-145267400D01*
X76970500Y-145267400D01*
X77160000Y-145077900D01*
X77160000Y-144691625D01*
X77044602Y-144413028D01*
X76831373Y-144199799D01*
X76802002Y-144187633D01*
X76802002Y-144153139D01*
X77061553Y-143764693D01*
X77152655Y-143306693D01*
X77324057Y-143135291D01*
X77320654Y-143152400D01*
X77442447Y-143764693D01*
X77701998Y-144153139D01*
X77701998Y-144187633D01*
X77672627Y-144199799D01*
X77459398Y-144413028D01*
X77344000Y-144691625D01*
X77344000Y-145077900D01*
X77533500Y-145267400D01*
X78527000Y-145267400D01*
X78527000Y-144842400D01*
X79377000Y-144842400D01*
X79377000Y-145267400D01*
X80370500Y-145267400D01*
X80560000Y-145077900D01*
X80560000Y-144691625D01*
X80444602Y-144413028D01*
X80231373Y-144199799D01*
X80202002Y-144187633D01*
X80202002Y-144153139D01*
X80461553Y-143764693D01*
X80583346Y-143152400D01*
X80545452Y-142961896D01*
X80867274Y-142640074D01*
X81067789Y-142339982D01*
X81138201Y-141986000D01*
X81138200Y-141985995D01*
X81138200Y-141372991D01*
X81387283Y-141745771D01*
X81594756Y-141884400D01*
X81387283Y-142023029D01*
X81040447Y-142542107D01*
X80918654Y-143154400D01*
X81040447Y-143766693D01*
X81299998Y-144155139D01*
X81299998Y-144189633D01*
X81270627Y-144201799D01*
X81057398Y-144415028D01*
X80942000Y-144693625D01*
X80942000Y-145079900D01*
X81131500Y-145269400D01*
X82125000Y-145269400D01*
X82125000Y-144844400D01*
X82975000Y-144844400D01*
X82975000Y-145269400D01*
X83968500Y-145269400D01*
X84158000Y-145079900D01*
X84158000Y-144693625D01*
X84058937Y-144454464D01*
X89597761Y-144454464D01*
X89707154Y-145004417D01*
X89955195Y-145089519D01*
X90620315Y-144424400D01*
X89955195Y-143759281D01*
X89707154Y-143844383D01*
X89597761Y-144454464D01*
X84058937Y-144454464D01*
X84042602Y-144415028D01*
X83829373Y-144201799D01*
X83800002Y-144189633D01*
X83800002Y-144155139D01*
X83920623Y-143974617D01*
X83996160Y-143924145D01*
X84128081Y-143847222D01*
X86507219Y-141742600D01*
X91736546Y-141742600D01*
X91747037Y-142745853D01*
X91421907Y-142420723D01*
X90969357Y-142873274D01*
X90605983Y-142945554D01*
X90520881Y-143193595D01*
X91186000Y-143858715D01*
X91468843Y-143575872D01*
X91758749Y-143865778D01*
X91764457Y-144411628D01*
X91751685Y-144424400D01*
X91764727Y-144437442D01*
X91770312Y-144971459D01*
X91468843Y-145272928D01*
X91186000Y-144990085D01*
X90747675Y-145428410D01*
X90309143Y-145609608D01*
X89872740Y-146045249D01*
X89636270Y-146614733D01*
X89635732Y-147231361D01*
X89871208Y-147801257D01*
X90306849Y-148237660D01*
X90339939Y-148251400D01*
X58924000Y-148251400D01*
X58924000Y-146306900D01*
X73944000Y-146306900D01*
X73944000Y-146693175D01*
X74059398Y-146971772D01*
X74272627Y-147185001D01*
X74551224Y-147300400D01*
X74937500Y-147300400D01*
X75127000Y-147110900D01*
X75127000Y-146117400D01*
X75977000Y-146117400D01*
X75977000Y-147110900D01*
X76166500Y-147300400D01*
X76552776Y-147300400D01*
X76831373Y-147185001D01*
X77044602Y-146971772D01*
X77160000Y-146693175D01*
X77160000Y-146306900D01*
X77344000Y-146306900D01*
X77344000Y-146693175D01*
X77459398Y-146971772D01*
X77672627Y-147185001D01*
X77951224Y-147300400D01*
X78337500Y-147300400D01*
X78527000Y-147110900D01*
X78527000Y-146117400D01*
X79377000Y-146117400D01*
X79377000Y-147110900D01*
X79566500Y-147300400D01*
X79952776Y-147300400D01*
X80231373Y-147185001D01*
X80444602Y-146971772D01*
X80560000Y-146693175D01*
X80560000Y-146308900D01*
X80942000Y-146308900D01*
X80942000Y-146695175D01*
X81057398Y-146973772D01*
X81270627Y-147187001D01*
X81549224Y-147302400D01*
X81935500Y-147302400D01*
X82125000Y-147112900D01*
X82125000Y-146119400D01*
X82975000Y-146119400D01*
X82975000Y-147112900D01*
X83164500Y-147302400D01*
X83550776Y-147302400D01*
X83829373Y-147187001D01*
X84042602Y-146973772D01*
X84158000Y-146695175D01*
X84158000Y-146308900D01*
X83968500Y-146119400D01*
X82975000Y-146119400D01*
X82125000Y-146119400D01*
X81131500Y-146119400D01*
X80942000Y-146308900D01*
X80560000Y-146308900D01*
X80560000Y-146306900D01*
X80370500Y-146117400D01*
X79377000Y-146117400D01*
X78527000Y-146117400D01*
X77533500Y-146117400D01*
X77344000Y-146306900D01*
X77160000Y-146306900D01*
X76970500Y-146117400D01*
X75977000Y-146117400D01*
X75127000Y-146117400D01*
X74133500Y-146117400D01*
X73944000Y-146306900D01*
X58924000Y-146306900D01*
X58924000Y-143624400D01*
X63713307Y-143624400D01*
X63713307Y-145224400D01*
X63765604Y-145502333D01*
X63929862Y-145757598D01*
X64180492Y-145928846D01*
X64478000Y-145989093D01*
X66078000Y-145989093D01*
X66355933Y-145936796D01*
X66611198Y-145772538D01*
X66691368Y-145655205D01*
X69612881Y-145655205D01*
X69697983Y-145903246D01*
X70308064Y-146012639D01*
X70858017Y-145903246D01*
X70943119Y-145655205D01*
X70278000Y-144990085D01*
X69612881Y-145655205D01*
X66691368Y-145655205D01*
X66782446Y-145521908D01*
X66842693Y-145224400D01*
X66842693Y-144454464D01*
X68689761Y-144454464D01*
X68799154Y-145004417D01*
X69047195Y-145089519D01*
X69712315Y-144424400D01*
X70843685Y-144424400D01*
X71508805Y-145089519D01*
X71756846Y-145004417D01*
X71866239Y-144394336D01*
X71756846Y-143844383D01*
X71508805Y-143759281D01*
X70843685Y-144424400D01*
X69712315Y-144424400D01*
X69047195Y-143759281D01*
X68799154Y-143844383D01*
X68689761Y-144454464D01*
X66842693Y-144454464D01*
X66842693Y-143624400D01*
X66790396Y-143346467D01*
X66692026Y-143193595D01*
X69612881Y-143193595D01*
X70278000Y-143858715D01*
X70943119Y-143193595D01*
X70858017Y-142945554D01*
X70247936Y-142836161D01*
X69697983Y-142945554D01*
X69612881Y-143193595D01*
X66692026Y-143193595D01*
X66626138Y-143091202D01*
X66375508Y-142919954D01*
X66078000Y-142859707D01*
X64478000Y-142859707D01*
X64200067Y-142912004D01*
X63944802Y-143076262D01*
X63773554Y-143326892D01*
X63713307Y-143624400D01*
X58924000Y-143624400D01*
X58924000Y-141884400D01*
X58904304Y-141787136D01*
X58848318Y-141705198D01*
X58764864Y-141651497D01*
X58674000Y-141634400D01*
X50457000Y-141634400D01*
X50457000Y-136265054D01*
X56566000Y-136265054D01*
X56566000Y-136327746D01*
X56687793Y-136940039D01*
X57034629Y-137459117D01*
X57553707Y-137805953D01*
X58166000Y-137927746D01*
X58778293Y-137805953D01*
X59297371Y-137459117D01*
X59436000Y-137251644D01*
X59574629Y-137459117D01*
X60093707Y-137805953D01*
X60706000Y-137927746D01*
X61318293Y-137805953D01*
X61745491Y-137520509D01*
X61847862Y-137679598D01*
X62098492Y-137850846D01*
X62396000Y-137911093D01*
X64096000Y-137911093D01*
X64373933Y-137858796D01*
X64629198Y-137694538D01*
X64800446Y-137443908D01*
X64860693Y-137146400D01*
X64860693Y-136538795D01*
X92999281Y-136538795D01*
X93664400Y-137203915D01*
X94329519Y-136538795D01*
X94244417Y-136290754D01*
X93634336Y-136181361D01*
X93084383Y-136290754D01*
X92999281Y-136538795D01*
X64860693Y-136538795D01*
X64860693Y-135749205D01*
X93100881Y-135749205D01*
X93185983Y-135997246D01*
X93796064Y-136106639D01*
X94346017Y-135997246D01*
X94431119Y-135749205D01*
X93766000Y-135084085D01*
X93100881Y-135749205D01*
X64860693Y-135749205D01*
X64860693Y-135446400D01*
X64808396Y-135168467D01*
X64644138Y-134913202D01*
X64393508Y-134741954D01*
X64096000Y-134681707D01*
X62396000Y-134681707D01*
X62118067Y-134734004D01*
X61862802Y-134898262D01*
X61744394Y-135071558D01*
X61318293Y-134786847D01*
X60706000Y-134665054D01*
X60093707Y-134786847D01*
X59574629Y-135133683D01*
X59436000Y-135341156D01*
X59297371Y-135133683D01*
X58778293Y-134786847D01*
X58166000Y-134665054D01*
X57553707Y-134786847D01*
X57034629Y-135133683D01*
X56687793Y-135652761D01*
X56566000Y-136265054D01*
X50457000Y-136265054D01*
X50457000Y-134548464D01*
X92177761Y-134548464D01*
X92287154Y-135098417D01*
X92535195Y-135183519D01*
X93200315Y-134518400D01*
X94331685Y-134518400D01*
X94770010Y-134956725D01*
X94951208Y-135395257D01*
X95386849Y-135831660D01*
X95956333Y-136068130D01*
X96572961Y-136068668D01*
X97142857Y-135833192D01*
X97226990Y-135749205D01*
X98688881Y-135749205D01*
X98773983Y-135997246D01*
X99384064Y-136106639D01*
X99934017Y-135997246D01*
X100019119Y-135749205D01*
X99354000Y-135084085D01*
X98688881Y-135749205D01*
X97226990Y-135749205D01*
X97579260Y-135397551D01*
X97815730Y-134828067D01*
X97815755Y-134799798D01*
X97875154Y-135098417D01*
X98123195Y-135183519D01*
X98788315Y-134518400D01*
X98123195Y-133853281D01*
X97875154Y-133938383D01*
X97816219Y-134267059D01*
X97816268Y-134211439D01*
X97580792Y-133641543D01*
X97227463Y-133287595D01*
X98688881Y-133287595D01*
X99354000Y-133952715D01*
X100019119Y-133287595D01*
X99934017Y-133039554D01*
X99323936Y-132930161D01*
X98773983Y-133039554D01*
X98688881Y-133287595D01*
X97227463Y-133287595D01*
X97145151Y-133205140D01*
X96575667Y-132968670D01*
X95959039Y-132968132D01*
X95389143Y-133203608D01*
X94952740Y-133639249D01*
X94769468Y-134080618D01*
X94331685Y-134518400D01*
X93200315Y-134518400D01*
X92535195Y-133853281D01*
X92287154Y-133938383D01*
X92177761Y-134548464D01*
X50457000Y-134548464D01*
X50457000Y-133287595D01*
X93100881Y-133287595D01*
X93766000Y-133952715D01*
X94431119Y-133287595D01*
X94346017Y-133039554D01*
X93735936Y-132930161D01*
X93185983Y-133039554D01*
X93100881Y-133287595D01*
X50457000Y-133287595D01*
X50457000Y-131143900D01*
X55346000Y-131143900D01*
X55346000Y-131605176D01*
X55461399Y-131883773D01*
X55674628Y-132097002D01*
X55953225Y-132212400D01*
X56564500Y-132212400D01*
X56754000Y-132022900D01*
X56754000Y-130954400D01*
X58054000Y-130954400D01*
X58054000Y-132022900D01*
X58243500Y-132212400D01*
X58854775Y-132212400D01*
X58901116Y-132193205D01*
X92846881Y-132193205D01*
X92931983Y-132441246D01*
X93542064Y-132550639D01*
X94092017Y-132441246D01*
X94177119Y-132193205D01*
X93512000Y-131528085D01*
X92846881Y-132193205D01*
X58901116Y-132193205D01*
X59133372Y-132097002D01*
X59346601Y-131883773D01*
X59462000Y-131605176D01*
X59462000Y-131143900D01*
X59310564Y-130992464D01*
X91923761Y-130992464D01*
X92033154Y-131542417D01*
X92281195Y-131627519D01*
X92946315Y-130962400D01*
X94077685Y-130962400D01*
X94516010Y-131400725D01*
X94697208Y-131839257D01*
X95132849Y-132275660D01*
X95702333Y-132512130D01*
X96318961Y-132512668D01*
X96477393Y-132447205D01*
X98688881Y-132447205D01*
X98773983Y-132695246D01*
X99384064Y-132804639D01*
X99934017Y-132695246D01*
X100019119Y-132447205D01*
X99354000Y-131782085D01*
X98688881Y-132447205D01*
X96477393Y-132447205D01*
X96888857Y-132277192D01*
X97325260Y-131841551D01*
X97561730Y-131272067D01*
X97561752Y-131246464D01*
X97765761Y-131246464D01*
X97875154Y-131796417D01*
X98123195Y-131881519D01*
X98788315Y-131216400D01*
X98123195Y-130551281D01*
X97875154Y-130636383D01*
X97765761Y-131246464D01*
X97561752Y-131246464D01*
X97562268Y-130655439D01*
X97326792Y-130085543D01*
X97227019Y-129985595D01*
X98688881Y-129985595D01*
X99354000Y-130650715D01*
X100019119Y-129985595D01*
X99934017Y-129737554D01*
X99323936Y-129628161D01*
X98773983Y-129737554D01*
X98688881Y-129985595D01*
X97227019Y-129985595D01*
X96891151Y-129649140D01*
X96321667Y-129412670D01*
X95705039Y-129412132D01*
X95135143Y-129647608D01*
X94698740Y-130083249D01*
X94515468Y-130524618D01*
X94077685Y-130962400D01*
X92946315Y-130962400D01*
X92281195Y-130297281D01*
X92033154Y-130382383D01*
X91923761Y-130992464D01*
X59310564Y-130992464D01*
X59272500Y-130954400D01*
X58054000Y-130954400D01*
X56754000Y-130954400D01*
X55535500Y-130954400D01*
X55346000Y-131143900D01*
X50457000Y-131143900D01*
X50457000Y-111967614D01*
X50618800Y-112129414D01*
X50591234Y-112268000D01*
X50709221Y-112861159D01*
X51045218Y-113364016D01*
X51171600Y-113448461D01*
X51171600Y-125044200D01*
X51247720Y-125426884D01*
X51464493Y-125751307D01*
X51794693Y-126081507D01*
X52119117Y-126298280D01*
X52501800Y-126374400D01*
X55667751Y-126374400D01*
X55826401Y-126611837D01*
X55875135Y-126644400D01*
X55826401Y-126676963D01*
X55447049Y-127244704D01*
X55313838Y-127914400D01*
X55447049Y-128584096D01*
X55629409Y-128857017D01*
X55461399Y-129025027D01*
X55346000Y-129303624D01*
X55346000Y-129764900D01*
X55535500Y-129954400D01*
X56754000Y-129954400D01*
X56754000Y-129602769D01*
X57063838Y-129664400D01*
X57744162Y-129664400D01*
X58054000Y-129602769D01*
X58054000Y-129954400D01*
X59272500Y-129954400D01*
X59462000Y-129764900D01*
X59462000Y-129731595D01*
X92846881Y-129731595D01*
X93512000Y-130396715D01*
X94177119Y-129731595D01*
X94092017Y-129483554D01*
X93481936Y-129374161D01*
X92931983Y-129483554D01*
X92846881Y-129731595D01*
X59462000Y-129731595D01*
X59462000Y-129303624D01*
X59346601Y-129025027D01*
X59178591Y-128857017D01*
X59325464Y-128637205D01*
X62326881Y-128637205D01*
X62411983Y-128885246D01*
X63022064Y-128994639D01*
X63542059Y-128891205D01*
X92846881Y-128891205D01*
X92931983Y-129139246D01*
X93542064Y-129248639D01*
X94092017Y-129139246D01*
X94177119Y-128891205D01*
X93512000Y-128226085D01*
X92846881Y-128891205D01*
X63542059Y-128891205D01*
X63572017Y-128885246D01*
X63657119Y-128637205D01*
X62992000Y-127972085D01*
X62326881Y-128637205D01*
X59325464Y-128637205D01*
X59360951Y-128584096D01*
X59494162Y-127914400D01*
X59399095Y-127436464D01*
X61403761Y-127436464D01*
X61513154Y-127986417D01*
X61761195Y-128071519D01*
X62426315Y-127406400D01*
X63557685Y-127406400D01*
X64222805Y-128071519D01*
X64470846Y-127986417D01*
X64523913Y-127690464D01*
X91923761Y-127690464D01*
X92033154Y-128240417D01*
X92281195Y-128325519D01*
X92946315Y-127660400D01*
X94077685Y-127660400D01*
X94516010Y-128098725D01*
X94697208Y-128537257D01*
X95132849Y-128973660D01*
X95702333Y-129210130D01*
X96318961Y-129210668D01*
X96888857Y-128975192D01*
X96972990Y-128891205D01*
X98688881Y-128891205D01*
X98773983Y-129139246D01*
X99384064Y-129248639D01*
X99934017Y-129139246D01*
X100019119Y-128891205D01*
X99354000Y-128226085D01*
X98688881Y-128891205D01*
X96972990Y-128891205D01*
X97325260Y-128539551D01*
X97561730Y-127970067D01*
X97561973Y-127690464D01*
X97765761Y-127690464D01*
X97875154Y-128240417D01*
X98123195Y-128325519D01*
X98788315Y-127660400D01*
X98123195Y-126995281D01*
X97875154Y-127080383D01*
X97765761Y-127690464D01*
X97561973Y-127690464D01*
X97562268Y-127353439D01*
X97326792Y-126783543D01*
X96973463Y-126429595D01*
X98688881Y-126429595D01*
X99354000Y-127094715D01*
X100019119Y-126429595D01*
X99934017Y-126181554D01*
X99323936Y-126072161D01*
X98773983Y-126181554D01*
X98688881Y-126429595D01*
X96973463Y-126429595D01*
X96891151Y-126347140D01*
X96321667Y-126110670D01*
X95705039Y-126110132D01*
X95135143Y-126345608D01*
X94698740Y-126781249D01*
X94515468Y-127222618D01*
X94077685Y-127660400D01*
X92946315Y-127660400D01*
X92281195Y-126995281D01*
X92033154Y-127080383D01*
X91923761Y-127690464D01*
X64523913Y-127690464D01*
X64580239Y-127376336D01*
X64470846Y-126826383D01*
X64222805Y-126741281D01*
X63557685Y-127406400D01*
X62426315Y-127406400D01*
X61761195Y-126741281D01*
X61513154Y-126826383D01*
X61403761Y-127436464D01*
X59399095Y-127436464D01*
X59360951Y-127244704D01*
X58981599Y-126676963D01*
X58932865Y-126644400D01*
X58981599Y-126611837D01*
X59360951Y-126044096D01*
X59494162Y-125374400D01*
X59462130Y-125213361D01*
X61441732Y-125213361D01*
X61677208Y-125783257D01*
X62112849Y-126219660D01*
X62554218Y-126402932D01*
X62992000Y-126840715D01*
X63403120Y-126429595D01*
X92846881Y-126429595D01*
X93512000Y-127094715D01*
X94177119Y-126429595D01*
X94092017Y-126181554D01*
X93481936Y-126072161D01*
X92931983Y-126181554D01*
X92846881Y-126429595D01*
X63403120Y-126429595D01*
X63430325Y-126402390D01*
X63868857Y-126221192D01*
X64305260Y-125785551D01*
X64541730Y-125216067D01*
X64542268Y-124599439D01*
X64306792Y-124029543D01*
X63992000Y-123714200D01*
X63992000Y-114413205D01*
X92846881Y-114413205D01*
X92931983Y-114661246D01*
X93542064Y-114770639D01*
X94092017Y-114661246D01*
X94177119Y-114413205D01*
X93512000Y-113748085D01*
X92846881Y-114413205D01*
X63992000Y-114413205D01*
X63992000Y-113212464D01*
X91923761Y-113212464D01*
X92033154Y-113762417D01*
X92281195Y-113847519D01*
X92946315Y-113182400D01*
X94077685Y-113182400D01*
X94516010Y-113620725D01*
X94697208Y-114059257D01*
X95132849Y-114495660D01*
X95702333Y-114732130D01*
X96318961Y-114732668D01*
X96888857Y-114497192D01*
X96972990Y-114413205D01*
X98688881Y-114413205D01*
X98773983Y-114661246D01*
X99384064Y-114770639D01*
X99934017Y-114661246D01*
X100019119Y-114413205D01*
X99354000Y-113748085D01*
X98688881Y-114413205D01*
X96972990Y-114413205D01*
X97325260Y-114061551D01*
X97561730Y-113492067D01*
X97561973Y-113212464D01*
X97765761Y-113212464D01*
X97875154Y-113762417D01*
X98123195Y-113847519D01*
X98788315Y-113182400D01*
X99919685Y-113182400D01*
X100358010Y-113620725D01*
X100539208Y-114059257D01*
X100974849Y-114495660D01*
X101544333Y-114732130D01*
X102160961Y-114732668D01*
X102730857Y-114497192D01*
X103167260Y-114061551D01*
X103403730Y-113492067D01*
X103404268Y-112875439D01*
X103168792Y-112305543D01*
X102733151Y-111869140D01*
X102163667Y-111632670D01*
X101547039Y-111632132D01*
X100977143Y-111867608D01*
X100540740Y-112303249D01*
X100357468Y-112744618D01*
X99919685Y-113182400D01*
X98788315Y-113182400D01*
X98123195Y-112517281D01*
X97875154Y-112602383D01*
X97765761Y-113212464D01*
X97561973Y-113212464D01*
X97562268Y-112875439D01*
X97326792Y-112305543D01*
X96973463Y-111951595D01*
X98688881Y-111951595D01*
X99354000Y-112616715D01*
X100019119Y-111951595D01*
X99934017Y-111703554D01*
X99323936Y-111594161D01*
X98773983Y-111703554D01*
X98688881Y-111951595D01*
X96973463Y-111951595D01*
X96891151Y-111869140D01*
X96321667Y-111632670D01*
X95705039Y-111632132D01*
X95135143Y-111867608D01*
X94698740Y-112303249D01*
X94515468Y-112744618D01*
X94077685Y-113182400D01*
X92946315Y-113182400D01*
X92281195Y-112517281D01*
X92033154Y-112602383D01*
X91923761Y-113212464D01*
X63992000Y-113212464D01*
X63992000Y-111951595D01*
X92846881Y-111951595D01*
X93512000Y-112616715D01*
X94177119Y-111951595D01*
X94092017Y-111703554D01*
X93481936Y-111594161D01*
X92931983Y-111703554D01*
X92846881Y-111951595D01*
X63992000Y-111951595D01*
X63992000Y-111162005D01*
X92846881Y-111162005D01*
X92931983Y-111410046D01*
X93542064Y-111519439D01*
X94092017Y-111410046D01*
X94177119Y-111162005D01*
X93512000Y-110496885D01*
X92846881Y-111162005D01*
X63992000Y-111162005D01*
X63992000Y-110891093D01*
X64182000Y-110891093D01*
X64459933Y-110838796D01*
X64715198Y-110674538D01*
X64795368Y-110557205D01*
X67716881Y-110557205D01*
X67801983Y-110805246D01*
X68412064Y-110914639D01*
X68962017Y-110805246D01*
X69047119Y-110557205D01*
X68382000Y-109892085D01*
X67716881Y-110557205D01*
X64795368Y-110557205D01*
X64886446Y-110423908D01*
X64946693Y-110126400D01*
X64946693Y-109356464D01*
X66793761Y-109356464D01*
X66903154Y-109906417D01*
X67151195Y-109991519D01*
X67816315Y-109326400D01*
X68947685Y-109326400D01*
X69612805Y-109991519D01*
X69700987Y-109961264D01*
X91923761Y-109961264D01*
X92033154Y-110511217D01*
X92281195Y-110596319D01*
X92946315Y-109931200D01*
X94077685Y-109931200D01*
X94516010Y-110369525D01*
X94697208Y-110808057D01*
X95132849Y-111244460D01*
X95702333Y-111480930D01*
X96318961Y-111481468D01*
X96888857Y-111245992D01*
X97023879Y-111111205D01*
X98688881Y-111111205D01*
X98773983Y-111359246D01*
X99384064Y-111468639D01*
X99934017Y-111359246D01*
X100019119Y-111111205D01*
X99354000Y-110446085D01*
X98688881Y-111111205D01*
X97023879Y-111111205D01*
X97325260Y-110810351D01*
X97561730Y-110240867D01*
X97562018Y-109910464D01*
X97765761Y-109910464D01*
X97875154Y-110460417D01*
X98123195Y-110545519D01*
X98788315Y-109880400D01*
X99919685Y-109880400D01*
X100358010Y-110318725D01*
X100539208Y-110757257D01*
X100974849Y-111193660D01*
X101544333Y-111430130D01*
X102160961Y-111430668D01*
X102730857Y-111195192D01*
X103167260Y-110759551D01*
X103403730Y-110190067D01*
X103404268Y-109573439D01*
X103168792Y-109003543D01*
X102733151Y-108567140D01*
X102163667Y-108330670D01*
X101547039Y-108330132D01*
X100977143Y-108565608D01*
X100540740Y-109001249D01*
X100357468Y-109442618D01*
X99919685Y-109880400D01*
X98788315Y-109880400D01*
X98123195Y-109215281D01*
X97875154Y-109300383D01*
X97765761Y-109910464D01*
X97562018Y-109910464D01*
X97562268Y-109624239D01*
X97326792Y-109054343D01*
X96922751Y-108649595D01*
X98688881Y-108649595D01*
X99354000Y-109314715D01*
X100019119Y-108649595D01*
X99934017Y-108401554D01*
X99323936Y-108292161D01*
X98773983Y-108401554D01*
X98688881Y-108649595D01*
X96922751Y-108649595D01*
X96891151Y-108617940D01*
X96321667Y-108381470D01*
X95705039Y-108380932D01*
X95135143Y-108616408D01*
X94698740Y-109052049D01*
X94515468Y-109493418D01*
X94077685Y-109931200D01*
X92946315Y-109931200D01*
X92281195Y-109266081D01*
X92033154Y-109351183D01*
X91923761Y-109961264D01*
X69700987Y-109961264D01*
X69860846Y-109906417D01*
X69970239Y-109296336D01*
X69860846Y-108746383D01*
X69726808Y-108700395D01*
X92846881Y-108700395D01*
X93512000Y-109365515D01*
X94177119Y-108700395D01*
X94092017Y-108452354D01*
X93481936Y-108342961D01*
X92931983Y-108452354D01*
X92846881Y-108700395D01*
X69726808Y-108700395D01*
X69612805Y-108661281D01*
X68947685Y-109326400D01*
X67816315Y-109326400D01*
X67151195Y-108661281D01*
X66903154Y-108746383D01*
X66793761Y-109356464D01*
X64946693Y-109356464D01*
X64946693Y-108526400D01*
X64894396Y-108248467D01*
X64796026Y-108095595D01*
X67716881Y-108095595D01*
X68382000Y-108760715D01*
X69047119Y-108095595D01*
X68962017Y-107847554D01*
X68464837Y-107758405D01*
X92796081Y-107758405D01*
X92881183Y-108006446D01*
X93491264Y-108115839D01*
X94041217Y-108006446D01*
X94126319Y-107758405D01*
X93461200Y-107093285D01*
X92796081Y-107758405D01*
X68464837Y-107758405D01*
X68351936Y-107738161D01*
X67801983Y-107847554D01*
X67716881Y-108095595D01*
X64796026Y-108095595D01*
X64730138Y-107993202D01*
X64479508Y-107821954D01*
X64182000Y-107761707D01*
X62582000Y-107761707D01*
X62304067Y-107814004D01*
X62048802Y-107978262D01*
X61877554Y-108228892D01*
X61817307Y-108526400D01*
X61817307Y-110126400D01*
X61869604Y-110404333D01*
X61992000Y-110594542D01*
X61992000Y-123714536D01*
X61678740Y-124027249D01*
X61442270Y-124596733D01*
X61441732Y-125213361D01*
X59462130Y-125213361D01*
X59360951Y-124704704D01*
X58981599Y-124136963D01*
X58932865Y-124104400D01*
X58981599Y-124071837D01*
X59360951Y-123504096D01*
X59494162Y-122834400D01*
X59360951Y-122164704D01*
X58981599Y-121596963D01*
X58932865Y-121564400D01*
X58981599Y-121531837D01*
X59360951Y-120964096D01*
X59494162Y-120294400D01*
X59360951Y-119624704D01*
X58981599Y-119056963D01*
X58932865Y-119024400D01*
X58981599Y-118991837D01*
X59360951Y-118424096D01*
X59494162Y-117754400D01*
X59360951Y-117084704D01*
X58981599Y-116516963D01*
X58413858Y-116137611D01*
X57744162Y-116004400D01*
X57063838Y-116004400D01*
X56394142Y-116137611D01*
X55826401Y-116516963D01*
X55447049Y-117084704D01*
X55313838Y-117754400D01*
X55447049Y-118424096D01*
X55826401Y-118991837D01*
X55875135Y-119024400D01*
X55826401Y-119056963D01*
X55447049Y-119624704D01*
X55313838Y-120294400D01*
X55447049Y-120964096D01*
X55826401Y-121531837D01*
X55875135Y-121564400D01*
X55826401Y-121596963D01*
X55667751Y-121834400D01*
X54594000Y-121834400D01*
X54594000Y-112574961D01*
X58241332Y-112574961D01*
X58476808Y-113144857D01*
X58912449Y-113581260D01*
X59481933Y-113817730D01*
X60098561Y-113818268D01*
X60668457Y-113582792D01*
X61104860Y-113147151D01*
X61341330Y-112577667D01*
X61341868Y-111961039D01*
X61106392Y-111391143D01*
X60670751Y-110954740D01*
X60104057Y-110719428D01*
X60149361Y-110719468D01*
X60719257Y-110483992D01*
X61155660Y-110048351D01*
X61392130Y-109478867D01*
X61392668Y-108862239D01*
X61157192Y-108292343D01*
X60721551Y-107855940D01*
X60152067Y-107619470D01*
X59535439Y-107618932D01*
X58965543Y-107854408D01*
X58529140Y-108290049D01*
X58292670Y-108859533D01*
X58292132Y-109476161D01*
X58527608Y-110046057D01*
X58963249Y-110482460D01*
X59529943Y-110717772D01*
X59484639Y-110717732D01*
X58914743Y-110953208D01*
X58478340Y-111388849D01*
X58241870Y-111958333D01*
X58241332Y-112574961D01*
X54594000Y-112574961D01*
X54594000Y-110794800D01*
X54517880Y-110412117D01*
X54301107Y-110087693D01*
X53733058Y-109519644D01*
X53802766Y-109169200D01*
X53684779Y-108576041D01*
X53348782Y-108073184D01*
X52845925Y-107737187D01*
X52252766Y-107619200D01*
X52192034Y-107619200D01*
X51749200Y-107707285D01*
X51749200Y-104335346D01*
X51827518Y-104335346D01*
X52250160Y-105358218D01*
X53032066Y-106141490D01*
X54054198Y-106565916D01*
X55160946Y-106566882D01*
X55183255Y-106557664D01*
X91872961Y-106557664D01*
X91982354Y-107107617D01*
X92230395Y-107192719D01*
X92895515Y-106527600D01*
X94026885Y-106527600D01*
X94465210Y-106965925D01*
X94646408Y-107404457D01*
X95082049Y-107840860D01*
X95651533Y-108077330D01*
X96268161Y-108077868D01*
X96838057Y-107842392D01*
X96871302Y-107809205D01*
X98536481Y-107809205D01*
X98621583Y-108057246D01*
X99231664Y-108166639D01*
X99781617Y-108057246D01*
X99866719Y-107809205D01*
X99201600Y-107144085D01*
X98536481Y-107809205D01*
X96871302Y-107809205D01*
X97274460Y-107406751D01*
X97510930Y-106837267D01*
X97511129Y-106608464D01*
X97613361Y-106608464D01*
X97722754Y-107158417D01*
X97970795Y-107243519D01*
X98635915Y-106578400D01*
X99767285Y-106578400D01*
X100205610Y-107016725D01*
X100386808Y-107455257D01*
X100822449Y-107891660D01*
X101391933Y-108128130D01*
X102008561Y-108128668D01*
X102578457Y-107893192D01*
X103014860Y-107457551D01*
X103251330Y-106888067D01*
X103251868Y-106271439D01*
X103016392Y-105701543D01*
X102580751Y-105265140D01*
X102011267Y-105028670D01*
X101394639Y-105028132D01*
X100824743Y-105263608D01*
X100388340Y-105699249D01*
X100205068Y-106140618D01*
X99767285Y-106578400D01*
X98635915Y-106578400D01*
X97970795Y-105913281D01*
X97722754Y-105998383D01*
X97613361Y-106608464D01*
X97511129Y-106608464D01*
X97511468Y-106220639D01*
X97275992Y-105650743D01*
X96973374Y-105347595D01*
X98536481Y-105347595D01*
X99201600Y-106012715D01*
X99866719Y-105347595D01*
X99781617Y-105099554D01*
X99171536Y-104990161D01*
X98621583Y-105099554D01*
X98536481Y-105347595D01*
X96973374Y-105347595D01*
X96840351Y-105214340D01*
X96270867Y-104977870D01*
X95654239Y-104977332D01*
X95084343Y-105212808D01*
X94647940Y-105648449D01*
X94464668Y-106089818D01*
X94026885Y-106527600D01*
X92895515Y-106527600D01*
X92230395Y-105862481D01*
X91982354Y-105947583D01*
X91872961Y-106557664D01*
X55183255Y-106557664D01*
X56183818Y-106144240D01*
X56967090Y-105362334D01*
X56994304Y-105296795D01*
X92796081Y-105296795D01*
X93461200Y-105961915D01*
X94126319Y-105296795D01*
X94041217Y-105048754D01*
X93431136Y-104939361D01*
X92881183Y-105048754D01*
X92796081Y-105296795D01*
X56994304Y-105296795D01*
X57391516Y-104340202D01*
X57392482Y-103233454D01*
X56969840Y-102210582D01*
X56187934Y-101427310D01*
X55165802Y-101002884D01*
X54059054Y-101001918D01*
X53036182Y-101424560D01*
X52252910Y-102206466D01*
X51828484Y-103228598D01*
X51827518Y-104335346D01*
X51749200Y-104335346D01*
X51749200Y-95127346D01*
X51849518Y-95127346D01*
X52272160Y-96150218D01*
X53054066Y-96933490D01*
X54076198Y-97357916D01*
X55182946Y-97358882D01*
X56205818Y-96936240D01*
X56989090Y-96154334D01*
X57413516Y-95132202D01*
X57414482Y-94025454D01*
X56991840Y-93002582D01*
X56209934Y-92219310D01*
X55187802Y-91794884D01*
X54081054Y-91793918D01*
X53058182Y-92216560D01*
X52274910Y-92998466D01*
X51850484Y-94020598D01*
X51849518Y-95127346D01*
X51749200Y-95127346D01*
X51749200Y-90829534D01*
X59928960Y-90829534D01*
X59928960Y-90892226D01*
X60050753Y-91504519D01*
X60397589Y-92023597D01*
X60916667Y-92370433D01*
X61528960Y-92492226D01*
X62141253Y-92370433D01*
X62660331Y-92023597D01*
X62798960Y-91816124D01*
X62937589Y-92023597D01*
X63381719Y-92320355D01*
X63251474Y-92450600D01*
X63093600Y-92450600D01*
X62615246Y-92545751D01*
X62209717Y-92816716D01*
X61894117Y-93132317D01*
X61623151Y-93537846D01*
X61528000Y-94016200D01*
X61528000Y-102588099D01*
X61464740Y-102651249D01*
X61228270Y-103220733D01*
X61227732Y-103837361D01*
X61463208Y-104407257D01*
X61898849Y-104843660D01*
X62468333Y-105080130D01*
X63084961Y-105080668D01*
X63654857Y-104845192D01*
X63738990Y-104761205D01*
X64612881Y-104761205D01*
X64697983Y-105009246D01*
X65308064Y-105118639D01*
X65858017Y-105009246D01*
X65943119Y-104761205D01*
X65739920Y-104558005D01*
X92999281Y-104558005D01*
X93084383Y-104806046D01*
X93694464Y-104915439D01*
X94244417Y-104806046D01*
X94329519Y-104558005D01*
X93664400Y-103892885D01*
X92999281Y-104558005D01*
X65739920Y-104558005D01*
X65278000Y-104096085D01*
X64612881Y-104761205D01*
X63738990Y-104761205D01*
X64091260Y-104409551D01*
X64274532Y-103968182D01*
X64712315Y-103530400D01*
X65843685Y-103530400D01*
X66508805Y-104195519D01*
X66756846Y-104110417D01*
X66866239Y-103500336D01*
X66837781Y-103357264D01*
X92076161Y-103357264D01*
X92185554Y-103907217D01*
X92433595Y-103992319D01*
X93098715Y-103327200D01*
X94230085Y-103327200D01*
X94668410Y-103765525D01*
X94849608Y-104204057D01*
X95285249Y-104640460D01*
X95854733Y-104876930D01*
X96471361Y-104877468D01*
X97041257Y-104641992D01*
X97125390Y-104558005D01*
X98587281Y-104558005D01*
X98672383Y-104806046D01*
X99282464Y-104915439D01*
X99832417Y-104806046D01*
X99917519Y-104558005D01*
X99252400Y-103892885D01*
X98587281Y-104558005D01*
X97125390Y-104558005D01*
X97477660Y-104206351D01*
X97714130Y-103636867D01*
X97714155Y-103608598D01*
X97773554Y-103907217D01*
X98021595Y-103992319D01*
X98686715Y-103327200D01*
X99818085Y-103327200D01*
X100256410Y-103765525D01*
X100437608Y-104204057D01*
X100873249Y-104640460D01*
X101442733Y-104876930D01*
X102059361Y-104877468D01*
X102629257Y-104641992D01*
X103065660Y-104206351D01*
X103302130Y-103636867D01*
X103302668Y-103020239D01*
X103067192Y-102450343D01*
X102631551Y-102013940D01*
X102062067Y-101777470D01*
X101445439Y-101776932D01*
X100875543Y-102012408D01*
X100439140Y-102448049D01*
X100255868Y-102889418D01*
X99818085Y-103327200D01*
X98686715Y-103327200D01*
X98021595Y-102662081D01*
X97773554Y-102747183D01*
X97714619Y-103075859D01*
X97714668Y-103020239D01*
X97479192Y-102450343D01*
X97125863Y-102096395D01*
X98587281Y-102096395D01*
X99252400Y-102761515D01*
X99917519Y-102096395D01*
X99832417Y-101848354D01*
X99222336Y-101738961D01*
X98672383Y-101848354D01*
X98587281Y-102096395D01*
X97125863Y-102096395D01*
X97043551Y-102013940D01*
X96474067Y-101777470D01*
X95857439Y-101776932D01*
X95287543Y-102012408D01*
X94851140Y-102448049D01*
X94667868Y-102889418D01*
X94230085Y-103327200D01*
X93098715Y-103327200D01*
X92433595Y-102662081D01*
X92185554Y-102747183D01*
X92076161Y-103357264D01*
X66837781Y-103357264D01*
X66756846Y-102950383D01*
X66508805Y-102865281D01*
X65843685Y-103530400D01*
X64712315Y-103530400D01*
X64273990Y-103092075D01*
X64092792Y-102653543D01*
X64028000Y-102588638D01*
X64028000Y-102299595D01*
X64612881Y-102299595D01*
X65278000Y-102964715D01*
X65943119Y-102299595D01*
X65873402Y-102096395D01*
X92999281Y-102096395D01*
X93664400Y-102761515D01*
X94329519Y-102096395D01*
X94244417Y-101848354D01*
X93634336Y-101738961D01*
X93084383Y-101848354D01*
X92999281Y-102096395D01*
X65873402Y-102096395D01*
X65858017Y-102051554D01*
X65247936Y-101942161D01*
X64697983Y-102051554D01*
X64612881Y-102299595D01*
X64028000Y-102299595D01*
X64028000Y-96524900D01*
X80243500Y-96524900D01*
X80243500Y-96911175D01*
X80358898Y-97189772D01*
X80572127Y-97403001D01*
X80850724Y-97518400D01*
X81237000Y-97518400D01*
X81426500Y-97328900D01*
X81426500Y-96335400D01*
X82276500Y-96335400D01*
X82276500Y-97328900D01*
X82466000Y-97518400D01*
X82852276Y-97518400D01*
X83130873Y-97403001D01*
X83344102Y-97189772D01*
X83459500Y-96911175D01*
X83459500Y-96588400D01*
X83799500Y-96588400D01*
X83799500Y-96974675D01*
X83914898Y-97253272D01*
X84128127Y-97466501D01*
X84406724Y-97581900D01*
X84793000Y-97581900D01*
X84982500Y-97392400D01*
X84982500Y-96398900D01*
X85832500Y-96398900D01*
X85832500Y-97392400D01*
X86022000Y-97581900D01*
X86408276Y-97581900D01*
X86686873Y-97466501D01*
X86900102Y-97253272D01*
X87015500Y-96974675D01*
X87015500Y-96588400D01*
X87355500Y-96588400D01*
X87355500Y-96974675D01*
X87470898Y-97253272D01*
X87684127Y-97466501D01*
X87962724Y-97581900D01*
X88349000Y-97581900D01*
X88538500Y-97392400D01*
X88538500Y-96398900D01*
X89388500Y-96398900D01*
X89388500Y-97392400D01*
X89578000Y-97581900D01*
X89964276Y-97581900D01*
X90242873Y-97466501D01*
X90456102Y-97253272D01*
X90571500Y-96974675D01*
X90571500Y-96588400D01*
X90382000Y-96398900D01*
X89388500Y-96398900D01*
X88538500Y-96398900D01*
X87545000Y-96398900D01*
X87355500Y-96588400D01*
X87015500Y-96588400D01*
X86826000Y-96398900D01*
X85832500Y-96398900D01*
X84982500Y-96398900D01*
X83989000Y-96398900D01*
X83799500Y-96588400D01*
X83459500Y-96588400D01*
X83459500Y-96524900D01*
X83270000Y-96335400D01*
X82276500Y-96335400D01*
X81426500Y-96335400D01*
X80433000Y-96335400D01*
X80243500Y-96524900D01*
X64028000Y-96524900D01*
X64028000Y-94899129D01*
X64247594Y-94855449D01*
X64247959Y-94855205D01*
X71169881Y-94855205D01*
X71254983Y-95103246D01*
X71865064Y-95212639D01*
X72415017Y-95103246D01*
X72500119Y-94855205D01*
X71835000Y-94190085D01*
X71169881Y-94855205D01*
X64247959Y-94855205D01*
X64653123Y-94584483D01*
X65583142Y-93654464D01*
X70246761Y-93654464D01*
X70356154Y-94204417D01*
X70604195Y-94289519D01*
X71269315Y-93624400D01*
X72400685Y-93624400D01*
X73065805Y-94289519D01*
X73313846Y-94204417D01*
X73423239Y-93594336D01*
X73313846Y-93044383D01*
X73065805Y-92959281D01*
X72400685Y-93624400D01*
X71269315Y-93624400D01*
X70604195Y-92959281D01*
X70356154Y-93044383D01*
X70246761Y-93654464D01*
X65583142Y-93654464D01*
X66762034Y-92475573D01*
X67458960Y-92475573D01*
X67736893Y-92423276D01*
X67783018Y-92393595D01*
X71169881Y-92393595D01*
X71835000Y-93058715D01*
X72069314Y-92824400D01*
X75270307Y-92824400D01*
X75270307Y-94424400D01*
X75322604Y-94702333D01*
X75486862Y-94957598D01*
X75737492Y-95128846D01*
X76035000Y-95189093D01*
X77635000Y-95189093D01*
X77912933Y-95136796D01*
X78168198Y-94972538D01*
X78339446Y-94721908D01*
X78399693Y-94424400D01*
X78399693Y-92824400D01*
X78347396Y-92546467D01*
X78183138Y-92291202D01*
X77932508Y-92119954D01*
X77635000Y-92059707D01*
X76035000Y-92059707D01*
X75757067Y-92112004D01*
X75501802Y-92276262D01*
X75330554Y-92526892D01*
X75270307Y-92824400D01*
X72069314Y-92824400D01*
X72500119Y-92393595D01*
X72415017Y-92145554D01*
X71804936Y-92036161D01*
X71254983Y-92145554D01*
X71169881Y-92393595D01*
X67783018Y-92393595D01*
X67992158Y-92259018D01*
X68163406Y-92008388D01*
X68223653Y-91710880D01*
X68223653Y-90010880D01*
X68171356Y-89732947D01*
X68007098Y-89477682D01*
X67756468Y-89306434D01*
X67458960Y-89246187D01*
X65758960Y-89246187D01*
X65481027Y-89298484D01*
X65225762Y-89462742D01*
X65107354Y-89636038D01*
X64681253Y-89351327D01*
X64068960Y-89229534D01*
X63456667Y-89351327D01*
X62937589Y-89698163D01*
X62798960Y-89905636D01*
X62660331Y-89698163D01*
X62141253Y-89351327D01*
X61528960Y-89229534D01*
X60916667Y-89351327D01*
X60397589Y-89698163D01*
X60050753Y-90217241D01*
X59928960Y-90829534D01*
X51749200Y-90829534D01*
X51749200Y-85535595D01*
X92719881Y-85535595D01*
X93385000Y-86200715D01*
X94050119Y-85535595D01*
X93965017Y-85287554D01*
X93354936Y-85178161D01*
X92804983Y-85287554D01*
X92719881Y-85535595D01*
X51749200Y-85535595D01*
X51749200Y-84441205D01*
X92846881Y-84441205D01*
X92931983Y-84689246D01*
X93542064Y-84798639D01*
X94092017Y-84689246D01*
X94177119Y-84441205D01*
X93512000Y-83776085D01*
X92846881Y-84441205D01*
X51749200Y-84441205D01*
X51749200Y-83240464D01*
X91923761Y-83240464D01*
X92033154Y-83790417D01*
X92281195Y-83875519D01*
X92946315Y-83210400D01*
X94077685Y-83210400D01*
X94516010Y-83648725D01*
X94697208Y-84087257D01*
X95132849Y-84523660D01*
X95702333Y-84760130D01*
X96318961Y-84760668D01*
X96888857Y-84525192D01*
X96972990Y-84441205D01*
X98688881Y-84441205D01*
X98773983Y-84689246D01*
X99384064Y-84798639D01*
X99934017Y-84689246D01*
X100019119Y-84441205D01*
X99354000Y-83776085D01*
X98688881Y-84441205D01*
X96972990Y-84441205D01*
X97325260Y-84089551D01*
X97561730Y-83520067D01*
X97561973Y-83240464D01*
X97765761Y-83240464D01*
X97875154Y-83790417D01*
X98123195Y-83875519D01*
X98788315Y-83210400D01*
X98123195Y-82545281D01*
X97875154Y-82630383D01*
X97765761Y-83240464D01*
X97561973Y-83240464D01*
X97562268Y-82903439D01*
X97326792Y-82333543D01*
X96973463Y-81979595D01*
X98688881Y-81979595D01*
X99354000Y-82644715D01*
X100019119Y-81979595D01*
X99934017Y-81731554D01*
X99323936Y-81622161D01*
X98773983Y-81731554D01*
X98688881Y-81979595D01*
X96973463Y-81979595D01*
X96891151Y-81897140D01*
X96321667Y-81660670D01*
X95705039Y-81660132D01*
X95135143Y-81895608D01*
X94698740Y-82331249D01*
X94515468Y-82772618D01*
X94077685Y-83210400D01*
X92946315Y-83210400D01*
X92281195Y-82545281D01*
X92033154Y-82630383D01*
X91923761Y-83240464D01*
X51749200Y-83240464D01*
X51749200Y-81324340D01*
X55721920Y-81324340D01*
X55721920Y-81785616D01*
X55837319Y-82064213D01*
X56050548Y-82277442D01*
X56329145Y-82392840D01*
X56940420Y-82392840D01*
X57129920Y-82203340D01*
X57129920Y-81134840D01*
X58429920Y-81134840D01*
X58429920Y-82203340D01*
X58619420Y-82392840D01*
X59230695Y-82392840D01*
X59509292Y-82277442D01*
X59722521Y-82064213D01*
X59837920Y-81785616D01*
X59837920Y-81332961D01*
X63920132Y-81332961D01*
X64155608Y-81902857D01*
X64591249Y-82339260D01*
X65160733Y-82575730D01*
X65777361Y-82576268D01*
X66347257Y-82340792D01*
X66431390Y-82256805D01*
X67305281Y-82256805D01*
X67390383Y-82504846D01*
X68000464Y-82614239D01*
X68550417Y-82504846D01*
X68635519Y-82256805D01*
X68358310Y-81979595D01*
X92846881Y-81979595D01*
X93512000Y-82644715D01*
X94177119Y-81979595D01*
X94092017Y-81731554D01*
X93481936Y-81622161D01*
X92931983Y-81731554D01*
X92846881Y-81979595D01*
X68358310Y-81979595D01*
X67970400Y-81591685D01*
X67305281Y-82256805D01*
X66431390Y-82256805D01*
X66783660Y-81905151D01*
X66966932Y-81463782D01*
X67404715Y-81026000D01*
X68536085Y-81026000D01*
X69201205Y-81691119D01*
X69449246Y-81606017D01*
X69532949Y-81139205D01*
X92846881Y-81139205D01*
X92931983Y-81387246D01*
X93542064Y-81496639D01*
X94092017Y-81387246D01*
X94177119Y-81139205D01*
X93512000Y-80474085D01*
X92846881Y-81139205D01*
X69532949Y-81139205D01*
X69558639Y-80995936D01*
X69449246Y-80445983D01*
X69201205Y-80360881D01*
X68536085Y-81026000D01*
X67404715Y-81026000D01*
X66966390Y-80587675D01*
X66785192Y-80149143D01*
X66431863Y-79795195D01*
X67305281Y-79795195D01*
X67970400Y-80460315D01*
X68492250Y-79938464D01*
X91923761Y-79938464D01*
X92033154Y-80488417D01*
X92281195Y-80573519D01*
X92946315Y-79908400D01*
X94077685Y-79908400D01*
X94516010Y-80346725D01*
X94697208Y-80785257D01*
X95132849Y-81221660D01*
X95702333Y-81458130D01*
X96318961Y-81458668D01*
X96888857Y-81223192D01*
X96972990Y-81139205D01*
X98688881Y-81139205D01*
X98773983Y-81387246D01*
X99384064Y-81496639D01*
X99934017Y-81387246D01*
X100019119Y-81139205D01*
X99354000Y-80474085D01*
X98688881Y-81139205D01*
X96972990Y-81139205D01*
X97325260Y-80787551D01*
X97561730Y-80218067D01*
X97561973Y-79938464D01*
X97765761Y-79938464D01*
X97875154Y-80488417D01*
X98123195Y-80573519D01*
X98788315Y-79908400D01*
X98123195Y-79243281D01*
X97875154Y-79328383D01*
X97765761Y-79938464D01*
X97561973Y-79938464D01*
X97562268Y-79601439D01*
X97326792Y-79031543D01*
X96973463Y-78677595D01*
X98688881Y-78677595D01*
X99354000Y-79342715D01*
X100019119Y-78677595D01*
X99934017Y-78429554D01*
X99323936Y-78320161D01*
X98773983Y-78429554D01*
X98688881Y-78677595D01*
X96973463Y-78677595D01*
X96891151Y-78595140D01*
X96321667Y-78358670D01*
X95705039Y-78358132D01*
X95135143Y-78593608D01*
X94698740Y-79029249D01*
X94515468Y-79470618D01*
X94077685Y-79908400D01*
X92946315Y-79908400D01*
X92281195Y-79243281D01*
X92033154Y-79328383D01*
X91923761Y-79938464D01*
X68492250Y-79938464D01*
X68635519Y-79795195D01*
X68550417Y-79547154D01*
X67940336Y-79437761D01*
X67390383Y-79547154D01*
X67305281Y-79795195D01*
X66431863Y-79795195D01*
X66349551Y-79712740D01*
X65780067Y-79476270D01*
X65163439Y-79475732D01*
X64593543Y-79711208D01*
X64157140Y-80146849D01*
X63920670Y-80716333D01*
X63920132Y-81332961D01*
X59837920Y-81332961D01*
X59837920Y-81324340D01*
X59648420Y-81134840D01*
X58429920Y-81134840D01*
X57129920Y-81134840D01*
X55911420Y-81134840D01*
X55721920Y-81324340D01*
X51749200Y-81324340D01*
X51749200Y-79255814D01*
X54450173Y-76554840D01*
X56043671Y-76554840D01*
X56202321Y-76792277D01*
X56251055Y-76824840D01*
X56202321Y-76857403D01*
X55822969Y-77425144D01*
X55689758Y-78094840D01*
X55822969Y-78764536D01*
X56005329Y-79037457D01*
X55837319Y-79205467D01*
X55721920Y-79484064D01*
X55721920Y-79945340D01*
X55911420Y-80134840D01*
X57129920Y-80134840D01*
X57129920Y-79783209D01*
X57439758Y-79844840D01*
X58120082Y-79844840D01*
X58429920Y-79783209D01*
X58429920Y-80134840D01*
X59648420Y-80134840D01*
X59837920Y-79945340D01*
X59837920Y-79484064D01*
X59722521Y-79205467D01*
X59554511Y-79037457D01*
X59736871Y-78764536D01*
X59754164Y-78677595D01*
X92846881Y-78677595D01*
X93512000Y-79342715D01*
X94177119Y-78677595D01*
X94092017Y-78429554D01*
X93481936Y-78320161D01*
X92931983Y-78429554D01*
X92846881Y-78677595D01*
X59754164Y-78677595D01*
X59870082Y-78094840D01*
X59818836Y-77837205D01*
X92846881Y-77837205D01*
X92931983Y-78085246D01*
X93542064Y-78194639D01*
X94092017Y-78085246D01*
X94177119Y-77837205D01*
X93512000Y-77172085D01*
X92846881Y-77837205D01*
X59818836Y-77837205D01*
X59736871Y-77425144D01*
X59357519Y-76857403D01*
X59308785Y-76824840D01*
X59357519Y-76792277D01*
X59372133Y-76770405D01*
X64562081Y-76770405D01*
X64647183Y-77018446D01*
X65257264Y-77127839D01*
X65807217Y-77018446D01*
X65892319Y-76770405D01*
X65758379Y-76636464D01*
X91923761Y-76636464D01*
X92033154Y-77186417D01*
X92281195Y-77271519D01*
X92946315Y-76606400D01*
X94077685Y-76606400D01*
X94516010Y-77044725D01*
X94697208Y-77483257D01*
X95132849Y-77919660D01*
X95702333Y-78156130D01*
X96318961Y-78156668D01*
X96888857Y-77921192D01*
X96972990Y-77837205D01*
X98688881Y-77837205D01*
X98773983Y-78085246D01*
X99384064Y-78194639D01*
X99934017Y-78085246D01*
X100019119Y-77837205D01*
X99354000Y-77172085D01*
X98688881Y-77837205D01*
X96972990Y-77837205D01*
X97325260Y-77485551D01*
X97561730Y-76916067D01*
X97561973Y-76636464D01*
X97765761Y-76636464D01*
X97875154Y-77186417D01*
X98123195Y-77271519D01*
X98788315Y-76606400D01*
X98123195Y-75941281D01*
X97875154Y-76026383D01*
X97765761Y-76636464D01*
X97561973Y-76636464D01*
X97562268Y-76299439D01*
X97326792Y-75729543D01*
X96973463Y-75375595D01*
X98688881Y-75375595D01*
X99354000Y-76040715D01*
X100019119Y-75375595D01*
X99934017Y-75127554D01*
X99323936Y-75018161D01*
X98773983Y-75127554D01*
X98688881Y-75375595D01*
X96973463Y-75375595D01*
X96891151Y-75293140D01*
X96321667Y-75056670D01*
X95705039Y-75056132D01*
X95135143Y-75291608D01*
X94698740Y-75727249D01*
X94515468Y-76168618D01*
X94077685Y-76606400D01*
X92946315Y-76606400D01*
X92281195Y-75941281D01*
X92033154Y-76026383D01*
X91923761Y-76636464D01*
X65758379Y-76636464D01*
X65227200Y-76105285D01*
X64562081Y-76770405D01*
X59372133Y-76770405D01*
X59736871Y-76224536D01*
X59867133Y-75569664D01*
X63638961Y-75569664D01*
X63748354Y-76119617D01*
X63996395Y-76204719D01*
X64661515Y-75539600D01*
X65792885Y-75539600D01*
X66458005Y-76204719D01*
X66706046Y-76119617D01*
X66815439Y-75509536D01*
X66788797Y-75375595D01*
X92846881Y-75375595D01*
X93512000Y-76040715D01*
X94177119Y-75375595D01*
X94092017Y-75127554D01*
X93481936Y-75018161D01*
X92931983Y-75127554D01*
X92846881Y-75375595D01*
X66788797Y-75375595D01*
X66706046Y-74959583D01*
X66458005Y-74874481D01*
X65792885Y-75539600D01*
X64661515Y-75539600D01*
X63996395Y-74874481D01*
X63748354Y-74959583D01*
X63638961Y-75569664D01*
X59867133Y-75569664D01*
X59870082Y-75554840D01*
X59736871Y-74885144D01*
X59357519Y-74317403D01*
X59308785Y-74284840D01*
X59357519Y-74252277D01*
X59736871Y-73684536D01*
X59870082Y-73014840D01*
X59736871Y-72345144D01*
X59357519Y-71777403D01*
X59308785Y-71744840D01*
X59357519Y-71712277D01*
X59736871Y-71144536D01*
X59870082Y-70474840D01*
X59736871Y-69805144D01*
X59357519Y-69237403D01*
X59308785Y-69204840D01*
X59357519Y-69172277D01*
X59736871Y-68604536D01*
X59870082Y-67934840D01*
X59736871Y-67265144D01*
X59357519Y-66697403D01*
X58789778Y-66318051D01*
X58120082Y-66184840D01*
X57439758Y-66184840D01*
X56770062Y-66318051D01*
X56321200Y-66617971D01*
X56321200Y-64245165D01*
X56332234Y-64247360D01*
X56392966Y-64247360D01*
X56986125Y-64129373D01*
X57488982Y-63793376D01*
X57824979Y-63290519D01*
X57881907Y-63004321D01*
X62432332Y-63004321D01*
X62667808Y-63574217D01*
X62859600Y-63766344D01*
X62859600Y-71922000D01*
X62943769Y-72345144D01*
X62954751Y-72400354D01*
X63225717Y-72805883D01*
X63677010Y-73257176D01*
X63676932Y-73346561D01*
X63912408Y-73916457D01*
X64348049Y-74352860D01*
X64789418Y-74536132D01*
X65227200Y-74973915D01*
X65665525Y-74535590D01*
X66104057Y-74354392D01*
X66540460Y-73918751D01*
X66776930Y-73349267D01*
X66777468Y-72732639D01*
X66541992Y-72162743D01*
X66106351Y-71726340D01*
X65536867Y-71489870D01*
X65445156Y-71489790D01*
X65359600Y-71404234D01*
X65359600Y-63486205D01*
X91068881Y-63486205D01*
X91153983Y-63734246D01*
X91764064Y-63843639D01*
X92314017Y-63734246D01*
X92399119Y-63486205D01*
X91734000Y-62821085D01*
X91068881Y-63486205D01*
X65359600Y-63486205D01*
X65359600Y-63423008D01*
X65532330Y-63007027D01*
X65532868Y-62390399D01*
X65489510Y-62285464D01*
X90145761Y-62285464D01*
X90255154Y-62835417D01*
X90503195Y-62920519D01*
X91168315Y-62255400D01*
X92299685Y-62255400D01*
X92738010Y-62693725D01*
X92919208Y-63132257D01*
X93354849Y-63568660D01*
X93924333Y-63805130D01*
X94540961Y-63805668D01*
X94699393Y-63740205D01*
X98688881Y-63740205D01*
X98773983Y-63988246D01*
X99384064Y-64097639D01*
X99934017Y-63988246D01*
X100019119Y-63740205D01*
X99354000Y-63075085D01*
X98688881Y-63740205D01*
X94699393Y-63740205D01*
X95110857Y-63570192D01*
X95547260Y-63134551D01*
X95783730Y-62565067D01*
X95783752Y-62539464D01*
X97765761Y-62539464D01*
X97875154Y-63089417D01*
X98123195Y-63174519D01*
X98788315Y-62509400D01*
X98123195Y-61844281D01*
X97875154Y-61929383D01*
X97765761Y-62539464D01*
X95783752Y-62539464D01*
X95784268Y-61948439D01*
X95548792Y-61378543D01*
X95449019Y-61278595D01*
X98688881Y-61278595D01*
X99354000Y-61943715D01*
X100019119Y-61278595D01*
X99934017Y-61030554D01*
X99323936Y-60921161D01*
X98773983Y-61030554D01*
X98688881Y-61278595D01*
X95449019Y-61278595D01*
X95113151Y-60942140D01*
X94543667Y-60705670D01*
X93927039Y-60705132D01*
X93357143Y-60940608D01*
X92920740Y-61376249D01*
X92737468Y-61817618D01*
X92299685Y-62255400D01*
X91168315Y-62255400D01*
X90503195Y-61590281D01*
X90255154Y-61675383D01*
X90145761Y-62285464D01*
X65489510Y-62285464D01*
X65297392Y-61820503D01*
X64861751Y-61384100D01*
X64292267Y-61147630D01*
X63675639Y-61147092D01*
X63105743Y-61382568D01*
X62669340Y-61818209D01*
X62432870Y-62387693D01*
X62432332Y-63004321D01*
X57881907Y-63004321D01*
X57942966Y-62697360D01*
X57824979Y-62104201D01*
X57488982Y-61601344D01*
X56986125Y-61265347D01*
X56392966Y-61147360D01*
X56332234Y-61147360D01*
X55739075Y-61265347D01*
X55371240Y-61511126D01*
X55371240Y-61024595D01*
X91068881Y-61024595D01*
X91734000Y-61689715D01*
X92399119Y-61024595D01*
X92314017Y-60776554D01*
X91703936Y-60667161D01*
X91153983Y-60776554D01*
X91068881Y-61024595D01*
X55371240Y-61024595D01*
X55371240Y-60586674D01*
X55739075Y-60832453D01*
X56332234Y-60950440D01*
X56392966Y-60950440D01*
X56986125Y-60832453D01*
X57488982Y-60496456D01*
X57824979Y-59993599D01*
X57881907Y-59707401D01*
X62432332Y-59707401D01*
X62667808Y-60277297D01*
X63103449Y-60713700D01*
X63672933Y-60950170D01*
X64289561Y-60950708D01*
X64859457Y-60715232D01*
X65136968Y-60438205D01*
X98688881Y-60438205D01*
X98773983Y-60686246D01*
X99384064Y-60795639D01*
X99934017Y-60686246D01*
X100019119Y-60438205D01*
X99354000Y-59773085D01*
X98688881Y-60438205D01*
X65136968Y-60438205D01*
X65295860Y-60279591D01*
X65388202Y-60057205D01*
X90941881Y-60057205D01*
X91026983Y-60305246D01*
X91637064Y-60414639D01*
X92187017Y-60305246D01*
X92272119Y-60057205D01*
X91607000Y-59392085D01*
X90941881Y-60057205D01*
X65388202Y-60057205D01*
X65532330Y-59710107D01*
X65532868Y-59093479D01*
X65434936Y-58856464D01*
X90018761Y-58856464D01*
X90128154Y-59406417D01*
X90376195Y-59491519D01*
X91041315Y-58826400D01*
X92172685Y-58826400D01*
X92611010Y-59264725D01*
X92792208Y-59703257D01*
X93227849Y-60139660D01*
X93797333Y-60376130D01*
X94413961Y-60376668D01*
X94983857Y-60141192D01*
X95420260Y-59705551D01*
X95614626Y-59237464D01*
X97765761Y-59237464D01*
X97875154Y-59787417D01*
X98123195Y-59872519D01*
X98788315Y-59207400D01*
X99919685Y-59207400D01*
X100358010Y-59645725D01*
X100539208Y-60084257D01*
X100974849Y-60520660D01*
X101544333Y-60757130D01*
X102160961Y-60757668D01*
X102730857Y-60522192D01*
X103167260Y-60086551D01*
X103403730Y-59517067D01*
X103404268Y-58900439D01*
X103168792Y-58330543D01*
X102733151Y-57894140D01*
X102163667Y-57657670D01*
X101547039Y-57657132D01*
X100977143Y-57892608D01*
X100540740Y-58328249D01*
X100357468Y-58769618D01*
X99919685Y-59207400D01*
X98788315Y-59207400D01*
X98123195Y-58542281D01*
X97875154Y-58627383D01*
X97765761Y-59237464D01*
X95614626Y-59237464D01*
X95656730Y-59136067D01*
X95657268Y-58519439D01*
X95432970Y-57976595D01*
X98688881Y-57976595D01*
X99354000Y-58641715D01*
X100019119Y-57976595D01*
X99934017Y-57728554D01*
X99323936Y-57619161D01*
X98773983Y-57728554D01*
X98688881Y-57976595D01*
X95432970Y-57976595D01*
X95421792Y-57949543D01*
X94986151Y-57513140D01*
X94416667Y-57276670D01*
X93800039Y-57276132D01*
X93230143Y-57511608D01*
X92793740Y-57947249D01*
X92610468Y-58388618D01*
X92172685Y-58826400D01*
X91041315Y-58826400D01*
X90376195Y-58161281D01*
X90128154Y-58246383D01*
X90018761Y-58856464D01*
X65434936Y-58856464D01*
X65297392Y-58523583D01*
X65256224Y-58482343D01*
X66142972Y-57595595D01*
X90941881Y-57595595D01*
X91607000Y-58260715D01*
X92272119Y-57595595D01*
X92187017Y-57347554D01*
X91576936Y-57238161D01*
X91026983Y-57347554D01*
X90941881Y-57595595D01*
X66142972Y-57595595D01*
X66983362Y-56755205D01*
X91195881Y-56755205D01*
X91280983Y-57003246D01*
X91891064Y-57112639D01*
X92441017Y-57003246D01*
X92526119Y-56755205D01*
X91861000Y-56090085D01*
X91195881Y-56755205D01*
X66983362Y-56755205D01*
X67228683Y-56509884D01*
X67235109Y-56500267D01*
X67244605Y-56493669D01*
X67370349Y-56297866D01*
X67499649Y-56104354D01*
X67501905Y-56093011D01*
X67508154Y-56083281D01*
X67549401Y-55854232D01*
X67594799Y-55626000D01*
X67592741Y-55615655D01*
X67652598Y-55577138D01*
X67732768Y-55459805D01*
X70654281Y-55459805D01*
X70739383Y-55707846D01*
X71349464Y-55817239D01*
X71899417Y-55707846D01*
X71952041Y-55554464D01*
X90272761Y-55554464D01*
X90382154Y-56104417D01*
X90630195Y-56189519D01*
X91295315Y-55524400D01*
X92426685Y-55524400D01*
X92865010Y-55962725D01*
X93046208Y-56401257D01*
X93481849Y-56837660D01*
X94051333Y-57074130D01*
X94667961Y-57074668D01*
X94826393Y-57009205D01*
X98688881Y-57009205D01*
X98773983Y-57257246D01*
X99384064Y-57366639D01*
X99934017Y-57257246D01*
X100019119Y-57009205D01*
X99354000Y-56344085D01*
X98688881Y-57009205D01*
X94826393Y-57009205D01*
X95237857Y-56839192D01*
X95674260Y-56403551D01*
X95910730Y-55834067D01*
X95910752Y-55808464D01*
X97765761Y-55808464D01*
X97875154Y-56358417D01*
X98123195Y-56443519D01*
X98788315Y-55778400D01*
X99919685Y-55778400D01*
X100358010Y-56216725D01*
X100539208Y-56655257D01*
X100974849Y-57091660D01*
X101544333Y-57328130D01*
X102160961Y-57328668D01*
X102730857Y-57093192D01*
X103167260Y-56657551D01*
X103403730Y-56088067D01*
X103404268Y-55471439D01*
X103168792Y-54901543D01*
X102733151Y-54465140D01*
X102163667Y-54228670D01*
X101547039Y-54228132D01*
X100977143Y-54463608D01*
X100540740Y-54899249D01*
X100357468Y-55340618D01*
X99919685Y-55778400D01*
X98788315Y-55778400D01*
X98123195Y-55113281D01*
X97875154Y-55198383D01*
X97765761Y-55808464D01*
X95910752Y-55808464D01*
X95911268Y-55217439D01*
X95675792Y-54647543D01*
X95576019Y-54547595D01*
X98688881Y-54547595D01*
X99354000Y-55212715D01*
X100019119Y-54547595D01*
X99934017Y-54299554D01*
X99323936Y-54190161D01*
X98773983Y-54299554D01*
X98688881Y-54547595D01*
X95576019Y-54547595D01*
X95240151Y-54211140D01*
X94670667Y-53974670D01*
X94054039Y-53974132D01*
X93484143Y-54209608D01*
X93047740Y-54645249D01*
X92864468Y-55086618D01*
X92426685Y-55524400D01*
X91295315Y-55524400D01*
X90630195Y-54859281D01*
X90382154Y-54944383D01*
X90272761Y-55554464D01*
X71952041Y-55554464D01*
X71984519Y-55459805D01*
X71319400Y-54794685D01*
X70654281Y-55459805D01*
X67732768Y-55459805D01*
X67823846Y-55326508D01*
X67884093Y-55029000D01*
X67884093Y-54259064D01*
X69731161Y-54259064D01*
X69840554Y-54809017D01*
X70088595Y-54894119D01*
X70753715Y-54229000D01*
X71885085Y-54229000D01*
X72550205Y-54894119D01*
X72798246Y-54809017D01*
X72890665Y-54293595D01*
X91195881Y-54293595D01*
X91861000Y-54958715D01*
X92526119Y-54293595D01*
X92441017Y-54045554D01*
X91830936Y-53936161D01*
X91280983Y-54045554D01*
X91195881Y-54293595D01*
X72890665Y-54293595D01*
X72907639Y-54198936D01*
X72798246Y-53648983D01*
X72550205Y-53563881D01*
X71885085Y-54229000D01*
X70753715Y-54229000D01*
X70088595Y-53563881D01*
X69840554Y-53648983D01*
X69731161Y-54259064D01*
X67884093Y-54259064D01*
X67884093Y-53429000D01*
X67831796Y-53151067D01*
X67733426Y-52998195D01*
X70654281Y-52998195D01*
X71319400Y-53663315D01*
X71783509Y-53199205D01*
X91068881Y-53199205D01*
X91153983Y-53447246D01*
X91764064Y-53556639D01*
X92314017Y-53447246D01*
X92399119Y-53199205D01*
X91734000Y-52534085D01*
X91068881Y-53199205D01*
X71783509Y-53199205D01*
X71984519Y-52998195D01*
X71899417Y-52750154D01*
X71289336Y-52640761D01*
X70739383Y-52750154D01*
X70654281Y-52998195D01*
X67733426Y-52998195D01*
X67667538Y-52895802D01*
X67416908Y-52724554D01*
X67119400Y-52664307D01*
X65519400Y-52664307D01*
X65241467Y-52716604D01*
X64986202Y-52880862D01*
X64814954Y-53131492D01*
X64754707Y-53429000D01*
X64754707Y-55029000D01*
X64807004Y-55306933D01*
X64841888Y-55361145D01*
X63098717Y-57104317D01*
X62827751Y-57509846D01*
X62732600Y-57988200D01*
X62732600Y-58458139D01*
X62669340Y-58521289D01*
X62432870Y-59090773D01*
X62432332Y-59707401D01*
X57881907Y-59707401D01*
X57942966Y-59400440D01*
X57824979Y-58807281D01*
X57488982Y-58304424D01*
X56986125Y-57968427D01*
X56392966Y-57850440D01*
X56332234Y-57850440D01*
X55739075Y-57968427D01*
X55236218Y-58304424D01*
X55172062Y-58400440D01*
X54315360Y-58400440D01*
X53932676Y-58476560D01*
X53608253Y-58693333D01*
X53391480Y-59017756D01*
X53315360Y-59400440D01*
X53371240Y-59681370D01*
X53371240Y-73761600D01*
X53447360Y-74144284D01*
X53664133Y-74468707D01*
X53797665Y-74602239D01*
X53653276Y-74630960D01*
X53518434Y-74721059D01*
X53328853Y-74847733D01*
X53328851Y-74847736D01*
X50457000Y-77719586D01*
X50457000Y-57603200D01*
X51104800Y-57603200D01*
X51164714Y-57585060D01*
X51166336Y-57586103D01*
X51257200Y-57603200D01*
X58064400Y-57603200D01*
X58161664Y-57583504D01*
X58243602Y-57527518D01*
X58297303Y-57444064D01*
X58314400Y-57353200D01*
X58314400Y-51998464D01*
X90145761Y-51998464D01*
X90255154Y-52548417D01*
X90503195Y-52633519D01*
X91168315Y-51968400D01*
X92299685Y-51968400D01*
X92738010Y-52406725D01*
X92919208Y-52845257D01*
X93354849Y-53281660D01*
X93924333Y-53518130D01*
X94540961Y-53518668D01*
X95006757Y-53326205D01*
X98561881Y-53326205D01*
X98646983Y-53574246D01*
X99257064Y-53683639D01*
X99807017Y-53574246D01*
X99892119Y-53326205D01*
X99227000Y-52661085D01*
X98561881Y-53326205D01*
X95006757Y-53326205D01*
X95110857Y-53283192D01*
X95547260Y-52847551D01*
X95783730Y-52278067D01*
X95783863Y-52125464D01*
X97638761Y-52125464D01*
X97748154Y-52675417D01*
X97996195Y-52760519D01*
X98661315Y-52095400D01*
X99792685Y-52095400D01*
X100231010Y-52533725D01*
X100412208Y-52972257D01*
X100847849Y-53408660D01*
X101417333Y-53645130D01*
X102033961Y-53645668D01*
X102603857Y-53410192D01*
X103040260Y-52974551D01*
X103276730Y-52405067D01*
X103277268Y-51788439D01*
X103041792Y-51218543D01*
X102606151Y-50782140D01*
X102036667Y-50545670D01*
X101420039Y-50545132D01*
X100850143Y-50780608D01*
X100413740Y-51216249D01*
X100230468Y-51657618D01*
X99792685Y-52095400D01*
X98661315Y-52095400D01*
X97996195Y-51430281D01*
X97748154Y-51515383D01*
X97638761Y-52125464D01*
X95783863Y-52125464D01*
X95784268Y-51661439D01*
X95548792Y-51091543D01*
X95322241Y-50864595D01*
X98561881Y-50864595D01*
X99227000Y-51529715D01*
X99892119Y-50864595D01*
X99807017Y-50616554D01*
X99196936Y-50507161D01*
X98646983Y-50616554D01*
X98561881Y-50864595D01*
X95322241Y-50864595D01*
X95113151Y-50655140D01*
X94543667Y-50418670D01*
X93927039Y-50418132D01*
X93357143Y-50653608D01*
X92920740Y-51089249D01*
X92737468Y-51530618D01*
X92299685Y-51968400D01*
X91168315Y-51968400D01*
X90503195Y-51303281D01*
X90255154Y-51388383D01*
X90145761Y-51998464D01*
X58314400Y-51998464D01*
X58314400Y-50737595D01*
X91068881Y-50737595D01*
X91734000Y-51402715D01*
X92399119Y-50737595D01*
X92314017Y-50489554D01*
X91703936Y-50380161D01*
X91153983Y-50489554D01*
X91068881Y-50737595D01*
X58314400Y-50737595D01*
X58314400Y-50288000D01*
X103838976Y-50288000D01*
X103824422Y-66570194D01*
X103824422Y-66570194D01*
G37*
X103824422Y-66570194D02*
X103099672Y-65845444D01*
X103134760Y-65669046D01*
X103134760Y-65608314D01*
X103016773Y-65015155D01*
X102680776Y-64512298D01*
X102177919Y-64176301D01*
X101589058Y-64059169D01*
X102160961Y-64059668D01*
X102730857Y-63824192D01*
X103167260Y-63388551D01*
X103403730Y-62819067D01*
X103404268Y-62202439D01*
X103168792Y-61632543D01*
X102733151Y-61196140D01*
X102163667Y-60959670D01*
X101547039Y-60959132D01*
X100977143Y-61194608D01*
X100540740Y-61630249D01*
X100357468Y-62071618D01*
X99919685Y-62509400D01*
X100358010Y-62947725D01*
X100539208Y-63386257D01*
X100974849Y-63822660D01*
X101544333Y-64059130D01*
X101580499Y-64059162D01*
X100991601Y-64176301D01*
X100488744Y-64512298D01*
X100314760Y-64772684D01*
X100140776Y-64512298D01*
X99637919Y-64176301D01*
X99044760Y-64058314D01*
X98451601Y-64176301D01*
X97948744Y-64512298D01*
X97774760Y-64772684D01*
X97600776Y-64512298D01*
X97097919Y-64176301D01*
X96504760Y-64058314D01*
X95911601Y-64176301D01*
X95408744Y-64512298D01*
X95234760Y-64772684D01*
X95060776Y-64512298D01*
X94557919Y-64176301D01*
X93964760Y-64058314D01*
X93371601Y-64176301D01*
X92868744Y-64512298D01*
X92694760Y-64772684D01*
X92520776Y-64512298D01*
X92017919Y-64176301D01*
X91424760Y-64058314D01*
X90831601Y-64176301D01*
X90328744Y-64512298D01*
X90154760Y-64772684D01*
X89980776Y-64512298D01*
X89477919Y-64176301D01*
X88884760Y-64058314D01*
X88291601Y-64176301D01*
X87788744Y-64512298D01*
X87614760Y-64772684D01*
X87440776Y-64512298D01*
X86937919Y-64176301D01*
X86344760Y-64058314D01*
X85751601Y-64176301D01*
X85248744Y-64512298D01*
X85074760Y-64772684D01*
X84900776Y-64512298D01*
X84397919Y-64176301D01*
X83804760Y-64058314D01*
X83211601Y-64176301D01*
X82708744Y-64512298D01*
X82534760Y-64772684D01*
X82360776Y-64512298D01*
X81857919Y-64176301D01*
X81264760Y-64058314D01*
X80671601Y-64176301D01*
X80168744Y-64512298D01*
X79994760Y-64772684D01*
X79820776Y-64512298D01*
X79317919Y-64176301D01*
X78724760Y-64058314D01*
X78131601Y-64176301D01*
X77628744Y-64512298D01*
X77454760Y-64772684D01*
X77280776Y-64512298D01*
X76777919Y-64176301D01*
X76184760Y-64058314D01*
X75591601Y-64176301D01*
X75088744Y-64512298D01*
X74914760Y-64772684D01*
X74740776Y-64512298D01*
X74237919Y-64176301D01*
X73644760Y-64058314D01*
X73051601Y-64176301D01*
X72548744Y-64512298D01*
X72374760Y-64772684D01*
X72200776Y-64512298D01*
X71697919Y-64176301D01*
X71104760Y-64058314D01*
X70511601Y-64176301D01*
X70008744Y-64512298D01*
X69834760Y-64772684D01*
X69660776Y-64512298D01*
X69157919Y-64176301D01*
X68564760Y-64058314D01*
X67971601Y-64176301D01*
X67468744Y-64512298D01*
X67132747Y-65015155D01*
X67014760Y-65608314D01*
X67014760Y-65669046D01*
X67132747Y-66262205D01*
X67468744Y-66765062D01*
X67971601Y-67101059D01*
X68564760Y-67219046D01*
X69157919Y-67101059D01*
X69660776Y-66765062D01*
X69834760Y-66504676D01*
X70008744Y-66765062D01*
X70511601Y-67101059D01*
X71104760Y-67219046D01*
X71697919Y-67101059D01*
X72200776Y-66765062D01*
X72374760Y-66504676D01*
X72548744Y-66765062D01*
X73051601Y-67101059D01*
X73644760Y-67219046D01*
X74237919Y-67101059D01*
X74740776Y-66765062D01*
X74914760Y-66504676D01*
X75088744Y-66765062D01*
X75591601Y-67101059D01*
X76184760Y-67219046D01*
X76777919Y-67101059D01*
X77280776Y-66765062D01*
X77454760Y-66504676D01*
X77628744Y-66765062D01*
X78131601Y-67101059D01*
X78724760Y-67219046D01*
X79317919Y-67101059D01*
X79820776Y-66765062D01*
X79994760Y-66504676D01*
X80168744Y-66765062D01*
X80671601Y-67101059D01*
X81264760Y-67219046D01*
X81857919Y-67101059D01*
X82360776Y-66765062D01*
X82534760Y-66504676D01*
X82708744Y-66765062D01*
X83211601Y-67101059D01*
X83804760Y-67219046D01*
X84397919Y-67101059D01*
X84900776Y-66765062D01*
X85074760Y-66504676D01*
X85248744Y-66765062D01*
X85751601Y-67101059D01*
X86344760Y-67219046D01*
X86937919Y-67101059D01*
X87440776Y-66765062D01*
X87614760Y-66504676D01*
X87788744Y-66765062D01*
X88291601Y-67101059D01*
X88884760Y-67219046D01*
X89477919Y-67101059D01*
X89980776Y-66765062D01*
X90154760Y-66504676D01*
X90328744Y-66765062D01*
X90831601Y-67101059D01*
X91362817Y-67206725D01*
X91354400Y-67249040D01*
X91354400Y-68267386D01*
X88177653Y-71444133D01*
X87960880Y-71768556D01*
X87903823Y-72055405D01*
X87788744Y-72132298D01*
X87614760Y-72392684D01*
X87440776Y-72132298D01*
X86937919Y-71796301D01*
X86344760Y-71678314D01*
X85751601Y-71796301D01*
X85248744Y-72132298D01*
X85074760Y-72392684D01*
X84900776Y-72132298D01*
X84397919Y-71796301D01*
X83804760Y-71678314D01*
X83211601Y-71796301D01*
X82708744Y-72132298D01*
X82534760Y-72392684D01*
X82360776Y-72132298D01*
X81857919Y-71796301D01*
X81264760Y-71678314D01*
X80671601Y-71796301D01*
X80168744Y-72132298D01*
X79994760Y-72392684D01*
X79820776Y-72132298D01*
X79317919Y-71796301D01*
X78724760Y-71678314D01*
X78131601Y-71796301D01*
X77628744Y-72132298D01*
X77454760Y-72392684D01*
X77280776Y-72132298D01*
X76777919Y-71796301D01*
X76184760Y-71678314D01*
X75591601Y-71796301D01*
X75088744Y-72132298D01*
X74914760Y-72392684D01*
X74740776Y-72132298D01*
X74237919Y-71796301D01*
X73644760Y-71678314D01*
X73051601Y-71796301D01*
X72548744Y-72132298D01*
X72374760Y-72392684D01*
X72200776Y-72132298D01*
X71697919Y-71796301D01*
X71104760Y-71678314D01*
X70511601Y-71796301D01*
X70034784Y-72114899D01*
X69912898Y-71925482D01*
X69662268Y-71754234D01*
X69364760Y-71693987D01*
X67764760Y-71693987D01*
X67486827Y-71746284D01*
X67231562Y-71910542D01*
X67060314Y-72161172D01*
X67000067Y-72458680D01*
X67000067Y-74058680D01*
X67052364Y-74336613D01*
X67216622Y-74591878D01*
X67467252Y-74763126D01*
X67764760Y-74823373D01*
X69364760Y-74823373D01*
X69642693Y-74771076D01*
X69897958Y-74606818D01*
X70036710Y-74403748D01*
X70511601Y-74721059D01*
X71104760Y-74839046D01*
X71697919Y-74721059D01*
X72200776Y-74385062D01*
X72374760Y-74124676D01*
X72548744Y-74385062D01*
X73051601Y-74721059D01*
X73644760Y-74839046D01*
X74237919Y-74721059D01*
X74740776Y-74385062D01*
X74914760Y-74124676D01*
X75088744Y-74385062D01*
X75591601Y-74721059D01*
X76184760Y-74839046D01*
X76777919Y-74721059D01*
X77280776Y-74385062D01*
X77454760Y-74124676D01*
X77628744Y-74385062D01*
X78131601Y-74721059D01*
X78724760Y-74839046D01*
X79317919Y-74721059D01*
X79820776Y-74385062D01*
X79994760Y-74124676D01*
X80168744Y-74385062D01*
X80671601Y-74721059D01*
X81264760Y-74839046D01*
X81857919Y-74721059D01*
X82360776Y-74385062D01*
X82534760Y-74124676D01*
X82708744Y-74385062D01*
X83211601Y-74721059D01*
X83804760Y-74839046D01*
X84397919Y-74721059D01*
X84900776Y-74385062D01*
X85074760Y-74124676D01*
X85248744Y-74385062D01*
X85751601Y-74721059D01*
X86344760Y-74839046D01*
X86937919Y-74721059D01*
X87440776Y-74385062D01*
X87614760Y-74124676D01*
X87788744Y-74385062D01*
X88291601Y-74721059D01*
X88884760Y-74839046D01*
X89477919Y-74721059D01*
X89866760Y-74461245D01*
X89866760Y-74508682D01*
X90532699Y-74508682D01*
X90794129Y-74683345D01*
X91024760Y-74567417D01*
X91024760Y-73658680D01*
X90624760Y-73658680D01*
X90624760Y-72858680D01*
X91024760Y-72858680D01*
X91024760Y-71949943D01*
X90794129Y-71834015D01*
X90532699Y-72008678D01*
X90441536Y-72008678D01*
X93061507Y-69388707D01*
X93278280Y-69064284D01*
X93354400Y-68681600D01*
X93354400Y-67663254D01*
X93826174Y-67191480D01*
X93964760Y-67219046D01*
X94557919Y-67101059D01*
X95060776Y-66765062D01*
X95234760Y-66504676D01*
X95408744Y-66765062D01*
X95911601Y-67101059D01*
X96504760Y-67219046D01*
X96731814Y-67173882D01*
X98088406Y-68530474D01*
X98388497Y-68730989D01*
X98742480Y-68801400D01*
X100048852Y-68801400D01*
X102307000Y-71059548D01*
X102307000Y-71882550D01*
X102177919Y-71796301D01*
X101584760Y-71678314D01*
X100991601Y-71796301D01*
X100488744Y-72132298D01*
X100314760Y-72392684D01*
X100140776Y-72132298D01*
X99637919Y-71796301D01*
X99044760Y-71678314D01*
X98451601Y-71796301D01*
X97948744Y-72132298D01*
X97774760Y-72392684D01*
X97600776Y-72132298D01*
X97097919Y-71796301D01*
X96504760Y-71678314D01*
X95911601Y-71796301D01*
X95408744Y-72132298D01*
X95234760Y-72392684D01*
X95060776Y-72132298D01*
X94557919Y-71796301D01*
X93964760Y-71678314D01*
X93371601Y-71796301D01*
X92982760Y-72056115D01*
X92982760Y-72008678D01*
X92316821Y-72008678D01*
X92055391Y-71834015D01*
X91824760Y-71949943D01*
X91824760Y-72858680D01*
X92224760Y-72858680D01*
X92224760Y-73658680D01*
X91824760Y-73658680D01*
X91824760Y-74567417D01*
X92055391Y-74683345D01*
X92316821Y-74508682D01*
X92982760Y-74508682D01*
X92982760Y-74461245D01*
X93371601Y-74721059D01*
X93964760Y-74839046D01*
X94557919Y-74721059D01*
X95060776Y-74385062D01*
X95234760Y-74124676D01*
X95408744Y-74385062D01*
X95911601Y-74721059D01*
X96504760Y-74839046D01*
X97097919Y-74721059D01*
X97600776Y-74385062D01*
X97774760Y-74124676D01*
X97948744Y-74385062D01*
X98451601Y-74721059D01*
X99044760Y-74839046D01*
X99637919Y-74721059D01*
X100140776Y-74385062D01*
X100314760Y-74124676D01*
X100488744Y-74385062D01*
X100991601Y-74721059D01*
X101584760Y-74839046D01*
X102177919Y-74721059D01*
X102307000Y-74634810D01*
X102307000Y-75116187D01*
X102163667Y-75056670D01*
X101547039Y-75056132D01*
X100977143Y-75291608D01*
X100540740Y-75727249D01*
X100357468Y-76168618D01*
X99919685Y-76606400D01*
X100358010Y-77044725D01*
X100539208Y-77483257D01*
X100974849Y-77919660D01*
X101544333Y-78156130D01*
X102160961Y-78156668D01*
X102307000Y-78096326D01*
X102307000Y-78418187D01*
X102163667Y-78358670D01*
X101547039Y-78358132D01*
X100977143Y-78593608D01*
X100540740Y-79029249D01*
X100357468Y-79470618D01*
X99919685Y-79908400D01*
X100358010Y-80346725D01*
X100539208Y-80785257D01*
X100974849Y-81221660D01*
X101544333Y-81458130D01*
X102160961Y-81458668D01*
X102307000Y-81398326D01*
X102307000Y-81720187D01*
X102163667Y-81660670D01*
X101547039Y-81660132D01*
X100977143Y-81895608D01*
X100540740Y-82331249D01*
X100357468Y-82772618D01*
X99919685Y-83210400D01*
X100358010Y-83648725D01*
X100539208Y-84087257D01*
X100974849Y-84523660D01*
X101544333Y-84760130D01*
X102160961Y-84760668D01*
X102307000Y-84700326D01*
X102307000Y-85223452D01*
X102290667Y-85216670D01*
X101674039Y-85216132D01*
X101104143Y-85451608D01*
X100667740Y-85887249D01*
X100484468Y-86328618D01*
X100046685Y-86766400D01*
X100329528Y-87049243D01*
X99827371Y-87551400D01*
X99700315Y-87551400D01*
X99481000Y-87332085D01*
X99261685Y-87551400D01*
X99134629Y-87551400D01*
X98632472Y-87049243D01*
X98915315Y-86766400D01*
X98250195Y-86101281D01*
X98002154Y-86186383D01*
X97938554Y-86541077D01*
X97477323Y-87002307D01*
X98026416Y-87551400D01*
X97237355Y-87551400D01*
X97434730Y-87076067D01*
X97435268Y-86459439D01*
X97199792Y-85889543D01*
X96846463Y-85535595D01*
X98815881Y-85535595D01*
X99481000Y-86200715D01*
X100146119Y-85535595D01*
X100061017Y-85287554D01*
X99450936Y-85178161D01*
X98900983Y-85287554D01*
X98815881Y-85535595D01*
X96846463Y-85535595D01*
X96764151Y-85453140D01*
X96194667Y-85216670D01*
X95578039Y-85216132D01*
X95008143Y-85451608D01*
X94571740Y-85887249D01*
X94388468Y-86328618D01*
X93950685Y-86766400D01*
X94233528Y-87049243D01*
X93731371Y-87551400D01*
X93604315Y-87551400D01*
X93385000Y-87332085D01*
X93165685Y-87551400D01*
X93038629Y-87551400D01*
X92536472Y-87049243D01*
X92819315Y-86766400D01*
X92154195Y-86101281D01*
X91906154Y-86186383D01*
X91842554Y-86541077D01*
X91381323Y-87002307D01*
X91930416Y-87551400D01*
X84832000Y-87551400D01*
X84478017Y-87621811D01*
X84177926Y-87822326D01*
X82977926Y-89022326D01*
X82777411Y-89322417D01*
X82749499Y-89462742D01*
X82739068Y-89515181D01*
X82495139Y-89352193D01*
X81882846Y-89230400D01*
X81820154Y-89230400D01*
X81207861Y-89352193D01*
X80688783Y-89699029D01*
X80341947Y-90218107D01*
X80220154Y-90830400D01*
X80341947Y-91442693D01*
X80688783Y-91961771D01*
X80896256Y-92100400D01*
X80688783Y-92239029D01*
X80341947Y-92758107D01*
X80220154Y-93370400D01*
X80341947Y-93982693D01*
X80601498Y-94371139D01*
X80601498Y-94405633D01*
X80572127Y-94417799D01*
X80358898Y-94631028D01*
X80243500Y-94909625D01*
X80243500Y-95295900D01*
X80433000Y-95485400D01*
X81426500Y-95485400D01*
X81426500Y-95060400D01*
X82276500Y-95060400D01*
X82276500Y-95485400D01*
X83270000Y-95485400D01*
X83459500Y-95295900D01*
X83459500Y-94909625D01*
X83344102Y-94631028D01*
X83130873Y-94417799D01*
X83101502Y-94405633D01*
X83101502Y-94371139D01*
X83361053Y-93982693D01*
X83442297Y-93574251D01*
X83824202Y-93192346D01*
X83776154Y-93433900D01*
X83897947Y-94046193D01*
X84157498Y-94434639D01*
X84157498Y-94469133D01*
X84128127Y-94481299D01*
X83914898Y-94694528D01*
X83799500Y-94973125D01*
X83799500Y-95359400D01*
X83989000Y-95548900D01*
X84982500Y-95548900D01*
X84982500Y-95123900D01*
X85832500Y-95123900D01*
X85832500Y-95548900D01*
X86826000Y-95548900D01*
X87015500Y-95359400D01*
X87015500Y-94973125D01*
X86900102Y-94694528D01*
X86686873Y-94481299D01*
X86657502Y-94469133D01*
X86657502Y-94434639D01*
X86857327Y-94135580D01*
X86928574Y-94087974D01*
X87373714Y-93642834D01*
X87453947Y-94046193D01*
X87713498Y-94434639D01*
X87713498Y-94469133D01*
X87684127Y-94481299D01*
X87470898Y-94694528D01*
X87355500Y-94973125D01*
X87355500Y-95359400D01*
X87545000Y-95548900D01*
X88538500Y-95548900D01*
X88538500Y-95123900D01*
X89388500Y-95123900D01*
X89388500Y-95548900D01*
X90382000Y-95548900D01*
X90515539Y-95415361D01*
X91540732Y-95415361D01*
X91776208Y-95985257D01*
X92211849Y-96421660D01*
X92781333Y-96658130D01*
X93397961Y-96658668D01*
X93967857Y-96423192D01*
X94404260Y-95987551D01*
X94640730Y-95418067D01*
X94641268Y-94801439D01*
X94405792Y-94231543D01*
X93970151Y-93795140D01*
X93528782Y-93611868D01*
X93091000Y-93174085D01*
X92652675Y-93612410D01*
X92214143Y-93793608D01*
X91777740Y-94229249D01*
X91541270Y-94798733D01*
X91540732Y-95415361D01*
X90515539Y-95415361D01*
X90571500Y-95359400D01*
X90571500Y-94973125D01*
X90456102Y-94694528D01*
X90242873Y-94481299D01*
X90213502Y-94469133D01*
X90213502Y-94434639D01*
X90473053Y-94046193D01*
X90594846Y-93433900D01*
X90473053Y-92821607D01*
X90441766Y-92774782D01*
X90578084Y-92638464D01*
X91502761Y-92638464D01*
X91612154Y-93188417D01*
X91860195Y-93273519D01*
X92525315Y-92608400D01*
X93656685Y-92608400D01*
X94321805Y-93273519D01*
X94569846Y-93188417D01*
X94679239Y-92578336D01*
X94569846Y-92028383D01*
X94321805Y-91943281D01*
X93656685Y-92608400D01*
X92525315Y-92608400D01*
X91860195Y-91943281D01*
X91612154Y-92028383D01*
X91502761Y-92638464D01*
X90578084Y-92638464D01*
X91815148Y-91401400D01*
X92449686Y-91401400D01*
X93091000Y-92042715D01*
X93732314Y-91401400D01*
X103032000Y-91401400D01*
X103385983Y-91330989D01*
X103686074Y-91130474D01*
X103802573Y-91013975D01*
X103780192Y-116052937D01*
X103558343Y-115870907D01*
X103438532Y-115806882D01*
X103325582Y-115731411D01*
X103280536Y-115722451D01*
X103240026Y-115700803D01*
X103104831Y-115687501D01*
X102971600Y-115661000D01*
X100469170Y-115661000D01*
X100248016Y-115330018D01*
X99745159Y-114994021D01*
X99152000Y-114876034D01*
X98558841Y-114994021D01*
X98055984Y-115330018D01*
X97882000Y-115590404D01*
X97708016Y-115330018D01*
X97205159Y-114994021D01*
X96612000Y-114876034D01*
X96018841Y-114994021D01*
X95515984Y-115330018D01*
X95342000Y-115590404D01*
X95168016Y-115330018D01*
X94665159Y-114994021D01*
X94072000Y-114876034D01*
X93478841Y-114994021D01*
X92975984Y-115330018D01*
X92802000Y-115590404D01*
X92628016Y-115330018D01*
X92125159Y-114994021D01*
X91532000Y-114876034D01*
X90938841Y-114994021D01*
X90435984Y-115330018D01*
X90262000Y-115590404D01*
X90088016Y-115330018D01*
X89585159Y-114994021D01*
X88992000Y-114876034D01*
X88398841Y-114994021D01*
X87895984Y-115330018D01*
X87722000Y-115590404D01*
X87548016Y-115330018D01*
X87045159Y-114994021D01*
X86452000Y-114876034D01*
X85858841Y-114994021D01*
X85355984Y-115330018D01*
X85182000Y-115590404D01*
X85008016Y-115330018D01*
X84505159Y-114994021D01*
X83912000Y-114876034D01*
X83318841Y-114994021D01*
X82815984Y-115330018D01*
X82642000Y-115590404D01*
X82468016Y-115330018D01*
X81965159Y-114994021D01*
X81372000Y-114876034D01*
X80778841Y-114994021D01*
X80275984Y-115330018D01*
X80102000Y-115590404D01*
X79928016Y-115330018D01*
X79425159Y-114994021D01*
X78832000Y-114876034D01*
X78238841Y-114994021D01*
X77735984Y-115330018D01*
X77562000Y-115590404D01*
X77388016Y-115330018D01*
X76885159Y-114994021D01*
X76292000Y-114876034D01*
X75698841Y-114994021D01*
X75195984Y-115330018D01*
X75022000Y-115590404D01*
X74848016Y-115330018D01*
X74345159Y-114994021D01*
X73752000Y-114876034D01*
X73158841Y-114994021D01*
X72655984Y-115330018D01*
X72482000Y-115590404D01*
X72308016Y-115330018D01*
X71805159Y-114994021D01*
X71212000Y-114876034D01*
X70618841Y-114994021D01*
X70115984Y-115330018D01*
X69942000Y-115590404D01*
X69768016Y-115330018D01*
X69265159Y-114994021D01*
X68672000Y-114876034D01*
X68078841Y-114994021D01*
X67575984Y-115330018D01*
X67402000Y-115590404D01*
X67228016Y-115330018D01*
X66725159Y-114994021D01*
X66132000Y-114876034D01*
X65538841Y-114994021D01*
X65035984Y-115330018D01*
X64699987Y-115832875D01*
X64582000Y-116426034D01*
X64582000Y-116486766D01*
X64699987Y-117079925D01*
X65035984Y-117582782D01*
X65538841Y-117918779D01*
X66132000Y-118036766D01*
X66725159Y-117918779D01*
X67228016Y-117582782D01*
X67402000Y-117322396D01*
X67575984Y-117582782D01*
X68078841Y-117918779D01*
X68672000Y-118036766D01*
X69265159Y-117918779D01*
X69768016Y-117582782D01*
X69942000Y-117322396D01*
X70115984Y-117582782D01*
X70618841Y-117918779D01*
X71212000Y-118036766D01*
X71805159Y-117918779D01*
X72308016Y-117582782D01*
X72482000Y-117322396D01*
X72655984Y-117582782D01*
X73158841Y-117918779D01*
X73752000Y-118036766D01*
X74345159Y-117918779D01*
X74848016Y-117582782D01*
X75022000Y-117322396D01*
X75195984Y-117582782D01*
X75698841Y-117918779D01*
X76292000Y-118036766D01*
X76885159Y-117918779D01*
X77388016Y-117582782D01*
X77562000Y-117322396D01*
X77735984Y-117582782D01*
X78238841Y-117918779D01*
X78832000Y-118036766D01*
X79425159Y-117918779D01*
X79928016Y-117582782D01*
X80102000Y-117322396D01*
X80275984Y-117582782D01*
X80778841Y-117918779D01*
X81372000Y-118036766D01*
X81965159Y-117918779D01*
X82468016Y-117582782D01*
X82642000Y-117322396D01*
X82815984Y-117582782D01*
X83318841Y-117918779D01*
X83912000Y-118036766D01*
X84505159Y-117918779D01*
X85008016Y-117582782D01*
X85182000Y-117322396D01*
X85355984Y-117582782D01*
X85858841Y-117918779D01*
X86452000Y-118036766D01*
X87045159Y-117918779D01*
X87548016Y-117582782D01*
X87722000Y-117322396D01*
X87895984Y-117582782D01*
X88398841Y-117918779D01*
X88992000Y-118036766D01*
X89119200Y-118011464D01*
X89119200Y-119219786D01*
X85744893Y-122594093D01*
X85628932Y-122767641D01*
X85355984Y-122950018D01*
X85182000Y-123210404D01*
X85008016Y-122950018D01*
X84505159Y-122614021D01*
X83912000Y-122496034D01*
X83318841Y-122614021D01*
X82815984Y-122950018D01*
X82642000Y-123210404D01*
X82468016Y-122950018D01*
X81965159Y-122614021D01*
X81372000Y-122496034D01*
X80778841Y-122614021D01*
X80275984Y-122950018D01*
X80102000Y-123210404D01*
X79928016Y-122950018D01*
X79425159Y-122614021D01*
X78832000Y-122496034D01*
X78238841Y-122614021D01*
X77735984Y-122950018D01*
X77562000Y-123210404D01*
X77388016Y-122950018D01*
X76885159Y-122614021D01*
X76292000Y-122496034D01*
X75698841Y-122614021D01*
X75195984Y-122950018D01*
X75022000Y-123210404D01*
X74848016Y-122950018D01*
X74345159Y-122614021D01*
X73752000Y-122496034D01*
X73158841Y-122614021D01*
X72655984Y-122950018D01*
X72482000Y-123210404D01*
X72308016Y-122950018D01*
X71805159Y-122614021D01*
X71212000Y-122496034D01*
X70618841Y-122614021D01*
X70115984Y-122950018D01*
X69942000Y-123210404D01*
X69768016Y-122950018D01*
X69265159Y-122614021D01*
X68672000Y-122496034D01*
X68078841Y-122614021D01*
X67602024Y-122932619D01*
X67480138Y-122743202D01*
X67229508Y-122571954D01*
X66932000Y-122511707D01*
X65332000Y-122511707D01*
X65054067Y-122564004D01*
X64798802Y-122728262D01*
X64627554Y-122978892D01*
X64567307Y-123276400D01*
X64567307Y-124876400D01*
X64619604Y-125154333D01*
X64783862Y-125409598D01*
X65034492Y-125580846D01*
X65332000Y-125641093D01*
X66932000Y-125641093D01*
X67209933Y-125588796D01*
X67465198Y-125424538D01*
X67603950Y-125221468D01*
X68078841Y-125538779D01*
X68672000Y-125656766D01*
X69265159Y-125538779D01*
X69768016Y-125202782D01*
X69942000Y-124942396D01*
X70115984Y-125202782D01*
X70618841Y-125538779D01*
X71212000Y-125656766D01*
X71805159Y-125538779D01*
X72308016Y-125202782D01*
X72482000Y-124942396D01*
X72655984Y-125202782D01*
X73158841Y-125538779D01*
X73752000Y-125656766D01*
X74345159Y-125538779D01*
X74848016Y-125202782D01*
X75022000Y-124942396D01*
X75195984Y-125202782D01*
X75698841Y-125538779D01*
X76292000Y-125656766D01*
X76885159Y-125538779D01*
X77388016Y-125202782D01*
X77562000Y-124942396D01*
X77735984Y-125202782D01*
X78238841Y-125538779D01*
X78832000Y-125656766D01*
X79425159Y-125538779D01*
X79928016Y-125202782D01*
X80102000Y-124942396D01*
X80275984Y-125202782D01*
X80778841Y-125538779D01*
X81372000Y-125656766D01*
X81965159Y-125538779D01*
X82468016Y-125202782D01*
X82642000Y-124942396D01*
X82815984Y-125202782D01*
X83318841Y-125538779D01*
X83912000Y-125656766D01*
X84505159Y-125538779D01*
X85008016Y-125202782D01*
X85182000Y-124942396D01*
X85355984Y-125202782D01*
X85858841Y-125538779D01*
X86452000Y-125656766D01*
X87045159Y-125538779D01*
X87434000Y-125278965D01*
X87434000Y-125326402D01*
X88099939Y-125326402D01*
X88361369Y-125501065D01*
X88592000Y-125385137D01*
X88592000Y-124476400D01*
X88192000Y-124476400D01*
X88192000Y-123676400D01*
X88592000Y-123676400D01*
X88592000Y-122767663D01*
X89392000Y-122767663D01*
X89392000Y-123676400D01*
X89792000Y-123676400D01*
X89792000Y-124476400D01*
X89392000Y-124476400D01*
X89392000Y-125385137D01*
X89622631Y-125501065D01*
X89884061Y-125326402D01*
X90550000Y-125326402D01*
X90550000Y-125278965D01*
X90938841Y-125538779D01*
X91532000Y-125656766D01*
X92125159Y-125538779D01*
X92628016Y-125202782D01*
X92802000Y-124942396D01*
X92975984Y-125202782D01*
X93478841Y-125538779D01*
X94072000Y-125656766D01*
X94665159Y-125538779D01*
X95168016Y-125202782D01*
X95342000Y-124942396D01*
X95515984Y-125202782D01*
X96018841Y-125538779D01*
X96612000Y-125656766D01*
X97205159Y-125538779D01*
X97708016Y-125202782D01*
X97882000Y-124942396D01*
X98055984Y-125202782D01*
X98558841Y-125538779D01*
X99152000Y-125656766D01*
X99745159Y-125538779D01*
X100248016Y-125202782D01*
X100584013Y-124699925D01*
X100702000Y-124106766D01*
X100702000Y-124046034D01*
X100584013Y-123452875D01*
X100248016Y-122950018D01*
X99745159Y-122614021D01*
X99152000Y-122496034D01*
X98558841Y-122614021D01*
X98055984Y-122950018D01*
X97882000Y-123210404D01*
X97708016Y-122950018D01*
X97205159Y-122614021D01*
X96612000Y-122496034D01*
X96018841Y-122614021D01*
X95515984Y-122950018D01*
X95342000Y-123210404D01*
X95168016Y-122950018D01*
X94665159Y-122614021D01*
X94072000Y-122496034D01*
X93478841Y-122614021D01*
X92975984Y-122950018D01*
X92802000Y-123210404D01*
X92628016Y-122950018D01*
X92125159Y-122614021D01*
X91532000Y-122496034D01*
X90938841Y-122614021D01*
X90550000Y-122873835D01*
X90550000Y-122826398D01*
X89884061Y-122826398D01*
X89622631Y-122651735D01*
X89392000Y-122767663D01*
X88592000Y-122767663D01*
X88464061Y-122703353D01*
X90826307Y-120341107D01*
X91043080Y-120016684D01*
X91119200Y-119634000D01*
X91119200Y-118283414D01*
X91393414Y-118009200D01*
X91532000Y-118036766D01*
X92125159Y-117918779D01*
X92628016Y-117582782D01*
X92802000Y-117322396D01*
X92975984Y-117582782D01*
X93478841Y-117918779D01*
X94072000Y-118036766D01*
X94453194Y-117960942D01*
X96323124Y-119830871D01*
X96323126Y-119830874D01*
X96411043Y-119889618D01*
X96623218Y-120031389D01*
X96977200Y-120101801D01*
X96977205Y-120101800D01*
X102080452Y-120101800D01*
X102605400Y-120626748D01*
X102605400Y-126294093D01*
X102163667Y-126110670D01*
X101547039Y-126110132D01*
X100977143Y-126345608D01*
X100540740Y-126781249D01*
X100357468Y-127222618D01*
X99919685Y-127660400D01*
X100358010Y-128098725D01*
X100539208Y-128537257D01*
X100974849Y-128973660D01*
X101544333Y-129210130D01*
X102160961Y-129210668D01*
X102605400Y-129027030D01*
X102605400Y-129850093D01*
X102163667Y-129666670D01*
X101547039Y-129666132D01*
X100977143Y-129901608D01*
X100540740Y-130337249D01*
X100357468Y-130778618D01*
X99919685Y-131216400D01*
X100358010Y-131654725D01*
X100539208Y-132093257D01*
X100974849Y-132529660D01*
X101544333Y-132766130D01*
X102160961Y-132766668D01*
X102605400Y-132583030D01*
X102605400Y-133152093D01*
X102163667Y-132968670D01*
X101547039Y-132968132D01*
X100977143Y-133203608D01*
X100540740Y-133639249D01*
X100357468Y-134080618D01*
X99919685Y-134518400D01*
X100358010Y-134956725D01*
X100539208Y-135395257D01*
X100974849Y-135831660D01*
X101544333Y-136068130D01*
X102160961Y-136068668D01*
X102605400Y-135885030D01*
X102605400Y-136331399D01*
X102214467Y-136169070D01*
X101597839Y-136168532D01*
X101027943Y-136404008D01*
X100591540Y-136839649D01*
X100408268Y-137281018D01*
X99970485Y-137718800D01*
X100253328Y-138001643D01*
X99687643Y-138567328D01*
X99404800Y-138284485D01*
X99121957Y-138567328D01*
X98556272Y-138001643D01*
X98839115Y-137718800D01*
X98173995Y-137053681D01*
X97925954Y-137138783D01*
X97862354Y-137493477D01*
X97714512Y-137641318D01*
X97714668Y-137462639D01*
X97479192Y-136892743D01*
X97075151Y-136487995D01*
X98739681Y-136487995D01*
X99404800Y-137153115D01*
X100069919Y-136487995D01*
X99984817Y-136239954D01*
X99374736Y-136130561D01*
X98824783Y-136239954D01*
X98739681Y-136487995D01*
X97075151Y-136487995D01*
X97043551Y-136456340D01*
X96474067Y-136219870D01*
X95857439Y-136219332D01*
X95287543Y-136454808D01*
X94851140Y-136890449D01*
X94667868Y-137331818D01*
X94230085Y-137769600D01*
X94512928Y-138052443D01*
X93947243Y-138618128D01*
X93664400Y-138335285D01*
X93381557Y-138618128D01*
X92815872Y-138052443D01*
X93098715Y-137769600D01*
X92433595Y-137104481D01*
X92185554Y-137189583D01*
X92121954Y-137544277D01*
X91660723Y-138005507D01*
X92287976Y-138632760D01*
X86532032Y-138632760D01*
X85384894Y-137787060D01*
X85283303Y-137739366D01*
X85189982Y-137677011D01*
X85121444Y-137663378D01*
X85058190Y-137633682D01*
X84946076Y-137628495D01*
X84836000Y-137606600D01*
X77876405Y-137606600D01*
X77876400Y-137606599D01*
X77522418Y-137677011D01*
X77222326Y-137877526D01*
X76511126Y-138588726D01*
X76310611Y-138888817D01*
X76281814Y-139033592D01*
X76254041Y-139173216D01*
X76195639Y-139134193D01*
X75583346Y-139012400D01*
X75520654Y-139012400D01*
X74908361Y-139134193D01*
X74389283Y-139481029D01*
X74042447Y-140000107D01*
X73920654Y-140612400D01*
X74042447Y-141224693D01*
X74389283Y-141743771D01*
X74596756Y-141882400D01*
X74389283Y-142021029D01*
X74042447Y-142540107D01*
X73920654Y-143152400D01*
X74042447Y-143764693D01*
X74301998Y-144153139D01*
X74301998Y-144187633D01*
X74272627Y-144199799D01*
X74059398Y-144413028D01*
X73944000Y-144691625D01*
X73944000Y-145077900D01*
X74133500Y-145267400D01*
X75127000Y-145267400D01*
X75127000Y-144842400D01*
X75977000Y-144842400D01*
X75977000Y-145267400D01*
X76970500Y-145267400D01*
X77160000Y-145077900D01*
X77160000Y-144691625D01*
X77044602Y-144413028D01*
X76831373Y-144199799D01*
X76802002Y-144187633D01*
X76802002Y-144153139D01*
X77061553Y-143764693D01*
X77152655Y-143306693D01*
X77324057Y-143135291D01*
X77320654Y-143152400D01*
X77442447Y-143764693D01*
X77701998Y-144153139D01*
X77701998Y-144187633D01*
X77672627Y-144199799D01*
X77459398Y-144413028D01*
X77344000Y-144691625D01*
X77344000Y-145077900D01*
X77533500Y-145267400D01*
X78527000Y-145267400D01*
X78527000Y-144842400D01*
X79377000Y-144842400D01*
X79377000Y-145267400D01*
X80370500Y-145267400D01*
X80560000Y-145077900D01*
X80560000Y-144691625D01*
X80444602Y-144413028D01*
X80231373Y-144199799D01*
X80202002Y-144187633D01*
X80202002Y-144153139D01*
X80461553Y-143764693D01*
X80583346Y-143152400D01*
X80545452Y-142961896D01*
X80867274Y-142640074D01*
X81067789Y-142339982D01*
X81138201Y-141986000D01*
X81138200Y-141985995D01*
X81138200Y-141372991D01*
X81387283Y-141745771D01*
X81594756Y-141884400D01*
X81387283Y-142023029D01*
X81040447Y-142542107D01*
X80918654Y-143154400D01*
X81040447Y-143766693D01*
X81299998Y-144155139D01*
X81299998Y-144189633D01*
X81270627Y-144201799D01*
X81057398Y-144415028D01*
X80942000Y-144693625D01*
X80942000Y-145079900D01*
X81131500Y-145269400D01*
X82125000Y-145269400D01*
X82125000Y-144844400D01*
X82975000Y-144844400D01*
X82975000Y-145269400D01*
X83968500Y-145269400D01*
X84158000Y-145079900D01*
X84158000Y-144693625D01*
X84058937Y-144454464D01*
X89597761Y-144454464D01*
X89707154Y-145004417D01*
X89955195Y-145089519D01*
X90620315Y-144424400D01*
X89955195Y-143759281D01*
X89707154Y-143844383D01*
X89597761Y-144454464D01*
X84058937Y-144454464D01*
X84042602Y-144415028D01*
X83829373Y-144201799D01*
X83800002Y-144189633D01*
X83800002Y-144155139D01*
X83920623Y-143974617D01*
X83996160Y-143924145D01*
X84128081Y-143847222D01*
X86507219Y-141742600D01*
X91736546Y-141742600D01*
X91747037Y-142745853D01*
X91421907Y-142420723D01*
X90969357Y-142873274D01*
X90605983Y-142945554D01*
X90520881Y-143193595D01*
X91186000Y-143858715D01*
X91468843Y-143575872D01*
X91758749Y-143865778D01*
X91764457Y-144411628D01*
X91751685Y-144424400D01*
X91764727Y-144437442D01*
X91770312Y-144971459D01*
X91468843Y-145272928D01*
X91186000Y-144990085D01*
X90747675Y-145428410D01*
X90309143Y-145609608D01*
X89872740Y-146045249D01*
X89636270Y-146614733D01*
X89635732Y-147231361D01*
X89871208Y-147801257D01*
X90306849Y-148237660D01*
X90339939Y-148251400D01*
X58924000Y-148251400D01*
X58924000Y-146306900D01*
X73944000Y-146306900D01*
X73944000Y-146693175D01*
X74059398Y-146971772D01*
X74272627Y-147185001D01*
X74551224Y-147300400D01*
X74937500Y-147300400D01*
X75127000Y-147110900D01*
X75127000Y-146117400D01*
X75977000Y-146117400D01*
X75977000Y-147110900D01*
X76166500Y-147300400D01*
X76552776Y-147300400D01*
X76831373Y-147185001D01*
X77044602Y-146971772D01*
X77160000Y-146693175D01*
X77160000Y-146306900D01*
X77344000Y-146306900D01*
X77344000Y-146693175D01*
X77459398Y-146971772D01*
X77672627Y-147185001D01*
X77951224Y-147300400D01*
X78337500Y-147300400D01*
X78527000Y-147110900D01*
X78527000Y-146117400D01*
X79377000Y-146117400D01*
X79377000Y-147110900D01*
X79566500Y-147300400D01*
X79952776Y-147300400D01*
X80231373Y-147185001D01*
X80444602Y-146971772D01*
X80560000Y-146693175D01*
X80560000Y-146308900D01*
X80942000Y-146308900D01*
X80942000Y-146695175D01*
X81057398Y-146973772D01*
X81270627Y-147187001D01*
X81549224Y-147302400D01*
X81935500Y-147302400D01*
X82125000Y-147112900D01*
X82125000Y-146119400D01*
X82975000Y-146119400D01*
X82975000Y-147112900D01*
X83164500Y-147302400D01*
X83550776Y-147302400D01*
X83829373Y-147187001D01*
X84042602Y-146973772D01*
X84158000Y-146695175D01*
X84158000Y-146308900D01*
X83968500Y-146119400D01*
X82975000Y-146119400D01*
X82125000Y-146119400D01*
X81131500Y-146119400D01*
X80942000Y-146308900D01*
X80560000Y-146308900D01*
X80560000Y-146306900D01*
X80370500Y-146117400D01*
X79377000Y-146117400D01*
X78527000Y-146117400D01*
X77533500Y-146117400D01*
X77344000Y-146306900D01*
X77160000Y-146306900D01*
X76970500Y-146117400D01*
X75977000Y-146117400D01*
X75127000Y-146117400D01*
X74133500Y-146117400D01*
X73944000Y-146306900D01*
X58924000Y-146306900D01*
X58924000Y-143624400D01*
X63713307Y-143624400D01*
X63713307Y-145224400D01*
X63765604Y-145502333D01*
X63929862Y-145757598D01*
X64180492Y-145928846D01*
X64478000Y-145989093D01*
X66078000Y-145989093D01*
X66355933Y-145936796D01*
X66611198Y-145772538D01*
X66691368Y-145655205D01*
X69612881Y-145655205D01*
X69697983Y-145903246D01*
X70308064Y-146012639D01*
X70858017Y-145903246D01*
X70943119Y-145655205D01*
X70278000Y-144990085D01*
X69612881Y-145655205D01*
X66691368Y-145655205D01*
X66782446Y-145521908D01*
X66842693Y-145224400D01*
X66842693Y-144454464D01*
X68689761Y-144454464D01*
X68799154Y-145004417D01*
X69047195Y-145089519D01*
X69712315Y-144424400D01*
X70843685Y-144424400D01*
X71508805Y-145089519D01*
X71756846Y-145004417D01*
X71866239Y-144394336D01*
X71756846Y-143844383D01*
X71508805Y-143759281D01*
X70843685Y-144424400D01*
X69712315Y-144424400D01*
X69047195Y-143759281D01*
X68799154Y-143844383D01*
X68689761Y-144454464D01*
X66842693Y-144454464D01*
X66842693Y-143624400D01*
X66790396Y-143346467D01*
X66692026Y-143193595D01*
X69612881Y-143193595D01*
X70278000Y-143858715D01*
X70943119Y-143193595D01*
X70858017Y-142945554D01*
X70247936Y-142836161D01*
X69697983Y-142945554D01*
X69612881Y-143193595D01*
X66692026Y-143193595D01*
X66626138Y-143091202D01*
X66375508Y-142919954D01*
X66078000Y-142859707D01*
X64478000Y-142859707D01*
X64200067Y-142912004D01*
X63944802Y-143076262D01*
X63773554Y-143326892D01*
X63713307Y-143624400D01*
X58924000Y-143624400D01*
X58924000Y-141884400D01*
X58904304Y-141787136D01*
X58848318Y-141705198D01*
X58764864Y-141651497D01*
X58674000Y-141634400D01*
X50457000Y-141634400D01*
X50457000Y-136265054D01*
X56566000Y-136265054D01*
X56566000Y-136327746D01*
X56687793Y-136940039D01*
X57034629Y-137459117D01*
X57553707Y-137805953D01*
X58166000Y-137927746D01*
X58778293Y-137805953D01*
X59297371Y-137459117D01*
X59436000Y-137251644D01*
X59574629Y-137459117D01*
X60093707Y-137805953D01*
X60706000Y-137927746D01*
X61318293Y-137805953D01*
X61745491Y-137520509D01*
X61847862Y-137679598D01*
X62098492Y-137850846D01*
X62396000Y-137911093D01*
X64096000Y-137911093D01*
X64373933Y-137858796D01*
X64629198Y-137694538D01*
X64800446Y-137443908D01*
X64860693Y-137146400D01*
X64860693Y-136538795D01*
X92999281Y-136538795D01*
X93664400Y-137203915D01*
X94329519Y-136538795D01*
X94244417Y-136290754D01*
X93634336Y-136181361D01*
X93084383Y-136290754D01*
X92999281Y-136538795D01*
X64860693Y-136538795D01*
X64860693Y-135749205D01*
X93100881Y-135749205D01*
X93185983Y-135997246D01*
X93796064Y-136106639D01*
X94346017Y-135997246D01*
X94431119Y-135749205D01*
X93766000Y-135084085D01*
X93100881Y-135749205D01*
X64860693Y-135749205D01*
X64860693Y-135446400D01*
X64808396Y-135168467D01*
X64644138Y-134913202D01*
X64393508Y-134741954D01*
X64096000Y-134681707D01*
X62396000Y-134681707D01*
X62118067Y-134734004D01*
X61862802Y-134898262D01*
X61744394Y-135071558D01*
X61318293Y-134786847D01*
X60706000Y-134665054D01*
X60093707Y-134786847D01*
X59574629Y-135133683D01*
X59436000Y-135341156D01*
X59297371Y-135133683D01*
X58778293Y-134786847D01*
X58166000Y-134665054D01*
X57553707Y-134786847D01*
X57034629Y-135133683D01*
X56687793Y-135652761D01*
X56566000Y-136265054D01*
X50457000Y-136265054D01*
X50457000Y-134548464D01*
X92177761Y-134548464D01*
X92287154Y-135098417D01*
X92535195Y-135183519D01*
X93200315Y-134518400D01*
X94331685Y-134518400D01*
X94770010Y-134956725D01*
X94951208Y-135395257D01*
X95386849Y-135831660D01*
X95956333Y-136068130D01*
X96572961Y-136068668D01*
X97142857Y-135833192D01*
X97226990Y-135749205D01*
X98688881Y-135749205D01*
X98773983Y-135997246D01*
X99384064Y-136106639D01*
X99934017Y-135997246D01*
X100019119Y-135749205D01*
X99354000Y-135084085D01*
X98688881Y-135749205D01*
X97226990Y-135749205D01*
X97579260Y-135397551D01*
X97815730Y-134828067D01*
X97815755Y-134799798D01*
X97875154Y-135098417D01*
X98123195Y-135183519D01*
X98788315Y-134518400D01*
X98123195Y-133853281D01*
X97875154Y-133938383D01*
X97816219Y-134267059D01*
X97816268Y-134211439D01*
X97580792Y-133641543D01*
X97227463Y-133287595D01*
X98688881Y-133287595D01*
X99354000Y-133952715D01*
X100019119Y-133287595D01*
X99934017Y-133039554D01*
X99323936Y-132930161D01*
X98773983Y-133039554D01*
X98688881Y-133287595D01*
X97227463Y-133287595D01*
X97145151Y-133205140D01*
X96575667Y-132968670D01*
X95959039Y-132968132D01*
X95389143Y-133203608D01*
X94952740Y-133639249D01*
X94769468Y-134080618D01*
X94331685Y-134518400D01*
X93200315Y-134518400D01*
X92535195Y-133853281D01*
X92287154Y-133938383D01*
X92177761Y-134548464D01*
X50457000Y-134548464D01*
X50457000Y-133287595D01*
X93100881Y-133287595D01*
X93766000Y-133952715D01*
X94431119Y-133287595D01*
X94346017Y-133039554D01*
X93735936Y-132930161D01*
X93185983Y-133039554D01*
X93100881Y-133287595D01*
X50457000Y-133287595D01*
X50457000Y-131143900D01*
X55346000Y-131143900D01*
X55346000Y-131605176D01*
X55461399Y-131883773D01*
X55674628Y-132097002D01*
X55953225Y-132212400D01*
X56564500Y-132212400D01*
X56754000Y-132022900D01*
X56754000Y-130954400D01*
X58054000Y-130954400D01*
X58054000Y-132022900D01*
X58243500Y-132212400D01*
X58854775Y-132212400D01*
X58901116Y-132193205D01*
X92846881Y-132193205D01*
X92931983Y-132441246D01*
X93542064Y-132550639D01*
X94092017Y-132441246D01*
X94177119Y-132193205D01*
X93512000Y-131528085D01*
X92846881Y-132193205D01*
X58901116Y-132193205D01*
X59133372Y-132097002D01*
X59346601Y-131883773D01*
X59462000Y-131605176D01*
X59462000Y-131143900D01*
X59310564Y-130992464D01*
X91923761Y-130992464D01*
X92033154Y-131542417D01*
X92281195Y-131627519D01*
X92946315Y-130962400D01*
X94077685Y-130962400D01*
X94516010Y-131400725D01*
X94697208Y-131839257D01*
X95132849Y-132275660D01*
X95702333Y-132512130D01*
X96318961Y-132512668D01*
X96477393Y-132447205D01*
X98688881Y-132447205D01*
X98773983Y-132695246D01*
X99384064Y-132804639D01*
X99934017Y-132695246D01*
X100019119Y-132447205D01*
X99354000Y-131782085D01*
X98688881Y-132447205D01*
X96477393Y-132447205D01*
X96888857Y-132277192D01*
X97325260Y-131841551D01*
X97561730Y-131272067D01*
X97561752Y-131246464D01*
X97765761Y-131246464D01*
X97875154Y-131796417D01*
X98123195Y-131881519D01*
X98788315Y-131216400D01*
X98123195Y-130551281D01*
X97875154Y-130636383D01*
X97765761Y-131246464D01*
X97561752Y-131246464D01*
X97562268Y-130655439D01*
X97326792Y-130085543D01*
X97227019Y-129985595D01*
X98688881Y-129985595D01*
X99354000Y-130650715D01*
X100019119Y-129985595D01*
X99934017Y-129737554D01*
X99323936Y-129628161D01*
X98773983Y-129737554D01*
X98688881Y-129985595D01*
X97227019Y-129985595D01*
X96891151Y-129649140D01*
X96321667Y-129412670D01*
X95705039Y-129412132D01*
X95135143Y-129647608D01*
X94698740Y-130083249D01*
X94515468Y-130524618D01*
X94077685Y-130962400D01*
X92946315Y-130962400D01*
X92281195Y-130297281D01*
X92033154Y-130382383D01*
X91923761Y-130992464D01*
X59310564Y-130992464D01*
X59272500Y-130954400D01*
X58054000Y-130954400D01*
X56754000Y-130954400D01*
X55535500Y-130954400D01*
X55346000Y-131143900D01*
X50457000Y-131143900D01*
X50457000Y-111967614D01*
X50618800Y-112129414D01*
X50591234Y-112268000D01*
X50709221Y-112861159D01*
X51045218Y-113364016D01*
X51171600Y-113448461D01*
X51171600Y-125044200D01*
X51247720Y-125426884D01*
X51464493Y-125751307D01*
X51794693Y-126081507D01*
X52119117Y-126298280D01*
X52501800Y-126374400D01*
X55667751Y-126374400D01*
X55826401Y-126611837D01*
X55875135Y-126644400D01*
X55826401Y-126676963D01*
X55447049Y-127244704D01*
X55313838Y-127914400D01*
X55447049Y-128584096D01*
X55629409Y-128857017D01*
X55461399Y-129025027D01*
X55346000Y-129303624D01*
X55346000Y-129764900D01*
X55535500Y-129954400D01*
X56754000Y-129954400D01*
X56754000Y-129602769D01*
X57063838Y-129664400D01*
X57744162Y-129664400D01*
X58054000Y-129602769D01*
X58054000Y-129954400D01*
X59272500Y-129954400D01*
X59462000Y-129764900D01*
X59462000Y-129731595D01*
X92846881Y-129731595D01*
X93512000Y-130396715D01*
X94177119Y-129731595D01*
X94092017Y-129483554D01*
X93481936Y-129374161D01*
X92931983Y-129483554D01*
X92846881Y-129731595D01*
X59462000Y-129731595D01*
X59462000Y-129303624D01*
X59346601Y-129025027D01*
X59178591Y-128857017D01*
X59325464Y-128637205D01*
X62326881Y-128637205D01*
X62411983Y-128885246D01*
X63022064Y-128994639D01*
X63542059Y-128891205D01*
X92846881Y-128891205D01*
X92931983Y-129139246D01*
X93542064Y-129248639D01*
X94092017Y-129139246D01*
X94177119Y-128891205D01*
X93512000Y-128226085D01*
X92846881Y-128891205D01*
X63542059Y-128891205D01*
X63572017Y-128885246D01*
X63657119Y-128637205D01*
X62992000Y-127972085D01*
X62326881Y-128637205D01*
X59325464Y-128637205D01*
X59360951Y-128584096D01*
X59494162Y-127914400D01*
X59399095Y-127436464D01*
X61403761Y-127436464D01*
X61513154Y-127986417D01*
X61761195Y-128071519D01*
X62426315Y-127406400D01*
X63557685Y-127406400D01*
X64222805Y-128071519D01*
X64470846Y-127986417D01*
X64523913Y-127690464D01*
X91923761Y-127690464D01*
X92033154Y-128240417D01*
X92281195Y-128325519D01*
X92946315Y-127660400D01*
X94077685Y-127660400D01*
X94516010Y-128098725D01*
X94697208Y-128537257D01*
X95132849Y-128973660D01*
X95702333Y-129210130D01*
X96318961Y-129210668D01*
X96888857Y-128975192D01*
X96972990Y-128891205D01*
X98688881Y-128891205D01*
X98773983Y-129139246D01*
X99384064Y-129248639D01*
X99934017Y-129139246D01*
X100019119Y-128891205D01*
X99354000Y-128226085D01*
X98688881Y-128891205D01*
X96972990Y-128891205D01*
X97325260Y-128539551D01*
X97561730Y-127970067D01*
X97561973Y-127690464D01*
X97765761Y-127690464D01*
X97875154Y-128240417D01*
X98123195Y-128325519D01*
X98788315Y-127660400D01*
X98123195Y-126995281D01*
X97875154Y-127080383D01*
X97765761Y-127690464D01*
X97561973Y-127690464D01*
X97562268Y-127353439D01*
X97326792Y-126783543D01*
X96973463Y-126429595D01*
X98688881Y-126429595D01*
X99354000Y-127094715D01*
X100019119Y-126429595D01*
X99934017Y-126181554D01*
X99323936Y-126072161D01*
X98773983Y-126181554D01*
X98688881Y-126429595D01*
X96973463Y-126429595D01*
X96891151Y-126347140D01*
X96321667Y-126110670D01*
X95705039Y-126110132D01*
X95135143Y-126345608D01*
X94698740Y-126781249D01*
X94515468Y-127222618D01*
X94077685Y-127660400D01*
X92946315Y-127660400D01*
X92281195Y-126995281D01*
X92033154Y-127080383D01*
X91923761Y-127690464D01*
X64523913Y-127690464D01*
X64580239Y-127376336D01*
X64470846Y-126826383D01*
X64222805Y-126741281D01*
X63557685Y-127406400D01*
X62426315Y-127406400D01*
X61761195Y-126741281D01*
X61513154Y-126826383D01*
X61403761Y-127436464D01*
X59399095Y-127436464D01*
X59360951Y-127244704D01*
X58981599Y-126676963D01*
X58932865Y-126644400D01*
X58981599Y-126611837D01*
X59360951Y-126044096D01*
X59494162Y-125374400D01*
X59462130Y-125213361D01*
X61441732Y-125213361D01*
X61677208Y-125783257D01*
X62112849Y-126219660D01*
X62554218Y-126402932D01*
X62992000Y-126840715D01*
X63403120Y-126429595D01*
X92846881Y-126429595D01*
X93512000Y-127094715D01*
X94177119Y-126429595D01*
X94092017Y-126181554D01*
X93481936Y-126072161D01*
X92931983Y-126181554D01*
X92846881Y-126429595D01*
X63403120Y-126429595D01*
X63430325Y-126402390D01*
X63868857Y-126221192D01*
X64305260Y-125785551D01*
X64541730Y-125216067D01*
X64542268Y-124599439D01*
X64306792Y-124029543D01*
X63992000Y-123714200D01*
X63992000Y-114413205D01*
X92846881Y-114413205D01*
X92931983Y-114661246D01*
X93542064Y-114770639D01*
X94092017Y-114661246D01*
X94177119Y-114413205D01*
X93512000Y-113748085D01*
X92846881Y-114413205D01*
X63992000Y-114413205D01*
X63992000Y-113212464D01*
X91923761Y-113212464D01*
X92033154Y-113762417D01*
X92281195Y-113847519D01*
X92946315Y-113182400D01*
X94077685Y-113182400D01*
X94516010Y-113620725D01*
X94697208Y-114059257D01*
X95132849Y-114495660D01*
X95702333Y-114732130D01*
X96318961Y-114732668D01*
X96888857Y-114497192D01*
X96972990Y-114413205D01*
X98688881Y-114413205D01*
X98773983Y-114661246D01*
X99384064Y-114770639D01*
X99934017Y-114661246D01*
X100019119Y-114413205D01*
X99354000Y-113748085D01*
X98688881Y-114413205D01*
X96972990Y-114413205D01*
X97325260Y-114061551D01*
X97561730Y-113492067D01*
X97561973Y-113212464D01*
X97765761Y-113212464D01*
X97875154Y-113762417D01*
X98123195Y-113847519D01*
X98788315Y-113182400D01*
X99919685Y-113182400D01*
X100358010Y-113620725D01*
X100539208Y-114059257D01*
X100974849Y-114495660D01*
X101544333Y-114732130D01*
X102160961Y-114732668D01*
X102730857Y-114497192D01*
X103167260Y-114061551D01*
X103403730Y-113492067D01*
X103404268Y-112875439D01*
X103168792Y-112305543D01*
X102733151Y-111869140D01*
X102163667Y-111632670D01*
X101547039Y-111632132D01*
X100977143Y-111867608D01*
X100540740Y-112303249D01*
X100357468Y-112744618D01*
X99919685Y-113182400D01*
X98788315Y-113182400D01*
X98123195Y-112517281D01*
X97875154Y-112602383D01*
X97765761Y-113212464D01*
X97561973Y-113212464D01*
X97562268Y-112875439D01*
X97326792Y-112305543D01*
X96973463Y-111951595D01*
X98688881Y-111951595D01*
X99354000Y-112616715D01*
X100019119Y-111951595D01*
X99934017Y-111703554D01*
X99323936Y-111594161D01*
X98773983Y-111703554D01*
X98688881Y-111951595D01*
X96973463Y-111951595D01*
X96891151Y-111869140D01*
X96321667Y-111632670D01*
X95705039Y-111632132D01*
X95135143Y-111867608D01*
X94698740Y-112303249D01*
X94515468Y-112744618D01*
X94077685Y-113182400D01*
X92946315Y-113182400D01*
X92281195Y-112517281D01*
X92033154Y-112602383D01*
X91923761Y-113212464D01*
X63992000Y-113212464D01*
X63992000Y-111951595D01*
X92846881Y-111951595D01*
X93512000Y-112616715D01*
X94177119Y-111951595D01*
X94092017Y-111703554D01*
X93481936Y-111594161D01*
X92931983Y-111703554D01*
X92846881Y-111951595D01*
X63992000Y-111951595D01*
X63992000Y-111162005D01*
X92846881Y-111162005D01*
X92931983Y-111410046D01*
X93542064Y-111519439D01*
X94092017Y-111410046D01*
X94177119Y-111162005D01*
X93512000Y-110496885D01*
X92846881Y-111162005D01*
X63992000Y-111162005D01*
X63992000Y-110891093D01*
X64182000Y-110891093D01*
X64459933Y-110838796D01*
X64715198Y-110674538D01*
X64795368Y-110557205D01*
X67716881Y-110557205D01*
X67801983Y-110805246D01*
X68412064Y-110914639D01*
X68962017Y-110805246D01*
X69047119Y-110557205D01*
X68382000Y-109892085D01*
X67716881Y-110557205D01*
X64795368Y-110557205D01*
X64886446Y-110423908D01*
X64946693Y-110126400D01*
X64946693Y-109356464D01*
X66793761Y-109356464D01*
X66903154Y-109906417D01*
X67151195Y-109991519D01*
X67816315Y-109326400D01*
X68947685Y-109326400D01*
X69612805Y-109991519D01*
X69700987Y-109961264D01*
X91923761Y-109961264D01*
X92033154Y-110511217D01*
X92281195Y-110596319D01*
X92946315Y-109931200D01*
X94077685Y-109931200D01*
X94516010Y-110369525D01*
X94697208Y-110808057D01*
X95132849Y-111244460D01*
X95702333Y-111480930D01*
X96318961Y-111481468D01*
X96888857Y-111245992D01*
X97023879Y-111111205D01*
X98688881Y-111111205D01*
X98773983Y-111359246D01*
X99384064Y-111468639D01*
X99934017Y-111359246D01*
X100019119Y-111111205D01*
X99354000Y-110446085D01*
X98688881Y-111111205D01*
X97023879Y-111111205D01*
X97325260Y-110810351D01*
X97561730Y-110240867D01*
X97562018Y-109910464D01*
X97765761Y-109910464D01*
X97875154Y-110460417D01*
X98123195Y-110545519D01*
X98788315Y-109880400D01*
X99919685Y-109880400D01*
X100358010Y-110318725D01*
X100539208Y-110757257D01*
X100974849Y-111193660D01*
X101544333Y-111430130D01*
X102160961Y-111430668D01*
X102730857Y-111195192D01*
X103167260Y-110759551D01*
X103403730Y-110190067D01*
X103404268Y-109573439D01*
X103168792Y-109003543D01*
X102733151Y-108567140D01*
X102163667Y-108330670D01*
X101547039Y-108330132D01*
X100977143Y-108565608D01*
X100540740Y-109001249D01*
X100357468Y-109442618D01*
X99919685Y-109880400D01*
X98788315Y-109880400D01*
X98123195Y-109215281D01*
X97875154Y-109300383D01*
X97765761Y-109910464D01*
X97562018Y-109910464D01*
X97562268Y-109624239D01*
X97326792Y-109054343D01*
X96922751Y-108649595D01*
X98688881Y-108649595D01*
X99354000Y-109314715D01*
X100019119Y-108649595D01*
X99934017Y-108401554D01*
X99323936Y-108292161D01*
X98773983Y-108401554D01*
X98688881Y-108649595D01*
X96922751Y-108649595D01*
X96891151Y-108617940D01*
X96321667Y-108381470D01*
X95705039Y-108380932D01*
X95135143Y-108616408D01*
X94698740Y-109052049D01*
X94515468Y-109493418D01*
X94077685Y-109931200D01*
X92946315Y-109931200D01*
X92281195Y-109266081D01*
X92033154Y-109351183D01*
X91923761Y-109961264D01*
X69700987Y-109961264D01*
X69860846Y-109906417D01*
X69970239Y-109296336D01*
X69860846Y-108746383D01*
X69726808Y-108700395D01*
X92846881Y-108700395D01*
X93512000Y-109365515D01*
X94177119Y-108700395D01*
X94092017Y-108452354D01*
X93481936Y-108342961D01*
X92931983Y-108452354D01*
X92846881Y-108700395D01*
X69726808Y-108700395D01*
X69612805Y-108661281D01*
X68947685Y-109326400D01*
X67816315Y-109326400D01*
X67151195Y-108661281D01*
X66903154Y-108746383D01*
X66793761Y-109356464D01*
X64946693Y-109356464D01*
X64946693Y-108526400D01*
X64894396Y-108248467D01*
X64796026Y-108095595D01*
X67716881Y-108095595D01*
X68382000Y-108760715D01*
X69047119Y-108095595D01*
X68962017Y-107847554D01*
X68464837Y-107758405D01*
X92796081Y-107758405D01*
X92881183Y-108006446D01*
X93491264Y-108115839D01*
X94041217Y-108006446D01*
X94126319Y-107758405D01*
X93461200Y-107093285D01*
X92796081Y-107758405D01*
X68464837Y-107758405D01*
X68351936Y-107738161D01*
X67801983Y-107847554D01*
X67716881Y-108095595D01*
X64796026Y-108095595D01*
X64730138Y-107993202D01*
X64479508Y-107821954D01*
X64182000Y-107761707D01*
X62582000Y-107761707D01*
X62304067Y-107814004D01*
X62048802Y-107978262D01*
X61877554Y-108228892D01*
X61817307Y-108526400D01*
X61817307Y-110126400D01*
X61869604Y-110404333D01*
X61992000Y-110594542D01*
X61992000Y-123714536D01*
X61678740Y-124027249D01*
X61442270Y-124596733D01*
X61441732Y-125213361D01*
X59462130Y-125213361D01*
X59360951Y-124704704D01*
X58981599Y-124136963D01*
X58932865Y-124104400D01*
X58981599Y-124071837D01*
X59360951Y-123504096D01*
X59494162Y-122834400D01*
X59360951Y-122164704D01*
X58981599Y-121596963D01*
X58932865Y-121564400D01*
X58981599Y-121531837D01*
X59360951Y-120964096D01*
X59494162Y-120294400D01*
X59360951Y-119624704D01*
X58981599Y-119056963D01*
X58932865Y-119024400D01*
X58981599Y-118991837D01*
X59360951Y-118424096D01*
X59494162Y-117754400D01*
X59360951Y-117084704D01*
X58981599Y-116516963D01*
X58413858Y-116137611D01*
X57744162Y-116004400D01*
X57063838Y-116004400D01*
X56394142Y-116137611D01*
X55826401Y-116516963D01*
X55447049Y-117084704D01*
X55313838Y-117754400D01*
X55447049Y-118424096D01*
X55826401Y-118991837D01*
X55875135Y-119024400D01*
X55826401Y-119056963D01*
X55447049Y-119624704D01*
X55313838Y-120294400D01*
X55447049Y-120964096D01*
X55826401Y-121531837D01*
X55875135Y-121564400D01*
X55826401Y-121596963D01*
X55667751Y-121834400D01*
X54594000Y-121834400D01*
X54594000Y-112574961D01*
X58241332Y-112574961D01*
X58476808Y-113144857D01*
X58912449Y-113581260D01*
X59481933Y-113817730D01*
X60098561Y-113818268D01*
X60668457Y-113582792D01*
X61104860Y-113147151D01*
X61341330Y-112577667D01*
X61341868Y-111961039D01*
X61106392Y-111391143D01*
X60670751Y-110954740D01*
X60104057Y-110719428D01*
X60149361Y-110719468D01*
X60719257Y-110483992D01*
X61155660Y-110048351D01*
X61392130Y-109478867D01*
X61392668Y-108862239D01*
X61157192Y-108292343D01*
X60721551Y-107855940D01*
X60152067Y-107619470D01*
X59535439Y-107618932D01*
X58965543Y-107854408D01*
X58529140Y-108290049D01*
X58292670Y-108859533D01*
X58292132Y-109476161D01*
X58527608Y-110046057D01*
X58963249Y-110482460D01*
X59529943Y-110717772D01*
X59484639Y-110717732D01*
X58914743Y-110953208D01*
X58478340Y-111388849D01*
X58241870Y-111958333D01*
X58241332Y-112574961D01*
X54594000Y-112574961D01*
X54594000Y-110794800D01*
X54517880Y-110412117D01*
X54301107Y-110087693D01*
X53733058Y-109519644D01*
X53802766Y-109169200D01*
X53684779Y-108576041D01*
X53348782Y-108073184D01*
X52845925Y-107737187D01*
X52252766Y-107619200D01*
X52192034Y-107619200D01*
X51749200Y-107707285D01*
X51749200Y-104335346D01*
X51827518Y-104335346D01*
X52250160Y-105358218D01*
X53032066Y-106141490D01*
X54054198Y-106565916D01*
X55160946Y-106566882D01*
X55183255Y-106557664D01*
X91872961Y-106557664D01*
X91982354Y-107107617D01*
X92230395Y-107192719D01*
X92895515Y-106527600D01*
X94026885Y-106527600D01*
X94465210Y-106965925D01*
X94646408Y-107404457D01*
X95082049Y-107840860D01*
X95651533Y-108077330D01*
X96268161Y-108077868D01*
X96838057Y-107842392D01*
X96871302Y-107809205D01*
X98536481Y-107809205D01*
X98621583Y-108057246D01*
X99231664Y-108166639D01*
X99781617Y-108057246D01*
X99866719Y-107809205D01*
X99201600Y-107144085D01*
X98536481Y-107809205D01*
X96871302Y-107809205D01*
X97274460Y-107406751D01*
X97510930Y-106837267D01*
X97511129Y-106608464D01*
X97613361Y-106608464D01*
X97722754Y-107158417D01*
X97970795Y-107243519D01*
X98635915Y-106578400D01*
X99767285Y-106578400D01*
X100205610Y-107016725D01*
X100386808Y-107455257D01*
X100822449Y-107891660D01*
X101391933Y-108128130D01*
X102008561Y-108128668D01*
X102578457Y-107893192D01*
X103014860Y-107457551D01*
X103251330Y-106888067D01*
X103251868Y-106271439D01*
X103016392Y-105701543D01*
X102580751Y-105265140D01*
X102011267Y-105028670D01*
X101394639Y-105028132D01*
X100824743Y-105263608D01*
X100388340Y-105699249D01*
X100205068Y-106140618D01*
X99767285Y-106578400D01*
X98635915Y-106578400D01*
X97970795Y-105913281D01*
X97722754Y-105998383D01*
X97613361Y-106608464D01*
X97511129Y-106608464D01*
X97511468Y-106220639D01*
X97275992Y-105650743D01*
X96973374Y-105347595D01*
X98536481Y-105347595D01*
X99201600Y-106012715D01*
X99866719Y-105347595D01*
X99781617Y-105099554D01*
X99171536Y-104990161D01*
X98621583Y-105099554D01*
X98536481Y-105347595D01*
X96973374Y-105347595D01*
X96840351Y-105214340D01*
X96270867Y-104977870D01*
X95654239Y-104977332D01*
X95084343Y-105212808D01*
X94647940Y-105648449D01*
X94464668Y-106089818D01*
X94026885Y-106527600D01*
X92895515Y-106527600D01*
X92230395Y-105862481D01*
X91982354Y-105947583D01*
X91872961Y-106557664D01*
X55183255Y-106557664D01*
X56183818Y-106144240D01*
X56967090Y-105362334D01*
X56994304Y-105296795D01*
X92796081Y-105296795D01*
X93461200Y-105961915D01*
X94126319Y-105296795D01*
X94041217Y-105048754D01*
X93431136Y-104939361D01*
X92881183Y-105048754D01*
X92796081Y-105296795D01*
X56994304Y-105296795D01*
X57391516Y-104340202D01*
X57392482Y-103233454D01*
X56969840Y-102210582D01*
X56187934Y-101427310D01*
X55165802Y-101002884D01*
X54059054Y-101001918D01*
X53036182Y-101424560D01*
X52252910Y-102206466D01*
X51828484Y-103228598D01*
X51827518Y-104335346D01*
X51749200Y-104335346D01*
X51749200Y-95127346D01*
X51849518Y-95127346D01*
X52272160Y-96150218D01*
X53054066Y-96933490D01*
X54076198Y-97357916D01*
X55182946Y-97358882D01*
X56205818Y-96936240D01*
X56989090Y-96154334D01*
X57413516Y-95132202D01*
X57414482Y-94025454D01*
X56991840Y-93002582D01*
X56209934Y-92219310D01*
X55187802Y-91794884D01*
X54081054Y-91793918D01*
X53058182Y-92216560D01*
X52274910Y-92998466D01*
X51850484Y-94020598D01*
X51849518Y-95127346D01*
X51749200Y-95127346D01*
X51749200Y-90829534D01*
X59928960Y-90829534D01*
X59928960Y-90892226D01*
X60050753Y-91504519D01*
X60397589Y-92023597D01*
X60916667Y-92370433D01*
X61528960Y-92492226D01*
X62141253Y-92370433D01*
X62660331Y-92023597D01*
X62798960Y-91816124D01*
X62937589Y-92023597D01*
X63381719Y-92320355D01*
X63251474Y-92450600D01*
X63093600Y-92450600D01*
X62615246Y-92545751D01*
X62209717Y-92816716D01*
X61894117Y-93132317D01*
X61623151Y-93537846D01*
X61528000Y-94016200D01*
X61528000Y-102588099D01*
X61464740Y-102651249D01*
X61228270Y-103220733D01*
X61227732Y-103837361D01*
X61463208Y-104407257D01*
X61898849Y-104843660D01*
X62468333Y-105080130D01*
X63084961Y-105080668D01*
X63654857Y-104845192D01*
X63738990Y-104761205D01*
X64612881Y-104761205D01*
X64697983Y-105009246D01*
X65308064Y-105118639D01*
X65858017Y-105009246D01*
X65943119Y-104761205D01*
X65739920Y-104558005D01*
X92999281Y-104558005D01*
X93084383Y-104806046D01*
X93694464Y-104915439D01*
X94244417Y-104806046D01*
X94329519Y-104558005D01*
X93664400Y-103892885D01*
X92999281Y-104558005D01*
X65739920Y-104558005D01*
X65278000Y-104096085D01*
X64612881Y-104761205D01*
X63738990Y-104761205D01*
X64091260Y-104409551D01*
X64274532Y-103968182D01*
X64712315Y-103530400D01*
X65843685Y-103530400D01*
X66508805Y-104195519D01*
X66756846Y-104110417D01*
X66866239Y-103500336D01*
X66837781Y-103357264D01*
X92076161Y-103357264D01*
X92185554Y-103907217D01*
X92433595Y-103992319D01*
X93098715Y-103327200D01*
X94230085Y-103327200D01*
X94668410Y-103765525D01*
X94849608Y-104204057D01*
X95285249Y-104640460D01*
X95854733Y-104876930D01*
X96471361Y-104877468D01*
X97041257Y-104641992D01*
X97125390Y-104558005D01*
X98587281Y-104558005D01*
X98672383Y-104806046D01*
X99282464Y-104915439D01*
X99832417Y-104806046D01*
X99917519Y-104558005D01*
X99252400Y-103892885D01*
X98587281Y-104558005D01*
X97125390Y-104558005D01*
X97477660Y-104206351D01*
X97714130Y-103636867D01*
X97714155Y-103608598D01*
X97773554Y-103907217D01*
X98021595Y-103992319D01*
X98686715Y-103327200D01*
X99818085Y-103327200D01*
X100256410Y-103765525D01*
X100437608Y-104204057D01*
X100873249Y-104640460D01*
X101442733Y-104876930D01*
X102059361Y-104877468D01*
X102629257Y-104641992D01*
X103065660Y-104206351D01*
X103302130Y-103636867D01*
X103302668Y-103020239D01*
X103067192Y-102450343D01*
X102631551Y-102013940D01*
X102062067Y-101777470D01*
X101445439Y-101776932D01*
X100875543Y-102012408D01*
X100439140Y-102448049D01*
X100255868Y-102889418D01*
X99818085Y-103327200D01*
X98686715Y-103327200D01*
X98021595Y-102662081D01*
X97773554Y-102747183D01*
X97714619Y-103075859D01*
X97714668Y-103020239D01*
X97479192Y-102450343D01*
X97125863Y-102096395D01*
X98587281Y-102096395D01*
X99252400Y-102761515D01*
X99917519Y-102096395D01*
X99832417Y-101848354D01*
X99222336Y-101738961D01*
X98672383Y-101848354D01*
X98587281Y-102096395D01*
X97125863Y-102096395D01*
X97043551Y-102013940D01*
X96474067Y-101777470D01*
X95857439Y-101776932D01*
X95287543Y-102012408D01*
X94851140Y-102448049D01*
X94667868Y-102889418D01*
X94230085Y-103327200D01*
X93098715Y-103327200D01*
X92433595Y-102662081D01*
X92185554Y-102747183D01*
X92076161Y-103357264D01*
X66837781Y-103357264D01*
X66756846Y-102950383D01*
X66508805Y-102865281D01*
X65843685Y-103530400D01*
X64712315Y-103530400D01*
X64273990Y-103092075D01*
X64092792Y-102653543D01*
X64028000Y-102588638D01*
X64028000Y-102299595D01*
X64612881Y-102299595D01*
X65278000Y-102964715D01*
X65943119Y-102299595D01*
X65873402Y-102096395D01*
X92999281Y-102096395D01*
X93664400Y-102761515D01*
X94329519Y-102096395D01*
X94244417Y-101848354D01*
X93634336Y-101738961D01*
X93084383Y-101848354D01*
X92999281Y-102096395D01*
X65873402Y-102096395D01*
X65858017Y-102051554D01*
X65247936Y-101942161D01*
X64697983Y-102051554D01*
X64612881Y-102299595D01*
X64028000Y-102299595D01*
X64028000Y-96524900D01*
X80243500Y-96524900D01*
X80243500Y-96911175D01*
X80358898Y-97189772D01*
X80572127Y-97403001D01*
X80850724Y-97518400D01*
X81237000Y-97518400D01*
X81426500Y-97328900D01*
X81426500Y-96335400D01*
X82276500Y-96335400D01*
X82276500Y-97328900D01*
X82466000Y-97518400D01*
X82852276Y-97518400D01*
X83130873Y-97403001D01*
X83344102Y-97189772D01*
X83459500Y-96911175D01*
X83459500Y-96588400D01*
X83799500Y-96588400D01*
X83799500Y-96974675D01*
X83914898Y-97253272D01*
X84128127Y-97466501D01*
X84406724Y-97581900D01*
X84793000Y-97581900D01*
X84982500Y-97392400D01*
X84982500Y-96398900D01*
X85832500Y-96398900D01*
X85832500Y-97392400D01*
X86022000Y-97581900D01*
X86408276Y-97581900D01*
X86686873Y-97466501D01*
X86900102Y-97253272D01*
X87015500Y-96974675D01*
X87015500Y-96588400D01*
X87355500Y-96588400D01*
X87355500Y-96974675D01*
X87470898Y-97253272D01*
X87684127Y-97466501D01*
X87962724Y-97581900D01*
X88349000Y-97581900D01*
X88538500Y-97392400D01*
X88538500Y-96398900D01*
X89388500Y-96398900D01*
X89388500Y-97392400D01*
X89578000Y-97581900D01*
X89964276Y-97581900D01*
X90242873Y-97466501D01*
X90456102Y-97253272D01*
X90571500Y-96974675D01*
X90571500Y-96588400D01*
X90382000Y-96398900D01*
X89388500Y-96398900D01*
X88538500Y-96398900D01*
X87545000Y-96398900D01*
X87355500Y-96588400D01*
X87015500Y-96588400D01*
X86826000Y-96398900D01*
X85832500Y-96398900D01*
X84982500Y-96398900D01*
X83989000Y-96398900D01*
X83799500Y-96588400D01*
X83459500Y-96588400D01*
X83459500Y-96524900D01*
X83270000Y-96335400D01*
X82276500Y-96335400D01*
X81426500Y-96335400D01*
X80433000Y-96335400D01*
X80243500Y-96524900D01*
X64028000Y-96524900D01*
X64028000Y-94899129D01*
X64247594Y-94855449D01*
X64247959Y-94855205D01*
X71169881Y-94855205D01*
X71254983Y-95103246D01*
X71865064Y-95212639D01*
X72415017Y-95103246D01*
X72500119Y-94855205D01*
X71835000Y-94190085D01*
X71169881Y-94855205D01*
X64247959Y-94855205D01*
X64653123Y-94584483D01*
X65583142Y-93654464D01*
X70246761Y-93654464D01*
X70356154Y-94204417D01*
X70604195Y-94289519D01*
X71269315Y-93624400D01*
X72400685Y-93624400D01*
X73065805Y-94289519D01*
X73313846Y-94204417D01*
X73423239Y-93594336D01*
X73313846Y-93044383D01*
X73065805Y-92959281D01*
X72400685Y-93624400D01*
X71269315Y-93624400D01*
X70604195Y-92959281D01*
X70356154Y-93044383D01*
X70246761Y-93654464D01*
X65583142Y-93654464D01*
X66762034Y-92475573D01*
X67458960Y-92475573D01*
X67736893Y-92423276D01*
X67783018Y-92393595D01*
X71169881Y-92393595D01*
X71835000Y-93058715D01*
X72069314Y-92824400D01*
X75270307Y-92824400D01*
X75270307Y-94424400D01*
X75322604Y-94702333D01*
X75486862Y-94957598D01*
X75737492Y-95128846D01*
X76035000Y-95189093D01*
X77635000Y-95189093D01*
X77912933Y-95136796D01*
X78168198Y-94972538D01*
X78339446Y-94721908D01*
X78399693Y-94424400D01*
X78399693Y-92824400D01*
X78347396Y-92546467D01*
X78183138Y-92291202D01*
X77932508Y-92119954D01*
X77635000Y-92059707D01*
X76035000Y-92059707D01*
X75757067Y-92112004D01*
X75501802Y-92276262D01*
X75330554Y-92526892D01*
X75270307Y-92824400D01*
X72069314Y-92824400D01*
X72500119Y-92393595D01*
X72415017Y-92145554D01*
X71804936Y-92036161D01*
X71254983Y-92145554D01*
X71169881Y-92393595D01*
X67783018Y-92393595D01*
X67992158Y-92259018D01*
X68163406Y-92008388D01*
X68223653Y-91710880D01*
X68223653Y-90010880D01*
X68171356Y-89732947D01*
X68007098Y-89477682D01*
X67756468Y-89306434D01*
X67458960Y-89246187D01*
X65758960Y-89246187D01*
X65481027Y-89298484D01*
X65225762Y-89462742D01*
X65107354Y-89636038D01*
X64681253Y-89351327D01*
X64068960Y-89229534D01*
X63456667Y-89351327D01*
X62937589Y-89698163D01*
X62798960Y-89905636D01*
X62660331Y-89698163D01*
X62141253Y-89351327D01*
X61528960Y-89229534D01*
X60916667Y-89351327D01*
X60397589Y-89698163D01*
X60050753Y-90217241D01*
X59928960Y-90829534D01*
X51749200Y-90829534D01*
X51749200Y-85535595D01*
X92719881Y-85535595D01*
X93385000Y-86200715D01*
X94050119Y-85535595D01*
X93965017Y-85287554D01*
X93354936Y-85178161D01*
X92804983Y-85287554D01*
X92719881Y-85535595D01*
X51749200Y-85535595D01*
X51749200Y-84441205D01*
X92846881Y-84441205D01*
X92931983Y-84689246D01*
X93542064Y-84798639D01*
X94092017Y-84689246D01*
X94177119Y-84441205D01*
X93512000Y-83776085D01*
X92846881Y-84441205D01*
X51749200Y-84441205D01*
X51749200Y-83240464D01*
X91923761Y-83240464D01*
X92033154Y-83790417D01*
X92281195Y-83875519D01*
X92946315Y-83210400D01*
X94077685Y-83210400D01*
X94516010Y-83648725D01*
X94697208Y-84087257D01*
X95132849Y-84523660D01*
X95702333Y-84760130D01*
X96318961Y-84760668D01*
X96888857Y-84525192D01*
X96972990Y-84441205D01*
X98688881Y-84441205D01*
X98773983Y-84689246D01*
X99384064Y-84798639D01*
X99934017Y-84689246D01*
X100019119Y-84441205D01*
X99354000Y-83776085D01*
X98688881Y-84441205D01*
X96972990Y-84441205D01*
X97325260Y-84089551D01*
X97561730Y-83520067D01*
X97561973Y-83240464D01*
X97765761Y-83240464D01*
X97875154Y-83790417D01*
X98123195Y-83875519D01*
X98788315Y-83210400D01*
X98123195Y-82545281D01*
X97875154Y-82630383D01*
X97765761Y-83240464D01*
X97561973Y-83240464D01*
X97562268Y-82903439D01*
X97326792Y-82333543D01*
X96973463Y-81979595D01*
X98688881Y-81979595D01*
X99354000Y-82644715D01*
X100019119Y-81979595D01*
X99934017Y-81731554D01*
X99323936Y-81622161D01*
X98773983Y-81731554D01*
X98688881Y-81979595D01*
X96973463Y-81979595D01*
X96891151Y-81897140D01*
X96321667Y-81660670D01*
X95705039Y-81660132D01*
X95135143Y-81895608D01*
X94698740Y-82331249D01*
X94515468Y-82772618D01*
X94077685Y-83210400D01*
X92946315Y-83210400D01*
X92281195Y-82545281D01*
X92033154Y-82630383D01*
X91923761Y-83240464D01*
X51749200Y-83240464D01*
X51749200Y-81324340D01*
X55721920Y-81324340D01*
X55721920Y-81785616D01*
X55837319Y-82064213D01*
X56050548Y-82277442D01*
X56329145Y-82392840D01*
X56940420Y-82392840D01*
X57129920Y-82203340D01*
X57129920Y-81134840D01*
X58429920Y-81134840D01*
X58429920Y-82203340D01*
X58619420Y-82392840D01*
X59230695Y-82392840D01*
X59509292Y-82277442D01*
X59722521Y-82064213D01*
X59837920Y-81785616D01*
X59837920Y-81332961D01*
X63920132Y-81332961D01*
X64155608Y-81902857D01*
X64591249Y-82339260D01*
X65160733Y-82575730D01*
X65777361Y-82576268D01*
X66347257Y-82340792D01*
X66431390Y-82256805D01*
X67305281Y-82256805D01*
X67390383Y-82504846D01*
X68000464Y-82614239D01*
X68550417Y-82504846D01*
X68635519Y-82256805D01*
X68358310Y-81979595D01*
X92846881Y-81979595D01*
X93512000Y-82644715D01*
X94177119Y-81979595D01*
X94092017Y-81731554D01*
X93481936Y-81622161D01*
X92931983Y-81731554D01*
X92846881Y-81979595D01*
X68358310Y-81979595D01*
X67970400Y-81591685D01*
X67305281Y-82256805D01*
X66431390Y-82256805D01*
X66783660Y-81905151D01*
X66966932Y-81463782D01*
X67404715Y-81026000D01*
X68536085Y-81026000D01*
X69201205Y-81691119D01*
X69449246Y-81606017D01*
X69532949Y-81139205D01*
X92846881Y-81139205D01*
X92931983Y-81387246D01*
X93542064Y-81496639D01*
X94092017Y-81387246D01*
X94177119Y-81139205D01*
X93512000Y-80474085D01*
X92846881Y-81139205D01*
X69532949Y-81139205D01*
X69558639Y-80995936D01*
X69449246Y-80445983D01*
X69201205Y-80360881D01*
X68536085Y-81026000D01*
X67404715Y-81026000D01*
X66966390Y-80587675D01*
X66785192Y-80149143D01*
X66431863Y-79795195D01*
X67305281Y-79795195D01*
X67970400Y-80460315D01*
X68492250Y-79938464D01*
X91923761Y-79938464D01*
X92033154Y-80488417D01*
X92281195Y-80573519D01*
X92946315Y-79908400D01*
X94077685Y-79908400D01*
X94516010Y-80346725D01*
X94697208Y-80785257D01*
X95132849Y-81221660D01*
X95702333Y-81458130D01*
X96318961Y-81458668D01*
X96888857Y-81223192D01*
X96972990Y-81139205D01*
X98688881Y-81139205D01*
X98773983Y-81387246D01*
X99384064Y-81496639D01*
X99934017Y-81387246D01*
X100019119Y-81139205D01*
X99354000Y-80474085D01*
X98688881Y-81139205D01*
X96972990Y-81139205D01*
X97325260Y-80787551D01*
X97561730Y-80218067D01*
X97561973Y-79938464D01*
X97765761Y-79938464D01*
X97875154Y-80488417D01*
X98123195Y-80573519D01*
X98788315Y-79908400D01*
X98123195Y-79243281D01*
X97875154Y-79328383D01*
X97765761Y-79938464D01*
X97561973Y-79938464D01*
X97562268Y-79601439D01*
X97326792Y-79031543D01*
X96973463Y-78677595D01*
X98688881Y-78677595D01*
X99354000Y-79342715D01*
X100019119Y-78677595D01*
X99934017Y-78429554D01*
X99323936Y-78320161D01*
X98773983Y-78429554D01*
X98688881Y-78677595D01*
X96973463Y-78677595D01*
X96891151Y-78595140D01*
X96321667Y-78358670D01*
X95705039Y-78358132D01*
X95135143Y-78593608D01*
X94698740Y-79029249D01*
X94515468Y-79470618D01*
X94077685Y-79908400D01*
X92946315Y-79908400D01*
X92281195Y-79243281D01*
X92033154Y-79328383D01*
X91923761Y-79938464D01*
X68492250Y-79938464D01*
X68635519Y-79795195D01*
X68550417Y-79547154D01*
X67940336Y-79437761D01*
X67390383Y-79547154D01*
X67305281Y-79795195D01*
X66431863Y-79795195D01*
X66349551Y-79712740D01*
X65780067Y-79476270D01*
X65163439Y-79475732D01*
X64593543Y-79711208D01*
X64157140Y-80146849D01*
X63920670Y-80716333D01*
X63920132Y-81332961D01*
X59837920Y-81332961D01*
X59837920Y-81324340D01*
X59648420Y-81134840D01*
X58429920Y-81134840D01*
X57129920Y-81134840D01*
X55911420Y-81134840D01*
X55721920Y-81324340D01*
X51749200Y-81324340D01*
X51749200Y-79255814D01*
X54450173Y-76554840D01*
X56043671Y-76554840D01*
X56202321Y-76792277D01*
X56251055Y-76824840D01*
X56202321Y-76857403D01*
X55822969Y-77425144D01*
X55689758Y-78094840D01*
X55822969Y-78764536D01*
X56005329Y-79037457D01*
X55837319Y-79205467D01*
X55721920Y-79484064D01*
X55721920Y-79945340D01*
X55911420Y-80134840D01*
X57129920Y-80134840D01*
X57129920Y-79783209D01*
X57439758Y-79844840D01*
X58120082Y-79844840D01*
X58429920Y-79783209D01*
X58429920Y-80134840D01*
X59648420Y-80134840D01*
X59837920Y-79945340D01*
X59837920Y-79484064D01*
X59722521Y-79205467D01*
X59554511Y-79037457D01*
X59736871Y-78764536D01*
X59754164Y-78677595D01*
X92846881Y-78677595D01*
X93512000Y-79342715D01*
X94177119Y-78677595D01*
X94092017Y-78429554D01*
X93481936Y-78320161D01*
X92931983Y-78429554D01*
X92846881Y-78677595D01*
X59754164Y-78677595D01*
X59870082Y-78094840D01*
X59818836Y-77837205D01*
X92846881Y-77837205D01*
X92931983Y-78085246D01*
X93542064Y-78194639D01*
X94092017Y-78085246D01*
X94177119Y-77837205D01*
X93512000Y-77172085D01*
X92846881Y-77837205D01*
X59818836Y-77837205D01*
X59736871Y-77425144D01*
X59357519Y-76857403D01*
X59308785Y-76824840D01*
X59357519Y-76792277D01*
X59372133Y-76770405D01*
X64562081Y-76770405D01*
X64647183Y-77018446D01*
X65257264Y-77127839D01*
X65807217Y-77018446D01*
X65892319Y-76770405D01*
X65758379Y-76636464D01*
X91923761Y-76636464D01*
X92033154Y-77186417D01*
X92281195Y-77271519D01*
X92946315Y-76606400D01*
X94077685Y-76606400D01*
X94516010Y-77044725D01*
X94697208Y-77483257D01*
X95132849Y-77919660D01*
X95702333Y-78156130D01*
X96318961Y-78156668D01*
X96888857Y-77921192D01*
X96972990Y-77837205D01*
X98688881Y-77837205D01*
X98773983Y-78085246D01*
X99384064Y-78194639D01*
X99934017Y-78085246D01*
X100019119Y-77837205D01*
X99354000Y-77172085D01*
X98688881Y-77837205D01*
X96972990Y-77837205D01*
X97325260Y-77485551D01*
X97561730Y-76916067D01*
X97561973Y-76636464D01*
X97765761Y-76636464D01*
X97875154Y-77186417D01*
X98123195Y-77271519D01*
X98788315Y-76606400D01*
X98123195Y-75941281D01*
X97875154Y-76026383D01*
X97765761Y-76636464D01*
X97561973Y-76636464D01*
X97562268Y-76299439D01*
X97326792Y-75729543D01*
X96973463Y-75375595D01*
X98688881Y-75375595D01*
X99354000Y-76040715D01*
X100019119Y-75375595D01*
X99934017Y-75127554D01*
X99323936Y-75018161D01*
X98773983Y-75127554D01*
X98688881Y-75375595D01*
X96973463Y-75375595D01*
X96891151Y-75293140D01*
X96321667Y-75056670D01*
X95705039Y-75056132D01*
X95135143Y-75291608D01*
X94698740Y-75727249D01*
X94515468Y-76168618D01*
X94077685Y-76606400D01*
X92946315Y-76606400D01*
X92281195Y-75941281D01*
X92033154Y-76026383D01*
X91923761Y-76636464D01*
X65758379Y-76636464D01*
X65227200Y-76105285D01*
X64562081Y-76770405D01*
X59372133Y-76770405D01*
X59736871Y-76224536D01*
X59867133Y-75569664D01*
X63638961Y-75569664D01*
X63748354Y-76119617D01*
X63996395Y-76204719D01*
X64661515Y-75539600D01*
X65792885Y-75539600D01*
X66458005Y-76204719D01*
X66706046Y-76119617D01*
X66815439Y-75509536D01*
X66788797Y-75375595D01*
X92846881Y-75375595D01*
X93512000Y-76040715D01*
X94177119Y-75375595D01*
X94092017Y-75127554D01*
X93481936Y-75018161D01*
X92931983Y-75127554D01*
X92846881Y-75375595D01*
X66788797Y-75375595D01*
X66706046Y-74959583D01*
X66458005Y-74874481D01*
X65792885Y-75539600D01*
X64661515Y-75539600D01*
X63996395Y-74874481D01*
X63748354Y-74959583D01*
X63638961Y-75569664D01*
X59867133Y-75569664D01*
X59870082Y-75554840D01*
X59736871Y-74885144D01*
X59357519Y-74317403D01*
X59308785Y-74284840D01*
X59357519Y-74252277D01*
X59736871Y-73684536D01*
X59870082Y-73014840D01*
X59736871Y-72345144D01*
X59357519Y-71777403D01*
X59308785Y-71744840D01*
X59357519Y-71712277D01*
X59736871Y-71144536D01*
X59870082Y-70474840D01*
X59736871Y-69805144D01*
X59357519Y-69237403D01*
X59308785Y-69204840D01*
X59357519Y-69172277D01*
X59736871Y-68604536D01*
X59870082Y-67934840D01*
X59736871Y-67265144D01*
X59357519Y-66697403D01*
X58789778Y-66318051D01*
X58120082Y-66184840D01*
X57439758Y-66184840D01*
X56770062Y-66318051D01*
X56321200Y-66617971D01*
X56321200Y-64245165D01*
X56332234Y-64247360D01*
X56392966Y-64247360D01*
X56986125Y-64129373D01*
X57488982Y-63793376D01*
X57824979Y-63290519D01*
X57881907Y-63004321D01*
X62432332Y-63004321D01*
X62667808Y-63574217D01*
X62859600Y-63766344D01*
X62859600Y-71922000D01*
X62943769Y-72345144D01*
X62954751Y-72400354D01*
X63225717Y-72805883D01*
X63677010Y-73257176D01*
X63676932Y-73346561D01*
X63912408Y-73916457D01*
X64348049Y-74352860D01*
X64789418Y-74536132D01*
X65227200Y-74973915D01*
X65665525Y-74535590D01*
X66104057Y-74354392D01*
X66540460Y-73918751D01*
X66776930Y-73349267D01*
X66777468Y-72732639D01*
X66541992Y-72162743D01*
X66106351Y-71726340D01*
X65536867Y-71489870D01*
X65445156Y-71489790D01*
X65359600Y-71404234D01*
X65359600Y-63486205D01*
X91068881Y-63486205D01*
X91153983Y-63734246D01*
X91764064Y-63843639D01*
X92314017Y-63734246D01*
X92399119Y-63486205D01*
X91734000Y-62821085D01*
X91068881Y-63486205D01*
X65359600Y-63486205D01*
X65359600Y-63423008D01*
X65532330Y-63007027D01*
X65532868Y-62390399D01*
X65489510Y-62285464D01*
X90145761Y-62285464D01*
X90255154Y-62835417D01*
X90503195Y-62920519D01*
X91168315Y-62255400D01*
X92299685Y-62255400D01*
X92738010Y-62693725D01*
X92919208Y-63132257D01*
X93354849Y-63568660D01*
X93924333Y-63805130D01*
X94540961Y-63805668D01*
X94699393Y-63740205D01*
X98688881Y-63740205D01*
X98773983Y-63988246D01*
X99384064Y-64097639D01*
X99934017Y-63988246D01*
X100019119Y-63740205D01*
X99354000Y-63075085D01*
X98688881Y-63740205D01*
X94699393Y-63740205D01*
X95110857Y-63570192D01*
X95547260Y-63134551D01*
X95783730Y-62565067D01*
X95783752Y-62539464D01*
X97765761Y-62539464D01*
X97875154Y-63089417D01*
X98123195Y-63174519D01*
X98788315Y-62509400D01*
X98123195Y-61844281D01*
X97875154Y-61929383D01*
X97765761Y-62539464D01*
X95783752Y-62539464D01*
X95784268Y-61948439D01*
X95548792Y-61378543D01*
X95449019Y-61278595D01*
X98688881Y-61278595D01*
X99354000Y-61943715D01*
X100019119Y-61278595D01*
X99934017Y-61030554D01*
X99323936Y-60921161D01*
X98773983Y-61030554D01*
X98688881Y-61278595D01*
X95449019Y-61278595D01*
X95113151Y-60942140D01*
X94543667Y-60705670D01*
X93927039Y-60705132D01*
X93357143Y-60940608D01*
X92920740Y-61376249D01*
X92737468Y-61817618D01*
X92299685Y-62255400D01*
X91168315Y-62255400D01*
X90503195Y-61590281D01*
X90255154Y-61675383D01*
X90145761Y-62285464D01*
X65489510Y-62285464D01*
X65297392Y-61820503D01*
X64861751Y-61384100D01*
X64292267Y-61147630D01*
X63675639Y-61147092D01*
X63105743Y-61382568D01*
X62669340Y-61818209D01*
X62432870Y-62387693D01*
X62432332Y-63004321D01*
X57881907Y-63004321D01*
X57942966Y-62697360D01*
X57824979Y-62104201D01*
X57488982Y-61601344D01*
X56986125Y-61265347D01*
X56392966Y-61147360D01*
X56332234Y-61147360D01*
X55739075Y-61265347D01*
X55371240Y-61511126D01*
X55371240Y-61024595D01*
X91068881Y-61024595D01*
X91734000Y-61689715D01*
X92399119Y-61024595D01*
X92314017Y-60776554D01*
X91703936Y-60667161D01*
X91153983Y-60776554D01*
X91068881Y-61024595D01*
X55371240Y-61024595D01*
X55371240Y-60586674D01*
X55739075Y-60832453D01*
X56332234Y-60950440D01*
X56392966Y-60950440D01*
X56986125Y-60832453D01*
X57488982Y-60496456D01*
X57824979Y-59993599D01*
X57881907Y-59707401D01*
X62432332Y-59707401D01*
X62667808Y-60277297D01*
X63103449Y-60713700D01*
X63672933Y-60950170D01*
X64289561Y-60950708D01*
X64859457Y-60715232D01*
X65136968Y-60438205D01*
X98688881Y-60438205D01*
X98773983Y-60686246D01*
X99384064Y-60795639D01*
X99934017Y-60686246D01*
X100019119Y-60438205D01*
X99354000Y-59773085D01*
X98688881Y-60438205D01*
X65136968Y-60438205D01*
X65295860Y-60279591D01*
X65388202Y-60057205D01*
X90941881Y-60057205D01*
X91026983Y-60305246D01*
X91637064Y-60414639D01*
X92187017Y-60305246D01*
X92272119Y-60057205D01*
X91607000Y-59392085D01*
X90941881Y-60057205D01*
X65388202Y-60057205D01*
X65532330Y-59710107D01*
X65532868Y-59093479D01*
X65434936Y-58856464D01*
X90018761Y-58856464D01*
X90128154Y-59406417D01*
X90376195Y-59491519D01*
X91041315Y-58826400D01*
X92172685Y-58826400D01*
X92611010Y-59264725D01*
X92792208Y-59703257D01*
X93227849Y-60139660D01*
X93797333Y-60376130D01*
X94413961Y-60376668D01*
X94983857Y-60141192D01*
X95420260Y-59705551D01*
X95614626Y-59237464D01*
X97765761Y-59237464D01*
X97875154Y-59787417D01*
X98123195Y-59872519D01*
X98788315Y-59207400D01*
X99919685Y-59207400D01*
X100358010Y-59645725D01*
X100539208Y-60084257D01*
X100974849Y-60520660D01*
X101544333Y-60757130D01*
X102160961Y-60757668D01*
X102730857Y-60522192D01*
X103167260Y-60086551D01*
X103403730Y-59517067D01*
X103404268Y-58900439D01*
X103168792Y-58330543D01*
X102733151Y-57894140D01*
X102163667Y-57657670D01*
X101547039Y-57657132D01*
X100977143Y-57892608D01*
X100540740Y-58328249D01*
X100357468Y-58769618D01*
X99919685Y-59207400D01*
X98788315Y-59207400D01*
X98123195Y-58542281D01*
X97875154Y-58627383D01*
X97765761Y-59237464D01*
X95614626Y-59237464D01*
X95656730Y-59136067D01*
X95657268Y-58519439D01*
X95432970Y-57976595D01*
X98688881Y-57976595D01*
X99354000Y-58641715D01*
X100019119Y-57976595D01*
X99934017Y-57728554D01*
X99323936Y-57619161D01*
X98773983Y-57728554D01*
X98688881Y-57976595D01*
X95432970Y-57976595D01*
X95421792Y-57949543D01*
X94986151Y-57513140D01*
X94416667Y-57276670D01*
X93800039Y-57276132D01*
X93230143Y-57511608D01*
X92793740Y-57947249D01*
X92610468Y-58388618D01*
X92172685Y-58826400D01*
X91041315Y-58826400D01*
X90376195Y-58161281D01*
X90128154Y-58246383D01*
X90018761Y-58856464D01*
X65434936Y-58856464D01*
X65297392Y-58523583D01*
X65256224Y-58482343D01*
X66142972Y-57595595D01*
X90941881Y-57595595D01*
X91607000Y-58260715D01*
X92272119Y-57595595D01*
X92187017Y-57347554D01*
X91576936Y-57238161D01*
X91026983Y-57347554D01*
X90941881Y-57595595D01*
X66142972Y-57595595D01*
X66983362Y-56755205D01*
X91195881Y-56755205D01*
X91280983Y-57003246D01*
X91891064Y-57112639D01*
X92441017Y-57003246D01*
X92526119Y-56755205D01*
X91861000Y-56090085D01*
X91195881Y-56755205D01*
X66983362Y-56755205D01*
X67228683Y-56509884D01*
X67235109Y-56500267D01*
X67244605Y-56493669D01*
X67370349Y-56297866D01*
X67499649Y-56104354D01*
X67501905Y-56093011D01*
X67508154Y-56083281D01*
X67549401Y-55854232D01*
X67594799Y-55626000D01*
X67592741Y-55615655D01*
X67652598Y-55577138D01*
X67732768Y-55459805D01*
X70654281Y-55459805D01*
X70739383Y-55707846D01*
X71349464Y-55817239D01*
X71899417Y-55707846D01*
X71952041Y-55554464D01*
X90272761Y-55554464D01*
X90382154Y-56104417D01*
X90630195Y-56189519D01*
X91295315Y-55524400D01*
X92426685Y-55524400D01*
X92865010Y-55962725D01*
X93046208Y-56401257D01*
X93481849Y-56837660D01*
X94051333Y-57074130D01*
X94667961Y-57074668D01*
X94826393Y-57009205D01*
X98688881Y-57009205D01*
X98773983Y-57257246D01*
X99384064Y-57366639D01*
X99934017Y-57257246D01*
X100019119Y-57009205D01*
X99354000Y-56344085D01*
X98688881Y-57009205D01*
X94826393Y-57009205D01*
X95237857Y-56839192D01*
X95674260Y-56403551D01*
X95910730Y-55834067D01*
X95910752Y-55808464D01*
X97765761Y-55808464D01*
X97875154Y-56358417D01*
X98123195Y-56443519D01*
X98788315Y-55778400D01*
X99919685Y-55778400D01*
X100358010Y-56216725D01*
X100539208Y-56655257D01*
X100974849Y-57091660D01*
X101544333Y-57328130D01*
X102160961Y-57328668D01*
X102730857Y-57093192D01*
X103167260Y-56657551D01*
X103403730Y-56088067D01*
X103404268Y-55471439D01*
X103168792Y-54901543D01*
X102733151Y-54465140D01*
X102163667Y-54228670D01*
X101547039Y-54228132D01*
X100977143Y-54463608D01*
X100540740Y-54899249D01*
X100357468Y-55340618D01*
X99919685Y-55778400D01*
X98788315Y-55778400D01*
X98123195Y-55113281D01*
X97875154Y-55198383D01*
X97765761Y-55808464D01*
X95910752Y-55808464D01*
X95911268Y-55217439D01*
X95675792Y-54647543D01*
X95576019Y-54547595D01*
X98688881Y-54547595D01*
X99354000Y-55212715D01*
X100019119Y-54547595D01*
X99934017Y-54299554D01*
X99323936Y-54190161D01*
X98773983Y-54299554D01*
X98688881Y-54547595D01*
X95576019Y-54547595D01*
X95240151Y-54211140D01*
X94670667Y-53974670D01*
X94054039Y-53974132D01*
X93484143Y-54209608D01*
X93047740Y-54645249D01*
X92864468Y-55086618D01*
X92426685Y-55524400D01*
X91295315Y-55524400D01*
X90630195Y-54859281D01*
X90382154Y-54944383D01*
X90272761Y-55554464D01*
X71952041Y-55554464D01*
X71984519Y-55459805D01*
X71319400Y-54794685D01*
X70654281Y-55459805D01*
X67732768Y-55459805D01*
X67823846Y-55326508D01*
X67884093Y-55029000D01*
X67884093Y-54259064D01*
X69731161Y-54259064D01*
X69840554Y-54809017D01*
X70088595Y-54894119D01*
X70753715Y-54229000D01*
X71885085Y-54229000D01*
X72550205Y-54894119D01*
X72798246Y-54809017D01*
X72890665Y-54293595D01*
X91195881Y-54293595D01*
X91861000Y-54958715D01*
X92526119Y-54293595D01*
X92441017Y-54045554D01*
X91830936Y-53936161D01*
X91280983Y-54045554D01*
X91195881Y-54293595D01*
X72890665Y-54293595D01*
X72907639Y-54198936D01*
X72798246Y-53648983D01*
X72550205Y-53563881D01*
X71885085Y-54229000D01*
X70753715Y-54229000D01*
X70088595Y-53563881D01*
X69840554Y-53648983D01*
X69731161Y-54259064D01*
X67884093Y-54259064D01*
X67884093Y-53429000D01*
X67831796Y-53151067D01*
X67733426Y-52998195D01*
X70654281Y-52998195D01*
X71319400Y-53663315D01*
X71783509Y-53199205D01*
X91068881Y-53199205D01*
X91153983Y-53447246D01*
X91764064Y-53556639D01*
X92314017Y-53447246D01*
X92399119Y-53199205D01*
X91734000Y-52534085D01*
X91068881Y-53199205D01*
X71783509Y-53199205D01*
X71984519Y-52998195D01*
X71899417Y-52750154D01*
X71289336Y-52640761D01*
X70739383Y-52750154D01*
X70654281Y-52998195D01*
X67733426Y-52998195D01*
X67667538Y-52895802D01*
X67416908Y-52724554D01*
X67119400Y-52664307D01*
X65519400Y-52664307D01*
X65241467Y-52716604D01*
X64986202Y-52880862D01*
X64814954Y-53131492D01*
X64754707Y-53429000D01*
X64754707Y-55029000D01*
X64807004Y-55306933D01*
X64841888Y-55361145D01*
X63098717Y-57104317D01*
X62827751Y-57509846D01*
X62732600Y-57988200D01*
X62732600Y-58458139D01*
X62669340Y-58521289D01*
X62432870Y-59090773D01*
X62432332Y-59707401D01*
X57881907Y-59707401D01*
X57942966Y-59400440D01*
X57824979Y-58807281D01*
X57488982Y-58304424D01*
X56986125Y-57968427D01*
X56392966Y-57850440D01*
X56332234Y-57850440D01*
X55739075Y-57968427D01*
X55236218Y-58304424D01*
X55172062Y-58400440D01*
X54315360Y-58400440D01*
X53932676Y-58476560D01*
X53608253Y-58693333D01*
X53391480Y-59017756D01*
X53315360Y-59400440D01*
X53371240Y-59681370D01*
X53371240Y-73761600D01*
X53447360Y-74144284D01*
X53664133Y-74468707D01*
X53797665Y-74602239D01*
X53653276Y-74630960D01*
X53518434Y-74721059D01*
X53328853Y-74847733D01*
X53328851Y-74847736D01*
X50457000Y-77719586D01*
X50457000Y-57603200D01*
X51104800Y-57603200D01*
X51164714Y-57585060D01*
X51166336Y-57586103D01*
X51257200Y-57603200D01*
X58064400Y-57603200D01*
X58161664Y-57583504D01*
X58243602Y-57527518D01*
X58297303Y-57444064D01*
X58314400Y-57353200D01*
X58314400Y-51998464D01*
X90145761Y-51998464D01*
X90255154Y-52548417D01*
X90503195Y-52633519D01*
X91168315Y-51968400D01*
X92299685Y-51968400D01*
X92738010Y-52406725D01*
X92919208Y-52845257D01*
X93354849Y-53281660D01*
X93924333Y-53518130D01*
X94540961Y-53518668D01*
X95006757Y-53326205D01*
X98561881Y-53326205D01*
X98646983Y-53574246D01*
X99257064Y-53683639D01*
X99807017Y-53574246D01*
X99892119Y-53326205D01*
X99227000Y-52661085D01*
X98561881Y-53326205D01*
X95006757Y-53326205D01*
X95110857Y-53283192D01*
X95547260Y-52847551D01*
X95783730Y-52278067D01*
X95783863Y-52125464D01*
X97638761Y-52125464D01*
X97748154Y-52675417D01*
X97996195Y-52760519D01*
X98661315Y-52095400D01*
X99792685Y-52095400D01*
X100231010Y-52533725D01*
X100412208Y-52972257D01*
X100847849Y-53408660D01*
X101417333Y-53645130D01*
X102033961Y-53645668D01*
X102603857Y-53410192D01*
X103040260Y-52974551D01*
X103276730Y-52405067D01*
X103277268Y-51788439D01*
X103041792Y-51218543D01*
X102606151Y-50782140D01*
X102036667Y-50545670D01*
X101420039Y-50545132D01*
X100850143Y-50780608D01*
X100413740Y-51216249D01*
X100230468Y-51657618D01*
X99792685Y-52095400D01*
X98661315Y-52095400D01*
X97996195Y-51430281D01*
X97748154Y-51515383D01*
X97638761Y-52125464D01*
X95783863Y-52125464D01*
X95784268Y-51661439D01*
X95548792Y-51091543D01*
X95322241Y-50864595D01*
X98561881Y-50864595D01*
X99227000Y-51529715D01*
X99892119Y-50864595D01*
X99807017Y-50616554D01*
X99196936Y-50507161D01*
X98646983Y-50616554D01*
X98561881Y-50864595D01*
X95322241Y-50864595D01*
X95113151Y-50655140D01*
X94543667Y-50418670D01*
X93927039Y-50418132D01*
X93357143Y-50653608D01*
X92920740Y-51089249D01*
X92737468Y-51530618D01*
X92299685Y-51968400D01*
X91168315Y-51968400D01*
X90503195Y-51303281D01*
X90255154Y-51388383D01*
X90145761Y-51998464D01*
X58314400Y-51998464D01*
X58314400Y-50737595D01*
X91068881Y-50737595D01*
X91734000Y-51402715D01*
X92399119Y-50737595D01*
X92314017Y-50489554D01*
X91703936Y-50380161D01*
X91153983Y-50489554D01*
X91068881Y-50737595D01*
X58314400Y-50737595D01*
X58314400Y-50288000D01*
X103838976Y-50288000D01*
X103824422Y-66570194D01*
M02*
