M48
;DRILL file {KiCad 4.0.7} date 09/01/18 16:22:03
;FORMAT={-:-/ absolute / metric / decimal}
FMAT,2
METRIC,TZ
T1C0.400
T2C0.800
T3C1.000
T4C1.200
T5C1.500
T6C3.048
%
G90
G05
M71
T1
X92.71Y-77.165
X94.209Y-122.834
X99.263Y-83.16
T2
X56.363Y-59.4
X56.363Y-62.697
X57.531Y-108.966
X57.531Y-112.268
X61.697Y-52.618
X61.697Y-55.118
X62.865Y-130.85
X62.865Y-133.35
X62.992Y-83.504
X62.992Y-86.004
X63.983Y-59.4
X63.983Y-62.697
X65.151Y-108.966
X65.151Y-112.268
X65.761Y-72.796
X65.761Y-80.416
X65.913Y-119.507
X65.913Y-127.127
X66.523Y-133.655
X67.564Y-55.626
X68.301Y-72.796
X68.301Y-80.416
X68.453Y-119.507
X68.453Y-127.127
X68.809Y-107.469
X68.809Y-109.969
X70.841Y-72.796
X70.841Y-80.416
X70.993Y-119.507
X70.993Y-127.127
X71.523Y-133.655
X72.564Y-55.626
X73.381Y-72.796
X73.381Y-80.416
X73.533Y-119.507
X73.533Y-127.127
X75.645Y-142.494
X75.921Y-72.796
X75.921Y-80.416
X76.073Y-119.507
X76.073Y-127.127
X76.89Y-93.777
X78.461Y-72.796
X78.461Y-80.416
X78.613Y-119.507
X78.613Y-127.127
X80.645Y-142.494
X81.001Y-72.796
X81.001Y-80.416
X81.153Y-119.507
X81.153Y-127.127
X81.89Y-93.777
X83.541Y-72.796
X83.541Y-80.416
X83.693Y-119.507
X83.693Y-127.127
X84.049Y-144.323
X84.049Y-146.823
X85.588Y-94.082
X85.588Y-96.582
X86.081Y-72.796
X86.081Y-80.416
X86.233Y-119.507
X86.233Y-127.127
X88.621Y-72.796
X88.621Y-80.416
X88.773Y-119.507
X88.773Y-127.127
X91.161Y-72.796
X91.161Y-80.416
X91.313Y-119.507
X91.313Y-127.127
X93.701Y-72.796
X93.701Y-80.416
X93.853Y-119.507
X93.853Y-127.127
X96.241Y-72.796
X96.241Y-80.416
X96.393Y-119.507
X96.393Y-127.127
X98.781Y-72.796
X98.781Y-80.416
X98.933Y-119.507
X98.933Y-127.127
X102.057Y-52.07
X102.057Y-54.61
X102.057Y-57.15
X102.057Y-59.69
X102.057Y-62.23
X102.057Y-64.77
X102.057Y-67.31
X102.057Y-69.85
X102.057Y-72.39
X102.057Y-126.644
X102.057Y-129.184
X102.057Y-131.724
X102.057Y-134.264
X102.057Y-136.804
X102.057Y-139.344
X102.057Y-141.884
X102.057Y-144.424
X102.057Y-146.964
X102.21Y-75.032
X102.21Y-77.572
X102.21Y-80.112
X102.21Y-82.652
X102.21Y-85.192
X102.21Y-87.732
X102.21Y-90.272
X102.21Y-92.812
X102.21Y-95.352
X102.21Y-103.429
X102.21Y-105.969
X102.21Y-108.509
X102.21Y-111.049
X102.21Y-113.589
X102.21Y-116.129
X102.21Y-118.669
X102.21Y-121.209
X102.21Y-123.749
X109.677Y-52.07
X109.677Y-54.61
X109.677Y-57.15
X109.677Y-59.69
X109.677Y-62.23
X109.677Y-64.77
X109.677Y-67.31
X109.677Y-69.85
X109.677Y-72.39
X109.677Y-126.644
X109.677Y-129.184
X109.677Y-131.724
X109.677Y-134.264
X109.677Y-136.804
X109.677Y-139.344
X109.677Y-141.884
X109.677Y-144.424
X109.677Y-146.964
X109.83Y-75.032
X109.83Y-77.572
X109.83Y-80.112
X109.83Y-82.652
X109.83Y-85.192
X109.83Y-87.732
X109.83Y-90.272
X109.83Y-92.812
X109.83Y-95.352
X109.83Y-103.429
X109.83Y-105.969
X109.83Y-108.509
X109.83Y-111.049
X109.83Y-113.589
X109.83Y-116.129
X109.83Y-118.669
X109.83Y-121.209
X109.83Y-123.749
X113.832Y-68.072
X113.857Y-73.914
X113.895Y-65.278
X113.895Y-70.866
X113.908Y-85.547
X113.934Y-56.591
X113.934Y-62.205
X113.934Y-82.575
X113.984Y-51.359
X113.984Y-53.823
X113.984Y-59.334
X113.984Y-94.132
X114.035Y-91.338
X114.086Y-76.759
X114.086Y-79.705
X114.086Y-88.519
X114.289Y-140.64
X114.34Y-137.795
X114.365Y-135.077
X114.391Y-143.332
X114.391Y-146.152
X114.467Y-126.848
X114.467Y-132.334
X114.492Y-123.292
X114.518Y-120.625
X114.518Y-129.692
X114.543Y-118.008
X114.67Y-115.291
X114.772Y-112.624
X114.848Y-104.597
X114.848Y-107.112
X114.899Y-109.855
X116.332Y-68.072
X116.357Y-73.914
X116.395Y-65.278
X116.395Y-70.866
X116.408Y-85.547
X116.434Y-56.591
X116.434Y-62.205
X116.434Y-82.575
X116.484Y-51.359
X116.484Y-53.823
X116.484Y-59.334
X116.484Y-94.132
X116.535Y-91.338
X116.586Y-76.759
X116.586Y-79.705
X116.586Y-88.519
X116.789Y-140.64
X116.84Y-137.795
X116.865Y-135.077
X116.891Y-143.332
X116.891Y-146.152
X116.967Y-126.848
X116.967Y-132.334
X116.992Y-123.292
X117.018Y-120.625
X117.018Y-129.692
X117.043Y-118.008
X117.17Y-115.291
X117.272Y-112.624
X117.348Y-104.597
X117.348Y-107.112
X117.399Y-109.855
X118.605Y-66.599
X118.631Y-60.681
X118.643Y-69.456
X118.643Y-80.899
X118.669Y-72.377
X118.669Y-83.82
X118.669Y-92.507
X118.694Y-75.222
X118.694Y-78.092
X118.72Y-63.627
X118.72Y-89.599
X118.758Y-86.779
X118.758Y-95.39
X118.796Y-51.93
X118.796Y-54.864
X118.796Y-57.76
X119.38Y-127.66
X119.482Y-130.454
X119.482Y-136.093
X119.532Y-106.121
X119.532Y-124.816
X119.532Y-138.938
X119.583Y-103.226
X119.583Y-108.712
X119.583Y-111.201
X119.583Y-121.971
X119.583Y-141.834
X119.583Y-144.831
X119.634Y-114.097
X119.634Y-119.228
X119.685Y-116.637
X119.685Y-133.299
X126.225Y-66.599
X126.251Y-60.681
X126.263Y-69.456
X126.263Y-80.899
X126.289Y-72.377
X126.289Y-83.82
X126.289Y-92.507
X126.314Y-75.222
X126.314Y-78.092
X126.34Y-63.627
X126.34Y-89.599
X126.378Y-86.779
X126.378Y-95.39
X126.416Y-51.93
X126.416Y-54.864
X126.416Y-57.76
X127.Y-127.66
X127.102Y-130.454
X127.102Y-136.093
X127.152Y-106.121
X127.152Y-124.816
X127.152Y-138.938
X127.203Y-103.226
X127.203Y-108.712
X127.203Y-111.201
X127.203Y-121.971
X127.203Y-141.834
X127.203Y-144.831
X127.254Y-114.097
X127.254Y-119.228
X127.305Y-116.637
X127.305Y-133.299
X128.666Y-69.355
X128.729Y-66.472
X128.793Y-57.734
X128.818Y-60.757
X128.869Y-75.349
X128.894Y-72.377
X128.92Y-63.614
X128.932Y-51.892
X128.932Y-83.655
X128.932Y-95.529
X128.945Y-78.194
X129.008Y-54.864
X129.008Y-86.754
X129.008Y-92.596
X129.047Y-81.077
X129.047Y-89.713
X129.682Y-127.66
X129.732Y-122.123
X129.732Y-124.866
X129.732Y-133.299
X129.783Y-119.38
X129.783Y-130.454
X129.783Y-136.144
X129.834Y-116.738
X129.885Y-103.378
X129.885Y-105.969
X129.885Y-108.509
X129.885Y-114.148
X129.885Y-138.938
X129.936Y-111.303
X129.986Y-141.834
X130.088Y-144.678
X131.166Y-69.355
X131.229Y-66.472
X131.293Y-57.734
X131.318Y-60.757
X131.369Y-75.349
X131.394Y-72.377
X131.42Y-63.614
X131.432Y-51.892
X131.432Y-83.655
X131.432Y-95.529
X131.445Y-78.194
X131.508Y-54.864
X131.508Y-86.754
X131.508Y-92.596
X131.547Y-81.077
X131.547Y-89.713
X132.182Y-127.66
X132.232Y-122.123
X132.232Y-124.866
X132.232Y-133.299
X132.283Y-119.38
X132.283Y-130.454
X132.283Y-136.144
X132.334Y-116.738
X132.385Y-103.378
X132.385Y-105.969
X132.385Y-108.509
X132.385Y-114.148
X132.385Y-138.938
X132.436Y-111.303
X132.486Y-141.834
X132.588Y-144.678
T3
X61.529Y-90.861
X62.23Y-142.494
X64.069Y-90.861
X64.77Y-142.494
X66.609Y-90.861
X67.31Y-142.494
X88.773Y-139.167
X88.773Y-141.707
X88.773Y-144.247
X89.916Y-90.932
X89.916Y-93.472
X89.916Y-96.012
X92.354Y-139.243
X92.354Y-141.783
X92.354Y-144.323
X93.726Y-90.678
X93.726Y-93.218
X93.726Y-95.758
X96.088Y-139.243
X96.088Y-141.783
X96.088Y-144.323
X97.79Y-90.678
X97.79Y-93.218
X97.79Y-95.758
X138.684Y-104.496
X138.684Y-107.036
X138.684Y-109.576
X138.684Y-112.116
X138.684Y-114.656
X138.684Y-117.196
X138.684Y-119.736
X138.684Y-122.276
X138.684Y-124.816
X138.684Y-127.356
X138.684Y-129.896
X138.684Y-132.436
X138.684Y-134.976
X138.684Y-137.516
X138.684Y-140.056
X138.684Y-142.596
X139.014Y-52.349
X139.014Y-54.889
X139.014Y-57.429
X139.014Y-59.969
X139.014Y-62.509
X139.014Y-65.049
X139.014Y-67.589
X139.014Y-70.129
X139.014Y-72.669
X139.014Y-75.209
X139.014Y-77.749
X139.014Y-80.289
X139.014Y-82.829
X139.014Y-85.369
X139.014Y-87.909
X139.014Y-90.449
X141.224Y-104.496
X141.224Y-107.036
X141.224Y-109.576
X141.224Y-112.116
X141.224Y-114.656
X141.224Y-117.196
X141.224Y-119.736
X141.224Y-122.276
X141.224Y-124.816
X141.224Y-127.356
X141.224Y-129.896
X141.224Y-132.436
X141.224Y-134.976
X141.224Y-137.516
X141.224Y-140.056
X141.224Y-142.596
X141.554Y-52.349
X141.554Y-54.889
X141.554Y-57.429
X141.554Y-59.969
X141.554Y-62.509
X141.554Y-65.049
X141.554Y-67.589
X141.554Y-70.129
X141.554Y-72.669
X141.554Y-75.209
X141.554Y-77.749
X141.554Y-80.289
X141.554Y-82.829
X141.554Y-85.369
X141.554Y-87.909
X141.554Y-90.449
T4
X57.78Y-67.935
X57.78Y-70.475
X57.78Y-73.015
X57.78Y-75.555
X57.78Y-78.095
X57.78Y-80.635
X57.785Y-117.729
X57.785Y-120.269
X57.785Y-122.809
X57.785Y-125.349
X57.785Y-127.889
X57.785Y-130.429
T5
X147.066Y-81.178
X147.066Y-88.798
X148.082Y-132.232
X148.082Y-139.852
T6
X52.832Y-94.615
X52.959Y-104.14
X53.Y-53.
X53.Y-147.
X146.812Y-94.615
X146.812Y-104.013
X147.Y-53.
X147.Y-147.
T0
M30
