G04 #@! TF.FileFunction,Legend,Top*
%FSLAX46Y46*%
G04 Gerber Fmt 4.6, Leading zero omitted, Abs format (unit mm)*
G04 Created by KiCad (PCBNEW 4.0.7) date 07/02/19 23:07:16*
%MOMM*%
%LPD*%
G01*
G04 APERTURE LIST*
%ADD10C,0.100000*%
%ADD11C,0.150000*%
%ADD12C,0.120000*%
%ADD13C,0.300000*%
%ADD14C,0.200000*%
G04 APERTURE END LIST*
D10*
D11*
X58146486Y-97566219D02*
X58146486Y-98566219D01*
X57813152Y-97851933D01*
X57479819Y-98566219D01*
X57479819Y-97566219D01*
X56432200Y-97661457D02*
X56479819Y-97613838D01*
X56622676Y-97566219D01*
X56717914Y-97566219D01*
X56860772Y-97613838D01*
X56956010Y-97709076D01*
X57003629Y-97804314D01*
X57051248Y-97994790D01*
X57051248Y-98137648D01*
X57003629Y-98328124D01*
X56956010Y-98423362D01*
X56860772Y-98518600D01*
X56717914Y-98566219D01*
X56622676Y-98566219D01*
X56479819Y-98518600D01*
X56432200Y-98470981D01*
X56003629Y-97566219D02*
X56003629Y-98566219D01*
X55622676Y-98566219D01*
X55527438Y-98518600D01*
X55479819Y-98470981D01*
X55432200Y-98375743D01*
X55432200Y-98232886D01*
X55479819Y-98137648D01*
X55527438Y-98090029D01*
X55622676Y-98042410D01*
X56003629Y-98042410D01*
X55051248Y-98470981D02*
X55003629Y-98518600D01*
X54908391Y-98566219D01*
X54670295Y-98566219D01*
X54575057Y-98518600D01*
X54527438Y-98470981D01*
X54479819Y-98375743D01*
X54479819Y-98280505D01*
X54527438Y-98137648D01*
X55098867Y-97566219D01*
X54479819Y-97566219D01*
X54146486Y-98566219D02*
X53527438Y-98566219D01*
X53860772Y-98185267D01*
X53717914Y-98185267D01*
X53622676Y-98137648D01*
X53575057Y-98090029D01*
X53527438Y-97994790D01*
X53527438Y-97756695D01*
X53575057Y-97661457D01*
X53622676Y-97613838D01*
X53717914Y-97566219D01*
X54003629Y-97566219D01*
X54098867Y-97613838D01*
X54146486Y-97661457D01*
X52908391Y-98566219D02*
X52813152Y-98566219D01*
X52717914Y-98518600D01*
X52670295Y-98470981D01*
X52622676Y-98375743D01*
X52575057Y-98185267D01*
X52575057Y-97947171D01*
X52622676Y-97756695D01*
X52670295Y-97661457D01*
X52717914Y-97613838D01*
X52813152Y-97566219D01*
X52908391Y-97566219D01*
X53003629Y-97613838D01*
X53051248Y-97661457D01*
X53098867Y-97756695D01*
X53146486Y-97947171D01*
X53146486Y-98185267D01*
X53098867Y-98375743D01*
X53051248Y-98470981D01*
X53003629Y-98518600D01*
X52908391Y-98566219D01*
X51956010Y-98566219D02*
X51860771Y-98566219D01*
X51765533Y-98518600D01*
X51717914Y-98470981D01*
X51670295Y-98375743D01*
X51622676Y-98185267D01*
X51622676Y-97947171D01*
X51670295Y-97756695D01*
X51717914Y-97661457D01*
X51765533Y-97613838D01*
X51860771Y-97566219D01*
X51956010Y-97566219D01*
X52051248Y-97613838D01*
X52098867Y-97661457D01*
X52146486Y-97756695D01*
X52194105Y-97947171D01*
X52194105Y-98185267D01*
X52146486Y-98375743D01*
X52098867Y-98470981D01*
X52051248Y-98518600D01*
X51956010Y-98566219D01*
X51051248Y-98137648D02*
X51146486Y-98185267D01*
X51194105Y-98232886D01*
X51241724Y-98328124D01*
X51241724Y-98375743D01*
X51194105Y-98470981D01*
X51146486Y-98518600D01*
X51051248Y-98566219D01*
X50860771Y-98566219D01*
X50765533Y-98518600D01*
X50717914Y-98470981D01*
X50670295Y-98375743D01*
X50670295Y-98328124D01*
X50717914Y-98232886D01*
X50765533Y-98185267D01*
X50860771Y-98137648D01*
X51051248Y-98137648D01*
X51146486Y-98090029D01*
X51194105Y-98042410D01*
X51241724Y-97947171D01*
X51241724Y-97756695D01*
X51194105Y-97661457D01*
X51146486Y-97613838D01*
X51051248Y-97566219D01*
X50860771Y-97566219D01*
X50765533Y-97613838D01*
X50717914Y-97661457D01*
X50670295Y-97756695D01*
X50670295Y-97947171D01*
X50717914Y-98042410D01*
X50765533Y-98090029D01*
X50860771Y-98137648D01*
X59632815Y-105278181D02*
X59061386Y-105278181D01*
X59347100Y-105278181D02*
X59347100Y-104278181D01*
X59251862Y-104421038D01*
X59156624Y-104516276D01*
X59061386Y-104563895D01*
X65133481Y-91903585D02*
X65133481Y-92475014D01*
X65133481Y-92189300D02*
X64133481Y-92189300D01*
X64276338Y-92284538D01*
X64371576Y-92379776D01*
X64419195Y-92475014D01*
X44051481Y-90570085D02*
X44051481Y-91141514D01*
X44051481Y-90855800D02*
X43051481Y-90855800D01*
X43194338Y-90951038D01*
X43289576Y-91046276D01*
X43337195Y-91141514D01*
X66316314Y-80481467D02*
X66792505Y-80481467D01*
X66221076Y-80767181D02*
X66554409Y-79767181D01*
X66887743Y-80767181D01*
X67173457Y-79862419D02*
X67221076Y-79814800D01*
X67316314Y-79767181D01*
X67554410Y-79767181D01*
X67649648Y-79814800D01*
X67697267Y-79862419D01*
X67744886Y-79957657D01*
X67744886Y-80052895D01*
X67697267Y-80195752D01*
X67125838Y-80767181D01*
X67744886Y-80767181D01*
X62633314Y-80354467D02*
X63109505Y-80354467D01*
X62538076Y-80640181D02*
X62871409Y-79640181D01*
X63204743Y-80640181D01*
X64061886Y-80640181D02*
X63490457Y-80640181D01*
X63776171Y-80640181D02*
X63776171Y-79640181D01*
X63680933Y-79783038D01*
X63585695Y-79878276D01*
X63490457Y-79925895D01*
X58823314Y-80354467D02*
X59299505Y-80354467D01*
X58728076Y-80640181D02*
X59061409Y-79640181D01*
X59394743Y-80640181D01*
X59918552Y-79640181D02*
X60013791Y-79640181D01*
X60109029Y-79687800D01*
X60156648Y-79735419D01*
X60204267Y-79830657D01*
X60251886Y-80021133D01*
X60251886Y-80259229D01*
X60204267Y-80449705D01*
X60156648Y-80544943D01*
X60109029Y-80592562D01*
X60013791Y-80640181D01*
X59918552Y-80640181D01*
X59823314Y-80592562D01*
X59775695Y-80544943D01*
X59728076Y-80449705D01*
X59680457Y-80259229D01*
X59680457Y-80021133D01*
X59728076Y-79830657D01*
X59775695Y-79735419D01*
X59823314Y-79687800D01*
X59918552Y-79640181D01*
X57434124Y-89022181D02*
X56957933Y-89022181D01*
X56957933Y-88022181D01*
X56838886Y-83434181D02*
X56838886Y-82434181D01*
X56838886Y-82910371D02*
X57410315Y-82910371D01*
X57410315Y-83434181D02*
X57410315Y-82434181D01*
X49385671Y-124312371D02*
X49719005Y-124312371D01*
X49861862Y-124836181D02*
X49385671Y-124836181D01*
X49385671Y-123836181D01*
X49861862Y-123836181D01*
X50195195Y-123836181D02*
X50861862Y-124836181D01*
X50861862Y-123836181D02*
X50195195Y-124836181D01*
X51099957Y-123836181D02*
X51671386Y-123836181D01*
X51385671Y-124836181D02*
X51385671Y-123836181D01*
X55727624Y-123899681D02*
X55251433Y-123899681D01*
X55203814Y-124375871D01*
X55251433Y-124328252D01*
X55346671Y-124280633D01*
X55584767Y-124280633D01*
X55680005Y-124328252D01*
X55727624Y-124375871D01*
X55775243Y-124471110D01*
X55775243Y-124709205D01*
X55727624Y-124804443D01*
X55680005Y-124852062D01*
X55584767Y-124899681D01*
X55346671Y-124899681D01*
X55251433Y-124852062D01*
X55203814Y-124804443D01*
X56060957Y-123899681D02*
X56394290Y-124899681D01*
X56727624Y-123899681D01*
X86842504Y-41317800D02*
X86937742Y-41365419D01*
X87080599Y-41365419D01*
X87223457Y-41317800D01*
X87318695Y-41222562D01*
X87366314Y-41127324D01*
X87413933Y-40936848D01*
X87413933Y-40793990D01*
X87366314Y-40603514D01*
X87318695Y-40508276D01*
X87223457Y-40413038D01*
X87080599Y-40365419D01*
X86985361Y-40365419D01*
X86842504Y-40413038D01*
X86794885Y-40460657D01*
X86794885Y-40793990D01*
X86985361Y-40793990D01*
X86366314Y-40365419D02*
X86366314Y-41365419D01*
X85794885Y-40365419D01*
X85794885Y-41365419D01*
X85318695Y-40365419D02*
X85318695Y-41365419D01*
X85080600Y-41365419D01*
X84937742Y-41317800D01*
X84842504Y-41222562D01*
X84794885Y-41127324D01*
X84747266Y-40936848D01*
X84747266Y-40793990D01*
X84794885Y-40603514D01*
X84842504Y-40508276D01*
X84937742Y-40413038D01*
X85080600Y-40365419D01*
X85318695Y-40365419D01*
X92739981Y-40365419D02*
X92739981Y-41365419D01*
X92263791Y-40365419D02*
X92263791Y-41365419D01*
X91692362Y-40365419D01*
X91692362Y-41365419D01*
X90644743Y-40365419D02*
X90978077Y-40841610D01*
X91216172Y-40365419D02*
X91216172Y-41365419D01*
X90835219Y-41365419D01*
X90739981Y-41317800D01*
X90692362Y-41270181D01*
X90644743Y-41174943D01*
X90644743Y-41032086D01*
X90692362Y-40936848D01*
X90739981Y-40889229D01*
X90835219Y-40841610D01*
X91216172Y-40841610D01*
X89882838Y-40889229D02*
X90216172Y-40889229D01*
X90216172Y-40365419D02*
X90216172Y-41365419D01*
X89739981Y-41365419D01*
X88493696Y-138488800D02*
X88398458Y-138441181D01*
X88255601Y-138441181D01*
X88112743Y-138488800D01*
X88017505Y-138584038D01*
X87969886Y-138679276D01*
X87922267Y-138869752D01*
X87922267Y-139012610D01*
X87969886Y-139203086D01*
X88017505Y-139298324D01*
X88112743Y-139393562D01*
X88255601Y-139441181D01*
X88350839Y-139441181D01*
X88493696Y-139393562D01*
X88541315Y-139345943D01*
X88541315Y-139012610D01*
X88350839Y-139012610D01*
X88969886Y-139441181D02*
X88969886Y-138441181D01*
X89541315Y-139441181D01*
X89541315Y-138441181D01*
X90017505Y-139441181D02*
X90017505Y-138441181D01*
X90255600Y-138441181D01*
X90398458Y-138488800D01*
X90493696Y-138584038D01*
X90541315Y-138679276D01*
X90588934Y-138869752D01*
X90588934Y-139012610D01*
X90541315Y-139203086D01*
X90493696Y-139298324D01*
X90398458Y-139393562D01*
X90255600Y-139441181D01*
X90017505Y-139441181D01*
X81993028Y-138441181D02*
X82183505Y-138441181D01*
X82278743Y-138488800D01*
X82373981Y-138584038D01*
X82421600Y-138774514D01*
X82421600Y-139107848D01*
X82373981Y-139298324D01*
X82278743Y-139393562D01*
X82183505Y-139441181D01*
X81993028Y-139441181D01*
X81897790Y-139393562D01*
X81802552Y-139298324D01*
X81754933Y-139107848D01*
X81754933Y-138774514D01*
X81802552Y-138584038D01*
X81897790Y-138488800D01*
X81993028Y-138441181D01*
X82850171Y-138441181D02*
X82850171Y-139250705D01*
X82897790Y-139345943D01*
X82945409Y-139393562D01*
X83040647Y-139441181D01*
X83231124Y-139441181D01*
X83326362Y-139393562D01*
X83373981Y-139345943D01*
X83421600Y-139250705D01*
X83421600Y-138441181D01*
X83754933Y-138441181D02*
X84326362Y-138441181D01*
X84040647Y-139441181D02*
X84040647Y-138441181D01*
X85231124Y-139441181D02*
X84897790Y-138964990D01*
X84659695Y-139441181D02*
X84659695Y-138441181D01*
X85040648Y-138441181D01*
X85135886Y-138488800D01*
X85183505Y-138536419D01*
X85231124Y-138631657D01*
X85231124Y-138774514D01*
X85183505Y-138869752D01*
X85135886Y-138917371D01*
X85040648Y-138964990D01*
X84659695Y-138964990D01*
X85993029Y-138917371D02*
X85659695Y-138917371D01*
X85659695Y-139441181D02*
X85659695Y-138441181D01*
X86135886Y-138441181D01*
X60751529Y-45287586D02*
X60751529Y-44954252D01*
X60227719Y-44954252D02*
X61227719Y-44954252D01*
X61227719Y-45430443D01*
X60227719Y-45811395D02*
X61227719Y-45811395D01*
X60227719Y-46763776D02*
X60227719Y-46287585D01*
X61227719Y-46287585D01*
X61227719Y-46954252D02*
X61227719Y-47525681D01*
X60227719Y-47239966D02*
X61227719Y-47239966D01*
X60751529Y-47859014D02*
X60751529Y-48192348D01*
X60227719Y-48335205D02*
X60227719Y-47859014D01*
X61227719Y-47859014D01*
X61227719Y-48335205D01*
X60227719Y-49335205D02*
X60703910Y-49001871D01*
X60227719Y-48763776D02*
X61227719Y-48763776D01*
X61227719Y-49144729D01*
X61180100Y-49239967D01*
X61132481Y-49287586D01*
X61037243Y-49335205D01*
X60894386Y-49335205D01*
X60799148Y-49287586D01*
X60751529Y-49239967D01*
X60703910Y-49144729D01*
X60703910Y-48763776D01*
X60275338Y-50478062D02*
X60227719Y-50620919D01*
X60227719Y-50859015D01*
X60275338Y-50954253D01*
X60322957Y-51001872D01*
X60418195Y-51049491D01*
X60513433Y-51049491D01*
X60608671Y-51001872D01*
X60656290Y-50954253D01*
X60703910Y-50859015D01*
X60751529Y-50668538D01*
X60799148Y-50573300D01*
X60846767Y-50525681D01*
X60942005Y-50478062D01*
X61037243Y-50478062D01*
X61132481Y-50525681D01*
X61180100Y-50573300D01*
X61227719Y-50668538D01*
X61227719Y-50906634D01*
X61180100Y-51049491D01*
X60751529Y-51478062D02*
X60751529Y-51811396D01*
X60227719Y-51954253D02*
X60227719Y-51478062D01*
X61227719Y-51478062D01*
X61227719Y-51954253D01*
X60227719Y-52859015D02*
X60227719Y-52382824D01*
X61227719Y-52382824D01*
X60751529Y-53192348D02*
X60751529Y-53525682D01*
X60227719Y-53668539D02*
X60227719Y-53192348D01*
X61227719Y-53192348D01*
X61227719Y-53668539D01*
X60322957Y-54668539D02*
X60275338Y-54620920D01*
X60227719Y-54478063D01*
X60227719Y-54382825D01*
X60275338Y-54239967D01*
X60370576Y-54144729D01*
X60465814Y-54097110D01*
X60656290Y-54049491D01*
X60799148Y-54049491D01*
X60989624Y-54097110D01*
X61084862Y-54144729D01*
X61180100Y-54239967D01*
X61227719Y-54382825D01*
X61227719Y-54478063D01*
X61180100Y-54620920D01*
X61132481Y-54668539D01*
X61227719Y-54954253D02*
X61227719Y-55525682D01*
X60227719Y-55239967D02*
X61227719Y-55239967D01*
X61227719Y-56049491D02*
X61227719Y-56239968D01*
X61180100Y-56335206D01*
X61084862Y-56430444D01*
X60894386Y-56478063D01*
X60561052Y-56478063D01*
X60370576Y-56430444D01*
X60275338Y-56335206D01*
X60227719Y-56239968D01*
X60227719Y-56049491D01*
X60275338Y-55954253D01*
X60370576Y-55859015D01*
X60561052Y-55811396D01*
X60894386Y-55811396D01*
X61084862Y-55859015D01*
X61180100Y-55954253D01*
X61227719Y-56049491D01*
X60227719Y-57478063D02*
X60703910Y-57144729D01*
X60227719Y-56906634D02*
X61227719Y-56906634D01*
X61227719Y-57287587D01*
X61180100Y-57382825D01*
X61132481Y-57430444D01*
X61037243Y-57478063D01*
X60894386Y-57478063D01*
X60799148Y-57430444D01*
X60751529Y-57382825D01*
X60703910Y-57287587D01*
X60703910Y-56906634D01*
X60227719Y-58668539D02*
X61227719Y-58668539D01*
X61227719Y-59049492D01*
X61180100Y-59144730D01*
X61132481Y-59192349D01*
X61037243Y-59239968D01*
X60894386Y-59239968D01*
X60799148Y-59192349D01*
X60751529Y-59144730D01*
X60703910Y-59049492D01*
X60703910Y-58668539D01*
X60322957Y-60239968D02*
X60275338Y-60192349D01*
X60227719Y-60049492D01*
X60227719Y-59954254D01*
X60275338Y-59811396D01*
X60370576Y-59716158D01*
X60465814Y-59668539D01*
X60656290Y-59620920D01*
X60799148Y-59620920D01*
X60989624Y-59668539D01*
X61084862Y-59716158D01*
X61180100Y-59811396D01*
X61227719Y-59954254D01*
X61227719Y-60049492D01*
X61180100Y-60192349D01*
X61132481Y-60239968D01*
X60751529Y-61001873D02*
X60703910Y-61144730D01*
X60656290Y-61192349D01*
X60561052Y-61239968D01*
X60418195Y-61239968D01*
X60322957Y-61192349D01*
X60275338Y-61144730D01*
X60227719Y-61049492D01*
X60227719Y-60668539D01*
X61227719Y-60668539D01*
X61227719Y-61001873D01*
X61180100Y-61097111D01*
X61132481Y-61144730D01*
X61037243Y-61192349D01*
X60942005Y-61192349D01*
X60846767Y-61144730D01*
X60799148Y-61097111D01*
X60751529Y-61001873D01*
X60751529Y-60668539D01*
X58577719Y-45120919D02*
X59577719Y-45120919D01*
X58577719Y-45692348D02*
X59149148Y-45263776D01*
X59577719Y-45692348D02*
X59006290Y-45120919D01*
X59577719Y-46025681D02*
X58577719Y-46263776D01*
X59292005Y-46454253D01*
X58577719Y-46644729D01*
X59577719Y-46882824D01*
X59244386Y-47692348D02*
X58577719Y-47692348D01*
X59625338Y-47454252D02*
X58911052Y-47216157D01*
X58911052Y-47835205D01*
X59577719Y-48073300D02*
X59577719Y-48644729D01*
X58577719Y-48359014D02*
X59577719Y-48359014D01*
X58577719Y-48978062D02*
X59577719Y-48978062D01*
X58672957Y-50787586D02*
X58625338Y-50739967D01*
X58577719Y-50597110D01*
X58577719Y-50501872D01*
X58625338Y-50359014D01*
X58720576Y-50263776D01*
X58815814Y-50216157D01*
X59006290Y-50168538D01*
X59149148Y-50168538D01*
X59339624Y-50216157D01*
X59434862Y-50263776D01*
X59530100Y-50359014D01*
X59577719Y-50501872D01*
X59577719Y-50597110D01*
X59530100Y-50739967D01*
X59482481Y-50787586D01*
X58672957Y-51787586D02*
X58625338Y-51739967D01*
X58577719Y-51597110D01*
X58577719Y-51501872D01*
X58625338Y-51359014D01*
X58720576Y-51263776D01*
X58815814Y-51216157D01*
X59006290Y-51168538D01*
X59149148Y-51168538D01*
X59339624Y-51216157D01*
X59434862Y-51263776D01*
X59530100Y-51359014D01*
X59577719Y-51501872D01*
X59577719Y-51597110D01*
X59530100Y-51739967D01*
X59482481Y-51787586D01*
X58958671Y-52216157D02*
X58958671Y-52978062D01*
X59101529Y-53787586D02*
X59053910Y-53930443D01*
X59006290Y-53978062D01*
X58911052Y-54025681D01*
X58768195Y-54025681D01*
X58672957Y-53978062D01*
X58625338Y-53930443D01*
X58577719Y-53835205D01*
X58577719Y-53454252D01*
X59577719Y-53454252D01*
X59577719Y-53787586D01*
X59530100Y-53882824D01*
X59482481Y-53930443D01*
X59387243Y-53978062D01*
X59292005Y-53978062D01*
X59196767Y-53930443D01*
X59149148Y-53882824D01*
X59101529Y-53787586D01*
X59101529Y-53454252D01*
X59053910Y-54644728D02*
X58577719Y-54644728D01*
X59577719Y-54311395D02*
X59053910Y-54644728D01*
X59577719Y-54978062D01*
X58958671Y-55311395D02*
X58958671Y-56073300D01*
X58625338Y-56501871D02*
X58577719Y-56644728D01*
X58577719Y-56882824D01*
X58625338Y-56978062D01*
X58672957Y-57025681D01*
X58768195Y-57073300D01*
X58863433Y-57073300D01*
X58958671Y-57025681D01*
X59006290Y-56978062D01*
X59053910Y-56882824D01*
X59101529Y-56692347D01*
X59149148Y-56597109D01*
X59196767Y-56549490D01*
X59292005Y-56501871D01*
X59387243Y-56501871D01*
X59482481Y-56549490D01*
X59530100Y-56597109D01*
X59577719Y-56692347D01*
X59577719Y-56930443D01*
X59530100Y-57073300D01*
X58863433Y-57454252D02*
X58863433Y-57930443D01*
X58577719Y-57359014D02*
X59577719Y-57692347D01*
X58577719Y-58025681D01*
X59244386Y-59549491D02*
X58577719Y-59549491D01*
X59625338Y-59311395D02*
X58911052Y-59073300D01*
X58911052Y-59692348D01*
X58672957Y-60073300D02*
X58625338Y-60120919D01*
X58577719Y-60073300D01*
X58625338Y-60025681D01*
X58672957Y-60073300D01*
X58577719Y-60073300D01*
X59577719Y-60739966D02*
X59577719Y-60835205D01*
X59530100Y-60930443D01*
X59482481Y-60978062D01*
X59387243Y-61025681D01*
X59196767Y-61073300D01*
X58958671Y-61073300D01*
X58768195Y-61025681D01*
X58672957Y-60978062D01*
X58625338Y-60930443D01*
X58577719Y-60835205D01*
X58577719Y-60739966D01*
X58625338Y-60644728D01*
X58672957Y-60597109D01*
X58768195Y-60549490D01*
X58958671Y-60501871D01*
X59196767Y-60501871D01*
X59387243Y-60549490D01*
X59482481Y-60597109D01*
X59530100Y-60644728D01*
X59577719Y-60739966D01*
X63778379Y-112911381D02*
X62968855Y-112911381D01*
X62873617Y-112959000D01*
X62825998Y-113006619D01*
X62778379Y-113101857D01*
X62778379Y-113292334D01*
X62825998Y-113387572D01*
X62873617Y-113435191D01*
X62968855Y-113482810D01*
X63778379Y-113482810D01*
X62778379Y-114435191D02*
X62778379Y-113959000D01*
X63778379Y-113959000D01*
X62778379Y-114768524D02*
X63778379Y-114768524D01*
X62778379Y-115339953D01*
X63778379Y-115339953D01*
X63683141Y-115768524D02*
X63730760Y-115816143D01*
X63778379Y-115911381D01*
X63778379Y-116149477D01*
X63730760Y-116244715D01*
X63683141Y-116292334D01*
X63587903Y-116339953D01*
X63492665Y-116339953D01*
X63349808Y-116292334D01*
X62778379Y-115720905D01*
X62778379Y-116339953D01*
X63349808Y-116911381D02*
X63397427Y-116816143D01*
X63445046Y-116768524D01*
X63540284Y-116720905D01*
X63587903Y-116720905D01*
X63683141Y-116768524D01*
X63730760Y-116816143D01*
X63778379Y-116911381D01*
X63778379Y-117101858D01*
X63730760Y-117197096D01*
X63683141Y-117244715D01*
X63587903Y-117292334D01*
X63540284Y-117292334D01*
X63445046Y-117244715D01*
X63397427Y-117197096D01*
X63349808Y-117101858D01*
X63349808Y-116911381D01*
X63302189Y-116816143D01*
X63254570Y-116768524D01*
X63159331Y-116720905D01*
X62968855Y-116720905D01*
X62873617Y-116768524D01*
X62825998Y-116816143D01*
X62778379Y-116911381D01*
X62778379Y-117101858D01*
X62825998Y-117197096D01*
X62873617Y-117244715D01*
X62968855Y-117292334D01*
X63159331Y-117292334D01*
X63254570Y-117244715D01*
X63302189Y-117197096D01*
X63349808Y-117101858D01*
X63778379Y-117911381D02*
X63778379Y-118006620D01*
X63730760Y-118101858D01*
X63683141Y-118149477D01*
X63587903Y-118197096D01*
X63397427Y-118244715D01*
X63159331Y-118244715D01*
X62968855Y-118197096D01*
X62873617Y-118149477D01*
X62825998Y-118101858D01*
X62778379Y-118006620D01*
X62778379Y-117911381D01*
X62825998Y-117816143D01*
X62873617Y-117768524D01*
X62968855Y-117720905D01*
X63159331Y-117673286D01*
X63397427Y-117673286D01*
X63587903Y-117720905D01*
X63683141Y-117768524D01*
X63730760Y-117816143D01*
X63778379Y-117911381D01*
X63778379Y-118578048D02*
X63778379Y-119197096D01*
X63397427Y-118863762D01*
X63397427Y-119006620D01*
X63349808Y-119101858D01*
X63302189Y-119149477D01*
X63206950Y-119197096D01*
X62968855Y-119197096D01*
X62873617Y-119149477D01*
X62825998Y-119101858D01*
X62778379Y-119006620D01*
X62778379Y-118720905D01*
X62825998Y-118625667D01*
X62873617Y-118578048D01*
X63064093Y-119578048D02*
X63064093Y-120054239D01*
X62778379Y-119482810D02*
X63778379Y-119816143D01*
X62778379Y-120149477D01*
D12*
X121638600Y-74682800D02*
X121638600Y-69571800D01*
X121638600Y-66673800D02*
X121638600Y-61562800D01*
X128258600Y-74682800D02*
X128258600Y-69571800D01*
X128258600Y-66673800D02*
X128258600Y-61562800D01*
X121638600Y-74682800D02*
X128258600Y-74682800D01*
X121638600Y-61562800D02*
X128258600Y-61562800D01*
X103160100Y-121926800D02*
X103160100Y-116815800D01*
X103160100Y-113917800D02*
X103160100Y-108806800D01*
X109780100Y-121926800D02*
X109780100Y-116815800D01*
X109780100Y-113917800D02*
X109780100Y-108806800D01*
X103160100Y-121926800D02*
X109780100Y-121926800D01*
X103160100Y-108806800D02*
X109780100Y-108806800D01*
D13*
X80987100Y-33737700D02*
X68187100Y-34437700D01*
X80987100Y-29737700D02*
X68187100Y-30437700D01*
X80987100Y-30737700D02*
X68187100Y-31437700D01*
X80987100Y-32737700D02*
X68187100Y-33437700D01*
X80987100Y-31737700D02*
X68187100Y-32437700D01*
X80987100Y-27737700D02*
X68187100Y-28437700D01*
X80987100Y-28737700D02*
X68187100Y-29437700D01*
X80987100Y-26737700D02*
X68187100Y-27437700D01*
X80987100Y-25737700D02*
X68187100Y-26437700D01*
X68187100Y-25737700D02*
X68187100Y-34937700D01*
X80987100Y-25737700D02*
X80987100Y-34937700D01*
X69787100Y-13737700D02*
X69787100Y-25737700D01*
X79387100Y-13737700D02*
X79387100Y-25737700D01*
X79387100Y-13737700D02*
X69787100Y-13737700D01*
X80987100Y-25737700D02*
X68187100Y-25737700D01*
X67187100Y-34937700D02*
X67187100Y-48637700D01*
X81987100Y-48637700D02*
X81987100Y-34937700D01*
X81987100Y-48637700D02*
X67187100Y-48637700D01*
X81987100Y-34937700D02*
X67187100Y-34937700D01*
D12*
X83286600Y-43103800D02*
X93446600Y-43103800D01*
X83286600Y-41833800D02*
X83286600Y-49453800D01*
X83286600Y-49453800D02*
X93446600Y-49453800D01*
X93446600Y-49453800D02*
X93446600Y-41833800D01*
X93446600Y-41833800D02*
X83286600Y-41833800D01*
D13*
X66790100Y-145903800D02*
X79590100Y-145203800D01*
X66790100Y-149903800D02*
X79590100Y-149203800D01*
X66790100Y-148903800D02*
X79590100Y-148203800D01*
X66790100Y-146903800D02*
X79590100Y-146203800D01*
X66790100Y-147903800D02*
X79590100Y-147203800D01*
X66790100Y-151903800D02*
X79590100Y-151203800D01*
X66790100Y-150903800D02*
X79590100Y-150203800D01*
X66790100Y-152903800D02*
X79590100Y-152203800D01*
X66790100Y-153903800D02*
X79590100Y-153203800D01*
X79590100Y-153903800D02*
X79590100Y-144703800D01*
X66790100Y-153903800D02*
X66790100Y-144703800D01*
X77990100Y-165903800D02*
X77990100Y-153903800D01*
X68390100Y-165903800D02*
X68390100Y-153903800D01*
X68390100Y-165903800D02*
X77990100Y-165903800D01*
X66790100Y-153903800D02*
X79590100Y-153903800D01*
X80590100Y-144703800D02*
X80590100Y-131003800D01*
X65790100Y-131003800D02*
X65790100Y-144703800D01*
X65790100Y-131003800D02*
X80590100Y-131003800D01*
X65790100Y-144703800D02*
X80590100Y-144703800D01*
D12*
X91541600Y-136575800D02*
X81381600Y-136575800D01*
X91541600Y-137845800D02*
X91541600Y-130225800D01*
X91541600Y-130225800D02*
X81381600Y-130225800D01*
X81381600Y-130225800D02*
X81381600Y-137845800D01*
X81381600Y-137845800D02*
X91541600Y-137845800D01*
X47286000Y-135000000D02*
G75*
G03X47286000Y-135000000I-2286000J0D01*
G01*
X137286000Y-135000000D02*
G75*
G03X137286000Y-135000000I-2286000J0D01*
G01*
X137286000Y-45000000D02*
G75*
G03X137286000Y-45000000I-2286000J0D01*
G01*
X47286000Y-45000000D02*
G75*
G03X47286000Y-45000000I-2286000J0D01*
G01*
X103350600Y-106686800D02*
X103350600Y-101575800D01*
X103350600Y-98677800D02*
X103350600Y-93566800D01*
X109970600Y-106686800D02*
X109970600Y-101575800D01*
X109970600Y-98677800D02*
X109970600Y-93566800D01*
X103350600Y-106686800D02*
X109970600Y-106686800D01*
X103350600Y-93566800D02*
X109970600Y-93566800D01*
X103426800Y-137420800D02*
X103426800Y-132309800D01*
X103426800Y-129411800D02*
X103426800Y-124300800D01*
X110046800Y-137420800D02*
X110046800Y-132309800D01*
X110046800Y-129411800D02*
X110046800Y-124300800D01*
X103426800Y-137420800D02*
X110046800Y-137420800D01*
X103426800Y-124300800D02*
X110046800Y-124300800D01*
X121384600Y-59252300D02*
X121384600Y-54141300D01*
X121384600Y-51243300D02*
X121384600Y-46132300D01*
X128004600Y-59252300D02*
X128004600Y-54141300D01*
X128004600Y-51243300D02*
X128004600Y-46132300D01*
X121384600Y-59252300D02*
X128004600Y-59252300D01*
X121384600Y-46132300D02*
X128004600Y-46132300D01*
X121740200Y-91294400D02*
X121740200Y-86183400D01*
X121740200Y-83285400D02*
X121740200Y-78174400D01*
X128360200Y-91294400D02*
X128360200Y-86183400D01*
X128360200Y-83285400D02*
X128360200Y-78174400D01*
X121740200Y-91294400D02*
X128360200Y-91294400D01*
X121740200Y-78174400D02*
X128360200Y-78174400D01*
X121867200Y-106483600D02*
X121867200Y-101372600D01*
X121867200Y-98474600D02*
X121867200Y-93363600D01*
X128487200Y-106483600D02*
X128487200Y-101372600D01*
X128487200Y-98474600D02*
X128487200Y-93363600D01*
X121867200Y-106483600D02*
X128487200Y-106483600D01*
X121867200Y-93363600D02*
X128487200Y-93363600D01*
X121943400Y-121622000D02*
X121943400Y-116511000D01*
X121943400Y-113613000D02*
X121943400Y-108502000D01*
X128563400Y-121622000D02*
X128563400Y-116511000D01*
X128563400Y-113613000D02*
X128563400Y-108502000D01*
X121943400Y-121622000D02*
X128563400Y-121622000D01*
X121943400Y-108502000D02*
X128563400Y-108502000D01*
X121918000Y-136481000D02*
X121918000Y-131370000D01*
X121918000Y-128472000D02*
X121918000Y-123361000D01*
X128538000Y-136481000D02*
X128538000Y-131370000D01*
X128538000Y-128472000D02*
X128538000Y-123361000D01*
X121918000Y-136481000D02*
X128538000Y-136481000D01*
X121918000Y-123361000D02*
X128538000Y-123361000D01*
X99880100Y-49266800D02*
X99880100Y-56886800D01*
X94760100Y-49266800D02*
X94760100Y-56886800D01*
X99880100Y-49266800D02*
X98515100Y-49266800D01*
X96125100Y-49266800D02*
X94760100Y-49266800D01*
X99880100Y-56886800D02*
X98515100Y-56886800D01*
X96125100Y-56886800D02*
X94760100Y-56886800D01*
X99753100Y-64316300D02*
X99753100Y-71936300D01*
X94633100Y-64316300D02*
X94633100Y-71936300D01*
X99753100Y-64316300D02*
X98388100Y-64316300D01*
X95998100Y-64316300D02*
X94633100Y-64316300D01*
X99753100Y-71936300D02*
X98388100Y-71936300D01*
X95998100Y-71936300D02*
X94633100Y-71936300D01*
X99626100Y-80699300D02*
X99626100Y-88319300D01*
X94506100Y-80699300D02*
X94506100Y-88319300D01*
X99626100Y-80699300D02*
X98261100Y-80699300D01*
X95871100Y-80699300D02*
X94506100Y-80699300D01*
X99626100Y-88319300D02*
X98261100Y-88319300D01*
X95871100Y-88319300D02*
X94506100Y-88319300D01*
X99372100Y-95621800D02*
X99372100Y-103241800D01*
X94252100Y-95621800D02*
X94252100Y-103241800D01*
X99372100Y-95621800D02*
X98007100Y-95621800D01*
X95617100Y-95621800D02*
X94252100Y-95621800D01*
X99372100Y-103241800D02*
X98007100Y-103241800D01*
X95617100Y-103241800D02*
X94252100Y-103241800D01*
X99626100Y-111433300D02*
X99626100Y-119053300D01*
X94506100Y-111433300D02*
X94506100Y-119053300D01*
X99626100Y-111433300D02*
X98261100Y-111433300D01*
X95871100Y-111433300D02*
X94506100Y-111433300D01*
X99626100Y-119053300D02*
X98261100Y-119053300D01*
X95871100Y-119053300D02*
X94506100Y-119053300D01*
X99435600Y-126101800D02*
X99435600Y-133721800D01*
X94315600Y-126101800D02*
X94315600Y-133721800D01*
X99435600Y-126101800D02*
X98070600Y-126101800D01*
X95680600Y-126101800D02*
X94315600Y-126101800D01*
X99435600Y-133721800D02*
X98070600Y-133721800D01*
X95680600Y-133721800D02*
X94315600Y-133721800D01*
X113429100Y-56308300D02*
X113429100Y-48688300D01*
X118549100Y-56308300D02*
X118549100Y-48688300D01*
X113429100Y-56308300D02*
X114794100Y-56308300D01*
X117184100Y-56308300D02*
X118549100Y-56308300D01*
X113429100Y-48688300D02*
X114794100Y-48688300D01*
X117184100Y-48688300D02*
X118549100Y-48688300D01*
X113111600Y-71992800D02*
X113111600Y-64372800D01*
X118231600Y-71992800D02*
X118231600Y-64372800D01*
X113111600Y-71992800D02*
X114476600Y-71992800D01*
X116866600Y-71992800D02*
X118231600Y-71992800D01*
X113111600Y-64372800D02*
X114476600Y-64372800D01*
X116866600Y-64372800D02*
X118231600Y-64372800D01*
X113111600Y-88439300D02*
X113111600Y-80819300D01*
X118231600Y-88439300D02*
X118231600Y-80819300D01*
X113111600Y-88439300D02*
X114476600Y-88439300D01*
X116866600Y-88439300D02*
X118231600Y-88439300D01*
X113111600Y-80819300D02*
X114476600Y-80819300D01*
X116866600Y-80819300D02*
X118231600Y-80819300D01*
X113111600Y-103425300D02*
X113111600Y-95805300D01*
X118231600Y-103425300D02*
X118231600Y-95805300D01*
X113111600Y-103425300D02*
X114476600Y-103425300D01*
X116866600Y-103425300D02*
X118231600Y-103425300D01*
X113111600Y-95805300D02*
X114476600Y-95805300D01*
X116866600Y-95805300D02*
X118231600Y-95805300D01*
X113175100Y-119109800D02*
X113175100Y-111489800D01*
X118295100Y-119109800D02*
X118295100Y-111489800D01*
X113175100Y-119109800D02*
X114540100Y-119109800D01*
X116930100Y-119109800D02*
X118295100Y-119109800D01*
X113175100Y-111489800D02*
X114540100Y-111489800D01*
X116930100Y-111489800D02*
X118295100Y-111489800D01*
X113391000Y-133791000D02*
X113391000Y-126171000D01*
X118511000Y-133791000D02*
X118511000Y-126171000D01*
X113391000Y-133791000D02*
X114756000Y-133791000D01*
X117146000Y-133791000D02*
X118511000Y-133791000D01*
X113391000Y-126171000D02*
X114756000Y-126171000D01*
X117146000Y-126171000D02*
X118511000Y-126171000D01*
X137091100Y-50981300D02*
X137091100Y-58601300D01*
X131971100Y-50981300D02*
X131971100Y-58601300D01*
X137091100Y-50981300D02*
X135726100Y-50981300D01*
X133336100Y-50981300D02*
X131971100Y-50981300D01*
X137091100Y-58601300D02*
X135726100Y-58601300D01*
X133336100Y-58601300D02*
X131971100Y-58601300D01*
X136722800Y-64837000D02*
X136722800Y-72457000D01*
X131602800Y-64837000D02*
X131602800Y-72457000D01*
X136722800Y-64837000D02*
X135357800Y-64837000D01*
X132967800Y-64837000D02*
X131602800Y-64837000D01*
X136722800Y-72457000D02*
X135357800Y-72457000D01*
X132967800Y-72457000D02*
X131602800Y-72457000D01*
X136367200Y-80127800D02*
X136367200Y-87747800D01*
X131247200Y-80127800D02*
X131247200Y-87747800D01*
X136367200Y-80127800D02*
X135002200Y-80127800D01*
X132612200Y-80127800D02*
X131247200Y-80127800D01*
X136367200Y-87747800D02*
X135002200Y-87747800D01*
X132612200Y-87747800D02*
X131247200Y-87747800D01*
X136062400Y-95621800D02*
X136062400Y-103241800D01*
X130942400Y-95621800D02*
X130942400Y-103241800D01*
X136062400Y-95621800D02*
X134697400Y-95621800D01*
X132307400Y-95621800D02*
X130942400Y-95621800D01*
X136062400Y-103241800D02*
X134697400Y-103241800D01*
X132307400Y-103241800D02*
X130942400Y-103241800D01*
X136037000Y-111268200D02*
X136037000Y-118888200D01*
X130917000Y-111268200D02*
X130917000Y-118888200D01*
X136037000Y-111268200D02*
X134672000Y-111268200D01*
X132282000Y-111268200D02*
X130917000Y-111268200D01*
X136037000Y-118888200D02*
X134672000Y-118888200D01*
X132282000Y-118888200D02*
X130917000Y-118888200D01*
X136176700Y-122533100D02*
X136176700Y-130153100D01*
X131056700Y-122533100D02*
X131056700Y-130153100D01*
X136176700Y-122533100D02*
X134811700Y-122533100D01*
X132421700Y-122533100D02*
X131056700Y-122533100D01*
X136176700Y-130153100D02*
X134811700Y-130153100D01*
X132421700Y-130153100D02*
X131056700Y-130153100D01*
X103477600Y-59125300D02*
X103477600Y-54014300D01*
X103477600Y-51116300D02*
X103477600Y-46005300D01*
X110097600Y-59125300D02*
X110097600Y-54014300D01*
X110097600Y-51116300D02*
X110097600Y-46005300D01*
X103477600Y-59125300D02*
X110097600Y-59125300D01*
X103477600Y-46005300D02*
X110097600Y-46005300D01*
X103350600Y-75127300D02*
X103350600Y-70016300D01*
X103350600Y-67118300D02*
X103350600Y-62007300D01*
X109970600Y-75127300D02*
X109970600Y-70016300D01*
X109970600Y-67118300D02*
X109970600Y-62007300D01*
X103350600Y-75127300D02*
X109970600Y-75127300D01*
X103350600Y-62007300D02*
X109970600Y-62007300D01*
X103223600Y-90875300D02*
X103223600Y-85764300D01*
X103223600Y-82866300D02*
X103223600Y-77755300D01*
X109843600Y-90875300D02*
X109843600Y-85764300D01*
X109843600Y-82866300D02*
X109843600Y-77755300D01*
X103223600Y-90875300D02*
X109843600Y-90875300D01*
X103223600Y-77755300D02*
X109843600Y-77755300D01*
D14*
X71476100Y-59940200D02*
X92476100Y-59940200D01*
X92476100Y-49940200D02*
X71476100Y-49940200D01*
X71476100Y-49940200D02*
X71476100Y-59940200D01*
X85476100Y-53940200D02*
X90476100Y-53940200D01*
X90476100Y-53940200D02*
X90476100Y-51940200D01*
X85476100Y-55940200D02*
X90476100Y-55940200D01*
X90476100Y-55940200D02*
X90476100Y-57940200D01*
X85476100Y-57940200D02*
X85476100Y-56940200D01*
X85476100Y-51940200D02*
X85476100Y-52940200D01*
X80476100Y-57940200D02*
X80476100Y-55940200D01*
X80476100Y-55940200D02*
X87476100Y-56940200D01*
X80476100Y-51940200D02*
X80476100Y-53940200D01*
X80476100Y-53940200D02*
X87476100Y-52940200D01*
X92476100Y-59940200D02*
X92476100Y-49940200D01*
X76476100Y-55940200D02*
X76476100Y-58940200D01*
X74476100Y-50940200D02*
X76476100Y-50940200D01*
X76476100Y-50940200D02*
X76476100Y-53940200D01*
X76476100Y-53940200D02*
X74476100Y-53940200D01*
X74476100Y-53940200D02*
X74476100Y-55940200D01*
X74476100Y-55940200D02*
X78476100Y-55940200D01*
X78476100Y-55940200D02*
X78476100Y-53940200D01*
X78476100Y-53940200D02*
X76476100Y-53940200D01*
X74476100Y-58940200D02*
X76476100Y-58940200D01*
X71539600Y-75154800D02*
X92539600Y-75154800D01*
X92539600Y-65154800D02*
X71539600Y-65154800D01*
X71539600Y-65154800D02*
X71539600Y-75154800D01*
X85539600Y-69154800D02*
X90539600Y-69154800D01*
X90539600Y-69154800D02*
X90539600Y-67154800D01*
X85539600Y-71154800D02*
X90539600Y-71154800D01*
X90539600Y-71154800D02*
X90539600Y-73154800D01*
X85539600Y-73154800D02*
X85539600Y-72154800D01*
X85539600Y-67154800D02*
X85539600Y-68154800D01*
X80539600Y-73154800D02*
X80539600Y-71154800D01*
X80539600Y-71154800D02*
X87539600Y-72154800D01*
X80539600Y-67154800D02*
X80539600Y-69154800D01*
X80539600Y-69154800D02*
X87539600Y-68154800D01*
X92539600Y-75154800D02*
X92539600Y-65154800D01*
X76539600Y-71154800D02*
X76539600Y-74154800D01*
X74539600Y-66154800D02*
X76539600Y-66154800D01*
X76539600Y-66154800D02*
X76539600Y-69154800D01*
X76539600Y-69154800D02*
X74539600Y-69154800D01*
X74539600Y-69154800D02*
X74539600Y-71154800D01*
X74539600Y-71154800D02*
X78539600Y-71154800D01*
X78539600Y-71154800D02*
X78539600Y-69154800D01*
X78539600Y-69154800D02*
X76539600Y-69154800D01*
X74539600Y-74154800D02*
X76539600Y-74154800D01*
X71539600Y-88362800D02*
X92539600Y-88362800D01*
X92539600Y-78362800D02*
X71539600Y-78362800D01*
X71539600Y-78362800D02*
X71539600Y-88362800D01*
X85539600Y-82362800D02*
X90539600Y-82362800D01*
X90539600Y-82362800D02*
X90539600Y-80362800D01*
X85539600Y-84362800D02*
X90539600Y-84362800D01*
X90539600Y-84362800D02*
X90539600Y-86362800D01*
X85539600Y-86362800D02*
X85539600Y-85362800D01*
X85539600Y-80362800D02*
X85539600Y-81362800D01*
X80539600Y-86362800D02*
X80539600Y-84362800D01*
X80539600Y-84362800D02*
X87539600Y-85362800D01*
X80539600Y-80362800D02*
X80539600Y-82362800D01*
X80539600Y-82362800D02*
X87539600Y-81362800D01*
X92539600Y-88362800D02*
X92539600Y-78362800D01*
X76539600Y-84362800D02*
X76539600Y-87362800D01*
X74539600Y-79362800D02*
X76539600Y-79362800D01*
X76539600Y-79362800D02*
X76539600Y-82362800D01*
X76539600Y-82362800D02*
X74539600Y-82362800D01*
X74539600Y-82362800D02*
X74539600Y-84362800D01*
X74539600Y-84362800D02*
X78539600Y-84362800D01*
X78539600Y-84362800D02*
X78539600Y-82362800D01*
X78539600Y-82362800D02*
X76539600Y-82362800D01*
X74539600Y-87362800D02*
X76539600Y-87362800D01*
X71539600Y-102586800D02*
X92539600Y-102586800D01*
X92539600Y-92586800D02*
X71539600Y-92586800D01*
X71539600Y-92586800D02*
X71539600Y-102586800D01*
X85539600Y-96586800D02*
X90539600Y-96586800D01*
X90539600Y-96586800D02*
X90539600Y-94586800D01*
X85539600Y-98586800D02*
X90539600Y-98586800D01*
X90539600Y-98586800D02*
X90539600Y-100586800D01*
X85539600Y-100586800D02*
X85539600Y-99586800D01*
X85539600Y-94586800D02*
X85539600Y-95586800D01*
X80539600Y-100586800D02*
X80539600Y-98586800D01*
X80539600Y-98586800D02*
X87539600Y-99586800D01*
X80539600Y-94586800D02*
X80539600Y-96586800D01*
X80539600Y-96586800D02*
X87539600Y-95586800D01*
X92539600Y-102586800D02*
X92539600Y-92586800D01*
X76539600Y-98586800D02*
X76539600Y-101586800D01*
X74539600Y-93586800D02*
X76539600Y-93586800D01*
X76539600Y-93586800D02*
X76539600Y-96586800D01*
X76539600Y-96586800D02*
X74539600Y-96586800D01*
X74539600Y-96586800D02*
X74539600Y-98586800D01*
X74539600Y-98586800D02*
X78539600Y-98586800D01*
X78539600Y-98586800D02*
X78539600Y-96586800D01*
X78539600Y-96586800D02*
X76539600Y-96586800D01*
X74539600Y-101586800D02*
X76539600Y-101586800D01*
X71549760Y-117095280D02*
X92549760Y-117095280D01*
X92549760Y-107095280D02*
X71549760Y-107095280D01*
X71549760Y-107095280D02*
X71549760Y-117095280D01*
X85549760Y-111095280D02*
X90549760Y-111095280D01*
X90549760Y-111095280D02*
X90549760Y-109095280D01*
X85549760Y-113095280D02*
X90549760Y-113095280D01*
X90549760Y-113095280D02*
X90549760Y-115095280D01*
X85549760Y-115095280D02*
X85549760Y-114095280D01*
X85549760Y-109095280D02*
X85549760Y-110095280D01*
X80549760Y-115095280D02*
X80549760Y-113095280D01*
X80549760Y-113095280D02*
X87549760Y-114095280D01*
X80549760Y-109095280D02*
X80549760Y-111095280D01*
X80549760Y-111095280D02*
X87549760Y-110095280D01*
X92549760Y-117095280D02*
X92549760Y-107095280D01*
X76549760Y-113095280D02*
X76549760Y-116095280D01*
X74549760Y-108095280D02*
X76549760Y-108095280D01*
X76549760Y-108095280D02*
X76549760Y-111095280D01*
X76549760Y-111095280D02*
X74549760Y-111095280D01*
X74549760Y-111095280D02*
X74549760Y-113095280D01*
X74549760Y-113095280D02*
X78549760Y-113095280D01*
X78549760Y-113095280D02*
X78549760Y-111095280D01*
X78549760Y-111095280D02*
X76549760Y-111095280D01*
X74549760Y-116095280D02*
X76549760Y-116095280D01*
X71605640Y-129612400D02*
X92605640Y-129612400D01*
X92605640Y-119612400D02*
X71605640Y-119612400D01*
X71605640Y-119612400D02*
X71605640Y-129612400D01*
X85605640Y-123612400D02*
X90605640Y-123612400D01*
X90605640Y-123612400D02*
X90605640Y-121612400D01*
X85605640Y-125612400D02*
X90605640Y-125612400D01*
X90605640Y-125612400D02*
X90605640Y-127612400D01*
X85605640Y-127612400D02*
X85605640Y-126612400D01*
X85605640Y-121612400D02*
X85605640Y-122612400D01*
X80605640Y-127612400D02*
X80605640Y-125612400D01*
X80605640Y-125612400D02*
X87605640Y-126612400D01*
X80605640Y-121612400D02*
X80605640Y-123612400D01*
X80605640Y-123612400D02*
X87605640Y-122612400D01*
X92605640Y-129612400D02*
X92605640Y-119612400D01*
X76605640Y-125612400D02*
X76605640Y-128612400D01*
X74605640Y-120612400D02*
X76605640Y-120612400D01*
X76605640Y-120612400D02*
X76605640Y-123612400D01*
X76605640Y-123612400D02*
X74605640Y-123612400D01*
X74605640Y-123612400D02*
X74605640Y-125612400D01*
X74605640Y-125612400D02*
X78605640Y-125612400D01*
X78605640Y-125612400D02*
X78605640Y-123612400D01*
X78605640Y-123612400D02*
X76605640Y-123612400D01*
X74605640Y-128612400D02*
X76605640Y-128612400D01*
D12*
X64284100Y-105972300D02*
G75*
G02X62284100Y-105972300I-1000000J0D01*
G01*
X62284100Y-105972300D02*
X60634100Y-105972300D01*
X60634100Y-105972300D02*
X60634100Y-128952300D01*
X60634100Y-128952300D02*
X65934100Y-128952300D01*
X65934100Y-128952300D02*
X65934100Y-105972300D01*
X65934100Y-105972300D02*
X64284100Y-105972300D01*
X58144100Y-105912300D02*
X58144100Y-129012300D01*
X58144100Y-129012300D02*
X68424100Y-129012300D01*
X68424100Y-129012300D02*
X68424100Y-105912300D01*
X68424100Y-105912300D02*
X58144100Y-105912300D01*
X71943600Y-60970800D02*
X77063600Y-60970800D01*
X71943600Y-63590800D02*
X77063600Y-63590800D01*
X71943600Y-60970800D02*
X71943600Y-63590800D01*
X77063600Y-60970800D02*
X77063600Y-63590800D01*
X72007100Y-75385300D02*
X77127100Y-75385300D01*
X72007100Y-78005300D02*
X77127100Y-78005300D01*
X72007100Y-75385300D02*
X72007100Y-78005300D01*
X77127100Y-75385300D02*
X77127100Y-78005300D01*
X71388600Y-117930300D02*
X71388600Y-123050300D01*
X68768600Y-117930300D02*
X68768600Y-123050300D01*
X71388600Y-117930300D02*
X68768600Y-117930300D01*
X71388600Y-123050300D02*
X68768600Y-123050300D01*
X68641600Y-128868800D02*
X68641600Y-123748800D01*
X71261600Y-128868800D02*
X71261600Y-123748800D01*
X68641600Y-128868800D02*
X71261600Y-128868800D01*
X68641600Y-123748800D02*
X71261600Y-123748800D01*
X71689600Y-89164800D02*
X76809600Y-89164800D01*
X71689600Y-91784800D02*
X76809600Y-91784800D01*
X71689600Y-89164800D02*
X71689600Y-91784800D01*
X76809600Y-89164800D02*
X76809600Y-91784800D01*
X71943600Y-103388800D02*
X77063600Y-103388800D01*
X71943600Y-106008800D02*
X77063600Y-106008800D01*
X71943600Y-103388800D02*
X71943600Y-106008800D01*
X77063600Y-103388800D02*
X77063600Y-106008800D01*
X49845600Y-78115800D02*
X54965600Y-78115800D01*
X49845600Y-80735800D02*
X54965600Y-80735800D01*
X49845600Y-78115800D02*
X49845600Y-80735800D01*
X54965600Y-78115800D02*
X54965600Y-80735800D01*
X68823200Y-98321500D02*
X68823200Y-103441500D01*
X66203200Y-98321500D02*
X66203200Y-103441500D01*
X68823200Y-98321500D02*
X66203200Y-98321500D01*
X68823200Y-103441500D02*
X66203200Y-103441500D01*
X47131600Y-108929800D02*
X42011600Y-108929800D01*
X47131600Y-106309800D02*
X42011600Y-106309800D01*
X47131600Y-108929800D02*
X47131600Y-106309800D01*
X42011600Y-108929800D02*
X42011600Y-106309800D01*
X49083600Y-41158800D02*
X54203600Y-41158800D01*
X49083600Y-43778800D02*
X54203600Y-43778800D01*
X49083600Y-41158800D02*
X49083600Y-43778800D01*
X54203600Y-41158800D02*
X54203600Y-43778800D01*
X42860600Y-130075300D02*
X42860600Y-124955300D01*
X45480600Y-130075300D02*
X45480600Y-124955300D01*
X42860600Y-130075300D02*
X45480600Y-130075300D01*
X42860600Y-124955300D02*
X45480600Y-124955300D01*
X46877600Y-111850800D02*
X41757600Y-111850800D01*
X46877600Y-109230800D02*
X41757600Y-109230800D01*
X46877600Y-111850800D02*
X46877600Y-109230800D01*
X41757600Y-111850800D02*
X41757600Y-109230800D01*
X46877600Y-114898800D02*
X41757600Y-114898800D01*
X46877600Y-112278800D02*
X41757600Y-112278800D01*
X46877600Y-114898800D02*
X46877600Y-112278800D01*
X41757600Y-114898800D02*
X41757600Y-112278800D01*
X46877600Y-117692800D02*
X41757600Y-117692800D01*
X46877600Y-115072800D02*
X41757600Y-115072800D01*
X46877600Y-117692800D02*
X46877600Y-115072800D01*
X41757600Y-117692800D02*
X41757600Y-115072800D01*
X46877600Y-120740800D02*
X41757600Y-120740800D01*
X46877600Y-118120800D02*
X41757600Y-118120800D01*
X46877600Y-120740800D02*
X46877600Y-118120800D01*
X41757600Y-120740800D02*
X41757600Y-118120800D01*
X46877600Y-123534800D02*
X41757600Y-123534800D01*
X46877600Y-120914800D02*
X41757600Y-120914800D01*
X46877600Y-123534800D02*
X46877600Y-120914800D01*
X41757600Y-123534800D02*
X41757600Y-120914800D01*
X62545600Y-137778800D02*
X62545600Y-132658800D01*
X65165600Y-137778800D02*
X65165600Y-132658800D01*
X62545600Y-137778800D02*
X62859600Y-137778800D01*
X64851600Y-137778800D02*
X65165600Y-137778800D01*
X62545600Y-132658800D02*
X62859600Y-132658800D01*
X64851600Y-132658800D02*
X65165600Y-132658800D01*
X48702600Y-133885300D02*
X48702600Y-128765300D01*
X51322600Y-133885300D02*
X51322600Y-128765300D01*
X48702600Y-133885300D02*
X51322600Y-133885300D01*
X48702600Y-128765300D02*
X51322600Y-128765300D01*
X55152600Y-89645800D02*
X55152600Y-84445800D01*
X44932600Y-89645800D02*
X55152600Y-89645800D01*
X42332600Y-84445800D02*
X55152600Y-84445800D01*
X44932600Y-89645800D02*
X44932600Y-87045800D01*
X44932600Y-87045800D02*
X42332600Y-87045800D01*
X42332600Y-87045800D02*
X42332600Y-84445800D01*
X43662600Y-89645800D02*
X42332600Y-89645800D01*
X42332600Y-89645800D02*
X42332600Y-88315800D01*
X53819100Y-127809300D02*
X53819100Y-125149300D01*
X48679100Y-127809300D02*
X53819100Y-127809300D01*
X48679100Y-125149300D02*
X53819100Y-125149300D01*
X48679100Y-127809300D02*
X48679100Y-125149300D01*
X47409100Y-127809300D02*
X46079100Y-127809300D01*
X46079100Y-127809300D02*
X46079100Y-126479300D01*
X61096200Y-81880400D02*
X58436200Y-81880400D01*
X61096200Y-87020400D02*
X61096200Y-81880400D01*
X58436200Y-87020400D02*
X58436200Y-81880400D01*
X61096200Y-87020400D02*
X58436200Y-87020400D01*
X61096200Y-88290400D02*
X61096200Y-89620400D01*
X61096200Y-89620400D02*
X59766200Y-89620400D01*
X64697920Y-81824520D02*
X62037920Y-81824520D01*
X64697920Y-86964520D02*
X64697920Y-81824520D01*
X62037920Y-86964520D02*
X62037920Y-81824520D01*
X64697920Y-86964520D02*
X62037920Y-86964520D01*
X64697920Y-88234520D02*
X64697920Y-89564520D01*
X64697920Y-89564520D02*
X63367920Y-89564520D01*
X68248840Y-81855000D02*
X65588840Y-81855000D01*
X68248840Y-86995000D02*
X68248840Y-81855000D01*
X65588840Y-86995000D02*
X65588840Y-81855000D01*
X68248840Y-86995000D02*
X65588840Y-86995000D01*
X68248840Y-88265000D02*
X68248840Y-89595000D01*
X68248840Y-89595000D02*
X66918840Y-89595000D01*
X49715600Y-106332800D02*
X49715600Y-108652800D01*
X49715600Y-108652800D02*
X55135600Y-108652800D01*
X55135600Y-108652800D02*
X55135600Y-106332800D01*
X55135600Y-106332800D02*
X49715600Y-106332800D01*
X49595600Y-107492800D02*
X49715600Y-107492800D01*
X55255600Y-107492800D02*
X55135600Y-107492800D01*
X49715600Y-109380800D02*
X49715600Y-111700800D01*
X49715600Y-111700800D02*
X55135600Y-111700800D01*
X55135600Y-111700800D02*
X55135600Y-109380800D01*
X55135600Y-109380800D02*
X49715600Y-109380800D01*
X49595600Y-110540800D02*
X49715600Y-110540800D01*
X55255600Y-110540800D02*
X55135600Y-110540800D01*
X49715600Y-112428800D02*
X49715600Y-114748800D01*
X49715600Y-114748800D02*
X55135600Y-114748800D01*
X55135600Y-114748800D02*
X55135600Y-112428800D01*
X55135600Y-112428800D02*
X49715600Y-112428800D01*
X49595600Y-113588800D02*
X49715600Y-113588800D01*
X55255600Y-113588800D02*
X55135600Y-113588800D01*
X49715600Y-115476800D02*
X49715600Y-117796800D01*
X49715600Y-117796800D02*
X55135600Y-117796800D01*
X55135600Y-117796800D02*
X55135600Y-115476800D01*
X55135600Y-115476800D02*
X49715600Y-115476800D01*
X49595600Y-116636800D02*
X49715600Y-116636800D01*
X55255600Y-116636800D02*
X55135600Y-116636800D01*
X49715600Y-118270800D02*
X49715600Y-120590800D01*
X49715600Y-120590800D02*
X55135600Y-120590800D01*
X55135600Y-120590800D02*
X55135600Y-118270800D01*
X55135600Y-118270800D02*
X49715600Y-118270800D01*
X49595600Y-119430800D02*
X49715600Y-119430800D01*
X55255600Y-119430800D02*
X55135600Y-119430800D01*
X49715600Y-121064800D02*
X49715600Y-123384800D01*
X49715600Y-123384800D02*
X55135600Y-123384800D01*
X55135600Y-123384800D02*
X55135600Y-121064800D01*
X55135600Y-121064800D02*
X49715600Y-121064800D01*
X49595600Y-122224800D02*
X49715600Y-122224800D01*
X55255600Y-122224800D02*
X55135600Y-122224800D01*
X54605100Y-131986800D02*
X54605100Y-134306800D01*
X54605100Y-134306800D02*
X60025100Y-134306800D01*
X60025100Y-134306800D02*
X60025100Y-131986800D01*
X60025100Y-131986800D02*
X54605100Y-131986800D01*
X54485100Y-133146800D02*
X54605100Y-133146800D01*
X60145100Y-133146800D02*
X60025100Y-133146800D01*
X54668600Y-136050800D02*
X54668600Y-138370800D01*
X54668600Y-138370800D02*
X60088600Y-138370800D01*
X60088600Y-138370800D02*
X60088600Y-136050800D01*
X60088600Y-136050800D02*
X54668600Y-136050800D01*
X54548600Y-137210800D02*
X54668600Y-137210800D01*
X60208600Y-137210800D02*
X60088600Y-137210800D01*
X45023600Y-72659800D02*
X45353600Y-72659800D01*
X45353600Y-72659800D02*
X45353600Y-79079800D01*
X45353600Y-79079800D02*
X45023600Y-79079800D01*
X43063600Y-72659800D02*
X42733600Y-72659800D01*
X42733600Y-72659800D02*
X42733600Y-79079800D01*
X42733600Y-79079800D02*
X43063600Y-79079800D01*
X48366240Y-72685200D02*
X48696240Y-72685200D01*
X48696240Y-72685200D02*
X48696240Y-79105200D01*
X48696240Y-79105200D02*
X48366240Y-79105200D01*
X46406240Y-72685200D02*
X46076240Y-72685200D01*
X46076240Y-72685200D02*
X46076240Y-79105200D01*
X46076240Y-79105200D02*
X46406240Y-79105200D01*
X65757100Y-99221800D02*
G75*
G02X65757100Y-97221800I0J1000000D01*
G01*
X65757100Y-97221800D02*
X65757100Y-95571800D01*
X65757100Y-95571800D02*
X42777100Y-95571800D01*
X42777100Y-95571800D02*
X42777100Y-100871800D01*
X42777100Y-100871800D02*
X65757100Y-100871800D01*
X65757100Y-100871800D02*
X65757100Y-99221800D01*
X65817100Y-93081800D02*
X42717100Y-93081800D01*
X42717100Y-93081800D02*
X42717100Y-103361800D01*
X42717100Y-103361800D02*
X65817100Y-103361800D01*
X65817100Y-103361800D02*
X65817100Y-93081800D01*
X51386100Y-134313300D02*
X51386100Y-139433300D01*
X48766100Y-134313300D02*
X48766100Y-139433300D01*
X51386100Y-134313300D02*
X48766100Y-134313300D01*
X51386100Y-139433300D02*
X48766100Y-139433300D01*
X51373464Y-71347980D02*
G75*
G03X51372600Y-77383282I1179136J-3017820D01*
G01*
X53731736Y-71347980D02*
G75*
G02X53732600Y-77383282I-1179136J-3017820D01*
G01*
X53731736Y-71347980D02*
G75*
G03X51372600Y-71348318I-1179136J-3017820D01*
G01*
X49352600Y-74365800D02*
X55752600Y-74365800D01*
X49352600Y-74325800D02*
X55752600Y-74325800D01*
X49352600Y-74285800D02*
X55752600Y-74285800D01*
X49354600Y-74245800D02*
X55750600Y-74245800D01*
X49355600Y-74205800D02*
X55749600Y-74205800D01*
X49358600Y-74165800D02*
X55746600Y-74165800D01*
X49360600Y-74125800D02*
X55744600Y-74125800D01*
X49364600Y-74085800D02*
X51572600Y-74085800D01*
X53532600Y-74085800D02*
X55740600Y-74085800D01*
X49367600Y-74045800D02*
X51572600Y-74045800D01*
X53532600Y-74045800D02*
X55737600Y-74045800D01*
X49372600Y-74005800D02*
X51572600Y-74005800D01*
X53532600Y-74005800D02*
X55732600Y-74005800D01*
X49376600Y-73965800D02*
X51572600Y-73965800D01*
X53532600Y-73965800D02*
X55728600Y-73965800D01*
X49382600Y-73925800D02*
X51572600Y-73925800D01*
X53532600Y-73925800D02*
X55722600Y-73925800D01*
X49387600Y-73885800D02*
X51572600Y-73885800D01*
X53532600Y-73885800D02*
X55717600Y-73885800D01*
X49394600Y-73845800D02*
X51572600Y-73845800D01*
X53532600Y-73845800D02*
X55710600Y-73845800D01*
X49400600Y-73805800D02*
X51572600Y-73805800D01*
X53532600Y-73805800D02*
X55704600Y-73805800D01*
X49408600Y-73765800D02*
X51572600Y-73765800D01*
X53532600Y-73765800D02*
X55696600Y-73765800D01*
X49415600Y-73725800D02*
X51572600Y-73725800D01*
X53532600Y-73725800D02*
X55689600Y-73725800D01*
X49424600Y-73685800D02*
X51572600Y-73685800D01*
X53532600Y-73685800D02*
X55680600Y-73685800D01*
X49433600Y-73644800D02*
X51572600Y-73644800D01*
X53532600Y-73644800D02*
X55671600Y-73644800D01*
X49442600Y-73604800D02*
X51572600Y-73604800D01*
X53532600Y-73604800D02*
X55662600Y-73604800D01*
X49452600Y-73564800D02*
X51572600Y-73564800D01*
X53532600Y-73564800D02*
X55652600Y-73564800D01*
X49462600Y-73524800D02*
X51572600Y-73524800D01*
X53532600Y-73524800D02*
X55642600Y-73524800D01*
X49473600Y-73484800D02*
X51572600Y-73484800D01*
X53532600Y-73484800D02*
X55631600Y-73484800D01*
X49485600Y-73444800D02*
X51572600Y-73444800D01*
X53532600Y-73444800D02*
X55619600Y-73444800D01*
X49497600Y-73404800D02*
X51572600Y-73404800D01*
X53532600Y-73404800D02*
X55607600Y-73404800D01*
X49510600Y-73364800D02*
X51572600Y-73364800D01*
X53532600Y-73364800D02*
X55594600Y-73364800D01*
X49523600Y-73324800D02*
X51572600Y-73324800D01*
X53532600Y-73324800D02*
X55581600Y-73324800D01*
X49537600Y-73284800D02*
X51572600Y-73284800D01*
X53532600Y-73284800D02*
X55567600Y-73284800D01*
X49551600Y-73244800D02*
X51572600Y-73244800D01*
X53532600Y-73244800D02*
X55553600Y-73244800D01*
X49566600Y-73204800D02*
X51572600Y-73204800D01*
X53532600Y-73204800D02*
X55538600Y-73204800D01*
X49582600Y-73164800D02*
X51572600Y-73164800D01*
X53532600Y-73164800D02*
X55522600Y-73164800D01*
X49598600Y-73124800D02*
X51572600Y-73124800D01*
X53532600Y-73124800D02*
X55506600Y-73124800D01*
X49615600Y-73084800D02*
X51572600Y-73084800D01*
X53532600Y-73084800D02*
X55489600Y-73084800D01*
X49633600Y-73044800D02*
X51572600Y-73044800D01*
X53532600Y-73044800D02*
X55471600Y-73044800D01*
X49651600Y-73004800D02*
X51572600Y-73004800D01*
X53532600Y-73004800D02*
X55453600Y-73004800D01*
X49670600Y-72964800D02*
X51572600Y-72964800D01*
X53532600Y-72964800D02*
X55434600Y-72964800D01*
X49689600Y-72924800D02*
X51572600Y-72924800D01*
X53532600Y-72924800D02*
X55415600Y-72924800D01*
X49709600Y-72884800D02*
X51572600Y-72884800D01*
X53532600Y-72884800D02*
X55395600Y-72884800D01*
X49730600Y-72844800D02*
X51572600Y-72844800D01*
X53532600Y-72844800D02*
X55374600Y-72844800D01*
X49752600Y-72804800D02*
X51572600Y-72804800D01*
X53532600Y-72804800D02*
X55352600Y-72804800D01*
X49774600Y-72764800D02*
X51572600Y-72764800D01*
X53532600Y-72764800D02*
X55330600Y-72764800D01*
X49797600Y-72724800D02*
X51572600Y-72724800D01*
X53532600Y-72724800D02*
X55307600Y-72724800D01*
X49821600Y-72684800D02*
X51572600Y-72684800D01*
X53532600Y-72684800D02*
X55283600Y-72684800D01*
X49846600Y-72644800D02*
X51572600Y-72644800D01*
X53532600Y-72644800D02*
X55258600Y-72644800D01*
X49871600Y-72604800D02*
X51572600Y-72604800D01*
X53532600Y-72604800D02*
X55233600Y-72604800D01*
X49898600Y-72564800D02*
X51572600Y-72564800D01*
X53532600Y-72564800D02*
X55206600Y-72564800D01*
X49925600Y-72524800D02*
X51572600Y-72524800D01*
X53532600Y-72524800D02*
X55179600Y-72524800D01*
X49953600Y-72484800D02*
X51572600Y-72484800D01*
X53532600Y-72484800D02*
X55151600Y-72484800D01*
X49982600Y-72444800D02*
X51572600Y-72444800D01*
X53532600Y-72444800D02*
X55122600Y-72444800D01*
X50012600Y-72404800D02*
X51572600Y-72404800D01*
X53532600Y-72404800D02*
X55092600Y-72404800D01*
X50042600Y-72364800D02*
X51572600Y-72364800D01*
X53532600Y-72364800D02*
X55062600Y-72364800D01*
X50074600Y-72324800D02*
X51572600Y-72324800D01*
X53532600Y-72324800D02*
X55030600Y-72324800D01*
X50107600Y-72284800D02*
X51572600Y-72284800D01*
X53532600Y-72284800D02*
X54997600Y-72284800D01*
X50141600Y-72244800D02*
X51572600Y-72244800D01*
X53532600Y-72244800D02*
X54963600Y-72244800D01*
X50177600Y-72204800D02*
X51572600Y-72204800D01*
X53532600Y-72204800D02*
X54927600Y-72204800D01*
X50213600Y-72164800D02*
X51572600Y-72164800D01*
X53532600Y-72164800D02*
X54891600Y-72164800D01*
X50251600Y-72124800D02*
X54853600Y-72124800D01*
X50290600Y-72084800D02*
X54814600Y-72084800D01*
X50330600Y-72044800D02*
X54774600Y-72044800D01*
X50372600Y-72004800D02*
X54732600Y-72004800D01*
X50415600Y-71964800D02*
X54689600Y-71964800D01*
X50460600Y-71924800D02*
X54644600Y-71924800D01*
X50507600Y-71884800D02*
X54597600Y-71884800D01*
X50555600Y-71844800D02*
X54549600Y-71844800D01*
X50606600Y-71804800D02*
X54498600Y-71804800D01*
X50658600Y-71764800D02*
X54446600Y-71764800D01*
X50713600Y-71724800D02*
X54391600Y-71724800D01*
X50771600Y-71684800D02*
X54333600Y-71684800D01*
X50831600Y-71644800D02*
X54273600Y-71644800D01*
X50894600Y-71604800D02*
X54210600Y-71604800D01*
X50961600Y-71564800D02*
X54143600Y-71564800D01*
X51032600Y-71524800D02*
X54072600Y-71524800D01*
X51107600Y-71484800D02*
X53997600Y-71484800D01*
X51188600Y-71444800D02*
X53916600Y-71444800D01*
X51274600Y-71404800D02*
X53830600Y-71404800D01*
X51368600Y-71364800D02*
X53736600Y-71364800D01*
X51471600Y-71324800D02*
X53633600Y-71324800D01*
X51586600Y-71284800D02*
X53518600Y-71284800D01*
X51718600Y-71244800D02*
X53386600Y-71244800D01*
X51876600Y-71204800D02*
X53228600Y-71204800D01*
X52084600Y-71164800D02*
X53020600Y-71164800D01*
X52552600Y-77815800D02*
X52552600Y-76615800D01*
X51902600Y-77215800D02*
X53202600Y-77215800D01*
D11*
X120213381Y-68162466D02*
X120213381Y-68638657D01*
X119213381Y-68638657D01*
X119641952Y-67686276D02*
X119594333Y-67781514D01*
X119546714Y-67829133D01*
X119451476Y-67876752D01*
X119403857Y-67876752D01*
X119308619Y-67829133D01*
X119261000Y-67781514D01*
X119213381Y-67686276D01*
X119213381Y-67495799D01*
X119261000Y-67400561D01*
X119308619Y-67352942D01*
X119403857Y-67305323D01*
X119451476Y-67305323D01*
X119546714Y-67352942D01*
X119594333Y-67400561D01*
X119641952Y-67495799D01*
X119641952Y-67686276D01*
X119689571Y-67781514D01*
X119737190Y-67829133D01*
X119832429Y-67876752D01*
X120022905Y-67876752D01*
X120118143Y-67829133D01*
X120165762Y-67781514D01*
X120213381Y-67686276D01*
X120213381Y-67495799D01*
X120165762Y-67400561D01*
X120118143Y-67352942D01*
X120022905Y-67305323D01*
X119832429Y-67305323D01*
X119737190Y-67352942D01*
X119689571Y-67400561D01*
X119641952Y-67495799D01*
X101493581Y-115609666D02*
X101493581Y-116085857D01*
X100493581Y-116085857D01*
X100493581Y-114800142D02*
X100493581Y-115276333D01*
X100969771Y-115323952D01*
X100922152Y-115276333D01*
X100874533Y-115181095D01*
X100874533Y-114942999D01*
X100922152Y-114847761D01*
X100969771Y-114800142D01*
X101065010Y-114752523D01*
X101303105Y-114752523D01*
X101398343Y-114800142D01*
X101445962Y-114847761D01*
X101493581Y-114942999D01*
X101493581Y-115181095D01*
X101445962Y-115276333D01*
X101398343Y-115323952D01*
D14*
X82319881Y-45062733D02*
X83034167Y-45062733D01*
X83177024Y-45110353D01*
X83272262Y-45205591D01*
X83319881Y-45348448D01*
X83319881Y-45443686D01*
X83319881Y-44062733D02*
X83319881Y-44634162D01*
X83319881Y-44348448D02*
X82319881Y-44348448D01*
X82462738Y-44443686D01*
X82557976Y-44538924D01*
X82605595Y-44634162D01*
X69675264Y-45404043D02*
X69627645Y-45451662D01*
X69484788Y-45499281D01*
X69389550Y-45499281D01*
X69246692Y-45451662D01*
X69151454Y-45356424D01*
X69103835Y-45261186D01*
X69056216Y-45070710D01*
X69056216Y-44927852D01*
X69103835Y-44737376D01*
X69151454Y-44642138D01*
X69246692Y-44546900D01*
X69389550Y-44499281D01*
X69484788Y-44499281D01*
X69627645Y-44546900D01*
X69675264Y-44594519D01*
X70246692Y-45499281D02*
X70151454Y-45451662D01*
X70103835Y-45404043D01*
X70056216Y-45308805D01*
X70056216Y-45023090D01*
X70103835Y-44927852D01*
X70151454Y-44880233D01*
X70246692Y-44832614D01*
X70389550Y-44832614D01*
X70484788Y-44880233D01*
X70532407Y-44927852D01*
X70580026Y-45023090D01*
X70580026Y-45308805D01*
X70532407Y-45404043D01*
X70484788Y-45451662D01*
X70389550Y-45499281D01*
X70246692Y-45499281D01*
X71008597Y-44832614D02*
X71008597Y-45499281D01*
X71008597Y-44927852D02*
X71056216Y-44880233D01*
X71151454Y-44832614D01*
X71294312Y-44832614D01*
X71389550Y-44880233D01*
X71437169Y-44975471D01*
X71437169Y-45499281D01*
X71913359Y-44832614D02*
X71913359Y-45499281D01*
X71913359Y-44927852D02*
X71960978Y-44880233D01*
X72056216Y-44832614D01*
X72199074Y-44832614D01*
X72294312Y-44880233D01*
X72341931Y-44975471D01*
X72341931Y-45499281D01*
X72580026Y-45594519D02*
X73341931Y-45594519D01*
X74151455Y-45404043D02*
X74103836Y-45451662D01*
X73960979Y-45499281D01*
X73865741Y-45499281D01*
X73722883Y-45451662D01*
X73627645Y-45356424D01*
X73580026Y-45261186D01*
X73532407Y-45070710D01*
X73532407Y-44927852D01*
X73580026Y-44737376D01*
X73627645Y-44642138D01*
X73722883Y-44546900D01*
X73865741Y-44499281D01*
X73960979Y-44499281D01*
X74103836Y-44546900D01*
X74151455Y-44594519D01*
X74722883Y-45499281D02*
X74627645Y-45451662D01*
X74580026Y-45404043D01*
X74532407Y-45308805D01*
X74532407Y-45023090D01*
X74580026Y-44927852D01*
X74627645Y-44880233D01*
X74722883Y-44832614D01*
X74865741Y-44832614D01*
X74960979Y-44880233D01*
X75008598Y-44927852D01*
X75056217Y-45023090D01*
X75056217Y-45308805D01*
X75008598Y-45404043D01*
X74960979Y-45451662D01*
X74865741Y-45499281D01*
X74722883Y-45499281D01*
X75913360Y-45499281D02*
X75913360Y-44975471D01*
X75865741Y-44880233D01*
X75770503Y-44832614D01*
X75580026Y-44832614D01*
X75484788Y-44880233D01*
X75913360Y-45451662D02*
X75818122Y-45499281D01*
X75580026Y-45499281D01*
X75484788Y-45451662D01*
X75437169Y-45356424D01*
X75437169Y-45261186D01*
X75484788Y-45165948D01*
X75580026Y-45118329D01*
X75818122Y-45118329D01*
X75913360Y-45070710D01*
X76294312Y-45499281D02*
X76818122Y-44832614D01*
X76294312Y-44832614D02*
X76818122Y-45499281D01*
X77199074Y-45499281D02*
X77199074Y-44832614D01*
X77199074Y-44499281D02*
X77151455Y-44546900D01*
X77199074Y-44594519D01*
X77246693Y-44546900D01*
X77199074Y-44499281D01*
X77199074Y-44594519D01*
X78103836Y-45499281D02*
X78103836Y-44975471D01*
X78056217Y-44880233D01*
X77960979Y-44832614D01*
X77770502Y-44832614D01*
X77675264Y-44880233D01*
X78103836Y-45451662D02*
X78008598Y-45499281D01*
X77770502Y-45499281D01*
X77675264Y-45451662D01*
X77627645Y-45356424D01*
X77627645Y-45261186D01*
X77675264Y-45165948D01*
X77770502Y-45118329D01*
X78008598Y-45118329D01*
X78103836Y-45070710D01*
X78722883Y-45499281D02*
X78627645Y-45451662D01*
X78580026Y-45356424D01*
X78580026Y-44499281D01*
D11*
X93955621Y-45776473D02*
X94669907Y-45776473D01*
X94812764Y-45824093D01*
X94908002Y-45919331D01*
X94955621Y-46062188D01*
X94955621Y-46157426D01*
X94050859Y-45347902D02*
X94003240Y-45300283D01*
X93955621Y-45205045D01*
X93955621Y-44966949D01*
X94003240Y-44871711D01*
X94050859Y-44824092D01*
X94146097Y-44776473D01*
X94241335Y-44776473D01*
X94384192Y-44824092D01*
X94955621Y-45395521D01*
X94955621Y-44776473D01*
D14*
X72983767Y-136663181D02*
X72983767Y-137377467D01*
X72936147Y-137520324D01*
X72840909Y-137615562D01*
X72698052Y-137663181D01*
X72602814Y-137663181D01*
X73364719Y-136663181D02*
X73983767Y-136663181D01*
X73650433Y-137044133D01*
X73793291Y-137044133D01*
X73888529Y-137091752D01*
X73936148Y-137139371D01*
X73983767Y-137234610D01*
X73983767Y-137472705D01*
X73936148Y-137567943D01*
X73888529Y-137615562D01*
X73793291Y-137663181D01*
X73507576Y-137663181D01*
X73412338Y-137615562D01*
X73364719Y-137567943D01*
X68872624Y-135104143D02*
X68825005Y-135151762D01*
X68682148Y-135199381D01*
X68586910Y-135199381D01*
X68444052Y-135151762D01*
X68348814Y-135056524D01*
X68301195Y-134961286D01*
X68253576Y-134770810D01*
X68253576Y-134627952D01*
X68301195Y-134437476D01*
X68348814Y-134342238D01*
X68444052Y-134247000D01*
X68586910Y-134199381D01*
X68682148Y-134199381D01*
X68825005Y-134247000D01*
X68872624Y-134294619D01*
X69444052Y-135199381D02*
X69348814Y-135151762D01*
X69301195Y-135104143D01*
X69253576Y-135008905D01*
X69253576Y-134723190D01*
X69301195Y-134627952D01*
X69348814Y-134580333D01*
X69444052Y-134532714D01*
X69586910Y-134532714D01*
X69682148Y-134580333D01*
X69729767Y-134627952D01*
X69777386Y-134723190D01*
X69777386Y-135008905D01*
X69729767Y-135104143D01*
X69682148Y-135151762D01*
X69586910Y-135199381D01*
X69444052Y-135199381D01*
X70205957Y-134532714D02*
X70205957Y-135199381D01*
X70205957Y-134627952D02*
X70253576Y-134580333D01*
X70348814Y-134532714D01*
X70491672Y-134532714D01*
X70586910Y-134580333D01*
X70634529Y-134675571D01*
X70634529Y-135199381D01*
X71110719Y-134532714D02*
X71110719Y-135199381D01*
X71110719Y-134627952D02*
X71158338Y-134580333D01*
X71253576Y-134532714D01*
X71396434Y-134532714D01*
X71491672Y-134580333D01*
X71539291Y-134675571D01*
X71539291Y-135199381D01*
X71777386Y-135294619D02*
X72539291Y-135294619D01*
X73348815Y-135104143D02*
X73301196Y-135151762D01*
X73158339Y-135199381D01*
X73063101Y-135199381D01*
X72920243Y-135151762D01*
X72825005Y-135056524D01*
X72777386Y-134961286D01*
X72729767Y-134770810D01*
X72729767Y-134627952D01*
X72777386Y-134437476D01*
X72825005Y-134342238D01*
X72920243Y-134247000D01*
X73063101Y-134199381D01*
X73158339Y-134199381D01*
X73301196Y-134247000D01*
X73348815Y-134294619D01*
X73920243Y-135199381D02*
X73825005Y-135151762D01*
X73777386Y-135104143D01*
X73729767Y-135008905D01*
X73729767Y-134723190D01*
X73777386Y-134627952D01*
X73825005Y-134580333D01*
X73920243Y-134532714D01*
X74063101Y-134532714D01*
X74158339Y-134580333D01*
X74205958Y-134627952D01*
X74253577Y-134723190D01*
X74253577Y-135008905D01*
X74205958Y-135104143D01*
X74158339Y-135151762D01*
X74063101Y-135199381D01*
X73920243Y-135199381D01*
X75110720Y-135199381D02*
X75110720Y-134675571D01*
X75063101Y-134580333D01*
X74967863Y-134532714D01*
X74777386Y-134532714D01*
X74682148Y-134580333D01*
X75110720Y-135151762D02*
X75015482Y-135199381D01*
X74777386Y-135199381D01*
X74682148Y-135151762D01*
X74634529Y-135056524D01*
X74634529Y-134961286D01*
X74682148Y-134866048D01*
X74777386Y-134818429D01*
X75015482Y-134818429D01*
X75110720Y-134770810D01*
X75491672Y-135199381D02*
X76015482Y-134532714D01*
X75491672Y-134532714D02*
X76015482Y-135199381D01*
X76396434Y-135199381D02*
X76396434Y-134532714D01*
X76396434Y-134199381D02*
X76348815Y-134247000D01*
X76396434Y-134294619D01*
X76444053Y-134247000D01*
X76396434Y-134199381D01*
X76396434Y-134294619D01*
X77301196Y-135199381D02*
X77301196Y-134675571D01*
X77253577Y-134580333D01*
X77158339Y-134532714D01*
X76967862Y-134532714D01*
X76872624Y-134580333D01*
X77301196Y-135151762D02*
X77205958Y-135199381D01*
X76967862Y-135199381D01*
X76872624Y-135151762D01*
X76825005Y-135056524D01*
X76825005Y-134961286D01*
X76872624Y-134866048D01*
X76967862Y-134818429D01*
X77205958Y-134818429D01*
X77301196Y-134770810D01*
X77920243Y-135199381D02*
X77825005Y-135151762D01*
X77777386Y-135056524D01*
X77777386Y-134199381D01*
D11*
X92175081Y-134546933D02*
X92889367Y-134546933D01*
X93032224Y-134594553D01*
X93127462Y-134689791D01*
X93175081Y-134832648D01*
X93175081Y-134927886D01*
X92175081Y-133594552D02*
X92175081Y-134070743D01*
X92651271Y-134118362D01*
X92603652Y-134070743D01*
X92556033Y-133975505D01*
X92556033Y-133737409D01*
X92603652Y-133642171D01*
X92651271Y-133594552D01*
X92746510Y-133546933D01*
X92984605Y-133546933D01*
X93079843Y-133594552D01*
X93127462Y-133642171D01*
X93175081Y-133737409D01*
X93175081Y-133975505D01*
X93127462Y-134070743D01*
X93079843Y-134118362D01*
X44666667Y-131404381D02*
X44666667Y-132118667D01*
X44619047Y-132261524D01*
X44523809Y-132356762D01*
X44380952Y-132404381D01*
X44285714Y-132404381D01*
X45571429Y-131404381D02*
X45380952Y-131404381D01*
X45285714Y-131452000D01*
X45238095Y-131499619D01*
X45142857Y-131642476D01*
X45095238Y-131832952D01*
X45095238Y-132213905D01*
X45142857Y-132309143D01*
X45190476Y-132356762D01*
X45285714Y-132404381D01*
X45476191Y-132404381D01*
X45571429Y-132356762D01*
X45619048Y-132309143D01*
X45666667Y-132213905D01*
X45666667Y-131975810D01*
X45619048Y-131880571D01*
X45571429Y-131832952D01*
X45476191Y-131785333D01*
X45285714Y-131785333D01*
X45190476Y-131832952D01*
X45142857Y-131880571D01*
X45095238Y-131975810D01*
X134666667Y-131404381D02*
X134666667Y-132118667D01*
X134619047Y-132261524D01*
X134523809Y-132356762D01*
X134380952Y-132404381D01*
X134285714Y-132404381D01*
X135047619Y-131404381D02*
X135714286Y-131404381D01*
X135285714Y-132404381D01*
X134718467Y-40955981D02*
X134718467Y-41670267D01*
X134670847Y-41813124D01*
X134575609Y-41908362D01*
X134432752Y-41955981D01*
X134337514Y-41955981D01*
X135337514Y-41384552D02*
X135242276Y-41336933D01*
X135194657Y-41289314D01*
X135147038Y-41194076D01*
X135147038Y-41146457D01*
X135194657Y-41051219D01*
X135242276Y-41003600D01*
X135337514Y-40955981D01*
X135527991Y-40955981D01*
X135623229Y-41003600D01*
X135670848Y-41051219D01*
X135718467Y-41146457D01*
X135718467Y-41194076D01*
X135670848Y-41289314D01*
X135623229Y-41336933D01*
X135527991Y-41384552D01*
X135337514Y-41384552D01*
X135242276Y-41432171D01*
X135194657Y-41479790D01*
X135147038Y-41575029D01*
X135147038Y-41765505D01*
X135194657Y-41860743D01*
X135242276Y-41908362D01*
X135337514Y-41955981D01*
X135527991Y-41955981D01*
X135623229Y-41908362D01*
X135670848Y-41860743D01*
X135718467Y-41765505D01*
X135718467Y-41575029D01*
X135670848Y-41479790D01*
X135623229Y-41432171D01*
X135527991Y-41384552D01*
X44666667Y-41404381D02*
X44666667Y-42118667D01*
X44619047Y-42261524D01*
X44523809Y-42356762D01*
X44380952Y-42404381D01*
X44285714Y-42404381D01*
X45190476Y-42404381D02*
X45380952Y-42404381D01*
X45476191Y-42356762D01*
X45523810Y-42309143D01*
X45619048Y-42166286D01*
X45666667Y-41975810D01*
X45666667Y-41594857D01*
X45619048Y-41499619D01*
X45571429Y-41452000D01*
X45476191Y-41404381D01*
X45285714Y-41404381D01*
X45190476Y-41452000D01*
X45142857Y-41499619D01*
X45095238Y-41594857D01*
X45095238Y-41832952D01*
X45142857Y-41928190D01*
X45190476Y-41975810D01*
X45285714Y-42023429D01*
X45476191Y-42023429D01*
X45571429Y-41975810D01*
X45619048Y-41928190D01*
X45666667Y-41832952D01*
X101518981Y-99912466D02*
X101518981Y-100388657D01*
X100518981Y-100388657D01*
X100852314Y-99150561D02*
X101518981Y-99150561D01*
X100471362Y-99388657D02*
X101185648Y-99626752D01*
X101185648Y-99007704D01*
X101950781Y-131052866D02*
X101950781Y-131529057D01*
X100950781Y-131529057D01*
X100950781Y-130290961D02*
X100950781Y-130481438D01*
X100998400Y-130576676D01*
X101046019Y-130624295D01*
X101188876Y-130719533D01*
X101379352Y-130767152D01*
X101760305Y-130767152D01*
X101855543Y-130719533D01*
X101903162Y-130671914D01*
X101950781Y-130576676D01*
X101950781Y-130386199D01*
X101903162Y-130290961D01*
X101855543Y-130243342D01*
X101760305Y-130195723D01*
X101522210Y-130195723D01*
X101426971Y-130243342D01*
X101379352Y-130290961D01*
X101331733Y-130386199D01*
X101331733Y-130576676D01*
X101379352Y-130671914D01*
X101426971Y-130719533D01*
X101522210Y-130767152D01*
X125102881Y-53024066D02*
X125102881Y-53500257D01*
X124102881Y-53500257D01*
X124102881Y-52785971D02*
X124102881Y-52119304D01*
X125102881Y-52547876D01*
X120010181Y-84977266D02*
X120010181Y-85453457D01*
X119010181Y-85453457D01*
X120010181Y-84596314D02*
X120010181Y-84405838D01*
X119962562Y-84310599D01*
X119914943Y-84262980D01*
X119772086Y-84167742D01*
X119581610Y-84120123D01*
X119200657Y-84120123D01*
X119105419Y-84167742D01*
X119057800Y-84215361D01*
X119010181Y-84310599D01*
X119010181Y-84501076D01*
X119057800Y-84596314D01*
X119105419Y-84643933D01*
X119200657Y-84691552D01*
X119438752Y-84691552D01*
X119533990Y-84643933D01*
X119581610Y-84596314D01*
X119629229Y-84501076D01*
X119629229Y-84310599D01*
X119581610Y-84215361D01*
X119533990Y-84167742D01*
X119438752Y-84120123D01*
X120060981Y-100515657D02*
X120060981Y-100991848D01*
X119060981Y-100991848D01*
X120060981Y-99658514D02*
X120060981Y-100229943D01*
X120060981Y-99944229D02*
X119060981Y-99944229D01*
X119203838Y-100039467D01*
X119299076Y-100134705D01*
X119346695Y-100229943D01*
X119060981Y-99039467D02*
X119060981Y-98944228D01*
X119108600Y-98848990D01*
X119156219Y-98801371D01*
X119251457Y-98753752D01*
X119441933Y-98706133D01*
X119680029Y-98706133D01*
X119870505Y-98753752D01*
X119965743Y-98801371D01*
X120013362Y-98848990D01*
X120060981Y-98944228D01*
X120060981Y-99039467D01*
X120013362Y-99134705D01*
X119965743Y-99182324D01*
X119870505Y-99229943D01*
X119680029Y-99277562D01*
X119441933Y-99277562D01*
X119251457Y-99229943D01*
X119156219Y-99182324D01*
X119108600Y-99134705D01*
X119060981Y-99039467D01*
X120238781Y-115831857D02*
X120238781Y-116308048D01*
X119238781Y-116308048D01*
X120238781Y-114974714D02*
X120238781Y-115546143D01*
X120238781Y-115260429D02*
X119238781Y-115260429D01*
X119381638Y-115355667D01*
X119476876Y-115450905D01*
X119524495Y-115546143D01*
X120238781Y-114022333D02*
X120238781Y-114593762D01*
X120238781Y-114308048D02*
X119238781Y-114308048D01*
X119381638Y-114403286D01*
X119476876Y-114498524D01*
X119524495Y-114593762D01*
X120137181Y-130487657D02*
X120137181Y-130963848D01*
X119137181Y-130963848D01*
X120137181Y-129630514D02*
X120137181Y-130201943D01*
X120137181Y-129916229D02*
X119137181Y-129916229D01*
X119280038Y-130011467D01*
X119375276Y-130106705D01*
X119422895Y-130201943D01*
X119232419Y-129249562D02*
X119184800Y-129201943D01*
X119137181Y-129106705D01*
X119137181Y-128868609D01*
X119184800Y-128773371D01*
X119232419Y-128725752D01*
X119327657Y-128678133D01*
X119422895Y-128678133D01*
X119565752Y-128725752D01*
X120137181Y-129297181D01*
X120137181Y-128678133D01*
X97153434Y-53493943D02*
X97105815Y-53541562D01*
X96962958Y-53589181D01*
X96867720Y-53589181D01*
X96724862Y-53541562D01*
X96629624Y-53446324D01*
X96582005Y-53351086D01*
X96534386Y-53160610D01*
X96534386Y-53017752D01*
X96582005Y-52827276D01*
X96629624Y-52732038D01*
X96724862Y-52636800D01*
X96867720Y-52589181D01*
X96962958Y-52589181D01*
X97105815Y-52636800D01*
X97153434Y-52684419D01*
X98105815Y-53589181D02*
X97534386Y-53589181D01*
X97820100Y-53589181D02*
X97820100Y-52589181D01*
X97724862Y-52732038D01*
X97629624Y-52827276D01*
X97534386Y-52874895D01*
X97026434Y-68543443D02*
X96978815Y-68591062D01*
X96835958Y-68638681D01*
X96740720Y-68638681D01*
X96597862Y-68591062D01*
X96502624Y-68495824D01*
X96455005Y-68400586D01*
X96407386Y-68210110D01*
X96407386Y-68067252D01*
X96455005Y-67876776D01*
X96502624Y-67781538D01*
X96597862Y-67686300D01*
X96740720Y-67638681D01*
X96835958Y-67638681D01*
X96978815Y-67686300D01*
X97026434Y-67733919D01*
X97407386Y-67733919D02*
X97455005Y-67686300D01*
X97550243Y-67638681D01*
X97788339Y-67638681D01*
X97883577Y-67686300D01*
X97931196Y-67733919D01*
X97978815Y-67829157D01*
X97978815Y-67924395D01*
X97931196Y-68067252D01*
X97359767Y-68638681D01*
X97978815Y-68638681D01*
X96899434Y-84926443D02*
X96851815Y-84974062D01*
X96708958Y-85021681D01*
X96613720Y-85021681D01*
X96470862Y-84974062D01*
X96375624Y-84878824D01*
X96328005Y-84783586D01*
X96280386Y-84593110D01*
X96280386Y-84450252D01*
X96328005Y-84259776D01*
X96375624Y-84164538D01*
X96470862Y-84069300D01*
X96613720Y-84021681D01*
X96708958Y-84021681D01*
X96851815Y-84069300D01*
X96899434Y-84116919D01*
X97232767Y-84021681D02*
X97851815Y-84021681D01*
X97518481Y-84402633D01*
X97661339Y-84402633D01*
X97756577Y-84450252D01*
X97804196Y-84497871D01*
X97851815Y-84593110D01*
X97851815Y-84831205D01*
X97804196Y-84926443D01*
X97756577Y-84974062D01*
X97661339Y-85021681D01*
X97375624Y-85021681D01*
X97280386Y-84974062D01*
X97232767Y-84926443D01*
X96645434Y-99848943D02*
X96597815Y-99896562D01*
X96454958Y-99944181D01*
X96359720Y-99944181D01*
X96216862Y-99896562D01*
X96121624Y-99801324D01*
X96074005Y-99706086D01*
X96026386Y-99515610D01*
X96026386Y-99372752D01*
X96074005Y-99182276D01*
X96121624Y-99087038D01*
X96216862Y-98991800D01*
X96359720Y-98944181D01*
X96454958Y-98944181D01*
X96597815Y-98991800D01*
X96645434Y-99039419D01*
X97502577Y-99277514D02*
X97502577Y-99944181D01*
X97264481Y-98896562D02*
X97026386Y-99610848D01*
X97645434Y-99610848D01*
X96899434Y-115660443D02*
X96851815Y-115708062D01*
X96708958Y-115755681D01*
X96613720Y-115755681D01*
X96470862Y-115708062D01*
X96375624Y-115612824D01*
X96328005Y-115517586D01*
X96280386Y-115327110D01*
X96280386Y-115184252D01*
X96328005Y-114993776D01*
X96375624Y-114898538D01*
X96470862Y-114803300D01*
X96613720Y-114755681D01*
X96708958Y-114755681D01*
X96851815Y-114803300D01*
X96899434Y-114850919D01*
X97804196Y-114755681D02*
X97328005Y-114755681D01*
X97280386Y-115231871D01*
X97328005Y-115184252D01*
X97423243Y-115136633D01*
X97661339Y-115136633D01*
X97756577Y-115184252D01*
X97804196Y-115231871D01*
X97851815Y-115327110D01*
X97851815Y-115565205D01*
X97804196Y-115660443D01*
X97756577Y-115708062D01*
X97661339Y-115755681D01*
X97423243Y-115755681D01*
X97328005Y-115708062D01*
X97280386Y-115660443D01*
X96708934Y-130328943D02*
X96661315Y-130376562D01*
X96518458Y-130424181D01*
X96423220Y-130424181D01*
X96280362Y-130376562D01*
X96185124Y-130281324D01*
X96137505Y-130186086D01*
X96089886Y-129995610D01*
X96089886Y-129852752D01*
X96137505Y-129662276D01*
X96185124Y-129567038D01*
X96280362Y-129471800D01*
X96423220Y-129424181D01*
X96518458Y-129424181D01*
X96661315Y-129471800D01*
X96708934Y-129519419D01*
X97566077Y-129424181D02*
X97375600Y-129424181D01*
X97280362Y-129471800D01*
X97232743Y-129519419D01*
X97137505Y-129662276D01*
X97089886Y-129852752D01*
X97089886Y-130233705D01*
X97137505Y-130328943D01*
X97185124Y-130376562D01*
X97280362Y-130424181D01*
X97470839Y-130424181D01*
X97566077Y-130376562D01*
X97613696Y-130328943D01*
X97661315Y-130233705D01*
X97661315Y-129995610D01*
X97613696Y-129900371D01*
X97566077Y-129852752D01*
X97470839Y-129805133D01*
X97280362Y-129805133D01*
X97185124Y-129852752D01*
X97137505Y-129900371D01*
X97089886Y-129995610D01*
X115822434Y-52795443D02*
X115774815Y-52843062D01*
X115631958Y-52890681D01*
X115536720Y-52890681D01*
X115393862Y-52843062D01*
X115298624Y-52747824D01*
X115251005Y-52652586D01*
X115203386Y-52462110D01*
X115203386Y-52319252D01*
X115251005Y-52128776D01*
X115298624Y-52033538D01*
X115393862Y-51938300D01*
X115536720Y-51890681D01*
X115631958Y-51890681D01*
X115774815Y-51938300D01*
X115822434Y-51985919D01*
X116155767Y-51890681D02*
X116822434Y-51890681D01*
X116393862Y-52890681D01*
X115504934Y-68479943D02*
X115457315Y-68527562D01*
X115314458Y-68575181D01*
X115219220Y-68575181D01*
X115076362Y-68527562D01*
X114981124Y-68432324D01*
X114933505Y-68337086D01*
X114885886Y-68146610D01*
X114885886Y-68003752D01*
X114933505Y-67813276D01*
X114981124Y-67718038D01*
X115076362Y-67622800D01*
X115219220Y-67575181D01*
X115314458Y-67575181D01*
X115457315Y-67622800D01*
X115504934Y-67670419D01*
X116076362Y-68003752D02*
X115981124Y-67956133D01*
X115933505Y-67908514D01*
X115885886Y-67813276D01*
X115885886Y-67765657D01*
X115933505Y-67670419D01*
X115981124Y-67622800D01*
X116076362Y-67575181D01*
X116266839Y-67575181D01*
X116362077Y-67622800D01*
X116409696Y-67670419D01*
X116457315Y-67765657D01*
X116457315Y-67813276D01*
X116409696Y-67908514D01*
X116362077Y-67956133D01*
X116266839Y-68003752D01*
X116076362Y-68003752D01*
X115981124Y-68051371D01*
X115933505Y-68098990D01*
X115885886Y-68194229D01*
X115885886Y-68384705D01*
X115933505Y-68479943D01*
X115981124Y-68527562D01*
X116076362Y-68575181D01*
X116266839Y-68575181D01*
X116362077Y-68527562D01*
X116409696Y-68479943D01*
X116457315Y-68384705D01*
X116457315Y-68194229D01*
X116409696Y-68098990D01*
X116362077Y-68051371D01*
X116266839Y-68003752D01*
X115504934Y-84926443D02*
X115457315Y-84974062D01*
X115314458Y-85021681D01*
X115219220Y-85021681D01*
X115076362Y-84974062D01*
X114981124Y-84878824D01*
X114933505Y-84783586D01*
X114885886Y-84593110D01*
X114885886Y-84450252D01*
X114933505Y-84259776D01*
X114981124Y-84164538D01*
X115076362Y-84069300D01*
X115219220Y-84021681D01*
X115314458Y-84021681D01*
X115457315Y-84069300D01*
X115504934Y-84116919D01*
X115981124Y-85021681D02*
X116171600Y-85021681D01*
X116266839Y-84974062D01*
X116314458Y-84926443D01*
X116409696Y-84783586D01*
X116457315Y-84593110D01*
X116457315Y-84212157D01*
X116409696Y-84116919D01*
X116362077Y-84069300D01*
X116266839Y-84021681D01*
X116076362Y-84021681D01*
X115981124Y-84069300D01*
X115933505Y-84116919D01*
X115885886Y-84212157D01*
X115885886Y-84450252D01*
X115933505Y-84545490D01*
X115981124Y-84593110D01*
X116076362Y-84640729D01*
X116266839Y-84640729D01*
X116362077Y-84593110D01*
X116409696Y-84545490D01*
X116457315Y-84450252D01*
X115028743Y-99912443D02*
X114981124Y-99960062D01*
X114838267Y-100007681D01*
X114743029Y-100007681D01*
X114600171Y-99960062D01*
X114504933Y-99864824D01*
X114457314Y-99769586D01*
X114409695Y-99579110D01*
X114409695Y-99436252D01*
X114457314Y-99245776D01*
X114504933Y-99150538D01*
X114600171Y-99055300D01*
X114743029Y-99007681D01*
X114838267Y-99007681D01*
X114981124Y-99055300D01*
X115028743Y-99102919D01*
X115981124Y-100007681D02*
X115409695Y-100007681D01*
X115695409Y-100007681D02*
X115695409Y-99007681D01*
X115600171Y-99150538D01*
X115504933Y-99245776D01*
X115409695Y-99293395D01*
X116600171Y-99007681D02*
X116695410Y-99007681D01*
X116790648Y-99055300D01*
X116838267Y-99102919D01*
X116885886Y-99198157D01*
X116933505Y-99388633D01*
X116933505Y-99626729D01*
X116885886Y-99817205D01*
X116838267Y-99912443D01*
X116790648Y-99960062D01*
X116695410Y-100007681D01*
X116600171Y-100007681D01*
X116504933Y-99960062D01*
X116457314Y-99912443D01*
X116409695Y-99817205D01*
X116362076Y-99626729D01*
X116362076Y-99388633D01*
X116409695Y-99198157D01*
X116457314Y-99102919D01*
X116504933Y-99055300D01*
X116600171Y-99007681D01*
X115092243Y-115596943D02*
X115044624Y-115644562D01*
X114901767Y-115692181D01*
X114806529Y-115692181D01*
X114663671Y-115644562D01*
X114568433Y-115549324D01*
X114520814Y-115454086D01*
X114473195Y-115263610D01*
X114473195Y-115120752D01*
X114520814Y-114930276D01*
X114568433Y-114835038D01*
X114663671Y-114739800D01*
X114806529Y-114692181D01*
X114901767Y-114692181D01*
X115044624Y-114739800D01*
X115092243Y-114787419D01*
X116044624Y-115692181D02*
X115473195Y-115692181D01*
X115758909Y-115692181D02*
X115758909Y-114692181D01*
X115663671Y-114835038D01*
X115568433Y-114930276D01*
X115473195Y-114977895D01*
X116997005Y-115692181D02*
X116425576Y-115692181D01*
X116711290Y-115692181D02*
X116711290Y-114692181D01*
X116616052Y-114835038D01*
X116520814Y-114930276D01*
X116425576Y-114977895D01*
X115308143Y-130278143D02*
X115260524Y-130325762D01*
X115117667Y-130373381D01*
X115022429Y-130373381D01*
X114879571Y-130325762D01*
X114784333Y-130230524D01*
X114736714Y-130135286D01*
X114689095Y-129944810D01*
X114689095Y-129801952D01*
X114736714Y-129611476D01*
X114784333Y-129516238D01*
X114879571Y-129421000D01*
X115022429Y-129373381D01*
X115117667Y-129373381D01*
X115260524Y-129421000D01*
X115308143Y-129468619D01*
X116260524Y-130373381D02*
X115689095Y-130373381D01*
X115974809Y-130373381D02*
X115974809Y-129373381D01*
X115879571Y-129516238D01*
X115784333Y-129611476D01*
X115689095Y-129659095D01*
X116641476Y-129468619D02*
X116689095Y-129421000D01*
X116784333Y-129373381D01*
X117022429Y-129373381D01*
X117117667Y-129421000D01*
X117165286Y-129468619D01*
X117212905Y-129563857D01*
X117212905Y-129659095D01*
X117165286Y-129801952D01*
X116593857Y-130373381D01*
X117212905Y-130373381D01*
X133888243Y-55208443D02*
X133840624Y-55256062D01*
X133697767Y-55303681D01*
X133602529Y-55303681D01*
X133459671Y-55256062D01*
X133364433Y-55160824D01*
X133316814Y-55065586D01*
X133269195Y-54875110D01*
X133269195Y-54732252D01*
X133316814Y-54541776D01*
X133364433Y-54446538D01*
X133459671Y-54351300D01*
X133602529Y-54303681D01*
X133697767Y-54303681D01*
X133840624Y-54351300D01*
X133888243Y-54398919D01*
X134840624Y-55303681D02*
X134269195Y-55303681D01*
X134554909Y-55303681D02*
X134554909Y-54303681D01*
X134459671Y-54446538D01*
X134364433Y-54541776D01*
X134269195Y-54589395D01*
X135173957Y-54303681D02*
X135793005Y-54303681D01*
X135459671Y-54684633D01*
X135602529Y-54684633D01*
X135697767Y-54732252D01*
X135745386Y-54779871D01*
X135793005Y-54875110D01*
X135793005Y-55113205D01*
X135745386Y-55208443D01*
X135697767Y-55256062D01*
X135602529Y-55303681D01*
X135316814Y-55303681D01*
X135221576Y-55256062D01*
X135173957Y-55208443D01*
X133519943Y-69064143D02*
X133472324Y-69111762D01*
X133329467Y-69159381D01*
X133234229Y-69159381D01*
X133091371Y-69111762D01*
X132996133Y-69016524D01*
X132948514Y-68921286D01*
X132900895Y-68730810D01*
X132900895Y-68587952D01*
X132948514Y-68397476D01*
X132996133Y-68302238D01*
X133091371Y-68207000D01*
X133234229Y-68159381D01*
X133329467Y-68159381D01*
X133472324Y-68207000D01*
X133519943Y-68254619D01*
X134472324Y-69159381D02*
X133900895Y-69159381D01*
X134186609Y-69159381D02*
X134186609Y-68159381D01*
X134091371Y-68302238D01*
X133996133Y-68397476D01*
X133900895Y-68445095D01*
X135329467Y-68492714D02*
X135329467Y-69159381D01*
X135091371Y-68111762D02*
X134853276Y-68826048D01*
X135472324Y-68826048D01*
X133164343Y-84354943D02*
X133116724Y-84402562D01*
X132973867Y-84450181D01*
X132878629Y-84450181D01*
X132735771Y-84402562D01*
X132640533Y-84307324D01*
X132592914Y-84212086D01*
X132545295Y-84021610D01*
X132545295Y-83878752D01*
X132592914Y-83688276D01*
X132640533Y-83593038D01*
X132735771Y-83497800D01*
X132878629Y-83450181D01*
X132973867Y-83450181D01*
X133116724Y-83497800D01*
X133164343Y-83545419D01*
X134116724Y-84450181D02*
X133545295Y-84450181D01*
X133831009Y-84450181D02*
X133831009Y-83450181D01*
X133735771Y-83593038D01*
X133640533Y-83688276D01*
X133545295Y-83735895D01*
X135021486Y-83450181D02*
X134545295Y-83450181D01*
X134497676Y-83926371D01*
X134545295Y-83878752D01*
X134640533Y-83831133D01*
X134878629Y-83831133D01*
X134973867Y-83878752D01*
X135021486Y-83926371D01*
X135069105Y-84021610D01*
X135069105Y-84259705D01*
X135021486Y-84354943D01*
X134973867Y-84402562D01*
X134878629Y-84450181D01*
X134640533Y-84450181D01*
X134545295Y-84402562D01*
X134497676Y-84354943D01*
X132859543Y-99848943D02*
X132811924Y-99896562D01*
X132669067Y-99944181D01*
X132573829Y-99944181D01*
X132430971Y-99896562D01*
X132335733Y-99801324D01*
X132288114Y-99706086D01*
X132240495Y-99515610D01*
X132240495Y-99372752D01*
X132288114Y-99182276D01*
X132335733Y-99087038D01*
X132430971Y-98991800D01*
X132573829Y-98944181D01*
X132669067Y-98944181D01*
X132811924Y-98991800D01*
X132859543Y-99039419D01*
X133811924Y-99944181D02*
X133240495Y-99944181D01*
X133526209Y-99944181D02*
X133526209Y-98944181D01*
X133430971Y-99087038D01*
X133335733Y-99182276D01*
X133240495Y-99229895D01*
X134669067Y-98944181D02*
X134478590Y-98944181D01*
X134383352Y-98991800D01*
X134335733Y-99039419D01*
X134240495Y-99182276D01*
X134192876Y-99372752D01*
X134192876Y-99753705D01*
X134240495Y-99848943D01*
X134288114Y-99896562D01*
X134383352Y-99944181D01*
X134573829Y-99944181D01*
X134669067Y-99896562D01*
X134716686Y-99848943D01*
X134764305Y-99753705D01*
X134764305Y-99515610D01*
X134716686Y-99420371D01*
X134669067Y-99372752D01*
X134573829Y-99325133D01*
X134383352Y-99325133D01*
X134288114Y-99372752D01*
X134240495Y-99420371D01*
X134192876Y-99515610D01*
X132834143Y-115495343D02*
X132786524Y-115542962D01*
X132643667Y-115590581D01*
X132548429Y-115590581D01*
X132405571Y-115542962D01*
X132310333Y-115447724D01*
X132262714Y-115352486D01*
X132215095Y-115162010D01*
X132215095Y-115019152D01*
X132262714Y-114828676D01*
X132310333Y-114733438D01*
X132405571Y-114638200D01*
X132548429Y-114590581D01*
X132643667Y-114590581D01*
X132786524Y-114638200D01*
X132834143Y-114685819D01*
X133786524Y-115590581D02*
X133215095Y-115590581D01*
X133500809Y-115590581D02*
X133500809Y-114590581D01*
X133405571Y-114733438D01*
X133310333Y-114828676D01*
X133215095Y-114876295D01*
X134119857Y-114590581D02*
X134786524Y-114590581D01*
X134357952Y-115590581D01*
X132973843Y-126760243D02*
X132926224Y-126807862D01*
X132783367Y-126855481D01*
X132688129Y-126855481D01*
X132545271Y-126807862D01*
X132450033Y-126712624D01*
X132402414Y-126617386D01*
X132354795Y-126426910D01*
X132354795Y-126284052D01*
X132402414Y-126093576D01*
X132450033Y-125998338D01*
X132545271Y-125903100D01*
X132688129Y-125855481D01*
X132783367Y-125855481D01*
X132926224Y-125903100D01*
X132973843Y-125950719D01*
X133926224Y-126855481D02*
X133354795Y-126855481D01*
X133640509Y-126855481D02*
X133640509Y-125855481D01*
X133545271Y-125998338D01*
X133450033Y-126093576D01*
X133354795Y-126141195D01*
X134497652Y-126284052D02*
X134402414Y-126236433D01*
X134354795Y-126188814D01*
X134307176Y-126093576D01*
X134307176Y-126045957D01*
X134354795Y-125950719D01*
X134402414Y-125903100D01*
X134497652Y-125855481D01*
X134688129Y-125855481D01*
X134783367Y-125903100D01*
X134830986Y-125950719D01*
X134878605Y-126045957D01*
X134878605Y-126093576D01*
X134830986Y-126188814D01*
X134783367Y-126236433D01*
X134688129Y-126284052D01*
X134497652Y-126284052D01*
X134402414Y-126331671D01*
X134354795Y-126379290D01*
X134307176Y-126474529D01*
X134307176Y-126665005D01*
X134354795Y-126760243D01*
X134402414Y-126807862D01*
X134497652Y-126855481D01*
X134688129Y-126855481D01*
X134783367Y-126807862D01*
X134830986Y-126760243D01*
X134878605Y-126665005D01*
X134878605Y-126474529D01*
X134830986Y-126379290D01*
X134783367Y-126331671D01*
X134688129Y-126284052D01*
X101889981Y-52731966D02*
X101889981Y-53208157D01*
X100889981Y-53208157D01*
X101889981Y-51874823D02*
X101889981Y-52446252D01*
X101889981Y-52160538D02*
X100889981Y-52160538D01*
X101032838Y-52255776D01*
X101128076Y-52351014D01*
X101175695Y-52446252D01*
X101762981Y-68733966D02*
X101762981Y-69210157D01*
X100762981Y-69210157D01*
X100858219Y-68448252D02*
X100810600Y-68400633D01*
X100762981Y-68305395D01*
X100762981Y-68067299D01*
X100810600Y-67972061D01*
X100858219Y-67924442D01*
X100953457Y-67876823D01*
X101048695Y-67876823D01*
X101191552Y-67924442D01*
X101762981Y-68495871D01*
X101762981Y-67876823D01*
X101635981Y-84481966D02*
X101635981Y-84958157D01*
X100635981Y-84958157D01*
X100635981Y-84243871D02*
X100635981Y-83624823D01*
X101016933Y-83958157D01*
X101016933Y-83815299D01*
X101064552Y-83720061D01*
X101112171Y-83672442D01*
X101207410Y-83624823D01*
X101445505Y-83624823D01*
X101540743Y-83672442D01*
X101588362Y-83720061D01*
X101635981Y-83815299D01*
X101635981Y-84101014D01*
X101588362Y-84196252D01*
X101540743Y-84243871D01*
X91928481Y-55940200D02*
X91452290Y-56273534D01*
X91928481Y-56511629D02*
X90928481Y-56511629D01*
X90928481Y-56130676D01*
X90976100Y-56035438D01*
X91023719Y-55987819D01*
X91118957Y-55940200D01*
X91261814Y-55940200D01*
X91357052Y-55987819D01*
X91404671Y-56035438D01*
X91452290Y-56130676D01*
X91452290Y-56511629D01*
X91928481Y-55035438D02*
X91928481Y-55511629D01*
X90928481Y-55511629D01*
X91452290Y-54511629D02*
X91928481Y-54511629D01*
X90928481Y-54844962D02*
X91452290Y-54511629D01*
X90928481Y-54178295D01*
X91928481Y-53321152D02*
X91928481Y-53892581D01*
X91928481Y-53606867D02*
X90928481Y-53606867D01*
X91071338Y-53702105D01*
X91166576Y-53797343D01*
X91214195Y-53892581D01*
X81738005Y-54440200D02*
X81642767Y-54392581D01*
X81499910Y-54392581D01*
X81357052Y-54440200D01*
X81261814Y-54535438D01*
X81214195Y-54630676D01*
X81166576Y-54821152D01*
X81166576Y-54964010D01*
X81214195Y-55154486D01*
X81261814Y-55249724D01*
X81357052Y-55344962D01*
X81499910Y-55392581D01*
X81595148Y-55392581D01*
X81738005Y-55344962D01*
X81785624Y-55297343D01*
X81785624Y-54964010D01*
X81595148Y-54964010D01*
X82690386Y-54392581D02*
X82214195Y-54392581D01*
X82166576Y-54868771D01*
X82214195Y-54821152D01*
X82309433Y-54773533D01*
X82547529Y-54773533D01*
X82642767Y-54821152D01*
X82690386Y-54868771D01*
X82738005Y-54964010D01*
X82738005Y-55202105D01*
X82690386Y-55297343D01*
X82642767Y-55344962D01*
X82547529Y-55392581D01*
X82309433Y-55392581D01*
X82214195Y-55344962D01*
X82166576Y-55297343D01*
X83023719Y-54392581D02*
X83357052Y-55392581D01*
X83690386Y-54392581D01*
X84023719Y-55011629D02*
X84785624Y-55011629D01*
X85214195Y-54487819D02*
X85261814Y-54440200D01*
X85357052Y-54392581D01*
X85595148Y-54392581D01*
X85690386Y-54440200D01*
X85738005Y-54487819D01*
X85785624Y-54583057D01*
X85785624Y-54678295D01*
X85738005Y-54821152D01*
X85166576Y-55392581D01*
X85785624Y-55392581D01*
X91991981Y-71154800D02*
X91515790Y-71488134D01*
X91991981Y-71726229D02*
X90991981Y-71726229D01*
X90991981Y-71345276D01*
X91039600Y-71250038D01*
X91087219Y-71202419D01*
X91182457Y-71154800D01*
X91325314Y-71154800D01*
X91420552Y-71202419D01*
X91468171Y-71250038D01*
X91515790Y-71345276D01*
X91515790Y-71726229D01*
X91991981Y-70250038D02*
X91991981Y-70726229D01*
X90991981Y-70726229D01*
X91515790Y-69726229D02*
X91991981Y-69726229D01*
X90991981Y-70059562D02*
X91515790Y-69726229D01*
X90991981Y-69392895D01*
X91087219Y-69107181D02*
X91039600Y-69059562D01*
X90991981Y-68964324D01*
X90991981Y-68726228D01*
X91039600Y-68630990D01*
X91087219Y-68583371D01*
X91182457Y-68535752D01*
X91277695Y-68535752D01*
X91420552Y-68583371D01*
X91991981Y-69154800D01*
X91991981Y-68535752D01*
X81801505Y-69654800D02*
X81706267Y-69607181D01*
X81563410Y-69607181D01*
X81420552Y-69654800D01*
X81325314Y-69750038D01*
X81277695Y-69845276D01*
X81230076Y-70035752D01*
X81230076Y-70178610D01*
X81277695Y-70369086D01*
X81325314Y-70464324D01*
X81420552Y-70559562D01*
X81563410Y-70607181D01*
X81658648Y-70607181D01*
X81801505Y-70559562D01*
X81849124Y-70511943D01*
X81849124Y-70178610D01*
X81658648Y-70178610D01*
X82753886Y-69607181D02*
X82277695Y-69607181D01*
X82230076Y-70083371D01*
X82277695Y-70035752D01*
X82372933Y-69988133D01*
X82611029Y-69988133D01*
X82706267Y-70035752D01*
X82753886Y-70083371D01*
X82801505Y-70178610D01*
X82801505Y-70416705D01*
X82753886Y-70511943D01*
X82706267Y-70559562D01*
X82611029Y-70607181D01*
X82372933Y-70607181D01*
X82277695Y-70559562D01*
X82230076Y-70511943D01*
X83087219Y-69607181D02*
X83420552Y-70607181D01*
X83753886Y-69607181D01*
X84087219Y-70226229D02*
X84849124Y-70226229D01*
X85277695Y-69702419D02*
X85325314Y-69654800D01*
X85420552Y-69607181D01*
X85658648Y-69607181D01*
X85753886Y-69654800D01*
X85801505Y-69702419D01*
X85849124Y-69797657D01*
X85849124Y-69892895D01*
X85801505Y-70035752D01*
X85230076Y-70607181D01*
X85849124Y-70607181D01*
X91991981Y-84362800D02*
X91515790Y-84696134D01*
X91991981Y-84934229D02*
X90991981Y-84934229D01*
X90991981Y-84553276D01*
X91039600Y-84458038D01*
X91087219Y-84410419D01*
X91182457Y-84362800D01*
X91325314Y-84362800D01*
X91420552Y-84410419D01*
X91468171Y-84458038D01*
X91515790Y-84553276D01*
X91515790Y-84934229D01*
X91991981Y-83458038D02*
X91991981Y-83934229D01*
X90991981Y-83934229D01*
X91515790Y-82934229D02*
X91991981Y-82934229D01*
X90991981Y-83267562D02*
X91515790Y-82934229D01*
X90991981Y-82600895D01*
X90991981Y-82362800D02*
X90991981Y-81743752D01*
X91372933Y-82077086D01*
X91372933Y-81934228D01*
X91420552Y-81838990D01*
X91468171Y-81791371D01*
X91563410Y-81743752D01*
X91801505Y-81743752D01*
X91896743Y-81791371D01*
X91944362Y-81838990D01*
X91991981Y-81934228D01*
X91991981Y-82219943D01*
X91944362Y-82315181D01*
X91896743Y-82362800D01*
X81801505Y-82862800D02*
X81706267Y-82815181D01*
X81563410Y-82815181D01*
X81420552Y-82862800D01*
X81325314Y-82958038D01*
X81277695Y-83053276D01*
X81230076Y-83243752D01*
X81230076Y-83386610D01*
X81277695Y-83577086D01*
X81325314Y-83672324D01*
X81420552Y-83767562D01*
X81563410Y-83815181D01*
X81658648Y-83815181D01*
X81801505Y-83767562D01*
X81849124Y-83719943D01*
X81849124Y-83386610D01*
X81658648Y-83386610D01*
X82753886Y-82815181D02*
X82277695Y-82815181D01*
X82230076Y-83291371D01*
X82277695Y-83243752D01*
X82372933Y-83196133D01*
X82611029Y-83196133D01*
X82706267Y-83243752D01*
X82753886Y-83291371D01*
X82801505Y-83386610D01*
X82801505Y-83624705D01*
X82753886Y-83719943D01*
X82706267Y-83767562D01*
X82611029Y-83815181D01*
X82372933Y-83815181D01*
X82277695Y-83767562D01*
X82230076Y-83719943D01*
X83087219Y-82815181D02*
X83420552Y-83815181D01*
X83753886Y-82815181D01*
X84087219Y-83434229D02*
X84849124Y-83434229D01*
X85277695Y-82910419D02*
X85325314Y-82862800D01*
X85420552Y-82815181D01*
X85658648Y-82815181D01*
X85753886Y-82862800D01*
X85801505Y-82910419D01*
X85849124Y-83005657D01*
X85849124Y-83100895D01*
X85801505Y-83243752D01*
X85230076Y-83815181D01*
X85849124Y-83815181D01*
X91991981Y-98586800D02*
X91515790Y-98920134D01*
X91991981Y-99158229D02*
X90991981Y-99158229D01*
X90991981Y-98777276D01*
X91039600Y-98682038D01*
X91087219Y-98634419D01*
X91182457Y-98586800D01*
X91325314Y-98586800D01*
X91420552Y-98634419D01*
X91468171Y-98682038D01*
X91515790Y-98777276D01*
X91515790Y-99158229D01*
X91991981Y-97682038D02*
X91991981Y-98158229D01*
X90991981Y-98158229D01*
X91515790Y-97158229D02*
X91991981Y-97158229D01*
X90991981Y-97491562D02*
X91515790Y-97158229D01*
X90991981Y-96824895D01*
X91325314Y-96062990D02*
X91991981Y-96062990D01*
X90944362Y-96301086D02*
X91658648Y-96539181D01*
X91658648Y-95920133D01*
X81801505Y-97086800D02*
X81706267Y-97039181D01*
X81563410Y-97039181D01*
X81420552Y-97086800D01*
X81325314Y-97182038D01*
X81277695Y-97277276D01*
X81230076Y-97467752D01*
X81230076Y-97610610D01*
X81277695Y-97801086D01*
X81325314Y-97896324D01*
X81420552Y-97991562D01*
X81563410Y-98039181D01*
X81658648Y-98039181D01*
X81801505Y-97991562D01*
X81849124Y-97943943D01*
X81849124Y-97610610D01*
X81658648Y-97610610D01*
X82753886Y-97039181D02*
X82277695Y-97039181D01*
X82230076Y-97515371D01*
X82277695Y-97467752D01*
X82372933Y-97420133D01*
X82611029Y-97420133D01*
X82706267Y-97467752D01*
X82753886Y-97515371D01*
X82801505Y-97610610D01*
X82801505Y-97848705D01*
X82753886Y-97943943D01*
X82706267Y-97991562D01*
X82611029Y-98039181D01*
X82372933Y-98039181D01*
X82277695Y-97991562D01*
X82230076Y-97943943D01*
X83087219Y-97039181D02*
X83420552Y-98039181D01*
X83753886Y-97039181D01*
X84087219Y-97658229D02*
X84849124Y-97658229D01*
X85277695Y-97134419D02*
X85325314Y-97086800D01*
X85420552Y-97039181D01*
X85658648Y-97039181D01*
X85753886Y-97086800D01*
X85801505Y-97134419D01*
X85849124Y-97229657D01*
X85849124Y-97324895D01*
X85801505Y-97467752D01*
X85230076Y-98039181D01*
X85849124Y-98039181D01*
X92002141Y-113095280D02*
X91525950Y-113428614D01*
X92002141Y-113666709D02*
X91002141Y-113666709D01*
X91002141Y-113285756D01*
X91049760Y-113190518D01*
X91097379Y-113142899D01*
X91192617Y-113095280D01*
X91335474Y-113095280D01*
X91430712Y-113142899D01*
X91478331Y-113190518D01*
X91525950Y-113285756D01*
X91525950Y-113666709D01*
X92002141Y-112190518D02*
X92002141Y-112666709D01*
X91002141Y-112666709D01*
X91525950Y-111666709D02*
X92002141Y-111666709D01*
X91002141Y-112000042D02*
X91525950Y-111666709D01*
X91002141Y-111333375D01*
X91002141Y-110523851D02*
X91002141Y-111000042D01*
X91478331Y-111047661D01*
X91430712Y-111000042D01*
X91383093Y-110904804D01*
X91383093Y-110666708D01*
X91430712Y-110571470D01*
X91478331Y-110523851D01*
X91573570Y-110476232D01*
X91811665Y-110476232D01*
X91906903Y-110523851D01*
X91954522Y-110571470D01*
X92002141Y-110666708D01*
X92002141Y-110904804D01*
X91954522Y-111000042D01*
X91906903Y-111047661D01*
X81811665Y-111595280D02*
X81716427Y-111547661D01*
X81573570Y-111547661D01*
X81430712Y-111595280D01*
X81335474Y-111690518D01*
X81287855Y-111785756D01*
X81240236Y-111976232D01*
X81240236Y-112119090D01*
X81287855Y-112309566D01*
X81335474Y-112404804D01*
X81430712Y-112500042D01*
X81573570Y-112547661D01*
X81668808Y-112547661D01*
X81811665Y-112500042D01*
X81859284Y-112452423D01*
X81859284Y-112119090D01*
X81668808Y-112119090D01*
X82764046Y-111547661D02*
X82287855Y-111547661D01*
X82240236Y-112023851D01*
X82287855Y-111976232D01*
X82383093Y-111928613D01*
X82621189Y-111928613D01*
X82716427Y-111976232D01*
X82764046Y-112023851D01*
X82811665Y-112119090D01*
X82811665Y-112357185D01*
X82764046Y-112452423D01*
X82716427Y-112500042D01*
X82621189Y-112547661D01*
X82383093Y-112547661D01*
X82287855Y-112500042D01*
X82240236Y-112452423D01*
X83097379Y-111547661D02*
X83430712Y-112547661D01*
X83764046Y-111547661D01*
X84097379Y-112166709D02*
X84859284Y-112166709D01*
X85287855Y-111642899D02*
X85335474Y-111595280D01*
X85430712Y-111547661D01*
X85668808Y-111547661D01*
X85764046Y-111595280D01*
X85811665Y-111642899D01*
X85859284Y-111738137D01*
X85859284Y-111833375D01*
X85811665Y-111976232D01*
X85240236Y-112547661D01*
X85859284Y-112547661D01*
X92058021Y-125612400D02*
X91581830Y-125945734D01*
X92058021Y-126183829D02*
X91058021Y-126183829D01*
X91058021Y-125802876D01*
X91105640Y-125707638D01*
X91153259Y-125660019D01*
X91248497Y-125612400D01*
X91391354Y-125612400D01*
X91486592Y-125660019D01*
X91534211Y-125707638D01*
X91581830Y-125802876D01*
X91581830Y-126183829D01*
X92058021Y-124707638D02*
X92058021Y-125183829D01*
X91058021Y-125183829D01*
X91581830Y-124183829D02*
X92058021Y-124183829D01*
X91058021Y-124517162D02*
X91581830Y-124183829D01*
X91058021Y-123850495D01*
X91058021Y-123088590D02*
X91058021Y-123279067D01*
X91105640Y-123374305D01*
X91153259Y-123421924D01*
X91296116Y-123517162D01*
X91486592Y-123564781D01*
X91867545Y-123564781D01*
X91962783Y-123517162D01*
X92010402Y-123469543D01*
X92058021Y-123374305D01*
X92058021Y-123183828D01*
X92010402Y-123088590D01*
X91962783Y-123040971D01*
X91867545Y-122993352D01*
X91629450Y-122993352D01*
X91534211Y-123040971D01*
X91486592Y-123088590D01*
X91438973Y-123183828D01*
X91438973Y-123374305D01*
X91486592Y-123469543D01*
X91534211Y-123517162D01*
X91629450Y-123564781D01*
X81867545Y-124112400D02*
X81772307Y-124064781D01*
X81629450Y-124064781D01*
X81486592Y-124112400D01*
X81391354Y-124207638D01*
X81343735Y-124302876D01*
X81296116Y-124493352D01*
X81296116Y-124636210D01*
X81343735Y-124826686D01*
X81391354Y-124921924D01*
X81486592Y-125017162D01*
X81629450Y-125064781D01*
X81724688Y-125064781D01*
X81867545Y-125017162D01*
X81915164Y-124969543D01*
X81915164Y-124636210D01*
X81724688Y-124636210D01*
X82819926Y-124064781D02*
X82343735Y-124064781D01*
X82296116Y-124540971D01*
X82343735Y-124493352D01*
X82438973Y-124445733D01*
X82677069Y-124445733D01*
X82772307Y-124493352D01*
X82819926Y-124540971D01*
X82867545Y-124636210D01*
X82867545Y-124874305D01*
X82819926Y-124969543D01*
X82772307Y-125017162D01*
X82677069Y-125064781D01*
X82438973Y-125064781D01*
X82343735Y-125017162D01*
X82296116Y-124969543D01*
X83153259Y-124064781D02*
X83486592Y-125064781D01*
X83819926Y-124064781D01*
X84153259Y-124683829D02*
X84915164Y-124683829D01*
X85343735Y-124160019D02*
X85391354Y-124112400D01*
X85486592Y-124064781D01*
X85724688Y-124064781D01*
X85819926Y-124112400D01*
X85867545Y-124160019D01*
X85915164Y-124255257D01*
X85915164Y-124350495D01*
X85867545Y-124493352D01*
X85296116Y-125064781D01*
X85915164Y-125064781D01*
X62458695Y-107173781D02*
X62458695Y-107983305D01*
X62506314Y-108078543D01*
X62553933Y-108126162D01*
X62649171Y-108173781D01*
X62839648Y-108173781D01*
X62934886Y-108126162D01*
X62982505Y-108078543D01*
X63030124Y-107983305D01*
X63030124Y-107173781D01*
X63411076Y-107173781D02*
X64030124Y-107173781D01*
X63696790Y-107554733D01*
X63839648Y-107554733D01*
X63934886Y-107602352D01*
X63982505Y-107649971D01*
X64030124Y-107745210D01*
X64030124Y-107983305D01*
X63982505Y-108078543D01*
X63934886Y-108126162D01*
X63839648Y-108173781D01*
X63553933Y-108173781D01*
X63458695Y-108126162D01*
X63411076Y-108078543D01*
X78198743Y-62891943D02*
X78151124Y-62939562D01*
X78008267Y-62987181D01*
X77913029Y-62987181D01*
X77770171Y-62939562D01*
X77674933Y-62844324D01*
X77627314Y-62749086D01*
X77579695Y-62558610D01*
X77579695Y-62415752D01*
X77627314Y-62225276D01*
X77674933Y-62130038D01*
X77770171Y-62034800D01*
X77913029Y-61987181D01*
X78008267Y-61987181D01*
X78151124Y-62034800D01*
X78198743Y-62082419D01*
X78579695Y-62082419D02*
X78627314Y-62034800D01*
X78722552Y-61987181D01*
X78960648Y-61987181D01*
X79055886Y-62034800D01*
X79103505Y-62082419D01*
X79151124Y-62177657D01*
X79151124Y-62272895D01*
X79103505Y-62415752D01*
X78532076Y-62987181D01*
X79151124Y-62987181D01*
X79484457Y-61987181D02*
X80151124Y-61987181D01*
X79722552Y-62987181D01*
X78643243Y-77242943D02*
X78595624Y-77290562D01*
X78452767Y-77338181D01*
X78357529Y-77338181D01*
X78214671Y-77290562D01*
X78119433Y-77195324D01*
X78071814Y-77100086D01*
X78024195Y-76909610D01*
X78024195Y-76766752D01*
X78071814Y-76576276D01*
X78119433Y-76481038D01*
X78214671Y-76385800D01*
X78357529Y-76338181D01*
X78452767Y-76338181D01*
X78595624Y-76385800D01*
X78643243Y-76433419D01*
X79024195Y-76433419D02*
X79071814Y-76385800D01*
X79167052Y-76338181D01*
X79405148Y-76338181D01*
X79500386Y-76385800D01*
X79548005Y-76433419D01*
X79595624Y-76528657D01*
X79595624Y-76623895D01*
X79548005Y-76766752D01*
X78976576Y-77338181D01*
X79595624Y-77338181D01*
X80167052Y-76766752D02*
X80071814Y-76719133D01*
X80024195Y-76671514D01*
X79976576Y-76576276D01*
X79976576Y-76528657D01*
X80024195Y-76433419D01*
X80071814Y-76385800D01*
X80167052Y-76338181D01*
X80357529Y-76338181D01*
X80452767Y-76385800D01*
X80500386Y-76433419D01*
X80548005Y-76528657D01*
X80548005Y-76576276D01*
X80500386Y-76671514D01*
X80452767Y-76719133D01*
X80357529Y-76766752D01*
X80167052Y-76766752D01*
X80071814Y-76814371D01*
X80024195Y-76861990D01*
X79976576Y-76957229D01*
X79976576Y-77147705D01*
X80024195Y-77242943D01*
X80071814Y-77290562D01*
X80167052Y-77338181D01*
X80357529Y-77338181D01*
X80452767Y-77290562D01*
X80500386Y-77242943D01*
X80548005Y-77147705D01*
X80548005Y-76957229D01*
X80500386Y-76861990D01*
X80452767Y-76814371D01*
X80357529Y-76766752D01*
X72864743Y-119025943D02*
X72817124Y-119073562D01*
X72674267Y-119121181D01*
X72579029Y-119121181D01*
X72436171Y-119073562D01*
X72340933Y-118978324D01*
X72293314Y-118883086D01*
X72245695Y-118692610D01*
X72245695Y-118549752D01*
X72293314Y-118359276D01*
X72340933Y-118264038D01*
X72436171Y-118168800D01*
X72579029Y-118121181D01*
X72674267Y-118121181D01*
X72817124Y-118168800D01*
X72864743Y-118216419D01*
X73245695Y-118216419D02*
X73293314Y-118168800D01*
X73388552Y-118121181D01*
X73626648Y-118121181D01*
X73721886Y-118168800D01*
X73769505Y-118216419D01*
X73817124Y-118311657D01*
X73817124Y-118406895D01*
X73769505Y-118549752D01*
X73198076Y-119121181D01*
X73817124Y-119121181D01*
X74293314Y-119121181D02*
X74483790Y-119121181D01*
X74579029Y-119073562D01*
X74626648Y-119025943D01*
X74721886Y-118883086D01*
X74769505Y-118692610D01*
X74769505Y-118311657D01*
X74721886Y-118216419D01*
X74674267Y-118168800D01*
X74579029Y-118121181D01*
X74388552Y-118121181D01*
X74293314Y-118168800D01*
X74245695Y-118216419D01*
X74198076Y-118311657D01*
X74198076Y-118549752D01*
X74245695Y-118644990D01*
X74293314Y-118692610D01*
X74388552Y-118740229D01*
X74579029Y-118740229D01*
X74674267Y-118692610D01*
X74721886Y-118644990D01*
X74769505Y-118549752D01*
X69245243Y-130265443D02*
X69197624Y-130313062D01*
X69054767Y-130360681D01*
X68959529Y-130360681D01*
X68816671Y-130313062D01*
X68721433Y-130217824D01*
X68673814Y-130122586D01*
X68626195Y-129932110D01*
X68626195Y-129789252D01*
X68673814Y-129598776D01*
X68721433Y-129503538D01*
X68816671Y-129408300D01*
X68959529Y-129360681D01*
X69054767Y-129360681D01*
X69197624Y-129408300D01*
X69245243Y-129455919D01*
X69578576Y-129360681D02*
X70197624Y-129360681D01*
X69864290Y-129741633D01*
X70007148Y-129741633D01*
X70102386Y-129789252D01*
X70150005Y-129836871D01*
X70197624Y-129932110D01*
X70197624Y-130170205D01*
X70150005Y-130265443D01*
X70102386Y-130313062D01*
X70007148Y-130360681D01*
X69721433Y-130360681D01*
X69626195Y-130313062D01*
X69578576Y-130265443D01*
X70816671Y-129360681D02*
X70911910Y-129360681D01*
X71007148Y-129408300D01*
X71054767Y-129455919D01*
X71102386Y-129551157D01*
X71150005Y-129741633D01*
X71150005Y-129979729D01*
X71102386Y-130170205D01*
X71054767Y-130265443D01*
X71007148Y-130313062D01*
X70911910Y-130360681D01*
X70816671Y-130360681D01*
X70721433Y-130313062D01*
X70673814Y-130265443D01*
X70626195Y-130170205D01*
X70578576Y-129979729D01*
X70578576Y-129741633D01*
X70626195Y-129551157D01*
X70673814Y-129455919D01*
X70721433Y-129408300D01*
X70816671Y-129360681D01*
X78452743Y-91085943D02*
X78405124Y-91133562D01*
X78262267Y-91181181D01*
X78167029Y-91181181D01*
X78024171Y-91133562D01*
X77928933Y-91038324D01*
X77881314Y-90943086D01*
X77833695Y-90752610D01*
X77833695Y-90609752D01*
X77881314Y-90419276D01*
X77928933Y-90324038D01*
X78024171Y-90228800D01*
X78167029Y-90181181D01*
X78262267Y-90181181D01*
X78405124Y-90228800D01*
X78452743Y-90276419D01*
X78786076Y-90181181D02*
X79405124Y-90181181D01*
X79071790Y-90562133D01*
X79214648Y-90562133D01*
X79309886Y-90609752D01*
X79357505Y-90657371D01*
X79405124Y-90752610D01*
X79405124Y-90990705D01*
X79357505Y-91085943D01*
X79309886Y-91133562D01*
X79214648Y-91181181D01*
X78928933Y-91181181D01*
X78833695Y-91133562D01*
X78786076Y-91085943D01*
X80357505Y-91181181D02*
X79786076Y-91181181D01*
X80071790Y-91181181D02*
X80071790Y-90181181D01*
X79976552Y-90324038D01*
X79881314Y-90419276D01*
X79786076Y-90466895D01*
X78325743Y-105055943D02*
X78278124Y-105103562D01*
X78135267Y-105151181D01*
X78040029Y-105151181D01*
X77897171Y-105103562D01*
X77801933Y-105008324D01*
X77754314Y-104913086D01*
X77706695Y-104722610D01*
X77706695Y-104579752D01*
X77754314Y-104389276D01*
X77801933Y-104294038D01*
X77897171Y-104198800D01*
X78040029Y-104151181D01*
X78135267Y-104151181D01*
X78278124Y-104198800D01*
X78325743Y-104246419D01*
X78659076Y-104151181D02*
X79278124Y-104151181D01*
X78944790Y-104532133D01*
X79087648Y-104532133D01*
X79182886Y-104579752D01*
X79230505Y-104627371D01*
X79278124Y-104722610D01*
X79278124Y-104960705D01*
X79230505Y-105055943D01*
X79182886Y-105103562D01*
X79087648Y-105151181D01*
X78801933Y-105151181D01*
X78706695Y-105103562D01*
X78659076Y-105055943D01*
X79659076Y-104246419D02*
X79706695Y-104198800D01*
X79801933Y-104151181D01*
X80040029Y-104151181D01*
X80135267Y-104198800D01*
X80182886Y-104246419D01*
X80230505Y-104341657D01*
X80230505Y-104436895D01*
X80182886Y-104579752D01*
X79611457Y-105151181D01*
X80230505Y-105151181D01*
X51528743Y-82322943D02*
X51481124Y-82370562D01*
X51338267Y-82418181D01*
X51243029Y-82418181D01*
X51100171Y-82370562D01*
X51004933Y-82275324D01*
X50957314Y-82180086D01*
X50909695Y-81989610D01*
X50909695Y-81846752D01*
X50957314Y-81656276D01*
X51004933Y-81561038D01*
X51100171Y-81465800D01*
X51243029Y-81418181D01*
X51338267Y-81418181D01*
X51481124Y-81465800D01*
X51528743Y-81513419D01*
X51909695Y-81513419D02*
X51957314Y-81465800D01*
X52052552Y-81418181D01*
X52290648Y-81418181D01*
X52385886Y-81465800D01*
X52433505Y-81513419D01*
X52481124Y-81608657D01*
X52481124Y-81703895D01*
X52433505Y-81846752D01*
X51862076Y-82418181D01*
X52481124Y-82418181D01*
X53100171Y-81418181D02*
X53195410Y-81418181D01*
X53290648Y-81465800D01*
X53338267Y-81513419D01*
X53385886Y-81608657D01*
X53433505Y-81799133D01*
X53433505Y-82037229D01*
X53385886Y-82227705D01*
X53338267Y-82322943D01*
X53290648Y-82370562D01*
X53195410Y-82418181D01*
X53100171Y-82418181D01*
X53004933Y-82370562D01*
X52957314Y-82322943D01*
X52909695Y-82227705D01*
X52862076Y-82037229D01*
X52862076Y-81799133D01*
X52909695Y-81608657D01*
X52957314Y-81513419D01*
X53004933Y-81465800D01*
X53100171Y-81418181D01*
X70430343Y-101524357D02*
X70477962Y-101571976D01*
X70525581Y-101714833D01*
X70525581Y-101810071D01*
X70477962Y-101952929D01*
X70382724Y-102048167D01*
X70287486Y-102095786D01*
X70097010Y-102143405D01*
X69954152Y-102143405D01*
X69763676Y-102095786D01*
X69668438Y-102048167D01*
X69573200Y-101952929D01*
X69525581Y-101810071D01*
X69525581Y-101714833D01*
X69573200Y-101571976D01*
X69620819Y-101524357D01*
X69620819Y-101143405D02*
X69573200Y-101095786D01*
X69525581Y-101000548D01*
X69525581Y-100762452D01*
X69573200Y-100667214D01*
X69620819Y-100619595D01*
X69716057Y-100571976D01*
X69811295Y-100571976D01*
X69954152Y-100619595D01*
X70525581Y-101191024D01*
X70525581Y-100571976D01*
X69620819Y-100191024D02*
X69573200Y-100143405D01*
X69525581Y-100048167D01*
X69525581Y-99810071D01*
X69573200Y-99714833D01*
X69620819Y-99667214D01*
X69716057Y-99619595D01*
X69811295Y-99619595D01*
X69954152Y-99667214D01*
X70525581Y-100238643D01*
X70525581Y-99619595D01*
X41327343Y-108262657D02*
X41374962Y-108310276D01*
X41422581Y-108453133D01*
X41422581Y-108548371D01*
X41374962Y-108691229D01*
X41279724Y-108786467D01*
X41184486Y-108834086D01*
X40994010Y-108881705D01*
X40851152Y-108881705D01*
X40660676Y-108834086D01*
X40565438Y-108786467D01*
X40470200Y-108691229D01*
X40422581Y-108548371D01*
X40422581Y-108453133D01*
X40470200Y-108310276D01*
X40517819Y-108262657D01*
X40517819Y-107881705D02*
X40470200Y-107834086D01*
X40422581Y-107738848D01*
X40422581Y-107500752D01*
X40470200Y-107405514D01*
X40517819Y-107357895D01*
X40613057Y-107310276D01*
X40708295Y-107310276D01*
X40851152Y-107357895D01*
X41422581Y-107929324D01*
X41422581Y-107310276D01*
X40755914Y-106453133D02*
X41422581Y-106453133D01*
X40374962Y-106691229D02*
X41089248Y-106929324D01*
X41089248Y-106310276D01*
X50893743Y-45619943D02*
X50846124Y-45667562D01*
X50703267Y-45715181D01*
X50608029Y-45715181D01*
X50465171Y-45667562D01*
X50369933Y-45572324D01*
X50322314Y-45477086D01*
X50274695Y-45286610D01*
X50274695Y-45143752D01*
X50322314Y-44953276D01*
X50369933Y-44858038D01*
X50465171Y-44762800D01*
X50608029Y-44715181D01*
X50703267Y-44715181D01*
X50846124Y-44762800D01*
X50893743Y-44810419D01*
X51846124Y-45715181D02*
X51274695Y-45715181D01*
X51560409Y-45715181D02*
X51560409Y-44715181D01*
X51465171Y-44858038D01*
X51369933Y-44953276D01*
X51274695Y-45000895D01*
X52322314Y-45715181D02*
X52512790Y-45715181D01*
X52608029Y-45667562D01*
X52655648Y-45619943D01*
X52750886Y-45477086D01*
X52798505Y-45286610D01*
X52798505Y-44905657D01*
X52750886Y-44810419D01*
X52703267Y-44762800D01*
X52608029Y-44715181D01*
X52417552Y-44715181D01*
X52322314Y-44762800D01*
X52274695Y-44810419D01*
X52227076Y-44905657D01*
X52227076Y-45143752D01*
X52274695Y-45238990D01*
X52322314Y-45286610D01*
X52417552Y-45334229D01*
X52608029Y-45334229D01*
X52703267Y-45286610D01*
X52750886Y-45238990D01*
X52798505Y-45143752D01*
X42406843Y-128366757D02*
X42454462Y-128414376D01*
X42502081Y-128557233D01*
X42502081Y-128652471D01*
X42454462Y-128795329D01*
X42359224Y-128890567D01*
X42263986Y-128938186D01*
X42073510Y-128985805D01*
X41930652Y-128985805D01*
X41740176Y-128938186D01*
X41644938Y-128890567D01*
X41549700Y-128795329D01*
X41502081Y-128652471D01*
X41502081Y-128557233D01*
X41549700Y-128414376D01*
X41597319Y-128366757D01*
X41597319Y-127985805D02*
X41549700Y-127938186D01*
X41502081Y-127842948D01*
X41502081Y-127604852D01*
X41549700Y-127509614D01*
X41597319Y-127461995D01*
X41692557Y-127414376D01*
X41787795Y-127414376D01*
X41930652Y-127461995D01*
X42502081Y-128033424D01*
X42502081Y-127414376D01*
X42502081Y-126461995D02*
X42502081Y-127033424D01*
X42502081Y-126747710D02*
X41502081Y-126747710D01*
X41644938Y-126842948D01*
X41740176Y-126938186D01*
X41787795Y-127033424D01*
X41352743Y-111183657D02*
X41400362Y-111231276D01*
X41447981Y-111374133D01*
X41447981Y-111469371D01*
X41400362Y-111612229D01*
X41305124Y-111707467D01*
X41209886Y-111755086D01*
X41019410Y-111802705D01*
X40876552Y-111802705D01*
X40686076Y-111755086D01*
X40590838Y-111707467D01*
X40495600Y-111612229D01*
X40447981Y-111469371D01*
X40447981Y-111374133D01*
X40495600Y-111231276D01*
X40543219Y-111183657D01*
X40543219Y-110802705D02*
X40495600Y-110755086D01*
X40447981Y-110659848D01*
X40447981Y-110421752D01*
X40495600Y-110326514D01*
X40543219Y-110278895D01*
X40638457Y-110231276D01*
X40733695Y-110231276D01*
X40876552Y-110278895D01*
X41447981Y-110850324D01*
X41447981Y-110231276D01*
X40447981Y-109326514D02*
X40447981Y-109802705D01*
X40924171Y-109850324D01*
X40876552Y-109802705D01*
X40828933Y-109707467D01*
X40828933Y-109469371D01*
X40876552Y-109374133D01*
X40924171Y-109326514D01*
X41019410Y-109278895D01*
X41257505Y-109278895D01*
X41352743Y-109326514D01*
X41400362Y-109374133D01*
X41447981Y-109469371D01*
X41447981Y-109707467D01*
X41400362Y-109802705D01*
X41352743Y-109850324D01*
X41352743Y-114231657D02*
X41400362Y-114279276D01*
X41447981Y-114422133D01*
X41447981Y-114517371D01*
X41400362Y-114660229D01*
X41305124Y-114755467D01*
X41209886Y-114803086D01*
X41019410Y-114850705D01*
X40876552Y-114850705D01*
X40686076Y-114803086D01*
X40590838Y-114755467D01*
X40495600Y-114660229D01*
X40447981Y-114517371D01*
X40447981Y-114422133D01*
X40495600Y-114279276D01*
X40543219Y-114231657D01*
X40543219Y-113850705D02*
X40495600Y-113803086D01*
X40447981Y-113707848D01*
X40447981Y-113469752D01*
X40495600Y-113374514D01*
X40543219Y-113326895D01*
X40638457Y-113279276D01*
X40733695Y-113279276D01*
X40876552Y-113326895D01*
X41447981Y-113898324D01*
X41447981Y-113279276D01*
X40447981Y-112422133D02*
X40447981Y-112612610D01*
X40495600Y-112707848D01*
X40543219Y-112755467D01*
X40686076Y-112850705D01*
X40876552Y-112898324D01*
X41257505Y-112898324D01*
X41352743Y-112850705D01*
X41400362Y-112803086D01*
X41447981Y-112707848D01*
X41447981Y-112517371D01*
X41400362Y-112422133D01*
X41352743Y-112374514D01*
X41257505Y-112326895D01*
X41019410Y-112326895D01*
X40924171Y-112374514D01*
X40876552Y-112422133D01*
X40828933Y-112517371D01*
X40828933Y-112707848D01*
X40876552Y-112803086D01*
X40924171Y-112850705D01*
X41019410Y-112898324D01*
X41352743Y-117025657D02*
X41400362Y-117073276D01*
X41447981Y-117216133D01*
X41447981Y-117311371D01*
X41400362Y-117454229D01*
X41305124Y-117549467D01*
X41209886Y-117597086D01*
X41019410Y-117644705D01*
X40876552Y-117644705D01*
X40686076Y-117597086D01*
X40590838Y-117549467D01*
X40495600Y-117454229D01*
X40447981Y-117311371D01*
X40447981Y-117216133D01*
X40495600Y-117073276D01*
X40543219Y-117025657D01*
X40447981Y-116692324D02*
X40447981Y-116073276D01*
X40828933Y-116406610D01*
X40828933Y-116263752D01*
X40876552Y-116168514D01*
X40924171Y-116120895D01*
X41019410Y-116073276D01*
X41257505Y-116073276D01*
X41352743Y-116120895D01*
X41400362Y-116168514D01*
X41447981Y-116263752D01*
X41447981Y-116549467D01*
X41400362Y-116644705D01*
X41352743Y-116692324D01*
X40447981Y-115739943D02*
X40447981Y-115120895D01*
X40828933Y-115454229D01*
X40828933Y-115311371D01*
X40876552Y-115216133D01*
X40924171Y-115168514D01*
X41019410Y-115120895D01*
X41257505Y-115120895D01*
X41352743Y-115168514D01*
X41400362Y-115216133D01*
X41447981Y-115311371D01*
X41447981Y-115597086D01*
X41400362Y-115692324D01*
X41352743Y-115739943D01*
X41352743Y-120073657D02*
X41400362Y-120121276D01*
X41447981Y-120264133D01*
X41447981Y-120359371D01*
X41400362Y-120502229D01*
X41305124Y-120597467D01*
X41209886Y-120645086D01*
X41019410Y-120692705D01*
X40876552Y-120692705D01*
X40686076Y-120645086D01*
X40590838Y-120597467D01*
X40495600Y-120502229D01*
X40447981Y-120359371D01*
X40447981Y-120264133D01*
X40495600Y-120121276D01*
X40543219Y-120073657D01*
X40447981Y-119740324D02*
X40447981Y-119121276D01*
X40828933Y-119454610D01*
X40828933Y-119311752D01*
X40876552Y-119216514D01*
X40924171Y-119168895D01*
X41019410Y-119121276D01*
X41257505Y-119121276D01*
X41352743Y-119168895D01*
X41400362Y-119216514D01*
X41447981Y-119311752D01*
X41447981Y-119597467D01*
X41400362Y-119692705D01*
X41352743Y-119740324D01*
X40781314Y-118264133D02*
X41447981Y-118264133D01*
X40400362Y-118502229D02*
X41114648Y-118740324D01*
X41114648Y-118121276D01*
X41352743Y-122867657D02*
X41400362Y-122915276D01*
X41447981Y-123058133D01*
X41447981Y-123153371D01*
X41400362Y-123296229D01*
X41305124Y-123391467D01*
X41209886Y-123439086D01*
X41019410Y-123486705D01*
X40876552Y-123486705D01*
X40686076Y-123439086D01*
X40590838Y-123391467D01*
X40495600Y-123296229D01*
X40447981Y-123153371D01*
X40447981Y-123058133D01*
X40495600Y-122915276D01*
X40543219Y-122867657D01*
X40447981Y-122534324D02*
X40447981Y-121915276D01*
X40828933Y-122248610D01*
X40828933Y-122105752D01*
X40876552Y-122010514D01*
X40924171Y-121962895D01*
X41019410Y-121915276D01*
X41257505Y-121915276D01*
X41352743Y-121962895D01*
X41400362Y-122010514D01*
X41447981Y-122105752D01*
X41447981Y-122391467D01*
X41400362Y-122486705D01*
X41352743Y-122534324D01*
X40447981Y-121010514D02*
X40447981Y-121486705D01*
X40924171Y-121534324D01*
X40876552Y-121486705D01*
X40828933Y-121391467D01*
X40828933Y-121153371D01*
X40876552Y-121058133D01*
X40924171Y-121010514D01*
X41019410Y-120962895D01*
X41257505Y-120962895D01*
X41352743Y-121010514D01*
X41400362Y-121058133D01*
X41447981Y-121153371D01*
X41447981Y-121391467D01*
X41400362Y-121486705D01*
X41352743Y-121534324D01*
X64212743Y-135948657D02*
X64260362Y-135996276D01*
X64307981Y-136139133D01*
X64307981Y-136234371D01*
X64260362Y-136377229D01*
X64165124Y-136472467D01*
X64069886Y-136520086D01*
X63879410Y-136567705D01*
X63736552Y-136567705D01*
X63546076Y-136520086D01*
X63450838Y-136472467D01*
X63355600Y-136377229D01*
X63307981Y-136234371D01*
X63307981Y-136139133D01*
X63355600Y-135996276D01*
X63403219Y-135948657D01*
X63307981Y-135615324D02*
X63307981Y-134996276D01*
X63688933Y-135329610D01*
X63688933Y-135186752D01*
X63736552Y-135091514D01*
X63784171Y-135043895D01*
X63879410Y-134996276D01*
X64117505Y-134996276D01*
X64212743Y-135043895D01*
X64260362Y-135091514D01*
X64307981Y-135186752D01*
X64307981Y-135472467D01*
X64260362Y-135567705D01*
X64212743Y-135615324D01*
X63307981Y-134139133D02*
X63307981Y-134329610D01*
X63355600Y-134424848D01*
X63403219Y-134472467D01*
X63546076Y-134567705D01*
X63736552Y-134615324D01*
X64117505Y-134615324D01*
X64212743Y-134567705D01*
X64260362Y-134520086D01*
X64307981Y-134424848D01*
X64307981Y-134234371D01*
X64260362Y-134139133D01*
X64212743Y-134091514D01*
X64117505Y-134043895D01*
X63879410Y-134043895D01*
X63784171Y-134091514D01*
X63736552Y-134139133D01*
X63688933Y-134234371D01*
X63688933Y-134424848D01*
X63736552Y-134520086D01*
X63784171Y-134567705D01*
X63879410Y-134615324D01*
X52417743Y-131027443D02*
X52370124Y-131075062D01*
X52227267Y-131122681D01*
X52132029Y-131122681D01*
X51989171Y-131075062D01*
X51893933Y-130979824D01*
X51846314Y-130884586D01*
X51798695Y-130694110D01*
X51798695Y-130551252D01*
X51846314Y-130360776D01*
X51893933Y-130265538D01*
X51989171Y-130170300D01*
X52132029Y-130122681D01*
X52227267Y-130122681D01*
X52370124Y-130170300D01*
X52417743Y-130217919D01*
X52751076Y-130122681D02*
X53370124Y-130122681D01*
X53036790Y-130503633D01*
X53179648Y-130503633D01*
X53274886Y-130551252D01*
X53322505Y-130598871D01*
X53370124Y-130694110D01*
X53370124Y-130932205D01*
X53322505Y-131027443D01*
X53274886Y-131075062D01*
X53179648Y-131122681D01*
X52893933Y-131122681D01*
X52798695Y-131075062D01*
X52751076Y-131027443D01*
X53941552Y-130551252D02*
X53846314Y-130503633D01*
X53798695Y-130456014D01*
X53751076Y-130360776D01*
X53751076Y-130313157D01*
X53798695Y-130217919D01*
X53846314Y-130170300D01*
X53941552Y-130122681D01*
X54132029Y-130122681D01*
X54227267Y-130170300D01*
X54274886Y-130217919D01*
X54322505Y-130313157D01*
X54322505Y-130360776D01*
X54274886Y-130456014D01*
X54227267Y-130503633D01*
X54132029Y-130551252D01*
X53941552Y-130551252D01*
X53846314Y-130598871D01*
X53798695Y-130646490D01*
X53751076Y-130741729D01*
X53751076Y-130932205D01*
X53798695Y-131027443D01*
X53846314Y-131075062D01*
X53941552Y-131122681D01*
X54132029Y-131122681D01*
X54227267Y-131075062D01*
X54274886Y-131027443D01*
X54322505Y-130932205D01*
X54322505Y-130741729D01*
X54274886Y-130646490D01*
X54227267Y-130598871D01*
X54132029Y-130551252D01*
X40784981Y-87379133D02*
X41499267Y-87379133D01*
X41642124Y-87426753D01*
X41737362Y-87521991D01*
X41784981Y-87664848D01*
X41784981Y-87760086D01*
X41118314Y-86474371D02*
X41784981Y-86474371D01*
X40737362Y-86712467D02*
X41451648Y-86950562D01*
X41451648Y-86331514D01*
X52481267Y-128408181D02*
X52481267Y-129122467D01*
X52433647Y-129265324D01*
X52338409Y-129360562D01*
X52195552Y-129408181D01*
X52100314Y-129408181D01*
X52957457Y-129408181D02*
X52957457Y-128408181D01*
X53338410Y-128408181D01*
X53433648Y-128455800D01*
X53481267Y-128503419D01*
X53528886Y-128598657D01*
X53528886Y-128741514D01*
X53481267Y-128836752D01*
X53433648Y-128884371D01*
X53338410Y-128931990D01*
X52957457Y-128931990D01*
X54481267Y-129408181D02*
X53909838Y-129408181D01*
X54195552Y-129408181D02*
X54195552Y-128408181D01*
X54100314Y-128551038D01*
X54005076Y-128646276D01*
X53909838Y-128693895D01*
X58932867Y-90072781D02*
X58932867Y-90787067D01*
X58885247Y-90929924D01*
X58790009Y-91025162D01*
X58647152Y-91072781D01*
X58551914Y-91072781D01*
X59409057Y-91072781D02*
X59409057Y-90072781D01*
X59790010Y-90072781D01*
X59885248Y-90120400D01*
X59932867Y-90168019D01*
X59980486Y-90263257D01*
X59980486Y-90406114D01*
X59932867Y-90501352D01*
X59885248Y-90548971D01*
X59790010Y-90596590D01*
X59409057Y-90596590D01*
X60361438Y-90168019D02*
X60409057Y-90120400D01*
X60504295Y-90072781D01*
X60742391Y-90072781D01*
X60837629Y-90120400D01*
X60885248Y-90168019D01*
X60932867Y-90263257D01*
X60932867Y-90358495D01*
X60885248Y-90501352D01*
X60313819Y-91072781D01*
X60932867Y-91072781D01*
X62534587Y-90016901D02*
X62534587Y-90731187D01*
X62486967Y-90874044D01*
X62391729Y-90969282D01*
X62248872Y-91016901D01*
X62153634Y-91016901D01*
X63010777Y-91016901D02*
X63010777Y-90016901D01*
X63391730Y-90016901D01*
X63486968Y-90064520D01*
X63534587Y-90112139D01*
X63582206Y-90207377D01*
X63582206Y-90350234D01*
X63534587Y-90445472D01*
X63486968Y-90493091D01*
X63391730Y-90540710D01*
X63010777Y-90540710D01*
X63915539Y-90016901D02*
X64534587Y-90016901D01*
X64201253Y-90397853D01*
X64344111Y-90397853D01*
X64439349Y-90445472D01*
X64486968Y-90493091D01*
X64534587Y-90588330D01*
X64534587Y-90826425D01*
X64486968Y-90921663D01*
X64439349Y-90969282D01*
X64344111Y-91016901D01*
X64058396Y-91016901D01*
X63963158Y-90969282D01*
X63915539Y-90921663D01*
X66085507Y-90047381D02*
X66085507Y-90761667D01*
X66037887Y-90904524D01*
X65942649Y-90999762D01*
X65799792Y-91047381D01*
X65704554Y-91047381D01*
X66561697Y-91047381D02*
X66561697Y-90047381D01*
X66942650Y-90047381D01*
X67037888Y-90095000D01*
X67085507Y-90142619D01*
X67133126Y-90237857D01*
X67133126Y-90380714D01*
X67085507Y-90475952D01*
X67037888Y-90523571D01*
X66942650Y-90571190D01*
X66561697Y-90571190D01*
X67990269Y-90380714D02*
X67990269Y-91047381D01*
X67752173Y-89999762D02*
X67514078Y-90714048D01*
X68133126Y-90714048D01*
X51947843Y-108021381D02*
X51471652Y-108021381D01*
X51471652Y-107021381D01*
X52804986Y-108021381D02*
X52233557Y-108021381D01*
X52519271Y-108021381D02*
X52519271Y-107021381D01*
X52424033Y-107164238D01*
X52328795Y-107259476D01*
X52233557Y-107307095D01*
X53138319Y-107021381D02*
X53757367Y-107021381D01*
X53424033Y-107402333D01*
X53566891Y-107402333D01*
X53662129Y-107449952D01*
X53709748Y-107497571D01*
X53757367Y-107592810D01*
X53757367Y-107830905D01*
X53709748Y-107926143D01*
X53662129Y-107973762D01*
X53566891Y-108021381D01*
X53281176Y-108021381D01*
X53185938Y-107973762D01*
X53138319Y-107926143D01*
X51820843Y-111031281D02*
X51344652Y-111031281D01*
X51344652Y-110031281D01*
X52677986Y-111031281D02*
X52106557Y-111031281D01*
X52392271Y-111031281D02*
X52392271Y-110031281D01*
X52297033Y-110174138D01*
X52201795Y-110269376D01*
X52106557Y-110316995D01*
X53535129Y-110364614D02*
X53535129Y-111031281D01*
X53297033Y-109983662D02*
X53058938Y-110697948D01*
X53677986Y-110697948D01*
X51782743Y-113787181D02*
X51306552Y-113787181D01*
X51306552Y-112787181D01*
X52639886Y-113787181D02*
X52068457Y-113787181D01*
X52354171Y-113787181D02*
X52354171Y-112787181D01*
X52258933Y-112930038D01*
X52163695Y-113025276D01*
X52068457Y-113072895D01*
X53544648Y-112787181D02*
X53068457Y-112787181D01*
X53020838Y-113263371D01*
X53068457Y-113215752D01*
X53163695Y-113168133D01*
X53401791Y-113168133D01*
X53497029Y-113215752D01*
X53544648Y-113263371D01*
X53592267Y-113358610D01*
X53592267Y-113596705D01*
X53544648Y-113691943D01*
X53497029Y-113739562D01*
X53401791Y-113787181D01*
X53163695Y-113787181D01*
X53068457Y-113739562D01*
X53020838Y-113691943D01*
X51782743Y-117343181D02*
X51306552Y-117343181D01*
X51306552Y-116343181D01*
X52639886Y-117343181D02*
X52068457Y-117343181D01*
X52354171Y-117343181D02*
X52354171Y-116343181D01*
X52258933Y-116486038D01*
X52163695Y-116581276D01*
X52068457Y-116628895D01*
X53497029Y-116343181D02*
X53306552Y-116343181D01*
X53211314Y-116390800D01*
X53163695Y-116438419D01*
X53068457Y-116581276D01*
X53020838Y-116771752D01*
X53020838Y-117152705D01*
X53068457Y-117247943D01*
X53116076Y-117295562D01*
X53211314Y-117343181D01*
X53401791Y-117343181D01*
X53497029Y-117295562D01*
X53544648Y-117247943D01*
X53592267Y-117152705D01*
X53592267Y-116914610D01*
X53544648Y-116819371D01*
X53497029Y-116771752D01*
X53401791Y-116724133D01*
X53211314Y-116724133D01*
X53116076Y-116771752D01*
X53068457Y-116819371D01*
X53020838Y-116914610D01*
X52036743Y-119883181D02*
X51560552Y-119883181D01*
X51560552Y-118883181D01*
X52893886Y-119883181D02*
X52322457Y-119883181D01*
X52608171Y-119883181D02*
X52608171Y-118883181D01*
X52512933Y-119026038D01*
X52417695Y-119121276D01*
X52322457Y-119168895D01*
X53227219Y-118883181D02*
X53893886Y-118883181D01*
X53465314Y-119883181D01*
X51782743Y-122677181D02*
X51306552Y-122677181D01*
X51306552Y-121677181D01*
X52639886Y-122677181D02*
X52068457Y-122677181D01*
X52354171Y-122677181D02*
X52354171Y-121677181D01*
X52258933Y-121820038D01*
X52163695Y-121915276D01*
X52068457Y-121962895D01*
X53211314Y-122105752D02*
X53116076Y-122058133D01*
X53068457Y-122010514D01*
X53020838Y-121915276D01*
X53020838Y-121867657D01*
X53068457Y-121772419D01*
X53116076Y-121724800D01*
X53211314Y-121677181D01*
X53401791Y-121677181D01*
X53497029Y-121724800D01*
X53544648Y-121772419D01*
X53592267Y-121867657D01*
X53592267Y-121915276D01*
X53544648Y-122010514D01*
X53497029Y-122058133D01*
X53401791Y-122105752D01*
X53211314Y-122105752D01*
X53116076Y-122153371D01*
X53068457Y-122200990D01*
X53020838Y-122296229D01*
X53020838Y-122486705D01*
X53068457Y-122581943D01*
X53116076Y-122629562D01*
X53211314Y-122677181D01*
X53401791Y-122677181D01*
X53497029Y-122629562D01*
X53544648Y-122581943D01*
X53592267Y-122486705D01*
X53592267Y-122296229D01*
X53544648Y-122200990D01*
X53497029Y-122153371D01*
X53401791Y-122105752D01*
X56418243Y-133599181D02*
X55942052Y-133599181D01*
X55942052Y-132599181D01*
X57275386Y-133599181D02*
X56703957Y-133599181D01*
X56989671Y-133599181D02*
X56989671Y-132599181D01*
X56894433Y-132742038D01*
X56799195Y-132837276D01*
X56703957Y-132884895D01*
X57751576Y-133599181D02*
X57942052Y-133599181D01*
X58037291Y-133551562D01*
X58084910Y-133503943D01*
X58180148Y-133361086D01*
X58227767Y-133170610D01*
X58227767Y-132789657D01*
X58180148Y-132694419D01*
X58132529Y-132646800D01*
X58037291Y-132599181D01*
X57846814Y-132599181D01*
X57751576Y-132646800D01*
X57703957Y-132694419D01*
X57656338Y-132789657D01*
X57656338Y-133027752D01*
X57703957Y-133122990D01*
X57751576Y-133170610D01*
X57846814Y-133218229D01*
X58037291Y-133218229D01*
X58132529Y-133170610D01*
X58180148Y-133122990D01*
X58227767Y-133027752D01*
X56989743Y-137663181D02*
X56513552Y-137663181D01*
X56513552Y-136663181D01*
X57275457Y-136758419D02*
X57323076Y-136710800D01*
X57418314Y-136663181D01*
X57656410Y-136663181D01*
X57751648Y-136710800D01*
X57799267Y-136758419D01*
X57846886Y-136853657D01*
X57846886Y-136948895D01*
X57799267Y-137091752D01*
X57227838Y-137663181D01*
X57846886Y-137663181D01*
X58465933Y-136663181D02*
X58561172Y-136663181D01*
X58656410Y-136710800D01*
X58704029Y-136758419D01*
X58751648Y-136853657D01*
X58799267Y-137044133D01*
X58799267Y-137282229D01*
X58751648Y-137472705D01*
X58704029Y-137567943D01*
X58656410Y-137615562D01*
X58561172Y-137663181D01*
X58465933Y-137663181D01*
X58370695Y-137615562D01*
X58323076Y-137567943D01*
X58275457Y-137472705D01*
X58227838Y-137282229D01*
X58227838Y-137044133D01*
X58275457Y-136853657D01*
X58323076Y-136758419D01*
X58370695Y-136710800D01*
X58465933Y-136663181D01*
X44457881Y-76188866D02*
X43981690Y-76522200D01*
X44457881Y-76760295D02*
X43457881Y-76760295D01*
X43457881Y-76379342D01*
X43505500Y-76284104D01*
X43553119Y-76236485D01*
X43648357Y-76188866D01*
X43791214Y-76188866D01*
X43886452Y-76236485D01*
X43934071Y-76284104D01*
X43981690Y-76379342D01*
X43981690Y-76760295D01*
X44457881Y-75236485D02*
X44457881Y-75807914D01*
X44457881Y-75522200D02*
X43457881Y-75522200D01*
X43600738Y-75617438D01*
X43695976Y-75712676D01*
X43743595Y-75807914D01*
X47787821Y-75833266D02*
X47311630Y-76166600D01*
X47787821Y-76404695D02*
X46787821Y-76404695D01*
X46787821Y-76023742D01*
X46835440Y-75928504D01*
X46883059Y-75880885D01*
X46978297Y-75833266D01*
X47121154Y-75833266D01*
X47216392Y-75880885D01*
X47264011Y-75928504D01*
X47311630Y-76023742D01*
X47311630Y-76404695D01*
X46883059Y-75452314D02*
X46835440Y-75404695D01*
X46787821Y-75309457D01*
X46787821Y-75071361D01*
X46835440Y-74976123D01*
X46883059Y-74928504D01*
X46978297Y-74880885D01*
X47073535Y-74880885D01*
X47216392Y-74928504D01*
X47787821Y-75499933D01*
X47787821Y-74880885D01*
X63371481Y-98793205D02*
X64181005Y-98793205D01*
X64276243Y-98745586D01*
X64323862Y-98697967D01*
X64371481Y-98602729D01*
X64371481Y-98412252D01*
X64323862Y-98317014D01*
X64276243Y-98269395D01*
X64181005Y-98221776D01*
X63371481Y-98221776D01*
X64371481Y-97221776D02*
X64371481Y-97793205D01*
X64371481Y-97507491D02*
X63371481Y-97507491D01*
X63514338Y-97602729D01*
X63609576Y-97697967D01*
X63657195Y-97793205D01*
X46004243Y-139218943D02*
X45956624Y-139266562D01*
X45813767Y-139314181D01*
X45718529Y-139314181D01*
X45575671Y-139266562D01*
X45480433Y-139171324D01*
X45432814Y-139076086D01*
X45385195Y-138885610D01*
X45385195Y-138742752D01*
X45432814Y-138552276D01*
X45480433Y-138457038D01*
X45575671Y-138361800D01*
X45718529Y-138314181D01*
X45813767Y-138314181D01*
X45956624Y-138361800D01*
X46004243Y-138409419D01*
X46337576Y-138314181D02*
X46956624Y-138314181D01*
X46623290Y-138695133D01*
X46766148Y-138695133D01*
X46861386Y-138742752D01*
X46909005Y-138790371D01*
X46956624Y-138885610D01*
X46956624Y-139123705D01*
X46909005Y-139218943D01*
X46861386Y-139266562D01*
X46766148Y-139314181D01*
X46480433Y-139314181D01*
X46385195Y-139266562D01*
X46337576Y-139218943D01*
X47289957Y-138314181D02*
X47956624Y-138314181D01*
X47528052Y-139314181D01*
X51782743Y-70257943D02*
X51735124Y-70305562D01*
X51592267Y-70353181D01*
X51497029Y-70353181D01*
X51354171Y-70305562D01*
X51258933Y-70210324D01*
X51211314Y-70115086D01*
X51163695Y-69924610D01*
X51163695Y-69781752D01*
X51211314Y-69591276D01*
X51258933Y-69496038D01*
X51354171Y-69400800D01*
X51497029Y-69353181D01*
X51592267Y-69353181D01*
X51735124Y-69400800D01*
X51782743Y-69448419D01*
X52163695Y-69448419D02*
X52211314Y-69400800D01*
X52306552Y-69353181D01*
X52544648Y-69353181D01*
X52639886Y-69400800D01*
X52687505Y-69448419D01*
X52735124Y-69543657D01*
X52735124Y-69638895D01*
X52687505Y-69781752D01*
X52116076Y-70353181D01*
X52735124Y-70353181D01*
X53068457Y-69353181D02*
X53687505Y-69353181D01*
X53354171Y-69734133D01*
X53497029Y-69734133D01*
X53592267Y-69781752D01*
X53639886Y-69829371D01*
X53687505Y-69924610D01*
X53687505Y-70162705D01*
X53639886Y-70257943D01*
X53592267Y-70305562D01*
X53497029Y-70353181D01*
X53211314Y-70353181D01*
X53116076Y-70305562D01*
X53068457Y-70257943D01*
M02*
