M48
;DRILL file {KiCad 4.0.7} date 11/23/19 23:12:25
;FORMAT={-:-/ absolute / metric / decimal}
FMAT,2
METRIC,TZ
T1C0.400
T2C0.800
T3C0.900
T4C1.000
T5C1.200
T6C1.300
T7C1.500
T8C1.520
T9C3.048
%
G90
G05
M71
T1
X143.01Y-112.06
T2
X39.4Y-122.8
X39.4Y-127.8
X41.25Y-87.9
X41.45Y-42.7
X41.45Y-45.3
X41.45Y-47.95
X41.45Y-50.5
X41.5Y-40.1
X41.5Y-53.1
X41.5Y-63.25
X41.5Y-65.75
X41.5Y-68.5
X41.54Y-55.79
X41.56Y-58.34
X41.6Y-60.83
X42.5Y-90.75
X42.5Y-93.5
X42.5Y-96.25
X42.5Y-98.75
X42.5Y-101.5
X42.5Y-104.
X42.5Y-106.5
X42.5Y-109.
X42.5Y-111.75
X42.5Y-114.5
X42.5Y-117.
X42.5Y-119.5
X43.95Y-42.7
X43.95Y-45.3
X43.95Y-47.95
X43.95Y-50.5
X44.Y-40.1
X44.Y-53.1
X44.Y-63.25
X44.Y-65.75
X44.Y-68.5
X44.04Y-55.79
X44.06Y-58.34
X44.1Y-60.83
X45.Y-90.75
X45.Y-93.5
X45.Y-96.25
X45.Y-98.75
X45.Y-101.5
X45.Y-104.
X45.Y-106.5
X45.Y-109.
X45.Y-111.75
X45.Y-114.5
X45.Y-117.
X45.Y-119.5
X46.25Y-87.9
X46.73Y-39.3
X47.Y-33.65
X47.Y-36.15
X49.5Y-121.75
X53.7Y-124.6
X54.2Y-34.15
X54.35Y-39.3
X56.2Y-124.6
X56.7Y-34.15
X57.12Y-121.75
X60.98Y-39.25
X62.1Y-33.8
X62.1Y-36.3
X64.178Y-121.679
X68.5Y-124.6
X68.6Y-39.25
X71.Y-124.6
X71.798Y-121.679
X76.38Y-39.
X77.3Y-33.5
X77.3Y-36.
X81.Y-121.75
X83.9Y-124.8
X84.Y-39.
X86.4Y-124.8
X88.62Y-121.75
X89.25Y-124.75
X89.25Y-127.25
X91.63Y-39.
X93.1Y-33.6
X93.1Y-36.1
X96.5Y-121.75
X99.25Y-39.
X101.1Y-124.8
X101.4Y-33.45
X103.6Y-124.8
X103.9Y-33.45
X104.12Y-121.75
X108.38Y-39.
X108.8Y-33.3
X108.8Y-35.8
X114.5Y-122.
X116.Y-39.
X118.5Y-125.2
X121.Y-125.2
X122.12Y-122.
X124.38Y-39.3
X125.1Y-33.6
X125.1Y-36.1
X129.Y-122.
X131.3Y-125.
X132.Y-39.3
X133.8Y-125.
X136.62Y-122.
X136.75Y-124.75
X136.75Y-127.25
X139.38Y-39.
X140.4Y-33.5
X140.4Y-36.
X143.5Y-121.76
X146.9Y-124.6
X147.Y-39.
X149.4Y-124.6
X151.12Y-121.76
X154.38Y-39.
X154.4Y-33.6
X154.4Y-36.1
X158.Y-121.77
X162.Y-39.
X162.5Y-125.2
X165.Y-125.2
X165.62Y-121.77
X169.38Y-39.
X170.Y-33.4
X170.Y-35.9
X172.75Y-122.
X176.7Y-125.
X177.Y-39.
X179.2Y-125.
X180.37Y-122.
X184.38Y-39.
X185.1Y-33.5
X185.1Y-36.
X187.5Y-122.
X189.3Y-125.
X191.8Y-125.
X192.Y-39.
X194.8Y-124.7
X194.8Y-127.2
X195.12Y-122.
X199.38Y-39.
X199.95Y-33.55
X199.95Y-36.05
X202.Y-121.75
X205.9Y-125.
X207.Y-39.
X208.4Y-125.
X209.62Y-121.75
X213.47Y-39.32
X215.05Y-33.3
X215.05Y-35.8
X216.25Y-121.75
X219.55Y-33.75
X219.7Y-124.8
X221.09Y-39.32
X222.05Y-33.75
X222.2Y-124.8
X223.87Y-121.75
X226.2Y-110.8
X226.2Y-115.8
T3
X46.25Y-122.
X46.25Y-124.54
X57.65Y-36.91
X57.65Y-39.45
X60.617Y-121.272
X60.617Y-123.812
X72.1Y-37.11
X72.1Y-39.65
X77.75Y-121.25
X77.75Y-123.79
X87.6Y-37.01
X87.6Y-39.55
X93.Y-121.5
X93.Y-124.04
X102.7Y-37.11
X102.7Y-39.65
X111.Y-121.5
X111.Y-124.04
X119.6Y-37.06
X119.6Y-39.6
X125.75Y-121.5
X125.75Y-124.04
X135.4Y-37.01
X135.4Y-39.55
X140.27Y-121.35
X140.27Y-123.89
X150.7Y-37.16
X150.7Y-39.7
X154.69Y-121.2
X154.69Y-123.74
X165.55Y-37.11
X165.55Y-39.65
X169.25Y-121.5
X169.25Y-124.04
X180.8Y-36.91
X180.8Y-39.45
X183.75Y-121.5
X183.75Y-124.04
X195.55Y-37.01
X195.55Y-39.55
X198.5Y-121.5
X198.5Y-124.04
X210.31Y-37.08
X210.31Y-39.62
X213.Y-121.25
X213.Y-123.79
X224.52Y-37.27
X224.52Y-39.81
T4
X33.6Y-40.3
X33.6Y-42.84
X33.6Y-45.38
X33.6Y-47.92
X33.6Y-50.46
X33.6Y-53.
X33.6Y-55.54
X33.6Y-58.08
X33.6Y-60.62
X33.6Y-63.16
X33.6Y-65.7
X33.6Y-68.24
X34.46Y-91.06
X34.46Y-93.6
X34.46Y-96.14
X34.46Y-98.68
X34.46Y-101.22
X34.46Y-103.76
X34.46Y-106.3
X34.46Y-108.84
X34.46Y-111.38
X34.46Y-113.92
X34.46Y-116.46
X34.46Y-119.
X36.14Y-40.3
X36.14Y-42.84
X36.14Y-45.38
X36.14Y-47.92
X36.14Y-50.46
X36.14Y-53.
X36.14Y-55.54
X36.14Y-58.08
X36.14Y-60.62
X36.14Y-63.16
X36.14Y-65.7
X36.14Y-68.24
X37.Y-91.06
X37.Y-93.6
X37.Y-96.14
X37.Y-98.68
X37.Y-101.22
X37.Y-103.76
X37.Y-106.3
X37.Y-108.84
X37.Y-111.38
X37.Y-113.92
X37.Y-116.46
X37.Y-119.
T5
X39.65Y-71.5
X39.675Y-32.25
X39.675Y-37.25
X44.65Y-71.5
X226.15Y-42.9
X226.15Y-47.9
T6
X49.032Y-42.832
X49.032Y-58.072
X49.032Y-63.152
X49.032Y-68.232
X52.1Y-92.7
X52.1Y-97.78
X52.1Y-102.86
X52.1Y-118.1
X56.632Y-42.832
X56.632Y-58.072
X56.632Y-63.152
X56.632Y-68.232
X59.7Y-92.7
X59.7Y-97.78
X59.7Y-102.86
X59.7Y-118.1
X63.51Y-43.34
X63.51Y-58.58
X63.51Y-63.66
X63.51Y-68.74
X67.45Y-92.75
X67.45Y-97.83
X67.45Y-102.91
X67.45Y-118.15
X71.11Y-43.34
X71.11Y-58.58
X71.11Y-63.66
X71.11Y-68.74
X75.05Y-92.75
X75.05Y-97.83
X75.05Y-102.91
X75.05Y-118.15
X77.734Y-43.086
X77.734Y-58.326
X77.734Y-63.406
X77.734Y-68.486
X81.7Y-92.55
X81.7Y-97.63
X81.7Y-102.71
X81.7Y-117.95
X85.334Y-43.086
X85.334Y-58.326
X85.334Y-63.406
X85.334Y-68.486
X89.3Y-92.55
X89.3Y-97.63
X89.3Y-102.71
X89.3Y-117.95
X92.2Y-43.
X92.2Y-58.24
X92.2Y-63.32
X92.2Y-68.4
X94.85Y-92.4
X94.85Y-97.48
X94.85Y-102.56
X94.85Y-117.8
X99.8Y-43.
X99.8Y-58.24
X99.8Y-63.32
X99.8Y-68.4
X102.45Y-92.4
X102.45Y-97.48
X102.45Y-102.56
X102.45Y-117.8
X108.2Y-43.
X108.2Y-58.24
X108.2Y-63.32
X108.2Y-68.4
X108.7Y-92.6
X108.7Y-97.68
X108.7Y-102.76
X108.7Y-118.
X115.8Y-43.
X115.8Y-58.24
X115.8Y-63.32
X115.8Y-68.4
X116.3Y-92.6
X116.3Y-97.68
X116.3Y-102.76
X116.3Y-118.
X122.2Y-92.6
X122.2Y-97.68
X122.2Y-102.76
X122.2Y-118.
X123.2Y-43.
X123.2Y-58.24
X123.2Y-63.32
X123.2Y-68.4
X129.8Y-92.6
X129.8Y-97.68
X129.8Y-102.76
X129.8Y-118.
X130.8Y-43.
X130.8Y-58.24
X130.8Y-63.32
X130.8Y-68.4
X137.2Y-92.6
X137.2Y-97.68
X137.2Y-102.76
X137.2Y-118.
X138.2Y-43.
X138.2Y-58.24
X138.2Y-63.32
X138.2Y-68.4
X144.8Y-92.6
X144.8Y-97.68
X144.8Y-102.76
X144.8Y-118.
X145.8Y-43.
X145.8Y-58.24
X145.8Y-63.32
X145.8Y-68.4
X151.2Y-92.6
X151.2Y-97.68
X151.2Y-102.76
X151.2Y-118.
X153.2Y-43.
X153.2Y-58.24
X153.2Y-63.32
X153.2Y-68.4
X158.8Y-92.6
X158.8Y-97.68
X158.8Y-102.76
X158.8Y-118.
X160.8Y-43.
X160.8Y-58.24
X160.8Y-63.32
X160.8Y-68.4
X166.2Y-92.6
X166.2Y-97.68
X166.2Y-102.76
X166.2Y-118.
X168.2Y-43.
X168.2Y-58.24
X168.2Y-63.32
X168.2Y-68.4
X173.8Y-92.6
X173.8Y-97.68
X173.8Y-102.76
X173.8Y-118.
X175.8Y-43.
X175.8Y-58.24
X175.8Y-63.32
X175.8Y-68.4
X181.2Y-92.6
X181.2Y-97.68
X181.2Y-102.76
X181.2Y-118.
X182.2Y-43.
X182.2Y-58.24
X182.2Y-63.32
X182.2Y-68.4
X188.8Y-92.6
X188.8Y-97.68
X188.8Y-102.76
X188.8Y-118.
X189.8Y-43.
X189.8Y-58.24
X189.8Y-63.32
X189.8Y-68.4
X195.2Y-92.6
X195.2Y-97.68
X195.2Y-102.76
X195.2Y-118.
X196.2Y-43.
X196.2Y-58.24
X196.2Y-63.32
X196.2Y-68.4
X202.8Y-92.6
X202.8Y-97.68
X202.8Y-102.76
X202.8Y-118.
X203.8Y-43.
X203.8Y-58.24
X203.8Y-63.32
X203.8Y-68.4
X209.2Y-43.
X209.2Y-58.24
X209.2Y-63.32
X209.2Y-68.4
X209.2Y-92.6
X209.2Y-97.68
X209.2Y-102.76
X209.2Y-118.
X216.8Y-43.
X216.8Y-58.24
X216.8Y-63.32
X216.8Y-68.4
X216.8Y-92.6
X216.8Y-97.68
X216.8Y-102.76
X216.8Y-118.
T7
X52.118Y-71.652
X58.118Y-74.652
X65.58Y-72.16
X68.754Y-82.639
X68.754Y-89.492
X71.58Y-75.16
X71.754Y-82.639
X71.754Y-89.492
X74.754Y-82.639
X74.754Y-89.492
X79.042Y-71.906
X82.754Y-82.639
X82.754Y-89.492
X85.042Y-74.906
X85.754Y-82.639
X85.754Y-89.492
X88.754Y-82.639
X88.754Y-89.492
X93.266Y-71.652
X96.354Y-82.439
X96.354Y-89.292
X99.266Y-74.652
X99.354Y-82.439
X99.354Y-89.292
X102.354Y-82.439
X102.354Y-89.292
X109.014Y-71.906
X109.254Y-82.639
X109.254Y-89.492
X112.254Y-82.639
X112.254Y-89.492
X115.014Y-74.906
X115.254Y-82.639
X115.254Y-89.492
X123.254Y-82.639
X123.254Y-89.492
X124.254Y-71.906
X126.254Y-82.639
X126.254Y-89.492
X129.254Y-82.639
X129.254Y-89.492
X130.254Y-74.906
X138.986Y-71.906
X144.986Y-74.906
X151.754Y-82.639
X151.754Y-89.492
X154.754Y-82.639
X154.754Y-89.492
X155.242Y-71.906
X157.754Y-82.639
X157.754Y-89.492
X161.242Y-74.906
X167.254Y-82.639
X167.254Y-89.492
X170.228Y-71.652
X170.254Y-82.639
X170.254Y-89.492
X173.254Y-82.639
X173.254Y-89.492
X176.228Y-74.652
X182.254Y-82.639
X182.254Y-89.492
X183.182Y-71.652
X185.254Y-82.639
X185.254Y-89.492
X188.254Y-82.639
X188.254Y-89.492
X189.182Y-74.652
X196.254Y-82.639
X196.254Y-89.492
X199.254Y-82.639
X199.254Y-89.492
X202.254Y-82.639
X202.254Y-89.492
X209.754Y-82.639
X209.754Y-89.492
X212.754Y-82.639
X212.754Y-89.492
X215.754Y-82.639
X215.754Y-89.492
T8
X37.55Y-81.
X42.63Y-81.
X47.71Y-81.
X52.79Y-81.
X57.87Y-81.
X62.95Y-81.
X195.8Y-76.2
X200.88Y-76.2
X205.96Y-76.2
X211.04Y-76.2
X216.12Y-76.2
X221.2Y-76.2
T9
X33.Y-33.
X33.Y-127.
X227.Y-33.
X227.Y-127.
T0
M30
