M48
;DRILL file {KiCad 4.0.7} date 11/29/19 22:01:32
;FORMAT={-:-/ absolute / metric / decimal}
FMAT,2
METRIC,TZ
T1C0.800
T2C0.900
T3C1.000
T4C1.200
T5C1.300
T6C1.500
T7C1.520
T8C3.048
%
G90
G05
M71
T1
X39.4Y-122.8
X39.4Y-127.8
X41.25Y-87.9
X41.45Y-42.7
X41.45Y-45.3
X41.45Y-47.95
X41.45Y-50.5
X41.5Y-40.1
X41.5Y-53.1
X41.5Y-63.25
X41.5Y-65.75
X41.5Y-68.5
X41.54Y-55.79
X41.56Y-58.34
X41.6Y-60.83
X42.5Y-90.75
X42.5Y-93.5
X42.5Y-96.25
X42.5Y-98.75
X42.5Y-101.5
X42.5Y-104.
X42.5Y-106.5
X42.5Y-109.
X42.5Y-111.75
X42.5Y-114.5
X42.5Y-117.
X42.5Y-119.5
X43.95Y-42.7
X43.95Y-45.3
X43.95Y-47.95
X43.95Y-50.5
X44.Y-40.1
X44.Y-53.1
X44.Y-63.25
X44.Y-65.75
X44.Y-68.5
X44.04Y-55.79
X44.06Y-58.34
X44.1Y-60.83
X45.Y-90.75
X45.Y-93.5
X45.Y-96.25
X45.Y-98.75
X45.Y-101.5
X45.Y-104.
X45.Y-106.5
X45.Y-109.
X45.Y-111.75
X45.Y-114.5
X45.Y-117.
X45.Y-119.5
X46.25Y-87.9
X46.73Y-39.3
X47.Y-33.65
X47.Y-36.15
X49.5Y-121.75
X53.7Y-124.6
X54.2Y-34.15
X54.35Y-39.3
X56.2Y-124.6
X56.7Y-34.15
X57.12Y-121.75
X60.98Y-39.25
X62.1Y-33.8
X62.1Y-36.3
X64.178Y-121.679
X68.39Y-33.53
X68.39Y-36.03
X68.5Y-124.6
X68.6Y-39.25
X71.Y-124.6
X71.798Y-121.679
X73.99Y-124.91
X73.99Y-127.41
X76.38Y-39.
X77.3Y-33.5
X77.3Y-36.
X81.Y-121.75
X83.9Y-124.8
X84.Y-39.
X86.4Y-124.8
X88.62Y-121.75
X91.63Y-39.
X93.1Y-33.6
X93.1Y-36.1
X96.5Y-121.75
X99.25Y-39.
X101.1Y-124.8
X101.4Y-33.45
X103.6Y-124.8
X103.9Y-33.45
X104.12Y-121.75
X107.19Y-124.91
X107.19Y-127.41
X108.38Y-39.
X108.8Y-33.3
X108.8Y-35.8
X114.5Y-122.
X116.Y-39.
X118.5Y-125.2
X121.Y-125.2
X122.12Y-122.
X124.38Y-39.3
X125.1Y-33.6
X125.1Y-36.1
X129.Y-122.
X131.3Y-125.
X131.318Y-33.528
X131.318Y-36.028
X132.Y-39.3
X133.8Y-125.
X136.62Y-122.
X136.75Y-124.75
X136.75Y-127.25
X139.38Y-39.
X140.4Y-33.5
X140.4Y-36.
X143.5Y-121.75
X147.Y-39.
X147.Y-124.75
X149.5Y-124.75
X151.12Y-121.75
X154.38Y-39.
X154.4Y-33.6
X154.4Y-36.1
X157.8Y-121.7
X160.1Y-124.9
X161.798Y-33.528
X161.798Y-36.028
X162.Y-39.
X162.6Y-124.9
X165.42Y-121.7
X165.575Y-125.025
X165.575Y-127.525
X169.38Y-39.
X170.Y-33.4
X170.Y-35.9
X172.8Y-121.5
X177.Y-39.
X177.1Y-124.7
X179.6Y-124.7
X180.42Y-121.5
X184.38Y-39.
X185.1Y-33.5
X185.1Y-36.
X187.2Y-121.65
X189.5Y-124.75
X191.77Y-33.528
X191.77Y-36.028
X192.Y-39.
X192.Y-124.75
X194.8Y-124.7
X194.8Y-127.2
X194.82Y-121.65
X199.38Y-39.
X199.95Y-33.55
X199.95Y-36.05
X202.1Y-121.85
X205.95Y-124.95
X207.Y-39.
X208.45Y-124.95
X209.72Y-121.85
X213.47Y-39.32
X215.05Y-33.3
X215.05Y-35.8
X216.45Y-122.
X216.83Y-124.85
X216.83Y-127.35
X219.78Y-125.17
X221.09Y-39.32
X222.28Y-125.17
X224.07Y-122.
X226.25Y-114.4
X226.25Y-119.4
T2
X46.25Y-122.
X46.25Y-124.54
X57.65Y-36.91
X57.65Y-39.45
X60.617Y-121.272
X60.617Y-123.812
X72.1Y-37.11
X72.1Y-39.65
X77.75Y-121.25
X77.75Y-123.79
X87.6Y-37.01
X87.6Y-39.55
X93.Y-121.5
X93.Y-124.04
X102.7Y-37.11
X102.7Y-39.65
X111.Y-121.5
X111.Y-124.04
X119.6Y-37.06
X119.6Y-39.6
X125.75Y-121.5
X125.75Y-124.04
X135.4Y-37.01
X135.4Y-39.55
X140.2Y-121.4
X140.2Y-123.94
X150.7Y-37.16
X150.7Y-39.7
X154.4Y-121.2
X154.4Y-123.74
X165.55Y-37.11
X165.55Y-39.65
X169.4Y-121.5
X169.4Y-124.04
X180.8Y-36.91
X180.8Y-39.45
X184.Y-121.6
X184.Y-124.14
X195.55Y-37.01
X195.55Y-39.55
X198.7Y-121.65
X198.7Y-124.19
X210.31Y-37.08
X210.31Y-39.62
X213.05Y-121.6
X213.05Y-124.14
X224.52Y-37.27
X224.52Y-39.81
T3
X33.6Y-40.3
X33.6Y-42.84
X33.6Y-45.38
X33.6Y-47.92
X33.6Y-50.46
X33.6Y-53.
X33.6Y-55.54
X33.6Y-58.08
X33.6Y-60.62
X33.6Y-63.16
X33.6Y-65.7
X33.6Y-68.24
X33.6Y-70.78
X34.46Y-88.52
X34.46Y-91.06
X34.46Y-93.6
X34.46Y-96.14
X34.46Y-98.68
X34.46Y-101.22
X34.46Y-103.76
X34.46Y-106.3
X34.46Y-108.84
X34.46Y-111.38
X34.46Y-113.92
X34.46Y-116.46
X34.46Y-119.
X36.14Y-40.3
X36.14Y-42.84
X36.14Y-45.38
X36.14Y-47.92
X36.14Y-50.46
X36.14Y-53.
X36.14Y-55.54
X36.14Y-58.08
X36.14Y-60.62
X36.14Y-63.16
X36.14Y-65.7
X36.14Y-68.24
X36.14Y-70.78
X37.Y-88.52
X37.Y-91.06
X37.Y-93.6
X37.Y-96.14
X37.Y-98.68
X37.Y-101.22
X37.Y-103.76
X37.Y-106.3
X37.Y-108.84
X37.Y-111.38
X37.Y-113.92
X37.Y-116.46
X37.Y-119.
T4
X39.675Y-32.25
X39.675Y-37.25
X40.325Y-71.575
X45.325Y-71.575
X226.15Y-42.9
X226.15Y-47.9
T5
X49.032Y-42.832
X49.032Y-58.072
X49.032Y-63.152
X49.032Y-68.232
X54.15Y-92.7
X54.15Y-97.78
X54.15Y-102.86
X54.15Y-118.1
X56.632Y-42.832
X56.632Y-58.072
X56.632Y-63.152
X56.632Y-68.232
X61.75Y-92.7
X61.75Y-97.78
X61.75Y-102.86
X61.75Y-118.1
X63.51Y-43.34
X63.51Y-58.58
X63.51Y-63.66
X63.51Y-68.74
X67.45Y-92.75
X67.45Y-97.83
X67.45Y-102.91
X67.45Y-118.15
X71.11Y-43.34
X71.11Y-58.58
X71.11Y-63.66
X71.11Y-68.74
X75.05Y-92.75
X75.05Y-97.83
X75.05Y-102.91
X75.05Y-118.15
X77.734Y-43.086
X77.734Y-58.326
X77.734Y-63.406
X77.734Y-68.486
X81.7Y-92.55
X81.7Y-97.63
X81.7Y-102.71
X81.7Y-117.95
X85.334Y-43.086
X85.334Y-58.326
X85.334Y-63.406
X85.334Y-68.486
X89.3Y-92.55
X89.3Y-97.63
X89.3Y-102.71
X89.3Y-117.95
X92.2Y-43.
X92.2Y-58.24
X92.2Y-63.32
X92.2Y-68.4
X94.85Y-92.4
X94.85Y-97.48
X94.85Y-102.56
X94.85Y-117.8
X99.8Y-43.
X99.8Y-58.24
X99.8Y-63.32
X99.8Y-68.4
X102.45Y-92.4
X102.45Y-97.48
X102.45Y-102.56
X102.45Y-117.8
X108.2Y-43.
X108.2Y-58.24
X108.2Y-63.32
X108.2Y-68.4
X108.7Y-92.6
X108.7Y-97.68
X108.7Y-102.76
X108.7Y-118.
X115.8Y-43.
X115.8Y-58.24
X115.8Y-63.32
X115.8Y-68.4
X116.3Y-92.6
X116.3Y-97.68
X116.3Y-102.76
X116.3Y-118.
X122.2Y-92.6
X122.2Y-97.68
X122.2Y-102.76
X122.2Y-118.
X123.2Y-43.
X123.2Y-58.24
X123.2Y-63.32
X123.2Y-68.4
X129.8Y-92.6
X129.8Y-97.68
X129.8Y-102.76
X129.8Y-118.
X130.8Y-43.
X130.8Y-58.24
X130.8Y-63.32
X130.8Y-68.4
X137.2Y-92.6
X137.2Y-97.68
X137.2Y-102.76
X137.2Y-118.
X138.2Y-43.
X138.2Y-58.24
X138.2Y-63.32
X138.2Y-68.4
X144.8Y-92.6
X144.8Y-97.68
X144.8Y-102.76
X144.8Y-118.
X145.8Y-43.
X145.8Y-58.24
X145.8Y-63.32
X145.8Y-68.4
X151.5Y-92.7
X151.5Y-97.78
X151.5Y-102.86
X151.5Y-118.1
X153.2Y-43.
X153.2Y-58.24
X153.2Y-63.32
X153.2Y-68.4
X159.1Y-92.7
X159.1Y-97.78
X159.1Y-102.86
X159.1Y-118.1
X160.8Y-43.
X160.8Y-58.24
X160.8Y-63.32
X160.8Y-68.4
X166.1Y-92.55
X166.1Y-97.63
X166.1Y-102.71
X166.1Y-117.95
X168.2Y-43.
X168.2Y-58.24
X168.2Y-63.32
X168.2Y-68.4
X173.7Y-92.55
X173.7Y-97.63
X173.7Y-102.71
X173.7Y-117.95
X175.8Y-43.
X175.8Y-58.24
X175.8Y-63.32
X175.8Y-68.4
X180.4Y-92.7
X180.4Y-97.78
X180.4Y-102.86
X180.4Y-118.1
X182.2Y-43.
X182.2Y-58.24
X182.2Y-63.32
X182.2Y-68.4
X188.Y-92.7
X188.Y-97.78
X188.Y-102.86
X188.Y-118.1
X189.8Y-43.
X189.8Y-58.24
X189.8Y-63.32
X189.8Y-68.4
X194.85Y-92.8
X194.85Y-97.88
X194.85Y-102.96
X194.85Y-118.2
X196.2Y-43.
X196.2Y-58.24
X196.2Y-63.32
X196.2Y-68.4
X202.45Y-92.8
X202.45Y-97.88
X202.45Y-102.96
X202.45Y-118.2
X203.8Y-43.
X203.8Y-58.24
X203.8Y-63.32
X203.8Y-68.4
X209.2Y-43.
X209.2Y-58.24
X209.2Y-63.32
X209.2Y-68.4
X209.85Y-92.9
X209.85Y-97.98
X209.85Y-103.06
X209.85Y-118.3
X216.8Y-43.
X216.8Y-58.24
X216.8Y-63.32
X216.8Y-68.4
X217.45Y-92.9
X217.45Y-97.98
X217.45Y-103.06
X217.45Y-118.3
T6
X52.118Y-71.652
X58.118Y-74.652
X65.58Y-72.16
X68.754Y-82.639
X68.754Y-89.492
X71.58Y-75.16
X71.754Y-82.639
X71.754Y-89.492
X74.754Y-82.639
X74.754Y-89.492
X79.042Y-71.906
X82.754Y-82.639
X82.754Y-89.492
X85.042Y-74.906
X85.754Y-82.639
X85.754Y-89.492
X88.754Y-82.639
X88.754Y-89.492
X93.266Y-71.652
X96.354Y-82.439
X96.354Y-89.292
X99.266Y-74.652
X99.354Y-82.439
X99.354Y-89.292
X102.354Y-82.439
X102.354Y-89.292
X109.014Y-71.906
X109.254Y-82.639
X109.254Y-89.492
X112.254Y-82.639
X112.254Y-89.492
X115.014Y-74.906
X115.254Y-82.639
X115.254Y-89.492
X123.254Y-82.639
X123.254Y-89.492
X124.254Y-71.906
X126.254Y-82.639
X126.254Y-89.492
X129.254Y-82.639
X129.254Y-89.492
X130.254Y-74.906
X138.154Y-82.739
X138.154Y-89.592
X138.986Y-71.906
X141.154Y-82.739
X141.154Y-89.592
X144.154Y-82.739
X144.154Y-89.592
X144.986Y-74.906
X151.954Y-82.739
X151.954Y-89.592
X154.954Y-82.739
X154.954Y-89.592
X155.242Y-71.906
X157.954Y-82.739
X157.954Y-89.592
X161.242Y-74.906
X166.354Y-82.689
X166.354Y-89.542
X169.354Y-82.689
X169.354Y-89.542
X170.228Y-71.652
X172.354Y-82.689
X172.354Y-89.542
X176.228Y-74.652
X181.604Y-82.589
X181.604Y-89.442
X183.182Y-71.652
X184.604Y-82.589
X184.604Y-89.442
X187.604Y-82.589
X187.604Y-89.442
X189.182Y-74.652
X196.054Y-82.539
X196.054Y-89.392
X199.054Y-82.539
X199.054Y-89.392
X202.054Y-82.539
X202.054Y-89.392
T7
X38.4Y-79.675
X43.48Y-79.675
X48.56Y-79.675
X53.64Y-79.675
X223.52Y-65.024
X223.52Y-70.104
X223.52Y-75.184
X223.52Y-80.264
X223.52Y-85.344
X223.52Y-90.424
T8
X33.Y-33.
X33.Y-127.
X227.Y-33.
X227.Y-127.
T0
M30
