G04 #@! TF.FileFunction,Legend,Bot*
%FSLAX46Y46*%
G04 Gerber Fmt 4.6, Leading zero omitted, Abs format (unit mm)*
G04 Created by KiCad (PCBNEW 4.0.7) date 01/16/19 21:50:51*
%MOMM*%
%LPD*%
G01*
G04 APERTURE LIST*
%ADD10C,0.100000*%
%ADD11C,0.150000*%
G04 APERTURE END LIST*
D10*
D11*
X141416944Y-113881280D02*
X141512182Y-113833661D01*
X141655039Y-113833661D01*
X141797897Y-113881280D01*
X141893135Y-113976518D01*
X141940754Y-114071756D01*
X141988373Y-114262232D01*
X141988373Y-114405090D01*
X141940754Y-114595566D01*
X141893135Y-114690804D01*
X141797897Y-114786042D01*
X141655039Y-114833661D01*
X141559801Y-114833661D01*
X141416944Y-114786042D01*
X141369325Y-114738423D01*
X141369325Y-114405090D01*
X141559801Y-114405090D01*
X140940754Y-114833661D02*
X140940754Y-113833661D01*
X140369325Y-114833661D01*
X140369325Y-113833661D01*
X139893135Y-114833661D02*
X139893135Y-113833661D01*
X139655040Y-113833661D01*
X139512182Y-113881280D01*
X139416944Y-113976518D01*
X139369325Y-114071756D01*
X139321706Y-114262232D01*
X139321706Y-114405090D01*
X139369325Y-114595566D01*
X139416944Y-114690804D01*
X139512182Y-114786042D01*
X139655040Y-114833661D01*
X139893135Y-114833661D01*
X139594886Y-121767861D02*
X139594886Y-120767861D01*
X139023457Y-121767861D01*
X139023457Y-120767861D01*
X138356791Y-120767861D02*
X138166314Y-120767861D01*
X138071076Y-120815480D01*
X137975838Y-120910718D01*
X137928219Y-121101194D01*
X137928219Y-121434528D01*
X137975838Y-121625004D01*
X138071076Y-121720242D01*
X138166314Y-121767861D01*
X138356791Y-121767861D01*
X138452029Y-121720242D01*
X138547267Y-121625004D01*
X138594886Y-121434528D01*
X138594886Y-121101194D01*
X138547267Y-120910718D01*
X138452029Y-120815480D01*
X138356791Y-120767861D01*
X136213933Y-120815480D02*
X136309171Y-120767861D01*
X136452028Y-120767861D01*
X136594886Y-120815480D01*
X136690124Y-120910718D01*
X136737743Y-121005956D01*
X136785362Y-121196432D01*
X136785362Y-121339290D01*
X136737743Y-121529766D01*
X136690124Y-121625004D01*
X136594886Y-121720242D01*
X136452028Y-121767861D01*
X136356790Y-121767861D01*
X136213933Y-121720242D01*
X136166314Y-121672623D01*
X136166314Y-121339290D01*
X136356790Y-121339290D01*
X135737743Y-121767861D02*
X135737743Y-120767861D01*
X135166314Y-121767861D01*
X135166314Y-120767861D01*
X134690124Y-121767861D02*
X134690124Y-120767861D01*
X134452029Y-120767861D01*
X134309171Y-120815480D01*
X134213933Y-120910718D01*
X134166314Y-121005956D01*
X134118695Y-121196432D01*
X134118695Y-121339290D01*
X134166314Y-121529766D01*
X134213933Y-121625004D01*
X134309171Y-121720242D01*
X134452029Y-121767861D01*
X134690124Y-121767861D01*
X139586316Y-128407421D02*
X139586316Y-127407421D01*
X139014887Y-128407421D01*
X139014887Y-127407421D01*
X137967268Y-128312183D02*
X138014887Y-128359802D01*
X138157744Y-128407421D01*
X138252982Y-128407421D01*
X138395840Y-128359802D01*
X138491078Y-128264564D01*
X138538697Y-128169326D01*
X138586316Y-127978850D01*
X138586316Y-127835992D01*
X138538697Y-127645516D01*
X138491078Y-127550278D01*
X138395840Y-127455040D01*
X138252982Y-127407421D01*
X138157744Y-127407421D01*
X138014887Y-127455040D01*
X137967268Y-127502659D01*
X136252982Y-127455040D02*
X136348220Y-127407421D01*
X136491077Y-127407421D01*
X136633935Y-127455040D01*
X136729173Y-127550278D01*
X136776792Y-127645516D01*
X136824411Y-127835992D01*
X136824411Y-127978850D01*
X136776792Y-128169326D01*
X136729173Y-128264564D01*
X136633935Y-128359802D01*
X136491077Y-128407421D01*
X136395839Y-128407421D01*
X136252982Y-128359802D01*
X136205363Y-128312183D01*
X136205363Y-127978850D01*
X136395839Y-127978850D01*
X135776792Y-128407421D02*
X135776792Y-127407421D01*
X135205363Y-128407421D01*
X135205363Y-127407421D01*
X134729173Y-128407421D02*
X134729173Y-127407421D01*
X134491078Y-127407421D01*
X134348220Y-127455040D01*
X134252982Y-127550278D01*
X134205363Y-127645516D01*
X134157744Y-127835992D01*
X134157744Y-127978850D01*
X134205363Y-128169326D01*
X134252982Y-128264564D01*
X134348220Y-128359802D01*
X134491078Y-128407421D01*
X134729173Y-128407421D01*
X139005606Y-78206861D02*
X139005606Y-77206861D01*
X138434177Y-78206861D01*
X138434177Y-77206861D01*
X137767511Y-77206861D02*
X137577034Y-77206861D01*
X137481796Y-77254480D01*
X137386558Y-77349718D01*
X137338939Y-77540194D01*
X137338939Y-77873528D01*
X137386558Y-78064004D01*
X137481796Y-78159242D01*
X137577034Y-78206861D01*
X137767511Y-78206861D01*
X137862749Y-78159242D01*
X137957987Y-78064004D01*
X138005606Y-77873528D01*
X138005606Y-77540194D01*
X137957987Y-77349718D01*
X137862749Y-77254480D01*
X137767511Y-77206861D01*
X135624653Y-77254480D02*
X135719891Y-77206861D01*
X135862748Y-77206861D01*
X136005606Y-77254480D01*
X136100844Y-77349718D01*
X136148463Y-77444956D01*
X136196082Y-77635432D01*
X136196082Y-77778290D01*
X136148463Y-77968766D01*
X136100844Y-78064004D01*
X136005606Y-78159242D01*
X135862748Y-78206861D01*
X135767510Y-78206861D01*
X135624653Y-78159242D01*
X135577034Y-78111623D01*
X135577034Y-77778290D01*
X135767510Y-77778290D01*
X135148463Y-78206861D02*
X135148463Y-77206861D01*
X134577034Y-78206861D01*
X134577034Y-77206861D01*
X134100844Y-78206861D02*
X134100844Y-77206861D01*
X133862749Y-77206861D01*
X133719891Y-77254480D01*
X133624653Y-77349718D01*
X133577034Y-77444956D01*
X133529415Y-77635432D01*
X133529415Y-77778290D01*
X133577034Y-77968766D01*
X133624653Y-78064004D01*
X133719891Y-78159242D01*
X133862749Y-78206861D01*
X134100844Y-78206861D01*
X139017356Y-72222621D02*
X139017356Y-71222621D01*
X138445927Y-72222621D01*
X138445927Y-71222621D01*
X137398308Y-72127383D02*
X137445927Y-72175002D01*
X137588784Y-72222621D01*
X137684022Y-72222621D01*
X137826880Y-72175002D01*
X137922118Y-72079764D01*
X137969737Y-71984526D01*
X138017356Y-71794050D01*
X138017356Y-71651192D01*
X137969737Y-71460716D01*
X137922118Y-71365478D01*
X137826880Y-71270240D01*
X137684022Y-71222621D01*
X137588784Y-71222621D01*
X137445927Y-71270240D01*
X137398308Y-71317859D01*
X135684022Y-71270240D02*
X135779260Y-71222621D01*
X135922117Y-71222621D01*
X136064975Y-71270240D01*
X136160213Y-71365478D01*
X136207832Y-71460716D01*
X136255451Y-71651192D01*
X136255451Y-71794050D01*
X136207832Y-71984526D01*
X136160213Y-72079764D01*
X136064975Y-72175002D01*
X135922117Y-72222621D01*
X135826879Y-72222621D01*
X135684022Y-72175002D01*
X135636403Y-72127383D01*
X135636403Y-71794050D01*
X135826879Y-71794050D01*
X135207832Y-72222621D02*
X135207832Y-71222621D01*
X134636403Y-72222621D01*
X134636403Y-71222621D01*
X134160213Y-72222621D02*
X134160213Y-71222621D01*
X133922118Y-71222621D01*
X133779260Y-71270240D01*
X133684022Y-71365478D01*
X133636403Y-71460716D01*
X133588784Y-71651192D01*
X133588784Y-71794050D01*
X133636403Y-71984526D01*
X133684022Y-72079764D01*
X133779260Y-72175002D01*
X133922118Y-72222621D01*
X134160213Y-72222621D01*
X122156457Y-133020021D02*
X122489791Y-132543830D01*
X122727886Y-133020021D02*
X122727886Y-132020021D01*
X122346933Y-132020021D01*
X122251695Y-132067640D01*
X122204076Y-132115259D01*
X122156457Y-132210497D01*
X122156457Y-132353354D01*
X122204076Y-132448592D01*
X122251695Y-132496211D01*
X122346933Y-132543830D01*
X122727886Y-132543830D01*
X121346933Y-132972402D02*
X121442171Y-133020021D01*
X121632648Y-133020021D01*
X121727886Y-132972402D01*
X121775505Y-132877164D01*
X121775505Y-132496211D01*
X121727886Y-132400973D01*
X121632648Y-132353354D01*
X121442171Y-132353354D01*
X121346933Y-132400973D01*
X121299314Y-132496211D01*
X121299314Y-132591450D01*
X121775505Y-132686688D01*
X120727886Y-133020021D02*
X120823124Y-132972402D01*
X120870743Y-132877164D01*
X120870743Y-132020021D01*
X119918361Y-133020021D02*
X119918361Y-132496211D01*
X119965980Y-132400973D01*
X120061218Y-132353354D01*
X120251695Y-132353354D01*
X120346933Y-132400973D01*
X119918361Y-132972402D02*
X120013599Y-133020021D01*
X120251695Y-133020021D01*
X120346933Y-132972402D01*
X120394552Y-132877164D01*
X120394552Y-132781926D01*
X120346933Y-132686688D01*
X120251695Y-132639069D01*
X120013599Y-132639069D01*
X119918361Y-132591450D01*
X119537409Y-132353354D02*
X119299314Y-133020021D01*
X119061218Y-132353354D02*
X119299314Y-133020021D01*
X119394552Y-133258116D01*
X119442171Y-133305735D01*
X119537409Y-133353354D01*
X118727885Y-132972402D02*
X118632647Y-133020021D01*
X118442171Y-133020021D01*
X118346932Y-132972402D01*
X118299313Y-132877164D01*
X118299313Y-132829545D01*
X118346932Y-132734307D01*
X118442171Y-132686688D01*
X118585028Y-132686688D01*
X118680266Y-132639069D01*
X118727885Y-132543830D01*
X118727885Y-132496211D01*
X118680266Y-132400973D01*
X118585028Y-132353354D01*
X118442171Y-132353354D01*
X118346932Y-132400973D01*
X116680265Y-133020021D02*
X116680265Y-132496211D01*
X116727884Y-132400973D01*
X116823122Y-132353354D01*
X117013599Y-132353354D01*
X117108837Y-132400973D01*
X116680265Y-132972402D02*
X116775503Y-133020021D01*
X117013599Y-133020021D01*
X117108837Y-132972402D01*
X117156456Y-132877164D01*
X117156456Y-132781926D01*
X117108837Y-132686688D01*
X117013599Y-132639069D01*
X116775503Y-132639069D01*
X116680265Y-132591450D01*
X116204075Y-133020021D02*
X116204075Y-132353354D01*
X116204075Y-132543830D02*
X116156456Y-132448592D01*
X116108837Y-132400973D01*
X116013599Y-132353354D01*
X115918360Y-132353354D01*
X115204074Y-132972402D02*
X115299312Y-133020021D01*
X115489789Y-133020021D01*
X115585027Y-132972402D01*
X115632646Y-132877164D01*
X115632646Y-132496211D01*
X115585027Y-132400973D01*
X115489789Y-132353354D01*
X115299312Y-132353354D01*
X115204074Y-132400973D01*
X115156455Y-132496211D01*
X115156455Y-132591450D01*
X115632646Y-132686688D01*
X129442170Y-134622402D02*
X129299313Y-134670021D01*
X129061217Y-134670021D01*
X128965979Y-134622402D01*
X128918360Y-134574783D01*
X128870741Y-134479545D01*
X128870741Y-134384307D01*
X128918360Y-134289069D01*
X128965979Y-134241450D01*
X129061217Y-134193830D01*
X129251694Y-134146211D01*
X129346932Y-134098592D01*
X129394551Y-134050973D01*
X129442170Y-133955735D01*
X129442170Y-133860497D01*
X129394551Y-133765259D01*
X129346932Y-133717640D01*
X129251694Y-133670021D01*
X129013598Y-133670021D01*
X128870741Y-133717640D01*
X128251694Y-133670021D02*
X128061217Y-133670021D01*
X127965979Y-133717640D01*
X127870741Y-133812878D01*
X127823122Y-134003354D01*
X127823122Y-134336688D01*
X127870741Y-134527164D01*
X127965979Y-134622402D01*
X128061217Y-134670021D01*
X128251694Y-134670021D01*
X128346932Y-134622402D01*
X128442170Y-134527164D01*
X128489789Y-134336688D01*
X128489789Y-134003354D01*
X128442170Y-133812878D01*
X128346932Y-133717640D01*
X128251694Y-133670021D01*
X127394551Y-134670021D02*
X127394551Y-133670021D01*
X126823122Y-134670021D01*
X126823122Y-133670021D01*
X125823122Y-133717640D02*
X125918360Y-133670021D01*
X126061217Y-133670021D01*
X126204075Y-133717640D01*
X126299313Y-133812878D01*
X126346932Y-133908116D01*
X126394551Y-134098592D01*
X126394551Y-134241450D01*
X126346932Y-134431926D01*
X126299313Y-134527164D01*
X126204075Y-134622402D01*
X126061217Y-134670021D01*
X125965979Y-134670021D01*
X125823122Y-134622402D01*
X125775503Y-134574783D01*
X125775503Y-134241450D01*
X125965979Y-134241450D01*
X124870741Y-134670021D02*
X125346932Y-134670021D01*
X125346932Y-133670021D01*
X124537408Y-134146211D02*
X124204074Y-134146211D01*
X124061217Y-134670021D02*
X124537408Y-134670021D01*
X124537408Y-133670021D01*
X124061217Y-133670021D01*
X122918360Y-134622402D02*
X122775503Y-134670021D01*
X122537407Y-134670021D01*
X122442169Y-134622402D01*
X122394550Y-134574783D01*
X122346931Y-134479545D01*
X122346931Y-134384307D01*
X122394550Y-134289069D01*
X122442169Y-134241450D01*
X122537407Y-134193830D01*
X122727884Y-134146211D01*
X122823122Y-134098592D01*
X122870741Y-134050973D01*
X122918360Y-133955735D01*
X122918360Y-133860497D01*
X122870741Y-133765259D01*
X122823122Y-133717640D01*
X122727884Y-133670021D01*
X122489788Y-133670021D01*
X122346931Y-133717640D01*
X121918360Y-134670021D02*
X121918360Y-133670021D01*
X121585026Y-134384307D01*
X121251693Y-133670021D01*
X121251693Y-134670021D01*
X120775503Y-134670021D02*
X120775503Y-133670021D01*
X120299313Y-134670021D02*
X120299313Y-133670021D01*
X120299313Y-134146211D02*
X119727884Y-134146211D01*
X119727884Y-134670021D02*
X119727884Y-133670021D01*
X119251694Y-134289069D02*
X118489789Y-134289069D01*
X118061218Y-134622402D02*
X117918361Y-134670021D01*
X117680265Y-134670021D01*
X117585027Y-134622402D01*
X117537408Y-134574783D01*
X117489789Y-134479545D01*
X117489789Y-134384307D01*
X117537408Y-134289069D01*
X117585027Y-134241450D01*
X117680265Y-134193830D01*
X117870742Y-134146211D01*
X117965980Y-134098592D01*
X118013599Y-134050973D01*
X118061218Y-133955735D01*
X118061218Y-133860497D01*
X118013599Y-133765259D01*
X117965980Y-133717640D01*
X117870742Y-133670021D01*
X117632646Y-133670021D01*
X117489789Y-133717640D01*
X116585027Y-134670021D02*
X117061218Y-134670021D01*
X117061218Y-133670021D01*
X116251694Y-134289069D02*
X115489789Y-134289069D01*
X114442170Y-134574783D02*
X114489789Y-134622402D01*
X114632646Y-134670021D01*
X114727884Y-134670021D01*
X114870742Y-134622402D01*
X114965980Y-134527164D01*
X115013599Y-134431926D01*
X115061218Y-134241450D01*
X115061218Y-134098592D01*
X115013599Y-133908116D01*
X114965980Y-133812878D01*
X114870742Y-133717640D01*
X114727884Y-133670021D01*
X114632646Y-133670021D01*
X114489789Y-133717640D01*
X114442170Y-133765259D01*
X113299313Y-134622402D02*
X113156456Y-134670021D01*
X112918360Y-134670021D01*
X112823122Y-134622402D01*
X112775503Y-134574783D01*
X112727884Y-134479545D01*
X112727884Y-134384307D01*
X112775503Y-134289069D01*
X112823122Y-134241450D01*
X112918360Y-134193830D01*
X113108837Y-134146211D01*
X113204075Y-134098592D01*
X113251694Y-134050973D01*
X113299313Y-133955735D01*
X113299313Y-133860497D01*
X113251694Y-133765259D01*
X113204075Y-133717640D01*
X113108837Y-133670021D01*
X112870741Y-133670021D01*
X112727884Y-133717640D01*
X112299313Y-134146211D02*
X111965979Y-134146211D01*
X111823122Y-134670021D02*
X112299313Y-134670021D01*
X112299313Y-133670021D01*
X111823122Y-133670021D01*
X110823122Y-134670021D02*
X111156456Y-134193830D01*
X111394551Y-134670021D02*
X111394551Y-133670021D01*
X111013598Y-133670021D01*
X110918360Y-133717640D01*
X110870741Y-133765259D01*
X110823122Y-133860497D01*
X110823122Y-134003354D01*
X110870741Y-134098592D01*
X110918360Y-134146211D01*
X111013598Y-134193830D01*
X111394551Y-134193830D01*
X110394551Y-134670021D02*
X110394551Y-133670021D01*
X109918361Y-134146211D02*
X109585027Y-134146211D01*
X109442170Y-134670021D02*
X109918361Y-134670021D01*
X109918361Y-133670021D01*
X109442170Y-133670021D01*
X109061218Y-134622402D02*
X108918361Y-134670021D01*
X108680265Y-134670021D01*
X108585027Y-134622402D01*
X108537408Y-134574783D01*
X108489789Y-134479545D01*
X108489789Y-134384307D01*
X108537408Y-134289069D01*
X108585027Y-134241450D01*
X108680265Y-134193830D01*
X108870742Y-134146211D01*
X108965980Y-134098592D01*
X109013599Y-134050973D01*
X109061218Y-133955735D01*
X109061218Y-133860497D01*
X109013599Y-133765259D01*
X108965980Y-133717640D01*
X108870742Y-133670021D01*
X108632646Y-133670021D01*
X108489789Y-133717640D01*
X128085028Y-136320021D02*
X128085028Y-135320021D01*
X128085028Y-135796211D02*
X127513599Y-135796211D01*
X127513599Y-136320021D02*
X127513599Y-135320021D01*
X127037409Y-135320021D02*
X127037409Y-136129545D01*
X126989790Y-136224783D01*
X126942171Y-136272402D01*
X126846933Y-136320021D01*
X126656456Y-136320021D01*
X126561218Y-136272402D01*
X126513599Y-136224783D01*
X126465980Y-136129545D01*
X126465980Y-135320021D01*
X125989790Y-136320021D02*
X125989790Y-135320021D01*
X124751695Y-136320021D02*
X124751695Y-135320021D01*
X124180266Y-136320021D02*
X124608838Y-135748592D01*
X124180266Y-135320021D02*
X124751695Y-135891450D01*
X123751695Y-135796211D02*
X123418361Y-135796211D01*
X123275504Y-136320021D02*
X123751695Y-136320021D01*
X123751695Y-135320021D01*
X123275504Y-135320021D01*
X122085028Y-136320021D02*
X122085028Y-135320021D01*
X122085028Y-135796211D02*
X121513599Y-135796211D01*
X121513599Y-136320021D02*
X121513599Y-135320021D01*
X121037409Y-136320021D02*
X121037409Y-135320021D01*
X120465980Y-136320021D02*
X120894552Y-135748592D01*
X120465980Y-135320021D02*
X121037409Y-135891450D01*
X119513599Y-136320021D02*
X120085028Y-136320021D01*
X119799314Y-136320021D02*
X119799314Y-135320021D01*
X119894552Y-135462878D01*
X119989790Y-135558116D01*
X120085028Y-135605735D01*
X118656456Y-135653354D02*
X118656456Y-136320021D01*
X118894552Y-135272402D02*
X119132647Y-135986688D01*
X118513599Y-135986688D01*
X117799313Y-135796211D02*
X118132647Y-135796211D01*
X118132647Y-136320021D02*
X118132647Y-135320021D01*
X117656456Y-135320021D01*
X117275504Y-136320021D02*
X117275504Y-135320021D01*
X117275504Y-135796211D02*
X116704075Y-135796211D01*
X116704075Y-136320021D02*
X116704075Y-135320021D01*
X115513599Y-135272402D02*
X116370742Y-136558116D01*
X115180266Y-136320021D02*
X115180266Y-135320021D01*
X115180266Y-135796211D02*
X114608837Y-135796211D01*
X114608837Y-136320021D02*
X114608837Y-135320021D01*
X114132647Y-136320021D02*
X114132647Y-135320021D01*
X113561218Y-136320021D02*
X113989790Y-135748592D01*
X113561218Y-135320021D02*
X114132647Y-135891450D01*
X112608837Y-136320021D02*
X113180266Y-136320021D01*
X112894552Y-136320021D02*
X112894552Y-135320021D01*
X112989790Y-135462878D01*
X113085028Y-135558116D01*
X113180266Y-135605735D01*
X111751694Y-135653354D02*
X111751694Y-136320021D01*
X111989790Y-135272402D02*
X112227885Y-135986688D01*
X111608837Y-135986688D01*
X110894551Y-135796211D02*
X111227885Y-135796211D01*
X111227885Y-136320021D02*
X111227885Y-135320021D01*
X110751694Y-135320021D01*
X110370742Y-136320021D02*
X110370742Y-135320021D01*
X110132647Y-135320021D01*
X109989789Y-135367640D01*
X109894551Y-135462878D01*
X109846932Y-135558116D01*
X109799313Y-135748592D01*
X109799313Y-135891450D01*
X109846932Y-136081926D01*
X109894551Y-136177164D01*
X109989789Y-136272402D01*
X110132647Y-136320021D01*
X110370742Y-136320021D01*
X135442171Y-136970021D02*
X134870742Y-136970021D01*
X135156457Y-137970021D02*
X135156457Y-136970021D01*
X134537409Y-137446211D02*
X134204075Y-137446211D01*
X134061218Y-137970021D02*
X134537409Y-137970021D01*
X134537409Y-136970021D01*
X134061218Y-136970021D01*
X132299313Y-137874783D02*
X132346932Y-137922402D01*
X132489789Y-137970021D01*
X132585027Y-137970021D01*
X132727885Y-137922402D01*
X132823123Y-137827164D01*
X132870742Y-137731926D01*
X132918361Y-137541450D01*
X132918361Y-137398592D01*
X132870742Y-137208116D01*
X132823123Y-137112878D01*
X132727885Y-137017640D01*
X132585027Y-136970021D01*
X132489789Y-136970021D01*
X132346932Y-137017640D01*
X132299313Y-137065259D01*
X131680266Y-136970021D02*
X131489789Y-136970021D01*
X131394551Y-137017640D01*
X131299313Y-137112878D01*
X131251694Y-137303354D01*
X131251694Y-137636688D01*
X131299313Y-137827164D01*
X131394551Y-137922402D01*
X131489789Y-137970021D01*
X131680266Y-137970021D01*
X131775504Y-137922402D01*
X131870742Y-137827164D01*
X131918361Y-137636688D01*
X131918361Y-137303354D01*
X131870742Y-137112878D01*
X131775504Y-137017640D01*
X131680266Y-136970021D01*
X130823123Y-137970021D02*
X130823123Y-136970021D01*
X130251694Y-137970021D01*
X130251694Y-136970021D01*
X129775504Y-137970021D02*
X129775504Y-136970021D01*
X129204075Y-137970021D01*
X129204075Y-136970021D01*
X128727885Y-137446211D02*
X128394551Y-137446211D01*
X128251694Y-137970021D02*
X128727885Y-137970021D01*
X128727885Y-136970021D01*
X128251694Y-136970021D01*
X127251694Y-137874783D02*
X127299313Y-137922402D01*
X127442170Y-137970021D01*
X127537408Y-137970021D01*
X127680266Y-137922402D01*
X127775504Y-137827164D01*
X127823123Y-137731926D01*
X127870742Y-137541450D01*
X127870742Y-137398592D01*
X127823123Y-137208116D01*
X127775504Y-137112878D01*
X127680266Y-137017640D01*
X127537408Y-136970021D01*
X127442170Y-136970021D01*
X127299313Y-137017640D01*
X127251694Y-137065259D01*
X126965980Y-136970021D02*
X126394551Y-136970021D01*
X126680266Y-137970021D02*
X126680266Y-136970021D01*
X126061218Y-137970021D02*
X126061218Y-136970021D01*
X125727885Y-136970021D02*
X125394552Y-137970021D01*
X125061218Y-136970021D01*
X124727885Y-137970021D02*
X124727885Y-136970021D01*
X124394552Y-136970021D02*
X123823123Y-136970021D01*
X124108838Y-137970021D02*
X124108838Y-136970021D01*
X123299314Y-137493830D02*
X123299314Y-137970021D01*
X123632647Y-136970021D02*
X123299314Y-137493830D01*
X122965980Y-136970021D01*
X121918361Y-136922402D02*
X122775504Y-138208116D01*
X121632647Y-137922402D02*
X121489790Y-137970021D01*
X121251694Y-137970021D01*
X121156456Y-137922402D01*
X121108837Y-137874783D01*
X121061218Y-137779545D01*
X121061218Y-137684307D01*
X121108837Y-137589069D01*
X121156456Y-137541450D01*
X121251694Y-137493830D01*
X121442171Y-137446211D01*
X121537409Y-137398592D01*
X121585028Y-137350973D01*
X121632647Y-137255735D01*
X121632647Y-137160497D01*
X121585028Y-137065259D01*
X121537409Y-137017640D01*
X121442171Y-136970021D01*
X121204075Y-136970021D01*
X121061218Y-137017640D01*
X120061218Y-137874783D02*
X120108837Y-137922402D01*
X120251694Y-137970021D01*
X120346932Y-137970021D01*
X120489790Y-137922402D01*
X120585028Y-137827164D01*
X120632647Y-137731926D01*
X120680266Y-137541450D01*
X120680266Y-137398592D01*
X120632647Y-137208116D01*
X120585028Y-137112878D01*
X120489790Y-137017640D01*
X120346932Y-136970021D01*
X120251694Y-136970021D01*
X120108837Y-137017640D01*
X120061218Y-137065259D01*
X119632647Y-137970021D02*
X119632647Y-136970021D01*
X119632647Y-137446211D02*
X119061218Y-137446211D01*
X119061218Y-137970021D02*
X119061218Y-136970021D01*
X118013599Y-137970021D02*
X118346933Y-137493830D01*
X118585028Y-137970021D02*
X118585028Y-136970021D01*
X118204075Y-136970021D01*
X118108837Y-137017640D01*
X118061218Y-137065259D01*
X118013599Y-137160497D01*
X118013599Y-137303354D01*
X118061218Y-137398592D01*
X118108837Y-137446211D01*
X118204075Y-137493830D01*
X118585028Y-137493830D01*
X117632647Y-137684307D02*
X117156456Y-137684307D01*
X117727885Y-137970021D02*
X117394552Y-136970021D01*
X117061218Y-137970021D01*
X116156456Y-137874783D02*
X116204075Y-137922402D01*
X116346932Y-137970021D01*
X116442170Y-137970021D01*
X116585028Y-137922402D01*
X116680266Y-137827164D01*
X116727885Y-137731926D01*
X116775504Y-137541450D01*
X116775504Y-137398592D01*
X116727885Y-137208116D01*
X116680266Y-137112878D01*
X116585028Y-137017640D01*
X116442170Y-136970021D01*
X116346932Y-136970021D01*
X116204075Y-137017640D01*
X116156456Y-137065259D01*
X115727885Y-137970021D02*
X115727885Y-136970021D01*
X115156456Y-137970021D02*
X115585028Y-137398592D01*
X115156456Y-136970021D02*
X115727885Y-137541450D01*
X113394551Y-137970021D02*
X113727885Y-137493830D01*
X113965980Y-137970021D02*
X113965980Y-136970021D01*
X113585027Y-136970021D01*
X113489789Y-137017640D01*
X113442170Y-137065259D01*
X113394551Y-137160497D01*
X113394551Y-137303354D01*
X113442170Y-137398592D01*
X113489789Y-137446211D01*
X113585027Y-137493830D01*
X113965980Y-137493830D01*
X112965980Y-137970021D02*
X112965980Y-136970021D01*
X112585027Y-136970021D01*
X112489789Y-137017640D01*
X112442170Y-137065259D01*
X112394551Y-137160497D01*
X112394551Y-137303354D01*
X112442170Y-137398592D01*
X112489789Y-137446211D01*
X112585027Y-137493830D01*
X112965980Y-137493830D01*
X111251694Y-136922402D02*
X112108837Y-138208116D01*
X110346932Y-137970021D02*
X110680266Y-137493830D01*
X110918361Y-137970021D02*
X110918361Y-136970021D01*
X110537408Y-136970021D01*
X110442170Y-137017640D01*
X110394551Y-137065259D01*
X110346932Y-137160497D01*
X110346932Y-137303354D01*
X110394551Y-137398592D01*
X110442170Y-137446211D01*
X110537408Y-137493830D01*
X110918361Y-137493830D01*
X110061218Y-136970021D02*
X109489789Y-136970021D01*
X109775504Y-137970021D02*
X109775504Y-136970021D01*
X109156456Y-137970021D02*
X109156456Y-136970021D01*
X109156456Y-137446211D02*
X108585027Y-137446211D01*
X108585027Y-137970021D02*
X108585027Y-136970021D01*
X107394551Y-137922402D02*
X107251694Y-137970021D01*
X107013598Y-137970021D01*
X106918360Y-137922402D01*
X106870741Y-137874783D01*
X106823122Y-137779545D01*
X106823122Y-137684307D01*
X106870741Y-137589069D01*
X106918360Y-137541450D01*
X107013598Y-137493830D01*
X107204075Y-137446211D01*
X107299313Y-137398592D01*
X107346932Y-137350973D01*
X107394551Y-137255735D01*
X107394551Y-137160497D01*
X107346932Y-137065259D01*
X107299313Y-137017640D01*
X107204075Y-136970021D01*
X106965979Y-136970021D01*
X106823122Y-137017640D01*
X106394551Y-137446211D02*
X106061217Y-137446211D01*
X105918360Y-137970021D02*
X106394551Y-137970021D01*
X106394551Y-136970021D01*
X105918360Y-136970021D01*
X104918360Y-137970021D02*
X105251694Y-137493830D01*
X105489789Y-137970021D02*
X105489789Y-136970021D01*
X105108836Y-136970021D01*
X105013598Y-137017640D01*
X104965979Y-137065259D01*
X104918360Y-137160497D01*
X104918360Y-137303354D01*
X104965979Y-137398592D01*
X105013598Y-137446211D01*
X105108836Y-137493830D01*
X105489789Y-137493830D01*
X104489789Y-137970021D02*
X104489789Y-136970021D01*
X104013599Y-137446211D02*
X103680265Y-137446211D01*
X103537408Y-137970021D02*
X104013599Y-137970021D01*
X104013599Y-136970021D01*
X103537408Y-136970021D01*
X103156456Y-137922402D02*
X103013599Y-137970021D01*
X102775503Y-137970021D01*
X102680265Y-137922402D01*
X102632646Y-137874783D01*
X102585027Y-137779545D01*
X102585027Y-137684307D01*
X102632646Y-137589069D01*
X102680265Y-137541450D01*
X102775503Y-137493830D01*
X102965980Y-137446211D01*
X103061218Y-137398592D01*
X103108837Y-137350973D01*
X103156456Y-137255735D01*
X103156456Y-137160497D01*
X103108837Y-137065259D01*
X103061218Y-137017640D01*
X102965980Y-136970021D01*
X102727884Y-136970021D01*
X102585027Y-137017640D01*
X124537409Y-138620021D02*
X124346932Y-138620021D01*
X124251694Y-138667640D01*
X124156456Y-138762878D01*
X124108837Y-138953354D01*
X124108837Y-139286688D01*
X124156456Y-139477164D01*
X124251694Y-139572402D01*
X124346932Y-139620021D01*
X124537409Y-139620021D01*
X124632647Y-139572402D01*
X124727885Y-139477164D01*
X124775504Y-139286688D01*
X124775504Y-138953354D01*
X124727885Y-138762878D01*
X124632647Y-138667640D01*
X124537409Y-138620021D01*
X123680266Y-139620021D02*
X123680266Y-138620021D01*
X123346932Y-139334307D01*
X123013599Y-138620021D01*
X123013599Y-139620021D01*
X121965980Y-139620021D02*
X122299314Y-139143830D01*
X122537409Y-139620021D02*
X122537409Y-138620021D01*
X122156456Y-138620021D01*
X122061218Y-138667640D01*
X122013599Y-138715259D01*
X121965980Y-138810497D01*
X121965980Y-138953354D01*
X122013599Y-139048592D01*
X122061218Y-139096211D01*
X122156456Y-139143830D01*
X122537409Y-139143830D01*
X121346933Y-138620021D02*
X121156456Y-138620021D01*
X121061218Y-138667640D01*
X120965980Y-138762878D01*
X120918361Y-138953354D01*
X120918361Y-139286688D01*
X120965980Y-139477164D01*
X121061218Y-139572402D01*
X121156456Y-139620021D01*
X121346933Y-139620021D01*
X121442171Y-139572402D01*
X121537409Y-139477164D01*
X121585028Y-139286688D01*
X121585028Y-138953354D01*
X121537409Y-138762878D01*
X121442171Y-138667640D01*
X121346933Y-138620021D01*
X120489790Y-139620021D02*
X120489790Y-138620021D01*
X119918361Y-139620021D01*
X119918361Y-138620021D01*
X118156456Y-138667640D02*
X118251694Y-138620021D01*
X118394551Y-138620021D01*
X118537409Y-138667640D01*
X118632647Y-138762878D01*
X118680266Y-138858116D01*
X118727885Y-139048592D01*
X118727885Y-139191450D01*
X118680266Y-139381926D01*
X118632647Y-139477164D01*
X118537409Y-139572402D01*
X118394551Y-139620021D01*
X118299313Y-139620021D01*
X118156456Y-139572402D01*
X118108837Y-139524783D01*
X118108837Y-139191450D01*
X118299313Y-139191450D01*
X117727885Y-138715259D02*
X117680266Y-138667640D01*
X117585028Y-138620021D01*
X117346932Y-138620021D01*
X117251694Y-138667640D01*
X117204075Y-138715259D01*
X117156456Y-138810497D01*
X117156456Y-138905735D01*
X117204075Y-139048592D01*
X117775504Y-139620021D01*
X117156456Y-139620021D01*
X116156456Y-139620021D02*
X116489790Y-139143830D01*
X116727885Y-139620021D02*
X116727885Y-138620021D01*
X116346932Y-138620021D01*
X116251694Y-138667640D01*
X116204075Y-138715259D01*
X116156456Y-138810497D01*
X116156456Y-138953354D01*
X116204075Y-139048592D01*
X116251694Y-139096211D01*
X116346932Y-139143830D01*
X116727885Y-139143830D01*
X115251694Y-139620021D02*
X115727885Y-139620021D01*
X115727885Y-138620021D01*
X114918361Y-139239069D02*
X114156456Y-139239069D01*
X113156456Y-139620021D02*
X113727885Y-139620021D01*
X113442171Y-139620021D02*
X113442171Y-138620021D01*
X113537409Y-138762878D01*
X113632647Y-138858116D01*
X113727885Y-138905735D01*
X128346933Y-141270021D02*
X128346933Y-140270021D01*
X127965980Y-140270021D01*
X127870742Y-140317640D01*
X127823123Y-140365259D01*
X127775504Y-140460497D01*
X127775504Y-140603354D01*
X127823123Y-140698592D01*
X127870742Y-140746211D01*
X127965980Y-140793830D01*
X128346933Y-140793830D01*
X127394552Y-140984307D02*
X126918361Y-140984307D01*
X127489790Y-141270021D02*
X127156457Y-140270021D01*
X126823123Y-141270021D01*
X126489790Y-141270021D02*
X126489790Y-140270021D01*
X125918361Y-141270021D01*
X125918361Y-140270021D01*
X125489790Y-140984307D02*
X125013599Y-140984307D01*
X125585028Y-141270021D02*
X125251695Y-140270021D01*
X124918361Y-141270021D01*
X124632647Y-141222402D02*
X124489790Y-141270021D01*
X124251694Y-141270021D01*
X124156456Y-141222402D01*
X124108837Y-141174783D01*
X124061218Y-141079545D01*
X124061218Y-140984307D01*
X124108837Y-140889069D01*
X124156456Y-140841450D01*
X124251694Y-140793830D01*
X124442171Y-140746211D01*
X124537409Y-140698592D01*
X124585028Y-140650973D01*
X124632647Y-140555735D01*
X124632647Y-140460497D01*
X124585028Y-140365259D01*
X124537409Y-140317640D01*
X124442171Y-140270021D01*
X124204075Y-140270021D01*
X124061218Y-140317640D01*
X123442171Y-140270021D02*
X123251694Y-140270021D01*
X123156456Y-140317640D01*
X123061218Y-140412878D01*
X123013599Y-140603354D01*
X123013599Y-140936688D01*
X123061218Y-141127164D01*
X123156456Y-141222402D01*
X123251694Y-141270021D01*
X123442171Y-141270021D01*
X123537409Y-141222402D01*
X123632647Y-141127164D01*
X123680266Y-140936688D01*
X123680266Y-140603354D01*
X123632647Y-140412878D01*
X123537409Y-140317640D01*
X123442171Y-140270021D01*
X122585028Y-141270021D02*
X122585028Y-140270021D01*
X122013599Y-141270021D01*
X122013599Y-140270021D01*
X121537409Y-141270021D02*
X121537409Y-140270021D01*
X120489790Y-141174783D02*
X120537409Y-141222402D01*
X120680266Y-141270021D01*
X120775504Y-141270021D01*
X120918362Y-141222402D01*
X121013600Y-141127164D01*
X121061219Y-141031926D01*
X121108838Y-140841450D01*
X121108838Y-140698592D01*
X121061219Y-140508116D01*
X121013600Y-140412878D01*
X120918362Y-140317640D01*
X120775504Y-140270021D01*
X120680266Y-140270021D01*
X120537409Y-140317640D01*
X120489790Y-140365259D01*
X119013599Y-140270021D02*
X119013599Y-140984307D01*
X119061219Y-141127164D01*
X119156457Y-141222402D01*
X119299314Y-141270021D01*
X119394552Y-141270021D01*
X118632647Y-140270021D02*
X118394552Y-141270021D01*
X118204075Y-140555735D01*
X118013599Y-141270021D01*
X117775504Y-140270021D01*
X116680266Y-140365259D02*
X116632647Y-140317640D01*
X116537409Y-140270021D01*
X116299313Y-140270021D01*
X116204075Y-140317640D01*
X116156456Y-140365259D01*
X116108837Y-140460497D01*
X116108837Y-140555735D01*
X116156456Y-140698592D01*
X116727885Y-141270021D01*
X116108837Y-141270021D01*
X114585027Y-140746211D02*
X114918361Y-140746211D01*
X114918361Y-141270021D02*
X114918361Y-140270021D01*
X114442170Y-140270021D01*
X113870742Y-140270021D02*
X113680265Y-140270021D01*
X113585027Y-140317640D01*
X113489789Y-140412878D01*
X113442170Y-140603354D01*
X113442170Y-140936688D01*
X113489789Y-141127164D01*
X113585027Y-141222402D01*
X113680265Y-141270021D01*
X113870742Y-141270021D01*
X113965980Y-141222402D01*
X114061218Y-141127164D01*
X114108837Y-140936688D01*
X114108837Y-140603354D01*
X114061218Y-140412878D01*
X113965980Y-140317640D01*
X113870742Y-140270021D01*
X112442170Y-141270021D02*
X112775504Y-140793830D01*
X113013599Y-141270021D02*
X113013599Y-140270021D01*
X112632646Y-140270021D01*
X112537408Y-140317640D01*
X112489789Y-140365259D01*
X112442170Y-140460497D01*
X112442170Y-140603354D01*
X112489789Y-140698592D01*
X112537408Y-140746211D01*
X112632646Y-140793830D01*
X113013599Y-140793830D01*
X112013599Y-141270021D02*
X112013599Y-140270021D01*
X111680265Y-140984307D01*
X111346932Y-140270021D01*
X111346932Y-141270021D01*
X109537408Y-141174783D02*
X109585027Y-141222402D01*
X109727884Y-141270021D01*
X109823122Y-141270021D01*
X109965980Y-141222402D01*
X110061218Y-141127164D01*
X110108837Y-141031926D01*
X110156456Y-140841450D01*
X110156456Y-140698592D01*
X110108837Y-140508116D01*
X110061218Y-140412878D01*
X109965980Y-140317640D01*
X109823122Y-140270021D01*
X109727884Y-140270021D01*
X109585027Y-140317640D01*
X109537408Y-140365259D01*
X142946381Y-125352514D02*
X141946381Y-125352514D01*
X142946381Y-125923943D01*
X141946381Y-125923943D01*
X141946381Y-126590609D02*
X141946381Y-126781086D01*
X141994000Y-126876324D01*
X142089238Y-126971562D01*
X142279714Y-127019181D01*
X142613048Y-127019181D01*
X142803524Y-126971562D01*
X142898762Y-126876324D01*
X142946381Y-126781086D01*
X142946381Y-126590609D01*
X142898762Y-126495371D01*
X142803524Y-126400133D01*
X142613048Y-126352514D01*
X142279714Y-126352514D01*
X142089238Y-126400133D01*
X141994000Y-126495371D01*
X141946381Y-126590609D01*
X142946381Y-127447752D02*
X141946381Y-127447752D01*
X141946381Y-127828705D01*
X141994000Y-127923943D01*
X142041619Y-127971562D01*
X142136857Y-128019181D01*
X142279714Y-128019181D01*
X142374952Y-127971562D01*
X142422571Y-127923943D01*
X142470190Y-127828705D01*
X142470190Y-127447752D01*
X141946381Y-128638228D02*
X141946381Y-128828705D01*
X141994000Y-128923943D01*
X142089238Y-129019181D01*
X142279714Y-129066800D01*
X142613048Y-129066800D01*
X142803524Y-129019181D01*
X142898762Y-128923943D01*
X142946381Y-128828705D01*
X142946381Y-128638228D01*
X142898762Y-128542990D01*
X142803524Y-128447752D01*
X142613048Y-128400133D01*
X142279714Y-128400133D01*
X142089238Y-128447752D01*
X141994000Y-128542990D01*
X141946381Y-128638228D01*
X142946381Y-130066800D02*
X142470190Y-129733466D01*
X142946381Y-129495371D02*
X141946381Y-129495371D01*
X141946381Y-129876324D01*
X141994000Y-129971562D01*
X142041619Y-130019181D01*
X142136857Y-130066800D01*
X142279714Y-130066800D01*
X142374952Y-130019181D01*
X142422571Y-129971562D01*
X142470190Y-129876324D01*
X142470190Y-129495371D01*
X141946381Y-130352514D02*
X141946381Y-130923943D01*
X142946381Y-130638228D02*
X141946381Y-130638228D01*
X142590781Y-135485524D02*
X141590781Y-135485524D01*
X142590781Y-136056953D01*
X141590781Y-136056953D01*
X142495543Y-137104572D02*
X142543162Y-137056953D01*
X142590781Y-136914096D01*
X142590781Y-136818858D01*
X142543162Y-136676000D01*
X142447924Y-136580762D01*
X142352686Y-136533143D01*
X142162210Y-136485524D01*
X142019352Y-136485524D01*
X141828876Y-136533143D01*
X141733638Y-136580762D01*
X141638400Y-136676000D01*
X141590781Y-136818858D01*
X141590781Y-136914096D01*
X141638400Y-137056953D01*
X141686019Y-137104572D01*
X142590781Y-137533143D02*
X141590781Y-137533143D01*
X141590781Y-137914096D01*
X141638400Y-138009334D01*
X141686019Y-138056953D01*
X141781257Y-138104572D01*
X141924114Y-138104572D01*
X142019352Y-138056953D01*
X142066971Y-138009334D01*
X142114590Y-137914096D01*
X142114590Y-137533143D01*
X141590781Y-138723619D02*
X141590781Y-138914096D01*
X141638400Y-139009334D01*
X141733638Y-139104572D01*
X141924114Y-139152191D01*
X142257448Y-139152191D01*
X142447924Y-139104572D01*
X142543162Y-139009334D01*
X142590781Y-138914096D01*
X142590781Y-138723619D01*
X142543162Y-138628381D01*
X142447924Y-138533143D01*
X142257448Y-138485524D01*
X141924114Y-138485524D01*
X141733638Y-138533143D01*
X141638400Y-138628381D01*
X141590781Y-138723619D01*
X142590781Y-140152191D02*
X142114590Y-139818857D01*
X142590781Y-139580762D02*
X141590781Y-139580762D01*
X141590781Y-139961715D01*
X141638400Y-140056953D01*
X141686019Y-140104572D01*
X141781257Y-140152191D01*
X141924114Y-140152191D01*
X142019352Y-140104572D01*
X142066971Y-140056953D01*
X142114590Y-139961715D01*
X142114590Y-139580762D01*
X141590781Y-140437905D02*
X141590781Y-141009334D01*
X142590781Y-140723619D02*
X141590781Y-140723619D01*
X143073381Y-115617929D02*
X142073381Y-115617929D01*
X143073381Y-116094119D02*
X142073381Y-116094119D01*
X143073381Y-116665548D01*
X142073381Y-116665548D01*
X143073381Y-117141738D02*
X142073381Y-117141738D01*
X142073381Y-117522691D01*
X142121000Y-117617929D01*
X142168619Y-117665548D01*
X142263857Y-117713167D01*
X142406714Y-117713167D01*
X142501952Y-117665548D01*
X142549571Y-117617929D01*
X142597190Y-117522691D01*
X142597190Y-117141738D01*
X142073381Y-118332214D02*
X142073381Y-118522691D01*
X142121000Y-118617929D01*
X142216238Y-118713167D01*
X142406714Y-118760786D01*
X142740048Y-118760786D01*
X142930524Y-118713167D01*
X143025762Y-118617929D01*
X143073381Y-118522691D01*
X143073381Y-118332214D01*
X143025762Y-118236976D01*
X142930524Y-118141738D01*
X142740048Y-118094119D01*
X142406714Y-118094119D01*
X142216238Y-118141738D01*
X142121000Y-118236976D01*
X142073381Y-118332214D01*
X143073381Y-119760786D02*
X142597190Y-119427452D01*
X143073381Y-119189357D02*
X142073381Y-119189357D01*
X142073381Y-119570310D01*
X142121000Y-119665548D01*
X142168619Y-119713167D01*
X142263857Y-119760786D01*
X142406714Y-119760786D01*
X142501952Y-119713167D01*
X142549571Y-119665548D01*
X142597190Y-119570310D01*
X142597190Y-119189357D01*
X142073381Y-120046500D02*
X142073381Y-120617929D01*
X143073381Y-120332214D02*
X142073381Y-120332214D01*
X144521181Y-140698553D02*
X144044990Y-140365219D01*
X144521181Y-140127124D02*
X143521181Y-140127124D01*
X143521181Y-140508077D01*
X143568800Y-140603315D01*
X143616419Y-140650934D01*
X143711657Y-140698553D01*
X143854514Y-140698553D01*
X143949752Y-140650934D01*
X143997371Y-140603315D01*
X144044990Y-140508077D01*
X144044990Y-140127124D01*
X143997371Y-141460458D02*
X143997371Y-141127124D01*
X144521181Y-141127124D02*
X143521181Y-141127124D01*
X143521181Y-141603315D01*
X144432281Y-114942953D02*
X143956090Y-114609619D01*
X144432281Y-114371524D02*
X143432281Y-114371524D01*
X143432281Y-114752477D01*
X143479900Y-114847715D01*
X143527519Y-114895334D01*
X143622757Y-114942953D01*
X143765614Y-114942953D01*
X143860852Y-114895334D01*
X143908471Y-114847715D01*
X143956090Y-114752477D01*
X143956090Y-114371524D01*
X143908471Y-115704858D02*
X143908471Y-115371524D01*
X144432281Y-115371524D02*
X143432281Y-115371524D01*
X143432281Y-115847715D01*
X144673581Y-130538553D02*
X144197390Y-130205219D01*
X144673581Y-129967124D02*
X143673581Y-129967124D01*
X143673581Y-130348077D01*
X143721200Y-130443315D01*
X143768819Y-130490934D01*
X143864057Y-130538553D01*
X144006914Y-130538553D01*
X144102152Y-130490934D01*
X144149771Y-130443315D01*
X144197390Y-130348077D01*
X144197390Y-129967124D01*
X144149771Y-131300458D02*
X144149771Y-130967124D01*
X144673581Y-130967124D02*
X143673581Y-130967124D01*
X143673581Y-131443315D01*
X143873600Y-124612496D02*
X143825981Y-124517258D01*
X143825981Y-124374401D01*
X143873600Y-124231543D01*
X143968838Y-124136305D01*
X144064076Y-124088686D01*
X144254552Y-124041067D01*
X144397410Y-124041067D01*
X144587886Y-124088686D01*
X144683124Y-124136305D01*
X144778362Y-124231543D01*
X144825981Y-124374401D01*
X144825981Y-124469639D01*
X144778362Y-124612496D01*
X144730743Y-124660115D01*
X144397410Y-124660115D01*
X144397410Y-124469639D01*
X144825981Y-125088686D02*
X143825981Y-125088686D01*
X144825981Y-125660115D01*
X143825981Y-125660115D01*
X144825981Y-126136305D02*
X143825981Y-126136305D01*
X143825981Y-126374400D01*
X143873600Y-126517258D01*
X143968838Y-126612496D01*
X144064076Y-126660115D01*
X144254552Y-126707734D01*
X144397410Y-126707734D01*
X144587886Y-126660115D01*
X144683124Y-126612496D01*
X144778362Y-126517258D01*
X144825981Y-126374400D01*
X144825981Y-126136305D01*
X143670400Y-135229696D02*
X143622781Y-135134458D01*
X143622781Y-134991601D01*
X143670400Y-134848743D01*
X143765638Y-134753505D01*
X143860876Y-134705886D01*
X144051352Y-134658267D01*
X144194210Y-134658267D01*
X144384686Y-134705886D01*
X144479924Y-134753505D01*
X144575162Y-134848743D01*
X144622781Y-134991601D01*
X144622781Y-135086839D01*
X144575162Y-135229696D01*
X144527543Y-135277315D01*
X144194210Y-135277315D01*
X144194210Y-135086839D01*
X144622781Y-135705886D02*
X143622781Y-135705886D01*
X144622781Y-136277315D01*
X143622781Y-136277315D01*
X144622781Y-136753505D02*
X143622781Y-136753505D01*
X143622781Y-136991600D01*
X143670400Y-137134458D01*
X143765638Y-137229696D01*
X143860876Y-137277315D01*
X144051352Y-137324934D01*
X144194210Y-137324934D01*
X144384686Y-137277315D01*
X144479924Y-137229696D01*
X144575162Y-137134458D01*
X144622781Y-136991600D01*
X144622781Y-136753505D01*
X143518000Y-119138796D02*
X143470381Y-119043558D01*
X143470381Y-118900701D01*
X143518000Y-118757843D01*
X143613238Y-118662605D01*
X143708476Y-118614986D01*
X143898952Y-118567367D01*
X144041810Y-118567367D01*
X144232286Y-118614986D01*
X144327524Y-118662605D01*
X144422762Y-118757843D01*
X144470381Y-118900701D01*
X144470381Y-118995939D01*
X144422762Y-119138796D01*
X144375143Y-119186415D01*
X144041810Y-119186415D01*
X144041810Y-118995939D01*
X144470381Y-119614986D02*
X143470381Y-119614986D01*
X144470381Y-120186415D01*
X143470381Y-120186415D01*
X144470381Y-120662605D02*
X143470381Y-120662605D01*
X143470381Y-120900700D01*
X143518000Y-121043558D01*
X143613238Y-121138796D01*
X143708476Y-121186415D01*
X143898952Y-121234034D01*
X144041810Y-121234034D01*
X144232286Y-121186415D01*
X144327524Y-121138796D01*
X144422762Y-121043558D01*
X144470381Y-120900700D01*
X144470381Y-120662605D01*
X142895581Y-69929714D02*
X141895581Y-69929714D01*
X142895581Y-70501143D01*
X141895581Y-70501143D01*
X141895581Y-71167809D02*
X141895581Y-71358286D01*
X141943200Y-71453524D01*
X142038438Y-71548762D01*
X142228914Y-71596381D01*
X142562248Y-71596381D01*
X142752724Y-71548762D01*
X142847962Y-71453524D01*
X142895581Y-71358286D01*
X142895581Y-71167809D01*
X142847962Y-71072571D01*
X142752724Y-70977333D01*
X142562248Y-70929714D01*
X142228914Y-70929714D01*
X142038438Y-70977333D01*
X141943200Y-71072571D01*
X141895581Y-71167809D01*
X142895581Y-72024952D02*
X141895581Y-72024952D01*
X141895581Y-72405905D01*
X141943200Y-72501143D01*
X141990819Y-72548762D01*
X142086057Y-72596381D01*
X142228914Y-72596381D01*
X142324152Y-72548762D01*
X142371771Y-72501143D01*
X142419390Y-72405905D01*
X142419390Y-72024952D01*
X141895581Y-73215428D02*
X141895581Y-73405905D01*
X141943200Y-73501143D01*
X142038438Y-73596381D01*
X142228914Y-73644000D01*
X142562248Y-73644000D01*
X142752724Y-73596381D01*
X142847962Y-73501143D01*
X142895581Y-73405905D01*
X142895581Y-73215428D01*
X142847962Y-73120190D01*
X142752724Y-73024952D01*
X142562248Y-72977333D01*
X142228914Y-72977333D01*
X142038438Y-73024952D01*
X141943200Y-73120190D01*
X141895581Y-73215428D01*
X142895581Y-74644000D02*
X142419390Y-74310666D01*
X142895581Y-74072571D02*
X141895581Y-74072571D01*
X141895581Y-74453524D01*
X141943200Y-74548762D01*
X141990819Y-74596381D01*
X142086057Y-74644000D01*
X142228914Y-74644000D01*
X142324152Y-74596381D01*
X142371771Y-74548762D01*
X142419390Y-74453524D01*
X142419390Y-74072571D01*
X141895581Y-74929714D02*
X141895581Y-75501143D01*
X142895581Y-75215428D02*
X141895581Y-75215428D01*
X142844781Y-59285524D02*
X141844781Y-59285524D01*
X142844781Y-59856953D01*
X141844781Y-59856953D01*
X142749543Y-60904572D02*
X142797162Y-60856953D01*
X142844781Y-60714096D01*
X142844781Y-60618858D01*
X142797162Y-60476000D01*
X142701924Y-60380762D01*
X142606686Y-60333143D01*
X142416210Y-60285524D01*
X142273352Y-60285524D01*
X142082876Y-60333143D01*
X141987638Y-60380762D01*
X141892400Y-60476000D01*
X141844781Y-60618858D01*
X141844781Y-60714096D01*
X141892400Y-60856953D01*
X141940019Y-60904572D01*
X142844781Y-61333143D02*
X141844781Y-61333143D01*
X141844781Y-61714096D01*
X141892400Y-61809334D01*
X141940019Y-61856953D01*
X142035257Y-61904572D01*
X142178114Y-61904572D01*
X142273352Y-61856953D01*
X142320971Y-61809334D01*
X142368590Y-61714096D01*
X142368590Y-61333143D01*
X141844781Y-62523619D02*
X141844781Y-62714096D01*
X141892400Y-62809334D01*
X141987638Y-62904572D01*
X142178114Y-62952191D01*
X142511448Y-62952191D01*
X142701924Y-62904572D01*
X142797162Y-62809334D01*
X142844781Y-62714096D01*
X142844781Y-62523619D01*
X142797162Y-62428381D01*
X142701924Y-62333143D01*
X142511448Y-62285524D01*
X142178114Y-62285524D01*
X141987638Y-62333143D01*
X141892400Y-62428381D01*
X141844781Y-62523619D01*
X142844781Y-63952191D02*
X142368590Y-63618857D01*
X142844781Y-63380762D02*
X141844781Y-63380762D01*
X141844781Y-63761715D01*
X141892400Y-63856953D01*
X141940019Y-63904572D01*
X142035257Y-63952191D01*
X142178114Y-63952191D01*
X142273352Y-63904572D01*
X142320971Y-63856953D01*
X142368590Y-63761715D01*
X142368590Y-63380762D01*
X141844781Y-64237905D02*
X141844781Y-64809334D01*
X142844781Y-64523619D02*
X141844781Y-64523619D01*
X141882881Y-79899238D02*
X141882881Y-80089715D01*
X141930500Y-80184953D01*
X142025738Y-80280191D01*
X142216214Y-80327810D01*
X142549548Y-80327810D01*
X142740024Y-80280191D01*
X142835262Y-80184953D01*
X142882881Y-80089715D01*
X142882881Y-79899238D01*
X142835262Y-79804000D01*
X142740024Y-79708762D01*
X142549548Y-79661143D01*
X142216214Y-79661143D01*
X142025738Y-79708762D01*
X141930500Y-79804000D01*
X141882881Y-79899238D01*
X141882881Y-80756381D02*
X142692405Y-80756381D01*
X142787643Y-80804000D01*
X142835262Y-80851619D01*
X142882881Y-80946857D01*
X142882881Y-81137334D01*
X142835262Y-81232572D01*
X142787643Y-81280191D01*
X142692405Y-81327810D01*
X141882881Y-81327810D01*
X141882881Y-81661143D02*
X141882881Y-82232572D01*
X142882881Y-81946857D02*
X141882881Y-81946857D01*
X142882881Y-82565905D02*
X141882881Y-82565905D01*
X141882881Y-82946858D01*
X141930500Y-83042096D01*
X141978119Y-83089715D01*
X142073357Y-83137334D01*
X142216214Y-83137334D01*
X142311452Y-83089715D01*
X142359071Y-83042096D01*
X142406690Y-82946858D01*
X142406690Y-82565905D01*
X141882881Y-83756381D02*
X141882881Y-83946858D01*
X141930500Y-84042096D01*
X142025738Y-84137334D01*
X142216214Y-84184953D01*
X142549548Y-84184953D01*
X142740024Y-84137334D01*
X142835262Y-84042096D01*
X142882881Y-83946858D01*
X142882881Y-83756381D01*
X142835262Y-83661143D01*
X142740024Y-83565905D01*
X142549548Y-83518286D01*
X142216214Y-83518286D01*
X142025738Y-83565905D01*
X141930500Y-83661143D01*
X141882881Y-83756381D01*
X142882881Y-85184953D02*
X142406690Y-84851619D01*
X142882881Y-84613524D02*
X141882881Y-84613524D01*
X141882881Y-84994477D01*
X141930500Y-85089715D01*
X141978119Y-85137334D01*
X142073357Y-85184953D01*
X142216214Y-85184953D01*
X142311452Y-85137334D01*
X142359071Y-85089715D01*
X142406690Y-84994477D01*
X142406690Y-84613524D01*
X141882881Y-85470667D02*
X141882881Y-86042096D01*
X142882881Y-85756381D02*
X141882881Y-85756381D01*
X144594841Y-85684693D02*
X144118650Y-85351359D01*
X144594841Y-85113264D02*
X143594841Y-85113264D01*
X143594841Y-85494217D01*
X143642460Y-85589455D01*
X143690079Y-85637074D01*
X143785317Y-85684693D01*
X143928174Y-85684693D01*
X144023412Y-85637074D01*
X144071031Y-85589455D01*
X144118650Y-85494217D01*
X144118650Y-85113264D01*
X144071031Y-86446598D02*
X144071031Y-86113264D01*
X144594841Y-86113264D02*
X143594841Y-86113264D01*
X143594841Y-86589455D01*
X144724381Y-70289753D02*
X144248190Y-69956419D01*
X144724381Y-69718324D02*
X143724381Y-69718324D01*
X143724381Y-70099277D01*
X143772000Y-70194515D01*
X143819619Y-70242134D01*
X143914857Y-70289753D01*
X144057714Y-70289753D01*
X144152952Y-70242134D01*
X144200571Y-70194515D01*
X144248190Y-70099277D01*
X144248190Y-69718324D01*
X144200571Y-71051658D02*
X144200571Y-70718324D01*
X144724381Y-70718324D02*
X143724381Y-70718324D01*
X143724381Y-71194515D01*
X144724381Y-59507453D02*
X144248190Y-59174119D01*
X144724381Y-58936024D02*
X143724381Y-58936024D01*
X143724381Y-59316977D01*
X143772000Y-59412215D01*
X143819619Y-59459834D01*
X143914857Y-59507453D01*
X144057714Y-59507453D01*
X144152952Y-59459834D01*
X144200571Y-59412215D01*
X144248190Y-59316977D01*
X144248190Y-58936024D01*
X144200571Y-60269358D02*
X144200571Y-59936024D01*
X144724381Y-59936024D02*
X143724381Y-59936024D01*
X143724381Y-60412215D01*
X143772000Y-63563596D02*
X143724381Y-63468358D01*
X143724381Y-63325501D01*
X143772000Y-63182643D01*
X143867238Y-63087405D01*
X143962476Y-63039786D01*
X144152952Y-62992167D01*
X144295810Y-62992167D01*
X144486286Y-63039786D01*
X144581524Y-63087405D01*
X144676762Y-63182643D01*
X144724381Y-63325501D01*
X144724381Y-63420739D01*
X144676762Y-63563596D01*
X144629143Y-63611215D01*
X144295810Y-63611215D01*
X144295810Y-63420739D01*
X144724381Y-64039786D02*
X143724381Y-64039786D01*
X144724381Y-64611215D01*
X143724381Y-64611215D01*
X144724381Y-65087405D02*
X143724381Y-65087405D01*
X143724381Y-65325500D01*
X143772000Y-65468358D01*
X143867238Y-65563596D01*
X143962476Y-65611215D01*
X144152952Y-65658834D01*
X144295810Y-65658834D01*
X144486286Y-65611215D01*
X144581524Y-65563596D01*
X144676762Y-65468358D01*
X144724381Y-65325500D01*
X144724381Y-65087405D01*
X143873600Y-74218896D02*
X143825981Y-74123658D01*
X143825981Y-73980801D01*
X143873600Y-73837943D01*
X143968838Y-73742705D01*
X144064076Y-73695086D01*
X144254552Y-73647467D01*
X144397410Y-73647467D01*
X144587886Y-73695086D01*
X144683124Y-73742705D01*
X144778362Y-73837943D01*
X144825981Y-73980801D01*
X144825981Y-74076039D01*
X144778362Y-74218896D01*
X144730743Y-74266515D01*
X144397410Y-74266515D01*
X144397410Y-74076039D01*
X144825981Y-74695086D02*
X143825981Y-74695086D01*
X144825981Y-75266515D01*
X143825981Y-75266515D01*
X144825981Y-75742705D02*
X143825981Y-75742705D01*
X143825981Y-75980800D01*
X143873600Y-76123658D01*
X143968838Y-76218896D01*
X144064076Y-76266515D01*
X144254552Y-76314134D01*
X144397410Y-76314134D01*
X144587886Y-76266515D01*
X144683124Y-76218896D01*
X144778362Y-76123658D01*
X144825981Y-75980800D01*
X144825981Y-75742705D01*
X143335120Y-80068516D02*
X143287501Y-79973278D01*
X143287501Y-79830421D01*
X143335120Y-79687563D01*
X143430358Y-79592325D01*
X143525596Y-79544706D01*
X143716072Y-79497087D01*
X143858930Y-79497087D01*
X144049406Y-79544706D01*
X144144644Y-79592325D01*
X144239882Y-79687563D01*
X144287501Y-79830421D01*
X144287501Y-79925659D01*
X144239882Y-80068516D01*
X144192263Y-80116135D01*
X143858930Y-80116135D01*
X143858930Y-79925659D01*
X144287501Y-80544706D02*
X143287501Y-80544706D01*
X144287501Y-81116135D01*
X143287501Y-81116135D01*
X144287501Y-81592325D02*
X143287501Y-81592325D01*
X143287501Y-81830420D01*
X143335120Y-81973278D01*
X143430358Y-82068516D01*
X143525596Y-82116135D01*
X143716072Y-82163754D01*
X143858930Y-82163754D01*
X144049406Y-82116135D01*
X144144644Y-82068516D01*
X144239882Y-81973278D01*
X144287501Y-81830420D01*
X144287501Y-81592325D01*
M02*
