M48
;DRILL file {KiCad 4.0.7} date 10/22/18 11:41:13
;FORMAT={-:-/ absolute / metric / decimal}
FMAT,2
METRIC,TZ
T1C0.400
T2C0.800
T3C0.900
T4C1.000
T5C1.200
T6C1.300
T7C1.520
T8C3.048
%
G90
G05
M71
T1
X64.668Y-62.027
X65.468Y-63.055
X90.875Y-57.7
X100.546Y-142.227
X113.83Y-142.926
T2
X51.714Y-59.284
X52.921Y-61.976
X52.921Y-69.596
X52.946Y-71.691
X52.946Y-79.311
X53.48Y-129.921
X53.48Y-137.541
X53.645Y-119.405
X53.645Y-127.025
X55.475Y-62.005
X55.475Y-69.625
X55.525Y-71.705
X55.525Y-79.325
X56.274Y-116.624
X56.667Y-130.048
X56.667Y-137.668
X56.731Y-119.329
X56.731Y-126.949
X59.334Y-59.284
X61.036Y-111.257
X61.091Y-108.687
X61.102Y-90.627
X61.102Y-95.936
X61.102Y-101.041
X61.127Y-103.632
X61.127Y-106.147
X61.152Y-88.011
X61.152Y-93.142
X61.152Y-98.4
X63.536Y-111.257
X63.591Y-108.687
X63.602Y-90.627
X63.602Y-95.936
X63.602Y-101.041
X63.627Y-103.632
X63.627Y-106.147
X63.652Y-88.011
X63.652Y-93.142
X63.652Y-98.4
X63.894Y-116.624
X69.774Y-51.587
X70.296Y-148.107
X72.274Y-51.587
X72.796Y-148.107
X81.432Y-51.613
X83.708Y-148.209
X83.932Y-51.613
X86.208Y-148.209
X95.352Y-51.613
X96.839Y-148.234
X97.852Y-51.613
X99.339Y-148.234
X108.61Y-51.562
X110.149Y-148.184
X111.11Y-51.562
X112.649Y-148.184
X120.461Y-148.26
X121.437Y-51.638
X122.961Y-148.26
X123.937Y-51.638
X129.377Y-148.311
X130.251Y-51.613
X131.877Y-148.311
X132.751Y-51.613
X140.248Y-51.308
X142.748Y-51.308
T3
X59.26Y-63.2
X59.26Y-67.6
X59.26Y-72.
X59.26Y-76.6
X59.26Y-81.2
X60.973Y-120.536
X60.998Y-125.031
X60.998Y-129.553
X60.998Y-133.998
X60.998Y-138.582
X61.8Y-63.2
X61.8Y-67.6
X61.8Y-72.
X61.8Y-76.6
X61.8Y-81.2
X63.513Y-120.536
X63.538Y-125.031
X63.538Y-129.553
X63.538Y-133.998
X63.538Y-138.582
T4
X52.324Y-88.201
X52.324Y-90.742
X52.324Y-93.281
X52.324Y-95.822
X52.324Y-98.361
X52.324Y-100.901
X52.324Y-103.441
X52.324Y-105.981
X52.324Y-108.521
X52.324Y-111.061
X54.864Y-88.201
X54.864Y-90.742
X54.864Y-93.281
X54.864Y-95.822
X54.864Y-98.361
X54.864Y-100.901
X54.864Y-103.441
X54.864Y-105.981
X54.864Y-108.521
X54.864Y-111.061
X67.763Y-116.205
X72.263Y-116.205
X72.86Y-90.488
X72.86Y-98.091
X73.842Y-102.417
X73.842Y-110.02
X75.86Y-90.488
X75.86Y-98.091
X76.763Y-116.205
X76.842Y-102.417
X76.842Y-110.02
X78.86Y-90.488
X78.86Y-98.091
X79.6Y-84.8
X79.842Y-102.417
X79.842Y-110.02
X81.86Y-90.488
X81.86Y-98.091
X82.317Y-115.824
X82.842Y-102.417
X82.842Y-110.02
X84.1Y-84.8
X86.817Y-115.824
X88.6Y-84.8
X91.317Y-115.824
X91.946Y-90.508
X91.946Y-98.111
X93.095Y-102.366
X93.095Y-109.969
X94.946Y-90.508
X94.946Y-98.111
X96.095Y-102.366
X96.095Y-109.969
X97.5Y-84.5
X97.946Y-90.508
X97.946Y-98.111
X98.45Y-115.75
X99.095Y-102.366
X99.095Y-109.969
X100.946Y-90.508
X100.946Y-98.111
X102.Y-84.5
X102.095Y-102.366
X102.095Y-109.969
X102.95Y-115.75
X106.5Y-84.5
X107.45Y-115.75
X111.146Y-90.708
X111.146Y-98.311
X112.272Y-102.544
X112.272Y-110.147
X114.146Y-90.708
X114.146Y-98.311
X114.6Y-115.6
X115.272Y-102.544
X115.272Y-110.147
X117.146Y-90.708
X117.146Y-98.311
X117.3Y-84.9
X118.272Y-102.544
X118.272Y-110.147
X119.1Y-115.6
X120.146Y-90.708
X120.146Y-98.311
X121.272Y-102.544
X121.272Y-110.147
X121.8Y-84.9
X123.6Y-115.6
X126.3Y-84.9
X130.315Y-90.539
X130.315Y-98.142
X131.462Y-102.505
X131.462Y-110.108
X133.315Y-90.539
X133.315Y-98.142
X134.462Y-102.505
X134.462Y-110.108
X136.315Y-90.539
X136.315Y-98.142
X137.462Y-102.505
X137.462Y-110.108
X139.315Y-90.539
X139.315Y-98.142
X140.462Y-102.505
X140.462Y-110.108
X147.13Y-93.925
X147.13Y-98.425
X147.13Y-102.925
T5
X51.121Y-141.402
X56.121Y-141.402
X58.791Y-143.859
X58.791Y-148.859
X62.192Y-143.806
X62.192Y-148.806
X69.494Y-93.98
X70.588Y-106.528
X85.114Y-93.98
X86.208Y-106.528
X88.58Y-94.
X89.841Y-106.477
X104.2Y-94.
X105.461Y-106.477
X107.78Y-94.2
X109.018Y-106.655
X123.4Y-94.2
X124.638Y-106.655
X126.949Y-94.031
X128.207Y-106.617
X137.049Y-148.59
X142.049Y-148.59
X142.569Y-94.031
X143.827Y-106.617
T6
X66.2Y-54.7
X66.2Y-69.94
X66.2Y-75.02
X66.2Y-80.1
X67.2Y-119.7
X67.2Y-124.78
X67.2Y-129.86
X67.2Y-145.1
X73.8Y-54.7
X73.8Y-69.94
X73.8Y-75.02
X73.8Y-80.1
X74.8Y-119.7
X74.8Y-124.78
X74.8Y-129.86
X74.8Y-145.1
X79.4Y-54.8
X79.4Y-70.04
X79.4Y-75.12
X79.4Y-80.2
X80.3Y-119.8
X80.3Y-124.88
X80.3Y-129.96
X80.3Y-145.2
X87.Y-54.8
X87.Y-70.04
X87.Y-75.12
X87.Y-80.2
X87.9Y-119.8
X87.9Y-124.88
X87.9Y-129.96
X87.9Y-145.2
X92.771Y-54.618
X92.771Y-69.858
X92.771Y-74.938
X92.771Y-80.018
X93.545Y-119.715
X93.545Y-124.795
X93.545Y-129.875
X93.545Y-145.115
X100.371Y-54.618
X100.371Y-69.858
X100.371Y-74.938
X100.371Y-80.018
X101.145Y-119.715
X101.145Y-124.795
X101.145Y-129.875
X101.145Y-145.115
X106.1Y-54.6
X106.1Y-69.84
X106.1Y-74.92
X106.1Y-80.
X106.614Y-119.715
X106.614Y-124.795
X106.614Y-129.875
X106.614Y-145.115
X113.7Y-54.6
X113.7Y-69.84
X113.7Y-74.92
X113.7Y-80.
X114.214Y-119.715
X114.214Y-124.795
X114.214Y-129.875
X114.214Y-145.115
X119.2Y-54.8
X119.2Y-70.04
X119.2Y-75.12
X119.2Y-80.2
X119.644Y-119.664
X119.644Y-124.744
X119.644Y-129.825
X119.644Y-145.064
X126.8Y-54.8
X126.8Y-70.04
X126.8Y-75.12
X126.8Y-80.2
X127.244Y-119.664
X127.244Y-124.744
X127.244Y-129.825
X127.244Y-145.064
X132.5Y-54.6
X132.5Y-69.84
X132.5Y-74.92
X132.5Y-80.
X132.9Y-119.7
X132.9Y-124.78
X132.9Y-129.86
X132.9Y-145.1
X140.1Y-54.6
X140.1Y-69.84
X140.1Y-74.92
X140.1Y-80.
X140.5Y-119.7
X140.5Y-124.78
X140.5Y-129.86
X140.5Y-145.1
T7
X146.939Y-114.808
X146.939Y-119.888
X147.015Y-59.233
X147.015Y-64.313
X147.066Y-69.596
X147.066Y-74.676
X147.066Y-80.772
X147.066Y-85.852
X147.066Y-125.527
X147.066Y-130.607
X147.168Y-136.042
X147.168Y-141.122
T8
X53.Y-53.
X53.Y-147.
X147.Y-53.
X147.Y-147.
T0
M30
