G04 #@! TF.FileFunction,Copper,L1,Top,Signal*
%FSLAX46Y46*%
G04 Gerber Fmt 4.6, Leading zero omitted, Abs format (unit mm)*
G04 Created by KiCad (PCBNEW 4.0.7) date 10/22/18 11:41:11*
%MOMM*%
%LPD*%
G01*
G04 APERTURE LIST*
%ADD10C,0.100000*%
%ADD11C,1.600000*%
%ADD12O,1.600000X1.600000*%
%ADD13R,1.800000X1.800000*%
%ADD14C,1.800000*%
%ADD15R,3.000000X3.000000*%
%ADD16C,3.000000*%
%ADD17C,5.500000*%
%ADD18O,3.000000X1.500000*%
%ADD19O,1.500000X3.000000*%
%ADD20R,1.700000X1.700000*%
%ADD21O,1.700000X1.700000*%
%ADD22C,2.000000*%
%ADD23C,1.700000*%
%ADD24O,12.000000X2.000000*%
%ADD25C,2.400000*%
%ADD26C,0.600000*%
%ADD27C,1.000000*%
%ADD28C,0.500000*%
%ADD29C,0.350000*%
G04 APERTURE END LIST*
D10*
D11*
X53479700Y-129921000D03*
D12*
X53479700Y-137541000D03*
D11*
X81432400Y-51612800D03*
X83932400Y-51612800D03*
X63535560Y-111257080D03*
X61035560Y-111257080D03*
D13*
X63538100Y-129552700D03*
D14*
X60998100Y-129552700D03*
D11*
X52946300Y-71691500D03*
D12*
X52946300Y-79311500D03*
D13*
X63538100Y-138582400D03*
D14*
X60998100Y-138582400D03*
D13*
X63538100Y-133997700D03*
D14*
X60998100Y-133997700D03*
D15*
X146939000Y-114808000D03*
D16*
X146939000Y-119888000D03*
D15*
X147015200Y-59232800D03*
D16*
X147015200Y-64312800D03*
D11*
X112649000Y-148183600D03*
X110149000Y-148183600D03*
X99339400Y-148234400D03*
X96839400Y-148234400D03*
X86207600Y-148209000D03*
X83707600Y-148209000D03*
X72796400Y-148107400D03*
X70296400Y-148107400D03*
X69773800Y-51587400D03*
X72273800Y-51587400D03*
X95351600Y-51612800D03*
X97851600Y-51612800D03*
X108610400Y-51562000D03*
X111110400Y-51562000D03*
X121437400Y-51638200D03*
X123937400Y-51638200D03*
X131876800Y-148310600D03*
X129376800Y-148310600D03*
X59334400Y-59283600D03*
D12*
X51714400Y-59283600D03*
D15*
X147066000Y-74676000D03*
D16*
X147066000Y-69596000D03*
D17*
X147000000Y-53000000D03*
X53000000Y-147000000D03*
D11*
X52920900Y-69596000D03*
D12*
X52920900Y-61976000D03*
D13*
X63538100Y-125031500D03*
D14*
X60998100Y-125031500D03*
D13*
X63512700Y-120535700D03*
D14*
X60972700Y-120535700D03*
D13*
X61800000Y-81200000D03*
D14*
X59260000Y-81200000D03*
D13*
X61800000Y-76600000D03*
D14*
X59260000Y-76600000D03*
D13*
X61800000Y-72000000D03*
D14*
X59260000Y-72000000D03*
D11*
X56667400Y-130048000D03*
D12*
X56667400Y-137668000D03*
D11*
X53644800Y-127025400D03*
D12*
X53644800Y-119405400D03*
D11*
X56730900Y-126949200D03*
D12*
X56730900Y-119329200D03*
D11*
X56273700Y-116624100D03*
D12*
X63893700Y-116624100D03*
D11*
X55525000Y-79325000D03*
D12*
X55525000Y-71705000D03*
D11*
X55475000Y-69625000D03*
D12*
X55475000Y-62005000D03*
D18*
X121800000Y-84900000D03*
X126300000Y-84900000D03*
X117300000Y-84900000D03*
X102000000Y-84500000D03*
X106500000Y-84500000D03*
X97500000Y-84500000D03*
X84100000Y-84800000D03*
X88600000Y-84800000D03*
X79600000Y-84800000D03*
X86817200Y-115824000D03*
X82317200Y-115824000D03*
X91317200Y-115824000D03*
X102950000Y-115750000D03*
X98450000Y-115750000D03*
X107450000Y-115750000D03*
X119100000Y-115600000D03*
X114600000Y-115600000D03*
X123600000Y-115600000D03*
D13*
X61800000Y-67600000D03*
D14*
X59260000Y-67600000D03*
D13*
X61800000Y-63200000D03*
D14*
X59260000Y-63200000D03*
D18*
X72263000Y-116205000D03*
X67763000Y-116205000D03*
X76763000Y-116205000D03*
D15*
X147066000Y-125526800D03*
D16*
X147066000Y-130606800D03*
D15*
X147167600Y-141122400D03*
D16*
X147167600Y-136042400D03*
D15*
X147066000Y-85852000D03*
D16*
X147066000Y-80772000D03*
D19*
X147129500Y-98425000D03*
X147129500Y-102925000D03*
X147129500Y-93925000D03*
D20*
X54864000Y-111061500D03*
D21*
X52324000Y-111061500D03*
X54864000Y-108521500D03*
X52324000Y-108521500D03*
X54864000Y-105981500D03*
X52324000Y-105981500D03*
X54864000Y-103441500D03*
X52324000Y-103441500D03*
X54864000Y-100901500D03*
X52324000Y-100901500D03*
X54864000Y-98361500D03*
X52324000Y-98361500D03*
X54864000Y-95821500D03*
X52324000Y-95821500D03*
X54864000Y-93281500D03*
X52324000Y-93281500D03*
X54864000Y-90741500D03*
X52324000Y-90741500D03*
X54864000Y-88201500D03*
X52324000Y-88201500D03*
D11*
X122961400Y-148259800D03*
X120461400Y-148259800D03*
X130251200Y-51612800D03*
X132751200Y-51612800D03*
X63652400Y-88011000D03*
X61152400Y-88011000D03*
X63601600Y-90627200D03*
X61101600Y-90627200D03*
X63652400Y-93141800D03*
X61152400Y-93141800D03*
X63601600Y-95935800D03*
X61101600Y-95935800D03*
X63652400Y-98399600D03*
X61152400Y-98399600D03*
X63601600Y-101041200D03*
X61101600Y-101041200D03*
X63627000Y-103632000D03*
X61127000Y-103632000D03*
X63627000Y-106146600D03*
X61127000Y-106146600D03*
X63591440Y-108686600D03*
X61091440Y-108686600D03*
D17*
X53000000Y-53000000D03*
D22*
X58790840Y-148859240D03*
X58790840Y-143859240D03*
X62191900Y-148805900D03*
X62191900Y-143805900D03*
X56121300Y-141401800D03*
X51121300Y-141401800D03*
X142049500Y-148590000D03*
X137049500Y-148590000D03*
D17*
X147000000Y-147000000D03*
D11*
X142748000Y-51308000D03*
X140248000Y-51308000D03*
D23*
X93094800Y-109968800D03*
X96094800Y-109968800D03*
X99094800Y-109968800D03*
X102094800Y-109968800D03*
X93094800Y-102365800D03*
X96094800Y-102365800D03*
X99094800Y-102365800D03*
X102094800Y-102365800D03*
D24*
X97594800Y-109968800D03*
X97594800Y-102365800D03*
D25*
X89840800Y-106476800D03*
X105460800Y-106476800D03*
D23*
X112271800Y-110146600D03*
X115271800Y-110146600D03*
X118271800Y-110146600D03*
X121271800Y-110146600D03*
X112271800Y-102543600D03*
X115271800Y-102543600D03*
X118271800Y-102543600D03*
X121271800Y-102543600D03*
D24*
X116771800Y-110146600D03*
X116771800Y-102543600D03*
D25*
X109017800Y-106654600D03*
X124637800Y-106654600D03*
D23*
X131461500Y-110108500D03*
X134461500Y-110108500D03*
X137461500Y-110108500D03*
X140461500Y-110108500D03*
X131461500Y-102505500D03*
X134461500Y-102505500D03*
X137461500Y-102505500D03*
X140461500Y-102505500D03*
D24*
X135961500Y-110108500D03*
X135961500Y-102505500D03*
D25*
X128207500Y-106616500D03*
X143827500Y-106616500D03*
D23*
X73841600Y-110019600D03*
X76841600Y-110019600D03*
X79841600Y-110019600D03*
X82841600Y-110019600D03*
X73841600Y-102416600D03*
X76841600Y-102416600D03*
X79841600Y-102416600D03*
X82841600Y-102416600D03*
D24*
X78341600Y-110019600D03*
X78341600Y-102416600D03*
D25*
X70587600Y-106527600D03*
X86207600Y-106527600D03*
D23*
X81860400Y-90488000D03*
X78860400Y-90488000D03*
X75860400Y-90488000D03*
X72860400Y-90488000D03*
X81860400Y-98091000D03*
X78860400Y-98091000D03*
X75860400Y-98091000D03*
X72860400Y-98091000D03*
D24*
X77360400Y-90488000D03*
X77360400Y-98091000D03*
D25*
X85114400Y-93980000D03*
X69494400Y-93980000D03*
D23*
X100946000Y-90508000D03*
X97946000Y-90508000D03*
X94946000Y-90508000D03*
X91946000Y-90508000D03*
X100946000Y-98111000D03*
X97946000Y-98111000D03*
X94946000Y-98111000D03*
X91946000Y-98111000D03*
D24*
X96446000Y-90508000D03*
X96446000Y-98111000D03*
D25*
X104200000Y-94000000D03*
X88580000Y-94000000D03*
D23*
X120146000Y-90708000D03*
X117146000Y-90708000D03*
X114146000Y-90708000D03*
X111146000Y-90708000D03*
X120146000Y-98311000D03*
X117146000Y-98311000D03*
X114146000Y-98311000D03*
X111146000Y-98311000D03*
D24*
X115646000Y-90708000D03*
X115646000Y-98311000D03*
D25*
X123400000Y-94200000D03*
X107780000Y-94200000D03*
D23*
X139315200Y-90538800D03*
X136315200Y-90538800D03*
X133315200Y-90538800D03*
X130315200Y-90538800D03*
X139315200Y-98141800D03*
X136315200Y-98141800D03*
X133315200Y-98141800D03*
X130315200Y-98141800D03*
D24*
X134815200Y-90538800D03*
X134815200Y-98141800D03*
D25*
X142569200Y-94030800D03*
X126949200Y-94030800D03*
D22*
X126800000Y-54800000D03*
X126800000Y-70040000D03*
X126800000Y-80200000D03*
X126800000Y-75120000D03*
X119200000Y-54800000D03*
X119200000Y-75120000D03*
X119200000Y-70040000D03*
X119200000Y-80200000D03*
X80300000Y-145200000D03*
X80300000Y-129960000D03*
X80300000Y-119800000D03*
X80300000Y-124880000D03*
X87900000Y-145200000D03*
X87900000Y-124880000D03*
X87900000Y-129960000D03*
X87900000Y-119800000D03*
X106613800Y-145115300D03*
X106613800Y-129875300D03*
X106613800Y-119715300D03*
X106613800Y-124795300D03*
X114213800Y-145115300D03*
X114213800Y-124795300D03*
X114213800Y-129875300D03*
X114213800Y-119715300D03*
X93545500Y-145115300D03*
X93545500Y-129875300D03*
X93545500Y-119715300D03*
X93545500Y-124795300D03*
X101145500Y-145115300D03*
X101145500Y-124795300D03*
X101145500Y-129875300D03*
X101145500Y-119715300D03*
X67200000Y-145100000D03*
X67200000Y-129860000D03*
X67200000Y-119700000D03*
X67200000Y-124780000D03*
X74800000Y-145100000D03*
X74800000Y-124780000D03*
X74800000Y-129860000D03*
X74800000Y-119700000D03*
X73800000Y-54700000D03*
X73800000Y-69940000D03*
X73800000Y-80100000D03*
X73800000Y-75020000D03*
X66200000Y-54700000D03*
X66200000Y-75020000D03*
X66200000Y-69940000D03*
X66200000Y-80100000D03*
X87000000Y-54800000D03*
X87000000Y-70040000D03*
X87000000Y-80200000D03*
X87000000Y-75120000D03*
X79400000Y-54800000D03*
X79400000Y-75120000D03*
X79400000Y-70040000D03*
X79400000Y-80200000D03*
X100370800Y-54617600D03*
X100370800Y-69857600D03*
X100370800Y-80017600D03*
X100370800Y-74937600D03*
X92770800Y-54617600D03*
X92770800Y-74937600D03*
X92770800Y-69857600D03*
X92770800Y-80017600D03*
X113700000Y-54600000D03*
X113700000Y-69840000D03*
X113700000Y-80000000D03*
X113700000Y-74920000D03*
X106100000Y-54600000D03*
X106100000Y-74920000D03*
X106100000Y-69840000D03*
X106100000Y-80000000D03*
X140100000Y-54600000D03*
X140100000Y-69840000D03*
X140100000Y-80000000D03*
X140100000Y-74920000D03*
X132500000Y-54600000D03*
X132500000Y-74920000D03*
X132500000Y-69840000D03*
X132500000Y-80000000D03*
X119644000Y-145064500D03*
X119644000Y-129824500D03*
X119644000Y-119664500D03*
X119644000Y-124744500D03*
X127244000Y-145064500D03*
X127244000Y-124744500D03*
X127244000Y-129824500D03*
X127244000Y-119664500D03*
X132900000Y-145100000D03*
X132900000Y-129860000D03*
X132900000Y-119700000D03*
X132900000Y-124780000D03*
X140500000Y-145100000D03*
X140500000Y-124780000D03*
X140500000Y-129860000D03*
X140500000Y-119700000D03*
D26*
X113830100Y-142925800D03*
X100545900Y-142227300D03*
X64668400Y-62026800D03*
X65468500Y-63055500D03*
X90875000Y-57700000D03*
D27*
X130315200Y-98141800D02*
X130315200Y-101359200D01*
X130315200Y-101359200D02*
X131461500Y-102505500D01*
X147066000Y-80772000D02*
X147320000Y-80772000D01*
X147320000Y-80772000D02*
X149352000Y-82804000D01*
X149352000Y-82804000D02*
X149352000Y-108966000D01*
X72860400Y-98091000D02*
X73647800Y-102222800D01*
X73647800Y-102222800D02*
X73841600Y-102416600D01*
X77360400Y-98091000D02*
X91768200Y-98288800D01*
X91768200Y-98288800D02*
X91946000Y-98111000D01*
X82841600Y-102416600D02*
X93044000Y-102416600D01*
X93044000Y-102416600D02*
X93094800Y-102365800D01*
X81860400Y-98091000D02*
X82647800Y-102222800D01*
X82647800Y-102222800D02*
X82841600Y-102416600D01*
X91946000Y-98111000D02*
X93256600Y-102204000D01*
X93256600Y-102204000D02*
X93094800Y-102365800D01*
X100946000Y-98111000D02*
X102256600Y-102204000D01*
X102256600Y-102204000D02*
X102094800Y-102365800D01*
X111146000Y-98311000D02*
X112433600Y-102381800D01*
X112433600Y-102381800D02*
X112271800Y-102543600D01*
X102094800Y-102365800D02*
X116619400Y-102391200D01*
X116619400Y-102391200D02*
X116771800Y-102543600D01*
X96446000Y-98111000D02*
X111069800Y-98234800D01*
X111069800Y-98234800D02*
X111146000Y-98311000D01*
X121271800Y-102543600D02*
X135948800Y-102518200D01*
X135948800Y-102518200D02*
X135961500Y-102505500D01*
X120146000Y-98311000D02*
X121433600Y-102381800D01*
X121433600Y-102381800D02*
X121271800Y-102543600D01*
X130315200Y-98141800D02*
X120374600Y-98082400D01*
X120374600Y-98082400D02*
X120146000Y-98311000D01*
X140461500Y-102505500D02*
X143272500Y-102505500D01*
X149352000Y-117551200D02*
X146939000Y-119888000D01*
X149352000Y-108966000D02*
X149352000Y-117551200D01*
X146431000Y-106045000D02*
X149352000Y-108966000D01*
X146431000Y-105664000D02*
X146431000Y-106045000D01*
X143272500Y-102505500D02*
X146431000Y-105664000D01*
X140461500Y-102505500D02*
X140461500Y-102162500D01*
X140461500Y-102162500D02*
X140496300Y-102127700D01*
X140496300Y-102127700D02*
X139315200Y-98141800D01*
D28*
X149606000Y-122961400D02*
X149606000Y-56210200D01*
X142417800Y-53477800D02*
X140248000Y-51308000D01*
X142417800Y-54559200D02*
X142417800Y-53477800D01*
X144373600Y-56515000D02*
X142417800Y-54559200D01*
X149301200Y-56515000D02*
X144373600Y-56515000D01*
X149606000Y-56210200D02*
X149301200Y-56515000D01*
D27*
X143230600Y-76936600D02*
X147066000Y-80772000D01*
X143230600Y-76047600D02*
X143230600Y-76936600D01*
D28*
X146939000Y-119888000D02*
X147091400Y-119888000D01*
X147091400Y-119888000D02*
X149606000Y-122428000D01*
X140563600Y-147980400D02*
X137659100Y-147980400D01*
X141478000Y-147066000D02*
X140563600Y-147980400D01*
X142494000Y-147066000D02*
X141478000Y-147066000D01*
X143357600Y-146202400D02*
X142494000Y-147066000D01*
X143357600Y-144932400D02*
X143357600Y-146202400D01*
X144729200Y-143560800D02*
X143357600Y-144932400D01*
X149352000Y-143560800D02*
X144729200Y-143560800D01*
X149606000Y-143306800D02*
X149352000Y-143560800D01*
X149606000Y-122428000D02*
X149606000Y-122961400D01*
X149606000Y-122961400D02*
X149606000Y-143306800D01*
X137659100Y-147980400D02*
X137049500Y-148590000D01*
D27*
X140500000Y-125100000D02*
X132900000Y-125100000D01*
X140500000Y-125100000D02*
X142334000Y-125128000D01*
X142334000Y-125128000D02*
X146939000Y-119888000D01*
X140100000Y-74600000D02*
X141775200Y-74592200D01*
X141775200Y-74592200D02*
X143230600Y-76047600D01*
X132500000Y-74600000D02*
X140100000Y-74600000D01*
X101145500Y-125115300D02*
X93545500Y-125115300D01*
X124637800Y-106654600D02*
X124587000Y-111188500D01*
X124587000Y-111188500D02*
X119550000Y-115600000D01*
X119550000Y-115600000D02*
X119100000Y-115600000D01*
X123600000Y-115600000D02*
X124200000Y-115400000D01*
X127698500Y-112204500D02*
X128207500Y-106616500D01*
X124200000Y-115400000D02*
X127698500Y-112204500D01*
X102950000Y-115750000D02*
X103100000Y-115250000D01*
X105460800Y-113289200D02*
X105460800Y-106476800D01*
X103100000Y-115250000D02*
X105460800Y-113289200D01*
X87900000Y-125200000D02*
X80300000Y-125200000D01*
X103432600Y-115267400D02*
X102950000Y-115750000D01*
X109017800Y-106654600D02*
X109017800Y-107482200D01*
X109017800Y-107482200D02*
X107900000Y-108600000D01*
X107900000Y-108600000D02*
X107450000Y-115750000D01*
X74800000Y-125100000D02*
X67200000Y-125100000D01*
X86207600Y-106527600D02*
X86233000Y-115239800D01*
X86233000Y-115239800D02*
X86817200Y-115824000D01*
X89840800Y-106476800D02*
X89917000Y-114423800D01*
X89917000Y-114423800D02*
X91317200Y-115824000D01*
X73800000Y-74700000D02*
X73800000Y-74870000D01*
X73800000Y-74870000D02*
X70358000Y-78232000D01*
X70358000Y-78232000D02*
X70000000Y-84400000D01*
X70000000Y-84400000D02*
X70000000Y-86800000D01*
X70000000Y-86800000D02*
X69494400Y-93980000D01*
X72263000Y-116205000D02*
X71577200Y-116205000D01*
X71577200Y-116205000D02*
X68400000Y-112150000D01*
X68400000Y-112150000D02*
X68059300Y-99085400D01*
X68059300Y-99085400D02*
X69494400Y-93980000D01*
X74054000Y-75042900D02*
X66718300Y-75042900D01*
X66718300Y-75042900D02*
X66454000Y-75042900D01*
X76763000Y-116205000D02*
X76763000Y-116031400D01*
X76763000Y-116031400D02*
X74625200Y-114147600D01*
X71272400Y-111874300D02*
X70587600Y-106527600D01*
X72400000Y-113360200D02*
X71272400Y-111874300D01*
X74625200Y-114147600D02*
X72400000Y-113360200D01*
X84100000Y-84800000D02*
X84036500Y-84800000D01*
X84036500Y-84800000D02*
X88200000Y-88100000D01*
X88200000Y-88100000D02*
X88580000Y-94000000D01*
X88935600Y-93644400D02*
X88580000Y-94000000D01*
X79600000Y-84800000D02*
X79600000Y-85172500D01*
X79600000Y-85172500D02*
X84900000Y-88100000D01*
X84900000Y-88100000D02*
X85114400Y-93980000D01*
X73800000Y-69700000D02*
X66200000Y-69700000D01*
X73800000Y-69700000D02*
X73984000Y-69700000D01*
X73984000Y-69700000D02*
X76276200Y-71907400D01*
X76276200Y-71907400D02*
X76276200Y-82575400D01*
X76276200Y-82575400D02*
X77978000Y-84277200D01*
X77978000Y-84277200D02*
X79600000Y-84800000D01*
X84958800Y-93824400D02*
X85114400Y-93980000D01*
X102000000Y-84500000D02*
X103100000Y-84500000D01*
X103100000Y-84500000D02*
X106490003Y-88955432D01*
X106490003Y-88955432D02*
X107780000Y-94200000D01*
X104200000Y-94000000D02*
X104000000Y-89400000D01*
X99700000Y-86700000D02*
X97500000Y-84500000D01*
X102300000Y-87400000D02*
X99700000Y-86700000D01*
X104000000Y-89400000D02*
X102300000Y-87400000D01*
X97500000Y-84500000D02*
X97500000Y-85200000D01*
X104311100Y-93888900D02*
X104200000Y-94000000D01*
X97500000Y-84500000D02*
X97500000Y-84902200D01*
X121800000Y-84900000D02*
X122400000Y-84900000D01*
X122400000Y-84900000D02*
X126500000Y-89600000D01*
X126500000Y-89600000D02*
X126949200Y-94030800D01*
X121800000Y-84900000D02*
X122054000Y-84900000D01*
X123006500Y-84849200D02*
X122943000Y-85039700D01*
X113700000Y-74600000D02*
X113700000Y-74800800D01*
X123400000Y-94200000D02*
X123400000Y-89100000D01*
X119970596Y-87150054D02*
X117300000Y-84900000D01*
X122024021Y-87819696D02*
X119970596Y-87150054D01*
X123400000Y-89100000D02*
X122024021Y-87819696D01*
X117300000Y-84900000D02*
X118091600Y-84900000D01*
X118506500Y-84849200D02*
X118443000Y-84730700D01*
X101145500Y-120115300D02*
X101840300Y-120115300D01*
X101840300Y-120115300D02*
X104011500Y-122369000D01*
X111475000Y-115800000D02*
X111475000Y-110943400D01*
X109625000Y-117650000D02*
X111475000Y-115800000D01*
X109625000Y-120725000D02*
X109625000Y-117650000D01*
X108336500Y-122369000D02*
X109625000Y-120725000D01*
X104011500Y-122369000D02*
X108336500Y-122369000D01*
X111475000Y-110943400D02*
X112271800Y-110146600D01*
X93545500Y-120115300D02*
X101145500Y-120115300D01*
X101145500Y-120115300D02*
X101321900Y-120115300D01*
X79841600Y-110019600D02*
X79841600Y-112019600D01*
X79841600Y-112019600D02*
X79641700Y-112613200D01*
X74800000Y-120100000D02*
X76894720Y-120006080D01*
X79641700Y-112613200D02*
X79841600Y-112019600D01*
X76894720Y-120006080D02*
X79565500Y-117221000D01*
X79565500Y-117221000D02*
X79641700Y-112613200D01*
X74800000Y-120100000D02*
X67200000Y-120100000D01*
X91946000Y-90508000D02*
X91946000Y-83846000D01*
X90100000Y-82000000D02*
X90100000Y-82118200D01*
X90218200Y-82118200D02*
X90100000Y-82000000D01*
X91946000Y-83846000D02*
X90218200Y-82118200D01*
X87000000Y-79800000D02*
X79400000Y-79800000D01*
X87000000Y-79800000D02*
X87000000Y-80411000D01*
X87000000Y-80411000D02*
X88976200Y-82118200D01*
X88976200Y-82118200D02*
X90100000Y-82118200D01*
X96094800Y-109968800D02*
X96094800Y-111968800D01*
X95350000Y-115650000D02*
X96094800Y-111968800D01*
X94107000Y-117221000D02*
X95350000Y-115650000D01*
X91300000Y-118300000D02*
X94107000Y-117221000D01*
X91300000Y-118300000D02*
X87900000Y-120020800D01*
X87900000Y-120200000D02*
X80300000Y-120200000D01*
X87900000Y-120200000D02*
X87900000Y-120020800D01*
X73800000Y-79700000D02*
X73802400Y-89344400D01*
X73802400Y-89344400D02*
X75860400Y-90488000D01*
X73015000Y-90333400D02*
X72860400Y-90488000D01*
X111146000Y-90708000D02*
X111146000Y-84346000D01*
X111146000Y-84346000D02*
X108718985Y-81918985D01*
X100370800Y-79617600D02*
X92770800Y-79617600D01*
X100370800Y-79617600D02*
X100801200Y-79617600D01*
X100801200Y-79617600D02*
X102692200Y-81708600D01*
X102692200Y-81708600D02*
X108718985Y-81918985D01*
X126800000Y-79800000D02*
X119200000Y-79800000D01*
X126800000Y-69800000D02*
X126800000Y-70606600D01*
X126800000Y-70606600D02*
X128625600Y-72136000D01*
X144526000Y-72136000D02*
X147066000Y-74676000D01*
X128625600Y-72136000D02*
X144526000Y-72136000D01*
X126800000Y-69800000D02*
X119200000Y-69800000D01*
D29*
X114798000Y-143614300D02*
X114213800Y-145115300D01*
X113830100Y-142925800D02*
X114798000Y-143614300D01*
D28*
X112649000Y-148183600D02*
X112522000Y-147404000D01*
X112522000Y-147404000D02*
X114213800Y-145115300D01*
D29*
X101590000Y-143271400D02*
X101145500Y-145115300D01*
X100545900Y-142227300D02*
X101590000Y-143271400D01*
D28*
X99339400Y-148234400D02*
X99314000Y-147404000D01*
X99314000Y-147404000D02*
X101145500Y-145115300D01*
D29*
X53644800Y-119405400D02*
X53644800Y-119329200D01*
X53644800Y-119329200D02*
X55168800Y-117805200D01*
X61988700Y-141503400D02*
X63741300Y-141503400D01*
X59588400Y-139407900D02*
X61988700Y-141503400D01*
X59588400Y-119024400D02*
X59588400Y-139407900D01*
X58369200Y-117805200D02*
X59588400Y-119024400D01*
X55168800Y-117805200D02*
X58369200Y-117805200D01*
X53644800Y-119405400D02*
X53644800Y-119595900D01*
X86268700Y-142074900D02*
X87900000Y-145200000D01*
X64693800Y-142074900D02*
X86268700Y-142074900D01*
X63741300Y-141503400D02*
X64693800Y-142074900D01*
D28*
X86207600Y-148209000D02*
X86182200Y-147480200D01*
X86182200Y-147480200D02*
X87900000Y-145200000D01*
D29*
X56730900Y-119329200D02*
X56730900Y-120205500D01*
X58521600Y-135978900D02*
X58597800Y-135978900D01*
X58521600Y-121996200D02*
X58521600Y-135978900D01*
X56730900Y-120205500D02*
X58521600Y-121996200D01*
X58597800Y-135978900D02*
X58597800Y-140017500D01*
X60185300Y-142074900D02*
X63322200Y-142074900D01*
X63322200Y-142074900D02*
X64503300Y-143256000D01*
X64503300Y-143256000D02*
X73688080Y-143256000D01*
X73688080Y-143256000D02*
X74800000Y-145100000D01*
X58597800Y-140017500D02*
X60185300Y-141605000D01*
X60185300Y-141605000D02*
X60185300Y-142074900D01*
X56730900Y-119329200D02*
X56730900Y-119405400D01*
D28*
X72796400Y-148107400D02*
X72898000Y-147546240D01*
X72898000Y-147546240D02*
X74800000Y-145100000D01*
X69773800Y-51587400D02*
X69435800Y-51587400D01*
X69435800Y-51587400D02*
X66200000Y-54700000D01*
D29*
X63601600Y-101041200D02*
X64104520Y-101041200D01*
X55525000Y-71705000D02*
X55905400Y-72694800D01*
X64668400Y-62699900D02*
X64668400Y-62026800D01*
X63331800Y-63436500D02*
X64668400Y-62699900D01*
X63331800Y-73431400D02*
X63331800Y-63436500D01*
X63271400Y-74091800D02*
X63331800Y-73431400D01*
X57302400Y-74091800D02*
X63271400Y-74091800D01*
X55905400Y-72694800D02*
X57302400Y-74091800D01*
D28*
X81432400Y-51612800D02*
X81419700Y-52989300D01*
X81419700Y-52989300D02*
X79400000Y-54800000D01*
D29*
X52946300Y-79311500D02*
X52946300Y-79286100D01*
X52946300Y-79286100D02*
X57404000Y-74828400D01*
X63941400Y-64922400D02*
X65468500Y-63055500D01*
X63966800Y-73939400D02*
X63941400Y-64922400D01*
X63677800Y-74828400D02*
X63966800Y-73939400D01*
X57404000Y-74828400D02*
X63677800Y-74828400D01*
D28*
X95351600Y-51612800D02*
X95351600Y-52240000D01*
X95351600Y-52240000D02*
X92770800Y-54617600D01*
D29*
X55475000Y-62005000D02*
X56680100Y-61925200D01*
X105105200Y-56273700D02*
X106100000Y-55331700D01*
X93764100Y-56273700D02*
X105105200Y-56273700D01*
X91447900Y-58464900D02*
X93764100Y-56273700D01*
X65298600Y-58464900D02*
X91447900Y-58464900D01*
X62750700Y-61137800D02*
X65298600Y-58464900D01*
X57467500Y-61137800D02*
X62750700Y-61137800D01*
X56680100Y-61925200D02*
X57467500Y-61137800D01*
X106100000Y-55331700D02*
X106100000Y-54600000D01*
D28*
X108610400Y-51562000D02*
X108610400Y-52336520D01*
X108610400Y-52336520D02*
X106100000Y-54600000D01*
X62191900Y-143805900D02*
X62335400Y-143805900D01*
X62335400Y-143805900D02*
X63535580Y-145006080D01*
X63535580Y-145006080D02*
X67200000Y-145100000D01*
X51121300Y-141401800D02*
X51130200Y-141401800D01*
X51130200Y-141401800D02*
X52971700Y-139560300D01*
X58790840Y-141544040D02*
X58790840Y-143859240D01*
X56807100Y-139560300D02*
X58790840Y-141544040D01*
X52971700Y-139560300D02*
X56807100Y-139560300D01*
X60998100Y-133997700D02*
X60998100Y-138582400D01*
X60998100Y-133997700D02*
X60998100Y-129552700D01*
X60998100Y-125031500D02*
X60998100Y-129552700D01*
X60972700Y-120535700D02*
X60972700Y-125006100D01*
X60972700Y-125006100D02*
X60998100Y-125031500D01*
X60972700Y-120535700D02*
X60972700Y-111319940D01*
X60972700Y-111319940D02*
X61035560Y-111257080D01*
X51121300Y-141401800D02*
X51386740Y-141401800D01*
X51384200Y-137414000D02*
X51536600Y-140986500D01*
X51536600Y-140986500D02*
X51121300Y-141401800D01*
X51384200Y-134950200D02*
X51384200Y-137414000D01*
X51384200Y-134251700D02*
X51384200Y-134950200D01*
X59260000Y-67600000D02*
X59254920Y-71994920D01*
X59254920Y-71994920D02*
X59260000Y-72000000D01*
X53649880Y-86720680D02*
X54076600Y-86720680D01*
X54076600Y-86720680D02*
X59260000Y-81200000D01*
X59183800Y-76523800D02*
X59260000Y-76600000D01*
D29*
X52324000Y-88201500D02*
X52324000Y-87630000D01*
D28*
X52324000Y-111061500D02*
X52324000Y-113792000D01*
X52324000Y-113792000D02*
X51384200Y-115290600D01*
X62191900Y-143805900D02*
X58844180Y-143805900D01*
X58844180Y-143805900D02*
X58790840Y-143859240D01*
X62217300Y-143780500D02*
X62191900Y-143805900D01*
D29*
X52324000Y-88046560D02*
X53649880Y-86720680D01*
X53649880Y-86720680D02*
X53812440Y-86558120D01*
X53812440Y-86558120D02*
X59699520Y-86558120D01*
X59699520Y-86558120D02*
X61152400Y-88011000D01*
X59336200Y-81123800D02*
X59260000Y-81200000D01*
X59219360Y-76559360D02*
X59260000Y-76600000D01*
X52324000Y-111061500D02*
X52331620Y-111061500D01*
X52331620Y-111061500D02*
X53588920Y-109804200D01*
X59582680Y-109804200D02*
X61035560Y-111257080D01*
X53588920Y-109804200D02*
X59582680Y-109804200D01*
X52324000Y-108521500D02*
X52552600Y-108521500D01*
X52552600Y-108521500D02*
X53840380Y-107233720D01*
X59638560Y-107233720D02*
X61091440Y-108686600D01*
X53840380Y-107233720D02*
X59638560Y-107233720D01*
X52324000Y-105981500D02*
X52410360Y-105981500D01*
X52410360Y-105981500D02*
X53672740Y-104719120D01*
X59699520Y-104719120D02*
X61127000Y-106146600D01*
X53672740Y-104719120D02*
X59699520Y-104719120D01*
X52324000Y-100901500D02*
X52377340Y-100901500D01*
X52377340Y-100901500D02*
X53672740Y-99606100D01*
X59666500Y-99606100D02*
X61101600Y-101041200D01*
X53672740Y-99606100D02*
X59666500Y-99606100D01*
X52324000Y-103441500D02*
X52631340Y-103441500D01*
X52631340Y-103441500D02*
X53868320Y-102204520D01*
X59699520Y-102204520D02*
X61127000Y-103632000D01*
X53868320Y-102204520D02*
X59699520Y-102204520D01*
X52324000Y-98361500D02*
X52738020Y-98361500D01*
X52738020Y-98361500D02*
X54035960Y-97063560D01*
X59816360Y-97063560D02*
X61152400Y-98399600D01*
X54035960Y-97063560D02*
X59816360Y-97063560D01*
X52324000Y-95821500D02*
X52324000Y-95562420D01*
X52324000Y-95562420D02*
X53309520Y-94576900D01*
X59742700Y-94576900D02*
X61101600Y-95935800D01*
X53309520Y-94576900D02*
X59742700Y-94576900D01*
X52324000Y-93281500D02*
X52324000Y-93159580D01*
X52324000Y-93159580D02*
X53505100Y-91978480D01*
X59989080Y-91978480D02*
X61152400Y-93141800D01*
X53505100Y-91978480D02*
X59989080Y-91978480D01*
X52324000Y-90741500D02*
X52451000Y-90741500D01*
X52451000Y-90741500D02*
X53700680Y-89491820D01*
X59966220Y-89491820D02*
X61101600Y-90627200D01*
X53700680Y-89491820D02*
X59966220Y-89491820D01*
X52324000Y-88201500D02*
X52324000Y-88046560D01*
D28*
X52324000Y-108521500D02*
X52324000Y-111061500D01*
X52324000Y-105981500D02*
X52324000Y-108521500D01*
X52324000Y-103441500D02*
X52324000Y-105981500D01*
X52324000Y-100901500D02*
X52324000Y-103441500D01*
X52324000Y-98361500D02*
X52324000Y-100901500D01*
X52324000Y-95821500D02*
X52324000Y-98361500D01*
X52324000Y-93281500D02*
X52324000Y-95821500D01*
X52324000Y-90741500D02*
X52324000Y-93281500D01*
X52324000Y-88201500D02*
X52324000Y-90741500D01*
X58801000Y-143849080D02*
X58790840Y-143859240D01*
X61091440Y-108686600D02*
X61091440Y-111201200D01*
X61091440Y-111201200D02*
X61035560Y-111257080D01*
X61127000Y-106146600D02*
X61127000Y-108651040D01*
X61127000Y-108651040D02*
X61091440Y-108686600D01*
X61127000Y-103632000D02*
X61127000Y-106146600D01*
X61101600Y-103606600D02*
X61127000Y-103632000D01*
X61101600Y-101041200D02*
X61101600Y-103606600D01*
X61152400Y-100990400D02*
X61101600Y-101041200D01*
X61152400Y-98399600D02*
X61152400Y-100990400D01*
X61101600Y-98348800D02*
X61152400Y-98399600D01*
X61101600Y-95935800D02*
X61101600Y-98348800D01*
X61152400Y-95885000D02*
X61101600Y-95935800D01*
X61152400Y-93141800D02*
X61152400Y-95885000D01*
X61101600Y-93091000D02*
X61152400Y-93141800D01*
X61101600Y-90627200D02*
X61101600Y-93091000D01*
X61152400Y-90576400D02*
X61101600Y-90627200D01*
X61152400Y-88011000D02*
X61152400Y-90576400D01*
D29*
X61152400Y-88011000D02*
X61152400Y-87691600D01*
D28*
X51384200Y-115290600D02*
X51384200Y-134251700D01*
D27*
X140100000Y-69600000D02*
X147062200Y-69592200D01*
X147062200Y-69592200D02*
X147066000Y-69596000D01*
X132500000Y-69600000D02*
X140100000Y-69600000D01*
X132500000Y-79600000D02*
X140100000Y-79600000D01*
D29*
X55525000Y-79325000D02*
X60604400Y-79349600D01*
X60604400Y-79349600D02*
X61800000Y-81047600D01*
X61800000Y-81047600D02*
X61800000Y-81200000D01*
X52946300Y-71691500D02*
X53403500Y-71691500D01*
X55475000Y-69625000D02*
X56059200Y-69625000D01*
X55475000Y-69625000D02*
X55475000Y-69167800D01*
D28*
X127244000Y-145064500D02*
X127856000Y-145064500D01*
X127856000Y-145064500D02*
X131876800Y-148310600D01*
X122961400Y-148259800D02*
X124290000Y-148590000D01*
X124290000Y-148590000D02*
X127244000Y-145064500D01*
X131876800Y-148310600D02*
X133388100Y-148412200D01*
X135674100Y-145516600D02*
X140238400Y-145361600D01*
X133388100Y-148412200D02*
X135674100Y-145516600D01*
X140238400Y-145361600D02*
X140500000Y-145100000D01*
X121437400Y-51638200D02*
X121437400Y-52537400D01*
X128764000Y-53100000D02*
X130251200Y-51612800D01*
X122000000Y-53100000D02*
X128764000Y-53100000D01*
X121437400Y-52537400D02*
X122000000Y-53100000D01*
D29*
X65314900Y-57800100D02*
X90875000Y-57700000D01*
X64935100Y-57645300D02*
X65314900Y-57800100D01*
X55702200Y-57645300D02*
X64935100Y-57645300D01*
D28*
X130048000Y-52550200D02*
X132500000Y-54600000D01*
X130251200Y-51612800D02*
X130048000Y-52550200D01*
D29*
X52920900Y-61976000D02*
X52920900Y-60426600D01*
X52920900Y-60426600D02*
X55702200Y-57645300D01*
D28*
X121437400Y-51638200D02*
X121427240Y-52351760D01*
X121427240Y-52351760D02*
X119200000Y-54800000D01*
D29*
X52920900Y-69596000D02*
X53073300Y-67271900D01*
X59928760Y-65405000D02*
X61800000Y-67600000D01*
X54940200Y-65405000D02*
X59928760Y-65405000D01*
X53073300Y-67271900D02*
X54940200Y-65405000D01*
X61800000Y-67600000D02*
X61800000Y-68351840D01*
D27*
X114600000Y-115600000D02*
X114150000Y-115600000D01*
X114150000Y-115600000D02*
X111925000Y-118125000D01*
X111925000Y-122826500D02*
X114213800Y-125115300D01*
X111925000Y-118125000D02*
X111925000Y-122826500D01*
X106613800Y-125115300D02*
X106959700Y-125115300D01*
X114213800Y-125115300D02*
X106613800Y-125115300D01*
X114213800Y-125115300D02*
X119644000Y-125064500D01*
X127244000Y-125064500D02*
X119644000Y-125064500D01*
X127244000Y-130064500D02*
X129841000Y-130128000D01*
X131300000Y-127625000D02*
X131445000Y-127508000D01*
X129841000Y-130128000D02*
X131300000Y-127625000D01*
X127244000Y-130064500D02*
X119644000Y-130064500D01*
X147066000Y-125526800D02*
X146050000Y-125476000D01*
X144018000Y-127508000D02*
X131445000Y-127508000D01*
X146050000Y-125476000D02*
X144018000Y-127508000D01*
X140500000Y-130100000D02*
X132900000Y-130100000D01*
X147066000Y-130606800D02*
X140928000Y-130528000D01*
X140928000Y-130528000D02*
X140500000Y-130100000D01*
X127244000Y-120064500D02*
X119644000Y-120064500D01*
X132900000Y-120100000D02*
X140500000Y-120100000D01*
X126800000Y-74800000D02*
X126878600Y-74800000D01*
X126878600Y-74800000D02*
X129387600Y-77012800D01*
X143332200Y-82854800D02*
X146329400Y-85852000D01*
X143332200Y-79679800D02*
X143332200Y-82854800D01*
X140665200Y-77012800D02*
X143332200Y-79679800D01*
X129387600Y-77012800D02*
X140665200Y-77012800D01*
X146329400Y-85852000D02*
X147066000Y-85852000D01*
X147129500Y-93925000D02*
X142675000Y-93925000D01*
X142675000Y-93925000D02*
X142569200Y-94030800D01*
X142569200Y-94030800D02*
X142569200Y-86841600D01*
X142569200Y-86841600D02*
X140179590Y-84451990D01*
X113700000Y-69600000D02*
X113700000Y-69784300D01*
X113700000Y-69784300D02*
X116395500Y-72263000D01*
X116395500Y-72263000D02*
X120777000Y-72263000D01*
X120777000Y-72263000D02*
X123317000Y-74803000D01*
X123317000Y-74803000D02*
X124333000Y-76009500D01*
X124333000Y-76009500D02*
X125793500Y-77470000D01*
X125793500Y-77470000D02*
X127571500Y-77470000D01*
X127571500Y-77470000D02*
X129133600Y-78892400D01*
X129133600Y-78892400D02*
X129775000Y-80975000D01*
X129775000Y-80975000D02*
X132400000Y-82900000D01*
X132400000Y-82900000D02*
X136500000Y-83100000D01*
X136500000Y-83100000D02*
X140179590Y-84451990D01*
X113700000Y-69600000D02*
X106100000Y-69600000D01*
X128621277Y-82725329D02*
X128725329Y-82725329D01*
X128725329Y-82725329D02*
X130315200Y-84315200D01*
X130315200Y-90538800D02*
X130315200Y-84315200D01*
X113700000Y-79600000D02*
X115924300Y-79465200D01*
X128016000Y-82651600D02*
X128621277Y-82725329D01*
X119009100Y-82550000D02*
X128016000Y-82651600D01*
X115924300Y-79465200D02*
X119009100Y-82550000D01*
X133413500Y-90440500D02*
X133315200Y-90538800D01*
X113700000Y-79600000D02*
X106100000Y-79600000D01*
D28*
X56121300Y-141401800D02*
X56121300Y-143878700D01*
X56121300Y-143878700D02*
X53000000Y-147000000D01*
X53058060Y-146941940D02*
X53000000Y-147000000D01*
X62191900Y-148805900D02*
X58844180Y-148805900D01*
X58844180Y-148805900D02*
X58790840Y-148859240D01*
X62217300Y-148780500D02*
X62191900Y-148805900D01*
X53000000Y-147000000D02*
X56931600Y-147000000D01*
X56931600Y-147000000D02*
X58790840Y-148859240D01*
D27*
X125900000Y-117800000D02*
X127200000Y-117400000D01*
X127200000Y-117400000D02*
X128300000Y-116800000D01*
X131461500Y-114088500D02*
X131461500Y-110108500D01*
X128300000Y-116800000D02*
X131461500Y-114088500D01*
X116142800Y-120128000D02*
X118111600Y-117859200D01*
X118111600Y-117859200D02*
X125900000Y-117800000D01*
X116142800Y-120128000D02*
X114213800Y-120115300D01*
D28*
X142748000Y-51308000D02*
X145308000Y-51308000D01*
X145308000Y-51308000D02*
X147000000Y-53000000D01*
X148041360Y-54041360D02*
X147000000Y-53000000D01*
X142049500Y-148590000D02*
X145410000Y-148590000D01*
X145410000Y-148590000D02*
X147000000Y-147000000D01*
D27*
X147000000Y-147000000D02*
X147000000Y-146684960D01*
M02*
