G04 #@! TF.FileFunction,Soldermask,Bot*
%FSLAX46Y46*%
G04 Gerber Fmt 4.6, Leading zero omitted, Abs format (unit mm)*
G04 Created by KiCad (PCBNEW 4.0.7) date 08/19/18 21:28:35*
%MOMM*%
%LPD*%
G01*
G04 APERTURE LIST*
%ADD10C,0.100000*%
%ADD11R,2.200000X2.200000*%
%ADD12C,2.200000*%
%ADD13R,3.000000X2.400000*%
%ADD14O,3.000000X2.400000*%
%ADD15C,2.000000*%
%ADD16O,2.000000X2.000000*%
%ADD17R,2.000000X2.000000*%
%ADD18R,3.400000X3.400000*%
%ADD19C,3.400000*%
%ADD20R,2.100000X2.100000*%
%ADD21O,2.100000X2.100000*%
%ADD22C,4.464000*%
%ADD23C,2.100000*%
%ADD24C,2.800000*%
%ADD25R,4.400000X4.400000*%
%ADD26C,1.924000*%
%ADD27O,1.900000X3.400000*%
%ADD28O,3.400000X1.900000*%
G04 APERTURE END LIST*
D10*
D11*
X115671600Y-144678400D03*
D12*
X113131600Y-144678400D03*
D13*
X61785500Y-145986500D03*
D14*
X61785500Y-143446500D03*
X61785500Y-140906500D03*
X61785500Y-138366500D03*
X61785500Y-135826500D03*
D15*
X137541000Y-140970000D03*
D16*
X137541000Y-133350000D03*
D11*
X105613200Y-144627600D03*
D12*
X103073200Y-144627600D03*
D11*
X110693200Y-144627600D03*
D12*
X108153200Y-144627600D03*
D17*
X92008960Y-123494800D03*
D16*
X99628960Y-143814800D03*
X92008960Y-126034800D03*
X99628960Y-141274800D03*
X92008960Y-128574800D03*
X99628960Y-138734800D03*
X92008960Y-131114800D03*
X99628960Y-136194800D03*
X92008960Y-133654800D03*
X99628960Y-133654800D03*
X92008960Y-136194800D03*
X99628960Y-131114800D03*
X92008960Y-138734800D03*
X99628960Y-128574800D03*
X92008960Y-141274800D03*
X99628960Y-126034800D03*
X92008960Y-143814800D03*
X99628960Y-123494800D03*
D17*
X80324960Y-123494800D03*
D16*
X87944960Y-143814800D03*
X80324960Y-126034800D03*
X87944960Y-141274800D03*
X80324960Y-128574800D03*
X87944960Y-138734800D03*
X80324960Y-131114800D03*
X87944960Y-136194800D03*
X80324960Y-133654800D03*
X87944960Y-133654800D03*
X80324960Y-136194800D03*
X87944960Y-131114800D03*
X80324960Y-138734800D03*
X87944960Y-128574800D03*
X80324960Y-141274800D03*
X87944960Y-126034800D03*
X80324960Y-143814800D03*
X87944960Y-123494800D03*
D18*
X54203600Y-117195600D03*
D19*
X54203600Y-112115600D03*
D18*
X84836000Y-54610000D03*
D19*
X89916000Y-54610000D03*
D15*
X60579000Y-121539000D03*
X60579000Y-119039000D03*
X77152500Y-121539000D03*
X77152500Y-119039000D03*
X104203500Y-120713500D03*
X104203500Y-118213500D03*
X125349000Y-120904000D03*
X125349000Y-118404000D03*
X137287000Y-121361200D03*
X137287000Y-118861200D03*
X119951500Y-120904000D03*
X119951500Y-118404000D03*
X96202500Y-120205500D03*
X96202500Y-117705500D03*
X71945500Y-121602500D03*
X71945500Y-119102500D03*
X141401800Y-130124200D03*
X141401800Y-127624200D03*
X83312000Y-147320000D03*
X85812000Y-147320000D03*
D17*
X137541000Y-127635000D03*
D15*
X132541000Y-127635000D03*
D20*
X73342500Y-145351500D03*
D21*
X70802500Y-145351500D03*
X68262500Y-145351500D03*
D20*
X73342500Y-141922500D03*
D21*
X70802500Y-141922500D03*
X68262500Y-141922500D03*
D20*
X73533000Y-138366500D03*
D21*
X70993000Y-138366500D03*
X68453000Y-138366500D03*
D15*
X67056000Y-133858000D03*
D16*
X74676000Y-133858000D03*
D17*
X63055500Y-129159000D03*
D15*
X60555500Y-129159000D03*
D18*
X53848000Y-65532000D03*
D19*
X53848000Y-60452000D03*
D22*
X53000000Y-53000000D03*
X53000000Y-147000000D03*
X147000000Y-53000000D03*
X147000000Y-147000000D03*
D15*
X66992500Y-130556000D03*
D16*
X74612500Y-130556000D03*
D11*
X120650000Y-144678400D03*
D12*
X118110000Y-144678400D03*
D11*
X125679200Y-144678400D03*
D12*
X123139200Y-144678400D03*
D11*
X130810000Y-144576800D03*
D12*
X128270000Y-144576800D03*
D11*
X135839200Y-144627600D03*
D12*
X133299200Y-144627600D03*
D11*
X140817600Y-144526000D03*
D12*
X138277600Y-144526000D03*
D15*
X107188000Y-141097000D03*
D16*
X107188000Y-133477000D03*
D15*
X112395000Y-140843000D03*
D16*
X112395000Y-133223000D03*
D15*
X117348000Y-140843000D03*
D16*
X117348000Y-133223000D03*
D15*
X122301000Y-140970000D03*
D16*
X122301000Y-133350000D03*
D15*
X127508000Y-140843000D03*
D16*
X127508000Y-133223000D03*
D15*
X132461000Y-140970000D03*
D16*
X132461000Y-133350000D03*
D15*
X140970000Y-140766800D03*
D16*
X140970000Y-133146800D03*
D23*
X92249000Y-108633000D03*
X89249000Y-108633000D03*
X86249000Y-108633000D03*
X83249000Y-108633000D03*
X92249000Y-115633000D03*
X89249000Y-115633000D03*
X86249000Y-115633000D03*
X83249000Y-115633000D03*
D24*
X95249000Y-111633000D03*
X79629000Y-111633000D03*
D23*
X72335400Y-108709200D03*
X69335400Y-108709200D03*
X66335400Y-108709200D03*
X63335400Y-108709200D03*
X72335400Y-115709200D03*
X69335400Y-115709200D03*
X66335400Y-115709200D03*
X63335400Y-115709200D03*
D24*
X75335400Y-111709200D03*
X59715400Y-111709200D03*
D23*
X116760000Y-108633000D03*
X113760000Y-108633000D03*
X110760000Y-108633000D03*
X107760000Y-108633000D03*
X116760000Y-115633000D03*
X113760000Y-115633000D03*
X110760000Y-115633000D03*
X107760000Y-115633000D03*
D24*
X119760000Y-111633000D03*
X104140000Y-111633000D03*
D23*
X139239000Y-109014000D03*
X136239000Y-109014000D03*
X133239000Y-109014000D03*
X130239000Y-109014000D03*
X139239000Y-116014000D03*
X136239000Y-116014000D03*
X133239000Y-116014000D03*
X130239000Y-116014000D03*
D24*
X142239000Y-112014000D03*
X126619000Y-112014000D03*
D23*
X129366000Y-67516000D03*
X132366000Y-67516000D03*
X135366000Y-67516000D03*
X138366000Y-67516000D03*
X129366000Y-60516000D03*
X132366000Y-60516000D03*
X135366000Y-60516000D03*
X138366000Y-60516000D03*
D24*
X126366000Y-64516000D03*
X141986000Y-64516000D03*
D23*
X108157000Y-67389000D03*
X111157000Y-67389000D03*
X114157000Y-67389000D03*
X117157000Y-67389000D03*
X108157000Y-60389000D03*
X111157000Y-60389000D03*
X114157000Y-60389000D03*
X117157000Y-60389000D03*
D24*
X105157000Y-64389000D03*
X120777000Y-64389000D03*
D23*
X85170000Y-67516000D03*
X88170000Y-67516000D03*
X91170000Y-67516000D03*
X94170000Y-67516000D03*
X85170000Y-60516000D03*
X88170000Y-60516000D03*
X91170000Y-60516000D03*
X94170000Y-60516000D03*
D24*
X82170000Y-64516000D03*
X97790000Y-64516000D03*
D15*
X118999000Y-126238000D03*
X121499000Y-126238000D03*
X94538800Y-146964400D03*
X97038800Y-146964400D03*
D25*
X118388500Y-104472500D03*
X106188500Y-104472500D03*
X118388500Y-92472500D03*
X104188500Y-98472500D03*
D26*
X105188500Y-91472500D03*
X117388500Y-91472500D03*
X117388500Y-103472500D03*
X103188500Y-97472500D03*
X105188500Y-103472500D03*
X105188500Y-97472500D03*
X103188500Y-99472500D03*
X105188500Y-99472500D03*
X107188500Y-91472500D03*
X105188500Y-93472500D03*
X107188500Y-93472500D03*
X107188500Y-103472500D03*
X105188500Y-105472500D03*
X107188500Y-105472500D03*
X119388500Y-103472500D03*
X117388500Y-105472500D03*
X119388500Y-105472500D03*
X119388500Y-91472500D03*
X117388500Y-93472500D03*
X119388500Y-93472500D03*
D25*
X106188500Y-92472500D03*
X80811000Y-71943200D03*
X93011000Y-71943200D03*
X80811000Y-83943200D03*
X95011000Y-77943200D03*
D26*
X94011000Y-84943200D03*
X81811000Y-84943200D03*
X81811000Y-72943200D03*
X96011000Y-78943200D03*
X94011000Y-72943200D03*
X94011000Y-78943200D03*
X96011000Y-76943200D03*
X94011000Y-76943200D03*
X92011000Y-84943200D03*
X94011000Y-82943200D03*
X92011000Y-82943200D03*
X92011000Y-72943200D03*
X94011000Y-70943200D03*
X92011000Y-70943200D03*
X79811000Y-72943200D03*
X81811000Y-70943200D03*
X79811000Y-70943200D03*
X79811000Y-84943200D03*
X81811000Y-82943200D03*
X79811000Y-82943200D03*
D25*
X93011000Y-83943200D03*
X63132600Y-53538360D03*
X75332600Y-53538360D03*
X63132600Y-65538360D03*
X77332600Y-59538360D03*
D26*
X76332600Y-66538360D03*
X64132600Y-66538360D03*
X64132600Y-54538360D03*
X78332600Y-60538360D03*
X76332600Y-54538360D03*
X76332600Y-60538360D03*
X78332600Y-58538360D03*
X76332600Y-58538360D03*
X74332600Y-66538360D03*
X76332600Y-64538360D03*
X74332600Y-64538360D03*
X74332600Y-54538360D03*
X76332600Y-52538360D03*
X74332600Y-52538360D03*
X62132600Y-54538360D03*
X64132600Y-52538360D03*
X62132600Y-52538360D03*
X62132600Y-66538360D03*
X64132600Y-64538360D03*
X62132600Y-64538360D03*
D25*
X75332600Y-65538360D03*
X56300000Y-71994000D03*
X68500000Y-71994000D03*
X56300000Y-83994000D03*
X70500000Y-77994000D03*
D26*
X69500000Y-84994000D03*
X57300000Y-84994000D03*
X57300000Y-72994000D03*
X71500000Y-78994000D03*
X69500000Y-72994000D03*
X69500000Y-78994000D03*
X71500000Y-76994000D03*
X69500000Y-76994000D03*
X67500000Y-84994000D03*
X69500000Y-82994000D03*
X67500000Y-82994000D03*
X67500000Y-72994000D03*
X69500000Y-70994000D03*
X67500000Y-70994000D03*
X55300000Y-72994000D03*
X57300000Y-70994000D03*
X55300000Y-70994000D03*
X55300000Y-84994000D03*
X57300000Y-82994000D03*
X55300000Y-82994000D03*
D25*
X68500000Y-83994000D03*
X105347400Y-71673960D03*
X117547400Y-71673960D03*
X105347400Y-83673960D03*
X119547400Y-77673960D03*
D26*
X118547400Y-84673960D03*
X106347400Y-84673960D03*
X106347400Y-72673960D03*
X120547400Y-78673960D03*
X118547400Y-72673960D03*
X118547400Y-78673960D03*
X120547400Y-76673960D03*
X118547400Y-76673960D03*
X116547400Y-84673960D03*
X118547400Y-82673960D03*
X116547400Y-82673960D03*
X116547400Y-72673960D03*
X118547400Y-70673960D03*
X116547400Y-70673960D03*
X104347400Y-72673960D03*
X106347400Y-70673960D03*
X104347400Y-70673960D03*
X104347400Y-84673960D03*
X106347400Y-82673960D03*
X104347400Y-82673960D03*
D25*
X117547400Y-83673960D03*
X129706000Y-71765400D03*
X141906000Y-71765400D03*
X129706000Y-83765400D03*
X143906000Y-77765400D03*
D26*
X142906000Y-84765400D03*
X130706000Y-84765400D03*
X130706000Y-72765400D03*
X144906000Y-78765400D03*
X142906000Y-72765400D03*
X142906000Y-78765400D03*
X144906000Y-76765400D03*
X142906000Y-76765400D03*
X140906000Y-84765400D03*
X142906000Y-82765400D03*
X140906000Y-82765400D03*
X140906000Y-72765400D03*
X142906000Y-70765400D03*
X140906000Y-70765400D03*
X128706000Y-72765400D03*
X130706000Y-70765400D03*
X128706000Y-70765400D03*
X128706000Y-84765400D03*
X130706000Y-82765400D03*
X128706000Y-82765400D03*
D25*
X141906000Y-83765400D03*
X143026500Y-104853500D03*
X130826500Y-104853500D03*
X143026500Y-92853500D03*
X128826500Y-98853500D03*
D26*
X129826500Y-91853500D03*
X142026500Y-91853500D03*
X142026500Y-103853500D03*
X127826500Y-97853500D03*
X129826500Y-103853500D03*
X129826500Y-97853500D03*
X127826500Y-99853500D03*
X129826500Y-99853500D03*
X131826500Y-91853500D03*
X129826500Y-93853500D03*
X131826500Y-93853500D03*
X131826500Y-103853500D03*
X129826500Y-105853500D03*
X131826500Y-105853500D03*
X144026500Y-103853500D03*
X142026500Y-105853500D03*
X144026500Y-105853500D03*
X144026500Y-91853500D03*
X142026500Y-93853500D03*
X144026500Y-93853500D03*
D25*
X130826500Y-92853500D03*
X93115500Y-104409000D03*
X80915500Y-104409000D03*
X93115500Y-92409000D03*
X78915500Y-98409000D03*
D26*
X79915500Y-91409000D03*
X92115500Y-91409000D03*
X92115500Y-103409000D03*
X77915500Y-97409000D03*
X79915500Y-103409000D03*
X79915500Y-97409000D03*
X77915500Y-99409000D03*
X79915500Y-99409000D03*
X81915500Y-91409000D03*
X79915500Y-93409000D03*
X81915500Y-93409000D03*
X81915500Y-103409000D03*
X79915500Y-105409000D03*
X81915500Y-105409000D03*
X94115500Y-103409000D03*
X92115500Y-105409000D03*
X94115500Y-105409000D03*
X94115500Y-91409000D03*
X92115500Y-93409000D03*
X94115500Y-93409000D03*
D25*
X80915500Y-92409000D03*
X68414000Y-104409000D03*
X56214000Y-104409000D03*
X68414000Y-92409000D03*
X54214000Y-98409000D03*
D26*
X55214000Y-91409000D03*
X67414000Y-91409000D03*
X67414000Y-103409000D03*
X53214000Y-97409000D03*
X55214000Y-103409000D03*
X55214000Y-97409000D03*
X53214000Y-99409000D03*
X55214000Y-99409000D03*
X57214000Y-91409000D03*
X55214000Y-93409000D03*
X57214000Y-93409000D03*
X57214000Y-103409000D03*
X55214000Y-105409000D03*
X57214000Y-105409000D03*
X69414000Y-103409000D03*
X67414000Y-105409000D03*
X69414000Y-105409000D03*
X69414000Y-91409000D03*
X67414000Y-93409000D03*
X69414000Y-93409000D03*
D25*
X56214000Y-92409000D03*
D27*
X74930000Y-80518000D03*
X74930000Y-85018000D03*
X74930000Y-76018000D03*
X99314000Y-79756000D03*
X99314000Y-84256000D03*
X99314000Y-75256000D03*
X123698000Y-79756000D03*
X123698000Y-84256000D03*
X123698000Y-75256000D03*
X124714000Y-96012000D03*
X124714000Y-91512000D03*
X124714000Y-100512000D03*
X99568000Y-96012000D03*
X99568000Y-91512000D03*
X99568000Y-100512000D03*
X74676000Y-95758000D03*
X74676000Y-91258000D03*
X74676000Y-100258000D03*
D28*
X135835000Y-88138000D03*
X140335000Y-88138000D03*
X144835000Y-88138000D03*
M02*
