G04 #@! TF.FileFunction,Copper,L2,Bot,Signal*
%FSLAX46Y46*%
G04 Gerber Fmt 4.6, Leading zero omitted, Abs format (unit mm)*
G04 Created by KiCad (PCBNEW 4.0.7) date 09/22/18 15:03:17*
%MOMM*%
%LPD*%
G01*
G04 APERTURE LIST*
%ADD10C,0.100000*%
%ADD11C,1.800000*%
%ADD12R,1.800000X1.800000*%
%ADD13R,1.600000X1.600000*%
%ADD14O,1.600000X1.600000*%
%ADD15C,1.600000*%
%ADD16R,3.000000X3.000000*%
%ADD17C,3.000000*%
%ADD18R,1.700000X1.700000*%
%ADD19O,1.700000X1.700000*%
%ADD20C,4.064000*%
%ADD21C,5.500000*%
%ADD22O,1.500000X3.000000*%
%ADD23O,3.000000X1.500000*%
%ADD24C,2.500000*%
%ADD25O,2.500000X2.500000*%
%ADD26C,1.700000*%
%ADD27C,2.400000*%
%ADD28C,0.600000*%
%ADD29C,1.000000*%
%ADD30C,0.350000*%
%ADD31C,0.500000*%
G04 APERTURE END LIST*
D10*
D11*
X67468000Y-85014320D03*
X55268000Y-85014320D03*
X55268000Y-73014320D03*
X69468000Y-79014320D03*
X67468000Y-73014320D03*
D12*
X138811000Y-139319000D03*
D11*
X138811000Y-141859000D03*
D13*
X73025000Y-127762000D03*
D14*
X80645000Y-148082000D03*
X73025000Y-130302000D03*
X80645000Y-145542000D03*
X73025000Y-132842000D03*
X80645000Y-143002000D03*
X73025000Y-135382000D03*
X80645000Y-140462000D03*
X73025000Y-137922000D03*
X80645000Y-137922000D03*
X73025000Y-140462000D03*
X80645000Y-135382000D03*
X73025000Y-143002000D03*
X80645000Y-132842000D03*
X73025000Y-145542000D03*
X80645000Y-130302000D03*
X73025000Y-148082000D03*
X80645000Y-127762000D03*
D15*
X61595000Y-132842000D03*
D14*
X69215000Y-132842000D03*
D12*
X125222000Y-139319000D03*
D11*
X125222000Y-141859000D03*
D15*
X143764000Y-136271000D03*
D14*
X143764000Y-128651000D03*
D12*
X120650000Y-139319000D03*
D11*
X120650000Y-141859000D03*
D13*
X101473000Y-127889000D03*
D14*
X109093000Y-148209000D03*
X101473000Y-130429000D03*
X109093000Y-145669000D03*
X101473000Y-132969000D03*
X109093000Y-143129000D03*
X101473000Y-135509000D03*
X109093000Y-140589000D03*
X101473000Y-138049000D03*
X109093000Y-138049000D03*
X101473000Y-140589000D03*
X109093000Y-135509000D03*
X101473000Y-143129000D03*
X109093000Y-132969000D03*
X101473000Y-145669000D03*
X109093000Y-130429000D03*
X101473000Y-148209000D03*
X109093000Y-127889000D03*
D16*
X54203600Y-117195600D03*
D17*
X54203600Y-112115600D03*
D16*
X84836000Y-54610000D03*
D17*
X89916000Y-54610000D03*
D15*
X62992000Y-119126000D03*
X60492000Y-119126000D03*
X79756000Y-119380000D03*
X77256000Y-119380000D03*
X108585000Y-119253000D03*
X106085000Y-119253000D03*
X127762000Y-118973600D03*
X125262000Y-118973600D03*
X134670800Y-118859300D03*
X137170800Y-118859300D03*
X117094000Y-118973600D03*
X119594000Y-118973600D03*
X100965000Y-119189500D03*
X98465000Y-119189500D03*
X69596000Y-119126000D03*
X72096000Y-119126000D03*
X62738000Y-129413000D03*
X65238000Y-129413000D03*
D13*
X57500520Y-124221240D03*
D15*
X52500520Y-124221240D03*
D18*
X68834000Y-146608800D03*
D19*
X68834000Y-144068800D03*
X68834000Y-141528800D03*
D18*
X65481200Y-146634200D03*
D19*
X65481200Y-144094200D03*
X65481200Y-141554200D03*
D18*
X62484000Y-146558000D03*
D19*
X62484000Y-144018000D03*
X62484000Y-141478000D03*
D15*
X61595000Y-136144000D03*
D14*
X69215000Y-136144000D03*
D16*
X53848000Y-65532000D03*
D17*
X53848000Y-60452000D03*
D20*
X53000000Y-53000000D03*
D21*
X53000000Y-147000000D03*
X147002500Y-147002500D03*
D20*
X147002500Y-52959000D03*
D12*
X129794000Y-139319000D03*
D11*
X129794000Y-141859000D03*
D12*
X134239000Y-139319000D03*
D11*
X134239000Y-141859000D03*
D12*
X143383000Y-139319000D03*
D11*
X143383000Y-141859000D03*
D12*
X147828000Y-139319000D03*
D11*
X147828000Y-141859000D03*
D15*
X116141500Y-136969500D03*
D14*
X116141500Y-129349500D03*
D15*
X120777000Y-137160000D03*
D14*
X120777000Y-129540000D03*
D15*
X125095000Y-136906000D03*
D14*
X125095000Y-129286000D03*
D15*
X129857500Y-136715500D03*
D14*
X129857500Y-129095500D03*
D15*
X134239000Y-136144000D03*
D14*
X134239000Y-128524000D03*
D15*
X138684000Y-136271000D03*
D14*
X138684000Y-128651000D03*
D15*
X148463000Y-136271000D03*
D14*
X148463000Y-128651000D03*
D15*
X69342000Y-129667000D03*
X69342000Y-127167000D03*
D22*
X74930000Y-80518000D03*
X74930000Y-85018000D03*
X74930000Y-76018000D03*
X99314000Y-79756000D03*
X99314000Y-84256000D03*
X99314000Y-75256000D03*
X123698000Y-79756000D03*
X123698000Y-84256000D03*
X123698000Y-75256000D03*
X123408440Y-96012000D03*
X123408440Y-91512000D03*
X123408440Y-100512000D03*
X99568000Y-96012000D03*
X99568000Y-91512000D03*
X99568000Y-100512000D03*
X74676000Y-95758000D03*
X74676000Y-91258000D03*
X74676000Y-100258000D03*
D23*
X140335000Y-88138000D03*
X135835000Y-88138000D03*
X144835000Y-88138000D03*
D18*
X61849000Y-123063000D03*
X68580000Y-123190000D03*
X75692000Y-123190000D03*
X83058000Y-123063000D03*
X90932000Y-123317000D03*
X101219000Y-123317000D03*
X111252000Y-123190000D03*
X120904000Y-123317000D03*
X128524000Y-123063000D03*
X139954000Y-123190000D03*
X148209000Y-123190000D03*
D15*
X90297000Y-130302000D03*
D14*
X97917000Y-130302000D03*
D15*
X90297000Y-132842000D03*
D14*
X97917000Y-132842000D03*
D15*
X90297000Y-135255000D03*
D14*
X97917000Y-135255000D03*
D15*
X90297000Y-137668000D03*
D14*
X97917000Y-137668000D03*
D15*
X90424000Y-140081000D03*
D14*
X98044000Y-140081000D03*
D15*
X90424000Y-142621000D03*
D14*
X98044000Y-142621000D03*
D15*
X90424000Y-145034000D03*
D14*
X98044000Y-145034000D03*
D15*
X90551000Y-147701000D03*
D14*
X98171000Y-147701000D03*
D12*
X116078000Y-139319000D03*
D11*
X116078000Y-141859000D03*
D15*
X83820000Y-130175000D03*
X86320000Y-130175000D03*
X83820000Y-132842000D03*
X86320000Y-132842000D03*
X83566000Y-135382000D03*
X86066000Y-135382000D03*
X83693000Y-137922000D03*
X86193000Y-137922000D03*
X83693000Y-140525500D03*
X86193000Y-140525500D03*
X83756500Y-143129000D03*
X86256500Y-143129000D03*
X83756500Y-145796000D03*
X86256500Y-145796000D03*
X83693000Y-148272500D03*
X86193000Y-148272500D03*
D24*
X112966500Y-148145500D03*
D25*
X120586500Y-148145500D03*
D24*
X90297000Y-127381000D03*
D25*
X97917000Y-127381000D03*
D15*
X113710720Y-144556480D03*
X116210720Y-144556480D03*
X59182000Y-148590000D03*
X59182000Y-146090000D03*
X141686280Y-148280120D03*
X141686280Y-145780120D03*
X59385200Y-141706600D03*
X59385200Y-139206600D03*
D18*
X55013860Y-141320520D03*
D19*
X52473860Y-141320520D03*
X55013860Y-138780520D03*
X52473860Y-138780520D03*
X55013860Y-136240520D03*
X52473860Y-136240520D03*
X55013860Y-133700520D03*
X52473860Y-133700520D03*
X55013860Y-131160520D03*
X52473860Y-131160520D03*
D11*
X55214000Y-90393000D03*
X67414000Y-90393000D03*
X67414000Y-102393000D03*
X53214000Y-96393000D03*
X55214000Y-102393000D03*
X79953600Y-90774000D03*
X92153600Y-90774000D03*
X92153600Y-102774000D03*
X77953600Y-96774000D03*
X79953600Y-102774000D03*
X129636000Y-91282000D03*
X141836000Y-91282000D03*
X141836000Y-103282000D03*
X127636000Y-97282000D03*
X129636000Y-103282000D03*
X141067040Y-84867000D03*
X128867040Y-84867000D03*
X128867040Y-72867000D03*
X143067040Y-78867000D03*
X141067040Y-72867000D03*
X118458500Y-85057500D03*
X106258500Y-85057500D03*
X106258500Y-73057500D03*
X120458500Y-79057500D03*
X118458500Y-73057500D03*
X73818000Y-66960000D03*
X61618000Y-66960000D03*
X61618000Y-54960000D03*
X75818000Y-60960000D03*
X73818000Y-54960000D03*
X94011000Y-85184500D03*
X81811000Y-85184500D03*
X81811000Y-73184500D03*
X96011000Y-79184500D03*
X94011000Y-73184500D03*
X105125000Y-90837500D03*
X117325000Y-90837500D03*
X117325000Y-102837500D03*
X103125000Y-96837500D03*
X105125000Y-102837500D03*
D15*
X79248000Y-56134000D03*
X79248000Y-53634000D03*
X92456000Y-69596000D03*
X94956000Y-69596000D03*
X115443000Y-69850000D03*
X117943000Y-69850000D03*
X141224000Y-69596000D03*
X143724000Y-69596000D03*
X75628500Y-71386700D03*
X73128500Y-71386700D03*
X132016500Y-106553000D03*
X129516500Y-106553000D03*
X107767120Y-106258360D03*
X105267120Y-106258360D03*
X82575400Y-106248200D03*
X80075400Y-106248200D03*
X57988200Y-106108500D03*
X55488200Y-106108500D03*
D26*
X85170000Y-66373000D03*
X88170000Y-66373000D03*
X91170000Y-66373000D03*
X94170000Y-66373000D03*
X85170000Y-60770000D03*
X88170000Y-60770000D03*
X91170000Y-60770000D03*
X94170000Y-60770000D03*
D27*
X81916000Y-63881000D03*
X97536000Y-63881000D03*
D26*
X108411000Y-66500000D03*
X111411000Y-66500000D03*
X114411000Y-66500000D03*
X117411000Y-66500000D03*
X108411000Y-60897000D03*
X111411000Y-60897000D03*
X114411000Y-60897000D03*
X117411000Y-60897000D03*
D27*
X105157000Y-64008000D03*
X120777000Y-64008000D03*
D26*
X129620000Y-66627000D03*
X132620000Y-66627000D03*
X135620000Y-66627000D03*
X138620000Y-66627000D03*
X129620000Y-61024000D03*
X132620000Y-61024000D03*
X135620000Y-61024000D03*
X138620000Y-61024000D03*
D27*
X126366000Y-64135000D03*
X141986000Y-64135000D03*
D26*
X138985000Y-109522000D03*
X135985000Y-109522000D03*
X132985000Y-109522000D03*
X129985000Y-109522000D03*
X138985000Y-115125000D03*
X135985000Y-115125000D03*
X132985000Y-115125000D03*
X129985000Y-115125000D03*
D27*
X142239000Y-112014000D03*
X126619000Y-112014000D03*
D26*
X116506000Y-109141000D03*
X113506000Y-109141000D03*
X110506000Y-109141000D03*
X107506000Y-109141000D03*
X116506000Y-114744000D03*
X113506000Y-114744000D03*
X110506000Y-114744000D03*
X107506000Y-114744000D03*
D27*
X119760000Y-111633000D03*
X104140000Y-111633000D03*
D26*
X72081400Y-109217200D03*
X69081400Y-109217200D03*
X66081400Y-109217200D03*
X63081400Y-109217200D03*
X72081400Y-114820200D03*
X69081400Y-114820200D03*
X66081400Y-114820200D03*
X63081400Y-114820200D03*
D27*
X75335400Y-111709200D03*
X59715400Y-111709200D03*
D26*
X91995000Y-109141000D03*
X88995000Y-109141000D03*
X85995000Y-109141000D03*
X82995000Y-109141000D03*
X91995000Y-114744000D03*
X88995000Y-114744000D03*
X85995000Y-114744000D03*
X82995000Y-114744000D03*
D27*
X95249000Y-111633000D03*
X79629000Y-111633000D03*
D28*
X112776000Y-135763000D03*
X122936000Y-126619000D03*
X146685000Y-111302800D03*
X116103400Y-86868000D03*
X115747800Y-89763600D03*
X122555000Y-125349000D03*
X96837500Y-90170000D03*
X95948500Y-86360000D03*
X116205000Y-134112000D03*
X111633000Y-134620000D03*
X111061500Y-132905500D03*
X143865600Y-126936500D03*
X116344700Y-131737100D03*
X112407700Y-133692900D03*
X111734600Y-131902200D03*
X77266800Y-113804700D03*
X69761100Y-86487000D03*
X72809100Y-65227200D03*
D29*
X77700600Y-96195900D02*
X77647800Y-108534200D01*
X77647800Y-108534200D02*
X79629000Y-111633000D01*
X74676000Y-95758000D02*
X76517500Y-95758000D01*
X76517500Y-95758000D02*
X77572600Y-96419400D01*
X77572600Y-96419400D02*
X77572600Y-96672400D01*
X75335400Y-111709200D02*
X75335400Y-110821200D01*
X75335400Y-110821200D02*
X75377040Y-109974380D01*
X75377040Y-109974380D02*
X75377040Y-100313880D01*
X75377040Y-100313880D02*
X72699000Y-100258000D01*
X68846700Y-91859100D02*
X67414000Y-89758500D01*
X72699000Y-100258000D02*
X68846700Y-91859100D01*
X103125000Y-96837500D02*
X103188500Y-100519500D01*
X101346000Y-108394500D02*
X104140000Y-111633000D01*
X101219000Y-103886000D02*
X101346000Y-108394500D01*
X103188500Y-100519500D02*
X101219000Y-103886000D01*
X99568000Y-96012000D02*
X101728000Y-96012000D01*
X101728000Y-96012000D02*
X103125000Y-96837500D01*
X92479600Y-90965000D02*
X93878400Y-93497400D01*
X96824800Y-98653600D02*
X96824800Y-100487305D01*
X93878400Y-93497400D02*
X96824800Y-98653600D01*
X99568000Y-100512000D02*
X96824800Y-100487305D01*
X96824800Y-100487305D02*
X96746500Y-100486600D01*
X96818500Y-100558600D02*
X96746500Y-100558600D01*
X96746500Y-100486600D02*
X96818500Y-100558600D01*
X96746500Y-100558600D02*
X96746500Y-110365100D01*
X96746500Y-110365100D02*
X96647000Y-110998000D01*
X95249000Y-111633000D02*
X96647000Y-110998000D01*
X126619000Y-111188500D02*
X126619000Y-112014000D01*
X126619000Y-103251000D02*
X126619000Y-111188500D01*
X127636000Y-97282000D02*
X126619000Y-103251000D01*
X123408440Y-96012000D02*
X125985000Y-96012000D01*
X125985000Y-96012000D02*
X127636000Y-97282000D01*
X121697750Y-100393500D02*
X123289940Y-100393500D01*
X123289940Y-100393500D02*
X123408440Y-100512000D01*
X121697750Y-98901250D02*
X121697750Y-100393500D01*
X121697750Y-100393500D02*
X121697750Y-109251750D01*
X121697750Y-109251750D02*
X121856500Y-109093000D01*
X119760000Y-111633000D02*
X120396000Y-111633000D01*
X120396000Y-111633000D02*
X121856500Y-109093000D01*
X117325000Y-90837500D02*
X119176800Y-90830400D01*
X119176800Y-90830400D02*
X121697750Y-98901250D01*
X143528440Y-78405600D02*
X143067040Y-78867000D01*
X141986000Y-64135000D02*
X143306800Y-64516000D01*
X146240500Y-76708000D02*
X143511540Y-78733900D01*
X146253200Y-67462400D02*
X146240500Y-76708000D01*
X143306800Y-64516000D02*
X146253200Y-67462400D01*
X140335000Y-88138000D02*
X140335000Y-88519000D01*
X141836000Y-91282000D02*
X144026500Y-94623500D01*
X146240500Y-108012500D02*
X142239000Y-112014000D01*
X146240500Y-96837500D02*
X146240500Y-108012500D01*
X144026500Y-94623500D02*
X146240500Y-96837500D01*
X144835000Y-88138000D02*
X144835000Y-91045000D01*
X144835000Y-91045000D02*
X144132300Y-91198700D01*
X144132300Y-91198700D02*
X141836000Y-91282000D01*
X120800400Y-78896460D02*
X120800400Y-77509100D01*
X121539000Y-74295000D02*
X121475500Y-64706500D01*
X120800400Y-77509100D02*
X121539000Y-74295000D01*
X121475500Y-64706500D02*
X120777000Y-64008000D01*
X123698000Y-79756000D02*
X121629440Y-79756000D01*
X121629440Y-79756000D02*
X120458500Y-79057500D01*
X126366000Y-75184000D02*
X123770000Y-75184000D01*
X123770000Y-75184000D02*
X123698000Y-75256000D01*
X126366000Y-64135000D02*
X126366000Y-75184000D01*
X126366000Y-75184000D02*
X128040000Y-82640800D01*
X128040000Y-82640800D02*
X128541040Y-85082400D01*
X96011000Y-79184500D02*
X96011000Y-75185000D01*
X97790000Y-71564500D02*
X97536000Y-63881000D01*
X96901000Y-72453500D02*
X97790000Y-71564500D01*
X96901000Y-74295000D02*
X96901000Y-72453500D01*
X96011000Y-75185000D02*
X96901000Y-74295000D01*
X99314000Y-79756000D02*
X96823800Y-79756000D01*
X96823800Y-79756000D02*
X96011000Y-79184500D01*
X101904800Y-76098400D02*
X101904800Y-67641200D01*
X101904800Y-67641200D02*
X105157000Y-64008000D01*
X104673400Y-64008000D02*
X105157000Y-64008000D01*
X99314000Y-75256000D02*
X101477200Y-75256000D01*
X101981000Y-81978500D02*
X106465900Y-84990960D01*
X101904800Y-75683600D02*
X101904800Y-76098400D01*
X101904800Y-76098400D02*
X101981000Y-81978500D01*
X101477200Y-75256000D02*
X101904800Y-75683600D01*
X105157000Y-64008000D02*
X104838500Y-64008000D01*
X74930000Y-80518000D02*
X73024000Y-80518000D01*
X73024000Y-80518000D02*
X69456300Y-78828900D01*
X81916000Y-63881000D02*
X81813400Y-67284600D01*
X78284800Y-71145400D02*
X77647800Y-71145400D01*
X81813400Y-67284600D02*
X78284800Y-71145400D01*
X77647800Y-76149200D02*
X75061200Y-76149200D01*
X75061200Y-76149200D02*
X74930000Y-76018000D01*
X81916000Y-63881000D02*
X81916000Y-63930800D01*
X77672608Y-82894779D02*
X82003350Y-85376850D01*
X77647800Y-71145400D02*
X77647800Y-76149200D01*
X77647800Y-76149200D02*
X77672608Y-82894779D01*
X81661000Y-63881000D02*
X81916000Y-63881000D01*
X92153600Y-102774000D02*
X92360000Y-102774000D01*
X92360000Y-102774000D02*
X94488000Y-104902000D01*
X94488000Y-104902000D02*
X94488000Y-106648000D01*
X94488000Y-106648000D02*
X91995000Y-109141000D01*
X141836000Y-103282000D02*
X141836000Y-108689000D01*
X141003000Y-109522000D02*
X138985000Y-109522000D01*
X141836000Y-108689000D02*
X141003000Y-109522000D01*
X108411000Y-66500000D02*
X106474000Y-66500000D01*
X104648000Y-71447000D02*
X106258500Y-73057500D01*
X104648000Y-68326000D02*
X104648000Y-71447000D01*
X106474000Y-66500000D02*
X104648000Y-68326000D01*
X67414000Y-102393000D02*
X67414000Y-102593000D01*
X67414000Y-102593000D02*
X72081400Y-107260400D01*
X72081400Y-107260400D02*
X72081400Y-109217200D01*
X117325000Y-102837500D02*
X117325000Y-108322000D01*
X117325000Y-108322000D02*
X116506000Y-109141000D01*
X128867040Y-72867000D02*
X128867040Y-67379960D01*
X128867040Y-67379960D02*
X129620000Y-66627000D01*
X85170000Y-66373000D02*
X84884000Y-66373000D01*
X84884000Y-66373000D02*
X81811000Y-69446000D01*
X81811000Y-69446000D02*
X81811000Y-73184500D01*
X55268000Y-73014320D02*
X55268000Y-71859000D01*
X57785000Y-68834000D02*
X62615792Y-68834000D01*
X55268000Y-71859000D02*
X57785000Y-68834000D01*
X82804000Y-56642000D02*
X81711800Y-56642000D01*
X71094600Y-68351400D02*
X69037200Y-68351400D01*
X72821800Y-69113400D02*
X71094600Y-68351400D01*
X76555600Y-69113400D02*
X72821800Y-69113400D01*
X79095600Y-66954400D02*
X76555600Y-69113400D01*
X79095600Y-63957200D02*
X79095600Y-66954400D01*
X80568800Y-60770000D02*
X79095600Y-63957200D01*
X80746600Y-57607200D02*
X80568800Y-60770000D01*
X81711800Y-56642000D02*
X80746600Y-57607200D01*
X82804000Y-56642000D02*
X84836000Y-54610000D01*
X67132200Y-68326000D02*
X69037200Y-68351400D01*
X63322200Y-68326000D02*
X67132200Y-68326000D01*
X62615792Y-68834000D02*
X63322200Y-68326000D01*
X53848000Y-65532000D02*
X53594000Y-65532000D01*
X53594000Y-65532000D02*
X52832000Y-66294000D01*
X52832000Y-66294000D02*
X52832000Y-80526000D01*
X52832000Y-80526000D02*
X55321200Y-85161120D01*
D30*
X55488200Y-106108500D02*
X55488200Y-105903400D01*
X55488200Y-105903400D02*
X56667400Y-104724200D01*
X56667400Y-103846400D02*
X55214000Y-102393000D01*
X56667400Y-104724200D02*
X56667400Y-103846400D01*
X60439300Y-108800900D02*
X60439300Y-108559600D01*
X60439300Y-108800900D02*
X60706000Y-109067600D01*
X60706000Y-109067600D02*
X60777120Y-110276640D01*
X60777120Y-110276640D02*
X61554360Y-111069120D01*
X61554360Y-111069120D02*
X61569600Y-112928400D01*
X61569600Y-112928400D02*
X60518040Y-113675160D01*
X60579000Y-119039000D02*
X60518040Y-113675160D01*
X57469400Y-108089700D02*
X55488200Y-106108500D01*
X59969400Y-108089700D02*
X57469400Y-108089700D01*
X60439300Y-108559600D02*
X59969400Y-108089700D01*
X55214000Y-102393000D02*
X55214000Y-103141900D01*
X114554000Y-130302000D02*
X115189000Y-130302000D01*
X114173000Y-130683000D02*
X114554000Y-130302000D01*
X114173000Y-136271000D02*
X114173000Y-130683000D01*
X110998000Y-139446000D02*
X114173000Y-136271000D01*
X110998000Y-144018000D02*
X110998000Y-139446000D01*
X109347000Y-145669000D02*
X110998000Y-144018000D01*
X115189000Y-130302000D02*
X116141500Y-129349500D01*
X109093000Y-145669000D02*
X109347000Y-145669000D01*
X105918000Y-141986000D02*
X109093000Y-145669000D01*
X105918000Y-127762000D02*
X105918000Y-141986000D01*
X105029000Y-125984000D02*
X105918000Y-127762000D01*
X62016000Y-120650000D02*
X74676000Y-120650000D01*
X74676000Y-120650000D02*
X75882500Y-121348500D01*
X62016000Y-120650000D02*
X60492000Y-119126000D01*
X75882500Y-121348500D02*
X92392500Y-121348500D01*
X60579000Y-119039000D02*
X60579000Y-118999000D01*
X93980000Y-122809000D02*
X94742000Y-122809000D01*
X99314000Y-125984000D02*
X105029000Y-125984000D01*
X94742000Y-122809000D02*
X99314000Y-125984000D01*
X93980000Y-122809000D02*
X92392500Y-121348500D01*
X80075400Y-106248200D02*
X80075400Y-106005000D01*
X80075400Y-106005000D02*
X80975200Y-105105200D01*
X80975200Y-105105200D02*
X80975200Y-103795600D01*
X80975200Y-103795600D02*
X79953600Y-102774000D01*
X77152500Y-119039000D02*
X78001500Y-119039000D01*
X79857600Y-109484160D02*
X79915500Y-106108500D01*
X81655920Y-111008160D02*
X79857600Y-109484160D01*
X81594960Y-112654080D02*
X81655920Y-111008160D01*
X80238600Y-113804700D02*
X81594960Y-112654080D01*
X80200500Y-116840000D02*
X80238600Y-113804700D01*
X78001500Y-119039000D02*
X80200500Y-116840000D01*
X105125000Y-102837500D02*
X105125000Y-103169200D01*
X105125000Y-103169200D02*
X106222800Y-104267000D01*
X106222800Y-105302680D02*
X105267120Y-106258360D01*
X106222800Y-104267000D02*
X106222800Y-105302680D01*
X105267120Y-106258360D02*
X105410000Y-110388400D01*
X104332400Y-117500400D02*
X106085000Y-119253000D01*
X104203500Y-117500400D02*
X104203500Y-114681000D01*
X104203500Y-117500400D02*
X104332400Y-117500400D01*
X104203500Y-114681000D02*
X106197400Y-112737900D01*
X106197400Y-112737900D02*
X106235500Y-111201200D01*
X106235500Y-111201200D02*
X105410000Y-110388400D01*
X105132620Y-106123860D02*
X105267120Y-106258360D01*
X109093000Y-140589000D02*
X109093000Y-140081000D01*
X109093000Y-140081000D02*
X110490000Y-138684000D01*
X110490000Y-138684000D02*
X110490000Y-138049000D01*
X110490000Y-138049000D02*
X112776000Y-135763000D01*
X106997500Y-123825000D02*
X108331000Y-123825000D01*
X106997500Y-120165500D02*
X106085000Y-119253000D01*
X106997500Y-123825000D02*
X106997500Y-120165500D01*
X106997500Y-138493500D02*
X109093000Y-140589000D01*
X106997500Y-132270500D02*
X106997500Y-138493500D01*
X108331000Y-123825000D02*
X110744000Y-126238000D01*
X110744000Y-126238000D02*
X110744000Y-130937000D01*
X110744000Y-130937000D02*
X109982000Y-131699000D01*
X109982000Y-131699000D02*
X107569000Y-131699000D01*
X107569000Y-131699000D02*
X106997500Y-132270500D01*
X129636000Y-103282000D02*
X129636000Y-103397800D01*
X129636000Y-103397800D02*
X130810000Y-104571800D01*
X130810000Y-105259500D02*
X129516500Y-106553000D01*
X130810000Y-104571800D02*
X130810000Y-105259500D01*
X129197100Y-111899700D02*
X127749300Y-110540800D01*
X127749300Y-110540800D02*
X127762000Y-107918000D01*
X129159000Y-112496600D02*
X129197100Y-111899700D01*
X127762000Y-107918000D02*
X129752600Y-105927400D01*
X125349000Y-116395500D02*
X129159000Y-112496600D01*
X129752600Y-105927400D02*
X129826500Y-105853500D01*
X129752600Y-103398600D02*
X129636000Y-103282000D01*
X122936000Y-126619000D02*
X123761500Y-125793500D01*
X123761500Y-125793500D02*
X123761500Y-125412500D01*
X123761500Y-125412500D02*
X123825000Y-125349000D01*
X123825000Y-125349000D02*
X123761500Y-125349000D01*
X123761500Y-125349000D02*
X123761500Y-123761500D01*
X123761500Y-123761500D02*
X123317000Y-123317000D01*
X123317000Y-123317000D02*
X123317000Y-120436000D01*
X125349000Y-118404000D02*
X123317000Y-120436000D01*
X125349000Y-118404000D02*
X125349000Y-116395500D01*
X143724000Y-69596000D02*
X143205200Y-69596000D01*
X143205200Y-69596000D02*
X141067040Y-71734160D01*
X141067040Y-71734160D02*
X141067040Y-72867000D01*
X131794250Y-124428250D02*
X133350000Y-125984000D01*
X133350000Y-125984000D02*
X133731000Y-128016000D01*
X133731000Y-128016000D02*
X134239000Y-128524000D01*
X113157000Y-133985000D02*
X113157000Y-129159000D01*
X113157000Y-129159000D02*
X115062000Y-127508000D01*
X115062000Y-127508000D02*
X128778000Y-127508000D01*
X128778000Y-127508000D02*
X129921000Y-126365000D01*
X129921000Y-126365000D02*
X129921000Y-126301500D01*
X109093000Y-135509000D02*
X111887000Y-135509000D01*
X111887000Y-135509000D02*
X113157000Y-133985000D01*
X137287000Y-118861200D02*
X145222600Y-118861200D01*
X145897600Y-118186200D02*
X145897600Y-118287800D01*
X145222600Y-118861200D02*
X145897600Y-118186200D01*
X146735800Y-111353600D02*
X146685000Y-111302800D01*
X146735800Y-117449600D02*
X146735800Y-111353600D01*
X145897600Y-118287800D02*
X146735800Y-117449600D01*
X136192900Y-120029600D02*
X137287000Y-118861200D01*
X129921000Y-126301500D02*
X131794250Y-124428250D01*
X131794250Y-124428250D02*
X136192900Y-120029600D01*
X117943000Y-69850000D02*
X117678200Y-69850000D01*
X117678200Y-69850000D02*
X116992400Y-70535800D01*
X116992400Y-71591400D02*
X118458500Y-73057500D01*
X116992400Y-70535800D02*
X116992400Y-71591400D01*
X111823500Y-130556000D02*
X111823500Y-126619000D01*
X110109000Y-132969000D02*
X111823500Y-130556000D01*
X109093000Y-132969000D02*
X110109000Y-132969000D01*
X118458500Y-70365500D02*
X117943000Y-69850000D01*
X119594000Y-118973600D02*
X119594000Y-113984400D01*
X118465600Y-80137000D02*
X118465600Y-73064600D01*
X120827800Y-82499200D02*
X118465600Y-80137000D01*
X120827800Y-85979000D02*
X120827800Y-82499200D01*
X119862600Y-86944200D02*
X120827800Y-85979000D01*
X116179600Y-86944200D02*
X119862600Y-86944200D01*
X116103400Y-86868000D02*
X116179600Y-86944200D01*
X115849400Y-89865200D02*
X115747800Y-89763600D01*
X115849400Y-92760800D02*
X115849400Y-89865200D01*
X117068600Y-93980000D02*
X115849400Y-92760800D01*
X117068600Y-96545400D02*
X117068600Y-93980000D01*
X119913400Y-99390200D02*
X117068600Y-96545400D01*
X119913400Y-108813600D02*
X119913400Y-99390200D01*
X117246400Y-111480600D02*
X119913400Y-108813600D01*
X117246400Y-112877600D02*
X117246400Y-111480600D01*
X117525800Y-113144300D02*
X117246400Y-112877600D01*
X118766600Y-113144300D02*
X117525800Y-113144300D01*
X119594000Y-113984400D02*
X118766600Y-113144300D01*
X118465600Y-73064600D02*
X118458500Y-73057500D01*
X116840000Y-124968000D02*
X117729000Y-124968000D01*
X117729000Y-124968000D02*
X118110000Y-125349000D01*
X118110000Y-125349000D02*
X122555000Y-125349000D01*
X113665000Y-125476000D02*
X116840000Y-125476000D01*
X111823500Y-126619000D02*
X113665000Y-125476000D01*
X116840000Y-121515500D02*
X119951500Y-118404000D01*
X116840000Y-125476000D02*
X116840000Y-124968000D01*
X116840000Y-124968000D02*
X116840000Y-121515500D01*
X94011000Y-73184500D02*
X94011000Y-70541000D01*
X94011000Y-70541000D02*
X94956000Y-69596000D01*
X99949000Y-98171000D02*
X98425000Y-98171000D01*
X98425000Y-98171000D02*
X96837500Y-96075500D01*
X96837500Y-96075500D02*
X96837500Y-90170000D01*
X99822000Y-113601500D02*
X99822000Y-103886000D01*
X99822000Y-103886000D02*
X101346000Y-101092000D01*
X101346000Y-101092000D02*
X101346000Y-99060000D01*
X101346000Y-99060000D02*
X99949000Y-98171000D01*
X98401500Y-115022000D02*
X99822000Y-113601500D01*
X98465000Y-119189500D02*
X98401500Y-115022000D01*
X94551500Y-80645000D02*
X94551500Y-73725000D01*
X96837500Y-82931000D02*
X94551500Y-80645000D01*
X96837500Y-85471000D02*
X96837500Y-82931000D01*
X95948500Y-86360000D02*
X96837500Y-85471000D01*
X94551500Y-73725000D02*
X94011000Y-73184500D01*
X143764000Y-129730500D02*
X143764000Y-128651000D01*
X139700000Y-133794500D02*
X143764000Y-129730500D01*
X116522500Y-133794500D02*
X139700000Y-133794500D01*
X116205000Y-134112000D02*
X116522500Y-133794500D01*
X111633000Y-133477000D02*
X111633000Y-134620000D01*
X111061500Y-132905500D02*
X111633000Y-133477000D01*
X73128500Y-71386700D02*
X71996300Y-71374000D01*
X70355980Y-73014320D02*
X67468000Y-73014320D01*
X71996300Y-71374000D02*
X70355980Y-73014320D01*
X142316200Y-126936500D02*
X143865600Y-126936500D01*
X137706100Y-131546600D02*
X142316200Y-126936500D01*
X116535200Y-131546600D02*
X137706100Y-131546600D01*
X116344700Y-131737100D02*
X116535200Y-131546600D01*
X112407700Y-132575300D02*
X112407700Y-133692900D01*
X111734600Y-131902200D02*
X112407700Y-132575300D01*
X73128500Y-71386700D02*
X73446000Y-72184900D01*
X75133200Y-117652800D02*
X74422000Y-118364000D01*
X75133200Y-115938300D02*
X75133200Y-117652800D01*
X77266800Y-113804700D02*
X75133200Y-115938300D01*
X69761100Y-82753200D02*
X69761100Y-86487000D01*
X67805300Y-80797400D02*
X69761100Y-82753200D01*
X67805300Y-75285600D02*
X67805300Y-80797400D01*
X68440300Y-74650600D02*
X67805300Y-75285600D01*
X70980300Y-74650600D02*
X68440300Y-74650600D01*
X73446000Y-72184900D02*
X70980300Y-74650600D01*
X67701680Y-73014320D02*
X67468000Y-73014320D01*
X73818000Y-54960000D02*
X76104000Y-54960000D01*
X78054200Y-54991000D02*
X79248000Y-53634000D01*
X76104000Y-54960000D02*
X78054200Y-54991000D01*
X149098000Y-128193800D02*
X148844000Y-128193800D01*
X99568000Y-125349000D02*
X108204000Y-125349000D01*
X108204000Y-125349000D02*
X109093000Y-127000000D01*
X109093000Y-127000000D02*
X109093000Y-127889000D01*
X74422000Y-118364000D02*
X74422000Y-119126000D01*
X74422000Y-119126000D02*
X75946000Y-120650000D01*
X93091000Y-120650000D02*
X75946000Y-120650000D01*
X99568000Y-125349000D02*
X93091000Y-120650000D01*
X74422000Y-118364000D02*
X73683500Y-119102500D01*
X71945500Y-119102500D02*
X73683500Y-119102500D01*
D31*
X55013860Y-131160520D02*
X58186320Y-131160520D01*
X59867800Y-132842000D02*
X61595000Y-132842000D01*
X58186320Y-131160520D02*
X59867800Y-132842000D01*
X55013860Y-131160520D02*
X55013860Y-126707900D01*
X55013860Y-126707900D02*
X57500520Y-124221240D01*
D30*
X52473860Y-141320520D02*
X52473860Y-140845540D01*
X52473860Y-140845540D02*
X53759100Y-139560300D01*
X53759100Y-132415280D02*
X55013860Y-131160520D01*
X53759100Y-139560300D02*
X53759100Y-132415280D01*
D31*
X62484000Y-141478000D02*
X61925200Y-141478000D01*
X61925200Y-141478000D02*
X60015120Y-143388080D01*
X54541420Y-143388080D02*
X52473860Y-141320520D01*
X60015120Y-143388080D02*
X54541420Y-143388080D01*
X69342000Y-127167000D02*
X69616960Y-127167000D01*
X69616960Y-127167000D02*
X70632320Y-126151640D01*
X79034640Y-126151640D02*
X80645000Y-127762000D01*
X70632320Y-126151640D02*
X79034640Y-126151640D01*
X65238000Y-129413000D02*
X65238000Y-129707000D01*
X65238000Y-129707000D02*
X61595000Y-132842000D01*
X61595000Y-136144000D02*
X61468000Y-132969000D01*
X61468000Y-132969000D02*
X61595000Y-132842000D01*
X61595000Y-136144000D02*
X61976000Y-140970000D01*
X61976000Y-140970000D02*
X62484000Y-141478000D01*
D30*
X61976000Y-140970000D02*
X62484000Y-141478000D01*
D31*
X80645000Y-127762000D02*
X89916000Y-127762000D01*
X89916000Y-127762000D02*
X90297000Y-127381000D01*
D30*
X61722000Y-136017000D02*
X61595000Y-136144000D01*
D29*
X65238000Y-129413000D02*
X65238000Y-128945000D01*
X65238000Y-128945000D02*
X67016000Y-127167000D01*
X67016000Y-127167000D02*
X69342000Y-127167000D01*
X57500520Y-124221240D02*
X57500520Y-124475240D01*
X57500520Y-124475240D02*
X59944000Y-127000000D01*
X59944000Y-127000000D02*
X64008000Y-127000000D01*
X64008000Y-127000000D02*
X65238000Y-128230000D01*
X65238000Y-128230000D02*
X65238000Y-129413000D01*
D30*
X68834000Y-144068800D02*
X70739000Y-144018000D01*
X70739000Y-144018000D02*
X71501000Y-143256000D01*
X71501000Y-143256000D02*
X71501000Y-139446000D01*
X71501000Y-139446000D02*
X73025000Y-137922000D01*
X65481200Y-144094200D02*
X67056000Y-144018000D01*
X67056000Y-144018000D02*
X67005200Y-143357600D01*
X67005200Y-143357600D02*
X67005200Y-140055600D01*
X67005200Y-140055600D02*
X67945000Y-139827000D01*
X67945000Y-139827000D02*
X70358000Y-139827000D01*
X70358000Y-139827000D02*
X70993000Y-139192000D01*
X70993000Y-139192000D02*
X70993000Y-138303000D01*
X70993000Y-138303000D02*
X71755000Y-137541000D01*
X71755000Y-137541000D02*
X71755000Y-136652000D01*
X71755000Y-136652000D02*
X73025000Y-135382000D01*
X65481200Y-144094200D02*
X65608200Y-144094200D01*
X72390000Y-135382000D02*
X73025000Y-135382000D01*
X63906400Y-143103600D02*
X63906400Y-140309600D01*
X63906400Y-140309600D02*
X65659000Y-138938000D01*
X65659000Y-138938000D02*
X69088000Y-138938000D01*
X69088000Y-138938000D02*
X71120000Y-136906000D01*
X71120000Y-136906000D02*
X71120000Y-134620000D01*
X62484000Y-144018000D02*
X63373000Y-144018000D01*
X71120000Y-134620000D02*
X72898000Y-132842000D01*
X72898000Y-132842000D02*
X73025000Y-132842000D01*
X63373000Y-144018000D02*
X63906400Y-143103600D01*
D29*
X123215400Y-88138000D02*
X135835000Y-88138000D01*
X99568000Y-88138000D02*
X123215400Y-88138000D01*
X123215400Y-88138000D02*
X124206000Y-88138000D01*
X124206000Y-88138000D02*
X123408440Y-88280240D01*
X59715400Y-111709200D02*
X54610000Y-111709200D01*
X54610000Y-111709200D02*
X54203600Y-112115600D01*
X54203600Y-112115600D02*
X54203600Y-110337600D01*
X52070000Y-108204000D02*
X52070000Y-96265000D01*
X54203600Y-110337600D02*
X52070000Y-108204000D01*
X52070000Y-89408000D02*
X52070000Y-96265000D01*
X52070000Y-96265000D02*
X53214000Y-96393000D01*
X53340000Y-88138000D02*
X76200000Y-88138000D01*
X52070000Y-89408000D02*
X53340000Y-88138000D01*
X74930000Y-85018000D02*
X74930000Y-91004000D01*
X74930000Y-91004000D02*
X74676000Y-91258000D01*
X74676000Y-91258000D02*
X74676000Y-89662000D01*
X76200000Y-88138000D02*
X99568000Y-88138000D01*
X74676000Y-89662000D02*
X76200000Y-88138000D01*
X99568000Y-91512000D02*
X99568000Y-88138000D01*
X99568000Y-88138000D02*
X99568000Y-84510000D01*
X99568000Y-84510000D02*
X99314000Y-84256000D01*
X123698000Y-84256000D02*
X123698000Y-87630000D01*
X123698000Y-87630000D02*
X123408440Y-88280240D01*
X123408440Y-88280240D02*
X123408440Y-91512000D01*
X123408440Y-91512000D02*
X123408440Y-90678000D01*
X127254000Y-88138000D02*
X135835000Y-88138000D01*
X53315600Y-111227600D02*
X54203600Y-112115600D01*
X53214000Y-96393000D02*
X52959000Y-96393000D01*
X99314000Y-91258000D02*
X99568000Y-91512000D01*
X54711600Y-112623600D02*
X54203600Y-112115600D01*
X99504500Y-84446500D02*
X99314000Y-84256000D01*
X61493400Y-66713100D02*
X61493400Y-66593340D01*
X61493400Y-66593340D02*
X58166000Y-60452000D01*
X58166000Y-60452000D02*
X53848000Y-60452000D01*
X89916000Y-54610000D02*
X89408000Y-54610000D01*
X89408000Y-54610000D02*
X86385400Y-50815240D01*
X86385400Y-50815240D02*
X67166360Y-50815240D01*
X67166360Y-50815240D02*
X61859160Y-55016400D01*
D30*
X116141500Y-136969500D02*
X116141500Y-139255500D01*
X116141500Y-139255500D02*
X116078000Y-139319000D01*
X120777000Y-137160000D02*
X120777000Y-139192000D01*
X120777000Y-139192000D02*
X120650000Y-139319000D01*
X125095000Y-136906000D02*
X125095000Y-139192000D01*
X125095000Y-139192000D02*
X125222000Y-139319000D01*
X129857500Y-136715500D02*
X130048000Y-139065000D01*
X130048000Y-139065000D02*
X129794000Y-139319000D01*
X130208020Y-137066020D02*
X129857500Y-136715500D01*
X134239000Y-139319000D02*
X134239000Y-136144000D01*
X134752080Y-136657080D02*
X134239000Y-136144000D01*
X138684000Y-136271000D02*
X138684000Y-139192000D01*
X138684000Y-139192000D02*
X138811000Y-139319000D01*
X143383000Y-139319000D02*
X143383000Y-136652000D01*
X143383000Y-136652000D02*
X143764000Y-136271000D01*
X148463000Y-136271000D02*
X148463000Y-138684000D01*
X148463000Y-138684000D02*
X147828000Y-139319000D01*
X148945600Y-135966200D02*
X149098000Y-135813800D01*
D29*
X61442600Y-123215400D02*
X61595000Y-123063000D01*
D30*
X68580000Y-123190000D02*
X68580000Y-123647200D01*
X120904000Y-123317000D02*
X120904000Y-123814840D01*
X139954000Y-123190000D02*
X139613640Y-123190000D01*
D29*
X90678000Y-123063000D02*
X90932000Y-123317000D01*
X82931000Y-123190000D02*
X83058000Y-123063000D01*
X68427600Y-123037600D02*
X68580000Y-123190000D01*
D31*
X100965000Y-119189500D02*
X100926900Y-119189500D01*
X100926900Y-119189500D02*
X99415600Y-120700800D01*
X94894400Y-119380000D02*
X79756000Y-119380000D01*
X96215200Y-120700800D02*
X94894400Y-119380000D01*
X99415600Y-120700800D02*
X96215200Y-120700800D01*
D30*
X58712100Y-102158800D02*
X58712100Y-102374700D01*
X57378600Y-105498900D02*
X57988200Y-106108500D01*
X57378600Y-103708200D02*
X57378600Y-105498900D01*
X58712100Y-102374700D02*
X57378600Y-103708200D01*
X82524600Y-102438200D02*
X82524600Y-103124000D01*
X81711800Y-105384600D02*
X82575400Y-106248200D01*
X81711800Y-103936800D02*
X81711800Y-105384600D01*
X82524600Y-103124000D02*
X81711800Y-103936800D01*
X107764519Y-102158317D02*
X107764519Y-102928481D01*
X106934000Y-105425240D02*
X107767120Y-106258360D01*
X106934000Y-103759000D02*
X106934000Y-105425240D01*
X107764519Y-102928481D02*
X106934000Y-103759000D01*
X132016500Y-106553000D02*
X132016500Y-105600500D01*
X131495800Y-103657400D02*
X132308600Y-102844600D01*
X131495800Y-105079800D02*
X131495800Y-103657400D01*
X132016500Y-105600500D02*
X131495800Y-105079800D01*
X139420600Y-72491600D02*
X139420600Y-72263000D01*
X139420600Y-72263000D02*
X139674600Y-72009000D01*
X141224000Y-70459600D02*
X141224000Y-69596000D01*
X139674600Y-72009000D02*
X141224000Y-70459600D01*
X115443000Y-69850000D02*
X115646200Y-69850000D01*
X115646200Y-69850000D02*
X116408200Y-70612000D01*
X116408200Y-72440800D02*
X115443000Y-73406000D01*
X116408200Y-70612000D02*
X116408200Y-72440800D01*
X92456000Y-69596000D02*
X92456000Y-70154800D01*
X92456000Y-70154800D02*
X92862400Y-70561200D01*
X92862400Y-72186800D02*
X92456000Y-72593200D01*
X92862400Y-70561200D02*
X92862400Y-72186800D01*
X139420600Y-74935080D02*
X137922000Y-76433680D01*
X139420600Y-72491600D02*
X139420600Y-74935080D01*
D31*
X67468000Y-85014320D02*
X67468000Y-83838300D01*
X66497200Y-82867500D02*
X66662300Y-82702400D01*
X67468000Y-83838300D02*
X66497200Y-82867500D01*
D30*
X55214000Y-90393000D02*
X55214000Y-91028000D01*
X55214000Y-91028000D02*
X58712100Y-94526100D01*
X58712100Y-94526100D02*
X58712100Y-102158800D01*
X79953600Y-90774000D02*
X79953600Y-91713800D01*
X82524600Y-94284800D02*
X82524600Y-102438200D01*
X79953600Y-91713800D02*
X82524600Y-94284800D01*
X82524600Y-106197400D02*
X82575400Y-106248200D01*
X107764519Y-102158317D02*
X107759500Y-94246700D01*
X107759500Y-94246700D02*
X105125000Y-91612200D01*
X105125000Y-91612200D02*
X105125000Y-90837500D01*
X132016500Y-106553000D02*
X132016500Y-106299000D01*
X139731000Y-84867000D02*
X141067040Y-84867000D01*
X137922000Y-83058000D02*
X139731000Y-84867000D01*
X137922000Y-76433680D02*
X137922000Y-83058000D01*
X115443000Y-73406000D02*
X115443000Y-80137000D01*
X115697000Y-82296000D02*
X118458500Y-85057500D01*
X115697000Y-80391000D02*
X115697000Y-82296000D01*
X115443000Y-80137000D02*
X115697000Y-80391000D01*
X92456000Y-72593200D02*
X92456000Y-72898000D01*
X92506800Y-83883500D02*
X94011000Y-85184500D01*
X92506800Y-73152000D02*
X92506800Y-83883500D01*
X92456000Y-72898000D02*
X92506800Y-73152000D01*
X79248000Y-56134000D02*
X76200000Y-56108600D01*
X76200000Y-56108600D02*
X74422000Y-58674000D01*
X74422000Y-58674000D02*
X71374000Y-58674000D01*
X71374000Y-58674000D02*
X71120000Y-58928000D01*
X71120000Y-58928000D02*
X71120000Y-64262000D01*
X71120000Y-64262000D02*
X73818000Y-66960000D01*
D31*
X129636000Y-91282000D02*
X129636000Y-91718880D01*
X129636000Y-91718880D02*
X131373880Y-93710760D01*
X105125000Y-90837500D02*
X105465360Y-90837500D01*
X105465360Y-90837500D02*
X108397040Y-94340680D01*
X108397040Y-94376240D02*
X108508800Y-94488000D01*
X108397040Y-94340680D02*
X108397040Y-94376240D01*
X79953600Y-90774000D02*
X80093300Y-90774000D01*
X80093300Y-90774000D02*
X82296000Y-93649800D01*
X55214000Y-90393000D02*
X55214000Y-92399600D01*
X55214000Y-92399600D02*
X56352440Y-93538040D01*
X141067040Y-84867000D02*
X141067040Y-83800200D01*
X141067040Y-83800200D02*
X139486640Y-82219800D01*
X118458500Y-85057500D02*
X118458500Y-84092300D01*
X118458500Y-84092300D02*
X116852700Y-82486500D01*
X94011000Y-85184500D02*
X94011000Y-83128600D01*
X94011000Y-83128600D02*
X94107000Y-83032600D01*
X73818000Y-66960000D02*
X73818000Y-66667900D01*
X73818000Y-66667900D02*
X72809100Y-65227200D01*
X113710720Y-144556480D02*
X112458500Y-144526000D01*
X112458500Y-144526000D02*
X112395000Y-144589500D01*
X145859500Y-141859000D02*
X145859500Y-121539000D01*
X148090900Y-84717900D02*
X141019540Y-84819500D01*
X149161500Y-85788500D02*
X148090900Y-84717900D01*
X149161500Y-118681500D02*
X149161500Y-85788500D01*
X148209000Y-119634000D02*
X149161500Y-118681500D01*
X147764500Y-119634000D02*
X148209000Y-119634000D01*
X145859500Y-121539000D02*
X147764500Y-119634000D01*
X147828000Y-141859000D02*
X145859500Y-141859000D01*
X145859500Y-141859000D02*
X143383000Y-141859000D01*
X143383000Y-141859000D02*
X138811000Y-141859000D01*
X134239000Y-141859000D02*
X138811000Y-141859000D01*
X129794000Y-141859000D02*
X134239000Y-141859000D01*
X125222000Y-141859000D02*
X129794000Y-141859000D01*
X120650000Y-141859000D02*
X125222000Y-141859000D01*
X116078000Y-141859000D02*
X120650000Y-141859000D01*
X109093000Y-148209000D02*
X109093000Y-147891500D01*
X109093000Y-147891500D02*
X112395000Y-144589500D01*
X114236500Y-141859000D02*
X116078000Y-141859000D01*
X112395000Y-143700500D02*
X114236500Y-141859000D01*
X112395000Y-144589500D02*
X112395000Y-143700500D01*
X97917000Y-127381000D02*
X99060000Y-127381000D01*
X99060000Y-127381000D02*
X99831998Y-126609002D01*
X99831998Y-126609002D02*
X102606002Y-126609002D01*
X102606002Y-126609002D02*
X104902000Y-128905000D01*
X104902000Y-128905000D02*
X104902000Y-144018000D01*
X104902000Y-144018000D02*
X109093000Y-148209000D01*
D30*
X83820000Y-130175000D02*
X83820000Y-129667000D01*
X83820000Y-129667000D02*
X84582000Y-128905000D01*
X88900000Y-128905000D02*
X90297000Y-130302000D01*
X84582000Y-128905000D02*
X88900000Y-128905000D01*
X83820000Y-130175000D02*
X80772000Y-130429000D01*
X80772000Y-130429000D02*
X80645000Y-130302000D01*
X101473000Y-127889000D02*
X100330000Y-127889000D01*
X100330000Y-127889000D02*
X97917000Y-130302000D01*
X83820000Y-132842000D02*
X83820000Y-132715000D01*
X83820000Y-132715000D02*
X84963000Y-131572000D01*
X89027000Y-131572000D02*
X90297000Y-132842000D01*
X84963000Y-131572000D02*
X89027000Y-131572000D01*
X80645000Y-132842000D02*
X83820000Y-132842000D01*
X97917000Y-132842000D02*
X99060000Y-132842000D01*
X99060000Y-132842000D02*
X101473000Y-130429000D01*
X83566000Y-135382000D02*
X83566000Y-135128000D01*
X83566000Y-135128000D02*
X84582000Y-134112000D01*
X89154000Y-134112000D02*
X90297000Y-135255000D01*
X84582000Y-134112000D02*
X89154000Y-134112000D01*
X83566000Y-135382000D02*
X80645000Y-135382000D01*
X97917000Y-135255000D02*
X99187000Y-135255000D01*
X99187000Y-135255000D02*
X101473000Y-132969000D01*
X83693000Y-137922000D02*
X84963000Y-136652000D01*
X89154000Y-136652000D02*
X90170000Y-137668000D01*
X84963000Y-136652000D02*
X89154000Y-136652000D01*
X90170000Y-137668000D02*
X90297000Y-137668000D01*
X83693000Y-137922000D02*
X80772000Y-137795000D01*
X80772000Y-137795000D02*
X80645000Y-137922000D01*
X97917000Y-137668000D02*
X99314000Y-137668000D01*
X99314000Y-137668000D02*
X101473000Y-135509000D01*
X83693000Y-140525500D02*
X83693000Y-140398500D01*
X83693000Y-140398500D02*
X84709000Y-139192000D01*
X89535000Y-139192000D02*
X90424000Y-140081000D01*
X84709000Y-139192000D02*
X89535000Y-139192000D01*
X80645000Y-140462000D02*
X83693000Y-140525500D01*
X98044000Y-140081000D02*
X99441000Y-140081000D01*
X99441000Y-140081000D02*
X101473000Y-138049000D01*
X83756500Y-143129000D02*
X83756500Y-142748000D01*
X83756500Y-142748000D02*
X84455000Y-141732000D01*
X89535000Y-141732000D02*
X90424000Y-142621000D01*
X84455000Y-141732000D02*
X89535000Y-141732000D01*
X80645000Y-143002000D02*
X83629500Y-143002000D01*
X83629500Y-143002000D02*
X83756500Y-143129000D01*
X98044000Y-142621000D02*
X99441000Y-142621000D01*
X99441000Y-142621000D02*
X101473000Y-140589000D01*
X83756500Y-145796000D02*
X84836000Y-144526000D01*
X89535000Y-145034000D02*
X90424000Y-145034000D01*
X89027000Y-144526000D02*
X89535000Y-145034000D01*
X84836000Y-144526000D02*
X89027000Y-144526000D01*
X80645000Y-145542000D02*
X83502500Y-145542000D01*
X83502500Y-145542000D02*
X83756500Y-145796000D01*
X98044000Y-145034000D02*
X99568000Y-145034000D01*
X99568000Y-145034000D02*
X101473000Y-143129000D01*
X83693000Y-148272500D02*
X83693000Y-148018500D01*
X83693000Y-148018500D02*
X84582000Y-147002500D01*
X84582000Y-147002500D02*
X90043000Y-147002500D01*
X90043000Y-147002500D02*
X90551000Y-147701000D01*
X80645000Y-148082000D02*
X83312000Y-147891500D01*
X83312000Y-147891500D02*
X83693000Y-148272500D01*
X98171000Y-147701000D02*
X99441000Y-147701000D01*
X99441000Y-147701000D02*
X101473000Y-145669000D01*
D31*
X55013860Y-136240520D02*
X57449720Y-136240520D01*
X58450480Y-137241280D02*
X59385200Y-139206600D01*
X57449720Y-136240520D02*
X58450480Y-137241280D01*
D30*
X69215000Y-132842000D02*
X69723000Y-132842000D01*
X69723000Y-132842000D02*
X70993000Y-131572000D01*
X70993000Y-131572000D02*
X70993000Y-129794000D01*
X70993000Y-129794000D02*
X73025000Y-127762000D01*
X69215000Y-136144000D02*
X69215000Y-136017000D01*
X69215000Y-136017000D02*
X70358000Y-134874000D01*
X70358000Y-134874000D02*
X70358000Y-133731000D01*
X70358000Y-133731000D02*
X71628000Y-132461000D01*
X71628000Y-132461000D02*
X71628000Y-131699000D01*
X71628000Y-131699000D02*
X73025000Y-130302000D01*
D31*
G36*
X79092200Y-127623414D02*
X79064634Y-127762000D01*
X79182621Y-128355159D01*
X79518618Y-128858016D01*
X79779004Y-129032000D01*
X79518618Y-129205984D01*
X79182621Y-129708841D01*
X79064634Y-130302000D01*
X79182621Y-130895159D01*
X79518618Y-131398016D01*
X79779004Y-131572000D01*
X79518618Y-131745984D01*
X79182621Y-132248841D01*
X79064634Y-132842000D01*
X79182621Y-133435159D01*
X79518618Y-133938016D01*
X79779004Y-134112000D01*
X79518618Y-134285984D01*
X79182621Y-134788841D01*
X79064634Y-135382000D01*
X79182621Y-135975159D01*
X79518618Y-136478016D01*
X79779004Y-136652000D01*
X79518618Y-136825984D01*
X79182621Y-137328841D01*
X79064634Y-137922000D01*
X79182621Y-138515159D01*
X79518618Y-139018016D01*
X79779004Y-139192000D01*
X79518618Y-139365984D01*
X79182621Y-139868841D01*
X79064634Y-140462000D01*
X79182621Y-141055159D01*
X79518618Y-141558016D01*
X79779004Y-141732000D01*
X79518618Y-141905984D01*
X79182621Y-142408841D01*
X79064634Y-143002000D01*
X79182621Y-143595159D01*
X79518618Y-144098016D01*
X79779004Y-144272000D01*
X79518618Y-144445984D01*
X79182621Y-144948841D01*
X79064634Y-145542000D01*
X79182621Y-146135159D01*
X79518618Y-146638016D01*
X79779004Y-146812000D01*
X79518618Y-146985984D01*
X79182621Y-147488841D01*
X79064634Y-148082000D01*
X79182621Y-148675159D01*
X79516603Y-149175000D01*
X74275002Y-149175000D01*
X74275002Y-148974061D01*
X74449665Y-148712631D01*
X74333737Y-148482000D01*
X73425000Y-148482000D01*
X73425000Y-148882000D01*
X72625000Y-148882000D01*
X72625000Y-148482000D01*
X71716263Y-148482000D01*
X71600335Y-148712631D01*
X71774998Y-148974061D01*
X71774998Y-149175000D01*
X60702000Y-149175000D01*
X60702000Y-148971265D01*
X60731730Y-148899667D01*
X60732268Y-148283039D01*
X60702000Y-148209785D01*
X60702000Y-147172500D01*
X60876000Y-147172500D01*
X60876000Y-147558775D01*
X60991398Y-147837372D01*
X61204627Y-148050601D01*
X61483224Y-148166000D01*
X61869500Y-148166000D01*
X62059000Y-147976500D01*
X62059000Y-146983000D01*
X62909000Y-146983000D01*
X62909000Y-147976500D01*
X63098500Y-148166000D01*
X63484776Y-148166000D01*
X63763373Y-148050601D01*
X63962766Y-147851208D01*
X63988598Y-147913572D01*
X64201827Y-148126801D01*
X64480424Y-148242200D01*
X64866700Y-148242200D01*
X65056200Y-148052700D01*
X65056200Y-147059200D01*
X65906200Y-147059200D01*
X65906200Y-148052700D01*
X66095700Y-148242200D01*
X66481976Y-148242200D01*
X66760573Y-148126801D01*
X66973802Y-147913572D01*
X67089200Y-147634975D01*
X67089200Y-147248700D01*
X67063800Y-147223300D01*
X67226000Y-147223300D01*
X67226000Y-147609575D01*
X67341398Y-147888172D01*
X67554627Y-148101401D01*
X67833224Y-148216800D01*
X68219500Y-148216800D01*
X68409000Y-148027300D01*
X68409000Y-147033800D01*
X69259000Y-147033800D01*
X69259000Y-148027300D01*
X69448500Y-148216800D01*
X69834776Y-148216800D01*
X70113373Y-148101401D01*
X70326602Y-147888172D01*
X70442000Y-147609575D01*
X70442000Y-147223300D01*
X70252500Y-147033800D01*
X69259000Y-147033800D01*
X68409000Y-147033800D01*
X67415500Y-147033800D01*
X67226000Y-147223300D01*
X67063800Y-147223300D01*
X66899700Y-147059200D01*
X65906200Y-147059200D01*
X65056200Y-147059200D01*
X64062700Y-147059200D01*
X64020700Y-147101200D01*
X63902500Y-146983000D01*
X62909000Y-146983000D01*
X62059000Y-146983000D01*
X61065500Y-146983000D01*
X60876000Y-147172500D01*
X60702000Y-147172500D01*
X60702000Y-146809584D01*
X61185677Y-146325907D01*
X60949770Y-146090000D01*
X60986135Y-146053635D01*
X61065500Y-146133000D01*
X62059000Y-146133000D01*
X62059000Y-145708000D01*
X62909000Y-145708000D01*
X62909000Y-146133000D01*
X63902500Y-146133000D01*
X63944500Y-146091000D01*
X64062700Y-146209200D01*
X65056200Y-146209200D01*
X65056200Y-145784200D01*
X65906200Y-145784200D01*
X65906200Y-146209200D01*
X66899700Y-146209200D01*
X67089200Y-146019700D01*
X67089200Y-145633425D01*
X66973802Y-145354828D01*
X66760573Y-145141599D01*
X66731202Y-145129433D01*
X66731202Y-145094939D01*
X66824517Y-144955283D01*
X67100705Y-144941919D01*
X67113674Y-144938681D01*
X67126944Y-144940275D01*
X67288300Y-144895076D01*
X67441813Y-144856744D01*
X67583998Y-145069539D01*
X67583998Y-145104033D01*
X67554627Y-145116199D01*
X67341398Y-145329428D01*
X67226000Y-145608025D01*
X67226000Y-145994300D01*
X67415500Y-146183800D01*
X68409000Y-146183800D01*
X68409000Y-145758800D01*
X69259000Y-145758800D01*
X69259000Y-146183800D01*
X70252500Y-146183800D01*
X70442000Y-145994300D01*
X70442000Y-145608025D01*
X70326602Y-145329428D01*
X70113373Y-145116199D01*
X70084002Y-145104033D01*
X70084002Y-145069539D01*
X70157981Y-144958822D01*
X70763658Y-144942671D01*
X70927840Y-144905438D01*
X71092983Y-144872589D01*
X71103410Y-144865622D01*
X71115637Y-144862849D01*
X71253072Y-144765620D01*
X71393074Y-144672074D01*
X71939689Y-144125459D01*
X72159004Y-144272000D01*
X71898618Y-144445984D01*
X71562621Y-144948841D01*
X71444634Y-145542000D01*
X71562621Y-146135159D01*
X71822435Y-146524000D01*
X71774998Y-146524000D01*
X71774998Y-147189939D01*
X71600335Y-147451369D01*
X71716263Y-147682000D01*
X72625000Y-147682000D01*
X72625000Y-147282000D01*
X73425000Y-147282000D01*
X73425000Y-147682000D01*
X74333737Y-147682000D01*
X74449665Y-147451369D01*
X74275002Y-147189939D01*
X74275002Y-146524000D01*
X74227565Y-146524000D01*
X74487379Y-146135159D01*
X74605366Y-145542000D01*
X74487379Y-144948841D01*
X74151382Y-144445984D01*
X73890996Y-144272000D01*
X74151382Y-144098016D01*
X74487379Y-143595159D01*
X74605366Y-143002000D01*
X74487379Y-142408841D01*
X74151382Y-141905984D01*
X73890996Y-141732000D01*
X74151382Y-141558016D01*
X74487379Y-141055159D01*
X74605366Y-140462000D01*
X74487379Y-139868841D01*
X74151382Y-139365984D01*
X73890996Y-139192000D01*
X74151382Y-139018016D01*
X74487379Y-138515159D01*
X74605366Y-137922000D01*
X74487379Y-137328841D01*
X74151382Y-136825984D01*
X73890996Y-136652000D01*
X74151382Y-136478016D01*
X74487379Y-135975159D01*
X74605366Y-135382000D01*
X74487379Y-134788841D01*
X74151382Y-134285984D01*
X73890996Y-134112000D01*
X74151382Y-133938016D01*
X74487379Y-133435159D01*
X74605366Y-132842000D01*
X74487379Y-132248841D01*
X74151382Y-131745984D01*
X73890996Y-131572000D01*
X74151382Y-131398016D01*
X74487379Y-130895159D01*
X74605366Y-130302000D01*
X74487379Y-129708841D01*
X74168781Y-129232024D01*
X74358198Y-129110138D01*
X74529446Y-128859508D01*
X74589693Y-128562000D01*
X74589693Y-127151640D01*
X78620426Y-127151640D01*
X79092200Y-127623414D01*
X79092200Y-127623414D01*
G37*
X79092200Y-127623414D02*
X79064634Y-127762000D01*
X79182621Y-128355159D01*
X79518618Y-128858016D01*
X79779004Y-129032000D01*
X79518618Y-129205984D01*
X79182621Y-129708841D01*
X79064634Y-130302000D01*
X79182621Y-130895159D01*
X79518618Y-131398016D01*
X79779004Y-131572000D01*
X79518618Y-131745984D01*
X79182621Y-132248841D01*
X79064634Y-132842000D01*
X79182621Y-133435159D01*
X79518618Y-133938016D01*
X79779004Y-134112000D01*
X79518618Y-134285984D01*
X79182621Y-134788841D01*
X79064634Y-135382000D01*
X79182621Y-135975159D01*
X79518618Y-136478016D01*
X79779004Y-136652000D01*
X79518618Y-136825984D01*
X79182621Y-137328841D01*
X79064634Y-137922000D01*
X79182621Y-138515159D01*
X79518618Y-139018016D01*
X79779004Y-139192000D01*
X79518618Y-139365984D01*
X79182621Y-139868841D01*
X79064634Y-140462000D01*
X79182621Y-141055159D01*
X79518618Y-141558016D01*
X79779004Y-141732000D01*
X79518618Y-141905984D01*
X79182621Y-142408841D01*
X79064634Y-143002000D01*
X79182621Y-143595159D01*
X79518618Y-144098016D01*
X79779004Y-144272000D01*
X79518618Y-144445984D01*
X79182621Y-144948841D01*
X79064634Y-145542000D01*
X79182621Y-146135159D01*
X79518618Y-146638016D01*
X79779004Y-146812000D01*
X79518618Y-146985984D01*
X79182621Y-147488841D01*
X79064634Y-148082000D01*
X79182621Y-148675159D01*
X79516603Y-149175000D01*
X74275002Y-149175000D01*
X74275002Y-148974061D01*
X74449665Y-148712631D01*
X74333737Y-148482000D01*
X73425000Y-148482000D01*
X73425000Y-148882000D01*
X72625000Y-148882000D01*
X72625000Y-148482000D01*
X71716263Y-148482000D01*
X71600335Y-148712631D01*
X71774998Y-148974061D01*
X71774998Y-149175000D01*
X60702000Y-149175000D01*
X60702000Y-148971265D01*
X60731730Y-148899667D01*
X60732268Y-148283039D01*
X60702000Y-148209785D01*
X60702000Y-147172500D01*
X60876000Y-147172500D01*
X60876000Y-147558775D01*
X60991398Y-147837372D01*
X61204627Y-148050601D01*
X61483224Y-148166000D01*
X61869500Y-148166000D01*
X62059000Y-147976500D01*
X62059000Y-146983000D01*
X62909000Y-146983000D01*
X62909000Y-147976500D01*
X63098500Y-148166000D01*
X63484776Y-148166000D01*
X63763373Y-148050601D01*
X63962766Y-147851208D01*
X63988598Y-147913572D01*
X64201827Y-148126801D01*
X64480424Y-148242200D01*
X64866700Y-148242200D01*
X65056200Y-148052700D01*
X65056200Y-147059200D01*
X65906200Y-147059200D01*
X65906200Y-148052700D01*
X66095700Y-148242200D01*
X66481976Y-148242200D01*
X66760573Y-148126801D01*
X66973802Y-147913572D01*
X67089200Y-147634975D01*
X67089200Y-147248700D01*
X67063800Y-147223300D01*
X67226000Y-147223300D01*
X67226000Y-147609575D01*
X67341398Y-147888172D01*
X67554627Y-148101401D01*
X67833224Y-148216800D01*
X68219500Y-148216800D01*
X68409000Y-148027300D01*
X68409000Y-147033800D01*
X69259000Y-147033800D01*
X69259000Y-148027300D01*
X69448500Y-148216800D01*
X69834776Y-148216800D01*
X70113373Y-148101401D01*
X70326602Y-147888172D01*
X70442000Y-147609575D01*
X70442000Y-147223300D01*
X70252500Y-147033800D01*
X69259000Y-147033800D01*
X68409000Y-147033800D01*
X67415500Y-147033800D01*
X67226000Y-147223300D01*
X67063800Y-147223300D01*
X66899700Y-147059200D01*
X65906200Y-147059200D01*
X65056200Y-147059200D01*
X64062700Y-147059200D01*
X64020700Y-147101200D01*
X63902500Y-146983000D01*
X62909000Y-146983000D01*
X62059000Y-146983000D01*
X61065500Y-146983000D01*
X60876000Y-147172500D01*
X60702000Y-147172500D01*
X60702000Y-146809584D01*
X61185677Y-146325907D01*
X60949770Y-146090000D01*
X60986135Y-146053635D01*
X61065500Y-146133000D01*
X62059000Y-146133000D01*
X62059000Y-145708000D01*
X62909000Y-145708000D01*
X62909000Y-146133000D01*
X63902500Y-146133000D01*
X63944500Y-146091000D01*
X64062700Y-146209200D01*
X65056200Y-146209200D01*
X65056200Y-145784200D01*
X65906200Y-145784200D01*
X65906200Y-146209200D01*
X66899700Y-146209200D01*
X67089200Y-146019700D01*
X67089200Y-145633425D01*
X66973802Y-145354828D01*
X66760573Y-145141599D01*
X66731202Y-145129433D01*
X66731202Y-145094939D01*
X66824517Y-144955283D01*
X67100705Y-144941919D01*
X67113674Y-144938681D01*
X67126944Y-144940275D01*
X67288300Y-144895076D01*
X67441813Y-144856744D01*
X67583998Y-145069539D01*
X67583998Y-145104033D01*
X67554627Y-145116199D01*
X67341398Y-145329428D01*
X67226000Y-145608025D01*
X67226000Y-145994300D01*
X67415500Y-146183800D01*
X68409000Y-146183800D01*
X68409000Y-145758800D01*
X69259000Y-145758800D01*
X69259000Y-146183800D01*
X70252500Y-146183800D01*
X70442000Y-145994300D01*
X70442000Y-145608025D01*
X70326602Y-145329428D01*
X70113373Y-145116199D01*
X70084002Y-145104033D01*
X70084002Y-145069539D01*
X70157981Y-144958822D01*
X70763658Y-144942671D01*
X70927840Y-144905438D01*
X71092983Y-144872589D01*
X71103410Y-144865622D01*
X71115637Y-144862849D01*
X71253072Y-144765620D01*
X71393074Y-144672074D01*
X71939689Y-144125459D01*
X72159004Y-144272000D01*
X71898618Y-144445984D01*
X71562621Y-144948841D01*
X71444634Y-145542000D01*
X71562621Y-146135159D01*
X71822435Y-146524000D01*
X71774998Y-146524000D01*
X71774998Y-147189939D01*
X71600335Y-147451369D01*
X71716263Y-147682000D01*
X72625000Y-147682000D01*
X72625000Y-147282000D01*
X73425000Y-147282000D01*
X73425000Y-147682000D01*
X74333737Y-147682000D01*
X74449665Y-147451369D01*
X74275002Y-147189939D01*
X74275002Y-146524000D01*
X74227565Y-146524000D01*
X74487379Y-146135159D01*
X74605366Y-145542000D01*
X74487379Y-144948841D01*
X74151382Y-144445984D01*
X73890996Y-144272000D01*
X74151382Y-144098016D01*
X74487379Y-143595159D01*
X74605366Y-143002000D01*
X74487379Y-142408841D01*
X74151382Y-141905984D01*
X73890996Y-141732000D01*
X74151382Y-141558016D01*
X74487379Y-141055159D01*
X74605366Y-140462000D01*
X74487379Y-139868841D01*
X74151382Y-139365984D01*
X73890996Y-139192000D01*
X74151382Y-139018016D01*
X74487379Y-138515159D01*
X74605366Y-137922000D01*
X74487379Y-137328841D01*
X74151382Y-136825984D01*
X73890996Y-136652000D01*
X74151382Y-136478016D01*
X74487379Y-135975159D01*
X74605366Y-135382000D01*
X74487379Y-134788841D01*
X74151382Y-134285984D01*
X73890996Y-134112000D01*
X74151382Y-133938016D01*
X74487379Y-133435159D01*
X74605366Y-132842000D01*
X74487379Y-132248841D01*
X74151382Y-131745984D01*
X73890996Y-131572000D01*
X74151382Y-131398016D01*
X74487379Y-130895159D01*
X74605366Y-130302000D01*
X74487379Y-129708841D01*
X74168781Y-129232024D01*
X74358198Y-129110138D01*
X74529446Y-128859508D01*
X74589693Y-128562000D01*
X74589693Y-127151640D01*
X78620426Y-127151640D01*
X79092200Y-127623414D01*
G36*
X86771472Y-148259713D02*
X86758685Y-148272500D01*
X86771540Y-148285355D01*
X86772980Y-148823891D01*
X86475843Y-149121028D01*
X86193000Y-148838185D01*
X85910157Y-149121028D01*
X85344472Y-148555343D01*
X85627315Y-148272500D01*
X85344472Y-147989658D01*
X85406629Y-147927500D01*
X86770584Y-147927500D01*
X86771472Y-148259713D01*
X86771472Y-148259713D01*
G37*
X86771472Y-148259713D02*
X86758685Y-148272500D01*
X86771540Y-148285355D01*
X86772980Y-148823891D01*
X86475843Y-149121028D01*
X86193000Y-148838185D01*
X85910157Y-149121028D01*
X85344472Y-148555343D01*
X85627315Y-148272500D01*
X85344472Y-147989658D01*
X85406629Y-147927500D01*
X86770584Y-147927500D01*
X86771472Y-148259713D01*
G36*
X86765637Y-146077500D02*
X85409315Y-146077500D01*
X85690815Y-145796000D01*
X85407972Y-145513158D01*
X85470129Y-145451000D01*
X86763962Y-145451000D01*
X86765637Y-146077500D01*
X86765637Y-146077500D01*
G37*
X86765637Y-146077500D02*
X85409315Y-146077500D01*
X85690815Y-145796000D01*
X85407972Y-145513158D01*
X85470129Y-145451000D01*
X86763962Y-145451000D01*
X86765637Y-146077500D01*
G36*
X50876467Y-121275840D02*
X50927000Y-121281000D01*
X58805000Y-121281000D01*
X58805000Y-122858212D01*
X58598028Y-122716794D01*
X58300520Y-122656547D01*
X56700520Y-122656547D01*
X56422587Y-122708844D01*
X56167322Y-122873102D01*
X55996074Y-123123732D01*
X55935827Y-123421240D01*
X55935827Y-124371719D01*
X54306753Y-126000793D01*
X54089980Y-126325216D01*
X54069376Y-126428802D01*
X54013860Y-126707900D01*
X54013860Y-129910518D01*
X53437194Y-129910518D01*
X53136234Y-129695248D01*
X52898860Y-129799170D01*
X52898860Y-130735520D01*
X53323860Y-130735520D01*
X53323860Y-131542372D01*
X53280712Y-131585520D01*
X52898860Y-131585520D01*
X52898860Y-132089707D01*
X52844893Y-132361018D01*
X52834100Y-132415280D01*
X52834100Y-139177152D01*
X52380732Y-139630520D01*
X52048860Y-139630520D01*
X52048860Y-139205520D01*
X51120524Y-139205520D01*
X51008619Y-139442889D01*
X51223858Y-139765054D01*
X51223858Y-140319781D01*
X50964307Y-140708227D01*
X50842514Y-141320520D01*
X50964307Y-141932813D01*
X51311143Y-142451891D01*
X51830221Y-142798727D01*
X52442514Y-142920520D01*
X52505206Y-142920520D01*
X52634023Y-142894897D01*
X53239334Y-143500208D01*
X52306861Y-143499394D01*
X51019999Y-144031114D01*
X50901907Y-144149000D01*
X50825000Y-144149000D01*
X50825000Y-136902889D01*
X51008619Y-136902889D01*
X51301171Y-137340775D01*
X51538484Y-137510520D01*
X51301171Y-137680265D01*
X51008619Y-138118151D01*
X51120524Y-138355520D01*
X52048860Y-138355520D01*
X52048860Y-136665520D01*
X51120524Y-136665520D01*
X51008619Y-136902889D01*
X50825000Y-136902889D01*
X50825000Y-134362889D01*
X51008619Y-134362889D01*
X51301171Y-134800775D01*
X51538484Y-134970520D01*
X51301171Y-135140265D01*
X51008619Y-135578151D01*
X51120524Y-135815520D01*
X52048860Y-135815520D01*
X52048860Y-134125520D01*
X51120524Y-134125520D01*
X51008619Y-134362889D01*
X50825000Y-134362889D01*
X50825000Y-131822889D01*
X51008619Y-131822889D01*
X51301171Y-132260775D01*
X51538484Y-132430520D01*
X51301171Y-132600265D01*
X51008619Y-133038151D01*
X51120524Y-133275520D01*
X52048860Y-133275520D01*
X52048860Y-131585520D01*
X51120524Y-131585520D01*
X51008619Y-131822889D01*
X50825000Y-131822889D01*
X50825000Y-130498151D01*
X51008619Y-130498151D01*
X51120524Y-130735520D01*
X52048860Y-130735520D01*
X52048860Y-129799170D01*
X51811486Y-129695248D01*
X51301171Y-130060265D01*
X51008619Y-130498151D01*
X50825000Y-130498151D01*
X50825000Y-125452045D01*
X51835401Y-125452045D01*
X51920503Y-125700086D01*
X52530584Y-125809479D01*
X53080537Y-125700086D01*
X53165639Y-125452045D01*
X52500520Y-124786925D01*
X51835401Y-125452045D01*
X50825000Y-125452045D01*
X50825000Y-124251304D01*
X50912281Y-124251304D01*
X51021674Y-124801257D01*
X51269715Y-124886359D01*
X51934835Y-124221240D01*
X53066205Y-124221240D01*
X53731325Y-124886359D01*
X53979366Y-124801257D01*
X54088759Y-124191176D01*
X53979366Y-123641223D01*
X53731325Y-123556121D01*
X53066205Y-124221240D01*
X51934835Y-124221240D01*
X51269715Y-123556121D01*
X51021674Y-123641223D01*
X50912281Y-124251304D01*
X50825000Y-124251304D01*
X50825000Y-122990435D01*
X51835401Y-122990435D01*
X52500520Y-123655555D01*
X53165639Y-122990435D01*
X53080537Y-122742394D01*
X52470456Y-122633001D01*
X51920503Y-122742394D01*
X51835401Y-122990435D01*
X50825000Y-122990435D01*
X50825000Y-121253877D01*
X50876467Y-121275840D01*
X50876467Y-121275840D01*
G37*
X50876467Y-121275840D02*
X50927000Y-121281000D01*
X58805000Y-121281000D01*
X58805000Y-122858212D01*
X58598028Y-122716794D01*
X58300520Y-122656547D01*
X56700520Y-122656547D01*
X56422587Y-122708844D01*
X56167322Y-122873102D01*
X55996074Y-123123732D01*
X55935827Y-123421240D01*
X55935827Y-124371719D01*
X54306753Y-126000793D01*
X54089980Y-126325216D01*
X54069376Y-126428802D01*
X54013860Y-126707900D01*
X54013860Y-129910518D01*
X53437194Y-129910518D01*
X53136234Y-129695248D01*
X52898860Y-129799170D01*
X52898860Y-130735520D01*
X53323860Y-130735520D01*
X53323860Y-131542372D01*
X53280712Y-131585520D01*
X52898860Y-131585520D01*
X52898860Y-132089707D01*
X52844893Y-132361018D01*
X52834100Y-132415280D01*
X52834100Y-139177152D01*
X52380732Y-139630520D01*
X52048860Y-139630520D01*
X52048860Y-139205520D01*
X51120524Y-139205520D01*
X51008619Y-139442889D01*
X51223858Y-139765054D01*
X51223858Y-140319781D01*
X50964307Y-140708227D01*
X50842514Y-141320520D01*
X50964307Y-141932813D01*
X51311143Y-142451891D01*
X51830221Y-142798727D01*
X52442514Y-142920520D01*
X52505206Y-142920520D01*
X52634023Y-142894897D01*
X53239334Y-143500208D01*
X52306861Y-143499394D01*
X51019999Y-144031114D01*
X50901907Y-144149000D01*
X50825000Y-144149000D01*
X50825000Y-136902889D01*
X51008619Y-136902889D01*
X51301171Y-137340775D01*
X51538484Y-137510520D01*
X51301171Y-137680265D01*
X51008619Y-138118151D01*
X51120524Y-138355520D01*
X52048860Y-138355520D01*
X52048860Y-136665520D01*
X51120524Y-136665520D01*
X51008619Y-136902889D01*
X50825000Y-136902889D01*
X50825000Y-134362889D01*
X51008619Y-134362889D01*
X51301171Y-134800775D01*
X51538484Y-134970520D01*
X51301171Y-135140265D01*
X51008619Y-135578151D01*
X51120524Y-135815520D01*
X52048860Y-135815520D01*
X52048860Y-134125520D01*
X51120524Y-134125520D01*
X51008619Y-134362889D01*
X50825000Y-134362889D01*
X50825000Y-131822889D01*
X51008619Y-131822889D01*
X51301171Y-132260775D01*
X51538484Y-132430520D01*
X51301171Y-132600265D01*
X51008619Y-133038151D01*
X51120524Y-133275520D01*
X52048860Y-133275520D01*
X52048860Y-131585520D01*
X51120524Y-131585520D01*
X51008619Y-131822889D01*
X50825000Y-131822889D01*
X50825000Y-130498151D01*
X51008619Y-130498151D01*
X51120524Y-130735520D01*
X52048860Y-130735520D01*
X52048860Y-129799170D01*
X51811486Y-129695248D01*
X51301171Y-130060265D01*
X51008619Y-130498151D01*
X50825000Y-130498151D01*
X50825000Y-125452045D01*
X51835401Y-125452045D01*
X51920503Y-125700086D01*
X52530584Y-125809479D01*
X53080537Y-125700086D01*
X53165639Y-125452045D01*
X52500520Y-124786925D01*
X51835401Y-125452045D01*
X50825000Y-125452045D01*
X50825000Y-124251304D01*
X50912281Y-124251304D01*
X51021674Y-124801257D01*
X51269715Y-124886359D01*
X51934835Y-124221240D01*
X53066205Y-124221240D01*
X53731325Y-124886359D01*
X53979366Y-124801257D01*
X54088759Y-124191176D01*
X53979366Y-123641223D01*
X53731325Y-123556121D01*
X53066205Y-124221240D01*
X51934835Y-124221240D01*
X51269715Y-123556121D01*
X51021674Y-123641223D01*
X50912281Y-124251304D01*
X50825000Y-124251304D01*
X50825000Y-122990435D01*
X51835401Y-122990435D01*
X52500520Y-123655555D01*
X53165639Y-122990435D01*
X53080537Y-122742394D01*
X52470456Y-122633001D01*
X51920503Y-122742394D01*
X51835401Y-122990435D01*
X50825000Y-122990435D01*
X50825000Y-121253877D01*
X50876467Y-121275840D01*
G36*
X86759015Y-143601000D02*
X85597129Y-143601000D01*
X85407972Y-143411843D01*
X85690815Y-143129000D01*
X85407972Y-142846157D01*
X85597130Y-142657000D01*
X86756491Y-142657000D01*
X86759015Y-143601000D01*
X86759015Y-143601000D01*
G37*
X86759015Y-143601000D02*
X85597129Y-143601000D01*
X85407972Y-143411843D01*
X85690815Y-143129000D01*
X85407972Y-142846157D01*
X85597130Y-142657000D01*
X86756491Y-142657000D01*
X86759015Y-143601000D01*
G36*
X57621464Y-137826478D02*
X57973025Y-138565662D01*
X57835470Y-138896933D01*
X57834932Y-139513561D01*
X58070408Y-140083457D01*
X58506049Y-140519860D01*
X58947418Y-140703132D01*
X59385200Y-141140915D01*
X59823525Y-140702590D01*
X60262057Y-140521392D01*
X60698460Y-140085751D01*
X60870391Y-139671695D01*
X60967437Y-140900948D01*
X60937491Y-141051495D01*
X60862823Y-141126163D01*
X60616005Y-141041481D01*
X59950885Y-141706600D01*
X60116636Y-141872350D01*
X59600906Y-142388080D01*
X59500995Y-142388080D01*
X59385200Y-142272285D01*
X59269405Y-142388080D01*
X58935309Y-142388080D01*
X58536672Y-141989443D01*
X58819515Y-141706600D01*
X58154395Y-141041481D01*
X57906354Y-141126583D01*
X57842754Y-141481277D01*
X57381523Y-141942507D01*
X57827096Y-142388080D01*
X56594197Y-142388080D01*
X56621860Y-142321295D01*
X56621860Y-141935020D01*
X56432360Y-141745520D01*
X55438860Y-141745520D01*
X55438860Y-142170520D01*
X54738074Y-142170520D01*
X54588860Y-142021306D01*
X54588860Y-141745520D01*
X54313074Y-141745520D01*
X54163860Y-141596306D01*
X54163860Y-140895520D01*
X54588860Y-140895520D01*
X54588860Y-140470520D01*
X55438860Y-140470520D01*
X55438860Y-140895520D01*
X56432360Y-140895520D01*
X56621860Y-140706020D01*
X56621860Y-140319745D01*
X56506462Y-140041148D01*
X56293233Y-139827919D01*
X56263862Y-139815753D01*
X56263862Y-139781259D01*
X56523413Y-139392813D01*
X56645206Y-138780520D01*
X56523413Y-138168227D01*
X56176577Y-137649149D01*
X55969104Y-137510520D01*
X56176577Y-137371891D01*
X56264356Y-137240520D01*
X57035506Y-137240520D01*
X57621464Y-137826478D01*
X57621464Y-137826478D01*
G37*
X57621464Y-137826478D02*
X57973025Y-138565662D01*
X57835470Y-138896933D01*
X57834932Y-139513561D01*
X58070408Y-140083457D01*
X58506049Y-140519860D01*
X58947418Y-140703132D01*
X59385200Y-141140915D01*
X59823525Y-140702590D01*
X60262057Y-140521392D01*
X60698460Y-140085751D01*
X60870391Y-139671695D01*
X60967437Y-140900948D01*
X60937491Y-141051495D01*
X60862823Y-141126163D01*
X60616005Y-141041481D01*
X59950885Y-141706600D01*
X60116636Y-141872350D01*
X59600906Y-142388080D01*
X59500995Y-142388080D01*
X59385200Y-142272285D01*
X59269405Y-142388080D01*
X58935309Y-142388080D01*
X58536672Y-141989443D01*
X58819515Y-141706600D01*
X58154395Y-141041481D01*
X57906354Y-141126583D01*
X57842754Y-141481277D01*
X57381523Y-141942507D01*
X57827096Y-142388080D01*
X56594197Y-142388080D01*
X56621860Y-142321295D01*
X56621860Y-141935020D01*
X56432360Y-141745520D01*
X55438860Y-141745520D01*
X55438860Y-142170520D01*
X54738074Y-142170520D01*
X54588860Y-142021306D01*
X54588860Y-141745520D01*
X54313074Y-141745520D01*
X54163860Y-141596306D01*
X54163860Y-140895520D01*
X54588860Y-140895520D01*
X54588860Y-140470520D01*
X55438860Y-140470520D01*
X55438860Y-140895520D01*
X56432360Y-140895520D01*
X56621860Y-140706020D01*
X56621860Y-140319745D01*
X56506462Y-140041148D01*
X56293233Y-139827919D01*
X56263862Y-139815753D01*
X56263862Y-139781259D01*
X56523413Y-139392813D01*
X56645206Y-138780520D01*
X56523413Y-138168227D01*
X56176577Y-137649149D01*
X55969104Y-137510520D01*
X56176577Y-137371891D01*
X56264356Y-137240520D01*
X57035506Y-137240520D01*
X57621464Y-137826478D01*
G36*
X86751545Y-140807000D02*
X85345815Y-140807000D01*
X85627315Y-140525500D01*
X85344472Y-140242658D01*
X85470130Y-140117000D01*
X86749700Y-140117000D01*
X86751545Y-140807000D01*
X86751545Y-140807000D01*
G37*
X86751545Y-140807000D02*
X85345815Y-140807000D01*
X85627315Y-140525500D01*
X85344472Y-140242658D01*
X85470130Y-140117000D01*
X86749700Y-140117000D01*
X86751545Y-140807000D01*
G36*
X71460307Y-128018545D02*
X70338926Y-129139926D01*
X70145948Y-129428738D01*
X69907685Y-129667000D01*
X70068000Y-129827315D01*
X70068000Y-130072371D01*
X69624843Y-130515528D01*
X69342000Y-130232685D01*
X68676881Y-130897805D01*
X68761983Y-131145846D01*
X69116677Y-131209446D01*
X69199231Y-131292000D01*
X69184634Y-131292000D01*
X68591475Y-131409987D01*
X68088618Y-131745984D01*
X67752621Y-132248841D01*
X67634634Y-132842000D01*
X67752621Y-133435159D01*
X68088618Y-133938016D01*
X68591475Y-134274013D01*
X69184634Y-134392000D01*
X69245366Y-134392000D01*
X69433000Y-134354677D01*
X69433000Y-134490852D01*
X69315835Y-134608017D01*
X69245366Y-134594000D01*
X69184634Y-134594000D01*
X68591475Y-134711987D01*
X68088618Y-135047984D01*
X67752621Y-135550841D01*
X67634634Y-136144000D01*
X67752621Y-136737159D01*
X68088618Y-137240016D01*
X68591475Y-137576013D01*
X69050528Y-137667324D01*
X68704852Y-138013000D01*
X65659000Y-138013000D01*
X65536065Y-138037453D01*
X65411073Y-138046845D01*
X65360542Y-138072367D01*
X65305018Y-138083411D01*
X65200795Y-138153050D01*
X65088915Y-138209558D01*
X63336315Y-139581158D01*
X63299398Y-139624074D01*
X63252326Y-139655526D01*
X63182688Y-139759746D01*
X63100947Y-139854769D01*
X63083262Y-139908548D01*
X63051811Y-139955618D01*
X63046245Y-139983603D01*
X62898924Y-139954299D01*
X62685105Y-137245917D01*
X62908260Y-137023151D01*
X63144730Y-136453667D01*
X63145268Y-135837039D01*
X62909792Y-135267143D01*
X62546154Y-134902869D01*
X62514604Y-134114119D01*
X62908260Y-133721151D01*
X63144730Y-133151667D01*
X63145013Y-132827430D01*
X65311483Y-130963064D01*
X65544961Y-130963268D01*
X66114857Y-130727792D01*
X66551260Y-130292151D01*
X66787730Y-129722667D01*
X66787752Y-129697064D01*
X67753761Y-129697064D01*
X67863154Y-130247017D01*
X68111195Y-130332119D01*
X68776315Y-129667000D01*
X68111195Y-129001881D01*
X67863154Y-129086983D01*
X67753761Y-129697064D01*
X66787752Y-129697064D01*
X66788219Y-129162548D01*
X67533767Y-128417000D01*
X68399699Y-128417000D01*
X68462849Y-128480260D01*
X68904218Y-128663532D01*
X69342000Y-129101315D01*
X69780325Y-128662990D01*
X70218857Y-128481792D01*
X70655260Y-128046151D01*
X70891730Y-127476667D01*
X70891879Y-127306295D01*
X71046534Y-127151640D01*
X71460307Y-127151640D01*
X71460307Y-128018545D01*
X71460307Y-128018545D01*
G37*
X71460307Y-128018545D02*
X70338926Y-129139926D01*
X70145948Y-129428738D01*
X69907685Y-129667000D01*
X70068000Y-129827315D01*
X70068000Y-130072371D01*
X69624843Y-130515528D01*
X69342000Y-130232685D01*
X68676881Y-130897805D01*
X68761983Y-131145846D01*
X69116677Y-131209446D01*
X69199231Y-131292000D01*
X69184634Y-131292000D01*
X68591475Y-131409987D01*
X68088618Y-131745984D01*
X67752621Y-132248841D01*
X67634634Y-132842000D01*
X67752621Y-133435159D01*
X68088618Y-133938016D01*
X68591475Y-134274013D01*
X69184634Y-134392000D01*
X69245366Y-134392000D01*
X69433000Y-134354677D01*
X69433000Y-134490852D01*
X69315835Y-134608017D01*
X69245366Y-134594000D01*
X69184634Y-134594000D01*
X68591475Y-134711987D01*
X68088618Y-135047984D01*
X67752621Y-135550841D01*
X67634634Y-136144000D01*
X67752621Y-136737159D01*
X68088618Y-137240016D01*
X68591475Y-137576013D01*
X69050528Y-137667324D01*
X68704852Y-138013000D01*
X65659000Y-138013000D01*
X65536065Y-138037453D01*
X65411073Y-138046845D01*
X65360542Y-138072367D01*
X65305018Y-138083411D01*
X65200795Y-138153050D01*
X65088915Y-138209558D01*
X63336315Y-139581158D01*
X63299398Y-139624074D01*
X63252326Y-139655526D01*
X63182688Y-139759746D01*
X63100947Y-139854769D01*
X63083262Y-139908548D01*
X63051811Y-139955618D01*
X63046245Y-139983603D01*
X62898924Y-139954299D01*
X62685105Y-137245917D01*
X62908260Y-137023151D01*
X63144730Y-136453667D01*
X63145268Y-135837039D01*
X62909792Y-135267143D01*
X62546154Y-134902869D01*
X62514604Y-134114119D01*
X62908260Y-133721151D01*
X63144730Y-133151667D01*
X63145013Y-132827430D01*
X65311483Y-130963064D01*
X65544961Y-130963268D01*
X66114857Y-130727792D01*
X66551260Y-130292151D01*
X66787730Y-129722667D01*
X66787752Y-129697064D01*
X67753761Y-129697064D01*
X67863154Y-130247017D01*
X68111195Y-130332119D01*
X68776315Y-129667000D01*
X68111195Y-129001881D01*
X67863154Y-129086983D01*
X67753761Y-129697064D01*
X66787752Y-129697064D01*
X66788219Y-129162548D01*
X67533767Y-128417000D01*
X68399699Y-128417000D01*
X68462849Y-128480260D01*
X68904218Y-128663532D01*
X69342000Y-129101315D01*
X69780325Y-128662990D01*
X70218857Y-128481792D01*
X70655260Y-128046151D01*
X70891730Y-127476667D01*
X70891879Y-127306295D01*
X71046534Y-127151640D01*
X71460307Y-127151640D01*
X71460307Y-128018545D01*
G36*
X86744753Y-138267000D02*
X85406629Y-138267000D01*
X85344472Y-138204843D01*
X85627315Y-137922000D01*
X85344472Y-137639158D01*
X85406630Y-137577000D01*
X86742909Y-137577000D01*
X86744753Y-138267000D01*
X86744753Y-138267000D01*
G37*
X86744753Y-138267000D02*
X85406629Y-138267000D01*
X85344472Y-138204843D01*
X85627315Y-137922000D01*
X85344472Y-137639158D01*
X85406630Y-137577000D01*
X86742909Y-137577000D01*
X86744753Y-138267000D01*
G36*
X86736759Y-135276927D02*
X86631685Y-135382000D01*
X86737322Y-135487637D01*
X86737962Y-135727000D01*
X85279629Y-135727000D01*
X85217472Y-135664843D01*
X85500315Y-135382000D01*
X85217472Y-135099158D01*
X85279629Y-135037000D01*
X86736117Y-135037000D01*
X86736759Y-135276927D01*
X86736759Y-135276927D01*
G37*
X86736759Y-135276927D02*
X86631685Y-135382000D01*
X86737322Y-135487637D01*
X86737962Y-135727000D01*
X85279629Y-135727000D01*
X85217472Y-135664843D01*
X85500315Y-135382000D01*
X85217472Y-135099158D01*
X85279629Y-135037000D01*
X86736117Y-135037000D01*
X86736759Y-135276927D01*
G36*
X86731171Y-133187000D02*
X85533629Y-133187000D01*
X85471472Y-133124843D01*
X85754315Y-132842000D01*
X85471472Y-132559158D01*
X85533629Y-132497000D01*
X86729326Y-132497000D01*
X86731171Y-133187000D01*
X86731171Y-133187000D01*
G37*
X86731171Y-133187000D02*
X85533629Y-133187000D01*
X85471472Y-133124843D01*
X85754315Y-132842000D01*
X85471472Y-132559158D01*
X85533629Y-132497000D01*
X86729326Y-132497000D01*
X86731171Y-133187000D01*
G36*
X59045776Y-127869307D02*
X59054336Y-127875232D01*
X59060117Y-127883883D01*
X59254529Y-128013785D01*
X59446819Y-128146869D01*
X59456991Y-128149066D01*
X59465646Y-128154849D01*
X59695029Y-128200476D01*
X59923553Y-128249832D01*
X59933790Y-128247969D01*
X59944000Y-128250000D01*
X62140686Y-128250000D01*
X62738000Y-128847315D01*
X63020843Y-128564472D01*
X63586528Y-129130157D01*
X63303685Y-129413000D01*
X63586528Y-129695843D01*
X63020843Y-130261528D01*
X62738000Y-129978685D01*
X62072881Y-130643805D01*
X62157983Y-130891846D01*
X62298748Y-130917086D01*
X61862811Y-131292233D01*
X61288039Y-131291732D01*
X60718143Y-131527208D01*
X60402800Y-131842000D01*
X60282014Y-131842000D01*
X58893427Y-130453413D01*
X58569004Y-130236640D01*
X58186320Y-130160520D01*
X56264356Y-130160520D01*
X56176577Y-130029149D01*
X56013860Y-129920425D01*
X56013860Y-129443064D01*
X61149761Y-129443064D01*
X61259154Y-129993017D01*
X61507195Y-130078119D01*
X62172315Y-129413000D01*
X61507195Y-128747881D01*
X61259154Y-128832983D01*
X61149761Y-129443064D01*
X56013860Y-129443064D01*
X56013860Y-127122114D01*
X57187134Y-125948840D01*
X59045776Y-127869307D01*
X59045776Y-127869307D01*
G37*
X59045776Y-127869307D02*
X59054336Y-127875232D01*
X59060117Y-127883883D01*
X59254529Y-128013785D01*
X59446819Y-128146869D01*
X59456991Y-128149066D01*
X59465646Y-128154849D01*
X59695029Y-128200476D01*
X59923553Y-128249832D01*
X59933790Y-128247969D01*
X59944000Y-128250000D01*
X62140686Y-128250000D01*
X62738000Y-128847315D01*
X63020843Y-128564472D01*
X63586528Y-129130157D01*
X63303685Y-129413000D01*
X63586528Y-129695843D01*
X63020843Y-130261528D01*
X62738000Y-129978685D01*
X62072881Y-130643805D01*
X62157983Y-130891846D01*
X62298748Y-130917086D01*
X61862811Y-131292233D01*
X61288039Y-131291732D01*
X60718143Y-131527208D01*
X60402800Y-131842000D01*
X60282014Y-131842000D01*
X58893427Y-130453413D01*
X58569004Y-130236640D01*
X58186320Y-130160520D01*
X56264356Y-130160520D01*
X56176577Y-130029149D01*
X56013860Y-129920425D01*
X56013860Y-129443064D01*
X61149761Y-129443064D01*
X61259154Y-129993017D01*
X61507195Y-130078119D01*
X62172315Y-129413000D01*
X61507195Y-128747881D01*
X61259154Y-128832983D01*
X61149761Y-129443064D01*
X56013860Y-129443064D01*
X56013860Y-127122114D01*
X57187134Y-125948840D01*
X59045776Y-127869307D01*
G36*
X86724379Y-130647000D02*
X85660629Y-130647000D01*
X85471472Y-130457843D01*
X85754315Y-130175000D01*
X85471472Y-129892157D01*
X85533629Y-129830000D01*
X86722195Y-129830000D01*
X86724379Y-130647000D01*
X86724379Y-130647000D01*
G37*
X86724379Y-130647000D02*
X85660629Y-130647000D01*
X85471472Y-130457843D01*
X85754315Y-130175000D01*
X85471472Y-129892157D01*
X85533629Y-129830000D01*
X86722195Y-129830000D01*
X86724379Y-130647000D01*
G36*
X71167541Y-55484805D02*
X71570129Y-56459144D01*
X72314935Y-57205251D01*
X73288570Y-57609539D01*
X74342805Y-57610459D01*
X75317144Y-57207871D01*
X75640579Y-56885000D01*
X75772200Y-56885000D01*
X75772200Y-58309959D01*
X75293195Y-58309541D01*
X74318856Y-58712129D01*
X73572749Y-59456935D01*
X73168461Y-60430570D01*
X73167541Y-61484805D01*
X73570129Y-62459144D01*
X74314935Y-63205251D01*
X75288570Y-63609539D01*
X75772200Y-63609961D01*
X75772200Y-66826299D01*
X75728552Y-66863400D01*
X75499672Y-66863400D01*
X75400786Y-66366269D01*
X75148731Y-66265665D01*
X74550996Y-66863400D01*
X73296071Y-66863400D01*
X72918372Y-66696768D01*
X72487269Y-66265665D01*
X72235214Y-66366269D01*
X72230763Y-66393411D01*
X72002790Y-66292835D01*
X71977329Y-66287164D01*
X71955638Y-66272671D01*
X71549791Y-66191943D01*
X71145880Y-66101984D01*
X71120184Y-66106489D01*
X71094600Y-66101400D01*
X69052197Y-66101400D01*
X67162197Y-66076200D01*
X67147179Y-66078980D01*
X67132200Y-66076000D01*
X64120043Y-66076000D01*
X63935458Y-65629269D01*
X73123665Y-65629269D01*
X73818000Y-66323604D01*
X74512335Y-65629269D01*
X74411731Y-65377214D01*
X73760830Y-65270485D01*
X73224269Y-65377214D01*
X73123665Y-65629269D01*
X63935458Y-65629269D01*
X63865871Y-65460856D01*
X63121065Y-64714749D01*
X63009496Y-64668422D01*
X61870400Y-62566007D01*
X61870400Y-57610221D01*
X62142805Y-57610459D01*
X63117144Y-57207871D01*
X63863251Y-56463065D01*
X63964363Y-56219561D01*
X65585595Y-54936200D01*
X71168020Y-54936200D01*
X71167541Y-55484805D01*
X71167541Y-55484805D01*
G37*
X71167541Y-55484805D02*
X71570129Y-56459144D01*
X72314935Y-57205251D01*
X73288570Y-57609539D01*
X74342805Y-57610459D01*
X75317144Y-57207871D01*
X75640579Y-56885000D01*
X75772200Y-56885000D01*
X75772200Y-58309959D01*
X75293195Y-58309541D01*
X74318856Y-58712129D01*
X73572749Y-59456935D01*
X73168461Y-60430570D01*
X73167541Y-61484805D01*
X73570129Y-62459144D01*
X74314935Y-63205251D01*
X75288570Y-63609539D01*
X75772200Y-63609961D01*
X75772200Y-66826299D01*
X75728552Y-66863400D01*
X75499672Y-66863400D01*
X75400786Y-66366269D01*
X75148731Y-66265665D01*
X74550996Y-66863400D01*
X73296071Y-66863400D01*
X72918372Y-66696768D01*
X72487269Y-66265665D01*
X72235214Y-66366269D01*
X72230763Y-66393411D01*
X72002790Y-66292835D01*
X71977329Y-66287164D01*
X71955638Y-66272671D01*
X71549791Y-66191943D01*
X71145880Y-66101984D01*
X71120184Y-66106489D01*
X71094600Y-66101400D01*
X69052197Y-66101400D01*
X67162197Y-66076200D01*
X67147179Y-66078980D01*
X67132200Y-66076000D01*
X64120043Y-66076000D01*
X63935458Y-65629269D01*
X73123665Y-65629269D01*
X73818000Y-66323604D01*
X74512335Y-65629269D01*
X74411731Y-65377214D01*
X73760830Y-65270485D01*
X73224269Y-65377214D01*
X73123665Y-65629269D01*
X63935458Y-65629269D01*
X63865871Y-65460856D01*
X63121065Y-64714749D01*
X63009496Y-64668422D01*
X61870400Y-62566007D01*
X61870400Y-57610221D01*
X62142805Y-57610459D01*
X63117144Y-57207871D01*
X63863251Y-56463065D01*
X63964363Y-56219561D01*
X65585595Y-54936200D01*
X71168020Y-54936200D01*
X71167541Y-55484805D01*
G36*
X138564620Y-90447699D02*
X139255953Y-90585214D01*
X139186461Y-90752570D01*
X139185541Y-91806805D01*
X139588129Y-92781144D01*
X140332935Y-93527251D01*
X140723929Y-93689606D01*
X142144783Y-95857049D01*
X142306958Y-96022099D01*
X142435510Y-96214490D01*
X143990500Y-97769480D01*
X143990500Y-101689322D01*
X143339065Y-101036749D01*
X142365430Y-100632461D01*
X141311195Y-100631541D01*
X140336856Y-101034129D01*
X139590749Y-101778935D01*
X139186461Y-102752570D01*
X139185541Y-103806805D01*
X139586000Y-104775991D01*
X139586000Y-106956318D01*
X139504441Y-106922452D01*
X138470097Y-106921550D01*
X137514142Y-107316542D01*
X137485591Y-107345044D01*
X137459705Y-107319113D01*
X136504441Y-106922452D01*
X135470097Y-106921550D01*
X134514142Y-107316542D01*
X134485591Y-107345044D01*
X134459705Y-107319113D01*
X133774496Y-107034588D01*
X134020177Y-106788907D01*
X133567626Y-106336357D01*
X133495346Y-105972983D01*
X133247305Y-105887881D01*
X132582185Y-106553000D01*
X132865028Y-106835843D01*
X132779051Y-106921820D01*
X132470097Y-106921550D01*
X132053002Y-107093890D01*
X132066056Y-107062452D01*
X132066350Y-106725511D01*
X132171178Y-106620683D01*
X132171181Y-106620681D01*
X132588468Y-105996166D01*
X132735000Y-105259500D01*
X132735000Y-104571805D01*
X132735001Y-104571800D01*
X132588469Y-103835135D01*
X132333828Y-103454038D01*
X132285913Y-103382329D01*
X132286459Y-102757195D01*
X131883871Y-101782856D01*
X131139065Y-101036749D01*
X130165430Y-100632461D01*
X129347693Y-100631747D01*
X129617466Y-99048390D01*
X129881251Y-98785065D01*
X130285539Y-97811430D01*
X130286459Y-96757195D01*
X129883871Y-95782856D01*
X129139065Y-95036749D01*
X128165430Y-94632461D01*
X127881551Y-94632213D01*
X127356849Y-94228596D01*
X127091853Y-94097520D01*
X126846038Y-93933271D01*
X126701782Y-93904577D01*
X126569944Y-93839365D01*
X126274957Y-93819676D01*
X125985000Y-93762000D01*
X125397667Y-93762000D01*
X125718139Y-93282380D01*
X125851340Y-92612731D01*
X128941665Y-92612731D01*
X129042269Y-92864786D01*
X129693170Y-92971515D01*
X130229731Y-92864786D01*
X130330335Y-92612731D01*
X129636000Y-91918396D01*
X128941665Y-92612731D01*
X125851340Y-92612731D01*
X125908440Y-92325671D01*
X125908440Y-90698329D01*
X125846712Y-90388000D01*
X128146224Y-90388000D01*
X127560227Y-90973997D01*
X127951720Y-91365490D01*
X128053214Y-91875731D01*
X128305269Y-91976335D01*
X128999604Y-91282000D01*
X128681406Y-90963802D01*
X129257208Y-90388000D01*
X129378396Y-90388000D01*
X129636000Y-90645604D01*
X129893604Y-90388000D01*
X130014792Y-90388000D01*
X130590594Y-90963802D01*
X130272396Y-91282000D01*
X130966731Y-91976335D01*
X131218786Y-91875731D01*
X131298954Y-91386816D01*
X131711773Y-90973997D01*
X131125776Y-90388000D01*
X133975274Y-90388000D01*
X134064620Y-90447699D01*
X135021329Y-90638000D01*
X136648671Y-90638000D01*
X137605380Y-90447699D01*
X138085000Y-90127227D01*
X138564620Y-90447699D01*
X138564620Y-90447699D01*
G37*
X138564620Y-90447699D02*
X139255953Y-90585214D01*
X139186461Y-90752570D01*
X139185541Y-91806805D01*
X139588129Y-92781144D01*
X140332935Y-93527251D01*
X140723929Y-93689606D01*
X142144783Y-95857049D01*
X142306958Y-96022099D01*
X142435510Y-96214490D01*
X143990500Y-97769480D01*
X143990500Y-101689322D01*
X143339065Y-101036749D01*
X142365430Y-100632461D01*
X141311195Y-100631541D01*
X140336856Y-101034129D01*
X139590749Y-101778935D01*
X139186461Y-102752570D01*
X139185541Y-103806805D01*
X139586000Y-104775991D01*
X139586000Y-106956318D01*
X139504441Y-106922452D01*
X138470097Y-106921550D01*
X137514142Y-107316542D01*
X137485591Y-107345044D01*
X137459705Y-107319113D01*
X136504441Y-106922452D01*
X135470097Y-106921550D01*
X134514142Y-107316542D01*
X134485591Y-107345044D01*
X134459705Y-107319113D01*
X133774496Y-107034588D01*
X134020177Y-106788907D01*
X133567626Y-106336357D01*
X133495346Y-105972983D01*
X133247305Y-105887881D01*
X132582185Y-106553000D01*
X132865028Y-106835843D01*
X132779051Y-106921820D01*
X132470097Y-106921550D01*
X132053002Y-107093890D01*
X132066056Y-107062452D01*
X132066350Y-106725511D01*
X132171178Y-106620683D01*
X132171181Y-106620681D01*
X132588468Y-105996166D01*
X132735000Y-105259500D01*
X132735000Y-104571805D01*
X132735001Y-104571800D01*
X132588469Y-103835135D01*
X132333828Y-103454038D01*
X132285913Y-103382329D01*
X132286459Y-102757195D01*
X131883871Y-101782856D01*
X131139065Y-101036749D01*
X130165430Y-100632461D01*
X129347693Y-100631747D01*
X129617466Y-99048390D01*
X129881251Y-98785065D01*
X130285539Y-97811430D01*
X130286459Y-96757195D01*
X129883871Y-95782856D01*
X129139065Y-95036749D01*
X128165430Y-94632461D01*
X127881551Y-94632213D01*
X127356849Y-94228596D01*
X127091853Y-94097520D01*
X126846038Y-93933271D01*
X126701782Y-93904577D01*
X126569944Y-93839365D01*
X126274957Y-93819676D01*
X125985000Y-93762000D01*
X125397667Y-93762000D01*
X125718139Y-93282380D01*
X125851340Y-92612731D01*
X128941665Y-92612731D01*
X129042269Y-92864786D01*
X129693170Y-92971515D01*
X130229731Y-92864786D01*
X130330335Y-92612731D01*
X129636000Y-91918396D01*
X128941665Y-92612731D01*
X125851340Y-92612731D01*
X125908440Y-92325671D01*
X125908440Y-90698329D01*
X125846712Y-90388000D01*
X128146224Y-90388000D01*
X127560227Y-90973997D01*
X127951720Y-91365490D01*
X128053214Y-91875731D01*
X128305269Y-91976335D01*
X128999604Y-91282000D01*
X128681406Y-90963802D01*
X129257208Y-90388000D01*
X129378396Y-90388000D01*
X129636000Y-90645604D01*
X129893604Y-90388000D01*
X130014792Y-90388000D01*
X130590594Y-90963802D01*
X130272396Y-91282000D01*
X130966731Y-91976335D01*
X131218786Y-91875731D01*
X131298954Y-91386816D01*
X131711773Y-90973997D01*
X131125776Y-90388000D01*
X133975274Y-90388000D01*
X134064620Y-90447699D01*
X135021329Y-90638000D01*
X136648671Y-90638000D01*
X137605380Y-90447699D01*
X138085000Y-90127227D01*
X138564620Y-90447699D01*
G36*
X55850396Y-90393000D02*
X56544731Y-91087335D01*
X56796786Y-90986731D01*
X56876954Y-90497816D01*
X56986770Y-90388000D01*
X64764003Y-90388000D01*
X64763541Y-90917805D01*
X65166129Y-91892144D01*
X65910935Y-92638251D01*
X66884570Y-93042539D01*
X66914133Y-93042565D01*
X70653863Y-101196037D01*
X70873533Y-101499618D01*
X71075166Y-101815453D01*
X71129587Y-101853482D01*
X71168511Y-101907274D01*
X71487638Y-102103684D01*
X71794784Y-102318314D01*
X71859618Y-102332622D01*
X71916162Y-102367423D01*
X72286158Y-102426757D01*
X72652062Y-102507510D01*
X72686932Y-102508238D01*
X72908233Y-102839438D01*
X73127040Y-102985640D01*
X73127040Y-105124059D01*
X70064290Y-102061310D01*
X70064459Y-101868195D01*
X69661871Y-100893856D01*
X68917065Y-100147749D01*
X67943430Y-99743461D01*
X66889195Y-99742541D01*
X65914856Y-100145129D01*
X65168749Y-100889935D01*
X64764461Y-101863570D01*
X64763541Y-102917805D01*
X65166129Y-103892144D01*
X65910935Y-104638251D01*
X66537403Y-104898383D01*
X68346620Y-106707601D01*
X67610542Y-107011742D01*
X67581991Y-107040244D01*
X67556105Y-107014313D01*
X66600841Y-106617652D01*
X65566497Y-106616750D01*
X64610542Y-107011742D01*
X64581991Y-107040244D01*
X64556105Y-107014313D01*
X63600841Y-106617652D01*
X62566497Y-106616750D01*
X61612850Y-107010788D01*
X61330581Y-106728519D01*
X61249264Y-106674185D01*
X60706066Y-106311232D01*
X60540325Y-106278264D01*
X59969400Y-106164699D01*
X59969395Y-106164700D01*
X59812170Y-106164700D01*
X59539326Y-105891857D01*
X59467046Y-105528483D01*
X59219005Y-105443381D01*
X58553885Y-106108500D01*
X58610085Y-106164700D01*
X58266761Y-106164700D01*
X58092212Y-105990151D01*
X58391112Y-105542815D01*
X58445869Y-105460865D01*
X58539161Y-104991853D01*
X58653319Y-104877695D01*
X58592400Y-104700139D01*
X58592400Y-103846405D01*
X58592401Y-103846400D01*
X58465935Y-103210619D01*
X58445868Y-103109734D01*
X58028581Y-102485219D01*
X57864064Y-102320702D01*
X57864459Y-101868195D01*
X57461871Y-100893856D01*
X56717065Y-100147749D01*
X55743430Y-99743461D01*
X54689195Y-99742541D01*
X54320000Y-99895089D01*
X54320000Y-98803315D01*
X54713144Y-98640871D01*
X55459251Y-97896065D01*
X55863539Y-96922430D01*
X55864459Y-95868195D01*
X55461871Y-94893856D01*
X54717065Y-94147749D01*
X54320000Y-93982873D01*
X54320000Y-91882776D01*
X54905997Y-92468773D01*
X55297490Y-92077280D01*
X55807731Y-91975786D01*
X55908335Y-91723731D01*
X55214000Y-91029396D01*
X54895802Y-91347594D01*
X54320000Y-90771792D01*
X54320000Y-90650604D01*
X54577604Y-90393000D01*
X54572604Y-90388000D01*
X55855396Y-90388000D01*
X55850396Y-90393000D01*
X55850396Y-90393000D01*
G37*
X55850396Y-90393000D02*
X56544731Y-91087335D01*
X56796786Y-90986731D01*
X56876954Y-90497816D01*
X56986770Y-90388000D01*
X64764003Y-90388000D01*
X64763541Y-90917805D01*
X65166129Y-91892144D01*
X65910935Y-92638251D01*
X66884570Y-93042539D01*
X66914133Y-93042565D01*
X70653863Y-101196037D01*
X70873533Y-101499618D01*
X71075166Y-101815453D01*
X71129587Y-101853482D01*
X71168511Y-101907274D01*
X71487638Y-102103684D01*
X71794784Y-102318314D01*
X71859618Y-102332622D01*
X71916162Y-102367423D01*
X72286158Y-102426757D01*
X72652062Y-102507510D01*
X72686932Y-102508238D01*
X72908233Y-102839438D01*
X73127040Y-102985640D01*
X73127040Y-105124059D01*
X70064290Y-102061310D01*
X70064459Y-101868195D01*
X69661871Y-100893856D01*
X68917065Y-100147749D01*
X67943430Y-99743461D01*
X66889195Y-99742541D01*
X65914856Y-100145129D01*
X65168749Y-100889935D01*
X64764461Y-101863570D01*
X64763541Y-102917805D01*
X65166129Y-103892144D01*
X65910935Y-104638251D01*
X66537403Y-104898383D01*
X68346620Y-106707601D01*
X67610542Y-107011742D01*
X67581991Y-107040244D01*
X67556105Y-107014313D01*
X66600841Y-106617652D01*
X65566497Y-106616750D01*
X64610542Y-107011742D01*
X64581991Y-107040244D01*
X64556105Y-107014313D01*
X63600841Y-106617652D01*
X62566497Y-106616750D01*
X61612850Y-107010788D01*
X61330581Y-106728519D01*
X61249264Y-106674185D01*
X60706066Y-106311232D01*
X60540325Y-106278264D01*
X59969400Y-106164699D01*
X59969395Y-106164700D01*
X59812170Y-106164700D01*
X59539326Y-105891857D01*
X59467046Y-105528483D01*
X59219005Y-105443381D01*
X58553885Y-106108500D01*
X58610085Y-106164700D01*
X58266761Y-106164700D01*
X58092212Y-105990151D01*
X58391112Y-105542815D01*
X58445869Y-105460865D01*
X58539161Y-104991853D01*
X58653319Y-104877695D01*
X58592400Y-104700139D01*
X58592400Y-103846405D01*
X58592401Y-103846400D01*
X58465935Y-103210619D01*
X58445868Y-103109734D01*
X58028581Y-102485219D01*
X57864064Y-102320702D01*
X57864459Y-101868195D01*
X57461871Y-100893856D01*
X56717065Y-100147749D01*
X55743430Y-99743461D01*
X54689195Y-99742541D01*
X54320000Y-99895089D01*
X54320000Y-98803315D01*
X54713144Y-98640871D01*
X55459251Y-97896065D01*
X55863539Y-96922430D01*
X55864459Y-95868195D01*
X55461871Y-94893856D01*
X54717065Y-94147749D01*
X54320000Y-93982873D01*
X54320000Y-91882776D01*
X54905997Y-92468773D01*
X55297490Y-92077280D01*
X55807731Y-91975786D01*
X55908335Y-91723731D01*
X55214000Y-91029396D01*
X54895802Y-91347594D01*
X54320000Y-90771792D01*
X54320000Y-90650604D01*
X54577604Y-90393000D01*
X54572604Y-90388000D01*
X55855396Y-90388000D01*
X55850396Y-90393000D01*
G36*
X77877827Y-90465997D02*
X78269320Y-90857490D01*
X78370814Y-91367731D01*
X78622869Y-91468335D01*
X79317204Y-90774000D01*
X78999006Y-90455802D01*
X79066808Y-90388000D01*
X80840392Y-90388000D01*
X80908194Y-90455802D01*
X80589996Y-90774000D01*
X81284331Y-91468335D01*
X81536386Y-91367731D01*
X81616554Y-90878816D01*
X82029373Y-90465997D01*
X81951376Y-90388000D01*
X89503936Y-90388000D01*
X89503141Y-91298805D01*
X89905729Y-92273144D01*
X90650535Y-93019251D01*
X91160927Y-93231184D01*
X91908881Y-94585286D01*
X91919587Y-94597971D01*
X91924853Y-94613713D01*
X94574800Y-99251120D01*
X94574800Y-100090860D01*
X94496591Y-100466342D01*
X94498513Y-100476480D01*
X94496500Y-100486600D01*
X94503661Y-100522600D01*
X94496500Y-100558600D01*
X94496500Y-101504844D01*
X94401471Y-101274856D01*
X93656665Y-100528749D01*
X92683030Y-100124461D01*
X91628795Y-100123541D01*
X90654456Y-100526129D01*
X89908349Y-101270935D01*
X89504061Y-102244570D01*
X89503141Y-103298805D01*
X89905729Y-104273144D01*
X90650535Y-105019251D01*
X91624170Y-105423539D01*
X91827736Y-105423717D01*
X92179019Y-105775000D01*
X91366555Y-106587464D01*
X90524142Y-106935542D01*
X90495591Y-106964044D01*
X90469705Y-106938113D01*
X89514441Y-106541452D01*
X88480097Y-106540550D01*
X87524142Y-106935542D01*
X87495591Y-106964044D01*
X87469705Y-106938113D01*
X86514441Y-106541452D01*
X85480097Y-106540550D01*
X84524142Y-106935542D01*
X84495591Y-106964044D01*
X84469705Y-106938113D01*
X84226188Y-106836996D01*
X84579077Y-106484107D01*
X84126526Y-106031557D01*
X84054246Y-105668183D01*
X83806205Y-105583081D01*
X83141085Y-106248200D01*
X83423928Y-106531043D01*
X83413607Y-106541364D01*
X82625145Y-106540676D01*
X82625588Y-106033552D01*
X82753668Y-105841866D01*
X82837500Y-105420415D01*
X83240519Y-105017395D01*
X83155417Y-104769354D01*
X82900200Y-104723591D01*
X82900200Y-103795605D01*
X82900201Y-103795600D01*
X82753669Y-103058935D01*
X82603548Y-102834264D01*
X82604059Y-102249195D01*
X82201471Y-101274856D01*
X81456665Y-100528749D01*
X80483030Y-100124461D01*
X79933811Y-100123982D01*
X79940611Y-98534855D01*
X80198851Y-98277065D01*
X80603139Y-97303430D01*
X80604059Y-96249195D01*
X80201471Y-95274856D01*
X79456665Y-94528749D01*
X78724557Y-94224752D01*
X78570526Y-94120875D01*
X77936382Y-93991913D01*
X77712546Y-93851599D01*
X77535788Y-93784342D01*
X77378538Y-93679271D01*
X77129422Y-93629719D01*
X76892031Y-93539391D01*
X76702990Y-93544896D01*
X76687871Y-93541889D01*
X76665227Y-93508000D01*
X76985699Y-93028380D01*
X77169423Y-92104731D01*
X79259265Y-92104731D01*
X79359869Y-92356786D01*
X80010770Y-92463515D01*
X80547331Y-92356786D01*
X80647935Y-92104731D01*
X79953600Y-91410396D01*
X79259265Y-92104731D01*
X77169423Y-92104731D01*
X77176000Y-92071671D01*
X77176000Y-91024109D01*
X77180000Y-91004000D01*
X77180000Y-90388000D01*
X77955824Y-90388000D01*
X77877827Y-90465997D01*
X77877827Y-90465997D01*
G37*
X77877827Y-90465997D02*
X78269320Y-90857490D01*
X78370814Y-91367731D01*
X78622869Y-91468335D01*
X79317204Y-90774000D01*
X78999006Y-90455802D01*
X79066808Y-90388000D01*
X80840392Y-90388000D01*
X80908194Y-90455802D01*
X80589996Y-90774000D01*
X81284331Y-91468335D01*
X81536386Y-91367731D01*
X81616554Y-90878816D01*
X82029373Y-90465997D01*
X81951376Y-90388000D01*
X89503936Y-90388000D01*
X89503141Y-91298805D01*
X89905729Y-92273144D01*
X90650535Y-93019251D01*
X91160927Y-93231184D01*
X91908881Y-94585286D01*
X91919587Y-94597971D01*
X91924853Y-94613713D01*
X94574800Y-99251120D01*
X94574800Y-100090860D01*
X94496591Y-100466342D01*
X94498513Y-100476480D01*
X94496500Y-100486600D01*
X94503661Y-100522600D01*
X94496500Y-100558600D01*
X94496500Y-101504844D01*
X94401471Y-101274856D01*
X93656665Y-100528749D01*
X92683030Y-100124461D01*
X91628795Y-100123541D01*
X90654456Y-100526129D01*
X89908349Y-101270935D01*
X89504061Y-102244570D01*
X89503141Y-103298805D01*
X89905729Y-104273144D01*
X90650535Y-105019251D01*
X91624170Y-105423539D01*
X91827736Y-105423717D01*
X92179019Y-105775000D01*
X91366555Y-106587464D01*
X90524142Y-106935542D01*
X90495591Y-106964044D01*
X90469705Y-106938113D01*
X89514441Y-106541452D01*
X88480097Y-106540550D01*
X87524142Y-106935542D01*
X87495591Y-106964044D01*
X87469705Y-106938113D01*
X86514441Y-106541452D01*
X85480097Y-106540550D01*
X84524142Y-106935542D01*
X84495591Y-106964044D01*
X84469705Y-106938113D01*
X84226188Y-106836996D01*
X84579077Y-106484107D01*
X84126526Y-106031557D01*
X84054246Y-105668183D01*
X83806205Y-105583081D01*
X83141085Y-106248200D01*
X83423928Y-106531043D01*
X83413607Y-106541364D01*
X82625145Y-106540676D01*
X82625588Y-106033552D01*
X82753668Y-105841866D01*
X82837500Y-105420415D01*
X83240519Y-105017395D01*
X83155417Y-104769354D01*
X82900200Y-104723591D01*
X82900200Y-103795605D01*
X82900201Y-103795600D01*
X82753669Y-103058935D01*
X82603548Y-102834264D01*
X82604059Y-102249195D01*
X82201471Y-101274856D01*
X81456665Y-100528749D01*
X80483030Y-100124461D01*
X79933811Y-100123982D01*
X79940611Y-98534855D01*
X80198851Y-98277065D01*
X80603139Y-97303430D01*
X80604059Y-96249195D01*
X80201471Y-95274856D01*
X79456665Y-94528749D01*
X78724557Y-94224752D01*
X78570526Y-94120875D01*
X77936382Y-93991913D01*
X77712546Y-93851599D01*
X77535788Y-93784342D01*
X77378538Y-93679271D01*
X77129422Y-93629719D01*
X76892031Y-93539391D01*
X76702990Y-93544896D01*
X76687871Y-93541889D01*
X76665227Y-93508000D01*
X76985699Y-93028380D01*
X77169423Y-92104731D01*
X79259265Y-92104731D01*
X79359869Y-92356786D01*
X80010770Y-92463515D01*
X80547331Y-92356786D01*
X80647935Y-92104731D01*
X79953600Y-91410396D01*
X79259265Y-92104731D01*
X77169423Y-92104731D01*
X77176000Y-92071671D01*
X77176000Y-91024109D01*
X77180000Y-91004000D01*
X77180000Y-90388000D01*
X77955824Y-90388000D01*
X77877827Y-90465997D01*
G36*
X103049227Y-90529497D02*
X103440720Y-90920990D01*
X103542214Y-91431231D01*
X103794269Y-91531835D01*
X104488604Y-90837500D01*
X104170406Y-90519302D01*
X104301708Y-90388000D01*
X105948292Y-90388000D01*
X106079594Y-90519302D01*
X105761396Y-90837500D01*
X106455731Y-91531835D01*
X106707786Y-91431231D01*
X106787954Y-90942316D01*
X107200773Y-90529497D01*
X107059276Y-90388000D01*
X113787694Y-90388000D01*
X113924400Y-90718855D01*
X113924400Y-92760795D01*
X113924399Y-92760800D01*
X114028149Y-93282380D01*
X114070932Y-93497466D01*
X114398442Y-93987620D01*
X114488219Y-94121981D01*
X115143600Y-94777361D01*
X115143600Y-96545395D01*
X115143599Y-96545400D01*
X115217676Y-96917805D01*
X115290132Y-97282066D01*
X115661382Y-97837681D01*
X115707419Y-97906581D01*
X117988400Y-100187561D01*
X117988400Y-100243590D01*
X117854430Y-100187961D01*
X116800195Y-100187041D01*
X115825856Y-100589629D01*
X115079749Y-101334435D01*
X114675461Y-102308070D01*
X114674541Y-103362305D01*
X115075000Y-104331491D01*
X115075000Y-106919073D01*
X115035142Y-106935542D01*
X115006591Y-106964044D01*
X114980705Y-106938113D01*
X114025441Y-106541452D01*
X112991097Y-106540550D01*
X112035142Y-106935542D01*
X112006591Y-106964044D01*
X111980705Y-106938113D01*
X111025441Y-106541452D01*
X109991097Y-106540550D01*
X109536804Y-106728260D01*
X109770797Y-106494267D01*
X109318246Y-106041717D01*
X109245966Y-105678343D01*
X108997925Y-105593241D01*
X108332805Y-106258360D01*
X108615648Y-106541203D01*
X108442303Y-106714548D01*
X108025441Y-106541452D01*
X107816874Y-106541270D01*
X107817071Y-106315017D01*
X107944798Y-106123860D01*
X108001269Y-106039345D01*
X108145488Y-105314306D01*
X108432239Y-105027555D01*
X108347137Y-104779514D01*
X108147800Y-104743771D01*
X108147800Y-104267005D01*
X108147801Y-104267000D01*
X108001269Y-103530335D01*
X107787642Y-103210620D01*
X107774692Y-103191239D01*
X107775459Y-102312695D01*
X107372871Y-101338356D01*
X106628065Y-100592249D01*
X105654430Y-100187961D01*
X105433113Y-100187768D01*
X105400020Y-98268874D01*
X105774539Y-97366930D01*
X105775459Y-96312695D01*
X105372871Y-95338356D01*
X104628065Y-94592249D01*
X103654430Y-94187961D01*
X103063076Y-94187445D01*
X102872641Y-94074915D01*
X102721879Y-94022033D01*
X102589038Y-93933271D01*
X102311370Y-93878039D01*
X102044220Y-93784332D01*
X101884698Y-93793169D01*
X101728000Y-93762000D01*
X101557227Y-93762000D01*
X101877699Y-93282380D01*
X102068000Y-92325671D01*
X102068000Y-92168231D01*
X104430665Y-92168231D01*
X104531269Y-92420286D01*
X105182170Y-92527015D01*
X105718731Y-92420286D01*
X105819335Y-92168231D01*
X105125000Y-91473896D01*
X104430665Y-92168231D01*
X102068000Y-92168231D01*
X102068000Y-90698329D01*
X102006272Y-90388000D01*
X103190724Y-90388000D01*
X103049227Y-90529497D01*
X103049227Y-90529497D01*
G37*
X103049227Y-90529497D02*
X103440720Y-90920990D01*
X103542214Y-91431231D01*
X103794269Y-91531835D01*
X104488604Y-90837500D01*
X104170406Y-90519302D01*
X104301708Y-90388000D01*
X105948292Y-90388000D01*
X106079594Y-90519302D01*
X105761396Y-90837500D01*
X106455731Y-91531835D01*
X106707786Y-91431231D01*
X106787954Y-90942316D01*
X107200773Y-90529497D01*
X107059276Y-90388000D01*
X113787694Y-90388000D01*
X113924400Y-90718855D01*
X113924400Y-92760795D01*
X113924399Y-92760800D01*
X114028149Y-93282380D01*
X114070932Y-93497466D01*
X114398442Y-93987620D01*
X114488219Y-94121981D01*
X115143600Y-94777361D01*
X115143600Y-96545395D01*
X115143599Y-96545400D01*
X115217676Y-96917805D01*
X115290132Y-97282066D01*
X115661382Y-97837681D01*
X115707419Y-97906581D01*
X117988400Y-100187561D01*
X117988400Y-100243590D01*
X117854430Y-100187961D01*
X116800195Y-100187041D01*
X115825856Y-100589629D01*
X115079749Y-101334435D01*
X114675461Y-102308070D01*
X114674541Y-103362305D01*
X115075000Y-104331491D01*
X115075000Y-106919073D01*
X115035142Y-106935542D01*
X115006591Y-106964044D01*
X114980705Y-106938113D01*
X114025441Y-106541452D01*
X112991097Y-106540550D01*
X112035142Y-106935542D01*
X112006591Y-106964044D01*
X111980705Y-106938113D01*
X111025441Y-106541452D01*
X109991097Y-106540550D01*
X109536804Y-106728260D01*
X109770797Y-106494267D01*
X109318246Y-106041717D01*
X109245966Y-105678343D01*
X108997925Y-105593241D01*
X108332805Y-106258360D01*
X108615648Y-106541203D01*
X108442303Y-106714548D01*
X108025441Y-106541452D01*
X107816874Y-106541270D01*
X107817071Y-106315017D01*
X107944798Y-106123860D01*
X108001269Y-106039345D01*
X108145488Y-105314306D01*
X108432239Y-105027555D01*
X108347137Y-104779514D01*
X108147800Y-104743771D01*
X108147800Y-104267005D01*
X108147801Y-104267000D01*
X108001269Y-103530335D01*
X107787642Y-103210620D01*
X107774692Y-103191239D01*
X107775459Y-102312695D01*
X107372871Y-101338356D01*
X106628065Y-100592249D01*
X105654430Y-100187961D01*
X105433113Y-100187768D01*
X105400020Y-98268874D01*
X105774539Y-97366930D01*
X105775459Y-96312695D01*
X105372871Y-95338356D01*
X104628065Y-94592249D01*
X103654430Y-94187961D01*
X103063076Y-94187445D01*
X102872641Y-94074915D01*
X102721879Y-94022033D01*
X102589038Y-93933271D01*
X102311370Y-93878039D01*
X102044220Y-93784332D01*
X101884698Y-93793169D01*
X101728000Y-93762000D01*
X101557227Y-93762000D01*
X101877699Y-93282380D01*
X102068000Y-92325671D01*
X102068000Y-92168231D01*
X104430665Y-92168231D01*
X104531269Y-92420286D01*
X105182170Y-92527015D01*
X105718731Y-92420286D01*
X105819335Y-92168231D01*
X105125000Y-91473896D01*
X104430665Y-92168231D01*
X102068000Y-92168231D01*
X102068000Y-90698329D01*
X102006272Y-90388000D01*
X103190724Y-90388000D01*
X103049227Y-90529497D01*
G36*
X139733627Y-70345211D02*
X139705859Y-70372979D01*
X139488287Y-70698600D01*
X138821789Y-71363935D01*
X138417501Y-72337570D01*
X138416581Y-73391805D01*
X138819169Y-74366144D01*
X139563975Y-75112251D01*
X140537610Y-75516539D01*
X141591845Y-75517459D01*
X142566184Y-75114871D01*
X143312291Y-74370065D01*
X143716579Y-73396430D01*
X143717499Y-72342195D01*
X143636402Y-72145924D01*
X143996764Y-72146238D01*
X143992054Y-75574946D01*
X143127115Y-76217051D01*
X142542235Y-76216541D01*
X141567896Y-76619129D01*
X140821789Y-77363935D01*
X140417501Y-78337570D01*
X140416581Y-79391805D01*
X140819169Y-80366144D01*
X141563975Y-81112251D01*
X142537610Y-81516539D01*
X143591845Y-81517459D01*
X144566184Y-81114871D01*
X145312291Y-80370065D01*
X145414792Y-80123216D01*
X145927000Y-79742968D01*
X145927000Y-85693363D01*
X145648671Y-85638000D01*
X144021329Y-85638000D01*
X143064620Y-85828301D01*
X142585000Y-86148773D01*
X142335652Y-85982164D01*
X143142813Y-85175003D01*
X142751320Y-84783510D01*
X142649826Y-84273269D01*
X142397771Y-84172665D01*
X141703436Y-84867000D01*
X142021634Y-85185198D01*
X141499123Y-85707709D01*
X141214797Y-85651153D01*
X141067040Y-85503396D01*
X140932436Y-85638000D01*
X140565248Y-85638000D01*
X140112446Y-85185198D01*
X140430644Y-84867000D01*
X139736309Y-84172665D01*
X139484254Y-84273269D01*
X139404086Y-84762184D01*
X138991267Y-85175003D01*
X139465391Y-85649127D01*
X138564620Y-85828301D01*
X138085000Y-86148773D01*
X137605380Y-85828301D01*
X136648671Y-85638000D01*
X135021329Y-85638000D01*
X134064620Y-85828301D01*
X133975274Y-85888000D01*
X131312462Y-85888000D01*
X131516579Y-85396430D01*
X131517499Y-84342195D01*
X131184498Y-83536269D01*
X140372705Y-83536269D01*
X141067040Y-84230604D01*
X141761375Y-83536269D01*
X141660771Y-83284214D01*
X141009870Y-83177485D01*
X140473309Y-83284214D01*
X140372705Y-83536269D01*
X131184498Y-83536269D01*
X131114911Y-83367856D01*
X130370105Y-82621749D01*
X130329519Y-82604896D01*
X130244071Y-82188503D01*
X130235877Y-82169054D01*
X130235360Y-82147957D01*
X128746733Y-75516896D01*
X129391845Y-75517459D01*
X130366184Y-75114871D01*
X131112291Y-74370065D01*
X131516579Y-73396430D01*
X131517499Y-72342195D01*
X131117040Y-71373009D01*
X131117040Y-70100000D01*
X139488416Y-70100000D01*
X139733627Y-70345211D01*
X139733627Y-70345211D01*
G37*
X139733627Y-70345211D02*
X139705859Y-70372979D01*
X139488287Y-70698600D01*
X138821789Y-71363935D01*
X138417501Y-72337570D01*
X138416581Y-73391805D01*
X138819169Y-74366144D01*
X139563975Y-75112251D01*
X140537610Y-75516539D01*
X141591845Y-75517459D01*
X142566184Y-75114871D01*
X143312291Y-74370065D01*
X143716579Y-73396430D01*
X143717499Y-72342195D01*
X143636402Y-72145924D01*
X143996764Y-72146238D01*
X143992054Y-75574946D01*
X143127115Y-76217051D01*
X142542235Y-76216541D01*
X141567896Y-76619129D01*
X140821789Y-77363935D01*
X140417501Y-78337570D01*
X140416581Y-79391805D01*
X140819169Y-80366144D01*
X141563975Y-81112251D01*
X142537610Y-81516539D01*
X143591845Y-81517459D01*
X144566184Y-81114871D01*
X145312291Y-80370065D01*
X145414792Y-80123216D01*
X145927000Y-79742968D01*
X145927000Y-85693363D01*
X145648671Y-85638000D01*
X144021329Y-85638000D01*
X143064620Y-85828301D01*
X142585000Y-86148773D01*
X142335652Y-85982164D01*
X143142813Y-85175003D01*
X142751320Y-84783510D01*
X142649826Y-84273269D01*
X142397771Y-84172665D01*
X141703436Y-84867000D01*
X142021634Y-85185198D01*
X141499123Y-85707709D01*
X141214797Y-85651153D01*
X141067040Y-85503396D01*
X140932436Y-85638000D01*
X140565248Y-85638000D01*
X140112446Y-85185198D01*
X140430644Y-84867000D01*
X139736309Y-84172665D01*
X139484254Y-84273269D01*
X139404086Y-84762184D01*
X138991267Y-85175003D01*
X139465391Y-85649127D01*
X138564620Y-85828301D01*
X138085000Y-86148773D01*
X137605380Y-85828301D01*
X136648671Y-85638000D01*
X135021329Y-85638000D01*
X134064620Y-85828301D01*
X133975274Y-85888000D01*
X131312462Y-85888000D01*
X131516579Y-85396430D01*
X131517499Y-84342195D01*
X131184498Y-83536269D01*
X140372705Y-83536269D01*
X141067040Y-84230604D01*
X141761375Y-83536269D01*
X141660771Y-83284214D01*
X141009870Y-83177485D01*
X140473309Y-83284214D01*
X140372705Y-83536269D01*
X131184498Y-83536269D01*
X131114911Y-83367856D01*
X130370105Y-82621749D01*
X130329519Y-82604896D01*
X130244071Y-82188503D01*
X130235877Y-82169054D01*
X130235360Y-82147957D01*
X128746733Y-75516896D01*
X129391845Y-75517459D01*
X130366184Y-75114871D01*
X131112291Y-74370065D01*
X131516579Y-73396430D01*
X131517499Y-72342195D01*
X131117040Y-71373009D01*
X131117040Y-70100000D01*
X139488416Y-70100000D01*
X139733627Y-70345211D01*
G36*
X90977154Y-70176017D02*
X91225195Y-70261119D01*
X91386314Y-70100000D01*
X92173720Y-70100000D01*
X92088312Y-70529374D01*
X91790881Y-70826805D01*
X91875983Y-71074846D01*
X92086000Y-71112504D01*
X92086000Y-71361742D01*
X91765749Y-71681435D01*
X91361461Y-72655070D01*
X91360541Y-73709305D01*
X91763129Y-74683644D01*
X92507935Y-75429751D01*
X92626500Y-75478983D01*
X92626500Y-80644995D01*
X92626499Y-80645000D01*
X92727454Y-81152532D01*
X92773032Y-81381666D01*
X93153923Y-81951710D01*
X93190319Y-82006181D01*
X94305934Y-83121796D01*
X93927510Y-83500220D01*
X93417269Y-83601714D01*
X93316665Y-83853769D01*
X94011000Y-84548104D01*
X94329198Y-84229906D01*
X94754549Y-84655257D01*
X94211608Y-85197252D01*
X93924785Y-85888000D01*
X93441708Y-85888000D01*
X93056406Y-85502698D01*
X93374604Y-85184500D01*
X92680269Y-84490165D01*
X92428214Y-84590769D01*
X92348046Y-85079684D01*
X91935227Y-85492503D01*
X92330724Y-85888000D01*
X84388259Y-85888000D01*
X84460539Y-85713930D01*
X84461459Y-84659695D01*
X84058871Y-83685356D01*
X83314065Y-82939249D01*
X82340430Y-82534961D01*
X81568503Y-82534287D01*
X79917818Y-81588233D01*
X79897800Y-76145004D01*
X79897800Y-75018900D01*
X80307935Y-75429751D01*
X81281570Y-75834039D01*
X82335805Y-75834959D01*
X83310144Y-75432371D01*
X84056251Y-74687565D01*
X84460539Y-73713930D01*
X84461459Y-72659695D01*
X84061000Y-71690509D01*
X84061000Y-70377980D01*
X84338980Y-70100000D01*
X90962033Y-70100000D01*
X90977154Y-70176017D01*
X90977154Y-70176017D01*
G37*
X90977154Y-70176017D02*
X91225195Y-70261119D01*
X91386314Y-70100000D01*
X92173720Y-70100000D01*
X92088312Y-70529374D01*
X91790881Y-70826805D01*
X91875983Y-71074846D01*
X92086000Y-71112504D01*
X92086000Y-71361742D01*
X91765749Y-71681435D01*
X91361461Y-72655070D01*
X91360541Y-73709305D01*
X91763129Y-74683644D01*
X92507935Y-75429751D01*
X92626500Y-75478983D01*
X92626500Y-80644995D01*
X92626499Y-80645000D01*
X92727454Y-81152532D01*
X92773032Y-81381666D01*
X93153923Y-81951710D01*
X93190319Y-82006181D01*
X94305934Y-83121796D01*
X93927510Y-83500220D01*
X93417269Y-83601714D01*
X93316665Y-83853769D01*
X94011000Y-84548104D01*
X94329198Y-84229906D01*
X94754549Y-84655257D01*
X94211608Y-85197252D01*
X93924785Y-85888000D01*
X93441708Y-85888000D01*
X93056406Y-85502698D01*
X93374604Y-85184500D01*
X92680269Y-84490165D01*
X92428214Y-84590769D01*
X92348046Y-85079684D01*
X91935227Y-85492503D01*
X92330724Y-85888000D01*
X84388259Y-85888000D01*
X84460539Y-85713930D01*
X84461459Y-84659695D01*
X84058871Y-83685356D01*
X83314065Y-82939249D01*
X82340430Y-82534961D01*
X81568503Y-82534287D01*
X79917818Y-81588233D01*
X79897800Y-76145004D01*
X79897800Y-75018900D01*
X80307935Y-75429751D01*
X81281570Y-75834039D01*
X82335805Y-75834959D01*
X83310144Y-75432371D01*
X84056251Y-74687565D01*
X84460539Y-73713930D01*
X84461459Y-72659695D01*
X84061000Y-71690509D01*
X84061000Y-70377980D01*
X84338980Y-70100000D01*
X90962033Y-70100000D01*
X90977154Y-70176017D01*
G36*
X65968856Y-70766449D02*
X65222749Y-71511255D01*
X64818461Y-72484890D01*
X64817541Y-73539125D01*
X65220129Y-74513464D01*
X65898679Y-75193199D01*
X65880299Y-75285600D01*
X65880300Y-75285605D01*
X65880300Y-80797395D01*
X65880299Y-80797400D01*
X65981342Y-81305371D01*
X66026832Y-81534066D01*
X66349207Y-82016535D01*
X66444119Y-82158581D01*
X67500044Y-83214506D01*
X67384510Y-83330040D01*
X66874269Y-83431534D01*
X66773665Y-83683589D01*
X67468000Y-84377924D01*
X67786198Y-84059726D01*
X67836100Y-84109628D01*
X67836100Y-85777267D01*
X67790120Y-85888000D01*
X67705284Y-85888000D01*
X67468000Y-85650716D01*
X67230716Y-85888000D01*
X67068888Y-85888000D01*
X66513406Y-85332518D01*
X66831604Y-85014320D01*
X66137269Y-84319985D01*
X65885214Y-84420589D01*
X65805046Y-84909504D01*
X65392227Y-85322323D01*
X65957904Y-85888000D01*
X57774594Y-85888000D01*
X57917539Y-85543750D01*
X57918459Y-84489515D01*
X57515871Y-83515176D01*
X56771065Y-82769069D01*
X56538706Y-82672585D01*
X55082000Y-79960063D01*
X55082000Y-75664159D01*
X55792805Y-75664779D01*
X56767144Y-75262191D01*
X57513251Y-74517385D01*
X57917539Y-73543750D01*
X57918459Y-72489515D01*
X57836146Y-72290303D01*
X58839871Y-71084000D01*
X62615792Y-71084000D01*
X62870672Y-71033301D01*
X63130387Y-71024363D01*
X63297138Y-70948472D01*
X63476830Y-70912729D01*
X63692905Y-70768352D01*
X63929432Y-70660705D01*
X64047220Y-70576000D01*
X66429779Y-70576000D01*
X65968856Y-70766449D01*
X65968856Y-70766449D01*
G37*
X65968856Y-70766449D02*
X65222749Y-71511255D01*
X64818461Y-72484890D01*
X64817541Y-73539125D01*
X65220129Y-74513464D01*
X65898679Y-75193199D01*
X65880299Y-75285600D01*
X65880300Y-75285605D01*
X65880300Y-80797395D01*
X65880299Y-80797400D01*
X65981342Y-81305371D01*
X66026832Y-81534066D01*
X66349207Y-82016535D01*
X66444119Y-82158581D01*
X67500044Y-83214506D01*
X67384510Y-83330040D01*
X66874269Y-83431534D01*
X66773665Y-83683589D01*
X67468000Y-84377924D01*
X67786198Y-84059726D01*
X67836100Y-84109628D01*
X67836100Y-85777267D01*
X67790120Y-85888000D01*
X67705284Y-85888000D01*
X67468000Y-85650716D01*
X67230716Y-85888000D01*
X67068888Y-85888000D01*
X66513406Y-85332518D01*
X66831604Y-85014320D01*
X66137269Y-84319985D01*
X65885214Y-84420589D01*
X65805046Y-84909504D01*
X65392227Y-85322323D01*
X65957904Y-85888000D01*
X57774594Y-85888000D01*
X57917539Y-85543750D01*
X57918459Y-84489515D01*
X57515871Y-83515176D01*
X56771065Y-82769069D01*
X56538706Y-82672585D01*
X55082000Y-79960063D01*
X55082000Y-75664159D01*
X55792805Y-75664779D01*
X56767144Y-75262191D01*
X57513251Y-74517385D01*
X57917539Y-73543750D01*
X57918459Y-72489515D01*
X57836146Y-72290303D01*
X58839871Y-71084000D01*
X62615792Y-71084000D01*
X62870672Y-71033301D01*
X63130387Y-71024363D01*
X63297138Y-70948472D01*
X63476830Y-70912729D01*
X63692905Y-70768352D01*
X63929432Y-70660705D01*
X64047220Y-70576000D01*
X66429779Y-70576000D01*
X65968856Y-70766449D01*
G36*
X113964154Y-70430017D02*
X114212195Y-70515119D01*
X114627315Y-70100000D01*
X115154085Y-70100000D01*
X115067399Y-70535800D01*
X115067400Y-70535805D01*
X115067400Y-70791286D01*
X114777881Y-71080805D01*
X114862983Y-71328846D01*
X115067400Y-71365500D01*
X115067400Y-71591395D01*
X115067399Y-71591400D01*
X115187754Y-72196462D01*
X115213932Y-72328066D01*
X115618804Y-72934000D01*
X115631219Y-72952581D01*
X115808436Y-73129798D01*
X115808041Y-73582305D01*
X116210629Y-74556644D01*
X116540600Y-74887191D01*
X116540600Y-80136995D01*
X116540599Y-80137000D01*
X116657223Y-80723305D01*
X116687132Y-80873666D01*
X116973837Y-81302751D01*
X117104419Y-81498181D01*
X118677234Y-83070996D01*
X118375010Y-83373220D01*
X117864769Y-83474714D01*
X117764165Y-83726769D01*
X118458500Y-84421104D01*
X118776698Y-84102906D01*
X118902800Y-84229008D01*
X118902800Y-85019200D01*
X117783804Y-85019200D01*
X117127769Y-84363165D01*
X116875714Y-84463769D01*
X116798154Y-84936780D01*
X116512959Y-84818357D01*
X115697419Y-84817645D01*
X114943685Y-85129081D01*
X114366508Y-85705252D01*
X114290624Y-85888000D01*
X108783024Y-85888000D01*
X108908039Y-85586930D01*
X108908959Y-84532695D01*
X108506371Y-83558356D01*
X107761565Y-82812249D01*
X106787930Y-82407961D01*
X106655473Y-82407845D01*
X104215514Y-80768951D01*
X104154800Y-76083830D01*
X104154800Y-74701067D01*
X104755435Y-75302751D01*
X105729070Y-75707039D01*
X106783305Y-75707959D01*
X107757644Y-75305371D01*
X108503751Y-74560565D01*
X108908039Y-73586930D01*
X108908959Y-72532695D01*
X108506371Y-71558356D01*
X107761565Y-70812249D01*
X106898000Y-70453666D01*
X106898000Y-70100000D01*
X113898509Y-70100000D01*
X113964154Y-70430017D01*
X113964154Y-70430017D01*
G37*
X113964154Y-70430017D02*
X114212195Y-70515119D01*
X114627315Y-70100000D01*
X115154085Y-70100000D01*
X115067399Y-70535800D01*
X115067400Y-70535805D01*
X115067400Y-70791286D01*
X114777881Y-71080805D01*
X114862983Y-71328846D01*
X115067400Y-71365500D01*
X115067400Y-71591395D01*
X115067399Y-71591400D01*
X115187754Y-72196462D01*
X115213932Y-72328066D01*
X115618804Y-72934000D01*
X115631219Y-72952581D01*
X115808436Y-73129798D01*
X115808041Y-73582305D01*
X116210629Y-74556644D01*
X116540600Y-74887191D01*
X116540600Y-80136995D01*
X116540599Y-80137000D01*
X116657223Y-80723305D01*
X116687132Y-80873666D01*
X116973837Y-81302751D01*
X117104419Y-81498181D01*
X118677234Y-83070996D01*
X118375010Y-83373220D01*
X117864769Y-83474714D01*
X117764165Y-83726769D01*
X118458500Y-84421104D01*
X118776698Y-84102906D01*
X118902800Y-84229008D01*
X118902800Y-85019200D01*
X117783804Y-85019200D01*
X117127769Y-84363165D01*
X116875714Y-84463769D01*
X116798154Y-84936780D01*
X116512959Y-84818357D01*
X115697419Y-84817645D01*
X114943685Y-85129081D01*
X114366508Y-85705252D01*
X114290624Y-85888000D01*
X108783024Y-85888000D01*
X108908039Y-85586930D01*
X108908959Y-84532695D01*
X108506371Y-83558356D01*
X107761565Y-82812249D01*
X106787930Y-82407961D01*
X106655473Y-82407845D01*
X104215514Y-80768951D01*
X104154800Y-76083830D01*
X104154800Y-74701067D01*
X104755435Y-75302751D01*
X105729070Y-75707039D01*
X106783305Y-75707959D01*
X107757644Y-75305371D01*
X108503751Y-74560565D01*
X108908039Y-73586930D01*
X108908959Y-72532695D01*
X108506371Y-71558356D01*
X107761565Y-70812249D01*
X106898000Y-70453666D01*
X106898000Y-70100000D01*
X113898509Y-70100000D01*
X113964154Y-70430017D01*
M02*
