G04 #@! TF.FileFunction,Copper,L2,Bot,Signal*
%FSLAX46Y46*%
G04 Gerber Fmt 4.6, Leading zero omitted, Abs format (unit mm)*
G04 Created by KiCad (PCBNEW 4.0.7) date 09/11/18 13:09:52*
%MOMM*%
%LPD*%
G01*
G04 APERTURE LIST*
%ADD10C,0.100000*%
%ADD11R,1.800000X1.800000*%
%ADD12C,1.800000*%
%ADD13R,1.600000X1.600000*%
%ADD14O,1.600000X1.600000*%
%ADD15C,1.600000*%
%ADD16R,2.600000X2.000000*%
%ADD17O,2.600000X2.000000*%
%ADD18R,3.000000X3.000000*%
%ADD19C,3.000000*%
%ADD20R,1.700000X1.700000*%
%ADD21O,1.700000X1.700000*%
%ADD22C,4.064000*%
%ADD23C,5.500000*%
%ADD24C,1.700000*%
%ADD25C,2.400000*%
%ADD26R,4.000000X4.000000*%
%ADD27C,1.524000*%
%ADD28O,1.500000X3.000000*%
%ADD29O,3.000000X1.500000*%
%ADD30C,2.500000*%
%ADD31O,2.500000X2.500000*%
%ADD32C,0.600000*%
%ADD33C,1.000000*%
%ADD34C,0.350000*%
%ADD35C,0.500000*%
G04 APERTURE END LIST*
D10*
D11*
X138811000Y-139319000D03*
D12*
X138811000Y-141859000D03*
D13*
X73025000Y-127762000D03*
D14*
X80645000Y-148082000D03*
X73025000Y-130302000D03*
X80645000Y-145542000D03*
X73025000Y-132842000D03*
X80645000Y-143002000D03*
X73025000Y-135382000D03*
X80645000Y-140462000D03*
X73025000Y-137922000D03*
X80645000Y-137922000D03*
X73025000Y-140462000D03*
X80645000Y-135382000D03*
X73025000Y-143002000D03*
X80645000Y-132842000D03*
X73025000Y-145542000D03*
X80645000Y-130302000D03*
X73025000Y-148082000D03*
X80645000Y-127762000D03*
D15*
X61595000Y-132842000D03*
D14*
X69215000Y-132842000D03*
D11*
X125222000Y-139319000D03*
D12*
X125222000Y-141859000D03*
D16*
X56494680Y-142438120D03*
D17*
X56494680Y-139898120D03*
X56494680Y-137358120D03*
X56494680Y-134818120D03*
X56494680Y-132278120D03*
D15*
X143764000Y-136271000D03*
D14*
X143764000Y-128651000D03*
D11*
X120650000Y-139319000D03*
D12*
X120650000Y-141859000D03*
D13*
X101473000Y-127889000D03*
D14*
X109093000Y-148209000D03*
X101473000Y-130429000D03*
X109093000Y-145669000D03*
X101473000Y-132969000D03*
X109093000Y-143129000D03*
X101473000Y-135509000D03*
X109093000Y-140589000D03*
X101473000Y-138049000D03*
X109093000Y-138049000D03*
X101473000Y-140589000D03*
X109093000Y-135509000D03*
X101473000Y-143129000D03*
X109093000Y-132969000D03*
X101473000Y-145669000D03*
X109093000Y-130429000D03*
X101473000Y-148209000D03*
X109093000Y-127889000D03*
D18*
X54203600Y-117195600D03*
D19*
X54203600Y-112115600D03*
D18*
X84836000Y-54610000D03*
D19*
X89916000Y-54610000D03*
D15*
X62992000Y-119126000D03*
X60492000Y-119126000D03*
X79756000Y-119380000D03*
X77256000Y-119380000D03*
X108585000Y-119253000D03*
X106085000Y-119253000D03*
X127762000Y-118973600D03*
X125262000Y-118973600D03*
X134670800Y-118859300D03*
X137170800Y-118859300D03*
X117094000Y-118973600D03*
X119594000Y-118973600D03*
X100965000Y-119189500D03*
X98465000Y-119189500D03*
X69596000Y-119126000D03*
X72096000Y-119126000D03*
X62738000Y-129413000D03*
X65238000Y-129413000D03*
D13*
X58102500Y-125857000D03*
D15*
X53102500Y-125857000D03*
D20*
X69596000Y-146558000D03*
D21*
X69596000Y-144018000D03*
X69596000Y-141478000D03*
D20*
X66040000Y-146558000D03*
D21*
X66040000Y-144018000D03*
X66040000Y-141478000D03*
D20*
X62484000Y-146558000D03*
D21*
X62484000Y-144018000D03*
X62484000Y-141478000D03*
D15*
X61595000Y-136144000D03*
D14*
X69215000Y-136144000D03*
D18*
X53848000Y-65532000D03*
D19*
X53848000Y-60452000D03*
D22*
X53000000Y-53000000D03*
D23*
X53000000Y-147000000D03*
X147002500Y-147002500D03*
D22*
X147002500Y-52959000D03*
D11*
X129794000Y-139319000D03*
D12*
X129794000Y-141859000D03*
D11*
X134239000Y-139319000D03*
D12*
X134239000Y-141859000D03*
D11*
X143383000Y-139319000D03*
D12*
X143383000Y-141859000D03*
D11*
X147828000Y-139319000D03*
D12*
X147828000Y-141859000D03*
D15*
X116141500Y-136969500D03*
D14*
X116141500Y-129349500D03*
D15*
X120777000Y-137160000D03*
D14*
X120777000Y-129540000D03*
D15*
X125095000Y-136906000D03*
D14*
X125095000Y-129286000D03*
D15*
X129857500Y-136715500D03*
D14*
X129857500Y-129095500D03*
D15*
X134239000Y-136144000D03*
D14*
X134239000Y-128524000D03*
D15*
X138684000Y-136271000D03*
D14*
X138684000Y-128651000D03*
D15*
X148463000Y-136271000D03*
D14*
X148463000Y-128651000D03*
D24*
X92249000Y-108633000D03*
X89249000Y-108633000D03*
X86249000Y-108633000D03*
X83249000Y-108633000D03*
X92249000Y-115633000D03*
X89249000Y-115633000D03*
X86249000Y-115633000D03*
X83249000Y-115633000D03*
D25*
X95249000Y-111633000D03*
X79629000Y-111633000D03*
D24*
X72335400Y-108709200D03*
X69335400Y-108709200D03*
X66335400Y-108709200D03*
X63335400Y-108709200D03*
X72335400Y-115709200D03*
X69335400Y-115709200D03*
X66335400Y-115709200D03*
X63335400Y-115709200D03*
D25*
X75335400Y-111709200D03*
X59715400Y-111709200D03*
D24*
X116760000Y-108633000D03*
X113760000Y-108633000D03*
X110760000Y-108633000D03*
X107760000Y-108633000D03*
X116760000Y-115633000D03*
X113760000Y-115633000D03*
X110760000Y-115633000D03*
X107760000Y-115633000D03*
D25*
X119760000Y-111633000D03*
X104140000Y-111633000D03*
D24*
X139239000Y-109014000D03*
X136239000Y-109014000D03*
X133239000Y-109014000D03*
X130239000Y-109014000D03*
X139239000Y-116014000D03*
X136239000Y-116014000D03*
X133239000Y-116014000D03*
X130239000Y-116014000D03*
D25*
X142239000Y-112014000D03*
X126619000Y-112014000D03*
D24*
X129366000Y-67516000D03*
X132366000Y-67516000D03*
X135366000Y-67516000D03*
X138366000Y-67516000D03*
X129366000Y-60516000D03*
X132366000Y-60516000D03*
X135366000Y-60516000D03*
X138366000Y-60516000D03*
D25*
X126366000Y-64516000D03*
X141986000Y-64516000D03*
D24*
X108157000Y-67389000D03*
X111157000Y-67389000D03*
X114157000Y-67389000D03*
X117157000Y-67389000D03*
X108157000Y-60389000D03*
X111157000Y-60389000D03*
X114157000Y-60389000D03*
X117157000Y-60389000D03*
D25*
X105157000Y-64389000D03*
X120777000Y-64389000D03*
D24*
X85170000Y-67516000D03*
X88170000Y-67516000D03*
X91170000Y-67516000D03*
X94170000Y-67516000D03*
X85170000Y-60516000D03*
X88170000Y-60516000D03*
X91170000Y-60516000D03*
X94170000Y-60516000D03*
D25*
X82170000Y-64516000D03*
X97790000Y-64516000D03*
D15*
X69342000Y-129667000D03*
X69342000Y-127167000D03*
D26*
X118388500Y-104472500D03*
X106188500Y-104472500D03*
X118388500Y-92472500D03*
X104188500Y-98472500D03*
D27*
X105188500Y-91472500D03*
X117388500Y-91472500D03*
X117388500Y-103472500D03*
X103188500Y-97472500D03*
X105188500Y-103472500D03*
X105188500Y-97472500D03*
X103188500Y-99472500D03*
X105188500Y-99472500D03*
X107188500Y-91472500D03*
X105188500Y-93472500D03*
X107188500Y-93472500D03*
X107188500Y-103472500D03*
X105188500Y-105472500D03*
X107188500Y-105472500D03*
X119388500Y-103472500D03*
X117388500Y-105472500D03*
X119388500Y-105472500D03*
X119388500Y-91472500D03*
X117388500Y-93472500D03*
X119388500Y-93472500D03*
D26*
X106188500Y-92472500D03*
X80811000Y-71943200D03*
X93011000Y-71943200D03*
X80811000Y-83943200D03*
X95011000Y-77943200D03*
D27*
X94011000Y-84943200D03*
X81811000Y-84943200D03*
X81811000Y-72943200D03*
X96011000Y-78943200D03*
X94011000Y-72943200D03*
X94011000Y-78943200D03*
X96011000Y-76943200D03*
X94011000Y-76943200D03*
X92011000Y-84943200D03*
X94011000Y-82943200D03*
X92011000Y-82943200D03*
X92011000Y-72943200D03*
X94011000Y-70943200D03*
X92011000Y-70943200D03*
X79811000Y-72943200D03*
X81811000Y-70943200D03*
X79811000Y-70943200D03*
X79811000Y-84943200D03*
X81811000Y-82943200D03*
X79811000Y-82943200D03*
D26*
X93011000Y-83943200D03*
X63132600Y-53538360D03*
X75332600Y-53538360D03*
X63132600Y-65538360D03*
X77332600Y-59538360D03*
D27*
X76332600Y-66538360D03*
X64132600Y-66538360D03*
X64132600Y-54538360D03*
X78332600Y-60538360D03*
X76332600Y-54538360D03*
X76332600Y-60538360D03*
X78332600Y-58538360D03*
X76332600Y-58538360D03*
X74332600Y-66538360D03*
X76332600Y-64538360D03*
X74332600Y-64538360D03*
X74332600Y-54538360D03*
X76332600Y-52538360D03*
X74332600Y-52538360D03*
X62132600Y-54538360D03*
X64132600Y-52538360D03*
X62132600Y-52538360D03*
X62132600Y-66538360D03*
X64132600Y-64538360D03*
X62132600Y-64538360D03*
D26*
X75332600Y-65538360D03*
X56300000Y-71994000D03*
X68500000Y-71994000D03*
X56300000Y-83994000D03*
X70500000Y-77994000D03*
D27*
X69500000Y-84994000D03*
X57300000Y-84994000D03*
X57300000Y-72994000D03*
X71500000Y-78994000D03*
X69500000Y-72994000D03*
X69500000Y-78994000D03*
X71500000Y-76994000D03*
X69500000Y-76994000D03*
X67500000Y-84994000D03*
X69500000Y-82994000D03*
X67500000Y-82994000D03*
X67500000Y-72994000D03*
X69500000Y-70994000D03*
X67500000Y-70994000D03*
X55300000Y-72994000D03*
X57300000Y-70994000D03*
X55300000Y-70994000D03*
X55300000Y-84994000D03*
X57300000Y-82994000D03*
X55300000Y-82994000D03*
D26*
X68500000Y-83994000D03*
X105347400Y-71673960D03*
X117547400Y-71673960D03*
X105347400Y-83673960D03*
X119547400Y-77673960D03*
D27*
X118547400Y-84673960D03*
X106347400Y-84673960D03*
X106347400Y-72673960D03*
X120547400Y-78673960D03*
X118547400Y-72673960D03*
X118547400Y-78673960D03*
X120547400Y-76673960D03*
X118547400Y-76673960D03*
X116547400Y-84673960D03*
X118547400Y-82673960D03*
X116547400Y-82673960D03*
X116547400Y-72673960D03*
X118547400Y-70673960D03*
X116547400Y-70673960D03*
X104347400Y-72673960D03*
X106347400Y-70673960D03*
X104347400Y-70673960D03*
X104347400Y-84673960D03*
X106347400Y-82673960D03*
X104347400Y-82673960D03*
D26*
X117547400Y-83673960D03*
X129706000Y-71765400D03*
X141906000Y-71765400D03*
X129706000Y-83765400D03*
X143906000Y-77765400D03*
D27*
X142906000Y-84765400D03*
X130706000Y-84765400D03*
X130706000Y-72765400D03*
X144906000Y-78765400D03*
X142906000Y-72765400D03*
X142906000Y-78765400D03*
X144906000Y-76765400D03*
X142906000Y-76765400D03*
X140906000Y-84765400D03*
X142906000Y-82765400D03*
X140906000Y-82765400D03*
X140906000Y-72765400D03*
X142906000Y-70765400D03*
X140906000Y-70765400D03*
X128706000Y-72765400D03*
X130706000Y-70765400D03*
X128706000Y-70765400D03*
X128706000Y-84765400D03*
X130706000Y-82765400D03*
X128706000Y-82765400D03*
D26*
X141906000Y-83765400D03*
X143026500Y-104853500D03*
X130826500Y-104853500D03*
X143026500Y-92853500D03*
X128826500Y-98853500D03*
D27*
X129826500Y-91853500D03*
X142026500Y-91853500D03*
X142026500Y-103853500D03*
X127826500Y-97853500D03*
X129826500Y-103853500D03*
X129826500Y-97853500D03*
X127826500Y-99853500D03*
X129826500Y-99853500D03*
X131826500Y-91853500D03*
X129826500Y-93853500D03*
X131826500Y-93853500D03*
X131826500Y-103853500D03*
X129826500Y-105853500D03*
X131826500Y-105853500D03*
X144026500Y-103853500D03*
X142026500Y-105853500D03*
X144026500Y-105853500D03*
X144026500Y-91853500D03*
X142026500Y-93853500D03*
X144026500Y-93853500D03*
D26*
X130826500Y-92853500D03*
X93115500Y-104409000D03*
X80915500Y-104409000D03*
X93115500Y-92409000D03*
X78915500Y-98409000D03*
D27*
X79915500Y-91409000D03*
X92115500Y-91409000D03*
X92115500Y-103409000D03*
X77915500Y-97409000D03*
X79915500Y-103409000D03*
X79915500Y-97409000D03*
X77915500Y-99409000D03*
X79915500Y-99409000D03*
X81915500Y-91409000D03*
X79915500Y-93409000D03*
X81915500Y-93409000D03*
X81915500Y-103409000D03*
X79915500Y-105409000D03*
X81915500Y-105409000D03*
X94115500Y-103409000D03*
X92115500Y-105409000D03*
X94115500Y-105409000D03*
X94115500Y-91409000D03*
X92115500Y-93409000D03*
X94115500Y-93409000D03*
D26*
X80915500Y-92409000D03*
X68414000Y-104409000D03*
X56214000Y-104409000D03*
X68414000Y-92409000D03*
X54214000Y-98409000D03*
D27*
X55214000Y-91409000D03*
X67414000Y-91409000D03*
X67414000Y-103409000D03*
X53214000Y-97409000D03*
X55214000Y-103409000D03*
X55214000Y-97409000D03*
X53214000Y-99409000D03*
X55214000Y-99409000D03*
X57214000Y-91409000D03*
X55214000Y-93409000D03*
X57214000Y-93409000D03*
X57214000Y-103409000D03*
X55214000Y-105409000D03*
X57214000Y-105409000D03*
X69414000Y-103409000D03*
X67414000Y-105409000D03*
X69414000Y-105409000D03*
X69414000Y-91409000D03*
X67414000Y-93409000D03*
X69414000Y-93409000D03*
D26*
X56214000Y-92409000D03*
D28*
X74930000Y-80518000D03*
X74930000Y-85018000D03*
X74930000Y-76018000D03*
X99314000Y-79756000D03*
X99314000Y-84256000D03*
X99314000Y-75256000D03*
X123698000Y-79756000D03*
X123698000Y-84256000D03*
X123698000Y-75256000D03*
X124714000Y-96012000D03*
X124714000Y-91512000D03*
X124714000Y-100512000D03*
X99568000Y-96012000D03*
X99568000Y-91512000D03*
X99568000Y-100512000D03*
X74676000Y-95758000D03*
X74676000Y-91258000D03*
X74676000Y-100258000D03*
D29*
X140335000Y-88138000D03*
X135835000Y-88138000D03*
X144835000Y-88138000D03*
D20*
X61849000Y-123063000D03*
X68580000Y-123190000D03*
X75692000Y-123190000D03*
X83058000Y-123063000D03*
X90932000Y-123317000D03*
X101219000Y-123317000D03*
X111252000Y-123190000D03*
X120904000Y-123317000D03*
X128524000Y-123063000D03*
X139954000Y-123190000D03*
X148209000Y-123190000D03*
D15*
X90297000Y-130302000D03*
D14*
X97917000Y-130302000D03*
D15*
X90297000Y-132842000D03*
D14*
X97917000Y-132842000D03*
D15*
X90297000Y-135255000D03*
D14*
X97917000Y-135255000D03*
D15*
X90297000Y-137668000D03*
D14*
X97917000Y-137668000D03*
D15*
X90424000Y-140081000D03*
D14*
X98044000Y-140081000D03*
D15*
X90424000Y-142621000D03*
D14*
X98044000Y-142621000D03*
D15*
X90424000Y-145034000D03*
D14*
X98044000Y-145034000D03*
D15*
X90551000Y-147701000D03*
D14*
X98171000Y-147701000D03*
D11*
X116078000Y-139319000D03*
D12*
X116078000Y-141859000D03*
D15*
X83820000Y-130175000D03*
X86320000Y-130175000D03*
X83820000Y-132842000D03*
X86320000Y-132842000D03*
X83566000Y-135382000D03*
X86066000Y-135382000D03*
X83693000Y-137922000D03*
X86193000Y-137922000D03*
X83693000Y-140525500D03*
X86193000Y-140525500D03*
X83756500Y-143129000D03*
X86256500Y-143129000D03*
X83756500Y-145796000D03*
X86256500Y-145796000D03*
X83693000Y-148272500D03*
X86193000Y-148272500D03*
D30*
X112966500Y-148145500D03*
D31*
X120586500Y-148145500D03*
D30*
X90297000Y-127381000D03*
D31*
X97917000Y-127381000D03*
D15*
X113710720Y-144556480D03*
X116210720Y-144556480D03*
X59182000Y-148590000D03*
X59182000Y-146090000D03*
X141686280Y-148280120D03*
X141686280Y-145780120D03*
D32*
X112776000Y-135763000D03*
X122936000Y-126619000D03*
X146685000Y-111302800D03*
X122555000Y-125349000D03*
X121412000Y-90106500D03*
X118046500Y-86868000D03*
X116205000Y-134112000D03*
X111633000Y-134620000D03*
X111061500Y-132905500D03*
X91186000Y-87058500D03*
X96837500Y-90170000D03*
X144272000Y-126619000D03*
X140208000Y-127571500D03*
X120142000Y-132778500D03*
X116332000Y-132778500D03*
X112395000Y-133731000D03*
X111760000Y-131953000D03*
X71945500Y-90551000D03*
X64770000Y-86423500D03*
X73152000Y-59055000D03*
D33*
X77915500Y-99409000D02*
X77915500Y-109094000D01*
X77915500Y-109094000D02*
X79629000Y-111633000D01*
X74676000Y-95758000D02*
X76517500Y-95758000D01*
X76517500Y-95758000D02*
X77915500Y-97156000D01*
X77915500Y-97156000D02*
X77915500Y-97409000D01*
X75335400Y-111709200D02*
X75335400Y-110821200D01*
X75335400Y-110821200D02*
X74676000Y-109918500D01*
X74676000Y-109918500D02*
X74676000Y-100258000D01*
X74676000Y-100258000D02*
X72699000Y-100258000D01*
X69414000Y-96973000D02*
X69414000Y-93409000D01*
X72699000Y-100258000D02*
X69414000Y-96973000D01*
X103188500Y-99472500D02*
X103188500Y-100519500D01*
X101346000Y-108394500D02*
X104140000Y-111633000D01*
X101219000Y-103886000D02*
X101346000Y-108394500D01*
X103188500Y-100519500D02*
X101219000Y-103886000D01*
X99568000Y-96012000D02*
X101728000Y-96012000D01*
X101728000Y-96012000D02*
X103188500Y-97472500D01*
X94115500Y-93409000D02*
X94115500Y-95944300D01*
X96824800Y-98653600D02*
X96824800Y-100487305D01*
X94115500Y-95944300D02*
X96824800Y-98653600D01*
X99568000Y-100512000D02*
X96824800Y-100487305D01*
X96824800Y-100487305D02*
X96746500Y-100486600D01*
X96818500Y-100558600D02*
X96746500Y-100558600D01*
X96746500Y-100486600D02*
X96818500Y-100558600D01*
X96746500Y-100558600D02*
X96746500Y-110365100D01*
X96746500Y-110365100D02*
X96647000Y-110998000D01*
X95249000Y-111633000D02*
X96647000Y-110998000D01*
X127826500Y-99853500D02*
X127826500Y-100837000D01*
X126619000Y-111188500D02*
X126619000Y-112014000D01*
X126619000Y-103251000D02*
X126619000Y-111188500D01*
X127826500Y-100837000D02*
X126619000Y-103251000D01*
X124714000Y-96012000D02*
X125985000Y-96012000D01*
X125985000Y-96012000D02*
X127826500Y-97853500D01*
X121697750Y-100393500D02*
X124595500Y-100393500D01*
X124595500Y-100393500D02*
X124714000Y-100512000D01*
X121697750Y-98901250D02*
X121697750Y-100393500D01*
X121697750Y-100393500D02*
X121697750Y-109251750D01*
X121697750Y-109251750D02*
X121856500Y-109093000D01*
X119760000Y-111633000D02*
X120396000Y-111633000D01*
X120396000Y-111633000D02*
X121856500Y-109093000D01*
X119388500Y-93472500D02*
X119388500Y-96592000D01*
X119388500Y-96592000D02*
X121697750Y-98901250D01*
X143906000Y-77765400D02*
X138388600Y-77765400D01*
X138388600Y-77765400D02*
X136906000Y-79248000D01*
X136906000Y-79248000D02*
X136906000Y-84709000D01*
X136906000Y-84709000D02*
X140335000Y-88138000D01*
X145367400Y-78304000D02*
X144906000Y-78765400D01*
X141986000Y-64516000D02*
X143306800Y-64516000D01*
X146253200Y-75418200D02*
X144906000Y-76765400D01*
X146253200Y-67462400D02*
X146253200Y-75418200D01*
X143306800Y-64516000D02*
X146253200Y-67462400D01*
X140335000Y-88138000D02*
X140335000Y-88519000D01*
X144026500Y-93853500D02*
X144026500Y-94623500D01*
X146240500Y-108012500D02*
X142239000Y-112014000D01*
X146240500Y-96837500D02*
X146240500Y-108012500D01*
X144026500Y-94623500D02*
X146240500Y-96837500D01*
X144835000Y-88138000D02*
X144835000Y-91045000D01*
X144835000Y-91045000D02*
X144026500Y-91853500D01*
X144026500Y-91853500D02*
X144620500Y-91853500D01*
X120547400Y-76673960D02*
X120547400Y-75286600D01*
X121539000Y-74295000D02*
X121475500Y-65087500D01*
X120547400Y-75286600D02*
X121539000Y-74295000D01*
X121475500Y-65087500D02*
X120777000Y-64389000D01*
X123698000Y-79756000D02*
X121629440Y-79756000D01*
X121629440Y-79756000D02*
X120547400Y-78673960D01*
X126366000Y-75184000D02*
X123770000Y-75184000D01*
X123770000Y-75184000D02*
X123698000Y-75256000D01*
X126366000Y-64516000D02*
X126366000Y-75184000D01*
X126366000Y-75184000D02*
X126366000Y-80425400D01*
X126366000Y-80425400D02*
X128706000Y-82765400D01*
X96011000Y-76943200D02*
X96011000Y-75185000D01*
X97790000Y-71564500D02*
X97790000Y-64516000D01*
X96901000Y-72453500D02*
X97790000Y-71564500D01*
X96901000Y-74295000D02*
X96901000Y-72453500D01*
X96011000Y-75185000D02*
X96901000Y-74295000D01*
X99314000Y-79756000D02*
X96823800Y-79756000D01*
X96823800Y-79756000D02*
X96011000Y-78943200D01*
X101904800Y-76098400D02*
X101904800Y-67641200D01*
X101904800Y-67641200D02*
X105157000Y-64389000D01*
X104673400Y-64389000D02*
X105157000Y-64389000D01*
X99314000Y-75256000D02*
X101477200Y-75256000D01*
X101904800Y-80231360D02*
X104347400Y-82673960D01*
X101904800Y-75683600D02*
X101904800Y-76098400D01*
X101904800Y-76098400D02*
X101904800Y-80231360D01*
X101477200Y-75256000D02*
X101904800Y-75683600D01*
X105157000Y-64389000D02*
X104838500Y-64389000D01*
X74930000Y-80518000D02*
X73024000Y-80518000D01*
X73024000Y-80518000D02*
X71500000Y-78994000D01*
X77647800Y-76149200D02*
X75061200Y-76149200D01*
X75061200Y-76149200D02*
X74930000Y-76018000D01*
X82170000Y-64516000D02*
X82170000Y-64565800D01*
X82170000Y-64565800D02*
X77647800Y-69088000D01*
X77647800Y-80780000D02*
X79811000Y-82943200D01*
X77647800Y-69088000D02*
X77647800Y-76149200D01*
X77647800Y-76149200D02*
X77647800Y-80780000D01*
X81915000Y-64516000D02*
X82170000Y-64516000D01*
X91925000Y-108309000D02*
X92249000Y-108633000D01*
X139239000Y-109014000D02*
X139882000Y-109014000D01*
X57300000Y-70994000D02*
X62102000Y-70994000D01*
X82804000Y-56642000D02*
X84836000Y-54610000D01*
X71882000Y-56642000D02*
X82804000Y-56642000D01*
X69088000Y-59436000D02*
X71882000Y-56642000D01*
X69088000Y-67818000D02*
X69088000Y-59436000D01*
X68072000Y-68834000D02*
X69088000Y-67818000D01*
X64262000Y-68834000D02*
X68072000Y-68834000D01*
X62102000Y-70994000D02*
X64262000Y-68834000D01*
X53848000Y-65532000D02*
X53594000Y-65532000D01*
X53594000Y-65532000D02*
X52832000Y-66294000D01*
X52832000Y-66294000D02*
X52832000Y-80526000D01*
X52832000Y-80526000D02*
X55300000Y-82994000D01*
D34*
X114554000Y-130302000D02*
X115189000Y-130302000D01*
X114173000Y-130683000D02*
X114554000Y-130302000D01*
X114173000Y-136271000D02*
X114173000Y-130683000D01*
X112776000Y-137668000D02*
X114173000Y-136271000D01*
X110998000Y-139446000D02*
X112776000Y-137668000D01*
X110998000Y-144018000D02*
X110998000Y-139446000D01*
X109347000Y-145669000D02*
X110998000Y-144018000D01*
X115189000Y-130302000D02*
X116141500Y-129349500D01*
X109093000Y-145669000D02*
X109347000Y-145669000D01*
X105918000Y-141986000D02*
X109093000Y-145669000D01*
X105918000Y-127762000D02*
X105918000Y-141986000D01*
X105029000Y-125984000D02*
X105918000Y-127762000D01*
X62016000Y-120650000D02*
X74676000Y-120650000D01*
X74676000Y-120650000D02*
X75882500Y-121348500D01*
X62016000Y-120650000D02*
X60492000Y-119126000D01*
X75882500Y-121348500D02*
X92392500Y-121348500D01*
X59436000Y-107631000D02*
X59436000Y-107797600D01*
X60579000Y-114173000D02*
X60579000Y-119039000D01*
X61366400Y-113385600D02*
X60579000Y-114173000D01*
X61366400Y-110667800D02*
X61366400Y-113385600D01*
X60706000Y-110007400D02*
X61366400Y-110667800D01*
X60706000Y-109067600D02*
X60706000Y-110007400D01*
X59436000Y-107797600D02*
X60706000Y-109067600D01*
X60579000Y-119039000D02*
X60579000Y-118999000D01*
X59436000Y-107631000D02*
X57214000Y-105409000D01*
X93980000Y-122809000D02*
X94742000Y-122809000D01*
X99314000Y-125984000D02*
X105029000Y-125984000D01*
X94742000Y-122809000D02*
X99314000Y-125984000D01*
X93980000Y-122809000D02*
X92392500Y-121348500D01*
X77152500Y-119039000D02*
X78001500Y-119039000D01*
X79915500Y-108935000D02*
X79915500Y-105409000D01*
X81724500Y-110744000D02*
X79915500Y-108935000D01*
X81724500Y-113284000D02*
X81724500Y-110744000D01*
X80200500Y-114808000D02*
X81724500Y-113284000D01*
X80200500Y-116840000D02*
X80200500Y-114808000D01*
X78001500Y-119039000D02*
X80200500Y-116840000D01*
X109093000Y-140589000D02*
X109093000Y-140081000D01*
X109093000Y-140081000D02*
X110490000Y-138684000D01*
X110490000Y-138684000D02*
X110490000Y-138049000D01*
X110490000Y-138049000D02*
X112776000Y-135763000D01*
X106997500Y-123825000D02*
X108331000Y-123825000D01*
X107569000Y-131699000D02*
X106997500Y-132270500D01*
X109982000Y-131699000D02*
X107569000Y-131699000D01*
X110744000Y-130937000D02*
X109982000Y-131699000D01*
X110744000Y-126238000D02*
X110744000Y-130937000D01*
X108331000Y-123825000D02*
X110744000Y-126238000D01*
X106997500Y-132270500D02*
X106997500Y-138493500D01*
X106997500Y-138493500D02*
X109093000Y-140589000D01*
X106997500Y-123825000D02*
X106997500Y-120165500D01*
X106997500Y-120165500D02*
X106085000Y-119253000D01*
X104203500Y-117500400D02*
X104332400Y-117500400D01*
X104332400Y-117500400D02*
X106085000Y-119253000D01*
X104203500Y-117500400D02*
X104203500Y-114681000D01*
X105188500Y-109760500D02*
X105188500Y-105472500D01*
X105981500Y-110553500D02*
X105188500Y-109760500D01*
X105981500Y-112903000D02*
X105981500Y-110553500D01*
X104203500Y-114681000D02*
X105981500Y-112903000D01*
X122936000Y-126619000D02*
X123761500Y-125793500D01*
X123761500Y-125793500D02*
X123761500Y-125412500D01*
X123761500Y-125412500D02*
X123825000Y-125349000D01*
X123825000Y-125349000D02*
X123761500Y-125349000D01*
X123761500Y-125349000D02*
X123761500Y-123761500D01*
X123761500Y-123761500D02*
X123317000Y-123317000D01*
X123317000Y-123317000D02*
X123317000Y-120436000D01*
X125349000Y-118404000D02*
X123317000Y-120436000D01*
X125349000Y-118404000D02*
X125349000Y-116395500D01*
X125349000Y-116395500D02*
X129222500Y-112522000D01*
X129222500Y-112522000D02*
X129222500Y-111506000D01*
X129222500Y-111506000D02*
X127762000Y-110045500D01*
X127762000Y-110045500D02*
X127762000Y-107918000D01*
X127762000Y-107918000D02*
X129826500Y-105853500D01*
X131794250Y-124428250D02*
X133350000Y-125984000D01*
X133350000Y-125984000D02*
X133731000Y-128016000D01*
X133731000Y-128016000D02*
X134239000Y-128524000D01*
X113157000Y-133985000D02*
X113157000Y-129159000D01*
X113157000Y-129159000D02*
X115062000Y-127508000D01*
X115062000Y-127508000D02*
X128778000Y-127508000D01*
X128778000Y-127508000D02*
X129921000Y-126365000D01*
X129921000Y-126365000D02*
X129921000Y-126301500D01*
X109093000Y-135509000D02*
X111887000Y-135509000D01*
X111887000Y-135509000D02*
X113157000Y-133985000D01*
X137287000Y-118861200D02*
X145222600Y-118861200D01*
X145897600Y-118186200D02*
X145897600Y-118287800D01*
X145222600Y-118861200D02*
X145897600Y-118186200D01*
X146735800Y-111353600D02*
X146685000Y-111302800D01*
X146735800Y-117449600D02*
X146735800Y-111353600D01*
X145897600Y-118287800D02*
X146735800Y-117449600D01*
X136192900Y-120029600D02*
X137287000Y-118861200D01*
X129921000Y-126301500D02*
X131794250Y-124428250D01*
X131794250Y-124428250D02*
X136192900Y-120029600D01*
X116840000Y-124968000D02*
X117729000Y-124968000D01*
X117729000Y-124968000D02*
X118110000Y-125349000D01*
X118110000Y-125349000D02*
X122555000Y-125349000D01*
X109093000Y-132969000D02*
X110109000Y-132969000D01*
X113665000Y-125476000D02*
X116840000Y-125476000D01*
X111823500Y-126619000D02*
X113665000Y-125476000D01*
X111823500Y-130556000D02*
X111823500Y-126619000D01*
X110109000Y-132969000D02*
X111823500Y-130556000D01*
X113855500Y-75365860D02*
X113855500Y-85661500D01*
X113855500Y-85661500D02*
X115125500Y-86931500D01*
X119951500Y-118404000D02*
X119951500Y-116713000D01*
X119951500Y-116713000D02*
X124587000Y-112077500D01*
X124587000Y-112077500D02*
X124587000Y-104140000D01*
X124587000Y-104140000D02*
X126111000Y-101981000D01*
X126111000Y-101981000D02*
X126111000Y-98552000D01*
X126111000Y-98552000D02*
X124904500Y-98171000D01*
X124904500Y-98171000D02*
X123761500Y-98171000D01*
X123761500Y-98171000D02*
X121412000Y-95694500D01*
X121412000Y-95694500D02*
X121412000Y-90106500D01*
X118046500Y-86868000D02*
X117983000Y-86931500D01*
X117983000Y-86931500D02*
X115125500Y-86931500D01*
X113855500Y-75365860D02*
X116547400Y-72673960D01*
X116840000Y-121515500D02*
X119951500Y-118404000D01*
X116840000Y-125476000D02*
X116840000Y-124968000D01*
X116840000Y-124968000D02*
X116840000Y-121515500D01*
X143764000Y-129730500D02*
X143764000Y-128651000D01*
X139700000Y-133794500D02*
X143764000Y-129730500D01*
X116522500Y-133794500D02*
X139700000Y-133794500D01*
X116205000Y-134112000D02*
X116522500Y-133794500D01*
X111633000Y-133477000D02*
X111633000Y-134620000D01*
X111061500Y-132905500D02*
X111633000Y-133477000D01*
X98465000Y-119189500D02*
X98401500Y-115022000D01*
X98401500Y-115022000D02*
X99822000Y-113601500D01*
X101346000Y-99060000D02*
X99949000Y-98171000D01*
X89344500Y-75609700D02*
X92011000Y-72943200D01*
X101346000Y-101092000D02*
X101346000Y-99060000D01*
X99822000Y-103886000D02*
X101346000Y-101092000D01*
X99822000Y-113601500D02*
X99822000Y-103886000D01*
X89344500Y-85217000D02*
X89344500Y-75609700D01*
X91186000Y-87058500D02*
X89344500Y-85217000D01*
X96837500Y-96075500D02*
X96837500Y-90170000D01*
X98425000Y-98171000D02*
X96837500Y-96075500D01*
X99949000Y-98171000D02*
X98425000Y-98171000D01*
X141160500Y-126619000D02*
X144272000Y-126619000D01*
X140208000Y-127571500D02*
X141160500Y-126619000D01*
X116332000Y-132778500D02*
X120142000Y-132778500D01*
X112395000Y-132588000D02*
X112395000Y-133731000D01*
X111760000Y-131953000D02*
X112395000Y-132588000D01*
X99568000Y-125349000D02*
X108204000Y-125349000D01*
X99568000Y-125349000D02*
X93091000Y-120650000D01*
X93091000Y-120650000D02*
X75946000Y-120650000D01*
X74422000Y-119126000D02*
X75946000Y-120650000D01*
X74422000Y-118364000D02*
X74422000Y-119126000D01*
X109093000Y-127000000D02*
X109093000Y-127889000D01*
X108204000Y-125349000D02*
X109093000Y-127000000D01*
X76327000Y-99187000D02*
X76327000Y-109042200D01*
X76327000Y-109042200D02*
X77470000Y-110185200D01*
X75488800Y-117297200D02*
X74422000Y-118364000D01*
X74422000Y-118364000D02*
X73683500Y-119102500D01*
X71945500Y-119102500D02*
X73683500Y-119102500D01*
X77470000Y-110185200D02*
X77470000Y-113233200D01*
X77470000Y-113233200D02*
X75488800Y-115214400D01*
X75488800Y-115214400D02*
X75488800Y-117297200D01*
X76327000Y-99187000D02*
X74930000Y-98044000D01*
X74930000Y-98044000D02*
X72898000Y-98044000D01*
X72898000Y-98044000D02*
X71945500Y-96837500D01*
X71945500Y-96837500D02*
X71945500Y-90551000D01*
X64770000Y-86423500D02*
X64325500Y-85979000D01*
X64325500Y-85979000D02*
X64325500Y-76168500D01*
X64325500Y-76168500D02*
X67500000Y-72994000D01*
X149098000Y-128193800D02*
X148844000Y-128193800D01*
D35*
X69500000Y-70994000D02*
X69500000Y-70581000D01*
X69500000Y-70581000D02*
X71501000Y-68580000D01*
X71501000Y-68580000D02*
X71501000Y-60706000D01*
X71501000Y-60706000D02*
X73152000Y-59055000D01*
X69342000Y-127167000D02*
X69616960Y-127167000D01*
X69616960Y-127167000D02*
X70632320Y-126151640D01*
X79034640Y-126151640D02*
X80645000Y-127762000D01*
X70632320Y-126151640D02*
X79034640Y-126151640D01*
X65238000Y-129413000D02*
X65238000Y-129707000D01*
X65238000Y-129707000D02*
X61595000Y-132842000D01*
X61595000Y-136144000D02*
X61468000Y-132969000D01*
X61468000Y-132969000D02*
X61595000Y-132842000D01*
X56494680Y-139898120D02*
X60904120Y-139898120D01*
X60904120Y-139898120D02*
X62484000Y-141478000D01*
X61595000Y-136144000D02*
X61976000Y-140970000D01*
X61976000Y-140970000D02*
X62484000Y-141478000D01*
D34*
X61976000Y-140970000D02*
X62484000Y-141478000D01*
D35*
X80645000Y-127762000D02*
X89916000Y-127762000D01*
X89916000Y-127762000D02*
X90297000Y-127381000D01*
D34*
X61722000Y-136017000D02*
X61595000Y-136144000D01*
D33*
X65238000Y-129413000D02*
X65238000Y-128945000D01*
X65238000Y-128945000D02*
X67016000Y-127167000D01*
X67016000Y-127167000D02*
X69342000Y-127167000D01*
X58102500Y-125857000D02*
X58102500Y-126111000D01*
X58102500Y-126111000D02*
X59944000Y-127000000D01*
X59944000Y-127000000D02*
X64008000Y-127000000D01*
X64008000Y-127000000D02*
X65238000Y-128230000D01*
X65238000Y-128230000D02*
X65238000Y-129413000D01*
D34*
X69596000Y-144018000D02*
X70739000Y-144018000D01*
X70739000Y-144018000D02*
X71501000Y-143256000D01*
X71501000Y-143256000D02*
X71501000Y-139446000D01*
X71501000Y-139446000D02*
X73025000Y-137922000D01*
X66040000Y-144018000D02*
X67056000Y-144018000D01*
X67056000Y-144018000D02*
X67818000Y-143256000D01*
X67818000Y-143256000D02*
X67818000Y-139954000D01*
X67818000Y-139954000D02*
X67945000Y-139827000D01*
X67945000Y-139827000D02*
X70358000Y-139827000D01*
X70358000Y-139827000D02*
X70993000Y-139192000D01*
X70993000Y-139192000D02*
X70993000Y-138303000D01*
X70993000Y-138303000D02*
X71755000Y-137541000D01*
X71755000Y-137541000D02*
X71755000Y-136652000D01*
X71755000Y-136652000D02*
X73025000Y-135382000D01*
X66040000Y-144018000D02*
X66167000Y-144018000D01*
X72390000Y-135382000D02*
X73025000Y-135382000D01*
X62484000Y-144018000D02*
X63373000Y-144018000D01*
X63373000Y-144018000D02*
X64389000Y-143002000D01*
X64389000Y-143002000D02*
X64389000Y-140208000D01*
X64389000Y-140208000D02*
X65659000Y-138938000D01*
X65659000Y-138938000D02*
X69088000Y-138938000D01*
X69088000Y-138938000D02*
X71120000Y-136906000D01*
X71120000Y-136906000D02*
X71120000Y-134620000D01*
X71120000Y-134620000D02*
X72898000Y-132842000D01*
X72898000Y-132842000D02*
X73025000Y-132842000D01*
X69215000Y-136144000D02*
X69215000Y-136017000D01*
X69215000Y-136017000D02*
X70358000Y-134874000D01*
X70358000Y-134874000D02*
X70358000Y-133731000D01*
X70358000Y-133731000D02*
X71628000Y-132461000D01*
X71628000Y-132461000D02*
X71628000Y-131699000D01*
X71628000Y-131699000D02*
X73025000Y-130302000D01*
X69215000Y-132842000D02*
X69723000Y-132842000D01*
X69723000Y-132842000D02*
X70993000Y-131572000D01*
X70993000Y-131572000D02*
X70993000Y-129794000D01*
X70993000Y-129794000D02*
X73025000Y-127762000D01*
D33*
X54214000Y-98409000D02*
X54214000Y-98156000D01*
X54214000Y-98156000D02*
X52070000Y-96012000D01*
X52070000Y-96012000D02*
X52070000Y-89408000D01*
X52070000Y-89408000D02*
X53340000Y-88138000D01*
X53340000Y-88138000D02*
X76200000Y-88138000D01*
X74930000Y-85018000D02*
X74930000Y-91004000D01*
X74930000Y-91004000D02*
X74676000Y-91258000D01*
X74676000Y-91258000D02*
X74676000Y-89662000D01*
X76200000Y-88138000D02*
X99568000Y-88138000D01*
X74676000Y-89662000D02*
X76200000Y-88138000D01*
X99568000Y-88138000D02*
X124206000Y-88138000D01*
X124206000Y-88138000D02*
X124714000Y-88646000D01*
X99568000Y-91512000D02*
X99568000Y-88138000D01*
X99568000Y-88138000D02*
X99568000Y-84510000D01*
X99568000Y-84510000D02*
X99314000Y-84256000D01*
X123698000Y-84256000D02*
X123698000Y-87630000D01*
X123698000Y-87630000D02*
X124714000Y-88646000D01*
X124714000Y-88646000D02*
X124714000Y-91512000D01*
X124714000Y-91512000D02*
X124714000Y-90678000D01*
X124714000Y-90678000D02*
X127254000Y-88138000D01*
X127254000Y-88138000D02*
X135835000Y-88138000D01*
X56197500Y-108712000D02*
X59715400Y-111709200D01*
X52680600Y-108484400D02*
X52933600Y-108737400D01*
X52933600Y-108737400D02*
X56197500Y-108712000D01*
X52680600Y-108484400D02*
X53315600Y-111227600D01*
X53315600Y-111227600D02*
X54203600Y-112115600D01*
X53214000Y-97409000D02*
X52959000Y-97409000D01*
X99314000Y-91258000D02*
X99568000Y-91512000D01*
X54711600Y-112623600D02*
X54203600Y-112115600D01*
X99504500Y-84446500D02*
X99314000Y-84256000D01*
X52680600Y-99434400D02*
X52680600Y-108484400D01*
X62132600Y-64538360D02*
X62132600Y-64418600D01*
X62132600Y-64418600D02*
X58166000Y-60452000D01*
X58166000Y-60452000D02*
X53848000Y-60452000D01*
X89916000Y-54610000D02*
X89408000Y-54610000D01*
X89408000Y-54610000D02*
X85344000Y-50546000D01*
X85344000Y-50546000D02*
X66124960Y-50546000D01*
X66124960Y-50546000D02*
X64132600Y-52538360D01*
D34*
X116141500Y-136969500D02*
X116141500Y-139255500D01*
X116141500Y-139255500D02*
X116078000Y-139319000D01*
X120777000Y-137160000D02*
X120777000Y-139192000D01*
X120777000Y-139192000D02*
X120650000Y-139319000D01*
X125095000Y-136906000D02*
X125095000Y-139192000D01*
X125095000Y-139192000D02*
X125222000Y-139319000D01*
X129857500Y-136715500D02*
X130048000Y-139065000D01*
X130048000Y-139065000D02*
X129794000Y-139319000D01*
X130208020Y-137066020D02*
X129857500Y-136715500D01*
X134239000Y-139319000D02*
X134239000Y-136144000D01*
X134752080Y-136657080D02*
X134239000Y-136144000D01*
X138684000Y-136271000D02*
X138684000Y-139192000D01*
X138684000Y-139192000D02*
X138811000Y-139319000D01*
X143383000Y-139319000D02*
X143383000Y-136652000D01*
X143383000Y-136652000D02*
X143764000Y-136271000D01*
X148463000Y-136271000D02*
X148463000Y-138684000D01*
X148463000Y-138684000D02*
X147828000Y-139319000D01*
X148945600Y-135966200D02*
X149098000Y-135813800D01*
D33*
X61442600Y-123215400D02*
X61595000Y-123063000D01*
D34*
X68580000Y-123190000D02*
X68580000Y-123647200D01*
X120904000Y-123317000D02*
X120904000Y-123814840D01*
X139954000Y-123190000D02*
X139613640Y-123190000D01*
D33*
X90678000Y-123063000D02*
X90932000Y-123317000D01*
X82931000Y-123190000D02*
X83058000Y-123063000D01*
X68427600Y-123037600D02*
X68580000Y-123190000D01*
D35*
X100965000Y-119189500D02*
X100926900Y-119189500D01*
X100926900Y-119189500D02*
X99415600Y-120700800D01*
X94894400Y-119380000D02*
X79756000Y-119380000D01*
X96215200Y-120700800D02*
X94894400Y-119380000D01*
X99415600Y-120700800D02*
X96215200Y-120700800D01*
X113710720Y-144556480D02*
X112458500Y-144526000D01*
X112458500Y-144526000D02*
X112395000Y-144589500D01*
X145859500Y-141859000D02*
X145859500Y-121539000D01*
X147138400Y-83765400D02*
X141906000Y-83765400D01*
X149161500Y-85788500D02*
X147138400Y-83765400D01*
X149161500Y-118681500D02*
X149161500Y-85788500D01*
X148209000Y-119634000D02*
X149161500Y-118681500D01*
X147764500Y-119634000D02*
X148209000Y-119634000D01*
X145859500Y-121539000D02*
X147764500Y-119634000D01*
X147828000Y-141859000D02*
X145859500Y-141859000D01*
X145859500Y-141859000D02*
X145796000Y-141859000D01*
X145796000Y-141859000D02*
X143383000Y-141859000D01*
X143383000Y-141859000D02*
X138811000Y-141859000D01*
X134239000Y-141859000D02*
X138811000Y-141859000D01*
X129794000Y-141859000D02*
X134239000Y-141859000D01*
X125222000Y-141859000D02*
X129794000Y-141859000D01*
X120650000Y-141859000D02*
X125222000Y-141859000D01*
X116078000Y-141859000D02*
X120650000Y-141859000D01*
X109093000Y-148209000D02*
X109093000Y-147891500D01*
X109093000Y-147891500D02*
X112395000Y-144589500D01*
X114236500Y-141859000D02*
X116078000Y-141859000D01*
X112395000Y-143700500D02*
X114236500Y-141859000D01*
X112395000Y-144589500D02*
X112395000Y-143700500D01*
X97917000Y-127381000D02*
X99060000Y-127381000D01*
X99060000Y-127381000D02*
X99831998Y-126609002D01*
X99831998Y-126609002D02*
X102606002Y-126609002D01*
X102606002Y-126609002D02*
X104902000Y-128905000D01*
X104902000Y-128905000D02*
X104902000Y-144018000D01*
X104902000Y-144018000D02*
X109093000Y-148209000D01*
D34*
X67500000Y-82994000D02*
X67500000Y-81851000D01*
X74332600Y-72288900D02*
X74332600Y-66538360D01*
X71691500Y-74930000D02*
X74332600Y-72288900D01*
X67881500Y-74930000D02*
X71691500Y-74930000D01*
X67183000Y-75628500D02*
X67881500Y-74930000D01*
X67183000Y-81534000D02*
X67183000Y-75628500D01*
X67500000Y-81851000D02*
X67183000Y-81534000D01*
X83820000Y-130175000D02*
X83820000Y-129667000D01*
X83820000Y-129667000D02*
X84582000Y-128905000D01*
X88900000Y-128905000D02*
X90297000Y-130302000D01*
X84582000Y-128905000D02*
X88900000Y-128905000D01*
X83820000Y-130175000D02*
X80772000Y-130429000D01*
X80772000Y-130429000D02*
X80645000Y-130302000D01*
X101473000Y-127889000D02*
X100330000Y-127889000D01*
X100330000Y-127889000D02*
X97917000Y-130302000D01*
X83820000Y-132842000D02*
X83820000Y-132715000D01*
X83820000Y-132715000D02*
X84963000Y-131572000D01*
X89027000Y-131572000D02*
X90297000Y-132842000D01*
X84963000Y-131572000D02*
X89027000Y-131572000D01*
X80645000Y-132842000D02*
X83820000Y-132842000D01*
X97917000Y-132842000D02*
X99060000Y-132842000D01*
X99060000Y-132842000D02*
X101473000Y-130429000D01*
X83566000Y-135382000D02*
X83566000Y-135128000D01*
X83566000Y-135128000D02*
X84582000Y-134112000D01*
X89154000Y-134112000D02*
X90297000Y-135255000D01*
X84582000Y-134112000D02*
X89154000Y-134112000D01*
X83566000Y-135382000D02*
X80645000Y-135382000D01*
X97917000Y-135255000D02*
X99187000Y-135255000D01*
X99187000Y-135255000D02*
X101473000Y-132969000D01*
X83693000Y-137922000D02*
X84963000Y-136652000D01*
X89154000Y-136652000D02*
X90170000Y-137668000D01*
X84963000Y-136652000D02*
X89154000Y-136652000D01*
X90170000Y-137668000D02*
X90297000Y-137668000D01*
X83693000Y-137922000D02*
X80772000Y-137795000D01*
X80772000Y-137795000D02*
X80645000Y-137922000D01*
X97917000Y-137668000D02*
X99314000Y-137668000D01*
X99314000Y-137668000D02*
X101473000Y-135509000D01*
X83693000Y-140525500D02*
X83693000Y-140398500D01*
X83693000Y-140398500D02*
X84709000Y-139192000D01*
X89535000Y-139192000D02*
X90424000Y-140081000D01*
X84709000Y-139192000D02*
X89535000Y-139192000D01*
X80645000Y-140462000D02*
X83693000Y-140525500D01*
X98044000Y-140081000D02*
X99441000Y-140081000D01*
X99441000Y-140081000D02*
X101473000Y-138049000D01*
X83756500Y-143129000D02*
X83756500Y-142748000D01*
X83756500Y-142748000D02*
X84455000Y-141732000D01*
X89535000Y-141732000D02*
X90424000Y-142621000D01*
X84455000Y-141732000D02*
X89535000Y-141732000D01*
X80645000Y-143002000D02*
X83629500Y-143002000D01*
X83629500Y-143002000D02*
X83756500Y-143129000D01*
X98044000Y-142621000D02*
X99441000Y-142621000D01*
X99441000Y-142621000D02*
X101473000Y-140589000D01*
X83756500Y-145796000D02*
X84836000Y-144526000D01*
X89535000Y-145034000D02*
X90424000Y-145034000D01*
X89027000Y-144526000D02*
X89535000Y-145034000D01*
X84836000Y-144526000D02*
X89027000Y-144526000D01*
X80645000Y-145542000D02*
X83502500Y-145542000D01*
X83502500Y-145542000D02*
X83756500Y-145796000D01*
X98044000Y-145034000D02*
X99568000Y-145034000D01*
X99568000Y-145034000D02*
X101473000Y-143129000D01*
X83693000Y-148272500D02*
X83693000Y-148018500D01*
X83693000Y-148018500D02*
X84582000Y-147002500D01*
X84582000Y-147002500D02*
X90043000Y-147002500D01*
X90043000Y-147002500D02*
X90551000Y-147701000D01*
X80645000Y-148082000D02*
X83312000Y-147891500D01*
X83312000Y-147891500D02*
X83693000Y-148272500D01*
X98171000Y-147701000D02*
X99441000Y-147701000D01*
X99441000Y-147701000D02*
X101473000Y-145669000D01*
D35*
G36*
X79092200Y-127623414D02*
X79064634Y-127762000D01*
X79182621Y-128355159D01*
X79518618Y-128858016D01*
X79779004Y-129032000D01*
X79518618Y-129205984D01*
X79182621Y-129708841D01*
X79064634Y-130302000D01*
X79182621Y-130895159D01*
X79518618Y-131398016D01*
X79779004Y-131572000D01*
X79518618Y-131745984D01*
X79182621Y-132248841D01*
X79064634Y-132842000D01*
X79182621Y-133435159D01*
X79518618Y-133938016D01*
X79779004Y-134112000D01*
X79518618Y-134285984D01*
X79182621Y-134788841D01*
X79064634Y-135382000D01*
X79182621Y-135975159D01*
X79518618Y-136478016D01*
X79779004Y-136652000D01*
X79518618Y-136825984D01*
X79182621Y-137328841D01*
X79064634Y-137922000D01*
X79182621Y-138515159D01*
X79518618Y-139018016D01*
X79779004Y-139192000D01*
X79518618Y-139365984D01*
X79182621Y-139868841D01*
X79064634Y-140462000D01*
X79182621Y-141055159D01*
X79518618Y-141558016D01*
X79779004Y-141732000D01*
X79518618Y-141905984D01*
X79182621Y-142408841D01*
X79064634Y-143002000D01*
X79182621Y-143595159D01*
X79518618Y-144098016D01*
X79779004Y-144272000D01*
X79518618Y-144445984D01*
X79182621Y-144948841D01*
X79064634Y-145542000D01*
X79182621Y-146135159D01*
X79518618Y-146638016D01*
X79779004Y-146812000D01*
X79518618Y-146985984D01*
X79182621Y-147488841D01*
X79064634Y-148082000D01*
X79182621Y-148675159D01*
X79516603Y-149175000D01*
X74275002Y-149175000D01*
X74275002Y-148974061D01*
X74449665Y-148712631D01*
X74333737Y-148482000D01*
X73425000Y-148482000D01*
X73425000Y-148882000D01*
X72625000Y-148882000D01*
X72625000Y-148482000D01*
X71716263Y-148482000D01*
X71600335Y-148712631D01*
X71774998Y-148974061D01*
X71774998Y-149175000D01*
X60702000Y-149175000D01*
X60702000Y-148971265D01*
X60731730Y-148899667D01*
X60732268Y-148283039D01*
X60702000Y-148209785D01*
X60702000Y-147172500D01*
X60876000Y-147172500D01*
X60876000Y-147558775D01*
X60991398Y-147837372D01*
X61204627Y-148050601D01*
X61483224Y-148166000D01*
X61869500Y-148166000D01*
X62059000Y-147976500D01*
X62059000Y-146983000D01*
X62909000Y-146983000D01*
X62909000Y-147976500D01*
X63098500Y-148166000D01*
X63484776Y-148166000D01*
X63763373Y-148050601D01*
X63976602Y-147837372D01*
X64092000Y-147558775D01*
X64092000Y-147172500D01*
X64432000Y-147172500D01*
X64432000Y-147558775D01*
X64547398Y-147837372D01*
X64760627Y-148050601D01*
X65039224Y-148166000D01*
X65425500Y-148166000D01*
X65615000Y-147976500D01*
X65615000Y-146983000D01*
X66465000Y-146983000D01*
X66465000Y-147976500D01*
X66654500Y-148166000D01*
X67040776Y-148166000D01*
X67319373Y-148050601D01*
X67532602Y-147837372D01*
X67648000Y-147558775D01*
X67648000Y-147172500D01*
X67988000Y-147172500D01*
X67988000Y-147558775D01*
X68103398Y-147837372D01*
X68316627Y-148050601D01*
X68595224Y-148166000D01*
X68981500Y-148166000D01*
X69171000Y-147976500D01*
X69171000Y-146983000D01*
X70021000Y-146983000D01*
X70021000Y-147976500D01*
X70210500Y-148166000D01*
X70596776Y-148166000D01*
X70875373Y-148050601D01*
X71088602Y-147837372D01*
X71204000Y-147558775D01*
X71204000Y-147172500D01*
X71014500Y-146983000D01*
X70021000Y-146983000D01*
X69171000Y-146983000D01*
X68177500Y-146983000D01*
X67988000Y-147172500D01*
X67648000Y-147172500D01*
X67458500Y-146983000D01*
X66465000Y-146983000D01*
X65615000Y-146983000D01*
X64621500Y-146983000D01*
X64432000Y-147172500D01*
X64092000Y-147172500D01*
X63902500Y-146983000D01*
X62909000Y-146983000D01*
X62059000Y-146983000D01*
X61065500Y-146983000D01*
X60876000Y-147172500D01*
X60702000Y-147172500D01*
X60702000Y-146809584D01*
X61185677Y-146325907D01*
X60949770Y-146090000D01*
X60986135Y-146053635D01*
X61065500Y-146133000D01*
X62059000Y-146133000D01*
X62059000Y-145708000D01*
X62909000Y-145708000D01*
X62909000Y-146133000D01*
X63902500Y-146133000D01*
X64092000Y-145943500D01*
X64092000Y-145557225D01*
X63976602Y-145278628D01*
X63763373Y-145065399D01*
X63734002Y-145053233D01*
X63734002Y-145018739D01*
X63916082Y-144746237D01*
X64027074Y-144672074D01*
X64453864Y-144245284D01*
X64530447Y-144630293D01*
X64789998Y-145018739D01*
X64789998Y-145053233D01*
X64760627Y-145065399D01*
X64547398Y-145278628D01*
X64432000Y-145557225D01*
X64432000Y-145943500D01*
X64621500Y-146133000D01*
X65615000Y-146133000D01*
X65615000Y-145708000D01*
X66465000Y-145708000D01*
X66465000Y-146133000D01*
X67458500Y-146133000D01*
X67648000Y-145943500D01*
X67648000Y-145557225D01*
X67532602Y-145278628D01*
X67319373Y-145065399D01*
X67290002Y-145053233D01*
X67290002Y-145018739D01*
X67384234Y-144877711D01*
X67409983Y-144872589D01*
X67710074Y-144672074D01*
X68030934Y-144351214D01*
X68086447Y-144630293D01*
X68345998Y-145018739D01*
X68345998Y-145053233D01*
X68316627Y-145065399D01*
X68103398Y-145278628D01*
X67988000Y-145557225D01*
X67988000Y-145943500D01*
X68177500Y-146133000D01*
X69171000Y-146133000D01*
X69171000Y-145708000D01*
X70021000Y-145708000D01*
X70021000Y-146133000D01*
X71014500Y-146133000D01*
X71204000Y-145943500D01*
X71204000Y-145557225D01*
X71088602Y-145278628D01*
X70875373Y-145065399D01*
X70846002Y-145053233D01*
X70846002Y-145018739D01*
X70920768Y-144906844D01*
X71092983Y-144872589D01*
X71393074Y-144672074D01*
X71939689Y-144125459D01*
X72159004Y-144272000D01*
X71898618Y-144445984D01*
X71562621Y-144948841D01*
X71444634Y-145542000D01*
X71562621Y-146135159D01*
X71822435Y-146524000D01*
X71774998Y-146524000D01*
X71774998Y-147189939D01*
X71600335Y-147451369D01*
X71716263Y-147682000D01*
X72625000Y-147682000D01*
X72625000Y-147282000D01*
X73425000Y-147282000D01*
X73425000Y-147682000D01*
X74333737Y-147682000D01*
X74449665Y-147451369D01*
X74275002Y-147189939D01*
X74275002Y-146524000D01*
X74227565Y-146524000D01*
X74487379Y-146135159D01*
X74605366Y-145542000D01*
X74487379Y-144948841D01*
X74151382Y-144445984D01*
X73890996Y-144272000D01*
X74151382Y-144098016D01*
X74487379Y-143595159D01*
X74605366Y-143002000D01*
X74487379Y-142408841D01*
X74151382Y-141905984D01*
X73890996Y-141732000D01*
X74151382Y-141558016D01*
X74487379Y-141055159D01*
X74605366Y-140462000D01*
X74487379Y-139868841D01*
X74151382Y-139365984D01*
X73890996Y-139192000D01*
X74151382Y-139018016D01*
X74487379Y-138515159D01*
X74605366Y-137922000D01*
X74487379Y-137328841D01*
X74151382Y-136825984D01*
X73890996Y-136652000D01*
X74151382Y-136478016D01*
X74487379Y-135975159D01*
X74605366Y-135382000D01*
X74487379Y-134788841D01*
X74151382Y-134285984D01*
X73890996Y-134112000D01*
X74151382Y-133938016D01*
X74487379Y-133435159D01*
X74605366Y-132842000D01*
X74487379Y-132248841D01*
X74151382Y-131745984D01*
X73890996Y-131572000D01*
X74151382Y-131398016D01*
X74487379Y-130895159D01*
X74605366Y-130302000D01*
X74487379Y-129708841D01*
X74168781Y-129232024D01*
X74358198Y-129110138D01*
X74529446Y-128859508D01*
X74589693Y-128562000D01*
X74589693Y-127151640D01*
X78620426Y-127151640D01*
X79092200Y-127623414D01*
X79092200Y-127623414D01*
G37*
X79092200Y-127623414D02*
X79064634Y-127762000D01*
X79182621Y-128355159D01*
X79518618Y-128858016D01*
X79779004Y-129032000D01*
X79518618Y-129205984D01*
X79182621Y-129708841D01*
X79064634Y-130302000D01*
X79182621Y-130895159D01*
X79518618Y-131398016D01*
X79779004Y-131572000D01*
X79518618Y-131745984D01*
X79182621Y-132248841D01*
X79064634Y-132842000D01*
X79182621Y-133435159D01*
X79518618Y-133938016D01*
X79779004Y-134112000D01*
X79518618Y-134285984D01*
X79182621Y-134788841D01*
X79064634Y-135382000D01*
X79182621Y-135975159D01*
X79518618Y-136478016D01*
X79779004Y-136652000D01*
X79518618Y-136825984D01*
X79182621Y-137328841D01*
X79064634Y-137922000D01*
X79182621Y-138515159D01*
X79518618Y-139018016D01*
X79779004Y-139192000D01*
X79518618Y-139365984D01*
X79182621Y-139868841D01*
X79064634Y-140462000D01*
X79182621Y-141055159D01*
X79518618Y-141558016D01*
X79779004Y-141732000D01*
X79518618Y-141905984D01*
X79182621Y-142408841D01*
X79064634Y-143002000D01*
X79182621Y-143595159D01*
X79518618Y-144098016D01*
X79779004Y-144272000D01*
X79518618Y-144445984D01*
X79182621Y-144948841D01*
X79064634Y-145542000D01*
X79182621Y-146135159D01*
X79518618Y-146638016D01*
X79779004Y-146812000D01*
X79518618Y-146985984D01*
X79182621Y-147488841D01*
X79064634Y-148082000D01*
X79182621Y-148675159D01*
X79516603Y-149175000D01*
X74275002Y-149175000D01*
X74275002Y-148974061D01*
X74449665Y-148712631D01*
X74333737Y-148482000D01*
X73425000Y-148482000D01*
X73425000Y-148882000D01*
X72625000Y-148882000D01*
X72625000Y-148482000D01*
X71716263Y-148482000D01*
X71600335Y-148712631D01*
X71774998Y-148974061D01*
X71774998Y-149175000D01*
X60702000Y-149175000D01*
X60702000Y-148971265D01*
X60731730Y-148899667D01*
X60732268Y-148283039D01*
X60702000Y-148209785D01*
X60702000Y-147172500D01*
X60876000Y-147172500D01*
X60876000Y-147558775D01*
X60991398Y-147837372D01*
X61204627Y-148050601D01*
X61483224Y-148166000D01*
X61869500Y-148166000D01*
X62059000Y-147976500D01*
X62059000Y-146983000D01*
X62909000Y-146983000D01*
X62909000Y-147976500D01*
X63098500Y-148166000D01*
X63484776Y-148166000D01*
X63763373Y-148050601D01*
X63976602Y-147837372D01*
X64092000Y-147558775D01*
X64092000Y-147172500D01*
X64432000Y-147172500D01*
X64432000Y-147558775D01*
X64547398Y-147837372D01*
X64760627Y-148050601D01*
X65039224Y-148166000D01*
X65425500Y-148166000D01*
X65615000Y-147976500D01*
X65615000Y-146983000D01*
X66465000Y-146983000D01*
X66465000Y-147976500D01*
X66654500Y-148166000D01*
X67040776Y-148166000D01*
X67319373Y-148050601D01*
X67532602Y-147837372D01*
X67648000Y-147558775D01*
X67648000Y-147172500D01*
X67988000Y-147172500D01*
X67988000Y-147558775D01*
X68103398Y-147837372D01*
X68316627Y-148050601D01*
X68595224Y-148166000D01*
X68981500Y-148166000D01*
X69171000Y-147976500D01*
X69171000Y-146983000D01*
X70021000Y-146983000D01*
X70021000Y-147976500D01*
X70210500Y-148166000D01*
X70596776Y-148166000D01*
X70875373Y-148050601D01*
X71088602Y-147837372D01*
X71204000Y-147558775D01*
X71204000Y-147172500D01*
X71014500Y-146983000D01*
X70021000Y-146983000D01*
X69171000Y-146983000D01*
X68177500Y-146983000D01*
X67988000Y-147172500D01*
X67648000Y-147172500D01*
X67458500Y-146983000D01*
X66465000Y-146983000D01*
X65615000Y-146983000D01*
X64621500Y-146983000D01*
X64432000Y-147172500D01*
X64092000Y-147172500D01*
X63902500Y-146983000D01*
X62909000Y-146983000D01*
X62059000Y-146983000D01*
X61065500Y-146983000D01*
X60876000Y-147172500D01*
X60702000Y-147172500D01*
X60702000Y-146809584D01*
X61185677Y-146325907D01*
X60949770Y-146090000D01*
X60986135Y-146053635D01*
X61065500Y-146133000D01*
X62059000Y-146133000D01*
X62059000Y-145708000D01*
X62909000Y-145708000D01*
X62909000Y-146133000D01*
X63902500Y-146133000D01*
X64092000Y-145943500D01*
X64092000Y-145557225D01*
X63976602Y-145278628D01*
X63763373Y-145065399D01*
X63734002Y-145053233D01*
X63734002Y-145018739D01*
X63916082Y-144746237D01*
X64027074Y-144672074D01*
X64453864Y-144245284D01*
X64530447Y-144630293D01*
X64789998Y-145018739D01*
X64789998Y-145053233D01*
X64760627Y-145065399D01*
X64547398Y-145278628D01*
X64432000Y-145557225D01*
X64432000Y-145943500D01*
X64621500Y-146133000D01*
X65615000Y-146133000D01*
X65615000Y-145708000D01*
X66465000Y-145708000D01*
X66465000Y-146133000D01*
X67458500Y-146133000D01*
X67648000Y-145943500D01*
X67648000Y-145557225D01*
X67532602Y-145278628D01*
X67319373Y-145065399D01*
X67290002Y-145053233D01*
X67290002Y-145018739D01*
X67384234Y-144877711D01*
X67409983Y-144872589D01*
X67710074Y-144672074D01*
X68030934Y-144351214D01*
X68086447Y-144630293D01*
X68345998Y-145018739D01*
X68345998Y-145053233D01*
X68316627Y-145065399D01*
X68103398Y-145278628D01*
X67988000Y-145557225D01*
X67988000Y-145943500D01*
X68177500Y-146133000D01*
X69171000Y-146133000D01*
X69171000Y-145708000D01*
X70021000Y-145708000D01*
X70021000Y-146133000D01*
X71014500Y-146133000D01*
X71204000Y-145943500D01*
X71204000Y-145557225D01*
X71088602Y-145278628D01*
X70875373Y-145065399D01*
X70846002Y-145053233D01*
X70846002Y-145018739D01*
X70920768Y-144906844D01*
X71092983Y-144872589D01*
X71393074Y-144672074D01*
X71939689Y-144125459D01*
X72159004Y-144272000D01*
X71898618Y-144445984D01*
X71562621Y-144948841D01*
X71444634Y-145542000D01*
X71562621Y-146135159D01*
X71822435Y-146524000D01*
X71774998Y-146524000D01*
X71774998Y-147189939D01*
X71600335Y-147451369D01*
X71716263Y-147682000D01*
X72625000Y-147682000D01*
X72625000Y-147282000D01*
X73425000Y-147282000D01*
X73425000Y-147682000D01*
X74333737Y-147682000D01*
X74449665Y-147451369D01*
X74275002Y-147189939D01*
X74275002Y-146524000D01*
X74227565Y-146524000D01*
X74487379Y-146135159D01*
X74605366Y-145542000D01*
X74487379Y-144948841D01*
X74151382Y-144445984D01*
X73890996Y-144272000D01*
X74151382Y-144098016D01*
X74487379Y-143595159D01*
X74605366Y-143002000D01*
X74487379Y-142408841D01*
X74151382Y-141905984D01*
X73890996Y-141732000D01*
X74151382Y-141558016D01*
X74487379Y-141055159D01*
X74605366Y-140462000D01*
X74487379Y-139868841D01*
X74151382Y-139365984D01*
X73890996Y-139192000D01*
X74151382Y-139018016D01*
X74487379Y-138515159D01*
X74605366Y-137922000D01*
X74487379Y-137328841D01*
X74151382Y-136825984D01*
X73890996Y-136652000D01*
X74151382Y-136478016D01*
X74487379Y-135975159D01*
X74605366Y-135382000D01*
X74487379Y-134788841D01*
X74151382Y-134285984D01*
X73890996Y-134112000D01*
X74151382Y-133938016D01*
X74487379Y-133435159D01*
X74605366Y-132842000D01*
X74487379Y-132248841D01*
X74151382Y-131745984D01*
X73890996Y-131572000D01*
X74151382Y-131398016D01*
X74487379Y-130895159D01*
X74605366Y-130302000D01*
X74487379Y-129708841D01*
X74168781Y-129232024D01*
X74358198Y-129110138D01*
X74529446Y-128859508D01*
X74589693Y-128562000D01*
X74589693Y-127151640D01*
X78620426Y-127151640D01*
X79092200Y-127623414D01*
G36*
X86771472Y-148259713D02*
X86758685Y-148272500D01*
X86771540Y-148285355D01*
X86772980Y-148823891D01*
X86475843Y-149121028D01*
X86193000Y-148838185D01*
X85910157Y-149121028D01*
X85344472Y-148555343D01*
X85627315Y-148272500D01*
X85344472Y-147989658D01*
X85406629Y-147927500D01*
X86770584Y-147927500D01*
X86771472Y-148259713D01*
X86771472Y-148259713D01*
G37*
X86771472Y-148259713D02*
X86758685Y-148272500D01*
X86771540Y-148285355D01*
X86772980Y-148823891D01*
X86475843Y-149121028D01*
X86193000Y-148838185D01*
X85910157Y-149121028D01*
X85344472Y-148555343D01*
X85627315Y-148272500D01*
X85344472Y-147989658D01*
X85406629Y-147927500D01*
X86770584Y-147927500D01*
X86771472Y-148259713D01*
G36*
X86765637Y-146077500D02*
X85409315Y-146077500D01*
X85690815Y-145796000D01*
X85407972Y-145513158D01*
X85470129Y-145451000D01*
X86763962Y-145451000D01*
X86765637Y-146077500D01*
X86765637Y-146077500D01*
G37*
X86765637Y-146077500D02*
X85409315Y-146077500D01*
X85690815Y-145796000D01*
X85407972Y-145513158D01*
X85470129Y-145451000D01*
X86763962Y-145451000D01*
X86765637Y-146077500D01*
G36*
X50876467Y-121275840D02*
X50927000Y-121281000D01*
X58805000Y-121281000D01*
X58805000Y-124292307D01*
X57302500Y-124292307D01*
X57024567Y-124344604D01*
X56769302Y-124508862D01*
X56598054Y-124759492D01*
X56537807Y-125057000D01*
X56537807Y-126657000D01*
X56590104Y-126934933D01*
X56754362Y-127190198D01*
X57004992Y-127361446D01*
X57302500Y-127421693D01*
X57942284Y-127421693D01*
X59400564Y-128125690D01*
X59435577Y-128134757D01*
X59465646Y-128154849D01*
X59670507Y-128195599D01*
X59872713Y-128247965D01*
X59908527Y-128242944D01*
X59944000Y-128250000D01*
X62140686Y-128250000D01*
X62738000Y-128847315D01*
X63020843Y-128564472D01*
X63586528Y-129130157D01*
X63303685Y-129413000D01*
X63586528Y-129695843D01*
X63020843Y-130261528D01*
X62738000Y-129978685D01*
X62072881Y-130643805D01*
X62157983Y-130891846D01*
X62298748Y-130917086D01*
X61862811Y-131292233D01*
X61288039Y-131291732D01*
X60718143Y-131527208D01*
X60281740Y-131962849D01*
X60045270Y-132532333D01*
X60044732Y-133148961D01*
X60280208Y-133718857D01*
X60506252Y-133945297D01*
X60548387Y-134998668D01*
X60281740Y-135264849D01*
X60045270Y-135834333D01*
X60044732Y-136450961D01*
X60280208Y-137020857D01*
X60693825Y-137435198D01*
X60809319Y-138898120D01*
X58230929Y-138898120D01*
X58072279Y-138660683D01*
X58023545Y-138628120D01*
X58072279Y-138595557D01*
X58451631Y-138027816D01*
X58584842Y-137358120D01*
X58451631Y-136688424D01*
X58072279Y-136120683D01*
X58023545Y-136088120D01*
X58072279Y-136055557D01*
X58451631Y-135487816D01*
X58584842Y-134818120D01*
X58451631Y-134148424D01*
X58072279Y-133580683D01*
X58023545Y-133548120D01*
X58072279Y-133515557D01*
X58451631Y-132947816D01*
X58584842Y-132278120D01*
X58451631Y-131608424D01*
X58072279Y-131040683D01*
X57504538Y-130661331D01*
X56834842Y-130528120D01*
X56154518Y-130528120D01*
X55484822Y-130661331D01*
X54917081Y-131040683D01*
X54537729Y-131608424D01*
X54404518Y-132278120D01*
X54537729Y-132947816D01*
X54917081Y-133515557D01*
X54965815Y-133548120D01*
X54917081Y-133580683D01*
X54537729Y-134148424D01*
X54404518Y-134818120D01*
X54537729Y-135487816D01*
X54917081Y-136055557D01*
X54965815Y-136088120D01*
X54917081Y-136120683D01*
X54537729Y-136688424D01*
X54404518Y-137358120D01*
X54537729Y-138027816D01*
X54917081Y-138595557D01*
X54965815Y-138628120D01*
X54917081Y-138660683D01*
X54537729Y-139228424D01*
X54404518Y-139898120D01*
X54537729Y-140567816D01*
X54720089Y-140840737D01*
X54552079Y-141008747D01*
X54436680Y-141287344D01*
X54436680Y-141748620D01*
X54626180Y-141938120D01*
X55844680Y-141938120D01*
X55844680Y-141586489D01*
X56154518Y-141648120D01*
X56834842Y-141648120D01*
X57144680Y-141586489D01*
X57144680Y-141938120D01*
X58363180Y-141938120D01*
X58552680Y-141748620D01*
X58552680Y-141287344D01*
X58437281Y-141008747D01*
X58326654Y-140898120D01*
X60489906Y-140898120D01*
X60888679Y-141296893D01*
X60852654Y-141478000D01*
X60974447Y-142090293D01*
X61321283Y-142609371D01*
X61528756Y-142748000D01*
X61321283Y-142886629D01*
X60974447Y-143405707D01*
X60852654Y-144018000D01*
X60974447Y-144630293D01*
X61233998Y-145018739D01*
X61233998Y-145053233D01*
X61204627Y-145065399D01*
X60991398Y-145278628D01*
X60879752Y-145548168D01*
X60702000Y-145370416D01*
X60702000Y-144399000D01*
X60682304Y-144301736D01*
X60626318Y-144219798D01*
X60542864Y-144166097D01*
X60452000Y-144149000D01*
X59480584Y-144149000D01*
X59417907Y-144086323D01*
X59355230Y-144149000D01*
X59008770Y-144149000D01*
X58946093Y-144086323D01*
X58883416Y-144149000D01*
X58059213Y-144149000D01*
X58224052Y-144080722D01*
X58437281Y-143867493D01*
X58552680Y-143588896D01*
X58552680Y-143127620D01*
X58363180Y-142938120D01*
X57144680Y-142938120D01*
X57144680Y-143438120D01*
X55844680Y-143438120D01*
X55844680Y-142938120D01*
X54626180Y-142938120D01*
X54436680Y-143127620D01*
X54436680Y-143588896D01*
X54545697Y-143852086D01*
X53699247Y-143500609D01*
X52306861Y-143499394D01*
X51019999Y-144031114D01*
X50901907Y-144149000D01*
X50825000Y-144149000D01*
X50825000Y-129443064D01*
X61149761Y-129443064D01*
X61259154Y-129993017D01*
X61507195Y-130078119D01*
X62172315Y-129413000D01*
X61507195Y-128747881D01*
X61259154Y-128832983D01*
X61149761Y-129443064D01*
X50825000Y-129443064D01*
X50825000Y-127087805D01*
X52437381Y-127087805D01*
X52522483Y-127335846D01*
X53132564Y-127445239D01*
X53682517Y-127335846D01*
X53767619Y-127087805D01*
X53102500Y-126422685D01*
X52437381Y-127087805D01*
X50825000Y-127087805D01*
X50825000Y-125887064D01*
X51514261Y-125887064D01*
X51623654Y-126437017D01*
X51871695Y-126522119D01*
X52536815Y-125857000D01*
X53668185Y-125857000D01*
X54333305Y-126522119D01*
X54581346Y-126437017D01*
X54690739Y-125826936D01*
X54581346Y-125276983D01*
X54333305Y-125191881D01*
X53668185Y-125857000D01*
X52536815Y-125857000D01*
X51871695Y-125191881D01*
X51623654Y-125276983D01*
X51514261Y-125887064D01*
X50825000Y-125887064D01*
X50825000Y-124626195D01*
X52437381Y-124626195D01*
X53102500Y-125291315D01*
X53767619Y-124626195D01*
X53682517Y-124378154D01*
X53072436Y-124268761D01*
X52522483Y-124378154D01*
X52437381Y-124626195D01*
X50825000Y-124626195D01*
X50825000Y-121253877D01*
X50876467Y-121275840D01*
X50876467Y-121275840D01*
G37*
X50876467Y-121275840D02*
X50927000Y-121281000D01*
X58805000Y-121281000D01*
X58805000Y-124292307D01*
X57302500Y-124292307D01*
X57024567Y-124344604D01*
X56769302Y-124508862D01*
X56598054Y-124759492D01*
X56537807Y-125057000D01*
X56537807Y-126657000D01*
X56590104Y-126934933D01*
X56754362Y-127190198D01*
X57004992Y-127361446D01*
X57302500Y-127421693D01*
X57942284Y-127421693D01*
X59400564Y-128125690D01*
X59435577Y-128134757D01*
X59465646Y-128154849D01*
X59670507Y-128195599D01*
X59872713Y-128247965D01*
X59908527Y-128242944D01*
X59944000Y-128250000D01*
X62140686Y-128250000D01*
X62738000Y-128847315D01*
X63020843Y-128564472D01*
X63586528Y-129130157D01*
X63303685Y-129413000D01*
X63586528Y-129695843D01*
X63020843Y-130261528D01*
X62738000Y-129978685D01*
X62072881Y-130643805D01*
X62157983Y-130891846D01*
X62298748Y-130917086D01*
X61862811Y-131292233D01*
X61288039Y-131291732D01*
X60718143Y-131527208D01*
X60281740Y-131962849D01*
X60045270Y-132532333D01*
X60044732Y-133148961D01*
X60280208Y-133718857D01*
X60506252Y-133945297D01*
X60548387Y-134998668D01*
X60281740Y-135264849D01*
X60045270Y-135834333D01*
X60044732Y-136450961D01*
X60280208Y-137020857D01*
X60693825Y-137435198D01*
X60809319Y-138898120D01*
X58230929Y-138898120D01*
X58072279Y-138660683D01*
X58023545Y-138628120D01*
X58072279Y-138595557D01*
X58451631Y-138027816D01*
X58584842Y-137358120D01*
X58451631Y-136688424D01*
X58072279Y-136120683D01*
X58023545Y-136088120D01*
X58072279Y-136055557D01*
X58451631Y-135487816D01*
X58584842Y-134818120D01*
X58451631Y-134148424D01*
X58072279Y-133580683D01*
X58023545Y-133548120D01*
X58072279Y-133515557D01*
X58451631Y-132947816D01*
X58584842Y-132278120D01*
X58451631Y-131608424D01*
X58072279Y-131040683D01*
X57504538Y-130661331D01*
X56834842Y-130528120D01*
X56154518Y-130528120D01*
X55484822Y-130661331D01*
X54917081Y-131040683D01*
X54537729Y-131608424D01*
X54404518Y-132278120D01*
X54537729Y-132947816D01*
X54917081Y-133515557D01*
X54965815Y-133548120D01*
X54917081Y-133580683D01*
X54537729Y-134148424D01*
X54404518Y-134818120D01*
X54537729Y-135487816D01*
X54917081Y-136055557D01*
X54965815Y-136088120D01*
X54917081Y-136120683D01*
X54537729Y-136688424D01*
X54404518Y-137358120D01*
X54537729Y-138027816D01*
X54917081Y-138595557D01*
X54965815Y-138628120D01*
X54917081Y-138660683D01*
X54537729Y-139228424D01*
X54404518Y-139898120D01*
X54537729Y-140567816D01*
X54720089Y-140840737D01*
X54552079Y-141008747D01*
X54436680Y-141287344D01*
X54436680Y-141748620D01*
X54626180Y-141938120D01*
X55844680Y-141938120D01*
X55844680Y-141586489D01*
X56154518Y-141648120D01*
X56834842Y-141648120D01*
X57144680Y-141586489D01*
X57144680Y-141938120D01*
X58363180Y-141938120D01*
X58552680Y-141748620D01*
X58552680Y-141287344D01*
X58437281Y-141008747D01*
X58326654Y-140898120D01*
X60489906Y-140898120D01*
X60888679Y-141296893D01*
X60852654Y-141478000D01*
X60974447Y-142090293D01*
X61321283Y-142609371D01*
X61528756Y-142748000D01*
X61321283Y-142886629D01*
X60974447Y-143405707D01*
X60852654Y-144018000D01*
X60974447Y-144630293D01*
X61233998Y-145018739D01*
X61233998Y-145053233D01*
X61204627Y-145065399D01*
X60991398Y-145278628D01*
X60879752Y-145548168D01*
X60702000Y-145370416D01*
X60702000Y-144399000D01*
X60682304Y-144301736D01*
X60626318Y-144219798D01*
X60542864Y-144166097D01*
X60452000Y-144149000D01*
X59480584Y-144149000D01*
X59417907Y-144086323D01*
X59355230Y-144149000D01*
X59008770Y-144149000D01*
X58946093Y-144086323D01*
X58883416Y-144149000D01*
X58059213Y-144149000D01*
X58224052Y-144080722D01*
X58437281Y-143867493D01*
X58552680Y-143588896D01*
X58552680Y-143127620D01*
X58363180Y-142938120D01*
X57144680Y-142938120D01*
X57144680Y-143438120D01*
X55844680Y-143438120D01*
X55844680Y-142938120D01*
X54626180Y-142938120D01*
X54436680Y-143127620D01*
X54436680Y-143588896D01*
X54545697Y-143852086D01*
X53699247Y-143500609D01*
X52306861Y-143499394D01*
X51019999Y-144031114D01*
X50901907Y-144149000D01*
X50825000Y-144149000D01*
X50825000Y-129443064D01*
X61149761Y-129443064D01*
X61259154Y-129993017D01*
X61507195Y-130078119D01*
X62172315Y-129413000D01*
X61507195Y-128747881D01*
X61259154Y-128832983D01*
X61149761Y-129443064D01*
X50825000Y-129443064D01*
X50825000Y-127087805D01*
X52437381Y-127087805D01*
X52522483Y-127335846D01*
X53132564Y-127445239D01*
X53682517Y-127335846D01*
X53767619Y-127087805D01*
X53102500Y-126422685D01*
X52437381Y-127087805D01*
X50825000Y-127087805D01*
X50825000Y-125887064D01*
X51514261Y-125887064D01*
X51623654Y-126437017D01*
X51871695Y-126522119D01*
X52536815Y-125857000D01*
X53668185Y-125857000D01*
X54333305Y-126522119D01*
X54581346Y-126437017D01*
X54690739Y-125826936D01*
X54581346Y-125276983D01*
X54333305Y-125191881D01*
X53668185Y-125857000D01*
X52536815Y-125857000D01*
X51871695Y-125191881D01*
X51623654Y-125276983D01*
X51514261Y-125887064D01*
X50825000Y-125887064D01*
X50825000Y-124626195D01*
X52437381Y-124626195D01*
X53102500Y-125291315D01*
X53767619Y-124626195D01*
X53682517Y-124378154D01*
X53072436Y-124268761D01*
X52522483Y-124378154D01*
X52437381Y-124626195D01*
X50825000Y-124626195D01*
X50825000Y-121253877D01*
X50876467Y-121275840D01*
G36*
X86759015Y-143601000D02*
X85597129Y-143601000D01*
X85407972Y-143411843D01*
X85690815Y-143129000D01*
X85407972Y-142846157D01*
X85597130Y-142657000D01*
X86756491Y-142657000D01*
X86759015Y-143601000D01*
X86759015Y-143601000D01*
G37*
X86759015Y-143601000D02*
X85597129Y-143601000D01*
X85407972Y-143411843D01*
X85690815Y-143129000D01*
X85407972Y-142846157D01*
X85597130Y-142657000D01*
X86756491Y-142657000D01*
X86759015Y-143601000D01*
G36*
X86751545Y-140807000D02*
X85345815Y-140807000D01*
X85627315Y-140525500D01*
X85344472Y-140242658D01*
X85470130Y-140117000D01*
X86749700Y-140117000D01*
X86751545Y-140807000D01*
X86751545Y-140807000D01*
G37*
X86751545Y-140807000D02*
X85345815Y-140807000D01*
X85627315Y-140525500D01*
X85344472Y-140242658D01*
X85470130Y-140117000D01*
X86749700Y-140117000D01*
X86751545Y-140807000D01*
G36*
X71460307Y-128018545D02*
X70338926Y-129139926D01*
X70145948Y-129428738D01*
X69907685Y-129667000D01*
X70068000Y-129827315D01*
X70068000Y-130072371D01*
X69624843Y-130515528D01*
X69342000Y-130232685D01*
X68676881Y-130897805D01*
X68761983Y-131145846D01*
X69116677Y-131209446D01*
X69199231Y-131292000D01*
X69184634Y-131292000D01*
X68591475Y-131409987D01*
X68088618Y-131745984D01*
X67752621Y-132248841D01*
X67634634Y-132842000D01*
X67752621Y-133435159D01*
X68088618Y-133938016D01*
X68591475Y-134274013D01*
X69184634Y-134392000D01*
X69245366Y-134392000D01*
X69433000Y-134354677D01*
X69433000Y-134490852D01*
X69315835Y-134608017D01*
X69245366Y-134594000D01*
X69184634Y-134594000D01*
X68591475Y-134711987D01*
X68088618Y-135047984D01*
X67752621Y-135550841D01*
X67634634Y-136144000D01*
X67752621Y-136737159D01*
X68088618Y-137240016D01*
X68591475Y-137576013D01*
X69050528Y-137667324D01*
X68704852Y-138013000D01*
X65659000Y-138013000D01*
X65305017Y-138083411D01*
X65004926Y-138283926D01*
X63734926Y-139553926D01*
X63534411Y-139854017D01*
X63496200Y-140046120D01*
X63464000Y-140208000D01*
X63464000Y-140224542D01*
X63127639Y-139999793D01*
X62898924Y-139954299D01*
X62685105Y-137245917D01*
X62908260Y-137023151D01*
X63144730Y-136453667D01*
X63145268Y-135837039D01*
X62909792Y-135267143D01*
X62546154Y-134902869D01*
X62514604Y-134114119D01*
X62908260Y-133721151D01*
X63144730Y-133151667D01*
X63145013Y-132827430D01*
X65311483Y-130963064D01*
X65544961Y-130963268D01*
X66114857Y-130727792D01*
X66551260Y-130292151D01*
X66787730Y-129722667D01*
X66787752Y-129697064D01*
X67753761Y-129697064D01*
X67863154Y-130247017D01*
X68111195Y-130332119D01*
X68776315Y-129667000D01*
X68111195Y-129001881D01*
X67863154Y-129086983D01*
X67753761Y-129697064D01*
X66787752Y-129697064D01*
X66788219Y-129162548D01*
X67533767Y-128417000D01*
X68399699Y-128417000D01*
X68462849Y-128480260D01*
X68904218Y-128663532D01*
X69342000Y-129101315D01*
X69780325Y-128662990D01*
X70218857Y-128481792D01*
X70655260Y-128046151D01*
X70891730Y-127476667D01*
X70891879Y-127306295D01*
X71046534Y-127151640D01*
X71460307Y-127151640D01*
X71460307Y-128018545D01*
X71460307Y-128018545D01*
G37*
X71460307Y-128018545D02*
X70338926Y-129139926D01*
X70145948Y-129428738D01*
X69907685Y-129667000D01*
X70068000Y-129827315D01*
X70068000Y-130072371D01*
X69624843Y-130515528D01*
X69342000Y-130232685D01*
X68676881Y-130897805D01*
X68761983Y-131145846D01*
X69116677Y-131209446D01*
X69199231Y-131292000D01*
X69184634Y-131292000D01*
X68591475Y-131409987D01*
X68088618Y-131745984D01*
X67752621Y-132248841D01*
X67634634Y-132842000D01*
X67752621Y-133435159D01*
X68088618Y-133938016D01*
X68591475Y-134274013D01*
X69184634Y-134392000D01*
X69245366Y-134392000D01*
X69433000Y-134354677D01*
X69433000Y-134490852D01*
X69315835Y-134608017D01*
X69245366Y-134594000D01*
X69184634Y-134594000D01*
X68591475Y-134711987D01*
X68088618Y-135047984D01*
X67752621Y-135550841D01*
X67634634Y-136144000D01*
X67752621Y-136737159D01*
X68088618Y-137240016D01*
X68591475Y-137576013D01*
X69050528Y-137667324D01*
X68704852Y-138013000D01*
X65659000Y-138013000D01*
X65305017Y-138083411D01*
X65004926Y-138283926D01*
X63734926Y-139553926D01*
X63534411Y-139854017D01*
X63496200Y-140046120D01*
X63464000Y-140208000D01*
X63464000Y-140224542D01*
X63127639Y-139999793D01*
X62898924Y-139954299D01*
X62685105Y-137245917D01*
X62908260Y-137023151D01*
X63144730Y-136453667D01*
X63145268Y-135837039D01*
X62909792Y-135267143D01*
X62546154Y-134902869D01*
X62514604Y-134114119D01*
X62908260Y-133721151D01*
X63144730Y-133151667D01*
X63145013Y-132827430D01*
X65311483Y-130963064D01*
X65544961Y-130963268D01*
X66114857Y-130727792D01*
X66551260Y-130292151D01*
X66787730Y-129722667D01*
X66787752Y-129697064D01*
X67753761Y-129697064D01*
X67863154Y-130247017D01*
X68111195Y-130332119D01*
X68776315Y-129667000D01*
X68111195Y-129001881D01*
X67863154Y-129086983D01*
X67753761Y-129697064D01*
X66787752Y-129697064D01*
X66788219Y-129162548D01*
X67533767Y-128417000D01*
X68399699Y-128417000D01*
X68462849Y-128480260D01*
X68904218Y-128663532D01*
X69342000Y-129101315D01*
X69780325Y-128662990D01*
X70218857Y-128481792D01*
X70655260Y-128046151D01*
X70891730Y-127476667D01*
X70891879Y-127306295D01*
X71046534Y-127151640D01*
X71460307Y-127151640D01*
X71460307Y-128018545D01*
G36*
X86744753Y-138267000D02*
X85406629Y-138267000D01*
X85344472Y-138204843D01*
X85627315Y-137922000D01*
X85344472Y-137639158D01*
X85406630Y-137577000D01*
X86742909Y-137577000D01*
X86744753Y-138267000D01*
X86744753Y-138267000D01*
G37*
X86744753Y-138267000D02*
X85406629Y-138267000D01*
X85344472Y-138204843D01*
X85627315Y-137922000D01*
X85344472Y-137639158D01*
X85406630Y-137577000D01*
X86742909Y-137577000D01*
X86744753Y-138267000D01*
G36*
X86736759Y-135276927D02*
X86631685Y-135382000D01*
X86737322Y-135487637D01*
X86737962Y-135727000D01*
X85279629Y-135727000D01*
X85217472Y-135664843D01*
X85500315Y-135382000D01*
X85217472Y-135099158D01*
X85279629Y-135037000D01*
X86736117Y-135037000D01*
X86736759Y-135276927D01*
X86736759Y-135276927D01*
G37*
X86736759Y-135276927D02*
X86631685Y-135382000D01*
X86737322Y-135487637D01*
X86737962Y-135727000D01*
X85279629Y-135727000D01*
X85217472Y-135664843D01*
X85500315Y-135382000D01*
X85217472Y-135099158D01*
X85279629Y-135037000D01*
X86736117Y-135037000D01*
X86736759Y-135276927D01*
G36*
X86731171Y-133187000D02*
X85533629Y-133187000D01*
X85471472Y-133124843D01*
X85754315Y-132842000D01*
X85471472Y-132559158D01*
X85533629Y-132497000D01*
X86729326Y-132497000D01*
X86731171Y-133187000D01*
X86731171Y-133187000D01*
G37*
X86731171Y-133187000D02*
X85533629Y-133187000D01*
X85471472Y-133124843D01*
X85754315Y-132842000D01*
X85471472Y-132559158D01*
X85533629Y-132497000D01*
X86729326Y-132497000D01*
X86731171Y-133187000D01*
G36*
X86724379Y-130647000D02*
X85660629Y-130647000D01*
X85471472Y-130457843D01*
X85754315Y-130175000D01*
X85471472Y-129892157D01*
X85533629Y-129830000D01*
X86722195Y-129830000D01*
X86724379Y-130647000D01*
X86724379Y-130647000D01*
G37*
X86724379Y-130647000D02*
X85660629Y-130647000D01*
X85471472Y-130457843D01*
X85754315Y-130175000D01*
X85471472Y-129892157D01*
X85533629Y-129830000D01*
X86722195Y-129830000D01*
X86724379Y-130647000D01*
M02*
