G04 #@! TF.FileFunction,Legend,Top*
%FSLAX46Y46*%
G04 Gerber Fmt 4.6, Leading zero omitted, Abs format (unit mm)*
G04 Created by KiCad (PCBNEW 4.0.7) date 08/19/18 21:28:35*
%MOMM*%
%LPD*%
G01*
G04 APERTURE LIST*
%ADD10C,0.100000*%
%ADD11C,0.150000*%
%ADD12C,0.120000*%
%ADD13C,0.200000*%
%ADD14C,0.040000*%
G04 APERTURE END LIST*
D10*
D11*
X62122015Y-149309081D02*
X61550586Y-149309081D01*
X61836300Y-149309081D02*
X61836300Y-148309081D01*
X61741062Y-148451938D01*
X61645824Y-148547176D01*
X61550586Y-148594795D01*
X50995677Y-108859581D02*
X50662343Y-108383390D01*
X50424248Y-108859581D02*
X50424248Y-107859581D01*
X50805201Y-107859581D01*
X50900439Y-107907200D01*
X50948058Y-107954819D01*
X50995677Y-108050057D01*
X50995677Y-108192914D01*
X50948058Y-108288152D01*
X50900439Y-108335771D01*
X50805201Y-108383390D01*
X50424248Y-108383390D01*
X51757582Y-108335771D02*
X51424248Y-108335771D01*
X51424248Y-108859581D02*
X51424248Y-107859581D01*
X51900439Y-107859581D01*
X52995677Y-107811962D02*
X52138534Y-109097676D01*
X53329010Y-108859581D02*
X53329010Y-107859581D01*
X53805200Y-108859581D02*
X53805200Y-107859581D01*
X54376629Y-108859581D01*
X54376629Y-107859581D01*
X54852819Y-108859581D02*
X54852819Y-107859581D01*
X55233772Y-107859581D01*
X55329010Y-107907200D01*
X55376629Y-107954819D01*
X55424248Y-108050057D01*
X55424248Y-108192914D01*
X55376629Y-108288152D01*
X55329010Y-108335771D01*
X55233772Y-108383390D01*
X54852819Y-108383390D01*
X56043295Y-107859581D02*
X56233772Y-107859581D01*
X56329010Y-107907200D01*
X56424248Y-108002438D01*
X56471867Y-108192914D01*
X56471867Y-108526248D01*
X56424248Y-108716724D01*
X56329010Y-108811962D01*
X56233772Y-108859581D01*
X56043295Y-108859581D01*
X55948057Y-108811962D01*
X55852819Y-108716724D01*
X55805200Y-108526248D01*
X55805200Y-108192914D01*
X55852819Y-108002438D01*
X55948057Y-107907200D01*
X56043295Y-107859581D01*
X57471867Y-108859581D02*
X57138533Y-108383390D01*
X56900438Y-108859581D02*
X56900438Y-107859581D01*
X57281391Y-107859581D01*
X57376629Y-107907200D01*
X57424248Y-107954819D01*
X57471867Y-108050057D01*
X57471867Y-108192914D01*
X57424248Y-108288152D01*
X57376629Y-108335771D01*
X57281391Y-108383390D01*
X56900438Y-108383390D01*
X57757581Y-107859581D02*
X58329010Y-107859581D01*
X58043295Y-108859581D02*
X58043295Y-107859581D01*
X50655600Y-128564780D02*
X50607981Y-128660018D01*
X50607981Y-128802875D01*
X50655600Y-128945733D01*
X50750838Y-129040971D01*
X50846076Y-129088590D01*
X51036552Y-129136209D01*
X51179410Y-129136209D01*
X51369886Y-129088590D01*
X51465124Y-129040971D01*
X51560362Y-128945733D01*
X51607981Y-128802875D01*
X51607981Y-128707637D01*
X51560362Y-128564780D01*
X51512743Y-128517161D01*
X51179410Y-128517161D01*
X51179410Y-128707637D01*
X51607981Y-128088590D02*
X50607981Y-128088590D01*
X51607981Y-127517161D01*
X50607981Y-127517161D01*
X51607981Y-127040971D02*
X50607981Y-127040971D01*
X50607981Y-126802876D01*
X50655600Y-126660018D01*
X50750838Y-126564780D01*
X50846076Y-126517161D01*
X51036552Y-126469542D01*
X51179410Y-126469542D01*
X51369886Y-126517161D01*
X51465124Y-126564780D01*
X51560362Y-126660018D01*
X51607981Y-126802876D01*
X51607981Y-127040971D01*
X50560362Y-125326685D02*
X51846076Y-126183828D01*
X51607981Y-124993352D02*
X50607981Y-124993352D01*
X51607981Y-124517162D02*
X50607981Y-124517162D01*
X51607981Y-123945733D01*
X50607981Y-123945733D01*
X51607981Y-123469543D02*
X50607981Y-123469543D01*
X50607981Y-123088590D01*
X50655600Y-122993352D01*
X50703219Y-122945733D01*
X50798457Y-122898114D01*
X50941314Y-122898114D01*
X51036552Y-122945733D01*
X51084171Y-122993352D01*
X51131790Y-123088590D01*
X51131790Y-123469543D01*
X50607981Y-122279067D02*
X50607981Y-122088590D01*
X50655600Y-121993352D01*
X50750838Y-121898114D01*
X50941314Y-121850495D01*
X51274648Y-121850495D01*
X51465124Y-121898114D01*
X51560362Y-121993352D01*
X51607981Y-122088590D01*
X51607981Y-122279067D01*
X51560362Y-122374305D01*
X51465124Y-122469543D01*
X51274648Y-122517162D01*
X50941314Y-122517162D01*
X50750838Y-122469543D01*
X50655600Y-122374305D01*
X50607981Y-122279067D01*
X51607981Y-120850495D02*
X51131790Y-121183829D01*
X51607981Y-121421924D02*
X50607981Y-121421924D01*
X50607981Y-121040971D01*
X50655600Y-120945733D01*
X50703219Y-120898114D01*
X50798457Y-120850495D01*
X50941314Y-120850495D01*
X51036552Y-120898114D01*
X51084171Y-120945733D01*
X51131790Y-121040971D01*
X51131790Y-121421924D01*
X50607981Y-120564781D02*
X50607981Y-119993352D01*
X51607981Y-120279067D02*
X50607981Y-120279067D01*
X51252381Y-76469428D02*
X50776190Y-76802762D01*
X51252381Y-77040857D02*
X50252381Y-77040857D01*
X50252381Y-76659904D01*
X50300000Y-76564666D01*
X50347619Y-76517047D01*
X50442857Y-76469428D01*
X50585714Y-76469428D01*
X50680952Y-76517047D01*
X50728571Y-76564666D01*
X50776190Y-76659904D01*
X50776190Y-77040857D01*
X50728571Y-75707523D02*
X50728571Y-76040857D01*
X51252381Y-76040857D02*
X50252381Y-76040857D01*
X50252381Y-75564666D01*
X50204762Y-74469428D02*
X51490476Y-75326571D01*
X51252381Y-74136095D02*
X50252381Y-74136095D01*
X51252381Y-73564666D01*
X50252381Y-73564666D01*
X51157143Y-72517047D02*
X51204762Y-72564666D01*
X51252381Y-72707523D01*
X51252381Y-72802761D01*
X51204762Y-72945619D01*
X51109524Y-73040857D01*
X51014286Y-73088476D01*
X50823810Y-73136095D01*
X50680952Y-73136095D01*
X50490476Y-73088476D01*
X50395238Y-73040857D01*
X50300000Y-72945619D01*
X50252381Y-72802761D01*
X50252381Y-72707523D01*
X50300000Y-72564666D01*
X50347619Y-72517047D01*
X51252381Y-72088476D02*
X50252381Y-72088476D01*
X50252381Y-71707523D01*
X50300000Y-71612285D01*
X50347619Y-71564666D01*
X50442857Y-71517047D01*
X50585714Y-71517047D01*
X50680952Y-71564666D01*
X50728571Y-71612285D01*
X50776190Y-71707523D01*
X50776190Y-72088476D01*
X50252381Y-70898000D02*
X50252381Y-70707523D01*
X50300000Y-70612285D01*
X50395238Y-70517047D01*
X50585714Y-70469428D01*
X50919048Y-70469428D01*
X51109524Y-70517047D01*
X51204762Y-70612285D01*
X51252381Y-70707523D01*
X51252381Y-70898000D01*
X51204762Y-70993238D01*
X51109524Y-71088476D01*
X50919048Y-71136095D01*
X50585714Y-71136095D01*
X50395238Y-71088476D01*
X50300000Y-70993238D01*
X50252381Y-70898000D01*
X51252381Y-69469428D02*
X50776190Y-69802762D01*
X51252381Y-70040857D02*
X50252381Y-70040857D01*
X50252381Y-69659904D01*
X50300000Y-69564666D01*
X50347619Y-69517047D01*
X50442857Y-69469428D01*
X50585714Y-69469428D01*
X50680952Y-69517047D01*
X50728571Y-69564666D01*
X50776190Y-69659904D01*
X50776190Y-70040857D01*
X50252381Y-69183714D02*
X50252381Y-68612285D01*
X51252381Y-68898000D02*
X50252381Y-68898000D01*
X52554477Y-56396000D02*
X52459239Y-56348381D01*
X52316382Y-56348381D01*
X52173524Y-56396000D01*
X52078286Y-56491238D01*
X52030667Y-56586476D01*
X51983048Y-56776952D01*
X51983048Y-56919810D01*
X52030667Y-57110286D01*
X52078286Y-57205524D01*
X52173524Y-57300762D01*
X52316382Y-57348381D01*
X52411620Y-57348381D01*
X52554477Y-57300762D01*
X52602096Y-57253143D01*
X52602096Y-56919810D01*
X52411620Y-56919810D01*
X53030667Y-57348381D02*
X53030667Y-56348381D01*
X53602096Y-57348381D01*
X53602096Y-56348381D01*
X54078286Y-57348381D02*
X54078286Y-56348381D01*
X54316381Y-56348381D01*
X54459239Y-56396000D01*
X54554477Y-56491238D01*
X54602096Y-56586476D01*
X54649715Y-56776952D01*
X54649715Y-56919810D01*
X54602096Y-57110286D01*
X54554477Y-57205524D01*
X54459239Y-57300762D01*
X54316381Y-57348381D01*
X54078286Y-57348381D01*
X55792572Y-56300762D02*
X54935429Y-57586476D01*
X56125905Y-57348381D02*
X56125905Y-56348381D01*
X56697334Y-57348381D01*
X56697334Y-56348381D01*
X57744953Y-57253143D02*
X57697334Y-57300762D01*
X57554477Y-57348381D01*
X57459239Y-57348381D01*
X57316381Y-57300762D01*
X57221143Y-57205524D01*
X57173524Y-57110286D01*
X57125905Y-56919810D01*
X57125905Y-56776952D01*
X57173524Y-56586476D01*
X57221143Y-56491238D01*
X57316381Y-56396000D01*
X57459239Y-56348381D01*
X57554477Y-56348381D01*
X57697334Y-56396000D01*
X57744953Y-56443619D01*
X53906943Y-136596381D02*
X53573609Y-136120190D01*
X53335514Y-136596381D02*
X53335514Y-135596381D01*
X53716467Y-135596381D01*
X53811705Y-135644000D01*
X53859324Y-135691619D01*
X53906943Y-135786857D01*
X53906943Y-135929714D01*
X53859324Y-136024952D01*
X53811705Y-136072571D01*
X53716467Y-136120190D01*
X53335514Y-136120190D01*
X54668848Y-136072571D02*
X54335514Y-136072571D01*
X54335514Y-136596381D02*
X54335514Y-135596381D01*
X54811705Y-135596381D01*
X55716467Y-135644000D02*
X55621229Y-135596381D01*
X55478372Y-135596381D01*
X55335514Y-135644000D01*
X55240276Y-135739238D01*
X55192657Y-135834476D01*
X55145038Y-136024952D01*
X55145038Y-136167810D01*
X55192657Y-136358286D01*
X55240276Y-136453524D01*
X55335514Y-136548762D01*
X55478372Y-136596381D01*
X55573610Y-136596381D01*
X55716467Y-136548762D01*
X55764086Y-136501143D01*
X55764086Y-136167810D01*
X55573610Y-136167810D01*
X56192657Y-136596381D02*
X56192657Y-135596381D01*
X56764086Y-136596381D01*
X56764086Y-135596381D01*
X57240276Y-136596381D02*
X57240276Y-135596381D01*
X57478371Y-135596381D01*
X57621229Y-135644000D01*
X57716467Y-135739238D01*
X57764086Y-135834476D01*
X57811705Y-136024952D01*
X57811705Y-136167810D01*
X57764086Y-136358286D01*
X57716467Y-136453524D01*
X57621229Y-136548762D01*
X57478371Y-136596381D01*
X57240276Y-136596381D01*
X55311824Y-141412862D02*
X55454681Y-141460481D01*
X55692777Y-141460481D01*
X55788015Y-141412862D01*
X55835634Y-141365243D01*
X55883253Y-141270005D01*
X55883253Y-141174767D01*
X55835634Y-141079529D01*
X55788015Y-141031910D01*
X55692777Y-140984290D01*
X55502300Y-140936671D01*
X55407062Y-140889052D01*
X55359443Y-140841433D01*
X55311824Y-140746195D01*
X55311824Y-140650957D01*
X55359443Y-140555719D01*
X55407062Y-140508100D01*
X55502300Y-140460481D01*
X55740396Y-140460481D01*
X55883253Y-140508100D01*
X56883253Y-141365243D02*
X56835634Y-141412862D01*
X56692777Y-141460481D01*
X56597539Y-141460481D01*
X56454681Y-141412862D01*
X56359443Y-141317624D01*
X56311824Y-141222386D01*
X56264205Y-141031910D01*
X56264205Y-140889052D01*
X56311824Y-140698576D01*
X56359443Y-140603338D01*
X56454681Y-140508100D01*
X56597539Y-140460481D01*
X56692777Y-140460481D01*
X56835634Y-140508100D01*
X56883253Y-140555719D01*
X57788015Y-141460481D02*
X57311824Y-141460481D01*
X57311824Y-140460481D01*
X55173714Y-138936362D02*
X55316571Y-138983981D01*
X55554667Y-138983981D01*
X55649905Y-138936362D01*
X55697524Y-138888743D01*
X55745143Y-138793505D01*
X55745143Y-138698267D01*
X55697524Y-138603029D01*
X55649905Y-138555410D01*
X55554667Y-138507790D01*
X55364190Y-138460171D01*
X55268952Y-138412552D01*
X55221333Y-138364933D01*
X55173714Y-138269695D01*
X55173714Y-138174457D01*
X55221333Y-138079219D01*
X55268952Y-138031600D01*
X55364190Y-137983981D01*
X55602286Y-137983981D01*
X55745143Y-138031600D01*
X56173714Y-138983981D02*
X56173714Y-137983981D01*
X56411809Y-137983981D01*
X56554667Y-138031600D01*
X56649905Y-138126838D01*
X56697524Y-138222076D01*
X56745143Y-138412552D01*
X56745143Y-138555410D01*
X56697524Y-138745886D01*
X56649905Y-138841124D01*
X56554667Y-138936362D01*
X56411809Y-138983981D01*
X56173714Y-138983981D01*
X57126095Y-138698267D02*
X57602286Y-138698267D01*
X57030857Y-138983981D02*
X57364190Y-137983981D01*
X57697524Y-138983981D01*
X55330886Y-143632229D02*
X56092791Y-143632229D01*
X55711839Y-144013181D02*
X55711839Y-143251276D01*
X57045172Y-143013181D02*
X56568981Y-143013181D01*
X56521362Y-143489371D01*
X56568981Y-143441752D01*
X56664219Y-143394133D01*
X56902315Y-143394133D01*
X56997553Y-143441752D01*
X57045172Y-143489371D01*
X57092791Y-143584610D01*
X57092791Y-143822705D01*
X57045172Y-143917943D01*
X56997553Y-143965562D01*
X56902315Y-144013181D01*
X56664219Y-144013181D01*
X56568981Y-143965562D01*
X56521362Y-143917943D01*
X57378505Y-143013181D02*
X57711838Y-144013181D01*
X58045172Y-143013181D01*
X55905496Y-145651600D02*
X55810258Y-145603981D01*
X55667401Y-145603981D01*
X55524543Y-145651600D01*
X55429305Y-145746838D01*
X55381686Y-145842076D01*
X55334067Y-146032552D01*
X55334067Y-146175410D01*
X55381686Y-146365886D01*
X55429305Y-146461124D01*
X55524543Y-146556362D01*
X55667401Y-146603981D01*
X55762639Y-146603981D01*
X55905496Y-146556362D01*
X55953115Y-146508743D01*
X55953115Y-146175410D01*
X55762639Y-146175410D01*
X56381686Y-146603981D02*
X56381686Y-145603981D01*
X56953115Y-146603981D01*
X56953115Y-145603981D01*
X57429305Y-146603981D02*
X57429305Y-145603981D01*
X57667400Y-145603981D01*
X57810258Y-145651600D01*
X57905496Y-145746838D01*
X57953115Y-145842076D01*
X58000734Y-146032552D01*
X58000734Y-146175410D01*
X57953115Y-146365886D01*
X57905496Y-146461124D01*
X57810258Y-146556362D01*
X57667400Y-146603981D01*
X57429305Y-146603981D01*
X102974000Y-51904381D02*
X102974000Y-52713905D01*
X103021619Y-52809143D01*
X103069238Y-52856762D01*
X103164476Y-52904381D01*
X103354953Y-52904381D01*
X103450191Y-52856762D01*
X103497810Y-52809143D01*
X103545429Y-52713905D01*
X103545429Y-51904381D01*
X104021619Y-52904381D02*
X104021619Y-51904381D01*
X104593048Y-52904381D01*
X104593048Y-51904381D01*
X105069238Y-52904381D02*
X105069238Y-51904381D01*
X105402571Y-51904381D02*
X105735904Y-52904381D01*
X106069238Y-51904381D01*
X106402571Y-52380571D02*
X106735905Y-52380571D01*
X106878762Y-52904381D02*
X106402571Y-52904381D01*
X106402571Y-51904381D01*
X106878762Y-51904381D01*
X107878762Y-52904381D02*
X107545428Y-52428190D01*
X107307333Y-52904381D02*
X107307333Y-51904381D01*
X107688286Y-51904381D01*
X107783524Y-51952000D01*
X107831143Y-51999619D01*
X107878762Y-52094857D01*
X107878762Y-52237714D01*
X107831143Y-52332952D01*
X107783524Y-52380571D01*
X107688286Y-52428190D01*
X107307333Y-52428190D01*
X108259714Y-52856762D02*
X108402571Y-52904381D01*
X108640667Y-52904381D01*
X108735905Y-52856762D01*
X108783524Y-52809143D01*
X108831143Y-52713905D01*
X108831143Y-52618667D01*
X108783524Y-52523429D01*
X108735905Y-52475810D01*
X108640667Y-52428190D01*
X108450190Y-52380571D01*
X108354952Y-52332952D01*
X108307333Y-52285333D01*
X108259714Y-52190095D01*
X108259714Y-52094857D01*
X108307333Y-51999619D01*
X108354952Y-51952000D01*
X108450190Y-51904381D01*
X108688286Y-51904381D01*
X108831143Y-51952000D01*
X109212095Y-52618667D02*
X109688286Y-52618667D01*
X109116857Y-52904381D02*
X109450190Y-51904381D01*
X109783524Y-52904381D01*
X110593048Y-52904381D02*
X110116857Y-52904381D01*
X110116857Y-51904381D01*
X111545429Y-51904381D02*
X112116858Y-51904381D01*
X111831143Y-52904381D02*
X111831143Y-51904381D01*
X112450191Y-51904381D02*
X112450191Y-52713905D01*
X112497810Y-52809143D01*
X112545429Y-52856762D01*
X112640667Y-52904381D01*
X112831144Y-52904381D01*
X112926382Y-52856762D01*
X112974001Y-52809143D01*
X113021620Y-52713905D01*
X113021620Y-51904381D01*
X113497810Y-52904381D02*
X113497810Y-51904381D01*
X114069239Y-52904381D01*
X114069239Y-51904381D01*
X114545429Y-52380571D02*
X114878763Y-52380571D01*
X115021620Y-52904381D02*
X114545429Y-52904381D01*
X114545429Y-51904381D01*
X115021620Y-51904381D01*
X116021620Y-52904381D02*
X115688286Y-52428190D01*
X115450191Y-52904381D02*
X115450191Y-51904381D01*
X115831144Y-51904381D01*
X115926382Y-51952000D01*
X115974001Y-51999619D01*
X116021620Y-52094857D01*
X116021620Y-52237714D01*
X115974001Y-52332952D01*
X115926382Y-52380571D01*
X115831144Y-52428190D01*
X115450191Y-52428190D01*
X105259714Y-54506762D02*
X105402571Y-54554381D01*
X105640667Y-54554381D01*
X105735905Y-54506762D01*
X105783524Y-54459143D01*
X105831143Y-54363905D01*
X105831143Y-54268667D01*
X105783524Y-54173429D01*
X105735905Y-54125810D01*
X105640667Y-54078190D01*
X105450190Y-54030571D01*
X105354952Y-53982952D01*
X105307333Y-53935333D01*
X105259714Y-53840095D01*
X105259714Y-53744857D01*
X105307333Y-53649619D01*
X105354952Y-53602000D01*
X105450190Y-53554381D01*
X105688286Y-53554381D01*
X105831143Y-53602000D01*
X106259714Y-54030571D02*
X106593048Y-54030571D01*
X106735905Y-54554381D02*
X106259714Y-54554381D01*
X106259714Y-53554381D01*
X106735905Y-53554381D01*
X107735905Y-54459143D02*
X107688286Y-54506762D01*
X107545429Y-54554381D01*
X107450191Y-54554381D01*
X107307333Y-54506762D01*
X107212095Y-54411524D01*
X107164476Y-54316286D01*
X107116857Y-54125810D01*
X107116857Y-53982952D01*
X107164476Y-53792476D01*
X107212095Y-53697238D01*
X107307333Y-53602000D01*
X107450191Y-53554381D01*
X107545429Y-53554381D01*
X107688286Y-53602000D01*
X107735905Y-53649619D01*
X108021619Y-53554381D02*
X108593048Y-53554381D01*
X108307333Y-54554381D02*
X108307333Y-53554381D01*
X108926381Y-54554381D02*
X108926381Y-53554381D01*
X109593047Y-53554381D02*
X109783524Y-53554381D01*
X109878762Y-53602000D01*
X109974000Y-53697238D01*
X110021619Y-53887714D01*
X110021619Y-54221048D01*
X109974000Y-54411524D01*
X109878762Y-54506762D01*
X109783524Y-54554381D01*
X109593047Y-54554381D01*
X109497809Y-54506762D01*
X109402571Y-54411524D01*
X109354952Y-54221048D01*
X109354952Y-53887714D01*
X109402571Y-53697238D01*
X109497809Y-53602000D01*
X109593047Y-53554381D01*
X110450190Y-54554381D02*
X110450190Y-53554381D01*
X111021619Y-54554381D01*
X111021619Y-53554381D01*
X112593048Y-54030571D02*
X112735905Y-54078190D01*
X112783524Y-54125810D01*
X112831143Y-54221048D01*
X112831143Y-54363905D01*
X112783524Y-54459143D01*
X112735905Y-54506762D01*
X112640667Y-54554381D01*
X112259714Y-54554381D01*
X112259714Y-53554381D01*
X112593048Y-53554381D01*
X112688286Y-53602000D01*
X112735905Y-53649619D01*
X112783524Y-53744857D01*
X112783524Y-53840095D01*
X112735905Y-53935333D01*
X112688286Y-53982952D01*
X112593048Y-54030571D01*
X112259714Y-54030571D01*
X113450190Y-54078190D02*
X113450190Y-54554381D01*
X113116857Y-53554381D02*
X113450190Y-54078190D01*
X113783524Y-53554381D01*
X103807333Y-56204381D02*
X103807333Y-55204381D01*
X104045428Y-55204381D01*
X104188286Y-55252000D01*
X104283524Y-55347238D01*
X104331143Y-55442476D01*
X104378762Y-55632952D01*
X104378762Y-55775810D01*
X104331143Y-55966286D01*
X104283524Y-56061524D01*
X104188286Y-56156762D01*
X104045428Y-56204381D01*
X103807333Y-56204381D01*
X105569238Y-56204381D02*
X105569238Y-55204381D01*
X105902572Y-55918667D01*
X106235905Y-55204381D01*
X106235905Y-56204381D01*
X106664476Y-55918667D02*
X107140667Y-55918667D01*
X106569238Y-56204381D02*
X106902571Y-55204381D01*
X107235905Y-56204381D01*
X108140667Y-56204381D02*
X107807333Y-55728190D01*
X107569238Y-56204381D02*
X107569238Y-55204381D01*
X107950191Y-55204381D01*
X108045429Y-55252000D01*
X108093048Y-55299619D01*
X108140667Y-55394857D01*
X108140667Y-55537714D01*
X108093048Y-55632952D01*
X108045429Y-55680571D01*
X107950191Y-55728190D01*
X107569238Y-55728190D01*
X108569238Y-56204381D02*
X108569238Y-55204381D01*
X109140667Y-56204381D02*
X108712095Y-55632952D01*
X109140667Y-55204381D02*
X108569238Y-55775810D01*
X109521619Y-56156762D02*
X109664476Y-56204381D01*
X109902572Y-56204381D01*
X109997810Y-56156762D01*
X110045429Y-56109143D01*
X110093048Y-56013905D01*
X110093048Y-55918667D01*
X110045429Y-55823429D01*
X109997810Y-55775810D01*
X109902572Y-55728190D01*
X109712095Y-55680571D01*
X109616857Y-55632952D01*
X109569238Y-55585333D01*
X109521619Y-55490095D01*
X109521619Y-55394857D01*
X109569238Y-55299619D01*
X109616857Y-55252000D01*
X109712095Y-55204381D01*
X109950191Y-55204381D01*
X110093048Y-55252000D01*
X111283524Y-56204381D02*
X111283524Y-55204381D01*
X111854953Y-56204381D02*
X111426381Y-55632952D01*
X111854953Y-55204381D02*
X111283524Y-55775810D01*
X112188286Y-55204381D02*
X112426381Y-56204381D01*
X112616858Y-55490095D01*
X112807334Y-56204381D01*
X113045429Y-55204381D01*
X113854953Y-55537714D02*
X113854953Y-56204381D01*
X113616857Y-55156762D02*
X113378762Y-55871048D01*
X113997810Y-55871048D01*
X114235905Y-55204381D02*
X114807334Y-55204381D01*
X114521619Y-56204381D02*
X114521619Y-55204381D01*
X115140667Y-56204381D02*
X115140667Y-55204381D01*
X81986381Y-58967238D02*
X81510190Y-59300572D01*
X81986381Y-59538667D02*
X80986381Y-59538667D01*
X80986381Y-59157714D01*
X81034000Y-59062476D01*
X81081619Y-59014857D01*
X81176857Y-58967238D01*
X81319714Y-58967238D01*
X81414952Y-59014857D01*
X81462571Y-59062476D01*
X81510190Y-59157714D01*
X81510190Y-59538667D01*
X81462571Y-58205333D02*
X81462571Y-58538667D01*
X81986381Y-58538667D02*
X80986381Y-58538667D01*
X80986381Y-58062476D01*
X80938762Y-56967238D02*
X82224476Y-57824381D01*
X81986381Y-56633905D02*
X80986381Y-56633905D01*
X81986381Y-56062476D01*
X80986381Y-56062476D01*
X80986381Y-55395810D02*
X80986381Y-55205333D01*
X81034000Y-55110095D01*
X81129238Y-55014857D01*
X81319714Y-54967238D01*
X81653048Y-54967238D01*
X81843524Y-55014857D01*
X81938762Y-55110095D01*
X81986381Y-55205333D01*
X81986381Y-55395810D01*
X81938762Y-55491048D01*
X81843524Y-55586286D01*
X81653048Y-55633905D01*
X81319714Y-55633905D01*
X81129238Y-55586286D01*
X81034000Y-55491048D01*
X80986381Y-55395810D01*
X81986381Y-54538667D02*
X80986381Y-54538667D01*
X80986381Y-54157714D01*
X81034000Y-54062476D01*
X81081619Y-54014857D01*
X81176857Y-53967238D01*
X81319714Y-53967238D01*
X81414952Y-54014857D01*
X81462571Y-54062476D01*
X81510190Y-54157714D01*
X81510190Y-54538667D01*
X80986381Y-53348191D02*
X80986381Y-53157714D01*
X81034000Y-53062476D01*
X81129238Y-52967238D01*
X81319714Y-52919619D01*
X81653048Y-52919619D01*
X81843524Y-52967238D01*
X81938762Y-53062476D01*
X81986381Y-53157714D01*
X81986381Y-53348191D01*
X81938762Y-53443429D01*
X81843524Y-53538667D01*
X81653048Y-53586286D01*
X81319714Y-53586286D01*
X81129238Y-53538667D01*
X81034000Y-53443429D01*
X80986381Y-53348191D01*
X81986381Y-51919619D02*
X81510190Y-52252953D01*
X81986381Y-52491048D02*
X80986381Y-52491048D01*
X80986381Y-52110095D01*
X81034000Y-52014857D01*
X81081619Y-51967238D01*
X81176857Y-51919619D01*
X81319714Y-51919619D01*
X81414952Y-51967238D01*
X81462571Y-52014857D01*
X81510190Y-52110095D01*
X81510190Y-52491048D01*
X80986381Y-51633905D02*
X80986381Y-51062476D01*
X81986381Y-51348191D02*
X80986381Y-51348191D01*
X92972000Y-56943333D02*
X92924381Y-57038571D01*
X92924381Y-57181428D01*
X92972000Y-57324286D01*
X93067238Y-57419524D01*
X93162476Y-57467143D01*
X93352952Y-57514762D01*
X93495810Y-57514762D01*
X93686286Y-57467143D01*
X93781524Y-57419524D01*
X93876762Y-57324286D01*
X93924381Y-57181428D01*
X93924381Y-57086190D01*
X93876762Y-56943333D01*
X93829143Y-56895714D01*
X93495810Y-56895714D01*
X93495810Y-57086190D01*
X93924381Y-56467143D02*
X92924381Y-56467143D01*
X93924381Y-55895714D01*
X92924381Y-55895714D01*
X93924381Y-55419524D02*
X92924381Y-55419524D01*
X92924381Y-55181429D01*
X92972000Y-55038571D01*
X93067238Y-54943333D01*
X93162476Y-54895714D01*
X93352952Y-54848095D01*
X93495810Y-54848095D01*
X93686286Y-54895714D01*
X93781524Y-54943333D01*
X93876762Y-55038571D01*
X93924381Y-55181429D01*
X93924381Y-55419524D01*
X92876762Y-53705238D02*
X94162476Y-54562381D01*
X93924381Y-53371905D02*
X92924381Y-53371905D01*
X93924381Y-52800476D01*
X92924381Y-52800476D01*
X92924381Y-52133810D02*
X92924381Y-51943333D01*
X92972000Y-51848095D01*
X93067238Y-51752857D01*
X93257714Y-51705238D01*
X93591048Y-51705238D01*
X93781524Y-51752857D01*
X93876762Y-51848095D01*
X93924381Y-51943333D01*
X93924381Y-52133810D01*
X93876762Y-52229048D01*
X93781524Y-52324286D01*
X93591048Y-52371905D01*
X93257714Y-52371905D01*
X93067238Y-52324286D01*
X92972000Y-52229048D01*
X92924381Y-52133810D01*
X83936579Y-135528514D02*
X84936579Y-135528514D01*
X84222293Y-135861848D01*
X84936579Y-136195181D01*
X83936579Y-136195181D01*
X84031817Y-137242800D02*
X83984198Y-137195181D01*
X83936579Y-137052324D01*
X83936579Y-136957086D01*
X83984198Y-136814228D01*
X84079436Y-136718990D01*
X84174674Y-136671371D01*
X84365150Y-136623752D01*
X84508008Y-136623752D01*
X84698484Y-136671371D01*
X84793722Y-136718990D01*
X84888960Y-136814228D01*
X84936579Y-136957086D01*
X84936579Y-137052324D01*
X84888960Y-137195181D01*
X84841341Y-137242800D01*
X83936579Y-137671371D02*
X84936579Y-137671371D01*
X84936579Y-138052324D01*
X84888960Y-138147562D01*
X84841341Y-138195181D01*
X84746103Y-138242800D01*
X84603246Y-138242800D01*
X84508008Y-138195181D01*
X84460389Y-138147562D01*
X84412770Y-138052324D01*
X84412770Y-137671371D01*
X84841341Y-138623752D02*
X84888960Y-138671371D01*
X84936579Y-138766609D01*
X84936579Y-139004705D01*
X84888960Y-139099943D01*
X84841341Y-139147562D01*
X84746103Y-139195181D01*
X84650865Y-139195181D01*
X84508008Y-139147562D01*
X83936579Y-138576133D01*
X83936579Y-139195181D01*
X84936579Y-139528514D02*
X84936579Y-140147562D01*
X84555627Y-139814228D01*
X84555627Y-139957086D01*
X84508008Y-140052324D01*
X84460389Y-140099943D01*
X84365150Y-140147562D01*
X84127055Y-140147562D01*
X84031817Y-140099943D01*
X83984198Y-140052324D01*
X83936579Y-139957086D01*
X83936579Y-139671371D01*
X83984198Y-139576133D01*
X84031817Y-139528514D01*
X84936579Y-140766609D02*
X84936579Y-140861848D01*
X84888960Y-140957086D01*
X84841341Y-141004705D01*
X84746103Y-141052324D01*
X84555627Y-141099943D01*
X84317531Y-141099943D01*
X84127055Y-141052324D01*
X84031817Y-141004705D01*
X83984198Y-140957086D01*
X83936579Y-140861848D01*
X83936579Y-140766609D01*
X83984198Y-140671371D01*
X84031817Y-140623752D01*
X84127055Y-140576133D01*
X84317531Y-140528514D01*
X84555627Y-140528514D01*
X84746103Y-140576133D01*
X84841341Y-140623752D01*
X84888960Y-140671371D01*
X84936579Y-140766609D01*
X84936579Y-141718990D02*
X84936579Y-141814229D01*
X84888960Y-141909467D01*
X84841341Y-141957086D01*
X84746103Y-142004705D01*
X84555627Y-142052324D01*
X84317531Y-142052324D01*
X84127055Y-142004705D01*
X84031817Y-141957086D01*
X83984198Y-141909467D01*
X83936579Y-141814229D01*
X83936579Y-141718990D01*
X83984198Y-141623752D01*
X84031817Y-141576133D01*
X84127055Y-141528514D01*
X84317531Y-141480895D01*
X84555627Y-141480895D01*
X84746103Y-141528514D01*
X84841341Y-141576133D01*
X84888960Y-141623752D01*
X84936579Y-141718990D01*
X84508008Y-142623752D02*
X84555627Y-142528514D01*
X84603246Y-142480895D01*
X84698484Y-142433276D01*
X84746103Y-142433276D01*
X84841341Y-142480895D01*
X84888960Y-142528514D01*
X84936579Y-142623752D01*
X84936579Y-142814229D01*
X84888960Y-142909467D01*
X84841341Y-142957086D01*
X84746103Y-143004705D01*
X84698484Y-143004705D01*
X84603246Y-142957086D01*
X84555627Y-142909467D01*
X84508008Y-142814229D01*
X84508008Y-142623752D01*
X84460389Y-142528514D01*
X84412770Y-142480895D01*
X84317531Y-142433276D01*
X84127055Y-142433276D01*
X84031817Y-142480895D01*
X83984198Y-142528514D01*
X83936579Y-142623752D01*
X83936579Y-142814229D01*
X83984198Y-142909467D01*
X84031817Y-142957086D01*
X84127055Y-143004705D01*
X84317531Y-143004705D01*
X84412770Y-142957086D01*
X84460389Y-142909467D01*
X84508008Y-142814229D01*
X96112579Y-135441181D02*
X95303055Y-135441181D01*
X95207817Y-135488800D01*
X95160198Y-135536419D01*
X95112579Y-135631657D01*
X95112579Y-135822134D01*
X95160198Y-135917372D01*
X95207817Y-135964991D01*
X95303055Y-136012610D01*
X96112579Y-136012610D01*
X95112579Y-136964991D02*
X95112579Y-136488800D01*
X96112579Y-136488800D01*
X95112579Y-137298324D02*
X96112579Y-137298324D01*
X95112579Y-137869753D01*
X96112579Y-137869753D01*
X96017341Y-138298324D02*
X96064960Y-138345943D01*
X96112579Y-138441181D01*
X96112579Y-138679277D01*
X96064960Y-138774515D01*
X96017341Y-138822134D01*
X95922103Y-138869753D01*
X95826865Y-138869753D01*
X95684008Y-138822134D01*
X95112579Y-138250705D01*
X95112579Y-138869753D01*
X95684008Y-139441181D02*
X95731627Y-139345943D01*
X95779246Y-139298324D01*
X95874484Y-139250705D01*
X95922103Y-139250705D01*
X96017341Y-139298324D01*
X96064960Y-139345943D01*
X96112579Y-139441181D01*
X96112579Y-139631658D01*
X96064960Y-139726896D01*
X96017341Y-139774515D01*
X95922103Y-139822134D01*
X95874484Y-139822134D01*
X95779246Y-139774515D01*
X95731627Y-139726896D01*
X95684008Y-139631658D01*
X95684008Y-139441181D01*
X95636389Y-139345943D01*
X95588770Y-139298324D01*
X95493531Y-139250705D01*
X95303055Y-139250705D01*
X95207817Y-139298324D01*
X95160198Y-139345943D01*
X95112579Y-139441181D01*
X95112579Y-139631658D01*
X95160198Y-139726896D01*
X95207817Y-139774515D01*
X95303055Y-139822134D01*
X95493531Y-139822134D01*
X95588770Y-139774515D01*
X95636389Y-139726896D01*
X95684008Y-139631658D01*
X96112579Y-140441181D02*
X96112579Y-140536420D01*
X96064960Y-140631658D01*
X96017341Y-140679277D01*
X95922103Y-140726896D01*
X95731627Y-140774515D01*
X95493531Y-140774515D01*
X95303055Y-140726896D01*
X95207817Y-140679277D01*
X95160198Y-140631658D01*
X95112579Y-140536420D01*
X95112579Y-140441181D01*
X95160198Y-140345943D01*
X95207817Y-140298324D01*
X95303055Y-140250705D01*
X95493531Y-140203086D01*
X95731627Y-140203086D01*
X95922103Y-140250705D01*
X96017341Y-140298324D01*
X96064960Y-140345943D01*
X96112579Y-140441181D01*
X96112579Y-141107848D02*
X96112579Y-141726896D01*
X95731627Y-141393562D01*
X95731627Y-141536420D01*
X95684008Y-141631658D01*
X95636389Y-141679277D01*
X95541150Y-141726896D01*
X95303055Y-141726896D01*
X95207817Y-141679277D01*
X95160198Y-141631658D01*
X95112579Y-141536420D01*
X95112579Y-141250705D01*
X95160198Y-141155467D01*
X95207817Y-141107848D01*
X95398293Y-142107848D02*
X95398293Y-142584039D01*
X95112579Y-142012610D02*
X96112579Y-142345943D01*
X95112579Y-142679277D01*
X67976786Y-148343881D02*
X67976786Y-147343881D01*
X67976786Y-147820071D02*
X68548215Y-147820071D01*
X68548215Y-148343881D02*
X68548215Y-147343881D01*
X73715524Y-148343881D02*
X73239333Y-148343881D01*
X73239333Y-147343881D01*
X77331867Y-139144286D02*
X77331867Y-138668095D01*
X77617581Y-139239524D02*
X76617581Y-138906191D01*
X77617581Y-138572857D01*
X76712819Y-138287143D02*
X76665200Y-138239524D01*
X76617581Y-138144286D01*
X76617581Y-137906190D01*
X76665200Y-137810952D01*
X76712819Y-137763333D01*
X76808057Y-137715714D01*
X76903295Y-137715714D01*
X77046152Y-137763333D01*
X77617581Y-138334762D01*
X77617581Y-137715714D01*
X77408067Y-142801886D02*
X77408067Y-142325695D01*
X77693781Y-142897124D02*
X76693781Y-142563791D01*
X77693781Y-142230457D01*
X77693781Y-141373314D02*
X77693781Y-141944743D01*
X77693781Y-141659029D02*
X76693781Y-141659029D01*
X76836638Y-141754267D01*
X76931876Y-141849505D01*
X76979495Y-141944743D01*
X77204867Y-146256286D02*
X77204867Y-145780095D01*
X77490581Y-146351524D02*
X76490581Y-146018191D01*
X77490581Y-145684857D01*
X76490581Y-145161048D02*
X76490581Y-145065809D01*
X76538200Y-144970571D01*
X76585819Y-144922952D01*
X76681057Y-144875333D01*
X76871533Y-144827714D01*
X77109629Y-144827714D01*
X77300105Y-144875333D01*
X77395343Y-144922952D01*
X77442962Y-144970571D01*
X77490581Y-145065809D01*
X77490581Y-145161048D01*
X77442962Y-145256286D01*
X77395343Y-145303905D01*
X77300105Y-145351524D01*
X77109629Y-145399143D01*
X76871533Y-145399143D01*
X76681057Y-145351524D01*
X76585819Y-145303905D01*
X76538200Y-145256286D01*
X76490581Y-145161048D01*
D12*
X112729265Y-145757008D02*
G75*
G03X115961600Y-145913916I1672335J1078608D01*
G01*
X112729265Y-143599792D02*
G75*
G02X115961600Y-143442884I1672335J-1078608D01*
G01*
X113360470Y-145758237D02*
G75*
G03X115442561Y-145758400I1041130J1079837D01*
G01*
X113360470Y-143598563D02*
G75*
G02X115442561Y-143598400I1041130J-1079837D01*
G01*
X115961600Y-145914400D02*
X115961600Y-145758400D01*
X115961600Y-143598400D02*
X115961600Y-143442400D01*
X58765500Y-147356500D02*
X64765500Y-147356500D01*
X64765500Y-147356500D02*
X64765500Y-134456500D01*
X64765500Y-134456500D02*
X58765500Y-134456500D01*
X58765500Y-134456500D02*
X58765500Y-147356500D01*
X64765500Y-145986500D02*
X63765500Y-145986500D01*
X63765500Y-145986500D02*
X63765500Y-135826500D01*
X63765500Y-135826500D02*
X64765500Y-135826500D01*
X63765500Y-145986500D02*
X63335500Y-145736500D01*
X63335500Y-145736500D02*
X63335500Y-136076500D01*
X63335500Y-136076500D02*
X63765500Y-135826500D01*
X64765500Y-145736500D02*
X63765500Y-145736500D01*
X64765500Y-136076500D02*
X63765500Y-136076500D01*
X58765500Y-146786500D02*
X59385500Y-146786500D01*
X59385500Y-146786500D02*
X59385500Y-145186500D01*
X59385500Y-145186500D02*
X58765500Y-145186500D01*
X58765500Y-144246500D02*
X59385500Y-144246500D01*
X59385500Y-144246500D02*
X59385500Y-142646500D01*
X59385500Y-142646500D02*
X58765500Y-142646500D01*
X58765500Y-141706500D02*
X59385500Y-141706500D01*
X59385500Y-141706500D02*
X59385500Y-140106500D01*
X59385500Y-140106500D02*
X58765500Y-140106500D01*
X58765500Y-139166500D02*
X59385500Y-139166500D01*
X59385500Y-139166500D02*
X59385500Y-137566500D01*
X59385500Y-137566500D02*
X58765500Y-137566500D01*
X58765500Y-136626500D02*
X59385500Y-136626500D01*
X59385500Y-136626500D02*
X59385500Y-135026500D01*
X59385500Y-135026500D02*
X58765500Y-135026500D01*
X136561000Y-140370000D02*
X136231000Y-140370000D01*
X136231000Y-140370000D02*
X136231000Y-133950000D01*
X136231000Y-133950000D02*
X136561000Y-133950000D01*
X138521000Y-140370000D02*
X138851000Y-140370000D01*
X138851000Y-140370000D02*
X138851000Y-133950000D01*
X138851000Y-133950000D02*
X138521000Y-133950000D01*
X102670865Y-145706208D02*
G75*
G03X105903200Y-145863116I1672335J1078608D01*
G01*
X102670865Y-143548992D02*
G75*
G02X105903200Y-143392084I1672335J-1078608D01*
G01*
X103302070Y-145707437D02*
G75*
G03X105384161Y-145707600I1041130J1079837D01*
G01*
X103302070Y-143547763D02*
G75*
G02X105384161Y-143547600I1041130J-1079837D01*
G01*
X105903200Y-145863600D02*
X105903200Y-145707600D01*
X105903200Y-143547600D02*
X105903200Y-143391600D01*
X107750865Y-145706208D02*
G75*
G03X110983200Y-145863116I1672335J1078608D01*
G01*
X107750865Y-143548992D02*
G75*
G02X110983200Y-143392084I1672335J-1078608D01*
G01*
X108382070Y-145707437D02*
G75*
G03X110464161Y-145707600I1041130J1079837D01*
G01*
X108382070Y-143547763D02*
G75*
G02X110464161Y-143547600I1041130J-1079837D01*
G01*
X110983200Y-145863600D02*
X110983200Y-145707600D01*
X110983200Y-143547600D02*
X110983200Y-143391600D01*
X96818960Y-122164800D02*
G75*
G02X94818960Y-122164800I-1000000J0D01*
G01*
X94818960Y-122164800D02*
X93168960Y-122164800D01*
X93168960Y-122164800D02*
X93168960Y-145144800D01*
X93168960Y-145144800D02*
X98468960Y-145144800D01*
X98468960Y-145144800D02*
X98468960Y-122164800D01*
X98468960Y-122164800D02*
X96818960Y-122164800D01*
X90678960Y-122104800D02*
X90678960Y-145204800D01*
X90678960Y-145204800D02*
X100958960Y-145204800D01*
X100958960Y-145204800D02*
X100958960Y-122104800D01*
X100958960Y-122104800D02*
X90678960Y-122104800D01*
X85134960Y-122164800D02*
G75*
G02X83134960Y-122164800I-1000000J0D01*
G01*
X83134960Y-122164800D02*
X81484960Y-122164800D01*
X81484960Y-122164800D02*
X81484960Y-145144800D01*
X81484960Y-145144800D02*
X86784960Y-145144800D01*
X86784960Y-145144800D02*
X86784960Y-122164800D01*
X86784960Y-122164800D02*
X85134960Y-122164800D01*
X78994960Y-122104800D02*
X78994960Y-145204800D01*
X78994960Y-145204800D02*
X89274960Y-145204800D01*
X89274960Y-145204800D02*
X89274960Y-122104800D01*
X89274960Y-122104800D02*
X78994960Y-122104800D01*
X56743600Y-109575600D02*
X56743600Y-119735600D01*
X58013600Y-109575600D02*
X50393600Y-109575600D01*
X50393600Y-109575600D02*
X50393600Y-119735600D01*
X50393600Y-119735600D02*
X58013600Y-119735600D01*
X58013600Y-119735600D02*
X58013600Y-109575600D01*
X92456000Y-57150000D02*
X82296000Y-57150000D01*
X92456000Y-58420000D02*
X92456000Y-50800000D01*
X92456000Y-50800000D02*
X82296000Y-50800000D01*
X82296000Y-50800000D02*
X82296000Y-58420000D01*
X82296000Y-58420000D02*
X92456000Y-58420000D01*
X59269000Y-122849000D02*
X59269000Y-117729000D01*
X61889000Y-122849000D02*
X61889000Y-117729000D01*
X59269000Y-122849000D02*
X61889000Y-122849000D01*
X59269000Y-117729000D02*
X61889000Y-117729000D01*
X75842500Y-122849000D02*
X75842500Y-117729000D01*
X78462500Y-122849000D02*
X78462500Y-117729000D01*
X75842500Y-122849000D02*
X78462500Y-122849000D01*
X75842500Y-117729000D02*
X78462500Y-117729000D01*
X102893500Y-122023500D02*
X102893500Y-116903500D01*
X105513500Y-122023500D02*
X105513500Y-116903500D01*
X102893500Y-122023500D02*
X105513500Y-122023500D01*
X102893500Y-116903500D02*
X105513500Y-116903500D01*
X124039000Y-122214000D02*
X124039000Y-117094000D01*
X126659000Y-122214000D02*
X126659000Y-117094000D01*
X124039000Y-122214000D02*
X126659000Y-122214000D01*
X124039000Y-117094000D02*
X126659000Y-117094000D01*
X135977000Y-122671200D02*
X135977000Y-117551200D01*
X138597000Y-122671200D02*
X138597000Y-117551200D01*
X135977000Y-122671200D02*
X138597000Y-122671200D01*
X135977000Y-117551200D02*
X138597000Y-117551200D01*
X118641500Y-122214000D02*
X118641500Y-117094000D01*
X121261500Y-122214000D02*
X121261500Y-117094000D01*
X118641500Y-122214000D02*
X121261500Y-122214000D01*
X118641500Y-117094000D02*
X121261500Y-117094000D01*
X94892500Y-121515500D02*
X94892500Y-116395500D01*
X97512500Y-121515500D02*
X97512500Y-116395500D01*
X94892500Y-121515500D02*
X97512500Y-121515500D01*
X94892500Y-116395500D02*
X97512500Y-116395500D01*
X70635500Y-122912500D02*
X70635500Y-117792500D01*
X73255500Y-122912500D02*
X73255500Y-117792500D01*
X70635500Y-122912500D02*
X73255500Y-122912500D01*
X70635500Y-117792500D02*
X73255500Y-117792500D01*
X140091800Y-131434200D02*
X140091800Y-126314200D01*
X142711800Y-131434200D02*
X142711800Y-126314200D01*
X140091800Y-131434200D02*
X142711800Y-131434200D01*
X140091800Y-126314200D02*
X142711800Y-126314200D01*
X82002000Y-146010000D02*
X87122000Y-146010000D01*
X82002000Y-148630000D02*
X87122000Y-148630000D01*
X82002000Y-146010000D02*
X82002000Y-148630000D01*
X87122000Y-146010000D02*
X87122000Y-148630000D01*
X131124149Y-128812445D02*
G75*
G03X138957082Y-128815000I3916851J1177445D01*
G01*
X131124149Y-126457555D02*
G75*
G02X138957082Y-126455000I3916851J-1177445D01*
G01*
X131124149Y-126457555D02*
G75*
G03X131124918Y-128815000I3916851J-1177445D01*
G01*
X135041000Y-131685000D02*
X135041000Y-123585000D01*
X135001000Y-131685000D02*
X135001000Y-123585000D01*
X134961000Y-131685000D02*
X134961000Y-123585000D01*
X134921000Y-131684000D02*
X134921000Y-123586000D01*
X134881000Y-131682000D02*
X134881000Y-123588000D01*
X134841000Y-131681000D02*
X134841000Y-123589000D01*
X134801000Y-131678000D02*
X134801000Y-123592000D01*
X134761000Y-131676000D02*
X134761000Y-123594000D01*
X134721000Y-131673000D02*
X134721000Y-123597000D01*
X134681000Y-131670000D02*
X134681000Y-123600000D01*
X134641000Y-131666000D02*
X134641000Y-123604000D01*
X134601000Y-131662000D02*
X134601000Y-123608000D01*
X134561000Y-131657000D02*
X134561000Y-123613000D01*
X134521000Y-131652000D02*
X134521000Y-123618000D01*
X134481000Y-131647000D02*
X134481000Y-123623000D01*
X134441000Y-131641000D02*
X134441000Y-123629000D01*
X134401000Y-131635000D02*
X134401000Y-123635000D01*
X134361000Y-131629000D02*
X134361000Y-123641000D01*
X134320000Y-131622000D02*
X134320000Y-123648000D01*
X134280000Y-131614000D02*
X134280000Y-123656000D01*
X134240000Y-131606000D02*
X134240000Y-123664000D01*
X134200000Y-131598000D02*
X134200000Y-123672000D01*
X134160000Y-131590000D02*
X134160000Y-123680000D01*
X134120000Y-131581000D02*
X134120000Y-123689000D01*
X134080000Y-131571000D02*
X134080000Y-123699000D01*
X134040000Y-131561000D02*
X134040000Y-123709000D01*
X134000000Y-131551000D02*
X134000000Y-123719000D01*
X133960000Y-131540000D02*
X133960000Y-123730000D01*
X133920000Y-131529000D02*
X133920000Y-123741000D01*
X133880000Y-131518000D02*
X133880000Y-123752000D01*
X133840000Y-131505000D02*
X133840000Y-123765000D01*
X133800000Y-131493000D02*
X133800000Y-123777000D01*
X133760000Y-131480000D02*
X133760000Y-123790000D01*
X133720000Y-131467000D02*
X133720000Y-123803000D01*
X133680000Y-131453000D02*
X133680000Y-123817000D01*
X133640000Y-131438000D02*
X133640000Y-123832000D01*
X133600000Y-131424000D02*
X133600000Y-123846000D01*
X133560000Y-131408000D02*
X133560000Y-123862000D01*
X133520000Y-131393000D02*
X133520000Y-128615000D01*
X133520000Y-126655000D02*
X133520000Y-123877000D01*
X133480000Y-131376000D02*
X133480000Y-128615000D01*
X133480000Y-126655000D02*
X133480000Y-123894000D01*
X133440000Y-131360000D02*
X133440000Y-128615000D01*
X133440000Y-126655000D02*
X133440000Y-123910000D01*
X133400000Y-131342000D02*
X133400000Y-128615000D01*
X133400000Y-126655000D02*
X133400000Y-123928000D01*
X133360000Y-131325000D02*
X133360000Y-128615000D01*
X133360000Y-126655000D02*
X133360000Y-123945000D01*
X133320000Y-131306000D02*
X133320000Y-128615000D01*
X133320000Y-126655000D02*
X133320000Y-123964000D01*
X133280000Y-131287000D02*
X133280000Y-128615000D01*
X133280000Y-126655000D02*
X133280000Y-123983000D01*
X133240000Y-131268000D02*
X133240000Y-128615000D01*
X133240000Y-126655000D02*
X133240000Y-124002000D01*
X133200000Y-131248000D02*
X133200000Y-128615000D01*
X133200000Y-126655000D02*
X133200000Y-124022000D01*
X133160000Y-131228000D02*
X133160000Y-128615000D01*
X133160000Y-126655000D02*
X133160000Y-124042000D01*
X133120000Y-131207000D02*
X133120000Y-128615000D01*
X133120000Y-126655000D02*
X133120000Y-124063000D01*
X133080000Y-131185000D02*
X133080000Y-128615000D01*
X133080000Y-126655000D02*
X133080000Y-124085000D01*
X133040000Y-131163000D02*
X133040000Y-128615000D01*
X133040000Y-126655000D02*
X133040000Y-124107000D01*
X133000000Y-131140000D02*
X133000000Y-128615000D01*
X133000000Y-126655000D02*
X133000000Y-124130000D01*
X132960000Y-131117000D02*
X132960000Y-128615000D01*
X132960000Y-126655000D02*
X132960000Y-124153000D01*
X132920000Y-131093000D02*
X132920000Y-128615000D01*
X132920000Y-126655000D02*
X132920000Y-124177000D01*
X132880000Y-131069000D02*
X132880000Y-128615000D01*
X132880000Y-126655000D02*
X132880000Y-124201000D01*
X132840000Y-131043000D02*
X132840000Y-128615000D01*
X132840000Y-126655000D02*
X132840000Y-124227000D01*
X132800000Y-131018000D02*
X132800000Y-128615000D01*
X132800000Y-126655000D02*
X132800000Y-124252000D01*
X132760000Y-130991000D02*
X132760000Y-128615000D01*
X132760000Y-126655000D02*
X132760000Y-124279000D01*
X132720000Y-130964000D02*
X132720000Y-128615000D01*
X132720000Y-126655000D02*
X132720000Y-124306000D01*
X132680000Y-130936000D02*
X132680000Y-128615000D01*
X132680000Y-126655000D02*
X132680000Y-124334000D01*
X132640000Y-130907000D02*
X132640000Y-128615000D01*
X132640000Y-126655000D02*
X132640000Y-124363000D01*
X132600000Y-130878000D02*
X132600000Y-128615000D01*
X132600000Y-126655000D02*
X132600000Y-124392000D01*
X132560000Y-130848000D02*
X132560000Y-128615000D01*
X132560000Y-126655000D02*
X132560000Y-124422000D01*
X132520000Y-130817000D02*
X132520000Y-128615000D01*
X132520000Y-126655000D02*
X132520000Y-124453000D01*
X132480000Y-130785000D02*
X132480000Y-128615000D01*
X132480000Y-126655000D02*
X132480000Y-124485000D01*
X132440000Y-130753000D02*
X132440000Y-128615000D01*
X132440000Y-126655000D02*
X132440000Y-124517000D01*
X132400000Y-130719000D02*
X132400000Y-128615000D01*
X132400000Y-126655000D02*
X132400000Y-124551000D01*
X132360000Y-130685000D02*
X132360000Y-128615000D01*
X132360000Y-126655000D02*
X132360000Y-124585000D01*
X132320000Y-130650000D02*
X132320000Y-128615000D01*
X132320000Y-126655000D02*
X132320000Y-124620000D01*
X132280000Y-130614000D02*
X132280000Y-128615000D01*
X132280000Y-126655000D02*
X132280000Y-124656000D01*
X132240000Y-130577000D02*
X132240000Y-128615000D01*
X132240000Y-126655000D02*
X132240000Y-124693000D01*
X132200000Y-130539000D02*
X132200000Y-128615000D01*
X132200000Y-126655000D02*
X132200000Y-124731000D01*
X132160000Y-130500000D02*
X132160000Y-128615000D01*
X132160000Y-126655000D02*
X132160000Y-124770000D01*
X132120000Y-130459000D02*
X132120000Y-128615000D01*
X132120000Y-126655000D02*
X132120000Y-124811000D01*
X132080000Y-130418000D02*
X132080000Y-128615000D01*
X132080000Y-126655000D02*
X132080000Y-124852000D01*
X132040000Y-130375000D02*
X132040000Y-128615000D01*
X132040000Y-126655000D02*
X132040000Y-124895000D01*
X132000000Y-130332000D02*
X132000000Y-128615000D01*
X132000000Y-126655000D02*
X132000000Y-124938000D01*
X131960000Y-130287000D02*
X131960000Y-128615000D01*
X131960000Y-126655000D02*
X131960000Y-124983000D01*
X131920000Y-130240000D02*
X131920000Y-128615000D01*
X131920000Y-126655000D02*
X131920000Y-125030000D01*
X131880000Y-130192000D02*
X131880000Y-128615000D01*
X131880000Y-126655000D02*
X131880000Y-125078000D01*
X131840000Y-130143000D02*
X131840000Y-128615000D01*
X131840000Y-126655000D02*
X131840000Y-125127000D01*
X131800000Y-130092000D02*
X131800000Y-128615000D01*
X131800000Y-126655000D02*
X131800000Y-125178000D01*
X131760000Y-130039000D02*
X131760000Y-128615000D01*
X131760000Y-126655000D02*
X131760000Y-125231000D01*
X131720000Y-129984000D02*
X131720000Y-128615000D01*
X131720000Y-126655000D02*
X131720000Y-125286000D01*
X131680000Y-129928000D02*
X131680000Y-128615000D01*
X131680000Y-126655000D02*
X131680000Y-125342000D01*
X131640000Y-129869000D02*
X131640000Y-128615000D01*
X131640000Y-126655000D02*
X131640000Y-125401000D01*
X131600000Y-129808000D02*
X131600000Y-128615000D01*
X131600000Y-126655000D02*
X131600000Y-125462000D01*
X131560000Y-129744000D02*
X131560000Y-125526000D01*
X131520000Y-129678000D02*
X131520000Y-125592000D01*
X131480000Y-129609000D02*
X131480000Y-125661000D01*
X131440000Y-129537000D02*
X131440000Y-125733000D01*
X131400000Y-129461000D02*
X131400000Y-125809000D01*
X131360000Y-129380000D02*
X131360000Y-125890000D01*
X131320000Y-129295000D02*
X131320000Y-125975000D01*
X131280000Y-129205000D02*
X131280000Y-126065000D01*
X131240000Y-129108000D02*
X131240000Y-126162000D01*
X131200000Y-129004000D02*
X131200000Y-126266000D01*
X131160000Y-128889000D02*
X131160000Y-126381000D01*
X131120000Y-128762000D02*
X131120000Y-126508000D01*
X131080000Y-128618000D02*
X131080000Y-126652000D01*
X131040000Y-128449000D02*
X131040000Y-126821000D01*
X131000000Y-128233000D02*
X131000000Y-127037000D01*
X130960000Y-127881000D02*
X130960000Y-127389000D01*
X139741000Y-127635000D02*
X138541000Y-127635000D01*
X139141000Y-128285000D02*
X139141000Y-126985000D01*
X66932500Y-144021500D02*
X66932500Y-146681500D01*
X72072500Y-144021500D02*
X66932500Y-144021500D01*
X72072500Y-146681500D02*
X66932500Y-146681500D01*
X72072500Y-144021500D02*
X72072500Y-146681500D01*
X73342500Y-144021500D02*
X74672500Y-144021500D01*
X74672500Y-144021500D02*
X74672500Y-145351500D01*
X66932500Y-140592500D02*
X66932500Y-143252500D01*
X72072500Y-140592500D02*
X66932500Y-140592500D01*
X72072500Y-143252500D02*
X66932500Y-143252500D01*
X72072500Y-140592500D02*
X72072500Y-143252500D01*
X73342500Y-140592500D02*
X74672500Y-140592500D01*
X74672500Y-140592500D02*
X74672500Y-141922500D01*
X67123000Y-137036500D02*
X67123000Y-139696500D01*
X72263000Y-137036500D02*
X67123000Y-137036500D01*
X72263000Y-139696500D02*
X67123000Y-139696500D01*
X72263000Y-137036500D02*
X72263000Y-139696500D01*
X73533000Y-137036500D02*
X74863000Y-137036500D01*
X74863000Y-137036500D02*
X74863000Y-138366500D01*
X67656000Y-132878000D02*
X67656000Y-132548000D01*
X67656000Y-132548000D02*
X74076000Y-132548000D01*
X74076000Y-132548000D02*
X74076000Y-132878000D01*
X67656000Y-134838000D02*
X67656000Y-135168000D01*
X67656000Y-135168000D02*
X74076000Y-135168000D01*
X74076000Y-135168000D02*
X74076000Y-134838000D01*
X59499778Y-130338723D02*
G75*
G03X64111080Y-130339000I2305722J1179723D01*
G01*
X59499778Y-127979277D02*
G75*
G02X64111080Y-127979000I2305722J-1179723D01*
G01*
X59499778Y-127979277D02*
G75*
G03X59499920Y-130339000I2305722J-1179723D01*
G01*
X61805500Y-131709000D02*
X61805500Y-126609000D01*
X61765500Y-131709000D02*
X61765500Y-126609000D01*
X61725500Y-131708000D02*
X61725500Y-126610000D01*
X61685500Y-131707000D02*
X61685500Y-126611000D01*
X61645500Y-131705000D02*
X61645500Y-126613000D01*
X61605500Y-131702000D02*
X61605500Y-126616000D01*
X61565500Y-131698000D02*
X61565500Y-126620000D01*
X61525500Y-131694000D02*
X61525500Y-130139000D01*
X61525500Y-128179000D02*
X61525500Y-126624000D01*
X61485500Y-131690000D02*
X61485500Y-130139000D01*
X61485500Y-128179000D02*
X61485500Y-126628000D01*
X61445500Y-131684000D02*
X61445500Y-130139000D01*
X61445500Y-128179000D02*
X61445500Y-126634000D01*
X61405500Y-131678000D02*
X61405500Y-130139000D01*
X61405500Y-128179000D02*
X61405500Y-126640000D01*
X61365500Y-131672000D02*
X61365500Y-130139000D01*
X61365500Y-128179000D02*
X61365500Y-126646000D01*
X61325500Y-131665000D02*
X61325500Y-130139000D01*
X61325500Y-128179000D02*
X61325500Y-126653000D01*
X61285500Y-131657000D02*
X61285500Y-130139000D01*
X61285500Y-128179000D02*
X61285500Y-126661000D01*
X61245500Y-131648000D02*
X61245500Y-130139000D01*
X61245500Y-128179000D02*
X61245500Y-126670000D01*
X61205500Y-131639000D02*
X61205500Y-130139000D01*
X61205500Y-128179000D02*
X61205500Y-126679000D01*
X61165500Y-131629000D02*
X61165500Y-130139000D01*
X61165500Y-128179000D02*
X61165500Y-126689000D01*
X61125500Y-131619000D02*
X61125500Y-130139000D01*
X61125500Y-128179000D02*
X61125500Y-126699000D01*
X61084500Y-131607000D02*
X61084500Y-130139000D01*
X61084500Y-128179000D02*
X61084500Y-126711000D01*
X61044500Y-131595000D02*
X61044500Y-130139000D01*
X61044500Y-128179000D02*
X61044500Y-126723000D01*
X61004500Y-131583000D02*
X61004500Y-130139000D01*
X61004500Y-128179000D02*
X61004500Y-126735000D01*
X60964500Y-131569000D02*
X60964500Y-130139000D01*
X60964500Y-128179000D02*
X60964500Y-126749000D01*
X60924500Y-131555000D02*
X60924500Y-130139000D01*
X60924500Y-128179000D02*
X60924500Y-126763000D01*
X60884500Y-131541000D02*
X60884500Y-130139000D01*
X60884500Y-128179000D02*
X60884500Y-126777000D01*
X60844500Y-131525000D02*
X60844500Y-130139000D01*
X60844500Y-128179000D02*
X60844500Y-126793000D01*
X60804500Y-131509000D02*
X60804500Y-130139000D01*
X60804500Y-128179000D02*
X60804500Y-126809000D01*
X60764500Y-131492000D02*
X60764500Y-130139000D01*
X60764500Y-128179000D02*
X60764500Y-126826000D01*
X60724500Y-131474000D02*
X60724500Y-130139000D01*
X60724500Y-128179000D02*
X60724500Y-126844000D01*
X60684500Y-131455000D02*
X60684500Y-130139000D01*
X60684500Y-128179000D02*
X60684500Y-126863000D01*
X60644500Y-131435000D02*
X60644500Y-130139000D01*
X60644500Y-128179000D02*
X60644500Y-126883000D01*
X60604500Y-131415000D02*
X60604500Y-130139000D01*
X60604500Y-128179000D02*
X60604500Y-126903000D01*
X60564500Y-131393000D02*
X60564500Y-130139000D01*
X60564500Y-128179000D02*
X60564500Y-126925000D01*
X60524500Y-131371000D02*
X60524500Y-130139000D01*
X60524500Y-128179000D02*
X60524500Y-126947000D01*
X60484500Y-131348000D02*
X60484500Y-130139000D01*
X60484500Y-128179000D02*
X60484500Y-126970000D01*
X60444500Y-131324000D02*
X60444500Y-130139000D01*
X60444500Y-128179000D02*
X60444500Y-126994000D01*
X60404500Y-131299000D02*
X60404500Y-130139000D01*
X60404500Y-128179000D02*
X60404500Y-127019000D01*
X60364500Y-131272000D02*
X60364500Y-130139000D01*
X60364500Y-128179000D02*
X60364500Y-127046000D01*
X60324500Y-131245000D02*
X60324500Y-130139000D01*
X60324500Y-128179000D02*
X60324500Y-127073000D01*
X60284500Y-131217000D02*
X60284500Y-130139000D01*
X60284500Y-128179000D02*
X60284500Y-127101000D01*
X60244500Y-131187000D02*
X60244500Y-130139000D01*
X60244500Y-128179000D02*
X60244500Y-127131000D01*
X60204500Y-131156000D02*
X60204500Y-130139000D01*
X60204500Y-128179000D02*
X60204500Y-127162000D01*
X60164500Y-131124000D02*
X60164500Y-130139000D01*
X60164500Y-128179000D02*
X60164500Y-127194000D01*
X60124500Y-131091000D02*
X60124500Y-130139000D01*
X60124500Y-128179000D02*
X60124500Y-127227000D01*
X60084500Y-131056000D02*
X60084500Y-130139000D01*
X60084500Y-128179000D02*
X60084500Y-127262000D01*
X60044500Y-131020000D02*
X60044500Y-130139000D01*
X60044500Y-128179000D02*
X60044500Y-127298000D01*
X60004500Y-130982000D02*
X60004500Y-130139000D01*
X60004500Y-128179000D02*
X60004500Y-127336000D01*
X59964500Y-130942000D02*
X59964500Y-130139000D01*
X59964500Y-128179000D02*
X59964500Y-127376000D01*
X59924500Y-130901000D02*
X59924500Y-130139000D01*
X59924500Y-128179000D02*
X59924500Y-127417000D01*
X59884500Y-130858000D02*
X59884500Y-130139000D01*
X59884500Y-128179000D02*
X59884500Y-127460000D01*
X59844500Y-130813000D02*
X59844500Y-130139000D01*
X59844500Y-128179000D02*
X59844500Y-127505000D01*
X59804500Y-130765000D02*
X59804500Y-130139000D01*
X59804500Y-128179000D02*
X59804500Y-127553000D01*
X59764500Y-130715000D02*
X59764500Y-130139000D01*
X59764500Y-128179000D02*
X59764500Y-127603000D01*
X59724500Y-130663000D02*
X59724500Y-130139000D01*
X59724500Y-128179000D02*
X59724500Y-127655000D01*
X59684500Y-130607000D02*
X59684500Y-130139000D01*
X59684500Y-128179000D02*
X59684500Y-127711000D01*
X59644500Y-130549000D02*
X59644500Y-130139000D01*
X59644500Y-128179000D02*
X59644500Y-127769000D01*
X59604500Y-130486000D02*
X59604500Y-130139000D01*
X59604500Y-128179000D02*
X59604500Y-127832000D01*
X59564500Y-130420000D02*
X59564500Y-127898000D01*
X59524500Y-130348000D02*
X59524500Y-127970000D01*
X59484500Y-130271000D02*
X59484500Y-128047000D01*
X59444500Y-130187000D02*
X59444500Y-128131000D01*
X59404500Y-130093000D02*
X59404500Y-128225000D01*
X59364500Y-129988000D02*
X59364500Y-128330000D01*
X59324500Y-129866000D02*
X59324500Y-128452000D01*
X59284500Y-129718000D02*
X59284500Y-128600000D01*
X59244500Y-129513000D02*
X59244500Y-128805000D01*
X65255500Y-129159000D02*
X64055500Y-129159000D01*
X64655500Y-129809000D02*
X64655500Y-128509000D01*
X56388000Y-57912000D02*
X56388000Y-68072000D01*
X57658000Y-57912000D02*
X50038000Y-57912000D01*
X50038000Y-57912000D02*
X50038000Y-68072000D01*
X50038000Y-68072000D02*
X57658000Y-68072000D01*
X57658000Y-68072000D02*
X57658000Y-57912000D01*
X55286000Y-53000000D02*
G75*
G03X55286000Y-53000000I-2286000J0D01*
G01*
X55286000Y-147000000D02*
G75*
G03X55286000Y-147000000I-2286000J0D01*
G01*
X149286000Y-53000000D02*
G75*
G03X149286000Y-53000000I-2286000J0D01*
G01*
X149286000Y-147000000D02*
G75*
G03X149286000Y-147000000I-2286000J0D01*
G01*
X67592500Y-129576000D02*
X67592500Y-129246000D01*
X67592500Y-129246000D02*
X74012500Y-129246000D01*
X74012500Y-129246000D02*
X74012500Y-129576000D01*
X67592500Y-131536000D02*
X67592500Y-131866000D01*
X67592500Y-131866000D02*
X74012500Y-131866000D01*
X74012500Y-131866000D02*
X74012500Y-131536000D01*
X117707665Y-145757008D02*
G75*
G03X120940000Y-145913916I1672335J1078608D01*
G01*
X117707665Y-143599792D02*
G75*
G02X120940000Y-143442884I1672335J-1078608D01*
G01*
X118338870Y-145758237D02*
G75*
G03X120420961Y-145758400I1041130J1079837D01*
G01*
X118338870Y-143598563D02*
G75*
G02X120420961Y-143598400I1041130J-1079837D01*
G01*
X120940000Y-145914400D02*
X120940000Y-145758400D01*
X120940000Y-143598400D02*
X120940000Y-143442400D01*
X122736865Y-145757008D02*
G75*
G03X125969200Y-145913916I1672335J1078608D01*
G01*
X122736865Y-143599792D02*
G75*
G02X125969200Y-143442884I1672335J-1078608D01*
G01*
X123368070Y-145758237D02*
G75*
G03X125450161Y-145758400I1041130J1079837D01*
G01*
X123368070Y-143598563D02*
G75*
G02X125450161Y-143598400I1041130J-1079837D01*
G01*
X125969200Y-145914400D02*
X125969200Y-145758400D01*
X125969200Y-143598400D02*
X125969200Y-143442400D01*
X127867665Y-145655408D02*
G75*
G03X131100000Y-145812316I1672335J1078608D01*
G01*
X127867665Y-143498192D02*
G75*
G02X131100000Y-143341284I1672335J-1078608D01*
G01*
X128498870Y-145656637D02*
G75*
G03X130580961Y-145656800I1041130J1079837D01*
G01*
X128498870Y-143496963D02*
G75*
G02X130580961Y-143496800I1041130J-1079837D01*
G01*
X131100000Y-145812800D02*
X131100000Y-145656800D01*
X131100000Y-143496800D02*
X131100000Y-143340800D01*
X132896865Y-145706208D02*
G75*
G03X136129200Y-145863116I1672335J1078608D01*
G01*
X132896865Y-143548992D02*
G75*
G02X136129200Y-143392084I1672335J-1078608D01*
G01*
X133528070Y-145707437D02*
G75*
G03X135610161Y-145707600I1041130J1079837D01*
G01*
X133528070Y-143547763D02*
G75*
G02X135610161Y-143547600I1041130J-1079837D01*
G01*
X136129200Y-145863600D02*
X136129200Y-145707600D01*
X136129200Y-143547600D02*
X136129200Y-143391600D01*
X137875265Y-145604608D02*
G75*
G03X141107600Y-145761516I1672335J1078608D01*
G01*
X137875265Y-143447392D02*
G75*
G02X141107600Y-143290484I1672335J-1078608D01*
G01*
X138506470Y-145605837D02*
G75*
G03X140588561Y-145606000I1041130J1079837D01*
G01*
X138506470Y-143446163D02*
G75*
G02X140588561Y-143446000I1041130J-1079837D01*
G01*
X141107600Y-145762000D02*
X141107600Y-145606000D01*
X141107600Y-143446000D02*
X141107600Y-143290000D01*
X106208000Y-140497000D02*
X105878000Y-140497000D01*
X105878000Y-140497000D02*
X105878000Y-134077000D01*
X105878000Y-134077000D02*
X106208000Y-134077000D01*
X108168000Y-140497000D02*
X108498000Y-140497000D01*
X108498000Y-140497000D02*
X108498000Y-134077000D01*
X108498000Y-134077000D02*
X108168000Y-134077000D01*
X111415000Y-140243000D02*
X111085000Y-140243000D01*
X111085000Y-140243000D02*
X111085000Y-133823000D01*
X111085000Y-133823000D02*
X111415000Y-133823000D01*
X113375000Y-140243000D02*
X113705000Y-140243000D01*
X113705000Y-140243000D02*
X113705000Y-133823000D01*
X113705000Y-133823000D02*
X113375000Y-133823000D01*
X116368000Y-140243000D02*
X116038000Y-140243000D01*
X116038000Y-140243000D02*
X116038000Y-133823000D01*
X116038000Y-133823000D02*
X116368000Y-133823000D01*
X118328000Y-140243000D02*
X118658000Y-140243000D01*
X118658000Y-140243000D02*
X118658000Y-133823000D01*
X118658000Y-133823000D02*
X118328000Y-133823000D01*
X121321000Y-140370000D02*
X120991000Y-140370000D01*
X120991000Y-140370000D02*
X120991000Y-133950000D01*
X120991000Y-133950000D02*
X121321000Y-133950000D01*
X123281000Y-140370000D02*
X123611000Y-140370000D01*
X123611000Y-140370000D02*
X123611000Y-133950000D01*
X123611000Y-133950000D02*
X123281000Y-133950000D01*
X126528000Y-140243000D02*
X126198000Y-140243000D01*
X126198000Y-140243000D02*
X126198000Y-133823000D01*
X126198000Y-133823000D02*
X126528000Y-133823000D01*
X128488000Y-140243000D02*
X128818000Y-140243000D01*
X128818000Y-140243000D02*
X128818000Y-133823000D01*
X128818000Y-133823000D02*
X128488000Y-133823000D01*
X131481000Y-140370000D02*
X131151000Y-140370000D01*
X131151000Y-140370000D02*
X131151000Y-133950000D01*
X131151000Y-133950000D02*
X131481000Y-133950000D01*
X133441000Y-140370000D02*
X133771000Y-140370000D01*
X133771000Y-140370000D02*
X133771000Y-133950000D01*
X133771000Y-133950000D02*
X133441000Y-133950000D01*
X139990000Y-140166800D02*
X139660000Y-140166800D01*
X139660000Y-140166800D02*
X139660000Y-133746800D01*
X139660000Y-133746800D02*
X139990000Y-133746800D01*
X141950000Y-140166800D02*
X142280000Y-140166800D01*
X142280000Y-140166800D02*
X142280000Y-133746800D01*
X142280000Y-133746800D02*
X141950000Y-133746800D01*
D13*
X83249000Y-112633000D02*
X83249000Y-111633000D01*
X92249000Y-112633000D02*
X92249000Y-111633000D01*
X92749000Y-113133000D02*
X95249000Y-113133000D01*
X95249000Y-113133000D02*
X95249000Y-112633000D01*
X82249000Y-113133000D02*
X79749000Y-113133000D01*
X79749000Y-113133000D02*
X79749000Y-112633000D01*
X83249000Y-110633000D02*
X83249000Y-109633000D01*
X92249000Y-110633000D02*
X92249000Y-109633000D01*
X90499000Y-113383000D02*
G75*
G03X92499000Y-113383000I1000000J1000000D01*
G01*
X88499000Y-113383000D02*
G75*
G03X90499000Y-113383000I1000000J1000000D01*
G01*
X86499000Y-113383000D02*
G75*
G03X88499000Y-113383000I1000000J1000000D01*
G01*
X84499000Y-113383000D02*
G75*
G03X86499000Y-113383000I1000000J1000000D01*
G01*
X82499000Y-113383000D02*
G75*
G03X84499000Y-113383000I1000000J1000000D01*
G01*
X91249000Y-111633000D02*
X92249000Y-111633000D01*
X93249000Y-111633000D02*
X91249000Y-111633000D01*
X93249000Y-110633000D02*
X92249000Y-110633000D01*
X91249000Y-110633000D02*
X93249000Y-110633000D01*
X82249000Y-110633000D02*
X84249000Y-110633000D01*
X84249000Y-110633000D02*
X83249000Y-110633000D01*
X84249000Y-111633000D02*
X82249000Y-111633000D01*
X82249000Y-111633000D02*
X83249000Y-111633000D01*
X63335400Y-112709200D02*
X63335400Y-111709200D01*
X72335400Y-112709200D02*
X72335400Y-111709200D01*
X72835400Y-113209200D02*
X75335400Y-113209200D01*
X75335400Y-113209200D02*
X75335400Y-112709200D01*
X62335400Y-113209200D02*
X59835400Y-113209200D01*
X59835400Y-113209200D02*
X59835400Y-112709200D01*
X63335400Y-110709200D02*
X63335400Y-109709200D01*
X72335400Y-110709200D02*
X72335400Y-109709200D01*
X70585400Y-113459200D02*
G75*
G03X72585400Y-113459200I1000000J1000000D01*
G01*
X68585400Y-113459200D02*
G75*
G03X70585400Y-113459200I1000000J1000000D01*
G01*
X66585400Y-113459200D02*
G75*
G03X68585400Y-113459200I1000000J1000000D01*
G01*
X64585400Y-113459200D02*
G75*
G03X66585400Y-113459200I1000000J1000000D01*
G01*
X62585400Y-113459200D02*
G75*
G03X64585400Y-113459200I1000000J1000000D01*
G01*
X71335400Y-111709200D02*
X72335400Y-111709200D01*
X73335400Y-111709200D02*
X71335400Y-111709200D01*
X73335400Y-110709200D02*
X72335400Y-110709200D01*
X71335400Y-110709200D02*
X73335400Y-110709200D01*
X62335400Y-110709200D02*
X64335400Y-110709200D01*
X64335400Y-110709200D02*
X63335400Y-110709200D01*
X64335400Y-111709200D02*
X62335400Y-111709200D01*
X62335400Y-111709200D02*
X63335400Y-111709200D01*
X107760000Y-112633000D02*
X107760000Y-111633000D01*
X116760000Y-112633000D02*
X116760000Y-111633000D01*
X117260000Y-113133000D02*
X119760000Y-113133000D01*
X119760000Y-113133000D02*
X119760000Y-112633000D01*
X106760000Y-113133000D02*
X104260000Y-113133000D01*
X104260000Y-113133000D02*
X104260000Y-112633000D01*
X107760000Y-110633000D02*
X107760000Y-109633000D01*
X116760000Y-110633000D02*
X116760000Y-109633000D01*
X115010000Y-113383000D02*
G75*
G03X117010000Y-113383000I1000000J1000000D01*
G01*
X113010000Y-113383000D02*
G75*
G03X115010000Y-113383000I1000000J1000000D01*
G01*
X111010000Y-113383000D02*
G75*
G03X113010000Y-113383000I1000000J1000000D01*
G01*
X109010000Y-113383000D02*
G75*
G03X111010000Y-113383000I1000000J1000000D01*
G01*
X107010000Y-113383000D02*
G75*
G03X109010000Y-113383000I1000000J1000000D01*
G01*
X115760000Y-111633000D02*
X116760000Y-111633000D01*
X117760000Y-111633000D02*
X115760000Y-111633000D01*
X117760000Y-110633000D02*
X116760000Y-110633000D01*
X115760000Y-110633000D02*
X117760000Y-110633000D01*
X106760000Y-110633000D02*
X108760000Y-110633000D01*
X108760000Y-110633000D02*
X107760000Y-110633000D01*
X108760000Y-111633000D02*
X106760000Y-111633000D01*
X106760000Y-111633000D02*
X107760000Y-111633000D01*
X130239000Y-113014000D02*
X130239000Y-112014000D01*
X139239000Y-113014000D02*
X139239000Y-112014000D01*
X139739000Y-113514000D02*
X142239000Y-113514000D01*
X142239000Y-113514000D02*
X142239000Y-113014000D01*
X129239000Y-113514000D02*
X126739000Y-113514000D01*
X126739000Y-113514000D02*
X126739000Y-113014000D01*
X130239000Y-111014000D02*
X130239000Y-110014000D01*
X139239000Y-111014000D02*
X139239000Y-110014000D01*
X137489000Y-113764000D02*
G75*
G03X139489000Y-113764000I1000000J1000000D01*
G01*
X135489000Y-113764000D02*
G75*
G03X137489000Y-113764000I1000000J1000000D01*
G01*
X133489000Y-113764000D02*
G75*
G03X135489000Y-113764000I1000000J1000000D01*
G01*
X131489000Y-113764000D02*
G75*
G03X133489000Y-113764000I1000000J1000000D01*
G01*
X129489000Y-113764000D02*
G75*
G03X131489000Y-113764000I1000000J1000000D01*
G01*
X138239000Y-112014000D02*
X139239000Y-112014000D01*
X140239000Y-112014000D02*
X138239000Y-112014000D01*
X140239000Y-111014000D02*
X139239000Y-111014000D01*
X138239000Y-111014000D02*
X140239000Y-111014000D01*
X129239000Y-111014000D02*
X131239000Y-111014000D01*
X131239000Y-111014000D02*
X130239000Y-111014000D01*
X131239000Y-112014000D02*
X129239000Y-112014000D01*
X129239000Y-112014000D02*
X130239000Y-112014000D01*
X138366000Y-63516000D02*
X138366000Y-64516000D01*
X129366000Y-63516000D02*
X129366000Y-64516000D01*
X128866000Y-63016000D02*
X126366000Y-63016000D01*
X126366000Y-63016000D02*
X126366000Y-63516000D01*
X139366000Y-63016000D02*
X141866000Y-63016000D01*
X141866000Y-63016000D02*
X141866000Y-63516000D01*
X138366000Y-65516000D02*
X138366000Y-66516000D01*
X129366000Y-65516000D02*
X129366000Y-66516000D01*
X131116000Y-62766000D02*
G75*
G03X129116000Y-62766000I-1000000J-1000000D01*
G01*
X133116000Y-62766000D02*
G75*
G03X131116000Y-62766000I-1000000J-1000000D01*
G01*
X135116000Y-62766000D02*
G75*
G03X133116000Y-62766000I-1000000J-1000000D01*
G01*
X137116000Y-62766000D02*
G75*
G03X135116000Y-62766000I-1000000J-1000000D01*
G01*
X139116000Y-62766000D02*
G75*
G03X137116000Y-62766000I-1000000J-1000000D01*
G01*
X130366000Y-64516000D02*
X129366000Y-64516000D01*
X128366000Y-64516000D02*
X130366000Y-64516000D01*
X128366000Y-65516000D02*
X129366000Y-65516000D01*
X130366000Y-65516000D02*
X128366000Y-65516000D01*
X139366000Y-65516000D02*
X137366000Y-65516000D01*
X137366000Y-65516000D02*
X138366000Y-65516000D01*
X137366000Y-64516000D02*
X139366000Y-64516000D01*
X139366000Y-64516000D02*
X138366000Y-64516000D01*
X117157000Y-63389000D02*
X117157000Y-64389000D01*
X108157000Y-63389000D02*
X108157000Y-64389000D01*
X107657000Y-62889000D02*
X105157000Y-62889000D01*
X105157000Y-62889000D02*
X105157000Y-63389000D01*
X118157000Y-62889000D02*
X120657000Y-62889000D01*
X120657000Y-62889000D02*
X120657000Y-63389000D01*
X117157000Y-65389000D02*
X117157000Y-66389000D01*
X108157000Y-65389000D02*
X108157000Y-66389000D01*
X109907000Y-62639000D02*
G75*
G03X107907000Y-62639000I-1000000J-1000000D01*
G01*
X111907000Y-62639000D02*
G75*
G03X109907000Y-62639000I-1000000J-1000000D01*
G01*
X113907000Y-62639000D02*
G75*
G03X111907000Y-62639000I-1000000J-1000000D01*
G01*
X115907000Y-62639000D02*
G75*
G03X113907000Y-62639000I-1000000J-1000000D01*
G01*
X117907000Y-62639000D02*
G75*
G03X115907000Y-62639000I-1000000J-1000000D01*
G01*
X109157000Y-64389000D02*
X108157000Y-64389000D01*
X107157000Y-64389000D02*
X109157000Y-64389000D01*
X107157000Y-65389000D02*
X108157000Y-65389000D01*
X109157000Y-65389000D02*
X107157000Y-65389000D01*
X118157000Y-65389000D02*
X116157000Y-65389000D01*
X116157000Y-65389000D02*
X117157000Y-65389000D01*
X116157000Y-64389000D02*
X118157000Y-64389000D01*
X118157000Y-64389000D02*
X117157000Y-64389000D01*
X94170000Y-63516000D02*
X94170000Y-64516000D01*
X85170000Y-63516000D02*
X85170000Y-64516000D01*
X84670000Y-63016000D02*
X82170000Y-63016000D01*
X82170000Y-63016000D02*
X82170000Y-63516000D01*
X95170000Y-63016000D02*
X97670000Y-63016000D01*
X97670000Y-63016000D02*
X97670000Y-63516000D01*
X94170000Y-65516000D02*
X94170000Y-66516000D01*
X85170000Y-65516000D02*
X85170000Y-66516000D01*
X86920000Y-62766000D02*
G75*
G03X84920000Y-62766000I-1000000J-1000000D01*
G01*
X88920000Y-62766000D02*
G75*
G03X86920000Y-62766000I-1000000J-1000000D01*
G01*
X90920000Y-62766000D02*
G75*
G03X88920000Y-62766000I-1000000J-1000000D01*
G01*
X92920000Y-62766000D02*
G75*
G03X90920000Y-62766000I-1000000J-1000000D01*
G01*
X94920000Y-62766000D02*
G75*
G03X92920000Y-62766000I-1000000J-1000000D01*
G01*
X86170000Y-64516000D02*
X85170000Y-64516000D01*
X84170000Y-64516000D02*
X86170000Y-64516000D01*
X84170000Y-65516000D02*
X85170000Y-65516000D01*
X86170000Y-65516000D02*
X84170000Y-65516000D01*
X95170000Y-65516000D02*
X93170000Y-65516000D01*
X93170000Y-65516000D02*
X94170000Y-65516000D01*
X93170000Y-64516000D02*
X95170000Y-64516000D01*
X95170000Y-64516000D02*
X94170000Y-64516000D01*
D12*
X117689000Y-124928000D02*
X122809000Y-124928000D01*
X117689000Y-127548000D02*
X122809000Y-127548000D01*
X117689000Y-124928000D02*
X117689000Y-127548000D01*
X122809000Y-124928000D02*
X122809000Y-127548000D01*
X93228800Y-145654400D02*
X98348800Y-145654400D01*
X93228800Y-148274400D02*
X98348800Y-148274400D01*
X93228800Y-145654400D02*
X93228800Y-148274400D01*
X98348800Y-145654400D02*
X98348800Y-148274400D01*
D13*
X106188500Y-96972500D02*
X113188500Y-96972500D01*
X113188500Y-96972500D02*
X116688500Y-95472500D01*
X109188500Y-101472500D02*
X113188500Y-101472500D01*
X113188500Y-101472500D02*
X113188500Y-98472500D01*
X113188500Y-98472500D02*
X109188500Y-98472500D01*
X109188500Y-98472500D02*
X109188500Y-101472500D01*
X111188500Y-101472500D02*
X111188500Y-104472500D01*
X111188500Y-104472500D02*
X108188500Y-104472500D01*
X111188500Y-98472500D02*
X111188500Y-92472500D01*
X111188500Y-92472500D02*
X108188500Y-92472500D01*
X116188500Y-104472500D02*
X115188500Y-104472500D01*
X115188500Y-104472500D02*
X115188500Y-101472500D01*
X115188500Y-95972500D02*
X115188500Y-92472500D01*
X115188500Y-92472500D02*
X116188500Y-92472500D01*
X101188500Y-107472500D02*
X101188500Y-89472500D01*
X123188500Y-107472500D02*
X101188500Y-107472500D01*
X123188500Y-107472500D02*
X123188500Y-89472500D01*
X123188500Y-89472500D02*
X101188500Y-89472500D01*
D14*
X119188500Y-103472500D02*
X119188500Y-105472500D01*
D13*
X93011000Y-79443200D02*
X86011000Y-79443200D01*
X86011000Y-79443200D02*
X82511000Y-80943200D01*
X90011000Y-74943200D02*
X86011000Y-74943200D01*
X86011000Y-74943200D02*
X86011000Y-77943200D01*
X86011000Y-77943200D02*
X90011000Y-77943200D01*
X90011000Y-77943200D02*
X90011000Y-74943200D01*
X88011000Y-74943200D02*
X88011000Y-71943200D01*
X88011000Y-71943200D02*
X91011000Y-71943200D01*
X88011000Y-77943200D02*
X88011000Y-83943200D01*
X88011000Y-83943200D02*
X91011000Y-83943200D01*
X83011000Y-71943200D02*
X84011000Y-71943200D01*
X84011000Y-71943200D02*
X84011000Y-74943200D01*
X84011000Y-80443200D02*
X84011000Y-83943200D01*
X84011000Y-83943200D02*
X83011000Y-83943200D01*
X98011000Y-68943200D02*
X98011000Y-86943200D01*
X76011000Y-68943200D02*
X98011000Y-68943200D01*
X76011000Y-68943200D02*
X76011000Y-86943200D01*
X76011000Y-86943200D02*
X98011000Y-86943200D01*
D14*
X80011000Y-72943200D02*
X80011000Y-70943200D01*
D13*
X75332600Y-61038360D02*
X68332600Y-61038360D01*
X68332600Y-61038360D02*
X64832600Y-62538360D01*
X72332600Y-56538360D02*
X68332600Y-56538360D01*
X68332600Y-56538360D02*
X68332600Y-59538360D01*
X68332600Y-59538360D02*
X72332600Y-59538360D01*
X72332600Y-59538360D02*
X72332600Y-56538360D01*
X70332600Y-56538360D02*
X70332600Y-53538360D01*
X70332600Y-53538360D02*
X73332600Y-53538360D01*
X70332600Y-59538360D02*
X70332600Y-65538360D01*
X70332600Y-65538360D02*
X73332600Y-65538360D01*
X65332600Y-53538360D02*
X66332600Y-53538360D01*
X66332600Y-53538360D02*
X66332600Y-56538360D01*
X66332600Y-62038360D02*
X66332600Y-65538360D01*
X66332600Y-65538360D02*
X65332600Y-65538360D01*
X80332600Y-50538360D02*
X80332600Y-68538360D01*
X58332600Y-50538360D02*
X80332600Y-50538360D01*
X58332600Y-50538360D02*
X58332600Y-68538360D01*
X58332600Y-68538360D02*
X80332600Y-68538360D01*
D14*
X62332600Y-54538360D02*
X62332600Y-52538360D01*
D13*
X68500000Y-79494000D02*
X61500000Y-79494000D01*
X61500000Y-79494000D02*
X58000000Y-80994000D01*
X65500000Y-74994000D02*
X61500000Y-74994000D01*
X61500000Y-74994000D02*
X61500000Y-77994000D01*
X61500000Y-77994000D02*
X65500000Y-77994000D01*
X65500000Y-77994000D02*
X65500000Y-74994000D01*
X63500000Y-74994000D02*
X63500000Y-71994000D01*
X63500000Y-71994000D02*
X66500000Y-71994000D01*
X63500000Y-77994000D02*
X63500000Y-83994000D01*
X63500000Y-83994000D02*
X66500000Y-83994000D01*
X58500000Y-71994000D02*
X59500000Y-71994000D01*
X59500000Y-71994000D02*
X59500000Y-74994000D01*
X59500000Y-80494000D02*
X59500000Y-83994000D01*
X59500000Y-83994000D02*
X58500000Y-83994000D01*
X73500000Y-68994000D02*
X73500000Y-86994000D01*
X51500000Y-68994000D02*
X73500000Y-68994000D01*
X51500000Y-68994000D02*
X51500000Y-86994000D01*
X51500000Y-86994000D02*
X73500000Y-86994000D01*
D14*
X55500000Y-72994000D02*
X55500000Y-70994000D01*
D13*
X117547400Y-79173960D02*
X110547400Y-79173960D01*
X110547400Y-79173960D02*
X107047400Y-80673960D01*
X114547400Y-74673960D02*
X110547400Y-74673960D01*
X110547400Y-74673960D02*
X110547400Y-77673960D01*
X110547400Y-77673960D02*
X114547400Y-77673960D01*
X114547400Y-77673960D02*
X114547400Y-74673960D01*
X112547400Y-74673960D02*
X112547400Y-71673960D01*
X112547400Y-71673960D02*
X115547400Y-71673960D01*
X112547400Y-77673960D02*
X112547400Y-83673960D01*
X112547400Y-83673960D02*
X115547400Y-83673960D01*
X107547400Y-71673960D02*
X108547400Y-71673960D01*
X108547400Y-71673960D02*
X108547400Y-74673960D01*
X108547400Y-80173960D02*
X108547400Y-83673960D01*
X108547400Y-83673960D02*
X107547400Y-83673960D01*
X122547400Y-68673960D02*
X122547400Y-86673960D01*
X100547400Y-68673960D02*
X122547400Y-68673960D01*
X100547400Y-68673960D02*
X100547400Y-86673960D01*
X100547400Y-86673960D02*
X122547400Y-86673960D01*
D14*
X104547400Y-72673960D02*
X104547400Y-70673960D01*
D13*
X141906000Y-79265400D02*
X134906000Y-79265400D01*
X134906000Y-79265400D02*
X131406000Y-80765400D01*
X138906000Y-74765400D02*
X134906000Y-74765400D01*
X134906000Y-74765400D02*
X134906000Y-77765400D01*
X134906000Y-77765400D02*
X138906000Y-77765400D01*
X138906000Y-77765400D02*
X138906000Y-74765400D01*
X136906000Y-74765400D02*
X136906000Y-71765400D01*
X136906000Y-71765400D02*
X139906000Y-71765400D01*
X136906000Y-77765400D02*
X136906000Y-83765400D01*
X136906000Y-83765400D02*
X139906000Y-83765400D01*
X131906000Y-71765400D02*
X132906000Y-71765400D01*
X132906000Y-71765400D02*
X132906000Y-74765400D01*
X132906000Y-80265400D02*
X132906000Y-83765400D01*
X132906000Y-83765400D02*
X131906000Y-83765400D01*
X146906000Y-68765400D02*
X146906000Y-86765400D01*
X124906000Y-68765400D02*
X146906000Y-68765400D01*
X124906000Y-68765400D02*
X124906000Y-86765400D01*
X124906000Y-86765400D02*
X146906000Y-86765400D01*
D14*
X128906000Y-72765400D02*
X128906000Y-70765400D01*
D13*
X130826500Y-97353500D02*
X137826500Y-97353500D01*
X137826500Y-97353500D02*
X141326500Y-95853500D01*
X133826500Y-101853500D02*
X137826500Y-101853500D01*
X137826500Y-101853500D02*
X137826500Y-98853500D01*
X137826500Y-98853500D02*
X133826500Y-98853500D01*
X133826500Y-98853500D02*
X133826500Y-101853500D01*
X135826500Y-101853500D02*
X135826500Y-104853500D01*
X135826500Y-104853500D02*
X132826500Y-104853500D01*
X135826500Y-98853500D02*
X135826500Y-92853500D01*
X135826500Y-92853500D02*
X132826500Y-92853500D01*
X140826500Y-104853500D02*
X139826500Y-104853500D01*
X139826500Y-104853500D02*
X139826500Y-101853500D01*
X139826500Y-96353500D02*
X139826500Y-92853500D01*
X139826500Y-92853500D02*
X140826500Y-92853500D01*
X125826500Y-107853500D02*
X125826500Y-89853500D01*
X147826500Y-107853500D02*
X125826500Y-107853500D01*
X147826500Y-107853500D02*
X147826500Y-89853500D01*
X147826500Y-89853500D02*
X125826500Y-89853500D01*
D14*
X143826500Y-103853500D02*
X143826500Y-105853500D01*
D13*
X80915500Y-96909000D02*
X87915500Y-96909000D01*
X87915500Y-96909000D02*
X91415500Y-95409000D01*
X83915500Y-101409000D02*
X87915500Y-101409000D01*
X87915500Y-101409000D02*
X87915500Y-98409000D01*
X87915500Y-98409000D02*
X83915500Y-98409000D01*
X83915500Y-98409000D02*
X83915500Y-101409000D01*
X85915500Y-101409000D02*
X85915500Y-104409000D01*
X85915500Y-104409000D02*
X82915500Y-104409000D01*
X85915500Y-98409000D02*
X85915500Y-92409000D01*
X85915500Y-92409000D02*
X82915500Y-92409000D01*
X90915500Y-104409000D02*
X89915500Y-104409000D01*
X89915500Y-104409000D02*
X89915500Y-101409000D01*
X89915500Y-95909000D02*
X89915500Y-92409000D01*
X89915500Y-92409000D02*
X90915500Y-92409000D01*
X75915500Y-107409000D02*
X75915500Y-89409000D01*
X97915500Y-107409000D02*
X75915500Y-107409000D01*
X97915500Y-107409000D02*
X97915500Y-89409000D01*
X97915500Y-89409000D02*
X75915500Y-89409000D01*
D14*
X93915500Y-103409000D02*
X93915500Y-105409000D01*
D13*
X56214000Y-96909000D02*
X63214000Y-96909000D01*
X63214000Y-96909000D02*
X66714000Y-95409000D01*
X59214000Y-101409000D02*
X63214000Y-101409000D01*
X63214000Y-101409000D02*
X63214000Y-98409000D01*
X63214000Y-98409000D02*
X59214000Y-98409000D01*
X59214000Y-98409000D02*
X59214000Y-101409000D01*
X61214000Y-101409000D02*
X61214000Y-104409000D01*
X61214000Y-104409000D02*
X58214000Y-104409000D01*
X61214000Y-98409000D02*
X61214000Y-92409000D01*
X61214000Y-92409000D02*
X58214000Y-92409000D01*
X66214000Y-104409000D02*
X65214000Y-104409000D01*
X65214000Y-104409000D02*
X65214000Y-101409000D01*
X65214000Y-95909000D02*
X65214000Y-92409000D01*
X65214000Y-92409000D02*
X66214000Y-92409000D01*
X51214000Y-107409000D02*
X51214000Y-89409000D01*
X73214000Y-107409000D02*
X51214000Y-107409000D01*
X73214000Y-107409000D02*
X73214000Y-89409000D01*
X73214000Y-89409000D02*
X51214000Y-89409000D01*
D14*
X69214000Y-103409000D02*
X69214000Y-105409000D01*
D11*
X113815905Y-148788381D02*
X113815905Y-147788381D01*
X114054000Y-147788381D01*
X114196858Y-147836000D01*
X114292096Y-147931238D01*
X114339715Y-148026476D01*
X114387334Y-148216952D01*
X114387334Y-148359810D01*
X114339715Y-148550286D01*
X114292096Y-148645524D01*
X114196858Y-148740762D01*
X114054000Y-148788381D01*
X113815905Y-148788381D01*
X114720667Y-147788381D02*
X115339715Y-147788381D01*
X115006381Y-148169333D01*
X115149239Y-148169333D01*
X115244477Y-148216952D01*
X115292096Y-148264571D01*
X115339715Y-148359810D01*
X115339715Y-148597905D01*
X115292096Y-148693143D01*
X115244477Y-148740762D01*
X115149239Y-148788381D01*
X114863524Y-148788381D01*
X114768286Y-148740762D01*
X114720667Y-148693143D01*
X60975977Y-132738881D02*
X60975977Y-133453167D01*
X60928357Y-133596024D01*
X60833119Y-133691262D01*
X60690262Y-133738881D01*
X60595024Y-133738881D01*
X61975977Y-133738881D02*
X61404548Y-133738881D01*
X61690262Y-133738881D02*
X61690262Y-132738881D01*
X61595024Y-132881738D01*
X61499786Y-132976976D01*
X61404548Y-133024595D01*
X62928358Y-133738881D02*
X62356929Y-133738881D01*
X62642643Y-133738881D02*
X62642643Y-132738881D01*
X62547405Y-132881738D01*
X62452167Y-132976976D01*
X62356929Y-133024595D01*
X138069581Y-137428266D02*
X137593390Y-137761600D01*
X138069581Y-137999695D02*
X137069581Y-137999695D01*
X137069581Y-137618742D01*
X137117200Y-137523504D01*
X137164819Y-137475885D01*
X137260057Y-137428266D01*
X137402914Y-137428266D01*
X137498152Y-137475885D01*
X137545771Y-137523504D01*
X137593390Y-137618742D01*
X137593390Y-137999695D01*
X138069581Y-136952076D02*
X138069581Y-136761600D01*
X138021962Y-136666361D01*
X137974343Y-136618742D01*
X137831486Y-136523504D01*
X137641010Y-136475885D01*
X137260057Y-136475885D01*
X137164819Y-136523504D01*
X137117200Y-136571123D01*
X137069581Y-136666361D01*
X137069581Y-136856838D01*
X137117200Y-136952076D01*
X137164819Y-136999695D01*
X137260057Y-137047314D01*
X137498152Y-137047314D01*
X137593390Y-136999695D01*
X137641010Y-136952076D01*
X137688629Y-136856838D01*
X137688629Y-136666361D01*
X137641010Y-136571123D01*
X137593390Y-136523504D01*
X137498152Y-136475885D01*
X103782905Y-148788381D02*
X103782905Y-147788381D01*
X104021000Y-147788381D01*
X104163858Y-147836000D01*
X104259096Y-147931238D01*
X104306715Y-148026476D01*
X104354334Y-148216952D01*
X104354334Y-148359810D01*
X104306715Y-148550286D01*
X104259096Y-148645524D01*
X104163858Y-148740762D01*
X104021000Y-148788381D01*
X103782905Y-148788381D01*
X105306715Y-148788381D02*
X104735286Y-148788381D01*
X105021000Y-148788381D02*
X105021000Y-147788381D01*
X104925762Y-147931238D01*
X104830524Y-148026476D01*
X104735286Y-148074095D01*
X108735905Y-148788381D02*
X108735905Y-147788381D01*
X108974000Y-147788381D01*
X109116858Y-147836000D01*
X109212096Y-147931238D01*
X109259715Y-148026476D01*
X109307334Y-148216952D01*
X109307334Y-148359810D01*
X109259715Y-148550286D01*
X109212096Y-148645524D01*
X109116858Y-148740762D01*
X108974000Y-148788381D01*
X108735905Y-148788381D01*
X109688286Y-147883619D02*
X109735905Y-147836000D01*
X109831143Y-147788381D01*
X110069239Y-147788381D01*
X110164477Y-147836000D01*
X110212096Y-147883619D01*
X110259715Y-147978857D01*
X110259715Y-148074095D01*
X110212096Y-148216952D01*
X109640667Y-148788381D01*
X110259715Y-148788381D01*
X94970695Y-123836181D02*
X94970695Y-124645705D01*
X95018314Y-124740943D01*
X95065933Y-124788562D01*
X95161171Y-124836181D01*
X95351648Y-124836181D01*
X95446886Y-124788562D01*
X95494505Y-124740943D01*
X95542124Y-124645705D01*
X95542124Y-123836181D01*
X95970695Y-123931419D02*
X96018314Y-123883800D01*
X96113552Y-123836181D01*
X96351648Y-123836181D01*
X96446886Y-123883800D01*
X96494505Y-123931419D01*
X96542124Y-124026657D01*
X96542124Y-124121895D01*
X96494505Y-124264752D01*
X95923076Y-124836181D01*
X96542124Y-124836181D01*
X83286695Y-123937781D02*
X83286695Y-124747305D01*
X83334314Y-124842543D01*
X83381933Y-124890162D01*
X83477171Y-124937781D01*
X83667648Y-124937781D01*
X83762886Y-124890162D01*
X83810505Y-124842543D01*
X83858124Y-124747305D01*
X83858124Y-123937781D01*
X84858124Y-124937781D02*
X84286695Y-124937781D01*
X84572409Y-124937781D02*
X84572409Y-123937781D01*
X84477171Y-124080638D01*
X84381933Y-124175876D01*
X84286695Y-124223495D01*
X53540067Y-121092981D02*
X53540067Y-121807267D01*
X53492447Y-121950124D01*
X53397209Y-122045362D01*
X53254352Y-122092981D01*
X53159114Y-122092981D01*
X54159114Y-121521552D02*
X54063876Y-121473933D01*
X54016257Y-121426314D01*
X53968638Y-121331076D01*
X53968638Y-121283457D01*
X54016257Y-121188219D01*
X54063876Y-121140600D01*
X54159114Y-121092981D01*
X54349591Y-121092981D01*
X54444829Y-121140600D01*
X54492448Y-121188219D01*
X54540067Y-121283457D01*
X54540067Y-121331076D01*
X54492448Y-121426314D01*
X54444829Y-121473933D01*
X54349591Y-121521552D01*
X54159114Y-121521552D01*
X54063876Y-121569171D01*
X54016257Y-121616790D01*
X53968638Y-121712029D01*
X53968638Y-121902505D01*
X54016257Y-121997743D01*
X54063876Y-122045362D01*
X54159114Y-122092981D01*
X54349591Y-122092981D01*
X54444829Y-122045362D01*
X54492448Y-121997743D01*
X54540067Y-121902505D01*
X54540067Y-121712029D01*
X54492448Y-121616790D01*
X54444829Y-121569171D01*
X54349591Y-121521552D01*
X95464381Y-55927523D02*
X96178667Y-55927523D01*
X96321524Y-55975143D01*
X96416762Y-56070381D01*
X96464381Y-56213238D01*
X96464381Y-56308476D01*
X96464381Y-54927523D02*
X96464381Y-55498952D01*
X96464381Y-55213238D02*
X95464381Y-55213238D01*
X95607238Y-55308476D01*
X95702476Y-55403714D01*
X95750095Y-55498952D01*
X95464381Y-54308476D02*
X95464381Y-54213237D01*
X95512000Y-54117999D01*
X95559619Y-54070380D01*
X95654857Y-54022761D01*
X95845333Y-53975142D01*
X96083429Y-53975142D01*
X96273905Y-54022761D01*
X96369143Y-54070380D01*
X96416762Y-54117999D01*
X96464381Y-54213237D01*
X96464381Y-54308476D01*
X96416762Y-54403714D01*
X96369143Y-54451333D01*
X96273905Y-54498952D01*
X96083429Y-54546571D01*
X95845333Y-54546571D01*
X95654857Y-54498952D01*
X95559619Y-54451333D01*
X95512000Y-54403714D01*
X95464381Y-54308476D01*
X63603143Y-120384866D02*
X63650762Y-120432485D01*
X63698381Y-120575342D01*
X63698381Y-120670580D01*
X63650762Y-120813438D01*
X63555524Y-120908676D01*
X63460286Y-120956295D01*
X63269810Y-121003914D01*
X63126952Y-121003914D01*
X62936476Y-120956295D01*
X62841238Y-120908676D01*
X62746000Y-120813438D01*
X62698381Y-120670580D01*
X62698381Y-120575342D01*
X62746000Y-120432485D01*
X62793619Y-120384866D01*
X63698381Y-119432485D02*
X63698381Y-120003914D01*
X63698381Y-119718200D02*
X62698381Y-119718200D01*
X62841238Y-119813438D01*
X62936476Y-119908676D01*
X62984095Y-120003914D01*
X74949643Y-120455666D02*
X74997262Y-120503285D01*
X75044881Y-120646142D01*
X75044881Y-120741380D01*
X74997262Y-120884238D01*
X74902024Y-120979476D01*
X74806786Y-121027095D01*
X74616310Y-121074714D01*
X74473452Y-121074714D01*
X74282976Y-121027095D01*
X74187738Y-120979476D01*
X74092500Y-120884238D01*
X74044881Y-120741380D01*
X74044881Y-120646142D01*
X74092500Y-120503285D01*
X74140119Y-120455666D01*
X74140119Y-120074714D02*
X74092500Y-120027095D01*
X74044881Y-119931857D01*
X74044881Y-119693761D01*
X74092500Y-119598523D01*
X74140119Y-119550904D01*
X74235357Y-119503285D01*
X74330595Y-119503285D01*
X74473452Y-119550904D01*
X75044881Y-120122333D01*
X75044881Y-119503285D01*
X102000643Y-119630166D02*
X102048262Y-119677785D01*
X102095881Y-119820642D01*
X102095881Y-119915880D01*
X102048262Y-120058738D01*
X101953024Y-120153976D01*
X101857786Y-120201595D01*
X101667310Y-120249214D01*
X101524452Y-120249214D01*
X101333976Y-120201595D01*
X101238738Y-120153976D01*
X101143500Y-120058738D01*
X101095881Y-119915880D01*
X101095881Y-119820642D01*
X101143500Y-119677785D01*
X101191119Y-119630166D01*
X101095881Y-119296833D02*
X101095881Y-118677785D01*
X101476833Y-119011119D01*
X101476833Y-118868261D01*
X101524452Y-118773023D01*
X101572071Y-118725404D01*
X101667310Y-118677785D01*
X101905405Y-118677785D01*
X102000643Y-118725404D01*
X102048262Y-118773023D01*
X102095881Y-118868261D01*
X102095881Y-119153976D01*
X102048262Y-119249214D01*
X102000643Y-119296833D01*
X128309643Y-119737166D02*
X128357262Y-119784785D01*
X128404881Y-119927642D01*
X128404881Y-120022880D01*
X128357262Y-120165738D01*
X128262024Y-120260976D01*
X128166786Y-120308595D01*
X127976310Y-120356214D01*
X127833452Y-120356214D01*
X127642976Y-120308595D01*
X127547738Y-120260976D01*
X127452500Y-120165738D01*
X127404881Y-120022880D01*
X127404881Y-119927642D01*
X127452500Y-119784785D01*
X127500119Y-119737166D01*
X127738214Y-118880023D02*
X128404881Y-118880023D01*
X127357262Y-119118119D02*
X128071548Y-119356214D01*
X128071548Y-118737166D01*
X135084143Y-120277866D02*
X135131762Y-120325485D01*
X135179381Y-120468342D01*
X135179381Y-120563580D01*
X135131762Y-120706438D01*
X135036524Y-120801676D01*
X134941286Y-120849295D01*
X134750810Y-120896914D01*
X134607952Y-120896914D01*
X134417476Y-120849295D01*
X134322238Y-120801676D01*
X134227000Y-120706438D01*
X134179381Y-120563580D01*
X134179381Y-120468342D01*
X134227000Y-120325485D01*
X134274619Y-120277866D01*
X134179381Y-119373104D02*
X134179381Y-119849295D01*
X134655571Y-119896914D01*
X134607952Y-119849295D01*
X134560333Y-119754057D01*
X134560333Y-119515961D01*
X134607952Y-119420723D01*
X134655571Y-119373104D01*
X134750810Y-119325485D01*
X134988905Y-119325485D01*
X135084143Y-119373104D01*
X135131762Y-119420723D01*
X135179381Y-119515961D01*
X135179381Y-119754057D01*
X135131762Y-119849295D01*
X135084143Y-119896914D01*
X122658143Y-119876866D02*
X122705762Y-119924485D01*
X122753381Y-120067342D01*
X122753381Y-120162580D01*
X122705762Y-120305438D01*
X122610524Y-120400676D01*
X122515286Y-120448295D01*
X122324810Y-120495914D01*
X122181952Y-120495914D01*
X121991476Y-120448295D01*
X121896238Y-120400676D01*
X121801000Y-120305438D01*
X121753381Y-120162580D01*
X121753381Y-120067342D01*
X121801000Y-119924485D01*
X121848619Y-119876866D01*
X121753381Y-119019723D02*
X121753381Y-119210200D01*
X121801000Y-119305438D01*
X121848619Y-119353057D01*
X121991476Y-119448295D01*
X122181952Y-119495914D01*
X122562905Y-119495914D01*
X122658143Y-119448295D01*
X122705762Y-119400676D01*
X122753381Y-119305438D01*
X122753381Y-119114961D01*
X122705762Y-119019723D01*
X122658143Y-118972104D01*
X122562905Y-118924485D01*
X122324810Y-118924485D01*
X122229571Y-118972104D01*
X122181952Y-119019723D01*
X122134333Y-119114961D01*
X122134333Y-119305438D01*
X122181952Y-119400676D01*
X122229571Y-119448295D01*
X122324810Y-119495914D01*
X98858343Y-119165666D02*
X98905962Y-119213285D01*
X98953581Y-119356142D01*
X98953581Y-119451380D01*
X98905962Y-119594238D01*
X98810724Y-119689476D01*
X98715486Y-119737095D01*
X98525010Y-119784714D01*
X98382152Y-119784714D01*
X98191676Y-119737095D01*
X98096438Y-119689476D01*
X98001200Y-119594238D01*
X97953581Y-119451380D01*
X97953581Y-119356142D01*
X98001200Y-119213285D01*
X98048819Y-119165666D01*
X97953581Y-118832333D02*
X97953581Y-118165666D01*
X98953581Y-118594238D01*
X69742643Y-120519166D02*
X69790262Y-120566785D01*
X69837881Y-120709642D01*
X69837881Y-120804880D01*
X69790262Y-120947738D01*
X69695024Y-121042976D01*
X69599786Y-121090595D01*
X69409310Y-121138214D01*
X69266452Y-121138214D01*
X69075976Y-121090595D01*
X68980738Y-121042976D01*
X68885500Y-120947738D01*
X68837881Y-120804880D01*
X68837881Y-120709642D01*
X68885500Y-120566785D01*
X68933119Y-120519166D01*
X69266452Y-119947738D02*
X69218833Y-120042976D01*
X69171214Y-120090595D01*
X69075976Y-120138214D01*
X69028357Y-120138214D01*
X68933119Y-120090595D01*
X68885500Y-120042976D01*
X68837881Y-119947738D01*
X68837881Y-119757261D01*
X68885500Y-119662023D01*
X68933119Y-119614404D01*
X69028357Y-119566785D01*
X69075976Y-119566785D01*
X69171214Y-119614404D01*
X69218833Y-119662023D01*
X69266452Y-119757261D01*
X69266452Y-119947738D01*
X69314071Y-120042976D01*
X69361690Y-120090595D01*
X69456929Y-120138214D01*
X69647405Y-120138214D01*
X69742643Y-120090595D01*
X69790262Y-120042976D01*
X69837881Y-119947738D01*
X69837881Y-119757261D01*
X69790262Y-119662023D01*
X69742643Y-119614404D01*
X69647405Y-119566785D01*
X69456929Y-119566785D01*
X69361690Y-119614404D01*
X69314071Y-119662023D01*
X69266452Y-119757261D01*
X144222743Y-129071666D02*
X144270362Y-129119285D01*
X144317981Y-129262142D01*
X144317981Y-129357380D01*
X144270362Y-129500238D01*
X144175124Y-129595476D01*
X144079886Y-129643095D01*
X143889410Y-129690714D01*
X143746552Y-129690714D01*
X143556076Y-129643095D01*
X143460838Y-129595476D01*
X143365600Y-129500238D01*
X143317981Y-129357380D01*
X143317981Y-129262142D01*
X143365600Y-129119285D01*
X143413219Y-129071666D01*
X144317981Y-128595476D02*
X144317981Y-128405000D01*
X144270362Y-128309761D01*
X144222743Y-128262142D01*
X144079886Y-128166904D01*
X143889410Y-128119285D01*
X143508457Y-128119285D01*
X143413219Y-128166904D01*
X143365600Y-128214523D01*
X143317981Y-128309761D01*
X143317981Y-128500238D01*
X143365600Y-128595476D01*
X143413219Y-128643095D01*
X143508457Y-128690714D01*
X143746552Y-128690714D01*
X143841790Y-128643095D01*
X143889410Y-128595476D01*
X143937029Y-128500238D01*
X143937029Y-128309761D01*
X143889410Y-128214523D01*
X143841790Y-128166904D01*
X143746552Y-128119285D01*
X79189343Y-147727943D02*
X79141724Y-147775562D01*
X78998867Y-147823181D01*
X78903629Y-147823181D01*
X78760771Y-147775562D01*
X78665533Y-147680324D01*
X78617914Y-147585086D01*
X78570295Y-147394610D01*
X78570295Y-147251752D01*
X78617914Y-147061276D01*
X78665533Y-146966038D01*
X78760771Y-146870800D01*
X78903629Y-146823181D01*
X78998867Y-146823181D01*
X79141724Y-146870800D01*
X79189343Y-146918419D01*
X80141724Y-147823181D02*
X79570295Y-147823181D01*
X79856009Y-147823181D02*
X79856009Y-146823181D01*
X79760771Y-146966038D01*
X79665533Y-147061276D01*
X79570295Y-147108895D01*
X80760771Y-146823181D02*
X80856010Y-146823181D01*
X80951248Y-146870800D01*
X80998867Y-146918419D01*
X81046486Y-147013657D01*
X81094105Y-147204133D01*
X81094105Y-147442229D01*
X81046486Y-147632705D01*
X80998867Y-147727943D01*
X80951248Y-147775562D01*
X80856010Y-147823181D01*
X80760771Y-147823181D01*
X80665533Y-147775562D01*
X80617914Y-147727943D01*
X80570295Y-147632705D01*
X80522676Y-147442229D01*
X80522676Y-147204133D01*
X80570295Y-147013657D01*
X80617914Y-146918419D01*
X80665533Y-146870800D01*
X80760771Y-146823181D01*
X138190243Y-125509257D02*
X138237862Y-125556876D01*
X138285481Y-125699733D01*
X138285481Y-125794971D01*
X138237862Y-125937829D01*
X138142624Y-126033067D01*
X138047386Y-126080686D01*
X137856910Y-126128305D01*
X137714052Y-126128305D01*
X137523576Y-126080686D01*
X137428338Y-126033067D01*
X137333100Y-125937829D01*
X137285481Y-125794971D01*
X137285481Y-125699733D01*
X137333100Y-125556876D01*
X137380719Y-125509257D01*
X138285481Y-124556876D02*
X138285481Y-125128305D01*
X138285481Y-124842591D02*
X137285481Y-124842591D01*
X137428338Y-124937829D01*
X137523576Y-125033067D01*
X137571195Y-125128305D01*
X138285481Y-123604495D02*
X138285481Y-124175924D01*
X138285481Y-123890210D02*
X137285481Y-123890210D01*
X137428338Y-123985448D01*
X137523576Y-124080686D01*
X137571195Y-124175924D01*
X75124881Y-146184833D02*
X75839167Y-146184833D01*
X75982024Y-146232453D01*
X76077262Y-146327691D01*
X76124881Y-146470548D01*
X76124881Y-146565786D01*
X76124881Y-145708643D02*
X75124881Y-145708643D01*
X75124881Y-145327690D01*
X75172500Y-145232452D01*
X75220119Y-145184833D01*
X75315357Y-145137214D01*
X75458214Y-145137214D01*
X75553452Y-145184833D01*
X75601071Y-145232452D01*
X75648690Y-145327690D01*
X75648690Y-145708643D01*
X76124881Y-144184833D02*
X76124881Y-144756262D01*
X76124881Y-144470548D02*
X75124881Y-144470548D01*
X75267738Y-144565786D01*
X75362976Y-144661024D01*
X75410595Y-144756262D01*
X75124881Y-142755833D02*
X75839167Y-142755833D01*
X75982024Y-142803453D01*
X76077262Y-142898691D01*
X76124881Y-143041548D01*
X76124881Y-143136786D01*
X76124881Y-142279643D02*
X75124881Y-142279643D01*
X75124881Y-141898690D01*
X75172500Y-141803452D01*
X75220119Y-141755833D01*
X75315357Y-141708214D01*
X75458214Y-141708214D01*
X75553452Y-141755833D01*
X75601071Y-141803452D01*
X75648690Y-141898690D01*
X75648690Y-142279643D01*
X75220119Y-141327262D02*
X75172500Y-141279643D01*
X75124881Y-141184405D01*
X75124881Y-140946309D01*
X75172500Y-140851071D01*
X75220119Y-140803452D01*
X75315357Y-140755833D01*
X75410595Y-140755833D01*
X75553452Y-140803452D01*
X76124881Y-141374881D01*
X76124881Y-140755833D01*
X75322181Y-139212533D02*
X76036467Y-139212533D01*
X76179324Y-139260153D01*
X76274562Y-139355391D01*
X76322181Y-139498248D01*
X76322181Y-139593486D01*
X76322181Y-138736343D02*
X75322181Y-138736343D01*
X75322181Y-138355390D01*
X75369800Y-138260152D01*
X75417419Y-138212533D01*
X75512657Y-138164914D01*
X75655514Y-138164914D01*
X75750752Y-138212533D01*
X75798371Y-138260152D01*
X75845990Y-138355390D01*
X75845990Y-138736343D01*
X75322181Y-137831581D02*
X75322181Y-137212533D01*
X75703133Y-137545867D01*
X75703133Y-137403009D01*
X75750752Y-137307771D01*
X75798371Y-137260152D01*
X75893610Y-137212533D01*
X76131705Y-137212533D01*
X76226943Y-137260152D01*
X76274562Y-137307771D01*
X76322181Y-137403009D01*
X76322181Y-137688724D01*
X76274562Y-137783962D01*
X76226943Y-137831581D01*
X70648534Y-134208781D02*
X70315200Y-133732590D01*
X70077105Y-134208781D02*
X70077105Y-133208781D01*
X70458058Y-133208781D01*
X70553296Y-133256400D01*
X70600915Y-133304019D01*
X70648534Y-133399257D01*
X70648534Y-133542114D01*
X70600915Y-133637352D01*
X70553296Y-133684971D01*
X70458058Y-133732590D01*
X70077105Y-133732590D01*
X71600915Y-134208781D02*
X71029486Y-134208781D01*
X71315200Y-134208781D02*
X71315200Y-133208781D01*
X71219962Y-133351638D01*
X71124724Y-133446876D01*
X71029486Y-133494495D01*
X61269643Y-125515643D02*
X61222024Y-125563262D01*
X61079167Y-125610881D01*
X60983929Y-125610881D01*
X60841071Y-125563262D01*
X60745833Y-125468024D01*
X60698214Y-125372786D01*
X60650595Y-125182310D01*
X60650595Y-125039452D01*
X60698214Y-124848976D01*
X60745833Y-124753738D01*
X60841071Y-124658500D01*
X60983929Y-124610881D01*
X61079167Y-124610881D01*
X61222024Y-124658500D01*
X61269643Y-124706119D01*
X62222024Y-125610881D02*
X61650595Y-125610881D01*
X61936309Y-125610881D02*
X61936309Y-124610881D01*
X61841071Y-124753738D01*
X61745833Y-124848976D01*
X61650595Y-124896595D01*
X62602976Y-124706119D02*
X62650595Y-124658500D01*
X62745833Y-124610881D01*
X62983929Y-124610881D01*
X63079167Y-124658500D01*
X63126786Y-124706119D01*
X63174405Y-124801357D01*
X63174405Y-124896595D01*
X63126786Y-125039452D01*
X62555357Y-125610881D01*
X63174405Y-125610881D01*
X56130867Y-53884581D02*
X56130867Y-54598867D01*
X56083247Y-54741724D01*
X55988009Y-54836962D01*
X55845152Y-54884581D01*
X55749914Y-54884581D01*
X56654676Y-54884581D02*
X56845152Y-54884581D01*
X56940391Y-54836962D01*
X56988010Y-54789343D01*
X57083248Y-54646486D01*
X57130867Y-54456010D01*
X57130867Y-54075057D01*
X57083248Y-53979819D01*
X57035629Y-53932200D01*
X56940391Y-53884581D01*
X56749914Y-53884581D01*
X56654676Y-53932200D01*
X56607057Y-53979819D01*
X56559438Y-54075057D01*
X56559438Y-54313152D01*
X56607057Y-54408390D01*
X56654676Y-54456010D01*
X56749914Y-54503629D01*
X56940391Y-54503629D01*
X57035629Y-54456010D01*
X57083248Y-54408390D01*
X57130867Y-54313152D01*
X55578477Y-50506381D02*
X55578477Y-51220667D01*
X55530857Y-51363524D01*
X55435619Y-51458762D01*
X55292762Y-51506381D01*
X55197524Y-51506381D01*
X56578477Y-51506381D02*
X56007048Y-51506381D01*
X56292762Y-51506381D02*
X56292762Y-50506381D01*
X56197524Y-50649238D01*
X56102286Y-50744476D01*
X56007048Y-50792095D01*
X56959429Y-50601619D02*
X57007048Y-50554000D01*
X57102286Y-50506381D01*
X57340382Y-50506381D01*
X57435620Y-50554000D01*
X57483239Y-50601619D01*
X57530858Y-50696857D01*
X57530858Y-50792095D01*
X57483239Y-50934952D01*
X56911810Y-51506381D01*
X57530858Y-51506381D01*
X50201581Y-144624323D02*
X50915867Y-144624323D01*
X51058724Y-144671943D01*
X51153962Y-144767181D01*
X51201581Y-144910038D01*
X51201581Y-145005276D01*
X51201581Y-143624323D02*
X51201581Y-144195752D01*
X51201581Y-143910038D02*
X50201581Y-143910038D01*
X50344438Y-144005276D01*
X50439676Y-144100514D01*
X50487295Y-144195752D01*
X50201581Y-143290990D02*
X50201581Y-142671942D01*
X50582533Y-143005276D01*
X50582533Y-142862418D01*
X50630152Y-142767180D01*
X50677771Y-142719561D01*
X50773010Y-142671942D01*
X51011105Y-142671942D01*
X51106343Y-142719561D01*
X51153962Y-142767180D01*
X51201581Y-142862418D01*
X51201581Y-143148133D01*
X51153962Y-143243371D01*
X51106343Y-143290990D01*
X147043877Y-56272181D02*
X147043877Y-56986467D01*
X146996257Y-57129324D01*
X146901019Y-57224562D01*
X146758162Y-57272181D01*
X146662924Y-57272181D01*
X148043877Y-57272181D02*
X147472448Y-57272181D01*
X147758162Y-57272181D02*
X147758162Y-56272181D01*
X147662924Y-56415038D01*
X147567686Y-56510276D01*
X147472448Y-56557895D01*
X148901020Y-56605514D02*
X148901020Y-57272181D01*
X148662924Y-56224562D02*
X148424829Y-56938848D01*
X149043877Y-56938848D01*
X146190477Y-143404381D02*
X146190477Y-144118667D01*
X146142857Y-144261524D01*
X146047619Y-144356762D01*
X145904762Y-144404381D01*
X145809524Y-144404381D01*
X147190477Y-144404381D02*
X146619048Y-144404381D01*
X146904762Y-144404381D02*
X146904762Y-143404381D01*
X146809524Y-143547238D01*
X146714286Y-143642476D01*
X146619048Y-143690095D01*
X148095239Y-143404381D02*
X147619048Y-143404381D01*
X147571429Y-143880571D01*
X147619048Y-143832952D01*
X147714286Y-143785333D01*
X147952382Y-143785333D01*
X148047620Y-143832952D01*
X148095239Y-143880571D01*
X148142858Y-143975810D01*
X148142858Y-144213905D01*
X148095239Y-144309143D01*
X148047620Y-144356762D01*
X147952382Y-144404381D01*
X147714286Y-144404381D01*
X147619048Y-144356762D01*
X147571429Y-144309143D01*
X70432634Y-130957581D02*
X70099300Y-130481390D01*
X69861205Y-130957581D02*
X69861205Y-129957581D01*
X70242158Y-129957581D01*
X70337396Y-130005200D01*
X70385015Y-130052819D01*
X70432634Y-130148057D01*
X70432634Y-130290914D01*
X70385015Y-130386152D01*
X70337396Y-130433771D01*
X70242158Y-130481390D01*
X69861205Y-130481390D01*
X70813586Y-130052819D02*
X70861205Y-130005200D01*
X70956443Y-129957581D01*
X71194539Y-129957581D01*
X71289777Y-130005200D01*
X71337396Y-130052819D01*
X71385015Y-130148057D01*
X71385015Y-130243295D01*
X71337396Y-130386152D01*
X70765967Y-130957581D01*
X71385015Y-130957581D01*
X118895905Y-148788381D02*
X118895905Y-147788381D01*
X119134000Y-147788381D01*
X119276858Y-147836000D01*
X119372096Y-147931238D01*
X119419715Y-148026476D01*
X119467334Y-148216952D01*
X119467334Y-148359810D01*
X119419715Y-148550286D01*
X119372096Y-148645524D01*
X119276858Y-148740762D01*
X119134000Y-148788381D01*
X118895905Y-148788381D01*
X120324477Y-148121714D02*
X120324477Y-148788381D01*
X120086381Y-147740762D02*
X119848286Y-148455048D01*
X120467334Y-148455048D01*
X123721905Y-148788381D02*
X123721905Y-147788381D01*
X123960000Y-147788381D01*
X124102858Y-147836000D01*
X124198096Y-147931238D01*
X124245715Y-148026476D01*
X124293334Y-148216952D01*
X124293334Y-148359810D01*
X124245715Y-148550286D01*
X124198096Y-148645524D01*
X124102858Y-148740762D01*
X123960000Y-148788381D01*
X123721905Y-148788381D01*
X125198096Y-147788381D02*
X124721905Y-147788381D01*
X124674286Y-148264571D01*
X124721905Y-148216952D01*
X124817143Y-148169333D01*
X125055239Y-148169333D01*
X125150477Y-148216952D01*
X125198096Y-148264571D01*
X125245715Y-148359810D01*
X125245715Y-148597905D01*
X125198096Y-148693143D01*
X125150477Y-148740762D01*
X125055239Y-148788381D01*
X124817143Y-148788381D01*
X124721905Y-148740762D01*
X124674286Y-148693143D01*
X128801905Y-148788381D02*
X128801905Y-147788381D01*
X129040000Y-147788381D01*
X129182858Y-147836000D01*
X129278096Y-147931238D01*
X129325715Y-148026476D01*
X129373334Y-148216952D01*
X129373334Y-148359810D01*
X129325715Y-148550286D01*
X129278096Y-148645524D01*
X129182858Y-148740762D01*
X129040000Y-148788381D01*
X128801905Y-148788381D01*
X130230477Y-147788381D02*
X130040000Y-147788381D01*
X129944762Y-147836000D01*
X129897143Y-147883619D01*
X129801905Y-148026476D01*
X129754286Y-148216952D01*
X129754286Y-148597905D01*
X129801905Y-148693143D01*
X129849524Y-148740762D01*
X129944762Y-148788381D01*
X130135239Y-148788381D01*
X130230477Y-148740762D01*
X130278096Y-148693143D01*
X130325715Y-148597905D01*
X130325715Y-148359810D01*
X130278096Y-148264571D01*
X130230477Y-148216952D01*
X130135239Y-148169333D01*
X129944762Y-148169333D01*
X129849524Y-148216952D01*
X129801905Y-148264571D01*
X129754286Y-148359810D01*
X133627905Y-148788381D02*
X133627905Y-147788381D01*
X133866000Y-147788381D01*
X134008858Y-147836000D01*
X134104096Y-147931238D01*
X134151715Y-148026476D01*
X134199334Y-148216952D01*
X134199334Y-148359810D01*
X134151715Y-148550286D01*
X134104096Y-148645524D01*
X134008858Y-148740762D01*
X133866000Y-148788381D01*
X133627905Y-148788381D01*
X134532667Y-147788381D02*
X135199334Y-147788381D01*
X134770762Y-148788381D01*
X138631705Y-148712181D02*
X138631705Y-147712181D01*
X138869800Y-147712181D01*
X139012658Y-147759800D01*
X139107896Y-147855038D01*
X139155515Y-147950276D01*
X139203134Y-148140752D01*
X139203134Y-148283610D01*
X139155515Y-148474086D01*
X139107896Y-148569324D01*
X139012658Y-148664562D01*
X138869800Y-148712181D01*
X138631705Y-148712181D01*
X139774562Y-148140752D02*
X139679324Y-148093133D01*
X139631705Y-148045514D01*
X139584086Y-147950276D01*
X139584086Y-147902657D01*
X139631705Y-147807419D01*
X139679324Y-147759800D01*
X139774562Y-147712181D01*
X139965039Y-147712181D01*
X140060277Y-147759800D01*
X140107896Y-147807419D01*
X140155515Y-147902657D01*
X140155515Y-147950276D01*
X140107896Y-148045514D01*
X140060277Y-148093133D01*
X139965039Y-148140752D01*
X139774562Y-148140752D01*
X139679324Y-148188371D01*
X139631705Y-148235990D01*
X139584086Y-148331229D01*
X139584086Y-148521705D01*
X139631705Y-148616943D01*
X139679324Y-148664562D01*
X139774562Y-148712181D01*
X139965039Y-148712181D01*
X140060277Y-148664562D01*
X140107896Y-148616943D01*
X140155515Y-148521705D01*
X140155515Y-148331229D01*
X140107896Y-148235990D01*
X140060277Y-148188371D01*
X139965039Y-148140752D01*
X107868981Y-137110766D02*
X107392790Y-137444100D01*
X107868981Y-137682195D02*
X106868981Y-137682195D01*
X106868981Y-137301242D01*
X106916600Y-137206004D01*
X106964219Y-137158385D01*
X107059457Y-137110766D01*
X107202314Y-137110766D01*
X107297552Y-137158385D01*
X107345171Y-137206004D01*
X107392790Y-137301242D01*
X107392790Y-137682195D01*
X106868981Y-136777433D02*
X106868981Y-136158385D01*
X107249933Y-136491719D01*
X107249933Y-136348861D01*
X107297552Y-136253623D01*
X107345171Y-136206004D01*
X107440410Y-136158385D01*
X107678505Y-136158385D01*
X107773743Y-136206004D01*
X107821362Y-136253623D01*
X107868981Y-136348861D01*
X107868981Y-136634576D01*
X107821362Y-136729814D01*
X107773743Y-136777433D01*
X112872781Y-137263166D02*
X112396590Y-137596500D01*
X112872781Y-137834595D02*
X111872781Y-137834595D01*
X111872781Y-137453642D01*
X111920400Y-137358404D01*
X111968019Y-137310785D01*
X112063257Y-137263166D01*
X112206114Y-137263166D01*
X112301352Y-137310785D01*
X112348971Y-137358404D01*
X112396590Y-137453642D01*
X112396590Y-137834595D01*
X112206114Y-136406023D02*
X112872781Y-136406023D01*
X111825162Y-136644119D02*
X112539448Y-136882214D01*
X112539448Y-136263166D01*
X117940081Y-137186966D02*
X117463890Y-137520300D01*
X117940081Y-137758395D02*
X116940081Y-137758395D01*
X116940081Y-137377442D01*
X116987700Y-137282204D01*
X117035319Y-137234585D01*
X117130557Y-137186966D01*
X117273414Y-137186966D01*
X117368652Y-137234585D01*
X117416271Y-137282204D01*
X117463890Y-137377442D01*
X117463890Y-137758395D01*
X116940081Y-136282204D02*
X116940081Y-136758395D01*
X117416271Y-136806014D01*
X117368652Y-136758395D01*
X117321033Y-136663157D01*
X117321033Y-136425061D01*
X117368652Y-136329823D01*
X117416271Y-136282204D01*
X117511510Y-136234585D01*
X117749605Y-136234585D01*
X117844843Y-136282204D01*
X117892462Y-136329823D01*
X117940081Y-136425061D01*
X117940081Y-136663157D01*
X117892462Y-136758395D01*
X117844843Y-136806014D01*
X122766081Y-137199666D02*
X122289890Y-137533000D01*
X122766081Y-137771095D02*
X121766081Y-137771095D01*
X121766081Y-137390142D01*
X121813700Y-137294904D01*
X121861319Y-137247285D01*
X121956557Y-137199666D01*
X122099414Y-137199666D01*
X122194652Y-137247285D01*
X122242271Y-137294904D01*
X122289890Y-137390142D01*
X122289890Y-137771095D01*
X121766081Y-136342523D02*
X121766081Y-136533000D01*
X121813700Y-136628238D01*
X121861319Y-136675857D01*
X122004176Y-136771095D01*
X122194652Y-136818714D01*
X122575605Y-136818714D01*
X122670843Y-136771095D01*
X122718462Y-136723476D01*
X122766081Y-136628238D01*
X122766081Y-136437761D01*
X122718462Y-136342523D01*
X122670843Y-136294904D01*
X122575605Y-136247285D01*
X122337510Y-136247285D01*
X122242271Y-136294904D01*
X122194652Y-136342523D01*
X122147033Y-136437761D01*
X122147033Y-136628238D01*
X122194652Y-136723476D01*
X122242271Y-136771095D01*
X122337510Y-136818714D01*
X128036581Y-137098066D02*
X127560390Y-137431400D01*
X128036581Y-137669495D02*
X127036581Y-137669495D01*
X127036581Y-137288542D01*
X127084200Y-137193304D01*
X127131819Y-137145685D01*
X127227057Y-137098066D01*
X127369914Y-137098066D01*
X127465152Y-137145685D01*
X127512771Y-137193304D01*
X127560390Y-137288542D01*
X127560390Y-137669495D01*
X127036581Y-136764733D02*
X127036581Y-136098066D01*
X128036581Y-136526638D01*
X133014981Y-137174266D02*
X132538790Y-137507600D01*
X133014981Y-137745695D02*
X132014981Y-137745695D01*
X132014981Y-137364742D01*
X132062600Y-137269504D01*
X132110219Y-137221885D01*
X132205457Y-137174266D01*
X132348314Y-137174266D01*
X132443552Y-137221885D01*
X132491171Y-137269504D01*
X132538790Y-137364742D01*
X132538790Y-137745695D01*
X132443552Y-136602838D02*
X132395933Y-136698076D01*
X132348314Y-136745695D01*
X132253076Y-136793314D01*
X132205457Y-136793314D01*
X132110219Y-136745695D01*
X132062600Y-136698076D01*
X132014981Y-136602838D01*
X132014981Y-136412361D01*
X132062600Y-136317123D01*
X132110219Y-136269504D01*
X132205457Y-136221885D01*
X132253076Y-136221885D01*
X132348314Y-136269504D01*
X132395933Y-136317123D01*
X132443552Y-136412361D01*
X132443552Y-136602838D01*
X132491171Y-136698076D01*
X132538790Y-136745695D01*
X132634029Y-136793314D01*
X132824505Y-136793314D01*
X132919743Y-136745695D01*
X132967362Y-136698076D01*
X133014981Y-136602838D01*
X133014981Y-136412361D01*
X132967362Y-136317123D01*
X132919743Y-136269504D01*
X132824505Y-136221885D01*
X132634029Y-136221885D01*
X132538790Y-136269504D01*
X132491171Y-136317123D01*
X132443552Y-136412361D01*
X141638281Y-137612357D02*
X141162090Y-137945691D01*
X141638281Y-138183786D02*
X140638281Y-138183786D01*
X140638281Y-137802833D01*
X140685900Y-137707595D01*
X140733519Y-137659976D01*
X140828757Y-137612357D01*
X140971614Y-137612357D01*
X141066852Y-137659976D01*
X141114471Y-137707595D01*
X141162090Y-137802833D01*
X141162090Y-138183786D01*
X141638281Y-136659976D02*
X141638281Y-137231405D01*
X141638281Y-136945691D02*
X140638281Y-136945691D01*
X140781138Y-137040929D01*
X140876376Y-137136167D01*
X140923995Y-137231405D01*
X140638281Y-136040929D02*
X140638281Y-135945690D01*
X140685900Y-135850452D01*
X140733519Y-135802833D01*
X140828757Y-135755214D01*
X141019233Y-135707595D01*
X141257329Y-135707595D01*
X141447805Y-135755214D01*
X141543043Y-135802833D01*
X141590662Y-135850452D01*
X141638281Y-135945690D01*
X141638281Y-136040929D01*
X141590662Y-136136167D01*
X141543043Y-136183786D01*
X141447805Y-136231405D01*
X141257329Y-136279024D01*
X141019233Y-136279024D01*
X140828757Y-136231405D01*
X140733519Y-136183786D01*
X140685900Y-136136167D01*
X140638281Y-136040929D01*
X87082334Y-111585381D02*
X86606143Y-111585381D01*
X86606143Y-110585381D01*
X87987096Y-111490143D02*
X87939477Y-111537762D01*
X87796620Y-111585381D01*
X87701382Y-111585381D01*
X87558524Y-111537762D01*
X87463286Y-111442524D01*
X87415667Y-111347286D01*
X87368048Y-111156810D01*
X87368048Y-111013952D01*
X87415667Y-110823476D01*
X87463286Y-110728238D01*
X87558524Y-110633000D01*
X87701382Y-110585381D01*
X87796620Y-110585381D01*
X87939477Y-110633000D01*
X87987096Y-110680619D01*
X88368048Y-110680619D02*
X88415667Y-110633000D01*
X88510905Y-110585381D01*
X88749001Y-110585381D01*
X88844239Y-110633000D01*
X88891858Y-110680619D01*
X88939477Y-110775857D01*
X88939477Y-110871095D01*
X88891858Y-111013952D01*
X88320429Y-111585381D01*
X88939477Y-111585381D01*
X67168734Y-111661581D02*
X66692543Y-111661581D01*
X66692543Y-110661581D01*
X68073496Y-111566343D02*
X68025877Y-111613962D01*
X67883020Y-111661581D01*
X67787782Y-111661581D01*
X67644924Y-111613962D01*
X67549686Y-111518724D01*
X67502067Y-111423486D01*
X67454448Y-111233010D01*
X67454448Y-111090152D01*
X67502067Y-110899676D01*
X67549686Y-110804438D01*
X67644924Y-110709200D01*
X67787782Y-110661581D01*
X67883020Y-110661581D01*
X68025877Y-110709200D01*
X68073496Y-110756819D01*
X69025877Y-111661581D02*
X68454448Y-111661581D01*
X68740162Y-111661581D02*
X68740162Y-110661581D01*
X68644924Y-110804438D01*
X68549686Y-110899676D01*
X68454448Y-110947295D01*
X111593334Y-111585381D02*
X111117143Y-111585381D01*
X111117143Y-110585381D01*
X112498096Y-111490143D02*
X112450477Y-111537762D01*
X112307620Y-111585381D01*
X112212382Y-111585381D01*
X112069524Y-111537762D01*
X111974286Y-111442524D01*
X111926667Y-111347286D01*
X111879048Y-111156810D01*
X111879048Y-111013952D01*
X111926667Y-110823476D01*
X111974286Y-110728238D01*
X112069524Y-110633000D01*
X112212382Y-110585381D01*
X112307620Y-110585381D01*
X112450477Y-110633000D01*
X112498096Y-110680619D01*
X112831429Y-110585381D02*
X113450477Y-110585381D01*
X113117143Y-110966333D01*
X113260001Y-110966333D01*
X113355239Y-111013952D01*
X113402858Y-111061571D01*
X113450477Y-111156810D01*
X113450477Y-111394905D01*
X113402858Y-111490143D01*
X113355239Y-111537762D01*
X113260001Y-111585381D01*
X112974286Y-111585381D01*
X112879048Y-111537762D01*
X112831429Y-111490143D01*
X134072334Y-111966381D02*
X133596143Y-111966381D01*
X133596143Y-110966381D01*
X134977096Y-111871143D02*
X134929477Y-111918762D01*
X134786620Y-111966381D01*
X134691382Y-111966381D01*
X134548524Y-111918762D01*
X134453286Y-111823524D01*
X134405667Y-111728286D01*
X134358048Y-111537810D01*
X134358048Y-111394952D01*
X134405667Y-111204476D01*
X134453286Y-111109238D01*
X134548524Y-111014000D01*
X134691382Y-110966381D01*
X134786620Y-110966381D01*
X134929477Y-111014000D01*
X134977096Y-111061619D01*
X135834239Y-111299714D02*
X135834239Y-111966381D01*
X135596143Y-110918762D02*
X135358048Y-111633048D01*
X135977096Y-111633048D01*
X133199334Y-65468381D02*
X132723143Y-65468381D01*
X132723143Y-64468381D01*
X134104096Y-65373143D02*
X134056477Y-65420762D01*
X133913620Y-65468381D01*
X133818382Y-65468381D01*
X133675524Y-65420762D01*
X133580286Y-65325524D01*
X133532667Y-65230286D01*
X133485048Y-65039810D01*
X133485048Y-64896952D01*
X133532667Y-64706476D01*
X133580286Y-64611238D01*
X133675524Y-64516000D01*
X133818382Y-64468381D01*
X133913620Y-64468381D01*
X134056477Y-64516000D01*
X134104096Y-64563619D01*
X135008858Y-64468381D02*
X134532667Y-64468381D01*
X134485048Y-64944571D01*
X134532667Y-64896952D01*
X134627905Y-64849333D01*
X134866001Y-64849333D01*
X134961239Y-64896952D01*
X135008858Y-64944571D01*
X135056477Y-65039810D01*
X135056477Y-65277905D01*
X135008858Y-65373143D01*
X134961239Y-65420762D01*
X134866001Y-65468381D01*
X134627905Y-65468381D01*
X134532667Y-65420762D01*
X134485048Y-65373143D01*
X111990334Y-65341381D02*
X111514143Y-65341381D01*
X111514143Y-64341381D01*
X112895096Y-65246143D02*
X112847477Y-65293762D01*
X112704620Y-65341381D01*
X112609382Y-65341381D01*
X112466524Y-65293762D01*
X112371286Y-65198524D01*
X112323667Y-65103286D01*
X112276048Y-64912810D01*
X112276048Y-64769952D01*
X112323667Y-64579476D01*
X112371286Y-64484238D01*
X112466524Y-64389000D01*
X112609382Y-64341381D01*
X112704620Y-64341381D01*
X112847477Y-64389000D01*
X112895096Y-64436619D01*
X113752239Y-64341381D02*
X113561762Y-64341381D01*
X113466524Y-64389000D01*
X113418905Y-64436619D01*
X113323667Y-64579476D01*
X113276048Y-64769952D01*
X113276048Y-65150905D01*
X113323667Y-65246143D01*
X113371286Y-65293762D01*
X113466524Y-65341381D01*
X113657001Y-65341381D01*
X113752239Y-65293762D01*
X113799858Y-65246143D01*
X113847477Y-65150905D01*
X113847477Y-64912810D01*
X113799858Y-64817571D01*
X113752239Y-64769952D01*
X113657001Y-64722333D01*
X113466524Y-64722333D01*
X113371286Y-64769952D01*
X113323667Y-64817571D01*
X113276048Y-64912810D01*
X89003334Y-65468381D02*
X88527143Y-65468381D01*
X88527143Y-64468381D01*
X89908096Y-65373143D02*
X89860477Y-65420762D01*
X89717620Y-65468381D01*
X89622382Y-65468381D01*
X89479524Y-65420762D01*
X89384286Y-65325524D01*
X89336667Y-65230286D01*
X89289048Y-65039810D01*
X89289048Y-64896952D01*
X89336667Y-64706476D01*
X89384286Y-64611238D01*
X89479524Y-64516000D01*
X89622382Y-64468381D01*
X89717620Y-64468381D01*
X89860477Y-64516000D01*
X89908096Y-64563619D01*
X90241429Y-64468381D02*
X90908096Y-64468381D01*
X90479524Y-65468381D01*
X119606143Y-124035143D02*
X119558524Y-124082762D01*
X119415667Y-124130381D01*
X119320429Y-124130381D01*
X119177571Y-124082762D01*
X119082333Y-123987524D01*
X119034714Y-123892286D01*
X118987095Y-123701810D01*
X118987095Y-123558952D01*
X119034714Y-123368476D01*
X119082333Y-123273238D01*
X119177571Y-123178000D01*
X119320429Y-123130381D01*
X119415667Y-123130381D01*
X119558524Y-123178000D01*
X119606143Y-123225619D01*
X120558524Y-124130381D02*
X119987095Y-124130381D01*
X120272809Y-124130381D02*
X120272809Y-123130381D01*
X120177571Y-123273238D01*
X120082333Y-123368476D01*
X119987095Y-123416095D01*
X120891857Y-123130381D02*
X121510905Y-123130381D01*
X121177571Y-123511333D01*
X121320429Y-123511333D01*
X121415667Y-123558952D01*
X121463286Y-123606571D01*
X121510905Y-123701810D01*
X121510905Y-123939905D01*
X121463286Y-124035143D01*
X121415667Y-124082762D01*
X121320429Y-124130381D01*
X121034714Y-124130381D01*
X120939476Y-124082762D01*
X120891857Y-124035143D01*
X100017343Y-147423143D02*
X99969724Y-147470762D01*
X99826867Y-147518381D01*
X99731629Y-147518381D01*
X99588771Y-147470762D01*
X99493533Y-147375524D01*
X99445914Y-147280286D01*
X99398295Y-147089810D01*
X99398295Y-146946952D01*
X99445914Y-146756476D01*
X99493533Y-146661238D01*
X99588771Y-146566000D01*
X99731629Y-146518381D01*
X99826867Y-146518381D01*
X99969724Y-146566000D01*
X100017343Y-146613619D01*
X100969724Y-147518381D02*
X100398295Y-147518381D01*
X100684009Y-147518381D02*
X100684009Y-146518381D01*
X100588771Y-146661238D01*
X100493533Y-146756476D01*
X100398295Y-146804095D01*
X101826867Y-146851714D02*
X101826867Y-147518381D01*
X101588771Y-146470762D02*
X101350676Y-147185048D01*
X101969724Y-147185048D01*
X117188500Y-97924881D02*
X116855166Y-97448690D01*
X116617071Y-97924881D02*
X116617071Y-96924881D01*
X116998024Y-96924881D01*
X117093262Y-96972500D01*
X117140881Y-97020119D01*
X117188500Y-97115357D01*
X117188500Y-97258214D01*
X117140881Y-97353452D01*
X117093262Y-97401071D01*
X116998024Y-97448690D01*
X116617071Y-97448690D01*
X118093262Y-97924881D02*
X117617071Y-97924881D01*
X117617071Y-96924881D01*
X118617071Y-97448690D02*
X118617071Y-97924881D01*
X118283738Y-96924881D02*
X118617071Y-97448690D01*
X118950405Y-96924881D01*
X119188500Y-96924881D02*
X119807548Y-96924881D01*
X119474214Y-97305833D01*
X119617072Y-97305833D01*
X119712310Y-97353452D01*
X119759929Y-97401071D01*
X119807548Y-97496310D01*
X119807548Y-97734405D01*
X119759929Y-97829643D01*
X119712310Y-97877262D01*
X119617072Y-97924881D01*
X119331357Y-97924881D01*
X119236119Y-97877262D01*
X119188500Y-97829643D01*
X108878976Y-91877262D02*
X109021833Y-91924881D01*
X109259929Y-91924881D01*
X109355167Y-91877262D01*
X109402786Y-91829643D01*
X109450405Y-91734405D01*
X109450405Y-91639167D01*
X109402786Y-91543929D01*
X109355167Y-91496310D01*
X109259929Y-91448690D01*
X109069452Y-91401071D01*
X108974214Y-91353452D01*
X108926595Y-91305833D01*
X108878976Y-91210595D01*
X108878976Y-91115357D01*
X108926595Y-91020119D01*
X108974214Y-90972500D01*
X109069452Y-90924881D01*
X109307548Y-90924881D01*
X109450405Y-90972500D01*
X110450405Y-91924881D02*
X110117071Y-91448690D01*
X109878976Y-91924881D02*
X109878976Y-90924881D01*
X110259929Y-90924881D01*
X110355167Y-90972500D01*
X110402786Y-91020119D01*
X110450405Y-91115357D01*
X110450405Y-91258214D01*
X110402786Y-91353452D01*
X110355167Y-91401071D01*
X110259929Y-91448690D01*
X109878976Y-91448690D01*
X110878976Y-91924881D02*
X110878976Y-90924881D01*
X111117071Y-90924881D01*
X111259929Y-90972500D01*
X111355167Y-91067738D01*
X111402786Y-91162976D01*
X111450405Y-91353452D01*
X111450405Y-91496310D01*
X111402786Y-91686786D01*
X111355167Y-91782024D01*
X111259929Y-91877262D01*
X111117071Y-91924881D01*
X110878976Y-91924881D01*
X112450405Y-91924881D02*
X112117071Y-91448690D01*
X111878976Y-91924881D02*
X111878976Y-90924881D01*
X112259929Y-90924881D01*
X112355167Y-90972500D01*
X112402786Y-91020119D01*
X112450405Y-91115357D01*
X112450405Y-91258214D01*
X112402786Y-91353452D01*
X112355167Y-91401071D01*
X112259929Y-91448690D01*
X111878976Y-91448690D01*
X113259929Y-91877262D02*
X113164691Y-91924881D01*
X112974214Y-91924881D01*
X112878976Y-91877262D01*
X112831357Y-91782024D01*
X112831357Y-91401071D01*
X112878976Y-91305833D01*
X112974214Y-91258214D01*
X113164691Y-91258214D01*
X113259929Y-91305833D01*
X113307548Y-91401071D01*
X113307548Y-91496310D01*
X112831357Y-91591548D01*
X113878976Y-91924881D02*
X113783738Y-91877262D01*
X113736119Y-91782024D01*
X113736119Y-90924881D01*
X114688501Y-91924881D02*
X114688501Y-91401071D01*
X114640882Y-91305833D01*
X114545644Y-91258214D01*
X114355167Y-91258214D01*
X114259929Y-91305833D01*
X114688501Y-91877262D02*
X114593263Y-91924881D01*
X114355167Y-91924881D01*
X114259929Y-91877262D01*
X114212310Y-91782024D01*
X114212310Y-91686786D01*
X114259929Y-91591548D01*
X114355167Y-91543929D01*
X114593263Y-91543929D01*
X114688501Y-91496310D01*
X115069453Y-91258214D02*
X115307548Y-91924881D01*
X115545644Y-91258214D02*
X115307548Y-91924881D01*
X115212310Y-92162976D01*
X115164691Y-92210595D01*
X115069453Y-92258214D01*
X80011000Y-79395581D02*
X79677666Y-78919390D01*
X79439571Y-79395581D02*
X79439571Y-78395581D01*
X79820524Y-78395581D01*
X79915762Y-78443200D01*
X79963381Y-78490819D01*
X80011000Y-78586057D01*
X80011000Y-78728914D01*
X79963381Y-78824152D01*
X79915762Y-78871771D01*
X79820524Y-78919390D01*
X79439571Y-78919390D01*
X80915762Y-79395581D02*
X80439571Y-79395581D01*
X80439571Y-78395581D01*
X81439571Y-78919390D02*
X81439571Y-79395581D01*
X81106238Y-78395581D02*
X81439571Y-78919390D01*
X81772905Y-78395581D01*
X82011000Y-78395581D02*
X82677667Y-78395581D01*
X82249095Y-79395581D01*
X83701476Y-85347962D02*
X83844333Y-85395581D01*
X84082429Y-85395581D01*
X84177667Y-85347962D01*
X84225286Y-85300343D01*
X84272905Y-85205105D01*
X84272905Y-85109867D01*
X84225286Y-85014629D01*
X84177667Y-84967010D01*
X84082429Y-84919390D01*
X83891952Y-84871771D01*
X83796714Y-84824152D01*
X83749095Y-84776533D01*
X83701476Y-84681295D01*
X83701476Y-84586057D01*
X83749095Y-84490819D01*
X83796714Y-84443200D01*
X83891952Y-84395581D01*
X84130048Y-84395581D01*
X84272905Y-84443200D01*
X85272905Y-85395581D02*
X84939571Y-84919390D01*
X84701476Y-85395581D02*
X84701476Y-84395581D01*
X85082429Y-84395581D01*
X85177667Y-84443200D01*
X85225286Y-84490819D01*
X85272905Y-84586057D01*
X85272905Y-84728914D01*
X85225286Y-84824152D01*
X85177667Y-84871771D01*
X85082429Y-84919390D01*
X84701476Y-84919390D01*
X85701476Y-85395581D02*
X85701476Y-84395581D01*
X85939571Y-84395581D01*
X86082429Y-84443200D01*
X86177667Y-84538438D01*
X86225286Y-84633676D01*
X86272905Y-84824152D01*
X86272905Y-84967010D01*
X86225286Y-85157486D01*
X86177667Y-85252724D01*
X86082429Y-85347962D01*
X85939571Y-85395581D01*
X85701476Y-85395581D01*
X87272905Y-85395581D02*
X86939571Y-84919390D01*
X86701476Y-85395581D02*
X86701476Y-84395581D01*
X87082429Y-84395581D01*
X87177667Y-84443200D01*
X87225286Y-84490819D01*
X87272905Y-84586057D01*
X87272905Y-84728914D01*
X87225286Y-84824152D01*
X87177667Y-84871771D01*
X87082429Y-84919390D01*
X86701476Y-84919390D01*
X88082429Y-85347962D02*
X87987191Y-85395581D01*
X87796714Y-85395581D01*
X87701476Y-85347962D01*
X87653857Y-85252724D01*
X87653857Y-84871771D01*
X87701476Y-84776533D01*
X87796714Y-84728914D01*
X87987191Y-84728914D01*
X88082429Y-84776533D01*
X88130048Y-84871771D01*
X88130048Y-84967010D01*
X87653857Y-85062248D01*
X88701476Y-85395581D02*
X88606238Y-85347962D01*
X88558619Y-85252724D01*
X88558619Y-84395581D01*
X89511001Y-85395581D02*
X89511001Y-84871771D01*
X89463382Y-84776533D01*
X89368144Y-84728914D01*
X89177667Y-84728914D01*
X89082429Y-84776533D01*
X89511001Y-85347962D02*
X89415763Y-85395581D01*
X89177667Y-85395581D01*
X89082429Y-85347962D01*
X89034810Y-85252724D01*
X89034810Y-85157486D01*
X89082429Y-85062248D01*
X89177667Y-85014629D01*
X89415763Y-85014629D01*
X89511001Y-84967010D01*
X89891953Y-84728914D02*
X90130048Y-85395581D01*
X90368144Y-84728914D02*
X90130048Y-85395581D01*
X90034810Y-85633676D01*
X89987191Y-85681295D01*
X89891953Y-85728914D01*
X62332600Y-60990741D02*
X61999266Y-60514550D01*
X61761171Y-60990741D02*
X61761171Y-59990741D01*
X62142124Y-59990741D01*
X62237362Y-60038360D01*
X62284981Y-60085979D01*
X62332600Y-60181217D01*
X62332600Y-60324074D01*
X62284981Y-60419312D01*
X62237362Y-60466931D01*
X62142124Y-60514550D01*
X61761171Y-60514550D01*
X63237362Y-60990741D02*
X62761171Y-60990741D01*
X62761171Y-59990741D01*
X63761171Y-60514550D02*
X63761171Y-60990741D01*
X63427838Y-59990741D02*
X63761171Y-60514550D01*
X64094505Y-59990741D01*
X64475457Y-60990741D02*
X64665933Y-60990741D01*
X64761172Y-60943122D01*
X64808791Y-60895503D01*
X64904029Y-60752646D01*
X64951648Y-60562170D01*
X64951648Y-60181217D01*
X64904029Y-60085979D01*
X64856410Y-60038360D01*
X64761172Y-59990741D01*
X64570695Y-59990741D01*
X64475457Y-60038360D01*
X64427838Y-60085979D01*
X64380219Y-60181217D01*
X64380219Y-60419312D01*
X64427838Y-60514550D01*
X64475457Y-60562170D01*
X64570695Y-60609789D01*
X64761172Y-60609789D01*
X64856410Y-60562170D01*
X64904029Y-60514550D01*
X64951648Y-60419312D01*
X66023076Y-66943122D02*
X66165933Y-66990741D01*
X66404029Y-66990741D01*
X66499267Y-66943122D01*
X66546886Y-66895503D01*
X66594505Y-66800265D01*
X66594505Y-66705027D01*
X66546886Y-66609789D01*
X66499267Y-66562170D01*
X66404029Y-66514550D01*
X66213552Y-66466931D01*
X66118314Y-66419312D01*
X66070695Y-66371693D01*
X66023076Y-66276455D01*
X66023076Y-66181217D01*
X66070695Y-66085979D01*
X66118314Y-66038360D01*
X66213552Y-65990741D01*
X66451648Y-65990741D01*
X66594505Y-66038360D01*
X67594505Y-66990741D02*
X67261171Y-66514550D01*
X67023076Y-66990741D02*
X67023076Y-65990741D01*
X67404029Y-65990741D01*
X67499267Y-66038360D01*
X67546886Y-66085979D01*
X67594505Y-66181217D01*
X67594505Y-66324074D01*
X67546886Y-66419312D01*
X67499267Y-66466931D01*
X67404029Y-66514550D01*
X67023076Y-66514550D01*
X68023076Y-66990741D02*
X68023076Y-65990741D01*
X68261171Y-65990741D01*
X68404029Y-66038360D01*
X68499267Y-66133598D01*
X68546886Y-66228836D01*
X68594505Y-66419312D01*
X68594505Y-66562170D01*
X68546886Y-66752646D01*
X68499267Y-66847884D01*
X68404029Y-66943122D01*
X68261171Y-66990741D01*
X68023076Y-66990741D01*
X69594505Y-66990741D02*
X69261171Y-66514550D01*
X69023076Y-66990741D02*
X69023076Y-65990741D01*
X69404029Y-65990741D01*
X69499267Y-66038360D01*
X69546886Y-66085979D01*
X69594505Y-66181217D01*
X69594505Y-66324074D01*
X69546886Y-66419312D01*
X69499267Y-66466931D01*
X69404029Y-66514550D01*
X69023076Y-66514550D01*
X70404029Y-66943122D02*
X70308791Y-66990741D01*
X70118314Y-66990741D01*
X70023076Y-66943122D01*
X69975457Y-66847884D01*
X69975457Y-66466931D01*
X70023076Y-66371693D01*
X70118314Y-66324074D01*
X70308791Y-66324074D01*
X70404029Y-66371693D01*
X70451648Y-66466931D01*
X70451648Y-66562170D01*
X69975457Y-66657408D01*
X71023076Y-66990741D02*
X70927838Y-66943122D01*
X70880219Y-66847884D01*
X70880219Y-65990741D01*
X71832601Y-66990741D02*
X71832601Y-66466931D01*
X71784982Y-66371693D01*
X71689744Y-66324074D01*
X71499267Y-66324074D01*
X71404029Y-66371693D01*
X71832601Y-66943122D02*
X71737363Y-66990741D01*
X71499267Y-66990741D01*
X71404029Y-66943122D01*
X71356410Y-66847884D01*
X71356410Y-66752646D01*
X71404029Y-66657408D01*
X71499267Y-66609789D01*
X71737363Y-66609789D01*
X71832601Y-66562170D01*
X72213553Y-66324074D02*
X72451648Y-66990741D01*
X72689744Y-66324074D02*
X72451648Y-66990741D01*
X72356410Y-67228836D01*
X72308791Y-67276455D01*
X72213553Y-67324074D01*
X55500000Y-79446381D02*
X55166666Y-78970190D01*
X54928571Y-79446381D02*
X54928571Y-78446381D01*
X55309524Y-78446381D01*
X55404762Y-78494000D01*
X55452381Y-78541619D01*
X55500000Y-78636857D01*
X55500000Y-78779714D01*
X55452381Y-78874952D01*
X55404762Y-78922571D01*
X55309524Y-78970190D01*
X54928571Y-78970190D01*
X56404762Y-79446381D02*
X55928571Y-79446381D01*
X55928571Y-78446381D01*
X56928571Y-78970190D02*
X56928571Y-79446381D01*
X56595238Y-78446381D02*
X56928571Y-78970190D01*
X57261905Y-78446381D01*
X57738095Y-78874952D02*
X57642857Y-78827333D01*
X57595238Y-78779714D01*
X57547619Y-78684476D01*
X57547619Y-78636857D01*
X57595238Y-78541619D01*
X57642857Y-78494000D01*
X57738095Y-78446381D01*
X57928572Y-78446381D01*
X58023810Y-78494000D01*
X58071429Y-78541619D01*
X58119048Y-78636857D01*
X58119048Y-78684476D01*
X58071429Y-78779714D01*
X58023810Y-78827333D01*
X57928572Y-78874952D01*
X57738095Y-78874952D01*
X57642857Y-78922571D01*
X57595238Y-78970190D01*
X57547619Y-79065429D01*
X57547619Y-79255905D01*
X57595238Y-79351143D01*
X57642857Y-79398762D01*
X57738095Y-79446381D01*
X57928572Y-79446381D01*
X58023810Y-79398762D01*
X58071429Y-79351143D01*
X58119048Y-79255905D01*
X58119048Y-79065429D01*
X58071429Y-78970190D01*
X58023810Y-78922571D01*
X57928572Y-78874952D01*
X59190476Y-85398762D02*
X59333333Y-85446381D01*
X59571429Y-85446381D01*
X59666667Y-85398762D01*
X59714286Y-85351143D01*
X59761905Y-85255905D01*
X59761905Y-85160667D01*
X59714286Y-85065429D01*
X59666667Y-85017810D01*
X59571429Y-84970190D01*
X59380952Y-84922571D01*
X59285714Y-84874952D01*
X59238095Y-84827333D01*
X59190476Y-84732095D01*
X59190476Y-84636857D01*
X59238095Y-84541619D01*
X59285714Y-84494000D01*
X59380952Y-84446381D01*
X59619048Y-84446381D01*
X59761905Y-84494000D01*
X60761905Y-85446381D02*
X60428571Y-84970190D01*
X60190476Y-85446381D02*
X60190476Y-84446381D01*
X60571429Y-84446381D01*
X60666667Y-84494000D01*
X60714286Y-84541619D01*
X60761905Y-84636857D01*
X60761905Y-84779714D01*
X60714286Y-84874952D01*
X60666667Y-84922571D01*
X60571429Y-84970190D01*
X60190476Y-84970190D01*
X61190476Y-85446381D02*
X61190476Y-84446381D01*
X61428571Y-84446381D01*
X61571429Y-84494000D01*
X61666667Y-84589238D01*
X61714286Y-84684476D01*
X61761905Y-84874952D01*
X61761905Y-85017810D01*
X61714286Y-85208286D01*
X61666667Y-85303524D01*
X61571429Y-85398762D01*
X61428571Y-85446381D01*
X61190476Y-85446381D01*
X62761905Y-85446381D02*
X62428571Y-84970190D01*
X62190476Y-85446381D02*
X62190476Y-84446381D01*
X62571429Y-84446381D01*
X62666667Y-84494000D01*
X62714286Y-84541619D01*
X62761905Y-84636857D01*
X62761905Y-84779714D01*
X62714286Y-84874952D01*
X62666667Y-84922571D01*
X62571429Y-84970190D01*
X62190476Y-84970190D01*
X63571429Y-85398762D02*
X63476191Y-85446381D01*
X63285714Y-85446381D01*
X63190476Y-85398762D01*
X63142857Y-85303524D01*
X63142857Y-84922571D01*
X63190476Y-84827333D01*
X63285714Y-84779714D01*
X63476191Y-84779714D01*
X63571429Y-84827333D01*
X63619048Y-84922571D01*
X63619048Y-85017810D01*
X63142857Y-85113048D01*
X64190476Y-85446381D02*
X64095238Y-85398762D01*
X64047619Y-85303524D01*
X64047619Y-84446381D01*
X65000001Y-85446381D02*
X65000001Y-84922571D01*
X64952382Y-84827333D01*
X64857144Y-84779714D01*
X64666667Y-84779714D01*
X64571429Y-84827333D01*
X65000001Y-85398762D02*
X64904763Y-85446381D01*
X64666667Y-85446381D01*
X64571429Y-85398762D01*
X64523810Y-85303524D01*
X64523810Y-85208286D01*
X64571429Y-85113048D01*
X64666667Y-85065429D01*
X64904763Y-85065429D01*
X65000001Y-85017810D01*
X65380953Y-84779714D02*
X65619048Y-85446381D01*
X65857144Y-84779714D02*
X65619048Y-85446381D01*
X65523810Y-85684476D01*
X65476191Y-85732095D01*
X65380953Y-85779714D01*
X104547400Y-79126341D02*
X104214066Y-78650150D01*
X103975971Y-79126341D02*
X103975971Y-78126341D01*
X104356924Y-78126341D01*
X104452162Y-78173960D01*
X104499781Y-78221579D01*
X104547400Y-78316817D01*
X104547400Y-78459674D01*
X104499781Y-78554912D01*
X104452162Y-78602531D01*
X104356924Y-78650150D01*
X103975971Y-78650150D01*
X105452162Y-79126341D02*
X104975971Y-79126341D01*
X104975971Y-78126341D01*
X105975971Y-78650150D02*
X105975971Y-79126341D01*
X105642638Y-78126341D02*
X105975971Y-78650150D01*
X106309305Y-78126341D01*
X107071210Y-78126341D02*
X106880733Y-78126341D01*
X106785495Y-78173960D01*
X106737876Y-78221579D01*
X106642638Y-78364436D01*
X106595019Y-78554912D01*
X106595019Y-78935865D01*
X106642638Y-79031103D01*
X106690257Y-79078722D01*
X106785495Y-79126341D01*
X106975972Y-79126341D01*
X107071210Y-79078722D01*
X107118829Y-79031103D01*
X107166448Y-78935865D01*
X107166448Y-78697770D01*
X107118829Y-78602531D01*
X107071210Y-78554912D01*
X106975972Y-78507293D01*
X106785495Y-78507293D01*
X106690257Y-78554912D01*
X106642638Y-78602531D01*
X106595019Y-78697770D01*
X108237876Y-85078722D02*
X108380733Y-85126341D01*
X108618829Y-85126341D01*
X108714067Y-85078722D01*
X108761686Y-85031103D01*
X108809305Y-84935865D01*
X108809305Y-84840627D01*
X108761686Y-84745389D01*
X108714067Y-84697770D01*
X108618829Y-84650150D01*
X108428352Y-84602531D01*
X108333114Y-84554912D01*
X108285495Y-84507293D01*
X108237876Y-84412055D01*
X108237876Y-84316817D01*
X108285495Y-84221579D01*
X108333114Y-84173960D01*
X108428352Y-84126341D01*
X108666448Y-84126341D01*
X108809305Y-84173960D01*
X109809305Y-85126341D02*
X109475971Y-84650150D01*
X109237876Y-85126341D02*
X109237876Y-84126341D01*
X109618829Y-84126341D01*
X109714067Y-84173960D01*
X109761686Y-84221579D01*
X109809305Y-84316817D01*
X109809305Y-84459674D01*
X109761686Y-84554912D01*
X109714067Y-84602531D01*
X109618829Y-84650150D01*
X109237876Y-84650150D01*
X110237876Y-85126341D02*
X110237876Y-84126341D01*
X110475971Y-84126341D01*
X110618829Y-84173960D01*
X110714067Y-84269198D01*
X110761686Y-84364436D01*
X110809305Y-84554912D01*
X110809305Y-84697770D01*
X110761686Y-84888246D01*
X110714067Y-84983484D01*
X110618829Y-85078722D01*
X110475971Y-85126341D01*
X110237876Y-85126341D01*
X111809305Y-85126341D02*
X111475971Y-84650150D01*
X111237876Y-85126341D02*
X111237876Y-84126341D01*
X111618829Y-84126341D01*
X111714067Y-84173960D01*
X111761686Y-84221579D01*
X111809305Y-84316817D01*
X111809305Y-84459674D01*
X111761686Y-84554912D01*
X111714067Y-84602531D01*
X111618829Y-84650150D01*
X111237876Y-84650150D01*
X112618829Y-85078722D02*
X112523591Y-85126341D01*
X112333114Y-85126341D01*
X112237876Y-85078722D01*
X112190257Y-84983484D01*
X112190257Y-84602531D01*
X112237876Y-84507293D01*
X112333114Y-84459674D01*
X112523591Y-84459674D01*
X112618829Y-84507293D01*
X112666448Y-84602531D01*
X112666448Y-84697770D01*
X112190257Y-84793008D01*
X113237876Y-85126341D02*
X113142638Y-85078722D01*
X113095019Y-84983484D01*
X113095019Y-84126341D01*
X114047401Y-85126341D02*
X114047401Y-84602531D01*
X113999782Y-84507293D01*
X113904544Y-84459674D01*
X113714067Y-84459674D01*
X113618829Y-84507293D01*
X114047401Y-85078722D02*
X113952163Y-85126341D01*
X113714067Y-85126341D01*
X113618829Y-85078722D01*
X113571210Y-84983484D01*
X113571210Y-84888246D01*
X113618829Y-84793008D01*
X113714067Y-84745389D01*
X113952163Y-84745389D01*
X114047401Y-84697770D01*
X114428353Y-84459674D02*
X114666448Y-85126341D01*
X114904544Y-84459674D02*
X114666448Y-85126341D01*
X114571210Y-85364436D01*
X114523591Y-85412055D01*
X114428353Y-85459674D01*
X128906000Y-79217781D02*
X128572666Y-78741590D01*
X128334571Y-79217781D02*
X128334571Y-78217781D01*
X128715524Y-78217781D01*
X128810762Y-78265400D01*
X128858381Y-78313019D01*
X128906000Y-78408257D01*
X128906000Y-78551114D01*
X128858381Y-78646352D01*
X128810762Y-78693971D01*
X128715524Y-78741590D01*
X128334571Y-78741590D01*
X129810762Y-79217781D02*
X129334571Y-79217781D01*
X129334571Y-78217781D01*
X130334571Y-78741590D02*
X130334571Y-79217781D01*
X130001238Y-78217781D02*
X130334571Y-78741590D01*
X130667905Y-78217781D01*
X131477429Y-78217781D02*
X131001238Y-78217781D01*
X130953619Y-78693971D01*
X131001238Y-78646352D01*
X131096476Y-78598733D01*
X131334572Y-78598733D01*
X131429810Y-78646352D01*
X131477429Y-78693971D01*
X131525048Y-78789210D01*
X131525048Y-79027305D01*
X131477429Y-79122543D01*
X131429810Y-79170162D01*
X131334572Y-79217781D01*
X131096476Y-79217781D01*
X131001238Y-79170162D01*
X130953619Y-79122543D01*
X132596476Y-85170162D02*
X132739333Y-85217781D01*
X132977429Y-85217781D01*
X133072667Y-85170162D01*
X133120286Y-85122543D01*
X133167905Y-85027305D01*
X133167905Y-84932067D01*
X133120286Y-84836829D01*
X133072667Y-84789210D01*
X132977429Y-84741590D01*
X132786952Y-84693971D01*
X132691714Y-84646352D01*
X132644095Y-84598733D01*
X132596476Y-84503495D01*
X132596476Y-84408257D01*
X132644095Y-84313019D01*
X132691714Y-84265400D01*
X132786952Y-84217781D01*
X133025048Y-84217781D01*
X133167905Y-84265400D01*
X134167905Y-85217781D02*
X133834571Y-84741590D01*
X133596476Y-85217781D02*
X133596476Y-84217781D01*
X133977429Y-84217781D01*
X134072667Y-84265400D01*
X134120286Y-84313019D01*
X134167905Y-84408257D01*
X134167905Y-84551114D01*
X134120286Y-84646352D01*
X134072667Y-84693971D01*
X133977429Y-84741590D01*
X133596476Y-84741590D01*
X134596476Y-85217781D02*
X134596476Y-84217781D01*
X134834571Y-84217781D01*
X134977429Y-84265400D01*
X135072667Y-84360638D01*
X135120286Y-84455876D01*
X135167905Y-84646352D01*
X135167905Y-84789210D01*
X135120286Y-84979686D01*
X135072667Y-85074924D01*
X134977429Y-85170162D01*
X134834571Y-85217781D01*
X134596476Y-85217781D01*
X136167905Y-85217781D02*
X135834571Y-84741590D01*
X135596476Y-85217781D02*
X135596476Y-84217781D01*
X135977429Y-84217781D01*
X136072667Y-84265400D01*
X136120286Y-84313019D01*
X136167905Y-84408257D01*
X136167905Y-84551114D01*
X136120286Y-84646352D01*
X136072667Y-84693971D01*
X135977429Y-84741590D01*
X135596476Y-84741590D01*
X136977429Y-85170162D02*
X136882191Y-85217781D01*
X136691714Y-85217781D01*
X136596476Y-85170162D01*
X136548857Y-85074924D01*
X136548857Y-84693971D01*
X136596476Y-84598733D01*
X136691714Y-84551114D01*
X136882191Y-84551114D01*
X136977429Y-84598733D01*
X137025048Y-84693971D01*
X137025048Y-84789210D01*
X136548857Y-84884448D01*
X137596476Y-85217781D02*
X137501238Y-85170162D01*
X137453619Y-85074924D01*
X137453619Y-84217781D01*
X138406001Y-85217781D02*
X138406001Y-84693971D01*
X138358382Y-84598733D01*
X138263144Y-84551114D01*
X138072667Y-84551114D01*
X137977429Y-84598733D01*
X138406001Y-85170162D02*
X138310763Y-85217781D01*
X138072667Y-85217781D01*
X137977429Y-85170162D01*
X137929810Y-85074924D01*
X137929810Y-84979686D01*
X137977429Y-84884448D01*
X138072667Y-84836829D01*
X138310763Y-84836829D01*
X138406001Y-84789210D01*
X138786953Y-84551114D02*
X139025048Y-85217781D01*
X139263144Y-84551114D02*
X139025048Y-85217781D01*
X138929810Y-85455876D01*
X138882191Y-85503495D01*
X138786953Y-85551114D01*
X141826500Y-98305881D02*
X141493166Y-97829690D01*
X141255071Y-98305881D02*
X141255071Y-97305881D01*
X141636024Y-97305881D01*
X141731262Y-97353500D01*
X141778881Y-97401119D01*
X141826500Y-97496357D01*
X141826500Y-97639214D01*
X141778881Y-97734452D01*
X141731262Y-97782071D01*
X141636024Y-97829690D01*
X141255071Y-97829690D01*
X142731262Y-98305881D02*
X142255071Y-98305881D01*
X142255071Y-97305881D01*
X143255071Y-97829690D02*
X143255071Y-98305881D01*
X142921738Y-97305881D02*
X143255071Y-97829690D01*
X143588405Y-97305881D01*
X144350310Y-97639214D02*
X144350310Y-98305881D01*
X144112214Y-97258262D02*
X143874119Y-97972548D01*
X144493167Y-97972548D01*
X133516976Y-92258262D02*
X133659833Y-92305881D01*
X133897929Y-92305881D01*
X133993167Y-92258262D01*
X134040786Y-92210643D01*
X134088405Y-92115405D01*
X134088405Y-92020167D01*
X134040786Y-91924929D01*
X133993167Y-91877310D01*
X133897929Y-91829690D01*
X133707452Y-91782071D01*
X133612214Y-91734452D01*
X133564595Y-91686833D01*
X133516976Y-91591595D01*
X133516976Y-91496357D01*
X133564595Y-91401119D01*
X133612214Y-91353500D01*
X133707452Y-91305881D01*
X133945548Y-91305881D01*
X134088405Y-91353500D01*
X135088405Y-92305881D02*
X134755071Y-91829690D01*
X134516976Y-92305881D02*
X134516976Y-91305881D01*
X134897929Y-91305881D01*
X134993167Y-91353500D01*
X135040786Y-91401119D01*
X135088405Y-91496357D01*
X135088405Y-91639214D01*
X135040786Y-91734452D01*
X134993167Y-91782071D01*
X134897929Y-91829690D01*
X134516976Y-91829690D01*
X135516976Y-92305881D02*
X135516976Y-91305881D01*
X135755071Y-91305881D01*
X135897929Y-91353500D01*
X135993167Y-91448738D01*
X136040786Y-91543976D01*
X136088405Y-91734452D01*
X136088405Y-91877310D01*
X136040786Y-92067786D01*
X135993167Y-92163024D01*
X135897929Y-92258262D01*
X135755071Y-92305881D01*
X135516976Y-92305881D01*
X137088405Y-92305881D02*
X136755071Y-91829690D01*
X136516976Y-92305881D02*
X136516976Y-91305881D01*
X136897929Y-91305881D01*
X136993167Y-91353500D01*
X137040786Y-91401119D01*
X137088405Y-91496357D01*
X137088405Y-91639214D01*
X137040786Y-91734452D01*
X136993167Y-91782071D01*
X136897929Y-91829690D01*
X136516976Y-91829690D01*
X137897929Y-92258262D02*
X137802691Y-92305881D01*
X137612214Y-92305881D01*
X137516976Y-92258262D01*
X137469357Y-92163024D01*
X137469357Y-91782071D01*
X137516976Y-91686833D01*
X137612214Y-91639214D01*
X137802691Y-91639214D01*
X137897929Y-91686833D01*
X137945548Y-91782071D01*
X137945548Y-91877310D01*
X137469357Y-91972548D01*
X138516976Y-92305881D02*
X138421738Y-92258262D01*
X138374119Y-92163024D01*
X138374119Y-91305881D01*
X139326501Y-92305881D02*
X139326501Y-91782071D01*
X139278882Y-91686833D01*
X139183644Y-91639214D01*
X138993167Y-91639214D01*
X138897929Y-91686833D01*
X139326501Y-92258262D02*
X139231263Y-92305881D01*
X138993167Y-92305881D01*
X138897929Y-92258262D01*
X138850310Y-92163024D01*
X138850310Y-92067786D01*
X138897929Y-91972548D01*
X138993167Y-91924929D01*
X139231263Y-91924929D01*
X139326501Y-91877310D01*
X139707453Y-91639214D02*
X139945548Y-92305881D01*
X140183644Y-91639214D02*
X139945548Y-92305881D01*
X139850310Y-92543976D01*
X139802691Y-92591595D01*
X139707453Y-92639214D01*
X91915500Y-97861381D02*
X91582166Y-97385190D01*
X91344071Y-97861381D02*
X91344071Y-96861381D01*
X91725024Y-96861381D01*
X91820262Y-96909000D01*
X91867881Y-96956619D01*
X91915500Y-97051857D01*
X91915500Y-97194714D01*
X91867881Y-97289952D01*
X91820262Y-97337571D01*
X91725024Y-97385190D01*
X91344071Y-97385190D01*
X92820262Y-97861381D02*
X92344071Y-97861381D01*
X92344071Y-96861381D01*
X93344071Y-97385190D02*
X93344071Y-97861381D01*
X93010738Y-96861381D02*
X93344071Y-97385190D01*
X93677405Y-96861381D01*
X93963119Y-96956619D02*
X94010738Y-96909000D01*
X94105976Y-96861381D01*
X94344072Y-96861381D01*
X94439310Y-96909000D01*
X94486929Y-96956619D01*
X94534548Y-97051857D01*
X94534548Y-97147095D01*
X94486929Y-97289952D01*
X93915500Y-97861381D01*
X94534548Y-97861381D01*
X83605976Y-91813762D02*
X83748833Y-91861381D01*
X83986929Y-91861381D01*
X84082167Y-91813762D01*
X84129786Y-91766143D01*
X84177405Y-91670905D01*
X84177405Y-91575667D01*
X84129786Y-91480429D01*
X84082167Y-91432810D01*
X83986929Y-91385190D01*
X83796452Y-91337571D01*
X83701214Y-91289952D01*
X83653595Y-91242333D01*
X83605976Y-91147095D01*
X83605976Y-91051857D01*
X83653595Y-90956619D01*
X83701214Y-90909000D01*
X83796452Y-90861381D01*
X84034548Y-90861381D01*
X84177405Y-90909000D01*
X85177405Y-91861381D02*
X84844071Y-91385190D01*
X84605976Y-91861381D02*
X84605976Y-90861381D01*
X84986929Y-90861381D01*
X85082167Y-90909000D01*
X85129786Y-90956619D01*
X85177405Y-91051857D01*
X85177405Y-91194714D01*
X85129786Y-91289952D01*
X85082167Y-91337571D01*
X84986929Y-91385190D01*
X84605976Y-91385190D01*
X85605976Y-91861381D02*
X85605976Y-90861381D01*
X85844071Y-90861381D01*
X85986929Y-90909000D01*
X86082167Y-91004238D01*
X86129786Y-91099476D01*
X86177405Y-91289952D01*
X86177405Y-91432810D01*
X86129786Y-91623286D01*
X86082167Y-91718524D01*
X85986929Y-91813762D01*
X85844071Y-91861381D01*
X85605976Y-91861381D01*
X87177405Y-91861381D02*
X86844071Y-91385190D01*
X86605976Y-91861381D02*
X86605976Y-90861381D01*
X86986929Y-90861381D01*
X87082167Y-90909000D01*
X87129786Y-90956619D01*
X87177405Y-91051857D01*
X87177405Y-91194714D01*
X87129786Y-91289952D01*
X87082167Y-91337571D01*
X86986929Y-91385190D01*
X86605976Y-91385190D01*
X87986929Y-91813762D02*
X87891691Y-91861381D01*
X87701214Y-91861381D01*
X87605976Y-91813762D01*
X87558357Y-91718524D01*
X87558357Y-91337571D01*
X87605976Y-91242333D01*
X87701214Y-91194714D01*
X87891691Y-91194714D01*
X87986929Y-91242333D01*
X88034548Y-91337571D01*
X88034548Y-91432810D01*
X87558357Y-91528048D01*
X88605976Y-91861381D02*
X88510738Y-91813762D01*
X88463119Y-91718524D01*
X88463119Y-90861381D01*
X89415501Y-91861381D02*
X89415501Y-91337571D01*
X89367882Y-91242333D01*
X89272644Y-91194714D01*
X89082167Y-91194714D01*
X88986929Y-91242333D01*
X89415501Y-91813762D02*
X89320263Y-91861381D01*
X89082167Y-91861381D01*
X88986929Y-91813762D01*
X88939310Y-91718524D01*
X88939310Y-91623286D01*
X88986929Y-91528048D01*
X89082167Y-91480429D01*
X89320263Y-91480429D01*
X89415501Y-91432810D01*
X89796453Y-91194714D02*
X90034548Y-91861381D01*
X90272644Y-91194714D02*
X90034548Y-91861381D01*
X89939310Y-92099476D01*
X89891691Y-92147095D01*
X89796453Y-92194714D01*
X67214000Y-97861381D02*
X66880666Y-97385190D01*
X66642571Y-97861381D02*
X66642571Y-96861381D01*
X67023524Y-96861381D01*
X67118762Y-96909000D01*
X67166381Y-96956619D01*
X67214000Y-97051857D01*
X67214000Y-97194714D01*
X67166381Y-97289952D01*
X67118762Y-97337571D01*
X67023524Y-97385190D01*
X66642571Y-97385190D01*
X68118762Y-97861381D02*
X67642571Y-97861381D01*
X67642571Y-96861381D01*
X68642571Y-97385190D02*
X68642571Y-97861381D01*
X68309238Y-96861381D02*
X68642571Y-97385190D01*
X68975905Y-96861381D01*
X69833048Y-97861381D02*
X69261619Y-97861381D01*
X69547333Y-97861381D02*
X69547333Y-96861381D01*
X69452095Y-97004238D01*
X69356857Y-97099476D01*
X69261619Y-97147095D01*
X58904476Y-91813762D02*
X59047333Y-91861381D01*
X59285429Y-91861381D01*
X59380667Y-91813762D01*
X59428286Y-91766143D01*
X59475905Y-91670905D01*
X59475905Y-91575667D01*
X59428286Y-91480429D01*
X59380667Y-91432810D01*
X59285429Y-91385190D01*
X59094952Y-91337571D01*
X58999714Y-91289952D01*
X58952095Y-91242333D01*
X58904476Y-91147095D01*
X58904476Y-91051857D01*
X58952095Y-90956619D01*
X58999714Y-90909000D01*
X59094952Y-90861381D01*
X59333048Y-90861381D01*
X59475905Y-90909000D01*
X60475905Y-91861381D02*
X60142571Y-91385190D01*
X59904476Y-91861381D02*
X59904476Y-90861381D01*
X60285429Y-90861381D01*
X60380667Y-90909000D01*
X60428286Y-90956619D01*
X60475905Y-91051857D01*
X60475905Y-91194714D01*
X60428286Y-91289952D01*
X60380667Y-91337571D01*
X60285429Y-91385190D01*
X59904476Y-91385190D01*
X60904476Y-91861381D02*
X60904476Y-90861381D01*
X61142571Y-90861381D01*
X61285429Y-90909000D01*
X61380667Y-91004238D01*
X61428286Y-91099476D01*
X61475905Y-91289952D01*
X61475905Y-91432810D01*
X61428286Y-91623286D01*
X61380667Y-91718524D01*
X61285429Y-91813762D01*
X61142571Y-91861381D01*
X60904476Y-91861381D01*
X62475905Y-91861381D02*
X62142571Y-91385190D01*
X61904476Y-91861381D02*
X61904476Y-90861381D01*
X62285429Y-90861381D01*
X62380667Y-90909000D01*
X62428286Y-90956619D01*
X62475905Y-91051857D01*
X62475905Y-91194714D01*
X62428286Y-91289952D01*
X62380667Y-91337571D01*
X62285429Y-91385190D01*
X61904476Y-91385190D01*
X63285429Y-91813762D02*
X63190191Y-91861381D01*
X62999714Y-91861381D01*
X62904476Y-91813762D01*
X62856857Y-91718524D01*
X62856857Y-91337571D01*
X62904476Y-91242333D01*
X62999714Y-91194714D01*
X63190191Y-91194714D01*
X63285429Y-91242333D01*
X63333048Y-91337571D01*
X63333048Y-91432810D01*
X62856857Y-91528048D01*
X63904476Y-91861381D02*
X63809238Y-91813762D01*
X63761619Y-91718524D01*
X63761619Y-90861381D01*
X64714001Y-91861381D02*
X64714001Y-91337571D01*
X64666382Y-91242333D01*
X64571144Y-91194714D01*
X64380667Y-91194714D01*
X64285429Y-91242333D01*
X64714001Y-91813762D02*
X64618763Y-91861381D01*
X64380667Y-91861381D01*
X64285429Y-91813762D01*
X64237810Y-91718524D01*
X64237810Y-91623286D01*
X64285429Y-91528048D01*
X64380667Y-91480429D01*
X64618763Y-91480429D01*
X64714001Y-91432810D01*
X65094953Y-91194714D02*
X65333048Y-91861381D01*
X65571144Y-91194714D02*
X65333048Y-91861381D01*
X65237810Y-92099476D01*
X65190191Y-92147095D01*
X65094953Y-92194714D01*
X74596667Y-77720381D02*
X74596667Y-78434667D01*
X74549047Y-78577524D01*
X74453809Y-78672762D01*
X74310952Y-78720381D01*
X74215714Y-78720381D01*
X74977619Y-77720381D02*
X75644286Y-77720381D01*
X75215714Y-78720381D01*
X75239524Y-83275143D02*
X75191905Y-83322762D01*
X75049048Y-83370381D01*
X74953810Y-83370381D01*
X74810952Y-83322762D01*
X74715714Y-83227524D01*
X74668095Y-83132286D01*
X74620476Y-82941810D01*
X74620476Y-82798952D01*
X74668095Y-82608476D01*
X74715714Y-82513238D01*
X74810952Y-82418000D01*
X74953810Y-82370381D01*
X75049048Y-82370381D01*
X75191905Y-82418000D01*
X75239524Y-82465619D01*
X75239524Y-74070381D02*
X74763333Y-74070381D01*
X74763333Y-73070381D01*
X98980667Y-76958381D02*
X98980667Y-77672667D01*
X98933047Y-77815524D01*
X98837809Y-77910762D01*
X98694952Y-77958381D01*
X98599714Y-77958381D01*
X99885429Y-76958381D02*
X99694952Y-76958381D01*
X99599714Y-77006000D01*
X99552095Y-77053619D01*
X99456857Y-77196476D01*
X99409238Y-77386952D01*
X99409238Y-77767905D01*
X99456857Y-77863143D01*
X99504476Y-77910762D01*
X99599714Y-77958381D01*
X99790191Y-77958381D01*
X99885429Y-77910762D01*
X99933048Y-77863143D01*
X99980667Y-77767905D01*
X99980667Y-77529810D01*
X99933048Y-77434571D01*
X99885429Y-77386952D01*
X99790191Y-77339333D01*
X99599714Y-77339333D01*
X99504476Y-77386952D01*
X99456857Y-77434571D01*
X99409238Y-77529810D01*
X99623524Y-82513143D02*
X99575905Y-82560762D01*
X99433048Y-82608381D01*
X99337810Y-82608381D01*
X99194952Y-82560762D01*
X99099714Y-82465524D01*
X99052095Y-82370286D01*
X99004476Y-82179810D01*
X99004476Y-82036952D01*
X99052095Y-81846476D01*
X99099714Y-81751238D01*
X99194952Y-81656000D01*
X99337810Y-81608381D01*
X99433048Y-81608381D01*
X99575905Y-81656000D01*
X99623524Y-81703619D01*
X99623524Y-73308381D02*
X99147333Y-73308381D01*
X99147333Y-72308381D01*
X123364667Y-76958381D02*
X123364667Y-77672667D01*
X123317047Y-77815524D01*
X123221809Y-77910762D01*
X123078952Y-77958381D01*
X122983714Y-77958381D01*
X124317048Y-76958381D02*
X123840857Y-76958381D01*
X123793238Y-77434571D01*
X123840857Y-77386952D01*
X123936095Y-77339333D01*
X124174191Y-77339333D01*
X124269429Y-77386952D01*
X124317048Y-77434571D01*
X124364667Y-77529810D01*
X124364667Y-77767905D01*
X124317048Y-77863143D01*
X124269429Y-77910762D01*
X124174191Y-77958381D01*
X123936095Y-77958381D01*
X123840857Y-77910762D01*
X123793238Y-77863143D01*
X124007524Y-82513143D02*
X123959905Y-82560762D01*
X123817048Y-82608381D01*
X123721810Y-82608381D01*
X123578952Y-82560762D01*
X123483714Y-82465524D01*
X123436095Y-82370286D01*
X123388476Y-82179810D01*
X123388476Y-82036952D01*
X123436095Y-81846476D01*
X123483714Y-81751238D01*
X123578952Y-81656000D01*
X123721810Y-81608381D01*
X123817048Y-81608381D01*
X123959905Y-81656000D01*
X124007524Y-81703619D01*
X124007524Y-73308381D02*
X123531333Y-73308381D01*
X123531333Y-72308381D01*
X124380667Y-97714381D02*
X124380667Y-98428667D01*
X124333047Y-98571524D01*
X124237809Y-98666762D01*
X124094952Y-98714381D01*
X123999714Y-98714381D01*
X124761619Y-97714381D02*
X125380667Y-97714381D01*
X125047333Y-98095333D01*
X125190191Y-98095333D01*
X125285429Y-98142952D01*
X125333048Y-98190571D01*
X125380667Y-98285810D01*
X125380667Y-98523905D01*
X125333048Y-98619143D01*
X125285429Y-98666762D01*
X125190191Y-98714381D01*
X124904476Y-98714381D01*
X124809238Y-98666762D01*
X124761619Y-98619143D01*
X125023524Y-93969143D02*
X124975905Y-94016762D01*
X124833048Y-94064381D01*
X124737810Y-94064381D01*
X124594952Y-94016762D01*
X124499714Y-93921524D01*
X124452095Y-93826286D01*
X124404476Y-93635810D01*
X124404476Y-93492952D01*
X124452095Y-93302476D01*
X124499714Y-93207238D01*
X124594952Y-93112000D01*
X124737810Y-93064381D01*
X124833048Y-93064381D01*
X124975905Y-93112000D01*
X125023524Y-93159619D01*
X125023524Y-103364381D02*
X124547333Y-103364381D01*
X124547333Y-102364381D01*
X99234667Y-97714381D02*
X99234667Y-98428667D01*
X99187047Y-98571524D01*
X99091809Y-98666762D01*
X98948952Y-98714381D01*
X98853714Y-98714381D01*
X99663238Y-97809619D02*
X99710857Y-97762000D01*
X99806095Y-97714381D01*
X100044191Y-97714381D01*
X100139429Y-97762000D01*
X100187048Y-97809619D01*
X100234667Y-97904857D01*
X100234667Y-98000095D01*
X100187048Y-98142952D01*
X99615619Y-98714381D01*
X100234667Y-98714381D01*
X99877524Y-93969143D02*
X99829905Y-94016762D01*
X99687048Y-94064381D01*
X99591810Y-94064381D01*
X99448952Y-94016762D01*
X99353714Y-93921524D01*
X99306095Y-93826286D01*
X99258476Y-93635810D01*
X99258476Y-93492952D01*
X99306095Y-93302476D01*
X99353714Y-93207238D01*
X99448952Y-93112000D01*
X99591810Y-93064381D01*
X99687048Y-93064381D01*
X99829905Y-93112000D01*
X99877524Y-93159619D01*
X99877524Y-103364381D02*
X99401333Y-103364381D01*
X99401333Y-102364381D01*
X74342667Y-97460381D02*
X74342667Y-98174667D01*
X74295047Y-98317524D01*
X74199809Y-98412762D01*
X74056952Y-98460381D01*
X73961714Y-98460381D01*
X75342667Y-98460381D02*
X74771238Y-98460381D01*
X75056952Y-98460381D02*
X75056952Y-97460381D01*
X74961714Y-97603238D01*
X74866476Y-97698476D01*
X74771238Y-97746095D01*
X74985524Y-93715143D02*
X74937905Y-93762762D01*
X74795048Y-93810381D01*
X74699810Y-93810381D01*
X74556952Y-93762762D01*
X74461714Y-93667524D01*
X74414095Y-93572286D01*
X74366476Y-93381810D01*
X74366476Y-93238952D01*
X74414095Y-93048476D01*
X74461714Y-92953238D01*
X74556952Y-92858000D01*
X74699810Y-92810381D01*
X74795048Y-92810381D01*
X74937905Y-92858000D01*
X74985524Y-92905619D01*
X74985524Y-103110381D02*
X74509333Y-103110381D01*
X74509333Y-102110381D01*
X137487381Y-88871333D02*
X138201667Y-88871333D01*
X138344524Y-88918953D01*
X138439762Y-89014191D01*
X138487381Y-89157048D01*
X138487381Y-89252286D01*
X137820714Y-87966571D02*
X138487381Y-87966571D01*
X137439762Y-88204667D02*
X138154048Y-88442762D01*
X138154048Y-87823714D01*
X142892143Y-87828476D02*
X142939762Y-87876095D01*
X142987381Y-88018952D01*
X142987381Y-88114190D01*
X142939762Y-88257048D01*
X142844524Y-88352286D01*
X142749286Y-88399905D01*
X142558810Y-88447524D01*
X142415952Y-88447524D01*
X142225476Y-88399905D01*
X142130238Y-88352286D01*
X142035000Y-88257048D01*
X141987381Y-88114190D01*
X141987381Y-88018952D01*
X142035000Y-87876095D01*
X142082619Y-87828476D01*
X147587381Y-87728476D02*
X147587381Y-88204667D01*
X146587381Y-88204667D01*
M02*
