G04 #@! TF.FileFunction,Copper,L2,Bot,Signal*
%FSLAX46Y46*%
G04 Gerber Fmt 4.6, Leading zero omitted, Abs format (unit mm)*
G04 Created by KiCad (PCBNEW 4.0.7) date 03/03/19 19:29:16*
%MOMM*%
%LPD*%
G01*
G04 APERTURE LIST*
%ADD10C,0.100000*%
%ADD11C,1.500000*%
%ADD12R,3.000000X3.000000*%
%ADD13C,3.000000*%
%ADD14C,2.000000*%
%ADD15C,5.000000*%
%ADD16C,1.600000*%
%ADD17O,1.600000X1.600000*%
%ADD18R,1.600000X1.600000*%
%ADD19R,1.700000X1.700000*%
%ADD20O,1.700000X1.700000*%
%ADD21C,2.400000*%
%ADD22O,2.400000X2.400000*%
%ADD23C,3.500000*%
%ADD24C,2.000000*%
%ADD25C,0.500000*%
%ADD26C,1.000000*%
G04 APERTURE END LIST*
D10*
D11*
X113500000Y-53130000D03*
X110960000Y-53130000D03*
D12*
X115786000Y-50402000D03*
D13*
X110706000Y-50402000D03*
D14*
X104648000Y-70002400D03*
X104394000Y-63906400D03*
X104394000Y-57810400D03*
D15*
X43000000Y-43000000D03*
X137000000Y-43000000D03*
X43000000Y-137000000D03*
X137000000Y-137000000D03*
D16*
X66548000Y-131064000D03*
X66548000Y-136064000D03*
X80772000Y-130302000D03*
X80772000Y-135302000D03*
X59944000Y-130937000D03*
D17*
X59944000Y-138557000D03*
D16*
X63373000Y-138557000D03*
D17*
X63373000Y-130937000D03*
D18*
X54356000Y-138684000D03*
D17*
X54356000Y-131064000D03*
D14*
X102666800Y-121666000D03*
X102412800Y-115570000D03*
X102412800Y-109474000D03*
X129667000Y-74422000D03*
X129413000Y-68326000D03*
X129413000Y-62230000D03*
X131953000Y-107696000D03*
X132207000Y-113792000D03*
X132207000Y-119888000D03*
X83693000Y-94869000D03*
X83439000Y-88773000D03*
X83439000Y-82677000D03*
X63017400Y-94945200D03*
X62763400Y-88849200D03*
X62763400Y-82753200D03*
D16*
X85344000Y-47244000D03*
X85344000Y-42244000D03*
X77089000Y-50165000D03*
X82089000Y-50165000D03*
D19*
X84978240Y-50063400D03*
D20*
X84978240Y-52603400D03*
D19*
X77978000Y-43180000D03*
D20*
X80518000Y-43180000D03*
D16*
X89154000Y-41656000D03*
D17*
X89154000Y-49276000D03*
D16*
X70993000Y-50546000D03*
D17*
X70993000Y-42926000D03*
D16*
X74168000Y-42926000D03*
D17*
X74168000Y-50546000D03*
D16*
X92202000Y-49276000D03*
D17*
X92202000Y-41656000D03*
D18*
X94996000Y-44704000D03*
D17*
X102616000Y-44704000D03*
D18*
X68199000Y-46355000D03*
D17*
X60579000Y-46355000D03*
D18*
X94996000Y-41910000D03*
D17*
X102616000Y-41910000D03*
D18*
X68199000Y-43561000D03*
D17*
X60579000Y-43561000D03*
D18*
X91440000Y-133985000D03*
D17*
X99060000Y-133985000D03*
D18*
X56896000Y-138684000D03*
D17*
X56896000Y-131064000D03*
D18*
X91567000Y-136779000D03*
D17*
X99187000Y-136779000D03*
D19*
X51054000Y-132207000D03*
D20*
X51054000Y-134747000D03*
D19*
X69977000Y-134239000D03*
D20*
X69977000Y-131699000D03*
D19*
X77470000Y-133858000D03*
D20*
X77470000Y-131318000D03*
D16*
X86868000Y-130302000D03*
D17*
X86868000Y-137922000D03*
D16*
X83820000Y-137668000D03*
D17*
X83820000Y-130048000D03*
D19*
X63855600Y-49580800D03*
D20*
X61315600Y-49580800D03*
D21*
X94043500Y-109639100D03*
D22*
X94043500Y-122339100D03*
D21*
X90195400Y-109689900D03*
D22*
X90195400Y-122389900D03*
D21*
X86283800Y-109689900D03*
D22*
X86283800Y-122389900D03*
D21*
X82423000Y-109689900D03*
D22*
X82423000Y-122389900D03*
D21*
X57556400Y-109804200D03*
D22*
X57556400Y-122504200D03*
D21*
X78232000Y-109753400D03*
D22*
X78232000Y-122453400D03*
D21*
X74434700Y-109855000D03*
D22*
X74434700Y-122555000D03*
D21*
X70243700Y-109918500D03*
D22*
X70243700Y-122618500D03*
D21*
X61747400Y-109855000D03*
D22*
X61747400Y-122555000D03*
D21*
X65938400Y-109918500D03*
D22*
X65938400Y-122618500D03*
D21*
X95834200Y-82199480D03*
D22*
X95834200Y-94899480D03*
D21*
X99913440Y-82255360D03*
D22*
X99913440Y-94955360D03*
D21*
X103992680Y-82199480D03*
D22*
X103992680Y-94899480D03*
D21*
X108127800Y-82143600D03*
D22*
X108127800Y-94843600D03*
D21*
X112280700Y-82054700D03*
D22*
X112280700Y-94754700D03*
D21*
X116547900Y-82054700D03*
D22*
X116547900Y-94754700D03*
D21*
X120459500Y-82143600D03*
D22*
X120459500Y-94843600D03*
D21*
X124460000Y-82054700D03*
D22*
X124460000Y-94754700D03*
D21*
X128460500Y-82054700D03*
D22*
X128460500Y-94754700D03*
D21*
X132461000Y-82054700D03*
D22*
X132461000Y-94754700D03*
D21*
X95923100Y-57785000D03*
D22*
X95923100Y-70485000D03*
D21*
X91554300Y-57759600D03*
D22*
X91554300Y-70459600D03*
D21*
X87553800Y-57835800D03*
D22*
X87553800Y-70535800D03*
D21*
X83400900Y-57873900D03*
D22*
X83400900Y-70573900D03*
D21*
X79298800Y-57785000D03*
D22*
X79298800Y-70485000D03*
D21*
X75120500Y-57785000D03*
D22*
X75120500Y-70485000D03*
D21*
X71208900Y-57785000D03*
D22*
X71208900Y-70485000D03*
D21*
X67208400Y-57785000D03*
D22*
X67208400Y-70485000D03*
D21*
X63119000Y-57785000D03*
D22*
X63119000Y-70485000D03*
D21*
X59029600Y-57873900D03*
D22*
X59029600Y-70573900D03*
D19*
X133664960Y-57835800D03*
D20*
X133664960Y-55295800D03*
D19*
X96520000Y-49022000D03*
D20*
X99060000Y-49022000D03*
D19*
X97028000Y-128270000D03*
D20*
X97028000Y-130810000D03*
D19*
X137922000Y-118618000D03*
D20*
X137922000Y-116078000D03*
D16*
X125984000Y-102235000D03*
X120984000Y-102235000D03*
X137160000Y-81407000D03*
X137160000Y-76407000D03*
X56134000Y-82550000D03*
X56134000Y-77550000D03*
X74422000Y-91440000D03*
X74422000Y-96440000D03*
X118618000Y-113030000D03*
X118618000Y-108030000D03*
X119634000Y-64770000D03*
X119634000Y-69770000D03*
X135890000Y-86360000D03*
X135890000Y-91360000D03*
X56388000Y-125476000D03*
X61388000Y-125476000D03*
X61214000Y-54102000D03*
X56214000Y-54102000D03*
D14*
X98069400Y-73660000D03*
X103069400Y-73660000D03*
D23*
X93472000Y-52324000D03*
X85344000Y-76200000D03*
X86106000Y-103886000D03*
X79248000Y-103886000D03*
D14*
X96012000Y-124714000D03*
X101012000Y-124714000D03*
X98069400Y-54711600D03*
X103069400Y-54711600D03*
X95504000Y-107188000D03*
X100504000Y-107188000D03*
D23*
X91694000Y-128016000D03*
X74930000Y-54102000D03*
X91948000Y-76200000D03*
X74676000Y-126746000D03*
D11*
X53172400Y-89052400D03*
X53172400Y-91592400D03*
D12*
X50444400Y-86766400D03*
D13*
X50444400Y-91846400D03*
D11*
X53502600Y-58953400D03*
X53502600Y-61493400D03*
D12*
X50774600Y-56667400D03*
D13*
X50774600Y-61747400D03*
D11*
X53870900Y-120015000D03*
X53870900Y-122555000D03*
D12*
X51142900Y-117729000D03*
D13*
X51142900Y-122809000D03*
D11*
X110000000Y-127620000D03*
X112540000Y-127620000D03*
D12*
X107714000Y-130348000D03*
D13*
X112794000Y-130348000D03*
D24*
X62928500Y-95034100D02*
X63017400Y-94945200D01*
X132029200Y-107619800D02*
X131953000Y-107696000D01*
D25*
X89154000Y-49276000D02*
X85486240Y-50571400D01*
X85486240Y-50571400D02*
X84978240Y-50063400D01*
X92202000Y-49276000D02*
X89154000Y-49276000D01*
X89154000Y-49276000D02*
X85598000Y-46990000D01*
X85598000Y-46990000D02*
X85344000Y-47244000D01*
X77089000Y-50165000D02*
X77089000Y-44069000D01*
X77089000Y-44069000D02*
X77978000Y-43180000D01*
X74041000Y-50673000D02*
X74168000Y-50546000D01*
X74168000Y-50546000D02*
X76708000Y-50546000D01*
X76708000Y-50546000D02*
X77089000Y-50165000D01*
X70993000Y-50546000D02*
X74168000Y-50546000D01*
X66548000Y-131064000D02*
X66548000Y-132207000D01*
X68580000Y-134239000D02*
X69977000Y-134239000D01*
X66548000Y-132207000D02*
X68580000Y-134239000D01*
X63373000Y-130937000D02*
X66421000Y-130937000D01*
X66421000Y-130937000D02*
X66548000Y-131064000D01*
X59944000Y-130937000D02*
X63373000Y-130937000D01*
X77470000Y-133858000D02*
X77597000Y-133858000D01*
X77597000Y-133858000D02*
X80772000Y-130302000D01*
X83820000Y-130048000D02*
X80899000Y-130175000D01*
X80899000Y-130175000D02*
X80772000Y-130302000D01*
X86868000Y-130302000D02*
X83820000Y-130048000D01*
X133664960Y-55295800D02*
X133664960Y-51521360D01*
X106080560Y-42255440D02*
X102616000Y-44704000D01*
X130418840Y-42255440D02*
X106080560Y-42255440D01*
X130952240Y-42788840D02*
X130418840Y-42255440D01*
X130952240Y-48808640D02*
X130952240Y-42788840D01*
X133664960Y-51521360D02*
X130952240Y-48808640D01*
X96520000Y-49022000D02*
X95951040Y-48864520D01*
X95951040Y-48864520D02*
X99095560Y-45720000D01*
X99095560Y-45720000D02*
X102616000Y-44704000D01*
X133664960Y-55295800D02*
X133664960Y-54721760D01*
X54356000Y-131064000D02*
X54356000Y-133096000D01*
X52705000Y-134747000D02*
X51054000Y-134747000D01*
X54356000Y-133096000D02*
X52705000Y-134747000D01*
X60579000Y-46355000D02*
X62509400Y-46355000D01*
X63855600Y-47701200D02*
X63855600Y-49580800D01*
X62509400Y-46355000D02*
X63855600Y-47701200D01*
X97028000Y-130810000D02*
X97028000Y-131953000D01*
X97028000Y-131953000D02*
X99060000Y-133985000D01*
X137922000Y-118618000D02*
X137922000Y-120904000D01*
X103759000Y-138684000D02*
X99060000Y-133985000D01*
X125476000Y-138684000D02*
X103759000Y-138684000D01*
X131572000Y-132588000D02*
X125476000Y-138684000D01*
X131572000Y-127254000D02*
X131572000Y-132588000D01*
X137922000Y-120904000D02*
X131572000Y-127254000D01*
X68199000Y-43561000D02*
X70358000Y-43561000D01*
X70358000Y-43561000D02*
X70993000Y-42926000D01*
X92202000Y-41656000D02*
X94996000Y-41910000D01*
X94996000Y-44704000D02*
X97028000Y-45720000D01*
X99822000Y-42926000D02*
X102616000Y-41910000D01*
X97028000Y-45720000D02*
X99822000Y-42926000D01*
X60579000Y-43561000D02*
X62865000Y-43561000D01*
X65659000Y-46355000D02*
X68199000Y-46355000D01*
X62865000Y-43561000D02*
X65659000Y-46355000D01*
X54356000Y-138684000D02*
X54356000Y-137160000D01*
X56896000Y-134620000D02*
X56896000Y-131064000D01*
X54356000Y-137160000D02*
X56896000Y-134620000D01*
X91440000Y-133985000D02*
X93599000Y-133985000D01*
X96393000Y-136779000D02*
X99187000Y-136779000D01*
X93599000Y-133985000D02*
X96393000Y-136779000D01*
X59944000Y-138557000D02*
X57023000Y-138557000D01*
X57023000Y-138557000D02*
X56896000Y-138684000D01*
X91567000Y-136779000D02*
X89281000Y-136779000D01*
X89281000Y-136779000D02*
X86868000Y-137922000D01*
X125984000Y-102235000D02*
X128460500Y-102235000D01*
X128460500Y-102235000D02*
X128016000Y-102235000D01*
X128016000Y-102235000D02*
X128460500Y-102235000D01*
X135890000Y-91360000D02*
X135855700Y-91360000D01*
X135855700Y-91360000D02*
X132461000Y-94754700D01*
X132207000Y-113792000D02*
X135636000Y-113792000D01*
X135636000Y-113792000D02*
X137922000Y-116078000D01*
D24*
X83693000Y-94869000D02*
X95803720Y-94869000D01*
X95803720Y-94869000D02*
X95890080Y-94955360D01*
X95890080Y-94955360D02*
X95834200Y-94899480D01*
X99913440Y-94955360D02*
X95890080Y-94955360D01*
X95890080Y-94955360D02*
X95834200Y-94899480D01*
X103992680Y-94899480D02*
X99969320Y-94899480D01*
X99969320Y-94899480D02*
X99913440Y-94955360D01*
X108127800Y-94843600D02*
X104048560Y-94843600D01*
X104048560Y-94843600D02*
X103992680Y-94899480D01*
X112280700Y-94754700D02*
X108216700Y-94754700D01*
X108216700Y-94754700D02*
X108127800Y-94843600D01*
X116547900Y-94754700D02*
X112280700Y-94754700D01*
X120459500Y-94843600D02*
X116636800Y-94843600D01*
X116636800Y-94843600D02*
X116547900Y-94754700D01*
X120459500Y-94843600D02*
X124371100Y-94843600D01*
X124371100Y-94843600D02*
X124460000Y-94754700D01*
X128460500Y-94754700D02*
X124460000Y-94754700D01*
X132461000Y-94754700D02*
X128460500Y-94754700D01*
X128460500Y-94754700D02*
X128460500Y-102235000D01*
X128460500Y-102235000D02*
X128460500Y-103187500D01*
X128460500Y-103187500D02*
X128460500Y-110045500D01*
X128460500Y-110045500D02*
X132207000Y-113792000D01*
X83693000Y-94869000D02*
X84099400Y-94869000D01*
D25*
X129413000Y-68326000D02*
X130215640Y-68326000D01*
X130215640Y-68326000D02*
X133664960Y-64876680D01*
X133664960Y-64876680D02*
X133664960Y-57835800D01*
X137160000Y-81407000D02*
X133108700Y-81407000D01*
X133108700Y-81407000D02*
X132461000Y-82054700D01*
X132461000Y-82054700D02*
X132461000Y-82931000D01*
X132461000Y-82931000D02*
X135890000Y-86360000D01*
X129413000Y-68326000D02*
X129910840Y-68326000D01*
D24*
X132461000Y-82054700D02*
X132461000Y-79375000D01*
X132461000Y-79375000D02*
X132461000Y-70215760D01*
X130571240Y-68326000D02*
X129413000Y-68326000D01*
X132461000Y-70215760D02*
X130571240Y-68326000D01*
X132461000Y-82054700D02*
X127383540Y-82054700D01*
X127383540Y-82054700D02*
X128460500Y-82054700D01*
X128460500Y-82054700D02*
X124460000Y-82054700D01*
X124460000Y-82054700D02*
X120548400Y-82054700D01*
X120548400Y-82054700D02*
X120459500Y-82143600D01*
X120459500Y-82143600D02*
X116636800Y-82143600D01*
X116636800Y-82143600D02*
X116547900Y-82054700D01*
X116547900Y-82054700D02*
X112280700Y-82054700D01*
X112280700Y-82054700D02*
X108216700Y-82054700D01*
X108216700Y-82054700D02*
X108127800Y-82143600D01*
X108127800Y-82143600D02*
X104048560Y-82143600D01*
X104048560Y-82143600D02*
X103992680Y-82199480D01*
X99913440Y-82255360D02*
X103936800Y-82255360D01*
X103936800Y-82255360D02*
X103992680Y-82199480D01*
X95834200Y-82199480D02*
X99857560Y-82199480D01*
X99857560Y-82199480D02*
X99913440Y-82255360D01*
X83439000Y-82677000D02*
X95356680Y-82677000D01*
X95356680Y-82677000D02*
X95834200Y-82199480D01*
D25*
X129413000Y-68326000D02*
X129692400Y-68326000D01*
X129413000Y-68326000D02*
X130302000Y-68326000D01*
X56134000Y-82550000D02*
X56134000Y-88849200D01*
X56000000Y-88000000D02*
X56000000Y-88849200D01*
X56000000Y-88715200D02*
X56000000Y-88000000D01*
X56134000Y-88849200D02*
X56000000Y-88715200D01*
D24*
X53172400Y-89052400D02*
X52730400Y-89052400D01*
X52730400Y-89052400D02*
X50444400Y-86766400D01*
D25*
X56134000Y-82550000D02*
X56134000Y-83058000D01*
D24*
X62763400Y-88849200D02*
X56000000Y-88849200D01*
X56000000Y-88849200D02*
X53375600Y-88849200D01*
X53375600Y-88849200D02*
X53172400Y-89052400D01*
X62509400Y-89103200D02*
X62763400Y-88849200D01*
D25*
X74422000Y-91440000D02*
X74422000Y-89687400D01*
X74422000Y-89687400D02*
X73533000Y-88798400D01*
D24*
X62763400Y-82753200D02*
X67487800Y-82753200D01*
X67487800Y-82753200D02*
X73533000Y-88798400D01*
X73533000Y-88798400D02*
X83439000Y-88773000D01*
D25*
X119634000Y-64770000D02*
X119634000Y-62230000D01*
X119380000Y-62484000D02*
X119380000Y-62230000D01*
X119634000Y-62230000D02*
X119380000Y-62484000D01*
D24*
X104394000Y-63906400D02*
X107010200Y-63906400D01*
X108686600Y-62230000D02*
X112014000Y-62230000D01*
X112014000Y-62230000D02*
X119380000Y-62230000D01*
X119380000Y-62230000D02*
X129413000Y-62230000D01*
X107010200Y-63906400D02*
X108686600Y-62230000D01*
X104394000Y-63906400D02*
X104749600Y-63906400D01*
X51142900Y-117729000D02*
X53870900Y-117729000D01*
X54000000Y-118000000D02*
X53870900Y-118000000D01*
X54000000Y-117858100D02*
X54000000Y-118000000D01*
X53870900Y-117729000D02*
X54000000Y-117858100D01*
D26*
X86106000Y-103886000D02*
X86106000Y-109512100D01*
X86106000Y-109512100D02*
X86283800Y-109689900D01*
D25*
X51054000Y-132207000D02*
X51054000Y-130810000D01*
X51054000Y-130810000D02*
X56388000Y-125476000D01*
D24*
X95504000Y-107188000D02*
X95504000Y-108178600D01*
X95504000Y-108178600D02*
X94043500Y-109639100D01*
D25*
X53870900Y-120015000D02*
X54229000Y-120015000D01*
X54229000Y-120015000D02*
X55372000Y-121158000D01*
X55372000Y-124460000D02*
X56388000Y-125476000D01*
X55372000Y-121158000D02*
X55372000Y-124460000D01*
D24*
X53870900Y-120015000D02*
X53870900Y-118000000D01*
X53870900Y-118000000D02*
X53870900Y-113489700D01*
X53870900Y-113489700D02*
X57556400Y-109804200D01*
X57556400Y-109804200D02*
X61696600Y-109804200D01*
X61696600Y-109804200D02*
X61747400Y-109855000D01*
X57556400Y-109748320D02*
X57556400Y-109804200D01*
X65938400Y-109918500D02*
X61810900Y-109918500D01*
X61810900Y-109918500D02*
X61747400Y-109855000D01*
X70243700Y-109918500D02*
X65938400Y-109918500D01*
X74434700Y-109855000D02*
X70307200Y-109855000D01*
X70307200Y-109855000D02*
X70243700Y-109918500D01*
X78232000Y-109753400D02*
X74536300Y-109753400D01*
X74536300Y-109753400D02*
X74434700Y-109855000D01*
X82423000Y-109689900D02*
X78295500Y-109689900D01*
X78295500Y-109689900D02*
X78232000Y-109753400D01*
X86283800Y-109689900D02*
X82423000Y-109689900D01*
X90195400Y-109689900D02*
X86283800Y-109689900D01*
X94043500Y-109639100D02*
X90246200Y-109639100D01*
X90246200Y-109639100D02*
X90195400Y-109689900D01*
X94208600Y-109474000D02*
X94043500Y-109639100D01*
X102870000Y-128270000D02*
X105636000Y-128270000D01*
X97028000Y-128270000D02*
X102870000Y-128270000D01*
X105636000Y-128270000D02*
X107714000Y-130348000D01*
X110000000Y-127620000D02*
X110000000Y-128062000D01*
X110000000Y-128062000D02*
X107714000Y-130348000D01*
D26*
X91694000Y-128016000D02*
X91694000Y-124688600D01*
X91694000Y-124688600D02*
X94043500Y-122339100D01*
X90678000Y-122872500D02*
X90195400Y-122389900D01*
D24*
X96012000Y-124714000D02*
X96012000Y-127254000D01*
X96012000Y-127254000D02*
X97028000Y-128270000D01*
X96012000Y-124714000D02*
X96012000Y-124307600D01*
X96012000Y-124307600D02*
X94043500Y-122339100D01*
D25*
X61747400Y-122555000D02*
X61747400Y-125116600D01*
X61747400Y-125116600D02*
X61388000Y-125476000D01*
D24*
X61747400Y-122555000D02*
X57607200Y-122555000D01*
X57607200Y-122555000D02*
X57556400Y-122504200D01*
X61747400Y-122555000D02*
X65874900Y-122555000D01*
X65874900Y-122555000D02*
X65938400Y-122618500D01*
X70243700Y-122618500D02*
X65938400Y-122618500D01*
X74434700Y-122555000D02*
X70307200Y-122555000D01*
X70307200Y-122555000D02*
X70243700Y-122618500D01*
X78232000Y-122453400D02*
X74536300Y-122453400D01*
X74536300Y-122453400D02*
X74434700Y-122555000D01*
X78232000Y-122453400D02*
X82359500Y-122453400D01*
X82359500Y-122453400D02*
X82423000Y-122389900D01*
X86283800Y-122389900D02*
X82423000Y-122389900D01*
X90195400Y-122389900D02*
X86283800Y-122389900D01*
X94043500Y-122339100D02*
X90246200Y-122339100D01*
X90246200Y-122339100D02*
X90195400Y-122389900D01*
X113500000Y-53130000D02*
X113500000Y-53750000D01*
X113500000Y-53750000D02*
X112000000Y-55250000D01*
X105292060Y-52042060D02*
X100738940Y-52042060D01*
X108500000Y-55250000D02*
X105292060Y-52042060D01*
X112000000Y-55250000D02*
X108500000Y-55250000D01*
X113500000Y-53130000D02*
X113500000Y-52688000D01*
X113500000Y-52688000D02*
X115786000Y-50402000D01*
D25*
X100738940Y-52042060D02*
X100728780Y-52042060D01*
D24*
X100738940Y-52042060D02*
X99720400Y-53060600D01*
D25*
X100728780Y-52042060D02*
X99060000Y-49022000D01*
D26*
X93472000Y-52324000D02*
X93472000Y-53784500D01*
X93472000Y-53784500D02*
X95923100Y-57785000D01*
D24*
X99720400Y-53060600D02*
X98069400Y-54711600D01*
X95923100Y-57785000D02*
X95923100Y-56857900D01*
X95923100Y-56857900D02*
X98069400Y-54711600D01*
X95923100Y-57785000D02*
X95923100Y-57492900D01*
D25*
X61214000Y-54102000D02*
X61214000Y-55880000D01*
X61214000Y-55880000D02*
X63119000Y-57785000D01*
D24*
X59029600Y-57873900D02*
X63030100Y-57873900D01*
X63030100Y-57873900D02*
X63119000Y-57785000D01*
X67208400Y-57785000D02*
X63119000Y-57785000D01*
X71208900Y-57785000D02*
X67208400Y-57785000D01*
X75120500Y-57785000D02*
X71208900Y-57785000D01*
X79298800Y-57785000D02*
X75120500Y-57785000D01*
X83400900Y-57873900D02*
X79387700Y-57873900D01*
X79387700Y-57873900D02*
X79298800Y-57785000D01*
X87553800Y-57835800D02*
X83439000Y-57835800D01*
X83439000Y-57835800D02*
X83400900Y-57873900D01*
X91554300Y-57759600D02*
X87630000Y-57759600D01*
X87630000Y-57759600D02*
X87553800Y-57835800D01*
X95923100Y-57785000D02*
X91579700Y-57785000D01*
X91579700Y-57785000D02*
X91554300Y-57759600D01*
X95948500Y-57810400D02*
X95923100Y-57785000D01*
D25*
X56214000Y-54102000D02*
X56794400Y-54102000D01*
X56794400Y-54102000D02*
X61315600Y-49580800D01*
X53502600Y-58953400D02*
X53502600Y-56813400D01*
X53502600Y-56813400D02*
X56214000Y-54102000D01*
D24*
X53502600Y-58953400D02*
X53060600Y-58953400D01*
X53060600Y-58953400D02*
X50774600Y-56667400D01*
D25*
X91948000Y-76200000D02*
X92011500Y-70916800D01*
X92011500Y-70916800D02*
X91554300Y-70459600D01*
D24*
X95923100Y-70485000D02*
X95923100Y-71513700D01*
X95923100Y-71513700D02*
X98069400Y-73660000D01*
X59029600Y-70573900D02*
X59029600Y-62496700D01*
X58318400Y-61785500D02*
X53502600Y-58953400D01*
X59029600Y-62496700D02*
X58318400Y-61785500D01*
X63119000Y-70485000D02*
X59118500Y-70485000D01*
X59118500Y-70485000D02*
X59029600Y-70573900D01*
X67208400Y-70485000D02*
X63119000Y-70485000D01*
X71208900Y-70485000D02*
X67208400Y-70485000D01*
X75120500Y-70485000D02*
X71208900Y-70485000D01*
X79298800Y-70485000D02*
X75120500Y-70485000D01*
X83400900Y-70573900D02*
X79387700Y-70573900D01*
X79387700Y-70573900D02*
X79298800Y-70485000D01*
X87553800Y-70535800D02*
X83439000Y-70535800D01*
X83439000Y-70535800D02*
X83400900Y-70573900D01*
X91554300Y-70459600D02*
X87630000Y-70459600D01*
X87630000Y-70459600D02*
X87553800Y-70535800D01*
X95923100Y-70485000D02*
X91579700Y-70485000D01*
X91579700Y-70485000D02*
X91554300Y-70459600D01*
D25*
X61264800Y-49631600D02*
X61315600Y-49580800D01*
X118618000Y-113030000D02*
X118618000Y-113792000D01*
X118618000Y-113792000D02*
X117348000Y-115062000D01*
D24*
X102412800Y-115570000D02*
X103886000Y-115570000D01*
X125867160Y-119888000D02*
X132207000Y-119888000D01*
X121381520Y-115062000D02*
X125867160Y-119888000D01*
X121158000Y-115062000D02*
X121381520Y-115062000D01*
X106172000Y-115062000D02*
X117348000Y-115062000D01*
X117348000Y-115062000D02*
X121158000Y-115062000D01*
X103886000Y-115570000D02*
X106172000Y-115062000D01*
X131927600Y-120167400D02*
X132207000Y-119888000D01*
X104648000Y-70002400D02*
X104648000Y-72081400D01*
X104648000Y-72081400D02*
X103069400Y-73660000D01*
X101012000Y-124714000D02*
X101012000Y-123320800D01*
X101012000Y-123320800D02*
X102666800Y-121666000D01*
X103069400Y-54711600D02*
X103069400Y-56485800D01*
X103069400Y-56485800D02*
X104394000Y-57810400D01*
X100504000Y-107188000D02*
X100504000Y-107565200D01*
X100504000Y-107565200D02*
X102412800Y-109474000D01*
M02*
