G04 #@! TF.FileFunction,Legend,Top*
%FSLAX46Y46*%
G04 Gerber Fmt 4.6, Leading zero omitted, Abs format (unit mm)*
G04 Created by KiCad (PCBNEW 4.0.7) date 03/08/19 15:24:51*
%MOMM*%
%LPD*%
G01*
G04 APERTURE LIST*
%ADD10C,0.100000*%
%ADD11C,0.150000*%
%ADD12C,0.120000*%
%ADD13C,0.300000*%
%ADD14C,0.200000*%
G04 APERTURE END LIST*
D10*
D11*
X129865381Y-138045390D02*
X129389190Y-138378724D01*
X129865381Y-138616819D02*
X128865381Y-138616819D01*
X128865381Y-138235866D01*
X128913000Y-138140628D01*
X128960619Y-138093009D01*
X129055857Y-138045390D01*
X129198714Y-138045390D01*
X129293952Y-138093009D01*
X129341571Y-138140628D01*
X129389190Y-138235866D01*
X129389190Y-138616819D01*
X129341571Y-137283485D02*
X129341571Y-137616819D01*
X129865381Y-137616819D02*
X128865381Y-137616819D01*
X128865381Y-137140628D01*
X129770143Y-135426342D02*
X129817762Y-135473961D01*
X129865381Y-135616818D01*
X129865381Y-135712056D01*
X129817762Y-135854914D01*
X129722524Y-135950152D01*
X129627286Y-135997771D01*
X129436810Y-136045390D01*
X129293952Y-136045390D01*
X129103476Y-135997771D01*
X129008238Y-135950152D01*
X128913000Y-135854914D01*
X128865381Y-135712056D01*
X128865381Y-135616818D01*
X128913000Y-135473961D01*
X128960619Y-135426342D01*
X129865381Y-134997771D02*
X128865381Y-134997771D01*
X129341571Y-134997771D02*
X129341571Y-134426342D01*
X129865381Y-134426342D02*
X128865381Y-134426342D01*
X128865381Y-133759676D02*
X128865381Y-133569199D01*
X128913000Y-133473961D01*
X129008238Y-133378723D01*
X129198714Y-133331104D01*
X129532048Y-133331104D01*
X129722524Y-133378723D01*
X129817762Y-133473961D01*
X129865381Y-133569199D01*
X129865381Y-133759676D01*
X129817762Y-133854914D01*
X129722524Y-133950152D01*
X129532048Y-133997771D01*
X129198714Y-133997771D01*
X129008238Y-133950152D01*
X128913000Y-133854914D01*
X128865381Y-133759676D01*
X129865381Y-132902533D02*
X128865381Y-132902533D01*
X129865381Y-132331104D02*
X129293952Y-132759676D01*
X128865381Y-132331104D02*
X129436810Y-132902533D01*
X129341571Y-131902533D02*
X129341571Y-131569199D01*
X129865381Y-131426342D02*
X129865381Y-131902533D01*
X128865381Y-131902533D01*
X128865381Y-131426342D01*
X129817762Y-131045390D02*
X129865381Y-130902533D01*
X129865381Y-130664437D01*
X129817762Y-130569199D01*
X129770143Y-130521580D01*
X129674905Y-130473961D01*
X129579667Y-130473961D01*
X129484429Y-130521580D01*
X129436810Y-130569199D01*
X129389190Y-130664437D01*
X129341571Y-130854914D01*
X129293952Y-130950152D01*
X129246333Y-130997771D01*
X129151095Y-131045390D01*
X129055857Y-131045390D01*
X128960619Y-130997771D01*
X128913000Y-130950152D01*
X128865381Y-130854914D01*
X128865381Y-130616818D01*
X128913000Y-130473961D01*
X102103181Y-139605924D02*
X101103181Y-139605924D01*
X101103181Y-139367829D01*
X101150800Y-139224971D01*
X101246038Y-139129733D01*
X101341276Y-139082114D01*
X101531752Y-139034495D01*
X101674610Y-139034495D01*
X101865086Y-139082114D01*
X101960324Y-139129733D01*
X102055562Y-139224971D01*
X102103181Y-139367829D01*
X102103181Y-139605924D01*
X102007943Y-138034495D02*
X102055562Y-138082114D01*
X102103181Y-138224971D01*
X102103181Y-138320209D01*
X102055562Y-138463067D01*
X101960324Y-138558305D01*
X101865086Y-138605924D01*
X101674610Y-138653543D01*
X101531752Y-138653543D01*
X101341276Y-138605924D01*
X101246038Y-138558305D01*
X101150800Y-138463067D01*
X101103181Y-138320209D01*
X101103181Y-138224971D01*
X101150800Y-138082114D01*
X101198419Y-138034495D01*
X102103181Y-136844019D02*
X101103181Y-136844019D01*
X102103181Y-136367829D02*
X101103181Y-136367829D01*
X102103181Y-135796400D01*
X101103181Y-135796400D01*
X102103181Y-135320210D02*
X101103181Y-135320210D01*
X101103181Y-134939257D01*
X101150800Y-134844019D01*
X101198419Y-134796400D01*
X101293657Y-134748781D01*
X101436514Y-134748781D01*
X101531752Y-134796400D01*
X101579371Y-134844019D01*
X101626990Y-134939257D01*
X101626990Y-135320210D01*
X101103181Y-134320210D02*
X101912705Y-134320210D01*
X102007943Y-134272591D01*
X102055562Y-134224972D01*
X102103181Y-134129734D01*
X102103181Y-133939257D01*
X102055562Y-133844019D01*
X102007943Y-133796400D01*
X101912705Y-133748781D01*
X101103181Y-133748781D01*
X101103181Y-133415448D02*
X101103181Y-132844019D01*
X102103181Y-133129734D02*
X101103181Y-133129734D01*
X48064800Y-78384304D02*
X48017181Y-78479542D01*
X48017181Y-78622399D01*
X48064800Y-78765257D01*
X48160038Y-78860495D01*
X48255276Y-78908114D01*
X48445752Y-78955733D01*
X48588610Y-78955733D01*
X48779086Y-78908114D01*
X48874324Y-78860495D01*
X48969562Y-78765257D01*
X49017181Y-78622399D01*
X49017181Y-78527161D01*
X48969562Y-78384304D01*
X48921943Y-78336685D01*
X48588610Y-78336685D01*
X48588610Y-78527161D01*
X49017181Y-77908114D02*
X48017181Y-77908114D01*
X49017181Y-77336685D01*
X48017181Y-77336685D01*
X49017181Y-76860495D02*
X48017181Y-76860495D01*
X48017181Y-76622400D01*
X48064800Y-76479542D01*
X48160038Y-76384304D01*
X48255276Y-76336685D01*
X48445752Y-76289066D01*
X48588610Y-76289066D01*
X48779086Y-76336685D01*
X48874324Y-76384304D01*
X48969562Y-76479542D01*
X49017181Y-76622400D01*
X49017181Y-76860495D01*
X47074200Y-101117304D02*
X47026581Y-101212542D01*
X47026581Y-101355399D01*
X47074200Y-101498257D01*
X47169438Y-101593495D01*
X47264676Y-101641114D01*
X47455152Y-101688733D01*
X47598010Y-101688733D01*
X47788486Y-101641114D01*
X47883724Y-101593495D01*
X47978962Y-101498257D01*
X48026581Y-101355399D01*
X48026581Y-101260161D01*
X47978962Y-101117304D01*
X47931343Y-101069685D01*
X47598010Y-101069685D01*
X47598010Y-101260161D01*
X48026581Y-100641114D02*
X47026581Y-100641114D01*
X48026581Y-100069685D01*
X47026581Y-100069685D01*
X48026581Y-99593495D02*
X47026581Y-99593495D01*
X47026581Y-99355400D01*
X47074200Y-99212542D01*
X47169438Y-99117304D01*
X47264676Y-99069685D01*
X47455152Y-99022066D01*
X47598010Y-99022066D01*
X47788486Y-99069685D01*
X47883724Y-99117304D01*
X47978962Y-99212542D01*
X48026581Y-99355400D01*
X48026581Y-99593495D01*
X47632881Y-111386524D02*
X46632881Y-111386524D01*
X46632881Y-111148429D01*
X46680500Y-111005571D01*
X46775738Y-110910333D01*
X46870976Y-110862714D01*
X47061452Y-110815095D01*
X47204310Y-110815095D01*
X47394786Y-110862714D01*
X47490024Y-110910333D01*
X47585262Y-111005571D01*
X47632881Y-111148429D01*
X47632881Y-111386524D01*
X47537643Y-109815095D02*
X47585262Y-109862714D01*
X47632881Y-110005571D01*
X47632881Y-110100809D01*
X47585262Y-110243667D01*
X47490024Y-110338905D01*
X47394786Y-110386524D01*
X47204310Y-110434143D01*
X47061452Y-110434143D01*
X46870976Y-110386524D01*
X46775738Y-110338905D01*
X46680500Y-110243667D01*
X46632881Y-110100809D01*
X46632881Y-110005571D01*
X46680500Y-109862714D01*
X46728119Y-109815095D01*
X47632881Y-108624619D02*
X46632881Y-108624619D01*
X47632881Y-108148429D02*
X46632881Y-108148429D01*
X47632881Y-107577000D01*
X46632881Y-107577000D01*
X47632881Y-107100810D02*
X46632881Y-107100810D01*
X46632881Y-106719857D01*
X46680500Y-106624619D01*
X46728119Y-106577000D01*
X46823357Y-106529381D01*
X46966214Y-106529381D01*
X47061452Y-106577000D01*
X47109071Y-106624619D01*
X47156690Y-106719857D01*
X47156690Y-107100810D01*
X46632881Y-106100810D02*
X47442405Y-106100810D01*
X47537643Y-106053191D01*
X47585262Y-106005572D01*
X47632881Y-105910334D01*
X47632881Y-105719857D01*
X47585262Y-105624619D01*
X47537643Y-105577000D01*
X47442405Y-105529381D01*
X46632881Y-105529381D01*
X46632881Y-105196048D02*
X46632881Y-104624619D01*
X47632881Y-104910334D02*
X46632881Y-104910334D01*
X49194981Y-73921524D02*
X48194981Y-73921524D01*
X48194981Y-73683429D01*
X48242600Y-73540571D01*
X48337838Y-73445333D01*
X48433076Y-73397714D01*
X48623552Y-73350095D01*
X48766410Y-73350095D01*
X48956886Y-73397714D01*
X49052124Y-73445333D01*
X49147362Y-73540571D01*
X49194981Y-73683429D01*
X49194981Y-73921524D01*
X49099743Y-72350095D02*
X49147362Y-72397714D01*
X49194981Y-72540571D01*
X49194981Y-72635809D01*
X49147362Y-72778667D01*
X49052124Y-72873905D01*
X48956886Y-72921524D01*
X48766410Y-72969143D01*
X48623552Y-72969143D01*
X48433076Y-72921524D01*
X48337838Y-72873905D01*
X48242600Y-72778667D01*
X48194981Y-72635809D01*
X48194981Y-72540571D01*
X48242600Y-72397714D01*
X48290219Y-72350095D01*
X49194981Y-71159619D02*
X48194981Y-71159619D01*
X49194981Y-70683429D02*
X48194981Y-70683429D01*
X49194981Y-70112000D01*
X48194981Y-70112000D01*
X49194981Y-69635810D02*
X48194981Y-69635810D01*
X48194981Y-69254857D01*
X48242600Y-69159619D01*
X48290219Y-69112000D01*
X48385457Y-69064381D01*
X48528314Y-69064381D01*
X48623552Y-69112000D01*
X48671171Y-69159619D01*
X48718790Y-69254857D01*
X48718790Y-69635810D01*
X48194981Y-68635810D02*
X49004505Y-68635810D01*
X49099743Y-68588191D01*
X49147362Y-68540572D01*
X49194981Y-68445334D01*
X49194981Y-68254857D01*
X49147362Y-68159619D01*
X49099743Y-68112000D01*
X49004505Y-68064381D01*
X48194981Y-68064381D01*
X48194981Y-67731048D02*
X48194981Y-67159619D01*
X49194981Y-67445334D02*
X48194981Y-67445334D01*
X107538781Y-46997524D02*
X106538781Y-46997524D01*
X106538781Y-46759429D01*
X106586400Y-46616571D01*
X106681638Y-46521333D01*
X106776876Y-46473714D01*
X106967352Y-46426095D01*
X107110210Y-46426095D01*
X107300686Y-46473714D01*
X107395924Y-46521333D01*
X107491162Y-46616571D01*
X107538781Y-46759429D01*
X107538781Y-46997524D01*
X107443543Y-45426095D02*
X107491162Y-45473714D01*
X107538781Y-45616571D01*
X107538781Y-45711809D01*
X107491162Y-45854667D01*
X107395924Y-45949905D01*
X107300686Y-45997524D01*
X107110210Y-46045143D01*
X106967352Y-46045143D01*
X106776876Y-45997524D01*
X106681638Y-45949905D01*
X106586400Y-45854667D01*
X106538781Y-45711809D01*
X106538781Y-45616571D01*
X106586400Y-45473714D01*
X106634019Y-45426095D01*
X107538781Y-44235619D02*
X106538781Y-44235619D01*
X107538781Y-43759429D02*
X106538781Y-43759429D01*
X107538781Y-43188000D01*
X106538781Y-43188000D01*
X107538781Y-42711810D02*
X106538781Y-42711810D01*
X106538781Y-42330857D01*
X106586400Y-42235619D01*
X106634019Y-42188000D01*
X106729257Y-42140381D01*
X106872114Y-42140381D01*
X106967352Y-42188000D01*
X107014971Y-42235619D01*
X107062590Y-42330857D01*
X107062590Y-42711810D01*
X106538781Y-41711810D02*
X107348305Y-41711810D01*
X107443543Y-41664191D01*
X107491162Y-41616572D01*
X107538781Y-41521334D01*
X107538781Y-41330857D01*
X107491162Y-41235619D01*
X107443543Y-41188000D01*
X107348305Y-41140381D01*
X106538781Y-41140381D01*
X106538781Y-40807048D02*
X106538781Y-40235619D01*
X107538781Y-40521334D02*
X106538781Y-40521334D01*
X124505981Y-50364590D02*
X124029790Y-50697924D01*
X124505981Y-50936019D02*
X123505981Y-50936019D01*
X123505981Y-50555066D01*
X123553600Y-50459828D01*
X123601219Y-50412209D01*
X123696457Y-50364590D01*
X123839314Y-50364590D01*
X123934552Y-50412209D01*
X123982171Y-50459828D01*
X124029790Y-50555066D01*
X124029790Y-50936019D01*
X123982171Y-49602685D02*
X123982171Y-49936019D01*
X124505981Y-49936019D02*
X123505981Y-49936019D01*
X123505981Y-49459828D01*
X124410743Y-47745542D02*
X124458362Y-47793161D01*
X124505981Y-47936018D01*
X124505981Y-48031256D01*
X124458362Y-48174114D01*
X124363124Y-48269352D01*
X124267886Y-48316971D01*
X124077410Y-48364590D01*
X123934552Y-48364590D01*
X123744076Y-48316971D01*
X123648838Y-48269352D01*
X123553600Y-48174114D01*
X123505981Y-48031256D01*
X123505981Y-47936018D01*
X123553600Y-47793161D01*
X123601219Y-47745542D01*
X124505981Y-47316971D02*
X123505981Y-47316971D01*
X123982171Y-47316971D02*
X123982171Y-46745542D01*
X124505981Y-46745542D02*
X123505981Y-46745542D01*
X123505981Y-46078876D02*
X123505981Y-45888399D01*
X123553600Y-45793161D01*
X123648838Y-45697923D01*
X123839314Y-45650304D01*
X124172648Y-45650304D01*
X124363124Y-45697923D01*
X124458362Y-45793161D01*
X124505981Y-45888399D01*
X124505981Y-46078876D01*
X124458362Y-46174114D01*
X124363124Y-46269352D01*
X124172648Y-46316971D01*
X123839314Y-46316971D01*
X123648838Y-46269352D01*
X123553600Y-46174114D01*
X123505981Y-46078876D01*
X124505981Y-45221733D02*
X123505981Y-45221733D01*
X124505981Y-44650304D02*
X123934552Y-45078876D01*
X123505981Y-44650304D02*
X124077410Y-45221733D01*
X123982171Y-44221733D02*
X123982171Y-43888399D01*
X124505981Y-43745542D02*
X124505981Y-44221733D01*
X123505981Y-44221733D01*
X123505981Y-43745542D01*
X124458362Y-43364590D02*
X124505981Y-43221733D01*
X124505981Y-42983637D01*
X124458362Y-42888399D01*
X124410743Y-42840780D01*
X124315505Y-42793161D01*
X124220267Y-42793161D01*
X124125029Y-42840780D01*
X124077410Y-42888399D01*
X124029790Y-42983637D01*
X123982171Y-43174114D01*
X123934552Y-43269352D01*
X123886933Y-43316971D01*
X123791695Y-43364590D01*
X123696457Y-43364590D01*
X123601219Y-43316971D01*
X123553600Y-43269352D01*
X123505981Y-43174114D01*
X123505981Y-42936018D01*
X123553600Y-42793161D01*
X139707881Y-130873405D02*
X138707881Y-130873405D01*
X138707881Y-130635310D01*
X138755500Y-130492452D01*
X138850738Y-130397214D01*
X138945976Y-130349595D01*
X139136452Y-130301976D01*
X139279310Y-130301976D01*
X139469786Y-130349595D01*
X139565024Y-130397214D01*
X139660262Y-130492452D01*
X139707881Y-130635310D01*
X139707881Y-130873405D01*
X139612643Y-129301976D02*
X139660262Y-129349595D01*
X139707881Y-129492452D01*
X139707881Y-129587690D01*
X139660262Y-129730548D01*
X139565024Y-129825786D01*
X139469786Y-129873405D01*
X139279310Y-129921024D01*
X139136452Y-129921024D01*
X138945976Y-129873405D01*
X138850738Y-129825786D01*
X138755500Y-129730548D01*
X138707881Y-129587690D01*
X138707881Y-129492452D01*
X138755500Y-129349595D01*
X138803119Y-129301976D01*
X138819000Y-125475904D02*
X138771381Y-125571142D01*
X138771381Y-125713999D01*
X138819000Y-125856857D01*
X138914238Y-125952095D01*
X139009476Y-125999714D01*
X139199952Y-126047333D01*
X139342810Y-126047333D01*
X139533286Y-125999714D01*
X139628524Y-125952095D01*
X139723762Y-125856857D01*
X139771381Y-125713999D01*
X139771381Y-125618761D01*
X139723762Y-125475904D01*
X139676143Y-125428285D01*
X139342810Y-125428285D01*
X139342810Y-125618761D01*
X139771381Y-124999714D02*
X138771381Y-124999714D01*
X139771381Y-124428285D01*
X138771381Y-124428285D01*
X139771381Y-123952095D02*
X138771381Y-123952095D01*
X138771381Y-123714000D01*
X138819000Y-123571142D01*
X138914238Y-123475904D01*
X139009476Y-123428285D01*
X139199952Y-123380666D01*
X139342810Y-123380666D01*
X139533286Y-123428285D01*
X139628524Y-123475904D01*
X139723762Y-123571142D01*
X139771381Y-123714000D01*
X139771381Y-123952095D01*
X139834881Y-56895905D02*
X138834881Y-56895905D01*
X138834881Y-56657810D01*
X138882500Y-56514952D01*
X138977738Y-56419714D01*
X139072976Y-56372095D01*
X139263452Y-56324476D01*
X139406310Y-56324476D01*
X139596786Y-56372095D01*
X139692024Y-56419714D01*
X139787262Y-56514952D01*
X139834881Y-56657810D01*
X139834881Y-56895905D01*
X139739643Y-55324476D02*
X139787262Y-55372095D01*
X139834881Y-55514952D01*
X139834881Y-55610190D01*
X139787262Y-55753048D01*
X139692024Y-55848286D01*
X139596786Y-55895905D01*
X139406310Y-55943524D01*
X139263452Y-55943524D01*
X139072976Y-55895905D01*
X138977738Y-55848286D01*
X138882500Y-55753048D01*
X138834881Y-55610190D01*
X138834881Y-55514952D01*
X138882500Y-55372095D01*
X138930119Y-55324476D01*
X138819000Y-50990404D02*
X138771381Y-51085642D01*
X138771381Y-51228499D01*
X138819000Y-51371357D01*
X138914238Y-51466595D01*
X139009476Y-51514214D01*
X139199952Y-51561833D01*
X139342810Y-51561833D01*
X139533286Y-51514214D01*
X139628524Y-51466595D01*
X139723762Y-51371357D01*
X139771381Y-51228499D01*
X139771381Y-51133261D01*
X139723762Y-50990404D01*
X139676143Y-50942785D01*
X139342810Y-50942785D01*
X139342810Y-51133261D01*
X139771381Y-50514214D02*
X138771381Y-50514214D01*
X139771381Y-49942785D01*
X138771381Y-49942785D01*
X139771381Y-49466595D02*
X138771381Y-49466595D01*
X138771381Y-49228500D01*
X138819000Y-49085642D01*
X138914238Y-48990404D01*
X139009476Y-48942785D01*
X139199952Y-48895166D01*
X139342810Y-48895166D01*
X139533286Y-48942785D01*
X139628524Y-48990404D01*
X139723762Y-49085642D01*
X139771381Y-49228500D01*
X139771381Y-49466595D01*
X98893524Y-57364381D02*
X99464953Y-57364381D01*
X99179238Y-58364381D02*
X99179238Y-57364381D01*
X99750667Y-58078667D02*
X100226858Y-58078667D01*
X99655429Y-58364381D02*
X99988762Y-57364381D01*
X100322096Y-58364381D01*
X100655429Y-58364381D02*
X100655429Y-57364381D01*
X101036382Y-57364381D01*
X101131620Y-57412000D01*
X101179239Y-57459619D01*
X101226858Y-57554857D01*
X101226858Y-57697714D01*
X101179239Y-57792952D01*
X101131620Y-57840571D01*
X101036382Y-57888190D01*
X100655429Y-57888190D01*
X101607810Y-57459619D02*
X101655429Y-57412000D01*
X101750667Y-57364381D01*
X101988763Y-57364381D01*
X102084001Y-57412000D01*
X102131620Y-57459619D01*
X102179239Y-57554857D01*
X102179239Y-57650095D01*
X102131620Y-57792952D01*
X101560191Y-58364381D01*
X102179239Y-58364381D01*
X93462743Y-52319181D02*
X93462743Y-51319181D01*
X93843696Y-51319181D01*
X93938934Y-51366800D01*
X93986553Y-51414419D01*
X94034172Y-51509657D01*
X94034172Y-51652514D01*
X93986553Y-51747752D01*
X93938934Y-51795371D01*
X93843696Y-51842990D01*
X93462743Y-51842990D01*
X94653219Y-51319181D02*
X94843696Y-51319181D01*
X94938934Y-51366800D01*
X95034172Y-51462038D01*
X95081791Y-51652514D01*
X95081791Y-51985848D01*
X95034172Y-52176324D01*
X94938934Y-52271562D01*
X94843696Y-52319181D01*
X94653219Y-52319181D01*
X94557981Y-52271562D01*
X94462743Y-52176324D01*
X94415124Y-51985848D01*
X94415124Y-51652514D01*
X94462743Y-51462038D01*
X94557981Y-51366800D01*
X94653219Y-51319181D01*
X96081791Y-52319181D02*
X95748457Y-51842990D01*
X95510362Y-52319181D02*
X95510362Y-51319181D01*
X95891315Y-51319181D01*
X95986553Y-51366800D01*
X96034172Y-51414419D01*
X96081791Y-51509657D01*
X96081791Y-51652514D01*
X96034172Y-51747752D01*
X95986553Y-51795371D01*
X95891315Y-51842990D01*
X95510362Y-51842990D01*
X96367505Y-51319181D02*
X96938934Y-51319181D01*
X96653219Y-52319181D02*
X96653219Y-51319181D01*
X97796077Y-52319181D02*
X97224648Y-52319181D01*
X97510362Y-52319181D02*
X97510362Y-51319181D01*
X97415124Y-51462038D01*
X97319886Y-51557276D01*
X97224648Y-51604895D01*
X68850143Y-137422381D02*
X68850143Y-136422381D01*
X69231096Y-136422381D01*
X69326334Y-136470000D01*
X69373953Y-136517619D01*
X69421572Y-136612857D01*
X69421572Y-136755714D01*
X69373953Y-136850952D01*
X69326334Y-136898571D01*
X69231096Y-136946190D01*
X68850143Y-136946190D01*
X70040619Y-136422381D02*
X70231096Y-136422381D01*
X70326334Y-136470000D01*
X70421572Y-136565238D01*
X70469191Y-136755714D01*
X70469191Y-137089048D01*
X70421572Y-137279524D01*
X70326334Y-137374762D01*
X70231096Y-137422381D01*
X70040619Y-137422381D01*
X69945381Y-137374762D01*
X69850143Y-137279524D01*
X69802524Y-137089048D01*
X69802524Y-136755714D01*
X69850143Y-136565238D01*
X69945381Y-136470000D01*
X70040619Y-136422381D01*
X71469191Y-137422381D02*
X71135857Y-136946190D01*
X70897762Y-137422381D02*
X70897762Y-136422381D01*
X71278715Y-136422381D01*
X71373953Y-136470000D01*
X71421572Y-136517619D01*
X71469191Y-136612857D01*
X71469191Y-136755714D01*
X71421572Y-136850952D01*
X71373953Y-136898571D01*
X71278715Y-136946190D01*
X70897762Y-136946190D01*
X71754905Y-136422381D02*
X72326334Y-136422381D01*
X72040619Y-137422381D02*
X72040619Y-136422381D01*
X73088239Y-136755714D02*
X73088239Y-137422381D01*
X72850143Y-136374762D02*
X72612048Y-137089048D01*
X73231096Y-137089048D01*
X69659667Y-139072381D02*
X69659667Y-138072381D01*
X70040620Y-138072381D01*
X70135858Y-138120000D01*
X70183477Y-138167619D01*
X70231096Y-138262857D01*
X70231096Y-138405714D01*
X70183477Y-138500952D01*
X70135858Y-138548571D01*
X70040620Y-138596190D01*
X69659667Y-138596190D01*
X70564429Y-138072381D02*
X70802524Y-139072381D01*
X70993001Y-138358095D01*
X71183477Y-139072381D01*
X71421572Y-138072381D01*
X72373953Y-139072381D02*
X72040619Y-138596190D01*
X71802524Y-139072381D02*
X71802524Y-138072381D01*
X72183477Y-138072381D01*
X72278715Y-138120000D01*
X72326334Y-138167619D01*
X72373953Y-138262857D01*
X72373953Y-138405714D01*
X72326334Y-138500952D01*
X72278715Y-138548571D01*
X72183477Y-138596190D01*
X71802524Y-138596190D01*
X74859783Y-137396981D02*
X74859783Y-136396981D01*
X75240736Y-136396981D01*
X75335974Y-136444600D01*
X75383593Y-136492219D01*
X75431212Y-136587457D01*
X75431212Y-136730314D01*
X75383593Y-136825552D01*
X75335974Y-136873171D01*
X75240736Y-136920790D01*
X74859783Y-136920790D01*
X76050259Y-136396981D02*
X76240736Y-136396981D01*
X76335974Y-136444600D01*
X76431212Y-136539838D01*
X76478831Y-136730314D01*
X76478831Y-137063648D01*
X76431212Y-137254124D01*
X76335974Y-137349362D01*
X76240736Y-137396981D01*
X76050259Y-137396981D01*
X75955021Y-137349362D01*
X75859783Y-137254124D01*
X75812164Y-137063648D01*
X75812164Y-136730314D01*
X75859783Y-136539838D01*
X75955021Y-136444600D01*
X76050259Y-136396981D01*
X77478831Y-137396981D02*
X77145497Y-136920790D01*
X76907402Y-137396981D02*
X76907402Y-136396981D01*
X77288355Y-136396981D01*
X77383593Y-136444600D01*
X77431212Y-136492219D01*
X77478831Y-136587457D01*
X77478831Y-136730314D01*
X77431212Y-136825552D01*
X77383593Y-136873171D01*
X77288355Y-136920790D01*
X76907402Y-136920790D01*
X77764545Y-136396981D02*
X78335974Y-136396981D01*
X78050259Y-137396981D02*
X78050259Y-136396981D01*
X78574069Y-136396981D02*
X79193117Y-136396981D01*
X78859783Y-136777933D01*
X79002641Y-136777933D01*
X79097879Y-136825552D01*
X79145498Y-136873171D01*
X79193117Y-136968410D01*
X79193117Y-137206505D01*
X79145498Y-137301743D01*
X79097879Y-137349362D01*
X79002641Y-137396981D01*
X78716926Y-137396981D01*
X78621688Y-137349362D01*
X78574069Y-137301743D01*
X75669307Y-139046981D02*
X75669307Y-138046981D01*
X76050260Y-138046981D01*
X76145498Y-138094600D01*
X76193117Y-138142219D01*
X76240736Y-138237457D01*
X76240736Y-138380314D01*
X76193117Y-138475552D01*
X76145498Y-138523171D01*
X76050260Y-138570790D01*
X75669307Y-138570790D01*
X76574069Y-138046981D02*
X76812164Y-139046981D01*
X77002641Y-138332695D01*
X77193117Y-139046981D01*
X77431212Y-138046981D01*
X78383593Y-139046981D02*
X78050259Y-138570790D01*
X77812164Y-139046981D02*
X77812164Y-138046981D01*
X78193117Y-138046981D01*
X78288355Y-138094600D01*
X78335974Y-138142219D01*
X78383593Y-138237457D01*
X78383593Y-138380314D01*
X78335974Y-138475552D01*
X78288355Y-138523171D01*
X78193117Y-138570790D01*
X77812164Y-138570790D01*
X73866643Y-49538381D02*
X73866643Y-48538381D01*
X74247596Y-48538381D01*
X74342834Y-48586000D01*
X74390453Y-48633619D01*
X74438072Y-48728857D01*
X74438072Y-48871714D01*
X74390453Y-48966952D01*
X74342834Y-49014571D01*
X74247596Y-49062190D01*
X73866643Y-49062190D01*
X75057119Y-48538381D02*
X75247596Y-48538381D01*
X75342834Y-48586000D01*
X75438072Y-48681238D01*
X75485691Y-48871714D01*
X75485691Y-49205048D01*
X75438072Y-49395524D01*
X75342834Y-49490762D01*
X75247596Y-49538381D01*
X75057119Y-49538381D01*
X74961881Y-49490762D01*
X74866643Y-49395524D01*
X74819024Y-49205048D01*
X74819024Y-48871714D01*
X74866643Y-48681238D01*
X74961881Y-48586000D01*
X75057119Y-48538381D01*
X76485691Y-49538381D02*
X76152357Y-49062190D01*
X75914262Y-49538381D02*
X75914262Y-48538381D01*
X76295215Y-48538381D01*
X76390453Y-48586000D01*
X76438072Y-48633619D01*
X76485691Y-48728857D01*
X76485691Y-48871714D01*
X76438072Y-48966952D01*
X76390453Y-49014571D01*
X76295215Y-49062190D01*
X75914262Y-49062190D01*
X76771405Y-48538381D02*
X77342834Y-48538381D01*
X77057119Y-49538381D02*
X77057119Y-48538381D01*
X77628548Y-48633619D02*
X77676167Y-48586000D01*
X77771405Y-48538381D01*
X78009501Y-48538381D01*
X78104739Y-48586000D01*
X78152358Y-48633619D01*
X78199977Y-48728857D01*
X78199977Y-48824095D01*
X78152358Y-48966952D01*
X77580929Y-49538381D01*
X78199977Y-49538381D01*
X74676167Y-51188381D02*
X74676167Y-50188381D01*
X75057120Y-50188381D01*
X75152358Y-50236000D01*
X75199977Y-50283619D01*
X75247596Y-50378857D01*
X75247596Y-50521714D01*
X75199977Y-50616952D01*
X75152358Y-50664571D01*
X75057120Y-50712190D01*
X74676167Y-50712190D01*
X75580929Y-50188381D02*
X75819024Y-51188381D01*
X76009501Y-50474095D01*
X76199977Y-51188381D01*
X76438072Y-50188381D01*
X77390453Y-51188381D02*
X77057119Y-50712190D01*
X76819024Y-51188381D02*
X76819024Y-50188381D01*
X77199977Y-50188381D01*
X77295215Y-50236000D01*
X77342834Y-50283619D01*
X77390453Y-50378857D01*
X77390453Y-50521714D01*
X77342834Y-50616952D01*
X77295215Y-50664571D01*
X77199977Y-50712190D01*
X76819024Y-50712190D01*
X79581643Y-49411381D02*
X79581643Y-48411381D01*
X79962596Y-48411381D01*
X80057834Y-48459000D01*
X80105453Y-48506619D01*
X80153072Y-48601857D01*
X80153072Y-48744714D01*
X80105453Y-48839952D01*
X80057834Y-48887571D01*
X79962596Y-48935190D01*
X79581643Y-48935190D01*
X80772119Y-48411381D02*
X80962596Y-48411381D01*
X81057834Y-48459000D01*
X81153072Y-48554238D01*
X81200691Y-48744714D01*
X81200691Y-49078048D01*
X81153072Y-49268524D01*
X81057834Y-49363762D01*
X80962596Y-49411381D01*
X80772119Y-49411381D01*
X80676881Y-49363762D01*
X80581643Y-49268524D01*
X80534024Y-49078048D01*
X80534024Y-48744714D01*
X80581643Y-48554238D01*
X80676881Y-48459000D01*
X80772119Y-48411381D01*
X82200691Y-49411381D02*
X81867357Y-48935190D01*
X81629262Y-49411381D02*
X81629262Y-48411381D01*
X82010215Y-48411381D01*
X82105453Y-48459000D01*
X82153072Y-48506619D01*
X82200691Y-48601857D01*
X82200691Y-48744714D01*
X82153072Y-48839952D01*
X82105453Y-48887571D01*
X82010215Y-48935190D01*
X81629262Y-48935190D01*
X82486405Y-48411381D02*
X83057834Y-48411381D01*
X82772119Y-49411381D02*
X82772119Y-48411381D01*
X83914977Y-49411381D02*
X83343548Y-49411381D01*
X83629262Y-49411381D02*
X83629262Y-48411381D01*
X83534024Y-48554238D01*
X83438786Y-48649476D01*
X83343548Y-48697095D01*
X80391167Y-51061381D02*
X80391167Y-50061381D01*
X80772120Y-50061381D01*
X80867358Y-50109000D01*
X80914977Y-50156619D01*
X80962596Y-50251857D01*
X80962596Y-50394714D01*
X80914977Y-50489952D01*
X80867358Y-50537571D01*
X80772120Y-50585190D01*
X80391167Y-50585190D01*
X81295929Y-50061381D02*
X81534024Y-51061381D01*
X81724501Y-50347095D01*
X81914977Y-51061381D01*
X82153072Y-50061381D01*
X83105453Y-51061381D02*
X82772119Y-50585190D01*
X82534024Y-51061381D02*
X82534024Y-50061381D01*
X82914977Y-50061381D01*
X83010215Y-50109000D01*
X83057834Y-50156619D01*
X83105453Y-50251857D01*
X83105453Y-50394714D01*
X83057834Y-50489952D01*
X83010215Y-50537571D01*
X82914977Y-50585190D01*
X82534024Y-50585190D01*
X127023762Y-58388024D02*
X127071381Y-58245167D01*
X127071381Y-58007071D01*
X127023762Y-57911833D01*
X126976143Y-57864214D01*
X126880905Y-57816595D01*
X126785667Y-57816595D01*
X126690429Y-57864214D01*
X126642810Y-57911833D01*
X126595190Y-58007071D01*
X126547571Y-58197548D01*
X126499952Y-58292786D01*
X126452333Y-58340405D01*
X126357095Y-58388024D01*
X126261857Y-58388024D01*
X126166619Y-58340405D01*
X126119000Y-58292786D01*
X126071381Y-58197548D01*
X126071381Y-57959452D01*
X126119000Y-57816595D01*
X127071381Y-57388024D02*
X126071381Y-57388024D01*
X126071381Y-57007071D01*
X126119000Y-56911833D01*
X126166619Y-56864214D01*
X126261857Y-56816595D01*
X126404714Y-56816595D01*
X126499952Y-56864214D01*
X126547571Y-56911833D01*
X126595190Y-57007071D01*
X126595190Y-57388024D01*
X127071381Y-55911833D02*
X127071381Y-56388024D01*
X126071381Y-56388024D01*
X127071381Y-55578500D02*
X126071381Y-55578500D01*
X126071381Y-55245167D02*
X126071381Y-54673738D01*
X127071381Y-54959453D02*
X126071381Y-54959453D01*
X134580262Y-119602024D02*
X134627881Y-119459167D01*
X134627881Y-119221071D01*
X134580262Y-119125833D01*
X134532643Y-119078214D01*
X134437405Y-119030595D01*
X134342167Y-119030595D01*
X134246929Y-119078214D01*
X134199310Y-119125833D01*
X134151690Y-119221071D01*
X134104071Y-119411548D01*
X134056452Y-119506786D01*
X134008833Y-119554405D01*
X133913595Y-119602024D01*
X133818357Y-119602024D01*
X133723119Y-119554405D01*
X133675500Y-119506786D01*
X133627881Y-119411548D01*
X133627881Y-119173452D01*
X133675500Y-119030595D01*
X134627881Y-118602024D02*
X133627881Y-118602024D01*
X133627881Y-118221071D01*
X133675500Y-118125833D01*
X133723119Y-118078214D01*
X133818357Y-118030595D01*
X133961214Y-118030595D01*
X134056452Y-118078214D01*
X134104071Y-118125833D01*
X134151690Y-118221071D01*
X134151690Y-118602024D01*
X134627881Y-117125833D02*
X134627881Y-117602024D01*
X133627881Y-117602024D01*
X134627881Y-116792500D02*
X133627881Y-116792500D01*
X133627881Y-116459167D02*
X133627881Y-115887738D01*
X134627881Y-116173453D02*
X133627881Y-116173453D01*
X87463263Y-128194061D02*
X87463263Y-127194061D01*
X87844216Y-127194061D01*
X87939454Y-127241680D01*
X87987073Y-127289299D01*
X88034692Y-127384537D01*
X88034692Y-127527394D01*
X87987073Y-127622632D01*
X87939454Y-127670251D01*
X87844216Y-127717870D01*
X87463263Y-127717870D01*
X88653739Y-127194061D02*
X88844216Y-127194061D01*
X88939454Y-127241680D01*
X89034692Y-127336918D01*
X89082311Y-127527394D01*
X89082311Y-127860728D01*
X89034692Y-128051204D01*
X88939454Y-128146442D01*
X88844216Y-128194061D01*
X88653739Y-128194061D01*
X88558501Y-128146442D01*
X88463263Y-128051204D01*
X88415644Y-127860728D01*
X88415644Y-127527394D01*
X88463263Y-127336918D01*
X88558501Y-127241680D01*
X88653739Y-127194061D01*
X90082311Y-128194061D02*
X89748977Y-127717870D01*
X89510882Y-128194061D02*
X89510882Y-127194061D01*
X89891835Y-127194061D01*
X89987073Y-127241680D01*
X90034692Y-127289299D01*
X90082311Y-127384537D01*
X90082311Y-127527394D01*
X90034692Y-127622632D01*
X89987073Y-127670251D01*
X89891835Y-127717870D01*
X89510882Y-127717870D01*
X90368025Y-127194061D02*
X90939454Y-127194061D01*
X90653739Y-128194061D02*
X90653739Y-127194061D01*
X91177549Y-127194061D02*
X91796597Y-127194061D01*
X91463263Y-127575013D01*
X91606121Y-127575013D01*
X91701359Y-127622632D01*
X91748978Y-127670251D01*
X91796597Y-127765490D01*
X91796597Y-128003585D01*
X91748978Y-128098823D01*
X91701359Y-128146442D01*
X91606121Y-128194061D01*
X91320406Y-128194061D01*
X91225168Y-128146442D01*
X91177549Y-128098823D01*
X41291143Y-129484381D02*
X41291143Y-128484381D01*
X41672096Y-128484381D01*
X41767334Y-128532000D01*
X41814953Y-128579619D01*
X41862572Y-128674857D01*
X41862572Y-128817714D01*
X41814953Y-128912952D01*
X41767334Y-128960571D01*
X41672096Y-129008190D01*
X41291143Y-129008190D01*
X42481619Y-128484381D02*
X42672096Y-128484381D01*
X42767334Y-128532000D01*
X42862572Y-128627238D01*
X42910191Y-128817714D01*
X42910191Y-129151048D01*
X42862572Y-129341524D01*
X42767334Y-129436762D01*
X42672096Y-129484381D01*
X42481619Y-129484381D01*
X42386381Y-129436762D01*
X42291143Y-129341524D01*
X42243524Y-129151048D01*
X42243524Y-128817714D01*
X42291143Y-128627238D01*
X42386381Y-128532000D01*
X42481619Y-128484381D01*
X43910191Y-129484381D02*
X43576857Y-129008190D01*
X43338762Y-129484381D02*
X43338762Y-128484381D01*
X43719715Y-128484381D01*
X43814953Y-128532000D01*
X43862572Y-128579619D01*
X43910191Y-128674857D01*
X43910191Y-128817714D01*
X43862572Y-128912952D01*
X43814953Y-128960571D01*
X43719715Y-129008190D01*
X43338762Y-129008190D01*
X44195905Y-128484381D02*
X44767334Y-128484381D01*
X44481619Y-129484381D02*
X44481619Y-128484381D01*
X45529239Y-128817714D02*
X45529239Y-129484381D01*
X45291143Y-128436762D02*
X45053048Y-129151048D01*
X45672096Y-129151048D01*
X113274743Y-125725181D02*
X113274743Y-124725181D01*
X113655696Y-124725181D01*
X113750934Y-124772800D01*
X113798553Y-124820419D01*
X113846172Y-124915657D01*
X113846172Y-125058514D01*
X113798553Y-125153752D01*
X113750934Y-125201371D01*
X113655696Y-125248990D01*
X113274743Y-125248990D01*
X114465219Y-124725181D02*
X114655696Y-124725181D01*
X114750934Y-124772800D01*
X114846172Y-124868038D01*
X114893791Y-125058514D01*
X114893791Y-125391848D01*
X114846172Y-125582324D01*
X114750934Y-125677562D01*
X114655696Y-125725181D01*
X114465219Y-125725181D01*
X114369981Y-125677562D01*
X114274743Y-125582324D01*
X114227124Y-125391848D01*
X114227124Y-125058514D01*
X114274743Y-124868038D01*
X114369981Y-124772800D01*
X114465219Y-124725181D01*
X115893791Y-125725181D02*
X115560457Y-125248990D01*
X115322362Y-125725181D02*
X115322362Y-124725181D01*
X115703315Y-124725181D01*
X115798553Y-124772800D01*
X115846172Y-124820419D01*
X115893791Y-124915657D01*
X115893791Y-125058514D01*
X115846172Y-125153752D01*
X115798553Y-125201371D01*
X115703315Y-125248990D01*
X115322362Y-125248990D01*
X116179505Y-124725181D02*
X116750934Y-124725181D01*
X116465219Y-125725181D02*
X116465219Y-124725181D01*
X116989029Y-124725181D02*
X117608077Y-124725181D01*
X117274743Y-125106133D01*
X117417601Y-125106133D01*
X117512839Y-125153752D01*
X117560458Y-125201371D01*
X117608077Y-125296610D01*
X117608077Y-125534705D01*
X117560458Y-125629943D01*
X117512839Y-125677562D01*
X117417601Y-125725181D01*
X117131886Y-125725181D01*
X117036648Y-125677562D01*
X116989029Y-125629943D01*
X56332381Y-64880857D02*
X55332381Y-64880857D01*
X55332381Y-64499904D01*
X55380000Y-64404666D01*
X55427619Y-64357047D01*
X55522857Y-64309428D01*
X55665714Y-64309428D01*
X55760952Y-64357047D01*
X55808571Y-64404666D01*
X55856190Y-64499904D01*
X55856190Y-64880857D01*
X55332381Y-63690381D02*
X55332381Y-63499904D01*
X55380000Y-63404666D01*
X55475238Y-63309428D01*
X55665714Y-63261809D01*
X55999048Y-63261809D01*
X56189524Y-63309428D01*
X56284762Y-63404666D01*
X56332381Y-63499904D01*
X56332381Y-63690381D01*
X56284762Y-63785619D01*
X56189524Y-63880857D01*
X55999048Y-63928476D01*
X55665714Y-63928476D01*
X55475238Y-63880857D01*
X55380000Y-63785619D01*
X55332381Y-63690381D01*
X56332381Y-62261809D02*
X55856190Y-62595143D01*
X56332381Y-62833238D02*
X55332381Y-62833238D01*
X55332381Y-62452285D01*
X55380000Y-62357047D01*
X55427619Y-62309428D01*
X55522857Y-62261809D01*
X55665714Y-62261809D01*
X55760952Y-62309428D01*
X55808571Y-62357047D01*
X55856190Y-62452285D01*
X55856190Y-62833238D01*
X55332381Y-61976095D02*
X55332381Y-61404666D01*
X56332381Y-61690381D02*
X55332381Y-61690381D01*
X55427619Y-61118952D02*
X55380000Y-61071333D01*
X55332381Y-60976095D01*
X55332381Y-60737999D01*
X55380000Y-60642761D01*
X55427619Y-60595142D01*
X55522857Y-60547523D01*
X55618095Y-60547523D01*
X55760952Y-60595142D01*
X56332381Y-61166571D01*
X56332381Y-60547523D01*
X111357143Y-56202381D02*
X111357143Y-55202381D01*
X111738096Y-55202381D01*
X111833334Y-55250000D01*
X111880953Y-55297619D01*
X111928572Y-55392857D01*
X111928572Y-55535714D01*
X111880953Y-55630952D01*
X111833334Y-55678571D01*
X111738096Y-55726190D01*
X111357143Y-55726190D01*
X112547619Y-55202381D02*
X112738096Y-55202381D01*
X112833334Y-55250000D01*
X112928572Y-55345238D01*
X112976191Y-55535714D01*
X112976191Y-55869048D01*
X112928572Y-56059524D01*
X112833334Y-56154762D01*
X112738096Y-56202381D01*
X112547619Y-56202381D01*
X112452381Y-56154762D01*
X112357143Y-56059524D01*
X112309524Y-55869048D01*
X112309524Y-55535714D01*
X112357143Y-55345238D01*
X112452381Y-55250000D01*
X112547619Y-55202381D01*
X113976191Y-56202381D02*
X113642857Y-55726190D01*
X113404762Y-56202381D02*
X113404762Y-55202381D01*
X113785715Y-55202381D01*
X113880953Y-55250000D01*
X113928572Y-55297619D01*
X113976191Y-55392857D01*
X113976191Y-55535714D01*
X113928572Y-55630952D01*
X113880953Y-55678571D01*
X113785715Y-55726190D01*
X113404762Y-55726190D01*
X114261905Y-55202381D02*
X114833334Y-55202381D01*
X114547619Y-56202381D02*
X114547619Y-55202381D01*
X115690477Y-56202381D02*
X115119048Y-56202381D01*
X115404762Y-56202381D02*
X115404762Y-55202381D01*
X115309524Y-55345238D01*
X115214286Y-55440476D01*
X115119048Y-55488095D01*
X56237143Y-95201999D02*
X56284762Y-95249618D01*
X56332381Y-95392475D01*
X56332381Y-95487713D01*
X56284762Y-95630571D01*
X56189524Y-95725809D01*
X56094286Y-95773428D01*
X55903810Y-95821047D01*
X55760952Y-95821047D01*
X55570476Y-95773428D01*
X55475238Y-95725809D01*
X55380000Y-95630571D01*
X55332381Y-95487713D01*
X55332381Y-95392475D01*
X55380000Y-95249618D01*
X55427619Y-95201999D01*
X55332381Y-94582952D02*
X55332381Y-94392475D01*
X55380000Y-94297237D01*
X55475238Y-94201999D01*
X55665714Y-94154380D01*
X55999048Y-94154380D01*
X56189524Y-94201999D01*
X56284762Y-94297237D01*
X56332381Y-94392475D01*
X56332381Y-94582952D01*
X56284762Y-94678190D01*
X56189524Y-94773428D01*
X55999048Y-94821047D01*
X55665714Y-94821047D01*
X55475238Y-94773428D01*
X55380000Y-94678190D01*
X55332381Y-94582952D01*
X56332381Y-93725809D02*
X55332381Y-93725809D01*
X56046667Y-93392475D01*
X55332381Y-93059142D01*
X56332381Y-93059142D01*
X55808571Y-92249618D02*
X55856190Y-92106761D01*
X55903810Y-92059142D01*
X55999048Y-92011523D01*
X56141905Y-92011523D01*
X56237143Y-92059142D01*
X56284762Y-92106761D01*
X56332381Y-92201999D01*
X56332381Y-92582952D01*
X55332381Y-92582952D01*
X55332381Y-92249618D01*
X55380000Y-92154380D01*
X55427619Y-92106761D01*
X55522857Y-92059142D01*
X55618095Y-92059142D01*
X55713333Y-92106761D01*
X55760952Y-92154380D01*
X55808571Y-92249618D01*
X55808571Y-92582952D01*
X56332381Y-91582952D02*
X55332381Y-91582952D01*
X56332381Y-91106762D02*
X55332381Y-91106762D01*
X56332381Y-90535333D01*
X55332381Y-90535333D01*
X55808571Y-90059143D02*
X55808571Y-89725809D01*
X56332381Y-89582952D02*
X56332381Y-90059143D01*
X55332381Y-90059143D01*
X55332381Y-89582952D01*
X56332381Y-89154381D02*
X55332381Y-89154381D01*
X55332381Y-88916286D01*
X55380000Y-88773428D01*
X55475238Y-88678190D01*
X55570476Y-88630571D01*
X55760952Y-88582952D01*
X55903810Y-88582952D01*
X56094286Y-88630571D01*
X56189524Y-88678190D01*
X56284762Y-88773428D01*
X56332381Y-88916286D01*
X56332381Y-89154381D01*
X125476096Y-107323000D02*
X125380858Y-107275381D01*
X125238001Y-107275381D01*
X125095143Y-107323000D01*
X124999905Y-107418238D01*
X124952286Y-107513476D01*
X124904667Y-107703952D01*
X124904667Y-107846810D01*
X124952286Y-108037286D01*
X124999905Y-108132524D01*
X125095143Y-108227762D01*
X125238001Y-108275381D01*
X125333239Y-108275381D01*
X125476096Y-108227762D01*
X125523715Y-108180143D01*
X125523715Y-107846810D01*
X125333239Y-107846810D01*
X125952286Y-108275381D02*
X125952286Y-107275381D01*
X126523715Y-108275381D01*
X126523715Y-107275381D01*
X126999905Y-108275381D02*
X126999905Y-107275381D01*
X127238000Y-107275381D01*
X127380858Y-107323000D01*
X127476096Y-107418238D01*
X127523715Y-107513476D01*
X127571334Y-107703952D01*
X127571334Y-107846810D01*
X127523715Y-108037286D01*
X127476096Y-108132524D01*
X127380858Y-108227762D01*
X127238000Y-108275381D01*
X126999905Y-108275381D01*
X97980572Y-115800143D02*
X97932953Y-115847762D01*
X97790096Y-115895381D01*
X97694858Y-115895381D01*
X97552000Y-115847762D01*
X97456762Y-115752524D01*
X97409143Y-115657286D01*
X97361524Y-115466810D01*
X97361524Y-115323952D01*
X97409143Y-115133476D01*
X97456762Y-115038238D01*
X97552000Y-114943000D01*
X97694858Y-114895381D01*
X97790096Y-114895381D01*
X97932953Y-114943000D01*
X97980572Y-114990619D01*
X98266286Y-114895381D02*
X98837715Y-114895381D01*
X98552000Y-115895381D02*
X98552000Y-114895381D01*
X99742477Y-115895381D02*
X99409143Y-115419190D01*
X99171048Y-115895381D02*
X99171048Y-114895381D01*
X99552001Y-114895381D01*
X99647239Y-114943000D01*
X99694858Y-114990619D01*
X99742477Y-115085857D01*
X99742477Y-115228714D01*
X99694858Y-115323952D01*
X99647239Y-115371571D01*
X99552001Y-115419190D01*
X99171048Y-115419190D01*
X96861524Y-121118381D02*
X97432953Y-121118381D01*
X97147238Y-122118381D02*
X97147238Y-121118381D01*
X97718667Y-121832667D02*
X98194858Y-121832667D01*
X97623429Y-122118381D02*
X97956762Y-121118381D01*
X98290096Y-122118381D01*
X98623429Y-122118381D02*
X98623429Y-121118381D01*
X99004382Y-121118381D01*
X99099620Y-121166000D01*
X99147239Y-121213619D01*
X99194858Y-121308857D01*
X99194858Y-121451714D01*
X99147239Y-121546952D01*
X99099620Y-121594571D01*
X99004382Y-121642190D01*
X98623429Y-121642190D01*
X100147239Y-122118381D02*
X99575810Y-122118381D01*
X99861524Y-122118381D02*
X99861524Y-121118381D01*
X99766286Y-121261238D01*
X99671048Y-121356476D01*
X99575810Y-121404095D01*
X96861524Y-109434381D02*
X97432953Y-109434381D01*
X97147238Y-110434381D02*
X97147238Y-109434381D01*
X97718667Y-110148667D02*
X98194858Y-110148667D01*
X97623429Y-110434381D02*
X97956762Y-109434381D01*
X98290096Y-110434381D01*
X98623429Y-110434381D02*
X98623429Y-109434381D01*
X99004382Y-109434381D01*
X99099620Y-109482000D01*
X99147239Y-109529619D01*
X99194858Y-109624857D01*
X99194858Y-109767714D01*
X99147239Y-109862952D01*
X99099620Y-109910571D01*
X99004382Y-109958190D01*
X98623429Y-109958190D01*
X99575810Y-109529619D02*
X99623429Y-109482000D01*
X99718667Y-109434381D01*
X99956763Y-109434381D01*
X100052001Y-109482000D01*
X100099620Y-109529619D01*
X100147239Y-109624857D01*
X100147239Y-109720095D01*
X100099620Y-109862952D01*
X99528191Y-110434381D01*
X100147239Y-110434381D01*
X77938524Y-82002381D02*
X78509953Y-82002381D01*
X78224238Y-83002381D02*
X78224238Y-82002381D01*
X78795667Y-82716667D02*
X79271858Y-82716667D01*
X78700429Y-83002381D02*
X79033762Y-82002381D01*
X79367096Y-83002381D01*
X79700429Y-83002381D02*
X79700429Y-82002381D01*
X80081382Y-82002381D01*
X80176620Y-82050000D01*
X80224239Y-82097619D01*
X80271858Y-82192857D01*
X80271858Y-82335714D01*
X80224239Y-82430952D01*
X80176620Y-82478571D01*
X80081382Y-82526190D01*
X79700429Y-82526190D01*
X80652810Y-82097619D02*
X80700429Y-82050000D01*
X80795667Y-82002381D01*
X81033763Y-82002381D01*
X81129001Y-82050000D01*
X81176620Y-82097619D01*
X81224239Y-82192857D01*
X81224239Y-82288095D01*
X81176620Y-82430952D01*
X80605191Y-83002381D01*
X81224239Y-83002381D01*
X77938524Y-94448381D02*
X78509953Y-94448381D01*
X78224238Y-95448381D02*
X78224238Y-94448381D01*
X78795667Y-95162667D02*
X79271858Y-95162667D01*
X78700429Y-95448381D02*
X79033762Y-94448381D01*
X79367096Y-95448381D01*
X79700429Y-95448381D02*
X79700429Y-94448381D01*
X80081382Y-94448381D01*
X80176620Y-94496000D01*
X80224239Y-94543619D01*
X80271858Y-94638857D01*
X80271858Y-94781714D01*
X80224239Y-94876952D01*
X80176620Y-94924571D01*
X80081382Y-94972190D01*
X79700429Y-94972190D01*
X81224239Y-95448381D02*
X80652810Y-95448381D01*
X80938524Y-95448381D02*
X80938524Y-94448381D01*
X80843286Y-94591238D01*
X80748048Y-94686476D01*
X80652810Y-94734095D01*
X79692572Y-89257143D02*
X79644953Y-89304762D01*
X79502096Y-89352381D01*
X79406858Y-89352381D01*
X79264000Y-89304762D01*
X79168762Y-89209524D01*
X79121143Y-89114286D01*
X79073524Y-88923810D01*
X79073524Y-88780952D01*
X79121143Y-88590476D01*
X79168762Y-88495238D01*
X79264000Y-88400000D01*
X79406858Y-88352381D01*
X79502096Y-88352381D01*
X79644953Y-88400000D01*
X79692572Y-88447619D01*
X79978286Y-88352381D02*
X80549715Y-88352381D01*
X80264000Y-89352381D02*
X80264000Y-88352381D01*
X81454477Y-89352381D02*
X81121143Y-88876190D01*
X80883048Y-89352381D02*
X80883048Y-88352381D01*
X81264001Y-88352381D01*
X81359239Y-88400000D01*
X81406858Y-88447619D01*
X81454477Y-88542857D01*
X81454477Y-88685714D01*
X81406858Y-88780952D01*
X81359239Y-88828571D01*
X81264001Y-88876190D01*
X80883048Y-88876190D01*
X99147524Y-70064381D02*
X99718953Y-70064381D01*
X99433238Y-71064381D02*
X99433238Y-70064381D01*
X100004667Y-70778667D02*
X100480858Y-70778667D01*
X99909429Y-71064381D02*
X100242762Y-70064381D01*
X100576096Y-71064381D01*
X100909429Y-71064381D02*
X100909429Y-70064381D01*
X101290382Y-70064381D01*
X101385620Y-70112000D01*
X101433239Y-70159619D01*
X101480858Y-70254857D01*
X101480858Y-70397714D01*
X101433239Y-70492952D01*
X101385620Y-70540571D01*
X101290382Y-70588190D01*
X100909429Y-70588190D01*
X102433239Y-71064381D02*
X101861810Y-71064381D01*
X102147524Y-71064381D02*
X102147524Y-70064381D01*
X102052286Y-70207238D01*
X101957048Y-70302476D01*
X101861810Y-70350095D01*
X100520572Y-64111143D02*
X100472953Y-64158762D01*
X100330096Y-64206381D01*
X100234858Y-64206381D01*
X100092000Y-64158762D01*
X99996762Y-64063524D01*
X99949143Y-63968286D01*
X99901524Y-63777810D01*
X99901524Y-63634952D01*
X99949143Y-63444476D01*
X99996762Y-63349238D01*
X100092000Y-63254000D01*
X100234858Y-63206381D01*
X100330096Y-63206381D01*
X100472953Y-63254000D01*
X100520572Y-63301619D01*
X100806286Y-63206381D02*
X101377715Y-63206381D01*
X101092000Y-64206381D02*
X101092000Y-63206381D01*
X102282477Y-64206381D02*
X101949143Y-63730190D01*
X101711048Y-64206381D02*
X101711048Y-63206381D01*
X102092001Y-63206381D01*
X102187239Y-63254000D01*
X102234858Y-63301619D01*
X102282477Y-63396857D01*
X102282477Y-63539714D01*
X102234858Y-63634952D01*
X102187239Y-63682571D01*
X102092001Y-63730190D01*
X101711048Y-63730190D01*
X134620096Y-73668000D02*
X134524858Y-73620381D01*
X134382001Y-73620381D01*
X134239143Y-73668000D01*
X134143905Y-73763238D01*
X134096286Y-73858476D01*
X134048667Y-74048952D01*
X134048667Y-74191810D01*
X134096286Y-74382286D01*
X134143905Y-74477524D01*
X134239143Y-74572762D01*
X134382001Y-74620381D01*
X134477239Y-74620381D01*
X134620096Y-74572762D01*
X134667715Y-74525143D01*
X134667715Y-74191810D01*
X134477239Y-74191810D01*
X135096286Y-74620381D02*
X135096286Y-73620381D01*
X135667715Y-74620381D01*
X135667715Y-73620381D01*
X136143905Y-74620381D02*
X136143905Y-73620381D01*
X136382000Y-73620381D01*
X136524858Y-73668000D01*
X136620096Y-73763238D01*
X136667715Y-73858476D01*
X136715334Y-74048952D01*
X136715334Y-74191810D01*
X136667715Y-74382286D01*
X136620096Y-74477524D01*
X136524858Y-74572762D01*
X136382000Y-74620381D01*
X136143905Y-74620381D01*
X125968191Y-113831714D02*
X125968191Y-114498381D01*
X125730095Y-113450762D02*
X125492000Y-114165048D01*
X126111048Y-114165048D01*
X126492000Y-114403143D02*
X126539619Y-114450762D01*
X126492000Y-114498381D01*
X126444381Y-114450762D01*
X126492000Y-114403143D01*
X126492000Y-114498381D01*
X126492000Y-113879333D02*
X126539619Y-113926952D01*
X126492000Y-113974571D01*
X126444381Y-113926952D01*
X126492000Y-113879333D01*
X126492000Y-113974571D01*
X127492000Y-114498381D02*
X126920571Y-114498381D01*
X127206285Y-114498381D02*
X127206285Y-113498381D01*
X127111047Y-113641238D01*
X127015809Y-113736476D01*
X126920571Y-113784095D01*
X134858191Y-67857714D02*
X134858191Y-68524381D01*
X134620095Y-67476762D02*
X134382000Y-68191048D01*
X135001048Y-68191048D01*
X135382000Y-68429143D02*
X135429619Y-68476762D01*
X135382000Y-68524381D01*
X135334381Y-68476762D01*
X135382000Y-68429143D01*
X135382000Y-68524381D01*
X135382000Y-67905333D02*
X135429619Y-67952952D01*
X135382000Y-68000571D01*
X135334381Y-67952952D01*
X135382000Y-67905333D01*
X135382000Y-68000571D01*
X136382000Y-68524381D02*
X135810571Y-68524381D01*
X136096285Y-68524381D02*
X136096285Y-67524381D01*
X136001047Y-67667238D01*
X135905809Y-67762476D01*
X135810571Y-67810095D01*
X125587238Y-120086381D02*
X125777714Y-120086381D01*
X125872953Y-120038762D01*
X125920572Y-119991143D01*
X126015810Y-119848286D01*
X126063429Y-119657810D01*
X126063429Y-119276857D01*
X126015810Y-119181619D01*
X125968191Y-119134000D01*
X125872953Y-119086381D01*
X125682476Y-119086381D01*
X125587238Y-119134000D01*
X125539619Y-119181619D01*
X125492000Y-119276857D01*
X125492000Y-119514952D01*
X125539619Y-119610190D01*
X125587238Y-119657810D01*
X125682476Y-119705429D01*
X125872953Y-119705429D01*
X125968191Y-119657810D01*
X126015810Y-119610190D01*
X126063429Y-119514952D01*
X126492000Y-119991143D02*
X126539619Y-120038762D01*
X126492000Y-120086381D01*
X126444381Y-120038762D01*
X126492000Y-119991143D01*
X126492000Y-120086381D01*
X126492000Y-119467333D02*
X126539619Y-119514952D01*
X126492000Y-119562571D01*
X126444381Y-119514952D01*
X126492000Y-119467333D01*
X126492000Y-119562571D01*
X127492000Y-120086381D02*
X126920571Y-120086381D01*
X127206285Y-120086381D02*
X127206285Y-119086381D01*
X127111047Y-119229238D01*
X127015809Y-119324476D01*
X126920571Y-119372095D01*
X134731238Y-62682381D02*
X134921714Y-62682381D01*
X135016953Y-62634762D01*
X135064572Y-62587143D01*
X135159810Y-62444286D01*
X135207429Y-62253810D01*
X135207429Y-61872857D01*
X135159810Y-61777619D01*
X135112191Y-61730000D01*
X135016953Y-61682381D01*
X134826476Y-61682381D01*
X134731238Y-61730000D01*
X134683619Y-61777619D01*
X134636000Y-61872857D01*
X134636000Y-62110952D01*
X134683619Y-62206190D01*
X134731238Y-62253810D01*
X134826476Y-62301429D01*
X135016953Y-62301429D01*
X135112191Y-62253810D01*
X135159810Y-62206190D01*
X135207429Y-62110952D01*
X135636000Y-62587143D02*
X135683619Y-62634762D01*
X135636000Y-62682381D01*
X135588381Y-62634762D01*
X135636000Y-62587143D01*
X135636000Y-62682381D01*
X135636000Y-62063333D02*
X135683619Y-62110952D01*
X135636000Y-62158571D01*
X135588381Y-62110952D01*
X135636000Y-62063333D01*
X135636000Y-62158571D01*
X136636000Y-62682381D02*
X136064571Y-62682381D01*
X136350285Y-62682381D02*
X136350285Y-61682381D01*
X136255047Y-61825238D01*
X136159809Y-61920476D01*
X136064571Y-61968095D01*
X58785238Y-83002381D02*
X58975714Y-83002381D01*
X59070953Y-82954762D01*
X59118572Y-82907143D01*
X59213810Y-82764286D01*
X59261429Y-82573810D01*
X59261429Y-82192857D01*
X59213810Y-82097619D01*
X59166191Y-82050000D01*
X59070953Y-82002381D01*
X58880476Y-82002381D01*
X58785238Y-82050000D01*
X58737619Y-82097619D01*
X58690000Y-82192857D01*
X58690000Y-82430952D01*
X58737619Y-82526190D01*
X58785238Y-82573810D01*
X58880476Y-82621429D01*
X59070953Y-82621429D01*
X59166191Y-82573810D01*
X59213810Y-82526190D01*
X59261429Y-82430952D01*
X59690000Y-82907143D02*
X59737619Y-82954762D01*
X59690000Y-83002381D01*
X59642381Y-82954762D01*
X59690000Y-82907143D01*
X59690000Y-83002381D01*
X59690000Y-82383333D02*
X59737619Y-82430952D01*
X59690000Y-82478571D01*
X59642381Y-82430952D01*
X59690000Y-82383333D01*
X59690000Y-82478571D01*
X60690000Y-83002381D02*
X60118571Y-83002381D01*
X60404285Y-83002381D02*
X60404285Y-82002381D01*
X60309047Y-82145238D01*
X60213809Y-82240476D01*
X60118571Y-82288095D01*
X59166191Y-88685714D02*
X59166191Y-89352381D01*
X58928095Y-88304762D02*
X58690000Y-89019048D01*
X59309048Y-89019048D01*
X59690000Y-89257143D02*
X59737619Y-89304762D01*
X59690000Y-89352381D01*
X59642381Y-89304762D01*
X59690000Y-89257143D01*
X59690000Y-89352381D01*
X59690000Y-88733333D02*
X59737619Y-88780952D01*
X59690000Y-88828571D01*
X59642381Y-88780952D01*
X59690000Y-88733333D01*
X59690000Y-88828571D01*
X60690000Y-89352381D02*
X60118571Y-89352381D01*
X60404285Y-89352381D02*
X60404285Y-88352381D01*
X60309047Y-88495238D01*
X60213809Y-88590476D01*
X60118571Y-88638095D01*
X59182096Y-94496000D02*
X59086858Y-94448381D01*
X58944001Y-94448381D01*
X58801143Y-94496000D01*
X58705905Y-94591238D01*
X58658286Y-94686476D01*
X58610667Y-94876952D01*
X58610667Y-95019810D01*
X58658286Y-95210286D01*
X58705905Y-95305524D01*
X58801143Y-95400762D01*
X58944001Y-95448381D01*
X59039239Y-95448381D01*
X59182096Y-95400762D01*
X59229715Y-95353143D01*
X59229715Y-95019810D01*
X59039239Y-95019810D01*
X59658286Y-95448381D02*
X59658286Y-94448381D01*
X60229715Y-95448381D01*
X60229715Y-94448381D01*
X60705905Y-95448381D02*
X60705905Y-94448381D01*
X60944000Y-94448381D01*
X61086858Y-94496000D01*
X61182096Y-94591238D01*
X61229715Y-94686476D01*
X61277334Y-94876952D01*
X61277334Y-95019810D01*
X61229715Y-95210286D01*
X61182096Y-95305524D01*
X61086858Y-95400762D01*
X60944000Y-95448381D01*
X60705905Y-95448381D01*
X62706857Y-76621619D02*
X62611619Y-76574000D01*
X62516381Y-76478762D01*
X62373524Y-76335905D01*
X62278285Y-76288286D01*
X62183047Y-76288286D01*
X62230666Y-76526381D02*
X62135428Y-76478762D01*
X62040190Y-76383524D01*
X61992571Y-76193048D01*
X61992571Y-75859714D01*
X62040190Y-75669238D01*
X62135428Y-75574000D01*
X62230666Y-75526381D01*
X62421143Y-75526381D01*
X62516381Y-75574000D01*
X62611619Y-75669238D01*
X62659238Y-75859714D01*
X62659238Y-76193048D01*
X62611619Y-76383524D01*
X62516381Y-76478762D01*
X62421143Y-76526381D01*
X62230666Y-76526381D01*
X63087809Y-75526381D02*
X63087809Y-76335905D01*
X63135428Y-76431143D01*
X63183047Y-76478762D01*
X63278285Y-76526381D01*
X63468762Y-76526381D01*
X63564000Y-76478762D01*
X63611619Y-76431143D01*
X63659238Y-76335905D01*
X63659238Y-75526381D01*
X64087809Y-76240667D02*
X64564000Y-76240667D01*
X63992571Y-76526381D02*
X64325904Y-75526381D01*
X64659238Y-76526381D01*
X64992571Y-76526381D02*
X64992571Y-75526381D01*
X65230666Y-75526381D01*
X65373524Y-75574000D01*
X65468762Y-75669238D01*
X65516381Y-75764476D01*
X65564000Y-75954952D01*
X65564000Y-76097810D01*
X65516381Y-76288286D01*
X65468762Y-76383524D01*
X65373524Y-76478762D01*
X65230666Y-76526381D01*
X64992571Y-76526381D01*
X67325905Y-76431143D02*
X67278286Y-76478762D01*
X67135429Y-76526381D01*
X67040191Y-76526381D01*
X66897333Y-76478762D01*
X66802095Y-76383524D01*
X66754476Y-76288286D01*
X66706857Y-76097810D01*
X66706857Y-75954952D01*
X66754476Y-75764476D01*
X66802095Y-75669238D01*
X66897333Y-75574000D01*
X67040191Y-75526381D01*
X67135429Y-75526381D01*
X67278286Y-75574000D01*
X67325905Y-75621619D01*
X67944952Y-75526381D02*
X68135429Y-75526381D01*
X68230667Y-75574000D01*
X68325905Y-75669238D01*
X68373524Y-75859714D01*
X68373524Y-76193048D01*
X68325905Y-76383524D01*
X68230667Y-76478762D01*
X68135429Y-76526381D01*
X67944952Y-76526381D01*
X67849714Y-76478762D01*
X67754476Y-76383524D01*
X67706857Y-76193048D01*
X67706857Y-75859714D01*
X67754476Y-75669238D01*
X67849714Y-75574000D01*
X67944952Y-75526381D01*
X68802095Y-75526381D02*
X68802095Y-76335905D01*
X68849714Y-76431143D01*
X68897333Y-76478762D01*
X68992571Y-76526381D01*
X69183048Y-76526381D01*
X69278286Y-76478762D01*
X69325905Y-76431143D01*
X69373524Y-76335905D01*
X69373524Y-75526381D01*
X69849714Y-76526381D02*
X69849714Y-75526381D01*
X70230667Y-75526381D01*
X70325905Y-75574000D01*
X70373524Y-75621619D01*
X70421143Y-75716857D01*
X70421143Y-75859714D01*
X70373524Y-75954952D01*
X70325905Y-76002571D01*
X70230667Y-76050190D01*
X69849714Y-76050190D01*
X71325905Y-76526381D02*
X70849714Y-76526381D01*
X70849714Y-75526381D01*
X71659238Y-76002571D02*
X71992572Y-76002571D01*
X72135429Y-76526381D02*
X71659238Y-76526381D01*
X71659238Y-75526381D01*
X72135429Y-75526381D01*
X73135429Y-76526381D02*
X72802095Y-76050190D01*
X72564000Y-76526381D02*
X72564000Y-75526381D01*
X72944953Y-75526381D01*
X73040191Y-75574000D01*
X73087810Y-75621619D01*
X73135429Y-75716857D01*
X73135429Y-75859714D01*
X73087810Y-75954952D01*
X73040191Y-76002571D01*
X72944953Y-76050190D01*
X72564000Y-76050190D01*
X59968762Y-77652571D02*
X60111619Y-77700190D01*
X60159238Y-77747810D01*
X60206857Y-77843048D01*
X60206857Y-77985905D01*
X60159238Y-78081143D01*
X60111619Y-78128762D01*
X60016381Y-78176381D01*
X59635428Y-78176381D01*
X59635428Y-77176381D01*
X59968762Y-77176381D01*
X60064000Y-77224000D01*
X60111619Y-77271619D01*
X60159238Y-77366857D01*
X60159238Y-77462095D01*
X60111619Y-77557333D01*
X60064000Y-77604952D01*
X59968762Y-77652571D01*
X59635428Y-77652571D01*
X60825904Y-77700190D02*
X60825904Y-78176381D01*
X60492571Y-77176381D02*
X60825904Y-77700190D01*
X61159238Y-77176381D01*
X62254476Y-78176381D02*
X62254476Y-77176381D01*
X62492571Y-77176381D01*
X62635429Y-77224000D01*
X62730667Y-77319238D01*
X62778286Y-77414476D01*
X62825905Y-77604952D01*
X62825905Y-77747810D01*
X62778286Y-77938286D01*
X62730667Y-78033524D01*
X62635429Y-78128762D01*
X62492571Y-78176381D01*
X62254476Y-78176381D01*
X63206857Y-77890667D02*
X63683048Y-77890667D01*
X63111619Y-78176381D02*
X63444952Y-77176381D01*
X63778286Y-78176381D01*
X64111619Y-78176381D02*
X64111619Y-77176381D01*
X64683048Y-78176381D01*
X64683048Y-77176381D01*
X65921143Y-78176381D02*
X65921143Y-77176381D01*
X66254477Y-77890667D01*
X66587810Y-77176381D01*
X66587810Y-78176381D01*
X67016381Y-77890667D02*
X67492572Y-77890667D01*
X66921143Y-78176381D02*
X67254476Y-77176381D01*
X67587810Y-78176381D01*
X68492572Y-78176381D02*
X68159238Y-77700190D01*
X67921143Y-78176381D02*
X67921143Y-77176381D01*
X68302096Y-77176381D01*
X68397334Y-77224000D01*
X68444953Y-77271619D01*
X68492572Y-77366857D01*
X68492572Y-77509714D01*
X68444953Y-77604952D01*
X68397334Y-77652571D01*
X68302096Y-77700190D01*
X67921143Y-77700190D01*
X68921143Y-78176381D02*
X68921143Y-77176381D01*
X69492572Y-78176381D02*
X69064000Y-77604952D01*
X69492572Y-77176381D02*
X68921143Y-77747810D01*
X69873524Y-78128762D02*
X70016381Y-78176381D01*
X70254477Y-78176381D01*
X70349715Y-78128762D01*
X70397334Y-78081143D01*
X70444953Y-77985905D01*
X70444953Y-77890667D01*
X70397334Y-77795429D01*
X70349715Y-77747810D01*
X70254477Y-77700190D01*
X70064000Y-77652571D01*
X69968762Y-77604952D01*
X69921143Y-77557333D01*
X69873524Y-77462095D01*
X69873524Y-77366857D01*
X69921143Y-77271619D01*
X69968762Y-77224000D01*
X70064000Y-77176381D01*
X70302096Y-77176381D01*
X70444953Y-77224000D01*
X71635429Y-78176381D02*
X71635429Y-77176381D01*
X72206858Y-78176381D02*
X71778286Y-77604952D01*
X72206858Y-77176381D02*
X71635429Y-77747810D01*
X72540191Y-77176381D02*
X72778286Y-78176381D01*
X72968763Y-77462095D01*
X73159239Y-78176381D01*
X73397334Y-77176381D01*
X74206858Y-77509714D02*
X74206858Y-78176381D01*
X73968762Y-77128762D02*
X73730667Y-77843048D01*
X74349715Y-77843048D01*
X74587810Y-77176381D02*
X75159239Y-77176381D01*
X74873524Y-78176381D02*
X74873524Y-77176381D01*
X75492572Y-78176381D02*
X75492572Y-77176381D01*
X62730667Y-79731143D02*
X62683048Y-79778762D01*
X62540191Y-79826381D01*
X62444953Y-79826381D01*
X62302095Y-79778762D01*
X62206857Y-79683524D01*
X62159238Y-79588286D01*
X62111619Y-79397810D01*
X62111619Y-79254952D01*
X62159238Y-79064476D01*
X62206857Y-78969238D01*
X62302095Y-78874000D01*
X62444953Y-78826381D01*
X62540191Y-78826381D01*
X62683048Y-78874000D01*
X62730667Y-78921619D01*
X63730667Y-79731143D02*
X63683048Y-79778762D01*
X63540191Y-79826381D01*
X63444953Y-79826381D01*
X63302095Y-79778762D01*
X63206857Y-79683524D01*
X63159238Y-79588286D01*
X63111619Y-79397810D01*
X63111619Y-79254952D01*
X63159238Y-79064476D01*
X63206857Y-78969238D01*
X63302095Y-78874000D01*
X63444953Y-78826381D01*
X63540191Y-78826381D01*
X63683048Y-78874000D01*
X63730667Y-78921619D01*
X64159238Y-79445429D02*
X64921143Y-79445429D01*
X65730667Y-79302571D02*
X65873524Y-79350190D01*
X65921143Y-79397810D01*
X65968762Y-79493048D01*
X65968762Y-79635905D01*
X65921143Y-79731143D01*
X65873524Y-79778762D01*
X65778286Y-79826381D01*
X65397333Y-79826381D01*
X65397333Y-78826381D01*
X65730667Y-78826381D01*
X65825905Y-78874000D01*
X65873524Y-78921619D01*
X65921143Y-79016857D01*
X65921143Y-79112095D01*
X65873524Y-79207333D01*
X65825905Y-79254952D01*
X65730667Y-79302571D01*
X65397333Y-79302571D01*
X66587809Y-79350190D02*
X66587809Y-79826381D01*
X66254476Y-78826381D02*
X66587809Y-79350190D01*
X66921143Y-78826381D01*
X67254476Y-79445429D02*
X68016381Y-79445429D01*
X68444952Y-79778762D02*
X68587809Y-79826381D01*
X68825905Y-79826381D01*
X68921143Y-79778762D01*
X68968762Y-79731143D01*
X69016381Y-79635905D01*
X69016381Y-79540667D01*
X68968762Y-79445429D01*
X68921143Y-79397810D01*
X68825905Y-79350190D01*
X68635428Y-79302571D01*
X68540190Y-79254952D01*
X68492571Y-79207333D01*
X68444952Y-79112095D01*
X68444952Y-79016857D01*
X68492571Y-78921619D01*
X68540190Y-78874000D01*
X68635428Y-78826381D01*
X68873524Y-78826381D01*
X69016381Y-78874000D01*
X69397333Y-79540667D02*
X69873524Y-79540667D01*
X69302095Y-79826381D02*
X69635428Y-78826381D01*
X69968762Y-79826381D01*
X71492572Y-79159714D02*
X71492572Y-79826381D01*
X71254476Y-78778762D02*
X71016381Y-79493048D01*
X71635429Y-79493048D01*
X72016381Y-79731143D02*
X72064000Y-79778762D01*
X72016381Y-79826381D01*
X71968762Y-79778762D01*
X72016381Y-79731143D01*
X72016381Y-79826381D01*
X72683047Y-78826381D02*
X72778286Y-78826381D01*
X72873524Y-78874000D01*
X72921143Y-78921619D01*
X72968762Y-79016857D01*
X73016381Y-79207333D01*
X73016381Y-79445429D01*
X72968762Y-79635905D01*
X72921143Y-79731143D01*
X72873524Y-79778762D01*
X72778286Y-79826381D01*
X72683047Y-79826381D01*
X72587809Y-79778762D01*
X72540190Y-79731143D01*
X72492571Y-79635905D01*
X72444952Y-79445429D01*
X72444952Y-79207333D01*
X72492571Y-79016857D01*
X72540190Y-78921619D01*
X72587809Y-78874000D01*
X72683047Y-78826381D01*
X121124719Y-50706353D02*
X121600910Y-50373019D01*
X121124719Y-50134924D02*
X122124719Y-50134924D01*
X122124719Y-50515877D01*
X122077100Y-50611115D01*
X122029481Y-50658734D01*
X121934243Y-50706353D01*
X121791386Y-50706353D01*
X121696148Y-50658734D01*
X121648529Y-50611115D01*
X121600910Y-50515877D01*
X121600910Y-50134924D01*
X121648529Y-51468258D02*
X121648529Y-51134924D01*
X121124719Y-51134924D02*
X122124719Y-51134924D01*
X122124719Y-51611115D01*
X108466000Y-51473004D02*
X108418381Y-51568242D01*
X108418381Y-51711099D01*
X108466000Y-51853957D01*
X108561238Y-51949195D01*
X108656476Y-51996814D01*
X108846952Y-52044433D01*
X108989810Y-52044433D01*
X109180286Y-51996814D01*
X109275524Y-51949195D01*
X109370762Y-51853957D01*
X109418381Y-51711099D01*
X109418381Y-51615861D01*
X109370762Y-51473004D01*
X109323143Y-51425385D01*
X108989810Y-51425385D01*
X108989810Y-51615861D01*
X109418381Y-50996814D02*
X108418381Y-50996814D01*
X109418381Y-50425385D01*
X108418381Y-50425385D01*
X109418381Y-49949195D02*
X108418381Y-49949195D01*
X108418381Y-49711100D01*
X108466000Y-49568242D01*
X108561238Y-49473004D01*
X108656476Y-49425385D01*
X108846952Y-49377766D01*
X108989810Y-49377766D01*
X109180286Y-49425385D01*
X109275524Y-49473004D01*
X109370762Y-49568242D01*
X109418381Y-49711100D01*
X109418381Y-49949195D01*
X103952381Y-130619047D02*
X103476190Y-130952381D01*
X103952381Y-131190476D02*
X102952381Y-131190476D01*
X102952381Y-130809523D01*
X103000000Y-130714285D01*
X103047619Y-130666666D01*
X103142857Y-130619047D01*
X103285714Y-130619047D01*
X103380952Y-130666666D01*
X103428571Y-130714285D01*
X103476190Y-130809523D01*
X103476190Y-131190476D01*
X103428571Y-129857142D02*
X103428571Y-130190476D01*
X103952381Y-130190476D02*
X102952381Y-130190476D01*
X102952381Y-129714285D01*
X115500000Y-130761904D02*
X115452381Y-130857142D01*
X115452381Y-130999999D01*
X115500000Y-131142857D01*
X115595238Y-131238095D01*
X115690476Y-131285714D01*
X115880952Y-131333333D01*
X116023810Y-131333333D01*
X116214286Y-131285714D01*
X116309524Y-131238095D01*
X116404762Y-131142857D01*
X116452381Y-130999999D01*
X116452381Y-130904761D01*
X116404762Y-130761904D01*
X116357143Y-130714285D01*
X116023810Y-130714285D01*
X116023810Y-130904761D01*
X116452381Y-130285714D02*
X115452381Y-130285714D01*
X116452381Y-129714285D01*
X115452381Y-129714285D01*
X116452381Y-129238095D02*
X115452381Y-129238095D01*
X115452381Y-129000000D01*
X115500000Y-128857142D01*
X115595238Y-128761904D01*
X115690476Y-128714285D01*
X115880952Y-128666666D01*
X116023810Y-128666666D01*
X116214286Y-128714285D01*
X116309524Y-128761904D01*
X116404762Y-128857142D01*
X116452381Y-129000000D01*
X116452381Y-129238095D01*
X51380953Y-113952381D02*
X51047619Y-113476190D01*
X50809524Y-113952381D02*
X50809524Y-112952381D01*
X51190477Y-112952381D01*
X51285715Y-113000000D01*
X51333334Y-113047619D01*
X51380953Y-113142857D01*
X51380953Y-113285714D01*
X51333334Y-113380952D01*
X51285715Y-113428571D01*
X51190477Y-113476190D01*
X50809524Y-113476190D01*
X52142858Y-113428571D02*
X51809524Y-113428571D01*
X51809524Y-113952381D02*
X51809524Y-112952381D01*
X52285715Y-112952381D01*
X52761904Y-127000000D02*
X52857142Y-127047619D01*
X52999999Y-127047619D01*
X53142857Y-127000000D01*
X53238095Y-126904762D01*
X53285714Y-126809524D01*
X53333333Y-126619048D01*
X53333333Y-126476190D01*
X53285714Y-126285714D01*
X53238095Y-126190476D01*
X53142857Y-126095238D01*
X52999999Y-126047619D01*
X52904761Y-126047619D01*
X52761904Y-126095238D01*
X52714285Y-126142857D01*
X52714285Y-126476190D01*
X52904761Y-126476190D01*
X52285714Y-126047619D02*
X52285714Y-127047619D01*
X51714285Y-126047619D01*
X51714285Y-127047619D01*
X51238095Y-126047619D02*
X51238095Y-127047619D01*
X51000000Y-127047619D01*
X50857142Y-127000000D01*
X50761904Y-126904762D01*
X50714285Y-126809524D01*
X50666666Y-126619048D01*
X50666666Y-126476190D01*
X50714285Y-126285714D01*
X50761904Y-126190476D01*
X50857142Y-126095238D01*
X51000000Y-126047619D01*
X51238095Y-126047619D01*
X51880953Y-52952381D02*
X51547619Y-52476190D01*
X51309524Y-52952381D02*
X51309524Y-51952381D01*
X51690477Y-51952381D01*
X51785715Y-52000000D01*
X51833334Y-52047619D01*
X51880953Y-52142857D01*
X51880953Y-52285714D01*
X51833334Y-52380952D01*
X51785715Y-52428571D01*
X51690477Y-52476190D01*
X51309524Y-52476190D01*
X52642858Y-52428571D02*
X52309524Y-52428571D01*
X52309524Y-52952381D02*
X52309524Y-51952381D01*
X52785715Y-51952381D01*
X52761904Y-65500000D02*
X52857142Y-65547619D01*
X52999999Y-65547619D01*
X53142857Y-65500000D01*
X53238095Y-65404762D01*
X53285714Y-65309524D01*
X53333333Y-65119048D01*
X53333333Y-64976190D01*
X53285714Y-64785714D01*
X53238095Y-64690476D01*
X53142857Y-64595238D01*
X52999999Y-64547619D01*
X52904761Y-64547619D01*
X52761904Y-64595238D01*
X52714285Y-64642857D01*
X52714285Y-64976190D01*
X52904761Y-64976190D01*
X52285714Y-64547619D02*
X52285714Y-65547619D01*
X51714285Y-64547619D01*
X51714285Y-65547619D01*
X51238095Y-64547619D02*
X51238095Y-65547619D01*
X51000000Y-65547619D01*
X50857142Y-65500000D01*
X50761904Y-65404762D01*
X50714285Y-65309524D01*
X50666666Y-65119048D01*
X50666666Y-64976190D01*
X50714285Y-64785714D01*
X50761904Y-64690476D01*
X50857142Y-64595238D01*
X51000000Y-64547619D01*
X51238095Y-64547619D01*
X52261904Y-96000000D02*
X52357142Y-96047619D01*
X52499999Y-96047619D01*
X52642857Y-96000000D01*
X52738095Y-95904762D01*
X52785714Y-95809524D01*
X52833333Y-95619048D01*
X52833333Y-95476190D01*
X52785714Y-95285714D01*
X52738095Y-95190476D01*
X52642857Y-95095238D01*
X52499999Y-95047619D01*
X52404761Y-95047619D01*
X52261904Y-95095238D01*
X52214285Y-95142857D01*
X52214285Y-95476190D01*
X52404761Y-95476190D01*
X51785714Y-95047619D02*
X51785714Y-96047619D01*
X51214285Y-95047619D01*
X51214285Y-96047619D01*
X50738095Y-95047619D02*
X50738095Y-96047619D01*
X50500000Y-96047619D01*
X50357142Y-96000000D01*
X50261904Y-95904762D01*
X50214285Y-95809524D01*
X50166666Y-95619048D01*
X50166666Y-95476190D01*
X50214285Y-95285714D01*
X50261904Y-95190476D01*
X50357142Y-95095238D01*
X50500000Y-95047619D01*
X50738095Y-95047619D01*
X51380953Y-82952381D02*
X51047619Y-82476190D01*
X50809524Y-82952381D02*
X50809524Y-81952381D01*
X51190477Y-81952381D01*
X51285715Y-82000000D01*
X51333334Y-82047619D01*
X51380953Y-82142857D01*
X51380953Y-82285714D01*
X51333334Y-82380952D01*
X51285715Y-82428571D01*
X51190477Y-82476190D01*
X50809524Y-82476190D01*
X52142858Y-82428571D02*
X51809524Y-82428571D01*
X51809524Y-82952381D02*
X51809524Y-81952381D01*
X52285715Y-81952381D01*
D12*
X65060000Y-49374500D02*
X64730000Y-49374500D01*
X64730000Y-49374500D02*
X64730000Y-42954500D01*
X64730000Y-42954500D02*
X65060000Y-42954500D01*
X67020000Y-49374500D02*
X67350000Y-49374500D01*
X67350000Y-49374500D02*
X67350000Y-42954500D01*
X67350000Y-42954500D02*
X67020000Y-42954500D01*
X90075200Y-136019600D02*
X92195200Y-136019600D01*
X92195200Y-136019600D02*
X92195200Y-131899600D01*
X92195200Y-131899600D02*
X90075200Y-131899600D01*
X90075200Y-131899600D02*
X90075200Y-136019600D01*
X91135200Y-136789600D02*
X91135200Y-136019600D01*
X91135200Y-131129600D02*
X91135200Y-131899600D01*
X90075200Y-135359600D02*
X92195200Y-135359600D01*
D13*
X108043000Y-40843200D02*
X108043000Y-54543200D01*
X122843000Y-54543200D02*
X122843000Y-40843200D01*
X122843000Y-54543200D02*
X108043000Y-54543200D01*
X122843000Y-40843200D02*
X108043000Y-40843200D01*
D14*
X108458000Y-70002400D02*
X108458000Y-57556400D01*
X107950000Y-57556400D02*
X107950000Y-70002400D01*
X107442000Y-68986400D02*
G75*
G03X106426000Y-67970400I-1016000J0D01*
G01*
X106426000Y-70002400D02*
G75*
G03X107442000Y-68986400I0J1016000D01*
G01*
X106680000Y-59842400D02*
G75*
G03X107696000Y-58826400I0J1016000D01*
G01*
X107696000Y-58826400D02*
G75*
G03X106426000Y-57556400I-1270000J0D01*
G01*
X106426000Y-67970400D02*
G75*
G03X107442000Y-66954400I0J1016000D01*
G01*
X107442000Y-66954400D02*
G75*
G03X106426000Y-65938400I-1016000J0D01*
G01*
X107696000Y-64922400D02*
G75*
G03X106680000Y-63906400I-1016000J0D01*
G01*
X106680000Y-65938400D02*
G75*
G03X107696000Y-64922400I0J1016000D01*
G01*
X106680000Y-63906400D02*
G75*
G03X107696000Y-62890400I0J1016000D01*
G01*
X107696000Y-62890400D02*
G75*
G03X106680000Y-61874400I-1016000J0D01*
G01*
X106680000Y-61874400D02*
G75*
G03X107696000Y-60858400I0J1016000D01*
G01*
X107696000Y-60858400D02*
G75*
G03X106680000Y-59842400I-1016000J0D01*
G01*
X105410000Y-70002400D02*
X106426000Y-70002400D01*
X105410000Y-63906400D02*
X106426000Y-63906400D01*
X105410000Y-57556400D02*
X106426000Y-57556400D01*
D12*
X45286000Y-43000000D02*
G75*
G03X45286000Y-43000000I-2286000J0D01*
G01*
X139286000Y-43000000D02*
G75*
G03X139286000Y-43000000I-2286000J0D01*
G01*
X45286000Y-137000000D02*
G75*
G03X45286000Y-137000000I-2286000J0D01*
G01*
X139286000Y-137000000D02*
G75*
G03X139286000Y-137000000I-2286000J0D01*
G01*
X67858000Y-131004000D02*
X67858000Y-136124000D01*
X65238000Y-131004000D02*
X65238000Y-136124000D01*
X67858000Y-131004000D02*
X67544000Y-131004000D01*
X65552000Y-131004000D02*
X65238000Y-131004000D01*
X67858000Y-136124000D02*
X67544000Y-136124000D01*
X65552000Y-136124000D02*
X65238000Y-136124000D01*
X81015200Y-130206440D02*
X81015200Y-135326440D01*
X78395200Y-130206440D02*
X78395200Y-135326440D01*
X81015200Y-130206440D02*
X80701200Y-130206440D01*
X78709200Y-130206440D02*
X78395200Y-130206440D01*
X81015200Y-135326440D02*
X80701200Y-135326440D01*
X78709200Y-135326440D02*
X78395200Y-135326440D01*
X60924000Y-131537000D02*
X61254000Y-131537000D01*
X61254000Y-131537000D02*
X61254000Y-137957000D01*
X61254000Y-137957000D02*
X60924000Y-137957000D01*
X58964000Y-131537000D02*
X58634000Y-131537000D01*
X58634000Y-131537000D02*
X58634000Y-137957000D01*
X58634000Y-137957000D02*
X58964000Y-137957000D01*
X62393000Y-137957000D02*
X62063000Y-137957000D01*
X62063000Y-137957000D02*
X62063000Y-131537000D01*
X62063000Y-131537000D02*
X62393000Y-131537000D01*
X64353000Y-137957000D02*
X64683000Y-137957000D01*
X64683000Y-137957000D02*
X64683000Y-131537000D01*
X64683000Y-131537000D02*
X64353000Y-131537000D01*
X53296000Y-136934000D02*
X55416000Y-136934000D01*
X55416000Y-136934000D02*
X55416000Y-132814000D01*
X55416000Y-132814000D02*
X53296000Y-132814000D01*
X53296000Y-132814000D02*
X53296000Y-136934000D01*
X54356000Y-137704000D02*
X54356000Y-136934000D01*
X54356000Y-132044000D02*
X54356000Y-132814000D01*
X53296000Y-136274000D02*
X55416000Y-136274000D01*
D14*
X106476800Y-121666000D02*
X106476800Y-109220000D01*
X105968800Y-109220000D02*
X105968800Y-121666000D01*
X105460800Y-120650000D02*
G75*
G03X104444800Y-119634000I-1016000J0D01*
G01*
X104444800Y-121666000D02*
G75*
G03X105460800Y-120650000I0J1016000D01*
G01*
X104698800Y-111506000D02*
G75*
G03X105714800Y-110490000I0J1016000D01*
G01*
X105714800Y-110490000D02*
G75*
G03X104444800Y-109220000I-1270000J0D01*
G01*
X104444800Y-119634000D02*
G75*
G03X105460800Y-118618000I0J1016000D01*
G01*
X105460800Y-118618000D02*
G75*
G03X104444800Y-117602000I-1016000J0D01*
G01*
X105714800Y-116586000D02*
G75*
G03X104698800Y-115570000I-1016000J0D01*
G01*
X104698800Y-117602000D02*
G75*
G03X105714800Y-116586000I0J1016000D01*
G01*
X104698800Y-115570000D02*
G75*
G03X105714800Y-114554000I0J1016000D01*
G01*
X105714800Y-114554000D02*
G75*
G03X104698800Y-113538000I-1016000J0D01*
G01*
X104698800Y-113538000D02*
G75*
G03X105714800Y-112522000I0J1016000D01*
G01*
X105714800Y-112522000D02*
G75*
G03X104698800Y-111506000I-1016000J0D01*
G01*
X103428800Y-121666000D02*
X104444800Y-121666000D01*
X103428800Y-115570000D02*
X104444800Y-115570000D01*
X103428800Y-109220000D02*
X104444800Y-109220000D01*
X133477000Y-74422000D02*
X133477000Y-61976000D01*
X132969000Y-61976000D02*
X132969000Y-74422000D01*
X132461000Y-73406000D02*
G75*
G03X131445000Y-72390000I-1016000J0D01*
G01*
X131445000Y-74422000D02*
G75*
G03X132461000Y-73406000I0J1016000D01*
G01*
X131699000Y-64262000D02*
G75*
G03X132715000Y-63246000I0J1016000D01*
G01*
X132715000Y-63246000D02*
G75*
G03X131445000Y-61976000I-1270000J0D01*
G01*
X131445000Y-72390000D02*
G75*
G03X132461000Y-71374000I0J1016000D01*
G01*
X132461000Y-71374000D02*
G75*
G03X131445000Y-70358000I-1016000J0D01*
G01*
X132715000Y-69342000D02*
G75*
G03X131699000Y-68326000I-1016000J0D01*
G01*
X131699000Y-70358000D02*
G75*
G03X132715000Y-69342000I0J1016000D01*
G01*
X131699000Y-68326000D02*
G75*
G03X132715000Y-67310000I0J1016000D01*
G01*
X132715000Y-67310000D02*
G75*
G03X131699000Y-66294000I-1016000J0D01*
G01*
X131699000Y-66294000D02*
G75*
G03X132715000Y-65278000I0J1016000D01*
G01*
X132715000Y-65278000D02*
G75*
G03X131699000Y-64262000I-1016000J0D01*
G01*
X130429000Y-74422000D02*
X131445000Y-74422000D01*
X130429000Y-68326000D02*
X131445000Y-68326000D01*
X130429000Y-61976000D02*
X131445000Y-61976000D01*
X128143000Y-107696000D02*
X128143000Y-120142000D01*
X128651000Y-120142000D02*
X128651000Y-107696000D01*
X129159000Y-108712000D02*
G75*
G03X130175000Y-109728000I1016000J0D01*
G01*
X130175000Y-107696000D02*
G75*
G03X129159000Y-108712000I0J-1016000D01*
G01*
X129921000Y-117856000D02*
G75*
G03X128905000Y-118872000I0J-1016000D01*
G01*
X128905000Y-118872000D02*
G75*
G03X130175000Y-120142000I1270000J0D01*
G01*
X130175000Y-109728000D02*
G75*
G03X129159000Y-110744000I0J-1016000D01*
G01*
X129159000Y-110744000D02*
G75*
G03X130175000Y-111760000I1016000J0D01*
G01*
X128905000Y-112776000D02*
G75*
G03X129921000Y-113792000I1016000J0D01*
G01*
X129921000Y-111760000D02*
G75*
G03X128905000Y-112776000I0J-1016000D01*
G01*
X129921000Y-113792000D02*
G75*
G03X128905000Y-114808000I0J-1016000D01*
G01*
X128905000Y-114808000D02*
G75*
G03X129921000Y-115824000I1016000J0D01*
G01*
X129921000Y-115824000D02*
G75*
G03X128905000Y-116840000I0J-1016000D01*
G01*
X128905000Y-116840000D02*
G75*
G03X129921000Y-117856000I1016000J0D01*
G01*
X131191000Y-107696000D02*
X130175000Y-107696000D01*
X131191000Y-113792000D02*
X130175000Y-113792000D01*
X131191000Y-120142000D02*
X130175000Y-120142000D01*
X87503000Y-94869000D02*
X87503000Y-82423000D01*
X86995000Y-82423000D02*
X86995000Y-94869000D01*
X86487000Y-93853000D02*
G75*
G03X85471000Y-92837000I-1016000J0D01*
G01*
X85471000Y-94869000D02*
G75*
G03X86487000Y-93853000I0J1016000D01*
G01*
X85725000Y-84709000D02*
G75*
G03X86741000Y-83693000I0J1016000D01*
G01*
X86741000Y-83693000D02*
G75*
G03X85471000Y-82423000I-1270000J0D01*
G01*
X85471000Y-92837000D02*
G75*
G03X86487000Y-91821000I0J1016000D01*
G01*
X86487000Y-91821000D02*
G75*
G03X85471000Y-90805000I-1016000J0D01*
G01*
X86741000Y-89789000D02*
G75*
G03X85725000Y-88773000I-1016000J0D01*
G01*
X85725000Y-90805000D02*
G75*
G03X86741000Y-89789000I0J1016000D01*
G01*
X85725000Y-88773000D02*
G75*
G03X86741000Y-87757000I0J1016000D01*
G01*
X86741000Y-87757000D02*
G75*
G03X85725000Y-86741000I-1016000J0D01*
G01*
X85725000Y-86741000D02*
G75*
G03X86741000Y-85725000I0J1016000D01*
G01*
X86741000Y-85725000D02*
G75*
G03X85725000Y-84709000I-1016000J0D01*
G01*
X84455000Y-94869000D02*
X85471000Y-94869000D01*
X84455000Y-88773000D02*
X85471000Y-88773000D01*
X84455000Y-82423000D02*
X85471000Y-82423000D01*
X66827400Y-94945200D02*
X66827400Y-82499200D01*
X66319400Y-82499200D02*
X66319400Y-94945200D01*
X65811400Y-93929200D02*
G75*
G03X64795400Y-92913200I-1016000J0D01*
G01*
X64795400Y-94945200D02*
G75*
G03X65811400Y-93929200I0J1016000D01*
G01*
X65049400Y-84785200D02*
G75*
G03X66065400Y-83769200I0J1016000D01*
G01*
X66065400Y-83769200D02*
G75*
G03X64795400Y-82499200I-1270000J0D01*
G01*
X64795400Y-92913200D02*
G75*
G03X65811400Y-91897200I0J1016000D01*
G01*
X65811400Y-91897200D02*
G75*
G03X64795400Y-90881200I-1016000J0D01*
G01*
X66065400Y-89865200D02*
G75*
G03X65049400Y-88849200I-1016000J0D01*
G01*
X65049400Y-90881200D02*
G75*
G03X66065400Y-89865200I0J1016000D01*
G01*
X65049400Y-88849200D02*
G75*
G03X66065400Y-87833200I0J1016000D01*
G01*
X66065400Y-87833200D02*
G75*
G03X65049400Y-86817200I-1016000J0D01*
G01*
X65049400Y-86817200D02*
G75*
G03X66065400Y-85801200I0J1016000D01*
G01*
X66065400Y-85801200D02*
G75*
G03X65049400Y-84785200I-1016000J0D01*
G01*
X63779400Y-94945200D02*
X64795400Y-94945200D01*
X63779400Y-88849200D02*
X64795400Y-88849200D01*
X63779400Y-82499200D02*
X64795400Y-82499200D01*
D12*
X84034000Y-47304000D02*
X84034000Y-42184000D01*
X86654000Y-47304000D02*
X86654000Y-42184000D01*
X84034000Y-47304000D02*
X84348000Y-47304000D01*
X86340000Y-47304000D02*
X86654000Y-47304000D01*
X84034000Y-42184000D02*
X84348000Y-42184000D01*
X86340000Y-42184000D02*
X86654000Y-42184000D01*
X83054500Y-42548500D02*
X80394500Y-42548500D01*
X83054500Y-45148500D02*
X83054500Y-42548500D01*
X80394500Y-45148500D02*
X80394500Y-42548500D01*
X83054500Y-45148500D02*
X80394500Y-45148500D01*
X83054500Y-46418500D02*
X83054500Y-47748500D01*
X83054500Y-47748500D02*
X81724500Y-47748500D01*
X76831500Y-42675500D02*
X74171500Y-42675500D01*
X76831500Y-45275500D02*
X76831500Y-42675500D01*
X74171500Y-45275500D02*
X74171500Y-42675500D01*
X76831500Y-45275500D02*
X74171500Y-45275500D01*
X76831500Y-46545500D02*
X76831500Y-47875500D01*
X76831500Y-47875500D02*
X75501500Y-47875500D01*
X89372000Y-42408400D02*
X89702000Y-42408400D01*
X89702000Y-42408400D02*
X89702000Y-48828400D01*
X89702000Y-48828400D02*
X89372000Y-48828400D01*
X87412000Y-42408400D02*
X87082000Y-42408400D01*
X87082000Y-42408400D02*
X87082000Y-48828400D01*
X87082000Y-48828400D02*
X87412000Y-48828400D01*
X70195000Y-42954500D02*
X70525000Y-42954500D01*
X70525000Y-42954500D02*
X70525000Y-49374500D01*
X70525000Y-49374500D02*
X70195000Y-49374500D01*
X68235000Y-42954500D02*
X67905000Y-42954500D01*
X67905000Y-42954500D02*
X67905000Y-49374500D01*
X67905000Y-49374500D02*
X68235000Y-49374500D01*
X90460000Y-48879200D02*
X90130000Y-48879200D01*
X90130000Y-48879200D02*
X90130000Y-42459200D01*
X90130000Y-42459200D02*
X90460000Y-42459200D01*
X92420000Y-48879200D02*
X92750000Y-48879200D01*
X92750000Y-48879200D02*
X92750000Y-42459200D01*
X92750000Y-42459200D02*
X92420000Y-42459200D01*
X97935600Y-43558400D02*
X95815600Y-43558400D01*
X95815600Y-43558400D02*
X95815600Y-47678400D01*
X95815600Y-47678400D02*
X97935600Y-47678400D01*
X97935600Y-47678400D02*
X97935600Y-43558400D01*
X96875600Y-42788400D02*
X96875600Y-43558400D01*
X96875600Y-48448400D02*
X96875600Y-47678400D01*
X97935600Y-44218400D02*
X95815600Y-44218400D01*
X61702500Y-43977500D02*
X59582500Y-43977500D01*
X59582500Y-43977500D02*
X59582500Y-48097500D01*
X59582500Y-48097500D02*
X61702500Y-48097500D01*
X61702500Y-48097500D02*
X61702500Y-43977500D01*
X60642500Y-43207500D02*
X60642500Y-43977500D01*
X60642500Y-48867500D02*
X60642500Y-48097500D01*
X61702500Y-44637500D02*
X59582500Y-44637500D01*
X95395600Y-43609200D02*
X93275600Y-43609200D01*
X93275600Y-43609200D02*
X93275600Y-47729200D01*
X93275600Y-47729200D02*
X95395600Y-47729200D01*
X95395600Y-47729200D02*
X95395600Y-43609200D01*
X94335600Y-42839200D02*
X94335600Y-43609200D01*
X94335600Y-48499200D02*
X94335600Y-47729200D01*
X95395600Y-44269200D02*
X93275600Y-44269200D01*
X64306000Y-44104500D02*
X62186000Y-44104500D01*
X62186000Y-44104500D02*
X62186000Y-48224500D01*
X62186000Y-48224500D02*
X64306000Y-48224500D01*
X64306000Y-48224500D02*
X64306000Y-44104500D01*
X63246000Y-43334500D02*
X63246000Y-44104500D01*
X63246000Y-48994500D02*
X63246000Y-48224500D01*
X64306000Y-44764500D02*
X62186000Y-44764500D01*
X55836000Y-136934000D02*
X57956000Y-136934000D01*
X57956000Y-136934000D02*
X57956000Y-132814000D01*
X57956000Y-132814000D02*
X55836000Y-132814000D01*
X55836000Y-132814000D02*
X55836000Y-136934000D01*
X56896000Y-137704000D02*
X56896000Y-136934000D01*
X56896000Y-132044000D02*
X56896000Y-132814000D01*
X55836000Y-136274000D02*
X57956000Y-136274000D01*
X87484400Y-136019600D02*
X89604400Y-136019600D01*
X89604400Y-136019600D02*
X89604400Y-131899600D01*
X89604400Y-131899600D02*
X87484400Y-131899600D01*
X87484400Y-131899600D02*
X87484400Y-136019600D01*
X88544400Y-136789600D02*
X88544400Y-136019600D01*
X88544400Y-131129600D02*
X88544400Y-131899600D01*
X87484400Y-135359600D02*
X89604400Y-135359600D01*
X50028800Y-133867200D02*
X52688800Y-133867200D01*
X50028800Y-131267200D02*
X50028800Y-133867200D01*
X52688800Y-131267200D02*
X52688800Y-133867200D01*
X50028800Y-131267200D02*
X52688800Y-131267200D01*
X50028800Y-129997200D02*
X50028800Y-128667200D01*
X50028800Y-128667200D02*
X51358800Y-128667200D01*
X71307000Y-130369000D02*
X68647000Y-130369000D01*
X71307000Y-132969000D02*
X71307000Y-130369000D01*
X68647000Y-132969000D02*
X68647000Y-130369000D01*
X71307000Y-132969000D02*
X68647000Y-132969000D01*
X71307000Y-134239000D02*
X71307000Y-135569000D01*
X71307000Y-135569000D02*
X69977000Y-135569000D01*
X77872900Y-130089600D02*
X75212900Y-130089600D01*
X77872900Y-132689600D02*
X77872900Y-130089600D01*
X75212900Y-132689600D02*
X75212900Y-130089600D01*
X77872900Y-132689600D02*
X75212900Y-132689600D01*
X77872900Y-133959600D02*
X77872900Y-135289600D01*
X77872900Y-135289600D02*
X76542900Y-135289600D01*
X86745640Y-130673400D02*
X87075640Y-130673400D01*
X87075640Y-130673400D02*
X87075640Y-137093400D01*
X87075640Y-137093400D02*
X86745640Y-137093400D01*
X84785640Y-130673400D02*
X84455640Y-130673400D01*
X84455640Y-130673400D02*
X84455640Y-137093400D01*
X84455640Y-137093400D02*
X84785640Y-137093400D01*
X81697000Y-137134040D02*
X81367000Y-137134040D01*
X81367000Y-137134040D02*
X81367000Y-130714040D01*
X81367000Y-130714040D02*
X81697000Y-130714040D01*
X83657000Y-137134040D02*
X83987000Y-137134040D01*
X83987000Y-137134040D02*
X83987000Y-130714040D01*
X83987000Y-130714040D02*
X83657000Y-130714040D01*
X55947000Y-51164800D02*
X58607000Y-51164800D01*
X55947000Y-48564800D02*
X55947000Y-51164800D01*
X58607000Y-48564800D02*
X58607000Y-51164800D01*
X55947000Y-48564800D02*
X58607000Y-48564800D01*
X55947000Y-47294800D02*
X55947000Y-45964800D01*
X55947000Y-45964800D02*
X57277000Y-45964800D01*
X95423500Y-110979100D02*
X95903500Y-110979100D01*
X95903500Y-110979100D02*
X95903500Y-120999100D01*
X95903500Y-120999100D02*
X95423500Y-120999100D01*
X92663500Y-110979100D02*
X92183500Y-110979100D01*
X92183500Y-110979100D02*
X92183500Y-120999100D01*
X92183500Y-120999100D02*
X92663500Y-120999100D01*
X91575400Y-111029900D02*
X92055400Y-111029900D01*
X92055400Y-111029900D02*
X92055400Y-121049900D01*
X92055400Y-121049900D02*
X91575400Y-121049900D01*
X88815400Y-111029900D02*
X88335400Y-111029900D01*
X88335400Y-111029900D02*
X88335400Y-121049900D01*
X88335400Y-121049900D02*
X88815400Y-121049900D01*
X87663800Y-111029900D02*
X88143800Y-111029900D01*
X88143800Y-111029900D02*
X88143800Y-121049900D01*
X88143800Y-121049900D02*
X87663800Y-121049900D01*
X84903800Y-111029900D02*
X84423800Y-111029900D01*
X84423800Y-111029900D02*
X84423800Y-121049900D01*
X84423800Y-121049900D02*
X84903800Y-121049900D01*
X83803000Y-111029900D02*
X84283000Y-111029900D01*
X84283000Y-111029900D02*
X84283000Y-121049900D01*
X84283000Y-121049900D02*
X83803000Y-121049900D01*
X81043000Y-111029900D02*
X80563000Y-111029900D01*
X80563000Y-111029900D02*
X80563000Y-121049900D01*
X80563000Y-121049900D02*
X81043000Y-121049900D01*
X58936400Y-111144200D02*
X59416400Y-111144200D01*
X59416400Y-111144200D02*
X59416400Y-121164200D01*
X59416400Y-121164200D02*
X58936400Y-121164200D01*
X56176400Y-111144200D02*
X55696400Y-111144200D01*
X55696400Y-111144200D02*
X55696400Y-121164200D01*
X55696400Y-121164200D02*
X56176400Y-121164200D01*
X79612000Y-111093400D02*
X80092000Y-111093400D01*
X80092000Y-111093400D02*
X80092000Y-121113400D01*
X80092000Y-121113400D02*
X79612000Y-121113400D01*
X76852000Y-111093400D02*
X76372000Y-111093400D01*
X76372000Y-111093400D02*
X76372000Y-121113400D01*
X76372000Y-121113400D02*
X76852000Y-121113400D01*
X75814700Y-111195000D02*
X76294700Y-111195000D01*
X76294700Y-111195000D02*
X76294700Y-121215000D01*
X76294700Y-121215000D02*
X75814700Y-121215000D01*
X73054700Y-111195000D02*
X72574700Y-111195000D01*
X72574700Y-111195000D02*
X72574700Y-121215000D01*
X72574700Y-121215000D02*
X73054700Y-121215000D01*
X71623700Y-111258500D02*
X72103700Y-111258500D01*
X72103700Y-111258500D02*
X72103700Y-121278500D01*
X72103700Y-121278500D02*
X71623700Y-121278500D01*
X68863700Y-111258500D02*
X68383700Y-111258500D01*
X68383700Y-111258500D02*
X68383700Y-121278500D01*
X68383700Y-121278500D02*
X68863700Y-121278500D01*
X63127400Y-111195000D02*
X63607400Y-111195000D01*
X63607400Y-111195000D02*
X63607400Y-121215000D01*
X63607400Y-121215000D02*
X63127400Y-121215000D01*
X60367400Y-111195000D02*
X59887400Y-111195000D01*
X59887400Y-111195000D02*
X59887400Y-121215000D01*
X59887400Y-121215000D02*
X60367400Y-121215000D01*
X67318400Y-111258500D02*
X67798400Y-111258500D01*
X67798400Y-111258500D02*
X67798400Y-121278500D01*
X67798400Y-121278500D02*
X67318400Y-121278500D01*
X64558400Y-111258500D02*
X64078400Y-111258500D01*
X64078400Y-111258500D02*
X64078400Y-121278500D01*
X64078400Y-121278500D02*
X64558400Y-121278500D01*
X97214200Y-83539480D02*
X97694200Y-83539480D01*
X97694200Y-83539480D02*
X97694200Y-93559480D01*
X97694200Y-93559480D02*
X97214200Y-93559480D01*
X94454200Y-83539480D02*
X93974200Y-83539480D01*
X93974200Y-83539480D02*
X93974200Y-93559480D01*
X93974200Y-93559480D02*
X94454200Y-93559480D01*
X101293440Y-83595360D02*
X101773440Y-83595360D01*
X101773440Y-83595360D02*
X101773440Y-93615360D01*
X101773440Y-93615360D02*
X101293440Y-93615360D01*
X98533440Y-83595360D02*
X98053440Y-83595360D01*
X98053440Y-83595360D02*
X98053440Y-93615360D01*
X98053440Y-93615360D02*
X98533440Y-93615360D01*
X105372680Y-83539480D02*
X105852680Y-83539480D01*
X105852680Y-83539480D02*
X105852680Y-93559480D01*
X105852680Y-93559480D02*
X105372680Y-93559480D01*
X102612680Y-83539480D02*
X102132680Y-83539480D01*
X102132680Y-83539480D02*
X102132680Y-93559480D01*
X102132680Y-93559480D02*
X102612680Y-93559480D01*
X109507800Y-83483600D02*
X109987800Y-83483600D01*
X109987800Y-83483600D02*
X109987800Y-93503600D01*
X109987800Y-93503600D02*
X109507800Y-93503600D01*
X106747800Y-83483600D02*
X106267800Y-83483600D01*
X106267800Y-83483600D02*
X106267800Y-93503600D01*
X106267800Y-93503600D02*
X106747800Y-93503600D01*
X113660700Y-83394700D02*
X114140700Y-83394700D01*
X114140700Y-83394700D02*
X114140700Y-93414700D01*
X114140700Y-93414700D02*
X113660700Y-93414700D01*
X110900700Y-83394700D02*
X110420700Y-83394700D01*
X110420700Y-83394700D02*
X110420700Y-93414700D01*
X110420700Y-93414700D02*
X110900700Y-93414700D01*
X117927900Y-83394700D02*
X118407900Y-83394700D01*
X118407900Y-83394700D02*
X118407900Y-93414700D01*
X118407900Y-93414700D02*
X117927900Y-93414700D01*
X115167900Y-83394700D02*
X114687900Y-83394700D01*
X114687900Y-83394700D02*
X114687900Y-93414700D01*
X114687900Y-93414700D02*
X115167900Y-93414700D01*
X121839500Y-83483600D02*
X122319500Y-83483600D01*
X122319500Y-83483600D02*
X122319500Y-93503600D01*
X122319500Y-93503600D02*
X121839500Y-93503600D01*
X119079500Y-83483600D02*
X118599500Y-83483600D01*
X118599500Y-83483600D02*
X118599500Y-93503600D01*
X118599500Y-93503600D02*
X119079500Y-93503600D01*
X125840000Y-83394700D02*
X126320000Y-83394700D01*
X126320000Y-83394700D02*
X126320000Y-93414700D01*
X126320000Y-93414700D02*
X125840000Y-93414700D01*
X123080000Y-83394700D02*
X122600000Y-83394700D01*
X122600000Y-83394700D02*
X122600000Y-93414700D01*
X122600000Y-93414700D02*
X123080000Y-93414700D01*
X129840500Y-83394700D02*
X130320500Y-83394700D01*
X130320500Y-83394700D02*
X130320500Y-93414700D01*
X130320500Y-93414700D02*
X129840500Y-93414700D01*
X127080500Y-83394700D02*
X126600500Y-83394700D01*
X126600500Y-83394700D02*
X126600500Y-93414700D01*
X126600500Y-93414700D02*
X127080500Y-93414700D01*
X133841000Y-83394700D02*
X134321000Y-83394700D01*
X134321000Y-83394700D02*
X134321000Y-93414700D01*
X134321000Y-93414700D02*
X133841000Y-93414700D01*
X131081000Y-83394700D02*
X130601000Y-83394700D01*
X130601000Y-83394700D02*
X130601000Y-93414700D01*
X130601000Y-93414700D02*
X131081000Y-93414700D01*
X97303100Y-59125000D02*
X97783100Y-59125000D01*
X97783100Y-59125000D02*
X97783100Y-69145000D01*
X97783100Y-69145000D02*
X97303100Y-69145000D01*
X94543100Y-59125000D02*
X94063100Y-59125000D01*
X94063100Y-59125000D02*
X94063100Y-69145000D01*
X94063100Y-69145000D02*
X94543100Y-69145000D01*
X92934300Y-59099600D02*
X93414300Y-59099600D01*
X93414300Y-59099600D02*
X93414300Y-69119600D01*
X93414300Y-69119600D02*
X92934300Y-69119600D01*
X90174300Y-59099600D02*
X89694300Y-59099600D01*
X89694300Y-59099600D02*
X89694300Y-69119600D01*
X89694300Y-69119600D02*
X90174300Y-69119600D01*
X88933800Y-59175800D02*
X89413800Y-59175800D01*
X89413800Y-59175800D02*
X89413800Y-69195800D01*
X89413800Y-69195800D02*
X88933800Y-69195800D01*
X86173800Y-59175800D02*
X85693800Y-59175800D01*
X85693800Y-59175800D02*
X85693800Y-69195800D01*
X85693800Y-69195800D02*
X86173800Y-69195800D01*
X84780900Y-59213900D02*
X85260900Y-59213900D01*
X85260900Y-59213900D02*
X85260900Y-69233900D01*
X85260900Y-69233900D02*
X84780900Y-69233900D01*
X82020900Y-59213900D02*
X81540900Y-59213900D01*
X81540900Y-59213900D02*
X81540900Y-69233900D01*
X81540900Y-69233900D02*
X82020900Y-69233900D01*
X80678800Y-59125000D02*
X81158800Y-59125000D01*
X81158800Y-59125000D02*
X81158800Y-69145000D01*
X81158800Y-69145000D02*
X80678800Y-69145000D01*
X77918800Y-59125000D02*
X77438800Y-59125000D01*
X77438800Y-59125000D02*
X77438800Y-69145000D01*
X77438800Y-69145000D02*
X77918800Y-69145000D01*
X76500500Y-59125000D02*
X76980500Y-59125000D01*
X76980500Y-59125000D02*
X76980500Y-69145000D01*
X76980500Y-69145000D02*
X76500500Y-69145000D01*
X73740500Y-59125000D02*
X73260500Y-59125000D01*
X73260500Y-59125000D02*
X73260500Y-69145000D01*
X73260500Y-69145000D02*
X73740500Y-69145000D01*
X72588900Y-59125000D02*
X73068900Y-59125000D01*
X73068900Y-59125000D02*
X73068900Y-69145000D01*
X73068900Y-69145000D02*
X72588900Y-69145000D01*
X69828900Y-59125000D02*
X69348900Y-59125000D01*
X69348900Y-59125000D02*
X69348900Y-69145000D01*
X69348900Y-69145000D02*
X69828900Y-69145000D01*
X68588400Y-59125000D02*
X69068400Y-59125000D01*
X69068400Y-59125000D02*
X69068400Y-69145000D01*
X69068400Y-69145000D02*
X68588400Y-69145000D01*
X65828400Y-59125000D02*
X65348400Y-59125000D01*
X65348400Y-59125000D02*
X65348400Y-69145000D01*
X65348400Y-69145000D02*
X65828400Y-69145000D01*
X64499000Y-59125000D02*
X64979000Y-59125000D01*
X64979000Y-59125000D02*
X64979000Y-69145000D01*
X64979000Y-69145000D02*
X64499000Y-69145000D01*
X61739000Y-59125000D02*
X61259000Y-59125000D01*
X61259000Y-59125000D02*
X61259000Y-69145000D01*
X61259000Y-69145000D02*
X61739000Y-69145000D01*
X60409600Y-59213900D02*
X60889600Y-59213900D01*
X60889600Y-59213900D02*
X60889600Y-69233900D01*
X60889600Y-69233900D02*
X60409600Y-69233900D01*
X57649600Y-59213900D02*
X57169600Y-59213900D01*
X57169600Y-59213900D02*
X57169600Y-69233900D01*
X57169600Y-69233900D02*
X57649600Y-69233900D01*
X130489000Y-53534000D02*
X127829000Y-53534000D01*
X130489000Y-56134000D02*
X130489000Y-53534000D01*
X127829000Y-56134000D02*
X127829000Y-53534000D01*
X130489000Y-56134000D02*
X127829000Y-56134000D01*
X130489000Y-57404000D02*
X130489000Y-58734000D01*
X130489000Y-58734000D02*
X129159000Y-58734000D01*
X98441200Y-53349200D02*
X101101200Y-53349200D01*
X98441200Y-50749200D02*
X98441200Y-53349200D01*
X101101200Y-50749200D02*
X101101200Y-53349200D01*
X98441200Y-50749200D02*
X101101200Y-50749200D01*
X98441200Y-49479200D02*
X98441200Y-48149200D01*
X98441200Y-48149200D02*
X99771200Y-48149200D01*
X92771920Y-132226360D02*
X95431920Y-132226360D01*
X92771920Y-129626360D02*
X92771920Y-132226360D01*
X95431920Y-129626360D02*
X95431920Y-132226360D01*
X92771920Y-129626360D02*
X95431920Y-129626360D01*
X92771920Y-128356360D02*
X92771920Y-127026360D01*
X92771920Y-127026360D02*
X94101920Y-127026360D01*
X138045500Y-115129000D02*
X135385500Y-115129000D01*
X138045500Y-117729000D02*
X138045500Y-115129000D01*
X135385500Y-117729000D02*
X135385500Y-115129000D01*
X138045500Y-117729000D02*
X135385500Y-117729000D01*
X138045500Y-118999000D02*
X138045500Y-120329000D01*
X138045500Y-120329000D02*
X136715500Y-120329000D01*
X126044000Y-103545000D02*
X120924000Y-103545000D01*
X126044000Y-100925000D02*
X120924000Y-100925000D01*
X126044000Y-103545000D02*
X126044000Y-103231000D01*
X126044000Y-101239000D02*
X126044000Y-100925000D01*
X120924000Y-103545000D02*
X120924000Y-103231000D01*
X120924000Y-101239000D02*
X120924000Y-100925000D01*
X134897500Y-81467000D02*
X134897500Y-76347000D01*
X137517500Y-81467000D02*
X137517500Y-76347000D01*
X134897500Y-81467000D02*
X135211500Y-81467000D01*
X137203500Y-81467000D02*
X137517500Y-81467000D01*
X134897500Y-76347000D02*
X135211500Y-76347000D01*
X137203500Y-76347000D02*
X137517500Y-76347000D01*
X54824000Y-82610000D02*
X54824000Y-77490000D01*
X57444000Y-82610000D02*
X57444000Y-77490000D01*
X54824000Y-82610000D02*
X55138000Y-82610000D01*
X57130000Y-82610000D02*
X57444000Y-82610000D01*
X54824000Y-77490000D02*
X55138000Y-77490000D01*
X57130000Y-77490000D02*
X57444000Y-77490000D01*
X75732000Y-91380000D02*
X75732000Y-96500000D01*
X73112000Y-91380000D02*
X73112000Y-96500000D01*
X75732000Y-91380000D02*
X75418000Y-91380000D01*
X73426000Y-91380000D02*
X73112000Y-91380000D01*
X75732000Y-96500000D02*
X75418000Y-96500000D01*
X73426000Y-96500000D02*
X73112000Y-96500000D01*
X117308000Y-113090000D02*
X117308000Y-107970000D01*
X119928000Y-113090000D02*
X119928000Y-107970000D01*
X117308000Y-113090000D02*
X117622000Y-113090000D01*
X119614000Y-113090000D02*
X119928000Y-113090000D01*
X117308000Y-107970000D02*
X117622000Y-107970000D01*
X119614000Y-107970000D02*
X119928000Y-107970000D01*
X120944000Y-64710000D02*
X120944000Y-69830000D01*
X118324000Y-64710000D02*
X118324000Y-69830000D01*
X120944000Y-64710000D02*
X120630000Y-64710000D01*
X118638000Y-64710000D02*
X118324000Y-64710000D01*
X120944000Y-69830000D02*
X120630000Y-69830000D01*
X118638000Y-69830000D02*
X118324000Y-69830000D01*
X137200000Y-86300000D02*
X137200000Y-91420000D01*
X134580000Y-86300000D02*
X134580000Y-91420000D01*
X137200000Y-86300000D02*
X136886000Y-86300000D01*
X134894000Y-86300000D02*
X134580000Y-86300000D01*
X137200000Y-91420000D02*
X136886000Y-91420000D01*
X134894000Y-91420000D02*
X134580000Y-91420000D01*
X56328000Y-124166000D02*
X61448000Y-124166000D01*
X56328000Y-126786000D02*
X61448000Y-126786000D01*
X56328000Y-124166000D02*
X56328000Y-124480000D01*
X56328000Y-126472000D02*
X56328000Y-126786000D01*
X61448000Y-124166000D02*
X61448000Y-124480000D01*
X61448000Y-126472000D02*
X61448000Y-126786000D01*
X61274000Y-55412000D02*
X56154000Y-55412000D01*
X61274000Y-52792000D02*
X56154000Y-52792000D01*
X61274000Y-55412000D02*
X61274000Y-55098000D01*
X61274000Y-53106000D02*
X61274000Y-52792000D01*
X56154000Y-55412000D02*
X56154000Y-55098000D01*
X56154000Y-53106000D02*
X56154000Y-52792000D01*
X56021600Y-67986600D02*
X56021600Y-73106600D01*
X53401600Y-67986600D02*
X53401600Y-73106600D01*
X56021600Y-67986600D02*
X55707600Y-67986600D01*
X53715600Y-67986600D02*
X53401600Y-67986600D01*
X56021600Y-73106600D02*
X55707600Y-73106600D01*
X53715600Y-73106600D02*
X53401600Y-73106600D01*
X105270300Y-44577000D02*
G75*
G03X105270300Y-44577000I-2286000J0D01*
G01*
X47498000Y-77266800D02*
G75*
G03X47498000Y-77266800I-2286000J0D01*
G01*
X46228000Y-107124500D02*
G75*
G03X46228000Y-107124500I-2286000J0D01*
G01*
X46393100Y-100139500D02*
G75*
G03X46393100Y-100139500I-2286000J0D01*
G01*
X98771080Y-131799640D02*
X98771080Y-126679640D01*
X101391080Y-131799640D02*
X101391080Y-126679640D01*
X98771080Y-131799640D02*
X99085080Y-131799640D01*
X101077080Y-131799640D02*
X101391080Y-131799640D01*
X98771080Y-126679640D02*
X99085080Y-126679640D01*
X101077080Y-126679640D02*
X101391080Y-126679640D01*
X107342300Y-48174600D02*
X107342300Y-53294600D01*
X104722300Y-48174600D02*
X104722300Y-53294600D01*
X107342300Y-48174600D02*
X107028300Y-48174600D01*
X105036300Y-48174600D02*
X104722300Y-48174600D01*
X107342300Y-53294600D02*
X107028300Y-53294600D01*
X105036300Y-53294600D02*
X104722300Y-53294600D01*
X49025500Y-109243500D02*
X54145500Y-109243500D01*
X49025500Y-111863500D02*
X54145500Y-111863500D01*
X49025500Y-109243500D02*
X49025500Y-109557500D01*
X49025500Y-111549500D02*
X49025500Y-111863500D01*
X54145500Y-109243500D02*
X54145500Y-109557500D01*
X54145500Y-111549500D02*
X54145500Y-111863500D01*
X100700840Y-135483600D02*
G75*
G03X100700840Y-135483600I-2286000J0D01*
G01*
X47447200Y-70662800D02*
G75*
G03X47447200Y-70662800I-2286000J0D01*
G01*
D13*
X40792400Y-96452400D02*
X54492400Y-96452400D01*
X54492400Y-81652400D02*
X40792400Y-81652400D01*
X54492400Y-81652400D02*
X54492400Y-96452400D01*
X40792400Y-81652400D02*
X40792400Y-96452400D01*
X41122600Y-66353400D02*
X54822600Y-66353400D01*
X54822600Y-51553400D02*
X41122600Y-51553400D01*
X54822600Y-51553400D02*
X54822600Y-66353400D01*
X41122600Y-51553400D02*
X41122600Y-66353400D01*
X40386000Y-127465800D02*
X54086000Y-127465800D01*
X54086000Y-112665800D02*
X40386000Y-112665800D01*
X54086000Y-112665800D02*
X54086000Y-127465800D01*
X40386000Y-112665800D02*
X40386000Y-127465800D01*
X117400000Y-140000000D02*
X117400000Y-126300000D01*
X102600000Y-126300000D02*
X102600000Y-140000000D01*
X102600000Y-126300000D02*
X117400000Y-126300000D01*
X102600000Y-140000000D02*
X117400000Y-140000000D01*
D12*
X128193800Y-130581400D02*
G75*
G03X128193800Y-130581400I-2286000J0D01*
G01*
X128244600Y-137007600D02*
G75*
G03X128244600Y-137007600I-2286000J0D01*
G01*
X129743200Y-49631600D02*
G75*
G03X129743200Y-49631600I-2286000J0D01*
G01*
X129603500Y-43370500D02*
G75*
G03X129603500Y-43370500I-2286000J0D01*
G01*
X137033000Y-122364500D02*
X137033000Y-132524500D01*
X138303000Y-122364500D02*
X130683000Y-122364500D01*
X130683000Y-122364500D02*
X130683000Y-132524500D01*
X130683000Y-132524500D02*
X138303000Y-132524500D01*
X138303000Y-132524500D02*
X138303000Y-122364500D01*
X137223500Y-48450500D02*
X137223500Y-58610500D01*
X138493500Y-48450500D02*
X130873500Y-48450500D01*
X130873500Y-48450500D02*
X130873500Y-58610500D01*
X130873500Y-58610500D02*
X138493500Y-58610500D01*
X138493500Y-58610500D02*
X138493500Y-48450500D01*
X121452000Y-133290000D02*
X121452000Y-138410000D01*
X118832000Y-133290000D02*
X118832000Y-138410000D01*
X121452000Y-133290000D02*
X121138000Y-133290000D01*
X119146000Y-133290000D02*
X118832000Y-133290000D01*
X121452000Y-138410000D02*
X121138000Y-138410000D01*
X119146000Y-138410000D02*
X118832000Y-138410000D01*
X132691500Y-41977000D02*
X132691500Y-47097000D01*
X130071500Y-41977000D02*
X130071500Y-47097000D01*
X132691500Y-41977000D02*
X132377500Y-41977000D01*
X130385500Y-41977000D02*
X130071500Y-41977000D01*
X132691500Y-47097000D02*
X132377500Y-47097000D01*
X130385500Y-47097000D02*
X130071500Y-47097000D01*
X70953000Y-47367500D02*
X70953000Y-42247500D01*
X73573000Y-47367500D02*
X73573000Y-42247500D01*
X70953000Y-47367500D02*
X71267000Y-47367500D01*
X73259000Y-47367500D02*
X73573000Y-47367500D01*
X70953000Y-42247500D02*
X71267000Y-42247500D01*
X73259000Y-42247500D02*
X73573000Y-42247500D01*
X104383200Y-48352400D02*
X104383200Y-53472400D01*
X101763200Y-48352400D02*
X101763200Y-53472400D01*
X104383200Y-48352400D02*
X104069200Y-48352400D01*
X102077200Y-48352400D02*
X101763200Y-48352400D01*
X104383200Y-53472400D02*
X104069200Y-53472400D01*
X102077200Y-53472400D02*
X101763200Y-53472400D01*
X52846600Y-67986600D02*
X52846600Y-73106600D01*
X50226600Y-67986600D02*
X50226600Y-73106600D01*
X52846600Y-67986600D02*
X52532600Y-67986600D01*
X50540600Y-67986600D02*
X50226600Y-67986600D01*
X52846600Y-73106600D02*
X52532600Y-73106600D01*
X50540600Y-73106600D02*
X50226600Y-73106600D01*
X95839920Y-131825040D02*
X95839920Y-126705040D01*
X98459920Y-131825040D02*
X98459920Y-126705040D01*
X95839920Y-131825040D02*
X96153920Y-131825040D01*
X98145920Y-131825040D02*
X98459920Y-131825040D01*
X95839920Y-126705040D02*
X96153920Y-126705040D01*
X98145920Y-126705040D02*
X98459920Y-126705040D01*
X49304900Y-106144700D02*
X54424900Y-106144700D01*
X49304900Y-108764700D02*
X54424900Y-108764700D01*
X49304900Y-106144700D02*
X49304900Y-106458700D01*
X49304900Y-108450700D02*
X49304900Y-108764700D01*
X54424900Y-106144700D02*
X54424900Y-106458700D01*
X54424900Y-108450700D02*
X54424900Y-108764700D01*
D11*
X66492381Y-46807357D02*
X66016190Y-47140691D01*
X66492381Y-47378786D02*
X65492381Y-47378786D01*
X65492381Y-46997833D01*
X65540000Y-46902595D01*
X65587619Y-46854976D01*
X65682857Y-46807357D01*
X65825714Y-46807357D01*
X65920952Y-46854976D01*
X65968571Y-46902595D01*
X66016190Y-46997833D01*
X66016190Y-47378786D01*
X66492381Y-45854976D02*
X66492381Y-46426405D01*
X66492381Y-46140691D02*
X65492381Y-46140691D01*
X65635238Y-46235929D01*
X65730476Y-46331167D01*
X65778095Y-46426405D01*
X65492381Y-44997833D02*
X65492381Y-45188310D01*
X65540000Y-45283548D01*
X65587619Y-45331167D01*
X65730476Y-45426405D01*
X65920952Y-45474024D01*
X66301905Y-45474024D01*
X66397143Y-45426405D01*
X66444762Y-45378786D01*
X66492381Y-45283548D01*
X66492381Y-45093071D01*
X66444762Y-44997833D01*
X66397143Y-44950214D01*
X66301905Y-44902595D01*
X66063810Y-44902595D01*
X65968571Y-44950214D01*
X65920952Y-44997833D01*
X65873333Y-45093071D01*
X65873333Y-45283548D01*
X65920952Y-45378786D01*
X65968571Y-45426405D01*
X66063810Y-45474024D01*
X91587581Y-134697695D02*
X90587581Y-134697695D01*
X90587581Y-134459600D01*
X90635200Y-134316742D01*
X90730438Y-134221504D01*
X90825676Y-134173885D01*
X91016152Y-134126266D01*
X91159010Y-134126266D01*
X91349486Y-134173885D01*
X91444724Y-134221504D01*
X91539962Y-134316742D01*
X91587581Y-134459600D01*
X91587581Y-134697695D01*
X90587581Y-133269123D02*
X90587581Y-133459600D01*
X90635200Y-133554838D01*
X90682819Y-133602457D01*
X90825676Y-133697695D01*
X91016152Y-133745314D01*
X91397105Y-133745314D01*
X91492343Y-133697695D01*
X91539962Y-133650076D01*
X91587581Y-133554838D01*
X91587581Y-133364361D01*
X91539962Y-133269123D01*
X91492343Y-133221504D01*
X91397105Y-133173885D01*
X91159010Y-133173885D01*
X91063771Y-133221504D01*
X91016152Y-133269123D01*
X90968533Y-133364361D01*
X90968533Y-133554838D01*
X91016152Y-133650076D01*
X91063771Y-133697695D01*
X91159010Y-133745314D01*
D14*
X115109667Y-47407581D02*
X115109667Y-48121867D01*
X115062047Y-48264724D01*
X114966809Y-48359962D01*
X114823952Y-48407581D01*
X114728714Y-48407581D01*
X115538238Y-47502819D02*
X115585857Y-47455200D01*
X115681095Y-47407581D01*
X115919191Y-47407581D01*
X116014429Y-47455200D01*
X116062048Y-47502819D01*
X116109667Y-47598057D01*
X116109667Y-47693295D01*
X116062048Y-47836152D01*
X115490619Y-48407581D01*
X116109667Y-48407581D01*
X111252524Y-46280343D02*
X111204905Y-46327962D01*
X111062048Y-46375581D01*
X110966810Y-46375581D01*
X110823952Y-46327962D01*
X110728714Y-46232724D01*
X110681095Y-46137486D01*
X110633476Y-45947010D01*
X110633476Y-45804152D01*
X110681095Y-45613676D01*
X110728714Y-45518438D01*
X110823952Y-45423200D01*
X110966810Y-45375581D01*
X111062048Y-45375581D01*
X111204905Y-45423200D01*
X111252524Y-45470819D01*
X111823952Y-46375581D02*
X111728714Y-46327962D01*
X111681095Y-46280343D01*
X111633476Y-46185105D01*
X111633476Y-45899390D01*
X111681095Y-45804152D01*
X111728714Y-45756533D01*
X111823952Y-45708914D01*
X111966810Y-45708914D01*
X112062048Y-45756533D01*
X112109667Y-45804152D01*
X112157286Y-45899390D01*
X112157286Y-46185105D01*
X112109667Y-46280343D01*
X112062048Y-46327962D01*
X111966810Y-46375581D01*
X111823952Y-46375581D01*
X112585857Y-45708914D02*
X112585857Y-46375581D01*
X112585857Y-45804152D02*
X112633476Y-45756533D01*
X112728714Y-45708914D01*
X112871572Y-45708914D01*
X112966810Y-45756533D01*
X113014429Y-45851771D01*
X113014429Y-46375581D01*
X113490619Y-45708914D02*
X113490619Y-46375581D01*
X113490619Y-45804152D02*
X113538238Y-45756533D01*
X113633476Y-45708914D01*
X113776334Y-45708914D01*
X113871572Y-45756533D01*
X113919191Y-45851771D01*
X113919191Y-46375581D01*
X114157286Y-46470819D02*
X114919191Y-46470819D01*
X115728715Y-46280343D02*
X115681096Y-46327962D01*
X115538239Y-46375581D01*
X115443001Y-46375581D01*
X115300143Y-46327962D01*
X115204905Y-46232724D01*
X115157286Y-46137486D01*
X115109667Y-45947010D01*
X115109667Y-45804152D01*
X115157286Y-45613676D01*
X115204905Y-45518438D01*
X115300143Y-45423200D01*
X115443001Y-45375581D01*
X115538239Y-45375581D01*
X115681096Y-45423200D01*
X115728715Y-45470819D01*
X116300143Y-46375581D02*
X116204905Y-46327962D01*
X116157286Y-46280343D01*
X116109667Y-46185105D01*
X116109667Y-45899390D01*
X116157286Y-45804152D01*
X116204905Y-45756533D01*
X116300143Y-45708914D01*
X116443001Y-45708914D01*
X116538239Y-45756533D01*
X116585858Y-45804152D01*
X116633477Y-45899390D01*
X116633477Y-46185105D01*
X116585858Y-46280343D01*
X116538239Y-46327962D01*
X116443001Y-46375581D01*
X116300143Y-46375581D01*
X117490620Y-46375581D02*
X117490620Y-45851771D01*
X117443001Y-45756533D01*
X117347763Y-45708914D01*
X117157286Y-45708914D01*
X117062048Y-45756533D01*
X117490620Y-46327962D02*
X117395382Y-46375581D01*
X117157286Y-46375581D01*
X117062048Y-46327962D01*
X117014429Y-46232724D01*
X117014429Y-46137486D01*
X117062048Y-46042248D01*
X117157286Y-45994629D01*
X117395382Y-45994629D01*
X117490620Y-45947010D01*
X117871572Y-46375581D02*
X118395382Y-45708914D01*
X117871572Y-45708914D02*
X118395382Y-46375581D01*
X118776334Y-46375581D02*
X118776334Y-45708914D01*
X118776334Y-45375581D02*
X118728715Y-45423200D01*
X118776334Y-45470819D01*
X118823953Y-45423200D01*
X118776334Y-45375581D01*
X118776334Y-45470819D01*
X119681096Y-46375581D02*
X119681096Y-45851771D01*
X119633477Y-45756533D01*
X119538239Y-45708914D01*
X119347762Y-45708914D01*
X119252524Y-45756533D01*
X119681096Y-46327962D02*
X119585858Y-46375581D01*
X119347762Y-46375581D01*
X119252524Y-46327962D01*
X119204905Y-46232724D01*
X119204905Y-46137486D01*
X119252524Y-46042248D01*
X119347762Y-45994629D01*
X119585858Y-45994629D01*
X119681096Y-45947010D01*
X120300143Y-46375581D02*
X120204905Y-46327962D01*
X120157286Y-46232724D01*
X120157286Y-45375581D01*
D11*
X105116381Y-62120305D02*
X105116381Y-61548876D01*
X106116381Y-61834591D02*
X105116381Y-61834591D01*
X106116381Y-60644114D02*
X105640190Y-60977448D01*
X106116381Y-61215543D02*
X105116381Y-61215543D01*
X105116381Y-60834590D01*
X105164000Y-60739352D01*
X105211619Y-60691733D01*
X105306857Y-60644114D01*
X105449714Y-60644114D01*
X105544952Y-60691733D01*
X105592571Y-60739352D01*
X105640190Y-60834590D01*
X105640190Y-61215543D01*
X105116381Y-59786971D02*
X105116381Y-59977448D01*
X105164000Y-60072686D01*
X105211619Y-60120305D01*
X105354476Y-60215543D01*
X105544952Y-60263162D01*
X105925905Y-60263162D01*
X106021143Y-60215543D01*
X106068762Y-60167924D01*
X106116381Y-60072686D01*
X106116381Y-59882209D01*
X106068762Y-59786971D01*
X106021143Y-59739352D01*
X105925905Y-59691733D01*
X105687810Y-59691733D01*
X105592571Y-59739352D01*
X105544952Y-59786971D01*
X105497333Y-59882209D01*
X105497333Y-60072686D01*
X105544952Y-60167924D01*
X105592571Y-60215543D01*
X105687810Y-60263162D01*
X41894477Y-45966381D02*
X41894477Y-46680667D01*
X41846857Y-46823524D01*
X41751619Y-46918762D01*
X41608762Y-46966381D01*
X41513524Y-46966381D01*
X42323048Y-46061619D02*
X42370667Y-46014000D01*
X42465905Y-45966381D01*
X42704001Y-45966381D01*
X42799239Y-46014000D01*
X42846858Y-46061619D01*
X42894477Y-46156857D01*
X42894477Y-46252095D01*
X42846858Y-46394952D01*
X42275429Y-46966381D01*
X42894477Y-46966381D01*
X43846858Y-46966381D02*
X43275429Y-46966381D01*
X43561143Y-46966381D02*
X43561143Y-45966381D01*
X43465905Y-46109238D01*
X43370667Y-46204476D01*
X43275429Y-46252095D01*
X136190477Y-39404381D02*
X136190477Y-40118667D01*
X136142857Y-40261524D01*
X136047619Y-40356762D01*
X135904762Y-40404381D01*
X135809524Y-40404381D01*
X136619048Y-39499619D02*
X136666667Y-39452000D01*
X136761905Y-39404381D01*
X137000001Y-39404381D01*
X137095239Y-39452000D01*
X137142858Y-39499619D01*
X137190477Y-39594857D01*
X137190477Y-39690095D01*
X137142858Y-39832952D01*
X136571429Y-40404381D01*
X137190477Y-40404381D01*
X137571429Y-39499619D02*
X137619048Y-39452000D01*
X137714286Y-39404381D01*
X137952382Y-39404381D01*
X138047620Y-39452000D01*
X138095239Y-39499619D01*
X138142858Y-39594857D01*
X138142858Y-39690095D01*
X138095239Y-39832952D01*
X137523810Y-40404381D01*
X138142858Y-40404381D01*
X42275477Y-132833881D02*
X42275477Y-133548167D01*
X42227857Y-133691024D01*
X42132619Y-133786262D01*
X41989762Y-133833881D01*
X41894524Y-133833881D01*
X42704048Y-132929119D02*
X42751667Y-132881500D01*
X42846905Y-132833881D01*
X43085001Y-132833881D01*
X43180239Y-132881500D01*
X43227858Y-132929119D01*
X43275477Y-133024357D01*
X43275477Y-133119595D01*
X43227858Y-133262452D01*
X42656429Y-133833881D01*
X43275477Y-133833881D01*
X43608810Y-132833881D02*
X44227858Y-132833881D01*
X43894524Y-133214833D01*
X44037382Y-133214833D01*
X44132620Y-133262452D01*
X44180239Y-133310071D01*
X44227858Y-133405310D01*
X44227858Y-133643405D01*
X44180239Y-133738643D01*
X44132620Y-133786262D01*
X44037382Y-133833881D01*
X43751667Y-133833881D01*
X43656429Y-133786262D01*
X43608810Y-133738643D01*
X136190477Y-133404381D02*
X136190477Y-134118667D01*
X136142857Y-134261524D01*
X136047619Y-134356762D01*
X135904762Y-134404381D01*
X135809524Y-134404381D01*
X136619048Y-133499619D02*
X136666667Y-133452000D01*
X136761905Y-133404381D01*
X137000001Y-133404381D01*
X137095239Y-133452000D01*
X137142858Y-133499619D01*
X137190477Y-133594857D01*
X137190477Y-133690095D01*
X137142858Y-133832952D01*
X136571429Y-134404381D01*
X137190477Y-134404381D01*
X138047620Y-133737714D02*
X138047620Y-134404381D01*
X137809524Y-133356762D02*
X137571429Y-134071048D01*
X138190477Y-134071048D01*
X66905143Y-133770666D02*
X66952762Y-133818285D01*
X67000381Y-133961142D01*
X67000381Y-134056380D01*
X66952762Y-134199238D01*
X66857524Y-134294476D01*
X66762286Y-134342095D01*
X66571810Y-134389714D01*
X66428952Y-134389714D01*
X66238476Y-134342095D01*
X66143238Y-134294476D01*
X66048000Y-134199238D01*
X66000381Y-134056380D01*
X66000381Y-133961142D01*
X66048000Y-133818285D01*
X66095619Y-133770666D01*
X66000381Y-133437333D02*
X66000381Y-132818285D01*
X66381333Y-133151619D01*
X66381333Y-133008761D01*
X66428952Y-132913523D01*
X66476571Y-132865904D01*
X66571810Y-132818285D01*
X66809905Y-132818285D01*
X66905143Y-132865904D01*
X66952762Y-132913523D01*
X67000381Y-133008761D01*
X67000381Y-133294476D01*
X66952762Y-133389714D01*
X66905143Y-133437333D01*
X80062343Y-132973106D02*
X80109962Y-133020725D01*
X80157581Y-133163582D01*
X80157581Y-133258820D01*
X80109962Y-133401678D01*
X80014724Y-133496916D01*
X79919486Y-133544535D01*
X79729010Y-133592154D01*
X79586152Y-133592154D01*
X79395676Y-133544535D01*
X79300438Y-133496916D01*
X79205200Y-133401678D01*
X79157581Y-133258820D01*
X79157581Y-133163582D01*
X79205200Y-133020725D01*
X79252819Y-132973106D01*
X79490914Y-132115963D02*
X80157581Y-132115963D01*
X79109962Y-132354059D02*
X79824248Y-132592154D01*
X79824248Y-131973106D01*
X60376381Y-134655666D02*
X59900190Y-134989000D01*
X60376381Y-135227095D02*
X59376381Y-135227095D01*
X59376381Y-134846142D01*
X59424000Y-134750904D01*
X59471619Y-134703285D01*
X59566857Y-134655666D01*
X59709714Y-134655666D01*
X59804952Y-134703285D01*
X59852571Y-134750904D01*
X59900190Y-134846142D01*
X59900190Y-135227095D01*
X59376381Y-134322333D02*
X59376381Y-133655666D01*
X60376381Y-134084238D01*
X63749381Y-134909666D02*
X63273190Y-135243000D01*
X63749381Y-135481095D02*
X62749381Y-135481095D01*
X62749381Y-135100142D01*
X62797000Y-135004904D01*
X62844619Y-134957285D01*
X62939857Y-134909666D01*
X63082714Y-134909666D01*
X63177952Y-134957285D01*
X63225571Y-135004904D01*
X63273190Y-135100142D01*
X63273190Y-135481095D01*
X63177952Y-134338238D02*
X63130333Y-134433476D01*
X63082714Y-134481095D01*
X62987476Y-134528714D01*
X62939857Y-134528714D01*
X62844619Y-134481095D01*
X62797000Y-134433476D01*
X62749381Y-134338238D01*
X62749381Y-134147761D01*
X62797000Y-134052523D01*
X62844619Y-134004904D01*
X62939857Y-133957285D01*
X62987476Y-133957285D01*
X63082714Y-134004904D01*
X63130333Y-134052523D01*
X63177952Y-134147761D01*
X63177952Y-134338238D01*
X63225571Y-134433476D01*
X63273190Y-134481095D01*
X63368429Y-134528714D01*
X63558905Y-134528714D01*
X63654143Y-134481095D01*
X63701762Y-134433476D01*
X63749381Y-134338238D01*
X63749381Y-134147761D01*
X63701762Y-134052523D01*
X63654143Y-134004904D01*
X63558905Y-133957285D01*
X63368429Y-133957285D01*
X63273190Y-134004904D01*
X63225571Y-134052523D01*
X63177952Y-134147761D01*
X54808381Y-135612095D02*
X53808381Y-135612095D01*
X53808381Y-135374000D01*
X53856000Y-135231142D01*
X53951238Y-135135904D01*
X54046476Y-135088285D01*
X54236952Y-135040666D01*
X54379810Y-135040666D01*
X54570286Y-135088285D01*
X54665524Y-135135904D01*
X54760762Y-135231142D01*
X54808381Y-135374000D01*
X54808381Y-135612095D01*
X53903619Y-134659714D02*
X53856000Y-134612095D01*
X53808381Y-134516857D01*
X53808381Y-134278761D01*
X53856000Y-134183523D01*
X53903619Y-134135904D01*
X53998857Y-134088285D01*
X54094095Y-134088285D01*
X54236952Y-134135904D01*
X54808381Y-134707333D01*
X54808381Y-134088285D01*
X103135181Y-113783905D02*
X103135181Y-113212476D01*
X104135181Y-113498191D02*
X103135181Y-113498191D01*
X104135181Y-112307714D02*
X103658990Y-112641048D01*
X104135181Y-112879143D02*
X103135181Y-112879143D01*
X103135181Y-112498190D01*
X103182800Y-112402952D01*
X103230419Y-112355333D01*
X103325657Y-112307714D01*
X103468514Y-112307714D01*
X103563752Y-112355333D01*
X103611371Y-112402952D01*
X103658990Y-112498190D01*
X103658990Y-112879143D01*
X103135181Y-111402952D02*
X103135181Y-111879143D01*
X103611371Y-111926762D01*
X103563752Y-111879143D01*
X103516133Y-111783905D01*
X103516133Y-111545809D01*
X103563752Y-111450571D01*
X103611371Y-111402952D01*
X103706610Y-111355333D01*
X103944705Y-111355333D01*
X104039943Y-111402952D01*
X104087562Y-111450571D01*
X104135181Y-111545809D01*
X104135181Y-111783905D01*
X104087562Y-111879143D01*
X104039943Y-111926762D01*
X130135381Y-66539905D02*
X130135381Y-65968476D01*
X131135381Y-66254191D02*
X130135381Y-66254191D01*
X131135381Y-65063714D02*
X130659190Y-65397048D01*
X131135381Y-65635143D02*
X130135381Y-65635143D01*
X130135381Y-65254190D01*
X130183000Y-65158952D01*
X130230619Y-65111333D01*
X130325857Y-65063714D01*
X130468714Y-65063714D01*
X130563952Y-65111333D01*
X130611571Y-65158952D01*
X130659190Y-65254190D01*
X130659190Y-65635143D01*
X130468714Y-64206571D02*
X131135381Y-64206571D01*
X130087762Y-64444667D02*
X130802048Y-64682762D01*
X130802048Y-64063714D01*
X130389381Y-118101905D02*
X130389381Y-117530476D01*
X131389381Y-117816191D02*
X130389381Y-117816191D01*
X131389381Y-116625714D02*
X130913190Y-116959048D01*
X131389381Y-117197143D02*
X130389381Y-117197143D01*
X130389381Y-116816190D01*
X130437000Y-116720952D01*
X130484619Y-116673333D01*
X130579857Y-116625714D01*
X130722714Y-116625714D01*
X130817952Y-116673333D01*
X130865571Y-116720952D01*
X130913190Y-116816190D01*
X130913190Y-117197143D01*
X130389381Y-116292381D02*
X130389381Y-115673333D01*
X130770333Y-116006667D01*
X130770333Y-115863809D01*
X130817952Y-115768571D01*
X130865571Y-115720952D01*
X130960810Y-115673333D01*
X131198905Y-115673333D01*
X131294143Y-115720952D01*
X131341762Y-115768571D01*
X131389381Y-115863809D01*
X131389381Y-116149524D01*
X131341762Y-116244762D01*
X131294143Y-116292381D01*
X84161381Y-86986905D02*
X84161381Y-86415476D01*
X85161381Y-86701191D02*
X84161381Y-86701191D01*
X85161381Y-85510714D02*
X84685190Y-85844048D01*
X85161381Y-86082143D02*
X84161381Y-86082143D01*
X84161381Y-85701190D01*
X84209000Y-85605952D01*
X84256619Y-85558333D01*
X84351857Y-85510714D01*
X84494714Y-85510714D01*
X84589952Y-85558333D01*
X84637571Y-85605952D01*
X84685190Y-85701190D01*
X84685190Y-86082143D01*
X84256619Y-85129762D02*
X84209000Y-85082143D01*
X84161381Y-84986905D01*
X84161381Y-84748809D01*
X84209000Y-84653571D01*
X84256619Y-84605952D01*
X84351857Y-84558333D01*
X84447095Y-84558333D01*
X84589952Y-84605952D01*
X85161381Y-85177381D01*
X85161381Y-84558333D01*
X63485781Y-87063105D02*
X63485781Y-86491676D01*
X64485781Y-86777391D02*
X63485781Y-86777391D01*
X64485781Y-85586914D02*
X64009590Y-85920248D01*
X64485781Y-86158343D02*
X63485781Y-86158343D01*
X63485781Y-85777390D01*
X63533400Y-85682152D01*
X63581019Y-85634533D01*
X63676257Y-85586914D01*
X63819114Y-85586914D01*
X63914352Y-85634533D01*
X63961971Y-85682152D01*
X64009590Y-85777390D01*
X64009590Y-86158343D01*
X64485781Y-84634533D02*
X64485781Y-85205962D01*
X64485781Y-84920248D02*
X63485781Y-84920248D01*
X63628638Y-85015486D01*
X63723876Y-85110724D01*
X63771495Y-85205962D01*
X85447143Y-44870666D02*
X85494762Y-44918285D01*
X85542381Y-45061142D01*
X85542381Y-45156380D01*
X85494762Y-45299238D01*
X85399524Y-45394476D01*
X85304286Y-45442095D01*
X85113810Y-45489714D01*
X84970952Y-45489714D01*
X84780476Y-45442095D01*
X84685238Y-45394476D01*
X84590000Y-45299238D01*
X84542381Y-45156380D01*
X84542381Y-45061142D01*
X84590000Y-44918285D01*
X84637619Y-44870666D01*
X85542381Y-43918285D02*
X85542381Y-44489714D01*
X85542381Y-44204000D02*
X84542381Y-44204000D01*
X84685238Y-44299238D01*
X84780476Y-44394476D01*
X84828095Y-44489714D01*
X80764167Y-40663881D02*
X80764167Y-41378167D01*
X80716547Y-41521024D01*
X80621309Y-41616262D01*
X80478452Y-41663881D01*
X80383214Y-41663881D01*
X81240357Y-41663881D02*
X81240357Y-40663881D01*
X81621310Y-40663881D01*
X81716548Y-40711500D01*
X81764167Y-40759119D01*
X81811786Y-40854357D01*
X81811786Y-40997214D01*
X81764167Y-41092452D01*
X81716548Y-41140071D01*
X81621310Y-41187690D01*
X81240357Y-41187690D01*
X82764167Y-41663881D02*
X82192738Y-41663881D01*
X82478452Y-41663881D02*
X82478452Y-40663881D01*
X82383214Y-40806738D01*
X82287976Y-40901976D01*
X82192738Y-40949595D01*
X74414167Y-40790881D02*
X74414167Y-41505167D01*
X74366547Y-41648024D01*
X74271309Y-41743262D01*
X74128452Y-41790881D01*
X74033214Y-41790881D01*
X74890357Y-41790881D02*
X74890357Y-40790881D01*
X75271310Y-40790881D01*
X75366548Y-40838500D01*
X75414167Y-40886119D01*
X75461786Y-40981357D01*
X75461786Y-41124214D01*
X75414167Y-41219452D01*
X75366548Y-41267071D01*
X75271310Y-41314690D01*
X74890357Y-41314690D01*
X75842738Y-40886119D02*
X75890357Y-40838500D01*
X75985595Y-40790881D01*
X76223691Y-40790881D01*
X76318929Y-40838500D01*
X76366548Y-40886119D01*
X76414167Y-40981357D01*
X76414167Y-41076595D01*
X76366548Y-41219452D01*
X75795119Y-41790881D01*
X76414167Y-41790881D01*
X88844381Y-46515257D02*
X88368190Y-46848591D01*
X88844381Y-47086686D02*
X87844381Y-47086686D01*
X87844381Y-46705733D01*
X87892000Y-46610495D01*
X87939619Y-46562876D01*
X88034857Y-46515257D01*
X88177714Y-46515257D01*
X88272952Y-46562876D01*
X88320571Y-46610495D01*
X88368190Y-46705733D01*
X88368190Y-47086686D01*
X88844381Y-45562876D02*
X88844381Y-46134305D01*
X88844381Y-45848591D02*
X87844381Y-45848591D01*
X87987238Y-45943829D01*
X88082476Y-46039067D01*
X88130095Y-46134305D01*
X87844381Y-44658114D02*
X87844381Y-45134305D01*
X88320571Y-45181924D01*
X88272952Y-45134305D01*
X88225333Y-45039067D01*
X88225333Y-44800971D01*
X88272952Y-44705733D01*
X88320571Y-44658114D01*
X88415810Y-44610495D01*
X88653905Y-44610495D01*
X88749143Y-44658114D01*
X88796762Y-44705733D01*
X88844381Y-44800971D01*
X88844381Y-45039067D01*
X88796762Y-45134305D01*
X88749143Y-45181924D01*
X69667381Y-46807357D02*
X69191190Y-47140691D01*
X69667381Y-47378786D02*
X68667381Y-47378786D01*
X68667381Y-46997833D01*
X68715000Y-46902595D01*
X68762619Y-46854976D01*
X68857857Y-46807357D01*
X69000714Y-46807357D01*
X69095952Y-46854976D01*
X69143571Y-46902595D01*
X69191190Y-46997833D01*
X69191190Y-47378786D01*
X69667381Y-45854976D02*
X69667381Y-46426405D01*
X69667381Y-46140691D02*
X68667381Y-46140691D01*
X68810238Y-46235929D01*
X68905476Y-46331167D01*
X68953095Y-46426405D01*
X68667381Y-45521643D02*
X68667381Y-44854976D01*
X69667381Y-45283548D01*
X91638381Y-46312057D02*
X91162190Y-46645391D01*
X91638381Y-46883486D02*
X90638381Y-46883486D01*
X90638381Y-46502533D01*
X90686000Y-46407295D01*
X90733619Y-46359676D01*
X90828857Y-46312057D01*
X90971714Y-46312057D01*
X91066952Y-46359676D01*
X91114571Y-46407295D01*
X91162190Y-46502533D01*
X91162190Y-46883486D01*
X91638381Y-45359676D02*
X91638381Y-45931105D01*
X91638381Y-45645391D02*
X90638381Y-45645391D01*
X90781238Y-45740629D01*
X90876476Y-45835867D01*
X90924095Y-45931105D01*
X91066952Y-44788248D02*
X91019333Y-44883486D01*
X90971714Y-44931105D01*
X90876476Y-44978724D01*
X90828857Y-44978724D01*
X90733619Y-44931105D01*
X90686000Y-44883486D01*
X90638381Y-44788248D01*
X90638381Y-44597771D01*
X90686000Y-44502533D01*
X90733619Y-44454914D01*
X90828857Y-44407295D01*
X90876476Y-44407295D01*
X90971714Y-44454914D01*
X91019333Y-44502533D01*
X91066952Y-44597771D01*
X91066952Y-44788248D01*
X91114571Y-44883486D01*
X91162190Y-44931105D01*
X91257429Y-44978724D01*
X91447905Y-44978724D01*
X91543143Y-44931105D01*
X91590762Y-44883486D01*
X91638381Y-44788248D01*
X91638381Y-44597771D01*
X91590762Y-44502533D01*
X91543143Y-44454914D01*
X91447905Y-44407295D01*
X91257429Y-44407295D01*
X91162190Y-44454914D01*
X91114571Y-44502533D01*
X91066952Y-44597771D01*
X97327981Y-46356495D02*
X96327981Y-46356495D01*
X96327981Y-46118400D01*
X96375600Y-45975542D01*
X96470838Y-45880304D01*
X96566076Y-45832685D01*
X96756552Y-45785066D01*
X96899410Y-45785066D01*
X97089886Y-45832685D01*
X97185124Y-45880304D01*
X97280362Y-45975542D01*
X97327981Y-46118400D01*
X97327981Y-46356495D01*
X97327981Y-44832685D02*
X97327981Y-45404114D01*
X97327981Y-45118400D02*
X96327981Y-45118400D01*
X96470838Y-45213638D01*
X96566076Y-45308876D01*
X96613695Y-45404114D01*
X61094881Y-46775595D02*
X60094881Y-46775595D01*
X60094881Y-46537500D01*
X60142500Y-46394642D01*
X60237738Y-46299404D01*
X60332976Y-46251785D01*
X60523452Y-46204166D01*
X60666310Y-46204166D01*
X60856786Y-46251785D01*
X60952024Y-46299404D01*
X61047262Y-46394642D01*
X61094881Y-46537500D01*
X61094881Y-46775595D01*
X60094881Y-45870833D02*
X60094881Y-45251785D01*
X60475833Y-45585119D01*
X60475833Y-45442261D01*
X60523452Y-45347023D01*
X60571071Y-45299404D01*
X60666310Y-45251785D01*
X60904405Y-45251785D01*
X60999643Y-45299404D01*
X61047262Y-45347023D01*
X61094881Y-45442261D01*
X61094881Y-45727976D01*
X61047262Y-45823214D01*
X60999643Y-45870833D01*
X94787981Y-46407295D02*
X93787981Y-46407295D01*
X93787981Y-46169200D01*
X93835600Y-46026342D01*
X93930838Y-45931104D01*
X94026076Y-45883485D01*
X94216552Y-45835866D01*
X94359410Y-45835866D01*
X94549886Y-45883485D01*
X94645124Y-45931104D01*
X94740362Y-46026342D01*
X94787981Y-46169200D01*
X94787981Y-46407295D01*
X94121314Y-44978723D02*
X94787981Y-44978723D01*
X93740362Y-45216819D02*
X94454648Y-45454914D01*
X94454648Y-44835866D01*
X63698381Y-46902595D02*
X62698381Y-46902595D01*
X62698381Y-46664500D01*
X62746000Y-46521642D01*
X62841238Y-46426404D01*
X62936476Y-46378785D01*
X63126952Y-46331166D01*
X63269810Y-46331166D01*
X63460286Y-46378785D01*
X63555524Y-46426404D01*
X63650762Y-46521642D01*
X63698381Y-46664500D01*
X63698381Y-46902595D01*
X62698381Y-45426404D02*
X62698381Y-45902595D01*
X63174571Y-45950214D01*
X63126952Y-45902595D01*
X63079333Y-45807357D01*
X63079333Y-45569261D01*
X63126952Y-45474023D01*
X63174571Y-45426404D01*
X63269810Y-45378785D01*
X63507905Y-45378785D01*
X63603143Y-45426404D01*
X63650762Y-45474023D01*
X63698381Y-45569261D01*
X63698381Y-45807357D01*
X63650762Y-45902595D01*
X63603143Y-45950214D01*
X57348381Y-135612095D02*
X56348381Y-135612095D01*
X56348381Y-135374000D01*
X56396000Y-135231142D01*
X56491238Y-135135904D01*
X56586476Y-135088285D01*
X56776952Y-135040666D01*
X56919810Y-135040666D01*
X57110286Y-135088285D01*
X57205524Y-135135904D01*
X57300762Y-135231142D01*
X57348381Y-135374000D01*
X57348381Y-135612095D01*
X56348381Y-134707333D02*
X56348381Y-134040666D01*
X57348381Y-134469238D01*
X88996781Y-134570695D02*
X87996781Y-134570695D01*
X87996781Y-134332600D01*
X88044400Y-134189742D01*
X88139638Y-134094504D01*
X88234876Y-134046885D01*
X88425352Y-133999266D01*
X88568210Y-133999266D01*
X88758686Y-134046885D01*
X88853924Y-134094504D01*
X88949162Y-134189742D01*
X88996781Y-134332600D01*
X88996781Y-134570695D01*
X88425352Y-133427838D02*
X88377733Y-133523076D01*
X88330114Y-133570695D01*
X88234876Y-133618314D01*
X88187257Y-133618314D01*
X88092019Y-133570695D01*
X88044400Y-133523076D01*
X87996781Y-133427838D01*
X87996781Y-133237361D01*
X88044400Y-133142123D01*
X88092019Y-133094504D01*
X88187257Y-133046885D01*
X88234876Y-133046885D01*
X88330114Y-133094504D01*
X88377733Y-133142123D01*
X88425352Y-133237361D01*
X88425352Y-133427838D01*
X88472971Y-133523076D01*
X88520590Y-133570695D01*
X88615829Y-133618314D01*
X88806305Y-133618314D01*
X88901543Y-133570695D01*
X88949162Y-133523076D01*
X88996781Y-133427838D01*
X88996781Y-133237361D01*
X88949162Y-133142123D01*
X88901543Y-133094504D01*
X88806305Y-133046885D01*
X88615829Y-133046885D01*
X88520590Y-133094504D01*
X88472971Y-133142123D01*
X88425352Y-133237361D01*
X50337507Y-134402581D02*
X50337507Y-135116867D01*
X50289887Y-135259724D01*
X50194649Y-135354962D01*
X50051792Y-135402581D01*
X49956554Y-135402581D01*
X50813697Y-135402581D02*
X50813697Y-134402581D01*
X51194650Y-134402581D01*
X51289888Y-134450200D01*
X51337507Y-134497819D01*
X51385126Y-134593057D01*
X51385126Y-134735914D01*
X51337507Y-134831152D01*
X51289888Y-134878771D01*
X51194650Y-134926390D01*
X50813697Y-134926390D01*
X52289888Y-134402581D02*
X51813697Y-134402581D01*
X51766078Y-134878771D01*
X51813697Y-134831152D01*
X51908935Y-134783533D01*
X52147031Y-134783533D01*
X52242269Y-134831152D01*
X52289888Y-134878771D01*
X52337507Y-134974010D01*
X52337507Y-135212105D01*
X52289888Y-135307343D01*
X52242269Y-135354962D01*
X52147031Y-135402581D01*
X51908935Y-135402581D01*
X51813697Y-135354962D01*
X51766078Y-135307343D01*
X69143667Y-128357381D02*
X69143667Y-129071667D01*
X69096047Y-129214524D01*
X69000809Y-129309762D01*
X68857952Y-129357381D01*
X68762714Y-129357381D01*
X69619857Y-129357381D02*
X69619857Y-128357381D01*
X70000810Y-128357381D01*
X70096048Y-128405000D01*
X70143667Y-128452619D01*
X70191286Y-128547857D01*
X70191286Y-128690714D01*
X70143667Y-128785952D01*
X70096048Y-128833571D01*
X70000810Y-128881190D01*
X69619857Y-128881190D01*
X70524619Y-128357381D02*
X71191286Y-128357381D01*
X70762714Y-129357381D01*
X75582567Y-128204981D02*
X75582567Y-128919267D01*
X75534947Y-129062124D01*
X75439709Y-129157362D01*
X75296852Y-129204981D01*
X75201614Y-129204981D01*
X76058757Y-129204981D02*
X76058757Y-128204981D01*
X76439710Y-128204981D01*
X76534948Y-128252600D01*
X76582567Y-128300219D01*
X76630186Y-128395457D01*
X76630186Y-128538314D01*
X76582567Y-128633552D01*
X76534948Y-128681171D01*
X76439710Y-128728790D01*
X76058757Y-128728790D01*
X77201614Y-128633552D02*
X77106376Y-128585933D01*
X77058757Y-128538314D01*
X77011138Y-128443076D01*
X77011138Y-128395457D01*
X77058757Y-128300219D01*
X77106376Y-128252600D01*
X77201614Y-128204981D01*
X77392091Y-128204981D01*
X77487329Y-128252600D01*
X77534948Y-128300219D01*
X77582567Y-128395457D01*
X77582567Y-128443076D01*
X77534948Y-128538314D01*
X77487329Y-128585933D01*
X77392091Y-128633552D01*
X77201614Y-128633552D01*
X77106376Y-128681171D01*
X77058757Y-128728790D01*
X77011138Y-128824029D01*
X77011138Y-129014505D01*
X77058757Y-129109743D01*
X77106376Y-129157362D01*
X77201614Y-129204981D01*
X77392091Y-129204981D01*
X77487329Y-129157362D01*
X77534948Y-129109743D01*
X77582567Y-129014505D01*
X77582567Y-128824029D01*
X77534948Y-128728790D01*
X77487329Y-128681171D01*
X77392091Y-128633552D01*
X86091021Y-134653257D02*
X85614830Y-134986591D01*
X86091021Y-135224686D02*
X85091021Y-135224686D01*
X85091021Y-134843733D01*
X85138640Y-134748495D01*
X85186259Y-134700876D01*
X85281497Y-134653257D01*
X85424354Y-134653257D01*
X85519592Y-134700876D01*
X85567211Y-134748495D01*
X85614830Y-134843733D01*
X85614830Y-135224686D01*
X86091021Y-133700876D02*
X86091021Y-134272305D01*
X86091021Y-133986591D02*
X85091021Y-133986591D01*
X85233878Y-134081829D01*
X85329116Y-134177067D01*
X85376735Y-134272305D01*
X86091021Y-133224686D02*
X86091021Y-133034210D01*
X86043402Y-132938971D01*
X85995783Y-132891352D01*
X85852926Y-132796114D01*
X85662450Y-132748495D01*
X85281497Y-132748495D01*
X85186259Y-132796114D01*
X85138640Y-132843733D01*
X85091021Y-132938971D01*
X85091021Y-133129448D01*
X85138640Y-133224686D01*
X85186259Y-133272305D01*
X85281497Y-133319924D01*
X85519592Y-133319924D01*
X85614830Y-133272305D01*
X85662450Y-133224686D01*
X85710069Y-133129448D01*
X85710069Y-132938971D01*
X85662450Y-132843733D01*
X85614830Y-132796114D01*
X85519592Y-132748495D01*
X83129381Y-134312897D02*
X82653190Y-134646231D01*
X83129381Y-134884326D02*
X82129381Y-134884326D01*
X82129381Y-134503373D01*
X82177000Y-134408135D01*
X82224619Y-134360516D01*
X82319857Y-134312897D01*
X82462714Y-134312897D01*
X82557952Y-134360516D01*
X82605571Y-134408135D01*
X82653190Y-134503373D01*
X82653190Y-134884326D01*
X82224619Y-133931945D02*
X82177000Y-133884326D01*
X82129381Y-133789088D01*
X82129381Y-133550992D01*
X82177000Y-133455754D01*
X82224619Y-133408135D01*
X82319857Y-133360516D01*
X82415095Y-133360516D01*
X82557952Y-133408135D01*
X83129381Y-133979564D01*
X83129381Y-133360516D01*
X82129381Y-132741469D02*
X82129381Y-132646230D01*
X82177000Y-132550992D01*
X82224619Y-132503373D01*
X82319857Y-132455754D01*
X82510333Y-132408135D01*
X82748429Y-132408135D01*
X82938905Y-132455754D01*
X83034143Y-132503373D01*
X83081762Y-132550992D01*
X83129381Y-132646230D01*
X83129381Y-132741469D01*
X83081762Y-132836707D01*
X83034143Y-132884326D01*
X82938905Y-132931945D01*
X82748429Y-132979564D01*
X82510333Y-132979564D01*
X82319857Y-132931945D01*
X82224619Y-132884326D01*
X82177000Y-132836707D01*
X82129381Y-132741469D01*
X56443667Y-44417181D02*
X56443667Y-45131467D01*
X56396047Y-45274324D01*
X56300809Y-45369562D01*
X56157952Y-45417181D01*
X56062714Y-45417181D01*
X56919857Y-45417181D02*
X56919857Y-44417181D01*
X57300810Y-44417181D01*
X57396048Y-44464800D01*
X57443667Y-44512419D01*
X57491286Y-44607657D01*
X57491286Y-44750514D01*
X57443667Y-44845752D01*
X57396048Y-44893371D01*
X57300810Y-44940990D01*
X56919857Y-44940990D01*
X58348429Y-44750514D02*
X58348429Y-45417181D01*
X58110333Y-44369562D02*
X57872238Y-45083848D01*
X58491286Y-45083848D01*
X94368881Y-116689166D02*
X93892690Y-117022500D01*
X94368881Y-117260595D02*
X93368881Y-117260595D01*
X93368881Y-116879642D01*
X93416500Y-116784404D01*
X93464119Y-116736785D01*
X93559357Y-116689166D01*
X93702214Y-116689166D01*
X93797452Y-116736785D01*
X93845071Y-116784404D01*
X93892690Y-116879642D01*
X93892690Y-117260595D01*
X93368881Y-115784404D02*
X93368881Y-116260595D01*
X93845071Y-116308214D01*
X93797452Y-116260595D01*
X93749833Y-116165357D01*
X93749833Y-115927261D01*
X93797452Y-115832023D01*
X93845071Y-115784404D01*
X93940310Y-115736785D01*
X94178405Y-115736785D01*
X94273643Y-115784404D01*
X94321262Y-115832023D01*
X94368881Y-115927261D01*
X94368881Y-116165357D01*
X94321262Y-116260595D01*
X94273643Y-116308214D01*
X91003381Y-116778066D02*
X90527190Y-117111400D01*
X91003381Y-117349495D02*
X90003381Y-117349495D01*
X90003381Y-116968542D01*
X90051000Y-116873304D01*
X90098619Y-116825685D01*
X90193857Y-116778066D01*
X90336714Y-116778066D01*
X90431952Y-116825685D01*
X90479571Y-116873304D01*
X90527190Y-116968542D01*
X90527190Y-117349495D01*
X91003381Y-116301876D02*
X91003381Y-116111400D01*
X90955762Y-116016161D01*
X90908143Y-115968542D01*
X90765286Y-115873304D01*
X90574810Y-115825685D01*
X90193857Y-115825685D01*
X90098619Y-115873304D01*
X90051000Y-115920923D01*
X90003381Y-116016161D01*
X90003381Y-116206638D01*
X90051000Y-116301876D01*
X90098619Y-116349495D01*
X90193857Y-116397114D01*
X90431952Y-116397114D01*
X90527190Y-116349495D01*
X90574810Y-116301876D01*
X90622429Y-116206638D01*
X90622429Y-116016161D01*
X90574810Y-115920923D01*
X90527190Y-115873304D01*
X90431952Y-115825685D01*
X86913981Y-116911357D02*
X86437790Y-117244691D01*
X86913981Y-117482786D02*
X85913981Y-117482786D01*
X85913981Y-117101833D01*
X85961600Y-117006595D01*
X86009219Y-116958976D01*
X86104457Y-116911357D01*
X86247314Y-116911357D01*
X86342552Y-116958976D01*
X86390171Y-117006595D01*
X86437790Y-117101833D01*
X86437790Y-117482786D01*
X86913981Y-115958976D02*
X86913981Y-116530405D01*
X86913981Y-116244691D02*
X85913981Y-116244691D01*
X86056838Y-116339929D01*
X86152076Y-116435167D01*
X86199695Y-116530405D01*
X86913981Y-115006595D02*
X86913981Y-115578024D01*
X86913981Y-115292310D02*
X85913981Y-115292310D01*
X86056838Y-115387548D01*
X86152076Y-115482786D01*
X86199695Y-115578024D01*
X83142081Y-116644657D02*
X82665890Y-116977991D01*
X83142081Y-117216086D02*
X82142081Y-117216086D01*
X82142081Y-116835133D01*
X82189700Y-116739895D01*
X82237319Y-116692276D01*
X82332557Y-116644657D01*
X82475414Y-116644657D01*
X82570652Y-116692276D01*
X82618271Y-116739895D01*
X82665890Y-116835133D01*
X82665890Y-117216086D01*
X83142081Y-115692276D02*
X83142081Y-116263705D01*
X83142081Y-115977991D02*
X82142081Y-115977991D01*
X82284938Y-116073229D01*
X82380176Y-116168467D01*
X82427795Y-116263705D01*
X82142081Y-115358943D02*
X82142081Y-114739895D01*
X82523033Y-115073229D01*
X82523033Y-114930371D01*
X82570652Y-114835133D01*
X82618271Y-114787514D01*
X82713510Y-114739895D01*
X82951605Y-114739895D01*
X83046843Y-114787514D01*
X83094462Y-114835133D01*
X83142081Y-114930371D01*
X83142081Y-115216086D01*
X83094462Y-115311324D01*
X83046843Y-115358943D01*
X58232301Y-116873257D02*
X57756110Y-117206591D01*
X58232301Y-117444686D02*
X57232301Y-117444686D01*
X57232301Y-117063733D01*
X57279920Y-116968495D01*
X57327539Y-116920876D01*
X57422777Y-116873257D01*
X57565634Y-116873257D01*
X57660872Y-116920876D01*
X57708491Y-116968495D01*
X57756110Y-117063733D01*
X57756110Y-117444686D01*
X57327539Y-116492305D02*
X57279920Y-116444686D01*
X57232301Y-116349448D01*
X57232301Y-116111352D01*
X57279920Y-116016114D01*
X57327539Y-115968495D01*
X57422777Y-115920876D01*
X57518015Y-115920876D01*
X57660872Y-115968495D01*
X58232301Y-116539924D01*
X58232301Y-115920876D01*
X58232301Y-114968495D02*
X58232301Y-115539924D01*
X58232301Y-115254210D02*
X57232301Y-115254210D01*
X57375158Y-115349448D01*
X57470396Y-115444686D01*
X57518015Y-115539924D01*
X78951081Y-116885957D02*
X78474890Y-117219291D01*
X78951081Y-117457386D02*
X77951081Y-117457386D01*
X77951081Y-117076433D01*
X77998700Y-116981195D01*
X78046319Y-116933576D01*
X78141557Y-116885957D01*
X78284414Y-116885957D01*
X78379652Y-116933576D01*
X78427271Y-116981195D01*
X78474890Y-117076433D01*
X78474890Y-117457386D01*
X78046319Y-116505005D02*
X77998700Y-116457386D01*
X77951081Y-116362148D01*
X77951081Y-116124052D01*
X77998700Y-116028814D01*
X78046319Y-115981195D01*
X78141557Y-115933576D01*
X78236795Y-115933576D01*
X78379652Y-115981195D01*
X78951081Y-116552624D01*
X78951081Y-115933576D01*
X78046319Y-115552624D02*
X77998700Y-115505005D01*
X77951081Y-115409767D01*
X77951081Y-115171671D01*
X77998700Y-115076433D01*
X78046319Y-115028814D01*
X78141557Y-114981195D01*
X78236795Y-114981195D01*
X78379652Y-115028814D01*
X78951081Y-115600243D01*
X78951081Y-114981195D01*
X75064881Y-116809757D02*
X74588690Y-117143091D01*
X75064881Y-117381186D02*
X74064881Y-117381186D01*
X74064881Y-117000233D01*
X74112500Y-116904995D01*
X74160119Y-116857376D01*
X74255357Y-116809757D01*
X74398214Y-116809757D01*
X74493452Y-116857376D01*
X74541071Y-116904995D01*
X74588690Y-117000233D01*
X74588690Y-117381186D01*
X74160119Y-116428805D02*
X74112500Y-116381186D01*
X74064881Y-116285948D01*
X74064881Y-116047852D01*
X74112500Y-115952614D01*
X74160119Y-115904995D01*
X74255357Y-115857376D01*
X74350595Y-115857376D01*
X74493452Y-115904995D01*
X75064881Y-116476424D01*
X75064881Y-115857376D01*
X74064881Y-115524043D02*
X74064881Y-114904995D01*
X74445833Y-115238329D01*
X74445833Y-115095471D01*
X74493452Y-115000233D01*
X74541071Y-114952614D01*
X74636310Y-114904995D01*
X74874405Y-114904995D01*
X74969643Y-114952614D01*
X75017262Y-115000233D01*
X75064881Y-115095471D01*
X75064881Y-115381186D01*
X75017262Y-115476424D01*
X74969643Y-115524043D01*
X70696081Y-117051057D02*
X70219890Y-117384391D01*
X70696081Y-117622486D02*
X69696081Y-117622486D01*
X69696081Y-117241533D01*
X69743700Y-117146295D01*
X69791319Y-117098676D01*
X69886557Y-117051057D01*
X70029414Y-117051057D01*
X70124652Y-117098676D01*
X70172271Y-117146295D01*
X70219890Y-117241533D01*
X70219890Y-117622486D01*
X69791319Y-116670105D02*
X69743700Y-116622486D01*
X69696081Y-116527248D01*
X69696081Y-116289152D01*
X69743700Y-116193914D01*
X69791319Y-116146295D01*
X69886557Y-116098676D01*
X69981795Y-116098676D01*
X70124652Y-116146295D01*
X70696081Y-116717724D01*
X70696081Y-116098676D01*
X70029414Y-115241533D02*
X70696081Y-115241533D01*
X69648462Y-115479629D02*
X70362748Y-115717724D01*
X70362748Y-115098676D01*
X62199781Y-116898657D02*
X61723590Y-117231991D01*
X62199781Y-117470086D02*
X61199781Y-117470086D01*
X61199781Y-117089133D01*
X61247400Y-116993895D01*
X61295019Y-116946276D01*
X61390257Y-116898657D01*
X61533114Y-116898657D01*
X61628352Y-116946276D01*
X61675971Y-116993895D01*
X61723590Y-117089133D01*
X61723590Y-117470086D01*
X61295019Y-116517705D02*
X61247400Y-116470086D01*
X61199781Y-116374848D01*
X61199781Y-116136752D01*
X61247400Y-116041514D01*
X61295019Y-115993895D01*
X61390257Y-115946276D01*
X61485495Y-115946276D01*
X61628352Y-115993895D01*
X62199781Y-116565324D01*
X62199781Y-115946276D01*
X61199781Y-115041514D02*
X61199781Y-115517705D01*
X61675971Y-115565324D01*
X61628352Y-115517705D01*
X61580733Y-115422467D01*
X61580733Y-115184371D01*
X61628352Y-115089133D01*
X61675971Y-115041514D01*
X61771210Y-114993895D01*
X62009305Y-114993895D01*
X62104543Y-115041514D01*
X62152162Y-115089133D01*
X62199781Y-115184371D01*
X62199781Y-115422467D01*
X62152162Y-115517705D01*
X62104543Y-115565324D01*
X66135882Y-116840057D02*
X65659691Y-117173391D01*
X66135882Y-117411486D02*
X65135882Y-117411486D01*
X65135882Y-117030533D01*
X65183501Y-116935295D01*
X65231120Y-116887676D01*
X65326358Y-116840057D01*
X65469215Y-116840057D01*
X65564453Y-116887676D01*
X65612072Y-116935295D01*
X65659691Y-117030533D01*
X65659691Y-117411486D01*
X65231120Y-116459105D02*
X65183501Y-116411486D01*
X65135882Y-116316248D01*
X65135882Y-116078152D01*
X65183501Y-115982914D01*
X65231120Y-115935295D01*
X65326358Y-115887676D01*
X65421596Y-115887676D01*
X65564453Y-115935295D01*
X66135882Y-116506724D01*
X66135882Y-115887676D01*
X65135882Y-115030533D02*
X65135882Y-115221010D01*
X65183501Y-115316248D01*
X65231120Y-115363867D01*
X65373977Y-115459105D01*
X65564453Y-115506724D01*
X65945406Y-115506724D01*
X66040644Y-115459105D01*
X66088263Y-115411486D01*
X66135882Y-115316248D01*
X66135882Y-115125771D01*
X66088263Y-115030533D01*
X66040644Y-114982914D01*
X65945406Y-114935295D01*
X65707311Y-114935295D01*
X65612072Y-114982914D01*
X65564453Y-115030533D01*
X65516834Y-115125771D01*
X65516834Y-115316248D01*
X65564453Y-115411486D01*
X65612072Y-115459105D01*
X65707311Y-115506724D01*
X96510101Y-88457066D02*
X96033910Y-88790400D01*
X96510101Y-89028495D02*
X95510101Y-89028495D01*
X95510101Y-88647542D01*
X95557720Y-88552304D01*
X95605339Y-88504685D01*
X95700577Y-88457066D01*
X95843434Y-88457066D01*
X95938672Y-88504685D01*
X95986291Y-88552304D01*
X96033910Y-88647542D01*
X96033910Y-89028495D01*
X96510101Y-87504685D02*
X96510101Y-88076114D01*
X96510101Y-87790400D02*
X95510101Y-87790400D01*
X95652958Y-87885638D01*
X95748196Y-87980876D01*
X95795815Y-88076114D01*
X100421701Y-88680586D02*
X99945510Y-89013920D01*
X100421701Y-89252015D02*
X99421701Y-89252015D01*
X99421701Y-88871062D01*
X99469320Y-88775824D01*
X99516939Y-88728205D01*
X99612177Y-88680586D01*
X99755034Y-88680586D01*
X99850272Y-88728205D01*
X99897891Y-88775824D01*
X99945510Y-88871062D01*
X99945510Y-89252015D01*
X99516939Y-88299634D02*
X99469320Y-88252015D01*
X99421701Y-88156777D01*
X99421701Y-87918681D01*
X99469320Y-87823443D01*
X99516939Y-87775824D01*
X99612177Y-87728205D01*
X99707415Y-87728205D01*
X99850272Y-87775824D01*
X100421701Y-88347253D01*
X100421701Y-87728205D01*
X104500941Y-88904106D02*
X104024750Y-89237440D01*
X104500941Y-89475535D02*
X103500941Y-89475535D01*
X103500941Y-89094582D01*
X103548560Y-88999344D01*
X103596179Y-88951725D01*
X103691417Y-88904106D01*
X103834274Y-88904106D01*
X103929512Y-88951725D01*
X103977131Y-88999344D01*
X104024750Y-89094582D01*
X104024750Y-89475535D01*
X103500941Y-88570773D02*
X103500941Y-87951725D01*
X103881893Y-88285059D01*
X103881893Y-88142201D01*
X103929512Y-88046963D01*
X103977131Y-87999344D01*
X104072370Y-87951725D01*
X104310465Y-87951725D01*
X104405703Y-87999344D01*
X104453322Y-88046963D01*
X104500941Y-88142201D01*
X104500941Y-88427916D01*
X104453322Y-88523154D01*
X104405703Y-88570773D01*
X108580181Y-88680586D02*
X108103990Y-89013920D01*
X108580181Y-89252015D02*
X107580181Y-89252015D01*
X107580181Y-88871062D01*
X107627800Y-88775824D01*
X107675419Y-88728205D01*
X107770657Y-88680586D01*
X107913514Y-88680586D01*
X108008752Y-88728205D01*
X108056371Y-88775824D01*
X108103990Y-88871062D01*
X108103990Y-89252015D01*
X107913514Y-87823443D02*
X108580181Y-87823443D01*
X107532562Y-88061539D02*
X108246848Y-88299634D01*
X108246848Y-87680586D01*
X112771181Y-89212657D02*
X112294990Y-89545991D01*
X112771181Y-89784086D02*
X111771181Y-89784086D01*
X111771181Y-89403133D01*
X111818800Y-89307895D01*
X111866419Y-89260276D01*
X111961657Y-89212657D01*
X112104514Y-89212657D01*
X112199752Y-89260276D01*
X112247371Y-89307895D01*
X112294990Y-89403133D01*
X112294990Y-89784086D01*
X111866419Y-88831705D02*
X111818800Y-88784086D01*
X111771181Y-88688848D01*
X111771181Y-88450752D01*
X111818800Y-88355514D01*
X111866419Y-88307895D01*
X111961657Y-88260276D01*
X112056895Y-88260276D01*
X112199752Y-88307895D01*
X112771181Y-88879324D01*
X112771181Y-88260276D01*
X111771181Y-87926943D02*
X111771181Y-87260276D01*
X112771181Y-87688848D01*
X117223801Y-89291397D02*
X116747610Y-89624731D01*
X117223801Y-89862826D02*
X116223801Y-89862826D01*
X116223801Y-89481873D01*
X116271420Y-89386635D01*
X116319039Y-89339016D01*
X116414277Y-89291397D01*
X116557134Y-89291397D01*
X116652372Y-89339016D01*
X116699991Y-89386635D01*
X116747610Y-89481873D01*
X116747610Y-89862826D01*
X116319039Y-88910445D02*
X116271420Y-88862826D01*
X116223801Y-88767588D01*
X116223801Y-88529492D01*
X116271420Y-88434254D01*
X116319039Y-88386635D01*
X116414277Y-88339016D01*
X116509515Y-88339016D01*
X116652372Y-88386635D01*
X117223801Y-88958064D01*
X117223801Y-88339016D01*
X116652372Y-87767588D02*
X116604753Y-87862826D01*
X116557134Y-87910445D01*
X116461896Y-87958064D01*
X116414277Y-87958064D01*
X116319039Y-87910445D01*
X116271420Y-87862826D01*
X116223801Y-87767588D01*
X116223801Y-87577111D01*
X116271420Y-87481873D01*
X116319039Y-87434254D01*
X116414277Y-87386635D01*
X116461896Y-87386635D01*
X116557134Y-87434254D01*
X116604753Y-87481873D01*
X116652372Y-87577111D01*
X116652372Y-87767588D01*
X116699991Y-87862826D01*
X116747610Y-87910445D01*
X116842849Y-87958064D01*
X117033325Y-87958064D01*
X117128563Y-87910445D01*
X117176182Y-87862826D01*
X117223801Y-87767588D01*
X117223801Y-87577111D01*
X117176182Y-87481873D01*
X117128563Y-87434254D01*
X117033325Y-87386635D01*
X116842849Y-87386635D01*
X116747610Y-87434254D01*
X116699991Y-87481873D01*
X116652372Y-87577111D01*
X120911881Y-88877377D02*
X120435690Y-89210711D01*
X120911881Y-89448806D02*
X119911881Y-89448806D01*
X119911881Y-89067853D01*
X119959500Y-88972615D01*
X120007119Y-88924996D01*
X120102357Y-88877377D01*
X120245214Y-88877377D01*
X120340452Y-88924996D01*
X120388071Y-88972615D01*
X120435690Y-89067853D01*
X120435690Y-89448806D01*
X120007119Y-88496425D02*
X119959500Y-88448806D01*
X119911881Y-88353568D01*
X119911881Y-88115472D01*
X119959500Y-88020234D01*
X120007119Y-87972615D01*
X120102357Y-87924996D01*
X120197595Y-87924996D01*
X120340452Y-87972615D01*
X120911881Y-88544044D01*
X120911881Y-87924996D01*
X120911881Y-87448806D02*
X120911881Y-87258330D01*
X120864262Y-87163091D01*
X120816643Y-87115472D01*
X120673786Y-87020234D01*
X120483310Y-86972615D01*
X120102357Y-86972615D01*
X120007119Y-87020234D01*
X119959500Y-87067853D01*
X119911881Y-87163091D01*
X119911881Y-87353568D01*
X119959500Y-87448806D01*
X120007119Y-87496425D01*
X120102357Y-87544044D01*
X120340452Y-87544044D01*
X120435690Y-87496425D01*
X120483310Y-87448806D01*
X120530929Y-87353568D01*
X120530929Y-87163091D01*
X120483310Y-87067853D01*
X120435690Y-87020234D01*
X120340452Y-86972615D01*
X124968261Y-89123757D02*
X124492070Y-89457091D01*
X124968261Y-89695186D02*
X123968261Y-89695186D01*
X123968261Y-89314233D01*
X124015880Y-89218995D01*
X124063499Y-89171376D01*
X124158737Y-89123757D01*
X124301594Y-89123757D01*
X124396832Y-89171376D01*
X124444451Y-89218995D01*
X124492070Y-89314233D01*
X124492070Y-89695186D01*
X123968261Y-88790424D02*
X123968261Y-88171376D01*
X124349213Y-88504710D01*
X124349213Y-88361852D01*
X124396832Y-88266614D01*
X124444451Y-88218995D01*
X124539690Y-88171376D01*
X124777785Y-88171376D01*
X124873023Y-88218995D01*
X124920642Y-88266614D01*
X124968261Y-88361852D01*
X124968261Y-88647567D01*
X124920642Y-88742805D01*
X124873023Y-88790424D01*
X123968261Y-87552329D02*
X123968261Y-87457090D01*
X124015880Y-87361852D01*
X124063499Y-87314233D01*
X124158737Y-87266614D01*
X124349213Y-87218995D01*
X124587309Y-87218995D01*
X124777785Y-87266614D01*
X124873023Y-87314233D01*
X124920642Y-87361852D01*
X124968261Y-87457090D01*
X124968261Y-87552329D01*
X124920642Y-87647567D01*
X124873023Y-87695186D01*
X124777785Y-87742805D01*
X124587309Y-87790424D01*
X124349213Y-87790424D01*
X124158737Y-87742805D01*
X124063499Y-87695186D01*
X124015880Y-87647567D01*
X123968261Y-87552329D01*
X128857001Y-89067877D02*
X128380810Y-89401211D01*
X128857001Y-89639306D02*
X127857001Y-89639306D01*
X127857001Y-89258353D01*
X127904620Y-89163115D01*
X127952239Y-89115496D01*
X128047477Y-89067877D01*
X128190334Y-89067877D01*
X128285572Y-89115496D01*
X128333191Y-89163115D01*
X128380810Y-89258353D01*
X128380810Y-89639306D01*
X127857001Y-88734544D02*
X127857001Y-88115496D01*
X128237953Y-88448830D01*
X128237953Y-88305972D01*
X128285572Y-88210734D01*
X128333191Y-88163115D01*
X128428430Y-88115496D01*
X128666525Y-88115496D01*
X128761763Y-88163115D01*
X128809382Y-88210734D01*
X128857001Y-88305972D01*
X128857001Y-88591687D01*
X128809382Y-88686925D01*
X128761763Y-88734544D01*
X128857001Y-87163115D02*
X128857001Y-87734544D01*
X128857001Y-87448830D02*
X127857001Y-87448830D01*
X127999858Y-87544068D01*
X128095096Y-87639306D01*
X128142715Y-87734544D01*
X132884542Y-89314077D02*
X132408351Y-89647411D01*
X132884542Y-89885506D02*
X131884542Y-89885506D01*
X131884542Y-89504553D01*
X131932161Y-89409315D01*
X131979780Y-89361696D01*
X132075018Y-89314077D01*
X132217875Y-89314077D01*
X132313113Y-89361696D01*
X132360732Y-89409315D01*
X132408351Y-89504553D01*
X132408351Y-89885506D01*
X131884542Y-88980744D02*
X131884542Y-88361696D01*
X132265494Y-88695030D01*
X132265494Y-88552172D01*
X132313113Y-88456934D01*
X132360732Y-88409315D01*
X132455971Y-88361696D01*
X132694066Y-88361696D01*
X132789304Y-88409315D01*
X132836923Y-88456934D01*
X132884542Y-88552172D01*
X132884542Y-88837887D01*
X132836923Y-88933125D01*
X132789304Y-88980744D01*
X131979780Y-87980744D02*
X131932161Y-87933125D01*
X131884542Y-87837887D01*
X131884542Y-87599791D01*
X131932161Y-87504553D01*
X131979780Y-87456934D01*
X132075018Y-87409315D01*
X132170256Y-87409315D01*
X132313113Y-87456934D01*
X132884542Y-88028363D01*
X132884542Y-87409315D01*
X96510101Y-64065446D02*
X96033910Y-64398780D01*
X96510101Y-64636875D02*
X95510101Y-64636875D01*
X95510101Y-64255922D01*
X95557720Y-64160684D01*
X95605339Y-64113065D01*
X95700577Y-64065446D01*
X95843434Y-64065446D01*
X95938672Y-64113065D01*
X95986291Y-64160684D01*
X96033910Y-64255922D01*
X96033910Y-64636875D01*
X95510101Y-63208303D02*
X95510101Y-63398780D01*
X95557720Y-63494018D01*
X95605339Y-63541637D01*
X95748196Y-63636875D01*
X95938672Y-63684494D01*
X96319625Y-63684494D01*
X96414863Y-63636875D01*
X96462482Y-63589256D01*
X96510101Y-63494018D01*
X96510101Y-63303541D01*
X96462482Y-63208303D01*
X96414863Y-63160684D01*
X96319625Y-63113065D01*
X96081530Y-63113065D01*
X95986291Y-63160684D01*
X95938672Y-63208303D01*
X95891053Y-63303541D01*
X95891053Y-63494018D01*
X95938672Y-63589256D01*
X95986291Y-63636875D01*
X96081530Y-63684494D01*
X92105741Y-64833737D02*
X91629550Y-65167071D01*
X92105741Y-65405166D02*
X91105741Y-65405166D01*
X91105741Y-65024213D01*
X91153360Y-64928975D01*
X91200979Y-64881356D01*
X91296217Y-64833737D01*
X91439074Y-64833737D01*
X91534312Y-64881356D01*
X91581931Y-64928975D01*
X91629550Y-65024213D01*
X91629550Y-65405166D01*
X92105741Y-63881356D02*
X92105741Y-64452785D01*
X92105741Y-64167071D02*
X91105741Y-64167071D01*
X91248598Y-64262309D01*
X91343836Y-64357547D01*
X91391455Y-64452785D01*
X91105741Y-63262309D02*
X91105741Y-63167070D01*
X91153360Y-63071832D01*
X91200979Y-63024213D01*
X91296217Y-62976594D01*
X91486693Y-62928975D01*
X91724789Y-62928975D01*
X91915265Y-62976594D01*
X92010503Y-63024213D01*
X92058122Y-63071832D01*
X92105741Y-63167070D01*
X92105741Y-63262309D01*
X92058122Y-63357547D01*
X92010503Y-63405166D01*
X91915265Y-63452785D01*
X91724789Y-63500404D01*
X91486693Y-63500404D01*
X91296217Y-63452785D01*
X91200979Y-63405166D01*
X91153360Y-63357547D01*
X91105741Y-63262309D01*
X88056981Y-64826117D02*
X87580790Y-65159451D01*
X88056981Y-65397546D02*
X87056981Y-65397546D01*
X87056981Y-65016593D01*
X87104600Y-64921355D01*
X87152219Y-64873736D01*
X87247457Y-64826117D01*
X87390314Y-64826117D01*
X87485552Y-64873736D01*
X87533171Y-64921355D01*
X87580790Y-65016593D01*
X87580790Y-65397546D01*
X88056981Y-63873736D02*
X88056981Y-64445165D01*
X88056981Y-64159451D02*
X87056981Y-64159451D01*
X87199838Y-64254689D01*
X87295076Y-64349927D01*
X87342695Y-64445165D01*
X87152219Y-63492784D02*
X87104600Y-63445165D01*
X87056981Y-63349927D01*
X87056981Y-63111831D01*
X87104600Y-63016593D01*
X87152219Y-62968974D01*
X87247457Y-62921355D01*
X87342695Y-62921355D01*
X87485552Y-62968974D01*
X88056981Y-63540403D01*
X88056981Y-62921355D01*
X83878681Y-65069957D02*
X83402490Y-65403291D01*
X83878681Y-65641386D02*
X82878681Y-65641386D01*
X82878681Y-65260433D01*
X82926300Y-65165195D01*
X82973919Y-65117576D01*
X83069157Y-65069957D01*
X83212014Y-65069957D01*
X83307252Y-65117576D01*
X83354871Y-65165195D01*
X83402490Y-65260433D01*
X83402490Y-65641386D01*
X83878681Y-64117576D02*
X83878681Y-64689005D01*
X83878681Y-64403291D02*
X82878681Y-64403291D01*
X83021538Y-64498529D01*
X83116776Y-64593767D01*
X83164395Y-64689005D01*
X83212014Y-63260433D02*
X83878681Y-63260433D01*
X82831062Y-63498529D02*
X83545348Y-63736624D01*
X83545348Y-63117576D01*
X79751181Y-64854057D02*
X79274990Y-65187391D01*
X79751181Y-65425486D02*
X78751181Y-65425486D01*
X78751181Y-65044533D01*
X78798800Y-64949295D01*
X78846419Y-64901676D01*
X78941657Y-64854057D01*
X79084514Y-64854057D01*
X79179752Y-64901676D01*
X79227371Y-64949295D01*
X79274990Y-65044533D01*
X79274990Y-65425486D01*
X78751181Y-64520724D02*
X78751181Y-63901676D01*
X79132133Y-64235010D01*
X79132133Y-64092152D01*
X79179752Y-63996914D01*
X79227371Y-63949295D01*
X79322610Y-63901676D01*
X79560705Y-63901676D01*
X79655943Y-63949295D01*
X79703562Y-63996914D01*
X79751181Y-64092152D01*
X79751181Y-64377867D01*
X79703562Y-64473105D01*
X79655943Y-64520724D01*
X78751181Y-63568343D02*
X78751181Y-62949295D01*
X79132133Y-63282629D01*
X79132133Y-63139771D01*
X79179752Y-63044533D01*
X79227371Y-62996914D01*
X79322610Y-62949295D01*
X79560705Y-62949295D01*
X79655943Y-62996914D01*
X79703562Y-63044533D01*
X79751181Y-63139771D01*
X79751181Y-63425486D01*
X79703562Y-63520724D01*
X79655943Y-63568343D01*
X75661781Y-64561957D02*
X75185590Y-64895291D01*
X75661781Y-65133386D02*
X74661781Y-65133386D01*
X74661781Y-64752433D01*
X74709400Y-64657195D01*
X74757019Y-64609576D01*
X74852257Y-64561957D01*
X74995114Y-64561957D01*
X75090352Y-64609576D01*
X75137971Y-64657195D01*
X75185590Y-64752433D01*
X75185590Y-65133386D01*
X74661781Y-64228624D02*
X74661781Y-63609576D01*
X75042733Y-63942910D01*
X75042733Y-63800052D01*
X75090352Y-63704814D01*
X75137971Y-63657195D01*
X75233210Y-63609576D01*
X75471305Y-63609576D01*
X75566543Y-63657195D01*
X75614162Y-63704814D01*
X75661781Y-63800052D01*
X75661781Y-64085767D01*
X75614162Y-64181005D01*
X75566543Y-64228624D01*
X74995114Y-62752433D02*
X75661781Y-62752433D01*
X74614162Y-62990529D02*
X75328448Y-63228624D01*
X75328448Y-62609576D01*
X71750181Y-64828657D02*
X71273990Y-65161991D01*
X71750181Y-65400086D02*
X70750181Y-65400086D01*
X70750181Y-65019133D01*
X70797800Y-64923895D01*
X70845419Y-64876276D01*
X70940657Y-64828657D01*
X71083514Y-64828657D01*
X71178752Y-64876276D01*
X71226371Y-64923895D01*
X71273990Y-65019133D01*
X71273990Y-65400086D01*
X70750181Y-64495324D02*
X70750181Y-63876276D01*
X71131133Y-64209610D01*
X71131133Y-64066752D01*
X71178752Y-63971514D01*
X71226371Y-63923895D01*
X71321610Y-63876276D01*
X71559705Y-63876276D01*
X71654943Y-63923895D01*
X71702562Y-63971514D01*
X71750181Y-64066752D01*
X71750181Y-64352467D01*
X71702562Y-64447705D01*
X71654943Y-64495324D01*
X70750181Y-62971514D02*
X70750181Y-63447705D01*
X71226371Y-63495324D01*
X71178752Y-63447705D01*
X71131133Y-63352467D01*
X71131133Y-63114371D01*
X71178752Y-63019133D01*
X71226371Y-62971514D01*
X71321610Y-62923895D01*
X71559705Y-62923895D01*
X71654943Y-62971514D01*
X71702562Y-63019133D01*
X71750181Y-63114371D01*
X71750181Y-63352467D01*
X71702562Y-63447705D01*
X71654943Y-63495324D01*
X67838581Y-64650857D02*
X67362390Y-64984191D01*
X67838581Y-65222286D02*
X66838581Y-65222286D01*
X66838581Y-64841333D01*
X66886200Y-64746095D01*
X66933819Y-64698476D01*
X67029057Y-64650857D01*
X67171914Y-64650857D01*
X67267152Y-64698476D01*
X67314771Y-64746095D01*
X67362390Y-64841333D01*
X67362390Y-65222286D01*
X66838581Y-64317524D02*
X66838581Y-63698476D01*
X67219533Y-64031810D01*
X67219533Y-63888952D01*
X67267152Y-63793714D01*
X67314771Y-63746095D01*
X67410010Y-63698476D01*
X67648105Y-63698476D01*
X67743343Y-63746095D01*
X67790962Y-63793714D01*
X67838581Y-63888952D01*
X67838581Y-64174667D01*
X67790962Y-64269905D01*
X67743343Y-64317524D01*
X66838581Y-62841333D02*
X66838581Y-63031810D01*
X66886200Y-63127048D01*
X66933819Y-63174667D01*
X67076676Y-63269905D01*
X67267152Y-63317524D01*
X67648105Y-63317524D01*
X67743343Y-63269905D01*
X67790962Y-63222286D01*
X67838581Y-63127048D01*
X67838581Y-62936571D01*
X67790962Y-62841333D01*
X67743343Y-62793714D01*
X67648105Y-62746095D01*
X67410010Y-62746095D01*
X67314771Y-62793714D01*
X67267152Y-62841333D01*
X67219533Y-62936571D01*
X67219533Y-63127048D01*
X67267152Y-63222286D01*
X67314771Y-63269905D01*
X67410010Y-63317524D01*
X63749181Y-64561957D02*
X63272990Y-64895291D01*
X63749181Y-65133386D02*
X62749181Y-65133386D01*
X62749181Y-64752433D01*
X62796800Y-64657195D01*
X62844419Y-64609576D01*
X62939657Y-64561957D01*
X63082514Y-64561957D01*
X63177752Y-64609576D01*
X63225371Y-64657195D01*
X63272990Y-64752433D01*
X63272990Y-65133386D01*
X62749181Y-64228624D02*
X62749181Y-63609576D01*
X63130133Y-63942910D01*
X63130133Y-63800052D01*
X63177752Y-63704814D01*
X63225371Y-63657195D01*
X63320610Y-63609576D01*
X63558705Y-63609576D01*
X63653943Y-63657195D01*
X63701562Y-63704814D01*
X63749181Y-63800052D01*
X63749181Y-64085767D01*
X63701562Y-64181005D01*
X63653943Y-64228624D01*
X62749181Y-63276243D02*
X62749181Y-62609576D01*
X63749181Y-63038148D01*
X59569982Y-65303457D02*
X59093791Y-65636791D01*
X59569982Y-65874886D02*
X58569982Y-65874886D01*
X58569982Y-65493933D01*
X58617601Y-65398695D01*
X58665220Y-65351076D01*
X58760458Y-65303457D01*
X58903315Y-65303457D01*
X58998553Y-65351076D01*
X59046172Y-65398695D01*
X59093791Y-65493933D01*
X59093791Y-65874886D01*
X58569982Y-64970124D02*
X58569982Y-64351076D01*
X58950934Y-64684410D01*
X58950934Y-64541552D01*
X58998553Y-64446314D01*
X59046172Y-64398695D01*
X59141411Y-64351076D01*
X59379506Y-64351076D01*
X59474744Y-64398695D01*
X59522363Y-64446314D01*
X59569982Y-64541552D01*
X59569982Y-64827267D01*
X59522363Y-64922505D01*
X59474744Y-64970124D01*
X58998553Y-63779648D02*
X58950934Y-63874886D01*
X58903315Y-63922505D01*
X58808077Y-63970124D01*
X58760458Y-63970124D01*
X58665220Y-63922505D01*
X58617601Y-63874886D01*
X58569982Y-63779648D01*
X58569982Y-63589171D01*
X58617601Y-63493933D01*
X58665220Y-63446314D01*
X58760458Y-63398695D01*
X58808077Y-63398695D01*
X58903315Y-63446314D01*
X58950934Y-63493933D01*
X58998553Y-63589171D01*
X58998553Y-63779648D01*
X59046172Y-63874886D01*
X59093791Y-63922505D01*
X59189030Y-63970124D01*
X59379506Y-63970124D01*
X59474744Y-63922505D01*
X59522363Y-63874886D01*
X59569982Y-63779648D01*
X59569982Y-63589171D01*
X59522363Y-63493933D01*
X59474744Y-63446314D01*
X59379506Y-63398695D01*
X59189030Y-63398695D01*
X59093791Y-63446314D01*
X59046172Y-63493933D01*
X58998553Y-63589171D01*
X128325667Y-59186381D02*
X128325667Y-59900667D01*
X128278047Y-60043524D01*
X128182809Y-60138762D01*
X128039952Y-60186381D01*
X127944714Y-60186381D01*
X128801857Y-60186381D02*
X128801857Y-59186381D01*
X129182810Y-59186381D01*
X129278048Y-59234000D01*
X129325667Y-59281619D01*
X129373286Y-59376857D01*
X129373286Y-59519714D01*
X129325667Y-59614952D01*
X129278048Y-59662571D01*
X129182810Y-59710190D01*
X128801857Y-59710190D01*
X129706619Y-59186381D02*
X130325667Y-59186381D01*
X129992333Y-59567333D01*
X130135191Y-59567333D01*
X130230429Y-59614952D01*
X130278048Y-59662571D01*
X130325667Y-59757810D01*
X130325667Y-59995905D01*
X130278048Y-60091143D01*
X130230429Y-60138762D01*
X130135191Y-60186381D01*
X129849476Y-60186381D01*
X129754238Y-60138762D01*
X129706619Y-60091143D01*
X99308707Y-53630581D02*
X99308707Y-54344867D01*
X99261087Y-54487724D01*
X99165849Y-54582962D01*
X99022992Y-54630581D01*
X98927754Y-54630581D01*
X99784897Y-54630581D02*
X99784897Y-53630581D01*
X100165850Y-53630581D01*
X100261088Y-53678200D01*
X100308707Y-53725819D01*
X100356326Y-53821057D01*
X100356326Y-53963914D01*
X100308707Y-54059152D01*
X100261088Y-54106771D01*
X100165850Y-54154390D01*
X99784897Y-54154390D01*
X101213469Y-53630581D02*
X101022992Y-53630581D01*
X100927754Y-53678200D01*
X100880135Y-53725819D01*
X100784897Y-53868676D01*
X100737278Y-54059152D01*
X100737278Y-54440105D01*
X100784897Y-54535343D01*
X100832516Y-54582962D01*
X100927754Y-54630581D01*
X101118231Y-54630581D01*
X101213469Y-54582962D01*
X101261088Y-54535343D01*
X101308707Y-54440105D01*
X101308707Y-54202010D01*
X101261088Y-54106771D01*
X101213469Y-54059152D01*
X101118231Y-54011533D01*
X100927754Y-54011533D01*
X100832516Y-54059152D01*
X100784897Y-54106771D01*
X100737278Y-54202010D01*
X93268587Y-125192541D02*
X93268587Y-125906827D01*
X93220967Y-126049684D01*
X93125729Y-126144922D01*
X92982872Y-126192541D01*
X92887634Y-126192541D01*
X93744777Y-126192541D02*
X93744777Y-125192541D01*
X94125730Y-125192541D01*
X94220968Y-125240160D01*
X94268587Y-125287779D01*
X94316206Y-125383017D01*
X94316206Y-125525874D01*
X94268587Y-125621112D01*
X94220968Y-125668731D01*
X94125730Y-125716350D01*
X93744777Y-125716350D01*
X94792396Y-126192541D02*
X94982872Y-126192541D01*
X95078111Y-126144922D01*
X95125730Y-126097303D01*
X95220968Y-125954446D01*
X95268587Y-125763970D01*
X95268587Y-125383017D01*
X95220968Y-125287779D01*
X95173349Y-125240160D01*
X95078111Y-125192541D01*
X94887634Y-125192541D01*
X94792396Y-125240160D01*
X94744777Y-125287779D01*
X94697158Y-125383017D01*
X94697158Y-125621112D01*
X94744777Y-125716350D01*
X94792396Y-125763970D01*
X94887634Y-125811589D01*
X95078111Y-125811589D01*
X95173349Y-125763970D01*
X95220968Y-125716350D01*
X95268587Y-125621112D01*
X135405977Y-120781381D02*
X135405977Y-121495667D01*
X135358357Y-121638524D01*
X135263119Y-121733762D01*
X135120262Y-121781381D01*
X135025024Y-121781381D01*
X135882167Y-121781381D02*
X135882167Y-120781381D01*
X136263120Y-120781381D01*
X136358358Y-120829000D01*
X136405977Y-120876619D01*
X136453596Y-120971857D01*
X136453596Y-121114714D01*
X136405977Y-121209952D01*
X136358358Y-121257571D01*
X136263120Y-121305190D01*
X135882167Y-121305190D01*
X137405977Y-121781381D02*
X136834548Y-121781381D01*
X137120262Y-121781381D02*
X137120262Y-120781381D01*
X137025024Y-120924238D01*
X136929786Y-121019476D01*
X136834548Y-121067095D01*
X138025024Y-120781381D02*
X138120263Y-120781381D01*
X138215501Y-120829000D01*
X138263120Y-120876619D01*
X138310739Y-120971857D01*
X138358358Y-121162333D01*
X138358358Y-121400429D01*
X138310739Y-121590905D01*
X138263120Y-121686143D01*
X138215501Y-121733762D01*
X138120263Y-121781381D01*
X138025024Y-121781381D01*
X137929786Y-121733762D01*
X137882167Y-121686143D01*
X137834548Y-121590905D01*
X137786929Y-121400429D01*
X137786929Y-121162333D01*
X137834548Y-120971857D01*
X137882167Y-120876619D01*
X137929786Y-120829000D01*
X138025024Y-120781381D01*
X123432274Y-102579443D02*
X123384655Y-102627062D01*
X123241798Y-102674681D01*
X123146560Y-102674681D01*
X123003702Y-102627062D01*
X122908464Y-102531824D01*
X122860845Y-102436586D01*
X122813226Y-102246110D01*
X122813226Y-102103252D01*
X122860845Y-101912776D01*
X122908464Y-101817538D01*
X123003702Y-101722300D01*
X123146560Y-101674681D01*
X123241798Y-101674681D01*
X123384655Y-101722300D01*
X123432274Y-101769919D01*
X124337036Y-101674681D02*
X123860845Y-101674681D01*
X123813226Y-102150871D01*
X123860845Y-102103252D01*
X123956083Y-102055633D01*
X124194179Y-102055633D01*
X124289417Y-102103252D01*
X124337036Y-102150871D01*
X124384655Y-102246110D01*
X124384655Y-102484205D01*
X124337036Y-102579443D01*
X124289417Y-102627062D01*
X124194179Y-102674681D01*
X123956083Y-102674681D01*
X123860845Y-102627062D01*
X123813226Y-102579443D01*
X136564643Y-79173366D02*
X136612262Y-79220985D01*
X136659881Y-79363842D01*
X136659881Y-79459080D01*
X136612262Y-79601938D01*
X136517024Y-79697176D01*
X136421786Y-79744795D01*
X136231310Y-79792414D01*
X136088452Y-79792414D01*
X135897976Y-79744795D01*
X135802738Y-79697176D01*
X135707500Y-79601938D01*
X135659881Y-79459080D01*
X135659881Y-79363842D01*
X135707500Y-79220985D01*
X135755119Y-79173366D01*
X135659881Y-78316223D02*
X135659881Y-78506700D01*
X135707500Y-78601938D01*
X135755119Y-78649557D01*
X135897976Y-78744795D01*
X136088452Y-78792414D01*
X136469405Y-78792414D01*
X136564643Y-78744795D01*
X136612262Y-78697176D01*
X136659881Y-78601938D01*
X136659881Y-78411461D01*
X136612262Y-78316223D01*
X136564643Y-78268604D01*
X136469405Y-78220985D01*
X136231310Y-78220985D01*
X136136071Y-78268604D01*
X136088452Y-78316223D01*
X136040833Y-78411461D01*
X136040833Y-78601938D01*
X136088452Y-78697176D01*
X136136071Y-78744795D01*
X136231310Y-78792414D01*
X56491143Y-80176666D02*
X56538762Y-80224285D01*
X56586381Y-80367142D01*
X56586381Y-80462380D01*
X56538762Y-80605238D01*
X56443524Y-80700476D01*
X56348286Y-80748095D01*
X56157810Y-80795714D01*
X56014952Y-80795714D01*
X55824476Y-80748095D01*
X55729238Y-80700476D01*
X55634000Y-80605238D01*
X55586381Y-80462380D01*
X55586381Y-80367142D01*
X55634000Y-80224285D01*
X55681619Y-80176666D01*
X55586381Y-79843333D02*
X55586381Y-79176666D01*
X56586381Y-79605238D01*
X74779143Y-94146666D02*
X74826762Y-94194285D01*
X74874381Y-94337142D01*
X74874381Y-94432380D01*
X74826762Y-94575238D01*
X74731524Y-94670476D01*
X74636286Y-94718095D01*
X74445810Y-94765714D01*
X74302952Y-94765714D01*
X74112476Y-94718095D01*
X74017238Y-94670476D01*
X73922000Y-94575238D01*
X73874381Y-94432380D01*
X73874381Y-94337142D01*
X73922000Y-94194285D01*
X73969619Y-94146666D01*
X74302952Y-93575238D02*
X74255333Y-93670476D01*
X74207714Y-93718095D01*
X74112476Y-93765714D01*
X74064857Y-93765714D01*
X73969619Y-93718095D01*
X73922000Y-93670476D01*
X73874381Y-93575238D01*
X73874381Y-93384761D01*
X73922000Y-93289523D01*
X73969619Y-93241904D01*
X74064857Y-93194285D01*
X74112476Y-93194285D01*
X74207714Y-93241904D01*
X74255333Y-93289523D01*
X74302952Y-93384761D01*
X74302952Y-93575238D01*
X74350571Y-93670476D01*
X74398190Y-93718095D01*
X74493429Y-93765714D01*
X74683905Y-93765714D01*
X74779143Y-93718095D01*
X74826762Y-93670476D01*
X74874381Y-93575238D01*
X74874381Y-93384761D01*
X74826762Y-93289523D01*
X74779143Y-93241904D01*
X74683905Y-93194285D01*
X74493429Y-93194285D01*
X74398190Y-93241904D01*
X74350571Y-93289523D01*
X74302952Y-93384761D01*
X118975143Y-110656666D02*
X119022762Y-110704285D01*
X119070381Y-110847142D01*
X119070381Y-110942380D01*
X119022762Y-111085238D01*
X118927524Y-111180476D01*
X118832286Y-111228095D01*
X118641810Y-111275714D01*
X118498952Y-111275714D01*
X118308476Y-111228095D01*
X118213238Y-111180476D01*
X118118000Y-111085238D01*
X118070381Y-110942380D01*
X118070381Y-110847142D01*
X118118000Y-110704285D01*
X118165619Y-110656666D01*
X119070381Y-110180476D02*
X119070381Y-109990000D01*
X119022762Y-109894761D01*
X118975143Y-109847142D01*
X118832286Y-109751904D01*
X118641810Y-109704285D01*
X118260857Y-109704285D01*
X118165619Y-109751904D01*
X118118000Y-109799523D01*
X118070381Y-109894761D01*
X118070381Y-110085238D01*
X118118000Y-110180476D01*
X118165619Y-110228095D01*
X118260857Y-110275714D01*
X118498952Y-110275714D01*
X118594190Y-110228095D01*
X118641810Y-110180476D01*
X118689429Y-110085238D01*
X118689429Y-109894761D01*
X118641810Y-109799523D01*
X118594190Y-109751904D01*
X118498952Y-109704285D01*
X120245143Y-67952857D02*
X120292762Y-68000476D01*
X120340381Y-68143333D01*
X120340381Y-68238571D01*
X120292762Y-68381429D01*
X120197524Y-68476667D01*
X120102286Y-68524286D01*
X119911810Y-68571905D01*
X119768952Y-68571905D01*
X119578476Y-68524286D01*
X119483238Y-68476667D01*
X119388000Y-68381429D01*
X119340381Y-68238571D01*
X119340381Y-68143333D01*
X119388000Y-68000476D01*
X119435619Y-67952857D01*
X120340381Y-67000476D02*
X120340381Y-67571905D01*
X120340381Y-67286191D02*
X119340381Y-67286191D01*
X119483238Y-67381429D01*
X119578476Y-67476667D01*
X119626095Y-67571905D01*
X119340381Y-66381429D02*
X119340381Y-66286190D01*
X119388000Y-66190952D01*
X119435619Y-66143333D01*
X119530857Y-66095714D01*
X119721333Y-66048095D01*
X119959429Y-66048095D01*
X120149905Y-66095714D01*
X120245143Y-66143333D01*
X120292762Y-66190952D01*
X120340381Y-66286190D01*
X120340381Y-66381429D01*
X120292762Y-66476667D01*
X120245143Y-66524286D01*
X120149905Y-66571905D01*
X119959429Y-66619524D01*
X119721333Y-66619524D01*
X119530857Y-66571905D01*
X119435619Y-66524286D01*
X119388000Y-66476667D01*
X119340381Y-66381429D01*
X136247143Y-89542857D02*
X136294762Y-89590476D01*
X136342381Y-89733333D01*
X136342381Y-89828571D01*
X136294762Y-89971429D01*
X136199524Y-90066667D01*
X136104286Y-90114286D01*
X135913810Y-90161905D01*
X135770952Y-90161905D01*
X135580476Y-90114286D01*
X135485238Y-90066667D01*
X135390000Y-89971429D01*
X135342381Y-89828571D01*
X135342381Y-89733333D01*
X135390000Y-89590476D01*
X135437619Y-89542857D01*
X136342381Y-88590476D02*
X136342381Y-89161905D01*
X136342381Y-88876191D02*
X135342381Y-88876191D01*
X135485238Y-88971429D01*
X135580476Y-89066667D01*
X135628095Y-89161905D01*
X136342381Y-87638095D02*
X136342381Y-88209524D01*
X136342381Y-87923810D02*
X135342381Y-87923810D01*
X135485238Y-88019048D01*
X135580476Y-88114286D01*
X135628095Y-88209524D01*
X58031143Y-125833143D02*
X57983524Y-125880762D01*
X57840667Y-125928381D01*
X57745429Y-125928381D01*
X57602571Y-125880762D01*
X57507333Y-125785524D01*
X57459714Y-125690286D01*
X57412095Y-125499810D01*
X57412095Y-125356952D01*
X57459714Y-125166476D01*
X57507333Y-125071238D01*
X57602571Y-124976000D01*
X57745429Y-124928381D01*
X57840667Y-124928381D01*
X57983524Y-124976000D01*
X58031143Y-125023619D01*
X58983524Y-125928381D02*
X58412095Y-125928381D01*
X58697809Y-125928381D02*
X58697809Y-124928381D01*
X58602571Y-125071238D01*
X58507333Y-125166476D01*
X58412095Y-125214095D01*
X59364476Y-125023619D02*
X59412095Y-124976000D01*
X59507333Y-124928381D01*
X59745429Y-124928381D01*
X59840667Y-124976000D01*
X59888286Y-125023619D01*
X59935905Y-125118857D01*
X59935905Y-125214095D01*
X59888286Y-125356952D01*
X59316857Y-125928381D01*
X59935905Y-125928381D01*
X58115143Y-54420144D02*
X58067524Y-54467763D01*
X57924667Y-54515382D01*
X57829429Y-54515382D01*
X57686571Y-54467763D01*
X57591333Y-54372525D01*
X57543714Y-54277287D01*
X57496095Y-54086811D01*
X57496095Y-53943953D01*
X57543714Y-53753477D01*
X57591333Y-53658239D01*
X57686571Y-53563001D01*
X57829429Y-53515382D01*
X57924667Y-53515382D01*
X58067524Y-53563001D01*
X58115143Y-53610620D01*
X59067524Y-54515382D02*
X58496095Y-54515382D01*
X58781809Y-54515382D02*
X58781809Y-53515382D01*
X58686571Y-53658239D01*
X58591333Y-53753477D01*
X58496095Y-53801096D01*
X59400857Y-53515382D02*
X60019905Y-53515382D01*
X59686571Y-53896334D01*
X59829429Y-53896334D01*
X59924667Y-53943953D01*
X59972286Y-53991572D01*
X60019905Y-54086811D01*
X60019905Y-54324906D01*
X59972286Y-54420144D01*
X59924667Y-54467763D01*
X59829429Y-54515382D01*
X59543714Y-54515382D01*
X59448476Y-54467763D01*
X59400857Y-54420144D01*
X55068743Y-71102457D02*
X55116362Y-71150076D01*
X55163981Y-71292933D01*
X55163981Y-71388171D01*
X55116362Y-71531029D01*
X55021124Y-71626267D01*
X54925886Y-71673886D01*
X54735410Y-71721505D01*
X54592552Y-71721505D01*
X54402076Y-71673886D01*
X54306838Y-71626267D01*
X54211600Y-71531029D01*
X54163981Y-71388171D01*
X54163981Y-71292933D01*
X54211600Y-71150076D01*
X54259219Y-71102457D01*
X55163981Y-70150076D02*
X55163981Y-70721505D01*
X55163981Y-70435791D02*
X54163981Y-70435791D01*
X54306838Y-70531029D01*
X54402076Y-70626267D01*
X54449695Y-70721505D01*
X54163981Y-69245314D02*
X54163981Y-69721505D01*
X54640171Y-69769124D01*
X54592552Y-69721505D01*
X54544933Y-69626267D01*
X54544933Y-69388171D01*
X54592552Y-69292933D01*
X54640171Y-69245314D01*
X54735410Y-69197695D01*
X54973505Y-69197695D01*
X55068743Y-69245314D01*
X55116362Y-69292933D01*
X55163981Y-69388171D01*
X55163981Y-69626267D01*
X55116362Y-69721505D01*
X55068743Y-69769124D01*
X99172781Y-45569403D02*
X99887067Y-45569403D01*
X100029924Y-45617023D01*
X100125162Y-45712261D01*
X100172781Y-45855118D01*
X100172781Y-45950356D01*
X100172781Y-44569403D02*
X100172781Y-45140832D01*
X100172781Y-44855118D02*
X99172781Y-44855118D01*
X99315638Y-44950356D01*
X99410876Y-45045594D01*
X99458495Y-45140832D01*
X100172781Y-43617022D02*
X100172781Y-44188451D01*
X100172781Y-43902737D02*
X99172781Y-43902737D01*
X99315638Y-43997975D01*
X99410876Y-44093213D01*
X99458495Y-44188451D01*
X44326277Y-79944981D02*
X44326277Y-80659267D01*
X44278657Y-80802124D01*
X44183419Y-80897362D01*
X44040562Y-80944981D01*
X43945324Y-80944981D01*
X45326277Y-80944981D02*
X44754848Y-80944981D01*
X45040562Y-80944981D02*
X45040562Y-79944981D01*
X44945324Y-80087838D01*
X44850086Y-80183076D01*
X44754848Y-80230695D01*
X45707229Y-80040219D02*
X45754848Y-79992600D01*
X45850086Y-79944981D01*
X46088182Y-79944981D01*
X46183420Y-79992600D01*
X46231039Y-80040219D01*
X46278658Y-80135457D01*
X46278658Y-80230695D01*
X46231039Y-80373552D01*
X45659610Y-80944981D01*
X46278658Y-80944981D01*
X40346381Y-108061023D02*
X41060667Y-108061023D01*
X41203524Y-108108643D01*
X41298762Y-108203881D01*
X41346381Y-108346738D01*
X41346381Y-108441976D01*
X41346381Y-107061023D02*
X41346381Y-107632452D01*
X41346381Y-107346738D02*
X40346381Y-107346738D01*
X40489238Y-107441976D01*
X40584476Y-107537214D01*
X40632095Y-107632452D01*
X40346381Y-106727690D02*
X40346381Y-106108642D01*
X40727333Y-106441976D01*
X40727333Y-106299118D01*
X40774952Y-106203880D01*
X40822571Y-106156261D01*
X40917810Y-106108642D01*
X41155905Y-106108642D01*
X41251143Y-106156261D01*
X41298762Y-106203880D01*
X41346381Y-106299118D01*
X41346381Y-106584833D01*
X41298762Y-106680071D01*
X41251143Y-106727690D01*
X40320981Y-101012523D02*
X41035267Y-101012523D01*
X41178124Y-101060143D01*
X41273362Y-101155381D01*
X41320981Y-101298238D01*
X41320981Y-101393476D01*
X41320981Y-100012523D02*
X41320981Y-100583952D01*
X41320981Y-100298238D02*
X40320981Y-100298238D01*
X40463838Y-100393476D01*
X40559076Y-100488714D01*
X40606695Y-100583952D01*
X40654314Y-99155380D02*
X41320981Y-99155380D01*
X40273362Y-99393476D02*
X40987648Y-99631571D01*
X40987648Y-99012523D01*
X100374723Y-129651997D02*
X100422342Y-129699616D01*
X100469961Y-129842473D01*
X100469961Y-129937711D01*
X100422342Y-130080569D01*
X100327104Y-130175807D01*
X100231866Y-130223426D01*
X100041390Y-130271045D01*
X99898532Y-130271045D01*
X99708056Y-130223426D01*
X99612818Y-130175807D01*
X99517580Y-130080569D01*
X99469961Y-129937711D01*
X99469961Y-129842473D01*
X99517580Y-129699616D01*
X99565199Y-129651997D01*
X100469961Y-128699616D02*
X100469961Y-129271045D01*
X100469961Y-128985331D02*
X99469961Y-128985331D01*
X99612818Y-129080569D01*
X99708056Y-129175807D01*
X99755675Y-129271045D01*
X99469961Y-127842473D02*
X99469961Y-128032950D01*
X99517580Y-128128188D01*
X99565199Y-128175807D01*
X99708056Y-128271045D01*
X99898532Y-128318664D01*
X100279485Y-128318664D01*
X100374723Y-128271045D01*
X100422342Y-128223426D01*
X100469961Y-128128188D01*
X100469961Y-127937711D01*
X100422342Y-127842473D01*
X100374723Y-127794854D01*
X100279485Y-127747235D01*
X100041390Y-127747235D01*
X99946151Y-127794854D01*
X99898532Y-127842473D01*
X99850913Y-127937711D01*
X99850913Y-128128188D01*
X99898532Y-128223426D01*
X99946151Y-128271045D01*
X100041390Y-128318664D01*
X106452943Y-51290457D02*
X106500562Y-51338076D01*
X106548181Y-51480933D01*
X106548181Y-51576171D01*
X106500562Y-51719029D01*
X106405324Y-51814267D01*
X106310086Y-51861886D01*
X106119610Y-51909505D01*
X105976752Y-51909505D01*
X105786276Y-51861886D01*
X105691038Y-51814267D01*
X105595800Y-51719029D01*
X105548181Y-51576171D01*
X105548181Y-51480933D01*
X105595800Y-51338076D01*
X105643419Y-51290457D01*
X106548181Y-50338076D02*
X106548181Y-50909505D01*
X106548181Y-50623791D02*
X105548181Y-50623791D01*
X105691038Y-50719029D01*
X105786276Y-50814267D01*
X105833895Y-50909505D01*
X105548181Y-50004743D02*
X105548181Y-49338076D01*
X106548181Y-49766648D01*
X51109643Y-110847143D02*
X51062024Y-110894762D01*
X50919167Y-110942381D01*
X50823929Y-110942381D01*
X50681071Y-110894762D01*
X50585833Y-110799524D01*
X50538214Y-110704286D01*
X50490595Y-110513810D01*
X50490595Y-110370952D01*
X50538214Y-110180476D01*
X50585833Y-110085238D01*
X50681071Y-109990000D01*
X50823929Y-109942381D01*
X50919167Y-109942381D01*
X51062024Y-109990000D01*
X51109643Y-110037619D01*
X52062024Y-110942381D02*
X51490595Y-110942381D01*
X51776309Y-110942381D02*
X51776309Y-109942381D01*
X51681071Y-110085238D01*
X51585833Y-110180476D01*
X51490595Y-110228095D01*
X52633452Y-110370952D02*
X52538214Y-110323333D01*
X52490595Y-110275714D01*
X52442976Y-110180476D01*
X52442976Y-110132857D01*
X52490595Y-110037619D01*
X52538214Y-109990000D01*
X52633452Y-109942381D01*
X52823929Y-109942381D01*
X52919167Y-109990000D01*
X52966786Y-110037619D01*
X53014405Y-110132857D01*
X53014405Y-110180476D01*
X52966786Y-110275714D01*
X52919167Y-110323333D01*
X52823929Y-110370952D01*
X52633452Y-110370952D01*
X52538214Y-110418571D01*
X52490595Y-110466190D01*
X52442976Y-110561429D01*
X52442976Y-110751905D01*
X52490595Y-110847143D01*
X52538214Y-110894762D01*
X52633452Y-110942381D01*
X52823929Y-110942381D01*
X52919167Y-110894762D01*
X52966786Y-110847143D01*
X53014405Y-110751905D01*
X53014405Y-110561429D01*
X52966786Y-110466190D01*
X52919167Y-110418571D01*
X52823929Y-110370952D01*
X94565221Y-136039123D02*
X95279507Y-136039123D01*
X95422364Y-136086743D01*
X95517602Y-136181981D01*
X95565221Y-136324838D01*
X95565221Y-136420076D01*
X95565221Y-135039123D02*
X95565221Y-135610552D01*
X95565221Y-135324838D02*
X94565221Y-135324838D01*
X94708078Y-135420076D01*
X94803316Y-135515314D01*
X94850935Y-135610552D01*
X94565221Y-134134361D02*
X94565221Y-134610552D01*
X95041411Y-134658171D01*
X94993792Y-134610552D01*
X94946173Y-134515314D01*
X94946173Y-134277218D01*
X94993792Y-134181980D01*
X95041411Y-134134361D01*
X95136650Y-134086742D01*
X95374745Y-134086742D01*
X95469983Y-134134361D01*
X95517602Y-134181980D01*
X95565221Y-134277218D01*
X95565221Y-134515314D01*
X95517602Y-134610552D01*
X95469983Y-134658171D01*
X44326277Y-73442581D02*
X44326277Y-74156867D01*
X44278657Y-74299724D01*
X44183419Y-74394962D01*
X44040562Y-74442581D01*
X43945324Y-74442581D01*
X45326277Y-74442581D02*
X44754848Y-74442581D01*
X45040562Y-74442581D02*
X45040562Y-73442581D01*
X44945324Y-73585438D01*
X44850086Y-73680676D01*
X44754848Y-73728295D01*
X45659610Y-73442581D02*
X46326277Y-73442581D01*
X45897705Y-74442581D01*
D14*
X47356781Y-89385733D02*
X48071067Y-89385733D01*
X48213924Y-89433353D01*
X48309162Y-89528591D01*
X48356781Y-89671448D01*
X48356781Y-89766686D01*
X47356781Y-89004781D02*
X47356781Y-88385733D01*
X47737733Y-88719067D01*
X47737733Y-88576209D01*
X47785352Y-88480971D01*
X47832971Y-88433352D01*
X47928210Y-88385733D01*
X48166305Y-88385733D01*
X48261543Y-88433352D01*
X48309162Y-88480971D01*
X48356781Y-88576209D01*
X48356781Y-88861924D01*
X48309162Y-88957162D01*
X48261543Y-89004781D01*
X46229543Y-93242876D02*
X46277162Y-93290495D01*
X46324781Y-93433352D01*
X46324781Y-93528590D01*
X46277162Y-93671448D01*
X46181924Y-93766686D01*
X46086686Y-93814305D01*
X45896210Y-93861924D01*
X45753352Y-93861924D01*
X45562876Y-93814305D01*
X45467638Y-93766686D01*
X45372400Y-93671448D01*
X45324781Y-93528590D01*
X45324781Y-93433352D01*
X45372400Y-93290495D01*
X45420019Y-93242876D01*
X46324781Y-92671448D02*
X46277162Y-92766686D01*
X46229543Y-92814305D01*
X46134305Y-92861924D01*
X45848590Y-92861924D01*
X45753352Y-92814305D01*
X45705733Y-92766686D01*
X45658114Y-92671448D01*
X45658114Y-92528590D01*
X45705733Y-92433352D01*
X45753352Y-92385733D01*
X45848590Y-92338114D01*
X46134305Y-92338114D01*
X46229543Y-92385733D01*
X46277162Y-92433352D01*
X46324781Y-92528590D01*
X46324781Y-92671448D01*
X45658114Y-91909543D02*
X46324781Y-91909543D01*
X45753352Y-91909543D02*
X45705733Y-91861924D01*
X45658114Y-91766686D01*
X45658114Y-91623828D01*
X45705733Y-91528590D01*
X45800971Y-91480971D01*
X46324781Y-91480971D01*
X45658114Y-91004781D02*
X46324781Y-91004781D01*
X45753352Y-91004781D02*
X45705733Y-90957162D01*
X45658114Y-90861924D01*
X45658114Y-90719066D01*
X45705733Y-90623828D01*
X45800971Y-90576209D01*
X46324781Y-90576209D01*
X46420019Y-90338114D02*
X46420019Y-89576209D01*
X46229543Y-88766685D02*
X46277162Y-88814304D01*
X46324781Y-88957161D01*
X46324781Y-89052399D01*
X46277162Y-89195257D01*
X46181924Y-89290495D01*
X46086686Y-89338114D01*
X45896210Y-89385733D01*
X45753352Y-89385733D01*
X45562876Y-89338114D01*
X45467638Y-89290495D01*
X45372400Y-89195257D01*
X45324781Y-89052399D01*
X45324781Y-88957161D01*
X45372400Y-88814304D01*
X45420019Y-88766685D01*
X46324781Y-88195257D02*
X46277162Y-88290495D01*
X46229543Y-88338114D01*
X46134305Y-88385733D01*
X45848590Y-88385733D01*
X45753352Y-88338114D01*
X45705733Y-88290495D01*
X45658114Y-88195257D01*
X45658114Y-88052399D01*
X45705733Y-87957161D01*
X45753352Y-87909542D01*
X45848590Y-87861923D01*
X46134305Y-87861923D01*
X46229543Y-87909542D01*
X46277162Y-87957161D01*
X46324781Y-88052399D01*
X46324781Y-88195257D01*
X46324781Y-87004780D02*
X45800971Y-87004780D01*
X45705733Y-87052399D01*
X45658114Y-87147637D01*
X45658114Y-87338114D01*
X45705733Y-87433352D01*
X46277162Y-87004780D02*
X46324781Y-87100018D01*
X46324781Y-87338114D01*
X46277162Y-87433352D01*
X46181924Y-87480971D01*
X46086686Y-87480971D01*
X45991448Y-87433352D01*
X45943829Y-87338114D01*
X45943829Y-87100018D01*
X45896210Y-87004780D01*
X46324781Y-86623828D02*
X45658114Y-86100018D01*
X45658114Y-86623828D02*
X46324781Y-86100018D01*
X46324781Y-85719066D02*
X45658114Y-85719066D01*
X45324781Y-85719066D02*
X45372400Y-85766685D01*
X45420019Y-85719066D01*
X45372400Y-85671447D01*
X45324781Y-85719066D01*
X45420019Y-85719066D01*
X46324781Y-84814304D02*
X45800971Y-84814304D01*
X45705733Y-84861923D01*
X45658114Y-84957161D01*
X45658114Y-85147638D01*
X45705733Y-85242876D01*
X46277162Y-84814304D02*
X46324781Y-84909542D01*
X46324781Y-85147638D01*
X46277162Y-85242876D01*
X46181924Y-85290495D01*
X46086686Y-85290495D01*
X45991448Y-85242876D01*
X45943829Y-85147638D01*
X45943829Y-84909542D01*
X45896210Y-84814304D01*
X46324781Y-84195257D02*
X46277162Y-84290495D01*
X46181924Y-84338114D01*
X45324781Y-84338114D01*
X47686981Y-59286733D02*
X48401267Y-59286733D01*
X48544124Y-59334353D01*
X48639362Y-59429591D01*
X48686981Y-59572448D01*
X48686981Y-59667686D01*
X48020314Y-58381971D02*
X48686981Y-58381971D01*
X47639362Y-58620067D02*
X48353648Y-58858162D01*
X48353648Y-58239114D01*
X46559743Y-63143876D02*
X46607362Y-63191495D01*
X46654981Y-63334352D01*
X46654981Y-63429590D01*
X46607362Y-63572448D01*
X46512124Y-63667686D01*
X46416886Y-63715305D01*
X46226410Y-63762924D01*
X46083552Y-63762924D01*
X45893076Y-63715305D01*
X45797838Y-63667686D01*
X45702600Y-63572448D01*
X45654981Y-63429590D01*
X45654981Y-63334352D01*
X45702600Y-63191495D01*
X45750219Y-63143876D01*
X46654981Y-62572448D02*
X46607362Y-62667686D01*
X46559743Y-62715305D01*
X46464505Y-62762924D01*
X46178790Y-62762924D01*
X46083552Y-62715305D01*
X46035933Y-62667686D01*
X45988314Y-62572448D01*
X45988314Y-62429590D01*
X46035933Y-62334352D01*
X46083552Y-62286733D01*
X46178790Y-62239114D01*
X46464505Y-62239114D01*
X46559743Y-62286733D01*
X46607362Y-62334352D01*
X46654981Y-62429590D01*
X46654981Y-62572448D01*
X45988314Y-61810543D02*
X46654981Y-61810543D01*
X46083552Y-61810543D02*
X46035933Y-61762924D01*
X45988314Y-61667686D01*
X45988314Y-61524828D01*
X46035933Y-61429590D01*
X46131171Y-61381971D01*
X46654981Y-61381971D01*
X45988314Y-60905781D02*
X46654981Y-60905781D01*
X46083552Y-60905781D02*
X46035933Y-60858162D01*
X45988314Y-60762924D01*
X45988314Y-60620066D01*
X46035933Y-60524828D01*
X46131171Y-60477209D01*
X46654981Y-60477209D01*
X46750219Y-60239114D02*
X46750219Y-59477209D01*
X46559743Y-58667685D02*
X46607362Y-58715304D01*
X46654981Y-58858161D01*
X46654981Y-58953399D01*
X46607362Y-59096257D01*
X46512124Y-59191495D01*
X46416886Y-59239114D01*
X46226410Y-59286733D01*
X46083552Y-59286733D01*
X45893076Y-59239114D01*
X45797838Y-59191495D01*
X45702600Y-59096257D01*
X45654981Y-58953399D01*
X45654981Y-58858161D01*
X45702600Y-58715304D01*
X45750219Y-58667685D01*
X46654981Y-58096257D02*
X46607362Y-58191495D01*
X46559743Y-58239114D01*
X46464505Y-58286733D01*
X46178790Y-58286733D01*
X46083552Y-58239114D01*
X46035933Y-58191495D01*
X45988314Y-58096257D01*
X45988314Y-57953399D01*
X46035933Y-57858161D01*
X46083552Y-57810542D01*
X46178790Y-57762923D01*
X46464505Y-57762923D01*
X46559743Y-57810542D01*
X46607362Y-57858161D01*
X46654981Y-57953399D01*
X46654981Y-58096257D01*
X46654981Y-56905780D02*
X46131171Y-56905780D01*
X46035933Y-56953399D01*
X45988314Y-57048637D01*
X45988314Y-57239114D01*
X46035933Y-57334352D01*
X46607362Y-56905780D02*
X46654981Y-57001018D01*
X46654981Y-57239114D01*
X46607362Y-57334352D01*
X46512124Y-57381971D01*
X46416886Y-57381971D01*
X46321648Y-57334352D01*
X46274029Y-57239114D01*
X46274029Y-57001018D01*
X46226410Y-56905780D01*
X46654981Y-56524828D02*
X45988314Y-56001018D01*
X45988314Y-56524828D02*
X46654981Y-56001018D01*
X46654981Y-55620066D02*
X45988314Y-55620066D01*
X45654981Y-55620066D02*
X45702600Y-55667685D01*
X45750219Y-55620066D01*
X45702600Y-55572447D01*
X45654981Y-55620066D01*
X45750219Y-55620066D01*
X46654981Y-54715304D02*
X46131171Y-54715304D01*
X46035933Y-54762923D01*
X45988314Y-54858161D01*
X45988314Y-55048638D01*
X46035933Y-55143876D01*
X46607362Y-54715304D02*
X46654981Y-54810542D01*
X46654981Y-55048638D01*
X46607362Y-55143876D01*
X46512124Y-55191495D01*
X46416886Y-55191495D01*
X46321648Y-55143876D01*
X46274029Y-55048638D01*
X46274029Y-54810542D01*
X46226410Y-54715304D01*
X46654981Y-54096257D02*
X46607362Y-54191495D01*
X46512124Y-54239114D01*
X45654981Y-54239114D01*
X46950381Y-120399133D02*
X47664667Y-120399133D01*
X47807524Y-120446753D01*
X47902762Y-120541991D01*
X47950381Y-120684848D01*
X47950381Y-120780086D01*
X46950381Y-119446752D02*
X46950381Y-119922943D01*
X47426571Y-119970562D01*
X47378952Y-119922943D01*
X47331333Y-119827705D01*
X47331333Y-119589609D01*
X47378952Y-119494371D01*
X47426571Y-119446752D01*
X47521810Y-119399133D01*
X47759905Y-119399133D01*
X47855143Y-119446752D01*
X47902762Y-119494371D01*
X47950381Y-119589609D01*
X47950381Y-119827705D01*
X47902762Y-119922943D01*
X47855143Y-119970562D01*
X45823143Y-124256276D02*
X45870762Y-124303895D01*
X45918381Y-124446752D01*
X45918381Y-124541990D01*
X45870762Y-124684848D01*
X45775524Y-124780086D01*
X45680286Y-124827705D01*
X45489810Y-124875324D01*
X45346952Y-124875324D01*
X45156476Y-124827705D01*
X45061238Y-124780086D01*
X44966000Y-124684848D01*
X44918381Y-124541990D01*
X44918381Y-124446752D01*
X44966000Y-124303895D01*
X45013619Y-124256276D01*
X45918381Y-123684848D02*
X45870762Y-123780086D01*
X45823143Y-123827705D01*
X45727905Y-123875324D01*
X45442190Y-123875324D01*
X45346952Y-123827705D01*
X45299333Y-123780086D01*
X45251714Y-123684848D01*
X45251714Y-123541990D01*
X45299333Y-123446752D01*
X45346952Y-123399133D01*
X45442190Y-123351514D01*
X45727905Y-123351514D01*
X45823143Y-123399133D01*
X45870762Y-123446752D01*
X45918381Y-123541990D01*
X45918381Y-123684848D01*
X45251714Y-122922943D02*
X45918381Y-122922943D01*
X45346952Y-122922943D02*
X45299333Y-122875324D01*
X45251714Y-122780086D01*
X45251714Y-122637228D01*
X45299333Y-122541990D01*
X45394571Y-122494371D01*
X45918381Y-122494371D01*
X45251714Y-122018181D02*
X45918381Y-122018181D01*
X45346952Y-122018181D02*
X45299333Y-121970562D01*
X45251714Y-121875324D01*
X45251714Y-121732466D01*
X45299333Y-121637228D01*
X45394571Y-121589609D01*
X45918381Y-121589609D01*
X46013619Y-121351514D02*
X46013619Y-120589609D01*
X45823143Y-119780085D02*
X45870762Y-119827704D01*
X45918381Y-119970561D01*
X45918381Y-120065799D01*
X45870762Y-120208657D01*
X45775524Y-120303895D01*
X45680286Y-120351514D01*
X45489810Y-120399133D01*
X45346952Y-120399133D01*
X45156476Y-120351514D01*
X45061238Y-120303895D01*
X44966000Y-120208657D01*
X44918381Y-120065799D01*
X44918381Y-119970561D01*
X44966000Y-119827704D01*
X45013619Y-119780085D01*
X45918381Y-119208657D02*
X45870762Y-119303895D01*
X45823143Y-119351514D01*
X45727905Y-119399133D01*
X45442190Y-119399133D01*
X45346952Y-119351514D01*
X45299333Y-119303895D01*
X45251714Y-119208657D01*
X45251714Y-119065799D01*
X45299333Y-118970561D01*
X45346952Y-118922942D01*
X45442190Y-118875323D01*
X45727905Y-118875323D01*
X45823143Y-118922942D01*
X45870762Y-118970561D01*
X45918381Y-119065799D01*
X45918381Y-119208657D01*
X45918381Y-118018180D02*
X45394571Y-118018180D01*
X45299333Y-118065799D01*
X45251714Y-118161037D01*
X45251714Y-118351514D01*
X45299333Y-118446752D01*
X45870762Y-118018180D02*
X45918381Y-118113418D01*
X45918381Y-118351514D01*
X45870762Y-118446752D01*
X45775524Y-118494371D01*
X45680286Y-118494371D01*
X45585048Y-118446752D01*
X45537429Y-118351514D01*
X45537429Y-118113418D01*
X45489810Y-118018180D01*
X45918381Y-117637228D02*
X45251714Y-117113418D01*
X45251714Y-117637228D02*
X45918381Y-117113418D01*
X45918381Y-116732466D02*
X45251714Y-116732466D01*
X44918381Y-116732466D02*
X44966000Y-116780085D01*
X45013619Y-116732466D01*
X44966000Y-116684847D01*
X44918381Y-116732466D01*
X45013619Y-116732466D01*
X45918381Y-115827704D02*
X45394571Y-115827704D01*
X45299333Y-115875323D01*
X45251714Y-115970561D01*
X45251714Y-116161038D01*
X45299333Y-116256276D01*
X45870762Y-115827704D02*
X45918381Y-115922942D01*
X45918381Y-116161038D01*
X45870762Y-116256276D01*
X45775524Y-116303895D01*
X45680286Y-116303895D01*
X45585048Y-116256276D01*
X45537429Y-116161038D01*
X45537429Y-115922942D01*
X45489810Y-115827704D01*
X45918381Y-115208657D02*
X45870762Y-115303895D01*
X45775524Y-115351514D01*
X44918381Y-115351514D01*
X109666667Y-132340381D02*
X109666667Y-133054667D01*
X109619047Y-133197524D01*
X109523809Y-133292762D01*
X109380952Y-133340381D01*
X109285714Y-133340381D01*
X110571429Y-132340381D02*
X110380952Y-132340381D01*
X110285714Y-132388000D01*
X110238095Y-132435619D01*
X110142857Y-132578476D01*
X110095238Y-132768952D01*
X110095238Y-133149905D01*
X110142857Y-133245143D01*
X110190476Y-133292762D01*
X110285714Y-133340381D01*
X110476191Y-133340381D01*
X110571429Y-133292762D01*
X110619048Y-133245143D01*
X110666667Y-133149905D01*
X110666667Y-132911810D01*
X110619048Y-132816571D01*
X110571429Y-132768952D01*
X110476191Y-132721333D01*
X110285714Y-132721333D01*
X110190476Y-132768952D01*
X110142857Y-132816571D01*
X110095238Y-132911810D01*
X105809524Y-135277143D02*
X105761905Y-135324762D01*
X105619048Y-135372381D01*
X105523810Y-135372381D01*
X105380952Y-135324762D01*
X105285714Y-135229524D01*
X105238095Y-135134286D01*
X105190476Y-134943810D01*
X105190476Y-134800952D01*
X105238095Y-134610476D01*
X105285714Y-134515238D01*
X105380952Y-134420000D01*
X105523810Y-134372381D01*
X105619048Y-134372381D01*
X105761905Y-134420000D01*
X105809524Y-134467619D01*
X106380952Y-135372381D02*
X106285714Y-135324762D01*
X106238095Y-135277143D01*
X106190476Y-135181905D01*
X106190476Y-134896190D01*
X106238095Y-134800952D01*
X106285714Y-134753333D01*
X106380952Y-134705714D01*
X106523810Y-134705714D01*
X106619048Y-134753333D01*
X106666667Y-134800952D01*
X106714286Y-134896190D01*
X106714286Y-135181905D01*
X106666667Y-135277143D01*
X106619048Y-135324762D01*
X106523810Y-135372381D01*
X106380952Y-135372381D01*
X107142857Y-134705714D02*
X107142857Y-135372381D01*
X107142857Y-134800952D02*
X107190476Y-134753333D01*
X107285714Y-134705714D01*
X107428572Y-134705714D01*
X107523810Y-134753333D01*
X107571429Y-134848571D01*
X107571429Y-135372381D01*
X108047619Y-134705714D02*
X108047619Y-135372381D01*
X108047619Y-134800952D02*
X108095238Y-134753333D01*
X108190476Y-134705714D01*
X108333334Y-134705714D01*
X108428572Y-134753333D01*
X108476191Y-134848571D01*
X108476191Y-135372381D01*
X108714286Y-135467619D02*
X109476191Y-135467619D01*
X110285715Y-135277143D02*
X110238096Y-135324762D01*
X110095239Y-135372381D01*
X110000001Y-135372381D01*
X109857143Y-135324762D01*
X109761905Y-135229524D01*
X109714286Y-135134286D01*
X109666667Y-134943810D01*
X109666667Y-134800952D01*
X109714286Y-134610476D01*
X109761905Y-134515238D01*
X109857143Y-134420000D01*
X110000001Y-134372381D01*
X110095239Y-134372381D01*
X110238096Y-134420000D01*
X110285715Y-134467619D01*
X110857143Y-135372381D02*
X110761905Y-135324762D01*
X110714286Y-135277143D01*
X110666667Y-135181905D01*
X110666667Y-134896190D01*
X110714286Y-134800952D01*
X110761905Y-134753333D01*
X110857143Y-134705714D01*
X111000001Y-134705714D01*
X111095239Y-134753333D01*
X111142858Y-134800952D01*
X111190477Y-134896190D01*
X111190477Y-135181905D01*
X111142858Y-135277143D01*
X111095239Y-135324762D01*
X111000001Y-135372381D01*
X110857143Y-135372381D01*
X112047620Y-135372381D02*
X112047620Y-134848571D01*
X112000001Y-134753333D01*
X111904763Y-134705714D01*
X111714286Y-134705714D01*
X111619048Y-134753333D01*
X112047620Y-135324762D02*
X111952382Y-135372381D01*
X111714286Y-135372381D01*
X111619048Y-135324762D01*
X111571429Y-135229524D01*
X111571429Y-135134286D01*
X111619048Y-135039048D01*
X111714286Y-134991429D01*
X111952382Y-134991429D01*
X112047620Y-134943810D01*
X112428572Y-135372381D02*
X112952382Y-134705714D01*
X112428572Y-134705714D02*
X112952382Y-135372381D01*
X113333334Y-135372381D02*
X113333334Y-134705714D01*
X113333334Y-134372381D02*
X113285715Y-134420000D01*
X113333334Y-134467619D01*
X113380953Y-134420000D01*
X113333334Y-134372381D01*
X113333334Y-134467619D01*
X114238096Y-135372381D02*
X114238096Y-134848571D01*
X114190477Y-134753333D01*
X114095239Y-134705714D01*
X113904762Y-134705714D01*
X113809524Y-134753333D01*
X114238096Y-135324762D02*
X114142858Y-135372381D01*
X113904762Y-135372381D01*
X113809524Y-135324762D01*
X113761905Y-135229524D01*
X113761905Y-135134286D01*
X113809524Y-135039048D01*
X113904762Y-134991429D01*
X114142858Y-134991429D01*
X114238096Y-134943810D01*
X114857143Y-135372381D02*
X114761905Y-135324762D01*
X114714286Y-135229524D01*
X114714286Y-134372381D01*
D11*
X121931181Y-130978233D02*
X122645467Y-130978233D01*
X122788324Y-131025853D01*
X122883562Y-131121091D01*
X122931181Y-131263948D01*
X122931181Y-131359186D01*
X122931181Y-129978233D02*
X122931181Y-130549662D01*
X122931181Y-130263948D02*
X121931181Y-130263948D01*
X122074038Y-130359186D01*
X122169276Y-130454424D01*
X122216895Y-130549662D01*
X121918481Y-137340933D02*
X122632767Y-137340933D01*
X122775624Y-137388553D01*
X122870862Y-137483791D01*
X122918481Y-137626648D01*
X122918481Y-137721886D01*
X121918481Y-136959981D02*
X121918481Y-136293314D01*
X122918481Y-136721886D01*
X127123867Y-52131981D02*
X127123867Y-52846267D01*
X127076247Y-52989124D01*
X126981009Y-53084362D01*
X126838152Y-53131981D01*
X126742914Y-53131981D01*
X127742914Y-52560552D02*
X127647676Y-52512933D01*
X127600057Y-52465314D01*
X127552438Y-52370076D01*
X127552438Y-52322457D01*
X127600057Y-52227219D01*
X127647676Y-52179600D01*
X127742914Y-52131981D01*
X127933391Y-52131981D01*
X128028629Y-52179600D01*
X128076248Y-52227219D01*
X128123867Y-52322457D01*
X128123867Y-52370076D01*
X128076248Y-52465314D01*
X128028629Y-52512933D01*
X127933391Y-52560552D01*
X127742914Y-52560552D01*
X127647676Y-52608171D01*
X127600057Y-52655790D01*
X127552438Y-52751029D01*
X127552438Y-52941505D01*
X127600057Y-53036743D01*
X127647676Y-53084362D01*
X127742914Y-53131981D01*
X127933391Y-53131981D01*
X128028629Y-53084362D01*
X128076248Y-53036743D01*
X128123867Y-52941505D01*
X128123867Y-52751029D01*
X128076248Y-52655790D01*
X128028629Y-52608171D01*
X127933391Y-52560552D01*
X126984167Y-45870881D02*
X126984167Y-46585167D01*
X126936547Y-46728024D01*
X126841309Y-46823262D01*
X126698452Y-46870881D01*
X126603214Y-46870881D01*
X127507976Y-46870881D02*
X127698452Y-46870881D01*
X127793691Y-46823262D01*
X127841310Y-46775643D01*
X127936548Y-46632786D01*
X127984167Y-46442310D01*
X127984167Y-46061357D01*
X127936548Y-45966119D01*
X127888929Y-45918500D01*
X127793691Y-45870881D01*
X127603214Y-45870881D01*
X127507976Y-45918500D01*
X127460357Y-45966119D01*
X127412738Y-46061357D01*
X127412738Y-46299452D01*
X127460357Y-46394690D01*
X127507976Y-46442310D01*
X127603214Y-46489929D01*
X127793691Y-46489929D01*
X127888929Y-46442310D01*
X127936548Y-46394690D01*
X127984167Y-46299452D01*
X128865381Y-128254023D02*
X129579667Y-128254023D01*
X129722524Y-128301643D01*
X129817762Y-128396881D01*
X129865381Y-128539738D01*
X129865381Y-128634976D01*
X129865381Y-127254023D02*
X129865381Y-127825452D01*
X129865381Y-127539738D02*
X128865381Y-127539738D01*
X129008238Y-127634976D01*
X129103476Y-127730214D01*
X129151095Y-127825452D01*
X128865381Y-126634976D02*
X128865381Y-126539737D01*
X128913000Y-126444499D01*
X128960619Y-126396880D01*
X129055857Y-126349261D01*
X129246333Y-126301642D01*
X129484429Y-126301642D01*
X129674905Y-126349261D01*
X129770143Y-126396880D01*
X129817762Y-126444499D01*
X129865381Y-126539737D01*
X129865381Y-126634976D01*
X129817762Y-126730214D01*
X129770143Y-126777833D01*
X129674905Y-126825452D01*
X129484429Y-126873071D01*
X129246333Y-126873071D01*
X129055857Y-126825452D01*
X128960619Y-126777833D01*
X128913000Y-126730214D01*
X128865381Y-126634976D01*
X137247381Y-54657523D02*
X137961667Y-54657523D01*
X138104524Y-54705143D01*
X138199762Y-54800381D01*
X138247381Y-54943238D01*
X138247381Y-55038476D01*
X138247381Y-53657523D02*
X138247381Y-54228952D01*
X138247381Y-53943238D02*
X137247381Y-53943238D01*
X137390238Y-54038476D01*
X137485476Y-54133714D01*
X137533095Y-54228952D01*
X138247381Y-53181333D02*
X138247381Y-52990857D01*
X138199762Y-52895618D01*
X138152143Y-52847999D01*
X138009286Y-52752761D01*
X137818810Y-52705142D01*
X137437857Y-52705142D01*
X137342619Y-52752761D01*
X137295000Y-52800380D01*
X137247381Y-52895618D01*
X137247381Y-53086095D01*
X137295000Y-53181333D01*
X137342619Y-53228952D01*
X137437857Y-53276571D01*
X137675952Y-53276571D01*
X137771190Y-53228952D01*
X137818810Y-53181333D01*
X137866429Y-53086095D01*
X137866429Y-52895618D01*
X137818810Y-52800380D01*
X137771190Y-52752761D01*
X137675952Y-52705142D01*
X120499143Y-136342357D02*
X120546762Y-136389976D01*
X120594381Y-136532833D01*
X120594381Y-136628071D01*
X120546762Y-136770929D01*
X120451524Y-136866167D01*
X120356286Y-136913786D01*
X120165810Y-136961405D01*
X120022952Y-136961405D01*
X119832476Y-136913786D01*
X119737238Y-136866167D01*
X119642000Y-136770929D01*
X119594381Y-136628071D01*
X119594381Y-136532833D01*
X119642000Y-136389976D01*
X119689619Y-136342357D01*
X120594381Y-135389976D02*
X120594381Y-135961405D01*
X120594381Y-135675691D02*
X119594381Y-135675691D01*
X119737238Y-135770929D01*
X119832476Y-135866167D01*
X119880095Y-135961405D01*
X119927714Y-134532833D02*
X120594381Y-134532833D01*
X119546762Y-134770929D02*
X120261048Y-135009024D01*
X120261048Y-134389976D01*
X131763144Y-45199357D02*
X131810763Y-45246976D01*
X131858382Y-45389833D01*
X131858382Y-45485071D01*
X131810763Y-45627929D01*
X131715525Y-45723167D01*
X131620287Y-45770786D01*
X131429811Y-45818405D01*
X131286953Y-45818405D01*
X131096477Y-45770786D01*
X131001239Y-45723167D01*
X130906001Y-45627929D01*
X130858382Y-45485071D01*
X130858382Y-45389833D01*
X130906001Y-45246976D01*
X130953620Y-45199357D01*
X131858382Y-44246976D02*
X131858382Y-44818405D01*
X131858382Y-44532691D02*
X130858382Y-44532691D01*
X131001239Y-44627929D01*
X131096477Y-44723167D01*
X131144096Y-44818405D01*
X131858382Y-43770786D02*
X131858382Y-43580310D01*
X131810763Y-43485071D01*
X131763144Y-43437452D01*
X131620287Y-43342214D01*
X131429811Y-43294595D01*
X131048858Y-43294595D01*
X130953620Y-43342214D01*
X130906001Y-43389833D01*
X130858382Y-43485071D01*
X130858382Y-43675548D01*
X130906001Y-43770786D01*
X130953620Y-43818405D01*
X131048858Y-43866024D01*
X131286953Y-43866024D01*
X131382191Y-43818405D01*
X131429811Y-43770786D01*
X131477430Y-43675548D01*
X131477430Y-43485071D01*
X131429811Y-43389833D01*
X131382191Y-43342214D01*
X131286953Y-43294595D01*
X72556643Y-44934166D02*
X72604262Y-44981785D01*
X72651881Y-45124642D01*
X72651881Y-45219880D01*
X72604262Y-45362738D01*
X72509024Y-45457976D01*
X72413786Y-45505595D01*
X72223310Y-45553214D01*
X72080452Y-45553214D01*
X71889976Y-45505595D01*
X71794738Y-45457976D01*
X71699500Y-45362738D01*
X71651881Y-45219880D01*
X71651881Y-45124642D01*
X71699500Y-44981785D01*
X71747119Y-44934166D01*
X71747119Y-44553214D02*
X71699500Y-44505595D01*
X71651881Y-44410357D01*
X71651881Y-44172261D01*
X71699500Y-44077023D01*
X71747119Y-44029404D01*
X71842357Y-43981785D01*
X71937595Y-43981785D01*
X72080452Y-44029404D01*
X72651881Y-44600833D01*
X72651881Y-43981785D01*
X103481143Y-51544457D02*
X103528762Y-51592076D01*
X103576381Y-51734933D01*
X103576381Y-51830171D01*
X103528762Y-51973029D01*
X103433524Y-52068267D01*
X103338286Y-52115886D01*
X103147810Y-52163505D01*
X103004952Y-52163505D01*
X102814476Y-52115886D01*
X102719238Y-52068267D01*
X102624000Y-51973029D01*
X102576381Y-51830171D01*
X102576381Y-51734933D01*
X102624000Y-51592076D01*
X102671619Y-51544457D01*
X102671619Y-51163505D02*
X102624000Y-51115886D01*
X102576381Y-51020648D01*
X102576381Y-50782552D01*
X102624000Y-50687314D01*
X102671619Y-50639695D01*
X102766857Y-50592076D01*
X102862095Y-50592076D01*
X103004952Y-50639695D01*
X103576381Y-51211124D01*
X103576381Y-50592076D01*
X102576381Y-49973029D02*
X102576381Y-49877790D01*
X102624000Y-49782552D01*
X102671619Y-49734933D01*
X102766857Y-49687314D01*
X102957333Y-49639695D01*
X103195429Y-49639695D01*
X103385905Y-49687314D01*
X103481143Y-49734933D01*
X103528762Y-49782552D01*
X103576381Y-49877790D01*
X103576381Y-49973029D01*
X103528762Y-50068267D01*
X103481143Y-50115886D01*
X103385905Y-50163505D01*
X103195429Y-50211124D01*
X102957333Y-50211124D01*
X102766857Y-50163505D01*
X102671619Y-50115886D01*
X102624000Y-50068267D01*
X102576381Y-49973029D01*
X51868343Y-71204057D02*
X51915962Y-71251676D01*
X51963581Y-71394533D01*
X51963581Y-71489771D01*
X51915962Y-71632629D01*
X51820724Y-71727867D01*
X51725486Y-71775486D01*
X51535010Y-71823105D01*
X51392152Y-71823105D01*
X51201676Y-71775486D01*
X51106438Y-71727867D01*
X51011200Y-71632629D01*
X50963581Y-71489771D01*
X50963581Y-71394533D01*
X51011200Y-71251676D01*
X51058819Y-71204057D01*
X51058819Y-70823105D02*
X51011200Y-70775486D01*
X50963581Y-70680248D01*
X50963581Y-70442152D01*
X51011200Y-70346914D01*
X51058819Y-70299295D01*
X51154057Y-70251676D01*
X51249295Y-70251676D01*
X51392152Y-70299295D01*
X51963581Y-70870724D01*
X51963581Y-70251676D01*
X51963581Y-69299295D02*
X51963581Y-69870724D01*
X51963581Y-69585010D02*
X50963581Y-69585010D01*
X51106438Y-69680248D01*
X51201676Y-69775486D01*
X51249295Y-69870724D01*
X97557863Y-129944097D02*
X97605482Y-129991716D01*
X97653101Y-130134573D01*
X97653101Y-130229811D01*
X97605482Y-130372669D01*
X97510244Y-130467907D01*
X97415006Y-130515526D01*
X97224530Y-130563145D01*
X97081672Y-130563145D01*
X96891196Y-130515526D01*
X96795958Y-130467907D01*
X96700720Y-130372669D01*
X96653101Y-130229811D01*
X96653101Y-130134573D01*
X96700720Y-129991716D01*
X96748339Y-129944097D01*
X96748339Y-129563145D02*
X96700720Y-129515526D01*
X96653101Y-129420288D01*
X96653101Y-129182192D01*
X96700720Y-129086954D01*
X96748339Y-129039335D01*
X96843577Y-128991716D01*
X96938815Y-128991716D01*
X97081672Y-129039335D01*
X97653101Y-129610764D01*
X97653101Y-128991716D01*
X96748339Y-128610764D02*
X96700720Y-128563145D01*
X96653101Y-128467907D01*
X96653101Y-128229811D01*
X96700720Y-128134573D01*
X96748339Y-128086954D01*
X96843577Y-128039335D01*
X96938815Y-128039335D01*
X97081672Y-128086954D01*
X97653101Y-128658383D01*
X97653101Y-128039335D01*
X51152643Y-107825442D02*
X51105024Y-107873061D01*
X50962167Y-107920680D01*
X50866929Y-107920680D01*
X50724071Y-107873061D01*
X50628833Y-107777823D01*
X50581214Y-107682585D01*
X50533595Y-107492109D01*
X50533595Y-107349251D01*
X50581214Y-107158775D01*
X50628833Y-107063537D01*
X50724071Y-106968299D01*
X50866929Y-106920680D01*
X50962167Y-106920680D01*
X51105024Y-106968299D01*
X51152643Y-107015918D01*
X51533595Y-107015918D02*
X51581214Y-106968299D01*
X51676452Y-106920680D01*
X51914548Y-106920680D01*
X52009786Y-106968299D01*
X52057405Y-107015918D01*
X52105024Y-107111156D01*
X52105024Y-107206394D01*
X52057405Y-107349251D01*
X51485976Y-107920680D01*
X52105024Y-107920680D01*
X52438357Y-106920680D02*
X53057405Y-106920680D01*
X52724071Y-107301632D01*
X52866929Y-107301632D01*
X52962167Y-107349251D01*
X53009786Y-107396870D01*
X53057405Y-107492109D01*
X53057405Y-107730204D01*
X53009786Y-107825442D01*
X52962167Y-107873061D01*
X52866929Y-107920680D01*
X52581214Y-107920680D01*
X52485976Y-107873061D01*
X52438357Y-107825442D01*
M02*
