G04 #@! TF.FileFunction,Legend,Top*
%FSLAX46Y46*%
G04 Gerber Fmt 4.6, Leading zero omitted, Abs format (unit mm)*
G04 Created by KiCad (PCBNEW 4.0.7) date 02/28/19 00:30:42*
%MOMM*%
%LPD*%
G01*
G04 APERTURE LIST*
%ADD10C,0.100000*%
%ADD11C,0.150000*%
%ADD12C,0.120000*%
%ADD13C,0.300000*%
%ADD14C,0.200000*%
G04 APERTURE END LIST*
D10*
D11*
X97825821Y-55061217D02*
X96825821Y-55061217D01*
X96825821Y-54680264D01*
X96873440Y-54585026D01*
X96921059Y-54537407D01*
X97016297Y-54489788D01*
X97159154Y-54489788D01*
X97254392Y-54537407D01*
X97302011Y-54585026D01*
X97349630Y-54680264D01*
X97349630Y-55061217D01*
X96825821Y-53870741D02*
X96825821Y-53680264D01*
X96873440Y-53585026D01*
X96968678Y-53489788D01*
X97159154Y-53442169D01*
X97492488Y-53442169D01*
X97682964Y-53489788D01*
X97778202Y-53585026D01*
X97825821Y-53680264D01*
X97825821Y-53870741D01*
X97778202Y-53965979D01*
X97682964Y-54061217D01*
X97492488Y-54108836D01*
X97159154Y-54108836D01*
X96968678Y-54061217D01*
X96873440Y-53965979D01*
X96825821Y-53870741D01*
X97825821Y-52442169D02*
X97349630Y-52775503D01*
X97825821Y-53013598D02*
X96825821Y-53013598D01*
X96825821Y-52632645D01*
X96873440Y-52537407D01*
X96921059Y-52489788D01*
X97016297Y-52442169D01*
X97159154Y-52442169D01*
X97254392Y-52489788D01*
X97302011Y-52537407D01*
X97349630Y-52632645D01*
X97349630Y-53013598D01*
X96825821Y-52156455D02*
X96825821Y-51585026D01*
X97825821Y-51870741D02*
X96825821Y-51870741D01*
X97825821Y-50727883D02*
X97825821Y-51299312D01*
X97825821Y-51013598D02*
X96825821Y-51013598D01*
X96968678Y-51108836D01*
X97063916Y-51204074D01*
X97111535Y-51299312D01*
X68850143Y-137422381D02*
X68850143Y-136422381D01*
X69231096Y-136422381D01*
X69326334Y-136470000D01*
X69373953Y-136517619D01*
X69421572Y-136612857D01*
X69421572Y-136755714D01*
X69373953Y-136850952D01*
X69326334Y-136898571D01*
X69231096Y-136946190D01*
X68850143Y-136946190D01*
X70040619Y-136422381D02*
X70231096Y-136422381D01*
X70326334Y-136470000D01*
X70421572Y-136565238D01*
X70469191Y-136755714D01*
X70469191Y-137089048D01*
X70421572Y-137279524D01*
X70326334Y-137374762D01*
X70231096Y-137422381D01*
X70040619Y-137422381D01*
X69945381Y-137374762D01*
X69850143Y-137279524D01*
X69802524Y-137089048D01*
X69802524Y-136755714D01*
X69850143Y-136565238D01*
X69945381Y-136470000D01*
X70040619Y-136422381D01*
X71469191Y-137422381D02*
X71135857Y-136946190D01*
X70897762Y-137422381D02*
X70897762Y-136422381D01*
X71278715Y-136422381D01*
X71373953Y-136470000D01*
X71421572Y-136517619D01*
X71469191Y-136612857D01*
X71469191Y-136755714D01*
X71421572Y-136850952D01*
X71373953Y-136898571D01*
X71278715Y-136946190D01*
X70897762Y-136946190D01*
X71754905Y-136422381D02*
X72326334Y-136422381D01*
X72040619Y-137422381D02*
X72040619Y-136422381D01*
X73088239Y-136755714D02*
X73088239Y-137422381D01*
X72850143Y-136374762D02*
X72612048Y-137089048D01*
X73231096Y-137089048D01*
X69659667Y-139072381D02*
X69659667Y-138072381D01*
X70040620Y-138072381D01*
X70135858Y-138120000D01*
X70183477Y-138167619D01*
X70231096Y-138262857D01*
X70231096Y-138405714D01*
X70183477Y-138500952D01*
X70135858Y-138548571D01*
X70040620Y-138596190D01*
X69659667Y-138596190D01*
X70564429Y-138072381D02*
X70802524Y-139072381D01*
X70993001Y-138358095D01*
X71183477Y-139072381D01*
X71421572Y-138072381D01*
X72373953Y-139072381D02*
X72040619Y-138596190D01*
X71802524Y-139072381D02*
X71802524Y-138072381D01*
X72183477Y-138072381D01*
X72278715Y-138120000D01*
X72326334Y-138167619D01*
X72373953Y-138262857D01*
X72373953Y-138405714D01*
X72326334Y-138500952D01*
X72278715Y-138548571D01*
X72183477Y-138596190D01*
X71802524Y-138596190D01*
X75581143Y-137168381D02*
X75581143Y-136168381D01*
X75962096Y-136168381D01*
X76057334Y-136216000D01*
X76104953Y-136263619D01*
X76152572Y-136358857D01*
X76152572Y-136501714D01*
X76104953Y-136596952D01*
X76057334Y-136644571D01*
X75962096Y-136692190D01*
X75581143Y-136692190D01*
X76771619Y-136168381D02*
X76962096Y-136168381D01*
X77057334Y-136216000D01*
X77152572Y-136311238D01*
X77200191Y-136501714D01*
X77200191Y-136835048D01*
X77152572Y-137025524D01*
X77057334Y-137120762D01*
X76962096Y-137168381D01*
X76771619Y-137168381D01*
X76676381Y-137120762D01*
X76581143Y-137025524D01*
X76533524Y-136835048D01*
X76533524Y-136501714D01*
X76581143Y-136311238D01*
X76676381Y-136216000D01*
X76771619Y-136168381D01*
X78200191Y-137168381D02*
X77866857Y-136692190D01*
X77628762Y-137168381D02*
X77628762Y-136168381D01*
X78009715Y-136168381D01*
X78104953Y-136216000D01*
X78152572Y-136263619D01*
X78200191Y-136358857D01*
X78200191Y-136501714D01*
X78152572Y-136596952D01*
X78104953Y-136644571D01*
X78009715Y-136692190D01*
X77628762Y-136692190D01*
X78485905Y-136168381D02*
X79057334Y-136168381D01*
X78771619Y-137168381D02*
X78771619Y-136168381D01*
X79295429Y-136168381D02*
X79914477Y-136168381D01*
X79581143Y-136549333D01*
X79724001Y-136549333D01*
X79819239Y-136596952D01*
X79866858Y-136644571D01*
X79914477Y-136739810D01*
X79914477Y-136977905D01*
X79866858Y-137073143D01*
X79819239Y-137120762D01*
X79724001Y-137168381D01*
X79438286Y-137168381D01*
X79343048Y-137120762D01*
X79295429Y-137073143D01*
X76390667Y-138818381D02*
X76390667Y-137818381D01*
X76771620Y-137818381D01*
X76866858Y-137866000D01*
X76914477Y-137913619D01*
X76962096Y-138008857D01*
X76962096Y-138151714D01*
X76914477Y-138246952D01*
X76866858Y-138294571D01*
X76771620Y-138342190D01*
X76390667Y-138342190D01*
X77295429Y-137818381D02*
X77533524Y-138818381D01*
X77724001Y-138104095D01*
X77914477Y-138818381D01*
X78152572Y-137818381D01*
X79104953Y-138818381D02*
X78771619Y-138342190D01*
X78533524Y-138818381D02*
X78533524Y-137818381D01*
X78914477Y-137818381D01*
X79009715Y-137866000D01*
X79057334Y-137913619D01*
X79104953Y-138008857D01*
X79104953Y-138151714D01*
X79057334Y-138246952D01*
X79009715Y-138294571D01*
X78914477Y-138342190D01*
X78533524Y-138342190D01*
X77105143Y-46363381D02*
X77105143Y-45363381D01*
X77486096Y-45363381D01*
X77581334Y-45411000D01*
X77628953Y-45458619D01*
X77676572Y-45553857D01*
X77676572Y-45696714D01*
X77628953Y-45791952D01*
X77581334Y-45839571D01*
X77486096Y-45887190D01*
X77105143Y-45887190D01*
X78295619Y-45363381D02*
X78486096Y-45363381D01*
X78581334Y-45411000D01*
X78676572Y-45506238D01*
X78724191Y-45696714D01*
X78724191Y-46030048D01*
X78676572Y-46220524D01*
X78581334Y-46315762D01*
X78486096Y-46363381D01*
X78295619Y-46363381D01*
X78200381Y-46315762D01*
X78105143Y-46220524D01*
X78057524Y-46030048D01*
X78057524Y-45696714D01*
X78105143Y-45506238D01*
X78200381Y-45411000D01*
X78295619Y-45363381D01*
X79724191Y-46363381D02*
X79390857Y-45887190D01*
X79152762Y-46363381D02*
X79152762Y-45363381D01*
X79533715Y-45363381D01*
X79628953Y-45411000D01*
X79676572Y-45458619D01*
X79724191Y-45553857D01*
X79724191Y-45696714D01*
X79676572Y-45791952D01*
X79628953Y-45839571D01*
X79533715Y-45887190D01*
X79152762Y-45887190D01*
X80009905Y-45363381D02*
X80581334Y-45363381D01*
X80295619Y-46363381D02*
X80295619Y-45363381D01*
X80867048Y-45458619D02*
X80914667Y-45411000D01*
X81009905Y-45363381D01*
X81248001Y-45363381D01*
X81343239Y-45411000D01*
X81390858Y-45458619D01*
X81438477Y-45553857D01*
X81438477Y-45649095D01*
X81390858Y-45791952D01*
X80819429Y-46363381D01*
X81438477Y-46363381D01*
X77914667Y-48013381D02*
X77914667Y-47013381D01*
X78295620Y-47013381D01*
X78390858Y-47061000D01*
X78438477Y-47108619D01*
X78486096Y-47203857D01*
X78486096Y-47346714D01*
X78438477Y-47441952D01*
X78390858Y-47489571D01*
X78295620Y-47537190D01*
X77914667Y-47537190D01*
X78819429Y-47013381D02*
X79057524Y-48013381D01*
X79248001Y-47299095D01*
X79438477Y-48013381D01*
X79676572Y-47013381D01*
X80628953Y-48013381D02*
X80295619Y-47537190D01*
X80057524Y-48013381D02*
X80057524Y-47013381D01*
X80438477Y-47013381D01*
X80533715Y-47061000D01*
X80581334Y-47108619D01*
X80628953Y-47203857D01*
X80628953Y-47346714D01*
X80581334Y-47441952D01*
X80533715Y-47489571D01*
X80438477Y-47537190D01*
X80057524Y-47537190D01*
X79137143Y-53221381D02*
X79137143Y-52221381D01*
X79518096Y-52221381D01*
X79613334Y-52269000D01*
X79660953Y-52316619D01*
X79708572Y-52411857D01*
X79708572Y-52554714D01*
X79660953Y-52649952D01*
X79613334Y-52697571D01*
X79518096Y-52745190D01*
X79137143Y-52745190D01*
X80327619Y-52221381D02*
X80518096Y-52221381D01*
X80613334Y-52269000D01*
X80708572Y-52364238D01*
X80756191Y-52554714D01*
X80756191Y-52888048D01*
X80708572Y-53078524D01*
X80613334Y-53173762D01*
X80518096Y-53221381D01*
X80327619Y-53221381D01*
X80232381Y-53173762D01*
X80137143Y-53078524D01*
X80089524Y-52888048D01*
X80089524Y-52554714D01*
X80137143Y-52364238D01*
X80232381Y-52269000D01*
X80327619Y-52221381D01*
X81756191Y-53221381D02*
X81422857Y-52745190D01*
X81184762Y-53221381D02*
X81184762Y-52221381D01*
X81565715Y-52221381D01*
X81660953Y-52269000D01*
X81708572Y-52316619D01*
X81756191Y-52411857D01*
X81756191Y-52554714D01*
X81708572Y-52649952D01*
X81660953Y-52697571D01*
X81565715Y-52745190D01*
X81184762Y-52745190D01*
X82041905Y-52221381D02*
X82613334Y-52221381D01*
X82327619Y-53221381D02*
X82327619Y-52221381D01*
X83470477Y-53221381D02*
X82899048Y-53221381D01*
X83184762Y-53221381D02*
X83184762Y-52221381D01*
X83089524Y-52364238D01*
X82994286Y-52459476D01*
X82899048Y-52507095D01*
X79946667Y-54871381D02*
X79946667Y-53871381D01*
X80327620Y-53871381D01*
X80422858Y-53919000D01*
X80470477Y-53966619D01*
X80518096Y-54061857D01*
X80518096Y-54204714D01*
X80470477Y-54299952D01*
X80422858Y-54347571D01*
X80327620Y-54395190D01*
X79946667Y-54395190D01*
X80851429Y-53871381D02*
X81089524Y-54871381D01*
X81280001Y-54157095D01*
X81470477Y-54871381D01*
X81708572Y-53871381D01*
X82660953Y-54871381D02*
X82327619Y-54395190D01*
X82089524Y-54871381D02*
X82089524Y-53871381D01*
X82470477Y-53871381D01*
X82565715Y-53919000D01*
X82613334Y-53966619D01*
X82660953Y-54061857D01*
X82660953Y-54204714D01*
X82613334Y-54299952D01*
X82565715Y-54347571D01*
X82470477Y-54395190D01*
X82089524Y-54395190D01*
X136640202Y-58751244D02*
X136687821Y-58608387D01*
X136687821Y-58370291D01*
X136640202Y-58275053D01*
X136592583Y-58227434D01*
X136497345Y-58179815D01*
X136402107Y-58179815D01*
X136306869Y-58227434D01*
X136259250Y-58275053D01*
X136211630Y-58370291D01*
X136164011Y-58560768D01*
X136116392Y-58656006D01*
X136068773Y-58703625D01*
X135973535Y-58751244D01*
X135878297Y-58751244D01*
X135783059Y-58703625D01*
X135735440Y-58656006D01*
X135687821Y-58560768D01*
X135687821Y-58322672D01*
X135735440Y-58179815D01*
X136687821Y-57751244D02*
X135687821Y-57751244D01*
X135687821Y-57370291D01*
X135735440Y-57275053D01*
X135783059Y-57227434D01*
X135878297Y-57179815D01*
X136021154Y-57179815D01*
X136116392Y-57227434D01*
X136164011Y-57275053D01*
X136211630Y-57370291D01*
X136211630Y-57751244D01*
X136687821Y-56275053D02*
X136687821Y-56751244D01*
X135687821Y-56751244D01*
X136687821Y-55941720D02*
X135687821Y-55941720D01*
X135687821Y-55608387D02*
X135687821Y-55036958D01*
X136687821Y-55322673D02*
X135687821Y-55322673D01*
X135786762Y-118649524D02*
X135834381Y-118506667D01*
X135834381Y-118268571D01*
X135786762Y-118173333D01*
X135739143Y-118125714D01*
X135643905Y-118078095D01*
X135548667Y-118078095D01*
X135453429Y-118125714D01*
X135405810Y-118173333D01*
X135358190Y-118268571D01*
X135310571Y-118459048D01*
X135262952Y-118554286D01*
X135215333Y-118601905D01*
X135120095Y-118649524D01*
X135024857Y-118649524D01*
X134929619Y-118601905D01*
X134882000Y-118554286D01*
X134834381Y-118459048D01*
X134834381Y-118220952D01*
X134882000Y-118078095D01*
X135834381Y-117649524D02*
X134834381Y-117649524D01*
X134834381Y-117268571D01*
X134882000Y-117173333D01*
X134929619Y-117125714D01*
X135024857Y-117078095D01*
X135167714Y-117078095D01*
X135262952Y-117125714D01*
X135310571Y-117173333D01*
X135358190Y-117268571D01*
X135358190Y-117649524D01*
X135834381Y-116173333D02*
X135834381Y-116649524D01*
X134834381Y-116649524D01*
X135834381Y-115840000D02*
X134834381Y-115840000D01*
X134834381Y-115506667D02*
X134834381Y-114935238D01*
X135834381Y-115220953D02*
X134834381Y-115220953D01*
X97739461Y-128990457D02*
X96739461Y-128990457D01*
X96739461Y-128609504D01*
X96787080Y-128514266D01*
X96834699Y-128466647D01*
X96929937Y-128419028D01*
X97072794Y-128419028D01*
X97168032Y-128466647D01*
X97215651Y-128514266D01*
X97263270Y-128609504D01*
X97263270Y-128990457D01*
X96739461Y-127799981D02*
X96739461Y-127609504D01*
X96787080Y-127514266D01*
X96882318Y-127419028D01*
X97072794Y-127371409D01*
X97406128Y-127371409D01*
X97596604Y-127419028D01*
X97691842Y-127514266D01*
X97739461Y-127609504D01*
X97739461Y-127799981D01*
X97691842Y-127895219D01*
X97596604Y-127990457D01*
X97406128Y-128038076D01*
X97072794Y-128038076D01*
X96882318Y-127990457D01*
X96787080Y-127895219D01*
X96739461Y-127799981D01*
X97739461Y-126371409D02*
X97263270Y-126704743D01*
X97739461Y-126942838D02*
X96739461Y-126942838D01*
X96739461Y-126561885D01*
X96787080Y-126466647D01*
X96834699Y-126419028D01*
X96929937Y-126371409D01*
X97072794Y-126371409D01*
X97168032Y-126419028D01*
X97215651Y-126466647D01*
X97263270Y-126561885D01*
X97263270Y-126942838D01*
X96739461Y-126085695D02*
X96739461Y-125514266D01*
X97739461Y-125799981D02*
X96739461Y-125799981D01*
X96739461Y-125276171D02*
X96739461Y-124657123D01*
X97120413Y-124990457D01*
X97120413Y-124847599D01*
X97168032Y-124752361D01*
X97215651Y-124704742D01*
X97310890Y-124657123D01*
X97548985Y-124657123D01*
X97644223Y-124704742D01*
X97691842Y-124752361D01*
X97739461Y-124847599D01*
X97739461Y-125133314D01*
X97691842Y-125228552D01*
X97644223Y-125276171D01*
X41291143Y-129484381D02*
X41291143Y-128484381D01*
X41672096Y-128484381D01*
X41767334Y-128532000D01*
X41814953Y-128579619D01*
X41862572Y-128674857D01*
X41862572Y-128817714D01*
X41814953Y-128912952D01*
X41767334Y-128960571D01*
X41672096Y-129008190D01*
X41291143Y-129008190D01*
X42481619Y-128484381D02*
X42672096Y-128484381D01*
X42767334Y-128532000D01*
X42862572Y-128627238D01*
X42910191Y-128817714D01*
X42910191Y-129151048D01*
X42862572Y-129341524D01*
X42767334Y-129436762D01*
X42672096Y-129484381D01*
X42481619Y-129484381D01*
X42386381Y-129436762D01*
X42291143Y-129341524D01*
X42243524Y-129151048D01*
X42243524Y-128817714D01*
X42291143Y-128627238D01*
X42386381Y-128532000D01*
X42481619Y-128484381D01*
X43910191Y-129484381D02*
X43576857Y-129008190D01*
X43338762Y-129484381D02*
X43338762Y-128484381D01*
X43719715Y-128484381D01*
X43814953Y-128532000D01*
X43862572Y-128579619D01*
X43910191Y-128674857D01*
X43910191Y-128817714D01*
X43862572Y-128912952D01*
X43814953Y-128960571D01*
X43719715Y-129008190D01*
X43338762Y-129008190D01*
X44195905Y-128484381D02*
X44767334Y-128484381D01*
X44481619Y-129484381D02*
X44481619Y-128484381D01*
X45529239Y-128817714D02*
X45529239Y-129484381D01*
X45291143Y-128436762D02*
X45053048Y-129151048D01*
X45672096Y-129151048D01*
X119269143Y-124150381D02*
X119269143Y-123150381D01*
X119650096Y-123150381D01*
X119745334Y-123198000D01*
X119792953Y-123245619D01*
X119840572Y-123340857D01*
X119840572Y-123483714D01*
X119792953Y-123578952D01*
X119745334Y-123626571D01*
X119650096Y-123674190D01*
X119269143Y-123674190D01*
X120459619Y-123150381D02*
X120650096Y-123150381D01*
X120745334Y-123198000D01*
X120840572Y-123293238D01*
X120888191Y-123483714D01*
X120888191Y-123817048D01*
X120840572Y-124007524D01*
X120745334Y-124102762D01*
X120650096Y-124150381D01*
X120459619Y-124150381D01*
X120364381Y-124102762D01*
X120269143Y-124007524D01*
X120221524Y-123817048D01*
X120221524Y-123483714D01*
X120269143Y-123293238D01*
X120364381Y-123198000D01*
X120459619Y-123150381D01*
X121888191Y-124150381D02*
X121554857Y-123674190D01*
X121316762Y-124150381D02*
X121316762Y-123150381D01*
X121697715Y-123150381D01*
X121792953Y-123198000D01*
X121840572Y-123245619D01*
X121888191Y-123340857D01*
X121888191Y-123483714D01*
X121840572Y-123578952D01*
X121792953Y-123626571D01*
X121697715Y-123674190D01*
X121316762Y-123674190D01*
X122173905Y-123150381D02*
X122745334Y-123150381D01*
X122459619Y-124150381D02*
X122459619Y-123150381D01*
X122983429Y-123150381D02*
X123602477Y-123150381D01*
X123269143Y-123531333D01*
X123412001Y-123531333D01*
X123507239Y-123578952D01*
X123554858Y-123626571D01*
X123602477Y-123721810D01*
X123602477Y-123959905D01*
X123554858Y-124055143D01*
X123507239Y-124102762D01*
X123412001Y-124150381D01*
X123126286Y-124150381D01*
X123031048Y-124102762D01*
X122983429Y-124055143D01*
X56332381Y-64880857D02*
X55332381Y-64880857D01*
X55332381Y-64499904D01*
X55380000Y-64404666D01*
X55427619Y-64357047D01*
X55522857Y-64309428D01*
X55665714Y-64309428D01*
X55760952Y-64357047D01*
X55808571Y-64404666D01*
X55856190Y-64499904D01*
X55856190Y-64880857D01*
X55332381Y-63690381D02*
X55332381Y-63499904D01*
X55380000Y-63404666D01*
X55475238Y-63309428D01*
X55665714Y-63261809D01*
X55999048Y-63261809D01*
X56189524Y-63309428D01*
X56284762Y-63404666D01*
X56332381Y-63499904D01*
X56332381Y-63690381D01*
X56284762Y-63785619D01*
X56189524Y-63880857D01*
X55999048Y-63928476D01*
X55665714Y-63928476D01*
X55475238Y-63880857D01*
X55380000Y-63785619D01*
X55332381Y-63690381D01*
X56332381Y-62261809D02*
X55856190Y-62595143D01*
X56332381Y-62833238D02*
X55332381Y-62833238D01*
X55332381Y-62452285D01*
X55380000Y-62357047D01*
X55427619Y-62309428D01*
X55522857Y-62261809D01*
X55665714Y-62261809D01*
X55760952Y-62309428D01*
X55808571Y-62357047D01*
X55856190Y-62452285D01*
X55856190Y-62833238D01*
X55332381Y-61976095D02*
X55332381Y-61404666D01*
X56332381Y-61690381D02*
X55332381Y-61690381D01*
X55427619Y-61118952D02*
X55380000Y-61071333D01*
X55332381Y-60976095D01*
X55332381Y-60737999D01*
X55380000Y-60642761D01*
X55427619Y-60595142D01*
X55522857Y-60547523D01*
X55618095Y-60547523D01*
X55760952Y-60595142D01*
X56332381Y-61166571D01*
X56332381Y-60547523D01*
X123841143Y-56586381D02*
X123841143Y-55586381D01*
X124222096Y-55586381D01*
X124317334Y-55634000D01*
X124364953Y-55681619D01*
X124412572Y-55776857D01*
X124412572Y-55919714D01*
X124364953Y-56014952D01*
X124317334Y-56062571D01*
X124222096Y-56110190D01*
X123841143Y-56110190D01*
X125031619Y-55586381D02*
X125222096Y-55586381D01*
X125317334Y-55634000D01*
X125412572Y-55729238D01*
X125460191Y-55919714D01*
X125460191Y-56253048D01*
X125412572Y-56443524D01*
X125317334Y-56538762D01*
X125222096Y-56586381D01*
X125031619Y-56586381D01*
X124936381Y-56538762D01*
X124841143Y-56443524D01*
X124793524Y-56253048D01*
X124793524Y-55919714D01*
X124841143Y-55729238D01*
X124936381Y-55634000D01*
X125031619Y-55586381D01*
X126460191Y-56586381D02*
X126126857Y-56110190D01*
X125888762Y-56586381D02*
X125888762Y-55586381D01*
X126269715Y-55586381D01*
X126364953Y-55634000D01*
X126412572Y-55681619D01*
X126460191Y-55776857D01*
X126460191Y-55919714D01*
X126412572Y-56014952D01*
X126364953Y-56062571D01*
X126269715Y-56110190D01*
X125888762Y-56110190D01*
X126745905Y-55586381D02*
X127317334Y-55586381D01*
X127031619Y-56586381D02*
X127031619Y-55586381D01*
X128174477Y-56586381D02*
X127603048Y-56586381D01*
X127888762Y-56586381D02*
X127888762Y-55586381D01*
X127793524Y-55729238D01*
X127698286Y-55824476D01*
X127603048Y-55872095D01*
X56237143Y-95201999D02*
X56284762Y-95249618D01*
X56332381Y-95392475D01*
X56332381Y-95487713D01*
X56284762Y-95630571D01*
X56189524Y-95725809D01*
X56094286Y-95773428D01*
X55903810Y-95821047D01*
X55760952Y-95821047D01*
X55570476Y-95773428D01*
X55475238Y-95725809D01*
X55380000Y-95630571D01*
X55332381Y-95487713D01*
X55332381Y-95392475D01*
X55380000Y-95249618D01*
X55427619Y-95201999D01*
X55332381Y-94582952D02*
X55332381Y-94392475D01*
X55380000Y-94297237D01*
X55475238Y-94201999D01*
X55665714Y-94154380D01*
X55999048Y-94154380D01*
X56189524Y-94201999D01*
X56284762Y-94297237D01*
X56332381Y-94392475D01*
X56332381Y-94582952D01*
X56284762Y-94678190D01*
X56189524Y-94773428D01*
X55999048Y-94821047D01*
X55665714Y-94821047D01*
X55475238Y-94773428D01*
X55380000Y-94678190D01*
X55332381Y-94582952D01*
X56332381Y-93725809D02*
X55332381Y-93725809D01*
X56046667Y-93392475D01*
X55332381Y-93059142D01*
X56332381Y-93059142D01*
X55808571Y-92249618D02*
X55856190Y-92106761D01*
X55903810Y-92059142D01*
X55999048Y-92011523D01*
X56141905Y-92011523D01*
X56237143Y-92059142D01*
X56284762Y-92106761D01*
X56332381Y-92201999D01*
X56332381Y-92582952D01*
X55332381Y-92582952D01*
X55332381Y-92249618D01*
X55380000Y-92154380D01*
X55427619Y-92106761D01*
X55522857Y-92059142D01*
X55618095Y-92059142D01*
X55713333Y-92106761D01*
X55760952Y-92154380D01*
X55808571Y-92249618D01*
X55808571Y-92582952D01*
X56332381Y-91582952D02*
X55332381Y-91582952D01*
X56332381Y-91106762D02*
X55332381Y-91106762D01*
X56332381Y-90535333D01*
X55332381Y-90535333D01*
X55808571Y-90059143D02*
X55808571Y-89725809D01*
X56332381Y-89582952D02*
X56332381Y-90059143D01*
X55332381Y-90059143D01*
X55332381Y-89582952D01*
X56332381Y-89154381D02*
X55332381Y-89154381D01*
X55332381Y-88916286D01*
X55380000Y-88773428D01*
X55475238Y-88678190D01*
X55570476Y-88630571D01*
X55760952Y-88582952D01*
X55903810Y-88582952D01*
X56094286Y-88630571D01*
X56189524Y-88678190D01*
X56284762Y-88773428D01*
X56332381Y-88916286D01*
X56332381Y-89154381D01*
X134112096Y-107196000D02*
X134016858Y-107148381D01*
X133874001Y-107148381D01*
X133731143Y-107196000D01*
X133635905Y-107291238D01*
X133588286Y-107386476D01*
X133540667Y-107576952D01*
X133540667Y-107719810D01*
X133588286Y-107910286D01*
X133635905Y-108005524D01*
X133731143Y-108100762D01*
X133874001Y-108148381D01*
X133969239Y-108148381D01*
X134112096Y-108100762D01*
X134159715Y-108053143D01*
X134159715Y-107719810D01*
X133969239Y-107719810D01*
X134588286Y-108148381D02*
X134588286Y-107148381D01*
X135159715Y-108148381D01*
X135159715Y-107148381D01*
X135635905Y-108148381D02*
X135635905Y-107148381D01*
X135874000Y-107148381D01*
X136016858Y-107196000D01*
X136112096Y-107291238D01*
X136159715Y-107386476D01*
X136207334Y-107576952D01*
X136207334Y-107719810D01*
X136159715Y-107910286D01*
X136112096Y-108005524D01*
X136016858Y-108100762D01*
X135874000Y-108148381D01*
X135635905Y-108148381D01*
X97980572Y-115800143D02*
X97932953Y-115847762D01*
X97790096Y-115895381D01*
X97694858Y-115895381D01*
X97552000Y-115847762D01*
X97456762Y-115752524D01*
X97409143Y-115657286D01*
X97361524Y-115466810D01*
X97361524Y-115323952D01*
X97409143Y-115133476D01*
X97456762Y-115038238D01*
X97552000Y-114943000D01*
X97694858Y-114895381D01*
X97790096Y-114895381D01*
X97932953Y-114943000D01*
X97980572Y-114990619D01*
X98266286Y-114895381D02*
X98837715Y-114895381D01*
X98552000Y-115895381D02*
X98552000Y-114895381D01*
X99742477Y-115895381D02*
X99409143Y-115419190D01*
X99171048Y-115895381D02*
X99171048Y-114895381D01*
X99552001Y-114895381D01*
X99647239Y-114943000D01*
X99694858Y-114990619D01*
X99742477Y-115085857D01*
X99742477Y-115228714D01*
X99694858Y-115323952D01*
X99647239Y-115371571D01*
X99552001Y-115419190D01*
X99171048Y-115419190D01*
X96861524Y-121880381D02*
X97432953Y-121880381D01*
X97147238Y-122880381D02*
X97147238Y-121880381D01*
X97718667Y-122594667D02*
X98194858Y-122594667D01*
X97623429Y-122880381D02*
X97956762Y-121880381D01*
X98290096Y-122880381D01*
X98623429Y-122880381D02*
X98623429Y-121880381D01*
X99004382Y-121880381D01*
X99099620Y-121928000D01*
X99147239Y-121975619D01*
X99194858Y-122070857D01*
X99194858Y-122213714D01*
X99147239Y-122308952D01*
X99099620Y-122356571D01*
X99004382Y-122404190D01*
X98623429Y-122404190D01*
X100147239Y-122880381D02*
X99575810Y-122880381D01*
X99861524Y-122880381D02*
X99861524Y-121880381D01*
X99766286Y-122023238D01*
X99671048Y-122118476D01*
X99575810Y-122166095D01*
X97115524Y-108926381D02*
X97686953Y-108926381D01*
X97401238Y-109926381D02*
X97401238Y-108926381D01*
X97972667Y-109640667D02*
X98448858Y-109640667D01*
X97877429Y-109926381D02*
X98210762Y-108926381D01*
X98544096Y-109926381D01*
X98877429Y-109926381D02*
X98877429Y-108926381D01*
X99258382Y-108926381D01*
X99353620Y-108974000D01*
X99401239Y-109021619D01*
X99448858Y-109116857D01*
X99448858Y-109259714D01*
X99401239Y-109354952D01*
X99353620Y-109402571D01*
X99258382Y-109450190D01*
X98877429Y-109450190D01*
X99829810Y-109021619D02*
X99877429Y-108974000D01*
X99972667Y-108926381D01*
X100210763Y-108926381D01*
X100306001Y-108974000D01*
X100353620Y-109021619D01*
X100401239Y-109116857D01*
X100401239Y-109212095D01*
X100353620Y-109354952D01*
X99782191Y-109926381D01*
X100401239Y-109926381D01*
X77938524Y-82002381D02*
X78509953Y-82002381D01*
X78224238Y-83002381D02*
X78224238Y-82002381D01*
X78795667Y-82716667D02*
X79271858Y-82716667D01*
X78700429Y-83002381D02*
X79033762Y-82002381D01*
X79367096Y-83002381D01*
X79700429Y-83002381D02*
X79700429Y-82002381D01*
X80081382Y-82002381D01*
X80176620Y-82050000D01*
X80224239Y-82097619D01*
X80271858Y-82192857D01*
X80271858Y-82335714D01*
X80224239Y-82430952D01*
X80176620Y-82478571D01*
X80081382Y-82526190D01*
X79700429Y-82526190D01*
X80652810Y-82097619D02*
X80700429Y-82050000D01*
X80795667Y-82002381D01*
X81033763Y-82002381D01*
X81129001Y-82050000D01*
X81176620Y-82097619D01*
X81224239Y-82192857D01*
X81224239Y-82288095D01*
X81176620Y-82430952D01*
X80605191Y-83002381D01*
X81224239Y-83002381D01*
X77938524Y-94448381D02*
X78509953Y-94448381D01*
X78224238Y-95448381D02*
X78224238Y-94448381D01*
X78795667Y-95162667D02*
X79271858Y-95162667D01*
X78700429Y-95448381D02*
X79033762Y-94448381D01*
X79367096Y-95448381D01*
X79700429Y-95448381D02*
X79700429Y-94448381D01*
X80081382Y-94448381D01*
X80176620Y-94496000D01*
X80224239Y-94543619D01*
X80271858Y-94638857D01*
X80271858Y-94781714D01*
X80224239Y-94876952D01*
X80176620Y-94924571D01*
X80081382Y-94972190D01*
X79700429Y-94972190D01*
X81224239Y-95448381D02*
X80652810Y-95448381D01*
X80938524Y-95448381D02*
X80938524Y-94448381D01*
X80843286Y-94591238D01*
X80748048Y-94686476D01*
X80652810Y-94734095D01*
X79692572Y-89257143D02*
X79644953Y-89304762D01*
X79502096Y-89352381D01*
X79406858Y-89352381D01*
X79264000Y-89304762D01*
X79168762Y-89209524D01*
X79121143Y-89114286D01*
X79073524Y-88923810D01*
X79073524Y-88780952D01*
X79121143Y-88590476D01*
X79168762Y-88495238D01*
X79264000Y-88400000D01*
X79406858Y-88352381D01*
X79502096Y-88352381D01*
X79644953Y-88400000D01*
X79692572Y-88447619D01*
X79978286Y-88352381D02*
X80549715Y-88352381D01*
X80264000Y-89352381D02*
X80264000Y-88352381D01*
X81454477Y-89352381D02*
X81121143Y-88876190D01*
X80883048Y-89352381D02*
X80883048Y-88352381D01*
X81264001Y-88352381D01*
X81359239Y-88400000D01*
X81406858Y-88447619D01*
X81454477Y-88542857D01*
X81454477Y-88685714D01*
X81406858Y-88780952D01*
X81359239Y-88828571D01*
X81264001Y-88876190D01*
X80883048Y-88876190D01*
X98893524Y-57364381D02*
X99464953Y-57364381D01*
X99179238Y-58364381D02*
X99179238Y-57364381D01*
X99750667Y-58078667D02*
X100226858Y-58078667D01*
X99655429Y-58364381D02*
X99988762Y-57364381D01*
X100322096Y-58364381D01*
X100655429Y-58364381D02*
X100655429Y-57364381D01*
X101036382Y-57364381D01*
X101131620Y-57412000D01*
X101179239Y-57459619D01*
X101226858Y-57554857D01*
X101226858Y-57697714D01*
X101179239Y-57792952D01*
X101131620Y-57840571D01*
X101036382Y-57888190D01*
X100655429Y-57888190D01*
X101607810Y-57459619D02*
X101655429Y-57412000D01*
X101750667Y-57364381D01*
X101988763Y-57364381D01*
X102084001Y-57412000D01*
X102131620Y-57459619D01*
X102179239Y-57554857D01*
X102179239Y-57650095D01*
X102131620Y-57792952D01*
X101560191Y-58364381D01*
X102179239Y-58364381D01*
X99147524Y-70064381D02*
X99718953Y-70064381D01*
X99433238Y-71064381D02*
X99433238Y-70064381D01*
X100004667Y-70778667D02*
X100480858Y-70778667D01*
X99909429Y-71064381D02*
X100242762Y-70064381D01*
X100576096Y-71064381D01*
X100909429Y-71064381D02*
X100909429Y-70064381D01*
X101290382Y-70064381D01*
X101385620Y-70112000D01*
X101433239Y-70159619D01*
X101480858Y-70254857D01*
X101480858Y-70397714D01*
X101433239Y-70492952D01*
X101385620Y-70540571D01*
X101290382Y-70588190D01*
X100909429Y-70588190D01*
X102433239Y-71064381D02*
X101861810Y-71064381D01*
X102147524Y-71064381D02*
X102147524Y-70064381D01*
X102052286Y-70207238D01*
X101957048Y-70302476D01*
X101861810Y-70350095D01*
X100520572Y-64111143D02*
X100472953Y-64158762D01*
X100330096Y-64206381D01*
X100234858Y-64206381D01*
X100092000Y-64158762D01*
X99996762Y-64063524D01*
X99949143Y-63968286D01*
X99901524Y-63777810D01*
X99901524Y-63634952D01*
X99949143Y-63444476D01*
X99996762Y-63349238D01*
X100092000Y-63254000D01*
X100234858Y-63206381D01*
X100330096Y-63206381D01*
X100472953Y-63254000D01*
X100520572Y-63301619D01*
X100806286Y-63206381D02*
X101377715Y-63206381D01*
X101092000Y-64206381D02*
X101092000Y-63206381D01*
X102282477Y-64206381D02*
X101949143Y-63730190D01*
X101711048Y-64206381D02*
X101711048Y-63206381D01*
X102092001Y-63206381D01*
X102187239Y-63254000D01*
X102234858Y-63301619D01*
X102282477Y-63396857D01*
X102282477Y-63539714D01*
X102234858Y-63634952D01*
X102187239Y-63682571D01*
X102092001Y-63730190D01*
X101711048Y-63730190D01*
X125730096Y-74176000D02*
X125634858Y-74128381D01*
X125492001Y-74128381D01*
X125349143Y-74176000D01*
X125253905Y-74271238D01*
X125206286Y-74366476D01*
X125158667Y-74556952D01*
X125158667Y-74699810D01*
X125206286Y-74890286D01*
X125253905Y-74985524D01*
X125349143Y-75080762D01*
X125492001Y-75128381D01*
X125587239Y-75128381D01*
X125730096Y-75080762D01*
X125777715Y-75033143D01*
X125777715Y-74699810D01*
X125587239Y-74699810D01*
X126206286Y-75128381D02*
X126206286Y-74128381D01*
X126777715Y-75128381D01*
X126777715Y-74128381D01*
X127253905Y-75128381D02*
X127253905Y-74128381D01*
X127492000Y-74128381D01*
X127634858Y-74176000D01*
X127730096Y-74271238D01*
X127777715Y-74366476D01*
X127825334Y-74556952D01*
X127825334Y-74699810D01*
X127777715Y-74890286D01*
X127730096Y-74985524D01*
X127634858Y-75080762D01*
X127492000Y-75128381D01*
X127253905Y-75128381D01*
X134350191Y-113831714D02*
X134350191Y-114498381D01*
X134112095Y-113450762D02*
X133874000Y-114165048D01*
X134493048Y-114165048D01*
X134874000Y-114403143D02*
X134921619Y-114450762D01*
X134874000Y-114498381D01*
X134826381Y-114450762D01*
X134874000Y-114403143D01*
X134874000Y-114498381D01*
X134874000Y-113879333D02*
X134921619Y-113926952D01*
X134874000Y-113974571D01*
X134826381Y-113926952D01*
X134874000Y-113879333D01*
X134874000Y-113974571D01*
X135874000Y-114498381D02*
X135302571Y-114498381D01*
X135588285Y-114498381D02*
X135588285Y-113498381D01*
X135493047Y-113641238D01*
X135397809Y-113736476D01*
X135302571Y-113784095D01*
X125968191Y-67857714D02*
X125968191Y-68524381D01*
X125730095Y-67476762D02*
X125492000Y-68191048D01*
X126111048Y-68191048D01*
X126492000Y-68429143D02*
X126539619Y-68476762D01*
X126492000Y-68524381D01*
X126444381Y-68476762D01*
X126492000Y-68429143D01*
X126492000Y-68524381D01*
X126492000Y-67905333D02*
X126539619Y-67952952D01*
X126492000Y-68000571D01*
X126444381Y-67952952D01*
X126492000Y-67905333D01*
X126492000Y-68000571D01*
X127492000Y-68524381D02*
X126920571Y-68524381D01*
X127206285Y-68524381D02*
X127206285Y-67524381D01*
X127111047Y-67667238D01*
X127015809Y-67762476D01*
X126920571Y-67810095D01*
X133715238Y-120340381D02*
X133905714Y-120340381D01*
X134000953Y-120292762D01*
X134048572Y-120245143D01*
X134143810Y-120102286D01*
X134191429Y-119911810D01*
X134191429Y-119530857D01*
X134143810Y-119435619D01*
X134096191Y-119388000D01*
X134000953Y-119340381D01*
X133810476Y-119340381D01*
X133715238Y-119388000D01*
X133667619Y-119435619D01*
X133620000Y-119530857D01*
X133620000Y-119768952D01*
X133667619Y-119864190D01*
X133715238Y-119911810D01*
X133810476Y-119959429D01*
X134000953Y-119959429D01*
X134096191Y-119911810D01*
X134143810Y-119864190D01*
X134191429Y-119768952D01*
X134620000Y-120245143D02*
X134667619Y-120292762D01*
X134620000Y-120340381D01*
X134572381Y-120292762D01*
X134620000Y-120245143D01*
X134620000Y-120340381D01*
X134620000Y-119721333D02*
X134667619Y-119768952D01*
X134620000Y-119816571D01*
X134572381Y-119768952D01*
X134620000Y-119721333D01*
X134620000Y-119816571D01*
X135620000Y-120340381D02*
X135048571Y-120340381D01*
X135334285Y-120340381D02*
X135334285Y-119340381D01*
X135239047Y-119483238D01*
X135143809Y-119578476D01*
X135048571Y-119626095D01*
X125079238Y-62682381D02*
X125269714Y-62682381D01*
X125364953Y-62634762D01*
X125412572Y-62587143D01*
X125507810Y-62444286D01*
X125555429Y-62253810D01*
X125555429Y-61872857D01*
X125507810Y-61777619D01*
X125460191Y-61730000D01*
X125364953Y-61682381D01*
X125174476Y-61682381D01*
X125079238Y-61730000D01*
X125031619Y-61777619D01*
X124984000Y-61872857D01*
X124984000Y-62110952D01*
X125031619Y-62206190D01*
X125079238Y-62253810D01*
X125174476Y-62301429D01*
X125364953Y-62301429D01*
X125460191Y-62253810D01*
X125507810Y-62206190D01*
X125555429Y-62110952D01*
X125984000Y-62587143D02*
X126031619Y-62634762D01*
X125984000Y-62682381D01*
X125936381Y-62634762D01*
X125984000Y-62587143D01*
X125984000Y-62682381D01*
X125984000Y-62063333D02*
X126031619Y-62110952D01*
X125984000Y-62158571D01*
X125936381Y-62110952D01*
X125984000Y-62063333D01*
X125984000Y-62158571D01*
X126984000Y-62682381D02*
X126412571Y-62682381D01*
X126698285Y-62682381D02*
X126698285Y-61682381D01*
X126603047Y-61825238D01*
X126507809Y-61920476D01*
X126412571Y-61968095D01*
X58785238Y-83002381D02*
X58975714Y-83002381D01*
X59070953Y-82954762D01*
X59118572Y-82907143D01*
X59213810Y-82764286D01*
X59261429Y-82573810D01*
X59261429Y-82192857D01*
X59213810Y-82097619D01*
X59166191Y-82050000D01*
X59070953Y-82002381D01*
X58880476Y-82002381D01*
X58785238Y-82050000D01*
X58737619Y-82097619D01*
X58690000Y-82192857D01*
X58690000Y-82430952D01*
X58737619Y-82526190D01*
X58785238Y-82573810D01*
X58880476Y-82621429D01*
X59070953Y-82621429D01*
X59166191Y-82573810D01*
X59213810Y-82526190D01*
X59261429Y-82430952D01*
X59690000Y-82907143D02*
X59737619Y-82954762D01*
X59690000Y-83002381D01*
X59642381Y-82954762D01*
X59690000Y-82907143D01*
X59690000Y-83002381D01*
X59690000Y-82383333D02*
X59737619Y-82430952D01*
X59690000Y-82478571D01*
X59642381Y-82430952D01*
X59690000Y-82383333D01*
X59690000Y-82478571D01*
X60690000Y-83002381D02*
X60118571Y-83002381D01*
X60404285Y-83002381D02*
X60404285Y-82002381D01*
X60309047Y-82145238D01*
X60213809Y-82240476D01*
X60118571Y-82288095D01*
X59166191Y-88685714D02*
X59166191Y-89352381D01*
X58928095Y-88304762D02*
X58690000Y-89019048D01*
X59309048Y-89019048D01*
X59690000Y-89257143D02*
X59737619Y-89304762D01*
X59690000Y-89352381D01*
X59642381Y-89304762D01*
X59690000Y-89257143D01*
X59690000Y-89352381D01*
X59690000Y-88733333D02*
X59737619Y-88780952D01*
X59690000Y-88828571D01*
X59642381Y-88780952D01*
X59690000Y-88733333D01*
X59690000Y-88828571D01*
X60690000Y-89352381D02*
X60118571Y-89352381D01*
X60404285Y-89352381D02*
X60404285Y-88352381D01*
X60309047Y-88495238D01*
X60213809Y-88590476D01*
X60118571Y-88638095D01*
X59182096Y-94496000D02*
X59086858Y-94448381D01*
X58944001Y-94448381D01*
X58801143Y-94496000D01*
X58705905Y-94591238D01*
X58658286Y-94686476D01*
X58610667Y-94876952D01*
X58610667Y-95019810D01*
X58658286Y-95210286D01*
X58705905Y-95305524D01*
X58801143Y-95400762D01*
X58944001Y-95448381D01*
X59039239Y-95448381D01*
X59182096Y-95400762D01*
X59229715Y-95353143D01*
X59229715Y-95019810D01*
X59039239Y-95019810D01*
X59658286Y-95448381D02*
X59658286Y-94448381D01*
X60229715Y-95448381D01*
X60229715Y-94448381D01*
X60705905Y-95448381D02*
X60705905Y-94448381D01*
X60944000Y-94448381D01*
X61086858Y-94496000D01*
X61182096Y-94591238D01*
X61229715Y-94686476D01*
X61277334Y-94876952D01*
X61277334Y-95019810D01*
X61229715Y-95210286D01*
X61182096Y-95305524D01*
X61086858Y-95400762D01*
X60944000Y-95448381D01*
X60705905Y-95448381D01*
X62706857Y-76621619D02*
X62611619Y-76574000D01*
X62516381Y-76478762D01*
X62373524Y-76335905D01*
X62278285Y-76288286D01*
X62183047Y-76288286D01*
X62230666Y-76526381D02*
X62135428Y-76478762D01*
X62040190Y-76383524D01*
X61992571Y-76193048D01*
X61992571Y-75859714D01*
X62040190Y-75669238D01*
X62135428Y-75574000D01*
X62230666Y-75526381D01*
X62421143Y-75526381D01*
X62516381Y-75574000D01*
X62611619Y-75669238D01*
X62659238Y-75859714D01*
X62659238Y-76193048D01*
X62611619Y-76383524D01*
X62516381Y-76478762D01*
X62421143Y-76526381D01*
X62230666Y-76526381D01*
X63087809Y-75526381D02*
X63087809Y-76335905D01*
X63135428Y-76431143D01*
X63183047Y-76478762D01*
X63278285Y-76526381D01*
X63468762Y-76526381D01*
X63564000Y-76478762D01*
X63611619Y-76431143D01*
X63659238Y-76335905D01*
X63659238Y-75526381D01*
X64087809Y-76240667D02*
X64564000Y-76240667D01*
X63992571Y-76526381D02*
X64325904Y-75526381D01*
X64659238Y-76526381D01*
X64992571Y-76526381D02*
X64992571Y-75526381D01*
X65230666Y-75526381D01*
X65373524Y-75574000D01*
X65468762Y-75669238D01*
X65516381Y-75764476D01*
X65564000Y-75954952D01*
X65564000Y-76097810D01*
X65516381Y-76288286D01*
X65468762Y-76383524D01*
X65373524Y-76478762D01*
X65230666Y-76526381D01*
X64992571Y-76526381D01*
X67325905Y-76431143D02*
X67278286Y-76478762D01*
X67135429Y-76526381D01*
X67040191Y-76526381D01*
X66897333Y-76478762D01*
X66802095Y-76383524D01*
X66754476Y-76288286D01*
X66706857Y-76097810D01*
X66706857Y-75954952D01*
X66754476Y-75764476D01*
X66802095Y-75669238D01*
X66897333Y-75574000D01*
X67040191Y-75526381D01*
X67135429Y-75526381D01*
X67278286Y-75574000D01*
X67325905Y-75621619D01*
X67944952Y-75526381D02*
X68135429Y-75526381D01*
X68230667Y-75574000D01*
X68325905Y-75669238D01*
X68373524Y-75859714D01*
X68373524Y-76193048D01*
X68325905Y-76383524D01*
X68230667Y-76478762D01*
X68135429Y-76526381D01*
X67944952Y-76526381D01*
X67849714Y-76478762D01*
X67754476Y-76383524D01*
X67706857Y-76193048D01*
X67706857Y-75859714D01*
X67754476Y-75669238D01*
X67849714Y-75574000D01*
X67944952Y-75526381D01*
X68802095Y-75526381D02*
X68802095Y-76335905D01*
X68849714Y-76431143D01*
X68897333Y-76478762D01*
X68992571Y-76526381D01*
X69183048Y-76526381D01*
X69278286Y-76478762D01*
X69325905Y-76431143D01*
X69373524Y-76335905D01*
X69373524Y-75526381D01*
X69849714Y-76526381D02*
X69849714Y-75526381D01*
X70230667Y-75526381D01*
X70325905Y-75574000D01*
X70373524Y-75621619D01*
X70421143Y-75716857D01*
X70421143Y-75859714D01*
X70373524Y-75954952D01*
X70325905Y-76002571D01*
X70230667Y-76050190D01*
X69849714Y-76050190D01*
X71325905Y-76526381D02*
X70849714Y-76526381D01*
X70849714Y-75526381D01*
X71659238Y-76002571D02*
X71992572Y-76002571D01*
X72135429Y-76526381D02*
X71659238Y-76526381D01*
X71659238Y-75526381D01*
X72135429Y-75526381D01*
X73135429Y-76526381D02*
X72802095Y-76050190D01*
X72564000Y-76526381D02*
X72564000Y-75526381D01*
X72944953Y-75526381D01*
X73040191Y-75574000D01*
X73087810Y-75621619D01*
X73135429Y-75716857D01*
X73135429Y-75859714D01*
X73087810Y-75954952D01*
X73040191Y-76002571D01*
X72944953Y-76050190D01*
X72564000Y-76050190D01*
X59968762Y-77652571D02*
X60111619Y-77700190D01*
X60159238Y-77747810D01*
X60206857Y-77843048D01*
X60206857Y-77985905D01*
X60159238Y-78081143D01*
X60111619Y-78128762D01*
X60016381Y-78176381D01*
X59635428Y-78176381D01*
X59635428Y-77176381D01*
X59968762Y-77176381D01*
X60064000Y-77224000D01*
X60111619Y-77271619D01*
X60159238Y-77366857D01*
X60159238Y-77462095D01*
X60111619Y-77557333D01*
X60064000Y-77604952D01*
X59968762Y-77652571D01*
X59635428Y-77652571D01*
X60825904Y-77700190D02*
X60825904Y-78176381D01*
X60492571Y-77176381D02*
X60825904Y-77700190D01*
X61159238Y-77176381D01*
X62254476Y-78176381D02*
X62254476Y-77176381D01*
X62492571Y-77176381D01*
X62635429Y-77224000D01*
X62730667Y-77319238D01*
X62778286Y-77414476D01*
X62825905Y-77604952D01*
X62825905Y-77747810D01*
X62778286Y-77938286D01*
X62730667Y-78033524D01*
X62635429Y-78128762D01*
X62492571Y-78176381D01*
X62254476Y-78176381D01*
X63206857Y-77890667D02*
X63683048Y-77890667D01*
X63111619Y-78176381D02*
X63444952Y-77176381D01*
X63778286Y-78176381D01*
X64111619Y-78176381D02*
X64111619Y-77176381D01*
X64683048Y-78176381D01*
X64683048Y-77176381D01*
X65921143Y-78176381D02*
X65921143Y-77176381D01*
X66254477Y-77890667D01*
X66587810Y-77176381D01*
X66587810Y-78176381D01*
X67016381Y-77890667D02*
X67492572Y-77890667D01*
X66921143Y-78176381D02*
X67254476Y-77176381D01*
X67587810Y-78176381D01*
X68492572Y-78176381D02*
X68159238Y-77700190D01*
X67921143Y-78176381D02*
X67921143Y-77176381D01*
X68302096Y-77176381D01*
X68397334Y-77224000D01*
X68444953Y-77271619D01*
X68492572Y-77366857D01*
X68492572Y-77509714D01*
X68444953Y-77604952D01*
X68397334Y-77652571D01*
X68302096Y-77700190D01*
X67921143Y-77700190D01*
X68921143Y-78176381D02*
X68921143Y-77176381D01*
X69492572Y-78176381D02*
X69064000Y-77604952D01*
X69492572Y-77176381D02*
X68921143Y-77747810D01*
X69873524Y-78128762D02*
X70016381Y-78176381D01*
X70254477Y-78176381D01*
X70349715Y-78128762D01*
X70397334Y-78081143D01*
X70444953Y-77985905D01*
X70444953Y-77890667D01*
X70397334Y-77795429D01*
X70349715Y-77747810D01*
X70254477Y-77700190D01*
X70064000Y-77652571D01*
X69968762Y-77604952D01*
X69921143Y-77557333D01*
X69873524Y-77462095D01*
X69873524Y-77366857D01*
X69921143Y-77271619D01*
X69968762Y-77224000D01*
X70064000Y-77176381D01*
X70302096Y-77176381D01*
X70444953Y-77224000D01*
X71635429Y-78176381D02*
X71635429Y-77176381D01*
X72206858Y-78176381D02*
X71778286Y-77604952D01*
X72206858Y-77176381D02*
X71635429Y-77747810D01*
X72540191Y-77176381D02*
X72778286Y-78176381D01*
X72968763Y-77462095D01*
X73159239Y-78176381D01*
X73397334Y-77176381D01*
X74206858Y-77509714D02*
X74206858Y-78176381D01*
X73968762Y-77128762D02*
X73730667Y-77843048D01*
X74349715Y-77843048D01*
X74587810Y-77176381D02*
X75159239Y-77176381D01*
X74873524Y-78176381D02*
X74873524Y-77176381D01*
X75492572Y-78176381D02*
X75492572Y-77176381D01*
X62730667Y-79731143D02*
X62683048Y-79778762D01*
X62540191Y-79826381D01*
X62444953Y-79826381D01*
X62302095Y-79778762D01*
X62206857Y-79683524D01*
X62159238Y-79588286D01*
X62111619Y-79397810D01*
X62111619Y-79254952D01*
X62159238Y-79064476D01*
X62206857Y-78969238D01*
X62302095Y-78874000D01*
X62444953Y-78826381D01*
X62540191Y-78826381D01*
X62683048Y-78874000D01*
X62730667Y-78921619D01*
X63730667Y-79731143D02*
X63683048Y-79778762D01*
X63540191Y-79826381D01*
X63444953Y-79826381D01*
X63302095Y-79778762D01*
X63206857Y-79683524D01*
X63159238Y-79588286D01*
X63111619Y-79397810D01*
X63111619Y-79254952D01*
X63159238Y-79064476D01*
X63206857Y-78969238D01*
X63302095Y-78874000D01*
X63444953Y-78826381D01*
X63540191Y-78826381D01*
X63683048Y-78874000D01*
X63730667Y-78921619D01*
X64159238Y-79445429D02*
X64921143Y-79445429D01*
X65730667Y-79302571D02*
X65873524Y-79350190D01*
X65921143Y-79397810D01*
X65968762Y-79493048D01*
X65968762Y-79635905D01*
X65921143Y-79731143D01*
X65873524Y-79778762D01*
X65778286Y-79826381D01*
X65397333Y-79826381D01*
X65397333Y-78826381D01*
X65730667Y-78826381D01*
X65825905Y-78874000D01*
X65873524Y-78921619D01*
X65921143Y-79016857D01*
X65921143Y-79112095D01*
X65873524Y-79207333D01*
X65825905Y-79254952D01*
X65730667Y-79302571D01*
X65397333Y-79302571D01*
X66587809Y-79350190D02*
X66587809Y-79826381D01*
X66254476Y-78826381D02*
X66587809Y-79350190D01*
X66921143Y-78826381D01*
X67254476Y-79445429D02*
X68016381Y-79445429D01*
X68444952Y-79778762D02*
X68587809Y-79826381D01*
X68825905Y-79826381D01*
X68921143Y-79778762D01*
X68968762Y-79731143D01*
X69016381Y-79635905D01*
X69016381Y-79540667D01*
X68968762Y-79445429D01*
X68921143Y-79397810D01*
X68825905Y-79350190D01*
X68635428Y-79302571D01*
X68540190Y-79254952D01*
X68492571Y-79207333D01*
X68444952Y-79112095D01*
X68444952Y-79016857D01*
X68492571Y-78921619D01*
X68540190Y-78874000D01*
X68635428Y-78826381D01*
X68873524Y-78826381D01*
X69016381Y-78874000D01*
X69397333Y-79540667D02*
X69873524Y-79540667D01*
X69302095Y-79826381D02*
X69635428Y-78826381D01*
X69968762Y-79826381D01*
X71492572Y-79159714D02*
X71492572Y-79826381D01*
X71254476Y-78778762D02*
X71016381Y-79493048D01*
X71635429Y-79493048D01*
X72016381Y-79731143D02*
X72064000Y-79778762D01*
X72016381Y-79826381D01*
X71968762Y-79778762D01*
X72016381Y-79731143D01*
X72016381Y-79826381D01*
X72683047Y-78826381D02*
X72778286Y-78826381D01*
X72873524Y-78874000D01*
X72921143Y-78921619D01*
X72968762Y-79016857D01*
X73016381Y-79207333D01*
X73016381Y-79445429D01*
X72968762Y-79635905D01*
X72921143Y-79731143D01*
X72873524Y-79778762D01*
X72778286Y-79826381D01*
X72683047Y-79826381D01*
X72587809Y-79778762D01*
X72540190Y-79731143D01*
X72492571Y-79635905D01*
X72444952Y-79445429D01*
X72444952Y-79207333D01*
X72492571Y-79016857D01*
X72540190Y-78921619D01*
X72587809Y-78874000D01*
X72683047Y-78826381D01*
X112133047Y-41330619D02*
X112466381Y-41806810D01*
X112704476Y-41330619D02*
X112704476Y-42330619D01*
X112323523Y-42330619D01*
X112228285Y-42283000D01*
X112180666Y-42235381D01*
X112133047Y-42140143D01*
X112133047Y-41997286D01*
X112180666Y-41902048D01*
X112228285Y-41854429D01*
X112323523Y-41806810D01*
X112704476Y-41806810D01*
X111371142Y-41854429D02*
X111704476Y-41854429D01*
X111704476Y-41330619D02*
X111704476Y-42330619D01*
X111228285Y-42330619D01*
X107822904Y-42283000D02*
X107918142Y-42330619D01*
X108060999Y-42330619D01*
X108203857Y-42283000D01*
X108299095Y-42187762D01*
X108346714Y-42092524D01*
X108394333Y-41902048D01*
X108394333Y-41759190D01*
X108346714Y-41568714D01*
X108299095Y-41473476D01*
X108203857Y-41378238D01*
X108060999Y-41330619D01*
X107965761Y-41330619D01*
X107822904Y-41378238D01*
X107775285Y-41425857D01*
X107775285Y-41759190D01*
X107965761Y-41759190D01*
X107346714Y-41330619D02*
X107346714Y-42330619D01*
X106775285Y-41330619D01*
X106775285Y-42330619D01*
X106299095Y-41330619D02*
X106299095Y-42330619D01*
X106061000Y-42330619D01*
X105918142Y-42283000D01*
X105822904Y-42187762D01*
X105775285Y-42092524D01*
X105727666Y-41902048D01*
X105727666Y-41759190D01*
X105775285Y-41568714D01*
X105822904Y-41473476D01*
X105918142Y-41378238D01*
X106061000Y-41330619D01*
X106299095Y-41330619D01*
X109862953Y-139136381D02*
X109529619Y-138660190D01*
X109291524Y-139136381D02*
X109291524Y-138136381D01*
X109672477Y-138136381D01*
X109767715Y-138184000D01*
X109815334Y-138231619D01*
X109862953Y-138326857D01*
X109862953Y-138469714D01*
X109815334Y-138564952D01*
X109767715Y-138612571D01*
X109672477Y-138660190D01*
X109291524Y-138660190D01*
X110624858Y-138612571D02*
X110291524Y-138612571D01*
X110291524Y-139136381D02*
X110291524Y-138136381D01*
X110767715Y-138136381D01*
X104394096Y-138057000D02*
X104298858Y-138009381D01*
X104156001Y-138009381D01*
X104013143Y-138057000D01*
X103917905Y-138152238D01*
X103870286Y-138247476D01*
X103822667Y-138437952D01*
X103822667Y-138580810D01*
X103870286Y-138771286D01*
X103917905Y-138866524D01*
X104013143Y-138961762D01*
X104156001Y-139009381D01*
X104251239Y-139009381D01*
X104394096Y-138961762D01*
X104441715Y-138914143D01*
X104441715Y-138580810D01*
X104251239Y-138580810D01*
X104870286Y-139009381D02*
X104870286Y-138009381D01*
X105441715Y-139009381D01*
X105441715Y-138009381D01*
X105917905Y-139009381D02*
X105917905Y-138009381D01*
X106156000Y-138009381D01*
X106298858Y-138057000D01*
X106394096Y-138152238D01*
X106441715Y-138247476D01*
X106489334Y-138437952D01*
X106489334Y-138580810D01*
X106441715Y-138771286D01*
X106394096Y-138866524D01*
X106298858Y-138961762D01*
X106156000Y-139009381D01*
X105917905Y-139009381D01*
X42575219Y-104320673D02*
X43051410Y-103987339D01*
X42575219Y-103749244D02*
X43575219Y-103749244D01*
X43575219Y-104130197D01*
X43527600Y-104225435D01*
X43479981Y-104273054D01*
X43384743Y-104320673D01*
X43241886Y-104320673D01*
X43146648Y-104273054D01*
X43099029Y-104225435D01*
X43051410Y-104130197D01*
X43051410Y-103749244D01*
X43099029Y-105082578D02*
X43099029Y-104749244D01*
X42575219Y-104749244D02*
X43575219Y-104749244D01*
X43575219Y-105225435D01*
X43583480Y-108874656D02*
X43631099Y-108779418D01*
X43631099Y-108636561D01*
X43583480Y-108493703D01*
X43488242Y-108398465D01*
X43393004Y-108350846D01*
X43202528Y-108303227D01*
X43059670Y-108303227D01*
X42869194Y-108350846D01*
X42773956Y-108398465D01*
X42678718Y-108493703D01*
X42631099Y-108636561D01*
X42631099Y-108731799D01*
X42678718Y-108874656D01*
X42726337Y-108922275D01*
X43059670Y-108922275D01*
X43059670Y-108731799D01*
X42631099Y-109350846D02*
X43631099Y-109350846D01*
X42631099Y-109922275D01*
X43631099Y-109922275D01*
X42631099Y-110398465D02*
X43631099Y-110398465D01*
X43631099Y-110636560D01*
X43583480Y-110779418D01*
X43488242Y-110874656D01*
X43393004Y-110922275D01*
X43202528Y-110969894D01*
X43059670Y-110969894D01*
X42869194Y-110922275D01*
X42773956Y-110874656D01*
X42678718Y-110779418D01*
X42631099Y-110636560D01*
X42631099Y-110398465D01*
X51696287Y-41457619D02*
X52029621Y-41933810D01*
X52267716Y-41457619D02*
X52267716Y-42457619D01*
X51886763Y-42457619D01*
X51791525Y-42410000D01*
X51743906Y-42362381D01*
X51696287Y-42267143D01*
X51696287Y-42124286D01*
X51743906Y-42029048D01*
X51791525Y-41981429D01*
X51886763Y-41933810D01*
X52267716Y-41933810D01*
X50934382Y-41981429D02*
X51267716Y-41981429D01*
X51267716Y-41457619D02*
X51267716Y-42457619D01*
X50791525Y-42457619D01*
X56052816Y-41552240D02*
X55957578Y-41504621D01*
X55814721Y-41504621D01*
X55671863Y-41552240D01*
X55576625Y-41647478D01*
X55529006Y-41742716D01*
X55481387Y-41933192D01*
X55481387Y-42076050D01*
X55529006Y-42266526D01*
X55576625Y-42361764D01*
X55671863Y-42457002D01*
X55814721Y-42504621D01*
X55909959Y-42504621D01*
X56052816Y-42457002D01*
X56100435Y-42409383D01*
X56100435Y-42076050D01*
X55909959Y-42076050D01*
X56529006Y-42504621D02*
X56529006Y-41504621D01*
X57100435Y-42504621D01*
X57100435Y-41504621D01*
X57576625Y-42504621D02*
X57576625Y-41504621D01*
X57814720Y-41504621D01*
X57957578Y-41552240D01*
X58052816Y-41647478D01*
X58100435Y-41742716D01*
X58148054Y-41933192D01*
X58148054Y-42076050D01*
X58100435Y-42266526D01*
X58052816Y-42361764D01*
X57957578Y-42457002D01*
X57814720Y-42504621D01*
X57576625Y-42504621D01*
X42029000Y-71958296D02*
X42076619Y-71863058D01*
X42076619Y-71720201D01*
X42029000Y-71577343D01*
X41933762Y-71482105D01*
X41838524Y-71434486D01*
X41648048Y-71386867D01*
X41505190Y-71386867D01*
X41314714Y-71434486D01*
X41219476Y-71482105D01*
X41124238Y-71577343D01*
X41076619Y-71720201D01*
X41076619Y-71815439D01*
X41124238Y-71958296D01*
X41171857Y-72005915D01*
X41505190Y-72005915D01*
X41505190Y-71815439D01*
X41076619Y-72434486D02*
X42076619Y-72434486D01*
X41076619Y-73005915D01*
X42076619Y-73005915D01*
X41076619Y-73482105D02*
X42076619Y-73482105D01*
X42076619Y-73720200D01*
X42029000Y-73863058D01*
X41933762Y-73958296D01*
X41838524Y-74005915D01*
X41648048Y-74053534D01*
X41505190Y-74053534D01*
X41314714Y-74005915D01*
X41219476Y-73958296D01*
X41124238Y-73863058D01*
X41076619Y-73720200D01*
X41076619Y-73482105D01*
X40898819Y-77757353D02*
X41375010Y-77424019D01*
X40898819Y-77185924D02*
X41898819Y-77185924D01*
X41898819Y-77566877D01*
X41851200Y-77662115D01*
X41803581Y-77709734D01*
X41708343Y-77757353D01*
X41565486Y-77757353D01*
X41470248Y-77709734D01*
X41422629Y-77662115D01*
X41375010Y-77566877D01*
X41375010Y-77185924D01*
X41422629Y-78519258D02*
X41422629Y-78185924D01*
X40898819Y-78185924D02*
X41898819Y-78185924D01*
X41898819Y-78662115D01*
D12*
X48818800Y-70231000D02*
X48818800Y-80391000D01*
X50088800Y-70231000D02*
X42468800Y-70231000D01*
X42468800Y-70231000D02*
X42468800Y-80391000D01*
X42468800Y-80391000D02*
X50088800Y-80391000D01*
X50088800Y-80391000D02*
X50088800Y-70231000D01*
D13*
X39592400Y-82652400D02*
X40292400Y-95452400D01*
X35592400Y-82652400D02*
X36292400Y-95452400D01*
X36592400Y-82652400D02*
X37292400Y-95452400D01*
X38592400Y-82652400D02*
X39292400Y-95452400D01*
X37592400Y-82652400D02*
X38292400Y-95452400D01*
X33592400Y-82652400D02*
X34292400Y-95452400D01*
X34592400Y-82652400D02*
X35292400Y-95452400D01*
X32592400Y-82652400D02*
X33292400Y-95452400D01*
X31592400Y-82652400D02*
X32292400Y-95452400D01*
X31592400Y-95452400D02*
X40792400Y-95452400D01*
X31592400Y-82652400D02*
X40792400Y-82652400D01*
X19592400Y-93852400D02*
X31592400Y-93852400D01*
X19592400Y-84252400D02*
X31592400Y-84252400D01*
X19592400Y-84252400D02*
X19592400Y-93852400D01*
X31592400Y-82652400D02*
X31592400Y-95452400D01*
X40792400Y-96452400D02*
X54492400Y-96452400D01*
X54492400Y-81652400D02*
X40792400Y-81652400D01*
X54492400Y-81652400D02*
X54492400Y-96452400D01*
X40792400Y-81652400D02*
X40792400Y-96452400D01*
D12*
X47286000Y-45000000D02*
G75*
G03X47286000Y-45000000I-2286000J0D01*
G01*
X137286000Y-45000000D02*
G75*
G03X137286000Y-45000000I-2286000J0D01*
G01*
X47286000Y-135000000D02*
G75*
G03X47286000Y-135000000I-2286000J0D01*
G01*
X137286000Y-135000000D02*
G75*
G03X137286000Y-135000000I-2286000J0D01*
G01*
X67858000Y-131004000D02*
X67858000Y-136124000D01*
X65238000Y-131004000D02*
X65238000Y-136124000D01*
X67858000Y-131004000D02*
X67544000Y-131004000D01*
X65552000Y-131004000D02*
X65238000Y-131004000D01*
X67858000Y-136124000D02*
X67544000Y-136124000D01*
X65552000Y-136124000D02*
X65238000Y-136124000D01*
X83225000Y-130369000D02*
X83225000Y-135489000D01*
X80605000Y-130369000D02*
X80605000Y-135489000D01*
X83225000Y-130369000D02*
X82911000Y-130369000D01*
X80919000Y-130369000D02*
X80605000Y-130369000D01*
X83225000Y-135489000D02*
X82911000Y-135489000D01*
X80919000Y-135489000D02*
X80605000Y-135489000D01*
X60924000Y-131537000D02*
X61254000Y-131537000D01*
X61254000Y-131537000D02*
X61254000Y-137957000D01*
X61254000Y-137957000D02*
X60924000Y-137957000D01*
X58964000Y-131537000D02*
X58634000Y-131537000D01*
X58634000Y-131537000D02*
X58634000Y-137957000D01*
X58634000Y-137957000D02*
X58964000Y-137957000D01*
X62393000Y-137957000D02*
X62063000Y-137957000D01*
X62063000Y-137957000D02*
X62063000Y-131537000D01*
X62063000Y-131537000D02*
X62393000Y-131537000D01*
X64353000Y-137957000D02*
X64683000Y-137957000D01*
X64683000Y-137957000D02*
X64683000Y-131537000D01*
X64683000Y-131537000D02*
X64353000Y-131537000D01*
X53296000Y-136934000D02*
X55416000Y-136934000D01*
X55416000Y-136934000D02*
X55416000Y-132814000D01*
X55416000Y-132814000D02*
X53296000Y-132814000D01*
X53296000Y-132814000D02*
X53296000Y-136934000D01*
X54356000Y-137704000D02*
X54356000Y-136934000D01*
X54356000Y-132044000D02*
X54356000Y-132814000D01*
X53296000Y-136274000D02*
X55416000Y-136274000D01*
D14*
X108458000Y-70002400D02*
X108458000Y-57556400D01*
X107950000Y-57556400D02*
X107950000Y-70002400D01*
X107442000Y-68986400D02*
G75*
G03X106426000Y-67970400I-1016000J0D01*
G01*
X106426000Y-70002400D02*
G75*
G03X107442000Y-68986400I0J1016000D01*
G01*
X106680000Y-59842400D02*
G75*
G03X107696000Y-58826400I0J1016000D01*
G01*
X107696000Y-58826400D02*
G75*
G03X106426000Y-57556400I-1270000J0D01*
G01*
X106426000Y-67970400D02*
G75*
G03X107442000Y-66954400I0J1016000D01*
G01*
X107442000Y-66954400D02*
G75*
G03X106426000Y-65938400I-1016000J0D01*
G01*
X107696000Y-64922400D02*
G75*
G03X106680000Y-63906400I-1016000J0D01*
G01*
X106680000Y-65938400D02*
G75*
G03X107696000Y-64922400I0J1016000D01*
G01*
X106680000Y-63906400D02*
G75*
G03X107696000Y-62890400I0J1016000D01*
G01*
X107696000Y-62890400D02*
G75*
G03X106680000Y-61874400I-1016000J0D01*
G01*
X106680000Y-61874400D02*
G75*
G03X107696000Y-60858400I0J1016000D01*
G01*
X107696000Y-60858400D02*
G75*
G03X106680000Y-59842400I-1016000J0D01*
G01*
X105410000Y-70002400D02*
X106426000Y-70002400D01*
X105410000Y-63906400D02*
X106426000Y-63906400D01*
X105410000Y-57556400D02*
X106426000Y-57556400D01*
X106476800Y-121666000D02*
X106476800Y-109220000D01*
X105968800Y-109220000D02*
X105968800Y-121666000D01*
X105460800Y-120650000D02*
G75*
G03X104444800Y-119634000I-1016000J0D01*
G01*
X104444800Y-121666000D02*
G75*
G03X105460800Y-120650000I0J1016000D01*
G01*
X104698800Y-111506000D02*
G75*
G03X105714800Y-110490000I0J1016000D01*
G01*
X105714800Y-110490000D02*
G75*
G03X104444800Y-109220000I-1270000J0D01*
G01*
X104444800Y-119634000D02*
G75*
G03X105460800Y-118618000I0J1016000D01*
G01*
X105460800Y-118618000D02*
G75*
G03X104444800Y-117602000I-1016000J0D01*
G01*
X105714800Y-116586000D02*
G75*
G03X104698800Y-115570000I-1016000J0D01*
G01*
X104698800Y-117602000D02*
G75*
G03X105714800Y-116586000I0J1016000D01*
G01*
X104698800Y-115570000D02*
G75*
G03X105714800Y-114554000I0J1016000D01*
G01*
X105714800Y-114554000D02*
G75*
G03X104698800Y-113538000I-1016000J0D01*
G01*
X104698800Y-113538000D02*
G75*
G03X105714800Y-112522000I0J1016000D01*
G01*
X105714800Y-112522000D02*
G75*
G03X104698800Y-111506000I-1016000J0D01*
G01*
X103428800Y-121666000D02*
X104444800Y-121666000D01*
X103428800Y-115570000D02*
X104444800Y-115570000D01*
X103428800Y-109220000D02*
X104444800Y-109220000D01*
X133477000Y-74422000D02*
X133477000Y-61976000D01*
X132969000Y-61976000D02*
X132969000Y-74422000D01*
X132461000Y-73406000D02*
G75*
G03X131445000Y-72390000I-1016000J0D01*
G01*
X131445000Y-74422000D02*
G75*
G03X132461000Y-73406000I0J1016000D01*
G01*
X131699000Y-64262000D02*
G75*
G03X132715000Y-63246000I0J1016000D01*
G01*
X132715000Y-63246000D02*
G75*
G03X131445000Y-61976000I-1270000J0D01*
G01*
X131445000Y-72390000D02*
G75*
G03X132461000Y-71374000I0J1016000D01*
G01*
X132461000Y-71374000D02*
G75*
G03X131445000Y-70358000I-1016000J0D01*
G01*
X132715000Y-69342000D02*
G75*
G03X131699000Y-68326000I-1016000J0D01*
G01*
X131699000Y-70358000D02*
G75*
G03X132715000Y-69342000I0J1016000D01*
G01*
X131699000Y-68326000D02*
G75*
G03X132715000Y-67310000I0J1016000D01*
G01*
X132715000Y-67310000D02*
G75*
G03X131699000Y-66294000I-1016000J0D01*
G01*
X131699000Y-66294000D02*
G75*
G03X132715000Y-65278000I0J1016000D01*
G01*
X132715000Y-65278000D02*
G75*
G03X131699000Y-64262000I-1016000J0D01*
G01*
X130429000Y-74422000D02*
X131445000Y-74422000D01*
X130429000Y-68326000D02*
X131445000Y-68326000D01*
X130429000Y-61976000D02*
X131445000Y-61976000D01*
X128143000Y-107696000D02*
X128143000Y-120142000D01*
X128651000Y-120142000D02*
X128651000Y-107696000D01*
X129159000Y-108712000D02*
G75*
G03X130175000Y-109728000I1016000J0D01*
G01*
X130175000Y-107696000D02*
G75*
G03X129159000Y-108712000I0J-1016000D01*
G01*
X129921000Y-117856000D02*
G75*
G03X128905000Y-118872000I0J-1016000D01*
G01*
X128905000Y-118872000D02*
G75*
G03X130175000Y-120142000I1270000J0D01*
G01*
X130175000Y-109728000D02*
G75*
G03X129159000Y-110744000I0J-1016000D01*
G01*
X129159000Y-110744000D02*
G75*
G03X130175000Y-111760000I1016000J0D01*
G01*
X128905000Y-112776000D02*
G75*
G03X129921000Y-113792000I1016000J0D01*
G01*
X129921000Y-111760000D02*
G75*
G03X128905000Y-112776000I0J-1016000D01*
G01*
X129921000Y-113792000D02*
G75*
G03X128905000Y-114808000I0J-1016000D01*
G01*
X128905000Y-114808000D02*
G75*
G03X129921000Y-115824000I1016000J0D01*
G01*
X129921000Y-115824000D02*
G75*
G03X128905000Y-116840000I0J-1016000D01*
G01*
X128905000Y-116840000D02*
G75*
G03X129921000Y-117856000I1016000J0D01*
G01*
X131191000Y-107696000D02*
X130175000Y-107696000D01*
X131191000Y-113792000D02*
X130175000Y-113792000D01*
X131191000Y-120142000D02*
X130175000Y-120142000D01*
X87503000Y-94869000D02*
X87503000Y-82423000D01*
X86995000Y-82423000D02*
X86995000Y-94869000D01*
X86487000Y-93853000D02*
G75*
G03X85471000Y-92837000I-1016000J0D01*
G01*
X85471000Y-94869000D02*
G75*
G03X86487000Y-93853000I0J1016000D01*
G01*
X85725000Y-84709000D02*
G75*
G03X86741000Y-83693000I0J1016000D01*
G01*
X86741000Y-83693000D02*
G75*
G03X85471000Y-82423000I-1270000J0D01*
G01*
X85471000Y-92837000D02*
G75*
G03X86487000Y-91821000I0J1016000D01*
G01*
X86487000Y-91821000D02*
G75*
G03X85471000Y-90805000I-1016000J0D01*
G01*
X86741000Y-89789000D02*
G75*
G03X85725000Y-88773000I-1016000J0D01*
G01*
X85725000Y-90805000D02*
G75*
G03X86741000Y-89789000I0J1016000D01*
G01*
X85725000Y-88773000D02*
G75*
G03X86741000Y-87757000I0J1016000D01*
G01*
X86741000Y-87757000D02*
G75*
G03X85725000Y-86741000I-1016000J0D01*
G01*
X85725000Y-86741000D02*
G75*
G03X86741000Y-85725000I0J1016000D01*
G01*
X86741000Y-85725000D02*
G75*
G03X85725000Y-84709000I-1016000J0D01*
G01*
X84455000Y-94869000D02*
X85471000Y-94869000D01*
X84455000Y-88773000D02*
X85471000Y-88773000D01*
X84455000Y-82423000D02*
X85471000Y-82423000D01*
X66827400Y-94945200D02*
X66827400Y-82499200D01*
X66319400Y-82499200D02*
X66319400Y-94945200D01*
X65811400Y-93929200D02*
G75*
G03X64795400Y-92913200I-1016000J0D01*
G01*
X64795400Y-94945200D02*
G75*
G03X65811400Y-93929200I0J1016000D01*
G01*
X65049400Y-84785200D02*
G75*
G03X66065400Y-83769200I0J1016000D01*
G01*
X66065400Y-83769200D02*
G75*
G03X64795400Y-82499200I-1270000J0D01*
G01*
X64795400Y-92913200D02*
G75*
G03X65811400Y-91897200I0J1016000D01*
G01*
X65811400Y-91897200D02*
G75*
G03X64795400Y-90881200I-1016000J0D01*
G01*
X66065400Y-89865200D02*
G75*
G03X65049400Y-88849200I-1016000J0D01*
G01*
X65049400Y-90881200D02*
G75*
G03X66065400Y-89865200I0J1016000D01*
G01*
X65049400Y-88849200D02*
G75*
G03X66065400Y-87833200I0J1016000D01*
G01*
X66065400Y-87833200D02*
G75*
G03X65049400Y-86817200I-1016000J0D01*
G01*
X65049400Y-86817200D02*
G75*
G03X66065400Y-85801200I0J1016000D01*
G01*
X66065400Y-85801200D02*
G75*
G03X65049400Y-84785200I-1016000J0D01*
G01*
X63779400Y-94945200D02*
X64795400Y-94945200D01*
X63779400Y-88849200D02*
X64795400Y-88849200D01*
X63779400Y-82499200D02*
X64795400Y-82499200D01*
D13*
X128828000Y-39694000D02*
X116028000Y-40394000D01*
X128828000Y-35694000D02*
X116028000Y-36394000D01*
X128828000Y-36694000D02*
X116028000Y-37394000D01*
X128828000Y-38694000D02*
X116028000Y-39394000D01*
X128828000Y-37694000D02*
X116028000Y-38394000D01*
X128828000Y-33694000D02*
X116028000Y-34394000D01*
X128828000Y-34694000D02*
X116028000Y-35394000D01*
X128828000Y-32694000D02*
X116028000Y-33394000D01*
X128828000Y-31694000D02*
X116028000Y-32394000D01*
X116028000Y-31694000D02*
X116028000Y-40894000D01*
X128828000Y-31694000D02*
X128828000Y-40894000D01*
X117628000Y-19694000D02*
X117628000Y-31694000D01*
X127228000Y-19694000D02*
X127228000Y-31694000D01*
X127228000Y-19694000D02*
X117628000Y-19694000D01*
X128828000Y-31694000D02*
X116028000Y-31694000D01*
X115028000Y-40894000D02*
X115028000Y-54594000D01*
X129828000Y-54594000D02*
X129828000Y-40894000D01*
X129828000Y-54594000D02*
X115028000Y-54594000D01*
X129828000Y-40894000D02*
X115028000Y-40894000D01*
X39922600Y-52553400D02*
X40622600Y-65353400D01*
X35922600Y-52553400D02*
X36622600Y-65353400D01*
X36922600Y-52553400D02*
X37622600Y-65353400D01*
X38922600Y-52553400D02*
X39622600Y-65353400D01*
X37922600Y-52553400D02*
X38622600Y-65353400D01*
X33922600Y-52553400D02*
X34622600Y-65353400D01*
X34922600Y-52553400D02*
X35622600Y-65353400D01*
X32922600Y-52553400D02*
X33622600Y-65353400D01*
X31922600Y-52553400D02*
X32622600Y-65353400D01*
X31922600Y-65353400D02*
X41122600Y-65353400D01*
X31922600Y-52553400D02*
X41122600Y-52553400D01*
X19922600Y-63753400D02*
X31922600Y-63753400D01*
X19922600Y-54153400D02*
X31922600Y-54153400D01*
X19922600Y-54153400D02*
X19922600Y-63753400D01*
X31922600Y-52553400D02*
X31922600Y-65353400D01*
X41122600Y-66353400D02*
X54822600Y-66353400D01*
X54822600Y-51553400D02*
X41122600Y-51553400D01*
X54822600Y-51553400D02*
X54822600Y-66353400D01*
X41122600Y-51553400D02*
X41122600Y-66353400D01*
X40290900Y-113615000D02*
X40990900Y-126415000D01*
X36290900Y-113615000D02*
X36990900Y-126415000D01*
X37290900Y-113615000D02*
X37990900Y-126415000D01*
X39290900Y-113615000D02*
X39990900Y-126415000D01*
X38290900Y-113615000D02*
X38990900Y-126415000D01*
X34290900Y-113615000D02*
X34990900Y-126415000D01*
X35290900Y-113615000D02*
X35990900Y-126415000D01*
X33290900Y-113615000D02*
X33990900Y-126415000D01*
X32290900Y-113615000D02*
X32990900Y-126415000D01*
X32290900Y-126415000D02*
X41490900Y-126415000D01*
X32290900Y-113615000D02*
X41490900Y-113615000D01*
X20290900Y-124815000D02*
X32290900Y-124815000D01*
X20290900Y-115215000D02*
X32290900Y-115215000D01*
X20290900Y-115215000D02*
X20290900Y-124815000D01*
X32290900Y-113615000D02*
X32290900Y-126415000D01*
X41490900Y-127415000D02*
X55190900Y-127415000D01*
X55190900Y-112615000D02*
X41490900Y-112615000D01*
X55190900Y-112615000D02*
X55190900Y-127415000D01*
X41490900Y-112615000D02*
X41490900Y-127415000D01*
X115393000Y-140519000D02*
X128193000Y-139819000D01*
X115393000Y-144519000D02*
X128193000Y-143819000D01*
X115393000Y-143519000D02*
X128193000Y-142819000D01*
X115393000Y-141519000D02*
X128193000Y-140819000D01*
X115393000Y-142519000D02*
X128193000Y-141819000D01*
X115393000Y-146519000D02*
X128193000Y-145819000D01*
X115393000Y-145519000D02*
X128193000Y-144819000D01*
X115393000Y-147519000D02*
X128193000Y-146819000D01*
X115393000Y-148519000D02*
X128193000Y-147819000D01*
X128193000Y-148519000D02*
X128193000Y-139319000D01*
X115393000Y-148519000D02*
X115393000Y-139319000D01*
X126593000Y-160519000D02*
X126593000Y-148519000D01*
X116993000Y-160519000D02*
X116993000Y-148519000D01*
X116993000Y-160519000D02*
X126593000Y-160519000D01*
X115393000Y-148519000D02*
X128193000Y-148519000D01*
X129193000Y-139319000D02*
X129193000Y-125619000D01*
X114393000Y-125619000D02*
X114393000Y-139319000D01*
X114393000Y-125619000D02*
X129193000Y-125619000D01*
X114393000Y-139319000D02*
X129193000Y-139319000D01*
D12*
X114300000Y-49276000D02*
X104140000Y-49276000D01*
X114300000Y-50546000D02*
X114300000Y-42926000D01*
X114300000Y-42926000D02*
X104140000Y-42926000D01*
X104140000Y-42926000D02*
X104140000Y-50546000D01*
X104140000Y-50546000D02*
X114300000Y-50546000D01*
X48874680Y-44135040D02*
X59034680Y-44135040D01*
X48874680Y-42865040D02*
X48874680Y-50485040D01*
X48874680Y-50485040D02*
X59034680Y-50485040D01*
X59034680Y-50485040D02*
X59034680Y-42865040D01*
X59034680Y-42865040D02*
X48874680Y-42865040D01*
X50820320Y-101681280D02*
X50820320Y-111841280D01*
X52090320Y-101681280D02*
X44470320Y-101681280D01*
X44470320Y-101681280D02*
X44470320Y-111841280D01*
X44470320Y-111841280D02*
X52090320Y-111841280D01*
X52090320Y-111841280D02*
X52090320Y-101681280D01*
X113030000Y-136271000D02*
X102870000Y-136271000D01*
X113030000Y-137541000D02*
X113030000Y-129921000D01*
X113030000Y-129921000D02*
X102870000Y-129921000D01*
X102870000Y-129921000D02*
X102870000Y-137541000D01*
X102870000Y-137541000D02*
X113030000Y-137541000D01*
X84034000Y-47304000D02*
X84034000Y-42184000D01*
X86654000Y-47304000D02*
X86654000Y-42184000D01*
X84034000Y-47304000D02*
X84348000Y-47304000D01*
X86340000Y-47304000D02*
X86654000Y-47304000D01*
X84034000Y-42184000D02*
X84348000Y-42184000D01*
X86340000Y-42184000D02*
X86654000Y-42184000D01*
X77029000Y-48855000D02*
X82149000Y-48855000D01*
X77029000Y-51475000D02*
X82149000Y-51475000D01*
X77029000Y-48855000D02*
X77029000Y-49169000D01*
X77029000Y-51161000D02*
X77029000Y-51475000D01*
X82149000Y-48855000D02*
X82149000Y-49169000D01*
X82149000Y-51161000D02*
X82149000Y-51475000D01*
X84014000Y-53908000D02*
X86674000Y-53908000D01*
X84014000Y-51308000D02*
X84014000Y-53908000D01*
X86674000Y-51308000D02*
X86674000Y-53908000D01*
X84014000Y-51308000D02*
X86674000Y-51308000D01*
X84014000Y-50038000D02*
X84014000Y-48708000D01*
X84014000Y-48708000D02*
X85344000Y-48708000D01*
X81848000Y-44510000D02*
X81848000Y-41850000D01*
X79248000Y-44510000D02*
X81848000Y-44510000D01*
X79248000Y-41850000D02*
X81848000Y-41850000D01*
X79248000Y-44510000D02*
X79248000Y-41850000D01*
X77978000Y-44510000D02*
X76648000Y-44510000D01*
X76648000Y-44510000D02*
X76648000Y-43180000D01*
X89626000Y-43526000D02*
X89956000Y-43526000D01*
X89956000Y-43526000D02*
X89956000Y-49946000D01*
X89956000Y-49946000D02*
X89626000Y-49946000D01*
X87666000Y-43526000D02*
X87336000Y-43526000D01*
X87336000Y-43526000D02*
X87336000Y-49946000D01*
X87336000Y-49946000D02*
X87666000Y-49946000D01*
X70013000Y-49946000D02*
X69683000Y-49946000D01*
X69683000Y-49946000D02*
X69683000Y-43526000D01*
X69683000Y-43526000D02*
X70013000Y-43526000D01*
X71973000Y-49946000D02*
X72303000Y-49946000D01*
X72303000Y-49946000D02*
X72303000Y-43526000D01*
X72303000Y-43526000D02*
X71973000Y-43526000D01*
X75148000Y-43526000D02*
X75478000Y-43526000D01*
X75478000Y-43526000D02*
X75478000Y-49946000D01*
X75478000Y-49946000D02*
X75148000Y-49946000D01*
X73188000Y-43526000D02*
X72858000Y-43526000D01*
X72858000Y-43526000D02*
X72858000Y-49946000D01*
X72858000Y-49946000D02*
X73188000Y-49946000D01*
X91222000Y-49946000D02*
X90892000Y-49946000D01*
X90892000Y-49946000D02*
X90892000Y-43526000D01*
X90892000Y-43526000D02*
X91222000Y-43526000D01*
X93182000Y-49946000D02*
X93512000Y-49946000D01*
X93512000Y-49946000D02*
X93512000Y-43526000D01*
X93512000Y-43526000D02*
X93182000Y-43526000D01*
X96746000Y-44660000D02*
X96746000Y-46780000D01*
X96746000Y-46780000D02*
X100866000Y-46780000D01*
X100866000Y-46780000D02*
X100866000Y-44660000D01*
X100866000Y-44660000D02*
X96746000Y-44660000D01*
X95976000Y-45720000D02*
X96746000Y-45720000D01*
X101636000Y-45720000D02*
X100866000Y-45720000D01*
X97406000Y-44660000D02*
X97406000Y-46780000D01*
X66449000Y-47415000D02*
X66449000Y-45295000D01*
X66449000Y-45295000D02*
X62329000Y-45295000D01*
X62329000Y-45295000D02*
X62329000Y-47415000D01*
X62329000Y-47415000D02*
X66449000Y-47415000D01*
X67219000Y-46355000D02*
X66449000Y-46355000D01*
X61559000Y-46355000D02*
X62329000Y-46355000D01*
X65789000Y-47415000D02*
X65789000Y-45295000D01*
X96746000Y-41866000D02*
X96746000Y-43986000D01*
X96746000Y-43986000D02*
X100866000Y-43986000D01*
X100866000Y-43986000D02*
X100866000Y-41866000D01*
X100866000Y-41866000D02*
X96746000Y-41866000D01*
X95976000Y-42926000D02*
X96746000Y-42926000D01*
X101636000Y-42926000D02*
X100866000Y-42926000D01*
X97406000Y-41866000D02*
X97406000Y-43986000D01*
X66449000Y-44621000D02*
X66449000Y-42501000D01*
X66449000Y-42501000D02*
X62329000Y-42501000D01*
X62329000Y-42501000D02*
X62329000Y-44621000D01*
X62329000Y-44621000D02*
X66449000Y-44621000D01*
X67219000Y-43561000D02*
X66449000Y-43561000D01*
X61559000Y-43561000D02*
X62329000Y-43561000D01*
X65789000Y-44621000D02*
X65789000Y-42501000D01*
X93190000Y-132925000D02*
X93190000Y-135045000D01*
X93190000Y-135045000D02*
X97310000Y-135045000D01*
X97310000Y-135045000D02*
X97310000Y-132925000D01*
X97310000Y-132925000D02*
X93190000Y-132925000D01*
X92420000Y-133985000D02*
X93190000Y-133985000D01*
X98080000Y-133985000D02*
X97310000Y-133985000D01*
X93850000Y-132925000D02*
X93850000Y-135045000D01*
X55836000Y-136934000D02*
X57956000Y-136934000D01*
X57956000Y-136934000D02*
X57956000Y-132814000D01*
X57956000Y-132814000D02*
X55836000Y-132814000D01*
X55836000Y-132814000D02*
X55836000Y-136934000D01*
X56896000Y-137704000D02*
X56896000Y-136934000D01*
X56896000Y-132044000D02*
X56896000Y-132814000D01*
X55836000Y-136274000D02*
X57956000Y-136274000D01*
X93317000Y-135719000D02*
X93317000Y-137839000D01*
X93317000Y-137839000D02*
X97437000Y-137839000D01*
X97437000Y-137839000D02*
X97437000Y-135719000D01*
X97437000Y-135719000D02*
X93317000Y-135719000D01*
X92547000Y-136779000D02*
X93317000Y-136779000D01*
X98207000Y-136779000D02*
X97437000Y-136779000D01*
X93977000Y-135719000D02*
X93977000Y-137839000D01*
X49724000Y-136077000D02*
X52384000Y-136077000D01*
X49724000Y-133477000D02*
X49724000Y-136077000D01*
X52384000Y-133477000D02*
X52384000Y-136077000D01*
X49724000Y-133477000D02*
X52384000Y-133477000D01*
X49724000Y-132207000D02*
X49724000Y-130877000D01*
X49724000Y-130877000D02*
X51054000Y-130877000D01*
X71307000Y-130369000D02*
X68647000Y-130369000D01*
X71307000Y-132969000D02*
X71307000Y-130369000D01*
X68647000Y-132969000D02*
X68647000Y-130369000D01*
X71307000Y-132969000D02*
X68647000Y-132969000D01*
X71307000Y-134239000D02*
X71307000Y-135569000D01*
X71307000Y-135569000D02*
X69977000Y-135569000D01*
X79816000Y-129861000D02*
X77156000Y-129861000D01*
X79816000Y-132461000D02*
X79816000Y-129861000D01*
X77156000Y-132461000D02*
X77156000Y-129861000D01*
X79816000Y-132461000D02*
X77156000Y-132461000D01*
X79816000Y-133731000D02*
X79816000Y-135061000D01*
X79816000Y-135061000D02*
X78486000Y-135061000D01*
X89118000Y-130902000D02*
X89448000Y-130902000D01*
X89448000Y-130902000D02*
X89448000Y-137322000D01*
X89448000Y-137322000D02*
X89118000Y-137322000D01*
X87158000Y-130902000D02*
X86828000Y-130902000D01*
X86828000Y-130902000D02*
X86828000Y-137322000D01*
X86828000Y-137322000D02*
X87158000Y-137322000D01*
X84110000Y-137322000D02*
X83780000Y-137322000D01*
X83780000Y-137322000D02*
X83780000Y-130902000D01*
X83780000Y-130902000D02*
X84110000Y-130902000D01*
X86070000Y-137322000D02*
X86400000Y-137322000D01*
X86400000Y-137322000D02*
X86400000Y-130902000D01*
X86400000Y-130902000D02*
X86070000Y-130902000D01*
X59985600Y-48250800D02*
X59985600Y-50910800D01*
X62585600Y-48250800D02*
X59985600Y-48250800D01*
X62585600Y-50910800D02*
X59985600Y-50910800D01*
X62585600Y-48250800D02*
X62585600Y-50910800D01*
X63855600Y-48250800D02*
X65185600Y-48250800D01*
X65185600Y-48250800D02*
X65185600Y-49580800D01*
X95423500Y-110979100D02*
X95903500Y-110979100D01*
X95903500Y-110979100D02*
X95903500Y-120999100D01*
X95903500Y-120999100D02*
X95423500Y-120999100D01*
X92663500Y-110979100D02*
X92183500Y-110979100D01*
X92183500Y-110979100D02*
X92183500Y-120999100D01*
X92183500Y-120999100D02*
X92663500Y-120999100D01*
X91575400Y-111029900D02*
X92055400Y-111029900D01*
X92055400Y-111029900D02*
X92055400Y-121049900D01*
X92055400Y-121049900D02*
X91575400Y-121049900D01*
X88815400Y-111029900D02*
X88335400Y-111029900D01*
X88335400Y-111029900D02*
X88335400Y-121049900D01*
X88335400Y-121049900D02*
X88815400Y-121049900D01*
X87663800Y-111029900D02*
X88143800Y-111029900D01*
X88143800Y-111029900D02*
X88143800Y-121049900D01*
X88143800Y-121049900D02*
X87663800Y-121049900D01*
X84903800Y-111029900D02*
X84423800Y-111029900D01*
X84423800Y-111029900D02*
X84423800Y-121049900D01*
X84423800Y-121049900D02*
X84903800Y-121049900D01*
X83803000Y-111029900D02*
X84283000Y-111029900D01*
X84283000Y-111029900D02*
X84283000Y-121049900D01*
X84283000Y-121049900D02*
X83803000Y-121049900D01*
X81043000Y-111029900D02*
X80563000Y-111029900D01*
X80563000Y-111029900D02*
X80563000Y-121049900D01*
X80563000Y-121049900D02*
X81043000Y-121049900D01*
X58936400Y-111144200D02*
X59416400Y-111144200D01*
X59416400Y-111144200D02*
X59416400Y-121164200D01*
X59416400Y-121164200D02*
X58936400Y-121164200D01*
X56176400Y-111144200D02*
X55696400Y-111144200D01*
X55696400Y-111144200D02*
X55696400Y-121164200D01*
X55696400Y-121164200D02*
X56176400Y-121164200D01*
X79612000Y-111093400D02*
X80092000Y-111093400D01*
X80092000Y-111093400D02*
X80092000Y-121113400D01*
X80092000Y-121113400D02*
X79612000Y-121113400D01*
X76852000Y-111093400D02*
X76372000Y-111093400D01*
X76372000Y-111093400D02*
X76372000Y-121113400D01*
X76372000Y-121113400D02*
X76852000Y-121113400D01*
X75814700Y-111195000D02*
X76294700Y-111195000D01*
X76294700Y-111195000D02*
X76294700Y-121215000D01*
X76294700Y-121215000D02*
X75814700Y-121215000D01*
X73054700Y-111195000D02*
X72574700Y-111195000D01*
X72574700Y-111195000D02*
X72574700Y-121215000D01*
X72574700Y-121215000D02*
X73054700Y-121215000D01*
X71623700Y-111258500D02*
X72103700Y-111258500D01*
X72103700Y-111258500D02*
X72103700Y-121278500D01*
X72103700Y-121278500D02*
X71623700Y-121278500D01*
X68863700Y-111258500D02*
X68383700Y-111258500D01*
X68383700Y-111258500D02*
X68383700Y-121278500D01*
X68383700Y-121278500D02*
X68863700Y-121278500D01*
X63127400Y-111195000D02*
X63607400Y-111195000D01*
X63607400Y-111195000D02*
X63607400Y-121215000D01*
X63607400Y-121215000D02*
X63127400Y-121215000D01*
X60367400Y-111195000D02*
X59887400Y-111195000D01*
X59887400Y-111195000D02*
X59887400Y-121215000D01*
X59887400Y-121215000D02*
X60367400Y-121215000D01*
X67318400Y-111258500D02*
X67798400Y-111258500D01*
X67798400Y-111258500D02*
X67798400Y-121278500D01*
X67798400Y-121278500D02*
X67318400Y-121278500D01*
X64558400Y-111258500D02*
X64078400Y-111258500D01*
X64078400Y-111258500D02*
X64078400Y-121278500D01*
X64078400Y-121278500D02*
X64558400Y-121278500D01*
X97214200Y-83539480D02*
X97694200Y-83539480D01*
X97694200Y-83539480D02*
X97694200Y-93559480D01*
X97694200Y-93559480D02*
X97214200Y-93559480D01*
X94454200Y-83539480D02*
X93974200Y-83539480D01*
X93974200Y-83539480D02*
X93974200Y-93559480D01*
X93974200Y-93559480D02*
X94454200Y-93559480D01*
X101293440Y-83595360D02*
X101773440Y-83595360D01*
X101773440Y-83595360D02*
X101773440Y-93615360D01*
X101773440Y-93615360D02*
X101293440Y-93615360D01*
X98533440Y-83595360D02*
X98053440Y-83595360D01*
X98053440Y-83595360D02*
X98053440Y-93615360D01*
X98053440Y-93615360D02*
X98533440Y-93615360D01*
X105372680Y-83539480D02*
X105852680Y-83539480D01*
X105852680Y-83539480D02*
X105852680Y-93559480D01*
X105852680Y-93559480D02*
X105372680Y-93559480D01*
X102612680Y-83539480D02*
X102132680Y-83539480D01*
X102132680Y-83539480D02*
X102132680Y-93559480D01*
X102132680Y-93559480D02*
X102612680Y-93559480D01*
X109507800Y-83483600D02*
X109987800Y-83483600D01*
X109987800Y-83483600D02*
X109987800Y-93503600D01*
X109987800Y-93503600D02*
X109507800Y-93503600D01*
X106747800Y-83483600D02*
X106267800Y-83483600D01*
X106267800Y-83483600D02*
X106267800Y-93503600D01*
X106267800Y-93503600D02*
X106747800Y-93503600D01*
X113660700Y-83394700D02*
X114140700Y-83394700D01*
X114140700Y-83394700D02*
X114140700Y-93414700D01*
X114140700Y-93414700D02*
X113660700Y-93414700D01*
X110900700Y-83394700D02*
X110420700Y-83394700D01*
X110420700Y-83394700D02*
X110420700Y-93414700D01*
X110420700Y-93414700D02*
X110900700Y-93414700D01*
X117927900Y-83394700D02*
X118407900Y-83394700D01*
X118407900Y-83394700D02*
X118407900Y-93414700D01*
X118407900Y-93414700D02*
X117927900Y-93414700D01*
X115167900Y-83394700D02*
X114687900Y-83394700D01*
X114687900Y-83394700D02*
X114687900Y-93414700D01*
X114687900Y-93414700D02*
X115167900Y-93414700D01*
X121839500Y-83483600D02*
X122319500Y-83483600D01*
X122319500Y-83483600D02*
X122319500Y-93503600D01*
X122319500Y-93503600D02*
X121839500Y-93503600D01*
X119079500Y-83483600D02*
X118599500Y-83483600D01*
X118599500Y-83483600D02*
X118599500Y-93503600D01*
X118599500Y-93503600D02*
X119079500Y-93503600D01*
X125840000Y-83394700D02*
X126320000Y-83394700D01*
X126320000Y-83394700D02*
X126320000Y-93414700D01*
X126320000Y-93414700D02*
X125840000Y-93414700D01*
X123080000Y-83394700D02*
X122600000Y-83394700D01*
X122600000Y-83394700D02*
X122600000Y-93414700D01*
X122600000Y-93414700D02*
X123080000Y-93414700D01*
X129840500Y-83394700D02*
X130320500Y-83394700D01*
X130320500Y-83394700D02*
X130320500Y-93414700D01*
X130320500Y-93414700D02*
X129840500Y-93414700D01*
X127080500Y-83394700D02*
X126600500Y-83394700D01*
X126600500Y-83394700D02*
X126600500Y-93414700D01*
X126600500Y-93414700D02*
X127080500Y-93414700D01*
X133841000Y-83394700D02*
X134321000Y-83394700D01*
X134321000Y-83394700D02*
X134321000Y-93414700D01*
X134321000Y-93414700D02*
X133841000Y-93414700D01*
X131081000Y-83394700D02*
X130601000Y-83394700D01*
X130601000Y-83394700D02*
X130601000Y-93414700D01*
X130601000Y-93414700D02*
X131081000Y-93414700D01*
X97303100Y-59125000D02*
X97783100Y-59125000D01*
X97783100Y-59125000D02*
X97783100Y-69145000D01*
X97783100Y-69145000D02*
X97303100Y-69145000D01*
X94543100Y-59125000D02*
X94063100Y-59125000D01*
X94063100Y-59125000D02*
X94063100Y-69145000D01*
X94063100Y-69145000D02*
X94543100Y-69145000D01*
X92934300Y-59099600D02*
X93414300Y-59099600D01*
X93414300Y-59099600D02*
X93414300Y-69119600D01*
X93414300Y-69119600D02*
X92934300Y-69119600D01*
X90174300Y-59099600D02*
X89694300Y-59099600D01*
X89694300Y-59099600D02*
X89694300Y-69119600D01*
X89694300Y-69119600D02*
X90174300Y-69119600D01*
X88933800Y-59175800D02*
X89413800Y-59175800D01*
X89413800Y-59175800D02*
X89413800Y-69195800D01*
X89413800Y-69195800D02*
X88933800Y-69195800D01*
X86173800Y-59175800D02*
X85693800Y-59175800D01*
X85693800Y-59175800D02*
X85693800Y-69195800D01*
X85693800Y-69195800D02*
X86173800Y-69195800D01*
X84780900Y-59213900D02*
X85260900Y-59213900D01*
X85260900Y-59213900D02*
X85260900Y-69233900D01*
X85260900Y-69233900D02*
X84780900Y-69233900D01*
X82020900Y-59213900D02*
X81540900Y-59213900D01*
X81540900Y-59213900D02*
X81540900Y-69233900D01*
X81540900Y-69233900D02*
X82020900Y-69233900D01*
X80678800Y-59125000D02*
X81158800Y-59125000D01*
X81158800Y-59125000D02*
X81158800Y-69145000D01*
X81158800Y-69145000D02*
X80678800Y-69145000D01*
X77918800Y-59125000D02*
X77438800Y-59125000D01*
X77438800Y-59125000D02*
X77438800Y-69145000D01*
X77438800Y-69145000D02*
X77918800Y-69145000D01*
X76500500Y-59125000D02*
X76980500Y-59125000D01*
X76980500Y-59125000D02*
X76980500Y-69145000D01*
X76980500Y-69145000D02*
X76500500Y-69145000D01*
X73740500Y-59125000D02*
X73260500Y-59125000D01*
X73260500Y-59125000D02*
X73260500Y-69145000D01*
X73260500Y-69145000D02*
X73740500Y-69145000D01*
X72588900Y-59125000D02*
X73068900Y-59125000D01*
X73068900Y-59125000D02*
X73068900Y-69145000D01*
X73068900Y-69145000D02*
X72588900Y-69145000D01*
X69828900Y-59125000D02*
X69348900Y-59125000D01*
X69348900Y-59125000D02*
X69348900Y-69145000D01*
X69348900Y-69145000D02*
X69828900Y-69145000D01*
X68588400Y-59125000D02*
X69068400Y-59125000D01*
X69068400Y-59125000D02*
X69068400Y-69145000D01*
X69068400Y-69145000D02*
X68588400Y-69145000D01*
X65828400Y-59125000D02*
X65348400Y-59125000D01*
X65348400Y-59125000D02*
X65348400Y-69145000D01*
X65348400Y-69145000D02*
X65828400Y-69145000D01*
X64499000Y-59125000D02*
X64979000Y-59125000D01*
X64979000Y-59125000D02*
X64979000Y-69145000D01*
X64979000Y-69145000D02*
X64499000Y-69145000D01*
X61739000Y-59125000D02*
X61259000Y-59125000D01*
X61259000Y-59125000D02*
X61259000Y-69145000D01*
X61259000Y-69145000D02*
X61739000Y-69145000D01*
X60409600Y-59213900D02*
X60889600Y-59213900D01*
X60889600Y-59213900D02*
X60889600Y-69233900D01*
X60889600Y-69233900D02*
X60409600Y-69233900D01*
X57649600Y-59213900D02*
X57169600Y-59213900D01*
X57169600Y-59213900D02*
X57169600Y-69233900D01*
X57169600Y-69233900D02*
X57649600Y-69233900D01*
X134994960Y-53965800D02*
X132334960Y-53965800D01*
X134994960Y-56565800D02*
X134994960Y-53965800D01*
X132334960Y-56565800D02*
X132334960Y-53965800D01*
X134994960Y-56565800D02*
X132334960Y-56565800D01*
X134994960Y-57835800D02*
X134994960Y-59165800D01*
X134994960Y-59165800D02*
X133664960Y-59165800D01*
X101218040Y-50780640D02*
X98558040Y-50780640D01*
X101218040Y-53380640D02*
X101218040Y-50780640D01*
X98558040Y-53380640D02*
X98558040Y-50780640D01*
X101218040Y-53380640D02*
X98558040Y-53380640D01*
X101218040Y-54650640D02*
X101218040Y-55980640D01*
X101218040Y-55980640D02*
X99888040Y-55980640D01*
X98238000Y-128330000D02*
X100898000Y-128330000D01*
X98238000Y-125730000D02*
X98238000Y-128330000D01*
X100898000Y-125730000D02*
X100898000Y-128330000D01*
X98238000Y-125730000D02*
X100898000Y-125730000D01*
X98238000Y-124460000D02*
X98238000Y-123130000D01*
X98238000Y-123130000D02*
X99568000Y-123130000D01*
X139252000Y-114748000D02*
X136592000Y-114748000D01*
X139252000Y-117348000D02*
X139252000Y-114748000D01*
X136592000Y-117348000D02*
X136592000Y-114748000D01*
X139252000Y-117348000D02*
X136592000Y-117348000D01*
X139252000Y-118618000D02*
X139252000Y-119948000D01*
X139252000Y-119948000D02*
X137922000Y-119948000D01*
X130750000Y-100544000D02*
X135870000Y-100544000D01*
X130750000Y-103164000D02*
X135870000Y-103164000D01*
X130750000Y-100544000D02*
X130750000Y-100858000D01*
X130750000Y-102850000D02*
X130750000Y-103164000D01*
X135870000Y-100544000D02*
X135870000Y-100858000D01*
X135870000Y-102850000D02*
X135870000Y-103164000D01*
X130362000Y-79288000D02*
X125242000Y-79288000D01*
X130362000Y-76668000D02*
X125242000Y-76668000D01*
X130362000Y-79288000D02*
X130362000Y-78974000D01*
X130362000Y-76982000D02*
X130362000Y-76668000D01*
X125242000Y-79288000D02*
X125242000Y-78974000D01*
X125242000Y-76982000D02*
X125242000Y-76668000D01*
X54824000Y-82610000D02*
X54824000Y-77490000D01*
X57444000Y-82610000D02*
X57444000Y-77490000D01*
X54824000Y-82610000D02*
X55138000Y-82610000D01*
X57130000Y-82610000D02*
X57444000Y-82610000D01*
X54824000Y-77490000D02*
X55138000Y-77490000D01*
X57130000Y-77490000D02*
X57444000Y-77490000D01*
X75732000Y-91380000D02*
X75732000Y-96500000D01*
X73112000Y-91380000D02*
X73112000Y-96500000D01*
X75732000Y-91380000D02*
X75418000Y-91380000D01*
X73426000Y-91380000D02*
X73112000Y-91380000D01*
X75732000Y-96500000D02*
X75418000Y-96500000D01*
X73426000Y-96500000D02*
X73112000Y-96500000D01*
X114514000Y-111820000D02*
X114514000Y-106700000D01*
X117134000Y-111820000D02*
X117134000Y-106700000D01*
X114514000Y-111820000D02*
X114828000Y-111820000D01*
X116820000Y-111820000D02*
X117134000Y-111820000D01*
X114514000Y-106700000D02*
X114828000Y-106700000D01*
X116820000Y-106700000D02*
X117134000Y-106700000D01*
X119674000Y-64202000D02*
X119674000Y-69322000D01*
X117054000Y-64202000D02*
X117054000Y-69322000D01*
X119674000Y-64202000D02*
X119360000Y-64202000D01*
X117368000Y-64202000D02*
X117054000Y-64202000D01*
X119674000Y-69322000D02*
X119360000Y-69322000D01*
X117368000Y-69322000D02*
X117054000Y-69322000D01*
X137200000Y-86300000D02*
X137200000Y-91420000D01*
X134580000Y-86300000D02*
X134580000Y-91420000D01*
X137200000Y-86300000D02*
X136886000Y-86300000D01*
X134894000Y-86300000D02*
X134580000Y-86300000D01*
X137200000Y-91420000D02*
X136886000Y-91420000D01*
X134894000Y-91420000D02*
X134580000Y-91420000D01*
X56328000Y-124166000D02*
X61448000Y-124166000D01*
X56328000Y-126786000D02*
X61448000Y-126786000D01*
X56328000Y-124166000D02*
X56328000Y-124480000D01*
X56328000Y-126472000D02*
X56328000Y-126786000D01*
X61448000Y-124166000D02*
X61448000Y-124480000D01*
X61448000Y-126472000D02*
X61448000Y-126786000D01*
X61274000Y-55412000D02*
X56154000Y-55412000D01*
X61274000Y-52792000D02*
X56154000Y-52792000D01*
X61274000Y-55412000D02*
X61274000Y-55098000D01*
X61274000Y-53106000D02*
X61274000Y-52792000D01*
X56154000Y-55412000D02*
X56154000Y-55098000D01*
X56154000Y-53106000D02*
X56154000Y-52792000D01*
D11*
X51230281Y-74831533D02*
X51944567Y-74831533D01*
X52087424Y-74879153D01*
X52182662Y-74974391D01*
X52230281Y-75117248D01*
X52230281Y-75212486D01*
X52230281Y-73831533D02*
X52230281Y-74402962D01*
X52230281Y-74117248D02*
X51230281Y-74117248D01*
X51373138Y-74212486D01*
X51468376Y-74307724D01*
X51515995Y-74402962D01*
D14*
X55332381Y-85931333D02*
X56046667Y-85931333D01*
X56189524Y-85978953D01*
X56284762Y-86074191D01*
X56332381Y-86217048D01*
X56332381Y-86312286D01*
X55332381Y-85550381D02*
X55332381Y-84931333D01*
X55713333Y-85264667D01*
X55713333Y-85121809D01*
X55760952Y-85026571D01*
X55808571Y-84978952D01*
X55903810Y-84931333D01*
X56141905Y-84931333D01*
X56237143Y-84978952D01*
X56284762Y-85026571D01*
X56332381Y-85121809D01*
X56332381Y-85407524D01*
X56284762Y-85502762D01*
X56237143Y-85550381D01*
X51741343Y-93623876D02*
X51788962Y-93671495D01*
X51836581Y-93814352D01*
X51836581Y-93909590D01*
X51788962Y-94052448D01*
X51693724Y-94147686D01*
X51598486Y-94195305D01*
X51408010Y-94242924D01*
X51265152Y-94242924D01*
X51074676Y-94195305D01*
X50979438Y-94147686D01*
X50884200Y-94052448D01*
X50836581Y-93909590D01*
X50836581Y-93814352D01*
X50884200Y-93671495D01*
X50931819Y-93623876D01*
X51836581Y-93052448D02*
X51788962Y-93147686D01*
X51741343Y-93195305D01*
X51646105Y-93242924D01*
X51360390Y-93242924D01*
X51265152Y-93195305D01*
X51217533Y-93147686D01*
X51169914Y-93052448D01*
X51169914Y-92909590D01*
X51217533Y-92814352D01*
X51265152Y-92766733D01*
X51360390Y-92719114D01*
X51646105Y-92719114D01*
X51741343Y-92766733D01*
X51788962Y-92814352D01*
X51836581Y-92909590D01*
X51836581Y-93052448D01*
X51169914Y-92290543D02*
X51836581Y-92290543D01*
X51265152Y-92290543D02*
X51217533Y-92242924D01*
X51169914Y-92147686D01*
X51169914Y-92004828D01*
X51217533Y-91909590D01*
X51312771Y-91861971D01*
X51836581Y-91861971D01*
X51169914Y-91385781D02*
X51836581Y-91385781D01*
X51265152Y-91385781D02*
X51217533Y-91338162D01*
X51169914Y-91242924D01*
X51169914Y-91100066D01*
X51217533Y-91004828D01*
X51312771Y-90957209D01*
X51836581Y-90957209D01*
X51931819Y-90719114D02*
X51931819Y-89957209D01*
X51741343Y-89147685D02*
X51788962Y-89195304D01*
X51836581Y-89338161D01*
X51836581Y-89433399D01*
X51788962Y-89576257D01*
X51693724Y-89671495D01*
X51598486Y-89719114D01*
X51408010Y-89766733D01*
X51265152Y-89766733D01*
X51074676Y-89719114D01*
X50979438Y-89671495D01*
X50884200Y-89576257D01*
X50836581Y-89433399D01*
X50836581Y-89338161D01*
X50884200Y-89195304D01*
X50931819Y-89147685D01*
X51836581Y-88576257D02*
X51788962Y-88671495D01*
X51741343Y-88719114D01*
X51646105Y-88766733D01*
X51360390Y-88766733D01*
X51265152Y-88719114D01*
X51217533Y-88671495D01*
X51169914Y-88576257D01*
X51169914Y-88433399D01*
X51217533Y-88338161D01*
X51265152Y-88290542D01*
X51360390Y-88242923D01*
X51646105Y-88242923D01*
X51741343Y-88290542D01*
X51788962Y-88338161D01*
X51836581Y-88433399D01*
X51836581Y-88576257D01*
X51836581Y-87385780D02*
X51312771Y-87385780D01*
X51217533Y-87433399D01*
X51169914Y-87528637D01*
X51169914Y-87719114D01*
X51217533Y-87814352D01*
X51788962Y-87385780D02*
X51836581Y-87481018D01*
X51836581Y-87719114D01*
X51788962Y-87814352D01*
X51693724Y-87861971D01*
X51598486Y-87861971D01*
X51503248Y-87814352D01*
X51455629Y-87719114D01*
X51455629Y-87481018D01*
X51408010Y-87385780D01*
X51836581Y-87004828D02*
X51169914Y-86481018D01*
X51169914Y-87004828D02*
X51836581Y-86481018D01*
X51836581Y-86100066D02*
X51169914Y-86100066D01*
X50836581Y-86100066D02*
X50884200Y-86147685D01*
X50931819Y-86100066D01*
X50884200Y-86052447D01*
X50836581Y-86100066D01*
X50931819Y-86100066D01*
X51836581Y-85195304D02*
X51312771Y-85195304D01*
X51217533Y-85242923D01*
X51169914Y-85338161D01*
X51169914Y-85528638D01*
X51217533Y-85623876D01*
X51788962Y-85195304D02*
X51836581Y-85290542D01*
X51836581Y-85528638D01*
X51788962Y-85623876D01*
X51693724Y-85671495D01*
X51598486Y-85671495D01*
X51503248Y-85623876D01*
X51455629Y-85528638D01*
X51455629Y-85290542D01*
X51408010Y-85195304D01*
X51836581Y-84576257D02*
X51788962Y-84671495D01*
X51693724Y-84719114D01*
X50836581Y-84719114D01*
D11*
X43894477Y-47966381D02*
X43894477Y-48680667D01*
X43846857Y-48823524D01*
X43751619Y-48918762D01*
X43608762Y-48966381D01*
X43513524Y-48966381D01*
X44323048Y-48061619D02*
X44370667Y-48014000D01*
X44465905Y-47966381D01*
X44704001Y-47966381D01*
X44799239Y-48014000D01*
X44846858Y-48061619D01*
X44894477Y-48156857D01*
X44894477Y-48252095D01*
X44846858Y-48394952D01*
X44275429Y-48966381D01*
X44894477Y-48966381D01*
X45846858Y-48966381D02*
X45275429Y-48966381D01*
X45561143Y-48966381D02*
X45561143Y-47966381D01*
X45465905Y-48109238D01*
X45370667Y-48204476D01*
X45275429Y-48252095D01*
X134190477Y-41404381D02*
X134190477Y-42118667D01*
X134142857Y-42261524D01*
X134047619Y-42356762D01*
X133904762Y-42404381D01*
X133809524Y-42404381D01*
X134619048Y-41499619D02*
X134666667Y-41452000D01*
X134761905Y-41404381D01*
X135000001Y-41404381D01*
X135095239Y-41452000D01*
X135142858Y-41499619D01*
X135190477Y-41594857D01*
X135190477Y-41690095D01*
X135142858Y-41832952D01*
X134571429Y-42404381D01*
X135190477Y-42404381D01*
X135571429Y-41499619D02*
X135619048Y-41452000D01*
X135714286Y-41404381D01*
X135952382Y-41404381D01*
X136047620Y-41452000D01*
X136095239Y-41499619D01*
X136142858Y-41594857D01*
X136142858Y-41690095D01*
X136095239Y-41832952D01*
X135523810Y-42404381D01*
X136142858Y-42404381D01*
X44275477Y-130833881D02*
X44275477Y-131548167D01*
X44227857Y-131691024D01*
X44132619Y-131786262D01*
X43989762Y-131833881D01*
X43894524Y-131833881D01*
X44704048Y-130929119D02*
X44751667Y-130881500D01*
X44846905Y-130833881D01*
X45085001Y-130833881D01*
X45180239Y-130881500D01*
X45227858Y-130929119D01*
X45275477Y-131024357D01*
X45275477Y-131119595D01*
X45227858Y-131262452D01*
X44656429Y-131833881D01*
X45275477Y-131833881D01*
X45608810Y-130833881D02*
X46227858Y-130833881D01*
X45894524Y-131214833D01*
X46037382Y-131214833D01*
X46132620Y-131262452D01*
X46180239Y-131310071D01*
X46227858Y-131405310D01*
X46227858Y-131643405D01*
X46180239Y-131738643D01*
X46132620Y-131786262D01*
X46037382Y-131833881D01*
X45751667Y-131833881D01*
X45656429Y-131786262D01*
X45608810Y-131738643D01*
X134190477Y-131404381D02*
X134190477Y-132118667D01*
X134142857Y-132261524D01*
X134047619Y-132356762D01*
X133904762Y-132404381D01*
X133809524Y-132404381D01*
X134619048Y-131499619D02*
X134666667Y-131452000D01*
X134761905Y-131404381D01*
X135000001Y-131404381D01*
X135095239Y-131452000D01*
X135142858Y-131499619D01*
X135190477Y-131594857D01*
X135190477Y-131690095D01*
X135142858Y-131832952D01*
X134571429Y-132404381D01*
X135190477Y-132404381D01*
X136047620Y-131737714D02*
X136047620Y-132404381D01*
X135809524Y-131356762D02*
X135571429Y-132071048D01*
X136190477Y-132071048D01*
X66905143Y-133770666D02*
X66952762Y-133818285D01*
X67000381Y-133961142D01*
X67000381Y-134056380D01*
X66952762Y-134199238D01*
X66857524Y-134294476D01*
X66762286Y-134342095D01*
X66571810Y-134389714D01*
X66428952Y-134389714D01*
X66238476Y-134342095D01*
X66143238Y-134294476D01*
X66048000Y-134199238D01*
X66000381Y-134056380D01*
X66000381Y-133961142D01*
X66048000Y-133818285D01*
X66095619Y-133770666D01*
X66000381Y-133437333D02*
X66000381Y-132818285D01*
X66381333Y-133151619D01*
X66381333Y-133008761D01*
X66428952Y-132913523D01*
X66476571Y-132865904D01*
X66571810Y-132818285D01*
X66809905Y-132818285D01*
X66905143Y-132865904D01*
X66952762Y-132913523D01*
X67000381Y-133008761D01*
X67000381Y-133294476D01*
X66952762Y-133389714D01*
X66905143Y-133437333D01*
X82272143Y-133135666D02*
X82319762Y-133183285D01*
X82367381Y-133326142D01*
X82367381Y-133421380D01*
X82319762Y-133564238D01*
X82224524Y-133659476D01*
X82129286Y-133707095D01*
X81938810Y-133754714D01*
X81795952Y-133754714D01*
X81605476Y-133707095D01*
X81510238Y-133659476D01*
X81415000Y-133564238D01*
X81367381Y-133421380D01*
X81367381Y-133326142D01*
X81415000Y-133183285D01*
X81462619Y-133135666D01*
X81700714Y-132278523D02*
X82367381Y-132278523D01*
X81319762Y-132516619D02*
X82034048Y-132754714D01*
X82034048Y-132135666D01*
X60376381Y-134655666D02*
X59900190Y-134989000D01*
X60376381Y-135227095D02*
X59376381Y-135227095D01*
X59376381Y-134846142D01*
X59424000Y-134750904D01*
X59471619Y-134703285D01*
X59566857Y-134655666D01*
X59709714Y-134655666D01*
X59804952Y-134703285D01*
X59852571Y-134750904D01*
X59900190Y-134846142D01*
X59900190Y-135227095D01*
X59376381Y-134322333D02*
X59376381Y-133655666D01*
X60376381Y-134084238D01*
X63749381Y-134909666D02*
X63273190Y-135243000D01*
X63749381Y-135481095D02*
X62749381Y-135481095D01*
X62749381Y-135100142D01*
X62797000Y-135004904D01*
X62844619Y-134957285D01*
X62939857Y-134909666D01*
X63082714Y-134909666D01*
X63177952Y-134957285D01*
X63225571Y-135004904D01*
X63273190Y-135100142D01*
X63273190Y-135481095D01*
X63177952Y-134338238D02*
X63130333Y-134433476D01*
X63082714Y-134481095D01*
X62987476Y-134528714D01*
X62939857Y-134528714D01*
X62844619Y-134481095D01*
X62797000Y-134433476D01*
X62749381Y-134338238D01*
X62749381Y-134147761D01*
X62797000Y-134052523D01*
X62844619Y-134004904D01*
X62939857Y-133957285D01*
X62987476Y-133957285D01*
X63082714Y-134004904D01*
X63130333Y-134052523D01*
X63177952Y-134147761D01*
X63177952Y-134338238D01*
X63225571Y-134433476D01*
X63273190Y-134481095D01*
X63368429Y-134528714D01*
X63558905Y-134528714D01*
X63654143Y-134481095D01*
X63701762Y-134433476D01*
X63749381Y-134338238D01*
X63749381Y-134147761D01*
X63701762Y-134052523D01*
X63654143Y-134004904D01*
X63558905Y-133957285D01*
X63368429Y-133957285D01*
X63273190Y-134004904D01*
X63225571Y-134052523D01*
X63177952Y-134147761D01*
X54808381Y-135612095D02*
X53808381Y-135612095D01*
X53808381Y-135374000D01*
X53856000Y-135231142D01*
X53951238Y-135135904D01*
X54046476Y-135088285D01*
X54236952Y-135040666D01*
X54379810Y-135040666D01*
X54570286Y-135088285D01*
X54665524Y-135135904D01*
X54760762Y-135231142D01*
X54808381Y-135374000D01*
X54808381Y-135612095D01*
X53903619Y-134659714D02*
X53856000Y-134612095D01*
X53808381Y-134516857D01*
X53808381Y-134278761D01*
X53856000Y-134183523D01*
X53903619Y-134135904D01*
X53998857Y-134088285D01*
X54094095Y-134088285D01*
X54236952Y-134135904D01*
X54808381Y-134707333D01*
X54808381Y-134088285D01*
X105116381Y-62120305D02*
X105116381Y-61548876D01*
X106116381Y-61834591D02*
X105116381Y-61834591D01*
X106116381Y-60644114D02*
X105640190Y-60977448D01*
X106116381Y-61215543D02*
X105116381Y-61215543D01*
X105116381Y-60834590D01*
X105164000Y-60739352D01*
X105211619Y-60691733D01*
X105306857Y-60644114D01*
X105449714Y-60644114D01*
X105544952Y-60691733D01*
X105592571Y-60739352D01*
X105640190Y-60834590D01*
X105640190Y-61215543D01*
X105116381Y-59786971D02*
X105116381Y-59977448D01*
X105164000Y-60072686D01*
X105211619Y-60120305D01*
X105354476Y-60215543D01*
X105544952Y-60263162D01*
X105925905Y-60263162D01*
X106021143Y-60215543D01*
X106068762Y-60167924D01*
X106116381Y-60072686D01*
X106116381Y-59882209D01*
X106068762Y-59786971D01*
X106021143Y-59739352D01*
X105925905Y-59691733D01*
X105687810Y-59691733D01*
X105592571Y-59739352D01*
X105544952Y-59786971D01*
X105497333Y-59882209D01*
X105497333Y-60072686D01*
X105544952Y-60167924D01*
X105592571Y-60215543D01*
X105687810Y-60263162D01*
X103135181Y-113783905D02*
X103135181Y-113212476D01*
X104135181Y-113498191D02*
X103135181Y-113498191D01*
X104135181Y-112307714D02*
X103658990Y-112641048D01*
X104135181Y-112879143D02*
X103135181Y-112879143D01*
X103135181Y-112498190D01*
X103182800Y-112402952D01*
X103230419Y-112355333D01*
X103325657Y-112307714D01*
X103468514Y-112307714D01*
X103563752Y-112355333D01*
X103611371Y-112402952D01*
X103658990Y-112498190D01*
X103658990Y-112879143D01*
X103135181Y-111402952D02*
X103135181Y-111879143D01*
X103611371Y-111926762D01*
X103563752Y-111879143D01*
X103516133Y-111783905D01*
X103516133Y-111545809D01*
X103563752Y-111450571D01*
X103611371Y-111402952D01*
X103706610Y-111355333D01*
X103944705Y-111355333D01*
X104039943Y-111402952D01*
X104087562Y-111450571D01*
X104135181Y-111545809D01*
X104135181Y-111783905D01*
X104087562Y-111879143D01*
X104039943Y-111926762D01*
X130135381Y-66539905D02*
X130135381Y-65968476D01*
X131135381Y-66254191D02*
X130135381Y-66254191D01*
X131135381Y-65063714D02*
X130659190Y-65397048D01*
X131135381Y-65635143D02*
X130135381Y-65635143D01*
X130135381Y-65254190D01*
X130183000Y-65158952D01*
X130230619Y-65111333D01*
X130325857Y-65063714D01*
X130468714Y-65063714D01*
X130563952Y-65111333D01*
X130611571Y-65158952D01*
X130659190Y-65254190D01*
X130659190Y-65635143D01*
X130468714Y-64206571D02*
X131135381Y-64206571D01*
X130087762Y-64444667D02*
X130802048Y-64682762D01*
X130802048Y-64063714D01*
X130389381Y-118101905D02*
X130389381Y-117530476D01*
X131389381Y-117816191D02*
X130389381Y-117816191D01*
X131389381Y-116625714D02*
X130913190Y-116959048D01*
X131389381Y-117197143D02*
X130389381Y-117197143D01*
X130389381Y-116816190D01*
X130437000Y-116720952D01*
X130484619Y-116673333D01*
X130579857Y-116625714D01*
X130722714Y-116625714D01*
X130817952Y-116673333D01*
X130865571Y-116720952D01*
X130913190Y-116816190D01*
X130913190Y-117197143D01*
X130389381Y-116292381D02*
X130389381Y-115673333D01*
X130770333Y-116006667D01*
X130770333Y-115863809D01*
X130817952Y-115768571D01*
X130865571Y-115720952D01*
X130960810Y-115673333D01*
X131198905Y-115673333D01*
X131294143Y-115720952D01*
X131341762Y-115768571D01*
X131389381Y-115863809D01*
X131389381Y-116149524D01*
X131341762Y-116244762D01*
X131294143Y-116292381D01*
X84161381Y-86986905D02*
X84161381Y-86415476D01*
X85161381Y-86701191D02*
X84161381Y-86701191D01*
X85161381Y-85510714D02*
X84685190Y-85844048D01*
X85161381Y-86082143D02*
X84161381Y-86082143D01*
X84161381Y-85701190D01*
X84209000Y-85605952D01*
X84256619Y-85558333D01*
X84351857Y-85510714D01*
X84494714Y-85510714D01*
X84589952Y-85558333D01*
X84637571Y-85605952D01*
X84685190Y-85701190D01*
X84685190Y-86082143D01*
X84256619Y-85129762D02*
X84209000Y-85082143D01*
X84161381Y-84986905D01*
X84161381Y-84748809D01*
X84209000Y-84653571D01*
X84256619Y-84605952D01*
X84351857Y-84558333D01*
X84447095Y-84558333D01*
X84589952Y-84605952D01*
X85161381Y-85177381D01*
X85161381Y-84558333D01*
X63485781Y-87063105D02*
X63485781Y-86491676D01*
X64485781Y-86777391D02*
X63485781Y-86777391D01*
X64485781Y-85586914D02*
X64009590Y-85920248D01*
X64485781Y-86158343D02*
X63485781Y-86158343D01*
X63485781Y-85777390D01*
X63533400Y-85682152D01*
X63581019Y-85634533D01*
X63676257Y-85586914D01*
X63819114Y-85586914D01*
X63914352Y-85634533D01*
X63961971Y-85682152D01*
X64009590Y-85777390D01*
X64009590Y-86158343D01*
X64485781Y-84634533D02*
X64485781Y-85205962D01*
X64485781Y-84920248D02*
X63485781Y-84920248D01*
X63628638Y-85015486D01*
X63723876Y-85110724D01*
X63771495Y-85205962D01*
D14*
X130719581Y-48085333D02*
X131433867Y-48085333D01*
X131576724Y-48132953D01*
X131671962Y-48228191D01*
X131719581Y-48371048D01*
X131719581Y-48466286D01*
X130814819Y-47656762D02*
X130767200Y-47609143D01*
X130719581Y-47513905D01*
X130719581Y-47275809D01*
X130767200Y-47180571D01*
X130814819Y-47132952D01*
X130910057Y-47085333D01*
X131005295Y-47085333D01*
X131148152Y-47132952D01*
X131719581Y-47704381D01*
X131719581Y-47085333D01*
X118135924Y-51207943D02*
X118088305Y-51255562D01*
X117945448Y-51303181D01*
X117850210Y-51303181D01*
X117707352Y-51255562D01*
X117612114Y-51160324D01*
X117564495Y-51065086D01*
X117516876Y-50874610D01*
X117516876Y-50731752D01*
X117564495Y-50541276D01*
X117612114Y-50446038D01*
X117707352Y-50350800D01*
X117850210Y-50303181D01*
X117945448Y-50303181D01*
X118088305Y-50350800D01*
X118135924Y-50398419D01*
X118707352Y-51303181D02*
X118612114Y-51255562D01*
X118564495Y-51207943D01*
X118516876Y-51112705D01*
X118516876Y-50826990D01*
X118564495Y-50731752D01*
X118612114Y-50684133D01*
X118707352Y-50636514D01*
X118850210Y-50636514D01*
X118945448Y-50684133D01*
X118993067Y-50731752D01*
X119040686Y-50826990D01*
X119040686Y-51112705D01*
X118993067Y-51207943D01*
X118945448Y-51255562D01*
X118850210Y-51303181D01*
X118707352Y-51303181D01*
X119469257Y-50636514D02*
X119469257Y-51303181D01*
X119469257Y-50731752D02*
X119516876Y-50684133D01*
X119612114Y-50636514D01*
X119754972Y-50636514D01*
X119850210Y-50684133D01*
X119897829Y-50779371D01*
X119897829Y-51303181D01*
X120374019Y-50636514D02*
X120374019Y-51303181D01*
X120374019Y-50731752D02*
X120421638Y-50684133D01*
X120516876Y-50636514D01*
X120659734Y-50636514D01*
X120754972Y-50684133D01*
X120802591Y-50779371D01*
X120802591Y-51303181D01*
X121040686Y-51398419D02*
X121802591Y-51398419D01*
X122612115Y-51207943D02*
X122564496Y-51255562D01*
X122421639Y-51303181D01*
X122326401Y-51303181D01*
X122183543Y-51255562D01*
X122088305Y-51160324D01*
X122040686Y-51065086D01*
X121993067Y-50874610D01*
X121993067Y-50731752D01*
X122040686Y-50541276D01*
X122088305Y-50446038D01*
X122183543Y-50350800D01*
X122326401Y-50303181D01*
X122421639Y-50303181D01*
X122564496Y-50350800D01*
X122612115Y-50398419D01*
X123183543Y-51303181D02*
X123088305Y-51255562D01*
X123040686Y-51207943D01*
X122993067Y-51112705D01*
X122993067Y-50826990D01*
X123040686Y-50731752D01*
X123088305Y-50684133D01*
X123183543Y-50636514D01*
X123326401Y-50636514D01*
X123421639Y-50684133D01*
X123469258Y-50731752D01*
X123516877Y-50826990D01*
X123516877Y-51112705D01*
X123469258Y-51207943D01*
X123421639Y-51255562D01*
X123326401Y-51303181D01*
X123183543Y-51303181D01*
X124374020Y-51303181D02*
X124374020Y-50779371D01*
X124326401Y-50684133D01*
X124231163Y-50636514D01*
X124040686Y-50636514D01*
X123945448Y-50684133D01*
X124374020Y-51255562D02*
X124278782Y-51303181D01*
X124040686Y-51303181D01*
X123945448Y-51255562D01*
X123897829Y-51160324D01*
X123897829Y-51065086D01*
X123945448Y-50969848D01*
X124040686Y-50922229D01*
X124278782Y-50922229D01*
X124374020Y-50874610D01*
X124754972Y-51303181D02*
X125278782Y-50636514D01*
X124754972Y-50636514D02*
X125278782Y-51303181D01*
X125659734Y-51303181D02*
X125659734Y-50636514D01*
X125659734Y-50303181D02*
X125612115Y-50350800D01*
X125659734Y-50398419D01*
X125707353Y-50350800D01*
X125659734Y-50303181D01*
X125659734Y-50398419D01*
X126564496Y-51303181D02*
X126564496Y-50779371D01*
X126516877Y-50684133D01*
X126421639Y-50636514D01*
X126231162Y-50636514D01*
X126135924Y-50684133D01*
X126564496Y-51255562D02*
X126469258Y-51303181D01*
X126231162Y-51303181D01*
X126135924Y-51255562D01*
X126088305Y-51160324D01*
X126088305Y-51065086D01*
X126135924Y-50969848D01*
X126231162Y-50922229D01*
X126469258Y-50922229D01*
X126564496Y-50874610D01*
X127183543Y-51303181D02*
X127088305Y-51255562D01*
X127040686Y-51160324D01*
X127040686Y-50303181D01*
X55332381Y-56975333D02*
X56046667Y-56975333D01*
X56189524Y-57022953D01*
X56284762Y-57118191D01*
X56332381Y-57261048D01*
X56332381Y-57356286D01*
X55665714Y-56070571D02*
X56332381Y-56070571D01*
X55284762Y-56308667D02*
X55999048Y-56546762D01*
X55999048Y-55927714D01*
X51545763Y-63677276D02*
X51593382Y-63724895D01*
X51641001Y-63867752D01*
X51641001Y-63962990D01*
X51593382Y-64105848D01*
X51498144Y-64201086D01*
X51402906Y-64248705D01*
X51212430Y-64296324D01*
X51069572Y-64296324D01*
X50879096Y-64248705D01*
X50783858Y-64201086D01*
X50688620Y-64105848D01*
X50641001Y-63962990D01*
X50641001Y-63867752D01*
X50688620Y-63724895D01*
X50736239Y-63677276D01*
X51641001Y-63105848D02*
X51593382Y-63201086D01*
X51545763Y-63248705D01*
X51450525Y-63296324D01*
X51164810Y-63296324D01*
X51069572Y-63248705D01*
X51021953Y-63201086D01*
X50974334Y-63105848D01*
X50974334Y-62962990D01*
X51021953Y-62867752D01*
X51069572Y-62820133D01*
X51164810Y-62772514D01*
X51450525Y-62772514D01*
X51545763Y-62820133D01*
X51593382Y-62867752D01*
X51641001Y-62962990D01*
X51641001Y-63105848D01*
X50974334Y-62343943D02*
X51641001Y-62343943D01*
X51069572Y-62343943D02*
X51021953Y-62296324D01*
X50974334Y-62201086D01*
X50974334Y-62058228D01*
X51021953Y-61962990D01*
X51117191Y-61915371D01*
X51641001Y-61915371D01*
X50974334Y-61439181D02*
X51641001Y-61439181D01*
X51069572Y-61439181D02*
X51021953Y-61391562D01*
X50974334Y-61296324D01*
X50974334Y-61153466D01*
X51021953Y-61058228D01*
X51117191Y-61010609D01*
X51641001Y-61010609D01*
X51736239Y-60772514D02*
X51736239Y-60010609D01*
X51545763Y-59201085D02*
X51593382Y-59248704D01*
X51641001Y-59391561D01*
X51641001Y-59486799D01*
X51593382Y-59629657D01*
X51498144Y-59724895D01*
X51402906Y-59772514D01*
X51212430Y-59820133D01*
X51069572Y-59820133D01*
X50879096Y-59772514D01*
X50783858Y-59724895D01*
X50688620Y-59629657D01*
X50641001Y-59486799D01*
X50641001Y-59391561D01*
X50688620Y-59248704D01*
X50736239Y-59201085D01*
X51641001Y-58629657D02*
X51593382Y-58724895D01*
X51545763Y-58772514D01*
X51450525Y-58820133D01*
X51164810Y-58820133D01*
X51069572Y-58772514D01*
X51021953Y-58724895D01*
X50974334Y-58629657D01*
X50974334Y-58486799D01*
X51021953Y-58391561D01*
X51069572Y-58343942D01*
X51164810Y-58296323D01*
X51450525Y-58296323D01*
X51545763Y-58343942D01*
X51593382Y-58391561D01*
X51641001Y-58486799D01*
X51641001Y-58629657D01*
X51641001Y-57439180D02*
X51117191Y-57439180D01*
X51021953Y-57486799D01*
X50974334Y-57582037D01*
X50974334Y-57772514D01*
X51021953Y-57867752D01*
X51593382Y-57439180D02*
X51641001Y-57534418D01*
X51641001Y-57772514D01*
X51593382Y-57867752D01*
X51498144Y-57915371D01*
X51402906Y-57915371D01*
X51307668Y-57867752D01*
X51260049Y-57772514D01*
X51260049Y-57534418D01*
X51212430Y-57439180D01*
X51641001Y-57058228D02*
X50974334Y-56534418D01*
X50974334Y-57058228D02*
X51641001Y-56534418D01*
X51641001Y-56153466D02*
X50974334Y-56153466D01*
X50641001Y-56153466D02*
X50688620Y-56201085D01*
X50736239Y-56153466D01*
X50688620Y-56105847D01*
X50641001Y-56153466D01*
X50736239Y-56153466D01*
X51641001Y-55248704D02*
X51117191Y-55248704D01*
X51021953Y-55296323D01*
X50974334Y-55391561D01*
X50974334Y-55582038D01*
X51021953Y-55677276D01*
X51593382Y-55248704D02*
X51641001Y-55343942D01*
X51641001Y-55582038D01*
X51593382Y-55677276D01*
X51498144Y-55724895D01*
X51402906Y-55724895D01*
X51307668Y-55677276D01*
X51260049Y-55582038D01*
X51260049Y-55343942D01*
X51212430Y-55248704D01*
X51641001Y-54629657D02*
X51593382Y-54724895D01*
X51498144Y-54772514D01*
X50641001Y-54772514D01*
X47672667Y-128230381D02*
X47672667Y-128944667D01*
X47625047Y-129087524D01*
X47529809Y-129182762D01*
X47386952Y-129230381D01*
X47291714Y-129230381D01*
X48625048Y-128230381D02*
X48148857Y-128230381D01*
X48101238Y-128706571D01*
X48148857Y-128658952D01*
X48244095Y-128611333D01*
X48482191Y-128611333D01*
X48577429Y-128658952D01*
X48625048Y-128706571D01*
X48672667Y-128801810D01*
X48672667Y-129039905D01*
X48625048Y-129135143D01*
X48577429Y-129182762D01*
X48482191Y-129230381D01*
X48244095Y-129230381D01*
X48148857Y-129182762D01*
X48101238Y-129135143D01*
X51893743Y-124294376D02*
X51941362Y-124341995D01*
X51988981Y-124484852D01*
X51988981Y-124580090D01*
X51941362Y-124722948D01*
X51846124Y-124818186D01*
X51750886Y-124865805D01*
X51560410Y-124913424D01*
X51417552Y-124913424D01*
X51227076Y-124865805D01*
X51131838Y-124818186D01*
X51036600Y-124722948D01*
X50988981Y-124580090D01*
X50988981Y-124484852D01*
X51036600Y-124341995D01*
X51084219Y-124294376D01*
X51988981Y-123722948D02*
X51941362Y-123818186D01*
X51893743Y-123865805D01*
X51798505Y-123913424D01*
X51512790Y-123913424D01*
X51417552Y-123865805D01*
X51369933Y-123818186D01*
X51322314Y-123722948D01*
X51322314Y-123580090D01*
X51369933Y-123484852D01*
X51417552Y-123437233D01*
X51512790Y-123389614D01*
X51798505Y-123389614D01*
X51893743Y-123437233D01*
X51941362Y-123484852D01*
X51988981Y-123580090D01*
X51988981Y-123722948D01*
X51322314Y-122961043D02*
X51988981Y-122961043D01*
X51417552Y-122961043D02*
X51369933Y-122913424D01*
X51322314Y-122818186D01*
X51322314Y-122675328D01*
X51369933Y-122580090D01*
X51465171Y-122532471D01*
X51988981Y-122532471D01*
X51322314Y-122056281D02*
X51988981Y-122056281D01*
X51417552Y-122056281D02*
X51369933Y-122008662D01*
X51322314Y-121913424D01*
X51322314Y-121770566D01*
X51369933Y-121675328D01*
X51465171Y-121627709D01*
X51988981Y-121627709D01*
X52084219Y-121389614D02*
X52084219Y-120627709D01*
X51893743Y-119818185D02*
X51941362Y-119865804D01*
X51988981Y-120008661D01*
X51988981Y-120103899D01*
X51941362Y-120246757D01*
X51846124Y-120341995D01*
X51750886Y-120389614D01*
X51560410Y-120437233D01*
X51417552Y-120437233D01*
X51227076Y-120389614D01*
X51131838Y-120341995D01*
X51036600Y-120246757D01*
X50988981Y-120103899D01*
X50988981Y-120008661D01*
X51036600Y-119865804D01*
X51084219Y-119818185D01*
X51988981Y-119246757D02*
X51941362Y-119341995D01*
X51893743Y-119389614D01*
X51798505Y-119437233D01*
X51512790Y-119437233D01*
X51417552Y-119389614D01*
X51369933Y-119341995D01*
X51322314Y-119246757D01*
X51322314Y-119103899D01*
X51369933Y-119008661D01*
X51417552Y-118961042D01*
X51512790Y-118913423D01*
X51798505Y-118913423D01*
X51893743Y-118961042D01*
X51941362Y-119008661D01*
X51988981Y-119103899D01*
X51988981Y-119246757D01*
X51988981Y-118056280D02*
X51465171Y-118056280D01*
X51369933Y-118103899D01*
X51322314Y-118199137D01*
X51322314Y-118389614D01*
X51369933Y-118484852D01*
X51941362Y-118056280D02*
X51988981Y-118151518D01*
X51988981Y-118389614D01*
X51941362Y-118484852D01*
X51846124Y-118532471D01*
X51750886Y-118532471D01*
X51655648Y-118484852D01*
X51608029Y-118389614D01*
X51608029Y-118151518D01*
X51560410Y-118056280D01*
X51988981Y-117675328D02*
X51322314Y-117151518D01*
X51322314Y-117675328D02*
X51988981Y-117151518D01*
X51988981Y-116770566D02*
X51322314Y-116770566D01*
X50988981Y-116770566D02*
X51036600Y-116818185D01*
X51084219Y-116770566D01*
X51036600Y-116722947D01*
X50988981Y-116770566D01*
X51084219Y-116770566D01*
X51988981Y-115865804D02*
X51465171Y-115865804D01*
X51369933Y-115913423D01*
X51322314Y-116008661D01*
X51322314Y-116199138D01*
X51369933Y-116294376D01*
X51941362Y-115865804D02*
X51988981Y-115961042D01*
X51988981Y-116199138D01*
X51941362Y-116294376D01*
X51846124Y-116341995D01*
X51750886Y-116341995D01*
X51655648Y-116294376D01*
X51608029Y-116199138D01*
X51608029Y-115961042D01*
X51560410Y-115865804D01*
X51988981Y-115246757D02*
X51941362Y-115341995D01*
X51846124Y-115389614D01*
X50988981Y-115389614D01*
X130008381Y-132870533D02*
X130722667Y-132870533D01*
X130865524Y-132918153D01*
X130960762Y-133013391D01*
X131008381Y-133156248D01*
X131008381Y-133251486D01*
X130008381Y-131965771D02*
X130008381Y-132156248D01*
X130056000Y-132251486D01*
X130103619Y-132299105D01*
X130246476Y-132394343D01*
X130436952Y-132441962D01*
X130817905Y-132441962D01*
X130913143Y-132394343D01*
X130960762Y-132346724D01*
X131008381Y-132251486D01*
X131008381Y-132061009D01*
X130960762Y-131965771D01*
X130913143Y-131918152D01*
X130817905Y-131870533D01*
X130579810Y-131870533D01*
X130484571Y-131918152D01*
X130436952Y-131965771D01*
X130389333Y-132061009D01*
X130389333Y-132251486D01*
X130436952Y-132346724D01*
X130484571Y-132394343D01*
X130579810Y-132441962D01*
X117513624Y-129617743D02*
X117466005Y-129665362D01*
X117323148Y-129712981D01*
X117227910Y-129712981D01*
X117085052Y-129665362D01*
X116989814Y-129570124D01*
X116942195Y-129474886D01*
X116894576Y-129284410D01*
X116894576Y-129141552D01*
X116942195Y-128951076D01*
X116989814Y-128855838D01*
X117085052Y-128760600D01*
X117227910Y-128712981D01*
X117323148Y-128712981D01*
X117466005Y-128760600D01*
X117513624Y-128808219D01*
X118085052Y-129712981D02*
X117989814Y-129665362D01*
X117942195Y-129617743D01*
X117894576Y-129522505D01*
X117894576Y-129236790D01*
X117942195Y-129141552D01*
X117989814Y-129093933D01*
X118085052Y-129046314D01*
X118227910Y-129046314D01*
X118323148Y-129093933D01*
X118370767Y-129141552D01*
X118418386Y-129236790D01*
X118418386Y-129522505D01*
X118370767Y-129617743D01*
X118323148Y-129665362D01*
X118227910Y-129712981D01*
X118085052Y-129712981D01*
X118846957Y-129046314D02*
X118846957Y-129712981D01*
X118846957Y-129141552D02*
X118894576Y-129093933D01*
X118989814Y-129046314D01*
X119132672Y-129046314D01*
X119227910Y-129093933D01*
X119275529Y-129189171D01*
X119275529Y-129712981D01*
X119751719Y-129046314D02*
X119751719Y-129712981D01*
X119751719Y-129141552D02*
X119799338Y-129093933D01*
X119894576Y-129046314D01*
X120037434Y-129046314D01*
X120132672Y-129093933D01*
X120180291Y-129189171D01*
X120180291Y-129712981D01*
X120418386Y-129808219D02*
X121180291Y-129808219D01*
X121989815Y-129617743D02*
X121942196Y-129665362D01*
X121799339Y-129712981D01*
X121704101Y-129712981D01*
X121561243Y-129665362D01*
X121466005Y-129570124D01*
X121418386Y-129474886D01*
X121370767Y-129284410D01*
X121370767Y-129141552D01*
X121418386Y-128951076D01*
X121466005Y-128855838D01*
X121561243Y-128760600D01*
X121704101Y-128712981D01*
X121799339Y-128712981D01*
X121942196Y-128760600D01*
X121989815Y-128808219D01*
X122561243Y-129712981D02*
X122466005Y-129665362D01*
X122418386Y-129617743D01*
X122370767Y-129522505D01*
X122370767Y-129236790D01*
X122418386Y-129141552D01*
X122466005Y-129093933D01*
X122561243Y-129046314D01*
X122704101Y-129046314D01*
X122799339Y-129093933D01*
X122846958Y-129141552D01*
X122894577Y-129236790D01*
X122894577Y-129522505D01*
X122846958Y-129617743D01*
X122799339Y-129665362D01*
X122704101Y-129712981D01*
X122561243Y-129712981D01*
X123751720Y-129712981D02*
X123751720Y-129189171D01*
X123704101Y-129093933D01*
X123608863Y-129046314D01*
X123418386Y-129046314D01*
X123323148Y-129093933D01*
X123751720Y-129665362D02*
X123656482Y-129712981D01*
X123418386Y-129712981D01*
X123323148Y-129665362D01*
X123275529Y-129570124D01*
X123275529Y-129474886D01*
X123323148Y-129379648D01*
X123418386Y-129332029D01*
X123656482Y-129332029D01*
X123751720Y-129284410D01*
X124132672Y-129712981D02*
X124656482Y-129046314D01*
X124132672Y-129046314D02*
X124656482Y-129712981D01*
X125037434Y-129712981D02*
X125037434Y-129046314D01*
X125037434Y-128712981D02*
X124989815Y-128760600D01*
X125037434Y-128808219D01*
X125085053Y-128760600D01*
X125037434Y-128712981D01*
X125037434Y-128808219D01*
X125942196Y-129712981D02*
X125942196Y-129189171D01*
X125894577Y-129093933D01*
X125799339Y-129046314D01*
X125608862Y-129046314D01*
X125513624Y-129093933D01*
X125942196Y-129665362D02*
X125846958Y-129712981D01*
X125608862Y-129712981D01*
X125513624Y-129665362D01*
X125466005Y-129570124D01*
X125466005Y-129474886D01*
X125513624Y-129379648D01*
X125608862Y-129332029D01*
X125846958Y-129332029D01*
X125942196Y-129284410D01*
X126561243Y-129712981D02*
X126466005Y-129665362D01*
X126418386Y-129570124D01*
X126418386Y-128712981D01*
D11*
X109394667Y-51522381D02*
X109394667Y-52236667D01*
X109347047Y-52379524D01*
X109251809Y-52474762D01*
X109108952Y-52522381D01*
X109013714Y-52522381D01*
X109775619Y-51522381D02*
X110442286Y-51522381D01*
X110013714Y-52522381D01*
X47204381Y-49482333D02*
X47918667Y-49482333D01*
X48061524Y-49529953D01*
X48156762Y-49625191D01*
X48204381Y-49768048D01*
X48204381Y-49863286D01*
X47632952Y-48863286D02*
X47585333Y-48958524D01*
X47537714Y-49006143D01*
X47442476Y-49053762D01*
X47394857Y-49053762D01*
X47299619Y-49006143D01*
X47252000Y-48958524D01*
X47204381Y-48863286D01*
X47204381Y-48672809D01*
X47252000Y-48577571D01*
X47299619Y-48529952D01*
X47394857Y-48482333D01*
X47442476Y-48482333D01*
X47537714Y-48529952D01*
X47585333Y-48577571D01*
X47632952Y-48672809D01*
X47632952Y-48863286D01*
X47680571Y-48958524D01*
X47728190Y-49006143D01*
X47823429Y-49053762D01*
X48013905Y-49053762D01*
X48109143Y-49006143D01*
X48156762Y-48958524D01*
X48204381Y-48863286D01*
X48204381Y-48672809D01*
X48156762Y-48577571D01*
X48109143Y-48529952D01*
X48013905Y-48482333D01*
X47823429Y-48482333D01*
X47728190Y-48529952D01*
X47680571Y-48577571D01*
X47632952Y-48672809D01*
X47563447Y-99995741D02*
X47563447Y-100710027D01*
X47515827Y-100852884D01*
X47420589Y-100948122D01*
X47277732Y-100995741D01*
X47182494Y-100995741D01*
X48087256Y-100995741D02*
X48277732Y-100995741D01*
X48372971Y-100948122D01*
X48420590Y-100900503D01*
X48515828Y-100757646D01*
X48563447Y-100567170D01*
X48563447Y-100186217D01*
X48515828Y-100090979D01*
X48468209Y-100043360D01*
X48372971Y-99995741D01*
X48182494Y-99995741D01*
X48087256Y-100043360D01*
X48039637Y-100090979D01*
X47992018Y-100186217D01*
X47992018Y-100424312D01*
X48039637Y-100519550D01*
X48087256Y-100567170D01*
X48182494Y-100614789D01*
X48372971Y-100614789D01*
X48468209Y-100567170D01*
X48515828Y-100519550D01*
X48563447Y-100424312D01*
X101382581Y-134337323D02*
X102096867Y-134337323D01*
X102239724Y-134384943D01*
X102334962Y-134480181D01*
X102382581Y-134623038D01*
X102382581Y-134718276D01*
X102382581Y-133337323D02*
X102382581Y-133908752D01*
X102382581Y-133623038D02*
X101382581Y-133623038D01*
X101525438Y-133718276D01*
X101620676Y-133813514D01*
X101668295Y-133908752D01*
X101382581Y-132718276D02*
X101382581Y-132623037D01*
X101430200Y-132527799D01*
X101477819Y-132480180D01*
X101573057Y-132432561D01*
X101763533Y-132384942D01*
X102001629Y-132384942D01*
X102192105Y-132432561D01*
X102287343Y-132480180D01*
X102334962Y-132527799D01*
X102382581Y-132623037D01*
X102382581Y-132718276D01*
X102334962Y-132813514D01*
X102287343Y-132861133D01*
X102192105Y-132908752D01*
X102001629Y-132956371D01*
X101763533Y-132956371D01*
X101573057Y-132908752D01*
X101477819Y-132861133D01*
X101430200Y-132813514D01*
X101382581Y-132718276D01*
X85447143Y-44870666D02*
X85494762Y-44918285D01*
X85542381Y-45061142D01*
X85542381Y-45156380D01*
X85494762Y-45299238D01*
X85399524Y-45394476D01*
X85304286Y-45442095D01*
X85113810Y-45489714D01*
X84970952Y-45489714D01*
X84780476Y-45442095D01*
X84685238Y-45394476D01*
X84590000Y-45299238D01*
X84542381Y-45156380D01*
X84542381Y-45061142D01*
X84590000Y-44918285D01*
X84637619Y-44870666D01*
X85542381Y-43918285D02*
X85542381Y-44489714D01*
X85542381Y-44204000D02*
X84542381Y-44204000D01*
X84685238Y-44299238D01*
X84780476Y-44394476D01*
X84828095Y-44489714D01*
X79462334Y-50522143D02*
X79414715Y-50569762D01*
X79271858Y-50617381D01*
X79176620Y-50617381D01*
X79033762Y-50569762D01*
X78938524Y-50474524D01*
X78890905Y-50379286D01*
X78843286Y-50188810D01*
X78843286Y-50045952D01*
X78890905Y-49855476D01*
X78938524Y-49760238D01*
X79033762Y-49665000D01*
X79176620Y-49617381D01*
X79271858Y-49617381D01*
X79414715Y-49665000D01*
X79462334Y-49712619D01*
X79843286Y-49712619D02*
X79890905Y-49665000D01*
X79986143Y-49617381D01*
X80224239Y-49617381D01*
X80319477Y-49665000D01*
X80367096Y-49712619D01*
X80414715Y-49807857D01*
X80414715Y-49903095D01*
X80367096Y-50045952D01*
X79795667Y-50617381D01*
X80414715Y-50617381D01*
X84637667Y-54697381D02*
X84637667Y-55411667D01*
X84590047Y-55554524D01*
X84494809Y-55649762D01*
X84351952Y-55697381D01*
X84256714Y-55697381D01*
X85113857Y-55697381D02*
X85113857Y-54697381D01*
X85494810Y-54697381D01*
X85590048Y-54745000D01*
X85637667Y-54792619D01*
X85685286Y-54887857D01*
X85685286Y-55030714D01*
X85637667Y-55125952D01*
X85590048Y-55173571D01*
X85494810Y-55221190D01*
X85113857Y-55221190D01*
X86637667Y-55697381D02*
X86066238Y-55697381D01*
X86351952Y-55697381D02*
X86351952Y-54697381D01*
X86256714Y-54840238D01*
X86161476Y-54935476D01*
X86066238Y-54983095D01*
X82637381Y-43759333D02*
X83351667Y-43759333D01*
X83494524Y-43806953D01*
X83589762Y-43902191D01*
X83637381Y-44045048D01*
X83637381Y-44140286D01*
X83637381Y-43283143D02*
X82637381Y-43283143D01*
X82637381Y-42902190D01*
X82685000Y-42806952D01*
X82732619Y-42759333D01*
X82827857Y-42711714D01*
X82970714Y-42711714D01*
X83065952Y-42759333D01*
X83113571Y-42806952D01*
X83161190Y-42902190D01*
X83161190Y-43283143D01*
X82732619Y-42330762D02*
X82685000Y-42283143D01*
X82637381Y-42187905D01*
X82637381Y-41949809D01*
X82685000Y-41854571D01*
X82732619Y-41806952D01*
X82827857Y-41759333D01*
X82923095Y-41759333D01*
X83065952Y-41806952D01*
X83637381Y-42378381D01*
X83637381Y-41759333D01*
X89098381Y-47632857D02*
X88622190Y-47966191D01*
X89098381Y-48204286D02*
X88098381Y-48204286D01*
X88098381Y-47823333D01*
X88146000Y-47728095D01*
X88193619Y-47680476D01*
X88288857Y-47632857D01*
X88431714Y-47632857D01*
X88526952Y-47680476D01*
X88574571Y-47728095D01*
X88622190Y-47823333D01*
X88622190Y-48204286D01*
X89098381Y-46680476D02*
X89098381Y-47251905D01*
X89098381Y-46966191D02*
X88098381Y-46966191D01*
X88241238Y-47061429D01*
X88336476Y-47156667D01*
X88384095Y-47251905D01*
X88098381Y-45775714D02*
X88098381Y-46251905D01*
X88574571Y-46299524D01*
X88526952Y-46251905D01*
X88479333Y-46156667D01*
X88479333Y-45918571D01*
X88526952Y-45823333D01*
X88574571Y-45775714D01*
X88669810Y-45728095D01*
X88907905Y-45728095D01*
X89003143Y-45775714D01*
X89050762Y-45823333D01*
X89098381Y-45918571D01*
X89098381Y-46156667D01*
X89050762Y-46251905D01*
X89003143Y-46299524D01*
X71445381Y-47378857D02*
X70969190Y-47712191D01*
X71445381Y-47950286D02*
X70445381Y-47950286D01*
X70445381Y-47569333D01*
X70493000Y-47474095D01*
X70540619Y-47426476D01*
X70635857Y-47378857D01*
X70778714Y-47378857D01*
X70873952Y-47426476D01*
X70921571Y-47474095D01*
X70969190Y-47569333D01*
X70969190Y-47950286D01*
X71445381Y-46426476D02*
X71445381Y-46997905D01*
X71445381Y-46712191D02*
X70445381Y-46712191D01*
X70588238Y-46807429D01*
X70683476Y-46902667D01*
X70731095Y-46997905D01*
X70445381Y-45569333D02*
X70445381Y-45759810D01*
X70493000Y-45855048D01*
X70540619Y-45902667D01*
X70683476Y-45997905D01*
X70873952Y-46045524D01*
X71254905Y-46045524D01*
X71350143Y-45997905D01*
X71397762Y-45950286D01*
X71445381Y-45855048D01*
X71445381Y-45664571D01*
X71397762Y-45569333D01*
X71350143Y-45521714D01*
X71254905Y-45474095D01*
X71016810Y-45474095D01*
X70921571Y-45521714D01*
X70873952Y-45569333D01*
X70826333Y-45664571D01*
X70826333Y-45855048D01*
X70873952Y-45950286D01*
X70921571Y-45997905D01*
X71016810Y-46045524D01*
X74620381Y-47378857D02*
X74144190Y-47712191D01*
X74620381Y-47950286D02*
X73620381Y-47950286D01*
X73620381Y-47569333D01*
X73668000Y-47474095D01*
X73715619Y-47426476D01*
X73810857Y-47378857D01*
X73953714Y-47378857D01*
X74048952Y-47426476D01*
X74096571Y-47474095D01*
X74144190Y-47569333D01*
X74144190Y-47950286D01*
X74620381Y-46426476D02*
X74620381Y-46997905D01*
X74620381Y-46712191D02*
X73620381Y-46712191D01*
X73763238Y-46807429D01*
X73858476Y-46902667D01*
X73906095Y-46997905D01*
X73620381Y-46093143D02*
X73620381Y-45426476D01*
X74620381Y-45855048D01*
X92400381Y-47378857D02*
X91924190Y-47712191D01*
X92400381Y-47950286D02*
X91400381Y-47950286D01*
X91400381Y-47569333D01*
X91448000Y-47474095D01*
X91495619Y-47426476D01*
X91590857Y-47378857D01*
X91733714Y-47378857D01*
X91828952Y-47426476D01*
X91876571Y-47474095D01*
X91924190Y-47569333D01*
X91924190Y-47950286D01*
X92400381Y-46426476D02*
X92400381Y-46997905D01*
X92400381Y-46712191D02*
X91400381Y-46712191D01*
X91543238Y-46807429D01*
X91638476Y-46902667D01*
X91686095Y-46997905D01*
X91828952Y-45855048D02*
X91781333Y-45950286D01*
X91733714Y-45997905D01*
X91638476Y-46045524D01*
X91590857Y-46045524D01*
X91495619Y-45997905D01*
X91448000Y-45950286D01*
X91400381Y-45855048D01*
X91400381Y-45664571D01*
X91448000Y-45569333D01*
X91495619Y-45521714D01*
X91590857Y-45474095D01*
X91638476Y-45474095D01*
X91733714Y-45521714D01*
X91781333Y-45569333D01*
X91828952Y-45664571D01*
X91828952Y-45855048D01*
X91876571Y-45950286D01*
X91924190Y-45997905D01*
X92019429Y-46045524D01*
X92209905Y-46045524D01*
X92305143Y-45997905D01*
X92352762Y-45950286D01*
X92400381Y-45855048D01*
X92400381Y-45664571D01*
X92352762Y-45569333D01*
X92305143Y-45521714D01*
X92209905Y-45474095D01*
X92019429Y-45474095D01*
X91924190Y-45521714D01*
X91876571Y-45569333D01*
X91828952Y-45664571D01*
X98067905Y-46172381D02*
X98067905Y-45172381D01*
X98306000Y-45172381D01*
X98448858Y-45220000D01*
X98544096Y-45315238D01*
X98591715Y-45410476D01*
X98639334Y-45600952D01*
X98639334Y-45743810D01*
X98591715Y-45934286D01*
X98544096Y-46029524D01*
X98448858Y-46124762D01*
X98306000Y-46172381D01*
X98067905Y-46172381D01*
X99591715Y-46172381D02*
X99020286Y-46172381D01*
X99306000Y-46172381D02*
X99306000Y-45172381D01*
X99210762Y-45315238D01*
X99115524Y-45410476D01*
X99020286Y-45458095D01*
X63650905Y-46807381D02*
X63650905Y-45807381D01*
X63889000Y-45807381D01*
X64031858Y-45855000D01*
X64127096Y-45950238D01*
X64174715Y-46045476D01*
X64222334Y-46235952D01*
X64222334Y-46378810D01*
X64174715Y-46569286D01*
X64127096Y-46664524D01*
X64031858Y-46759762D01*
X63889000Y-46807381D01*
X63650905Y-46807381D01*
X64555667Y-45807381D02*
X65174715Y-45807381D01*
X64841381Y-46188333D01*
X64984239Y-46188333D01*
X65079477Y-46235952D01*
X65127096Y-46283571D01*
X65174715Y-46378810D01*
X65174715Y-46616905D01*
X65127096Y-46712143D01*
X65079477Y-46759762D01*
X64984239Y-46807381D01*
X64698524Y-46807381D01*
X64603286Y-46759762D01*
X64555667Y-46712143D01*
X98067905Y-43378381D02*
X98067905Y-42378381D01*
X98306000Y-42378381D01*
X98448858Y-42426000D01*
X98544096Y-42521238D01*
X98591715Y-42616476D01*
X98639334Y-42806952D01*
X98639334Y-42949810D01*
X98591715Y-43140286D01*
X98544096Y-43235524D01*
X98448858Y-43330762D01*
X98306000Y-43378381D01*
X98067905Y-43378381D01*
X99496477Y-42711714D02*
X99496477Y-43378381D01*
X99258381Y-42330762D02*
X99020286Y-43045048D01*
X99639334Y-43045048D01*
X63650905Y-44013381D02*
X63650905Y-43013381D01*
X63889000Y-43013381D01*
X64031858Y-43061000D01*
X64127096Y-43156238D01*
X64174715Y-43251476D01*
X64222334Y-43441952D01*
X64222334Y-43584810D01*
X64174715Y-43775286D01*
X64127096Y-43870524D01*
X64031858Y-43965762D01*
X63889000Y-44013381D01*
X63650905Y-44013381D01*
X65127096Y-43013381D02*
X64650905Y-43013381D01*
X64603286Y-43489571D01*
X64650905Y-43441952D01*
X64746143Y-43394333D01*
X64984239Y-43394333D01*
X65079477Y-43441952D01*
X65127096Y-43489571D01*
X65174715Y-43584810D01*
X65174715Y-43822905D01*
X65127096Y-43918143D01*
X65079477Y-43965762D01*
X64984239Y-44013381D01*
X64746143Y-44013381D01*
X64650905Y-43965762D01*
X64603286Y-43918143D01*
X94511905Y-134437381D02*
X94511905Y-133437381D01*
X94750000Y-133437381D01*
X94892858Y-133485000D01*
X94988096Y-133580238D01*
X95035715Y-133675476D01*
X95083334Y-133865952D01*
X95083334Y-134008810D01*
X95035715Y-134199286D01*
X94988096Y-134294524D01*
X94892858Y-134389762D01*
X94750000Y-134437381D01*
X94511905Y-134437381D01*
X95940477Y-133437381D02*
X95750000Y-133437381D01*
X95654762Y-133485000D01*
X95607143Y-133532619D01*
X95511905Y-133675476D01*
X95464286Y-133865952D01*
X95464286Y-134246905D01*
X95511905Y-134342143D01*
X95559524Y-134389762D01*
X95654762Y-134437381D01*
X95845239Y-134437381D01*
X95940477Y-134389762D01*
X95988096Y-134342143D01*
X96035715Y-134246905D01*
X96035715Y-134008810D01*
X95988096Y-133913571D01*
X95940477Y-133865952D01*
X95845239Y-133818333D01*
X95654762Y-133818333D01*
X95559524Y-133865952D01*
X95511905Y-133913571D01*
X95464286Y-134008810D01*
X57348381Y-135612095D02*
X56348381Y-135612095D01*
X56348381Y-135374000D01*
X56396000Y-135231142D01*
X56491238Y-135135904D01*
X56586476Y-135088285D01*
X56776952Y-135040666D01*
X56919810Y-135040666D01*
X57110286Y-135088285D01*
X57205524Y-135135904D01*
X57300762Y-135231142D01*
X57348381Y-135374000D01*
X57348381Y-135612095D01*
X56348381Y-134707333D02*
X56348381Y-134040666D01*
X57348381Y-134469238D01*
X94765905Y-137231381D02*
X94765905Y-136231381D01*
X95004000Y-136231381D01*
X95146858Y-136279000D01*
X95242096Y-136374238D01*
X95289715Y-136469476D01*
X95337334Y-136659952D01*
X95337334Y-136802810D01*
X95289715Y-136993286D01*
X95242096Y-137088524D01*
X95146858Y-137183762D01*
X95004000Y-137231381D01*
X94765905Y-137231381D01*
X95908762Y-136659952D02*
X95813524Y-136612333D01*
X95765905Y-136564714D01*
X95718286Y-136469476D01*
X95718286Y-136421857D01*
X95765905Y-136326619D01*
X95813524Y-136279000D01*
X95908762Y-136231381D01*
X96099239Y-136231381D01*
X96194477Y-136279000D01*
X96242096Y-136326619D01*
X96289715Y-136421857D01*
X96289715Y-136469476D01*
X96242096Y-136564714D01*
X96194477Y-136612333D01*
X96099239Y-136659952D01*
X95908762Y-136659952D01*
X95813524Y-136707571D01*
X95765905Y-136755190D01*
X95718286Y-136850429D01*
X95718286Y-137040905D01*
X95765905Y-137136143D01*
X95813524Y-137183762D01*
X95908762Y-137231381D01*
X96099239Y-137231381D01*
X96194477Y-137183762D01*
X96242096Y-137136143D01*
X96289715Y-137040905D01*
X96289715Y-136850429D01*
X96242096Y-136755190D01*
X96194477Y-136707571D01*
X96099239Y-136659952D01*
X50220667Y-129329381D02*
X50220667Y-130043667D01*
X50173047Y-130186524D01*
X50077809Y-130281762D01*
X49934952Y-130329381D01*
X49839714Y-130329381D01*
X50696857Y-130329381D02*
X50696857Y-129329381D01*
X51077810Y-129329381D01*
X51173048Y-129377000D01*
X51220667Y-129424619D01*
X51268286Y-129519857D01*
X51268286Y-129662714D01*
X51220667Y-129757952D01*
X51173048Y-129805571D01*
X51077810Y-129853190D01*
X50696857Y-129853190D01*
X52173048Y-129329381D02*
X51696857Y-129329381D01*
X51649238Y-129805571D01*
X51696857Y-129757952D01*
X51792095Y-129710333D01*
X52030191Y-129710333D01*
X52125429Y-129757952D01*
X52173048Y-129805571D01*
X52220667Y-129900810D01*
X52220667Y-130138905D01*
X52173048Y-130234143D01*
X52125429Y-130281762D01*
X52030191Y-130329381D01*
X51792095Y-130329381D01*
X51696857Y-130281762D01*
X51649238Y-130234143D01*
X69143667Y-128357381D02*
X69143667Y-129071667D01*
X69096047Y-129214524D01*
X69000809Y-129309762D01*
X68857952Y-129357381D01*
X68762714Y-129357381D01*
X69619857Y-129357381D02*
X69619857Y-128357381D01*
X70000810Y-128357381D01*
X70096048Y-128405000D01*
X70143667Y-128452619D01*
X70191286Y-128547857D01*
X70191286Y-128690714D01*
X70143667Y-128785952D01*
X70096048Y-128833571D01*
X70000810Y-128881190D01*
X69619857Y-128881190D01*
X70524619Y-128357381D02*
X71191286Y-128357381D01*
X70762714Y-129357381D01*
X77525667Y-127976381D02*
X77525667Y-128690667D01*
X77478047Y-128833524D01*
X77382809Y-128928762D01*
X77239952Y-128976381D01*
X77144714Y-128976381D01*
X78001857Y-128976381D02*
X78001857Y-127976381D01*
X78382810Y-127976381D01*
X78478048Y-128024000D01*
X78525667Y-128071619D01*
X78573286Y-128166857D01*
X78573286Y-128309714D01*
X78525667Y-128404952D01*
X78478048Y-128452571D01*
X78382810Y-128500190D01*
X78001857Y-128500190D01*
X79144714Y-128404952D02*
X79049476Y-128357333D01*
X79001857Y-128309714D01*
X78954238Y-128214476D01*
X78954238Y-128166857D01*
X79001857Y-128071619D01*
X79049476Y-128024000D01*
X79144714Y-127976381D01*
X79335191Y-127976381D01*
X79430429Y-128024000D01*
X79478048Y-128071619D01*
X79525667Y-128166857D01*
X79525667Y-128214476D01*
X79478048Y-128309714D01*
X79430429Y-128357333D01*
X79335191Y-128404952D01*
X79144714Y-128404952D01*
X79049476Y-128452571D01*
X79001857Y-128500190D01*
X78954238Y-128595429D01*
X78954238Y-128785905D01*
X79001857Y-128881143D01*
X79049476Y-128928762D01*
X79144714Y-128976381D01*
X79335191Y-128976381D01*
X79430429Y-128928762D01*
X79478048Y-128881143D01*
X79525667Y-128785905D01*
X79525667Y-128595429D01*
X79478048Y-128500190D01*
X79430429Y-128452571D01*
X79335191Y-128404952D01*
X88463381Y-134881857D02*
X87987190Y-135215191D01*
X88463381Y-135453286D02*
X87463381Y-135453286D01*
X87463381Y-135072333D01*
X87511000Y-134977095D01*
X87558619Y-134929476D01*
X87653857Y-134881857D01*
X87796714Y-134881857D01*
X87891952Y-134929476D01*
X87939571Y-134977095D01*
X87987190Y-135072333D01*
X87987190Y-135453286D01*
X88463381Y-133929476D02*
X88463381Y-134500905D01*
X88463381Y-134215191D02*
X87463381Y-134215191D01*
X87606238Y-134310429D01*
X87701476Y-134405667D01*
X87749095Y-134500905D01*
X88463381Y-133453286D02*
X88463381Y-133262810D01*
X88415762Y-133167571D01*
X88368143Y-133119952D01*
X88225286Y-133024714D01*
X88034810Y-132977095D01*
X87653857Y-132977095D01*
X87558619Y-133024714D01*
X87511000Y-133072333D01*
X87463381Y-133167571D01*
X87463381Y-133358048D01*
X87511000Y-133453286D01*
X87558619Y-133500905D01*
X87653857Y-133548524D01*
X87891952Y-133548524D01*
X87987190Y-133500905D01*
X88034810Y-133453286D01*
X88082429Y-133358048D01*
X88082429Y-133167571D01*
X88034810Y-133072333D01*
X87987190Y-133024714D01*
X87891952Y-132977095D01*
X85542381Y-134500857D02*
X85066190Y-134834191D01*
X85542381Y-135072286D02*
X84542381Y-135072286D01*
X84542381Y-134691333D01*
X84590000Y-134596095D01*
X84637619Y-134548476D01*
X84732857Y-134500857D01*
X84875714Y-134500857D01*
X84970952Y-134548476D01*
X85018571Y-134596095D01*
X85066190Y-134691333D01*
X85066190Y-135072286D01*
X84637619Y-134119905D02*
X84590000Y-134072286D01*
X84542381Y-133977048D01*
X84542381Y-133738952D01*
X84590000Y-133643714D01*
X84637619Y-133596095D01*
X84732857Y-133548476D01*
X84828095Y-133548476D01*
X84970952Y-133596095D01*
X85542381Y-134167524D01*
X85542381Y-133548476D01*
X84542381Y-132929429D02*
X84542381Y-132834190D01*
X84590000Y-132738952D01*
X84637619Y-132691333D01*
X84732857Y-132643714D01*
X84923333Y-132596095D01*
X85161429Y-132596095D01*
X85351905Y-132643714D01*
X85447143Y-132691333D01*
X85494762Y-132738952D01*
X85542381Y-132834190D01*
X85542381Y-132929429D01*
X85494762Y-133024667D01*
X85447143Y-133072286D01*
X85351905Y-133119905D01*
X85161429Y-133167524D01*
X84923333Y-133167524D01*
X84732857Y-133119905D01*
X84637619Y-133072286D01*
X84590000Y-133024667D01*
X84542381Y-132929429D01*
X65637981Y-50414133D02*
X66352267Y-50414133D01*
X66495124Y-50461753D01*
X66590362Y-50556991D01*
X66637981Y-50699848D01*
X66637981Y-50795086D01*
X66637981Y-49937943D02*
X65637981Y-49937943D01*
X65637981Y-49556990D01*
X65685600Y-49461752D01*
X65733219Y-49414133D01*
X65828457Y-49366514D01*
X65971314Y-49366514D01*
X66066552Y-49414133D01*
X66114171Y-49461752D01*
X66161790Y-49556990D01*
X66161790Y-49937943D01*
X65971314Y-48509371D02*
X66637981Y-48509371D01*
X65590362Y-48747467D02*
X66304648Y-48985562D01*
X66304648Y-48366514D01*
X94406981Y-116117666D02*
X93930790Y-116451000D01*
X94406981Y-116689095D02*
X93406981Y-116689095D01*
X93406981Y-116308142D01*
X93454600Y-116212904D01*
X93502219Y-116165285D01*
X93597457Y-116117666D01*
X93740314Y-116117666D01*
X93835552Y-116165285D01*
X93883171Y-116212904D01*
X93930790Y-116308142D01*
X93930790Y-116689095D01*
X93406981Y-115212904D02*
X93406981Y-115689095D01*
X93883171Y-115736714D01*
X93835552Y-115689095D01*
X93787933Y-115593857D01*
X93787933Y-115355761D01*
X93835552Y-115260523D01*
X93883171Y-115212904D01*
X93978410Y-115165285D01*
X94216505Y-115165285D01*
X94311743Y-115212904D01*
X94359362Y-115260523D01*
X94406981Y-115355761D01*
X94406981Y-115593857D01*
X94359362Y-115689095D01*
X94311743Y-115736714D01*
X91003381Y-116778066D02*
X90527190Y-117111400D01*
X91003381Y-117349495D02*
X90003381Y-117349495D01*
X90003381Y-116968542D01*
X90051000Y-116873304D01*
X90098619Y-116825685D01*
X90193857Y-116778066D01*
X90336714Y-116778066D01*
X90431952Y-116825685D01*
X90479571Y-116873304D01*
X90527190Y-116968542D01*
X90527190Y-117349495D01*
X91003381Y-116301876D02*
X91003381Y-116111400D01*
X90955762Y-116016161D01*
X90908143Y-115968542D01*
X90765286Y-115873304D01*
X90574810Y-115825685D01*
X90193857Y-115825685D01*
X90098619Y-115873304D01*
X90051000Y-115920923D01*
X90003381Y-116016161D01*
X90003381Y-116206638D01*
X90051000Y-116301876D01*
X90098619Y-116349495D01*
X90193857Y-116397114D01*
X90431952Y-116397114D01*
X90527190Y-116349495D01*
X90574810Y-116301876D01*
X90622429Y-116206638D01*
X90622429Y-116016161D01*
X90574810Y-115920923D01*
X90527190Y-115873304D01*
X90431952Y-115825685D01*
X86913981Y-116911357D02*
X86437790Y-117244691D01*
X86913981Y-117482786D02*
X85913981Y-117482786D01*
X85913981Y-117101833D01*
X85961600Y-117006595D01*
X86009219Y-116958976D01*
X86104457Y-116911357D01*
X86247314Y-116911357D01*
X86342552Y-116958976D01*
X86390171Y-117006595D01*
X86437790Y-117101833D01*
X86437790Y-117482786D01*
X86913981Y-115958976D02*
X86913981Y-116530405D01*
X86913981Y-116244691D02*
X85913981Y-116244691D01*
X86056838Y-116339929D01*
X86152076Y-116435167D01*
X86199695Y-116530405D01*
X86913981Y-115006595D02*
X86913981Y-115578024D01*
X86913981Y-115292310D02*
X85913981Y-115292310D01*
X86056838Y-115387548D01*
X86152076Y-115482786D01*
X86199695Y-115578024D01*
X83142081Y-116644657D02*
X82665890Y-116977991D01*
X83142081Y-117216086D02*
X82142081Y-117216086D01*
X82142081Y-116835133D01*
X82189700Y-116739895D01*
X82237319Y-116692276D01*
X82332557Y-116644657D01*
X82475414Y-116644657D01*
X82570652Y-116692276D01*
X82618271Y-116739895D01*
X82665890Y-116835133D01*
X82665890Y-117216086D01*
X83142081Y-115692276D02*
X83142081Y-116263705D01*
X83142081Y-115977991D02*
X82142081Y-115977991D01*
X82284938Y-116073229D01*
X82380176Y-116168467D01*
X82427795Y-116263705D01*
X82142081Y-115358943D02*
X82142081Y-114739895D01*
X82523033Y-115073229D01*
X82523033Y-114930371D01*
X82570652Y-114835133D01*
X82618271Y-114787514D01*
X82713510Y-114739895D01*
X82951605Y-114739895D01*
X83046843Y-114787514D01*
X83094462Y-114835133D01*
X83142081Y-114930371D01*
X83142081Y-115216086D01*
X83094462Y-115311324D01*
X83046843Y-115358943D01*
X58232301Y-116873257D02*
X57756110Y-117206591D01*
X58232301Y-117444686D02*
X57232301Y-117444686D01*
X57232301Y-117063733D01*
X57279920Y-116968495D01*
X57327539Y-116920876D01*
X57422777Y-116873257D01*
X57565634Y-116873257D01*
X57660872Y-116920876D01*
X57708491Y-116968495D01*
X57756110Y-117063733D01*
X57756110Y-117444686D01*
X57327539Y-116492305D02*
X57279920Y-116444686D01*
X57232301Y-116349448D01*
X57232301Y-116111352D01*
X57279920Y-116016114D01*
X57327539Y-115968495D01*
X57422777Y-115920876D01*
X57518015Y-115920876D01*
X57660872Y-115968495D01*
X58232301Y-116539924D01*
X58232301Y-115920876D01*
X58232301Y-114968495D02*
X58232301Y-115539924D01*
X58232301Y-115254210D02*
X57232301Y-115254210D01*
X57375158Y-115349448D01*
X57470396Y-115444686D01*
X57518015Y-115539924D01*
X78951081Y-116885957D02*
X78474890Y-117219291D01*
X78951081Y-117457386D02*
X77951081Y-117457386D01*
X77951081Y-117076433D01*
X77998700Y-116981195D01*
X78046319Y-116933576D01*
X78141557Y-116885957D01*
X78284414Y-116885957D01*
X78379652Y-116933576D01*
X78427271Y-116981195D01*
X78474890Y-117076433D01*
X78474890Y-117457386D01*
X78046319Y-116505005D02*
X77998700Y-116457386D01*
X77951081Y-116362148D01*
X77951081Y-116124052D01*
X77998700Y-116028814D01*
X78046319Y-115981195D01*
X78141557Y-115933576D01*
X78236795Y-115933576D01*
X78379652Y-115981195D01*
X78951081Y-116552624D01*
X78951081Y-115933576D01*
X78046319Y-115552624D02*
X77998700Y-115505005D01*
X77951081Y-115409767D01*
X77951081Y-115171671D01*
X77998700Y-115076433D01*
X78046319Y-115028814D01*
X78141557Y-114981195D01*
X78236795Y-114981195D01*
X78379652Y-115028814D01*
X78951081Y-115600243D01*
X78951081Y-114981195D01*
X75064881Y-116809757D02*
X74588690Y-117143091D01*
X75064881Y-117381186D02*
X74064881Y-117381186D01*
X74064881Y-117000233D01*
X74112500Y-116904995D01*
X74160119Y-116857376D01*
X74255357Y-116809757D01*
X74398214Y-116809757D01*
X74493452Y-116857376D01*
X74541071Y-116904995D01*
X74588690Y-117000233D01*
X74588690Y-117381186D01*
X74160119Y-116428805D02*
X74112500Y-116381186D01*
X74064881Y-116285948D01*
X74064881Y-116047852D01*
X74112500Y-115952614D01*
X74160119Y-115904995D01*
X74255357Y-115857376D01*
X74350595Y-115857376D01*
X74493452Y-115904995D01*
X75064881Y-116476424D01*
X75064881Y-115857376D01*
X74064881Y-115524043D02*
X74064881Y-114904995D01*
X74445833Y-115238329D01*
X74445833Y-115095471D01*
X74493452Y-115000233D01*
X74541071Y-114952614D01*
X74636310Y-114904995D01*
X74874405Y-114904995D01*
X74969643Y-114952614D01*
X75017262Y-115000233D01*
X75064881Y-115095471D01*
X75064881Y-115381186D01*
X75017262Y-115476424D01*
X74969643Y-115524043D01*
X70696081Y-117051057D02*
X70219890Y-117384391D01*
X70696081Y-117622486D02*
X69696081Y-117622486D01*
X69696081Y-117241533D01*
X69743700Y-117146295D01*
X69791319Y-117098676D01*
X69886557Y-117051057D01*
X70029414Y-117051057D01*
X70124652Y-117098676D01*
X70172271Y-117146295D01*
X70219890Y-117241533D01*
X70219890Y-117622486D01*
X69791319Y-116670105D02*
X69743700Y-116622486D01*
X69696081Y-116527248D01*
X69696081Y-116289152D01*
X69743700Y-116193914D01*
X69791319Y-116146295D01*
X69886557Y-116098676D01*
X69981795Y-116098676D01*
X70124652Y-116146295D01*
X70696081Y-116717724D01*
X70696081Y-116098676D01*
X70029414Y-115241533D02*
X70696081Y-115241533D01*
X69648462Y-115479629D02*
X70362748Y-115717724D01*
X70362748Y-115098676D01*
X62199781Y-116898657D02*
X61723590Y-117231991D01*
X62199781Y-117470086D02*
X61199781Y-117470086D01*
X61199781Y-117089133D01*
X61247400Y-116993895D01*
X61295019Y-116946276D01*
X61390257Y-116898657D01*
X61533114Y-116898657D01*
X61628352Y-116946276D01*
X61675971Y-116993895D01*
X61723590Y-117089133D01*
X61723590Y-117470086D01*
X61295019Y-116517705D02*
X61247400Y-116470086D01*
X61199781Y-116374848D01*
X61199781Y-116136752D01*
X61247400Y-116041514D01*
X61295019Y-115993895D01*
X61390257Y-115946276D01*
X61485495Y-115946276D01*
X61628352Y-115993895D01*
X62199781Y-116565324D01*
X62199781Y-115946276D01*
X61199781Y-115041514D02*
X61199781Y-115517705D01*
X61675971Y-115565324D01*
X61628352Y-115517705D01*
X61580733Y-115422467D01*
X61580733Y-115184371D01*
X61628352Y-115089133D01*
X61675971Y-115041514D01*
X61771210Y-114993895D01*
X62009305Y-114993895D01*
X62104543Y-115041514D01*
X62152162Y-115089133D01*
X62199781Y-115184371D01*
X62199781Y-115422467D01*
X62152162Y-115517705D01*
X62104543Y-115565324D01*
X66135882Y-116840057D02*
X65659691Y-117173391D01*
X66135882Y-117411486D02*
X65135882Y-117411486D01*
X65135882Y-117030533D01*
X65183501Y-116935295D01*
X65231120Y-116887676D01*
X65326358Y-116840057D01*
X65469215Y-116840057D01*
X65564453Y-116887676D01*
X65612072Y-116935295D01*
X65659691Y-117030533D01*
X65659691Y-117411486D01*
X65231120Y-116459105D02*
X65183501Y-116411486D01*
X65135882Y-116316248D01*
X65135882Y-116078152D01*
X65183501Y-115982914D01*
X65231120Y-115935295D01*
X65326358Y-115887676D01*
X65421596Y-115887676D01*
X65564453Y-115935295D01*
X66135882Y-116506724D01*
X66135882Y-115887676D01*
X65135882Y-115030533D02*
X65135882Y-115221010D01*
X65183501Y-115316248D01*
X65231120Y-115363867D01*
X65373977Y-115459105D01*
X65564453Y-115506724D01*
X65945406Y-115506724D01*
X66040644Y-115459105D01*
X66088263Y-115411486D01*
X66135882Y-115316248D01*
X66135882Y-115125771D01*
X66088263Y-115030533D01*
X66040644Y-114982914D01*
X65945406Y-114935295D01*
X65707311Y-114935295D01*
X65612072Y-114982914D01*
X65564453Y-115030533D01*
X65516834Y-115125771D01*
X65516834Y-115316248D01*
X65564453Y-115411486D01*
X65612072Y-115459105D01*
X65707311Y-115506724D01*
X96510101Y-88457066D02*
X96033910Y-88790400D01*
X96510101Y-89028495D02*
X95510101Y-89028495D01*
X95510101Y-88647542D01*
X95557720Y-88552304D01*
X95605339Y-88504685D01*
X95700577Y-88457066D01*
X95843434Y-88457066D01*
X95938672Y-88504685D01*
X95986291Y-88552304D01*
X96033910Y-88647542D01*
X96033910Y-89028495D01*
X96510101Y-87504685D02*
X96510101Y-88076114D01*
X96510101Y-87790400D02*
X95510101Y-87790400D01*
X95652958Y-87885638D01*
X95748196Y-87980876D01*
X95795815Y-88076114D01*
X100421701Y-88680586D02*
X99945510Y-89013920D01*
X100421701Y-89252015D02*
X99421701Y-89252015D01*
X99421701Y-88871062D01*
X99469320Y-88775824D01*
X99516939Y-88728205D01*
X99612177Y-88680586D01*
X99755034Y-88680586D01*
X99850272Y-88728205D01*
X99897891Y-88775824D01*
X99945510Y-88871062D01*
X99945510Y-89252015D01*
X99516939Y-88299634D02*
X99469320Y-88252015D01*
X99421701Y-88156777D01*
X99421701Y-87918681D01*
X99469320Y-87823443D01*
X99516939Y-87775824D01*
X99612177Y-87728205D01*
X99707415Y-87728205D01*
X99850272Y-87775824D01*
X100421701Y-88347253D01*
X100421701Y-87728205D01*
X104500941Y-88904106D02*
X104024750Y-89237440D01*
X104500941Y-89475535D02*
X103500941Y-89475535D01*
X103500941Y-89094582D01*
X103548560Y-88999344D01*
X103596179Y-88951725D01*
X103691417Y-88904106D01*
X103834274Y-88904106D01*
X103929512Y-88951725D01*
X103977131Y-88999344D01*
X104024750Y-89094582D01*
X104024750Y-89475535D01*
X103500941Y-88570773D02*
X103500941Y-87951725D01*
X103881893Y-88285059D01*
X103881893Y-88142201D01*
X103929512Y-88046963D01*
X103977131Y-87999344D01*
X104072370Y-87951725D01*
X104310465Y-87951725D01*
X104405703Y-87999344D01*
X104453322Y-88046963D01*
X104500941Y-88142201D01*
X104500941Y-88427916D01*
X104453322Y-88523154D01*
X104405703Y-88570773D01*
X108580181Y-88680586D02*
X108103990Y-89013920D01*
X108580181Y-89252015D02*
X107580181Y-89252015D01*
X107580181Y-88871062D01*
X107627800Y-88775824D01*
X107675419Y-88728205D01*
X107770657Y-88680586D01*
X107913514Y-88680586D01*
X108008752Y-88728205D01*
X108056371Y-88775824D01*
X108103990Y-88871062D01*
X108103990Y-89252015D01*
X107913514Y-87823443D02*
X108580181Y-87823443D01*
X107532562Y-88061539D02*
X108246848Y-88299634D01*
X108246848Y-87680586D01*
X112771181Y-89212657D02*
X112294990Y-89545991D01*
X112771181Y-89784086D02*
X111771181Y-89784086D01*
X111771181Y-89403133D01*
X111818800Y-89307895D01*
X111866419Y-89260276D01*
X111961657Y-89212657D01*
X112104514Y-89212657D01*
X112199752Y-89260276D01*
X112247371Y-89307895D01*
X112294990Y-89403133D01*
X112294990Y-89784086D01*
X111866419Y-88831705D02*
X111818800Y-88784086D01*
X111771181Y-88688848D01*
X111771181Y-88450752D01*
X111818800Y-88355514D01*
X111866419Y-88307895D01*
X111961657Y-88260276D01*
X112056895Y-88260276D01*
X112199752Y-88307895D01*
X112771181Y-88879324D01*
X112771181Y-88260276D01*
X111771181Y-87926943D02*
X111771181Y-87260276D01*
X112771181Y-87688848D01*
X117223801Y-89291397D02*
X116747610Y-89624731D01*
X117223801Y-89862826D02*
X116223801Y-89862826D01*
X116223801Y-89481873D01*
X116271420Y-89386635D01*
X116319039Y-89339016D01*
X116414277Y-89291397D01*
X116557134Y-89291397D01*
X116652372Y-89339016D01*
X116699991Y-89386635D01*
X116747610Y-89481873D01*
X116747610Y-89862826D01*
X116319039Y-88910445D02*
X116271420Y-88862826D01*
X116223801Y-88767588D01*
X116223801Y-88529492D01*
X116271420Y-88434254D01*
X116319039Y-88386635D01*
X116414277Y-88339016D01*
X116509515Y-88339016D01*
X116652372Y-88386635D01*
X117223801Y-88958064D01*
X117223801Y-88339016D01*
X116652372Y-87767588D02*
X116604753Y-87862826D01*
X116557134Y-87910445D01*
X116461896Y-87958064D01*
X116414277Y-87958064D01*
X116319039Y-87910445D01*
X116271420Y-87862826D01*
X116223801Y-87767588D01*
X116223801Y-87577111D01*
X116271420Y-87481873D01*
X116319039Y-87434254D01*
X116414277Y-87386635D01*
X116461896Y-87386635D01*
X116557134Y-87434254D01*
X116604753Y-87481873D01*
X116652372Y-87577111D01*
X116652372Y-87767588D01*
X116699991Y-87862826D01*
X116747610Y-87910445D01*
X116842849Y-87958064D01*
X117033325Y-87958064D01*
X117128563Y-87910445D01*
X117176182Y-87862826D01*
X117223801Y-87767588D01*
X117223801Y-87577111D01*
X117176182Y-87481873D01*
X117128563Y-87434254D01*
X117033325Y-87386635D01*
X116842849Y-87386635D01*
X116747610Y-87434254D01*
X116699991Y-87481873D01*
X116652372Y-87577111D01*
X120911881Y-88877377D02*
X120435690Y-89210711D01*
X120911881Y-89448806D02*
X119911881Y-89448806D01*
X119911881Y-89067853D01*
X119959500Y-88972615D01*
X120007119Y-88924996D01*
X120102357Y-88877377D01*
X120245214Y-88877377D01*
X120340452Y-88924996D01*
X120388071Y-88972615D01*
X120435690Y-89067853D01*
X120435690Y-89448806D01*
X120007119Y-88496425D02*
X119959500Y-88448806D01*
X119911881Y-88353568D01*
X119911881Y-88115472D01*
X119959500Y-88020234D01*
X120007119Y-87972615D01*
X120102357Y-87924996D01*
X120197595Y-87924996D01*
X120340452Y-87972615D01*
X120911881Y-88544044D01*
X120911881Y-87924996D01*
X120911881Y-87448806D02*
X120911881Y-87258330D01*
X120864262Y-87163091D01*
X120816643Y-87115472D01*
X120673786Y-87020234D01*
X120483310Y-86972615D01*
X120102357Y-86972615D01*
X120007119Y-87020234D01*
X119959500Y-87067853D01*
X119911881Y-87163091D01*
X119911881Y-87353568D01*
X119959500Y-87448806D01*
X120007119Y-87496425D01*
X120102357Y-87544044D01*
X120340452Y-87544044D01*
X120435690Y-87496425D01*
X120483310Y-87448806D01*
X120530929Y-87353568D01*
X120530929Y-87163091D01*
X120483310Y-87067853D01*
X120435690Y-87020234D01*
X120340452Y-86972615D01*
X124968261Y-89123757D02*
X124492070Y-89457091D01*
X124968261Y-89695186D02*
X123968261Y-89695186D01*
X123968261Y-89314233D01*
X124015880Y-89218995D01*
X124063499Y-89171376D01*
X124158737Y-89123757D01*
X124301594Y-89123757D01*
X124396832Y-89171376D01*
X124444451Y-89218995D01*
X124492070Y-89314233D01*
X124492070Y-89695186D01*
X123968261Y-88790424D02*
X123968261Y-88171376D01*
X124349213Y-88504710D01*
X124349213Y-88361852D01*
X124396832Y-88266614D01*
X124444451Y-88218995D01*
X124539690Y-88171376D01*
X124777785Y-88171376D01*
X124873023Y-88218995D01*
X124920642Y-88266614D01*
X124968261Y-88361852D01*
X124968261Y-88647567D01*
X124920642Y-88742805D01*
X124873023Y-88790424D01*
X123968261Y-87552329D02*
X123968261Y-87457090D01*
X124015880Y-87361852D01*
X124063499Y-87314233D01*
X124158737Y-87266614D01*
X124349213Y-87218995D01*
X124587309Y-87218995D01*
X124777785Y-87266614D01*
X124873023Y-87314233D01*
X124920642Y-87361852D01*
X124968261Y-87457090D01*
X124968261Y-87552329D01*
X124920642Y-87647567D01*
X124873023Y-87695186D01*
X124777785Y-87742805D01*
X124587309Y-87790424D01*
X124349213Y-87790424D01*
X124158737Y-87742805D01*
X124063499Y-87695186D01*
X124015880Y-87647567D01*
X123968261Y-87552329D01*
X128857001Y-89067877D02*
X128380810Y-89401211D01*
X128857001Y-89639306D02*
X127857001Y-89639306D01*
X127857001Y-89258353D01*
X127904620Y-89163115D01*
X127952239Y-89115496D01*
X128047477Y-89067877D01*
X128190334Y-89067877D01*
X128285572Y-89115496D01*
X128333191Y-89163115D01*
X128380810Y-89258353D01*
X128380810Y-89639306D01*
X127857001Y-88734544D02*
X127857001Y-88115496D01*
X128237953Y-88448830D01*
X128237953Y-88305972D01*
X128285572Y-88210734D01*
X128333191Y-88163115D01*
X128428430Y-88115496D01*
X128666525Y-88115496D01*
X128761763Y-88163115D01*
X128809382Y-88210734D01*
X128857001Y-88305972D01*
X128857001Y-88591687D01*
X128809382Y-88686925D01*
X128761763Y-88734544D01*
X128857001Y-87163115D02*
X128857001Y-87734544D01*
X128857001Y-87448830D02*
X127857001Y-87448830D01*
X127999858Y-87544068D01*
X128095096Y-87639306D01*
X128142715Y-87734544D01*
X132884542Y-89314077D02*
X132408351Y-89647411D01*
X132884542Y-89885506D02*
X131884542Y-89885506D01*
X131884542Y-89504553D01*
X131932161Y-89409315D01*
X131979780Y-89361696D01*
X132075018Y-89314077D01*
X132217875Y-89314077D01*
X132313113Y-89361696D01*
X132360732Y-89409315D01*
X132408351Y-89504553D01*
X132408351Y-89885506D01*
X131884542Y-88980744D02*
X131884542Y-88361696D01*
X132265494Y-88695030D01*
X132265494Y-88552172D01*
X132313113Y-88456934D01*
X132360732Y-88409315D01*
X132455971Y-88361696D01*
X132694066Y-88361696D01*
X132789304Y-88409315D01*
X132836923Y-88456934D01*
X132884542Y-88552172D01*
X132884542Y-88837887D01*
X132836923Y-88933125D01*
X132789304Y-88980744D01*
X131979780Y-87980744D02*
X131932161Y-87933125D01*
X131884542Y-87837887D01*
X131884542Y-87599791D01*
X131932161Y-87504553D01*
X131979780Y-87456934D01*
X132075018Y-87409315D01*
X132170256Y-87409315D01*
X132313113Y-87456934D01*
X132884542Y-88028363D01*
X132884542Y-87409315D01*
X96510101Y-64065446D02*
X96033910Y-64398780D01*
X96510101Y-64636875D02*
X95510101Y-64636875D01*
X95510101Y-64255922D01*
X95557720Y-64160684D01*
X95605339Y-64113065D01*
X95700577Y-64065446D01*
X95843434Y-64065446D01*
X95938672Y-64113065D01*
X95986291Y-64160684D01*
X96033910Y-64255922D01*
X96033910Y-64636875D01*
X95510101Y-63208303D02*
X95510101Y-63398780D01*
X95557720Y-63494018D01*
X95605339Y-63541637D01*
X95748196Y-63636875D01*
X95938672Y-63684494D01*
X96319625Y-63684494D01*
X96414863Y-63636875D01*
X96462482Y-63589256D01*
X96510101Y-63494018D01*
X96510101Y-63303541D01*
X96462482Y-63208303D01*
X96414863Y-63160684D01*
X96319625Y-63113065D01*
X96081530Y-63113065D01*
X95986291Y-63160684D01*
X95938672Y-63208303D01*
X95891053Y-63303541D01*
X95891053Y-63494018D01*
X95938672Y-63589256D01*
X95986291Y-63636875D01*
X96081530Y-63684494D01*
X92105741Y-64833737D02*
X91629550Y-65167071D01*
X92105741Y-65405166D02*
X91105741Y-65405166D01*
X91105741Y-65024213D01*
X91153360Y-64928975D01*
X91200979Y-64881356D01*
X91296217Y-64833737D01*
X91439074Y-64833737D01*
X91534312Y-64881356D01*
X91581931Y-64928975D01*
X91629550Y-65024213D01*
X91629550Y-65405166D01*
X92105741Y-63881356D02*
X92105741Y-64452785D01*
X92105741Y-64167071D02*
X91105741Y-64167071D01*
X91248598Y-64262309D01*
X91343836Y-64357547D01*
X91391455Y-64452785D01*
X91105741Y-63262309D02*
X91105741Y-63167070D01*
X91153360Y-63071832D01*
X91200979Y-63024213D01*
X91296217Y-62976594D01*
X91486693Y-62928975D01*
X91724789Y-62928975D01*
X91915265Y-62976594D01*
X92010503Y-63024213D01*
X92058122Y-63071832D01*
X92105741Y-63167070D01*
X92105741Y-63262309D01*
X92058122Y-63357547D01*
X92010503Y-63405166D01*
X91915265Y-63452785D01*
X91724789Y-63500404D01*
X91486693Y-63500404D01*
X91296217Y-63452785D01*
X91200979Y-63405166D01*
X91153360Y-63357547D01*
X91105741Y-63262309D01*
X88056981Y-64826117D02*
X87580790Y-65159451D01*
X88056981Y-65397546D02*
X87056981Y-65397546D01*
X87056981Y-65016593D01*
X87104600Y-64921355D01*
X87152219Y-64873736D01*
X87247457Y-64826117D01*
X87390314Y-64826117D01*
X87485552Y-64873736D01*
X87533171Y-64921355D01*
X87580790Y-65016593D01*
X87580790Y-65397546D01*
X88056981Y-63873736D02*
X88056981Y-64445165D01*
X88056981Y-64159451D02*
X87056981Y-64159451D01*
X87199838Y-64254689D01*
X87295076Y-64349927D01*
X87342695Y-64445165D01*
X87152219Y-63492784D02*
X87104600Y-63445165D01*
X87056981Y-63349927D01*
X87056981Y-63111831D01*
X87104600Y-63016593D01*
X87152219Y-62968974D01*
X87247457Y-62921355D01*
X87342695Y-62921355D01*
X87485552Y-62968974D01*
X88056981Y-63540403D01*
X88056981Y-62921355D01*
X83878681Y-65069957D02*
X83402490Y-65403291D01*
X83878681Y-65641386D02*
X82878681Y-65641386D01*
X82878681Y-65260433D01*
X82926300Y-65165195D01*
X82973919Y-65117576D01*
X83069157Y-65069957D01*
X83212014Y-65069957D01*
X83307252Y-65117576D01*
X83354871Y-65165195D01*
X83402490Y-65260433D01*
X83402490Y-65641386D01*
X83878681Y-64117576D02*
X83878681Y-64689005D01*
X83878681Y-64403291D02*
X82878681Y-64403291D01*
X83021538Y-64498529D01*
X83116776Y-64593767D01*
X83164395Y-64689005D01*
X83212014Y-63260433D02*
X83878681Y-63260433D01*
X82831062Y-63498529D02*
X83545348Y-63736624D01*
X83545348Y-63117576D01*
X79751181Y-64854057D02*
X79274990Y-65187391D01*
X79751181Y-65425486D02*
X78751181Y-65425486D01*
X78751181Y-65044533D01*
X78798800Y-64949295D01*
X78846419Y-64901676D01*
X78941657Y-64854057D01*
X79084514Y-64854057D01*
X79179752Y-64901676D01*
X79227371Y-64949295D01*
X79274990Y-65044533D01*
X79274990Y-65425486D01*
X78751181Y-64520724D02*
X78751181Y-63901676D01*
X79132133Y-64235010D01*
X79132133Y-64092152D01*
X79179752Y-63996914D01*
X79227371Y-63949295D01*
X79322610Y-63901676D01*
X79560705Y-63901676D01*
X79655943Y-63949295D01*
X79703562Y-63996914D01*
X79751181Y-64092152D01*
X79751181Y-64377867D01*
X79703562Y-64473105D01*
X79655943Y-64520724D01*
X78751181Y-63568343D02*
X78751181Y-62949295D01*
X79132133Y-63282629D01*
X79132133Y-63139771D01*
X79179752Y-63044533D01*
X79227371Y-62996914D01*
X79322610Y-62949295D01*
X79560705Y-62949295D01*
X79655943Y-62996914D01*
X79703562Y-63044533D01*
X79751181Y-63139771D01*
X79751181Y-63425486D01*
X79703562Y-63520724D01*
X79655943Y-63568343D01*
X75661781Y-64561957D02*
X75185590Y-64895291D01*
X75661781Y-65133386D02*
X74661781Y-65133386D01*
X74661781Y-64752433D01*
X74709400Y-64657195D01*
X74757019Y-64609576D01*
X74852257Y-64561957D01*
X74995114Y-64561957D01*
X75090352Y-64609576D01*
X75137971Y-64657195D01*
X75185590Y-64752433D01*
X75185590Y-65133386D01*
X74661781Y-64228624D02*
X74661781Y-63609576D01*
X75042733Y-63942910D01*
X75042733Y-63800052D01*
X75090352Y-63704814D01*
X75137971Y-63657195D01*
X75233210Y-63609576D01*
X75471305Y-63609576D01*
X75566543Y-63657195D01*
X75614162Y-63704814D01*
X75661781Y-63800052D01*
X75661781Y-64085767D01*
X75614162Y-64181005D01*
X75566543Y-64228624D01*
X74995114Y-62752433D02*
X75661781Y-62752433D01*
X74614162Y-62990529D02*
X75328448Y-63228624D01*
X75328448Y-62609576D01*
X71750181Y-64828657D02*
X71273990Y-65161991D01*
X71750181Y-65400086D02*
X70750181Y-65400086D01*
X70750181Y-65019133D01*
X70797800Y-64923895D01*
X70845419Y-64876276D01*
X70940657Y-64828657D01*
X71083514Y-64828657D01*
X71178752Y-64876276D01*
X71226371Y-64923895D01*
X71273990Y-65019133D01*
X71273990Y-65400086D01*
X70750181Y-64495324D02*
X70750181Y-63876276D01*
X71131133Y-64209610D01*
X71131133Y-64066752D01*
X71178752Y-63971514D01*
X71226371Y-63923895D01*
X71321610Y-63876276D01*
X71559705Y-63876276D01*
X71654943Y-63923895D01*
X71702562Y-63971514D01*
X71750181Y-64066752D01*
X71750181Y-64352467D01*
X71702562Y-64447705D01*
X71654943Y-64495324D01*
X70750181Y-62971514D02*
X70750181Y-63447705D01*
X71226371Y-63495324D01*
X71178752Y-63447705D01*
X71131133Y-63352467D01*
X71131133Y-63114371D01*
X71178752Y-63019133D01*
X71226371Y-62971514D01*
X71321610Y-62923895D01*
X71559705Y-62923895D01*
X71654943Y-62971514D01*
X71702562Y-63019133D01*
X71750181Y-63114371D01*
X71750181Y-63352467D01*
X71702562Y-63447705D01*
X71654943Y-63495324D01*
X67838581Y-64650857D02*
X67362390Y-64984191D01*
X67838581Y-65222286D02*
X66838581Y-65222286D01*
X66838581Y-64841333D01*
X66886200Y-64746095D01*
X66933819Y-64698476D01*
X67029057Y-64650857D01*
X67171914Y-64650857D01*
X67267152Y-64698476D01*
X67314771Y-64746095D01*
X67362390Y-64841333D01*
X67362390Y-65222286D01*
X66838581Y-64317524D02*
X66838581Y-63698476D01*
X67219533Y-64031810D01*
X67219533Y-63888952D01*
X67267152Y-63793714D01*
X67314771Y-63746095D01*
X67410010Y-63698476D01*
X67648105Y-63698476D01*
X67743343Y-63746095D01*
X67790962Y-63793714D01*
X67838581Y-63888952D01*
X67838581Y-64174667D01*
X67790962Y-64269905D01*
X67743343Y-64317524D01*
X66838581Y-62841333D02*
X66838581Y-63031810D01*
X66886200Y-63127048D01*
X66933819Y-63174667D01*
X67076676Y-63269905D01*
X67267152Y-63317524D01*
X67648105Y-63317524D01*
X67743343Y-63269905D01*
X67790962Y-63222286D01*
X67838581Y-63127048D01*
X67838581Y-62936571D01*
X67790962Y-62841333D01*
X67743343Y-62793714D01*
X67648105Y-62746095D01*
X67410010Y-62746095D01*
X67314771Y-62793714D01*
X67267152Y-62841333D01*
X67219533Y-62936571D01*
X67219533Y-63127048D01*
X67267152Y-63222286D01*
X67314771Y-63269905D01*
X67410010Y-63317524D01*
X63749181Y-64561957D02*
X63272990Y-64895291D01*
X63749181Y-65133386D02*
X62749181Y-65133386D01*
X62749181Y-64752433D01*
X62796800Y-64657195D01*
X62844419Y-64609576D01*
X62939657Y-64561957D01*
X63082514Y-64561957D01*
X63177752Y-64609576D01*
X63225371Y-64657195D01*
X63272990Y-64752433D01*
X63272990Y-65133386D01*
X62749181Y-64228624D02*
X62749181Y-63609576D01*
X63130133Y-63942910D01*
X63130133Y-63800052D01*
X63177752Y-63704814D01*
X63225371Y-63657195D01*
X63320610Y-63609576D01*
X63558705Y-63609576D01*
X63653943Y-63657195D01*
X63701562Y-63704814D01*
X63749181Y-63800052D01*
X63749181Y-64085767D01*
X63701562Y-64181005D01*
X63653943Y-64228624D01*
X62749181Y-63276243D02*
X62749181Y-62609576D01*
X63749181Y-63038148D01*
X59569982Y-65303457D02*
X59093791Y-65636791D01*
X59569982Y-65874886D02*
X58569982Y-65874886D01*
X58569982Y-65493933D01*
X58617601Y-65398695D01*
X58665220Y-65351076D01*
X58760458Y-65303457D01*
X58903315Y-65303457D01*
X58998553Y-65351076D01*
X59046172Y-65398695D01*
X59093791Y-65493933D01*
X59093791Y-65874886D01*
X58569982Y-64970124D02*
X58569982Y-64351076D01*
X58950934Y-64684410D01*
X58950934Y-64541552D01*
X58998553Y-64446314D01*
X59046172Y-64398695D01*
X59141411Y-64351076D01*
X59379506Y-64351076D01*
X59474744Y-64398695D01*
X59522363Y-64446314D01*
X59569982Y-64541552D01*
X59569982Y-64827267D01*
X59522363Y-64922505D01*
X59474744Y-64970124D01*
X58998553Y-63779648D02*
X58950934Y-63874886D01*
X58903315Y-63922505D01*
X58808077Y-63970124D01*
X58760458Y-63970124D01*
X58665220Y-63922505D01*
X58617601Y-63874886D01*
X58569982Y-63779648D01*
X58569982Y-63589171D01*
X58617601Y-63493933D01*
X58665220Y-63446314D01*
X58760458Y-63398695D01*
X58808077Y-63398695D01*
X58903315Y-63446314D01*
X58950934Y-63493933D01*
X58998553Y-63589171D01*
X58998553Y-63779648D01*
X59046172Y-63874886D01*
X59093791Y-63922505D01*
X59189030Y-63970124D01*
X59379506Y-63970124D01*
X59474744Y-63922505D01*
X59522363Y-63874886D01*
X59569982Y-63779648D01*
X59569982Y-63589171D01*
X59522363Y-63493933D01*
X59474744Y-63446314D01*
X59379506Y-63398695D01*
X59189030Y-63398695D01*
X59093791Y-63446314D01*
X59046172Y-63493933D01*
X58998553Y-63589171D01*
X132831627Y-59618181D02*
X132831627Y-60332467D01*
X132784007Y-60475324D01*
X132688769Y-60570562D01*
X132545912Y-60618181D01*
X132450674Y-60618181D01*
X133307817Y-60618181D02*
X133307817Y-59618181D01*
X133688770Y-59618181D01*
X133784008Y-59665800D01*
X133831627Y-59713419D01*
X133879246Y-59808657D01*
X133879246Y-59951514D01*
X133831627Y-60046752D01*
X133784008Y-60094371D01*
X133688770Y-60141990D01*
X133307817Y-60141990D01*
X134212579Y-59618181D02*
X134831627Y-59618181D01*
X134498293Y-59999133D01*
X134641151Y-59999133D01*
X134736389Y-60046752D01*
X134784008Y-60094371D01*
X134831627Y-60189610D01*
X134831627Y-60427705D01*
X134784008Y-60522943D01*
X134736389Y-60570562D01*
X134641151Y-60618181D01*
X134355436Y-60618181D01*
X134260198Y-60570562D01*
X134212579Y-60522943D01*
X98683867Y-49404021D02*
X98683867Y-50118307D01*
X98636247Y-50261164D01*
X98541009Y-50356402D01*
X98398152Y-50404021D01*
X98302914Y-50404021D01*
X99160057Y-50404021D02*
X99160057Y-49404021D01*
X99541010Y-49404021D01*
X99636248Y-49451640D01*
X99683867Y-49499259D01*
X99731486Y-49594497D01*
X99731486Y-49737354D01*
X99683867Y-49832592D01*
X99636248Y-49880211D01*
X99541010Y-49927830D01*
X99160057Y-49927830D01*
X100588629Y-49404021D02*
X100398152Y-49404021D01*
X100302914Y-49451640D01*
X100255295Y-49499259D01*
X100160057Y-49642116D01*
X100112438Y-49832592D01*
X100112438Y-50213545D01*
X100160057Y-50308783D01*
X100207676Y-50356402D01*
X100302914Y-50404021D01*
X100493391Y-50404021D01*
X100588629Y-50356402D01*
X100636248Y-50308783D01*
X100683867Y-50213545D01*
X100683867Y-49975450D01*
X100636248Y-49880211D01*
X100588629Y-49832592D01*
X100493391Y-49784973D01*
X100302914Y-49784973D01*
X100207676Y-49832592D01*
X100160057Y-49880211D01*
X100112438Y-49975450D01*
X98897227Y-128514861D02*
X98897227Y-129229147D01*
X98849607Y-129372004D01*
X98754369Y-129467242D01*
X98611512Y-129514861D01*
X98516274Y-129514861D01*
X99373417Y-129514861D02*
X99373417Y-128514861D01*
X99754370Y-128514861D01*
X99849608Y-128562480D01*
X99897227Y-128610099D01*
X99944846Y-128705337D01*
X99944846Y-128848194D01*
X99897227Y-128943432D01*
X99849608Y-128991051D01*
X99754370Y-129038670D01*
X99373417Y-129038670D01*
X100421036Y-129514861D02*
X100611512Y-129514861D01*
X100706751Y-129467242D01*
X100754370Y-129419623D01*
X100849608Y-129276766D01*
X100897227Y-129086290D01*
X100897227Y-128705337D01*
X100849608Y-128610099D01*
X100801989Y-128562480D01*
X100706751Y-128514861D01*
X100516274Y-128514861D01*
X100421036Y-128562480D01*
X100373417Y-128610099D01*
X100325798Y-128705337D01*
X100325798Y-128943432D01*
X100373417Y-129038670D01*
X100421036Y-129086290D01*
X100516274Y-129133909D01*
X100706751Y-129133909D01*
X100801989Y-129086290D01*
X100849608Y-129038670D01*
X100897227Y-128943432D01*
X136612477Y-120400381D02*
X136612477Y-121114667D01*
X136564857Y-121257524D01*
X136469619Y-121352762D01*
X136326762Y-121400381D01*
X136231524Y-121400381D01*
X137088667Y-121400381D02*
X137088667Y-120400381D01*
X137469620Y-120400381D01*
X137564858Y-120448000D01*
X137612477Y-120495619D01*
X137660096Y-120590857D01*
X137660096Y-120733714D01*
X137612477Y-120828952D01*
X137564858Y-120876571D01*
X137469620Y-120924190D01*
X137088667Y-120924190D01*
X138612477Y-121400381D02*
X138041048Y-121400381D01*
X138326762Y-121400381D02*
X138326762Y-120400381D01*
X138231524Y-120543238D01*
X138136286Y-120638476D01*
X138041048Y-120686095D01*
X139231524Y-120400381D02*
X139326763Y-120400381D01*
X139422001Y-120448000D01*
X139469620Y-120495619D01*
X139517239Y-120590857D01*
X139564858Y-120781333D01*
X139564858Y-121019429D01*
X139517239Y-121209905D01*
X139469620Y-121305143D01*
X139422001Y-121352762D01*
X139326763Y-121400381D01*
X139231524Y-121400381D01*
X139136286Y-121352762D01*
X139088667Y-121305143D01*
X139041048Y-121209905D01*
X138993429Y-121019429D01*
X138993429Y-120781333D01*
X139041048Y-120590857D01*
X139088667Y-120495619D01*
X139136286Y-120448000D01*
X139231524Y-120400381D01*
X133028394Y-102223843D02*
X132980775Y-102271462D01*
X132837918Y-102319081D01*
X132742680Y-102319081D01*
X132599822Y-102271462D01*
X132504584Y-102176224D01*
X132456965Y-102080986D01*
X132409346Y-101890510D01*
X132409346Y-101747652D01*
X132456965Y-101557176D01*
X132504584Y-101461938D01*
X132599822Y-101366700D01*
X132742680Y-101319081D01*
X132837918Y-101319081D01*
X132980775Y-101366700D01*
X133028394Y-101414319D01*
X133933156Y-101319081D02*
X133456965Y-101319081D01*
X133409346Y-101795271D01*
X133456965Y-101747652D01*
X133552203Y-101700033D01*
X133790299Y-101700033D01*
X133885537Y-101747652D01*
X133933156Y-101795271D01*
X133980775Y-101890510D01*
X133980775Y-102128605D01*
X133933156Y-102223843D01*
X133885537Y-102271462D01*
X133790299Y-102319081D01*
X133552203Y-102319081D01*
X133456965Y-102271462D01*
X133409346Y-102223843D01*
X127735034Y-78335143D02*
X127687415Y-78382762D01*
X127544558Y-78430381D01*
X127449320Y-78430381D01*
X127306462Y-78382762D01*
X127211224Y-78287524D01*
X127163605Y-78192286D01*
X127115986Y-78001810D01*
X127115986Y-77858952D01*
X127163605Y-77668476D01*
X127211224Y-77573238D01*
X127306462Y-77478000D01*
X127449320Y-77430381D01*
X127544558Y-77430381D01*
X127687415Y-77478000D01*
X127735034Y-77525619D01*
X128592177Y-77430381D02*
X128401700Y-77430381D01*
X128306462Y-77478000D01*
X128258843Y-77525619D01*
X128163605Y-77668476D01*
X128115986Y-77858952D01*
X128115986Y-78239905D01*
X128163605Y-78335143D01*
X128211224Y-78382762D01*
X128306462Y-78430381D01*
X128496939Y-78430381D01*
X128592177Y-78382762D01*
X128639796Y-78335143D01*
X128687415Y-78239905D01*
X128687415Y-78001810D01*
X128639796Y-77906571D01*
X128592177Y-77858952D01*
X128496939Y-77811333D01*
X128306462Y-77811333D01*
X128211224Y-77858952D01*
X128163605Y-77906571D01*
X128115986Y-78001810D01*
X56491143Y-80176666D02*
X56538762Y-80224285D01*
X56586381Y-80367142D01*
X56586381Y-80462380D01*
X56538762Y-80605238D01*
X56443524Y-80700476D01*
X56348286Y-80748095D01*
X56157810Y-80795714D01*
X56014952Y-80795714D01*
X55824476Y-80748095D01*
X55729238Y-80700476D01*
X55634000Y-80605238D01*
X55586381Y-80462380D01*
X55586381Y-80367142D01*
X55634000Y-80224285D01*
X55681619Y-80176666D01*
X55586381Y-79843333D02*
X55586381Y-79176666D01*
X56586381Y-79605238D01*
X74779143Y-94146666D02*
X74826762Y-94194285D01*
X74874381Y-94337142D01*
X74874381Y-94432380D01*
X74826762Y-94575238D01*
X74731524Y-94670476D01*
X74636286Y-94718095D01*
X74445810Y-94765714D01*
X74302952Y-94765714D01*
X74112476Y-94718095D01*
X74017238Y-94670476D01*
X73922000Y-94575238D01*
X73874381Y-94432380D01*
X73874381Y-94337142D01*
X73922000Y-94194285D01*
X73969619Y-94146666D01*
X74302952Y-93575238D02*
X74255333Y-93670476D01*
X74207714Y-93718095D01*
X74112476Y-93765714D01*
X74064857Y-93765714D01*
X73969619Y-93718095D01*
X73922000Y-93670476D01*
X73874381Y-93575238D01*
X73874381Y-93384761D01*
X73922000Y-93289523D01*
X73969619Y-93241904D01*
X74064857Y-93194285D01*
X74112476Y-93194285D01*
X74207714Y-93241904D01*
X74255333Y-93289523D01*
X74302952Y-93384761D01*
X74302952Y-93575238D01*
X74350571Y-93670476D01*
X74398190Y-93718095D01*
X74493429Y-93765714D01*
X74683905Y-93765714D01*
X74779143Y-93718095D01*
X74826762Y-93670476D01*
X74874381Y-93575238D01*
X74874381Y-93384761D01*
X74826762Y-93289523D01*
X74779143Y-93241904D01*
X74683905Y-93194285D01*
X74493429Y-93194285D01*
X74398190Y-93241904D01*
X74350571Y-93289523D01*
X74302952Y-93384761D01*
X116181143Y-109386666D02*
X116228762Y-109434285D01*
X116276381Y-109577142D01*
X116276381Y-109672380D01*
X116228762Y-109815238D01*
X116133524Y-109910476D01*
X116038286Y-109958095D01*
X115847810Y-110005714D01*
X115704952Y-110005714D01*
X115514476Y-109958095D01*
X115419238Y-109910476D01*
X115324000Y-109815238D01*
X115276381Y-109672380D01*
X115276381Y-109577142D01*
X115324000Y-109434285D01*
X115371619Y-109386666D01*
X116276381Y-108910476D02*
X116276381Y-108720000D01*
X116228762Y-108624761D01*
X116181143Y-108577142D01*
X116038286Y-108481904D01*
X115847810Y-108434285D01*
X115466857Y-108434285D01*
X115371619Y-108481904D01*
X115324000Y-108529523D01*
X115276381Y-108624761D01*
X115276381Y-108815238D01*
X115324000Y-108910476D01*
X115371619Y-108958095D01*
X115466857Y-109005714D01*
X115704952Y-109005714D01*
X115800190Y-108958095D01*
X115847810Y-108910476D01*
X115895429Y-108815238D01*
X115895429Y-108624761D01*
X115847810Y-108529523D01*
X115800190Y-108481904D01*
X115704952Y-108434285D01*
X118975143Y-67444857D02*
X119022762Y-67492476D01*
X119070381Y-67635333D01*
X119070381Y-67730571D01*
X119022762Y-67873429D01*
X118927524Y-67968667D01*
X118832286Y-68016286D01*
X118641810Y-68063905D01*
X118498952Y-68063905D01*
X118308476Y-68016286D01*
X118213238Y-67968667D01*
X118118000Y-67873429D01*
X118070381Y-67730571D01*
X118070381Y-67635333D01*
X118118000Y-67492476D01*
X118165619Y-67444857D01*
X119070381Y-66492476D02*
X119070381Y-67063905D01*
X119070381Y-66778191D02*
X118070381Y-66778191D01*
X118213238Y-66873429D01*
X118308476Y-66968667D01*
X118356095Y-67063905D01*
X118070381Y-65873429D02*
X118070381Y-65778190D01*
X118118000Y-65682952D01*
X118165619Y-65635333D01*
X118260857Y-65587714D01*
X118451333Y-65540095D01*
X118689429Y-65540095D01*
X118879905Y-65587714D01*
X118975143Y-65635333D01*
X119022762Y-65682952D01*
X119070381Y-65778190D01*
X119070381Y-65873429D01*
X119022762Y-65968667D01*
X118975143Y-66016286D01*
X118879905Y-66063905D01*
X118689429Y-66111524D01*
X118451333Y-66111524D01*
X118260857Y-66063905D01*
X118165619Y-66016286D01*
X118118000Y-65968667D01*
X118070381Y-65873429D01*
X136247143Y-89542857D02*
X136294762Y-89590476D01*
X136342381Y-89733333D01*
X136342381Y-89828571D01*
X136294762Y-89971429D01*
X136199524Y-90066667D01*
X136104286Y-90114286D01*
X135913810Y-90161905D01*
X135770952Y-90161905D01*
X135580476Y-90114286D01*
X135485238Y-90066667D01*
X135390000Y-89971429D01*
X135342381Y-89828571D01*
X135342381Y-89733333D01*
X135390000Y-89590476D01*
X135437619Y-89542857D01*
X136342381Y-88590476D02*
X136342381Y-89161905D01*
X136342381Y-88876191D02*
X135342381Y-88876191D01*
X135485238Y-88971429D01*
X135580476Y-89066667D01*
X135628095Y-89161905D01*
X136342381Y-87638095D02*
X136342381Y-88209524D01*
X136342381Y-87923810D02*
X135342381Y-87923810D01*
X135485238Y-88019048D01*
X135580476Y-88114286D01*
X135628095Y-88209524D01*
X58031143Y-125833143D02*
X57983524Y-125880762D01*
X57840667Y-125928381D01*
X57745429Y-125928381D01*
X57602571Y-125880762D01*
X57507333Y-125785524D01*
X57459714Y-125690286D01*
X57412095Y-125499810D01*
X57412095Y-125356952D01*
X57459714Y-125166476D01*
X57507333Y-125071238D01*
X57602571Y-124976000D01*
X57745429Y-124928381D01*
X57840667Y-124928381D01*
X57983524Y-124976000D01*
X58031143Y-125023619D01*
X58983524Y-125928381D02*
X58412095Y-125928381D01*
X58697809Y-125928381D02*
X58697809Y-124928381D01*
X58602571Y-125071238D01*
X58507333Y-125166476D01*
X58412095Y-125214095D01*
X59364476Y-125023619D02*
X59412095Y-124976000D01*
X59507333Y-124928381D01*
X59745429Y-124928381D01*
X59840667Y-124976000D01*
X59888286Y-125023619D01*
X59935905Y-125118857D01*
X59935905Y-125214095D01*
X59888286Y-125356952D01*
X59316857Y-125928381D01*
X59935905Y-125928381D01*
X58115143Y-54420144D02*
X58067524Y-54467763D01*
X57924667Y-54515382D01*
X57829429Y-54515382D01*
X57686571Y-54467763D01*
X57591333Y-54372525D01*
X57543714Y-54277287D01*
X57496095Y-54086811D01*
X57496095Y-53943953D01*
X57543714Y-53753477D01*
X57591333Y-53658239D01*
X57686571Y-53563001D01*
X57829429Y-53515382D01*
X57924667Y-53515382D01*
X58067524Y-53563001D01*
X58115143Y-53610620D01*
X59067524Y-54515382D02*
X58496095Y-54515382D01*
X58781809Y-54515382D02*
X58781809Y-53515382D01*
X58686571Y-53658239D01*
X58591333Y-53753477D01*
X58496095Y-53801096D01*
X59400857Y-53515382D02*
X60019905Y-53515382D01*
X59686571Y-53896334D01*
X59829429Y-53896334D01*
X59924667Y-53943953D01*
X59972286Y-53991572D01*
X60019905Y-54086811D01*
X60019905Y-54324906D01*
X59972286Y-54420144D01*
X59924667Y-54467763D01*
X59829429Y-54515382D01*
X59543714Y-54515382D01*
X59448476Y-54467763D01*
X59400857Y-54420144D01*
M02*
