G04 #@! TF.FileFunction,Soldermask,Bot*
%FSLAX46Y46*%
G04 Gerber Fmt 4.6, Leading zero omitted, Abs format (unit mm)*
G04 Created by KiCad (PCBNEW 4.0.7) date 04/12/19 19:41:39*
%MOMM*%
%LPD*%
G01*
G04 APERTURE LIST*
%ADD10C,0.100000*%
%ADD11C,2.400000*%
%ADD12C,3.900000*%
%ADD13C,2.000000*%
%ADD14O,2.000000X2.000000*%
%ADD15R,2.000000X2.000000*%
%ADD16C,1.900000*%
%ADD17C,2.500000*%
%ADD18R,3.400000X3.400000*%
%ADD19C,3.400000*%
%ADD20C,5.400000*%
%ADD21R,2.100000X2.100000*%
%ADD22O,2.100000X2.100000*%
%ADD23C,2.800000*%
%ADD24O,2.800000X2.800000*%
%ADD25C,4.464000*%
G04 APERTURE END LIST*
D10*
D11*
X128270000Y-61849000D03*
X128524000Y-67945000D03*
X128524000Y-74041000D03*
D12*
X132334000Y-64897000D03*
X121158000Y-64897000D03*
D11*
X123825000Y-119443500D03*
X123571000Y-113347500D03*
X123571000Y-107251500D03*
D12*
X119761000Y-116395500D03*
X130937000Y-116395500D03*
D13*
X66040000Y-49974500D03*
D14*
X66040000Y-42354500D03*
D15*
X91135200Y-137769600D03*
D14*
X91135200Y-130149600D03*
D16*
X115443000Y-53223200D03*
X112903000Y-53223200D03*
D17*
X110363000Y-48143200D03*
X120523000Y-48143200D03*
D18*
X117729000Y-50495200D03*
D19*
X112649000Y-50495200D03*
D11*
X104648000Y-70002400D03*
X104394000Y-63906400D03*
X104394000Y-57810400D03*
D12*
X100584000Y-66954400D03*
X111760000Y-66954400D03*
D20*
X43000000Y-43000000D03*
X137000000Y-43000000D03*
X43000000Y-137000000D03*
X137000000Y-137000000D03*
D13*
X68275200Y-131140200D03*
X68275200Y-136140200D03*
X79705200Y-130266440D03*
X79705200Y-135266440D03*
X62026800Y-130873500D03*
D14*
X62026800Y-138493500D03*
D13*
X65227200Y-138493500D03*
D14*
X65227200Y-130873500D03*
D15*
X56654700Y-138607800D03*
D14*
X56654700Y-130987800D03*
D11*
X102666800Y-121666000D03*
X102412800Y-115570000D03*
X102412800Y-109474000D03*
D12*
X98602800Y-118618000D03*
X109778800Y-118618000D03*
D11*
X83693000Y-94869000D03*
X83439000Y-88773000D03*
X83439000Y-82677000D03*
D12*
X79629000Y-91821000D03*
X90805000Y-91821000D03*
D11*
X63017400Y-94945200D03*
X62763400Y-88849200D03*
X62763400Y-82753200D03*
D12*
X58953400Y-91897200D03*
X70129400Y-91897200D03*
D13*
X85344000Y-47244000D03*
X85344000Y-42244000D03*
D21*
X81724500Y-46418500D03*
D22*
X81724500Y-43878500D03*
D21*
X75501500Y-46545500D03*
D22*
X75501500Y-44005500D03*
D13*
X88392000Y-41808400D03*
D14*
X88392000Y-49428400D03*
D13*
X69215000Y-42354500D03*
D14*
X69215000Y-49974500D03*
D13*
X91440000Y-49479200D03*
D14*
X91440000Y-41859200D03*
D15*
X96875600Y-41808400D03*
D14*
X96875600Y-49428400D03*
D15*
X60642500Y-42227500D03*
D14*
X60642500Y-49847500D03*
D15*
X94335600Y-41859200D03*
D14*
X94335600Y-49479200D03*
D15*
X63246000Y-42354500D03*
D14*
X63246000Y-49974500D03*
D15*
X59245500Y-138569700D03*
D14*
X59245500Y-130949700D03*
D15*
X88544400Y-137769600D03*
D14*
X88544400Y-130149600D03*
D21*
X53644800Y-129311400D03*
D22*
X53644800Y-131851400D03*
D21*
X71551800Y-134226300D03*
D22*
X71551800Y-131686300D03*
D21*
X76542900Y-133959600D03*
D22*
X76542900Y-131419600D03*
D13*
X85765640Y-130073400D03*
D14*
X85765640Y-137693400D03*
D13*
X82677000Y-137734040D03*
D14*
X82677000Y-130114040D03*
D21*
X57277000Y-47294800D03*
D22*
X57277000Y-49834800D03*
D23*
X94043500Y-109639100D03*
D24*
X94043500Y-122339100D03*
D23*
X90195400Y-109689900D03*
D24*
X90195400Y-122389900D03*
D23*
X86283800Y-109689900D03*
D24*
X86283800Y-122389900D03*
D23*
X82423000Y-109689900D03*
D24*
X82423000Y-122389900D03*
D23*
X57556400Y-109804200D03*
D24*
X57556400Y-122504200D03*
D23*
X78232000Y-109753400D03*
D24*
X78232000Y-122453400D03*
D23*
X74434700Y-109855000D03*
D24*
X74434700Y-122555000D03*
D23*
X70243700Y-109918500D03*
D24*
X70243700Y-122618500D03*
D23*
X61747400Y-109855000D03*
D24*
X61747400Y-122555000D03*
D23*
X65938400Y-109918500D03*
D24*
X65938400Y-122618500D03*
D23*
X95834200Y-82199480D03*
D24*
X95834200Y-94899480D03*
D23*
X99913440Y-82255360D03*
D24*
X99913440Y-94955360D03*
D23*
X103992680Y-82199480D03*
D24*
X103992680Y-94899480D03*
D23*
X108127800Y-82143600D03*
D24*
X108127800Y-94843600D03*
D23*
X112280700Y-82054700D03*
D24*
X112280700Y-94754700D03*
D23*
X116547900Y-82054700D03*
D24*
X116547900Y-94754700D03*
D23*
X120459500Y-82143600D03*
D24*
X120459500Y-94843600D03*
D23*
X124460000Y-82054700D03*
D24*
X124460000Y-94754700D03*
D23*
X128460500Y-82054700D03*
D24*
X128460500Y-94754700D03*
D23*
X132461000Y-82054700D03*
D24*
X132461000Y-94754700D03*
D23*
X95923100Y-57785000D03*
D24*
X95923100Y-70485000D03*
D23*
X91554300Y-57759600D03*
D24*
X91554300Y-70459600D03*
D23*
X87553800Y-57835800D03*
D24*
X87553800Y-70535800D03*
D23*
X83400900Y-57873900D03*
D24*
X83400900Y-70573900D03*
D23*
X79298800Y-57785000D03*
D24*
X79298800Y-70485000D03*
D23*
X75120500Y-57785000D03*
D24*
X75120500Y-70485000D03*
D23*
X71208900Y-57785000D03*
D24*
X71208900Y-70485000D03*
D23*
X67208400Y-57785000D03*
D24*
X67208400Y-70485000D03*
D23*
X63119000Y-57785000D03*
D24*
X63119000Y-70485000D03*
D23*
X59029600Y-57873900D03*
D24*
X59029600Y-70573900D03*
D21*
X129159000Y-57404000D03*
D22*
X129159000Y-54864000D03*
D21*
X99771200Y-49479200D03*
D22*
X99771200Y-52019200D03*
D21*
X94101920Y-128356360D03*
D22*
X94101920Y-130896360D03*
D21*
X136715500Y-118999000D03*
D22*
X136715500Y-116459000D03*
D13*
X136461500Y-110998000D03*
X136461500Y-105998000D03*
X136207500Y-81407000D03*
X136207500Y-76407000D03*
X58864500Y-97726500D03*
X58864500Y-102726500D03*
X74422000Y-91440000D03*
X74422000Y-96440000D03*
X114871500Y-110617000D03*
X114871500Y-105617000D03*
X117398800Y-63144400D03*
X117398800Y-58144400D03*
X135890000Y-86360000D03*
X135890000Y-91360000D03*
X56388000Y-125476000D03*
X61388000Y-125476000D03*
X61214000Y-54102000D03*
X56214000Y-54102000D03*
D11*
X54711600Y-68046600D03*
X54711600Y-73046600D03*
D12*
X102984300Y-44577000D03*
X45212000Y-77266800D03*
X43942000Y-107124500D03*
X44107100Y-100139500D03*
D11*
X100081080Y-131739640D03*
X100081080Y-126739640D03*
X106032300Y-48234600D03*
X106032300Y-53234600D03*
X49085500Y-110553500D03*
X54085500Y-110553500D03*
D12*
X98414840Y-135483600D03*
X45161200Y-70662800D03*
D16*
X52258000Y-88900000D03*
X52258000Y-91440000D03*
D17*
X47178000Y-93980000D03*
X47178000Y-83820000D03*
D18*
X49530000Y-86614000D03*
D19*
X49530000Y-91694000D03*
D16*
X52385000Y-58674000D03*
X52385000Y-61214000D03*
D17*
X47305000Y-63754000D03*
X47305000Y-53594000D03*
D18*
X49657000Y-56388000D03*
D19*
X49657000Y-61468000D03*
D16*
X52766000Y-120065800D03*
X52766000Y-122605800D03*
D17*
X47686000Y-125145800D03*
X47686000Y-114985800D03*
D18*
X50038000Y-117779800D03*
D19*
X50038000Y-122859800D03*
D16*
X110000000Y-127620000D03*
X112540000Y-127620000D03*
D17*
X115080000Y-132700000D03*
X104920000Y-132700000D03*
D18*
X107714000Y-130348000D03*
D19*
X112794000Y-130348000D03*
D25*
X125907800Y-130581400D03*
X125958600Y-137007600D03*
X127457200Y-49631600D03*
X127317500Y-43370500D03*
D18*
X134493000Y-129984500D03*
D19*
X134493000Y-124904500D03*
D18*
X134683500Y-56070500D03*
D19*
X134683500Y-50990500D03*
D13*
X120142000Y-133350000D03*
X120142000Y-138350000D03*
X131381500Y-42037000D03*
X131381500Y-47037000D03*
X72263000Y-47307500D03*
X72263000Y-42307500D03*
D11*
X103073200Y-48412400D03*
X103073200Y-53412400D03*
X51536600Y-68046600D03*
X51536600Y-73046600D03*
X97149920Y-131765040D03*
X97149920Y-126765040D03*
X49364900Y-107454700D03*
X54364900Y-107454700D03*
D13*
X59690000Y-85471000D03*
X54690000Y-85471000D03*
X59690000Y-88646000D03*
X54690000Y-88646000D03*
D25*
X58293000Y-77343000D03*
D13*
X59740800Y-82550000D03*
X54740800Y-82550000D03*
M02*
