G04 #@! TF.FileFunction,Copper,L2,Bot,Signal*
%FSLAX46Y46*%
G04 Gerber Fmt 4.6, Leading zero omitted, Abs format (unit mm)*
G04 Created by KiCad (PCBNEW 4.0.7) date 03/06/19 11:02:25*
%MOMM*%
%LPD*%
G01*
G04 APERTURE LIST*
%ADD10C,0.100000*%
%ADD11C,1.600000*%
%ADD12O,1.600000X1.600000*%
%ADD13R,1.600000X1.600000*%
%ADD14C,1.500000*%
%ADD15R,3.000000X3.000000*%
%ADD16C,3.000000*%
%ADD17C,2.000000*%
%ADD18C,5.000000*%
%ADD19R,1.700000X1.700000*%
%ADD20O,1.700000X1.700000*%
%ADD21C,2.400000*%
%ADD22O,2.400000X2.400000*%
%ADD23C,3.500000*%
%ADD24C,4.064000*%
%ADD25C,2.000000*%
%ADD26C,0.500000*%
%ADD27C,1.000000*%
G04 APERTURE END LIST*
D10*
D11*
X66040000Y-49974500D03*
D12*
X66040000Y-42354500D03*
D13*
X92100400Y-137820400D03*
D12*
X92100400Y-130200400D03*
D14*
X115443000Y-53223200D03*
X112903000Y-53223200D03*
D15*
X117729000Y-50495200D03*
D16*
X112649000Y-50495200D03*
D17*
X104648000Y-70002400D03*
X104394000Y-63906400D03*
X104394000Y-57810400D03*
D18*
X43000000Y-43000000D03*
X137000000Y-43000000D03*
X43000000Y-137000000D03*
X137000000Y-137000000D03*
D11*
X66548000Y-131064000D03*
X66548000Y-136064000D03*
X80772000Y-130302000D03*
X80772000Y-135302000D03*
X59944000Y-130937000D03*
D12*
X59944000Y-138557000D03*
D11*
X63373000Y-138557000D03*
D12*
X63373000Y-130937000D03*
D13*
X54356000Y-138684000D03*
D12*
X54356000Y-131064000D03*
D17*
X102666800Y-121666000D03*
X102412800Y-115570000D03*
X102412800Y-109474000D03*
X129667000Y-74422000D03*
X129413000Y-68326000D03*
X129413000Y-62230000D03*
X131953000Y-107696000D03*
X132207000Y-113792000D03*
X132207000Y-119888000D03*
X83693000Y-94869000D03*
X83439000Y-88773000D03*
X83439000Y-82677000D03*
X63017400Y-94945200D03*
X62763400Y-88849200D03*
X62763400Y-82753200D03*
D11*
X85344000Y-47244000D03*
X85344000Y-42244000D03*
D19*
X81724500Y-46418500D03*
D20*
X81724500Y-43878500D03*
D19*
X75501500Y-46545500D03*
D20*
X75501500Y-44005500D03*
D11*
X89154000Y-41656000D03*
D12*
X89154000Y-49276000D03*
D11*
X69215000Y-42354500D03*
D12*
X69215000Y-49974500D03*
D11*
X92202000Y-49276000D03*
D12*
X92202000Y-41656000D03*
D13*
X97739200Y-41630600D03*
D12*
X97739200Y-49250600D03*
D13*
X60642500Y-42227500D03*
D12*
X60642500Y-49847500D03*
D13*
X94996000Y-41681400D03*
D12*
X94996000Y-49301400D03*
D13*
X63246000Y-42354500D03*
D12*
X63246000Y-49974500D03*
D13*
X56896000Y-138684000D03*
D12*
X56896000Y-131064000D03*
D13*
X89814400Y-137820400D03*
D12*
X89814400Y-130200400D03*
D19*
X51358800Y-129997200D03*
D20*
X51358800Y-132537200D03*
D19*
X69977000Y-134239000D03*
D20*
X69977000Y-131699000D03*
D19*
X77470000Y-133858000D03*
D20*
X77470000Y-131318000D03*
D11*
X86868000Y-130302000D03*
D12*
X86868000Y-137922000D03*
D11*
X83820000Y-137668000D03*
D12*
X83820000Y-130048000D03*
D19*
X57277000Y-47294800D03*
D20*
X57277000Y-49834800D03*
D21*
X94043500Y-109639100D03*
D22*
X94043500Y-122339100D03*
D21*
X90195400Y-109689900D03*
D22*
X90195400Y-122389900D03*
D21*
X86283800Y-109689900D03*
D22*
X86283800Y-122389900D03*
D21*
X82423000Y-109689900D03*
D22*
X82423000Y-122389900D03*
D21*
X57556400Y-109804200D03*
D22*
X57556400Y-122504200D03*
D21*
X78232000Y-109753400D03*
D22*
X78232000Y-122453400D03*
D21*
X74434700Y-109855000D03*
D22*
X74434700Y-122555000D03*
D21*
X70243700Y-109918500D03*
D22*
X70243700Y-122618500D03*
D21*
X61747400Y-109855000D03*
D22*
X61747400Y-122555000D03*
D21*
X65938400Y-109918500D03*
D22*
X65938400Y-122618500D03*
D21*
X95834200Y-82199480D03*
D22*
X95834200Y-94899480D03*
D21*
X99913440Y-82255360D03*
D22*
X99913440Y-94955360D03*
D21*
X103992680Y-82199480D03*
D22*
X103992680Y-94899480D03*
D21*
X108127800Y-82143600D03*
D22*
X108127800Y-94843600D03*
D21*
X112280700Y-82054700D03*
D22*
X112280700Y-94754700D03*
D21*
X116547900Y-82054700D03*
D22*
X116547900Y-94754700D03*
D21*
X120459500Y-82143600D03*
D22*
X120459500Y-94843600D03*
D21*
X124460000Y-82054700D03*
D22*
X124460000Y-94754700D03*
D21*
X128460500Y-82054700D03*
D22*
X128460500Y-94754700D03*
D21*
X132461000Y-82054700D03*
D22*
X132461000Y-94754700D03*
D21*
X95923100Y-57785000D03*
D22*
X95923100Y-70485000D03*
D21*
X91554300Y-57759600D03*
D22*
X91554300Y-70459600D03*
D21*
X87553800Y-57835800D03*
D22*
X87553800Y-70535800D03*
D21*
X83400900Y-57873900D03*
D22*
X83400900Y-70573900D03*
D21*
X79298800Y-57785000D03*
D22*
X79298800Y-70485000D03*
D21*
X75120500Y-57785000D03*
D22*
X75120500Y-70485000D03*
D21*
X71208900Y-57785000D03*
D22*
X71208900Y-70485000D03*
D21*
X67208400Y-57785000D03*
D22*
X67208400Y-70485000D03*
D21*
X63119000Y-57785000D03*
D22*
X63119000Y-70485000D03*
D21*
X59029600Y-57873900D03*
D22*
X59029600Y-70573900D03*
D19*
X129159000Y-57404000D03*
D20*
X129159000Y-54864000D03*
D19*
X100965000Y-49530000D03*
D20*
X100965000Y-52070000D03*
D19*
X95440500Y-128320800D03*
D20*
X95440500Y-130860800D03*
D19*
X136715500Y-118999000D03*
D20*
X136715500Y-116459000D03*
D11*
X125984000Y-102235000D03*
X120984000Y-102235000D03*
X136207500Y-81407000D03*
X136207500Y-76407000D03*
X56134000Y-82550000D03*
X56134000Y-77550000D03*
X74422000Y-91440000D03*
X74422000Y-96440000D03*
X118618000Y-113030000D03*
X118618000Y-108030000D03*
X119634000Y-64770000D03*
X119634000Y-69770000D03*
X135890000Y-86360000D03*
X135890000Y-91360000D03*
X56388000Y-125476000D03*
X61388000Y-125476000D03*
X61214000Y-54102000D03*
X56214000Y-54102000D03*
D17*
X54711600Y-68046600D03*
X54711600Y-73046600D03*
D23*
X102984300Y-44577000D03*
X49936400Y-76708000D03*
X51308000Y-105816400D03*
X51460400Y-100076000D03*
D17*
X100081080Y-131739640D03*
X100081080Y-126739640D03*
X106032300Y-48234600D03*
X106032300Y-53234600D03*
X49085500Y-110553500D03*
X54085500Y-110553500D03*
D23*
X98414840Y-135483600D03*
X49733200Y-69850000D03*
D14*
X53172400Y-89052400D03*
X53172400Y-91592400D03*
D15*
X50444400Y-86766400D03*
D16*
X50444400Y-91846400D03*
D14*
X53502600Y-58953400D03*
X53502600Y-61493400D03*
D15*
X50774600Y-56667400D03*
D16*
X50774600Y-61747400D03*
D14*
X52766000Y-120065800D03*
X52766000Y-122605800D03*
D15*
X50038000Y-117779800D03*
D16*
X50038000Y-122859800D03*
D14*
X110000000Y-127620000D03*
X112540000Y-127620000D03*
D15*
X107714000Y-130348000D03*
D16*
X112794000Y-130348000D03*
D24*
X125907800Y-130581400D03*
X125958600Y-137007600D03*
X127457200Y-49631600D03*
X127317500Y-43370500D03*
D15*
X134493000Y-129984500D03*
D16*
X134493000Y-124904500D03*
D15*
X134683500Y-56070500D03*
D16*
X134683500Y-50990500D03*
D11*
X120142000Y-133350000D03*
X120142000Y-138350000D03*
X131381500Y-42037000D03*
X131381500Y-47037000D03*
X72263000Y-47307500D03*
X72263000Y-42307500D03*
D25*
X62928500Y-95034100D02*
X63017400Y-94945200D01*
X132029200Y-107619800D02*
X131953000Y-107696000D01*
D26*
X81724500Y-46418500D02*
X83439000Y-46799500D01*
X83439000Y-46799500D02*
X85344000Y-47244000D01*
X92202000Y-49276000D02*
X89154000Y-49276000D01*
X89154000Y-49276000D02*
X85598000Y-46990000D01*
X85598000Y-46990000D02*
X85344000Y-47244000D01*
X75501500Y-46545500D02*
X73025000Y-46545500D01*
X73025000Y-46545500D02*
X72263000Y-47307500D01*
X69215000Y-49974500D02*
X69215000Y-49085500D01*
X70993000Y-47307500D02*
X72263000Y-47307500D01*
X69215000Y-49085500D02*
X70993000Y-47307500D01*
X69088000Y-50101500D02*
X69215000Y-49974500D01*
X66040000Y-49974500D02*
X69215000Y-49974500D01*
X66548000Y-131064000D02*
X66548000Y-132207000D01*
X68580000Y-134239000D02*
X69977000Y-134239000D01*
X66548000Y-132207000D02*
X68580000Y-134239000D01*
X63373000Y-130937000D02*
X66421000Y-130937000D01*
X66421000Y-130937000D02*
X66548000Y-131064000D01*
X59944000Y-130937000D02*
X63373000Y-130937000D01*
X77470000Y-133858000D02*
X77597000Y-133858000D01*
X77597000Y-133858000D02*
X80772000Y-130302000D01*
X83820000Y-130048000D02*
X80899000Y-130175000D01*
X80899000Y-130175000D02*
X80772000Y-130302000D01*
X86868000Y-130302000D02*
X83820000Y-130048000D01*
X129159000Y-54864000D02*
X125285500Y-54864000D01*
X122428000Y-52006500D02*
X122428000Y-46736000D01*
X125285500Y-54864000D02*
X122428000Y-52006500D01*
X122428000Y-46736000D02*
X116690140Y-40998140D01*
X97739200Y-49250600D02*
X97993200Y-49250600D01*
X97993200Y-49250600D02*
X100965000Y-49530000D01*
X97739200Y-47675800D02*
X97739200Y-45516800D01*
X101064060Y-40921940D02*
X102689660Y-40921940D01*
X97739200Y-45516800D02*
X101064060Y-40921940D01*
X97739200Y-49250600D02*
X97739200Y-47675800D01*
X102689660Y-40921940D02*
X106156760Y-40998140D01*
X116690140Y-40998140D02*
X106156760Y-40998140D01*
X51358800Y-132537200D02*
X52882800Y-132537200D01*
X52882800Y-132537200D02*
X54356000Y-131064000D01*
X57277000Y-47294800D02*
X59994800Y-47294800D01*
X60261500Y-48450500D02*
X60642500Y-49847500D01*
X59994800Y-47294800D02*
X60261500Y-48450500D01*
X60642500Y-49847500D02*
X60642500Y-49720500D01*
X133223000Y-122428000D02*
X127571500Y-122428000D01*
X127571500Y-122428000D02*
X110831365Y-139168135D01*
X133223000Y-122428000D02*
X133985000Y-122428000D01*
X95440500Y-130860800D02*
X95440500Y-138417300D01*
X98386900Y-139179300D02*
X104940100Y-139179300D01*
X95440500Y-138417300D02*
X98386900Y-139179300D01*
X92100400Y-130200400D02*
X94157800Y-130200400D01*
X94767400Y-130810000D02*
X95440500Y-130860800D01*
X94157800Y-130200400D02*
X94767400Y-130810000D01*
X136715500Y-118999000D02*
X136525000Y-121031000D01*
X136525000Y-121031000D02*
X133985000Y-122428000D01*
X110831365Y-139168135D02*
X104940100Y-139179300D01*
X63246000Y-42354500D02*
X66040000Y-42354500D01*
X92202000Y-41656000D02*
X94996000Y-41681400D01*
X95275400Y-46888400D02*
X95275400Y-44094400D01*
X95275400Y-44094400D02*
X97739200Y-41630600D01*
X94996000Y-49301400D02*
X94996000Y-47167800D01*
X94996000Y-47167800D02*
X95275400Y-46888400D01*
X60642500Y-42227500D02*
X60642500Y-42989500D01*
X60642500Y-42989500D02*
X61595000Y-45212000D01*
X61595000Y-45212000D02*
X63246000Y-49974500D01*
X54356000Y-138684000D02*
X54356000Y-137160000D01*
X56896000Y-134620000D02*
X56896000Y-131064000D01*
X54356000Y-137160000D02*
X56896000Y-134620000D01*
X89814400Y-130200400D02*
X89814400Y-132410200D01*
X92100400Y-134696200D02*
X92100400Y-137820400D01*
X89814400Y-132410200D02*
X92100400Y-134696200D01*
X59944000Y-138557000D02*
X57023000Y-138557000D01*
X57023000Y-138557000D02*
X56896000Y-138684000D01*
X89814400Y-137820400D02*
X86969600Y-137820400D01*
X86969600Y-137820400D02*
X86868000Y-137922000D01*
X125984000Y-102235000D02*
X128460500Y-102235000D01*
X128460500Y-102235000D02*
X128016000Y-102235000D01*
X128016000Y-102235000D02*
X128460500Y-102235000D01*
X135890000Y-91360000D02*
X135855700Y-91360000D01*
X135855700Y-91360000D02*
X132461000Y-94754700D01*
X132207000Y-113792000D02*
X135636000Y-113792000D01*
X135636000Y-113792000D02*
X136715500Y-116459000D01*
D25*
X83693000Y-94869000D02*
X95803720Y-94869000D01*
X95803720Y-94869000D02*
X95890080Y-94955360D01*
X95890080Y-94955360D02*
X95834200Y-94899480D01*
X99913440Y-94955360D02*
X95890080Y-94955360D01*
X95890080Y-94955360D02*
X95834200Y-94899480D01*
X103992680Y-94899480D02*
X99969320Y-94899480D01*
X99969320Y-94899480D02*
X99913440Y-94955360D01*
X108127800Y-94843600D02*
X104048560Y-94843600D01*
X104048560Y-94843600D02*
X103992680Y-94899480D01*
X112280700Y-94754700D02*
X108216700Y-94754700D01*
X108216700Y-94754700D02*
X108127800Y-94843600D01*
X116547900Y-94754700D02*
X112280700Y-94754700D01*
X120459500Y-94843600D02*
X116636800Y-94843600D01*
X116636800Y-94843600D02*
X116547900Y-94754700D01*
X120459500Y-94843600D02*
X124371100Y-94843600D01*
X124371100Y-94843600D02*
X124460000Y-94754700D01*
X128460500Y-94754700D02*
X124460000Y-94754700D01*
X132461000Y-94754700D02*
X128460500Y-94754700D01*
X128460500Y-94754700D02*
X128460500Y-102235000D01*
X128460500Y-102235000D02*
X128460500Y-103187500D01*
X128460500Y-103187500D02*
X128460500Y-110045500D01*
X128460500Y-110045500D02*
X132207000Y-113792000D01*
X83693000Y-94869000D02*
X84099400Y-94869000D01*
D26*
X129159000Y-57404000D02*
X129921000Y-57404000D01*
X129921000Y-57404000D02*
X133664960Y-61782960D01*
X129413000Y-68326000D02*
X130215640Y-68326000D01*
X130215640Y-68326000D02*
X133664960Y-64876680D01*
X133664960Y-64876680D02*
X133664960Y-61782960D01*
X136207500Y-81407000D02*
X133108700Y-81407000D01*
X133108700Y-81407000D02*
X132461000Y-82054700D01*
X132461000Y-82054700D02*
X132461000Y-82931000D01*
X132461000Y-82931000D02*
X135890000Y-86360000D01*
X129413000Y-68326000D02*
X129910840Y-68326000D01*
D25*
X132461000Y-82054700D02*
X132461000Y-79375000D01*
X132461000Y-79375000D02*
X132461000Y-70215760D01*
X130571240Y-68326000D02*
X129413000Y-68326000D01*
X132461000Y-70215760D02*
X130571240Y-68326000D01*
X132461000Y-82054700D02*
X127383540Y-82054700D01*
X127383540Y-82054700D02*
X128460500Y-82054700D01*
X128460500Y-82054700D02*
X124460000Y-82054700D01*
X124460000Y-82054700D02*
X120548400Y-82054700D01*
X120548400Y-82054700D02*
X120459500Y-82143600D01*
X120459500Y-82143600D02*
X116636800Y-82143600D01*
X116636800Y-82143600D02*
X116547900Y-82054700D01*
X116547900Y-82054700D02*
X112280700Y-82054700D01*
X112280700Y-82054700D02*
X108216700Y-82054700D01*
X108216700Y-82054700D02*
X108127800Y-82143600D01*
X108127800Y-82143600D02*
X104048560Y-82143600D01*
X104048560Y-82143600D02*
X103992680Y-82199480D01*
X99913440Y-82255360D02*
X103936800Y-82255360D01*
X103936800Y-82255360D02*
X103992680Y-82199480D01*
X95834200Y-82199480D02*
X99857560Y-82199480D01*
X99857560Y-82199480D02*
X99913440Y-82255360D01*
X83439000Y-82677000D02*
X95356680Y-82677000D01*
X95356680Y-82677000D02*
X95834200Y-82199480D01*
D26*
X129413000Y-68326000D02*
X129692400Y-68326000D01*
X129413000Y-68326000D02*
X130302000Y-68326000D01*
X56134000Y-82550000D02*
X56134000Y-88849200D01*
X56000000Y-88000000D02*
X56000000Y-88849200D01*
X56000000Y-88715200D02*
X56000000Y-88000000D01*
X56134000Y-88849200D02*
X56000000Y-88715200D01*
D25*
X53172400Y-89052400D02*
X52730400Y-89052400D01*
X52730400Y-89052400D02*
X50444400Y-86766400D01*
D26*
X56134000Y-82550000D02*
X56134000Y-83058000D01*
D25*
X62763400Y-88849200D02*
X56000000Y-88849200D01*
X56000000Y-88849200D02*
X53375600Y-88849200D01*
X53375600Y-88849200D02*
X53172400Y-89052400D01*
X62509400Y-89103200D02*
X62763400Y-88849200D01*
D26*
X74422000Y-91440000D02*
X74422000Y-89687400D01*
X74422000Y-89687400D02*
X73533000Y-88798400D01*
D25*
X62763400Y-82753200D02*
X67487800Y-82753200D01*
X67487800Y-82753200D02*
X73533000Y-88798400D01*
X73533000Y-88798400D02*
X83439000Y-88773000D01*
D26*
X119634000Y-64770000D02*
X119634000Y-62230000D01*
X119380000Y-62484000D02*
X119380000Y-62230000D01*
X119634000Y-62230000D02*
X119380000Y-62484000D01*
D25*
X104394000Y-63906400D02*
X107010200Y-63906400D01*
X108686600Y-62230000D02*
X112014000Y-62230000D01*
X112014000Y-62230000D02*
X119380000Y-62230000D01*
X119380000Y-62230000D02*
X129413000Y-62230000D01*
X107010200Y-63906400D02*
X108686600Y-62230000D01*
X104394000Y-63906400D02*
X104749600Y-63906400D01*
D26*
X56388000Y-125476000D02*
X56261000Y-125476000D01*
X56261000Y-125476000D02*
X55079900Y-124752100D01*
X57556400Y-115163600D02*
X57556400Y-109804200D01*
X55079900Y-117132100D02*
X57556400Y-115163600D01*
X55079900Y-124752100D02*
X55079900Y-117132100D01*
D25*
X54085500Y-110553500D02*
X56807100Y-110553500D01*
X56807100Y-110553500D02*
X57556400Y-109804200D01*
X94043500Y-109639100D02*
X102247700Y-109639100D01*
X102247700Y-109639100D02*
X102412800Y-109474000D01*
D27*
X86106000Y-109512100D02*
X86283800Y-109689900D01*
D26*
X51358800Y-129997200D02*
X51054000Y-130810000D01*
X51054000Y-130810000D02*
X56388000Y-125476000D01*
D25*
X57556400Y-109804200D02*
X61696600Y-109804200D01*
X61696600Y-109804200D02*
X61747400Y-109855000D01*
X57556400Y-109748320D02*
X57556400Y-109804200D01*
X65938400Y-109918500D02*
X61810900Y-109918500D01*
X61810900Y-109918500D02*
X61747400Y-109855000D01*
X70243700Y-109918500D02*
X65938400Y-109918500D01*
X74434700Y-109855000D02*
X70307200Y-109855000D01*
X70307200Y-109855000D02*
X70243700Y-109918500D01*
X78232000Y-109753400D02*
X74536300Y-109753400D01*
X74536300Y-109753400D02*
X74434700Y-109855000D01*
X82423000Y-109689900D02*
X78295500Y-109689900D01*
X78295500Y-109689900D02*
X78232000Y-109753400D01*
X86283800Y-109689900D02*
X82423000Y-109689900D01*
X90195400Y-109689900D02*
X86283800Y-109689900D01*
X94043500Y-109639100D02*
X90246200Y-109639100D01*
X90246200Y-109639100D02*
X90195400Y-109689900D01*
X94208600Y-109474000D02*
X94043500Y-109639100D01*
X95440500Y-128320800D02*
X98267520Y-127015240D01*
X98267520Y-127015240D02*
X100081080Y-126739640D01*
X94043500Y-122339100D02*
X94043500Y-123376700D01*
X90195400Y-122389900D02*
X90195400Y-124790200D01*
X92354400Y-126898400D02*
X95440500Y-128320800D01*
X90195400Y-124790200D02*
X92354400Y-126898400D01*
X94043500Y-122339100D02*
X101993700Y-122339100D01*
X101993700Y-122339100D02*
X102666800Y-121666000D01*
D27*
X90678000Y-122872500D02*
X90195400Y-122389900D01*
D26*
X61747400Y-122555000D02*
X61747400Y-125116600D01*
X61747400Y-125116600D02*
X61388000Y-125476000D01*
D25*
X61747400Y-122555000D02*
X57607200Y-122555000D01*
X57607200Y-122555000D02*
X57556400Y-122504200D01*
X61747400Y-122555000D02*
X65874900Y-122555000D01*
X65874900Y-122555000D02*
X65938400Y-122618500D01*
X70243700Y-122618500D02*
X65938400Y-122618500D01*
X74434700Y-122555000D02*
X70307200Y-122555000D01*
X70307200Y-122555000D02*
X70243700Y-122618500D01*
X78232000Y-122453400D02*
X74536300Y-122453400D01*
X74536300Y-122453400D02*
X74434700Y-122555000D01*
X78232000Y-122453400D02*
X82359500Y-122453400D01*
X82359500Y-122453400D02*
X82423000Y-122389900D01*
X86283800Y-122389900D02*
X82423000Y-122389900D01*
X90195400Y-122389900D02*
X86283800Y-122389900D01*
X94043500Y-122339100D02*
X90246200Y-122339100D01*
X90246200Y-122339100D02*
X90195400Y-122389900D01*
X106032300Y-53234600D02*
X102129600Y-53234600D01*
X102129600Y-53234600D02*
X100965000Y-52070000D01*
X100965000Y-52070000D02*
X100965000Y-56616600D01*
X100965000Y-56616600D02*
X102158800Y-57810400D01*
X96520000Y-57188100D02*
X95923100Y-57785000D01*
X104394000Y-57810400D02*
X104851200Y-57810400D01*
D26*
X96520000Y-57188100D02*
X95923100Y-57785000D01*
D25*
X104394000Y-57810400D02*
X102158800Y-57810400D01*
X102158800Y-57810400D02*
X95948500Y-57810400D01*
X95948500Y-57810400D02*
X95923100Y-57785000D01*
X95923100Y-57785000D02*
X95923100Y-57492900D01*
D26*
X61214000Y-54102000D02*
X61214000Y-55880000D01*
X61214000Y-55880000D02*
X63119000Y-57785000D01*
D25*
X59029600Y-57873900D02*
X63030100Y-57873900D01*
X63030100Y-57873900D02*
X63119000Y-57785000D01*
X67208400Y-57785000D02*
X63119000Y-57785000D01*
X71208900Y-57785000D02*
X67208400Y-57785000D01*
X75120500Y-57785000D02*
X71208900Y-57785000D01*
X79298800Y-57785000D02*
X75120500Y-57785000D01*
X83400900Y-57873900D02*
X79387700Y-57873900D01*
X79387700Y-57873900D02*
X79298800Y-57785000D01*
X87553800Y-57835800D02*
X83439000Y-57835800D01*
X83439000Y-57835800D02*
X83400900Y-57873900D01*
X91554300Y-57759600D02*
X87630000Y-57759600D01*
X87630000Y-57759600D02*
X87553800Y-57835800D01*
X95923100Y-57785000D02*
X91579700Y-57785000D01*
X91579700Y-57785000D02*
X91554300Y-57759600D01*
X95948500Y-57810400D02*
X95923100Y-57785000D01*
D26*
X56214000Y-54102000D02*
X56214000Y-50974000D01*
X56214000Y-50974000D02*
X57277000Y-49834800D01*
X56214000Y-54102000D02*
X56214000Y-64215000D01*
X59029600Y-67030600D02*
X59029600Y-70573900D01*
X56214000Y-64215000D02*
X59029600Y-67030600D01*
D25*
X54711600Y-73046600D02*
X56556900Y-73046600D01*
X56556900Y-73046600D02*
X59029600Y-70573900D01*
X95923100Y-70485000D02*
X104165400Y-70485000D01*
X104165400Y-70485000D02*
X104648000Y-70002400D01*
D26*
X56214000Y-54102000D02*
X56794400Y-54102000D01*
X92011500Y-70916800D02*
X91554300Y-70459600D01*
D25*
X63119000Y-70485000D02*
X59118500Y-70485000D01*
X59118500Y-70485000D02*
X59029600Y-70573900D01*
X67208400Y-70485000D02*
X63119000Y-70485000D01*
X71208900Y-70485000D02*
X67208400Y-70485000D01*
X75120500Y-70485000D02*
X71208900Y-70485000D01*
X79298800Y-70485000D02*
X75120500Y-70485000D01*
X83400900Y-70573900D02*
X79387700Y-70573900D01*
X79387700Y-70573900D02*
X79298800Y-70485000D01*
X87553800Y-70535800D02*
X83439000Y-70535800D01*
X83439000Y-70535800D02*
X83400900Y-70573900D01*
X91554300Y-70459600D02*
X87630000Y-70459600D01*
X87630000Y-70459600D02*
X87553800Y-70535800D01*
X95923100Y-70485000D02*
X91579700Y-70485000D01*
X91579700Y-70485000D02*
X91554300Y-70459600D01*
D26*
X118618000Y-113030000D02*
X118618000Y-113792000D01*
X118618000Y-113792000D02*
X117348000Y-115062000D01*
D25*
X102412800Y-115570000D02*
X103886000Y-115570000D01*
X125867160Y-119888000D02*
X132207000Y-119888000D01*
X121381520Y-115062000D02*
X125867160Y-119888000D01*
X121158000Y-115062000D02*
X121381520Y-115062000D01*
X106172000Y-115062000D02*
X117348000Y-115062000D01*
X117348000Y-115062000D02*
X121158000Y-115062000D01*
X103886000Y-115570000D02*
X106172000Y-115062000D01*
X131927600Y-120167400D02*
X132207000Y-119888000D01*
X50774600Y-56667400D02*
X48285400Y-56667400D01*
X44805600Y-64922400D02*
X49733200Y-69850000D01*
X44805600Y-60147200D02*
X44805600Y-64922400D01*
X48285400Y-56667400D02*
X44805600Y-60147200D01*
X54711600Y-68046600D02*
X51536600Y-68046600D01*
X51536600Y-68046600D02*
X49733200Y-69850000D01*
X53502600Y-58953400D02*
X53060600Y-58953400D01*
X53060600Y-58953400D02*
X50774600Y-56667400D01*
X100081080Y-131739640D02*
X100081080Y-133817360D01*
X100081080Y-133817360D02*
X98414840Y-135483600D01*
X100081080Y-131739640D02*
X102194640Y-130855440D01*
X102905560Y-130256280D02*
X107714000Y-130348000D01*
X102194640Y-130855440D02*
X102905560Y-130256280D01*
X110000000Y-127620000D02*
X110000000Y-128062000D01*
X110000000Y-128062000D02*
X107714000Y-130348000D01*
X109728000Y-127348000D02*
X110000000Y-127620000D01*
X115443000Y-53223200D02*
X115443000Y-52781200D01*
X115443000Y-52781200D02*
X117729000Y-50495200D01*
X106032300Y-48234600D02*
X106032300Y-46748700D01*
X117729000Y-48310800D02*
X117729000Y-50495200D01*
X113995200Y-44577000D02*
X117729000Y-48310800D01*
X108204000Y-44577000D02*
X113995200Y-44577000D01*
X106032300Y-46748700D02*
X108204000Y-44577000D01*
X106032300Y-48234600D02*
X106032300Y-47625000D01*
X106032300Y-47625000D02*
X102984300Y-44577000D01*
X51371500Y-105918000D02*
X51371500Y-108267500D01*
X51371500Y-108267500D02*
X49085500Y-110553500D01*
X50038000Y-117779800D02*
X50480000Y-117779800D01*
X50480000Y-117779800D02*
X52766000Y-120065800D01*
X50038000Y-117779800D02*
X50342800Y-113004600D01*
X50342800Y-113004600D02*
X49085500Y-110553500D01*
D26*
X52766000Y-120065800D02*
X53124100Y-120065800D01*
D27*
X127317500Y-43370500D02*
X130048000Y-43370500D01*
X130048000Y-43370500D02*
X131381500Y-42037000D01*
X120142000Y-133350000D02*
X122110500Y-132143500D01*
X122110500Y-132143500D02*
X125895100Y-130594100D01*
X125895100Y-130594100D02*
X125844300Y-136867900D01*
X125844300Y-136867900D02*
X125971300Y-136994900D01*
X134493000Y-129984500D02*
X126403100Y-130086100D01*
X126403100Y-130086100D02*
X125895100Y-130594100D01*
X127381000Y-49149000D02*
X127381000Y-43434000D01*
X127381000Y-43434000D02*
X127317500Y-43370500D01*
X134683500Y-56070500D02*
X134302500Y-56070500D01*
X134302500Y-56070500D02*
X127381000Y-49149000D01*
X134493000Y-129984500D02*
X135953500Y-129984500D01*
X135953500Y-129984500D02*
X139319000Y-126619000D01*
X139319000Y-126619000D02*
X139319000Y-58229500D01*
X139319000Y-58229500D02*
X137160000Y-56070500D01*
X137160000Y-56070500D02*
X134683500Y-56070500D01*
M02*
