M48
;DRILL file {KiCad 4.0.7} date 02/24/19 00:24:17
;FORMAT={-:-/ absolute / metric / decimal}
FMAT,2
METRIC,TZ
T1C0.800
T2C0.900
T3C1.000
T4C1.200
T5C1.300
T6C1.520
T7C3.048
%
G90
G05
M71
T1
X54.356Y-131.064
X54.356Y-138.684
X56.896Y-131.064
X56.896Y-138.684
X59.944Y-130.937
X59.944Y-138.557
X60.579Y-43.561
X60.579Y-46.355
X63.373Y-130.937
X63.373Y-138.557
X66.548Y-131.064
X66.548Y-136.064
X68.199Y-43.561
X68.199Y-46.355
X70.993Y-42.926
X70.993Y-50.546
X74.168Y-42.926
X74.168Y-50.546
X77.089Y-50.165
X81.915Y-130.429
X81.915Y-135.429
X82.089Y-50.165
X85.09Y-130.302
X85.09Y-137.922
X85.344Y-45.8
X85.344Y-50.8
X88.138Y-130.302
X88.138Y-137.922
X88.646Y-42.926
X88.646Y-50.546
X91.44Y-133.985
X91.567Y-136.779
X92.202Y-42.926
X92.202Y-50.546
X94.996Y-42.926
X94.996Y-45.72
X99.06Y-133.985
X99.187Y-136.779
X102.616Y-42.926
X102.616Y-45.72
T2
X53.172Y-89.052
X53.172Y-91.592
X53.503Y-58.953
X53.503Y-61.493
X53.871Y-120.015
X53.871Y-122.555
X119.888Y-53.274
X121.793Y-126.939
X122.428Y-53.274
X124.333Y-126.939
T3
X51.054Y-132.207
X51.054Y-134.747
X61.316Y-49.581
X63.856Y-49.581
X66.04Y-53.721
X68.58Y-53.721
X69.977Y-131.699
X69.977Y-134.239
X78.486Y-131.191
X78.486Y-133.731
X85.725Y-53.848
X88.265Y-53.848
X92.202Y-130.937
X94.742Y-130.937
X97.18Y-49.428
X97.282Y-130.937
X99.72Y-49.428
X102.26Y-49.428
T4
X57.556Y-109.804
X57.556Y-122.504
X59.03Y-57.874
X59.03Y-70.574
X61.747Y-109.855
X61.747Y-122.555
X63.119Y-57.785
X63.119Y-70.485
X65.938Y-109.918
X65.938Y-122.618
X67.208Y-57.785
X67.208Y-70.485
X70.244Y-109.918
X70.244Y-122.618
X71.209Y-57.785
X71.209Y-70.485
X74.435Y-109.855
X74.435Y-122.555
X75.12Y-57.785
X75.12Y-70.485
X78.232Y-109.753
X78.232Y-122.453
X79.299Y-57.785
X79.299Y-70.485
X82.423Y-109.69
X82.423Y-122.39
X83.401Y-57.874
X83.401Y-70.574
X86.284Y-109.69
X86.284Y-122.39
X87.554Y-57.836
X87.554Y-70.536
X90.195Y-109.69
X90.195Y-122.39
X91.554Y-57.76
X91.554Y-70.46
X94.043Y-109.639
X94.043Y-122.339
X95.834Y-82.199
X95.834Y-94.899
X95.923Y-57.785
X95.923Y-70.485
X99.913Y-82.255
X99.913Y-94.955
X103.993Y-82.199
X103.993Y-94.899
X108.128Y-82.144
X108.128Y-94.844
X112.281Y-82.055
X112.281Y-94.755
X116.548Y-82.055
X116.548Y-94.755
X120.459Y-82.144
X120.459Y-94.844
X124.46Y-82.055
X124.46Y-94.755
X128.46Y-82.055
X128.46Y-94.755
X132.461Y-82.055
X132.461Y-94.755
T5
X62.763Y-82.753
X62.763Y-88.849
X63.017Y-94.945
X83.439Y-82.677
X83.439Y-88.773
X83.693Y-94.869
X102.413Y-109.474
X102.413Y-115.57
X102.667Y-121.666
X104.394Y-57.81
X104.394Y-63.906
X104.648Y-70.002
X129.413Y-62.23
X129.413Y-68.326
X129.667Y-74.422
X131.953Y-107.696
X132.207Y-113.792
X132.207Y-119.888
T6
X46.279Y-72.771
X46.279Y-77.851
X48.28Y-104.221
X48.28Y-109.301
X51.415Y-46.675
X56.495Y-46.675
X105.41Y-133.731
X107.188Y-46.609
X110.49Y-133.731
X112.268Y-46.609
T7
X45.Y-45.
X45.Y-135.
X135.Y-45.
X135.Y-135.
T0
M30
