M48
;DRILL file {KiCad 4.0.7} date 11/25/19 01:40:26
;FORMAT={-:-/ absolute / metric / decimal}
FMAT,2
METRIC,TZ
T1C0.400
T2C0.800
T3C0.900
T4C1.000
T5C1.100
T6C1.200
T7C1.500
T8C1.520
T9C3.048
%
G90
G05
M71
T1
X51.689Y-123.698
X51.689Y-125.984
X54.8Y-125.222
X55.562Y-142.24
X56.959Y-125.73
X57.404Y-142.939
X57.975Y-126.047
X58.039Y-145.351
X58.395Y-136.004
X60.134Y-125.539
X62.357Y-125.476
X65.151Y-125.539
X67.818Y-125.539
X70.675Y-125.476
X73.152Y-125.412
X76.136Y-143.954
X76.136Y-147.511
X76.2Y-138.112
X76.263Y-141.351
X76.327Y-135.445
X76.454Y-132.715
X76.581Y-125.476
X76.644Y-130.365
X76.772Y-128.207
X79.248Y-125.476
X98.806Y-81.915
X99.187Y-96.774
X100.076Y-113.411
X100.457Y-93.218
X100.838Y-117.602
X101.092Y-78.105
X120.396Y-135.382
X122.428Y-134.62
X126.492Y-133.858
X130.048Y-133.096
X132.842Y-132.334
X136.144Y-131.572
X142.24Y-130.81
T2
X54.157Y-123.027
X56.657Y-123.027
X58.059Y-127.825
X58.087Y-130.647
X59.665Y-145.633
X59.665Y-148.133
X59.69Y-139.994
X59.69Y-142.494
X65.679Y-127.825
X65.707Y-130.647
X69.926Y-127.726
X69.926Y-130.226
X73.025Y-127.762
X73.025Y-130.302
X73.025Y-132.842
X73.025Y-135.382
X73.025Y-137.922
X73.025Y-140.462
X73.025Y-143.002
X73.025Y-145.542
X73.025Y-148.082
X80.645Y-127.762
X80.645Y-130.302
X80.645Y-132.842
X80.645Y-135.382
X80.645Y-137.922
X80.645Y-140.462
X80.645Y-143.002
X80.645Y-145.542
X80.645Y-148.082
X83.566Y-135.382
X83.606Y-127.152
X83.693Y-137.922
X83.693Y-140.525
X83.693Y-148.272
X83.757Y-143.129
X83.757Y-145.796
X83.82Y-130.175
X83.82Y-132.842
X86.066Y-135.382
X86.106Y-127.152
X86.193Y-137.922
X86.193Y-140.525
X86.193Y-148.272
X86.257Y-143.129
X86.257Y-145.796
X86.32Y-130.175
X86.32Y-132.842
X90.297Y-130.302
X90.297Y-132.842
X90.297Y-135.255
X90.297Y-137.668
X90.424Y-140.081
X90.424Y-142.621
X90.424Y-145.034
X90.551Y-147.701
X93.726Y-54.864
X93.726Y-57.364
X96.393Y-63.373
X96.393Y-65.873
X96.393Y-93.091
X96.393Y-95.591
X96.393Y-108.204
X96.393Y-110.704
X96.52Y-78.232
X96.52Y-80.732
X97.917Y-130.302
X97.917Y-132.842
X97.917Y-135.255
X97.917Y-137.668
X98.044Y-140.081
X98.044Y-142.621
X98.044Y-145.034
X98.171Y-147.701
X101.473Y-127.889
X101.473Y-130.429
X101.473Y-132.969
X101.473Y-135.509
X101.473Y-138.049
X101.473Y-140.589
X101.473Y-143.129
X101.473Y-145.669
X101.473Y-148.209
X103.632Y-63.159
X103.632Y-65.659
X103.759Y-76.875
X103.759Y-79.375
X103.886Y-91.734
X103.886Y-94.234
X103.886Y-106.593
X103.886Y-109.093
X105.918Y-54.356
X105.918Y-56.856
X109.093Y-127.889
X109.093Y-130.429
X109.093Y-132.969
X109.093Y-135.509
X109.093Y-138.049
X109.093Y-140.589
X109.093Y-143.129
X109.093Y-145.669
X109.093Y-148.209
X113.792Y-145.938
X113.792Y-148.438
X116.078Y-123.952
X116.078Y-126.452
X116.141Y-129.35
X116.141Y-136.969
X120.777Y-129.54
X120.777Y-137.16
X120.904Y-123.952
X120.904Y-126.452
X125.222Y-123.952
X125.222Y-126.452
X125.222Y-129.286
X125.222Y-136.906
X129.794Y-129.286
X129.794Y-136.906
X130.048Y-123.952
X130.048Y-126.452
X134.366Y-123.952
X134.366Y-126.452
X134.366Y-129.286
X134.366Y-136.906
X138.684Y-123.952
X138.684Y-126.452
X138.684Y-129.286
X138.684Y-136.906
X143.51Y-123.952
X143.51Y-126.452
X143.51Y-129.286
X143.51Y-136.906
X147.447Y-129.286
X147.447Y-136.906
X147.828Y-123.19
X147.828Y-125.69
T3
X71.562Y-63.627
X71.562Y-66.167
X71.562Y-111.379
X71.562Y-113.919
X71.689Y-79.248
X71.689Y-81.788
X71.689Y-95.631
X71.689Y-98.171
X79.248Y-57.084
X81.788Y-57.084
X116.078Y-57.084
X116.078Y-139.319
X116.078Y-141.859
X118.618Y-57.084
X120.65Y-139.319
X120.65Y-141.859
X125.222Y-139.319
X125.222Y-141.859
X128.082Y-60.198
X128.082Y-62.738
X128.082Y-75.438
X128.082Y-77.978
X128.082Y-91.186
X128.082Y-93.726
X128.184Y-107.188
X128.184Y-109.728
X129.794Y-139.319
X129.794Y-141.859
X134.239Y-139.319
X134.239Y-141.859
X138.811Y-139.319
X138.811Y-141.859
X143.383Y-139.319
X143.383Y-141.859
X147.828Y-139.319
X147.828Y-141.859
T4
X51.664Y-129.875
X51.664Y-132.415
X51.664Y-134.955
X51.664Y-137.495
X51.664Y-140.035
X54.204Y-129.875
X54.204Y-132.415
X54.204Y-134.955
X54.204Y-137.495
X54.204Y-140.035
X62.611Y-135.103
X62.611Y-137.643
X62.611Y-140.183
X64.069Y-147.579
X65.964Y-135.103
X65.964Y-137.643
X65.964Y-140.183
X66.609Y-147.579
X69.149Y-147.579
X69.342Y-135.179
X69.342Y-137.719
X69.342Y-140.259
T5
X75.151Y-60.589
X75.151Y-68.189
X75.545Y-105.28
X75.545Y-112.88
X75.659Y-90.053
X75.659Y-97.653
X75.913Y-74.813
X75.913Y-82.413
X80.231Y-60.589
X80.231Y-68.189
X80.625Y-105.28
X80.625Y-112.88
X80.739Y-90.053
X80.739Y-97.653
X80.993Y-74.813
X80.993Y-82.413
X85.311Y-60.589
X85.311Y-68.189
X85.705Y-105.28
X85.705Y-112.88
X85.819Y-90.053
X85.819Y-97.653
X86.073Y-74.813
X86.073Y-82.413
X92.931Y-60.589
X92.931Y-68.189
X93.325Y-105.28
X93.325Y-112.88
X93.439Y-90.053
X93.439Y-97.653
X93.693Y-74.813
X93.693Y-82.413
X106.586Y-74.432
X106.586Y-82.032
X106.698Y-60.183
X106.698Y-67.783
X106.84Y-88.91
X106.84Y-96.51
X106.84Y-103.642
X106.84Y-111.242
X114.206Y-74.432
X114.206Y-82.032
X114.318Y-60.183
X114.318Y-67.783
X114.46Y-88.91
X114.46Y-96.51
X114.46Y-103.642
X114.46Y-111.242
X119.286Y-74.432
X119.286Y-82.032
X119.398Y-60.183
X119.398Y-67.783
X119.54Y-88.91
X119.54Y-96.51
X119.54Y-103.642
X119.54Y-111.242
X124.366Y-74.432
X124.366Y-82.032
X124.478Y-60.183
X124.478Y-67.783
X124.62Y-88.91
X124.62Y-96.51
X124.62Y-103.642
X124.62Y-111.242
T6
X77.47Y-116.332
X77.978Y-71.501
X77.978Y-101.6
X78.486Y-86.106
X90.17Y-116.332
X90.678Y-71.501
X90.678Y-101.6
X91.186Y-86.106
X109.022Y-70.968
X109.474Y-85.725
X109.474Y-100.076
X110.744Y-114.935
X121.722Y-70.968
X122.174Y-85.725
X122.174Y-100.076
X123.444Y-114.935
X127.467Y-145.41
X127.508Y-148.006
X132.467Y-145.41
X132.508Y-148.006
X135.655Y-145.349
X135.665Y-147.98
X140.655Y-145.349
X140.665Y-147.98
T7
X116.586Y-145.542
X116.586Y-148.463
X124.206Y-145.542
X124.206Y-148.463
T8
X68.834Y-61.341
X68.834Y-66.421
X68.834Y-109.093
X68.834Y-114.173
X68.961Y-76.962
X68.961Y-82.042
X68.961Y-93.345
X68.961Y-98.425
X78.994Y-54.356
X84.074Y-54.356
X115.824Y-54.356
X120.904Y-54.356
X130.81Y-59.944
X130.81Y-65.024
X130.81Y-75.184
X130.81Y-80.264
X130.81Y-90.932
X130.81Y-96.012
X130.912Y-106.934
X130.912Y-112.014
T9
X53.Y-53.
X53.Y-147.
X147.Y-53.
X147.002Y-147.002
T0
M30
