M48
;DRILL file {KiCad 4.0.7} date 04/07/19 18:39:05
;FORMAT={-:-/ absolute / metric / decimal}
FMAT,2
METRIC,TZ
T1C2.100
%
G90
G05
M71
T1
X66.482Y-58.547
X66.482Y-68.707
X66.482Y-106.299
X66.482Y-116.459
X66.609Y-74.168
X66.609Y-84.328
X66.609Y-90.551
X66.609Y-100.711
X76.708Y-52.004
X86.868Y-52.004
X113.538Y-52.004
X123.698Y-52.004
X133.06Y-104.394
X133.06Y-114.554
X133.162Y-57.658
X133.162Y-67.818
X133.162Y-72.898
X133.162Y-83.058
X133.162Y-88.646
X133.162Y-98.806
T0
M30
