G04 #@! TF.FileFunction,Soldermask,Top*
%FSLAX46Y46*%
G04 Gerber Fmt 4.6, Leading zero omitted, Abs format (unit mm)*
G04 Created by KiCad (PCBNEW 4.0.7) date 04/15/19 23:19:37*
%MOMM*%
%LPD*%
G01*
G04 APERTURE LIST*
%ADD10C,0.100000*%
%ADD11C,2.400000*%
%ADD12C,2.000000*%
%ADD13O,2.000000X2.000000*%
%ADD14R,2.200000X2.200000*%
%ADD15C,2.200000*%
%ADD16C,5.900000*%
%ADD17R,2.100000X2.100000*%
%ADD18O,2.100000X2.100000*%
%ADD19C,5.400000*%
%ADD20C,1.900000*%
%ADD21C,2.500000*%
%ADD22R,3.400000X3.400000*%
%ADD23C,3.400000*%
G04 APERTURE END LIST*
D10*
D11*
X70300000Y-93400000D03*
X70300000Y-78160000D03*
X70300000Y-68000000D03*
X70300000Y-73080000D03*
X77900000Y-93400000D03*
X77900000Y-73080000D03*
X77900000Y-78160000D03*
X77900000Y-68000000D03*
D12*
X53479700Y-129921000D03*
D13*
X53479700Y-137541000D03*
D12*
X75100000Y-97160000D03*
X72600000Y-97160000D03*
X63535560Y-111257080D03*
X61035560Y-111257080D03*
D14*
X63538100Y-129552700D03*
D15*
X60998100Y-129552700D03*
D12*
X52946300Y-71691500D03*
D13*
X52946300Y-79311500D03*
D14*
X63538100Y-138582400D03*
D15*
X60998100Y-138582400D03*
D14*
X63538100Y-133997700D03*
D15*
X60998100Y-133997700D03*
D12*
X132500000Y-101250000D03*
X135000000Y-101250000D03*
X119000000Y-101500000D03*
X121500000Y-101500000D03*
X104125000Y-101525000D03*
X106625000Y-101525000D03*
X89200000Y-101500000D03*
X91700000Y-101500000D03*
X73550000Y-101600000D03*
X76050000Y-101600000D03*
X90678000Y-96901000D03*
X88178000Y-96901000D03*
X107000000Y-97000000D03*
X104500000Y-97000000D03*
X121500000Y-97000000D03*
X119000000Y-97000000D03*
X136000000Y-97000000D03*
X133500000Y-97000000D03*
X59334400Y-59283600D03*
D13*
X51714400Y-59283600D03*
D16*
X147000000Y-53000000D03*
X53000000Y-147000000D03*
D12*
X52920900Y-69596000D03*
D13*
X52920900Y-61976000D03*
D14*
X63538100Y-125031500D03*
D15*
X60998100Y-125031500D03*
D14*
X63512700Y-120535700D03*
D15*
X60972700Y-120535700D03*
D14*
X61800000Y-81200000D03*
D15*
X59260000Y-81200000D03*
D14*
X61800000Y-76600000D03*
D15*
X59260000Y-76600000D03*
D14*
X61800000Y-72000000D03*
D15*
X59260000Y-72000000D03*
D12*
X56667400Y-130048000D03*
D13*
X56667400Y-137668000D03*
D12*
X53644800Y-127025400D03*
D13*
X53644800Y-119405400D03*
D12*
X56730900Y-126949200D03*
D13*
X56730900Y-119329200D03*
D12*
X56273700Y-116624100D03*
D13*
X63893700Y-116624100D03*
D12*
X55525000Y-79325000D03*
D13*
X55525000Y-71705000D03*
D12*
X55475000Y-69625000D03*
D13*
X55475000Y-62005000D03*
D14*
X61800000Y-67600000D03*
D15*
X59260000Y-67600000D03*
D14*
X61800000Y-63200000D03*
D15*
X59260000Y-63200000D03*
D17*
X54864000Y-111061500D03*
D18*
X52324000Y-111061500D03*
X54864000Y-108521500D03*
X52324000Y-108521500D03*
X54864000Y-105981500D03*
X52324000Y-105981500D03*
X54864000Y-103441500D03*
X52324000Y-103441500D03*
X54864000Y-100901500D03*
X52324000Y-100901500D03*
X54864000Y-98361500D03*
X52324000Y-98361500D03*
X54864000Y-95821500D03*
X52324000Y-95821500D03*
X54864000Y-93281500D03*
X52324000Y-93281500D03*
X54864000Y-90741500D03*
X52324000Y-90741500D03*
X54864000Y-88201500D03*
X52324000Y-88201500D03*
D12*
X63652400Y-88011000D03*
X61152400Y-88011000D03*
X63601600Y-90627200D03*
X61101600Y-90627200D03*
X63652400Y-93141800D03*
X61152400Y-93141800D03*
X63601600Y-95935800D03*
X61101600Y-95935800D03*
X63652400Y-98399600D03*
X61152400Y-98399600D03*
X63601600Y-101041200D03*
X61101600Y-101041200D03*
X63627000Y-103632000D03*
X61127000Y-103632000D03*
X63627000Y-106146600D03*
X61127000Y-106146600D03*
X63591440Y-108686600D03*
X61091440Y-108686600D03*
D11*
X58790840Y-148859240D03*
X58790840Y-143859240D03*
X62191900Y-148805900D03*
X62191900Y-143805900D03*
X56121300Y-141401800D03*
X51121300Y-141401800D03*
D16*
X147000000Y-147000000D03*
D11*
X131455000Y-93439000D03*
X131455000Y-78199000D03*
X131455000Y-68039000D03*
X131455000Y-73119000D03*
X139055000Y-93439000D03*
X139055000Y-73119000D03*
X139055000Y-78199000D03*
X139055000Y-68039000D03*
X101165500Y-93502500D03*
X101165500Y-78262500D03*
X101165500Y-68102500D03*
X101165500Y-73182500D03*
X108765500Y-93502500D03*
X108765500Y-73182500D03*
X108765500Y-78262500D03*
X108765500Y-68102500D03*
X85862000Y-93566000D03*
X85862000Y-78326000D03*
X85862000Y-68166000D03*
X85862000Y-73246000D03*
X93462000Y-93566000D03*
X93462000Y-73246000D03*
X93462000Y-78326000D03*
X93462000Y-68166000D03*
X78025000Y-105300000D03*
X78025000Y-120540000D03*
X78025000Y-130700000D03*
X78025000Y-125620000D03*
X70425000Y-105300000D03*
X70425000Y-125620000D03*
X70425000Y-120540000D03*
X70425000Y-130700000D03*
X93725000Y-105300000D03*
X93725000Y-120540000D03*
X93725000Y-130700000D03*
X93725000Y-125620000D03*
X86125000Y-105300000D03*
X86125000Y-125620000D03*
X86125000Y-120540000D03*
X86125000Y-130700000D03*
X124225000Y-105050000D03*
X124225000Y-120290000D03*
X124225000Y-130450000D03*
X124225000Y-125370000D03*
X116625000Y-105050000D03*
X116625000Y-125370000D03*
X116625000Y-120290000D03*
X116625000Y-130450000D03*
X139025000Y-105125000D03*
X139025000Y-120365000D03*
X139025000Y-130525000D03*
X139025000Y-125445000D03*
X131425000Y-105125000D03*
X131425000Y-125445000D03*
X131425000Y-120365000D03*
X131425000Y-130525000D03*
X109025000Y-105125000D03*
X109025000Y-120365000D03*
X109025000Y-130525000D03*
X109025000Y-125445000D03*
X101425000Y-105125000D03*
X101425000Y-125445000D03*
X101425000Y-120365000D03*
X101425000Y-130525000D03*
X116024500Y-93566000D03*
X116024500Y-78326000D03*
X116024500Y-68166000D03*
X116024500Y-73246000D03*
X123624500Y-93566000D03*
X123624500Y-73246000D03*
X123624500Y-78326000D03*
X123624500Y-68166000D03*
D19*
X53000000Y-53000000D03*
D20*
X143474400Y-121615200D03*
X143474400Y-119075200D03*
D21*
X148554400Y-116535200D03*
X148554400Y-126695200D03*
D22*
X146202400Y-123901200D03*
D23*
X146202400Y-118821200D03*
D20*
X134721600Y-141886900D03*
X137261600Y-141886900D03*
D21*
X139801600Y-146966900D03*
X129641600Y-146966900D03*
D22*
X132435600Y-144614900D03*
D23*
X137515600Y-144614900D03*
D20*
X118770400Y-141772600D03*
X121310400Y-141772600D03*
D21*
X123850400Y-146852600D03*
X113690400Y-146852600D03*
D22*
X116484400Y-144500600D03*
D23*
X121564400Y-144500600D03*
D20*
X102946200Y-141874200D03*
X105486200Y-141874200D03*
D21*
X108026200Y-146954200D03*
X97866200Y-146954200D03*
D22*
X100660200Y-144602200D03*
D23*
X105740200Y-144602200D03*
D20*
X87401400Y-141696400D03*
X89941400Y-141696400D03*
D21*
X92481400Y-146776400D03*
X82321400Y-146776400D03*
D22*
X85115400Y-144424400D03*
D23*
X90195400Y-144424400D03*
D20*
X71475600Y-141594800D03*
X74015600Y-141594800D03*
D21*
X76555600Y-146674800D03*
X66395600Y-146674800D03*
D22*
X69189600Y-144322800D03*
D23*
X74269600Y-144322800D03*
D20*
X143322000Y-72898000D03*
X143322000Y-70358000D03*
D21*
X148402000Y-67818000D03*
X148402000Y-77978000D03*
D22*
X146050000Y-75184000D03*
D23*
X146050000Y-70104000D03*
D12*
X97700000Y-109725000D03*
D13*
X97700000Y-119885000D03*
D12*
X82200000Y-110810000D03*
D13*
X82200000Y-120970000D03*
D12*
X143129000Y-101981000D03*
D13*
X143129000Y-112141000D03*
D12*
X127850000Y-109625000D03*
D13*
X127850000Y-119785000D03*
D12*
X112900000Y-109850000D03*
D13*
X112900000Y-120010000D03*
D20*
X72009000Y-59116000D03*
X69469000Y-59116000D03*
D21*
X66929000Y-54036000D03*
X77089000Y-54036000D03*
D22*
X74295000Y-56388000D03*
D23*
X69215000Y-56388000D03*
D20*
X87630000Y-59116000D03*
X85090000Y-59116000D03*
D21*
X82550000Y-54036000D03*
X92710000Y-54036000D03*
D22*
X89916000Y-56388000D03*
D23*
X84836000Y-56388000D03*
D20*
X103886000Y-59116000D03*
X101346000Y-59116000D03*
D21*
X98806000Y-54036000D03*
X108966000Y-54036000D03*
D22*
X106172000Y-56388000D03*
D23*
X101092000Y-56388000D03*
D20*
X119888000Y-59243000D03*
X117348000Y-59243000D03*
D21*
X114808000Y-54163000D03*
X124968000Y-54163000D03*
D22*
X122174000Y-56515000D03*
D23*
X117094000Y-56515000D03*
D20*
X136017000Y-59116000D03*
X133477000Y-59116000D03*
D21*
X130937000Y-54036000D03*
X141097000Y-54036000D03*
D22*
X138303000Y-56388000D03*
D23*
X133223000Y-56388000D03*
D12*
X81788000Y-88392000D03*
D13*
X81788000Y-78232000D03*
D12*
X97282000Y-88392000D03*
D13*
X97282000Y-78232000D03*
D12*
X112395000Y-89789000D03*
D13*
X112395000Y-79629000D03*
D12*
X127508000Y-89916000D03*
D13*
X127508000Y-79756000D03*
D12*
X143002000Y-92583000D03*
D13*
X143002000Y-82423000D03*
M02*
