M48
;DRILL file {KiCad 4.0.7} date 04/15/19 23:19:39
;FORMAT={-:-/ absolute / metric / decimal}
FMAT,2
METRIC,TZ
T1C0.800
T2C0.900
T3C1.000
T4C1.200
T5C1.300
T6C1.520
T7C3.048
%
G90
G05
M71
T1
X51.714Y-59.284
X52.921Y-61.976
X52.921Y-69.596
X52.946Y-71.691
X52.946Y-79.311
X53.48Y-129.921
X53.48Y-137.541
X53.645Y-119.405
X53.645Y-127.025
X55.475Y-62.005
X55.475Y-69.625
X55.525Y-71.705
X55.525Y-79.325
X56.274Y-116.624
X56.667Y-130.048
X56.667Y-137.668
X56.731Y-119.329
X56.731Y-126.949
X59.334Y-59.284
X61.036Y-111.257
X61.091Y-108.687
X61.102Y-90.627
X61.102Y-95.936
X61.102Y-101.041
X61.127Y-103.632
X61.127Y-106.147
X61.152Y-88.011
X61.152Y-93.142
X61.152Y-98.4
X63.536Y-111.257
X63.591Y-108.687
X63.602Y-90.627
X63.602Y-95.936
X63.602Y-101.041
X63.627Y-103.632
X63.627Y-106.147
X63.652Y-88.011
X63.652Y-93.142
X63.652Y-98.4
X63.894Y-116.624
X72.6Y-97.16
X73.55Y-101.6
X75.1Y-97.16
X76.05Y-101.6
X81.788Y-78.232
X81.788Y-88.392
X82.2Y-110.81
X82.2Y-120.97
X88.178Y-96.901
X89.2Y-101.5
X90.678Y-96.901
X91.7Y-101.5
X97.282Y-78.232
X97.282Y-88.392
X97.7Y-109.725
X97.7Y-119.885
X104.125Y-101.525
X104.5Y-97.
X106.625Y-101.525
X107.Y-97.
X112.395Y-79.629
X112.395Y-89.789
X112.9Y-109.85
X112.9Y-120.01
X119.Y-97.
X119.Y-101.5
X121.5Y-97.
X121.5Y-101.5
X127.508Y-79.756
X127.508Y-89.916
X127.85Y-109.625
X127.85Y-119.785
X132.5Y-101.25
X133.5Y-97.
X135.Y-101.25
X136.Y-97.
X143.002Y-82.423
X143.002Y-92.583
X143.129Y-101.981
X143.129Y-112.141
T2
X59.26Y-63.2
X59.26Y-67.6
X59.26Y-72.
X59.26Y-76.6
X59.26Y-81.2
X60.973Y-120.536
X60.998Y-125.031
X60.998Y-129.553
X60.998Y-133.998
X60.998Y-138.582
X61.8Y-63.2
X61.8Y-67.6
X61.8Y-72.
X61.8Y-76.6
X61.8Y-81.2
X63.513Y-120.536
X63.538Y-125.031
X63.538Y-129.553
X63.538Y-133.998
X63.538Y-138.582
X69.469Y-59.116
X71.476Y-141.595
X72.009Y-59.116
X74.016Y-141.595
X85.09Y-59.116
X87.401Y-141.696
X87.63Y-59.116
X89.941Y-141.696
X101.346Y-59.116
X102.946Y-141.874
X103.886Y-59.116
X105.486Y-141.874
X117.348Y-59.243
X118.77Y-141.773
X119.888Y-59.243
X121.31Y-141.773
X133.477Y-59.116
X134.722Y-141.887
X136.017Y-59.116
X137.262Y-141.887
X143.322Y-70.358
X143.322Y-72.898
X143.474Y-119.075
X143.474Y-121.615
T3
X52.324Y-88.201
X52.324Y-90.742
X52.324Y-93.281
X52.324Y-95.822
X52.324Y-98.361
X52.324Y-100.901
X52.324Y-103.441
X52.324Y-105.981
X52.324Y-108.521
X52.324Y-111.061
X54.864Y-88.201
X54.864Y-90.742
X54.864Y-93.281
X54.864Y-95.822
X54.864Y-98.361
X54.864Y-100.901
X54.864Y-103.441
X54.864Y-105.981
X54.864Y-108.521
X54.864Y-111.061
T4
X51.121Y-141.402
X56.121Y-141.402
X58.791Y-143.859
X58.791Y-148.859
X62.192Y-143.806
X62.192Y-148.806
T5
X70.3Y-68.
X70.3Y-73.08
X70.3Y-78.16
X70.3Y-93.4
X70.425Y-105.3
X70.425Y-120.54
X70.425Y-125.62
X70.425Y-130.7
X77.9Y-68.
X77.9Y-73.08
X77.9Y-78.16
X77.9Y-93.4
X78.025Y-105.3
X78.025Y-120.54
X78.025Y-125.62
X78.025Y-130.7
X85.862Y-68.166
X85.862Y-73.246
X85.862Y-78.326
X85.862Y-93.566
X86.125Y-105.3
X86.125Y-120.54
X86.125Y-125.62
X86.125Y-130.7
X93.462Y-68.166
X93.462Y-73.246
X93.462Y-78.326
X93.462Y-93.566
X93.725Y-105.3
X93.725Y-120.54
X93.725Y-125.62
X93.725Y-130.7
X101.165Y-68.102
X101.165Y-73.182
X101.165Y-78.263
X101.165Y-93.502
X101.425Y-105.125
X101.425Y-120.365
X101.425Y-125.445
X101.425Y-130.525
X108.765Y-68.102
X108.765Y-73.182
X108.765Y-78.263
X108.765Y-93.502
X109.025Y-105.125
X109.025Y-120.365
X109.025Y-125.445
X109.025Y-130.525
X116.024Y-68.166
X116.024Y-73.246
X116.024Y-78.326
X116.024Y-93.566
X116.625Y-105.05
X116.625Y-120.29
X116.625Y-125.37
X116.625Y-130.45
X123.624Y-68.166
X123.624Y-73.246
X123.624Y-78.326
X123.624Y-93.566
X124.225Y-105.05
X124.225Y-120.29
X124.225Y-125.37
X124.225Y-130.45
X131.425Y-105.125
X131.425Y-120.365
X131.425Y-125.445
X131.425Y-130.525
X131.455Y-68.039
X131.455Y-73.119
X131.455Y-78.199
X131.455Y-93.439
X139.025Y-105.125
X139.025Y-120.365
X139.025Y-125.445
X139.025Y-130.525
X139.055Y-68.039
X139.055Y-73.119
X139.055Y-78.199
X139.055Y-93.439
T6
X69.19Y-144.323
X69.215Y-56.388
X74.27Y-144.323
X74.295Y-56.388
X84.836Y-56.388
X85.115Y-144.424
X89.916Y-56.388
X90.195Y-144.424
X100.66Y-144.602
X101.092Y-56.388
X105.74Y-144.602
X106.172Y-56.388
X116.484Y-144.501
X117.094Y-56.515
X121.564Y-144.501
X122.174Y-56.515
X132.436Y-144.615
X133.223Y-56.388
X137.516Y-144.615
X138.303Y-56.388
X146.05Y-70.104
X146.05Y-75.184
X146.202Y-118.821
X146.202Y-123.901
T7
X53.Y-53.
X53.Y-147.
X147.Y-53.
X147.Y-147.
T0
M30
