G04 #@! TF.FileFunction,Copper,L2,Bot,Signal*
%FSLAX46Y46*%
G04 Gerber Fmt 4.6, Leading zero omitted, Abs format (unit mm)*
G04 Created by KiCad (PCBNEW 4.0.7) date 02/17/19 23:45:43*
%MOMM*%
%LPD*%
G01*
G04 APERTURE LIST*
%ADD10C,0.100000*%
%ADD11R,3.000000X3.000000*%
%ADD12C,3.000000*%
%ADD13C,1.500000*%
%ADD14C,4.064000*%
%ADD15C,5.000000*%
%ADD16C,1.600000*%
%ADD17O,1.600000X1.600000*%
%ADD18R,1.700000X1.700000*%
%ADD19O,1.700000X1.700000*%
%ADD20R,1.600000X1.600000*%
%ADD21C,2.000000*%
%ADD22C,0.500000*%
G04 APERTURE END LIST*
D10*
D11*
X56388000Y-44958000D03*
D12*
X51308000Y-44958000D03*
D11*
X57912000Y-85090000D03*
D12*
X52832000Y-85090000D03*
D13*
X52639000Y-57404000D03*
X52639000Y-59944000D03*
X52639000Y-73406000D03*
X52639000Y-75946000D03*
D11*
X121920000Y-44958000D03*
D12*
X127000000Y-44958000D03*
D11*
X124206000Y-85344000D03*
D12*
X129286000Y-85344000D03*
D14*
X100000000Y-55000000D03*
X75000000Y-62500000D03*
X91008000Y-78064000D03*
X100000000Y-62500000D03*
X115508000Y-78064000D03*
X75000000Y-55000000D03*
X91008000Y-85064000D03*
D15*
X45000000Y-45000000D03*
X135000000Y-45000000D03*
X45000000Y-135000000D03*
X135000000Y-135000000D03*
X135000000Y-85000000D03*
X135000000Y-95000000D03*
X45000000Y-85000000D03*
X45000000Y-95000000D03*
D13*
X127447000Y-56896000D03*
X127447000Y-54356000D03*
X127320000Y-73152000D03*
X127320000Y-70612000D03*
D14*
X115508000Y-85064000D03*
X87325200Y-53543200D03*
X87477600Y-62687200D03*
X103733600Y-78384400D03*
X103886000Y-85445600D03*
D16*
X64000000Y-42000000D03*
D17*
X64000000Y-54700000D03*
D16*
X68000000Y-42000000D03*
D17*
X68000000Y-54700000D03*
D16*
X115000000Y-42000000D03*
D17*
X115000000Y-54700000D03*
D16*
X111000000Y-42000000D03*
D17*
X111000000Y-54700000D03*
D16*
X74168000Y-41910000D03*
X74168000Y-46910000D03*
X83566000Y-48768000D03*
X88566000Y-48768000D03*
X104648000Y-41910000D03*
X104648000Y-46910000D03*
X95504000Y-48768000D03*
X90504000Y-48768000D03*
D18*
X86106000Y-42672000D03*
D19*
X88646000Y-42672000D03*
X91186000Y-42672000D03*
D16*
X77470000Y-49530000D03*
D17*
X77470000Y-41910000D03*
D16*
X80772000Y-41910000D03*
D17*
X80772000Y-49530000D03*
D16*
X101346000Y-49530000D03*
D17*
X101346000Y-41910000D03*
D16*
X98298000Y-41910000D03*
D17*
X98298000Y-49530000D03*
D20*
X71374000Y-41910000D03*
D17*
X71374000Y-49530000D03*
D20*
X107696000Y-41910000D03*
D17*
X107696000Y-49530000D03*
D14*
X44259500Y-70485000D03*
X44450000Y-54356000D03*
X44500800Y-60096400D03*
X44196000Y-76581000D03*
X135636000Y-59690000D03*
X135445500Y-75628500D03*
X135509000Y-54229000D03*
X135521700Y-70446900D03*
D11*
X53136800Y-134518400D03*
D12*
X58216800Y-134518400D03*
D13*
X52512000Y-122110500D03*
X52512000Y-124650500D03*
D14*
X44196000Y-124841000D03*
X44246800Y-119405400D03*
X135453120Y-105166160D03*
X57277000Y-120015000D03*
X75184000Y-119888000D03*
X66421000Y-119761000D03*
X135536940Y-110474760D03*
D11*
X72771000Y-94615000D03*
D12*
X67691000Y-94615000D03*
D14*
X57277000Y-112141000D03*
X82931000Y-119634000D03*
X82677000Y-113030000D03*
D11*
X123383040Y-95219520D03*
D12*
X128463040Y-95219520D03*
D13*
X127264120Y-107736640D03*
X127264120Y-105196640D03*
D18*
X60198000Y-93091000D03*
D19*
X62738000Y-93091000D03*
D14*
X117195600Y-121970800D03*
X117043200Y-111455200D03*
X111760000Y-100965000D03*
X117856000Y-101092000D03*
X113233200Y-128066800D03*
X121056400Y-127965200D03*
D11*
X106172000Y-94361000D03*
D12*
X101092000Y-94361000D03*
D14*
X117538500Y-94297500D03*
X111887000Y-94424500D03*
X109220000Y-134620000D03*
X103212900Y-134874000D03*
D11*
X120294400Y-134569200D03*
D12*
X115214400Y-134569200D03*
D18*
X104521000Y-101473000D03*
D19*
X104521000Y-104013000D03*
D18*
X108712000Y-124523500D03*
D19*
X106172000Y-124523500D03*
D16*
X65379600Y-127182880D03*
X60379600Y-127182880D03*
X65379600Y-136961880D03*
X70379600Y-136961880D03*
X48564800Y-100685600D03*
X43564800Y-100685600D03*
X53543200Y-107238800D03*
X48543200Y-107238800D03*
D20*
X65323720Y-130256280D03*
D17*
X72943720Y-130256280D03*
D20*
X55943500Y-104013000D03*
D17*
X63563500Y-104013000D03*
D16*
X88011000Y-128971040D03*
D17*
X75311000Y-128971040D03*
D16*
X87975440Y-133045200D03*
D17*
X75275440Y-133045200D03*
D16*
X65491360Y-133385560D03*
D17*
X73111360Y-133385560D03*
D16*
X62529720Y-137576560D03*
D17*
X62529720Y-129956560D03*
D16*
X50673000Y-100584000D03*
D17*
X63373000Y-100584000D03*
D16*
X50673000Y-96583500D03*
D17*
X63373000Y-96583500D03*
D16*
X55816500Y-106934000D03*
D17*
X63436500Y-106934000D03*
D16*
X45821600Y-104114600D03*
D17*
X53441600Y-104114600D03*
D16*
X77470000Y-102616000D03*
X77470000Y-107616000D03*
X83947000Y-94742000D03*
X78947000Y-94742000D03*
D20*
X83566000Y-100330000D03*
D17*
X83566000Y-107950000D03*
D18*
X87122000Y-92710000D03*
D19*
X89662000Y-92710000D03*
D18*
X75214480Y-137073640D03*
D19*
X77754480Y-137073640D03*
D18*
X42636440Y-106898440D03*
D19*
X42636440Y-104358440D03*
D16*
X87005160Y-95275400D03*
D17*
X87005160Y-107975400D03*
D16*
X91084400Y-95498920D03*
D17*
X91084400Y-108198920D03*
D16*
X80518000Y-107823000D03*
D17*
X80518000Y-100203000D03*
D16*
X76454000Y-97790000D03*
D17*
X84074000Y-97790000D03*
D18*
X108559600Y-119735600D03*
D19*
X106019600Y-119735600D03*
D18*
X60452000Y-50850800D03*
D19*
X60452000Y-53390800D03*
D18*
X118922800Y-53187600D03*
D19*
X118922800Y-55727600D03*
D21*
X60452000Y-53390800D02*
X57607200Y-53390800D01*
X57607200Y-53390800D02*
X56388000Y-54610000D01*
X44500800Y-60096400D02*
X45288200Y-60096400D01*
X45288200Y-60096400D02*
X47040800Y-58521600D01*
X47040800Y-58521600D02*
X47853600Y-58521600D01*
X47853600Y-58521600D02*
X48971200Y-57404000D01*
X48971200Y-57404000D02*
X52639000Y-57404000D01*
X56388000Y-44958000D02*
X56388000Y-54610000D01*
X56388000Y-54610000D02*
X56388000Y-57000000D01*
X56388000Y-57000000D02*
X56388000Y-57404000D01*
X56388000Y-57404000D02*
X57404000Y-57404000D01*
X75000000Y-62500000D02*
X62500000Y-62500000D01*
X57404000Y-57404000D02*
X52639000Y-57404000D01*
X62500000Y-62500000D02*
X57404000Y-57404000D01*
X52735000Y-57500000D02*
X52639000Y-57404000D01*
X87477600Y-62687200D02*
X87426800Y-77012800D01*
X87426800Y-77012800D02*
X86375600Y-78064000D01*
X44627800Y-76581000D02*
X46786800Y-74422000D01*
X49733200Y-73406000D02*
X52639000Y-73406000D01*
X48717200Y-74422000D02*
X49733200Y-73406000D01*
X46786800Y-74422000D02*
X48717200Y-74422000D01*
X44196000Y-76581000D02*
X44627800Y-76581000D01*
X57912000Y-85090000D02*
X57912000Y-82550000D01*
X57912000Y-82550000D02*
X62398000Y-78064000D01*
X91008000Y-78064000D02*
X86375600Y-78064000D01*
X86375600Y-78064000D02*
X82000000Y-78064000D01*
X82000000Y-78064000D02*
X62398000Y-78064000D01*
X62398000Y-78064000D02*
X61300000Y-78064000D01*
X56642000Y-73406000D02*
X52639000Y-73406000D01*
X61300000Y-78064000D02*
X56642000Y-73406000D01*
X103733600Y-62500000D02*
X103733600Y-78384400D01*
X118922800Y-55727600D02*
X120751600Y-55727600D01*
X120751600Y-55727600D02*
X121920000Y-56896000D01*
X103479600Y-78130400D02*
X103733600Y-78384400D01*
X127447000Y-56896000D02*
X128727200Y-56896000D01*
X128727200Y-56896000D02*
X129794000Y-57962800D01*
X129794000Y-57962800D02*
X131419600Y-57962800D01*
X131419600Y-57962800D02*
X132080000Y-58623200D01*
X132080000Y-58623200D02*
X134569200Y-58623200D01*
X134569200Y-58623200D02*
X135636000Y-59690000D01*
X121920000Y-44958000D02*
X121920000Y-56896000D01*
X122000000Y-56000000D02*
X122000000Y-56896000D01*
X122000000Y-56816000D02*
X122000000Y-56000000D01*
X121920000Y-56896000D02*
X122000000Y-56816000D01*
X125104000Y-56896000D02*
X122000000Y-56896000D01*
X127447000Y-56896000D02*
X125104000Y-56896000D01*
X119500000Y-62500000D02*
X108000000Y-62500000D01*
X125104000Y-56896000D02*
X119500000Y-62500000D01*
X102666800Y-62500000D02*
X100000000Y-62500000D01*
X108000000Y-62500000D02*
X103733600Y-62500000D01*
X103733600Y-62500000D02*
X102666800Y-62500000D01*
X127320000Y-73152000D02*
X128663700Y-73152000D01*
X133166595Y-75158072D02*
X135445500Y-75628500D01*
X131749800Y-74409300D02*
X133166595Y-75158072D01*
X129921000Y-74409300D02*
X131749800Y-74409300D01*
X128663700Y-73152000D02*
X129921000Y-74409300D01*
X120101000Y-78064000D02*
X121392000Y-78064000D01*
X121392000Y-78064000D02*
X127320000Y-73152000D01*
X124206000Y-85344000D02*
X124206000Y-82169000D01*
X124206000Y-82169000D02*
X120101000Y-78064000D01*
X115508000Y-78064000D02*
X120101000Y-78064000D01*
D22*
X77470000Y-41910000D02*
X74168000Y-41910000D01*
X71374000Y-41910000D02*
X74168000Y-41910000D01*
X83566000Y-48768000D02*
X83566000Y-45212000D01*
X83566000Y-45212000D02*
X86106000Y-42672000D01*
X83566000Y-48768000D02*
X81534000Y-48768000D01*
X81534000Y-48768000D02*
X80772000Y-49530000D01*
X80772000Y-49530000D02*
X77470000Y-49530000D01*
X104648000Y-41910000D02*
X101346000Y-41910000D01*
X107696000Y-41910000D02*
X104648000Y-41910000D01*
X88646000Y-42672000D02*
X88646000Y-44958000D01*
X93218000Y-46482000D02*
X95504000Y-48768000D01*
X90170000Y-46482000D02*
X93218000Y-46482000D01*
X88646000Y-44958000D02*
X90170000Y-46482000D01*
X95504000Y-48768000D02*
X97536000Y-48768000D01*
X97536000Y-48768000D02*
X98298000Y-49530000D01*
X101346000Y-49530000D02*
X98298000Y-49530000D01*
D21*
X60452000Y-50850800D02*
X63296800Y-50850800D01*
X64000000Y-51554000D02*
X64000000Y-54700000D01*
X63296800Y-50850800D02*
X64000000Y-51554000D01*
X68000000Y-54700000D02*
X64000000Y-54700000D01*
D22*
X68000000Y-54700000D02*
X68000000Y-52904000D01*
X68000000Y-52904000D02*
X71374000Y-49530000D01*
D21*
X115000000Y-54700000D02*
X115000000Y-54570400D01*
X115000000Y-54570400D02*
X116382800Y-53187600D01*
X116382800Y-53187600D02*
X118922800Y-53187600D01*
D22*
X111000000Y-54700000D02*
X111000000Y-51056000D01*
X109474000Y-49530000D02*
X107696000Y-49530000D01*
X111000000Y-51056000D02*
X109474000Y-49530000D01*
D21*
X115000000Y-54700000D02*
X111000000Y-54700000D01*
X57277000Y-122174000D02*
X52639000Y-122237500D01*
X52639000Y-122237500D02*
X52512000Y-122110500D01*
X44246800Y-119405400D02*
X45516800Y-119405400D01*
X45516800Y-119405400D02*
X48387000Y-121856500D01*
X48387000Y-121856500D02*
X52744076Y-121920000D01*
X52744076Y-121920000D02*
X52512000Y-122110500D01*
X53136800Y-134518400D02*
X53136800Y-130251200D01*
X57277000Y-126111000D02*
X57277000Y-122174000D01*
X57277000Y-122174000D02*
X57277000Y-120015000D01*
X53136800Y-130251200D02*
X57277000Y-126111000D01*
X56388000Y-119126000D02*
X57277000Y-120015000D01*
X123383040Y-95219520D02*
X123383040Y-106227880D01*
X123383040Y-106227880D02*
X124891800Y-107736640D01*
X117180360Y-107736640D02*
X117180360Y-111318040D01*
X117180360Y-111318040D02*
X117043200Y-111455200D01*
X82931000Y-119634000D02*
X88630760Y-119634000D01*
X100528120Y-107736640D02*
X117180360Y-107736640D01*
X117180360Y-107736640D02*
X124891800Y-107736640D01*
X124891800Y-107736640D02*
X127264120Y-107736640D01*
X88630760Y-119634000D02*
X100528120Y-107736640D01*
X127264120Y-107736640D02*
X129517140Y-107736640D01*
X131394200Y-109613700D02*
X134675880Y-109613700D01*
X129517140Y-107736640D02*
X131394200Y-109613700D01*
X134675880Y-109613700D02*
X135536940Y-110474760D01*
X108559600Y-119735600D02*
X108559600Y-124371100D01*
X108559600Y-124371100D02*
X108712000Y-124523500D01*
X115214400Y-134569200D02*
X109270800Y-134569200D01*
X109270800Y-134569200D02*
X109220000Y-134620000D01*
X113233200Y-128066800D02*
X113233200Y-132588000D01*
X113233200Y-132588000D02*
X115214400Y-134569200D01*
X108712000Y-124523500D02*
X109689900Y-124523500D01*
X109689900Y-124523500D02*
X113233200Y-128066800D01*
D22*
X65323720Y-130256280D02*
X66273680Y-130256280D01*
X69402960Y-133385560D02*
X73111360Y-133385560D01*
X66273680Y-130256280D02*
X69402960Y-133385560D01*
X65323720Y-130256280D02*
X65323720Y-127238760D01*
X65323720Y-127238760D02*
X65379600Y-127182880D01*
X65491360Y-135061960D02*
X73202800Y-135061960D01*
X73202800Y-135061960D02*
X75214480Y-137073640D01*
X65491360Y-133385560D02*
X65491360Y-135061960D01*
X65491360Y-135061960D02*
X65491360Y-136850120D01*
X65491360Y-136850120D02*
X65379600Y-136961880D01*
X62529720Y-129956560D02*
X62529720Y-130423920D01*
X62529720Y-130423920D02*
X65491360Y-133385560D01*
X63436500Y-106934000D02*
X62230000Y-106934000D01*
X59309000Y-104013000D02*
X55943500Y-104013000D01*
X62230000Y-106934000D02*
X59309000Y-104013000D01*
X55943500Y-104013000D02*
X55943500Y-103835200D01*
X55943500Y-103835200D02*
X54317900Y-102209600D01*
X54317900Y-102209600D02*
X50088800Y-102209600D01*
X50088800Y-102209600D02*
X48564800Y-100685600D01*
X53441600Y-105445560D02*
X47330360Y-105445560D01*
X45653960Y-107121960D02*
X42859960Y-107121960D01*
X47330360Y-105445560D02*
X45653960Y-107121960D01*
X42859960Y-107121960D02*
X42636440Y-106898440D01*
X53441600Y-104114600D02*
X53441600Y-105445560D01*
X53441600Y-105445560D02*
X53441600Y-107137200D01*
X53441600Y-107137200D02*
X53543200Y-107238800D01*
X55816500Y-106934000D02*
X53848000Y-106934000D01*
X53848000Y-106934000D02*
X53543200Y-107238800D01*
D21*
X72771000Y-106172000D02*
X72771000Y-109474000D01*
X72771000Y-109474000D02*
X75184000Y-111887000D01*
X72771000Y-94615000D02*
X72771000Y-106172000D01*
X79629000Y-124460000D02*
X106108500Y-124460000D01*
X106108500Y-124460000D02*
X106172000Y-124523500D01*
D22*
X72943720Y-130256280D02*
X74025760Y-130256280D01*
X74025760Y-130256280D02*
X75311000Y-128971040D01*
D21*
X75311000Y-128971040D02*
X75311000Y-133009640D01*
X75311000Y-133009640D02*
X75275440Y-133045200D01*
X75311000Y-128971040D02*
X75311000Y-128778000D01*
X75311000Y-128778000D02*
X79629000Y-124460000D01*
X75184000Y-119888000D02*
X75184000Y-111887000D01*
X75184000Y-119888000D02*
X75184000Y-120015000D01*
X75184000Y-120015000D02*
X79629000Y-124460000D01*
D22*
X63373000Y-100584000D02*
X63373000Y-103822500D01*
X63373000Y-103822500D02*
X63563500Y-104013000D01*
D21*
X63373000Y-96583500D02*
X65722500Y-96583500D01*
X65722500Y-96583500D02*
X66421000Y-95885000D01*
X63373000Y-96583500D02*
X63373000Y-100584000D01*
X62738000Y-93091000D02*
X65659000Y-93853000D01*
X65659000Y-93853000D02*
X67691000Y-94615000D01*
X66421000Y-119761000D02*
X66421000Y-95885000D01*
X66421000Y-95885000D02*
X67691000Y-94615000D01*
D22*
X77470000Y-102616000D02*
X78105000Y-102616000D01*
X78105000Y-102616000D02*
X80391000Y-100330000D01*
X80391000Y-100330000D02*
X83566000Y-100330000D01*
X83947000Y-94742000D02*
X85725000Y-92964000D01*
X85725000Y-92964000D02*
X86868000Y-92964000D01*
X86868000Y-92964000D02*
X87122000Y-92710000D01*
X83947000Y-94742000D02*
X83947000Y-97663000D01*
X83947000Y-97663000D02*
X84074000Y-97790000D01*
X80518000Y-107823000D02*
X80899000Y-107823000D01*
X80899000Y-107823000D02*
X85979000Y-102743000D01*
X85979000Y-102743000D02*
X85979000Y-99695000D01*
X85979000Y-99695000D02*
X84074000Y-97790000D01*
D21*
X104521000Y-101473000D02*
X111252000Y-101473000D01*
X111252000Y-101473000D02*
X111760000Y-100965000D01*
X112867440Y-99857560D02*
X111760000Y-100965000D01*
X87005160Y-107975400D02*
X83591400Y-107975400D01*
X83591400Y-107975400D02*
X83566000Y-107950000D01*
X91084400Y-108198920D02*
X87228680Y-108198920D01*
X87228680Y-108198920D02*
X87005160Y-107975400D01*
X106172000Y-94361000D02*
X106045000Y-94361000D01*
X106045000Y-94361000D02*
X92207080Y-108198920D01*
X92207080Y-108198920D02*
X91084400Y-108198920D01*
X111887000Y-94424500D02*
X106235500Y-94424500D01*
X106235500Y-94424500D02*
X106172000Y-94361000D01*
X111760000Y-100965000D02*
X111760000Y-94551500D01*
X111760000Y-94551500D02*
X111887000Y-94424500D01*
X111760000Y-94551500D02*
X111887000Y-94424500D01*
M02*
