G04 #@! TF.FileFunction,Soldermask,Bot*
%FSLAX46Y46*%
G04 Gerber Fmt 4.6, Leading zero omitted, Abs format (unit mm)*
G04 Created by KiCad (PCBNEW 4.0.7) date 02/23/19 14:20:11*
%MOMM*%
%LPD*%
G01*
G04 APERTURE LIST*
%ADD10C,0.100000*%
%ADD11R,2.100000X2.100000*%
%ADD12O,2.100000X2.100000*%
%ADD13R,3.400000X3.400000*%
%ADD14C,3.400000*%
%ADD15C,1.900000*%
%ADD16C,2.500000*%
%ADD17C,4.464000*%
%ADD18C,4.400000*%
%ADD19C,5.400000*%
%ADD20C,2.000000*%
%ADD21O,2.000000X2.000000*%
%ADD22R,2.000000X2.000000*%
%ADD23C,3.900000*%
%ADD24C,1.840000*%
%ADD25R,2.600000X2.600000*%
%ADD26O,2.600000X2.600000*%
%ADD27C,0.254000*%
G04 APERTURE END LIST*
D10*
D11*
X124000000Y-128500000D03*
D12*
X124000000Y-125960000D03*
D13*
X56388000Y-44958000D03*
D14*
X51308000Y-44958000D03*
D13*
X57912000Y-85090000D03*
D14*
X52832000Y-85090000D03*
D15*
X52639000Y-57404000D03*
X52639000Y-59944000D03*
D16*
X47559000Y-62484000D03*
X47559000Y-52324000D03*
D15*
X52639000Y-73406000D03*
X52639000Y-75946000D03*
D16*
X47559000Y-78486000D03*
X47559000Y-68326000D03*
D13*
X121920000Y-44958000D03*
D14*
X127000000Y-44958000D03*
D13*
X124206000Y-85344000D03*
D14*
X129286000Y-85344000D03*
D17*
X100000000Y-55000000D03*
X75000000Y-62500000D03*
D18*
X82753200Y-58318400D03*
D17*
X91008000Y-78064000D03*
D18*
X98094800Y-82448400D03*
D17*
X100000000Y-62500000D03*
D18*
X92202000Y-58318400D03*
D17*
X115508000Y-78064000D03*
D18*
X109220000Y-82550000D03*
D17*
X75000000Y-55000000D03*
X91008000Y-85064000D03*
D19*
X45000000Y-45000000D03*
X135000000Y-45000000D03*
X45000000Y-135000000D03*
X135000000Y-135000000D03*
X135000000Y-85000000D03*
X135000000Y-95000000D03*
X45000000Y-85000000D03*
X45000000Y-95000000D03*
D15*
X127447000Y-56896000D03*
X127447000Y-54356000D03*
D16*
X132527000Y-51816000D03*
X132527000Y-61976000D03*
D15*
X127320000Y-73152000D03*
X127320000Y-70612000D03*
D16*
X132400000Y-68072000D03*
X132400000Y-78232000D03*
D17*
X115508000Y-85064000D03*
X87325200Y-53543200D03*
X87477600Y-62687200D03*
X103733600Y-78384400D03*
X103886000Y-85445600D03*
D20*
X64000000Y-42000000D03*
D21*
X64000000Y-54700000D03*
D20*
X68000000Y-42000000D03*
D21*
X68000000Y-54700000D03*
D20*
X115000000Y-42000000D03*
D21*
X115000000Y-54700000D03*
D20*
X111000000Y-42000000D03*
D21*
X111000000Y-54700000D03*
D20*
X74168000Y-41910000D03*
X74168000Y-46910000D03*
X83566000Y-48768000D03*
X88566000Y-48768000D03*
X104648000Y-41910000D03*
X104648000Y-46910000D03*
X95504000Y-48768000D03*
X90504000Y-48768000D03*
D11*
X86106000Y-42672000D03*
D12*
X88646000Y-42672000D03*
X91186000Y-42672000D03*
D20*
X77470000Y-49530000D03*
D21*
X77470000Y-41910000D03*
D20*
X80772000Y-41910000D03*
D21*
X80772000Y-49530000D03*
D20*
X101346000Y-49530000D03*
D21*
X101346000Y-41910000D03*
D20*
X98298000Y-41910000D03*
D21*
X98298000Y-49530000D03*
D22*
X71374000Y-41910000D03*
D21*
X71374000Y-49530000D03*
D22*
X107696000Y-41910000D03*
D21*
X107696000Y-49530000D03*
D17*
X44259500Y-70485000D03*
X44450000Y-54356000D03*
X44500800Y-60096400D03*
X44196000Y-76581000D03*
X135636000Y-59690000D03*
X135445500Y-75628500D03*
X135509000Y-54229000D03*
X135521700Y-70446900D03*
D11*
X60452000Y-50850800D03*
D12*
X60452000Y-53390800D03*
D11*
X118922800Y-53187600D03*
D12*
X118922800Y-55727600D03*
D20*
X67335400Y-138404600D03*
X67335400Y-133404600D03*
X77292200Y-138404600D03*
X77292200Y-133404600D03*
X119380000Y-138988800D03*
X119380000Y-133988800D03*
X110413800Y-138861800D03*
X110413800Y-133861800D03*
D22*
X64363600Y-138480800D03*
D21*
X64363600Y-130860800D03*
D22*
X122224800Y-139039600D03*
D21*
X122224800Y-131419600D03*
D15*
X52918400Y-122682000D03*
X52918400Y-125222000D03*
D16*
X47838400Y-127762000D03*
X47838400Y-117602000D03*
D15*
X52791400Y-106045000D03*
X52791400Y-108585000D03*
D16*
X47711400Y-111125000D03*
X47711400Y-100965000D03*
D17*
X67500000Y-114500000D03*
X75500000Y-122500000D03*
X67500000Y-122500000D03*
D23*
X71500000Y-118500000D03*
D17*
X98000000Y-107000000D03*
D23*
X79500000Y-118500000D03*
D17*
X98000000Y-115000000D03*
X75500000Y-114500000D03*
X83500000Y-122500000D03*
X83500000Y-114500000D03*
X107000000Y-115000000D03*
D23*
X102000000Y-111000000D03*
D17*
X115000000Y-106500000D03*
D23*
X111000000Y-111000000D03*
D17*
X115000000Y-115000000D03*
X107000000Y-107000000D03*
D15*
X126989800Y-122656600D03*
X126989800Y-120116600D03*
D16*
X132069800Y-117576600D03*
X132069800Y-127736600D03*
D15*
X127218400Y-106426000D03*
X127218400Y-103886000D03*
D16*
X132298400Y-101346000D03*
X132298400Y-111506000D03*
D11*
X56500000Y-128000000D03*
D12*
X56500000Y-125460000D03*
D20*
X57937400Y-138404600D03*
D21*
X57937400Y-130784600D03*
D20*
X61264800Y-138430000D03*
D21*
X61264800Y-130810000D03*
D20*
X70637400Y-138404600D03*
D21*
X70637400Y-130784600D03*
D20*
X73990200Y-130657600D03*
D21*
X73990200Y-138277600D03*
D20*
X127863600Y-139014200D03*
D21*
X127863600Y-131394200D03*
D20*
X124942600Y-139014200D03*
D21*
X124942600Y-131394200D03*
D20*
X116382800Y-138912600D03*
D21*
X116382800Y-131292600D03*
D20*
X113385600Y-131292600D03*
D21*
X113385600Y-138912600D03*
D17*
X131572000Y-123571000D03*
X48006000Y-106019600D03*
X48323500Y-122618500D03*
X131826000Y-106489500D03*
D20*
X116319300Y-128625600D03*
X121319300Y-128625600D03*
X107213400Y-132207000D03*
X107213400Y-137207000D03*
X94830900Y-132740400D03*
X94830900Y-137740400D03*
D11*
X82638900Y-136740900D03*
D12*
X85178900Y-136740900D03*
X87718900Y-136740900D03*
X90258900Y-136740900D03*
D22*
X113779300Y-128905000D03*
D21*
X106159300Y-128905000D03*
D24*
X100050600Y-131902200D03*
X100050600Y-134442200D03*
X100050600Y-136982200D03*
D25*
X104101900Y-129921000D03*
D26*
X104101900Y-137541000D03*
D27*
G36*
X125374031Y-105625195D02*
X125524330Y-123799638D01*
X117859269Y-123689005D01*
X117708970Y-105514562D01*
X125374031Y-105625195D01*
X125374031Y-105625195D01*
G37*
X125374031Y-105625195D02*
X125524330Y-123799638D01*
X117859269Y-123689005D01*
X117708970Y-105514562D01*
X125374031Y-105625195D01*
G36*
X64373000Y-123373000D02*
X54627000Y-123373000D01*
X54627000Y-105500000D01*
X54616994Y-105450590D01*
X54588553Y-105408965D01*
X54546159Y-105381685D01*
X54500000Y-105373000D01*
X54306606Y-105373000D01*
X54552606Y-105127000D01*
X64373000Y-105127000D01*
X64373000Y-123373000D01*
X64373000Y-123373000D01*
G37*
X64373000Y-123373000D02*
X54627000Y-123373000D01*
X54627000Y-105500000D01*
X54616994Y-105450590D01*
X54588553Y-105408965D01*
X54546159Y-105381685D01*
X54500000Y-105373000D01*
X54306606Y-105373000D01*
X54552606Y-105127000D01*
X64373000Y-105127000D01*
X64373000Y-123373000D01*
M02*
