G04 #@! TF.FileFunction,Copper,L1,Top,Signal*
%FSLAX46Y46*%
G04 Gerber Fmt 4.6, Leading zero omitted, Abs format (unit mm)*
G04 Created by KiCad (PCBNEW 4.0.7) date 03/11/19 12:07:03*
%MOMM*%
%LPD*%
G01*
G04 APERTURE LIST*
%ADD10C,0.100000*%
%ADD11C,1.500000*%
%ADD12R,3.000000X3.000000*%
%ADD13C,3.000000*%
%ADD14C,1.600000*%
%ADD15O,1.600000X1.600000*%
%ADD16R,3.000000X5.000000*%
%ADD17C,4.064000*%
%ADD18C,5.000000*%
%ADD19R,1.700000X1.700000*%
%ADD20O,1.700000X1.700000*%
%ADD21R,1.600000X1.600000*%
%ADD22R,2.000000X2.000000*%
%ADD23O,2.000000X2.000000*%
%ADD24R,2.200000X2.200000*%
%ADD25O,2.200000X2.200000*%
%ADD26O,3.500000X2.000000*%
%ADD27R,3.500000X3.500000*%
%ADD28C,0.600000*%
%ADD29C,0.500000*%
%ADD30C,1.000000*%
%ADD31C,2.000000*%
%ADD32C,0.635000*%
G04 APERTURE END LIST*
D10*
D11*
X52766000Y-56769000D03*
X52766000Y-59309000D03*
D12*
X50038000Y-54483000D03*
D13*
X50038000Y-59563000D03*
D12*
X95758000Y-133477000D03*
D13*
X90678000Y-133477000D03*
D14*
X111023400Y-41414700D03*
D15*
X111023400Y-54114700D03*
D16*
X111023400Y-43954700D03*
X111023400Y-51574700D03*
D17*
X100000000Y-55000000D03*
D18*
X75000000Y-62500000D03*
X91008000Y-78064000D03*
X100000000Y-62500000D03*
X115508000Y-78064000D03*
D17*
X75000000Y-55000000D03*
X91008000Y-85064000D03*
D18*
X43000000Y-43000000D03*
X137000000Y-43000000D03*
X43000000Y-137000000D03*
X137000000Y-137000000D03*
D17*
X115508000Y-85064000D03*
X87325200Y-53543200D03*
D18*
X87477600Y-62687200D03*
X103733600Y-78384400D03*
D17*
X103759000Y-85090000D03*
D14*
X74168000Y-41910000D03*
X74168000Y-46910000D03*
X83566000Y-48768000D03*
X88566000Y-48768000D03*
X104648000Y-41910000D03*
X104648000Y-46910000D03*
X95504000Y-48768000D03*
X90504000Y-48768000D03*
D19*
X86106000Y-42672000D03*
D20*
X88646000Y-42672000D03*
X91186000Y-42672000D03*
D14*
X77470000Y-49530000D03*
D15*
X77470000Y-41910000D03*
D14*
X80772000Y-41910000D03*
D15*
X80772000Y-49530000D03*
D14*
X101346000Y-49530000D03*
D15*
X101346000Y-41910000D03*
D14*
X98298000Y-41910000D03*
D15*
X98298000Y-49530000D03*
D21*
X71323200Y-42062400D03*
D15*
X71323200Y-49682400D03*
D21*
X107746800Y-41833800D03*
D15*
X107746800Y-49453800D03*
D19*
X58547000Y-52832000D03*
D20*
X58547000Y-55372000D03*
D22*
X118935500Y-51943000D03*
D20*
X118935500Y-54483000D03*
D22*
X56134000Y-80010000D03*
D20*
X56134000Y-82550000D03*
D19*
X82042000Y-85471000D03*
D20*
X79502000Y-85471000D03*
D14*
X76581000Y-85217000D03*
D15*
X68961000Y-85217000D03*
D21*
X66802000Y-82550000D03*
D15*
X59182000Y-82550000D03*
D21*
X66675000Y-85344000D03*
D15*
X59055000Y-85344000D03*
D14*
X79502000Y-82423000D03*
X82002000Y-82423000D03*
X76581000Y-82550000D03*
D15*
X68961000Y-82550000D03*
D19*
X69735700Y-57416700D03*
D20*
X69735700Y-59956700D03*
D19*
X108597700Y-57467500D03*
D23*
X108597700Y-60007500D03*
D14*
X114947700Y-41338500D03*
D15*
X114947700Y-54038500D03*
D16*
X114947700Y-43878500D03*
X114947700Y-51498500D03*
D14*
X66446400Y-42024300D03*
D15*
X66446400Y-54724300D03*
D16*
X66446400Y-44564300D03*
X66446400Y-52184300D03*
D14*
X62484000Y-41986200D03*
D15*
X62484000Y-54686200D03*
D16*
X62484000Y-44526200D03*
X62484000Y-52146200D03*
D12*
X118999000Y-133477000D03*
D13*
X113919000Y-133477000D03*
D14*
X119773700Y-76060300D03*
X124773700Y-76060300D03*
X119773700Y-78955900D03*
X124773700Y-78955900D03*
X110045500Y-126111000D03*
X110045500Y-121111000D03*
X113284000Y-126174500D03*
X113284000Y-121174500D03*
D12*
X107442000Y-133477000D03*
D13*
X102362000Y-133477000D03*
D19*
X103568500Y-105346500D03*
D20*
X103568500Y-102806500D03*
D24*
X104076500Y-112458500D03*
D25*
X104076500Y-122618500D03*
D24*
X94996000Y-112649000D03*
D25*
X94996000Y-122809000D03*
D24*
X100139500Y-122682000D03*
D25*
X100139500Y-112522000D03*
D26*
X112077500Y-110843000D03*
X112077500Y-114793000D03*
X112077500Y-107093000D03*
X112077500Y-103393000D03*
D27*
X82169000Y-123888500D03*
X82169000Y-129888500D03*
X86869000Y-126888500D03*
D19*
X120269000Y-120396000D03*
D20*
X120269000Y-122936000D03*
D13*
X130302000Y-117950000D03*
X130302000Y-132950000D03*
X130302000Y-82950000D03*
D11*
X52639000Y-73406000D03*
X52639000Y-75946000D03*
D12*
X49911000Y-71120000D03*
D13*
X49911000Y-76200000D03*
D11*
X127447000Y-56896000D03*
X127447000Y-54356000D03*
D12*
X130175000Y-59182000D03*
D13*
X130175000Y-54102000D03*
D11*
X127320000Y-73152000D03*
X127320000Y-70612000D03*
D12*
X130048000Y-75438000D03*
D13*
X130048000Y-70358000D03*
D17*
X137000000Y-85000000D03*
X43000000Y-85000000D03*
X43053000Y-96012000D03*
X137000000Y-96000000D03*
D19*
X58991500Y-60071000D03*
D20*
X56451500Y-60071000D03*
D19*
X123317000Y-58928000D03*
D20*
X120777000Y-58928000D03*
D28*
X55702200Y-70523100D03*
X56807100Y-70561200D03*
X60236100Y-70446900D03*
X61645800Y-70370700D03*
X65646300Y-70332600D03*
X67208400Y-70332600D03*
X71285100Y-70218300D03*
X72694800Y-70485000D03*
X78734920Y-70408800D03*
X80020160Y-70352920D03*
X84658200Y-70352920D03*
X89910920Y-70352920D03*
X94325440Y-70297040D03*
X95666560Y-70352920D03*
X101198680Y-70352920D03*
X106116120Y-70408800D03*
X111213900Y-70408800D03*
X113703100Y-70408800D03*
X120015000Y-70497700D03*
X122148600Y-70497700D03*
X41402000Y-65151000D03*
X43815000Y-65151000D03*
X45212000Y-65151000D03*
X48260000Y-65278000D03*
X49784000Y-65278000D03*
X53086000Y-66294000D03*
X53975000Y-67691000D03*
X136906000Y-64897000D03*
X132588000Y-64897000D03*
X131318000Y-64770000D03*
X127762000Y-64897000D03*
X126619000Y-64897000D03*
X124079000Y-66294000D03*
X123317000Y-67437000D03*
X41275000Y-88773000D03*
X42672000Y-88773000D03*
X44958000Y-88900000D03*
X53594000Y-88773000D03*
X56515000Y-88773000D03*
X65659000Y-89154000D03*
X70612000Y-89154000D03*
X78867000Y-89408000D03*
X80899000Y-89281000D03*
X87757000Y-89154000D03*
X89662000Y-89154000D03*
X98552000Y-89027000D03*
X100711000Y-89154000D03*
X109347000Y-89027000D03*
X111760000Y-88900000D03*
X120142000Y-88900000D03*
X122047000Y-88773000D03*
X130937000Y-88265000D03*
X134874000Y-88265000D03*
X137668000Y-88900000D03*
D29*
X49784000Y-65278000D02*
X49784000Y-64770000D01*
X50038000Y-64516000D02*
X50038000Y-59563000D01*
X49784000Y-64770000D02*
X50038000Y-64516000D01*
X55702200Y-70523100D02*
X55740300Y-70561200D01*
X55740300Y-70561200D02*
X56807100Y-70561200D01*
X60236100Y-70446900D02*
X60312300Y-70370700D01*
X60312300Y-70370700D02*
X61645800Y-70370700D01*
X65646300Y-70332600D02*
X67208400Y-70332600D01*
X71285100Y-70218300D02*
X71551800Y-70485000D01*
X71551800Y-70485000D02*
X72694800Y-70485000D01*
X78734920Y-70408800D02*
X78790800Y-70352920D01*
X78790800Y-70352920D02*
X80020160Y-70352920D01*
X84658200Y-70352920D02*
X89910920Y-70352920D01*
X94325440Y-70297040D02*
X94381320Y-70352920D01*
X94381320Y-70352920D02*
X95666560Y-70352920D01*
X101198680Y-70352920D02*
X101254560Y-70408800D01*
X101254560Y-70408800D02*
X106116120Y-70408800D01*
X111213900Y-70408800D02*
X113703100Y-70408800D01*
X122148600Y-70497700D02*
X120015000Y-70497700D01*
X45212000Y-65151000D02*
X43815000Y-65151000D01*
X49784000Y-65278000D02*
X48260000Y-65278000D01*
X53086000Y-66802000D02*
X53086000Y-66294000D01*
X53975000Y-67691000D02*
X53086000Y-66802000D01*
X131445000Y-64897000D02*
X132588000Y-64897000D01*
X131318000Y-64770000D02*
X131445000Y-64897000D01*
X126619000Y-64897000D02*
X127762000Y-64897000D01*
X124079000Y-66675000D02*
X124079000Y-66294000D01*
X123317000Y-67437000D02*
X124079000Y-66675000D01*
X115508000Y-85064000D02*
X130937000Y-86868000D01*
X44958000Y-88900000D02*
X42672000Y-88773000D01*
X56515000Y-88773000D02*
X53594000Y-88773000D01*
X70612000Y-89154000D02*
X65659000Y-89154000D01*
X80772000Y-89408000D02*
X78867000Y-89408000D01*
X80899000Y-89281000D02*
X80772000Y-89408000D01*
X89662000Y-89154000D02*
X87757000Y-89154000D01*
X100584000Y-89027000D02*
X98552000Y-89027000D01*
X100711000Y-89154000D02*
X100584000Y-89027000D01*
X111633000Y-89027000D02*
X109347000Y-89027000D01*
X111760000Y-88900000D02*
X111633000Y-89027000D01*
X121920000Y-88900000D02*
X120142000Y-88900000D01*
X122047000Y-88773000D02*
X121920000Y-88900000D01*
X132334000Y-88265000D02*
X130937000Y-88265000D01*
X134874000Y-88265000D02*
X132334000Y-88265000D01*
X134493000Y-87376000D02*
X137668000Y-88900000D01*
X130937000Y-86868000D02*
X134493000Y-87376000D01*
D30*
X62484000Y-41986200D02*
X66446400Y-42024300D01*
X66446400Y-42024300D02*
X66446400Y-44564300D01*
X62484000Y-41986200D02*
X62484000Y-44526200D01*
X111023400Y-41414700D02*
X114947700Y-41338500D01*
X114947700Y-41338500D02*
X114947700Y-43878500D01*
X111023400Y-41414700D02*
X111023400Y-43954700D01*
X62484000Y-54686200D02*
X62484000Y-52146200D01*
X66446400Y-54724300D02*
X66446400Y-52184300D01*
X66446400Y-54724300D02*
X62484000Y-54686200D01*
D31*
X114947700Y-54038500D02*
X111099600Y-54038500D01*
X111099600Y-54038500D02*
X111023400Y-54114700D01*
D30*
X111023400Y-54114700D02*
X114947700Y-54038500D01*
X114947700Y-54038500D02*
X114947700Y-51498500D01*
X111023400Y-54114700D02*
X111023400Y-51574700D01*
D32*
G36*
X44686450Y-42985858D02*
X44672308Y-43000000D01*
X45926764Y-44254456D01*
X46265924Y-43911182D01*
X46366014Y-42592007D01*
X46265924Y-42088818D01*
X45926765Y-41745545D01*
X46229309Y-41443002D01*
X46124807Y-41338500D01*
X60504267Y-41338500D01*
X60284175Y-41558592D01*
X60158500Y-41861998D01*
X60158500Y-43137325D01*
X60364875Y-43343700D01*
X61506456Y-43343700D01*
X62152633Y-43989877D01*
X62484000Y-43658511D01*
X62815367Y-43989877D01*
X63461544Y-43343700D01*
X64289175Y-43343700D01*
X64327275Y-43381800D01*
X65468856Y-43381800D01*
X66115033Y-44027977D01*
X66446400Y-43696611D01*
X66777767Y-44027977D01*
X67423944Y-43381800D01*
X68565525Y-43381800D01*
X68771900Y-43175425D01*
X68771900Y-41900098D01*
X68646225Y-41596692D01*
X68414008Y-41364475D01*
X68351299Y-41338500D01*
X69552040Y-41338500D01*
X69552040Y-42862400D01*
X69618457Y-43215375D01*
X69827065Y-43539562D01*
X70145364Y-43757046D01*
X70523200Y-43833560D01*
X72123200Y-43833560D01*
X72476175Y-43767143D01*
X72800362Y-43558535D01*
X73017846Y-43240236D01*
X73018153Y-43238720D01*
X73173992Y-43394831D01*
X73817877Y-43662196D01*
X74515065Y-43662804D01*
X75159415Y-43396564D01*
X75652831Y-42904008D01*
X75825619Y-42487888D01*
X75850901Y-42614987D01*
X76230795Y-43183539D01*
X76799347Y-43563433D01*
X77470000Y-43696834D01*
X78140653Y-43563433D01*
X78709205Y-43183539D01*
X78712187Y-43179076D01*
X80068609Y-43179076D01*
X80150242Y-43446298D01*
X80785486Y-43567290D01*
X81393758Y-43446298D01*
X81475391Y-43179076D01*
X80772000Y-42475685D01*
X80068609Y-43179076D01*
X78712187Y-43179076D01*
X79089099Y-42614987D01*
X79170678Y-42204860D01*
X79235702Y-42531758D01*
X79502924Y-42613391D01*
X80206315Y-41910000D01*
X79923472Y-41627157D01*
X80212129Y-41338500D01*
X80766185Y-41338500D01*
X80772000Y-41344315D01*
X80777815Y-41338500D01*
X81331871Y-41338500D01*
X81620528Y-41627157D01*
X81337685Y-41910000D01*
X82041076Y-42613391D01*
X82308298Y-42531758D01*
X82422583Y-41931728D01*
X82775677Y-41578633D01*
X82535544Y-41338500D01*
X84433551Y-41338500D01*
X84361354Y-41444164D01*
X84284840Y-41822000D01*
X84284840Y-43522000D01*
X84351257Y-43874975D01*
X84559865Y-44199162D01*
X84878164Y-44416646D01*
X85256000Y-44493160D01*
X86956000Y-44493160D01*
X87308975Y-44426743D01*
X87633162Y-44218135D01*
X87661958Y-44175991D01*
X87956213Y-44372606D01*
X88646000Y-44509813D01*
X89335787Y-44372606D01*
X89920560Y-43981873D01*
X90005666Y-43854502D01*
X90007505Y-43854502D01*
X90026161Y-43881202D01*
X90512699Y-44206264D01*
X90761000Y-44078308D01*
X90761000Y-43097000D01*
X91611000Y-43097000D01*
X91611000Y-44078308D01*
X91859301Y-44206264D01*
X92345839Y-43881202D01*
X92720293Y-43345306D01*
X92640002Y-43179076D01*
X97594609Y-43179076D01*
X97676242Y-43446298D01*
X98311486Y-43567290D01*
X98919758Y-43446298D01*
X99001391Y-43179076D01*
X98298000Y-42475685D01*
X97594609Y-43179076D01*
X92640002Y-43179076D01*
X92600357Y-43097000D01*
X91611000Y-43097000D01*
X90761000Y-43097000D01*
X90370987Y-43097000D01*
X90448500Y-42707313D01*
X90448500Y-42636687D01*
X90370987Y-42247000D01*
X90761000Y-42247000D01*
X90761000Y-41822000D01*
X91611000Y-41822000D01*
X91611000Y-42247000D01*
X92600357Y-42247000D01*
X92720293Y-41998694D01*
X92368502Y-41495232D01*
X92368502Y-41338500D01*
X96534456Y-41338500D01*
X96294323Y-41578633D01*
X96641091Y-41925402D01*
X96761702Y-42531758D01*
X97028924Y-42613391D01*
X97732315Y-41910000D01*
X97449472Y-41627157D01*
X97738129Y-41338500D01*
X98292185Y-41338500D01*
X98298000Y-41344315D01*
X98303815Y-41338500D01*
X98857871Y-41338500D01*
X99146528Y-41627157D01*
X98863685Y-41910000D01*
X99567076Y-42613391D01*
X99717446Y-42567455D01*
X99726901Y-42614987D01*
X100106795Y-43183539D01*
X100675347Y-43563433D01*
X101346000Y-43696834D01*
X102016653Y-43563433D01*
X102585205Y-43183539D01*
X102965099Y-42614987D01*
X102990442Y-42487578D01*
X103161436Y-42901415D01*
X103653992Y-43394831D01*
X104297877Y-43662196D01*
X104995065Y-43662804D01*
X105639415Y-43396564D01*
X106045132Y-42991554D01*
X106250665Y-43310962D01*
X106568964Y-43528446D01*
X106946800Y-43604960D01*
X108546800Y-43604960D01*
X108899775Y-43538543D01*
X109223962Y-43329935D01*
X109441446Y-43011636D01*
X109489933Y-42772200D01*
X110045856Y-42772200D01*
X110692033Y-43418377D01*
X111023400Y-43087011D01*
X111354767Y-43418377D01*
X112000944Y-42772200D01*
X113142525Y-42772200D01*
X113218725Y-42696000D01*
X113970156Y-42696000D01*
X114616333Y-43342177D01*
X114947700Y-43010811D01*
X115279067Y-43342177D01*
X115925244Y-42696000D01*
X117066825Y-42696000D01*
X117273200Y-42489625D01*
X117273200Y-41338500D01*
X133875193Y-41338500D01*
X133770691Y-41443002D01*
X134073235Y-41745545D01*
X133734076Y-42088818D01*
X133633986Y-43407993D01*
X133734076Y-43911182D01*
X134073236Y-44254456D01*
X135327692Y-43000000D01*
X135313550Y-42985858D01*
X136960908Y-41338500D01*
X137039092Y-41338500D01*
X138686450Y-42985858D01*
X138672308Y-43000000D01*
X138686450Y-43014142D01*
X137014142Y-44686450D01*
X137000000Y-44672308D01*
X135745544Y-45926764D01*
X136088818Y-46265924D01*
X137407993Y-46366014D01*
X137911182Y-46265924D01*
X138254455Y-45926765D01*
X138556998Y-46229309D01*
X138926544Y-45859763D01*
X138936049Y-82824560D01*
X138219589Y-82108100D01*
X137946311Y-82381378D01*
X137783039Y-82193717D01*
X136649515Y-82107676D01*
X136216961Y-82193717D01*
X135944136Y-82507295D01*
X137000000Y-83563159D01*
X137131876Y-83431284D01*
X138568717Y-84868125D01*
X138436841Y-85000000D01*
X138568717Y-85131876D01*
X137131876Y-86568717D01*
X137000000Y-86436841D01*
X135944136Y-87492705D01*
X136216961Y-87806283D01*
X137350485Y-87892324D01*
X137783039Y-87806283D01*
X137946311Y-87618622D01*
X138219589Y-87891900D01*
X138937168Y-87174321D01*
X138938879Y-93827390D01*
X138219589Y-93108100D01*
X137946311Y-93381378D01*
X137783039Y-93193717D01*
X136649515Y-93107676D01*
X136216961Y-93193717D01*
X135944136Y-93507295D01*
X137000000Y-94563159D01*
X137131876Y-94431284D01*
X138568717Y-95868125D01*
X138436841Y-96000000D01*
X138568717Y-96131876D01*
X137131876Y-97568717D01*
X137000000Y-97436841D01*
X135944136Y-98492705D01*
X136216961Y-98806283D01*
X137350485Y-98892324D01*
X137783039Y-98806283D01*
X137946311Y-98618622D01*
X138219589Y-98891900D01*
X138939995Y-98171494D01*
X138942165Y-106608142D01*
X138806467Y-106279728D01*
X137976641Y-105448452D01*
X136891865Y-104998014D01*
X135717288Y-104996989D01*
X134631728Y-105445533D01*
X133800452Y-106275359D01*
X133350014Y-107360135D01*
X133348989Y-108534712D01*
X133797533Y-109620272D01*
X134627359Y-110451548D01*
X135712135Y-110901986D01*
X136886712Y-110903011D01*
X137972272Y-110454467D01*
X138803548Y-109624641D01*
X138942854Y-109289154D01*
X138949250Y-134162943D01*
X138556998Y-133770691D01*
X138254455Y-134073235D01*
X137911182Y-133734076D01*
X136592007Y-133633986D01*
X136088818Y-133734076D01*
X135745544Y-134073236D01*
X137000000Y-135327692D01*
X137014142Y-135313550D01*
X138686450Y-136985858D01*
X138672308Y-137000000D01*
X138686450Y-137014142D01*
X137014142Y-138686450D01*
X137000000Y-138672308D01*
X136985858Y-138686450D01*
X135313550Y-137014142D01*
X135327692Y-137000000D01*
X134073236Y-135745544D01*
X133734076Y-136088818D01*
X133633986Y-137407993D01*
X133734076Y-137911182D01*
X134073235Y-138254455D01*
X133770691Y-138556998D01*
X134186193Y-138972500D01*
X45813807Y-138972500D01*
X46229309Y-138556998D01*
X45926765Y-138254455D01*
X46265924Y-137911182D01*
X46366014Y-136592007D01*
X46265924Y-136088818D01*
X45926764Y-135745544D01*
X44672308Y-137000000D01*
X44686450Y-137014142D01*
X43014142Y-138686450D01*
X43000000Y-138672308D01*
X42985858Y-138686450D01*
X41313550Y-137014142D01*
X41327692Y-137000000D01*
X41313550Y-136985858D01*
X42856223Y-135443185D01*
X89772476Y-135443185D01*
X89962648Y-135737574D01*
X90882186Y-135839251D01*
X91393352Y-135737574D01*
X91583524Y-135443185D01*
X90678000Y-134537660D01*
X89772476Y-135443185D01*
X42856223Y-135443185D01*
X42985858Y-135313550D01*
X43000000Y-135327692D01*
X44254456Y-134073236D01*
X43911182Y-133734076D01*
X43214098Y-133681186D01*
X88315749Y-133681186D01*
X88417426Y-134192352D01*
X88711815Y-134382524D01*
X89617340Y-133477000D01*
X91738660Y-133477000D01*
X92644185Y-134382524D01*
X92938574Y-134192352D01*
X93040251Y-133272814D01*
X92938574Y-132761648D01*
X92644185Y-132571476D01*
X91738660Y-133477000D01*
X89617340Y-133477000D01*
X88711815Y-132571476D01*
X88417426Y-132761648D01*
X88315749Y-133681186D01*
X43214098Y-133681186D01*
X42592007Y-133633986D01*
X42088818Y-133734076D01*
X41745545Y-134073235D01*
X41443002Y-133770691D01*
X41027500Y-134186193D01*
X41027500Y-130969875D01*
X79593500Y-130969875D01*
X79593500Y-131802702D01*
X79719175Y-132106108D01*
X79951392Y-132338325D01*
X80254798Y-132464000D01*
X81087625Y-132464000D01*
X81294000Y-132257625D01*
X81294000Y-130763500D01*
X83044000Y-130763500D01*
X83044000Y-132257625D01*
X83250375Y-132464000D01*
X84083202Y-132464000D01*
X84386608Y-132338325D01*
X84618825Y-132106108D01*
X84744500Y-131802702D01*
X84744500Y-131510815D01*
X89772476Y-131510815D01*
X90678000Y-132416340D01*
X91117339Y-131977000D01*
X93286840Y-131977000D01*
X93286840Y-134977000D01*
X93353257Y-135329975D01*
X93561865Y-135654162D01*
X93880164Y-135871646D01*
X94258000Y-135948160D01*
X97258000Y-135948160D01*
X97610975Y-135881743D01*
X97935162Y-135673135D01*
X98092279Y-135443185D01*
X101456476Y-135443185D01*
X101646648Y-135737574D01*
X102566186Y-135839251D01*
X103077352Y-135737574D01*
X103267524Y-135443185D01*
X102362000Y-134537660D01*
X101456476Y-135443185D01*
X98092279Y-135443185D01*
X98152646Y-135354836D01*
X98229160Y-134977000D01*
X98229160Y-133681186D01*
X99999749Y-133681186D01*
X100101426Y-134192352D01*
X100395815Y-134382524D01*
X101301340Y-133477000D01*
X103422660Y-133477000D01*
X104328185Y-134382524D01*
X104622574Y-134192352D01*
X104724251Y-133272814D01*
X104622574Y-132761648D01*
X104328185Y-132571476D01*
X103422660Y-133477000D01*
X101301340Y-133477000D01*
X100395815Y-132571476D01*
X100101426Y-132761648D01*
X99999749Y-133681186D01*
X98229160Y-133681186D01*
X98229160Y-131977000D01*
X98162743Y-131624025D01*
X98089895Y-131510815D01*
X101456476Y-131510815D01*
X102362000Y-132416340D01*
X102801339Y-131977000D01*
X104970840Y-131977000D01*
X104970840Y-134977000D01*
X105037257Y-135329975D01*
X105245865Y-135654162D01*
X105564164Y-135871646D01*
X105942000Y-135948160D01*
X108942000Y-135948160D01*
X109294975Y-135881743D01*
X109619162Y-135673135D01*
X109776279Y-135443185D01*
X113013476Y-135443185D01*
X113203648Y-135737574D01*
X114123186Y-135839251D01*
X114634352Y-135737574D01*
X114824524Y-135443185D01*
X113919000Y-134537660D01*
X113013476Y-135443185D01*
X109776279Y-135443185D01*
X109836646Y-135354836D01*
X109913160Y-134977000D01*
X109913160Y-133681186D01*
X111556749Y-133681186D01*
X111658426Y-134192352D01*
X111952815Y-134382524D01*
X112858340Y-133477000D01*
X114979660Y-133477000D01*
X115885185Y-134382524D01*
X116179574Y-134192352D01*
X116281251Y-133272814D01*
X116179574Y-132761648D01*
X115885185Y-132571476D01*
X114979660Y-133477000D01*
X112858340Y-133477000D01*
X111952815Y-132571476D01*
X111658426Y-132761648D01*
X111556749Y-133681186D01*
X109913160Y-133681186D01*
X109913160Y-131977000D01*
X109846743Y-131624025D01*
X109773895Y-131510815D01*
X113013476Y-131510815D01*
X113919000Y-132416340D01*
X114358339Y-131977000D01*
X116527840Y-131977000D01*
X116527840Y-134977000D01*
X116594257Y-135329975D01*
X116802865Y-135654162D01*
X117121164Y-135871646D01*
X117499000Y-135948160D01*
X120499000Y-135948160D01*
X120851975Y-135881743D01*
X121176162Y-135673135D01*
X121393646Y-135354836D01*
X121470160Y-134977000D01*
X121470160Y-133435692D01*
X127849076Y-133435692D01*
X128221660Y-134337415D01*
X128910957Y-135027916D01*
X129812027Y-135402073D01*
X130787692Y-135402924D01*
X131689415Y-135030340D01*
X132379916Y-134341043D01*
X132754073Y-133439973D01*
X132754924Y-132464308D01*
X132382340Y-131562585D01*
X131693043Y-130872084D01*
X130791973Y-130497927D01*
X129816308Y-130497076D01*
X128914585Y-130869660D01*
X128224084Y-131558957D01*
X127849927Y-132460027D01*
X127849076Y-133435692D01*
X121470160Y-133435692D01*
X121470160Y-131977000D01*
X121403743Y-131624025D01*
X121195135Y-131299838D01*
X120876836Y-131082354D01*
X120499000Y-131005840D01*
X117499000Y-131005840D01*
X117146025Y-131072257D01*
X116821838Y-131280865D01*
X116604354Y-131599164D01*
X116527840Y-131977000D01*
X114358339Y-131977000D01*
X114824524Y-131510815D01*
X114634352Y-131216426D01*
X113714814Y-131114749D01*
X113203648Y-131216426D01*
X113013476Y-131510815D01*
X109773895Y-131510815D01*
X109638135Y-131299838D01*
X109319836Y-131082354D01*
X108942000Y-131005840D01*
X105942000Y-131005840D01*
X105589025Y-131072257D01*
X105264838Y-131280865D01*
X105047354Y-131599164D01*
X104970840Y-131977000D01*
X102801339Y-131977000D01*
X103267524Y-131510815D01*
X103077352Y-131216426D01*
X102157814Y-131114749D01*
X101646648Y-131216426D01*
X101456476Y-131510815D01*
X98089895Y-131510815D01*
X97954135Y-131299838D01*
X97635836Y-131082354D01*
X97258000Y-131005840D01*
X94258000Y-131005840D01*
X93905025Y-131072257D01*
X93580838Y-131280865D01*
X93363354Y-131599164D01*
X93286840Y-131977000D01*
X91117339Y-131977000D01*
X91583524Y-131510815D01*
X91393352Y-131216426D01*
X90473814Y-131114749D01*
X89962648Y-131216426D01*
X89772476Y-131510815D01*
X84744500Y-131510815D01*
X84744500Y-130969875D01*
X84538125Y-130763500D01*
X83044000Y-130763500D01*
X81294000Y-130763500D01*
X79799875Y-130763500D01*
X79593500Y-130969875D01*
X41027500Y-130969875D01*
X41027500Y-127974298D01*
X79593500Y-127974298D01*
X79593500Y-128807125D01*
X79799875Y-129013500D01*
X81294000Y-129013500D01*
X81294000Y-127519375D01*
X81087625Y-127313000D01*
X80254798Y-127313000D01*
X79951392Y-127438675D01*
X79719175Y-127670892D01*
X79593500Y-127974298D01*
X41027500Y-127974298D01*
X41027500Y-122138500D01*
X79447840Y-122138500D01*
X79447840Y-125638500D01*
X79514257Y-125991475D01*
X79722865Y-126315662D01*
X80041164Y-126533146D01*
X80419000Y-126609660D01*
X83919000Y-126609660D01*
X84147840Y-126566601D01*
X84147840Y-127339774D01*
X84083202Y-127313000D01*
X83250375Y-127313000D01*
X83044000Y-127519375D01*
X83044000Y-129013500D01*
X84228430Y-129013500D01*
X84422865Y-129315662D01*
X84741164Y-129533146D01*
X85119000Y-129609660D01*
X88619000Y-129609660D01*
X88971975Y-129543243D01*
X89296162Y-129334635D01*
X89513646Y-129016336D01*
X89590160Y-128638500D01*
X89590160Y-126458065D01*
X108292696Y-126458065D01*
X108558936Y-127102415D01*
X109051492Y-127595831D01*
X109695377Y-127863196D01*
X110392565Y-127863804D01*
X111036915Y-127597564D01*
X111530331Y-127105008D01*
X111651599Y-126812963D01*
X111797436Y-127165915D01*
X112289992Y-127659331D01*
X112933877Y-127926696D01*
X113631065Y-127927304D01*
X114275415Y-127661064D01*
X114768831Y-127168508D01*
X115036196Y-126524623D01*
X115036804Y-125827435D01*
X114770564Y-125183085D01*
X114278008Y-124689669D01*
X113634123Y-124422304D01*
X112936935Y-124421696D01*
X112292585Y-124687936D01*
X111799169Y-125180492D01*
X111677901Y-125472537D01*
X111532064Y-125119585D01*
X111039508Y-124626169D01*
X110395623Y-124358804D01*
X109698435Y-124358196D01*
X109054085Y-124624436D01*
X108560669Y-125116992D01*
X108293304Y-125760877D01*
X108292696Y-126458065D01*
X89590160Y-126458065D01*
X89590160Y-125138500D01*
X89523743Y-124785525D01*
X89315135Y-124461338D01*
X88996836Y-124243854D01*
X88619000Y-124167340D01*
X85119000Y-124167340D01*
X84890160Y-124210399D01*
X84890160Y-123640899D01*
X93259447Y-123640899D01*
X93709988Y-124242125D01*
X94164106Y-124545521D01*
X94446000Y-124437770D01*
X94446000Y-123359000D01*
X95546000Y-123359000D01*
X95546000Y-124437770D01*
X95827894Y-124545521D01*
X96282012Y-124242125D01*
X96732553Y-123640899D01*
X96662423Y-123438375D01*
X98214000Y-123438375D01*
X98214000Y-123946202D01*
X98339675Y-124249608D01*
X98571892Y-124481825D01*
X98875298Y-124607500D01*
X99383125Y-124607500D01*
X99589500Y-124401125D01*
X99589500Y-123232000D01*
X98420375Y-123232000D01*
X98214000Y-123438375D01*
X96662423Y-123438375D01*
X96634936Y-123359000D01*
X95546000Y-123359000D01*
X94446000Y-123359000D01*
X93357064Y-123359000D01*
X93259447Y-123640899D01*
X84890160Y-123640899D01*
X84890160Y-122138500D01*
X84859791Y-121977101D01*
X93259447Y-121977101D01*
X93357064Y-122259000D01*
X94446000Y-122259000D01*
X94446000Y-121180230D01*
X95546000Y-121180230D01*
X95546000Y-122259000D01*
X96634936Y-122259000D01*
X96732553Y-121977101D01*
X96313428Y-121417798D01*
X98214000Y-121417798D01*
X98214000Y-121925625D01*
X98420375Y-122132000D01*
X99589500Y-122132000D01*
X99589500Y-120962875D01*
X100689500Y-120962875D01*
X100689500Y-122132000D01*
X101239500Y-122132000D01*
X101239500Y-123232000D01*
X100689500Y-123232000D01*
X100689500Y-124401125D01*
X100895875Y-124607500D01*
X101403702Y-124607500D01*
X101707108Y-124481825D01*
X101939325Y-124249608D01*
X102065000Y-123946202D01*
X102065000Y-122864832D01*
X102180237Y-123444169D01*
X102625163Y-124110048D01*
X103291042Y-124554974D01*
X104076500Y-124711211D01*
X104861958Y-124554974D01*
X105527837Y-124110048D01*
X105972763Y-123444169D01*
X106073843Y-122936000D01*
X118431187Y-122936000D01*
X118568394Y-123625787D01*
X118959127Y-124210560D01*
X119543900Y-124601293D01*
X120233687Y-124738500D01*
X120304313Y-124738500D01*
X120994100Y-124601293D01*
X121578873Y-124210560D01*
X121969606Y-123625787D01*
X122106813Y-122936000D01*
X121969606Y-122246213D01*
X121775368Y-121955515D01*
X121796162Y-121942135D01*
X122013646Y-121623836D01*
X122090160Y-121246000D01*
X122090160Y-119546000D01*
X122023743Y-119193025D01*
X121815135Y-118868838D01*
X121496836Y-118651354D01*
X121119000Y-118574840D01*
X119419000Y-118574840D01*
X119066025Y-118641257D01*
X118741838Y-118849865D01*
X118524354Y-119168164D01*
X118447840Y-119546000D01*
X118447840Y-121246000D01*
X118514257Y-121598975D01*
X118722865Y-121923162D01*
X118765009Y-121951958D01*
X118568394Y-122246213D01*
X118431187Y-122936000D01*
X106073843Y-122936000D01*
X106129000Y-122658711D01*
X106129000Y-122578289D01*
X106089574Y-122380076D01*
X109342109Y-122380076D01*
X109423742Y-122647298D01*
X110058986Y-122768290D01*
X110667258Y-122647298D01*
X110729492Y-122443576D01*
X112580609Y-122443576D01*
X112662242Y-122710798D01*
X113297486Y-122831790D01*
X113905758Y-122710798D01*
X113987391Y-122443576D01*
X113284000Y-121740185D01*
X112580609Y-122443576D01*
X110729492Y-122443576D01*
X110748891Y-122380076D01*
X110045500Y-121676685D01*
X109342109Y-122380076D01*
X106089574Y-122380076D01*
X105972763Y-121792831D01*
X105527837Y-121126952D01*
X105524147Y-121124486D01*
X108388210Y-121124486D01*
X108509202Y-121732758D01*
X108776424Y-121814391D01*
X109479815Y-121111000D01*
X110611185Y-121111000D01*
X111314576Y-121814391D01*
X111581798Y-121732758D01*
X111656772Y-121339121D01*
X111747702Y-121796258D01*
X112014924Y-121877891D01*
X112718315Y-121174500D01*
X113849685Y-121174500D01*
X114553076Y-121877891D01*
X114820298Y-121796258D01*
X114941290Y-121161014D01*
X114820298Y-120552742D01*
X114553076Y-120471109D01*
X113849685Y-121174500D01*
X112718315Y-121174500D01*
X112014924Y-120471109D01*
X111747702Y-120552742D01*
X111672728Y-120946379D01*
X111581798Y-120489242D01*
X111314576Y-120407609D01*
X110611185Y-121111000D01*
X109479815Y-121111000D01*
X108776424Y-120407609D01*
X108509202Y-120489242D01*
X108388210Y-121124486D01*
X105524147Y-121124486D01*
X104861958Y-120682026D01*
X104076500Y-120525789D01*
X103291042Y-120682026D01*
X102625163Y-121126952D01*
X102180237Y-121792831D01*
X102065000Y-122372168D01*
X102065000Y-121417798D01*
X101939325Y-121114392D01*
X101707108Y-120882175D01*
X101403702Y-120756500D01*
X100895875Y-120756500D01*
X100689500Y-120962875D01*
X99589500Y-120962875D01*
X99383125Y-120756500D01*
X98875298Y-120756500D01*
X98571892Y-120882175D01*
X98339675Y-121114392D01*
X98214000Y-121417798D01*
X96313428Y-121417798D01*
X96282012Y-121375875D01*
X95827894Y-121072479D01*
X95546000Y-121180230D01*
X94446000Y-121180230D01*
X94164106Y-121072479D01*
X93709988Y-121375875D01*
X93259447Y-121977101D01*
X84859791Y-121977101D01*
X84823743Y-121785525D01*
X84615135Y-121461338D01*
X84296836Y-121243854D01*
X83919000Y-121167340D01*
X80419000Y-121167340D01*
X80066025Y-121233757D01*
X79741838Y-121442365D01*
X79524354Y-121760664D01*
X79447840Y-122138500D01*
X41027500Y-122138500D01*
X41027500Y-119841924D01*
X109342109Y-119841924D01*
X110045500Y-120545315D01*
X110685391Y-119905424D01*
X112580609Y-119905424D01*
X113284000Y-120608815D01*
X113987391Y-119905424D01*
X113905758Y-119638202D01*
X113270514Y-119517210D01*
X112662242Y-119638202D01*
X112580609Y-119905424D01*
X110685391Y-119905424D01*
X110748891Y-119841924D01*
X110667258Y-119574702D01*
X110032014Y-119453710D01*
X109423742Y-119574702D01*
X109342109Y-119841924D01*
X41027500Y-119841924D01*
X41027500Y-118435692D01*
X127849076Y-118435692D01*
X128221660Y-119337415D01*
X128910957Y-120027916D01*
X129812027Y-120402073D01*
X130787692Y-120402924D01*
X131689415Y-120030340D01*
X132379916Y-119341043D01*
X132754073Y-118439973D01*
X132754924Y-117464308D01*
X132382340Y-116562585D01*
X131693043Y-115872084D01*
X130791973Y-115497927D01*
X129816308Y-115497076D01*
X128914585Y-115869660D01*
X128224084Y-116558957D01*
X127849927Y-117460027D01*
X127849076Y-118435692D01*
X41027500Y-118435692D01*
X41027500Y-114793000D01*
X109322055Y-114793000D01*
X109470680Y-115540189D01*
X109893929Y-116173626D01*
X110527366Y-116596875D01*
X111274555Y-116745500D01*
X112880445Y-116745500D01*
X113627634Y-116596875D01*
X114261071Y-116173626D01*
X114684320Y-115540189D01*
X114832945Y-114793000D01*
X114684320Y-114045811D01*
X114261071Y-113412374D01*
X113627634Y-112989125D01*
X112880445Y-112840500D01*
X111274555Y-112840500D01*
X110527366Y-112989125D01*
X109893929Y-113412374D01*
X109470680Y-114045811D01*
X109322055Y-114793000D01*
X41027500Y-114793000D01*
X41027500Y-111549000D01*
X92924840Y-111549000D01*
X92924840Y-113749000D01*
X92991257Y-114101975D01*
X93199865Y-114426162D01*
X93518164Y-114643646D01*
X93896000Y-114720160D01*
X96096000Y-114720160D01*
X96448975Y-114653743D01*
X96773162Y-114445135D01*
X96990646Y-114126836D01*
X97067160Y-113749000D01*
X97067160Y-112481789D01*
X98087000Y-112481789D01*
X98087000Y-112562211D01*
X98243237Y-113347669D01*
X98688163Y-114013548D01*
X99354042Y-114458474D01*
X100139500Y-114614711D01*
X100924958Y-114458474D01*
X101590837Y-114013548D01*
X102005340Y-113393200D01*
X102005340Y-113558500D01*
X102071757Y-113911475D01*
X102280365Y-114235662D01*
X102598664Y-114453146D01*
X102976500Y-114529660D01*
X105176500Y-114529660D01*
X105529475Y-114463243D01*
X105853662Y-114254635D01*
X106071146Y-113936336D01*
X106147660Y-113558500D01*
X106147660Y-111358500D01*
X106081243Y-111005525D01*
X105872635Y-110681338D01*
X105554336Y-110463854D01*
X105176500Y-110387340D01*
X102976500Y-110387340D01*
X102623525Y-110453757D01*
X102299338Y-110662365D01*
X102081854Y-110980664D01*
X102005340Y-111358500D01*
X102005340Y-111650800D01*
X101590837Y-111030452D01*
X100924958Y-110585526D01*
X100139500Y-110429289D01*
X99354042Y-110585526D01*
X98688163Y-111030452D01*
X98243237Y-111696331D01*
X98087000Y-112481789D01*
X97067160Y-112481789D01*
X97067160Y-111549000D01*
X97000743Y-111196025D01*
X96792135Y-110871838D01*
X96473836Y-110654354D01*
X96096000Y-110577840D01*
X93896000Y-110577840D01*
X93543025Y-110644257D01*
X93218838Y-110852865D01*
X93001354Y-111171164D01*
X92924840Y-111549000D01*
X41027500Y-111549000D01*
X41027500Y-102806500D01*
X101730687Y-102806500D01*
X101867894Y-103496287D01*
X102062132Y-103786985D01*
X102041338Y-103800365D01*
X101823854Y-104118664D01*
X101747340Y-104496500D01*
X101747340Y-106196500D01*
X101813757Y-106549475D01*
X102022365Y-106873662D01*
X102340664Y-107091146D01*
X102718500Y-107167660D01*
X104418500Y-107167660D01*
X104771475Y-107101243D01*
X105095662Y-106892635D01*
X105313146Y-106574336D01*
X105389660Y-106196500D01*
X105389660Y-104496500D01*
X105323243Y-104143525D01*
X105114635Y-103819338D01*
X105072491Y-103790542D01*
X105269106Y-103496287D01*
X105289651Y-103393000D01*
X109322055Y-103393000D01*
X109470680Y-104140189D01*
X109893929Y-104773626D01*
X110527366Y-105196875D01*
X110759252Y-105243000D01*
X110527366Y-105289125D01*
X109893929Y-105712374D01*
X109470680Y-106345811D01*
X109322055Y-107093000D01*
X109470680Y-107840189D01*
X109893929Y-108473626D01*
X110527366Y-108896875D01*
X110884936Y-108968000D01*
X110527366Y-109039125D01*
X109893929Y-109462374D01*
X109470680Y-110095811D01*
X109322055Y-110843000D01*
X109470680Y-111590189D01*
X109893929Y-112223626D01*
X110527366Y-112646875D01*
X111274555Y-112795500D01*
X112880445Y-112795500D01*
X113627634Y-112646875D01*
X114261071Y-112223626D01*
X114684320Y-111590189D01*
X114832945Y-110843000D01*
X114684320Y-110095811D01*
X114261071Y-109462374D01*
X113627634Y-109039125D01*
X113270064Y-108968000D01*
X113627634Y-108896875D01*
X114169649Y-108534712D01*
X119348989Y-108534712D01*
X119797533Y-109620272D01*
X120627359Y-110451548D01*
X121712135Y-110901986D01*
X122886712Y-110903011D01*
X123972272Y-110454467D01*
X124803548Y-109624641D01*
X125253986Y-108539865D01*
X125255011Y-107365288D01*
X124806467Y-106279728D01*
X123976641Y-105448452D01*
X122891865Y-104998014D01*
X121717288Y-104996989D01*
X120631728Y-105445533D01*
X119800452Y-106275359D01*
X119350014Y-107360135D01*
X119348989Y-108534712D01*
X114169649Y-108534712D01*
X114261071Y-108473626D01*
X114684320Y-107840189D01*
X114832945Y-107093000D01*
X114684320Y-106345811D01*
X114261071Y-105712374D01*
X113627634Y-105289125D01*
X113395748Y-105243000D01*
X113627634Y-105196875D01*
X114261071Y-104773626D01*
X114684320Y-104140189D01*
X114832945Y-103393000D01*
X114684320Y-102645811D01*
X114261071Y-102012374D01*
X113627634Y-101589125D01*
X112880445Y-101440500D01*
X111274555Y-101440500D01*
X110527366Y-101589125D01*
X109893929Y-102012374D01*
X109470680Y-102645811D01*
X109322055Y-103393000D01*
X105289651Y-103393000D01*
X105406313Y-102806500D01*
X105269106Y-102116713D01*
X104878373Y-101531940D01*
X104293600Y-101141207D01*
X103603813Y-101004000D01*
X103533187Y-101004000D01*
X102843400Y-101141207D01*
X102258627Y-101531940D01*
X101867894Y-102116713D01*
X101730687Y-102806500D01*
X41027500Y-102806500D01*
X41027500Y-98097989D01*
X41833411Y-98903900D01*
X42106689Y-98630622D01*
X42269961Y-98818283D01*
X43403485Y-98904324D01*
X43836039Y-98818283D01*
X44108864Y-98504705D01*
X43053000Y-97448841D01*
X42921125Y-97580717D01*
X41484284Y-96143876D01*
X41616159Y-96012000D01*
X44489841Y-96012000D01*
X45545705Y-97067864D01*
X45859283Y-96795039D01*
X45893027Y-96350485D01*
X134107676Y-96350485D01*
X134193717Y-96783039D01*
X134507295Y-97055864D01*
X135563159Y-96000000D01*
X134507295Y-94944136D01*
X134193717Y-95216961D01*
X134107676Y-96350485D01*
X45893027Y-96350485D01*
X45945324Y-95661515D01*
X45859283Y-95228961D01*
X45545705Y-94956136D01*
X44489841Y-96012000D01*
X41616159Y-96012000D01*
X41484284Y-95880125D01*
X42921125Y-94443284D01*
X43053000Y-94575159D01*
X44108864Y-93519295D01*
X43836039Y-93205717D01*
X42702515Y-93119676D01*
X42269961Y-93205717D01*
X42106689Y-93393378D01*
X41833411Y-93120100D01*
X41027500Y-93926011D01*
X41027500Y-87138989D01*
X41780411Y-87891900D01*
X42053689Y-87618622D01*
X42216961Y-87806283D01*
X43350485Y-87892324D01*
X43783039Y-87806283D01*
X44000181Y-87556705D01*
X89952136Y-87556705D01*
X90224961Y-87870283D01*
X91358485Y-87956324D01*
X91791039Y-87870283D01*
X92041242Y-87582705D01*
X102703136Y-87582705D01*
X102975961Y-87896283D01*
X104109485Y-87982324D01*
X104542039Y-87896283D01*
X104814864Y-87582705D01*
X104788864Y-87556705D01*
X114452136Y-87556705D01*
X114724961Y-87870283D01*
X115858485Y-87956324D01*
X116291039Y-87870283D01*
X116563864Y-87556705D01*
X115508000Y-86500841D01*
X114452136Y-87556705D01*
X104788864Y-87556705D01*
X103759000Y-86526841D01*
X102703136Y-87582705D01*
X92041242Y-87582705D01*
X92063864Y-87556705D01*
X91008000Y-86500841D01*
X89952136Y-87556705D01*
X44000181Y-87556705D01*
X44055864Y-87492705D01*
X43000000Y-86436841D01*
X42868125Y-86568717D01*
X41431284Y-85131876D01*
X41563159Y-85000000D01*
X44436841Y-85000000D01*
X45492705Y-86055864D01*
X45806283Y-85783039D01*
X45892324Y-84649515D01*
X45806283Y-84216961D01*
X45492705Y-83944136D01*
X44436841Y-85000000D01*
X41563159Y-85000000D01*
X41431284Y-84868125D01*
X42868125Y-83431284D01*
X43000000Y-83563159D01*
X44055864Y-82507295D01*
X43783039Y-82193717D01*
X42649515Y-82107676D01*
X42216961Y-82193717D01*
X42053689Y-82381378D01*
X41780411Y-82108100D01*
X41027500Y-82861011D01*
X41027500Y-78882574D01*
X45556153Y-78882574D01*
X45860373Y-79618843D01*
X46423194Y-80182647D01*
X47158931Y-80488151D01*
X47955574Y-80488847D01*
X48691843Y-80184627D01*
X49255647Y-79621806D01*
X49509690Y-79010000D01*
X54162840Y-79010000D01*
X54162840Y-81010000D01*
X54229257Y-81362975D01*
X54437865Y-81687162D01*
X54514181Y-81739307D01*
X54433394Y-81860213D01*
X54296187Y-82550000D01*
X54433394Y-83239787D01*
X54824127Y-83824560D01*
X55408900Y-84215293D01*
X56098687Y-84352500D01*
X56169313Y-84352500D01*
X56859100Y-84215293D01*
X57443873Y-83824560D01*
X57687979Y-83459230D01*
X57908461Y-83789205D01*
X58081118Y-83904571D01*
X57781461Y-84104795D01*
X57401567Y-84673347D01*
X57268166Y-85344000D01*
X57401567Y-86014653D01*
X57781461Y-86583205D01*
X58350013Y-86963099D01*
X59020666Y-87096500D01*
X59089334Y-87096500D01*
X59759987Y-86963099D01*
X60328539Y-86583205D01*
X60708433Y-86014653D01*
X60841834Y-85344000D01*
X60708433Y-84673347D01*
X60622007Y-84544000D01*
X64903840Y-84544000D01*
X64903840Y-86144000D01*
X64970257Y-86496975D01*
X65178865Y-86821162D01*
X65497164Y-87038646D01*
X65875000Y-87115160D01*
X67475000Y-87115160D01*
X67827975Y-87048743D01*
X68152162Y-86840135D01*
X68186607Y-86789723D01*
X68256013Y-86836099D01*
X68926666Y-86969500D01*
X68995334Y-86969500D01*
X69665987Y-86836099D01*
X70234539Y-86456205D01*
X70614433Y-85887653D01*
X70678798Y-85564065D01*
X74828196Y-85564065D01*
X75094436Y-86208415D01*
X75586992Y-86701831D01*
X76230877Y-86969196D01*
X76928065Y-86969804D01*
X77572415Y-86703564D01*
X77934361Y-86342249D01*
X78227440Y-86780873D01*
X78812213Y-87171606D01*
X79502000Y-87308813D01*
X80191787Y-87171606D01*
X80601447Y-86897880D01*
X80724392Y-87020825D01*
X81027798Y-87146500D01*
X81410625Y-87146500D01*
X81617000Y-86940125D01*
X81617000Y-85896000D01*
X82467000Y-85896000D01*
X82467000Y-86940125D01*
X82673375Y-87146500D01*
X83056202Y-87146500D01*
X83359608Y-87020825D01*
X83591825Y-86788608D01*
X83717500Y-86485202D01*
X83717500Y-86102375D01*
X83511125Y-85896000D01*
X82467000Y-85896000D01*
X81617000Y-85896000D01*
X81226987Y-85896000D01*
X81304500Y-85506313D01*
X81304500Y-85435687D01*
X81300283Y-85414485D01*
X88115676Y-85414485D01*
X88201717Y-85847039D01*
X88515295Y-86119864D01*
X89571159Y-85064000D01*
X92444841Y-85064000D01*
X93500705Y-86119864D01*
X93814283Y-85847039D01*
X93845142Y-85440485D01*
X100866676Y-85440485D01*
X100952717Y-85873039D01*
X101266295Y-86145864D01*
X102322159Y-85090000D01*
X105195841Y-85090000D01*
X106251705Y-86145864D01*
X106565283Y-85873039D01*
X106600089Y-85414485D01*
X112615676Y-85414485D01*
X112701717Y-85847039D01*
X113015295Y-86119864D01*
X114071159Y-85064000D01*
X116944841Y-85064000D01*
X118000705Y-86119864D01*
X118314283Y-85847039D01*
X118400324Y-84713515D01*
X118314283Y-84280961D01*
X118000705Y-84008136D01*
X116944841Y-85064000D01*
X114071159Y-85064000D01*
X113015295Y-84008136D01*
X112701717Y-84280961D01*
X112615676Y-85414485D01*
X106600089Y-85414485D01*
X106651324Y-84739515D01*
X106565283Y-84306961D01*
X106251705Y-84034136D01*
X105195841Y-85090000D01*
X102322159Y-85090000D01*
X101266295Y-84034136D01*
X100952717Y-84306961D01*
X100866676Y-85440485D01*
X93845142Y-85440485D01*
X93900324Y-84713515D01*
X93814283Y-84280961D01*
X93500705Y-84008136D01*
X92444841Y-85064000D01*
X89571159Y-85064000D01*
X88515295Y-84008136D01*
X88201717Y-84280961D01*
X88115676Y-85414485D01*
X81300283Y-85414485D01*
X81226987Y-85046000D01*
X81617000Y-85046000D01*
X81617000Y-84621000D01*
X82467000Y-84621000D01*
X82467000Y-85046000D01*
X83511125Y-85046000D01*
X83717500Y-84839625D01*
X83717500Y-84456798D01*
X83591825Y-84153392D01*
X83359608Y-83921175D01*
X83224502Y-83865212D01*
X83224502Y-83795500D01*
X82673796Y-83795500D01*
X82705391Y-83692076D01*
X82002000Y-82988685D01*
X81298609Y-83692076D01*
X81330204Y-83795500D01*
X80859498Y-83795500D01*
X80859498Y-83865212D01*
X80724392Y-83921175D01*
X80601447Y-84044120D01*
X80435737Y-83933396D01*
X80493415Y-83909564D01*
X80986831Y-83417008D01*
X81254196Y-82773123D01*
X81254343Y-82604972D01*
X81436315Y-82423000D01*
X82567685Y-82423000D01*
X83271076Y-83126391D01*
X83538298Y-83044758D01*
X83628476Y-82571295D01*
X89952136Y-82571295D01*
X91008000Y-83627159D01*
X91754447Y-82880712D01*
X94455989Y-82880712D01*
X94904533Y-83966272D01*
X95734359Y-84797548D01*
X96819135Y-85247986D01*
X97993712Y-85249011D01*
X99079272Y-84800467D01*
X99910548Y-83970641D01*
X100360986Y-82885865D01*
X100361237Y-82597295D01*
X102703136Y-82597295D01*
X103759000Y-83653159D01*
X104658447Y-82753712D01*
X106774989Y-82753712D01*
X107223533Y-83839272D01*
X108053359Y-84670548D01*
X109138135Y-85120986D01*
X110312712Y-85122011D01*
X111398272Y-84673467D01*
X112229548Y-83843641D01*
X112679986Y-82758865D01*
X112680149Y-82571295D01*
X114452136Y-82571295D01*
X115508000Y-83627159D01*
X115699467Y-83435692D01*
X127849076Y-83435692D01*
X128221660Y-84337415D01*
X128910957Y-85027916D01*
X129812027Y-85402073D01*
X130787692Y-85402924D01*
X130914604Y-85350485D01*
X134107676Y-85350485D01*
X134193717Y-85783039D01*
X134507295Y-86055864D01*
X135563159Y-85000000D01*
X134507295Y-83944136D01*
X134193717Y-84216961D01*
X134107676Y-85350485D01*
X130914604Y-85350485D01*
X131689415Y-85030340D01*
X132379916Y-84341043D01*
X132754073Y-83439973D01*
X132754924Y-82464308D01*
X132382340Y-81562585D01*
X131693043Y-80872084D01*
X130791973Y-80497927D01*
X129816308Y-80497076D01*
X128914585Y-80869660D01*
X128224084Y-81558957D01*
X127849927Y-82460027D01*
X127849076Y-83435692D01*
X115699467Y-83435692D01*
X116563864Y-82571295D01*
X116291039Y-82257717D01*
X115157515Y-82171676D01*
X114724961Y-82257717D01*
X114452136Y-82571295D01*
X112680149Y-82571295D01*
X112681011Y-81584288D01*
X112232467Y-80498728D01*
X111402641Y-79667452D01*
X110317865Y-79217014D01*
X109143288Y-79215989D01*
X108057728Y-79664533D01*
X107226452Y-80494359D01*
X106776014Y-81579135D01*
X106774989Y-82753712D01*
X104658447Y-82753712D01*
X104814864Y-82597295D01*
X104542039Y-82283717D01*
X103408515Y-82197676D01*
X102975961Y-82283717D01*
X102703136Y-82597295D01*
X100361237Y-82597295D01*
X100362011Y-81711288D01*
X99913467Y-80625728D01*
X99083641Y-79794452D01*
X97998865Y-79344014D01*
X96824288Y-79342989D01*
X95738728Y-79791533D01*
X94907452Y-80621359D01*
X94457014Y-81706135D01*
X94455989Y-82880712D01*
X91754447Y-82880712D01*
X92063864Y-82571295D01*
X91791039Y-82257717D01*
X90657515Y-82171676D01*
X90224961Y-82257717D01*
X89952136Y-82571295D01*
X83628476Y-82571295D01*
X83659290Y-82409514D01*
X83538298Y-81801242D01*
X83271076Y-81719609D01*
X82567685Y-82423000D01*
X81436315Y-82423000D01*
X81254660Y-82241345D01*
X81254804Y-82075935D01*
X80988564Y-81431585D01*
X80711387Y-81153924D01*
X81298609Y-81153924D01*
X82002000Y-81857315D01*
X82705391Y-81153924D01*
X82623758Y-80886702D01*
X81988514Y-80765710D01*
X81380242Y-80886702D01*
X81298609Y-81153924D01*
X80711387Y-81153924D01*
X80496008Y-80938169D01*
X79852123Y-80670804D01*
X79154935Y-80670196D01*
X78510585Y-80936436D01*
X78017169Y-81428992D01*
X77839273Y-81857412D01*
X77146685Y-82550000D01*
X77850076Y-83253391D01*
X77937826Y-83226584D01*
X78015436Y-83414415D01*
X78507992Y-83907831D01*
X78568760Y-83933064D01*
X78227440Y-84161127D01*
X78112196Y-84333602D01*
X78067564Y-84225585D01*
X77575008Y-83732169D01*
X76931123Y-83464804D01*
X76930118Y-83464803D01*
X76581000Y-83115685D01*
X76231471Y-83465214D01*
X75589585Y-83730436D01*
X75096169Y-84222992D01*
X74828804Y-84866877D01*
X74828196Y-85564065D01*
X70678798Y-85564065D01*
X70747834Y-85217000D01*
X70614433Y-84546347D01*
X70234539Y-83977795D01*
X70093416Y-83883500D01*
X70234539Y-83789205D01*
X70614433Y-83220653D01*
X70745151Y-82563486D01*
X74923710Y-82563486D01*
X75044702Y-83171758D01*
X75311924Y-83253391D01*
X76015315Y-82550000D01*
X75311924Y-81846609D01*
X75044702Y-81928242D01*
X74923710Y-82563486D01*
X70745151Y-82563486D01*
X70747834Y-82550000D01*
X70614433Y-81879347D01*
X70234539Y-81310795D01*
X70189834Y-81280924D01*
X75877609Y-81280924D01*
X76581000Y-81984315D01*
X77284391Y-81280924D01*
X77202758Y-81013702D01*
X76567514Y-80892710D01*
X75959242Y-81013702D01*
X75877609Y-81280924D01*
X70189834Y-81280924D01*
X69665987Y-80930901D01*
X68995334Y-80797500D01*
X68926666Y-80797500D01*
X68256013Y-80930901D01*
X68172283Y-80986847D01*
X67979836Y-80855354D01*
X67602000Y-80778840D01*
X66002000Y-80778840D01*
X65649025Y-80845257D01*
X65324838Y-81053865D01*
X65107354Y-81372164D01*
X65030840Y-81750000D01*
X65030840Y-83350000D01*
X65097257Y-83702975D01*
X65194054Y-83853403D01*
X64980354Y-84166164D01*
X64903840Y-84544000D01*
X60622007Y-84544000D01*
X60328539Y-84104795D01*
X60155882Y-83989429D01*
X60455539Y-83789205D01*
X60835433Y-83220653D01*
X60968834Y-82550000D01*
X60835433Y-81879347D01*
X60455539Y-81310795D01*
X59886987Y-80930901D01*
X59216334Y-80797500D01*
X59147666Y-80797500D01*
X58477013Y-80930901D01*
X58065496Y-81205868D01*
X58105160Y-81010000D01*
X58105160Y-79010000D01*
X58055811Y-78747732D01*
X87554902Y-78747732D01*
X88079407Y-80017129D01*
X89049763Y-80989180D01*
X90318243Y-81515899D01*
X91691732Y-81517098D01*
X92961129Y-80992593D01*
X93933180Y-80022237D01*
X94329359Y-79068132D01*
X100280502Y-79068132D01*
X100805007Y-80337529D01*
X101775363Y-81309580D01*
X103043843Y-81836299D01*
X104417332Y-81837498D01*
X105686729Y-81312993D01*
X106658780Y-80342637D01*
X107185499Y-79074157D01*
X107185783Y-78747732D01*
X112054902Y-78747732D01*
X112579407Y-80017129D01*
X113549763Y-80989180D01*
X114818243Y-81515899D01*
X116191732Y-81517098D01*
X117461129Y-80992593D01*
X118397492Y-80057863D01*
X118779692Y-80440731D01*
X119423577Y-80708096D01*
X120120765Y-80708704D01*
X120765115Y-80442464D01*
X121258531Y-79949908D01*
X121525896Y-79306023D01*
X121526504Y-78608835D01*
X121260264Y-77964485D01*
X120804311Y-77507736D01*
X121258531Y-77054308D01*
X121525896Y-76410423D01*
X121525898Y-76407365D01*
X123020896Y-76407365D01*
X123287136Y-77051715D01*
X123743089Y-77508464D01*
X123288869Y-77961892D01*
X123021504Y-78605777D01*
X123020896Y-79302965D01*
X123287136Y-79947315D01*
X123779692Y-80440731D01*
X124423577Y-80708096D01*
X125120765Y-80708704D01*
X125765115Y-80442464D01*
X126258531Y-79949908D01*
X126525896Y-79306023D01*
X126526504Y-78608835D01*
X126260264Y-77964485D01*
X125804311Y-77507736D01*
X126258531Y-77054308D01*
X126525896Y-76410423D01*
X126526504Y-75713235D01*
X126260264Y-75068885D01*
X125767708Y-74575469D01*
X125123823Y-74308104D01*
X124426635Y-74307496D01*
X123782285Y-74573736D01*
X123288869Y-75066292D01*
X123021504Y-75710177D01*
X123020896Y-76407365D01*
X121525898Y-76407365D01*
X121526504Y-75713235D01*
X121260264Y-75068885D01*
X120767708Y-74575469D01*
X120123823Y-74308104D01*
X119426635Y-74307496D01*
X118782285Y-74573736D01*
X118288869Y-75066292D01*
X118025938Y-75699499D01*
X117466237Y-75138820D01*
X116197757Y-74612101D01*
X114824268Y-74610902D01*
X113554871Y-75135407D01*
X112582820Y-76105763D01*
X112056101Y-77374243D01*
X112054902Y-78747732D01*
X107185783Y-78747732D01*
X107186698Y-77700668D01*
X106662193Y-76431271D01*
X105691837Y-75459220D01*
X104423357Y-74932501D01*
X103049868Y-74931302D01*
X101780471Y-75455807D01*
X100808420Y-76426163D01*
X100281701Y-77694643D01*
X100280502Y-79068132D01*
X94329359Y-79068132D01*
X94459899Y-78753757D01*
X94461098Y-77380268D01*
X93936593Y-76110871D01*
X92966237Y-75138820D01*
X91697757Y-74612101D01*
X90324268Y-74610902D01*
X89054871Y-75135407D01*
X88082820Y-76105763D01*
X87556101Y-77374243D01*
X87554902Y-78747732D01*
X58055811Y-78747732D01*
X58038743Y-78657025D01*
X57830135Y-78332838D01*
X57511836Y-78115354D01*
X57134000Y-78038840D01*
X55134000Y-78038840D01*
X54781025Y-78105257D01*
X54456838Y-78313865D01*
X54239354Y-78632164D01*
X54162840Y-79010000D01*
X49509690Y-79010000D01*
X49561151Y-78886069D01*
X49561487Y-78501026D01*
X50115186Y-78562251D01*
X50626352Y-78460574D01*
X50816524Y-78166185D01*
X49911000Y-77260660D01*
X49591034Y-77580626D01*
X49175342Y-77164934D01*
X51950396Y-77164934D01*
X52024272Y-77430089D01*
X52639001Y-77552366D01*
X53253728Y-77430089D01*
X53327604Y-77164934D01*
X52639000Y-76476330D01*
X51950396Y-77164934D01*
X49175342Y-77164934D01*
X48530374Y-76519966D01*
X48850340Y-76200000D01*
X47944815Y-75294476D01*
X47650426Y-75484648D01*
X47548749Y-76404186D01*
X47564526Y-76483504D01*
X47162426Y-76483153D01*
X46426157Y-76787373D01*
X45862353Y-77350194D01*
X45556849Y-78085931D01*
X45556153Y-78882574D01*
X41027500Y-78882574D01*
X41027500Y-68722574D01*
X45556153Y-68722574D01*
X45860373Y-69458843D01*
X46423194Y-70022647D01*
X47158931Y-70328151D01*
X47439840Y-70328396D01*
X47439840Y-72620000D01*
X47506257Y-72972975D01*
X47714865Y-73297162D01*
X48033164Y-73514646D01*
X48411000Y-73591160D01*
X50936338Y-73591160D01*
X50936205Y-73743162D01*
X51033132Y-73977744D01*
X50747039Y-73691651D01*
X50511917Y-73926773D01*
X49706814Y-73837749D01*
X49195648Y-73939426D01*
X49005476Y-74233815D01*
X49911000Y-75139340D01*
X50230966Y-74819374D01*
X51086548Y-75674956D01*
X51032634Y-75946001D01*
X51064659Y-76107001D01*
X50971660Y-76200000D01*
X51110843Y-76339183D01*
X51154911Y-76560728D01*
X51400934Y-76629274D01*
X51877185Y-77105524D01*
X52171574Y-76915352D01*
X52273251Y-75995814D01*
X52263343Y-75946000D01*
X53169330Y-75946000D01*
X53857934Y-76634604D01*
X54123089Y-76560728D01*
X54245366Y-75945999D01*
X54123089Y-75331272D01*
X53857934Y-75257396D01*
X53169330Y-75946000D01*
X52263343Y-75946000D01*
X52192659Y-75590651D01*
X52419349Y-75363961D01*
X52067535Y-75012147D01*
X52298866Y-75108204D01*
X52331563Y-75108233D01*
X52639000Y-75415670D01*
X52945901Y-75108769D01*
X52976162Y-75108795D01*
X53602129Y-74850151D01*
X54081468Y-74371648D01*
X54341204Y-73746134D01*
X54341428Y-73489162D01*
X125617205Y-73489162D01*
X125875849Y-74115129D01*
X126354352Y-74594468D01*
X126979866Y-74854204D01*
X127576840Y-74854725D01*
X127576840Y-76938000D01*
X127643257Y-77290975D01*
X127851865Y-77615162D01*
X128170164Y-77832646D01*
X128548000Y-77909160D01*
X130397782Y-77909160D01*
X130397153Y-78628574D01*
X130701373Y-79364843D01*
X131264194Y-79928647D01*
X131999931Y-80234151D01*
X132796574Y-80234847D01*
X133532843Y-79930627D01*
X134096647Y-79367806D01*
X134402151Y-78632069D01*
X134402847Y-77835426D01*
X134098627Y-77099157D01*
X133535806Y-76535353D01*
X132800069Y-76229849D01*
X132519160Y-76229604D01*
X132519160Y-73938000D01*
X132452743Y-73585025D01*
X132244135Y-73260838D01*
X131925836Y-73043354D01*
X131548000Y-72966840D01*
X129022662Y-72966840D01*
X129022795Y-72814838D01*
X128925868Y-72580256D01*
X129211961Y-72866349D01*
X129447083Y-72631227D01*
X130252186Y-72720251D01*
X130763352Y-72618574D01*
X130953524Y-72324185D01*
X130048000Y-71418660D01*
X129728034Y-71738626D01*
X128872452Y-70883044D01*
X128926366Y-70611999D01*
X128894341Y-70450999D01*
X128987340Y-70358000D01*
X128848157Y-70218817D01*
X128804089Y-69997272D01*
X128558066Y-69928726D01*
X128081815Y-69452476D01*
X127787426Y-69642648D01*
X127685749Y-70562186D01*
X127766341Y-70967349D01*
X127539651Y-71194039D01*
X127891465Y-71545853D01*
X127660134Y-71449796D01*
X127627437Y-71449767D01*
X127320000Y-71142330D01*
X127013099Y-71449231D01*
X126982838Y-71449205D01*
X126356871Y-71707849D01*
X125877532Y-72186352D01*
X125617796Y-72811866D01*
X125617205Y-73489162D01*
X54341428Y-73489162D01*
X54341795Y-73068838D01*
X54083151Y-72442871D01*
X53604648Y-71963532D01*
X52979134Y-71703796D01*
X52382160Y-71703275D01*
X52382160Y-70612001D01*
X125713634Y-70612001D01*
X125835911Y-71226728D01*
X126101066Y-71300604D01*
X126789670Y-70612000D01*
X126101066Y-69923396D01*
X125835911Y-69997272D01*
X125713634Y-70612001D01*
X52382160Y-70612001D01*
X52382160Y-69620000D01*
X52339460Y-69393066D01*
X126631396Y-69393066D01*
X127320000Y-70081670D01*
X128008604Y-69393066D01*
X127934728Y-69127911D01*
X127319999Y-69005634D01*
X126705272Y-69127911D01*
X126631396Y-69393066D01*
X52339460Y-69393066D01*
X52315743Y-69267025D01*
X52107135Y-68942838D01*
X51788836Y-68725354D01*
X51411000Y-68648840D01*
X49561218Y-68648840D01*
X49561442Y-68391815D01*
X129142476Y-68391815D01*
X130048000Y-69297340D01*
X130367966Y-68977374D01*
X131428626Y-70038034D01*
X131108660Y-70358000D01*
X132014185Y-71263524D01*
X132308574Y-71073352D01*
X132410251Y-70153814D01*
X132394474Y-70074496D01*
X132796574Y-70074847D01*
X133532843Y-69770627D01*
X134096647Y-69207806D01*
X134402151Y-68472069D01*
X134402847Y-67675426D01*
X134098627Y-66939157D01*
X133535806Y-66375353D01*
X132800069Y-66069849D01*
X132003426Y-66069153D01*
X131267157Y-66373373D01*
X130703353Y-66936194D01*
X130397849Y-67671931D01*
X130397513Y-68056974D01*
X129843814Y-67995749D01*
X129332648Y-68097426D01*
X129142476Y-68391815D01*
X49561442Y-68391815D01*
X49561847Y-67929426D01*
X49257627Y-67193157D01*
X48694806Y-66629353D01*
X47959069Y-66323849D01*
X47162426Y-66323153D01*
X46426157Y-66627373D01*
X45862353Y-67190194D01*
X45556849Y-67925931D01*
X45556153Y-68722574D01*
X41027500Y-68722574D01*
X41027500Y-62245574D01*
X45683153Y-62245574D01*
X45987373Y-62981843D01*
X46550194Y-63545647D01*
X47285931Y-63851151D01*
X48082574Y-63851847D01*
X48818843Y-63547627D01*
X49183373Y-63183732D01*
X71546902Y-63183732D01*
X72071407Y-64453129D01*
X73041763Y-65425180D01*
X74310243Y-65951899D01*
X75683732Y-65953098D01*
X76953129Y-65428593D01*
X77925180Y-64458237D01*
X78376668Y-63370932D01*
X84024502Y-63370932D01*
X84549007Y-64640329D01*
X85519363Y-65612380D01*
X86787843Y-66139099D01*
X88161332Y-66140298D01*
X89430729Y-65615793D01*
X90402780Y-64645437D01*
X90929499Y-63376957D01*
X90929667Y-63183732D01*
X96546902Y-63183732D01*
X97071407Y-64453129D01*
X98041763Y-65425180D01*
X99310243Y-65951899D01*
X100683732Y-65953098D01*
X101953129Y-65428593D01*
X102925180Y-64458237D01*
X103451899Y-63189757D01*
X103453098Y-61816268D01*
X102928593Y-60546871D01*
X102390163Y-60007500D01*
X106606948Y-60007500D01*
X106755573Y-60754689D01*
X107178822Y-61388126D01*
X107812259Y-61811375D01*
X108559448Y-61960000D01*
X108635952Y-61960000D01*
X109383141Y-61811375D01*
X110016578Y-61388126D01*
X110439827Y-60754689D01*
X110588452Y-60007500D01*
X110439827Y-59260311D01*
X110200771Y-58902538D01*
X110207501Y-58892687D01*
X118974500Y-58892687D01*
X118974500Y-58963313D01*
X119111707Y-59653100D01*
X119502440Y-60237873D01*
X120087213Y-60628606D01*
X120777000Y-60765813D01*
X121466787Y-60628606D01*
X121757485Y-60434368D01*
X121770865Y-60455162D01*
X122089164Y-60672646D01*
X122467000Y-60749160D01*
X124167000Y-60749160D01*
X124519975Y-60682743D01*
X124844162Y-60474135D01*
X125061646Y-60155836D01*
X125138160Y-59778000D01*
X125138160Y-58078000D01*
X125071743Y-57725025D01*
X124863135Y-57400838D01*
X124617733Y-57233162D01*
X125744205Y-57233162D01*
X126002849Y-57859129D01*
X126481352Y-58338468D01*
X127106866Y-58598204D01*
X127703840Y-58598725D01*
X127703840Y-60682000D01*
X127770257Y-61034975D01*
X127978865Y-61359162D01*
X128297164Y-61576646D01*
X128675000Y-61653160D01*
X130524782Y-61653160D01*
X130524153Y-62372574D01*
X130828373Y-63108843D01*
X131391194Y-63672647D01*
X132126931Y-63978151D01*
X132923574Y-63978847D01*
X133659843Y-63674627D01*
X134223647Y-63111806D01*
X134529151Y-62376069D01*
X134529847Y-61579426D01*
X134225627Y-60843157D01*
X133662806Y-60279353D01*
X132927069Y-59973849D01*
X132646160Y-59973604D01*
X132646160Y-57682000D01*
X132579743Y-57329025D01*
X132371135Y-57004838D01*
X132052836Y-56787354D01*
X131675000Y-56710840D01*
X129149662Y-56710840D01*
X129149795Y-56558838D01*
X129052868Y-56324256D01*
X129338961Y-56610349D01*
X129574083Y-56375227D01*
X130379186Y-56464251D01*
X130890352Y-56362574D01*
X131080524Y-56068185D01*
X130175000Y-55162660D01*
X129855034Y-55482626D01*
X128999452Y-54627044D01*
X129053366Y-54355999D01*
X129021341Y-54194999D01*
X129114340Y-54102000D01*
X128975157Y-53962817D01*
X128931089Y-53741272D01*
X128685066Y-53672726D01*
X128208815Y-53196476D01*
X127914426Y-53386648D01*
X127812749Y-54306186D01*
X127893341Y-54711349D01*
X127666651Y-54938039D01*
X128018465Y-55289853D01*
X127787134Y-55193796D01*
X127754437Y-55193767D01*
X127447000Y-54886330D01*
X127140099Y-55193231D01*
X127109838Y-55193205D01*
X126483871Y-55451849D01*
X126004532Y-55930352D01*
X125744796Y-56555866D01*
X125744205Y-57233162D01*
X124617733Y-57233162D01*
X124544836Y-57183354D01*
X124167000Y-57106840D01*
X122467000Y-57106840D01*
X122114025Y-57173257D01*
X121789838Y-57381865D01*
X121761042Y-57424009D01*
X121466787Y-57227394D01*
X120777000Y-57090187D01*
X120087213Y-57227394D01*
X119502440Y-57618127D01*
X119111707Y-58202900D01*
X118974500Y-58892687D01*
X110207501Y-58892687D01*
X110342346Y-58695336D01*
X110418860Y-58317500D01*
X110418860Y-56617500D01*
X110352443Y-56264525D01*
X110143835Y-55940338D01*
X109825536Y-55722854D01*
X109447700Y-55646340D01*
X107747700Y-55646340D01*
X107394725Y-55712757D01*
X107070538Y-55921365D01*
X106853054Y-56239664D01*
X106776540Y-56617500D01*
X106776540Y-58317500D01*
X106842957Y-58670475D01*
X106993435Y-58904325D01*
X106755573Y-59260311D01*
X106606948Y-60007500D01*
X102390163Y-60007500D01*
X101958237Y-59574820D01*
X100689757Y-59048101D01*
X99316268Y-59046902D01*
X98046871Y-59571407D01*
X97074820Y-60541763D01*
X96548101Y-61810243D01*
X96546902Y-63183732D01*
X90929667Y-63183732D01*
X90930698Y-62003468D01*
X90406193Y-60734071D01*
X89435837Y-59762020D01*
X88167357Y-59235301D01*
X86793868Y-59234102D01*
X85524471Y-59758607D01*
X84552420Y-60728963D01*
X84025701Y-61997443D01*
X84024502Y-63370932D01*
X78376668Y-63370932D01*
X78451899Y-63189757D01*
X78453098Y-61816268D01*
X77928593Y-60546871D01*
X76958237Y-59574820D01*
X75689757Y-59048101D01*
X74316268Y-59046902D01*
X73046871Y-59571407D01*
X72074820Y-60541763D01*
X71548101Y-61810243D01*
X71546902Y-63183732D01*
X49183373Y-63183732D01*
X49382647Y-62984806D01*
X49688151Y-62249069D01*
X49688487Y-61864026D01*
X50242186Y-61925251D01*
X50753352Y-61823574D01*
X50943524Y-61529185D01*
X50038000Y-60623660D01*
X49718034Y-60943626D01*
X49302342Y-60527934D01*
X52077396Y-60527934D01*
X52151272Y-60793089D01*
X52766001Y-60915366D01*
X53380728Y-60793089D01*
X53454604Y-60527934D01*
X52962357Y-60035687D01*
X54649000Y-60035687D01*
X54649000Y-60106313D01*
X54786207Y-60796100D01*
X55176940Y-61380873D01*
X55761713Y-61771606D01*
X56451500Y-61908813D01*
X57141287Y-61771606D01*
X57431985Y-61577368D01*
X57445365Y-61598162D01*
X57763664Y-61815646D01*
X58141500Y-61892160D01*
X59841500Y-61892160D01*
X60194475Y-61825743D01*
X60518662Y-61617135D01*
X60736146Y-61298836D01*
X60812660Y-60921000D01*
X60812660Y-59956700D01*
X67897887Y-59956700D01*
X68035094Y-60646487D01*
X68425827Y-61231260D01*
X69010600Y-61621993D01*
X69700387Y-61759200D01*
X69771013Y-61759200D01*
X70460800Y-61621993D01*
X71045573Y-61231260D01*
X71436306Y-60646487D01*
X71573513Y-59956700D01*
X71436306Y-59266913D01*
X71242068Y-58976215D01*
X71262862Y-58962835D01*
X71364411Y-58814212D01*
X78263489Y-58814212D01*
X78712033Y-59899772D01*
X79541859Y-60731048D01*
X80626635Y-61181486D01*
X81801212Y-61182511D01*
X82886772Y-60733967D01*
X83718048Y-59904141D01*
X84168486Y-58819365D01*
X84168656Y-58623712D01*
X90899989Y-58623712D01*
X91348533Y-59709272D01*
X92178359Y-60540548D01*
X93263135Y-60990986D01*
X94437712Y-60992011D01*
X95523272Y-60543467D01*
X96354548Y-59713641D01*
X96804986Y-58628865D01*
X96805977Y-57492705D01*
X98944136Y-57492705D01*
X99216961Y-57806283D01*
X100350485Y-57892324D01*
X100783039Y-57806283D01*
X101055864Y-57492705D01*
X100000000Y-56436841D01*
X98944136Y-57492705D01*
X96805977Y-57492705D01*
X96806011Y-57454288D01*
X96357467Y-56368728D01*
X95527641Y-55537452D01*
X95077375Y-55350485D01*
X97107676Y-55350485D01*
X97193717Y-55783039D01*
X97507295Y-56055864D01*
X98563159Y-55000000D01*
X101436841Y-55000000D01*
X102492705Y-56055864D01*
X102806283Y-55783039D01*
X102892324Y-54649515D01*
X102806283Y-54216961D01*
X102492705Y-53944136D01*
X101436841Y-55000000D01*
X98563159Y-55000000D01*
X97507295Y-53944136D01*
X97193717Y-54216961D01*
X97107676Y-55350485D01*
X95077375Y-55350485D01*
X94442865Y-55087014D01*
X93268288Y-55085989D01*
X92182728Y-55534533D01*
X91351452Y-56364359D01*
X90901014Y-57449135D01*
X90899989Y-58623712D01*
X84168656Y-58623712D01*
X84169511Y-57644788D01*
X83720967Y-56559228D01*
X83198557Y-56035905D01*
X86269336Y-56035905D01*
X86542161Y-56349483D01*
X87675685Y-56435524D01*
X88108239Y-56349483D01*
X88381064Y-56035905D01*
X87325200Y-54980041D01*
X86269336Y-56035905D01*
X83198557Y-56035905D01*
X82891141Y-55727952D01*
X81806365Y-55277514D01*
X80631788Y-55276489D01*
X79546228Y-55725033D01*
X78714952Y-56554859D01*
X78264514Y-57639635D01*
X78263489Y-58814212D01*
X71364411Y-58814212D01*
X71480346Y-58644536D01*
X71556860Y-58266700D01*
X71556860Y-57492705D01*
X73944136Y-57492705D01*
X74216961Y-57806283D01*
X75350485Y-57892324D01*
X75783039Y-57806283D01*
X76055864Y-57492705D01*
X75000000Y-56436841D01*
X73944136Y-57492705D01*
X71556860Y-57492705D01*
X71556860Y-56566700D01*
X71490443Y-56213725D01*
X71281835Y-55889538D01*
X70963536Y-55672054D01*
X70585700Y-55595540D01*
X68885700Y-55595540D01*
X68532725Y-55661957D01*
X68208538Y-55870565D01*
X67991054Y-56188864D01*
X67914540Y-56566700D01*
X67914540Y-58266700D01*
X67980957Y-58619675D01*
X68189565Y-58943862D01*
X68231709Y-58972658D01*
X68035094Y-59266913D01*
X67897887Y-59956700D01*
X60812660Y-59956700D01*
X60812660Y-59221000D01*
X60746243Y-58868025D01*
X60537635Y-58543838D01*
X60219336Y-58326354D01*
X59841500Y-58249840D01*
X58141500Y-58249840D01*
X57788525Y-58316257D01*
X57464338Y-58524865D01*
X57435542Y-58567009D01*
X57141287Y-58370394D01*
X56451500Y-58233187D01*
X55761713Y-58370394D01*
X55176940Y-58761127D01*
X54786207Y-59345900D01*
X54649000Y-60035687D01*
X52962357Y-60035687D01*
X52766000Y-59839330D01*
X52077396Y-60527934D01*
X49302342Y-60527934D01*
X48657374Y-59882966D01*
X48977340Y-59563000D01*
X48071815Y-58657476D01*
X47777426Y-58847648D01*
X47675749Y-59767186D01*
X47691526Y-59846504D01*
X47289426Y-59846153D01*
X46553157Y-60150373D01*
X45989353Y-60713194D01*
X45683849Y-61448931D01*
X45683153Y-62245574D01*
X41027500Y-62245574D01*
X41027500Y-52085574D01*
X45683153Y-52085574D01*
X45987373Y-52821843D01*
X46550194Y-53385647D01*
X47285931Y-53691151D01*
X47566840Y-53691396D01*
X47566840Y-55983000D01*
X47633257Y-56335975D01*
X47841865Y-56660162D01*
X48160164Y-56877646D01*
X48538000Y-56954160D01*
X51063338Y-56954160D01*
X51063205Y-57106162D01*
X51160132Y-57340744D01*
X50874039Y-57054651D01*
X50638917Y-57289773D01*
X49833814Y-57200749D01*
X49322648Y-57302426D01*
X49132476Y-57596815D01*
X50038000Y-58502340D01*
X50357966Y-58182374D01*
X51213548Y-59037956D01*
X51159634Y-59309001D01*
X51191659Y-59470001D01*
X51098660Y-59563000D01*
X51237843Y-59702183D01*
X51281911Y-59923728D01*
X51527934Y-59992274D01*
X52004185Y-60468524D01*
X52298574Y-60278352D01*
X52400251Y-59358814D01*
X52390343Y-59309000D01*
X53296330Y-59309000D01*
X53984934Y-59997604D01*
X54250089Y-59923728D01*
X54372366Y-59308999D01*
X54250089Y-58694272D01*
X53984934Y-58620396D01*
X53296330Y-59309000D01*
X52390343Y-59309000D01*
X52319659Y-58953651D01*
X52546349Y-58726961D01*
X52194535Y-58375147D01*
X52425866Y-58471204D01*
X52458563Y-58471233D01*
X52766000Y-58778670D01*
X53072901Y-58471769D01*
X53103162Y-58471795D01*
X53729129Y-58213151D01*
X54208468Y-57734648D01*
X54468204Y-57109134D01*
X54468795Y-56431838D01*
X54210151Y-55805871D01*
X53777037Y-55372000D01*
X56709187Y-55372000D01*
X56846394Y-56061787D01*
X57237127Y-56646560D01*
X57821900Y-57037293D01*
X58511687Y-57174500D01*
X58582313Y-57174500D01*
X59272100Y-57037293D01*
X59856873Y-56646560D01*
X60247606Y-56061787D01*
X60381730Y-55387497D01*
X60606164Y-55540846D01*
X60984000Y-55617360D01*
X61016025Y-55617360D01*
X61244795Y-55959739D01*
X61813347Y-56339633D01*
X62484000Y-56473034D01*
X63154653Y-56339633D01*
X63441491Y-56147974D01*
X65460949Y-56167392D01*
X65775747Y-56377733D01*
X66446400Y-56511134D01*
X67117053Y-56377733D01*
X67685605Y-55997839D01*
X67914375Y-55655460D01*
X67946400Y-55655460D01*
X68299375Y-55589043D01*
X68623562Y-55380435D01*
X68644025Y-55350485D01*
X72107676Y-55350485D01*
X72193717Y-55783039D01*
X72507295Y-56055864D01*
X73563159Y-55000000D01*
X76436841Y-55000000D01*
X77492705Y-56055864D01*
X77806283Y-55783039D01*
X77892324Y-54649515D01*
X77806283Y-54216961D01*
X77492705Y-53944136D01*
X76436841Y-55000000D01*
X73563159Y-55000000D01*
X72507295Y-53944136D01*
X72193717Y-54216961D01*
X72107676Y-55350485D01*
X68644025Y-55350485D01*
X68841046Y-55062136D01*
X68917560Y-54684300D01*
X68917560Y-53893685D01*
X84432876Y-53893685D01*
X84518917Y-54326239D01*
X84832495Y-54599064D01*
X85888359Y-53543200D01*
X88762041Y-53543200D01*
X89817905Y-54599064D01*
X90131483Y-54326239D01*
X90217524Y-53192715D01*
X90131483Y-52760161D01*
X89840846Y-52507295D01*
X98944136Y-52507295D01*
X100000000Y-53563159D01*
X101055864Y-52507295D01*
X100783039Y-52193717D01*
X99649515Y-52107676D01*
X99216961Y-52193717D01*
X98944136Y-52507295D01*
X89840846Y-52507295D01*
X89817905Y-52487336D01*
X88762041Y-53543200D01*
X85888359Y-53543200D01*
X84832495Y-52487336D01*
X84518917Y-52760161D01*
X84432876Y-53893685D01*
X68917560Y-53893685D01*
X68917560Y-52507295D01*
X73944136Y-52507295D01*
X75000000Y-53563159D01*
X76055864Y-52507295D01*
X75783039Y-52193717D01*
X74649515Y-52107676D01*
X74216961Y-52193717D01*
X73944136Y-52507295D01*
X68917560Y-52507295D01*
X68917560Y-49684300D01*
X68910743Y-49648066D01*
X69570700Y-49648066D01*
X69570700Y-49716734D01*
X69704101Y-50387387D01*
X70083995Y-50955939D01*
X70652547Y-51335833D01*
X71323200Y-51469234D01*
X71993853Y-51335833D01*
X72562405Y-50955939D01*
X72942299Y-50387387D01*
X73043808Y-49877065D01*
X75717196Y-49877065D01*
X75983436Y-50521415D01*
X76475992Y-51014831D01*
X77119877Y-51282196D01*
X77817065Y-51282804D01*
X78461415Y-51016564D01*
X78954831Y-50524008D01*
X79127619Y-50107888D01*
X79152901Y-50234987D01*
X79532795Y-50803539D01*
X80101347Y-51183433D01*
X80772000Y-51316834D01*
X81442653Y-51183433D01*
X81641608Y-51050495D01*
X86269336Y-51050495D01*
X87325200Y-52106359D01*
X88381064Y-51050495D01*
X88108239Y-50736917D01*
X86974715Y-50650876D01*
X86542161Y-50736917D01*
X86269336Y-51050495D01*
X81641608Y-51050495D01*
X82011205Y-50803539D01*
X82391099Y-50234987D01*
X82418195Y-50098766D01*
X82571992Y-50252831D01*
X83215877Y-50520196D01*
X83913065Y-50520804D01*
X84557415Y-50254564D01*
X84775282Y-50037076D01*
X87862609Y-50037076D01*
X87944242Y-50304298D01*
X88579486Y-50425290D01*
X89187758Y-50304298D01*
X89269391Y-50037076D01*
X89800609Y-50037076D01*
X89882242Y-50304298D01*
X90517486Y-50425290D01*
X91125758Y-50304298D01*
X91207391Y-50037076D01*
X90504000Y-49333685D01*
X89800609Y-50037076D01*
X89269391Y-50037076D01*
X88566000Y-49333685D01*
X87862609Y-50037076D01*
X84775282Y-50037076D01*
X85050831Y-49762008D01*
X85318196Y-49118123D01*
X85318489Y-48781486D01*
X86908710Y-48781486D01*
X87029702Y-49389758D01*
X87296924Y-49471391D01*
X87986829Y-48781486D01*
X88846710Y-48781486D01*
X88967702Y-49389758D01*
X89234924Y-49471391D01*
X89535000Y-49171315D01*
X89835076Y-49471391D01*
X90102298Y-49389758D01*
X90220721Y-48768000D01*
X91069685Y-48768000D01*
X91773076Y-49471391D01*
X92040298Y-49389758D01*
X92092617Y-49115065D01*
X93751196Y-49115065D01*
X94017436Y-49759415D01*
X94509992Y-50252831D01*
X95153877Y-50520196D01*
X95851065Y-50520804D01*
X96495415Y-50254564D01*
X96651752Y-50098500D01*
X96678901Y-50234987D01*
X97058795Y-50803539D01*
X97627347Y-51183433D01*
X98298000Y-51316834D01*
X98968653Y-51183433D01*
X99537205Y-50803539D01*
X99808341Y-50397755D01*
X99859436Y-50521415D01*
X100351992Y-51014831D01*
X100995877Y-51282196D01*
X101693065Y-51282804D01*
X102337415Y-51016564D01*
X102830831Y-50524008D01*
X103098196Y-49880123D01*
X103098597Y-49419466D01*
X105994300Y-49419466D01*
X105994300Y-49488134D01*
X106127701Y-50158787D01*
X106507595Y-50727339D01*
X107076147Y-51107233D01*
X107746800Y-51240634D01*
X108417453Y-51107233D01*
X108552240Y-51017171D01*
X108552240Y-54074700D01*
X108618657Y-54427675D01*
X108827265Y-54751862D01*
X109145564Y-54969346D01*
X109314134Y-55003482D01*
X109642774Y-55495326D01*
X110276210Y-55918575D01*
X111023400Y-56067200D01*
X111406484Y-55991000D01*
X114947700Y-55991000D01*
X115694889Y-55842375D01*
X116328326Y-55419126D01*
X116654671Y-54930716D01*
X116800675Y-54903243D01*
X117124862Y-54694635D01*
X117136419Y-54677720D01*
X117234894Y-55172787D01*
X117625627Y-55757560D01*
X118210400Y-56148293D01*
X118900187Y-56285500D01*
X118970813Y-56285500D01*
X119660600Y-56148293D01*
X120245373Y-55757560D01*
X120636106Y-55172787D01*
X120773313Y-54483000D01*
X120748052Y-54356001D01*
X125840634Y-54356001D01*
X125962911Y-54970728D01*
X126228066Y-55044604D01*
X126916670Y-54356000D01*
X126228066Y-53667396D01*
X125962911Y-53741272D01*
X125840634Y-54356001D01*
X120748052Y-54356001D01*
X120636106Y-53793213D01*
X120557061Y-53674913D01*
X120612662Y-53639135D01*
X120830146Y-53320836D01*
X120867360Y-53137066D01*
X126758396Y-53137066D01*
X127447000Y-53825670D01*
X128135604Y-53137066D01*
X128061728Y-52871911D01*
X127446999Y-52749634D01*
X126832272Y-52871911D01*
X126758396Y-53137066D01*
X120867360Y-53137066D01*
X120906660Y-52943000D01*
X120906660Y-52135815D01*
X129269476Y-52135815D01*
X130175000Y-53041340D01*
X130494966Y-52721374D01*
X131555626Y-53782034D01*
X131235660Y-54102000D01*
X132141185Y-55007524D01*
X132435574Y-54817352D01*
X132537251Y-53897814D01*
X132521474Y-53818496D01*
X132923574Y-53818847D01*
X133659843Y-53514627D01*
X134223647Y-52951806D01*
X134529151Y-52216069D01*
X134529847Y-51419426D01*
X134225627Y-50683157D01*
X133662806Y-50119353D01*
X132927069Y-49813849D01*
X132130426Y-49813153D01*
X131394157Y-50117373D01*
X130830353Y-50680194D01*
X130524849Y-51415931D01*
X130524513Y-51800974D01*
X129970814Y-51739749D01*
X129459648Y-51841426D01*
X129269476Y-52135815D01*
X120906660Y-52135815D01*
X120906660Y-50943000D01*
X120840243Y-50590025D01*
X120631635Y-50265838D01*
X120313336Y-50048354D01*
X119935500Y-49971840D01*
X117935500Y-49971840D01*
X117582525Y-50038257D01*
X117418860Y-50143572D01*
X117418860Y-48998500D01*
X117352443Y-48645525D01*
X117143835Y-48321338D01*
X116825536Y-48103854D01*
X116447700Y-48027340D01*
X113447700Y-48027340D01*
X113094725Y-48093757D01*
X112930035Y-48199732D01*
X112901236Y-48180054D01*
X112523400Y-48103540D01*
X109523400Y-48103540D01*
X109170425Y-48169957D01*
X109036642Y-48256044D01*
X108986005Y-48180261D01*
X108417453Y-47800367D01*
X107746800Y-47666966D01*
X107076147Y-47800367D01*
X106507595Y-48180261D01*
X106127701Y-48748813D01*
X105994300Y-49419466D01*
X103098597Y-49419466D01*
X103098804Y-49182935D01*
X102832564Y-48538585D01*
X102473682Y-48179076D01*
X103944609Y-48179076D01*
X104026242Y-48446298D01*
X104661486Y-48567290D01*
X105269758Y-48446298D01*
X105351391Y-48179076D01*
X104648000Y-47475685D01*
X103944609Y-48179076D01*
X102473682Y-48179076D01*
X102340008Y-48045169D01*
X101696123Y-47777804D01*
X100998935Y-47777196D01*
X100354585Y-48043436D01*
X99861169Y-48535992D01*
X99808590Y-48662617D01*
X99537205Y-48256461D01*
X98968653Y-47876567D01*
X98298000Y-47743166D01*
X97627347Y-47876567D01*
X97160708Y-48188365D01*
X96990564Y-47776585D01*
X96498008Y-47283169D01*
X95854123Y-47015804D01*
X95156935Y-47015196D01*
X94512585Y-47281436D01*
X94019169Y-47773992D01*
X93751804Y-48417877D01*
X93751196Y-49115065D01*
X92092617Y-49115065D01*
X92161290Y-48754514D01*
X92040298Y-48146242D01*
X91773076Y-48064609D01*
X91069685Y-48768000D01*
X90220721Y-48768000D01*
X90223290Y-48754514D01*
X90102298Y-48146242D01*
X89835076Y-48064609D01*
X89535000Y-48364685D01*
X89234924Y-48064609D01*
X88967702Y-48146242D01*
X88846710Y-48781486D01*
X87986829Y-48781486D01*
X88000315Y-48768000D01*
X87296924Y-48064609D01*
X87029702Y-48146242D01*
X86908710Y-48781486D01*
X85318489Y-48781486D01*
X85318804Y-48420935D01*
X85052564Y-47776585D01*
X84775387Y-47498924D01*
X87862609Y-47498924D01*
X88566000Y-48202315D01*
X89269391Y-47498924D01*
X89800609Y-47498924D01*
X90504000Y-48202315D01*
X91207391Y-47498924D01*
X91125758Y-47231702D01*
X90490514Y-47110710D01*
X89882242Y-47231702D01*
X89800609Y-47498924D01*
X89269391Y-47498924D01*
X89187758Y-47231702D01*
X88552514Y-47110710D01*
X87944242Y-47231702D01*
X87862609Y-47498924D01*
X84775387Y-47498924D01*
X84560008Y-47283169D01*
X83916123Y-47015804D01*
X83218935Y-47015196D01*
X82574585Y-47281436D01*
X82081169Y-47773992D01*
X81909146Y-48188268D01*
X81442653Y-47876567D01*
X80772000Y-47743166D01*
X80101347Y-47876567D01*
X79532795Y-48256461D01*
X79152901Y-48825013D01*
X79127558Y-48952422D01*
X78956564Y-48538585D01*
X78464008Y-48045169D01*
X77820123Y-47777804D01*
X77122935Y-47777196D01*
X76478585Y-48043436D01*
X75985169Y-48535992D01*
X75717804Y-49179877D01*
X75717196Y-49877065D01*
X73043808Y-49877065D01*
X73075700Y-49716734D01*
X73075700Y-49648066D01*
X72942299Y-48977413D01*
X72562405Y-48408861D01*
X72218508Y-48179076D01*
X73464609Y-48179076D01*
X73546242Y-48446298D01*
X74181486Y-48567290D01*
X74789758Y-48446298D01*
X74871391Y-48179076D01*
X74168000Y-47475685D01*
X73464609Y-48179076D01*
X72218508Y-48179076D01*
X71993853Y-48028967D01*
X71323200Y-47895566D01*
X70652547Y-48028967D01*
X70083995Y-48408861D01*
X69704101Y-48977413D01*
X69570700Y-49648066D01*
X68910743Y-49648066D01*
X68851143Y-49331325D01*
X68642535Y-49007138D01*
X68324236Y-48789654D01*
X67946400Y-48713140D01*
X64946400Y-48713140D01*
X64593425Y-48779557D01*
X64495264Y-48842721D01*
X64361836Y-48751554D01*
X63984000Y-48675040D01*
X60984000Y-48675040D01*
X60631025Y-48741457D01*
X60306838Y-48950065D01*
X60089354Y-49268364D01*
X60012840Y-49646200D01*
X60012840Y-51249975D01*
X59774836Y-51087354D01*
X59397000Y-51010840D01*
X57697000Y-51010840D01*
X57344025Y-51077257D01*
X57019838Y-51285865D01*
X56802354Y-51604164D01*
X56725840Y-51982000D01*
X56725840Y-53682000D01*
X56792257Y-54034975D01*
X57000865Y-54359162D01*
X57043009Y-54387958D01*
X56846394Y-54682213D01*
X56709187Y-55372000D01*
X53777037Y-55372000D01*
X53731648Y-55326532D01*
X53106134Y-55066796D01*
X52509160Y-55066275D01*
X52509160Y-52983000D01*
X52442743Y-52630025D01*
X52234135Y-52305838D01*
X51915836Y-52088354D01*
X51538000Y-52011840D01*
X49688218Y-52011840D01*
X49688847Y-51292426D01*
X49384627Y-50556157D01*
X48821806Y-49992353D01*
X48086069Y-49686849D01*
X47289426Y-49686153D01*
X46553157Y-49990373D01*
X45989353Y-50553194D01*
X45683849Y-51288931D01*
X45683153Y-52085574D01*
X41027500Y-52085574D01*
X41027500Y-45813807D01*
X41443002Y-46229309D01*
X41745545Y-45926765D01*
X42088818Y-46265924D01*
X43407993Y-46366014D01*
X43911182Y-46265924D01*
X44254456Y-45926764D01*
X44242767Y-45915075D01*
X60158500Y-45915075D01*
X60158500Y-47190402D01*
X60284175Y-47493808D01*
X60516392Y-47726025D01*
X60819798Y-47851700D01*
X61527625Y-47851700D01*
X61734000Y-47645325D01*
X61734000Y-45708700D01*
X63234000Y-45708700D01*
X63234000Y-47645325D01*
X63440375Y-47851700D01*
X64148202Y-47851700D01*
X64443889Y-47729222D01*
X64478792Y-47764125D01*
X64782198Y-47889800D01*
X65490025Y-47889800D01*
X65696400Y-47683425D01*
X65696400Y-45746800D01*
X67196400Y-45746800D01*
X67196400Y-47683425D01*
X67402775Y-47889800D01*
X68110602Y-47889800D01*
X68414008Y-47764125D01*
X68646225Y-47531908D01*
X68771900Y-47228502D01*
X68771900Y-46923486D01*
X72510710Y-46923486D01*
X72631702Y-47531758D01*
X72898924Y-47613391D01*
X73602315Y-46910000D01*
X74733685Y-46910000D01*
X75437076Y-47613391D01*
X75704298Y-47531758D01*
X75820152Y-46923486D01*
X102990710Y-46923486D01*
X103111702Y-47531758D01*
X103378924Y-47613391D01*
X104082315Y-46910000D01*
X105213685Y-46910000D01*
X105917076Y-47613391D01*
X106184298Y-47531758D01*
X106305290Y-46896514D01*
X106184298Y-46288242D01*
X105917076Y-46206609D01*
X105213685Y-46910000D01*
X104082315Y-46910000D01*
X103378924Y-46206609D01*
X103111702Y-46288242D01*
X102990710Y-46923486D01*
X75820152Y-46923486D01*
X75825290Y-46896514D01*
X75704298Y-46288242D01*
X75437076Y-46206609D01*
X74733685Y-46910000D01*
X73602315Y-46910000D01*
X72898924Y-46206609D01*
X72631702Y-46288242D01*
X72510710Y-46923486D01*
X68771900Y-46923486D01*
X68771900Y-45953175D01*
X68565525Y-45746800D01*
X67196400Y-45746800D01*
X65696400Y-45746800D01*
X64641225Y-45746800D01*
X64603125Y-45708700D01*
X63234000Y-45708700D01*
X61734000Y-45708700D01*
X60364875Y-45708700D01*
X60158500Y-45915075D01*
X44242767Y-45915075D01*
X43968616Y-45640924D01*
X73464609Y-45640924D01*
X74168000Y-46344315D01*
X74871391Y-45640924D01*
X103944609Y-45640924D01*
X104648000Y-46344315D01*
X105351391Y-45640924D01*
X105269758Y-45373702D01*
X105111583Y-45343575D01*
X108697900Y-45343575D01*
X108697900Y-46618902D01*
X108823575Y-46922308D01*
X109055792Y-47154525D01*
X109359198Y-47280200D01*
X110067025Y-47280200D01*
X110273400Y-47073825D01*
X110273400Y-45137200D01*
X111773400Y-45137200D01*
X111773400Y-47073825D01*
X111979775Y-47280200D01*
X112687602Y-47280200D01*
X112991008Y-47154525D01*
X113041692Y-47103841D01*
X113283498Y-47204000D01*
X113991325Y-47204000D01*
X114197700Y-46997625D01*
X114197700Y-45061000D01*
X115697700Y-45061000D01*
X115697700Y-46997625D01*
X115904075Y-47204000D01*
X116611902Y-47204000D01*
X116915308Y-47078325D01*
X117147525Y-46846108D01*
X117273200Y-46542702D01*
X117273200Y-45267375D01*
X117066825Y-45061000D01*
X115697700Y-45061000D01*
X114197700Y-45061000D01*
X112828575Y-45061000D01*
X112752375Y-45137200D01*
X111773400Y-45137200D01*
X110273400Y-45137200D01*
X108904275Y-45137200D01*
X108697900Y-45343575D01*
X105111583Y-45343575D01*
X104634514Y-45252710D01*
X104026242Y-45373702D01*
X103944609Y-45640924D01*
X74871391Y-45640924D01*
X74789758Y-45373702D01*
X74154514Y-45252710D01*
X73546242Y-45373702D01*
X73464609Y-45640924D01*
X43968616Y-45640924D01*
X43000000Y-44672308D01*
X42985858Y-44686450D01*
X41313550Y-43014142D01*
X41327692Y-43000000D01*
X41313550Y-42985858D01*
X42960908Y-41338500D01*
X43039092Y-41338500D01*
X44686450Y-42985858D01*
X44686450Y-42985858D01*
G37*
X44686450Y-42985858D02*
X44672308Y-43000000D01*
X45926764Y-44254456D01*
X46265924Y-43911182D01*
X46366014Y-42592007D01*
X46265924Y-42088818D01*
X45926765Y-41745545D01*
X46229309Y-41443002D01*
X46124807Y-41338500D01*
X60504267Y-41338500D01*
X60284175Y-41558592D01*
X60158500Y-41861998D01*
X60158500Y-43137325D01*
X60364875Y-43343700D01*
X61506456Y-43343700D01*
X62152633Y-43989877D01*
X62484000Y-43658511D01*
X62815367Y-43989877D01*
X63461544Y-43343700D01*
X64289175Y-43343700D01*
X64327275Y-43381800D01*
X65468856Y-43381800D01*
X66115033Y-44027977D01*
X66446400Y-43696611D01*
X66777767Y-44027977D01*
X67423944Y-43381800D01*
X68565525Y-43381800D01*
X68771900Y-43175425D01*
X68771900Y-41900098D01*
X68646225Y-41596692D01*
X68414008Y-41364475D01*
X68351299Y-41338500D01*
X69552040Y-41338500D01*
X69552040Y-42862400D01*
X69618457Y-43215375D01*
X69827065Y-43539562D01*
X70145364Y-43757046D01*
X70523200Y-43833560D01*
X72123200Y-43833560D01*
X72476175Y-43767143D01*
X72800362Y-43558535D01*
X73017846Y-43240236D01*
X73018153Y-43238720D01*
X73173992Y-43394831D01*
X73817877Y-43662196D01*
X74515065Y-43662804D01*
X75159415Y-43396564D01*
X75652831Y-42904008D01*
X75825619Y-42487888D01*
X75850901Y-42614987D01*
X76230795Y-43183539D01*
X76799347Y-43563433D01*
X77470000Y-43696834D01*
X78140653Y-43563433D01*
X78709205Y-43183539D01*
X78712187Y-43179076D01*
X80068609Y-43179076D01*
X80150242Y-43446298D01*
X80785486Y-43567290D01*
X81393758Y-43446298D01*
X81475391Y-43179076D01*
X80772000Y-42475685D01*
X80068609Y-43179076D01*
X78712187Y-43179076D01*
X79089099Y-42614987D01*
X79170678Y-42204860D01*
X79235702Y-42531758D01*
X79502924Y-42613391D01*
X80206315Y-41910000D01*
X79923472Y-41627157D01*
X80212129Y-41338500D01*
X80766185Y-41338500D01*
X80772000Y-41344315D01*
X80777815Y-41338500D01*
X81331871Y-41338500D01*
X81620528Y-41627157D01*
X81337685Y-41910000D01*
X82041076Y-42613391D01*
X82308298Y-42531758D01*
X82422583Y-41931728D01*
X82775677Y-41578633D01*
X82535544Y-41338500D01*
X84433551Y-41338500D01*
X84361354Y-41444164D01*
X84284840Y-41822000D01*
X84284840Y-43522000D01*
X84351257Y-43874975D01*
X84559865Y-44199162D01*
X84878164Y-44416646D01*
X85256000Y-44493160D01*
X86956000Y-44493160D01*
X87308975Y-44426743D01*
X87633162Y-44218135D01*
X87661958Y-44175991D01*
X87956213Y-44372606D01*
X88646000Y-44509813D01*
X89335787Y-44372606D01*
X89920560Y-43981873D01*
X90005666Y-43854502D01*
X90007505Y-43854502D01*
X90026161Y-43881202D01*
X90512699Y-44206264D01*
X90761000Y-44078308D01*
X90761000Y-43097000D01*
X91611000Y-43097000D01*
X91611000Y-44078308D01*
X91859301Y-44206264D01*
X92345839Y-43881202D01*
X92720293Y-43345306D01*
X92640002Y-43179076D01*
X97594609Y-43179076D01*
X97676242Y-43446298D01*
X98311486Y-43567290D01*
X98919758Y-43446298D01*
X99001391Y-43179076D01*
X98298000Y-42475685D01*
X97594609Y-43179076D01*
X92640002Y-43179076D01*
X92600357Y-43097000D01*
X91611000Y-43097000D01*
X90761000Y-43097000D01*
X90370987Y-43097000D01*
X90448500Y-42707313D01*
X90448500Y-42636687D01*
X90370987Y-42247000D01*
X90761000Y-42247000D01*
X90761000Y-41822000D01*
X91611000Y-41822000D01*
X91611000Y-42247000D01*
X92600357Y-42247000D01*
X92720293Y-41998694D01*
X92368502Y-41495232D01*
X92368502Y-41338500D01*
X96534456Y-41338500D01*
X96294323Y-41578633D01*
X96641091Y-41925402D01*
X96761702Y-42531758D01*
X97028924Y-42613391D01*
X97732315Y-41910000D01*
X97449472Y-41627157D01*
X97738129Y-41338500D01*
X98292185Y-41338500D01*
X98298000Y-41344315D01*
X98303815Y-41338500D01*
X98857871Y-41338500D01*
X99146528Y-41627157D01*
X98863685Y-41910000D01*
X99567076Y-42613391D01*
X99717446Y-42567455D01*
X99726901Y-42614987D01*
X100106795Y-43183539D01*
X100675347Y-43563433D01*
X101346000Y-43696834D01*
X102016653Y-43563433D01*
X102585205Y-43183539D01*
X102965099Y-42614987D01*
X102990442Y-42487578D01*
X103161436Y-42901415D01*
X103653992Y-43394831D01*
X104297877Y-43662196D01*
X104995065Y-43662804D01*
X105639415Y-43396564D01*
X106045132Y-42991554D01*
X106250665Y-43310962D01*
X106568964Y-43528446D01*
X106946800Y-43604960D01*
X108546800Y-43604960D01*
X108899775Y-43538543D01*
X109223962Y-43329935D01*
X109441446Y-43011636D01*
X109489933Y-42772200D01*
X110045856Y-42772200D01*
X110692033Y-43418377D01*
X111023400Y-43087011D01*
X111354767Y-43418377D01*
X112000944Y-42772200D01*
X113142525Y-42772200D01*
X113218725Y-42696000D01*
X113970156Y-42696000D01*
X114616333Y-43342177D01*
X114947700Y-43010811D01*
X115279067Y-43342177D01*
X115925244Y-42696000D01*
X117066825Y-42696000D01*
X117273200Y-42489625D01*
X117273200Y-41338500D01*
X133875193Y-41338500D01*
X133770691Y-41443002D01*
X134073235Y-41745545D01*
X133734076Y-42088818D01*
X133633986Y-43407993D01*
X133734076Y-43911182D01*
X134073236Y-44254456D01*
X135327692Y-43000000D01*
X135313550Y-42985858D01*
X136960908Y-41338500D01*
X137039092Y-41338500D01*
X138686450Y-42985858D01*
X138672308Y-43000000D01*
X138686450Y-43014142D01*
X137014142Y-44686450D01*
X137000000Y-44672308D01*
X135745544Y-45926764D01*
X136088818Y-46265924D01*
X137407993Y-46366014D01*
X137911182Y-46265924D01*
X138254455Y-45926765D01*
X138556998Y-46229309D01*
X138926544Y-45859763D01*
X138936049Y-82824560D01*
X138219589Y-82108100D01*
X137946311Y-82381378D01*
X137783039Y-82193717D01*
X136649515Y-82107676D01*
X136216961Y-82193717D01*
X135944136Y-82507295D01*
X137000000Y-83563159D01*
X137131876Y-83431284D01*
X138568717Y-84868125D01*
X138436841Y-85000000D01*
X138568717Y-85131876D01*
X137131876Y-86568717D01*
X137000000Y-86436841D01*
X135944136Y-87492705D01*
X136216961Y-87806283D01*
X137350485Y-87892324D01*
X137783039Y-87806283D01*
X137946311Y-87618622D01*
X138219589Y-87891900D01*
X138937168Y-87174321D01*
X138938879Y-93827390D01*
X138219589Y-93108100D01*
X137946311Y-93381378D01*
X137783039Y-93193717D01*
X136649515Y-93107676D01*
X136216961Y-93193717D01*
X135944136Y-93507295D01*
X137000000Y-94563159D01*
X137131876Y-94431284D01*
X138568717Y-95868125D01*
X138436841Y-96000000D01*
X138568717Y-96131876D01*
X137131876Y-97568717D01*
X137000000Y-97436841D01*
X135944136Y-98492705D01*
X136216961Y-98806283D01*
X137350485Y-98892324D01*
X137783039Y-98806283D01*
X137946311Y-98618622D01*
X138219589Y-98891900D01*
X138939995Y-98171494D01*
X138942165Y-106608142D01*
X138806467Y-106279728D01*
X137976641Y-105448452D01*
X136891865Y-104998014D01*
X135717288Y-104996989D01*
X134631728Y-105445533D01*
X133800452Y-106275359D01*
X133350014Y-107360135D01*
X133348989Y-108534712D01*
X133797533Y-109620272D01*
X134627359Y-110451548D01*
X135712135Y-110901986D01*
X136886712Y-110903011D01*
X137972272Y-110454467D01*
X138803548Y-109624641D01*
X138942854Y-109289154D01*
X138949250Y-134162943D01*
X138556998Y-133770691D01*
X138254455Y-134073235D01*
X137911182Y-133734076D01*
X136592007Y-133633986D01*
X136088818Y-133734076D01*
X135745544Y-134073236D01*
X137000000Y-135327692D01*
X137014142Y-135313550D01*
X138686450Y-136985858D01*
X138672308Y-137000000D01*
X138686450Y-137014142D01*
X137014142Y-138686450D01*
X137000000Y-138672308D01*
X136985858Y-138686450D01*
X135313550Y-137014142D01*
X135327692Y-137000000D01*
X134073236Y-135745544D01*
X133734076Y-136088818D01*
X133633986Y-137407993D01*
X133734076Y-137911182D01*
X134073235Y-138254455D01*
X133770691Y-138556998D01*
X134186193Y-138972500D01*
X45813807Y-138972500D01*
X46229309Y-138556998D01*
X45926765Y-138254455D01*
X46265924Y-137911182D01*
X46366014Y-136592007D01*
X46265924Y-136088818D01*
X45926764Y-135745544D01*
X44672308Y-137000000D01*
X44686450Y-137014142D01*
X43014142Y-138686450D01*
X43000000Y-138672308D01*
X42985858Y-138686450D01*
X41313550Y-137014142D01*
X41327692Y-137000000D01*
X41313550Y-136985858D01*
X42856223Y-135443185D01*
X89772476Y-135443185D01*
X89962648Y-135737574D01*
X90882186Y-135839251D01*
X91393352Y-135737574D01*
X91583524Y-135443185D01*
X90678000Y-134537660D01*
X89772476Y-135443185D01*
X42856223Y-135443185D01*
X42985858Y-135313550D01*
X43000000Y-135327692D01*
X44254456Y-134073236D01*
X43911182Y-133734076D01*
X43214098Y-133681186D01*
X88315749Y-133681186D01*
X88417426Y-134192352D01*
X88711815Y-134382524D01*
X89617340Y-133477000D01*
X91738660Y-133477000D01*
X92644185Y-134382524D01*
X92938574Y-134192352D01*
X93040251Y-133272814D01*
X92938574Y-132761648D01*
X92644185Y-132571476D01*
X91738660Y-133477000D01*
X89617340Y-133477000D01*
X88711815Y-132571476D01*
X88417426Y-132761648D01*
X88315749Y-133681186D01*
X43214098Y-133681186D01*
X42592007Y-133633986D01*
X42088818Y-133734076D01*
X41745545Y-134073235D01*
X41443002Y-133770691D01*
X41027500Y-134186193D01*
X41027500Y-130969875D01*
X79593500Y-130969875D01*
X79593500Y-131802702D01*
X79719175Y-132106108D01*
X79951392Y-132338325D01*
X80254798Y-132464000D01*
X81087625Y-132464000D01*
X81294000Y-132257625D01*
X81294000Y-130763500D01*
X83044000Y-130763500D01*
X83044000Y-132257625D01*
X83250375Y-132464000D01*
X84083202Y-132464000D01*
X84386608Y-132338325D01*
X84618825Y-132106108D01*
X84744500Y-131802702D01*
X84744500Y-131510815D01*
X89772476Y-131510815D01*
X90678000Y-132416340D01*
X91117339Y-131977000D01*
X93286840Y-131977000D01*
X93286840Y-134977000D01*
X93353257Y-135329975D01*
X93561865Y-135654162D01*
X93880164Y-135871646D01*
X94258000Y-135948160D01*
X97258000Y-135948160D01*
X97610975Y-135881743D01*
X97935162Y-135673135D01*
X98092279Y-135443185D01*
X101456476Y-135443185D01*
X101646648Y-135737574D01*
X102566186Y-135839251D01*
X103077352Y-135737574D01*
X103267524Y-135443185D01*
X102362000Y-134537660D01*
X101456476Y-135443185D01*
X98092279Y-135443185D01*
X98152646Y-135354836D01*
X98229160Y-134977000D01*
X98229160Y-133681186D01*
X99999749Y-133681186D01*
X100101426Y-134192352D01*
X100395815Y-134382524D01*
X101301340Y-133477000D01*
X103422660Y-133477000D01*
X104328185Y-134382524D01*
X104622574Y-134192352D01*
X104724251Y-133272814D01*
X104622574Y-132761648D01*
X104328185Y-132571476D01*
X103422660Y-133477000D01*
X101301340Y-133477000D01*
X100395815Y-132571476D01*
X100101426Y-132761648D01*
X99999749Y-133681186D01*
X98229160Y-133681186D01*
X98229160Y-131977000D01*
X98162743Y-131624025D01*
X98089895Y-131510815D01*
X101456476Y-131510815D01*
X102362000Y-132416340D01*
X102801339Y-131977000D01*
X104970840Y-131977000D01*
X104970840Y-134977000D01*
X105037257Y-135329975D01*
X105245865Y-135654162D01*
X105564164Y-135871646D01*
X105942000Y-135948160D01*
X108942000Y-135948160D01*
X109294975Y-135881743D01*
X109619162Y-135673135D01*
X109776279Y-135443185D01*
X113013476Y-135443185D01*
X113203648Y-135737574D01*
X114123186Y-135839251D01*
X114634352Y-135737574D01*
X114824524Y-135443185D01*
X113919000Y-134537660D01*
X113013476Y-135443185D01*
X109776279Y-135443185D01*
X109836646Y-135354836D01*
X109913160Y-134977000D01*
X109913160Y-133681186D01*
X111556749Y-133681186D01*
X111658426Y-134192352D01*
X111952815Y-134382524D01*
X112858340Y-133477000D01*
X114979660Y-133477000D01*
X115885185Y-134382524D01*
X116179574Y-134192352D01*
X116281251Y-133272814D01*
X116179574Y-132761648D01*
X115885185Y-132571476D01*
X114979660Y-133477000D01*
X112858340Y-133477000D01*
X111952815Y-132571476D01*
X111658426Y-132761648D01*
X111556749Y-133681186D01*
X109913160Y-133681186D01*
X109913160Y-131977000D01*
X109846743Y-131624025D01*
X109773895Y-131510815D01*
X113013476Y-131510815D01*
X113919000Y-132416340D01*
X114358339Y-131977000D01*
X116527840Y-131977000D01*
X116527840Y-134977000D01*
X116594257Y-135329975D01*
X116802865Y-135654162D01*
X117121164Y-135871646D01*
X117499000Y-135948160D01*
X120499000Y-135948160D01*
X120851975Y-135881743D01*
X121176162Y-135673135D01*
X121393646Y-135354836D01*
X121470160Y-134977000D01*
X121470160Y-133435692D01*
X127849076Y-133435692D01*
X128221660Y-134337415D01*
X128910957Y-135027916D01*
X129812027Y-135402073D01*
X130787692Y-135402924D01*
X131689415Y-135030340D01*
X132379916Y-134341043D01*
X132754073Y-133439973D01*
X132754924Y-132464308D01*
X132382340Y-131562585D01*
X131693043Y-130872084D01*
X130791973Y-130497927D01*
X129816308Y-130497076D01*
X128914585Y-130869660D01*
X128224084Y-131558957D01*
X127849927Y-132460027D01*
X127849076Y-133435692D01*
X121470160Y-133435692D01*
X121470160Y-131977000D01*
X121403743Y-131624025D01*
X121195135Y-131299838D01*
X120876836Y-131082354D01*
X120499000Y-131005840D01*
X117499000Y-131005840D01*
X117146025Y-131072257D01*
X116821838Y-131280865D01*
X116604354Y-131599164D01*
X116527840Y-131977000D01*
X114358339Y-131977000D01*
X114824524Y-131510815D01*
X114634352Y-131216426D01*
X113714814Y-131114749D01*
X113203648Y-131216426D01*
X113013476Y-131510815D01*
X109773895Y-131510815D01*
X109638135Y-131299838D01*
X109319836Y-131082354D01*
X108942000Y-131005840D01*
X105942000Y-131005840D01*
X105589025Y-131072257D01*
X105264838Y-131280865D01*
X105047354Y-131599164D01*
X104970840Y-131977000D01*
X102801339Y-131977000D01*
X103267524Y-131510815D01*
X103077352Y-131216426D01*
X102157814Y-131114749D01*
X101646648Y-131216426D01*
X101456476Y-131510815D01*
X98089895Y-131510815D01*
X97954135Y-131299838D01*
X97635836Y-131082354D01*
X97258000Y-131005840D01*
X94258000Y-131005840D01*
X93905025Y-131072257D01*
X93580838Y-131280865D01*
X93363354Y-131599164D01*
X93286840Y-131977000D01*
X91117339Y-131977000D01*
X91583524Y-131510815D01*
X91393352Y-131216426D01*
X90473814Y-131114749D01*
X89962648Y-131216426D01*
X89772476Y-131510815D01*
X84744500Y-131510815D01*
X84744500Y-130969875D01*
X84538125Y-130763500D01*
X83044000Y-130763500D01*
X81294000Y-130763500D01*
X79799875Y-130763500D01*
X79593500Y-130969875D01*
X41027500Y-130969875D01*
X41027500Y-127974298D01*
X79593500Y-127974298D01*
X79593500Y-128807125D01*
X79799875Y-129013500D01*
X81294000Y-129013500D01*
X81294000Y-127519375D01*
X81087625Y-127313000D01*
X80254798Y-127313000D01*
X79951392Y-127438675D01*
X79719175Y-127670892D01*
X79593500Y-127974298D01*
X41027500Y-127974298D01*
X41027500Y-122138500D01*
X79447840Y-122138500D01*
X79447840Y-125638500D01*
X79514257Y-125991475D01*
X79722865Y-126315662D01*
X80041164Y-126533146D01*
X80419000Y-126609660D01*
X83919000Y-126609660D01*
X84147840Y-126566601D01*
X84147840Y-127339774D01*
X84083202Y-127313000D01*
X83250375Y-127313000D01*
X83044000Y-127519375D01*
X83044000Y-129013500D01*
X84228430Y-129013500D01*
X84422865Y-129315662D01*
X84741164Y-129533146D01*
X85119000Y-129609660D01*
X88619000Y-129609660D01*
X88971975Y-129543243D01*
X89296162Y-129334635D01*
X89513646Y-129016336D01*
X89590160Y-128638500D01*
X89590160Y-126458065D01*
X108292696Y-126458065D01*
X108558936Y-127102415D01*
X109051492Y-127595831D01*
X109695377Y-127863196D01*
X110392565Y-127863804D01*
X111036915Y-127597564D01*
X111530331Y-127105008D01*
X111651599Y-126812963D01*
X111797436Y-127165915D01*
X112289992Y-127659331D01*
X112933877Y-127926696D01*
X113631065Y-127927304D01*
X114275415Y-127661064D01*
X114768831Y-127168508D01*
X115036196Y-126524623D01*
X115036804Y-125827435D01*
X114770564Y-125183085D01*
X114278008Y-124689669D01*
X113634123Y-124422304D01*
X112936935Y-124421696D01*
X112292585Y-124687936D01*
X111799169Y-125180492D01*
X111677901Y-125472537D01*
X111532064Y-125119585D01*
X111039508Y-124626169D01*
X110395623Y-124358804D01*
X109698435Y-124358196D01*
X109054085Y-124624436D01*
X108560669Y-125116992D01*
X108293304Y-125760877D01*
X108292696Y-126458065D01*
X89590160Y-126458065D01*
X89590160Y-125138500D01*
X89523743Y-124785525D01*
X89315135Y-124461338D01*
X88996836Y-124243854D01*
X88619000Y-124167340D01*
X85119000Y-124167340D01*
X84890160Y-124210399D01*
X84890160Y-123640899D01*
X93259447Y-123640899D01*
X93709988Y-124242125D01*
X94164106Y-124545521D01*
X94446000Y-124437770D01*
X94446000Y-123359000D01*
X95546000Y-123359000D01*
X95546000Y-124437770D01*
X95827894Y-124545521D01*
X96282012Y-124242125D01*
X96732553Y-123640899D01*
X96662423Y-123438375D01*
X98214000Y-123438375D01*
X98214000Y-123946202D01*
X98339675Y-124249608D01*
X98571892Y-124481825D01*
X98875298Y-124607500D01*
X99383125Y-124607500D01*
X99589500Y-124401125D01*
X99589500Y-123232000D01*
X98420375Y-123232000D01*
X98214000Y-123438375D01*
X96662423Y-123438375D01*
X96634936Y-123359000D01*
X95546000Y-123359000D01*
X94446000Y-123359000D01*
X93357064Y-123359000D01*
X93259447Y-123640899D01*
X84890160Y-123640899D01*
X84890160Y-122138500D01*
X84859791Y-121977101D01*
X93259447Y-121977101D01*
X93357064Y-122259000D01*
X94446000Y-122259000D01*
X94446000Y-121180230D01*
X95546000Y-121180230D01*
X95546000Y-122259000D01*
X96634936Y-122259000D01*
X96732553Y-121977101D01*
X96313428Y-121417798D01*
X98214000Y-121417798D01*
X98214000Y-121925625D01*
X98420375Y-122132000D01*
X99589500Y-122132000D01*
X99589500Y-120962875D01*
X100689500Y-120962875D01*
X100689500Y-122132000D01*
X101239500Y-122132000D01*
X101239500Y-123232000D01*
X100689500Y-123232000D01*
X100689500Y-124401125D01*
X100895875Y-124607500D01*
X101403702Y-124607500D01*
X101707108Y-124481825D01*
X101939325Y-124249608D01*
X102065000Y-123946202D01*
X102065000Y-122864832D01*
X102180237Y-123444169D01*
X102625163Y-124110048D01*
X103291042Y-124554974D01*
X104076500Y-124711211D01*
X104861958Y-124554974D01*
X105527837Y-124110048D01*
X105972763Y-123444169D01*
X106073843Y-122936000D01*
X118431187Y-122936000D01*
X118568394Y-123625787D01*
X118959127Y-124210560D01*
X119543900Y-124601293D01*
X120233687Y-124738500D01*
X120304313Y-124738500D01*
X120994100Y-124601293D01*
X121578873Y-124210560D01*
X121969606Y-123625787D01*
X122106813Y-122936000D01*
X121969606Y-122246213D01*
X121775368Y-121955515D01*
X121796162Y-121942135D01*
X122013646Y-121623836D01*
X122090160Y-121246000D01*
X122090160Y-119546000D01*
X122023743Y-119193025D01*
X121815135Y-118868838D01*
X121496836Y-118651354D01*
X121119000Y-118574840D01*
X119419000Y-118574840D01*
X119066025Y-118641257D01*
X118741838Y-118849865D01*
X118524354Y-119168164D01*
X118447840Y-119546000D01*
X118447840Y-121246000D01*
X118514257Y-121598975D01*
X118722865Y-121923162D01*
X118765009Y-121951958D01*
X118568394Y-122246213D01*
X118431187Y-122936000D01*
X106073843Y-122936000D01*
X106129000Y-122658711D01*
X106129000Y-122578289D01*
X106089574Y-122380076D01*
X109342109Y-122380076D01*
X109423742Y-122647298D01*
X110058986Y-122768290D01*
X110667258Y-122647298D01*
X110729492Y-122443576D01*
X112580609Y-122443576D01*
X112662242Y-122710798D01*
X113297486Y-122831790D01*
X113905758Y-122710798D01*
X113987391Y-122443576D01*
X113284000Y-121740185D01*
X112580609Y-122443576D01*
X110729492Y-122443576D01*
X110748891Y-122380076D01*
X110045500Y-121676685D01*
X109342109Y-122380076D01*
X106089574Y-122380076D01*
X105972763Y-121792831D01*
X105527837Y-121126952D01*
X105524147Y-121124486D01*
X108388210Y-121124486D01*
X108509202Y-121732758D01*
X108776424Y-121814391D01*
X109479815Y-121111000D01*
X110611185Y-121111000D01*
X111314576Y-121814391D01*
X111581798Y-121732758D01*
X111656772Y-121339121D01*
X111747702Y-121796258D01*
X112014924Y-121877891D01*
X112718315Y-121174500D01*
X113849685Y-121174500D01*
X114553076Y-121877891D01*
X114820298Y-121796258D01*
X114941290Y-121161014D01*
X114820298Y-120552742D01*
X114553076Y-120471109D01*
X113849685Y-121174500D01*
X112718315Y-121174500D01*
X112014924Y-120471109D01*
X111747702Y-120552742D01*
X111672728Y-120946379D01*
X111581798Y-120489242D01*
X111314576Y-120407609D01*
X110611185Y-121111000D01*
X109479815Y-121111000D01*
X108776424Y-120407609D01*
X108509202Y-120489242D01*
X108388210Y-121124486D01*
X105524147Y-121124486D01*
X104861958Y-120682026D01*
X104076500Y-120525789D01*
X103291042Y-120682026D01*
X102625163Y-121126952D01*
X102180237Y-121792831D01*
X102065000Y-122372168D01*
X102065000Y-121417798D01*
X101939325Y-121114392D01*
X101707108Y-120882175D01*
X101403702Y-120756500D01*
X100895875Y-120756500D01*
X100689500Y-120962875D01*
X99589500Y-120962875D01*
X99383125Y-120756500D01*
X98875298Y-120756500D01*
X98571892Y-120882175D01*
X98339675Y-121114392D01*
X98214000Y-121417798D01*
X96313428Y-121417798D01*
X96282012Y-121375875D01*
X95827894Y-121072479D01*
X95546000Y-121180230D01*
X94446000Y-121180230D01*
X94164106Y-121072479D01*
X93709988Y-121375875D01*
X93259447Y-121977101D01*
X84859791Y-121977101D01*
X84823743Y-121785525D01*
X84615135Y-121461338D01*
X84296836Y-121243854D01*
X83919000Y-121167340D01*
X80419000Y-121167340D01*
X80066025Y-121233757D01*
X79741838Y-121442365D01*
X79524354Y-121760664D01*
X79447840Y-122138500D01*
X41027500Y-122138500D01*
X41027500Y-119841924D01*
X109342109Y-119841924D01*
X110045500Y-120545315D01*
X110685391Y-119905424D01*
X112580609Y-119905424D01*
X113284000Y-120608815D01*
X113987391Y-119905424D01*
X113905758Y-119638202D01*
X113270514Y-119517210D01*
X112662242Y-119638202D01*
X112580609Y-119905424D01*
X110685391Y-119905424D01*
X110748891Y-119841924D01*
X110667258Y-119574702D01*
X110032014Y-119453710D01*
X109423742Y-119574702D01*
X109342109Y-119841924D01*
X41027500Y-119841924D01*
X41027500Y-118435692D01*
X127849076Y-118435692D01*
X128221660Y-119337415D01*
X128910957Y-120027916D01*
X129812027Y-120402073D01*
X130787692Y-120402924D01*
X131689415Y-120030340D01*
X132379916Y-119341043D01*
X132754073Y-118439973D01*
X132754924Y-117464308D01*
X132382340Y-116562585D01*
X131693043Y-115872084D01*
X130791973Y-115497927D01*
X129816308Y-115497076D01*
X128914585Y-115869660D01*
X128224084Y-116558957D01*
X127849927Y-117460027D01*
X127849076Y-118435692D01*
X41027500Y-118435692D01*
X41027500Y-114793000D01*
X109322055Y-114793000D01*
X109470680Y-115540189D01*
X109893929Y-116173626D01*
X110527366Y-116596875D01*
X111274555Y-116745500D01*
X112880445Y-116745500D01*
X113627634Y-116596875D01*
X114261071Y-116173626D01*
X114684320Y-115540189D01*
X114832945Y-114793000D01*
X114684320Y-114045811D01*
X114261071Y-113412374D01*
X113627634Y-112989125D01*
X112880445Y-112840500D01*
X111274555Y-112840500D01*
X110527366Y-112989125D01*
X109893929Y-113412374D01*
X109470680Y-114045811D01*
X109322055Y-114793000D01*
X41027500Y-114793000D01*
X41027500Y-111549000D01*
X92924840Y-111549000D01*
X92924840Y-113749000D01*
X92991257Y-114101975D01*
X93199865Y-114426162D01*
X93518164Y-114643646D01*
X93896000Y-114720160D01*
X96096000Y-114720160D01*
X96448975Y-114653743D01*
X96773162Y-114445135D01*
X96990646Y-114126836D01*
X97067160Y-113749000D01*
X97067160Y-112481789D01*
X98087000Y-112481789D01*
X98087000Y-112562211D01*
X98243237Y-113347669D01*
X98688163Y-114013548D01*
X99354042Y-114458474D01*
X100139500Y-114614711D01*
X100924958Y-114458474D01*
X101590837Y-114013548D01*
X102005340Y-113393200D01*
X102005340Y-113558500D01*
X102071757Y-113911475D01*
X102280365Y-114235662D01*
X102598664Y-114453146D01*
X102976500Y-114529660D01*
X105176500Y-114529660D01*
X105529475Y-114463243D01*
X105853662Y-114254635D01*
X106071146Y-113936336D01*
X106147660Y-113558500D01*
X106147660Y-111358500D01*
X106081243Y-111005525D01*
X105872635Y-110681338D01*
X105554336Y-110463854D01*
X105176500Y-110387340D01*
X102976500Y-110387340D01*
X102623525Y-110453757D01*
X102299338Y-110662365D01*
X102081854Y-110980664D01*
X102005340Y-111358500D01*
X102005340Y-111650800D01*
X101590837Y-111030452D01*
X100924958Y-110585526D01*
X100139500Y-110429289D01*
X99354042Y-110585526D01*
X98688163Y-111030452D01*
X98243237Y-111696331D01*
X98087000Y-112481789D01*
X97067160Y-112481789D01*
X97067160Y-111549000D01*
X97000743Y-111196025D01*
X96792135Y-110871838D01*
X96473836Y-110654354D01*
X96096000Y-110577840D01*
X93896000Y-110577840D01*
X93543025Y-110644257D01*
X93218838Y-110852865D01*
X93001354Y-111171164D01*
X92924840Y-111549000D01*
X41027500Y-111549000D01*
X41027500Y-102806500D01*
X101730687Y-102806500D01*
X101867894Y-103496287D01*
X102062132Y-103786985D01*
X102041338Y-103800365D01*
X101823854Y-104118664D01*
X101747340Y-104496500D01*
X101747340Y-106196500D01*
X101813757Y-106549475D01*
X102022365Y-106873662D01*
X102340664Y-107091146D01*
X102718500Y-107167660D01*
X104418500Y-107167660D01*
X104771475Y-107101243D01*
X105095662Y-106892635D01*
X105313146Y-106574336D01*
X105389660Y-106196500D01*
X105389660Y-104496500D01*
X105323243Y-104143525D01*
X105114635Y-103819338D01*
X105072491Y-103790542D01*
X105269106Y-103496287D01*
X105289651Y-103393000D01*
X109322055Y-103393000D01*
X109470680Y-104140189D01*
X109893929Y-104773626D01*
X110527366Y-105196875D01*
X110759252Y-105243000D01*
X110527366Y-105289125D01*
X109893929Y-105712374D01*
X109470680Y-106345811D01*
X109322055Y-107093000D01*
X109470680Y-107840189D01*
X109893929Y-108473626D01*
X110527366Y-108896875D01*
X110884936Y-108968000D01*
X110527366Y-109039125D01*
X109893929Y-109462374D01*
X109470680Y-110095811D01*
X109322055Y-110843000D01*
X109470680Y-111590189D01*
X109893929Y-112223626D01*
X110527366Y-112646875D01*
X111274555Y-112795500D01*
X112880445Y-112795500D01*
X113627634Y-112646875D01*
X114261071Y-112223626D01*
X114684320Y-111590189D01*
X114832945Y-110843000D01*
X114684320Y-110095811D01*
X114261071Y-109462374D01*
X113627634Y-109039125D01*
X113270064Y-108968000D01*
X113627634Y-108896875D01*
X114169649Y-108534712D01*
X119348989Y-108534712D01*
X119797533Y-109620272D01*
X120627359Y-110451548D01*
X121712135Y-110901986D01*
X122886712Y-110903011D01*
X123972272Y-110454467D01*
X124803548Y-109624641D01*
X125253986Y-108539865D01*
X125255011Y-107365288D01*
X124806467Y-106279728D01*
X123976641Y-105448452D01*
X122891865Y-104998014D01*
X121717288Y-104996989D01*
X120631728Y-105445533D01*
X119800452Y-106275359D01*
X119350014Y-107360135D01*
X119348989Y-108534712D01*
X114169649Y-108534712D01*
X114261071Y-108473626D01*
X114684320Y-107840189D01*
X114832945Y-107093000D01*
X114684320Y-106345811D01*
X114261071Y-105712374D01*
X113627634Y-105289125D01*
X113395748Y-105243000D01*
X113627634Y-105196875D01*
X114261071Y-104773626D01*
X114684320Y-104140189D01*
X114832945Y-103393000D01*
X114684320Y-102645811D01*
X114261071Y-102012374D01*
X113627634Y-101589125D01*
X112880445Y-101440500D01*
X111274555Y-101440500D01*
X110527366Y-101589125D01*
X109893929Y-102012374D01*
X109470680Y-102645811D01*
X109322055Y-103393000D01*
X105289651Y-103393000D01*
X105406313Y-102806500D01*
X105269106Y-102116713D01*
X104878373Y-101531940D01*
X104293600Y-101141207D01*
X103603813Y-101004000D01*
X103533187Y-101004000D01*
X102843400Y-101141207D01*
X102258627Y-101531940D01*
X101867894Y-102116713D01*
X101730687Y-102806500D01*
X41027500Y-102806500D01*
X41027500Y-98097989D01*
X41833411Y-98903900D01*
X42106689Y-98630622D01*
X42269961Y-98818283D01*
X43403485Y-98904324D01*
X43836039Y-98818283D01*
X44108864Y-98504705D01*
X43053000Y-97448841D01*
X42921125Y-97580717D01*
X41484284Y-96143876D01*
X41616159Y-96012000D01*
X44489841Y-96012000D01*
X45545705Y-97067864D01*
X45859283Y-96795039D01*
X45893027Y-96350485D01*
X134107676Y-96350485D01*
X134193717Y-96783039D01*
X134507295Y-97055864D01*
X135563159Y-96000000D01*
X134507295Y-94944136D01*
X134193717Y-95216961D01*
X134107676Y-96350485D01*
X45893027Y-96350485D01*
X45945324Y-95661515D01*
X45859283Y-95228961D01*
X45545705Y-94956136D01*
X44489841Y-96012000D01*
X41616159Y-96012000D01*
X41484284Y-95880125D01*
X42921125Y-94443284D01*
X43053000Y-94575159D01*
X44108864Y-93519295D01*
X43836039Y-93205717D01*
X42702515Y-93119676D01*
X42269961Y-93205717D01*
X42106689Y-93393378D01*
X41833411Y-93120100D01*
X41027500Y-93926011D01*
X41027500Y-87138989D01*
X41780411Y-87891900D01*
X42053689Y-87618622D01*
X42216961Y-87806283D01*
X43350485Y-87892324D01*
X43783039Y-87806283D01*
X44000181Y-87556705D01*
X89952136Y-87556705D01*
X90224961Y-87870283D01*
X91358485Y-87956324D01*
X91791039Y-87870283D01*
X92041242Y-87582705D01*
X102703136Y-87582705D01*
X102975961Y-87896283D01*
X104109485Y-87982324D01*
X104542039Y-87896283D01*
X104814864Y-87582705D01*
X104788864Y-87556705D01*
X114452136Y-87556705D01*
X114724961Y-87870283D01*
X115858485Y-87956324D01*
X116291039Y-87870283D01*
X116563864Y-87556705D01*
X115508000Y-86500841D01*
X114452136Y-87556705D01*
X104788864Y-87556705D01*
X103759000Y-86526841D01*
X102703136Y-87582705D01*
X92041242Y-87582705D01*
X92063864Y-87556705D01*
X91008000Y-86500841D01*
X89952136Y-87556705D01*
X44000181Y-87556705D01*
X44055864Y-87492705D01*
X43000000Y-86436841D01*
X42868125Y-86568717D01*
X41431284Y-85131876D01*
X41563159Y-85000000D01*
X44436841Y-85000000D01*
X45492705Y-86055864D01*
X45806283Y-85783039D01*
X45892324Y-84649515D01*
X45806283Y-84216961D01*
X45492705Y-83944136D01*
X44436841Y-85000000D01*
X41563159Y-85000000D01*
X41431284Y-84868125D01*
X42868125Y-83431284D01*
X43000000Y-83563159D01*
X44055864Y-82507295D01*
X43783039Y-82193717D01*
X42649515Y-82107676D01*
X42216961Y-82193717D01*
X42053689Y-82381378D01*
X41780411Y-82108100D01*
X41027500Y-82861011D01*
X41027500Y-78882574D01*
X45556153Y-78882574D01*
X45860373Y-79618843D01*
X46423194Y-80182647D01*
X47158931Y-80488151D01*
X47955574Y-80488847D01*
X48691843Y-80184627D01*
X49255647Y-79621806D01*
X49509690Y-79010000D01*
X54162840Y-79010000D01*
X54162840Y-81010000D01*
X54229257Y-81362975D01*
X54437865Y-81687162D01*
X54514181Y-81739307D01*
X54433394Y-81860213D01*
X54296187Y-82550000D01*
X54433394Y-83239787D01*
X54824127Y-83824560D01*
X55408900Y-84215293D01*
X56098687Y-84352500D01*
X56169313Y-84352500D01*
X56859100Y-84215293D01*
X57443873Y-83824560D01*
X57687979Y-83459230D01*
X57908461Y-83789205D01*
X58081118Y-83904571D01*
X57781461Y-84104795D01*
X57401567Y-84673347D01*
X57268166Y-85344000D01*
X57401567Y-86014653D01*
X57781461Y-86583205D01*
X58350013Y-86963099D01*
X59020666Y-87096500D01*
X59089334Y-87096500D01*
X59759987Y-86963099D01*
X60328539Y-86583205D01*
X60708433Y-86014653D01*
X60841834Y-85344000D01*
X60708433Y-84673347D01*
X60622007Y-84544000D01*
X64903840Y-84544000D01*
X64903840Y-86144000D01*
X64970257Y-86496975D01*
X65178865Y-86821162D01*
X65497164Y-87038646D01*
X65875000Y-87115160D01*
X67475000Y-87115160D01*
X67827975Y-87048743D01*
X68152162Y-86840135D01*
X68186607Y-86789723D01*
X68256013Y-86836099D01*
X68926666Y-86969500D01*
X68995334Y-86969500D01*
X69665987Y-86836099D01*
X70234539Y-86456205D01*
X70614433Y-85887653D01*
X70678798Y-85564065D01*
X74828196Y-85564065D01*
X75094436Y-86208415D01*
X75586992Y-86701831D01*
X76230877Y-86969196D01*
X76928065Y-86969804D01*
X77572415Y-86703564D01*
X77934361Y-86342249D01*
X78227440Y-86780873D01*
X78812213Y-87171606D01*
X79502000Y-87308813D01*
X80191787Y-87171606D01*
X80601447Y-86897880D01*
X80724392Y-87020825D01*
X81027798Y-87146500D01*
X81410625Y-87146500D01*
X81617000Y-86940125D01*
X81617000Y-85896000D01*
X82467000Y-85896000D01*
X82467000Y-86940125D01*
X82673375Y-87146500D01*
X83056202Y-87146500D01*
X83359608Y-87020825D01*
X83591825Y-86788608D01*
X83717500Y-86485202D01*
X83717500Y-86102375D01*
X83511125Y-85896000D01*
X82467000Y-85896000D01*
X81617000Y-85896000D01*
X81226987Y-85896000D01*
X81304500Y-85506313D01*
X81304500Y-85435687D01*
X81300283Y-85414485D01*
X88115676Y-85414485D01*
X88201717Y-85847039D01*
X88515295Y-86119864D01*
X89571159Y-85064000D01*
X92444841Y-85064000D01*
X93500705Y-86119864D01*
X93814283Y-85847039D01*
X93845142Y-85440485D01*
X100866676Y-85440485D01*
X100952717Y-85873039D01*
X101266295Y-86145864D01*
X102322159Y-85090000D01*
X105195841Y-85090000D01*
X106251705Y-86145864D01*
X106565283Y-85873039D01*
X106600089Y-85414485D01*
X112615676Y-85414485D01*
X112701717Y-85847039D01*
X113015295Y-86119864D01*
X114071159Y-85064000D01*
X116944841Y-85064000D01*
X118000705Y-86119864D01*
X118314283Y-85847039D01*
X118400324Y-84713515D01*
X118314283Y-84280961D01*
X118000705Y-84008136D01*
X116944841Y-85064000D01*
X114071159Y-85064000D01*
X113015295Y-84008136D01*
X112701717Y-84280961D01*
X112615676Y-85414485D01*
X106600089Y-85414485D01*
X106651324Y-84739515D01*
X106565283Y-84306961D01*
X106251705Y-84034136D01*
X105195841Y-85090000D01*
X102322159Y-85090000D01*
X101266295Y-84034136D01*
X100952717Y-84306961D01*
X100866676Y-85440485D01*
X93845142Y-85440485D01*
X93900324Y-84713515D01*
X93814283Y-84280961D01*
X93500705Y-84008136D01*
X92444841Y-85064000D01*
X89571159Y-85064000D01*
X88515295Y-84008136D01*
X88201717Y-84280961D01*
X88115676Y-85414485D01*
X81300283Y-85414485D01*
X81226987Y-85046000D01*
X81617000Y-85046000D01*
X81617000Y-84621000D01*
X82467000Y-84621000D01*
X82467000Y-85046000D01*
X83511125Y-85046000D01*
X83717500Y-84839625D01*
X83717500Y-84456798D01*
X83591825Y-84153392D01*
X83359608Y-83921175D01*
X83224502Y-83865212D01*
X83224502Y-83795500D01*
X82673796Y-83795500D01*
X82705391Y-83692076D01*
X82002000Y-82988685D01*
X81298609Y-83692076D01*
X81330204Y-83795500D01*
X80859498Y-83795500D01*
X80859498Y-83865212D01*
X80724392Y-83921175D01*
X80601447Y-84044120D01*
X80435737Y-83933396D01*
X80493415Y-83909564D01*
X80986831Y-83417008D01*
X81254196Y-82773123D01*
X81254343Y-82604972D01*
X81436315Y-82423000D01*
X82567685Y-82423000D01*
X83271076Y-83126391D01*
X83538298Y-83044758D01*
X83628476Y-82571295D01*
X89952136Y-82571295D01*
X91008000Y-83627159D01*
X91754447Y-82880712D01*
X94455989Y-82880712D01*
X94904533Y-83966272D01*
X95734359Y-84797548D01*
X96819135Y-85247986D01*
X97993712Y-85249011D01*
X99079272Y-84800467D01*
X99910548Y-83970641D01*
X100360986Y-82885865D01*
X100361237Y-82597295D01*
X102703136Y-82597295D01*
X103759000Y-83653159D01*
X104658447Y-82753712D01*
X106774989Y-82753712D01*
X107223533Y-83839272D01*
X108053359Y-84670548D01*
X109138135Y-85120986D01*
X110312712Y-85122011D01*
X111398272Y-84673467D01*
X112229548Y-83843641D01*
X112679986Y-82758865D01*
X112680149Y-82571295D01*
X114452136Y-82571295D01*
X115508000Y-83627159D01*
X115699467Y-83435692D01*
X127849076Y-83435692D01*
X128221660Y-84337415D01*
X128910957Y-85027916D01*
X129812027Y-85402073D01*
X130787692Y-85402924D01*
X130914604Y-85350485D01*
X134107676Y-85350485D01*
X134193717Y-85783039D01*
X134507295Y-86055864D01*
X135563159Y-85000000D01*
X134507295Y-83944136D01*
X134193717Y-84216961D01*
X134107676Y-85350485D01*
X130914604Y-85350485D01*
X131689415Y-85030340D01*
X132379916Y-84341043D01*
X132754073Y-83439973D01*
X132754924Y-82464308D01*
X132382340Y-81562585D01*
X131693043Y-80872084D01*
X130791973Y-80497927D01*
X129816308Y-80497076D01*
X128914585Y-80869660D01*
X128224084Y-81558957D01*
X127849927Y-82460027D01*
X127849076Y-83435692D01*
X115699467Y-83435692D01*
X116563864Y-82571295D01*
X116291039Y-82257717D01*
X115157515Y-82171676D01*
X114724961Y-82257717D01*
X114452136Y-82571295D01*
X112680149Y-82571295D01*
X112681011Y-81584288D01*
X112232467Y-80498728D01*
X111402641Y-79667452D01*
X110317865Y-79217014D01*
X109143288Y-79215989D01*
X108057728Y-79664533D01*
X107226452Y-80494359D01*
X106776014Y-81579135D01*
X106774989Y-82753712D01*
X104658447Y-82753712D01*
X104814864Y-82597295D01*
X104542039Y-82283717D01*
X103408515Y-82197676D01*
X102975961Y-82283717D01*
X102703136Y-82597295D01*
X100361237Y-82597295D01*
X100362011Y-81711288D01*
X99913467Y-80625728D01*
X99083641Y-79794452D01*
X97998865Y-79344014D01*
X96824288Y-79342989D01*
X95738728Y-79791533D01*
X94907452Y-80621359D01*
X94457014Y-81706135D01*
X94455989Y-82880712D01*
X91754447Y-82880712D01*
X92063864Y-82571295D01*
X91791039Y-82257717D01*
X90657515Y-82171676D01*
X90224961Y-82257717D01*
X89952136Y-82571295D01*
X83628476Y-82571295D01*
X83659290Y-82409514D01*
X83538298Y-81801242D01*
X83271076Y-81719609D01*
X82567685Y-82423000D01*
X81436315Y-82423000D01*
X81254660Y-82241345D01*
X81254804Y-82075935D01*
X80988564Y-81431585D01*
X80711387Y-81153924D01*
X81298609Y-81153924D01*
X82002000Y-81857315D01*
X82705391Y-81153924D01*
X82623758Y-80886702D01*
X81988514Y-80765710D01*
X81380242Y-80886702D01*
X81298609Y-81153924D01*
X80711387Y-81153924D01*
X80496008Y-80938169D01*
X79852123Y-80670804D01*
X79154935Y-80670196D01*
X78510585Y-80936436D01*
X78017169Y-81428992D01*
X77839273Y-81857412D01*
X77146685Y-82550000D01*
X77850076Y-83253391D01*
X77937826Y-83226584D01*
X78015436Y-83414415D01*
X78507992Y-83907831D01*
X78568760Y-83933064D01*
X78227440Y-84161127D01*
X78112196Y-84333602D01*
X78067564Y-84225585D01*
X77575008Y-83732169D01*
X76931123Y-83464804D01*
X76930118Y-83464803D01*
X76581000Y-83115685D01*
X76231471Y-83465214D01*
X75589585Y-83730436D01*
X75096169Y-84222992D01*
X74828804Y-84866877D01*
X74828196Y-85564065D01*
X70678798Y-85564065D01*
X70747834Y-85217000D01*
X70614433Y-84546347D01*
X70234539Y-83977795D01*
X70093416Y-83883500D01*
X70234539Y-83789205D01*
X70614433Y-83220653D01*
X70745151Y-82563486D01*
X74923710Y-82563486D01*
X75044702Y-83171758D01*
X75311924Y-83253391D01*
X76015315Y-82550000D01*
X75311924Y-81846609D01*
X75044702Y-81928242D01*
X74923710Y-82563486D01*
X70745151Y-82563486D01*
X70747834Y-82550000D01*
X70614433Y-81879347D01*
X70234539Y-81310795D01*
X70189834Y-81280924D01*
X75877609Y-81280924D01*
X76581000Y-81984315D01*
X77284391Y-81280924D01*
X77202758Y-81013702D01*
X76567514Y-80892710D01*
X75959242Y-81013702D01*
X75877609Y-81280924D01*
X70189834Y-81280924D01*
X69665987Y-80930901D01*
X68995334Y-80797500D01*
X68926666Y-80797500D01*
X68256013Y-80930901D01*
X68172283Y-80986847D01*
X67979836Y-80855354D01*
X67602000Y-80778840D01*
X66002000Y-80778840D01*
X65649025Y-80845257D01*
X65324838Y-81053865D01*
X65107354Y-81372164D01*
X65030840Y-81750000D01*
X65030840Y-83350000D01*
X65097257Y-83702975D01*
X65194054Y-83853403D01*
X64980354Y-84166164D01*
X64903840Y-84544000D01*
X60622007Y-84544000D01*
X60328539Y-84104795D01*
X60155882Y-83989429D01*
X60455539Y-83789205D01*
X60835433Y-83220653D01*
X60968834Y-82550000D01*
X60835433Y-81879347D01*
X60455539Y-81310795D01*
X59886987Y-80930901D01*
X59216334Y-80797500D01*
X59147666Y-80797500D01*
X58477013Y-80930901D01*
X58065496Y-81205868D01*
X58105160Y-81010000D01*
X58105160Y-79010000D01*
X58055811Y-78747732D01*
X87554902Y-78747732D01*
X88079407Y-80017129D01*
X89049763Y-80989180D01*
X90318243Y-81515899D01*
X91691732Y-81517098D01*
X92961129Y-80992593D01*
X93933180Y-80022237D01*
X94329359Y-79068132D01*
X100280502Y-79068132D01*
X100805007Y-80337529D01*
X101775363Y-81309580D01*
X103043843Y-81836299D01*
X104417332Y-81837498D01*
X105686729Y-81312993D01*
X106658780Y-80342637D01*
X107185499Y-79074157D01*
X107185783Y-78747732D01*
X112054902Y-78747732D01*
X112579407Y-80017129D01*
X113549763Y-80989180D01*
X114818243Y-81515899D01*
X116191732Y-81517098D01*
X117461129Y-80992593D01*
X118397492Y-80057863D01*
X118779692Y-80440731D01*
X119423577Y-80708096D01*
X120120765Y-80708704D01*
X120765115Y-80442464D01*
X121258531Y-79949908D01*
X121525896Y-79306023D01*
X121526504Y-78608835D01*
X121260264Y-77964485D01*
X120804311Y-77507736D01*
X121258531Y-77054308D01*
X121525896Y-76410423D01*
X121525898Y-76407365D01*
X123020896Y-76407365D01*
X123287136Y-77051715D01*
X123743089Y-77508464D01*
X123288869Y-77961892D01*
X123021504Y-78605777D01*
X123020896Y-79302965D01*
X123287136Y-79947315D01*
X123779692Y-80440731D01*
X124423577Y-80708096D01*
X125120765Y-80708704D01*
X125765115Y-80442464D01*
X126258531Y-79949908D01*
X126525896Y-79306023D01*
X126526504Y-78608835D01*
X126260264Y-77964485D01*
X125804311Y-77507736D01*
X126258531Y-77054308D01*
X126525896Y-76410423D01*
X126526504Y-75713235D01*
X126260264Y-75068885D01*
X125767708Y-74575469D01*
X125123823Y-74308104D01*
X124426635Y-74307496D01*
X123782285Y-74573736D01*
X123288869Y-75066292D01*
X123021504Y-75710177D01*
X123020896Y-76407365D01*
X121525898Y-76407365D01*
X121526504Y-75713235D01*
X121260264Y-75068885D01*
X120767708Y-74575469D01*
X120123823Y-74308104D01*
X119426635Y-74307496D01*
X118782285Y-74573736D01*
X118288869Y-75066292D01*
X118025938Y-75699499D01*
X117466237Y-75138820D01*
X116197757Y-74612101D01*
X114824268Y-74610902D01*
X113554871Y-75135407D01*
X112582820Y-76105763D01*
X112056101Y-77374243D01*
X112054902Y-78747732D01*
X107185783Y-78747732D01*
X107186698Y-77700668D01*
X106662193Y-76431271D01*
X105691837Y-75459220D01*
X104423357Y-74932501D01*
X103049868Y-74931302D01*
X101780471Y-75455807D01*
X100808420Y-76426163D01*
X100281701Y-77694643D01*
X100280502Y-79068132D01*
X94329359Y-79068132D01*
X94459899Y-78753757D01*
X94461098Y-77380268D01*
X93936593Y-76110871D01*
X92966237Y-75138820D01*
X91697757Y-74612101D01*
X90324268Y-74610902D01*
X89054871Y-75135407D01*
X88082820Y-76105763D01*
X87556101Y-77374243D01*
X87554902Y-78747732D01*
X58055811Y-78747732D01*
X58038743Y-78657025D01*
X57830135Y-78332838D01*
X57511836Y-78115354D01*
X57134000Y-78038840D01*
X55134000Y-78038840D01*
X54781025Y-78105257D01*
X54456838Y-78313865D01*
X54239354Y-78632164D01*
X54162840Y-79010000D01*
X49509690Y-79010000D01*
X49561151Y-78886069D01*
X49561487Y-78501026D01*
X50115186Y-78562251D01*
X50626352Y-78460574D01*
X50816524Y-78166185D01*
X49911000Y-77260660D01*
X49591034Y-77580626D01*
X49175342Y-77164934D01*
X51950396Y-77164934D01*
X52024272Y-77430089D01*
X52639001Y-77552366D01*
X53253728Y-77430089D01*
X53327604Y-77164934D01*
X52639000Y-76476330D01*
X51950396Y-77164934D01*
X49175342Y-77164934D01*
X48530374Y-76519966D01*
X48850340Y-76200000D01*
X47944815Y-75294476D01*
X47650426Y-75484648D01*
X47548749Y-76404186D01*
X47564526Y-76483504D01*
X47162426Y-76483153D01*
X46426157Y-76787373D01*
X45862353Y-77350194D01*
X45556849Y-78085931D01*
X45556153Y-78882574D01*
X41027500Y-78882574D01*
X41027500Y-68722574D01*
X45556153Y-68722574D01*
X45860373Y-69458843D01*
X46423194Y-70022647D01*
X47158931Y-70328151D01*
X47439840Y-70328396D01*
X47439840Y-72620000D01*
X47506257Y-72972975D01*
X47714865Y-73297162D01*
X48033164Y-73514646D01*
X48411000Y-73591160D01*
X50936338Y-73591160D01*
X50936205Y-73743162D01*
X51033132Y-73977744D01*
X50747039Y-73691651D01*
X50511917Y-73926773D01*
X49706814Y-73837749D01*
X49195648Y-73939426D01*
X49005476Y-74233815D01*
X49911000Y-75139340D01*
X50230966Y-74819374D01*
X51086548Y-75674956D01*
X51032634Y-75946001D01*
X51064659Y-76107001D01*
X50971660Y-76200000D01*
X51110843Y-76339183D01*
X51154911Y-76560728D01*
X51400934Y-76629274D01*
X51877185Y-77105524D01*
X52171574Y-76915352D01*
X52273251Y-75995814D01*
X52263343Y-75946000D01*
X53169330Y-75946000D01*
X53857934Y-76634604D01*
X54123089Y-76560728D01*
X54245366Y-75945999D01*
X54123089Y-75331272D01*
X53857934Y-75257396D01*
X53169330Y-75946000D01*
X52263343Y-75946000D01*
X52192659Y-75590651D01*
X52419349Y-75363961D01*
X52067535Y-75012147D01*
X52298866Y-75108204D01*
X52331563Y-75108233D01*
X52639000Y-75415670D01*
X52945901Y-75108769D01*
X52976162Y-75108795D01*
X53602129Y-74850151D01*
X54081468Y-74371648D01*
X54341204Y-73746134D01*
X54341428Y-73489162D01*
X125617205Y-73489162D01*
X125875849Y-74115129D01*
X126354352Y-74594468D01*
X126979866Y-74854204D01*
X127576840Y-74854725D01*
X127576840Y-76938000D01*
X127643257Y-77290975D01*
X127851865Y-77615162D01*
X128170164Y-77832646D01*
X128548000Y-77909160D01*
X130397782Y-77909160D01*
X130397153Y-78628574D01*
X130701373Y-79364843D01*
X131264194Y-79928647D01*
X131999931Y-80234151D01*
X132796574Y-80234847D01*
X133532843Y-79930627D01*
X134096647Y-79367806D01*
X134402151Y-78632069D01*
X134402847Y-77835426D01*
X134098627Y-77099157D01*
X133535806Y-76535353D01*
X132800069Y-76229849D01*
X132519160Y-76229604D01*
X132519160Y-73938000D01*
X132452743Y-73585025D01*
X132244135Y-73260838D01*
X131925836Y-73043354D01*
X131548000Y-72966840D01*
X129022662Y-72966840D01*
X129022795Y-72814838D01*
X128925868Y-72580256D01*
X129211961Y-72866349D01*
X129447083Y-72631227D01*
X130252186Y-72720251D01*
X130763352Y-72618574D01*
X130953524Y-72324185D01*
X130048000Y-71418660D01*
X129728034Y-71738626D01*
X128872452Y-70883044D01*
X128926366Y-70611999D01*
X128894341Y-70450999D01*
X128987340Y-70358000D01*
X128848157Y-70218817D01*
X128804089Y-69997272D01*
X128558066Y-69928726D01*
X128081815Y-69452476D01*
X127787426Y-69642648D01*
X127685749Y-70562186D01*
X127766341Y-70967349D01*
X127539651Y-71194039D01*
X127891465Y-71545853D01*
X127660134Y-71449796D01*
X127627437Y-71449767D01*
X127320000Y-71142330D01*
X127013099Y-71449231D01*
X126982838Y-71449205D01*
X126356871Y-71707849D01*
X125877532Y-72186352D01*
X125617796Y-72811866D01*
X125617205Y-73489162D01*
X54341428Y-73489162D01*
X54341795Y-73068838D01*
X54083151Y-72442871D01*
X53604648Y-71963532D01*
X52979134Y-71703796D01*
X52382160Y-71703275D01*
X52382160Y-70612001D01*
X125713634Y-70612001D01*
X125835911Y-71226728D01*
X126101066Y-71300604D01*
X126789670Y-70612000D01*
X126101066Y-69923396D01*
X125835911Y-69997272D01*
X125713634Y-70612001D01*
X52382160Y-70612001D01*
X52382160Y-69620000D01*
X52339460Y-69393066D01*
X126631396Y-69393066D01*
X127320000Y-70081670D01*
X128008604Y-69393066D01*
X127934728Y-69127911D01*
X127319999Y-69005634D01*
X126705272Y-69127911D01*
X126631396Y-69393066D01*
X52339460Y-69393066D01*
X52315743Y-69267025D01*
X52107135Y-68942838D01*
X51788836Y-68725354D01*
X51411000Y-68648840D01*
X49561218Y-68648840D01*
X49561442Y-68391815D01*
X129142476Y-68391815D01*
X130048000Y-69297340D01*
X130367966Y-68977374D01*
X131428626Y-70038034D01*
X131108660Y-70358000D01*
X132014185Y-71263524D01*
X132308574Y-71073352D01*
X132410251Y-70153814D01*
X132394474Y-70074496D01*
X132796574Y-70074847D01*
X133532843Y-69770627D01*
X134096647Y-69207806D01*
X134402151Y-68472069D01*
X134402847Y-67675426D01*
X134098627Y-66939157D01*
X133535806Y-66375353D01*
X132800069Y-66069849D01*
X132003426Y-66069153D01*
X131267157Y-66373373D01*
X130703353Y-66936194D01*
X130397849Y-67671931D01*
X130397513Y-68056974D01*
X129843814Y-67995749D01*
X129332648Y-68097426D01*
X129142476Y-68391815D01*
X49561442Y-68391815D01*
X49561847Y-67929426D01*
X49257627Y-67193157D01*
X48694806Y-66629353D01*
X47959069Y-66323849D01*
X47162426Y-66323153D01*
X46426157Y-66627373D01*
X45862353Y-67190194D01*
X45556849Y-67925931D01*
X45556153Y-68722574D01*
X41027500Y-68722574D01*
X41027500Y-62245574D01*
X45683153Y-62245574D01*
X45987373Y-62981843D01*
X46550194Y-63545647D01*
X47285931Y-63851151D01*
X48082574Y-63851847D01*
X48818843Y-63547627D01*
X49183373Y-63183732D01*
X71546902Y-63183732D01*
X72071407Y-64453129D01*
X73041763Y-65425180D01*
X74310243Y-65951899D01*
X75683732Y-65953098D01*
X76953129Y-65428593D01*
X77925180Y-64458237D01*
X78376668Y-63370932D01*
X84024502Y-63370932D01*
X84549007Y-64640329D01*
X85519363Y-65612380D01*
X86787843Y-66139099D01*
X88161332Y-66140298D01*
X89430729Y-65615793D01*
X90402780Y-64645437D01*
X90929499Y-63376957D01*
X90929667Y-63183732D01*
X96546902Y-63183732D01*
X97071407Y-64453129D01*
X98041763Y-65425180D01*
X99310243Y-65951899D01*
X100683732Y-65953098D01*
X101953129Y-65428593D01*
X102925180Y-64458237D01*
X103451899Y-63189757D01*
X103453098Y-61816268D01*
X102928593Y-60546871D01*
X102390163Y-60007500D01*
X106606948Y-60007500D01*
X106755573Y-60754689D01*
X107178822Y-61388126D01*
X107812259Y-61811375D01*
X108559448Y-61960000D01*
X108635952Y-61960000D01*
X109383141Y-61811375D01*
X110016578Y-61388126D01*
X110439827Y-60754689D01*
X110588452Y-60007500D01*
X110439827Y-59260311D01*
X110200771Y-58902538D01*
X110207501Y-58892687D01*
X118974500Y-58892687D01*
X118974500Y-58963313D01*
X119111707Y-59653100D01*
X119502440Y-60237873D01*
X120087213Y-60628606D01*
X120777000Y-60765813D01*
X121466787Y-60628606D01*
X121757485Y-60434368D01*
X121770865Y-60455162D01*
X122089164Y-60672646D01*
X122467000Y-60749160D01*
X124167000Y-60749160D01*
X124519975Y-60682743D01*
X124844162Y-60474135D01*
X125061646Y-60155836D01*
X125138160Y-59778000D01*
X125138160Y-58078000D01*
X125071743Y-57725025D01*
X124863135Y-57400838D01*
X124617733Y-57233162D01*
X125744205Y-57233162D01*
X126002849Y-57859129D01*
X126481352Y-58338468D01*
X127106866Y-58598204D01*
X127703840Y-58598725D01*
X127703840Y-60682000D01*
X127770257Y-61034975D01*
X127978865Y-61359162D01*
X128297164Y-61576646D01*
X128675000Y-61653160D01*
X130524782Y-61653160D01*
X130524153Y-62372574D01*
X130828373Y-63108843D01*
X131391194Y-63672647D01*
X132126931Y-63978151D01*
X132923574Y-63978847D01*
X133659843Y-63674627D01*
X134223647Y-63111806D01*
X134529151Y-62376069D01*
X134529847Y-61579426D01*
X134225627Y-60843157D01*
X133662806Y-60279353D01*
X132927069Y-59973849D01*
X132646160Y-59973604D01*
X132646160Y-57682000D01*
X132579743Y-57329025D01*
X132371135Y-57004838D01*
X132052836Y-56787354D01*
X131675000Y-56710840D01*
X129149662Y-56710840D01*
X129149795Y-56558838D01*
X129052868Y-56324256D01*
X129338961Y-56610349D01*
X129574083Y-56375227D01*
X130379186Y-56464251D01*
X130890352Y-56362574D01*
X131080524Y-56068185D01*
X130175000Y-55162660D01*
X129855034Y-55482626D01*
X128999452Y-54627044D01*
X129053366Y-54355999D01*
X129021341Y-54194999D01*
X129114340Y-54102000D01*
X128975157Y-53962817D01*
X128931089Y-53741272D01*
X128685066Y-53672726D01*
X128208815Y-53196476D01*
X127914426Y-53386648D01*
X127812749Y-54306186D01*
X127893341Y-54711349D01*
X127666651Y-54938039D01*
X128018465Y-55289853D01*
X127787134Y-55193796D01*
X127754437Y-55193767D01*
X127447000Y-54886330D01*
X127140099Y-55193231D01*
X127109838Y-55193205D01*
X126483871Y-55451849D01*
X126004532Y-55930352D01*
X125744796Y-56555866D01*
X125744205Y-57233162D01*
X124617733Y-57233162D01*
X124544836Y-57183354D01*
X124167000Y-57106840D01*
X122467000Y-57106840D01*
X122114025Y-57173257D01*
X121789838Y-57381865D01*
X121761042Y-57424009D01*
X121466787Y-57227394D01*
X120777000Y-57090187D01*
X120087213Y-57227394D01*
X119502440Y-57618127D01*
X119111707Y-58202900D01*
X118974500Y-58892687D01*
X110207501Y-58892687D01*
X110342346Y-58695336D01*
X110418860Y-58317500D01*
X110418860Y-56617500D01*
X110352443Y-56264525D01*
X110143835Y-55940338D01*
X109825536Y-55722854D01*
X109447700Y-55646340D01*
X107747700Y-55646340D01*
X107394725Y-55712757D01*
X107070538Y-55921365D01*
X106853054Y-56239664D01*
X106776540Y-56617500D01*
X106776540Y-58317500D01*
X106842957Y-58670475D01*
X106993435Y-58904325D01*
X106755573Y-59260311D01*
X106606948Y-60007500D01*
X102390163Y-60007500D01*
X101958237Y-59574820D01*
X100689757Y-59048101D01*
X99316268Y-59046902D01*
X98046871Y-59571407D01*
X97074820Y-60541763D01*
X96548101Y-61810243D01*
X96546902Y-63183732D01*
X90929667Y-63183732D01*
X90930698Y-62003468D01*
X90406193Y-60734071D01*
X89435837Y-59762020D01*
X88167357Y-59235301D01*
X86793868Y-59234102D01*
X85524471Y-59758607D01*
X84552420Y-60728963D01*
X84025701Y-61997443D01*
X84024502Y-63370932D01*
X78376668Y-63370932D01*
X78451899Y-63189757D01*
X78453098Y-61816268D01*
X77928593Y-60546871D01*
X76958237Y-59574820D01*
X75689757Y-59048101D01*
X74316268Y-59046902D01*
X73046871Y-59571407D01*
X72074820Y-60541763D01*
X71548101Y-61810243D01*
X71546902Y-63183732D01*
X49183373Y-63183732D01*
X49382647Y-62984806D01*
X49688151Y-62249069D01*
X49688487Y-61864026D01*
X50242186Y-61925251D01*
X50753352Y-61823574D01*
X50943524Y-61529185D01*
X50038000Y-60623660D01*
X49718034Y-60943626D01*
X49302342Y-60527934D01*
X52077396Y-60527934D01*
X52151272Y-60793089D01*
X52766001Y-60915366D01*
X53380728Y-60793089D01*
X53454604Y-60527934D01*
X52962357Y-60035687D01*
X54649000Y-60035687D01*
X54649000Y-60106313D01*
X54786207Y-60796100D01*
X55176940Y-61380873D01*
X55761713Y-61771606D01*
X56451500Y-61908813D01*
X57141287Y-61771606D01*
X57431985Y-61577368D01*
X57445365Y-61598162D01*
X57763664Y-61815646D01*
X58141500Y-61892160D01*
X59841500Y-61892160D01*
X60194475Y-61825743D01*
X60518662Y-61617135D01*
X60736146Y-61298836D01*
X60812660Y-60921000D01*
X60812660Y-59956700D01*
X67897887Y-59956700D01*
X68035094Y-60646487D01*
X68425827Y-61231260D01*
X69010600Y-61621993D01*
X69700387Y-61759200D01*
X69771013Y-61759200D01*
X70460800Y-61621993D01*
X71045573Y-61231260D01*
X71436306Y-60646487D01*
X71573513Y-59956700D01*
X71436306Y-59266913D01*
X71242068Y-58976215D01*
X71262862Y-58962835D01*
X71364411Y-58814212D01*
X78263489Y-58814212D01*
X78712033Y-59899772D01*
X79541859Y-60731048D01*
X80626635Y-61181486D01*
X81801212Y-61182511D01*
X82886772Y-60733967D01*
X83718048Y-59904141D01*
X84168486Y-58819365D01*
X84168656Y-58623712D01*
X90899989Y-58623712D01*
X91348533Y-59709272D01*
X92178359Y-60540548D01*
X93263135Y-60990986D01*
X94437712Y-60992011D01*
X95523272Y-60543467D01*
X96354548Y-59713641D01*
X96804986Y-58628865D01*
X96805977Y-57492705D01*
X98944136Y-57492705D01*
X99216961Y-57806283D01*
X100350485Y-57892324D01*
X100783039Y-57806283D01*
X101055864Y-57492705D01*
X100000000Y-56436841D01*
X98944136Y-57492705D01*
X96805977Y-57492705D01*
X96806011Y-57454288D01*
X96357467Y-56368728D01*
X95527641Y-55537452D01*
X95077375Y-55350485D01*
X97107676Y-55350485D01*
X97193717Y-55783039D01*
X97507295Y-56055864D01*
X98563159Y-55000000D01*
X101436841Y-55000000D01*
X102492705Y-56055864D01*
X102806283Y-55783039D01*
X102892324Y-54649515D01*
X102806283Y-54216961D01*
X102492705Y-53944136D01*
X101436841Y-55000000D01*
X98563159Y-55000000D01*
X97507295Y-53944136D01*
X97193717Y-54216961D01*
X97107676Y-55350485D01*
X95077375Y-55350485D01*
X94442865Y-55087014D01*
X93268288Y-55085989D01*
X92182728Y-55534533D01*
X91351452Y-56364359D01*
X90901014Y-57449135D01*
X90899989Y-58623712D01*
X84168656Y-58623712D01*
X84169511Y-57644788D01*
X83720967Y-56559228D01*
X83198557Y-56035905D01*
X86269336Y-56035905D01*
X86542161Y-56349483D01*
X87675685Y-56435524D01*
X88108239Y-56349483D01*
X88381064Y-56035905D01*
X87325200Y-54980041D01*
X86269336Y-56035905D01*
X83198557Y-56035905D01*
X82891141Y-55727952D01*
X81806365Y-55277514D01*
X80631788Y-55276489D01*
X79546228Y-55725033D01*
X78714952Y-56554859D01*
X78264514Y-57639635D01*
X78263489Y-58814212D01*
X71364411Y-58814212D01*
X71480346Y-58644536D01*
X71556860Y-58266700D01*
X71556860Y-57492705D01*
X73944136Y-57492705D01*
X74216961Y-57806283D01*
X75350485Y-57892324D01*
X75783039Y-57806283D01*
X76055864Y-57492705D01*
X75000000Y-56436841D01*
X73944136Y-57492705D01*
X71556860Y-57492705D01*
X71556860Y-56566700D01*
X71490443Y-56213725D01*
X71281835Y-55889538D01*
X70963536Y-55672054D01*
X70585700Y-55595540D01*
X68885700Y-55595540D01*
X68532725Y-55661957D01*
X68208538Y-55870565D01*
X67991054Y-56188864D01*
X67914540Y-56566700D01*
X67914540Y-58266700D01*
X67980957Y-58619675D01*
X68189565Y-58943862D01*
X68231709Y-58972658D01*
X68035094Y-59266913D01*
X67897887Y-59956700D01*
X60812660Y-59956700D01*
X60812660Y-59221000D01*
X60746243Y-58868025D01*
X60537635Y-58543838D01*
X60219336Y-58326354D01*
X59841500Y-58249840D01*
X58141500Y-58249840D01*
X57788525Y-58316257D01*
X57464338Y-58524865D01*
X57435542Y-58567009D01*
X57141287Y-58370394D01*
X56451500Y-58233187D01*
X55761713Y-58370394D01*
X55176940Y-58761127D01*
X54786207Y-59345900D01*
X54649000Y-60035687D01*
X52962357Y-60035687D01*
X52766000Y-59839330D01*
X52077396Y-60527934D01*
X49302342Y-60527934D01*
X48657374Y-59882966D01*
X48977340Y-59563000D01*
X48071815Y-58657476D01*
X47777426Y-58847648D01*
X47675749Y-59767186D01*
X47691526Y-59846504D01*
X47289426Y-59846153D01*
X46553157Y-60150373D01*
X45989353Y-60713194D01*
X45683849Y-61448931D01*
X45683153Y-62245574D01*
X41027500Y-62245574D01*
X41027500Y-52085574D01*
X45683153Y-52085574D01*
X45987373Y-52821843D01*
X46550194Y-53385647D01*
X47285931Y-53691151D01*
X47566840Y-53691396D01*
X47566840Y-55983000D01*
X47633257Y-56335975D01*
X47841865Y-56660162D01*
X48160164Y-56877646D01*
X48538000Y-56954160D01*
X51063338Y-56954160D01*
X51063205Y-57106162D01*
X51160132Y-57340744D01*
X50874039Y-57054651D01*
X50638917Y-57289773D01*
X49833814Y-57200749D01*
X49322648Y-57302426D01*
X49132476Y-57596815D01*
X50038000Y-58502340D01*
X50357966Y-58182374D01*
X51213548Y-59037956D01*
X51159634Y-59309001D01*
X51191659Y-59470001D01*
X51098660Y-59563000D01*
X51237843Y-59702183D01*
X51281911Y-59923728D01*
X51527934Y-59992274D01*
X52004185Y-60468524D01*
X52298574Y-60278352D01*
X52400251Y-59358814D01*
X52390343Y-59309000D01*
X53296330Y-59309000D01*
X53984934Y-59997604D01*
X54250089Y-59923728D01*
X54372366Y-59308999D01*
X54250089Y-58694272D01*
X53984934Y-58620396D01*
X53296330Y-59309000D01*
X52390343Y-59309000D01*
X52319659Y-58953651D01*
X52546349Y-58726961D01*
X52194535Y-58375147D01*
X52425866Y-58471204D01*
X52458563Y-58471233D01*
X52766000Y-58778670D01*
X53072901Y-58471769D01*
X53103162Y-58471795D01*
X53729129Y-58213151D01*
X54208468Y-57734648D01*
X54468204Y-57109134D01*
X54468795Y-56431838D01*
X54210151Y-55805871D01*
X53777037Y-55372000D01*
X56709187Y-55372000D01*
X56846394Y-56061787D01*
X57237127Y-56646560D01*
X57821900Y-57037293D01*
X58511687Y-57174500D01*
X58582313Y-57174500D01*
X59272100Y-57037293D01*
X59856873Y-56646560D01*
X60247606Y-56061787D01*
X60381730Y-55387497D01*
X60606164Y-55540846D01*
X60984000Y-55617360D01*
X61016025Y-55617360D01*
X61244795Y-55959739D01*
X61813347Y-56339633D01*
X62484000Y-56473034D01*
X63154653Y-56339633D01*
X63441491Y-56147974D01*
X65460949Y-56167392D01*
X65775747Y-56377733D01*
X66446400Y-56511134D01*
X67117053Y-56377733D01*
X67685605Y-55997839D01*
X67914375Y-55655460D01*
X67946400Y-55655460D01*
X68299375Y-55589043D01*
X68623562Y-55380435D01*
X68644025Y-55350485D01*
X72107676Y-55350485D01*
X72193717Y-55783039D01*
X72507295Y-56055864D01*
X73563159Y-55000000D01*
X76436841Y-55000000D01*
X77492705Y-56055864D01*
X77806283Y-55783039D01*
X77892324Y-54649515D01*
X77806283Y-54216961D01*
X77492705Y-53944136D01*
X76436841Y-55000000D01*
X73563159Y-55000000D01*
X72507295Y-53944136D01*
X72193717Y-54216961D01*
X72107676Y-55350485D01*
X68644025Y-55350485D01*
X68841046Y-55062136D01*
X68917560Y-54684300D01*
X68917560Y-53893685D01*
X84432876Y-53893685D01*
X84518917Y-54326239D01*
X84832495Y-54599064D01*
X85888359Y-53543200D01*
X88762041Y-53543200D01*
X89817905Y-54599064D01*
X90131483Y-54326239D01*
X90217524Y-53192715D01*
X90131483Y-52760161D01*
X89840846Y-52507295D01*
X98944136Y-52507295D01*
X100000000Y-53563159D01*
X101055864Y-52507295D01*
X100783039Y-52193717D01*
X99649515Y-52107676D01*
X99216961Y-52193717D01*
X98944136Y-52507295D01*
X89840846Y-52507295D01*
X89817905Y-52487336D01*
X88762041Y-53543200D01*
X85888359Y-53543200D01*
X84832495Y-52487336D01*
X84518917Y-52760161D01*
X84432876Y-53893685D01*
X68917560Y-53893685D01*
X68917560Y-52507295D01*
X73944136Y-52507295D01*
X75000000Y-53563159D01*
X76055864Y-52507295D01*
X75783039Y-52193717D01*
X74649515Y-52107676D01*
X74216961Y-52193717D01*
X73944136Y-52507295D01*
X68917560Y-52507295D01*
X68917560Y-49684300D01*
X68910743Y-49648066D01*
X69570700Y-49648066D01*
X69570700Y-49716734D01*
X69704101Y-50387387D01*
X70083995Y-50955939D01*
X70652547Y-51335833D01*
X71323200Y-51469234D01*
X71993853Y-51335833D01*
X72562405Y-50955939D01*
X72942299Y-50387387D01*
X73043808Y-49877065D01*
X75717196Y-49877065D01*
X75983436Y-50521415D01*
X76475992Y-51014831D01*
X77119877Y-51282196D01*
X77817065Y-51282804D01*
X78461415Y-51016564D01*
X78954831Y-50524008D01*
X79127619Y-50107888D01*
X79152901Y-50234987D01*
X79532795Y-50803539D01*
X80101347Y-51183433D01*
X80772000Y-51316834D01*
X81442653Y-51183433D01*
X81641608Y-51050495D01*
X86269336Y-51050495D01*
X87325200Y-52106359D01*
X88381064Y-51050495D01*
X88108239Y-50736917D01*
X86974715Y-50650876D01*
X86542161Y-50736917D01*
X86269336Y-51050495D01*
X81641608Y-51050495D01*
X82011205Y-50803539D01*
X82391099Y-50234987D01*
X82418195Y-50098766D01*
X82571992Y-50252831D01*
X83215877Y-50520196D01*
X83913065Y-50520804D01*
X84557415Y-50254564D01*
X84775282Y-50037076D01*
X87862609Y-50037076D01*
X87944242Y-50304298D01*
X88579486Y-50425290D01*
X89187758Y-50304298D01*
X89269391Y-50037076D01*
X89800609Y-50037076D01*
X89882242Y-50304298D01*
X90517486Y-50425290D01*
X91125758Y-50304298D01*
X91207391Y-50037076D01*
X90504000Y-49333685D01*
X89800609Y-50037076D01*
X89269391Y-50037076D01*
X88566000Y-49333685D01*
X87862609Y-50037076D01*
X84775282Y-50037076D01*
X85050831Y-49762008D01*
X85318196Y-49118123D01*
X85318489Y-48781486D01*
X86908710Y-48781486D01*
X87029702Y-49389758D01*
X87296924Y-49471391D01*
X87986829Y-48781486D01*
X88846710Y-48781486D01*
X88967702Y-49389758D01*
X89234924Y-49471391D01*
X89535000Y-49171315D01*
X89835076Y-49471391D01*
X90102298Y-49389758D01*
X90220721Y-48768000D01*
X91069685Y-48768000D01*
X91773076Y-49471391D01*
X92040298Y-49389758D01*
X92092617Y-49115065D01*
X93751196Y-49115065D01*
X94017436Y-49759415D01*
X94509992Y-50252831D01*
X95153877Y-50520196D01*
X95851065Y-50520804D01*
X96495415Y-50254564D01*
X96651752Y-50098500D01*
X96678901Y-50234987D01*
X97058795Y-50803539D01*
X97627347Y-51183433D01*
X98298000Y-51316834D01*
X98968653Y-51183433D01*
X99537205Y-50803539D01*
X99808341Y-50397755D01*
X99859436Y-50521415D01*
X100351992Y-51014831D01*
X100995877Y-51282196D01*
X101693065Y-51282804D01*
X102337415Y-51016564D01*
X102830831Y-50524008D01*
X103098196Y-49880123D01*
X103098597Y-49419466D01*
X105994300Y-49419466D01*
X105994300Y-49488134D01*
X106127701Y-50158787D01*
X106507595Y-50727339D01*
X107076147Y-51107233D01*
X107746800Y-51240634D01*
X108417453Y-51107233D01*
X108552240Y-51017171D01*
X108552240Y-54074700D01*
X108618657Y-54427675D01*
X108827265Y-54751862D01*
X109145564Y-54969346D01*
X109314134Y-55003482D01*
X109642774Y-55495326D01*
X110276210Y-55918575D01*
X111023400Y-56067200D01*
X111406484Y-55991000D01*
X114947700Y-55991000D01*
X115694889Y-55842375D01*
X116328326Y-55419126D01*
X116654671Y-54930716D01*
X116800675Y-54903243D01*
X117124862Y-54694635D01*
X117136419Y-54677720D01*
X117234894Y-55172787D01*
X117625627Y-55757560D01*
X118210400Y-56148293D01*
X118900187Y-56285500D01*
X118970813Y-56285500D01*
X119660600Y-56148293D01*
X120245373Y-55757560D01*
X120636106Y-55172787D01*
X120773313Y-54483000D01*
X120748052Y-54356001D01*
X125840634Y-54356001D01*
X125962911Y-54970728D01*
X126228066Y-55044604D01*
X126916670Y-54356000D01*
X126228066Y-53667396D01*
X125962911Y-53741272D01*
X125840634Y-54356001D01*
X120748052Y-54356001D01*
X120636106Y-53793213D01*
X120557061Y-53674913D01*
X120612662Y-53639135D01*
X120830146Y-53320836D01*
X120867360Y-53137066D01*
X126758396Y-53137066D01*
X127447000Y-53825670D01*
X128135604Y-53137066D01*
X128061728Y-52871911D01*
X127446999Y-52749634D01*
X126832272Y-52871911D01*
X126758396Y-53137066D01*
X120867360Y-53137066D01*
X120906660Y-52943000D01*
X120906660Y-52135815D01*
X129269476Y-52135815D01*
X130175000Y-53041340D01*
X130494966Y-52721374D01*
X131555626Y-53782034D01*
X131235660Y-54102000D01*
X132141185Y-55007524D01*
X132435574Y-54817352D01*
X132537251Y-53897814D01*
X132521474Y-53818496D01*
X132923574Y-53818847D01*
X133659843Y-53514627D01*
X134223647Y-52951806D01*
X134529151Y-52216069D01*
X134529847Y-51419426D01*
X134225627Y-50683157D01*
X133662806Y-50119353D01*
X132927069Y-49813849D01*
X132130426Y-49813153D01*
X131394157Y-50117373D01*
X130830353Y-50680194D01*
X130524849Y-51415931D01*
X130524513Y-51800974D01*
X129970814Y-51739749D01*
X129459648Y-51841426D01*
X129269476Y-52135815D01*
X120906660Y-52135815D01*
X120906660Y-50943000D01*
X120840243Y-50590025D01*
X120631635Y-50265838D01*
X120313336Y-50048354D01*
X119935500Y-49971840D01*
X117935500Y-49971840D01*
X117582525Y-50038257D01*
X117418860Y-50143572D01*
X117418860Y-48998500D01*
X117352443Y-48645525D01*
X117143835Y-48321338D01*
X116825536Y-48103854D01*
X116447700Y-48027340D01*
X113447700Y-48027340D01*
X113094725Y-48093757D01*
X112930035Y-48199732D01*
X112901236Y-48180054D01*
X112523400Y-48103540D01*
X109523400Y-48103540D01*
X109170425Y-48169957D01*
X109036642Y-48256044D01*
X108986005Y-48180261D01*
X108417453Y-47800367D01*
X107746800Y-47666966D01*
X107076147Y-47800367D01*
X106507595Y-48180261D01*
X106127701Y-48748813D01*
X105994300Y-49419466D01*
X103098597Y-49419466D01*
X103098804Y-49182935D01*
X102832564Y-48538585D01*
X102473682Y-48179076D01*
X103944609Y-48179076D01*
X104026242Y-48446298D01*
X104661486Y-48567290D01*
X105269758Y-48446298D01*
X105351391Y-48179076D01*
X104648000Y-47475685D01*
X103944609Y-48179076D01*
X102473682Y-48179076D01*
X102340008Y-48045169D01*
X101696123Y-47777804D01*
X100998935Y-47777196D01*
X100354585Y-48043436D01*
X99861169Y-48535992D01*
X99808590Y-48662617D01*
X99537205Y-48256461D01*
X98968653Y-47876567D01*
X98298000Y-47743166D01*
X97627347Y-47876567D01*
X97160708Y-48188365D01*
X96990564Y-47776585D01*
X96498008Y-47283169D01*
X95854123Y-47015804D01*
X95156935Y-47015196D01*
X94512585Y-47281436D01*
X94019169Y-47773992D01*
X93751804Y-48417877D01*
X93751196Y-49115065D01*
X92092617Y-49115065D01*
X92161290Y-48754514D01*
X92040298Y-48146242D01*
X91773076Y-48064609D01*
X91069685Y-48768000D01*
X90220721Y-48768000D01*
X90223290Y-48754514D01*
X90102298Y-48146242D01*
X89835076Y-48064609D01*
X89535000Y-48364685D01*
X89234924Y-48064609D01*
X88967702Y-48146242D01*
X88846710Y-48781486D01*
X87986829Y-48781486D01*
X88000315Y-48768000D01*
X87296924Y-48064609D01*
X87029702Y-48146242D01*
X86908710Y-48781486D01*
X85318489Y-48781486D01*
X85318804Y-48420935D01*
X85052564Y-47776585D01*
X84775387Y-47498924D01*
X87862609Y-47498924D01*
X88566000Y-48202315D01*
X89269391Y-47498924D01*
X89800609Y-47498924D01*
X90504000Y-48202315D01*
X91207391Y-47498924D01*
X91125758Y-47231702D01*
X90490514Y-47110710D01*
X89882242Y-47231702D01*
X89800609Y-47498924D01*
X89269391Y-47498924D01*
X89187758Y-47231702D01*
X88552514Y-47110710D01*
X87944242Y-47231702D01*
X87862609Y-47498924D01*
X84775387Y-47498924D01*
X84560008Y-47283169D01*
X83916123Y-47015804D01*
X83218935Y-47015196D01*
X82574585Y-47281436D01*
X82081169Y-47773992D01*
X81909146Y-48188268D01*
X81442653Y-47876567D01*
X80772000Y-47743166D01*
X80101347Y-47876567D01*
X79532795Y-48256461D01*
X79152901Y-48825013D01*
X79127558Y-48952422D01*
X78956564Y-48538585D01*
X78464008Y-48045169D01*
X77820123Y-47777804D01*
X77122935Y-47777196D01*
X76478585Y-48043436D01*
X75985169Y-48535992D01*
X75717804Y-49179877D01*
X75717196Y-49877065D01*
X73043808Y-49877065D01*
X73075700Y-49716734D01*
X73075700Y-49648066D01*
X72942299Y-48977413D01*
X72562405Y-48408861D01*
X72218508Y-48179076D01*
X73464609Y-48179076D01*
X73546242Y-48446298D01*
X74181486Y-48567290D01*
X74789758Y-48446298D01*
X74871391Y-48179076D01*
X74168000Y-47475685D01*
X73464609Y-48179076D01*
X72218508Y-48179076D01*
X71993853Y-48028967D01*
X71323200Y-47895566D01*
X70652547Y-48028967D01*
X70083995Y-48408861D01*
X69704101Y-48977413D01*
X69570700Y-49648066D01*
X68910743Y-49648066D01*
X68851143Y-49331325D01*
X68642535Y-49007138D01*
X68324236Y-48789654D01*
X67946400Y-48713140D01*
X64946400Y-48713140D01*
X64593425Y-48779557D01*
X64495264Y-48842721D01*
X64361836Y-48751554D01*
X63984000Y-48675040D01*
X60984000Y-48675040D01*
X60631025Y-48741457D01*
X60306838Y-48950065D01*
X60089354Y-49268364D01*
X60012840Y-49646200D01*
X60012840Y-51249975D01*
X59774836Y-51087354D01*
X59397000Y-51010840D01*
X57697000Y-51010840D01*
X57344025Y-51077257D01*
X57019838Y-51285865D01*
X56802354Y-51604164D01*
X56725840Y-51982000D01*
X56725840Y-53682000D01*
X56792257Y-54034975D01*
X57000865Y-54359162D01*
X57043009Y-54387958D01*
X56846394Y-54682213D01*
X56709187Y-55372000D01*
X53777037Y-55372000D01*
X53731648Y-55326532D01*
X53106134Y-55066796D01*
X52509160Y-55066275D01*
X52509160Y-52983000D01*
X52442743Y-52630025D01*
X52234135Y-52305838D01*
X51915836Y-52088354D01*
X51538000Y-52011840D01*
X49688218Y-52011840D01*
X49688847Y-51292426D01*
X49384627Y-50556157D01*
X48821806Y-49992353D01*
X48086069Y-49686849D01*
X47289426Y-49686153D01*
X46553157Y-49990373D01*
X45989353Y-50553194D01*
X45683849Y-51288931D01*
X45683153Y-52085574D01*
X41027500Y-52085574D01*
X41027500Y-45813807D01*
X41443002Y-46229309D01*
X41745545Y-45926765D01*
X42088818Y-46265924D01*
X43407993Y-46366014D01*
X43911182Y-46265924D01*
X44254456Y-45926764D01*
X44242767Y-45915075D01*
X60158500Y-45915075D01*
X60158500Y-47190402D01*
X60284175Y-47493808D01*
X60516392Y-47726025D01*
X60819798Y-47851700D01*
X61527625Y-47851700D01*
X61734000Y-47645325D01*
X61734000Y-45708700D01*
X63234000Y-45708700D01*
X63234000Y-47645325D01*
X63440375Y-47851700D01*
X64148202Y-47851700D01*
X64443889Y-47729222D01*
X64478792Y-47764125D01*
X64782198Y-47889800D01*
X65490025Y-47889800D01*
X65696400Y-47683425D01*
X65696400Y-45746800D01*
X67196400Y-45746800D01*
X67196400Y-47683425D01*
X67402775Y-47889800D01*
X68110602Y-47889800D01*
X68414008Y-47764125D01*
X68646225Y-47531908D01*
X68771900Y-47228502D01*
X68771900Y-46923486D01*
X72510710Y-46923486D01*
X72631702Y-47531758D01*
X72898924Y-47613391D01*
X73602315Y-46910000D01*
X74733685Y-46910000D01*
X75437076Y-47613391D01*
X75704298Y-47531758D01*
X75820152Y-46923486D01*
X102990710Y-46923486D01*
X103111702Y-47531758D01*
X103378924Y-47613391D01*
X104082315Y-46910000D01*
X105213685Y-46910000D01*
X105917076Y-47613391D01*
X106184298Y-47531758D01*
X106305290Y-46896514D01*
X106184298Y-46288242D01*
X105917076Y-46206609D01*
X105213685Y-46910000D01*
X104082315Y-46910000D01*
X103378924Y-46206609D01*
X103111702Y-46288242D01*
X102990710Y-46923486D01*
X75820152Y-46923486D01*
X75825290Y-46896514D01*
X75704298Y-46288242D01*
X75437076Y-46206609D01*
X74733685Y-46910000D01*
X73602315Y-46910000D01*
X72898924Y-46206609D01*
X72631702Y-46288242D01*
X72510710Y-46923486D01*
X68771900Y-46923486D01*
X68771900Y-45953175D01*
X68565525Y-45746800D01*
X67196400Y-45746800D01*
X65696400Y-45746800D01*
X64641225Y-45746800D01*
X64603125Y-45708700D01*
X63234000Y-45708700D01*
X61734000Y-45708700D01*
X60364875Y-45708700D01*
X60158500Y-45915075D01*
X44242767Y-45915075D01*
X43968616Y-45640924D01*
X73464609Y-45640924D01*
X74168000Y-46344315D01*
X74871391Y-45640924D01*
X103944609Y-45640924D01*
X104648000Y-46344315D01*
X105351391Y-45640924D01*
X105269758Y-45373702D01*
X105111583Y-45343575D01*
X108697900Y-45343575D01*
X108697900Y-46618902D01*
X108823575Y-46922308D01*
X109055792Y-47154525D01*
X109359198Y-47280200D01*
X110067025Y-47280200D01*
X110273400Y-47073825D01*
X110273400Y-45137200D01*
X111773400Y-45137200D01*
X111773400Y-47073825D01*
X111979775Y-47280200D01*
X112687602Y-47280200D01*
X112991008Y-47154525D01*
X113041692Y-47103841D01*
X113283498Y-47204000D01*
X113991325Y-47204000D01*
X114197700Y-46997625D01*
X114197700Y-45061000D01*
X115697700Y-45061000D01*
X115697700Y-46997625D01*
X115904075Y-47204000D01*
X116611902Y-47204000D01*
X116915308Y-47078325D01*
X117147525Y-46846108D01*
X117273200Y-46542702D01*
X117273200Y-45267375D01*
X117066825Y-45061000D01*
X115697700Y-45061000D01*
X114197700Y-45061000D01*
X112828575Y-45061000D01*
X112752375Y-45137200D01*
X111773400Y-45137200D01*
X110273400Y-45137200D01*
X108904275Y-45137200D01*
X108697900Y-45343575D01*
X105111583Y-45343575D01*
X104634514Y-45252710D01*
X104026242Y-45373702D01*
X103944609Y-45640924D01*
X74871391Y-45640924D01*
X74789758Y-45373702D01*
X74154514Y-45252710D01*
X73546242Y-45373702D01*
X73464609Y-45640924D01*
X43968616Y-45640924D01*
X43000000Y-44672308D01*
X42985858Y-44686450D01*
X41313550Y-43014142D01*
X41327692Y-43000000D01*
X41313550Y-42985858D01*
X42960908Y-41338500D01*
X43039092Y-41338500D01*
X44686450Y-42985858D01*
M02*
