M48
;DRILL file {KiCad 4.0.7} date 02/18/19 10:55:46
;FORMAT={-:-/ absolute / metric / decimal}
FMAT,2
METRIC,TZ
T1C0.800
T2C0.900
T3C1.000
T4C1.500
T5C1.520
T6C3.048
%
G90
G05
M71
T1
X43.565Y-100.686
X45.822Y-104.115
X48.543Y-107.239
X48.565Y-100.686
X50.673Y-96.584
X50.673Y-100.584
X53.442Y-104.115
X53.543Y-107.239
X55.816Y-106.934
X55.944Y-104.013
X60.38Y-127.183
X62.53Y-129.957
X62.53Y-137.577
X63.373Y-96.584
X63.373Y-100.584
X63.436Y-106.934
X63.563Y-104.013
X64.Y-42.
X64.Y-54.7
X65.324Y-130.256
X65.38Y-127.183
X65.38Y-136.962
X65.491Y-133.386
X68.Y-42.
X68.Y-54.7
X70.38Y-136.962
X71.374Y-41.91
X71.374Y-49.53
X72.944Y-130.256
X73.111Y-133.386
X74.168Y-41.91
X74.168Y-46.91
X75.275Y-133.045
X75.311Y-128.971
X76.454Y-97.79
X77.47Y-41.91
X77.47Y-49.53
X77.47Y-102.616
X77.47Y-107.616
X78.947Y-94.742
X80.518Y-100.203
X80.518Y-107.823
X80.772Y-41.91
X80.772Y-49.53
X83.566Y-48.768
X83.566Y-100.33
X83.566Y-107.95
X83.947Y-94.742
X84.074Y-97.79
X87.005Y-95.275
X87.005Y-107.975
X87.975Y-133.045
X88.011Y-128.971
X88.566Y-48.768
X90.504Y-48.768
X91.084Y-95.499
X91.084Y-108.199
X95.504Y-48.768
X98.298Y-41.91
X98.298Y-49.53
X101.346Y-41.91
X101.346Y-49.53
X104.648Y-41.91
X104.648Y-46.91
X107.696Y-41.91
X107.696Y-49.53
X111.Y-42.
X111.Y-54.7
X115.Y-42.
X115.Y-54.7
T2
X52.512Y-122.11
X52.512Y-124.65
X52.639Y-57.404
X52.639Y-59.944
X52.639Y-73.406
X52.639Y-75.946
X127.264Y-105.197
X127.264Y-107.737
X127.32Y-70.612
X127.32Y-73.152
X127.447Y-54.356
X127.447Y-56.896
T3
X42.636Y-104.358
X42.636Y-106.898
X60.198Y-93.091
X60.452Y-50.851
X60.452Y-53.391
X62.738Y-93.091
X75.214Y-137.074
X77.754Y-137.074
X86.106Y-42.672
X87.122Y-92.71
X88.646Y-42.672
X89.662Y-92.71
X91.186Y-42.672
X104.521Y-101.473
X104.521Y-104.013
X106.02Y-119.736
X106.172Y-124.523
X108.56Y-119.736
X108.712Y-124.523
X118.923Y-53.188
X118.923Y-55.728
T4
X44.196Y-76.581
X44.196Y-124.841
X44.247Y-119.405
X44.259Y-70.485
X44.45Y-54.356
X44.501Y-60.096
X57.277Y-112.141
X57.277Y-120.015
X66.421Y-119.761
X75.Y-55.
X75.Y-62.5
X75.184Y-119.888
X82.677Y-113.03
X82.931Y-119.634
X87.325Y-53.543
X87.478Y-62.687
X91.008Y-78.064
X91.008Y-85.064
X100.Y-55.
X100.Y-62.5
X103.213Y-134.874
X103.734Y-78.384
X103.886Y-85.446
X109.22Y-134.62
X111.76Y-100.965
X111.887Y-94.424
X113.233Y-128.067
X115.508Y-78.064
X115.508Y-85.064
X117.043Y-111.455
X117.196Y-121.971
X117.538Y-94.297
X117.856Y-101.092
X121.056Y-127.965
X129.083Y-119.215
X131.572Y-128.016
X135.445Y-75.629
X135.453Y-105.166
X135.509Y-54.229
X135.522Y-70.447
X135.537Y-110.475
X135.636Y-59.69
T5
X51.308Y-44.958
X52.832Y-85.09
X53.137Y-134.518
X56.388Y-44.958
X57.912Y-85.09
X58.217Y-134.518
X67.691Y-94.615
X72.771Y-94.615
X101.092Y-94.361
X106.172Y-94.361
X115.9Y-134.683
X120.98Y-134.683
X121.92Y-44.958
X123.383Y-95.22
X124.206Y-85.344
X126.06Y-134.683
X127.Y-44.958
X128.463Y-95.22
X129.286Y-85.344
T6
X45.Y-45.
X45.Y-85.
X45.Y-95.
X45.Y-135.
X135.Y-45.
X135.Y-85.
X135.Y-95.
X135.Y-135.
T0
M30
