M48
;DRILL file {KiCad 4.0.7} date 02/23/19 14:20:12
;FORMAT={-:-/ absolute / metric / decimal}
FMAT,2
METRIC,TZ
T1C0.400
T2C0.800
T3C0.900
T4C1.000
T5C1.100
T6C1.500
T7C1.520
T8C3.048
%
G90
G05
M71
T1
X47.816Y-70.447
X51.054Y-70.447
X52.654Y-70.447
X53.645Y-103.441
X55.702Y-70.523
X56.807Y-70.561
X58.064Y-102.489
X58.674Y-127.787
X59.245Y-102.527
X60.084Y-127.711
X60.236Y-70.447
X61.112Y-127.673
X61.646Y-70.371
X63.094Y-102.375
X63.322Y-127.711
X64.351Y-127.711
X64.77Y-102.375
X65.646Y-70.333
X66.789Y-127.825
X67.208Y-70.333
X67.78Y-127.787
X68.732Y-102.375
X70.256Y-127.825
X70.447Y-102.451
X71.171Y-128.397
X71.285Y-70.218
X72.695Y-70.485
X74.181Y-128.397
X74.549Y-102.375
X75.476Y-128.359
X75.997Y-102.425
X78.486Y-128.321
X78.735Y-70.409
X79.629Y-128.422
X80.02Y-70.353
X80.467Y-102.21
X82.309Y-102.146
X82.677Y-128.46
X83.718Y-128.448
X84.658Y-70.353
X87.312Y-128.397
X87.452Y-102.032
X88.29Y-128.384
X89.129Y-101.981
X89.911Y-70.353
X92.824Y-128.397
X94.145Y-128.448
X94.325Y-70.297
X94.602Y-101.752
X95.667Y-70.353
X97.117Y-101.587
X98.247Y-127.864
X99.276Y-127.787
X101.199Y-70.353
X102.425Y-101.651
X103.569Y-101.79
X103.848Y-126.911
X105.093Y-126.403
X106.116Y-70.409
X109.385Y-125.92
X109.525Y-101.524
X110.401Y-125.882
X111.214Y-70.409
X111.658Y-101.524
X113.703Y-70.409
X114.236Y-125.781
X115.291Y-125.806
X116.903Y-101.613
X118.77Y-101.613
X120.015Y-70.498
X120.371Y-125.87
X122.149Y-70.498
X124.282Y-101.968
T2
X57.937Y-130.785
X57.937Y-138.405
X61.265Y-130.81
X61.265Y-138.43
X64.Y-42.
X64.Y-54.7
X64.364Y-130.861
X64.364Y-138.481
X67.335Y-133.405
X67.335Y-138.405
X68.Y-42.
X68.Y-54.7
X70.637Y-130.785
X70.637Y-138.405
X71.374Y-41.91
X71.374Y-49.53
X73.99Y-130.658
X73.99Y-138.278
X74.168Y-41.91
X74.168Y-46.91
X77.292Y-133.405
X77.292Y-138.405
X77.47Y-41.91
X77.47Y-49.53
X80.772Y-41.91
X80.772Y-49.53
X83.566Y-48.768
X88.566Y-48.768
X90.504Y-48.768
X94.831Y-132.74
X94.831Y-137.74
X95.504Y-48.768
X98.298Y-41.91
X98.298Y-49.53
X100.051Y-131.902
X100.051Y-134.442
X100.051Y-136.982
X101.346Y-41.91
X101.346Y-49.53
X104.648Y-41.91
X104.648Y-46.91
X106.159Y-128.905
X107.213Y-132.207
X107.213Y-137.207
X107.696Y-41.91
X107.696Y-49.53
X110.414Y-133.862
X110.414Y-138.862
X111.Y-42.
X111.Y-54.7
X113.386Y-131.293
X113.386Y-138.913
X113.779Y-128.905
X115.Y-42.
X115.Y-54.7
X116.319Y-128.626
X116.383Y-131.293
X116.383Y-138.913
X119.38Y-133.989
X119.38Y-138.989
X121.319Y-128.626
X122.225Y-131.42
X122.225Y-139.04
X124.943Y-131.394
X124.943Y-139.014
X127.864Y-131.394
X127.864Y-139.014
T3
X52.639Y-57.404
X52.639Y-59.944
X52.639Y-73.406
X52.639Y-75.946
X52.791Y-106.045
X52.791Y-108.585
X52.918Y-122.682
X52.918Y-125.222
X126.99Y-120.117
X126.99Y-122.657
X127.218Y-103.886
X127.218Y-106.426
X127.32Y-70.612
X127.32Y-73.152
X127.447Y-54.356
X127.447Y-56.896
T4
X56.5Y-125.46
X56.5Y-128.
X60.452Y-50.851
X60.452Y-53.391
X82.639Y-136.741
X85.179Y-136.741
X86.106Y-42.672
X87.719Y-136.741
X88.646Y-42.672
X90.259Y-136.741
X91.186Y-42.672
X118.923Y-53.188
X118.923Y-55.728
X124.Y-125.96
X124.Y-128.5
T5
X104.102Y-129.921
X104.102Y-137.541
T6
X44.196Y-76.581
X44.259Y-70.485
X44.45Y-54.356
X44.501Y-60.096
X48.006Y-106.02
X48.323Y-122.618
X67.5Y-114.5
X67.5Y-122.5
X75.Y-55.
X75.Y-62.5
X75.5Y-114.5
X75.5Y-122.5
X83.5Y-114.5
X83.5Y-122.5
X87.325Y-53.543
X87.478Y-62.687
X91.008Y-78.064
X91.008Y-85.064
X98.Y-107.
X98.Y-115.
X100.Y-55.
X100.Y-62.5
X103.734Y-78.384
X103.886Y-85.446
X107.Y-107.
X107.Y-115.
X115.Y-106.5
X115.Y-115.
X115.508Y-78.064
X115.508Y-85.064
X131.572Y-123.571
X131.826Y-106.489
X135.445Y-75.629
X135.509Y-54.229
X135.522Y-70.447
X135.636Y-59.69
T7
X51.308Y-44.958
X52.832Y-85.09
X56.388Y-44.958
X57.912Y-85.09
X121.92Y-44.958
X124.206Y-85.344
X127.Y-44.958
X129.286Y-85.344
T8
X45.Y-45.
X45.Y-85.
X45.Y-95.
X45.Y-135.
X135.Y-45.
X135.Y-85.
X135.Y-95.
X135.Y-135.
T0
M30
