G04 #@! TF.FileFunction,Copper,L1,Top,Signal*
%FSLAX46Y46*%
G04 Gerber Fmt 4.6, Leading zero omitted, Abs format (unit mm)*
G04 Created by KiCad (PCBNEW 4.0.7) date 03/22/19 00:10:14*
%MOMM*%
%LPD*%
G01*
G04 APERTURE LIST*
%ADD10C,0.100000*%
%ADD11C,1.600000*%
%ADD12R,1.600000X1.600000*%
%ADD13O,1.600000X1.600000*%
%ADD14R,1.700000X1.700000*%
%ADD15O,1.700000X1.700000*%
%ADD16C,1.000000*%
%ADD17R,1.000000X1.000000*%
%ADD18C,2.500000*%
%ADD19C,2.000000*%
%ADD20C,4.064000*%
%ADD21C,0.500000*%
%ADD22C,0.350000*%
G04 APERTURE END LIST*
D10*
D11*
X161290000Y-80772000D03*
X158790000Y-80772000D03*
D12*
X149987000Y-44958000D03*
D13*
X149987000Y-52578000D03*
D12*
X153035000Y-44958000D03*
D13*
X153035000Y-52578000D03*
D12*
X138557000Y-44958000D03*
D13*
X138557000Y-52578000D03*
D12*
X135509000Y-44958000D03*
D13*
X135509000Y-52578000D03*
D12*
X124460000Y-44958000D03*
D13*
X124460000Y-52578000D03*
D12*
X121539000Y-44958000D03*
D13*
X121539000Y-52578000D03*
D14*
X154432000Y-80772000D03*
D15*
X151892000Y-80772000D03*
X154432000Y-78232000D03*
X151892000Y-78232000D03*
X154432000Y-75692000D03*
X151892000Y-75692000D03*
X154432000Y-73152000D03*
X151892000Y-73152000D03*
X154432000Y-70612000D03*
X151892000Y-70612000D03*
D16*
X132029200Y-82245200D03*
X133299200Y-83515200D03*
D17*
X130759200Y-83515200D03*
D11*
X144145000Y-69557900D03*
D13*
X144145000Y-77177900D03*
D11*
X146850100Y-69570600D03*
D13*
X146850100Y-77190600D03*
D11*
X143510000Y-82423000D03*
D13*
X135890000Y-82423000D03*
D11*
X143560800Y-85054440D03*
D13*
X135940800Y-85054440D03*
D18*
X161500000Y-71960000D03*
X164000000Y-77000000D03*
X159000000Y-77000000D03*
D19*
X132000000Y-45500000D03*
X127500000Y-45500000D03*
X132000000Y-52000000D03*
X127500000Y-52000000D03*
X132000000Y-35500000D03*
X127500000Y-35500000D03*
X132000000Y-42000000D03*
X127500000Y-42000000D03*
X146500000Y-45500000D03*
X142000000Y-45500000D03*
X146500000Y-52000000D03*
X142000000Y-52000000D03*
X146500000Y-35500000D03*
X142000000Y-35500000D03*
X146500000Y-42000000D03*
X142000000Y-42000000D03*
X160500000Y-45500000D03*
X156000000Y-45500000D03*
X160500000Y-52000000D03*
X156000000Y-52000000D03*
X160500000Y-35500000D03*
X156000000Y-35500000D03*
X160500000Y-42000000D03*
X156000000Y-42000000D03*
D12*
X121793000Y-78613000D03*
D13*
X139573000Y-70993000D03*
X124333000Y-78613000D03*
X137033000Y-70993000D03*
X126873000Y-78613000D03*
X134493000Y-70993000D03*
X129413000Y-78613000D03*
X131953000Y-70993000D03*
X131953000Y-78613000D03*
X129413000Y-70993000D03*
X134493000Y-78613000D03*
X126873000Y-70993000D03*
X137033000Y-78613000D03*
X124333000Y-70993000D03*
X139573000Y-78613000D03*
X121793000Y-70993000D03*
D14*
X160020000Y-65024000D03*
D15*
X157480000Y-65024000D03*
X154940000Y-65024000D03*
X152400000Y-65024000D03*
X149860000Y-65024000D03*
X147320000Y-65024000D03*
X144780000Y-65024000D03*
X142240000Y-65024000D03*
X139700000Y-65024000D03*
X137160000Y-65024000D03*
X134620000Y-65024000D03*
X132080000Y-65024000D03*
X129540000Y-65024000D03*
X127000000Y-65024000D03*
X124460000Y-65024000D03*
X121920000Y-65024000D03*
D14*
X120904000Y-85598000D03*
D15*
X120904000Y-83058000D03*
D14*
X124206000Y-85598000D03*
D15*
X124206000Y-83058000D03*
D14*
X127254000Y-85598000D03*
D15*
X127254000Y-83058000D03*
D20*
X115000000Y-39000000D03*
X166000000Y-39000000D03*
X166000000Y-84000000D03*
X115000000Y-84000000D03*
D14*
X146558000Y-81661000D03*
D15*
X146558000Y-84201000D03*
D21*
X146558000Y-81661000D02*
X147193000Y-81661000D01*
X147193000Y-81661000D02*
X148590000Y-83058000D01*
X148590000Y-83058000D02*
X152146000Y-83058000D01*
X152146000Y-83058000D02*
X154432000Y-80772000D01*
X139573000Y-81026000D02*
X139573000Y-84074000D01*
X128397000Y-86741000D02*
X127254000Y-85598000D01*
X136906000Y-86741000D02*
X128397000Y-86741000D01*
X139573000Y-84074000D02*
X136906000Y-86741000D01*
X158790000Y-80772000D02*
X158877000Y-80772000D01*
X158877000Y-80772000D02*
X162649000Y-77000000D01*
X162649000Y-77000000D02*
X164000000Y-77000000D01*
X139573000Y-78613000D02*
X139664440Y-78613000D01*
X139664440Y-78613000D02*
X142768320Y-75509120D01*
X142768320Y-75509120D02*
X151709120Y-75509120D01*
X151709120Y-75509120D02*
X151892000Y-75692000D01*
X154432000Y-80772000D02*
X158739200Y-80822800D01*
X158739200Y-80822800D02*
X158790000Y-80772000D01*
X154432000Y-80772000D02*
X155270200Y-80772000D01*
X130759200Y-83515200D02*
X130759200Y-84175600D01*
X130759200Y-84175600D02*
X130200400Y-84734400D01*
X127254000Y-85598000D02*
X128778000Y-84836000D01*
X128778000Y-84836000D02*
X128828800Y-84734400D01*
X128828800Y-84734400D02*
X130200400Y-84734400D01*
X139573000Y-81026000D02*
X139573000Y-78613000D01*
X151892000Y-73152000D02*
X151892000Y-75692000D01*
X151892000Y-70612000D02*
X151892000Y-73152000D01*
D22*
X124206000Y-85598000D02*
X127254000Y-85598000D01*
X120904000Y-85598000D02*
X124206000Y-85598000D01*
D21*
X164000000Y-77000000D02*
X164000000Y-67000000D01*
X164000000Y-67000000D02*
X160020000Y-65024000D01*
X151587200Y-77927200D02*
X151892000Y-78232000D01*
D22*
X160500000Y-42000000D02*
X160500000Y-35500000D01*
X150000000Y-45000000D02*
X150364600Y-45000000D01*
X150364600Y-45000000D02*
X151612600Y-43752000D01*
X151612600Y-43752000D02*
X158748000Y-43752000D01*
X158748000Y-43752000D02*
X160500000Y-42000000D01*
X149860000Y-65024000D02*
X149860000Y-61024000D01*
X149860000Y-61024000D02*
X149860000Y-52642000D01*
X153000000Y-45000000D02*
X153000000Y-46130000D01*
X158514200Y-47485800D02*
X160500000Y-45500000D01*
X154355800Y-47485800D02*
X158514200Y-47485800D01*
X153000000Y-46130000D02*
X154355800Y-47485800D01*
X160500000Y-45500000D02*
X160500000Y-52000000D01*
X152400000Y-60960000D02*
X152400000Y-65024000D01*
X152400000Y-61024000D02*
X152400000Y-60960000D01*
X152400000Y-60960000D02*
X152400000Y-53150000D01*
X152400000Y-53150000D02*
X152908000Y-52642000D01*
X146500000Y-42000000D02*
X146500000Y-35500000D01*
X138500000Y-45000000D02*
X138553600Y-45000000D01*
X138553600Y-45000000D02*
X139776200Y-43777400D01*
X139776200Y-43777400D02*
X144722600Y-43777400D01*
X144722600Y-43777400D02*
X146500000Y-42000000D01*
X138684000Y-45022000D02*
X138906000Y-45022000D01*
X138684000Y-55245000D02*
X138684000Y-56642000D01*
X134620000Y-60706000D02*
X134620000Y-65024000D01*
X138684000Y-56642000D02*
X134620000Y-60706000D01*
X138684000Y-55245000D02*
X138684000Y-52642000D01*
D21*
X139573000Y-70993000D02*
X139573000Y-70485000D01*
X139573000Y-70485000D02*
X134620000Y-65532000D01*
X134620000Y-65532000D02*
X134620000Y-65024000D01*
D22*
X146500000Y-45500000D02*
X146500000Y-52000000D01*
X135500000Y-45000000D02*
X135500000Y-46689400D01*
X144793600Y-47206400D02*
X146500000Y-45500000D01*
X136017000Y-47206400D02*
X144793600Y-47206400D01*
X135500000Y-46689400D02*
X136017000Y-47206400D01*
X146558000Y-45276000D02*
X146304000Y-45530000D01*
X135636000Y-55626000D02*
X135636000Y-56007000D01*
X132080000Y-59563000D02*
X132080000Y-65024000D01*
X135636000Y-56007000D02*
X132080000Y-59563000D01*
X135636000Y-55690000D02*
X135636000Y-55626000D01*
X135636000Y-55626000D02*
X135636000Y-52642000D01*
D21*
X137033000Y-70993000D02*
X137033000Y-70612000D01*
X137033000Y-70612000D02*
X132080000Y-65659000D01*
X132080000Y-65659000D02*
X132080000Y-65024000D01*
D22*
X132000000Y-42000000D02*
X132000000Y-35500000D01*
X124000000Y-45000000D02*
X124050200Y-45000000D01*
X124050200Y-45000000D02*
X125247400Y-43802800D01*
X130197200Y-43802800D02*
X132000000Y-42000000D01*
X125247400Y-43802800D02*
X130197200Y-43802800D01*
X124000000Y-45000000D02*
X124730000Y-45000000D01*
X129540000Y-65024000D02*
X129540000Y-58992000D01*
X129540000Y-58992000D02*
X124460000Y-53912000D01*
X124460000Y-53912000D02*
X124000000Y-52620000D01*
D21*
X134493000Y-70993000D02*
X134493000Y-70231000D01*
X134493000Y-70231000D02*
X129540000Y-65278000D01*
X129540000Y-65278000D02*
X129540000Y-65024000D01*
D22*
X132000000Y-45500000D02*
X132000000Y-52000000D01*
X121500000Y-45000000D02*
X121500000Y-45846600D01*
X130217400Y-47282600D02*
X132000000Y-45500000D01*
X122936000Y-47282600D02*
X130217400Y-47282600D01*
X121500000Y-45846600D02*
X122936000Y-47282600D01*
X121412000Y-45022000D02*
X121539000Y-45022000D01*
X132588000Y-45022000D02*
X132080000Y-45530000D01*
X127000000Y-65024000D02*
X127000000Y-58992000D01*
X127000000Y-58992000D02*
X121412000Y-53404000D01*
X121412000Y-52642000D02*
X121412000Y-53404000D01*
D21*
X131953000Y-70993000D02*
X127381000Y-66421000D01*
X127381000Y-66421000D02*
X127381000Y-65405000D01*
X127381000Y-65405000D02*
X127000000Y-65024000D01*
D22*
X144145000Y-77177900D02*
X144150080Y-77177900D01*
X144150080Y-77177900D02*
X146489420Y-79517240D01*
X152908000Y-79502000D02*
X154432000Y-78232000D01*
X146489420Y-79517240D02*
X152908000Y-79502000D01*
X146850100Y-77190600D02*
X149250400Y-77190600D01*
X153162000Y-74422000D02*
X154432000Y-73152000D01*
X153162000Y-76454000D02*
X153162000Y-74422000D01*
X152654000Y-76962000D02*
X153162000Y-76454000D01*
X149479000Y-76962000D02*
X152654000Y-76962000D01*
X149250400Y-77190600D02*
X149479000Y-76962000D01*
X124333000Y-70993000D02*
X124409200Y-70993000D01*
D21*
X143510000Y-82423000D02*
X143510000Y-85003640D01*
X143510000Y-85003640D02*
X143560800Y-85054440D01*
X144145000Y-69557900D02*
X144145000Y-70231000D01*
X144145000Y-70231000D02*
X141732000Y-72644000D01*
X123444000Y-72644000D02*
X121793000Y-70993000D01*
X141732000Y-72644000D02*
X123444000Y-72644000D01*
X154432000Y-70612000D02*
X154660600Y-70612000D01*
X156908500Y-72859900D02*
X159000000Y-77000000D01*
X154660600Y-70612000D02*
X156908500Y-72859900D01*
X154432000Y-70612000D02*
X155829000Y-68072000D01*
X155829000Y-68072000D02*
X157480000Y-65024000D01*
D22*
X137033000Y-78613000D02*
X137033000Y-81026000D01*
X137033000Y-81026000D02*
X135890000Y-82423000D01*
X155520000Y-45022000D02*
X156282000Y-45784000D01*
X154940000Y-65024000D02*
X154940000Y-64643000D01*
X154940000Y-64643000D02*
X156083000Y-63500000D01*
X158750000Y-69210000D02*
X161500000Y-71960000D01*
X158750000Y-64135000D02*
X158750000Y-69210000D01*
X158115000Y-63500000D02*
X158750000Y-64135000D01*
X156083000Y-63500000D02*
X158115000Y-63500000D01*
X154940000Y-65024000D02*
X154940000Y-64871600D01*
X160841500Y-71301500D02*
X161500000Y-71960000D01*
X134493000Y-78613000D02*
X134493000Y-77597000D01*
X148590000Y-66294000D02*
X147320000Y-65024000D01*
X148590000Y-72898000D02*
X148590000Y-66294000D01*
X147066000Y-74422000D02*
X148590000Y-72898000D01*
X141986000Y-74422000D02*
X147066000Y-74422000D01*
X139700000Y-76708000D02*
X141986000Y-74422000D01*
X135382000Y-76708000D02*
X139700000Y-76708000D01*
X134493000Y-77597000D02*
X135382000Y-76708000D01*
X134493000Y-78613000D02*
X134747000Y-78613000D01*
X121793000Y-78613000D02*
X121259600Y-82702400D01*
X121259600Y-82702400D02*
X120904000Y-83058000D01*
X124333000Y-78613000D02*
X124206000Y-83058000D01*
X126873000Y-78613000D02*
X126949200Y-82753200D01*
X126949200Y-82753200D02*
X127254000Y-83058000D01*
X133299200Y-83515200D02*
X133299200Y-81737200D01*
X120396000Y-66548000D02*
X121920000Y-65024000D01*
X120396000Y-66802000D02*
X120396000Y-66548000D01*
X118872000Y-68326000D02*
X120396000Y-66802000D01*
X118872000Y-83312000D02*
X118872000Y-68326000D01*
X119888000Y-84328000D02*
X118872000Y-83312000D01*
X128270000Y-84328000D02*
X119888000Y-84328000D01*
X129032000Y-83566000D02*
X128270000Y-84328000D01*
X129032000Y-83058000D02*
X129032000Y-83566000D01*
X131064000Y-81026000D02*
X129032000Y-83058000D01*
X132588000Y-81026000D02*
X131064000Y-81026000D01*
X133299200Y-81737200D02*
X132588000Y-81026000D01*
M02*
