M48
;DRILL file {KiCad 4.0.7} date 08/15/19 00:47:03
;FORMAT={-:-/ absolute / metric / decimal}
FMAT,2
METRIC,TZ
T1C0.600
T2C0.800
T3C1.000
T4C1.100
T5C1.200
T6C3.048
%
G90
G05
M71
T1
X130.81Y-84.836
X132.08Y-83.566
X133.35Y-84.836
T2
X114.681Y-45.466
X114.681Y-47.966
X115.189Y-77.256
X115.189Y-79.756
X117.538Y-68.048
X117.538Y-70.548
X121.539Y-44.958
X121.539Y-52.578
X121.793Y-70.993
X121.793Y-78.613
X124.333Y-70.993
X124.333Y-78.613
X124.46Y-44.958
X124.46Y-52.578
X126.873Y-70.993
X126.873Y-78.613
X129.413Y-70.993
X129.413Y-78.613
X131.953Y-70.993
X131.953Y-78.613
X134.493Y-70.993
X134.493Y-78.613
X135.509Y-44.958
X135.509Y-52.578
X135.89Y-83.058
X135.89Y-86.36
X137.033Y-70.993
X137.033Y-78.613
X138.557Y-44.958
X138.557Y-52.578
X139.573Y-70.993
X139.573Y-78.613
X143.51Y-83.058
X143.51Y-86.36
X144.145Y-69.558
X144.145Y-77.178
X146.85Y-69.571
X146.85Y-77.191
X149.987Y-44.958
X149.987Y-52.578
X153.035Y-44.958
X153.035Y-52.578
X160.338Y-82.463
X160.338Y-84.963
X165.989Y-44.704
X165.989Y-47.204
X167.132Y-77.129
X167.132Y-79.629
T3
X120.142Y-83.312
X120.142Y-85.852
X120.142Y-88.392
X121.92Y-65.024
X123.952Y-83.312
X123.952Y-85.852
X123.952Y-88.392
X124.46Y-65.024
X127.Y-65.024
X127.508Y-83.312
X127.508Y-85.852
X127.508Y-88.392
X129.54Y-65.024
X132.08Y-65.024
X134.62Y-65.024
X137.16Y-65.024
X139.7Y-65.024
X142.24Y-65.024
X144.78Y-65.024
X146.558Y-81.661
X146.558Y-84.201
X147.32Y-65.024
X149.86Y-65.024
X151.892Y-70.612
X151.892Y-73.152
X151.892Y-75.692
X151.892Y-78.232
X151.892Y-80.772
X152.4Y-65.024
X154.432Y-70.612
X154.432Y-73.152
X154.432Y-75.692
X154.432Y-78.232
X154.432Y-80.772
X154.94Y-65.024
X157.48Y-65.024
X160.02Y-65.024
T4
X127.5Y-35.5
X127.5Y-42.
X127.5Y-45.5
X127.5Y-52.
X132.Y-35.5
X132.Y-42.
X132.Y-45.5
X132.Y-52.
X142.Y-35.5
X142.Y-42.
X142.Y-45.5
X142.Y-52.
X146.5Y-35.5
X146.5Y-42.
X146.5Y-45.5
X146.5Y-52.
X156.Y-35.5
X156.Y-42.
X156.Y-45.5
X156.Y-52.
X160.5Y-35.5
X160.5Y-42.
X160.5Y-45.5
X160.5Y-52.
T5
X159.Y-77.
X161.5Y-71.96
X164.Y-77.
T6
X115.Y-39.
X115.Y-86.
X166.Y-39.
X166.Y-86.
T0
M30
