M48
;DRILL file {KiCad 4.0.7} date 10/17/18 23:12:52
;FORMAT={-:-/ absolute / metric / decimal}
FMAT,2
METRIC,TZ
T1C0.400
T2C0.800
T3C0.900
T4C1.000
T5C1.100
T6C1.200
T7C1.500
T8C1.520
T9C3.048
%
G90
G05
M71
T1
X56.261Y-132.918
X91.186Y-116.332
X100.94Y-119.786
X102.032Y-119.837
X110.871Y-116.268
X114.173Y-117.983
X120.396Y-135.382
X122.428Y-134.62
X126.492Y-133.858
X130.048Y-133.096
X132.842Y-132.334
X136.144Y-131.572
X142.24Y-130.81
X146.304Y-57.709
X146.558Y-116.383
T2
X54.157Y-123.027
X56.657Y-123.027
X59.639Y-127.61
X59.639Y-130.378
X59.665Y-145.633
X59.665Y-148.133
X59.69Y-139.994
X59.69Y-142.494
X59.984Y-54.356
X62.484Y-54.356
X67.259Y-127.61
X67.259Y-130.378
X69.926Y-127.726
X69.926Y-130.226
X71.247Y-110.084
X71.247Y-112.584
X72.085Y-57.506
X72.085Y-60.006
X73.025Y-127.762
X73.025Y-130.302
X73.025Y-132.842
X73.025Y-135.382
X73.025Y-137.922
X73.025Y-140.462
X73.025Y-143.002
X73.025Y-145.542
X73.025Y-148.082
X80.645Y-127.762
X80.645Y-130.302
X80.645Y-132.842
X80.645Y-135.382
X80.645Y-137.922
X80.645Y-140.462
X80.645Y-143.002
X80.645Y-145.542
X80.645Y-148.082
X83.566Y-135.382
X83.606Y-127.152
X83.693Y-137.922
X83.693Y-140.525
X83.693Y-148.272
X83.757Y-143.129
X83.757Y-145.796
X83.82Y-130.175
X83.82Y-132.842
X86.066Y-135.382
X86.106Y-127.152
X86.193Y-137.922
X86.193Y-140.525
X86.193Y-148.272
X86.257Y-143.129
X86.257Y-145.796
X86.32Y-130.175
X86.32Y-132.842
X90.297Y-130.302
X90.297Y-132.842
X90.297Y-135.255
X90.297Y-137.668
X90.424Y-140.081
X90.424Y-142.621
X90.424Y-145.034
X90.551Y-147.701
X90.602Y-110.185
X90.602Y-112.685
X91.846Y-57.393
X91.846Y-59.893
X97.917Y-130.302
X97.917Y-132.842
X97.917Y-135.255
X97.917Y-137.668
X98.044Y-140.081
X98.044Y-142.621
X98.044Y-145.034
X98.171Y-147.701
X101.473Y-127.889
X101.473Y-130.429
X101.473Y-132.969
X101.473Y-135.509
X101.473Y-138.049
X101.473Y-140.589
X101.473Y-143.129
X101.473Y-145.669
X101.473Y-148.209
X109.093Y-127.889
X109.093Y-130.429
X109.093Y-132.969
X109.093Y-135.509
X109.093Y-138.049
X109.093Y-140.589
X109.093Y-143.129
X109.093Y-145.669
X109.093Y-148.209
X110.744Y-110.236
X110.744Y-112.736
X111.1Y-57.342
X111.1Y-59.842
X113.792Y-145.938
X113.792Y-148.438
X116.078Y-123.952
X116.078Y-126.452
X116.141Y-129.35
X116.141Y-136.969
X120.777Y-129.54
X120.777Y-137.16
X120.904Y-123.952
X120.904Y-126.452
X125.222Y-123.952
X125.222Y-126.452
X125.222Y-129.286
X125.222Y-136.906
X127.406Y-54.356
X129.794Y-129.286
X129.794Y-136.906
X129.906Y-54.356
X130.048Y-123.952
X130.048Y-126.452
X130.556Y-109.728
X130.556Y-112.228
X134.366Y-123.952
X134.366Y-126.452
X134.366Y-129.286
X134.366Y-136.906
X138.684Y-123.952
X138.684Y-126.452
X138.684Y-129.286
X138.684Y-136.906
X143.51Y-123.952
X143.51Y-126.452
X143.51Y-129.286
X143.51Y-136.906
X147.447Y-129.286
X147.447Y-136.906
X147.828Y-123.19
X147.828Y-125.69
T3
X116.078Y-139.319
X116.078Y-141.859
X120.65Y-139.319
X120.65Y-141.859
X125.222Y-139.319
X125.222Y-141.859
X129.794Y-139.319
X129.794Y-141.859
X134.239Y-139.319
X134.239Y-141.859
X138.811Y-139.319
X138.811Y-141.859
X143.383Y-139.319
X143.383Y-141.859
X147.828Y-139.319
X147.828Y-141.859
T4
X51.664Y-129.875
X51.664Y-132.415
X51.664Y-134.955
X51.664Y-137.495
X51.664Y-140.035
X52.705Y-97.481
X52.705Y-101.981
X52.705Y-106.481
X53.34Y-118.237
X54.204Y-129.875
X54.204Y-132.415
X54.204Y-134.955
X54.204Y-137.495
X54.204Y-140.035
X56.214Y-88.583
X56.214Y-94.186
X56.655Y-76.248
X56.655Y-81.851
X59.214Y-88.583
X59.214Y-94.186
X59.655Y-76.248
X59.655Y-81.851
X62.214Y-88.583
X62.214Y-94.186
X62.611Y-135.103
X62.611Y-137.643
X62.611Y-140.183
X62.655Y-76.248
X62.655Y-81.851
X62.674Y-118.173
X64.069Y-147.579
X65.214Y-88.583
X65.214Y-94.186
X65.655Y-76.248
X65.655Y-81.851
X65.964Y-135.103
X65.964Y-137.643
X65.964Y-140.183
X66.609Y-147.579
X69.149Y-147.579
X69.342Y-135.179
X69.342Y-137.719
X69.342Y-140.259
X71.285Y-97.189
X71.285Y-101.689
X71.285Y-106.189
X71.819Y-118.173
X71.933Y-63.724
X71.933Y-68.224
X71.933Y-72.724
X75.772Y-88.71
X75.772Y-94.313
X77.153Y-75.994
X77.153Y-81.597
X78.772Y-88.71
X78.772Y-94.313
X80.153Y-75.994
X80.153Y-81.597
X81.471Y-118.3
X81.772Y-88.71
X81.772Y-94.313
X83.153Y-75.994
X83.153Y-81.597
X84.772Y-88.71
X84.772Y-94.313
X86.153Y-75.994
X86.153Y-81.597
X90.805Y-118.3
X91.123Y-97.024
X91.123Y-101.524
X91.123Y-106.024
X91.694Y-63.877
X91.694Y-68.377
X91.694Y-72.877
X95.457Y-88.837
X95.457Y-94.44
X96.99Y-76.248
X96.99Y-81.851
X98.108Y-118.491
X98.457Y-88.837
X98.457Y-94.44
X99.99Y-76.248
X99.99Y-81.851
X101.457Y-88.837
X101.457Y-94.44
X102.99Y-76.248
X102.99Y-81.851
X104.457Y-88.837
X104.457Y-94.44
X105.029Y-118.681
X105.99Y-76.248
X105.99Y-81.851
X110.503Y-96.846
X110.503Y-101.346
X110.503Y-105.846
X111.176Y-63.674
X111.176Y-68.174
X111.176Y-72.674
X111.569Y-118.745
X115.65Y-88.964
X115.65Y-94.567
X118.65Y-88.964
X118.65Y-94.567
X121.65Y-88.964
X121.65Y-94.567
X121.983Y-118.364
X124.65Y-88.964
X124.65Y-94.567
X131.826Y-118.491
X140.97Y-118.491
T5
X55.244Y-97.96
X55.244Y-110.16
X56.357Y-60.04
X56.357Y-72.24
X61.244Y-112.16
X62.357Y-58.04
X67.244Y-97.96
X67.244Y-110.16
X68.357Y-60.04
X68.357Y-72.24
X74.772Y-98.194
X74.772Y-110.394
X76.042Y-59.786
X76.042Y-71.986
X80.772Y-112.394
X82.042Y-57.786
X86.772Y-98.194
X86.772Y-110.394
X88.042Y-59.786
X88.042Y-71.986
X94.584Y-98.448
X94.584Y-110.648
X95.651Y-59.888
X95.651Y-72.088
X100.584Y-112.648
X101.651Y-57.888
X106.584Y-98.448
X106.584Y-110.648
X107.651Y-59.888
X107.651Y-72.088
X114.701Y-98.575
X114.701Y-110.775
X114.802Y-59.938
X114.802Y-72.138
X120.701Y-112.775
X120.802Y-57.938
X126.701Y-98.575
X126.701Y-110.775
X126.802Y-59.938
X126.802Y-72.138
X131.312Y-59.837
X131.312Y-72.037
X137.312Y-57.837
X143.312Y-59.837
X143.312Y-72.037
T6
X52.96Y-91.694
X53.289Y-78.74
X68.58Y-91.694
X68.909Y-78.74
X72.518Y-91.821
X73.787Y-78.486
X88.138Y-91.821
X89.407Y-78.486
X92.203Y-91.948
X93.624Y-78.74
X107.823Y-91.948
X109.244Y-78.74
X112.396Y-92.075
X127.467Y-145.41
X127.508Y-148.006
X128.016Y-92.075
X132.467Y-145.41
X132.508Y-148.006
X135.655Y-145.349
X135.665Y-147.98
X140.655Y-145.349
X140.665Y-147.98
T7
X116.586Y-145.542
X116.586Y-148.463
X124.206Y-145.542
X124.206Y-148.463
T8
X139.954Y-81.28
X139.954Y-86.36
X139.954Y-93.726
X139.954Y-98.806
X140.208Y-106.172
X140.208Y-111.252
T9
X53.Y-53.
X53.Y-147.
X147.002Y-52.959
X147.002Y-147.002
T0
M30
