M48
;DRILL file {KiCad 4.0.7} date 09/11/18 09:27:51
;FORMAT={-:-/ absolute / metric / decimal}
FMAT,2
METRIC,TZ
T1C0.400
T2C0.800
T3C0.900
T4C1.000
T5C1.100
T6C1.200
T7C1.520
T8C3.048
%
G90
G05
M71
T1
X63.754Y-99.695
X92.71Y-99.949
X98.491Y-127.386
X100.584Y-127.508
X101.219Y-72.644
X101.219Y-130.556
X109.469Y-103.099
X117.348Y-99.949
X119.024Y-113.157
X120.142Y-99.187
X123.662Y-126.456
X123.698Y-85.41
X124.094Y-78.13
X124.811Y-118.775
X125.593Y-75.245
X126.533Y-69.19
X127.254Y-103.49
X143.383Y-71.755
X144.821Y-75.916
X145.959Y-107.01
X147.356Y-68.565
T2
X114.808Y-131.826
X114.808Y-140.462
X114.808Y-148.082
X117.531Y-59.11
X117.531Y-61.61
X118.11Y-141.224
X120.071Y-59.11
X120.071Y-61.61
X122.428Y-131.826
X122.611Y-59.11
X122.611Y-61.61
X124.714Y-131.826
X125.151Y-59.11
X125.151Y-61.61
X125.73Y-141.224
X127.691Y-59.11
X127.691Y-61.61
X128.143Y-141.224
X130.231Y-59.11
X130.231Y-61.61
X132.334Y-131.826
X132.771Y-59.11
X132.771Y-61.61
X135.311Y-59.11
X135.311Y-61.61
X135.382Y-131.826
X135.763Y-141.224
X137.851Y-59.11
X137.851Y-61.61
X140.391Y-59.11
X140.391Y-61.61
X142.875Y-134.366
X142.875Y-141.986
X143.002Y-131.826
X145.023Y-59.817
X145.669Y-134.366
X145.669Y-141.986
X147.523Y-59.817
X147.828Y-124.206
X147.828Y-131.826
X148.336Y-134.366
X148.336Y-141.986
T3
X117.602Y-135.636
X117.602Y-146.05
X120.142Y-135.636
X120.142Y-146.05
X122.428Y-135.636
X122.428Y-146.05
X124.968Y-135.636
X124.968Y-146.05
X127.254Y-135.636
X127.254Y-146.05
X129.794Y-135.636
X129.794Y-146.05
X132.08Y-135.636
X132.08Y-146.05
X134.62Y-135.636
X134.62Y-146.05
X136.906Y-135.636
X136.906Y-146.05
X139.446Y-135.636
X139.446Y-146.05
T4
X54.22Y-67.655
X58.72Y-67.655
X63.132Y-121.765
X63.132Y-128.765
X63.22Y-67.655
X64.093Y-73.46
X64.093Y-80.46
X66.132Y-121.765
X66.132Y-128.765
X67.093Y-73.46
X67.093Y-80.46
X69.132Y-121.765
X69.132Y-128.765
X70.093Y-73.46
X70.093Y-80.46
X72.132Y-121.765
X72.132Y-128.765
X73.093Y-73.46
X73.093Y-80.46
X74.473Y-104.314
X74.473Y-108.814
X74.473Y-113.314
X74.727Y-89.074
X74.727Y-93.574
X74.727Y-98.074
X83.046Y-121.689
X83.046Y-128.689
X86.046Y-121.689
X86.046Y-128.689
X86.125Y-73.638
X86.125Y-80.638
X89.046Y-121.689
X89.046Y-128.689
X89.125Y-73.638
X89.125Y-80.638
X92.046Y-121.689
X92.046Y-128.689
X92.125Y-73.638
X92.125Y-80.638
X95.125Y-73.638
X95.125Y-80.638
X99.111Y-88.312
X99.111Y-92.812
X99.111Y-97.312
X99.365Y-104.568
X99.365Y-109.068
X99.365Y-113.568
X107.557Y-121.689
X107.557Y-128.689
X107.954Y-73.445
X107.954Y-80.445
X110.557Y-121.689
X110.557Y-128.689
X110.954Y-73.445
X110.954Y-80.445
X113.557Y-121.689
X113.557Y-128.689
X113.954Y-73.445
X113.954Y-80.445
X116.557Y-121.689
X116.557Y-128.689
X116.954Y-73.445
X116.954Y-80.445
X117.5Y-51.714
X117.5Y-54.254
X120.04Y-51.714
X120.04Y-54.254
X122.58Y-51.714
X122.58Y-54.254
X123.495Y-88.312
X123.495Y-92.812
X123.495Y-97.312
X124.511Y-104.568
X124.511Y-109.068
X124.511Y-113.568
X125.12Y-51.714
X125.12Y-54.254
X127.66Y-51.714
X127.66Y-54.254
X129.163Y-73.572
X129.163Y-80.572
X130.036Y-122.07
X130.036Y-129.07
X130.2Y-51.714
X130.2Y-54.254
X132.163Y-73.572
X132.163Y-80.572
X132.74Y-51.714
X132.74Y-54.254
X133.036Y-122.07
X133.036Y-129.07
X135.163Y-73.572
X135.163Y-80.572
X135.28Y-51.714
X135.28Y-54.254
X135.632Y-101.194
X136.036Y-122.07
X136.036Y-129.07
X137.82Y-51.714
X137.82Y-54.254
X138.163Y-73.572
X138.163Y-80.572
X139.036Y-122.07
X139.036Y-129.07
X140.132Y-101.194
X140.36Y-51.714
X140.36Y-54.254
X144.632Y-101.194
T5
X53.011Y-110.465
X53.011Y-112.465
X55.011Y-104.465
X55.011Y-106.465
X55.011Y-110.465
X55.011Y-112.465
X55.011Y-116.465
X55.011Y-118.465
X55.097Y-84.05
X55.097Y-86.05
X55.097Y-96.05
X55.097Y-98.05
X57.011Y-104.465
X57.011Y-106.465
X57.011Y-116.465
X57.011Y-118.465
X57.097Y-84.05
X57.097Y-86.05
X57.097Y-96.05
X57.097Y-98.05
X67.211Y-104.465
X67.211Y-106.465
X67.211Y-116.465
X67.211Y-118.465
X67.297Y-84.05
X67.297Y-86.05
X67.297Y-96.05
X67.297Y-98.05
X69.211Y-104.465
X69.211Y-106.465
X69.211Y-116.465
X69.211Y-118.465
X69.297Y-84.05
X69.297Y-86.05
X69.297Y-90.05
X69.297Y-92.05
X69.297Y-96.05
X69.297Y-98.05
X70.562Y-59.436
X70.562Y-61.436
X70.994Y-138.938
X70.994Y-140.938
X71.297Y-90.05
X71.297Y-92.05
X72.562Y-53.436
X72.562Y-55.436
X72.562Y-59.436
X72.562Y-61.436
X72.562Y-65.436
X72.562Y-67.436
X72.994Y-132.938
X72.994Y-134.938
X72.994Y-138.938
X72.994Y-140.938
X72.994Y-144.938
X72.994Y-146.938
X74.562Y-53.436
X74.562Y-55.436
X74.562Y-65.436
X74.562Y-67.436
X74.994Y-132.938
X74.994Y-134.938
X74.994Y-144.938
X74.994Y-146.938
X77.712Y-110.465
X77.712Y-112.465
X79.608Y-83.999
X79.608Y-85.999
X79.608Y-95.999
X79.608Y-97.999
X79.712Y-104.465
X79.712Y-106.465
X79.712Y-110.465
X79.712Y-112.465
X79.712Y-116.465
X79.712Y-118.465
X81.608Y-83.999
X81.608Y-85.999
X81.608Y-95.999
X81.608Y-97.999
X81.712Y-104.465
X81.712Y-106.465
X81.712Y-116.465
X81.712Y-118.465
X84.762Y-53.436
X84.762Y-55.436
X84.762Y-65.436
X84.762Y-67.436
X85.194Y-132.938
X85.194Y-134.938
X85.194Y-144.938
X85.194Y-146.938
X86.762Y-53.436
X86.762Y-55.436
X86.762Y-65.436
X86.762Y-67.436
X87.194Y-132.938
X87.194Y-134.938
X87.194Y-144.938
X87.194Y-146.938
X91.808Y-83.999
X91.808Y-85.999
X91.808Y-95.999
X91.808Y-97.999
X91.912Y-104.465
X91.912Y-106.465
X91.912Y-116.465
X91.912Y-118.465
X92.622Y-59.436
X92.622Y-61.436
X93.346Y-138.938
X93.346Y-140.938
X93.808Y-83.999
X93.808Y-85.999
X93.808Y-89.999
X93.808Y-91.999
X93.808Y-95.999
X93.808Y-97.999
X93.912Y-104.465
X93.912Y-106.465
X93.912Y-116.465
X93.912Y-118.465
X94.622Y-53.436
X94.622Y-55.436
X94.622Y-59.436
X94.622Y-61.436
X94.622Y-65.436
X94.622Y-67.436
X95.346Y-132.938
X95.346Y-134.938
X95.346Y-138.938
X95.346Y-140.938
X95.346Y-144.938
X95.346Y-146.938
X95.808Y-89.999
X95.808Y-91.999
X96.622Y-53.436
X96.622Y-55.436
X96.622Y-65.436
X96.622Y-67.436
X97.346Y-132.938
X97.346Y-134.938
X97.346Y-144.938
X97.346Y-146.938
X102.985Y-110.528
X102.985Y-112.528
X104.144Y-83.73
X104.144Y-85.73
X104.144Y-95.73
X104.144Y-97.73
X104.985Y-104.528
X104.985Y-106.528
X104.985Y-110.528
X104.985Y-112.528
X104.985Y-116.528
X104.985Y-118.528
X106.144Y-83.73
X106.144Y-85.73
X106.144Y-95.73
X106.144Y-97.73
X106.822Y-53.436
X106.822Y-55.436
X106.822Y-65.436
X106.822Y-67.436
X106.985Y-104.528
X106.985Y-106.528
X106.985Y-116.528
X106.985Y-118.528
X107.546Y-132.938
X107.546Y-134.938
X107.546Y-144.938
X107.546Y-146.938
X108.822Y-53.436
X108.822Y-55.436
X108.822Y-65.436
X108.822Y-67.436
X109.546Y-132.938
X109.546Y-134.938
X109.546Y-144.938
X109.546Y-146.938
X116.344Y-83.73
X116.344Y-85.73
X116.344Y-95.73
X116.344Y-97.73
X117.185Y-104.528
X117.185Y-106.528
X117.185Y-116.528
X117.185Y-118.528
X118.344Y-83.73
X118.344Y-85.73
X118.344Y-89.73
X118.344Y-91.73
X118.344Y-95.73
X118.344Y-97.73
X119.185Y-104.528
X119.185Y-106.528
X119.185Y-116.528
X119.185Y-118.528
X120.344Y-89.73
X120.344Y-91.73
X127.623Y-110.909
X127.623Y-112.909
X128.503Y-83.821
X128.503Y-85.821
X128.503Y-95.821
X128.503Y-97.821
X129.623Y-104.909
X129.623Y-106.909
X129.623Y-110.909
X129.623Y-112.909
X129.623Y-116.909
X129.623Y-118.909
X130.503Y-83.821
X130.503Y-85.821
X130.503Y-95.821
X130.503Y-97.821
X131.623Y-104.909
X131.623Y-106.909
X131.623Y-116.909
X131.623Y-118.909
X140.703Y-83.821
X140.703Y-85.821
X140.703Y-95.821
X140.703Y-97.821
X141.823Y-104.909
X141.823Y-106.909
X141.823Y-116.909
X141.823Y-118.909
X142.703Y-83.821
X142.703Y-85.821
X142.703Y-89.821
X142.703Y-91.821
X142.703Y-95.821
X142.703Y-97.821
X143.823Y-104.909
X143.823Y-106.909
X143.823Y-116.909
X143.823Y-118.909
X144.703Y-89.821
X144.703Y-91.821
T6
X59.512Y-124.765
X61.093Y-77.46
X75.132Y-124.765
X76.713Y-77.46
X79.426Y-124.689
X83.125Y-77.638
X95.046Y-124.689
X98.745Y-77.638
X103.937Y-124.689
X104.954Y-77.445
X119.557Y-124.689
X120.574Y-77.445
X126.163Y-77.572
X126.416Y-125.07
X141.783Y-77.572
X142.036Y-125.07
T7
X54.102Y-125.984
X54.102Y-131.064
X54.864Y-72.898
X54.864Y-77.978
X60.579Y-54.153
X60.858Y-62.141
X60.96Y-136.906
X60.96Y-145.034
X65.659Y-54.153
X65.938Y-62.141
X66.04Y-136.906
X66.04Y-145.034
T8
X53.Y-53.
X53.Y-147.
X147.Y-53.
X147.Y-147.
T0
M30
