G04 #@! TF.FileFunction,Copper,L1,Top,Signal*
%FSLAX46Y46*%
G04 Gerber Fmt 4.6, Leading zero omitted, Abs format (unit mm)*
G04 Created by KiCad (PCBNEW 4.0.7) date 10/20/18 22:44:11*
%MOMM*%
%LPD*%
G01*
G04 APERTURE LIST*
%ADD10C,0.100000*%
%ADD11C,1.600000*%
%ADD12C,1.800000*%
%ADD13R,1.800000X1.800000*%
%ADD14O,1.600000X1.600000*%
%ADD15R,3.000000X3.000000*%
%ADD16C,3.000000*%
%ADD17C,5.500000*%
%ADD18O,1.500000X3.000000*%
%ADD19O,3.000000X1.500000*%
%ADD20R,1.700000X1.700000*%
%ADD21O,1.700000X1.700000*%
%ADD22C,2.000000*%
%ADD23C,1.700000*%
%ADD24O,12.000000X2.000000*%
%ADD25C,2.400000*%
%ADD26C,0.600000*%
%ADD27C,0.500000*%
%ADD28C,1.000000*%
%ADD29C,0.350000*%
G04 APERTURE END LIST*
D10*
D11*
X90805000Y-71882000D03*
X90805000Y-74382000D03*
X63535560Y-111257080D03*
X61035560Y-111257080D03*
D12*
X112872000Y-124795800D03*
X112872000Y-112595800D03*
X124872000Y-112595800D03*
X118872000Y-126795800D03*
X124872000Y-124795800D03*
X86137000Y-74200500D03*
X86137000Y-86400500D03*
X74137000Y-86400500D03*
X80137000Y-72200500D03*
X74137000Y-74200500D03*
D13*
X61457840Y-130190240D03*
D12*
X58917840Y-130190240D03*
D11*
X53416200Y-63439040D03*
D14*
X53416200Y-71059040D03*
D13*
X61341000Y-139105640D03*
D12*
X58801000Y-139105640D03*
D13*
X61457840Y-134762240D03*
D12*
X58917840Y-134762240D03*
D15*
X143319500Y-132588000D03*
D16*
X143319500Y-137668000D03*
D15*
X130312160Y-55991760D03*
D16*
X125232160Y-55991760D03*
D11*
X129286000Y-126923800D03*
X129286000Y-124423800D03*
X109093000Y-127177800D03*
X109093000Y-124677800D03*
X88646000Y-127177800D03*
X88646000Y-124677800D03*
X67818000Y-127431800D03*
X67818000Y-124931800D03*
X70104000Y-72821800D03*
X70104000Y-75321800D03*
X110744000Y-72644000D03*
X110744000Y-75144000D03*
X130721100Y-72555100D03*
X130721100Y-75055100D03*
X104140000Y-63500000D03*
X104140000Y-66000000D03*
X82613500Y-132778500D03*
X82613500Y-135278500D03*
X78933040Y-58089800D03*
D14*
X71313040Y-58089800D03*
D15*
X140680440Y-55991760D03*
D16*
X135600440Y-55991760D03*
D17*
X147000000Y-53000000D03*
X53000000Y-147000000D03*
D11*
X71247000Y-61356240D03*
D14*
X78867000Y-61356240D03*
D13*
X61417200Y-125618240D03*
D12*
X58877200Y-125618240D03*
D13*
X61493400Y-121234200D03*
D12*
X58953400Y-121234200D03*
D13*
X62219840Y-81117440D03*
D12*
X59679840Y-81117440D03*
D13*
X62219840Y-76545440D03*
D12*
X59679840Y-76545440D03*
D13*
X62143640Y-72085200D03*
D12*
X59603640Y-72085200D03*
D11*
X66944240Y-139486640D03*
D14*
X74564240Y-139486640D03*
D11*
X67056000Y-136321800D03*
D14*
X74676000Y-136321800D03*
D11*
X67020440Y-133162040D03*
D14*
X74640440Y-133162040D03*
D11*
X53568600Y-135371840D03*
D14*
X53568600Y-127751840D03*
D11*
X53533040Y-125237240D03*
D14*
X53533040Y-117617240D03*
D11*
X53416200Y-73268840D03*
D14*
X53416200Y-80888840D03*
D11*
X71302880Y-64597280D03*
D14*
X78922880Y-64597280D03*
D18*
X130144520Y-83317080D03*
X130144520Y-78817080D03*
X130144520Y-87817080D03*
X110027720Y-83317080D03*
X110027720Y-78817080D03*
X110027720Y-87817080D03*
X89966800Y-82410300D03*
X89966800Y-77910300D03*
X89966800Y-86910300D03*
X88392000Y-116509800D03*
X88392000Y-121009800D03*
X88392000Y-112009800D03*
X108839000Y-116128800D03*
X108839000Y-120628800D03*
X108839000Y-111628800D03*
X129032000Y-116001800D03*
X129032000Y-120501800D03*
X129032000Y-111501800D03*
D13*
X62138560Y-67614800D03*
D12*
X59598560Y-67614800D03*
D13*
X62194440Y-63144400D03*
D12*
X59654440Y-63144400D03*
D18*
X68224400Y-116560600D03*
X68224400Y-121060600D03*
X68224400Y-112060600D03*
D15*
X139192000Y-144272000D03*
D16*
X134112000Y-144272000D03*
D15*
X128524000Y-144208500D03*
D16*
X123444000Y-144208500D03*
D15*
X142875000Y-62738000D03*
D16*
X142875000Y-67818000D03*
D19*
X130556000Y-65405000D03*
X126056000Y-65405000D03*
X135056000Y-65405000D03*
D20*
X54864000Y-111061500D03*
D21*
X52324000Y-111061500D03*
X54864000Y-108521500D03*
X52324000Y-108521500D03*
X54864000Y-105981500D03*
X52324000Y-105981500D03*
X54864000Y-103441500D03*
X52324000Y-103441500D03*
X54864000Y-100901500D03*
X52324000Y-100901500D03*
X54864000Y-98361500D03*
X52324000Y-98361500D03*
X54864000Y-95821500D03*
X52324000Y-95821500D03*
X54864000Y-93281500D03*
X52324000Y-93281500D03*
X54864000Y-90741500D03*
X52324000Y-90741500D03*
X54864000Y-88201500D03*
X52324000Y-88201500D03*
D12*
X117696500Y-134335000D03*
X117696500Y-146535000D03*
X105696500Y-146535000D03*
X111696500Y-132335000D03*
X105696500Y-134335000D03*
X98583000Y-134893800D03*
X98583000Y-147093800D03*
X86583000Y-147093800D03*
X92583000Y-132893800D03*
X86583000Y-134893800D03*
X108300000Y-65372500D03*
X108300000Y-53172500D03*
X120300000Y-53172500D03*
X114300000Y-67372500D03*
X120300000Y-65372500D03*
X132950700Y-125024400D03*
X132950700Y-112824400D03*
X144950700Y-112824400D03*
X138950700Y-127024400D03*
X144950700Y-125024400D03*
X72359000Y-124795800D03*
X72359000Y-112595800D03*
X84359000Y-112595800D03*
X78359000Y-126795800D03*
X84359000Y-124795800D03*
X106672900Y-74289400D03*
X106672900Y-86489400D03*
X94672900Y-86489400D03*
X100672900Y-72289400D03*
X94672900Y-74289400D03*
X146855700Y-74772000D03*
X146855700Y-86972000D03*
X134855700Y-86972000D03*
X140855700Y-72772000D03*
X134855700Y-74772000D03*
X87980000Y-65182000D03*
X87980000Y-52982000D03*
X99980000Y-52982000D03*
X93980000Y-67182000D03*
X99980000Y-65182000D03*
X126675400Y-74822800D03*
X126675400Y-87022800D03*
X114675400Y-87022800D03*
X120675400Y-72822800D03*
X114675400Y-74822800D03*
X92628200Y-125192040D03*
X92628200Y-112992040D03*
X104628200Y-112992040D03*
X98628200Y-127192040D03*
X104628200Y-125192040D03*
D11*
X102171500Y-132842000D03*
X102171500Y-135342000D03*
X84328000Y-63500000D03*
X84328000Y-66000000D03*
X63652400Y-88011000D03*
X61152400Y-88011000D03*
X63601600Y-90627200D03*
X61101600Y-90627200D03*
X63652400Y-93141800D03*
X61152400Y-93141800D03*
X63601600Y-95935800D03*
X61101600Y-95935800D03*
X63652400Y-98399600D03*
X61152400Y-98399600D03*
X63601600Y-101041200D03*
X61101600Y-101041200D03*
X63627000Y-103632000D03*
X61127000Y-103632000D03*
X63627000Y-106146600D03*
X61127000Y-106146600D03*
X63591440Y-108686600D03*
X61091440Y-108686600D03*
D17*
X53000000Y-53000000D03*
D22*
X58790840Y-148859240D03*
X58790840Y-143859240D03*
D23*
X114595900Y-108029000D03*
X117595900Y-108029000D03*
X120595900Y-108029000D03*
X123595900Y-108029000D03*
X114595900Y-102426000D03*
X117595900Y-102426000D03*
X120595900Y-102426000D03*
X123595900Y-102426000D03*
D24*
X119095900Y-108029000D03*
X119095900Y-102426000D03*
D25*
X111341900Y-105537000D03*
X126961900Y-105537000D03*
D23*
X134242800Y-107952800D03*
X137242800Y-107952800D03*
X140242800Y-107952800D03*
X143242800Y-107952800D03*
X134242800Y-102349800D03*
X137242800Y-102349800D03*
X140242800Y-102349800D03*
X143242800Y-102349800D03*
D24*
X138742800Y-107952800D03*
X138742800Y-102349800D03*
D25*
X130988800Y-105460800D03*
X146608800Y-105460800D03*
D23*
X94949000Y-108562400D03*
X97949000Y-108562400D03*
X100949000Y-108562400D03*
X103949000Y-108562400D03*
X94949000Y-102959400D03*
X97949000Y-102959400D03*
X100949000Y-102959400D03*
X103949000Y-102959400D03*
D24*
X99449000Y-108562400D03*
X99449000Y-102959400D03*
D25*
X91695000Y-106070400D03*
X107315000Y-106070400D03*
D23*
X74641700Y-108283000D03*
X77641700Y-108283000D03*
X80641700Y-108283000D03*
X83641700Y-108283000D03*
X74641700Y-102680000D03*
X77641700Y-102680000D03*
X80641700Y-102680000D03*
X83641700Y-102680000D03*
D24*
X79141700Y-108283000D03*
X79141700Y-102680000D03*
D25*
X71387700Y-105791000D03*
X87007700Y-105791000D03*
D23*
X84311500Y-90916500D03*
X81311500Y-90916500D03*
X78311500Y-90916500D03*
X75311500Y-90916500D03*
X84311500Y-96519500D03*
X81311500Y-96519500D03*
X78311500Y-96519500D03*
X75311500Y-96519500D03*
D24*
X79811500Y-90916500D03*
X79811500Y-96519500D03*
D25*
X87565500Y-93408500D03*
X71945500Y-93408500D03*
D23*
X104123500Y-90980000D03*
X101123500Y-90980000D03*
X98123500Y-90980000D03*
X95123500Y-90980000D03*
X104123500Y-96583000D03*
X101123500Y-96583000D03*
X98123500Y-96583000D03*
X95123500Y-96583000D03*
D24*
X99623500Y-90980000D03*
X99623500Y-96583000D03*
D25*
X107377500Y-93472000D03*
X91757500Y-93472000D03*
D23*
X124151400Y-91119700D03*
X121151400Y-91119700D03*
X118151400Y-91119700D03*
X115151400Y-91119700D03*
X124151400Y-96722700D03*
X121151400Y-96722700D03*
X118151400Y-96722700D03*
X115151400Y-96722700D03*
D24*
X119651400Y-91119700D03*
X119651400Y-96722700D03*
D25*
X127405400Y-93611700D03*
X111785400Y-93611700D03*
D23*
X143696700Y-91195900D03*
X140696700Y-91195900D03*
X137696700Y-91195900D03*
X134696700Y-91195900D03*
X143696700Y-96798900D03*
X140696700Y-96798900D03*
X137696700Y-96798900D03*
X134696700Y-96798900D03*
D24*
X139196700Y-91195900D03*
X139196700Y-96798900D03*
D25*
X146950700Y-93687900D03*
X131330700Y-93687900D03*
D22*
X62191900Y-148805900D03*
X62191900Y-143805900D03*
X65417700Y-148780500D03*
X65417700Y-143780500D03*
X148447760Y-142412720D03*
X143447760Y-142412720D03*
D17*
X147000000Y-147000000D03*
D11*
X148041360Y-58140600D03*
X145541360Y-58140600D03*
D26*
X64373760Y-129529840D03*
X71323200Y-128397000D03*
X66029840Y-123291600D03*
X67838320Y-78930500D03*
X67787520Y-69961760D03*
X82448400Y-66868040D03*
X137350500Y-63817500D03*
D27*
X142875000Y-67818000D02*
X143814800Y-67818000D01*
X143814800Y-67818000D02*
X145541360Y-66091440D01*
X145541360Y-66091440D02*
X145541360Y-58140600D01*
D28*
X143319500Y-137668000D02*
X143319500Y-142284460D01*
X143319500Y-142284460D02*
X143447760Y-142412720D01*
X149367240Y-94335600D02*
X149367240Y-108930440D01*
X149367240Y-108930440D02*
X149428200Y-108991400D01*
X143319500Y-137668000D02*
X147066000Y-137668000D01*
X147066000Y-137668000D02*
X149428200Y-135305800D01*
X149428200Y-135305800D02*
X149428200Y-128574800D01*
X149428200Y-108991400D02*
X149428200Y-128574800D01*
X147422100Y-102349800D02*
X149428200Y-104355900D01*
X147422100Y-102349800D02*
X138742800Y-102349800D01*
X149428200Y-104355900D02*
X149428200Y-108991400D01*
X137182693Y-137377251D02*
X143000811Y-137349311D01*
X143000811Y-137349311D02*
X143319500Y-137668000D01*
X134242800Y-102349800D02*
X134712700Y-96814900D01*
X134712700Y-96814900D02*
X134696700Y-96798900D01*
X123595900Y-102426000D02*
X123392700Y-97481400D01*
X123392700Y-97481400D02*
X124151400Y-96722700D01*
X114595900Y-102426000D02*
X114392700Y-97481400D01*
X114392700Y-97481400D02*
X115151400Y-96722700D01*
X103949000Y-102959400D02*
X103898200Y-96808300D01*
X103898200Y-96808300D02*
X104123500Y-96583000D01*
X94949000Y-102959400D02*
X94898200Y-96808300D01*
X94898200Y-96808300D02*
X95123500Y-96583000D01*
X83641700Y-102680000D02*
X83692500Y-97138500D01*
X83692500Y-97138500D02*
X84311500Y-96519500D01*
X111696500Y-132335000D02*
X111696500Y-134366000D01*
X113878360Y-137314940D02*
X137182693Y-137377251D01*
X137182693Y-137377251D02*
X137627360Y-137378440D01*
X111696500Y-134366000D02*
X113878360Y-137314940D01*
X114300000Y-67372500D02*
X114300000Y-66484500D01*
X114300000Y-66484500D02*
X119380000Y-60960000D01*
X119380000Y-60960000D02*
X136652000Y-60960000D01*
X136652000Y-60960000D02*
X142875000Y-67183000D01*
X142875000Y-67183000D02*
X142875000Y-67818000D01*
X143696700Y-96798900D02*
X143696700Y-97189300D01*
X143696700Y-97189300D02*
X143637000Y-99329240D01*
X143637000Y-99329240D02*
X143242800Y-102349800D01*
X119651400Y-96722700D02*
X134506200Y-96989400D01*
X134506200Y-96989400D02*
X134696700Y-96798900D01*
X104123500Y-96583000D02*
X119206900Y-97167200D01*
X119206900Y-97167200D02*
X119651400Y-96722700D01*
X84311500Y-96519500D02*
X94767900Y-96227400D01*
X94767900Y-96227400D02*
X95123500Y-96583000D01*
X74641700Y-102680000D02*
X74692500Y-97138500D01*
X74692500Y-97138500D02*
X75311500Y-96519500D01*
X94949000Y-102959400D02*
X83921100Y-102959400D01*
X83921100Y-102959400D02*
X83641700Y-102680000D01*
X103949000Y-102959400D02*
X114062500Y-102959400D01*
X114062500Y-102959400D02*
X114595900Y-102426000D01*
X123595900Y-102426000D02*
X134242800Y-102349800D01*
X142875000Y-67818000D02*
X146105880Y-67818000D01*
X148173440Y-96774000D02*
X143696700Y-96798900D01*
X149367240Y-95834200D02*
X148173440Y-96774000D01*
X149367240Y-71079360D02*
X149367240Y-94335600D01*
X149367240Y-94335600D02*
X149367240Y-95834200D01*
X146105880Y-67818000D02*
X149367240Y-71079360D01*
X129032000Y-116001800D02*
X128270000Y-116001800D01*
X127040640Y-114772440D02*
X127040640Y-105615740D01*
X128270000Y-116001800D02*
X127040640Y-114772440D01*
X127040640Y-105615740D02*
X126961900Y-105537000D01*
X129032000Y-116001800D02*
X129032000Y-116635800D01*
X129032000Y-116635800D02*
X118872000Y-126795800D01*
X129032000Y-111501800D02*
X129032000Y-110147100D01*
X129032000Y-110147100D02*
X130378200Y-107101640D01*
X130378200Y-107101640D02*
X130988800Y-105460800D01*
X129032000Y-111501800D02*
X129882900Y-111501800D01*
X129882900Y-111501800D02*
X131864100Y-111671100D01*
X131864100Y-111671100D02*
X132950700Y-112824400D01*
X108839000Y-116128800D02*
X108839000Y-116981240D01*
X108839000Y-116981240D02*
X98628200Y-127192040D01*
X107315000Y-106070400D02*
X107315000Y-109514640D01*
X106857800Y-114147600D02*
X108839000Y-116128800D01*
X106857800Y-109971840D02*
X106857800Y-114147600D01*
X107315000Y-109514640D02*
X106857800Y-109971840D01*
X108839000Y-111628800D02*
X111905000Y-111628800D01*
X111905000Y-111628800D02*
X112872000Y-112595800D01*
X111341900Y-105537000D02*
X111341900Y-111065700D01*
X111341900Y-111065700D02*
X112872000Y-112595800D01*
X78359000Y-126795800D02*
X78359000Y-126542800D01*
X78359000Y-126542800D02*
X88392000Y-116509800D01*
X87007700Y-105791000D02*
X87223600Y-108635800D01*
X86390480Y-114508280D02*
X88392000Y-116509800D01*
X86390480Y-109468920D02*
X86390480Y-114508280D01*
X87223600Y-108635800D02*
X86390480Y-109468920D01*
X88392000Y-112009800D02*
X91645960Y-112009800D01*
X91645960Y-112009800D02*
X92628200Y-112992040D01*
X91695000Y-106070400D02*
X91695000Y-112058840D01*
X91695000Y-112058840D02*
X92628200Y-112992040D01*
X68224400Y-112060600D02*
X72034400Y-110172500D01*
X72034400Y-110172500D02*
X72359000Y-112595800D01*
X71387700Y-105791000D02*
X71801500Y-109939600D01*
X71801500Y-109939600D02*
X72359000Y-112595800D01*
X89966800Y-82410300D02*
X90552000Y-82410300D01*
X90552000Y-82410300D02*
X100672900Y-72289400D01*
X89966800Y-82410300D02*
X90233500Y-82410300D01*
X90233500Y-82410300D02*
X92189300Y-84366100D01*
X92189300Y-84366100D02*
X92138500Y-93091000D01*
X92138500Y-93091000D02*
X91757500Y-93472000D01*
X89966800Y-86910300D02*
X86659500Y-86923000D01*
X86659500Y-86923000D02*
X86137000Y-86400500D01*
X86137000Y-86400500D02*
X86137000Y-87203800D01*
X86137000Y-87203800D02*
X87514700Y-88581500D01*
X87514700Y-88581500D02*
X87565500Y-93408500D01*
X110027720Y-83317080D02*
X110181120Y-83317080D01*
X110181120Y-83317080D02*
X120675400Y-72822800D01*
X110027720Y-83317080D02*
X110462060Y-83317080D01*
X110462060Y-83317080D02*
X112318800Y-85420200D01*
X112318800Y-85420200D02*
X112014000Y-90411300D01*
X112014000Y-90411300D02*
X111785400Y-93611700D01*
X106672900Y-86489400D02*
X109662700Y-86489400D01*
X109662700Y-86489400D02*
X110027720Y-87817080D01*
X106672900Y-86489400D02*
X106672900Y-89426300D01*
X107428300Y-90181700D02*
X107377500Y-93472000D01*
X106672900Y-89426300D02*
X107428300Y-90181700D01*
X130144520Y-83317080D02*
X130310620Y-83317080D01*
X130310620Y-83317080D02*
X140855700Y-72772000D01*
X131330700Y-93687900D02*
X131330700Y-92240100D01*
X132270500Y-85712300D02*
X130144520Y-83586320D01*
X132270500Y-89712800D02*
X132270500Y-85712300D01*
X131686300Y-90297000D02*
X132270500Y-89712800D01*
X131686300Y-91884500D02*
X131686300Y-90297000D01*
X131330700Y-92240100D02*
X131686300Y-91884500D01*
X130144520Y-83586320D02*
X130144520Y-83317080D01*
X130144520Y-83317080D02*
X130479800Y-83317080D01*
X131810760Y-93207840D02*
X131330700Y-93687900D01*
X130144520Y-87817080D02*
X127469680Y-87817080D01*
X127469680Y-87817080D02*
X126675400Y-87022800D01*
X126675400Y-87022800D02*
X126987300Y-88506300D01*
X127127000Y-89662000D02*
X127405400Y-93611700D01*
X126987300Y-88506300D02*
X127127000Y-89662000D01*
X123595900Y-108029000D02*
X123595900Y-110972100D01*
X123595900Y-110972100D02*
X124872000Y-112248200D01*
X124872000Y-112248200D02*
X124872000Y-112595800D01*
X83641700Y-108283000D02*
X83857600Y-112094400D01*
X83857600Y-112094400D02*
X84359000Y-112595800D01*
X94672900Y-86489400D02*
X94622100Y-90478600D01*
X94622100Y-90478600D02*
X95123500Y-90980000D01*
X103949000Y-108562400D02*
X103949000Y-111738800D01*
X103949000Y-111738800D02*
X104628200Y-112992040D01*
X74137000Y-86400500D02*
X74137000Y-86671900D01*
X74137000Y-86671900D02*
X75311500Y-87846400D01*
X75311500Y-87846400D02*
X75311500Y-90916500D01*
X74137000Y-90719900D02*
X75311500Y-90916500D01*
X115151400Y-91119700D02*
X114947700Y-88811100D01*
X114947700Y-88811100D02*
X114675400Y-87022800D01*
X99980000Y-52982000D02*
X101092000Y-51816000D01*
X125323600Y-50800000D02*
X130312160Y-55991760D01*
X103632000Y-50800000D02*
X125323600Y-50800000D01*
X101092000Y-51816000D02*
X103632000Y-50800000D01*
X87980000Y-52982000D02*
X87980000Y-53690000D01*
X87980000Y-53690000D02*
X93131640Y-58846720D01*
X93131640Y-58846720D02*
X138254740Y-58846720D01*
X138254740Y-58846720D02*
X140680440Y-55991760D01*
D29*
X129286000Y-126923800D02*
X129286000Y-128254760D01*
X144950700Y-129502420D02*
X144950700Y-125024400D01*
X145008600Y-129560320D02*
X144950700Y-129502420D01*
X130591560Y-129560320D02*
X145008600Y-129560320D01*
X129286000Y-128254760D02*
X130591560Y-129560320D01*
X129286000Y-126923800D02*
X129286000Y-127190500D01*
X64373760Y-129529840D02*
X66248280Y-129529840D01*
X69646800Y-132928360D02*
X69646800Y-134874000D01*
X66248280Y-129529840D02*
X69646800Y-132928360D01*
X71059040Y-136286240D02*
X74676000Y-136321800D01*
X69646800Y-134874000D02*
X71059040Y-136286240D01*
X74676000Y-136321800D02*
X74676000Y-136255760D01*
X74640440Y-133162040D02*
X71704200Y-128778000D01*
X71704200Y-128778000D02*
X71323200Y-128397000D01*
X53568600Y-127751840D02*
X53568600Y-127523240D01*
X53568600Y-127523240D02*
X57531000Y-123560840D01*
X65760600Y-123560840D02*
X66029840Y-123291600D01*
X57531000Y-123560840D02*
X65760600Y-123560840D01*
X53568600Y-127751840D02*
X53914040Y-128361440D01*
X53568600Y-127751840D02*
X53568600Y-127919480D01*
X63601600Y-101041200D02*
X64104520Y-101041200D01*
X64104520Y-101041200D02*
X65994280Y-102930960D01*
X64389000Y-117617240D02*
X53533040Y-117617240D01*
X65994280Y-116011960D02*
X64389000Y-117617240D01*
X65994280Y-102930960D02*
X65994280Y-116011960D01*
X53416200Y-80888840D02*
X54874160Y-81668620D01*
X67726560Y-79042260D02*
X67838320Y-78930500D01*
X67726560Y-82003900D02*
X67726560Y-79042260D01*
X66385440Y-83345020D02*
X67726560Y-82003900D01*
X56550560Y-83345020D02*
X66385440Y-83345020D01*
X54874160Y-81668620D02*
X56550560Y-83345020D01*
X53416200Y-71059040D02*
X53827680Y-71059040D01*
X53827680Y-71059040D02*
X57378600Y-69535040D01*
X57378600Y-69535040D02*
X66766440Y-69535040D01*
X66766440Y-69535040D02*
X67787520Y-69961760D01*
X82448400Y-66868040D02*
X82448400Y-65034160D01*
X82011520Y-64597280D02*
X78922880Y-64597280D01*
X82448400Y-65034160D02*
X82011520Y-64597280D01*
X134652500Y-74772000D02*
X134855700Y-74772000D01*
X53906420Y-141470380D02*
X68028820Y-141470380D01*
X68028820Y-141470380D02*
X68021200Y-141478000D01*
X65417700Y-143780500D02*
X65417700Y-143573500D01*
X65417700Y-143573500D02*
X67513200Y-141478000D01*
X67513200Y-141478000D02*
X68021200Y-141478000D01*
X78233900Y-135278500D02*
X82613500Y-135278500D01*
X68021200Y-141478000D02*
X74676000Y-141478000D01*
X74676000Y-141478000D02*
X77978000Y-138176000D01*
X77978000Y-138176000D02*
X77978000Y-135534400D01*
X77978000Y-135534400D02*
X78233900Y-135278500D01*
D27*
X109270800Y-70129400D02*
X106698300Y-70129400D01*
X106698300Y-70129400D02*
X106672900Y-70104000D01*
X86137000Y-74200500D02*
X86137000Y-72003400D01*
X86137000Y-72003400D02*
X88036400Y-70104000D01*
X88036400Y-70104000D02*
X106672900Y-70104000D01*
X106672900Y-70104000D02*
X106476800Y-70104000D01*
X106476800Y-70104000D02*
X106672900Y-70104000D01*
X83972400Y-68630800D02*
X85496400Y-68630800D01*
X86137000Y-69271400D02*
X86137000Y-74200500D01*
X85496400Y-68630800D02*
X86137000Y-69271400D01*
X70104000Y-75321800D02*
X71134600Y-75321800D01*
X84328000Y-68275200D02*
X84328000Y-66000000D01*
X83921600Y-68681600D02*
X83972400Y-68630800D01*
X83972400Y-68630800D02*
X84328000Y-68275200D01*
X73660000Y-68681600D02*
X83921600Y-68681600D01*
X71983600Y-70358000D02*
X73660000Y-68681600D01*
X71983600Y-74472800D02*
X71983600Y-70358000D01*
X71134600Y-75321800D02*
X71983600Y-74472800D01*
X72359000Y-124795800D02*
X72359000Y-128442200D01*
X87463000Y-124677800D02*
X88646000Y-124677800D01*
X86766400Y-125374400D02*
X87463000Y-124677800D01*
X86766400Y-127914400D02*
X86766400Y-125374400D01*
X84632800Y-130048000D02*
X86766400Y-127914400D01*
X73964800Y-130048000D02*
X84632800Y-130048000D01*
X72359000Y-128442200D02*
X73964800Y-130048000D01*
X67818000Y-124931800D02*
X72223000Y-124931800D01*
X72223000Y-124931800D02*
X72359000Y-124795800D01*
X132950700Y-125024400D02*
X132339600Y-125024400D01*
X132339600Y-125024400D02*
X131739000Y-124423800D01*
X131739000Y-124423800D02*
X129286000Y-124423800D01*
X115011200Y-129997200D02*
X125018800Y-130048000D01*
X128103000Y-124423800D02*
X129286000Y-124423800D01*
X127355600Y-125171200D02*
X128103000Y-124423800D01*
X127355600Y-128320800D02*
X127355600Y-125171200D01*
X125018800Y-130048000D02*
X127355600Y-128320800D01*
X117696500Y-134335000D02*
X117696500Y-133088900D01*
X107645200Y-129997200D02*
X106984800Y-129794000D01*
X115062000Y-129997200D02*
X115011200Y-129997200D01*
X115011200Y-129997200D02*
X107645200Y-129997200D01*
X117696500Y-133088900D02*
X115062000Y-129997200D01*
X98348800Y-130149600D02*
X98348800Y-134659600D01*
X98348800Y-134659600D02*
X98583000Y-134893800D01*
X82613500Y-135278500D02*
X84025100Y-135278500D01*
X86410800Y-130149600D02*
X93929200Y-130149600D01*
X84480400Y-131521200D02*
X86410800Y-130149600D01*
X84480400Y-134264400D02*
X84480400Y-131521200D01*
X84025100Y-135278500D02*
X84480400Y-134264400D01*
X109093000Y-124677800D02*
X108443400Y-124677800D01*
X108443400Y-124677800D02*
X106984800Y-126136400D01*
X106984800Y-126136400D02*
X106984800Y-129794000D01*
X106984800Y-129794000D02*
X106629200Y-130149600D01*
X106629200Y-130149600D02*
X98348800Y-130149600D01*
X98348800Y-130149600D02*
X93929200Y-130149600D01*
X92628200Y-128848600D02*
X92628200Y-125192040D01*
X93929200Y-130149600D02*
X92628200Y-128848600D01*
X106672900Y-73304400D02*
X106672900Y-72346300D01*
D29*
X106672900Y-73304400D02*
X106672900Y-74289400D01*
D27*
X113411000Y-70129400D02*
X123017280Y-70129400D01*
X108889800Y-70129400D02*
X109270800Y-70129400D01*
X109270800Y-70129400D02*
X113411000Y-70129400D01*
X104140000Y-66000000D02*
X104140000Y-66040000D01*
X104140000Y-66040000D02*
X106672900Y-68572900D01*
X106672900Y-68572900D02*
X106672900Y-70104000D01*
X106672900Y-70104000D02*
X106672900Y-70669900D01*
X106672900Y-70669900D02*
X106672900Y-74289400D01*
D29*
X117696500Y-134335000D02*
X117417238Y-134335000D01*
X102171500Y-135342000D02*
X102645840Y-135342000D01*
X98583000Y-134893800D02*
X101723300Y-134893800D01*
X101723300Y-134893800D02*
X102171500Y-135342000D01*
X102171500Y-135342000D02*
X102483280Y-135342000D01*
X101723300Y-134893800D02*
X102171500Y-135342000D01*
X82613500Y-135278500D02*
X83227540Y-135278500D01*
X122682000Y-64429640D02*
X122682000Y-69794120D01*
X122682000Y-69794120D02*
X123017280Y-70129400D01*
D27*
X110744000Y-75144000D02*
X111495200Y-75144000D01*
X126675400Y-73787520D02*
X126675400Y-74822800D01*
X123017280Y-70129400D02*
X126675400Y-73787520D01*
X61152400Y-88011000D02*
X61152400Y-86563840D01*
X70104000Y-76926440D02*
X70104000Y-75321800D01*
X69570600Y-77459840D02*
X70104000Y-76926440D01*
X69570600Y-78790800D02*
X69570600Y-77459840D01*
X68351562Y-80009838D02*
X69570600Y-78790800D01*
X68351562Y-82488878D02*
X68351562Y-80009838D01*
X66522600Y-84317840D02*
X68351562Y-82488878D01*
X63398400Y-84317840D02*
X66522600Y-84317840D01*
X61152400Y-86563840D02*
X63398400Y-84317840D01*
D29*
X125730000Y-62981840D02*
X125730000Y-62992000D01*
X124129800Y-62981840D02*
X125730000Y-62981840D01*
X122618500Y-64493140D02*
X122682000Y-64429640D01*
X122682000Y-64429640D02*
X124129800Y-62981840D01*
D27*
X52324000Y-111061500D02*
X52324000Y-113792000D01*
X56295280Y-143859240D02*
X58790840Y-143859240D01*
X50850800Y-138414760D02*
X53906420Y-141470380D01*
X53906420Y-141470380D02*
X56295280Y-143859240D01*
X50850800Y-115265200D02*
X50850800Y-138414760D01*
X52324000Y-113792000D02*
X50850800Y-115265200D01*
X62191900Y-143805900D02*
X58844180Y-143805900D01*
X58844180Y-143805900D02*
X58790840Y-143859240D01*
X65417700Y-143780500D02*
X62217300Y-143780500D01*
X62217300Y-143780500D02*
X62191900Y-143805900D01*
X58877200Y-125618240D02*
X58877200Y-126441200D01*
X58877200Y-126441200D02*
X60198000Y-127762000D01*
X65314200Y-124931800D02*
X67818000Y-124931800D01*
X62484000Y-127762000D02*
X65314200Y-124931800D01*
X60198000Y-127762000D02*
X62484000Y-127762000D01*
X58917840Y-134762240D02*
X58917840Y-138988800D01*
X58917840Y-138988800D02*
X58801000Y-139105640D01*
D29*
X102171500Y-135342000D02*
X102402000Y-135342000D01*
X52324000Y-88046560D02*
X53812440Y-86558120D01*
X53812440Y-86558120D02*
X59699520Y-86558120D01*
X59699520Y-86558120D02*
X61152400Y-88011000D01*
X59679840Y-76545440D02*
X59756040Y-81041240D01*
X59756040Y-81041240D02*
X59679840Y-81117440D01*
X59603640Y-72085200D02*
X59639200Y-76504800D01*
X59639200Y-76504800D02*
X59679840Y-76545440D01*
X59654440Y-63144400D02*
X59598560Y-67614800D01*
X52324000Y-111061500D02*
X52331620Y-111061500D01*
X52331620Y-111061500D02*
X53588920Y-109804200D01*
X59582680Y-109804200D02*
X61035560Y-111257080D01*
X53588920Y-109804200D02*
X59582680Y-109804200D01*
X52324000Y-108521500D02*
X52552600Y-108521500D01*
X52552600Y-108521500D02*
X53840380Y-107233720D01*
X59638560Y-107233720D02*
X61091440Y-108686600D01*
X53840380Y-107233720D02*
X59638560Y-107233720D01*
X52324000Y-105981500D02*
X52410360Y-105981500D01*
X52410360Y-105981500D02*
X53672740Y-104719120D01*
X59699520Y-104719120D02*
X61127000Y-106146600D01*
X53672740Y-104719120D02*
X59699520Y-104719120D01*
X52324000Y-100901500D02*
X52377340Y-100901500D01*
X52377340Y-100901500D02*
X53672740Y-99606100D01*
X59666500Y-99606100D02*
X61101600Y-101041200D01*
X53672740Y-99606100D02*
X59666500Y-99606100D01*
X52324000Y-103441500D02*
X52631340Y-103441500D01*
X52631340Y-103441500D02*
X53868320Y-102204520D01*
X59699520Y-102204520D02*
X61127000Y-103632000D01*
X53868320Y-102204520D02*
X59699520Y-102204520D01*
X52324000Y-98361500D02*
X52738020Y-98361500D01*
X52738020Y-98361500D02*
X54035960Y-97063560D01*
X59816360Y-97063560D02*
X61152400Y-98399600D01*
X54035960Y-97063560D02*
X59816360Y-97063560D01*
X52324000Y-95821500D02*
X52324000Y-95562420D01*
X52324000Y-95562420D02*
X53309520Y-94576900D01*
X59742700Y-94576900D02*
X61101600Y-95935800D01*
X53309520Y-94576900D02*
X59742700Y-94576900D01*
X52324000Y-93281500D02*
X52324000Y-93159580D01*
X52324000Y-93159580D02*
X53505100Y-91978480D01*
X59989080Y-91978480D02*
X61152400Y-93141800D01*
X53505100Y-91978480D02*
X59989080Y-91978480D01*
X52324000Y-90741500D02*
X52451000Y-90741500D01*
X52451000Y-90741500D02*
X53700680Y-89491820D01*
X59966220Y-89491820D02*
X61101600Y-90627200D01*
X53700680Y-89491820D02*
X59966220Y-89491820D01*
X52324000Y-88201500D02*
X52324000Y-88046560D01*
D27*
X52324000Y-108521500D02*
X52324000Y-111061500D01*
X52324000Y-105981500D02*
X52324000Y-108521500D01*
X52324000Y-103441500D02*
X52324000Y-105981500D01*
X52324000Y-100901500D02*
X52324000Y-103441500D01*
X52324000Y-98361500D02*
X52324000Y-100901500D01*
X52324000Y-95821500D02*
X52324000Y-98361500D01*
X52324000Y-93281500D02*
X52324000Y-95821500D01*
X52324000Y-90741500D02*
X52324000Y-93281500D01*
X52324000Y-88201500D02*
X52324000Y-90741500D01*
X58801000Y-139105640D02*
X58801000Y-143849080D01*
X58801000Y-143849080D02*
X58790840Y-143859240D01*
X58917840Y-130190240D02*
X58917840Y-134762240D01*
X58877200Y-125618240D02*
X58877200Y-130149600D01*
X58877200Y-130149600D02*
X58917840Y-130190240D01*
X61091440Y-108686600D02*
X61091440Y-111201200D01*
X61091440Y-111201200D02*
X61035560Y-111257080D01*
X61127000Y-106146600D02*
X61127000Y-108651040D01*
X61127000Y-108651040D02*
X61091440Y-108686600D01*
X61127000Y-103632000D02*
X61127000Y-106146600D01*
X61101600Y-103606600D02*
X61127000Y-103632000D01*
X61101600Y-101041200D02*
X61101600Y-103606600D01*
X61152400Y-100990400D02*
X61101600Y-101041200D01*
X61152400Y-98399600D02*
X61152400Y-100990400D01*
X61101600Y-98348800D02*
X61152400Y-98399600D01*
X61101600Y-95935800D02*
X61101600Y-98348800D01*
X61152400Y-95885000D02*
X61101600Y-95935800D01*
X61152400Y-93141800D02*
X61152400Y-95885000D01*
X61101600Y-93091000D02*
X61152400Y-93141800D01*
X61101600Y-90627200D02*
X61101600Y-93091000D01*
X61152400Y-90576400D02*
X61101600Y-90627200D01*
X61152400Y-88011000D02*
X61152400Y-90576400D01*
D29*
X58917840Y-138988800D02*
X58801000Y-139105640D01*
X58877200Y-130149600D02*
X58917840Y-130190240D01*
X61152400Y-88011000D02*
X61152400Y-87691600D01*
X82613500Y-135278500D02*
X82613500Y-134747000D01*
X98914700Y-134893800D02*
X98583000Y-134893800D01*
X104140000Y-66000000D02*
X106720000Y-66000000D01*
X106720000Y-66000000D02*
X108300000Y-65372500D01*
X104140000Y-66000000D02*
X104140000Y-66548000D01*
X125730000Y-62992000D02*
X136144000Y-62992000D01*
X136207500Y-63055500D02*
X136144000Y-62992000D01*
X136588500Y-63055500D02*
X136207500Y-63055500D01*
X137350500Y-63817500D02*
X136588500Y-63055500D01*
X84328000Y-66000000D02*
X84328000Y-66548000D01*
X110629700Y-74788400D02*
X110682400Y-74788400D01*
X53533040Y-125237240D02*
X53533040Y-124551440D01*
X53533040Y-124551440D02*
X55209440Y-122875040D01*
X55209440Y-122875040D02*
X59852560Y-122875040D01*
X59852560Y-122875040D02*
X61493400Y-121234200D01*
X89560400Y-68326000D02*
X89560400Y-68402200D01*
X89560400Y-68402200D02*
X89750900Y-68592700D01*
X84328000Y-63500000D02*
X84531200Y-63500000D01*
X84531200Y-63500000D02*
X85801200Y-64770000D01*
X86512400Y-68326000D02*
X89560400Y-68326000D01*
X85801200Y-67614800D02*
X86512400Y-68326000D01*
X85801200Y-64770000D02*
X85801200Y-67614800D01*
X95554800Y-69392800D02*
X98983800Y-69392800D01*
X99980000Y-68168000D02*
X99980000Y-65182000D01*
X98983800Y-69392800D02*
X99980000Y-68168000D01*
X92786200Y-69392800D02*
X92786200Y-69380100D01*
X90436700Y-69392800D02*
X92786200Y-69392800D01*
X89750900Y-68592700D02*
X90436700Y-69392800D01*
X92786200Y-69380100D02*
X95554800Y-69392800D01*
X99980000Y-65501000D02*
X99980000Y-65182000D01*
D28*
X117696500Y-146535000D02*
X117696500Y-146716000D01*
X117696500Y-146716000D02*
X120015000Y-149034500D01*
X120015000Y-149034500D02*
X129349500Y-149034500D01*
X129349500Y-149034500D02*
X134112000Y-144272000D01*
X105696500Y-146535000D02*
X106322000Y-146535000D01*
X106322000Y-146535000D02*
X108648500Y-143522700D01*
X108648500Y-143522700D02*
X123444000Y-143522700D01*
X135056000Y-65405000D02*
X135056000Y-67217680D01*
X144028160Y-83994600D02*
X146855700Y-86972000D01*
X144028160Y-71770240D02*
X144028160Y-83994600D01*
X143238220Y-70535800D02*
X144028160Y-71770240D01*
X138600180Y-70535800D02*
X143238220Y-70535800D01*
X135056000Y-67217680D02*
X138600180Y-70535800D01*
X146855700Y-86972000D02*
X147173200Y-93465400D01*
X147173200Y-93465400D02*
X146950700Y-93687900D01*
X134696700Y-91195900D02*
X134379200Y-87448500D01*
X134379200Y-87448500D02*
X134855700Y-86972000D01*
D27*
X62191900Y-148805900D02*
X58844180Y-148805900D01*
X58844180Y-148805900D02*
X58790840Y-148859240D01*
X65417700Y-148780500D02*
X62217300Y-148780500D01*
X62217300Y-148780500D02*
X62191900Y-148805900D01*
X53000000Y-147000000D02*
X56931600Y-147000000D01*
X56931600Y-147000000D02*
X58790840Y-148859240D01*
D28*
X143242800Y-107952800D02*
X144363440Y-110109000D01*
X144363440Y-110109000D02*
X144950700Y-112824400D01*
D27*
X148041360Y-58140600D02*
X148041360Y-54041360D01*
X148041360Y-54041360D02*
X147000000Y-53000000D01*
D28*
X147000000Y-147000000D02*
X147000000Y-146684960D01*
X147000000Y-146684960D02*
X148447760Y-145237200D01*
X148447760Y-145237200D02*
X148447760Y-142412720D01*
M02*
