M48
;DRILL file {KiCad 4.0.7} date 10/20/18 22:44:13
;FORMAT={-:-/ absolute / metric / decimal}
FMAT,2
METRIC,TZ
T1C0.400
T2C0.800
T3C0.900
T4C1.000
T5C1.100
T6C1.200
T7C1.520
T8C3.048
%
G90
G05
M71
T1
X64.374Y-129.53
X66.03Y-123.292
X67.788Y-69.962
X67.838Y-78.93
X71.323Y-128.397
X82.448Y-66.868
X137.35Y-63.817
T2
X53.416Y-63.439
X53.416Y-71.059
X53.416Y-73.269
X53.416Y-80.889
X53.533Y-117.617
X53.533Y-125.237
X53.569Y-127.752
X53.569Y-135.372
X61.036Y-111.257
X61.091Y-108.687
X61.102Y-90.627
X61.102Y-95.936
X61.102Y-101.041
X61.127Y-103.632
X61.127Y-106.147
X61.152Y-88.011
X61.152Y-93.142
X61.152Y-98.4
X63.536Y-111.257
X63.591Y-108.687
X63.602Y-90.627
X63.602Y-95.936
X63.602Y-101.041
X63.627Y-103.632
X63.627Y-106.147
X63.652Y-88.011
X63.652Y-93.142
X63.652Y-98.4
X66.944Y-139.487
X67.02Y-133.162
X67.056Y-136.322
X67.818Y-124.932
X67.818Y-127.432
X70.104Y-72.822
X70.104Y-75.322
X71.247Y-61.356
X71.303Y-64.597
X71.313Y-58.09
X74.564Y-139.487
X74.64Y-133.162
X74.676Y-136.322
X78.867Y-61.356
X78.923Y-64.597
X78.933Y-58.09
X82.614Y-132.779
X82.614Y-135.278
X84.328Y-63.5
X84.328Y-66.
X88.646Y-124.678
X88.646Y-127.178
X90.805Y-71.882
X90.805Y-74.382
X102.171Y-132.842
X102.171Y-135.342
X104.14Y-63.5
X104.14Y-66.
X109.093Y-124.678
X109.093Y-127.178
X110.744Y-72.644
X110.744Y-75.144
X129.286Y-124.424
X129.286Y-126.924
X130.721Y-72.555
X130.721Y-75.055
X145.541Y-58.141
X148.041Y-58.141
T3
X58.801Y-139.106
X58.877Y-125.618
X58.918Y-130.19
X58.918Y-134.762
X58.953Y-121.234
X59.599Y-67.615
X59.604Y-72.085
X59.654Y-63.144
X59.68Y-76.545
X59.68Y-81.117
X61.341Y-139.106
X61.417Y-125.618
X61.458Y-130.19
X61.458Y-134.762
X61.493Y-121.234
X62.139Y-67.615
X62.144Y-72.085
X62.194Y-63.144
X62.22Y-76.545
X62.22Y-81.117
T4
X52.324Y-88.201
X52.324Y-90.742
X52.324Y-93.281
X52.324Y-95.822
X52.324Y-98.361
X52.324Y-100.901
X52.324Y-103.441
X52.324Y-105.981
X52.324Y-108.521
X52.324Y-111.061
X54.864Y-88.201
X54.864Y-90.742
X54.864Y-93.281
X54.864Y-95.822
X54.864Y-98.361
X54.864Y-100.901
X54.864Y-103.441
X54.864Y-105.981
X54.864Y-108.521
X54.864Y-111.061
X68.224Y-112.061
X68.224Y-116.561
X68.224Y-121.061
X74.642Y-102.68
X74.642Y-108.283
X75.311Y-90.916
X75.311Y-96.519
X77.642Y-102.68
X77.642Y-108.283
X78.311Y-90.916
X78.311Y-96.519
X80.642Y-102.68
X80.642Y-108.283
X81.311Y-90.916
X81.311Y-96.519
X83.642Y-102.68
X83.642Y-108.283
X84.311Y-90.916
X84.311Y-96.519
X88.392Y-112.01
X88.392Y-116.51
X88.392Y-121.01
X89.967Y-77.91
X89.967Y-82.41
X89.967Y-86.91
X94.949Y-102.959
X94.949Y-108.562
X95.123Y-90.98
X95.123Y-96.583
X97.949Y-102.959
X97.949Y-108.562
X98.123Y-90.98
X98.123Y-96.583
X100.949Y-102.959
X100.949Y-108.562
X101.123Y-90.98
X101.123Y-96.583
X103.949Y-102.959
X103.949Y-108.562
X104.123Y-90.98
X104.123Y-96.583
X108.839Y-111.629
X108.839Y-116.129
X108.839Y-120.629
X110.028Y-78.817
X110.028Y-83.317
X110.028Y-87.817
X114.596Y-102.426
X114.596Y-108.029
X115.151Y-91.12
X115.151Y-96.723
X117.596Y-102.426
X117.596Y-108.029
X118.151Y-91.12
X118.151Y-96.723
X120.596Y-102.426
X120.596Y-108.029
X121.151Y-91.12
X121.151Y-96.723
X123.596Y-102.426
X123.596Y-108.029
X124.151Y-91.12
X124.151Y-96.723
X126.056Y-65.405
X129.032Y-111.502
X129.032Y-116.002
X129.032Y-120.502
X130.145Y-78.817
X130.145Y-83.317
X130.145Y-87.817
X130.556Y-65.405
X134.243Y-102.35
X134.243Y-107.953
X134.697Y-91.196
X134.697Y-96.799
X135.056Y-65.405
X137.243Y-102.35
X137.243Y-107.953
X137.697Y-91.196
X137.697Y-96.799
X140.243Y-102.35
X140.243Y-107.953
X140.697Y-91.196
X140.697Y-96.799
X143.243Y-102.35
X143.243Y-107.953
X143.697Y-91.196
X143.697Y-96.799
T5
X72.359Y-112.596
X72.359Y-124.796
X74.137Y-74.2
X74.137Y-86.4
X78.359Y-126.796
X80.137Y-72.2
X84.359Y-112.596
X84.359Y-124.796
X86.137Y-74.2
X86.137Y-86.4
X86.583Y-134.894
X86.583Y-147.094
X87.98Y-52.982
X87.98Y-65.182
X92.583Y-132.894
X92.628Y-112.992
X92.628Y-125.192
X93.98Y-67.182
X94.673Y-74.289
X94.673Y-86.489
X98.583Y-134.894
X98.583Y-147.094
X98.628Y-127.192
X99.98Y-52.982
X99.98Y-65.182
X100.673Y-72.289
X104.628Y-112.992
X104.628Y-125.192
X105.697Y-134.335
X105.697Y-146.535
X106.673Y-74.289
X106.673Y-86.489
X108.3Y-53.172
X108.3Y-65.373
X111.697Y-132.335
X112.872Y-112.596
X112.872Y-124.796
X114.3Y-67.373
X114.675Y-74.823
X114.675Y-87.023
X117.697Y-134.335
X117.697Y-146.535
X118.872Y-126.796
X120.3Y-53.172
X120.3Y-65.373
X120.675Y-72.823
X124.872Y-112.596
X124.872Y-124.796
X126.675Y-74.823
X126.675Y-87.023
X132.951Y-112.824
X132.951Y-125.024
X134.856Y-74.772
X134.856Y-86.972
X138.951Y-127.024
X140.856Y-72.772
X144.951Y-112.824
X144.951Y-125.024
X146.856Y-74.772
X146.856Y-86.972
T6
X58.791Y-143.859
X58.791Y-148.859
X62.192Y-143.806
X62.192Y-148.806
X65.418Y-143.78
X65.418Y-148.78
X71.388Y-105.791
X71.945Y-93.408
X87.008Y-105.791
X87.566Y-93.408
X91.695Y-106.07
X91.757Y-93.472
X107.315Y-106.07
X107.377Y-93.472
X111.342Y-105.537
X111.785Y-93.612
X126.962Y-105.537
X127.405Y-93.612
X130.989Y-105.461
X131.331Y-93.688
X143.448Y-142.413
X146.609Y-105.461
X146.951Y-93.688
X148.448Y-142.413
T7
X123.444Y-144.208
X125.232Y-55.992
X128.524Y-144.208
X130.312Y-55.992
X134.112Y-144.272
X135.6Y-55.992
X139.192Y-144.272
X140.68Y-55.992
X142.875Y-62.738
X142.875Y-67.818
X143.32Y-132.588
X143.32Y-137.668
T8
X53.Y-53.
X53.Y-147.
X147.Y-53.
X147.Y-147.
T0
M30
