G04 #@! TF.FileFunction,Legend,Top*
%FSLAX46Y46*%
G04 Gerber Fmt 4.6, Leading zero omitted, Abs format (unit mm)*
G04 Created by KiCad (PCBNEW 4.0.7) date 09/11/18 09:27:50*
%MOMM*%
%LPD*%
G01*
G04 APERTURE LIST*
%ADD10C,0.100000*%
%ADD11C,0.150000*%
%ADD12C,0.120000*%
%ADD13C,0.200000*%
%ADD14C,0.040000*%
G04 APERTURE END LIST*
D10*
D11*
X115601715Y-54681381D02*
X115030286Y-54681381D01*
X115316000Y-54681381D02*
X115316000Y-53681381D01*
X115220762Y-53824238D01*
X115125524Y-53919476D01*
X115030286Y-53967095D01*
X56650381Y-65380976D02*
X56174190Y-65714310D01*
X56650381Y-65952405D02*
X55650381Y-65952405D01*
X55650381Y-65571452D01*
X55698000Y-65476214D01*
X55745619Y-65428595D01*
X55840857Y-65380976D01*
X55983714Y-65380976D01*
X56078952Y-65428595D01*
X56126571Y-65476214D01*
X56174190Y-65571452D01*
X56174190Y-65952405D01*
X56126571Y-64619071D02*
X56126571Y-64952405D01*
X56650381Y-64952405D02*
X55650381Y-64952405D01*
X55650381Y-64476214D01*
X55602762Y-63380976D02*
X56888476Y-64238119D01*
X56650381Y-63047643D02*
X55650381Y-63047643D01*
X56650381Y-62476214D01*
X55650381Y-62476214D01*
X55650381Y-61809548D02*
X55650381Y-61619071D01*
X55698000Y-61523833D01*
X55793238Y-61428595D01*
X55983714Y-61380976D01*
X56317048Y-61380976D01*
X56507524Y-61428595D01*
X56602762Y-61523833D01*
X56650381Y-61619071D01*
X56650381Y-61809548D01*
X56602762Y-61904786D01*
X56507524Y-62000024D01*
X56317048Y-62047643D01*
X55983714Y-62047643D01*
X55793238Y-62000024D01*
X55698000Y-61904786D01*
X55650381Y-61809548D01*
X58300381Y-65357167D02*
X57300381Y-65357167D01*
X57300381Y-64976214D01*
X57348000Y-64880976D01*
X57395619Y-64833357D01*
X57490857Y-64785738D01*
X57633714Y-64785738D01*
X57728952Y-64833357D01*
X57776571Y-64880976D01*
X57824190Y-64976214D01*
X57824190Y-65357167D01*
X57300381Y-64166691D02*
X57300381Y-63976214D01*
X57348000Y-63880976D01*
X57443238Y-63785738D01*
X57633714Y-63738119D01*
X57967048Y-63738119D01*
X58157524Y-63785738D01*
X58252762Y-63880976D01*
X58300381Y-63976214D01*
X58300381Y-64166691D01*
X58252762Y-64261929D01*
X58157524Y-64357167D01*
X57967048Y-64404786D01*
X57633714Y-64404786D01*
X57443238Y-64357167D01*
X57348000Y-64261929D01*
X57300381Y-64166691D01*
X58300381Y-62738119D02*
X57824190Y-63071453D01*
X58300381Y-63309548D02*
X57300381Y-63309548D01*
X57300381Y-62928595D01*
X57348000Y-62833357D01*
X57395619Y-62785738D01*
X57490857Y-62738119D01*
X57633714Y-62738119D01*
X57728952Y-62785738D01*
X57776571Y-62833357D01*
X57824190Y-62928595D01*
X57824190Y-63309548D01*
X57300381Y-62452405D02*
X57300381Y-61880976D01*
X58300381Y-62166691D02*
X57300381Y-62166691D01*
X51006953Y-80780000D02*
X50911715Y-80732381D01*
X50768858Y-80732381D01*
X50626000Y-80780000D01*
X50530762Y-80875238D01*
X50483143Y-80970476D01*
X50435524Y-81160952D01*
X50435524Y-81303810D01*
X50483143Y-81494286D01*
X50530762Y-81589524D01*
X50626000Y-81684762D01*
X50768858Y-81732381D01*
X50864096Y-81732381D01*
X51006953Y-81684762D01*
X51054572Y-81637143D01*
X51054572Y-81303810D01*
X50864096Y-81303810D01*
X51483143Y-81732381D02*
X51483143Y-80732381D01*
X52054572Y-81732381D01*
X52054572Y-80732381D01*
X52530762Y-81732381D02*
X52530762Y-80732381D01*
X52768857Y-80732381D01*
X52911715Y-80780000D01*
X53006953Y-80875238D01*
X53054572Y-80970476D01*
X53102191Y-81160952D01*
X53102191Y-81303810D01*
X53054572Y-81494286D01*
X53006953Y-81589524D01*
X52911715Y-81684762D01*
X52768857Y-81732381D01*
X52530762Y-81732381D01*
X54245048Y-80684762D02*
X53387905Y-81970476D01*
X54768857Y-80732381D02*
X54959334Y-80732381D01*
X55054572Y-80780000D01*
X55149810Y-80875238D01*
X55197429Y-81065714D01*
X55197429Y-81399048D01*
X55149810Y-81589524D01*
X55054572Y-81684762D01*
X54959334Y-81732381D01*
X54768857Y-81732381D01*
X54673619Y-81684762D01*
X54578381Y-81589524D01*
X54530762Y-81399048D01*
X54530762Y-81065714D01*
X54578381Y-80875238D01*
X54673619Y-80780000D01*
X54768857Y-80732381D01*
X55626000Y-80732381D02*
X55626000Y-81541905D01*
X55673619Y-81637143D01*
X55721238Y-81684762D01*
X55816476Y-81732381D01*
X56006953Y-81732381D01*
X56102191Y-81684762D01*
X56149810Y-81637143D01*
X56197429Y-81541905D01*
X56197429Y-80732381D01*
X56530762Y-80732381D02*
X57102191Y-80732381D01*
X56816476Y-81732381D02*
X56816476Y-80732381D01*
X57435524Y-81732381D02*
X57435524Y-80732381D01*
X57816477Y-80732381D01*
X57911715Y-80780000D01*
X57959334Y-80827619D01*
X58006953Y-80922857D01*
X58006953Y-81065714D01*
X57959334Y-81160952D01*
X57911715Y-81208571D01*
X57816477Y-81256190D01*
X57435524Y-81256190D01*
X58626000Y-80732381D02*
X58816477Y-80732381D01*
X58911715Y-80780000D01*
X59006953Y-80875238D01*
X59054572Y-81065714D01*
X59054572Y-81399048D01*
X59006953Y-81589524D01*
X58911715Y-81684762D01*
X58816477Y-81732381D01*
X58626000Y-81732381D01*
X58530762Y-81684762D01*
X58435524Y-81589524D01*
X58387905Y-81399048D01*
X58387905Y-81065714D01*
X58435524Y-80875238D01*
X58530762Y-80780000D01*
X58626000Y-80732381D01*
X60054572Y-81732381D02*
X59721238Y-81256190D01*
X59483143Y-81732381D02*
X59483143Y-80732381D01*
X59864096Y-80732381D01*
X59959334Y-80780000D01*
X60006953Y-80827619D01*
X60054572Y-80922857D01*
X60054572Y-81065714D01*
X60006953Y-81160952D01*
X59959334Y-81208571D01*
X59864096Y-81256190D01*
X59483143Y-81256190D01*
X60340286Y-80732381D02*
X60911715Y-80732381D01*
X60626000Y-81732381D02*
X60626000Y-80732381D01*
X51014810Y-70048381D02*
X50681476Y-69572190D01*
X50443381Y-70048381D02*
X50443381Y-69048381D01*
X50824334Y-69048381D01*
X50919572Y-69096000D01*
X50967191Y-69143619D01*
X51014810Y-69238857D01*
X51014810Y-69381714D01*
X50967191Y-69476952D01*
X50919572Y-69524571D01*
X50824334Y-69572190D01*
X50443381Y-69572190D01*
X51776715Y-69524571D02*
X51443381Y-69524571D01*
X51443381Y-70048381D02*
X51443381Y-69048381D01*
X51919572Y-69048381D01*
X53014810Y-69000762D02*
X52157667Y-70286476D01*
X53538619Y-69048381D02*
X53729096Y-69048381D01*
X53824334Y-69096000D01*
X53919572Y-69191238D01*
X53967191Y-69381714D01*
X53967191Y-69715048D01*
X53919572Y-69905524D01*
X53824334Y-70000762D01*
X53729096Y-70048381D01*
X53538619Y-70048381D01*
X53443381Y-70000762D01*
X53348143Y-69905524D01*
X53300524Y-69715048D01*
X53300524Y-69381714D01*
X53348143Y-69191238D01*
X53443381Y-69096000D01*
X53538619Y-69048381D01*
X54395762Y-69048381D02*
X54395762Y-69857905D01*
X54443381Y-69953143D01*
X54491000Y-70000762D01*
X54586238Y-70048381D01*
X54776715Y-70048381D01*
X54871953Y-70000762D01*
X54919572Y-69953143D01*
X54967191Y-69857905D01*
X54967191Y-69048381D01*
X55300524Y-69048381D02*
X55871953Y-69048381D01*
X55586238Y-70048381D02*
X55586238Y-69048381D01*
X56205286Y-70048381D02*
X56205286Y-69048381D01*
X56586239Y-69048381D01*
X56681477Y-69096000D01*
X56729096Y-69143619D01*
X56776715Y-69238857D01*
X56776715Y-69381714D01*
X56729096Y-69476952D01*
X56681477Y-69524571D01*
X56586239Y-69572190D01*
X56205286Y-69572190D01*
X57395762Y-69048381D02*
X57586239Y-69048381D01*
X57681477Y-69096000D01*
X57776715Y-69191238D01*
X57824334Y-69381714D01*
X57824334Y-69715048D01*
X57776715Y-69905524D01*
X57681477Y-70000762D01*
X57586239Y-70048381D01*
X57395762Y-70048381D01*
X57300524Y-70000762D01*
X57205286Y-69905524D01*
X57157667Y-69715048D01*
X57157667Y-69381714D01*
X57205286Y-69191238D01*
X57300524Y-69096000D01*
X57395762Y-69048381D01*
X58824334Y-70048381D02*
X58491000Y-69572190D01*
X58252905Y-70048381D02*
X58252905Y-69048381D01*
X58633858Y-69048381D01*
X58729096Y-69096000D01*
X58776715Y-69143619D01*
X58824334Y-69238857D01*
X58824334Y-69381714D01*
X58776715Y-69476952D01*
X58729096Y-69524571D01*
X58633858Y-69572190D01*
X58252905Y-69572190D01*
X59110048Y-69048381D02*
X59681477Y-69048381D01*
X59395762Y-70048381D02*
X59395762Y-69048381D01*
X50919477Y-122880381D02*
X50586143Y-122404190D01*
X50348048Y-122880381D02*
X50348048Y-121880381D01*
X50729001Y-121880381D01*
X50824239Y-121928000D01*
X50871858Y-121975619D01*
X50919477Y-122070857D01*
X50919477Y-122213714D01*
X50871858Y-122308952D01*
X50824239Y-122356571D01*
X50729001Y-122404190D01*
X50348048Y-122404190D01*
X51681382Y-122356571D02*
X51348048Y-122356571D01*
X51348048Y-122880381D02*
X51348048Y-121880381D01*
X51824239Y-121880381D01*
X52919477Y-121832762D02*
X52062334Y-123118476D01*
X53252810Y-122880381D02*
X53252810Y-121880381D01*
X53729000Y-122880381D02*
X53729000Y-121880381D01*
X54300429Y-122880381D01*
X54300429Y-121880381D01*
X54776619Y-122880381D02*
X54776619Y-121880381D01*
X55157572Y-121880381D01*
X55252810Y-121928000D01*
X55300429Y-121975619D01*
X55348048Y-122070857D01*
X55348048Y-122213714D01*
X55300429Y-122308952D01*
X55252810Y-122356571D01*
X55157572Y-122404190D01*
X54776619Y-122404190D01*
X55967095Y-121880381D02*
X56157572Y-121880381D01*
X56252810Y-121928000D01*
X56348048Y-122023238D01*
X56395667Y-122213714D01*
X56395667Y-122547048D01*
X56348048Y-122737524D01*
X56252810Y-122832762D01*
X56157572Y-122880381D01*
X55967095Y-122880381D01*
X55871857Y-122832762D01*
X55776619Y-122737524D01*
X55729000Y-122547048D01*
X55729000Y-122213714D01*
X55776619Y-122023238D01*
X55871857Y-121928000D01*
X55967095Y-121880381D01*
X57395667Y-122880381D02*
X57062333Y-122404190D01*
X56824238Y-122880381D02*
X56824238Y-121880381D01*
X57205191Y-121880381D01*
X57300429Y-121928000D01*
X57348048Y-121975619D01*
X57395667Y-122070857D01*
X57395667Y-122213714D01*
X57348048Y-122308952D01*
X57300429Y-122356571D01*
X57205191Y-122404190D01*
X56824238Y-122404190D01*
X57681381Y-121880381D02*
X58252810Y-121880381D01*
X57967095Y-122880381D02*
X57967095Y-121880381D01*
X56142381Y-144692476D02*
X55666190Y-145025810D01*
X56142381Y-145263905D02*
X55142381Y-145263905D01*
X55142381Y-144882952D01*
X55190000Y-144787714D01*
X55237619Y-144740095D01*
X55332857Y-144692476D01*
X55475714Y-144692476D01*
X55570952Y-144740095D01*
X55618571Y-144787714D01*
X55666190Y-144882952D01*
X55666190Y-145263905D01*
X55618571Y-143930571D02*
X55618571Y-144263905D01*
X56142381Y-144263905D02*
X55142381Y-144263905D01*
X55142381Y-143787714D01*
X55094762Y-142692476D02*
X56380476Y-143549619D01*
X56142381Y-142359143D02*
X55142381Y-142359143D01*
X56142381Y-141787714D01*
X55142381Y-141787714D01*
X55142381Y-141121048D02*
X55142381Y-140930571D01*
X55190000Y-140835333D01*
X55285238Y-140740095D01*
X55475714Y-140692476D01*
X55809048Y-140692476D01*
X55999524Y-140740095D01*
X56094762Y-140835333D01*
X56142381Y-140930571D01*
X56142381Y-141121048D01*
X56094762Y-141216286D01*
X55999524Y-141311524D01*
X55809048Y-141359143D01*
X55475714Y-141359143D01*
X55285238Y-141311524D01*
X55190000Y-141216286D01*
X55142381Y-141121048D01*
X57792381Y-144668667D02*
X56792381Y-144668667D01*
X56792381Y-144287714D01*
X56840000Y-144192476D01*
X56887619Y-144144857D01*
X56982857Y-144097238D01*
X57125714Y-144097238D01*
X57220952Y-144144857D01*
X57268571Y-144192476D01*
X57316190Y-144287714D01*
X57316190Y-144668667D01*
X56792381Y-143478191D02*
X56792381Y-143287714D01*
X56840000Y-143192476D01*
X56935238Y-143097238D01*
X57125714Y-143049619D01*
X57459048Y-143049619D01*
X57649524Y-143097238D01*
X57744762Y-143192476D01*
X57792381Y-143287714D01*
X57792381Y-143478191D01*
X57744762Y-143573429D01*
X57649524Y-143668667D01*
X57459048Y-143716286D01*
X57125714Y-143716286D01*
X56935238Y-143668667D01*
X56840000Y-143573429D01*
X56792381Y-143478191D01*
X57792381Y-142049619D02*
X57316190Y-142382953D01*
X57792381Y-142621048D02*
X56792381Y-142621048D01*
X56792381Y-142240095D01*
X56840000Y-142144857D01*
X56887619Y-142097238D01*
X56982857Y-142049619D01*
X57125714Y-142049619D01*
X57220952Y-142097238D01*
X57268571Y-142144857D01*
X57316190Y-142240095D01*
X57316190Y-142621048D01*
X56792381Y-141763905D02*
X56792381Y-141192476D01*
X57792381Y-141478191D02*
X56792381Y-141478191D01*
X50800429Y-134120000D02*
X50705191Y-134072381D01*
X50562334Y-134072381D01*
X50419476Y-134120000D01*
X50324238Y-134215238D01*
X50276619Y-134310476D01*
X50229000Y-134500952D01*
X50229000Y-134643810D01*
X50276619Y-134834286D01*
X50324238Y-134929524D01*
X50419476Y-135024762D01*
X50562334Y-135072381D01*
X50657572Y-135072381D01*
X50800429Y-135024762D01*
X50848048Y-134977143D01*
X50848048Y-134643810D01*
X50657572Y-134643810D01*
X51276619Y-135072381D02*
X51276619Y-134072381D01*
X51514714Y-134072381D01*
X51657572Y-134120000D01*
X51752810Y-134215238D01*
X51800429Y-134310476D01*
X51848048Y-134500952D01*
X51848048Y-134643810D01*
X51800429Y-134834286D01*
X51752810Y-134929524D01*
X51657572Y-135024762D01*
X51514714Y-135072381D01*
X51276619Y-135072381D01*
X52990905Y-134024762D02*
X52133762Y-135310476D01*
X53324238Y-135072381D02*
X53324238Y-134072381D01*
X53800428Y-135072381D02*
X53800428Y-134072381D01*
X54371857Y-135072381D01*
X54371857Y-134072381D01*
X54848047Y-135072381D02*
X54848047Y-134072381D01*
X55229000Y-134072381D01*
X55324238Y-134120000D01*
X55371857Y-134167619D01*
X55419476Y-134262857D01*
X55419476Y-134405714D01*
X55371857Y-134500952D01*
X55324238Y-134548571D01*
X55229000Y-134596190D01*
X54848047Y-134596190D01*
X56038523Y-134072381D02*
X56229000Y-134072381D01*
X56324238Y-134120000D01*
X56419476Y-134215238D01*
X56467095Y-134405714D01*
X56467095Y-134739048D01*
X56419476Y-134929524D01*
X56324238Y-135024762D01*
X56229000Y-135072381D01*
X56038523Y-135072381D01*
X55943285Y-135024762D01*
X55848047Y-134929524D01*
X55800428Y-134739048D01*
X55800428Y-134405714D01*
X55848047Y-134215238D01*
X55943285Y-134120000D01*
X56038523Y-134072381D01*
X57467095Y-135072381D02*
X57133761Y-134596190D01*
X56895666Y-135072381D02*
X56895666Y-134072381D01*
X57276619Y-134072381D01*
X57371857Y-134120000D01*
X57419476Y-134167619D01*
X57467095Y-134262857D01*
X57467095Y-134405714D01*
X57419476Y-134500952D01*
X57371857Y-134548571D01*
X57276619Y-134596190D01*
X56895666Y-134596190D01*
X57752809Y-134072381D02*
X58324238Y-134072381D01*
X58038523Y-135072381D02*
X58038523Y-134072381D01*
X56015381Y-139588666D02*
X55539190Y-139922000D01*
X56015381Y-140160095D02*
X55015381Y-140160095D01*
X55015381Y-139779142D01*
X55063000Y-139683904D01*
X55110619Y-139636285D01*
X55205857Y-139588666D01*
X55348714Y-139588666D01*
X55443952Y-139636285D01*
X55491571Y-139683904D01*
X55539190Y-139779142D01*
X55539190Y-140160095D01*
X55491571Y-138826761D02*
X55491571Y-139160095D01*
X56015381Y-139160095D02*
X55015381Y-139160095D01*
X55015381Y-138683904D01*
X54967762Y-137588666D02*
X56253476Y-138445809D01*
X56015381Y-137255333D02*
X55015381Y-137255333D01*
X56015381Y-136683904D01*
X55015381Y-136683904D01*
X55920143Y-135636285D02*
X55967762Y-135683904D01*
X56015381Y-135826761D01*
X56015381Y-135921999D01*
X55967762Y-136064857D01*
X55872524Y-136160095D01*
X55777286Y-136207714D01*
X55586810Y-136255333D01*
X55443952Y-136255333D01*
X55253476Y-136207714D01*
X55158238Y-136160095D01*
X55063000Y-136064857D01*
X55015381Y-135921999D01*
X55015381Y-135826761D01*
X55063000Y-135683904D01*
X55110619Y-135636285D01*
X57665381Y-139588667D02*
X56665381Y-139588667D01*
X56665381Y-139207714D01*
X56713000Y-139112476D01*
X56760619Y-139064857D01*
X56855857Y-139017238D01*
X56998714Y-139017238D01*
X57093952Y-139064857D01*
X57141571Y-139112476D01*
X57189190Y-139207714D01*
X57189190Y-139588667D01*
X56665381Y-138398191D02*
X56665381Y-138207714D01*
X56713000Y-138112476D01*
X56808238Y-138017238D01*
X56998714Y-137969619D01*
X57332048Y-137969619D01*
X57522524Y-138017238D01*
X57617762Y-138112476D01*
X57665381Y-138207714D01*
X57665381Y-138398191D01*
X57617762Y-138493429D01*
X57522524Y-138588667D01*
X57332048Y-138636286D01*
X56998714Y-138636286D01*
X56808238Y-138588667D01*
X56713000Y-138493429D01*
X56665381Y-138398191D01*
X57665381Y-136969619D02*
X57189190Y-137302953D01*
X57665381Y-137541048D02*
X56665381Y-137541048D01*
X56665381Y-137160095D01*
X56713000Y-137064857D01*
X56760619Y-137017238D01*
X56855857Y-136969619D01*
X56998714Y-136969619D01*
X57093952Y-137017238D01*
X57141571Y-137064857D01*
X57189190Y-137160095D01*
X57189190Y-137541048D01*
X56665381Y-136683905D02*
X56665381Y-136112476D01*
X57665381Y-136398191D02*
X56665381Y-136398191D01*
X56205881Y-58181666D02*
X55729690Y-58515000D01*
X56205881Y-58753095D02*
X55205881Y-58753095D01*
X55205881Y-58372142D01*
X55253500Y-58276904D01*
X55301119Y-58229285D01*
X55396357Y-58181666D01*
X55539214Y-58181666D01*
X55634452Y-58229285D01*
X55682071Y-58276904D01*
X55729690Y-58372142D01*
X55729690Y-58753095D01*
X55682071Y-57419761D02*
X55682071Y-57753095D01*
X56205881Y-57753095D02*
X55205881Y-57753095D01*
X55205881Y-57276904D01*
X55158262Y-56181666D02*
X56443976Y-57038809D01*
X56205881Y-55848333D02*
X55205881Y-55848333D01*
X56205881Y-55276904D01*
X55205881Y-55276904D01*
X56110643Y-54229285D02*
X56158262Y-54276904D01*
X56205881Y-54419761D01*
X56205881Y-54514999D01*
X56158262Y-54657857D01*
X56063024Y-54753095D01*
X55967786Y-54800714D01*
X55777310Y-54848333D01*
X55634452Y-54848333D01*
X55443976Y-54800714D01*
X55348738Y-54753095D01*
X55253500Y-54657857D01*
X55205881Y-54514999D01*
X55205881Y-54419761D01*
X55253500Y-54276904D01*
X55301119Y-54229285D01*
X57855881Y-58181667D02*
X56855881Y-58181667D01*
X56855881Y-57800714D01*
X56903500Y-57705476D01*
X56951119Y-57657857D01*
X57046357Y-57610238D01*
X57189214Y-57610238D01*
X57284452Y-57657857D01*
X57332071Y-57705476D01*
X57379690Y-57800714D01*
X57379690Y-58181667D01*
X56855881Y-56991191D02*
X56855881Y-56800714D01*
X56903500Y-56705476D01*
X56998738Y-56610238D01*
X57189214Y-56562619D01*
X57522548Y-56562619D01*
X57713024Y-56610238D01*
X57808262Y-56705476D01*
X57855881Y-56800714D01*
X57855881Y-56991191D01*
X57808262Y-57086429D01*
X57713024Y-57181667D01*
X57522548Y-57229286D01*
X57189214Y-57229286D01*
X56998738Y-57181667D01*
X56903500Y-57086429D01*
X56855881Y-56991191D01*
X57855881Y-55562619D02*
X57379690Y-55895953D01*
X57855881Y-56134048D02*
X56855881Y-56134048D01*
X56855881Y-55753095D01*
X56903500Y-55657857D01*
X56951119Y-55610238D01*
X57046357Y-55562619D01*
X57189214Y-55562619D01*
X57284452Y-55610238D01*
X57332071Y-55657857D01*
X57379690Y-55753095D01*
X57379690Y-56134048D01*
X56855881Y-55276905D02*
X56855881Y-54705476D01*
X57855881Y-54991191D02*
X56855881Y-54991191D01*
X129175666Y-66636381D02*
X129175666Y-67445905D01*
X129223285Y-67541143D01*
X129270904Y-67588762D01*
X129366142Y-67636381D01*
X129556619Y-67636381D01*
X129651857Y-67588762D01*
X129699476Y-67541143D01*
X129747095Y-67445905D01*
X129747095Y-66636381D01*
X130223285Y-67636381D02*
X130223285Y-66636381D01*
X130794714Y-67636381D01*
X130794714Y-66636381D01*
X131270904Y-67636381D02*
X131270904Y-66636381D01*
X131604237Y-66636381D02*
X131937570Y-67636381D01*
X132270904Y-66636381D01*
X132604237Y-67112571D02*
X132937571Y-67112571D01*
X133080428Y-67636381D02*
X132604237Y-67636381D01*
X132604237Y-66636381D01*
X133080428Y-66636381D01*
X134080428Y-67636381D02*
X133747094Y-67160190D01*
X133508999Y-67636381D02*
X133508999Y-66636381D01*
X133889952Y-66636381D01*
X133985190Y-66684000D01*
X134032809Y-66731619D01*
X134080428Y-66826857D01*
X134080428Y-66969714D01*
X134032809Y-67064952D01*
X133985190Y-67112571D01*
X133889952Y-67160190D01*
X133508999Y-67160190D01*
X134461380Y-67588762D02*
X134604237Y-67636381D01*
X134842333Y-67636381D01*
X134937571Y-67588762D01*
X134985190Y-67541143D01*
X135032809Y-67445905D01*
X135032809Y-67350667D01*
X134985190Y-67255429D01*
X134937571Y-67207810D01*
X134842333Y-67160190D01*
X134651856Y-67112571D01*
X134556618Y-67064952D01*
X134508999Y-67017333D01*
X134461380Y-66922095D01*
X134461380Y-66826857D01*
X134508999Y-66731619D01*
X134556618Y-66684000D01*
X134651856Y-66636381D01*
X134889952Y-66636381D01*
X135032809Y-66684000D01*
X135413761Y-67350667D02*
X135889952Y-67350667D01*
X135318523Y-67636381D02*
X135651856Y-66636381D01*
X135985190Y-67636381D01*
X136794714Y-67636381D02*
X136318523Y-67636381D01*
X136318523Y-66636381D01*
X138461381Y-67636381D02*
X138128047Y-67160190D01*
X137889952Y-67636381D02*
X137889952Y-66636381D01*
X138270905Y-66636381D01*
X138366143Y-66684000D01*
X138413762Y-66731619D01*
X138461381Y-66826857D01*
X138461381Y-66969714D01*
X138413762Y-67064952D01*
X138366143Y-67112571D01*
X138270905Y-67160190D01*
X137889952Y-67160190D01*
X138889952Y-67112571D02*
X139223286Y-67112571D01*
X139366143Y-67636381D02*
X138889952Y-67636381D01*
X138889952Y-66636381D01*
X139366143Y-66636381D01*
X140270905Y-67636381D02*
X139794714Y-67636381D01*
X139794714Y-66636381D01*
X140556619Y-67350667D02*
X141032810Y-67350667D01*
X140461381Y-67636381D02*
X140794714Y-66636381D01*
X141128048Y-67636381D01*
X141651857Y-67160190D02*
X141651857Y-67636381D01*
X141318524Y-66636381D02*
X141651857Y-67160190D01*
X141985191Y-66636381D01*
X132318524Y-68762571D02*
X132461381Y-68810190D01*
X132509000Y-68857810D01*
X132556619Y-68953048D01*
X132556619Y-69095905D01*
X132509000Y-69191143D01*
X132461381Y-69238762D01*
X132366143Y-69286381D01*
X131985190Y-69286381D01*
X131985190Y-68286381D01*
X132318524Y-68286381D01*
X132413762Y-68334000D01*
X132461381Y-68381619D01*
X132509000Y-68476857D01*
X132509000Y-68572095D01*
X132461381Y-68667333D01*
X132413762Y-68714952D01*
X132318524Y-68762571D01*
X131985190Y-68762571D01*
X133175666Y-68286381D02*
X133366143Y-68286381D01*
X133461381Y-68334000D01*
X133556619Y-68429238D01*
X133604238Y-68619714D01*
X133604238Y-68953048D01*
X133556619Y-69143524D01*
X133461381Y-69238762D01*
X133366143Y-69286381D01*
X133175666Y-69286381D01*
X133080428Y-69238762D01*
X132985190Y-69143524D01*
X132937571Y-68953048D01*
X132937571Y-68619714D01*
X132985190Y-68429238D01*
X133080428Y-68334000D01*
X133175666Y-68286381D01*
X133985190Y-69000667D02*
X134461381Y-69000667D01*
X133889952Y-69286381D02*
X134223285Y-68286381D01*
X134556619Y-69286381D01*
X135461381Y-69286381D02*
X135128047Y-68810190D01*
X134889952Y-69286381D02*
X134889952Y-68286381D01*
X135270905Y-68286381D01*
X135366143Y-68334000D01*
X135413762Y-68381619D01*
X135461381Y-68476857D01*
X135461381Y-68619714D01*
X135413762Y-68714952D01*
X135366143Y-68762571D01*
X135270905Y-68810190D01*
X134889952Y-68810190D01*
X135889952Y-69286381D02*
X135889952Y-68286381D01*
X136128047Y-68286381D01*
X136270905Y-68334000D01*
X136366143Y-68429238D01*
X136413762Y-68524476D01*
X136461381Y-68714952D01*
X136461381Y-68857810D01*
X136413762Y-69048286D01*
X136366143Y-69143524D01*
X136270905Y-69238762D01*
X136128047Y-69286381D01*
X135889952Y-69286381D01*
X137985191Y-68762571D02*
X138128048Y-68810190D01*
X138175667Y-68857810D01*
X138223286Y-68953048D01*
X138223286Y-69095905D01*
X138175667Y-69191143D01*
X138128048Y-69238762D01*
X138032810Y-69286381D01*
X137651857Y-69286381D01*
X137651857Y-68286381D01*
X137985191Y-68286381D01*
X138080429Y-68334000D01*
X138128048Y-68381619D01*
X138175667Y-68476857D01*
X138175667Y-68572095D01*
X138128048Y-68667333D01*
X138080429Y-68714952D01*
X137985191Y-68762571D01*
X137651857Y-68762571D01*
X138842333Y-68810190D02*
X138842333Y-69286381D01*
X138509000Y-68286381D02*
X138842333Y-68810190D01*
X139175667Y-68286381D01*
X129842333Y-70936381D02*
X129842333Y-69936381D01*
X130080428Y-69936381D01*
X130223286Y-69984000D01*
X130318524Y-70079238D01*
X130366143Y-70174476D01*
X130413762Y-70364952D01*
X130413762Y-70507810D01*
X130366143Y-70698286D01*
X130318524Y-70793524D01*
X130223286Y-70888762D01*
X130080428Y-70936381D01*
X129842333Y-70936381D01*
X131604238Y-70936381D02*
X131604238Y-69936381D01*
X131937572Y-70650667D01*
X132270905Y-69936381D01*
X132270905Y-70936381D01*
X132699476Y-70650667D02*
X133175667Y-70650667D01*
X132604238Y-70936381D02*
X132937571Y-69936381D01*
X133270905Y-70936381D01*
X134175667Y-70936381D02*
X133842333Y-70460190D01*
X133604238Y-70936381D02*
X133604238Y-69936381D01*
X133985191Y-69936381D01*
X134080429Y-69984000D01*
X134128048Y-70031619D01*
X134175667Y-70126857D01*
X134175667Y-70269714D01*
X134128048Y-70364952D01*
X134080429Y-70412571D01*
X133985191Y-70460190D01*
X133604238Y-70460190D01*
X134604238Y-70936381D02*
X134604238Y-69936381D01*
X135175667Y-70936381D02*
X134747095Y-70364952D01*
X135175667Y-69936381D02*
X134604238Y-70507810D01*
X135556619Y-70888762D02*
X135699476Y-70936381D01*
X135937572Y-70936381D01*
X136032810Y-70888762D01*
X136080429Y-70841143D01*
X136128048Y-70745905D01*
X136128048Y-70650667D01*
X136080429Y-70555429D01*
X136032810Y-70507810D01*
X135937572Y-70460190D01*
X135747095Y-70412571D01*
X135651857Y-70364952D01*
X135604238Y-70317333D01*
X135556619Y-70222095D01*
X135556619Y-70126857D01*
X135604238Y-70031619D01*
X135651857Y-69984000D01*
X135747095Y-69936381D01*
X135985191Y-69936381D01*
X136128048Y-69984000D01*
X137318524Y-70936381D02*
X137318524Y-69936381D01*
X137889953Y-70936381D02*
X137461381Y-70364952D01*
X137889953Y-69936381D02*
X137318524Y-70507810D01*
X138223286Y-69936381D02*
X138461381Y-70936381D01*
X138651858Y-70222095D01*
X138842334Y-70936381D01*
X139080429Y-69936381D01*
X139889953Y-70269714D02*
X139889953Y-70936381D01*
X139651857Y-69888762D02*
X139413762Y-70603048D01*
X140032810Y-70603048D01*
X140270905Y-69936381D02*
X140842334Y-69936381D01*
X140556619Y-70936381D02*
X140556619Y-69936381D01*
X141175667Y-70936381D02*
X141175667Y-69936381D01*
D12*
X126851665Y-147128608D02*
G75*
G03X130084000Y-147285516I1672335J1078608D01*
G01*
X126851665Y-144971392D02*
G75*
G02X130084000Y-144814484I1672335J-1078608D01*
G01*
X127482870Y-147129837D02*
G75*
G03X129564961Y-147130000I1041130J1079837D01*
G01*
X127482870Y-144970163D02*
G75*
G02X129564961Y-144970000I1041130J-1079837D01*
G01*
X130084000Y-147286000D02*
X130084000Y-147130000D01*
X130084000Y-144970000D02*
X130084000Y-144814000D01*
X131734000Y-132806000D02*
X131734000Y-133136000D01*
X131734000Y-133136000D02*
X125314000Y-133136000D01*
X125314000Y-133136000D02*
X125314000Y-132806000D01*
X131734000Y-130846000D02*
X131734000Y-130516000D01*
X131734000Y-130516000D02*
X125314000Y-130516000D01*
X125314000Y-130516000D02*
X125314000Y-130846000D01*
X117199665Y-147128608D02*
G75*
G03X120432000Y-147285516I1672335J1078608D01*
G01*
X117199665Y-144971392D02*
G75*
G02X120432000Y-144814484I1672335J-1078608D01*
G01*
X117830870Y-147129837D02*
G75*
G03X119912961Y-147130000I1041130J1079837D01*
G01*
X117830870Y-144970163D02*
G75*
G02X119912961Y-144970000I1041130J-1079837D01*
G01*
X120432000Y-147286000D02*
X120432000Y-147130000D01*
X120432000Y-144970000D02*
X120432000Y-144814000D01*
X122025665Y-147128608D02*
G75*
G03X125258000Y-147285516I1672335J1078608D01*
G01*
X122025665Y-144971392D02*
G75*
G02X125258000Y-144814484I1672335J-1078608D01*
G01*
X122656870Y-147129837D02*
G75*
G03X124738961Y-147130000I1041130J1079837D01*
G01*
X122656870Y-144970163D02*
G75*
G02X124738961Y-144970000I1041130J-1079837D01*
G01*
X125258000Y-147286000D02*
X125258000Y-147130000D01*
X125258000Y-144970000D02*
X125258000Y-144814000D01*
X51562000Y-133604000D02*
X51562000Y-123444000D01*
X50292000Y-133604000D02*
X57912000Y-133604000D01*
X57912000Y-133604000D02*
X57912000Y-123444000D01*
X57912000Y-123444000D02*
X50292000Y-123444000D01*
X50292000Y-123444000D02*
X50292000Y-133604000D01*
X68478400Y-64681100D02*
X58318400Y-64681100D01*
X68478400Y-65951100D02*
X68478400Y-58331100D01*
X68478400Y-58331100D02*
X58318400Y-58331100D01*
X58318400Y-58331100D02*
X58318400Y-65951100D01*
X58318400Y-65951100D02*
X68478400Y-65951100D01*
X116220880Y-62920240D02*
X116220880Y-57800240D01*
X118840880Y-62920240D02*
X118840880Y-57800240D01*
X116220880Y-62920240D02*
X118840880Y-62920240D01*
X116220880Y-57800240D02*
X118840880Y-57800240D01*
X118760880Y-62920240D02*
X118760880Y-57800240D01*
X121380880Y-62920240D02*
X121380880Y-57800240D01*
X118760880Y-62920240D02*
X121380880Y-62920240D01*
X118760880Y-57800240D02*
X121380880Y-57800240D01*
X121300880Y-62920240D02*
X121300880Y-57800240D01*
X123920880Y-62920240D02*
X123920880Y-57800240D01*
X121300880Y-62920240D02*
X123920880Y-62920240D01*
X121300880Y-57800240D02*
X123920880Y-57800240D01*
X123840880Y-62920240D02*
X123840880Y-57800240D01*
X126460880Y-62920240D02*
X126460880Y-57800240D01*
X123840880Y-62920240D02*
X126460880Y-62920240D01*
X123840880Y-57800240D02*
X126460880Y-57800240D01*
X126380880Y-62920240D02*
X126380880Y-57800240D01*
X129000880Y-62920240D02*
X129000880Y-57800240D01*
X126380880Y-62920240D02*
X129000880Y-62920240D01*
X126380880Y-57800240D02*
X129000880Y-57800240D01*
X128920880Y-62920240D02*
X128920880Y-57800240D01*
X131540880Y-62920240D02*
X131540880Y-57800240D01*
X128920880Y-62920240D02*
X131540880Y-62920240D01*
X128920880Y-57800240D02*
X131540880Y-57800240D01*
X131460880Y-62920240D02*
X131460880Y-57800240D01*
X134080880Y-62920240D02*
X134080880Y-57800240D01*
X131460880Y-62920240D02*
X134080880Y-62920240D01*
X131460880Y-57800240D02*
X134080880Y-57800240D01*
X134000880Y-62920240D02*
X134000880Y-57800240D01*
X136620880Y-62920240D02*
X136620880Y-57800240D01*
X134000880Y-62920240D02*
X136620880Y-62920240D01*
X134000880Y-57800240D02*
X136620880Y-57800240D01*
X136540880Y-62920240D02*
X136540880Y-57800240D01*
X139160880Y-62920240D02*
X139160880Y-57800240D01*
X136540880Y-62920240D02*
X139160880Y-62920240D01*
X136540880Y-57800240D02*
X139160880Y-57800240D01*
X139080880Y-62920240D02*
X139080880Y-57800240D01*
X141700880Y-62920240D02*
X141700880Y-57800240D01*
X139080880Y-62920240D02*
X141700880Y-62920240D01*
X139080880Y-57800240D02*
X141700880Y-57800240D01*
X146848000Y-131226000D02*
X146518000Y-131226000D01*
X146518000Y-131226000D02*
X146518000Y-124806000D01*
X146518000Y-124806000D02*
X146848000Y-124806000D01*
X148808000Y-131226000D02*
X149138000Y-131226000D01*
X149138000Y-131226000D02*
X149138000Y-124806000D01*
X149138000Y-124806000D02*
X148808000Y-124806000D01*
X68199000Y-56692800D02*
X58039000Y-56692800D01*
X68199000Y-57962800D02*
X68199000Y-50342800D01*
X68199000Y-50342800D02*
X58039000Y-50342800D01*
X58039000Y-50342800D02*
X58039000Y-57962800D01*
X58039000Y-57962800D02*
X68199000Y-57962800D01*
X55286000Y-53000000D02*
G75*
G03X55286000Y-53000000I-2286000J0D01*
G01*
X55286000Y-147000000D02*
G75*
G03X55286000Y-147000000I-2286000J0D01*
G01*
X149286000Y-53000000D02*
G75*
G03X149286000Y-53000000I-2286000J0D01*
G01*
X149286000Y-147000000D02*
G75*
G03X149286000Y-147000000I-2286000J0D01*
G01*
X144689000Y-141386000D02*
X144359000Y-141386000D01*
X144359000Y-141386000D02*
X144359000Y-134966000D01*
X144359000Y-134966000D02*
X144689000Y-134966000D01*
X146649000Y-141386000D02*
X146979000Y-141386000D01*
X146979000Y-141386000D02*
X146979000Y-134966000D01*
X146979000Y-134966000D02*
X146649000Y-134966000D01*
X131677665Y-147128608D02*
G75*
G03X134910000Y-147285516I1672335J1078608D01*
G01*
X131677665Y-144971392D02*
G75*
G02X134910000Y-144814484I1672335J-1078608D01*
G01*
X132308870Y-147129837D02*
G75*
G03X134390961Y-147130000I1041130J1079837D01*
G01*
X132308870Y-144970163D02*
G75*
G02X134390961Y-144970000I1041130J-1079837D01*
G01*
X134910000Y-147286000D02*
X134910000Y-147130000D01*
X134910000Y-144970000D02*
X134910000Y-144814000D01*
X136503665Y-147128608D02*
G75*
G03X139736000Y-147285516I1672335J1078608D01*
G01*
X136503665Y-144971392D02*
G75*
G02X139736000Y-144814484I1672335J-1078608D01*
G01*
X137134870Y-147129837D02*
G75*
G03X139216961Y-147130000I1041130J1079837D01*
G01*
X137134870Y-144970163D02*
G75*
G02X139216961Y-144970000I1041130J-1079837D01*
G01*
X139736000Y-147286000D02*
X139736000Y-147130000D01*
X139736000Y-144970000D02*
X139736000Y-144814000D01*
X117199665Y-136714608D02*
G75*
G03X120432000Y-136871516I1672335J1078608D01*
G01*
X117199665Y-134557392D02*
G75*
G02X120432000Y-134400484I1672335J-1078608D01*
G01*
X117830870Y-136715837D02*
G75*
G03X119912961Y-136716000I1041130J1079837D01*
G01*
X117830870Y-134556163D02*
G75*
G02X119912961Y-134556000I1041130J-1079837D01*
G01*
X120432000Y-136872000D02*
X120432000Y-136716000D01*
X120432000Y-134556000D02*
X120432000Y-134400000D01*
X122025665Y-136714608D02*
G75*
G03X125258000Y-136871516I1672335J1078608D01*
G01*
X122025665Y-134557392D02*
G75*
G02X125258000Y-134400484I1672335J-1078608D01*
G01*
X122656870Y-136715837D02*
G75*
G03X124738961Y-136716000I1041130J1079837D01*
G01*
X122656870Y-134556163D02*
G75*
G02X124738961Y-134556000I1041130J-1079837D01*
G01*
X125258000Y-136872000D02*
X125258000Y-136716000D01*
X125258000Y-134556000D02*
X125258000Y-134400000D01*
X126851665Y-136714608D02*
G75*
G03X130084000Y-136871516I1672335J1078608D01*
G01*
X126851665Y-134557392D02*
G75*
G02X130084000Y-134400484I1672335J-1078608D01*
G01*
X127482870Y-136715837D02*
G75*
G03X129564961Y-136716000I1041130J1079837D01*
G01*
X127482870Y-134556163D02*
G75*
G02X129564961Y-134556000I1041130J-1079837D01*
G01*
X130084000Y-136872000D02*
X130084000Y-136716000D01*
X130084000Y-134556000D02*
X130084000Y-134400000D01*
X113828000Y-147482000D02*
X113498000Y-147482000D01*
X113498000Y-147482000D02*
X113498000Y-141062000D01*
X113498000Y-141062000D02*
X113828000Y-141062000D01*
X115788000Y-147482000D02*
X116118000Y-147482000D01*
X116118000Y-147482000D02*
X116118000Y-141062000D01*
X116118000Y-141062000D02*
X115788000Y-141062000D01*
X118710000Y-140244000D02*
X118710000Y-139914000D01*
X118710000Y-139914000D02*
X125130000Y-139914000D01*
X125130000Y-139914000D02*
X125130000Y-140244000D01*
X118710000Y-142204000D02*
X118710000Y-142534000D01*
X118710000Y-142534000D02*
X125130000Y-142534000D01*
X125130000Y-142534000D02*
X125130000Y-142204000D01*
X135163000Y-142204000D02*
X135163000Y-142534000D01*
X135163000Y-142534000D02*
X128743000Y-142534000D01*
X128743000Y-142534000D02*
X128743000Y-142204000D01*
X135163000Y-140244000D02*
X135163000Y-139914000D01*
X135163000Y-139914000D02*
X128743000Y-139914000D01*
X128743000Y-139914000D02*
X128743000Y-140244000D01*
X141895000Y-141386000D02*
X141565000Y-141386000D01*
X141565000Y-141386000D02*
X141565000Y-134966000D01*
X141565000Y-134966000D02*
X141895000Y-134966000D01*
X143855000Y-141386000D02*
X144185000Y-141386000D01*
X144185000Y-141386000D02*
X144185000Y-134966000D01*
X144185000Y-134966000D02*
X143855000Y-134966000D01*
X147356000Y-141386000D02*
X147026000Y-141386000D01*
X147026000Y-141386000D02*
X147026000Y-134966000D01*
X147026000Y-134966000D02*
X147356000Y-134966000D01*
X149316000Y-141386000D02*
X149646000Y-141386000D01*
X149646000Y-141386000D02*
X149646000Y-134966000D01*
X149646000Y-134966000D02*
X149316000Y-134966000D01*
X121828000Y-132806000D02*
X121828000Y-133136000D01*
X121828000Y-133136000D02*
X115408000Y-133136000D01*
X115408000Y-133136000D02*
X115408000Y-132806000D01*
X121828000Y-130846000D02*
X121828000Y-130516000D01*
X121828000Y-130516000D02*
X115408000Y-130516000D01*
X115408000Y-130516000D02*
X115408000Y-130846000D01*
X142402000Y-132806000D02*
X142402000Y-133136000D01*
X142402000Y-133136000D02*
X135982000Y-133136000D01*
X135982000Y-133136000D02*
X135982000Y-132806000D01*
X142402000Y-130846000D02*
X142402000Y-130516000D01*
X142402000Y-130516000D02*
X135982000Y-130516000D01*
X135982000Y-130516000D02*
X135982000Y-130846000D01*
D13*
X83045800Y-125688600D02*
X83045800Y-124688600D01*
X92045800Y-125688600D02*
X92045800Y-124688600D01*
X92545800Y-126188600D02*
X95045800Y-126188600D01*
X95045800Y-126188600D02*
X95045800Y-125688600D01*
X82045800Y-126188600D02*
X79545800Y-126188600D01*
X79545800Y-126188600D02*
X79545800Y-125688600D01*
X83045800Y-123688600D02*
X83045800Y-122688600D01*
X92045800Y-123688600D02*
X92045800Y-122688600D01*
X90295800Y-126438600D02*
G75*
G03X92295800Y-126438600I1000000J1000000D01*
G01*
X88295800Y-126438600D02*
G75*
G03X90295800Y-126438600I1000000J1000000D01*
G01*
X86295800Y-126438600D02*
G75*
G03X88295800Y-126438600I1000000J1000000D01*
G01*
X84295800Y-126438600D02*
G75*
G03X86295800Y-126438600I1000000J1000000D01*
G01*
X82295800Y-126438600D02*
G75*
G03X84295800Y-126438600I1000000J1000000D01*
G01*
X91045800Y-124688600D02*
X92045800Y-124688600D01*
X93045800Y-124688600D02*
X91045800Y-124688600D01*
X93045800Y-123688600D02*
X92045800Y-123688600D01*
X91045800Y-123688600D02*
X93045800Y-123688600D01*
X82045800Y-123688600D02*
X84045800Y-123688600D01*
X84045800Y-123688600D02*
X83045800Y-123688600D01*
X84045800Y-124688600D02*
X82045800Y-124688600D01*
X82045800Y-124688600D02*
X83045800Y-124688600D01*
X63132200Y-125764800D02*
X63132200Y-124764800D01*
X72132200Y-125764800D02*
X72132200Y-124764800D01*
X72632200Y-126264800D02*
X75132200Y-126264800D01*
X75132200Y-126264800D02*
X75132200Y-125764800D01*
X62132200Y-126264800D02*
X59632200Y-126264800D01*
X59632200Y-126264800D02*
X59632200Y-125764800D01*
X63132200Y-123764800D02*
X63132200Y-122764800D01*
X72132200Y-123764800D02*
X72132200Y-122764800D01*
X70382200Y-126514800D02*
G75*
G03X72382200Y-126514800I1000000J1000000D01*
G01*
X68382200Y-126514800D02*
G75*
G03X70382200Y-126514800I1000000J1000000D01*
G01*
X66382200Y-126514800D02*
G75*
G03X68382200Y-126514800I1000000J1000000D01*
G01*
X64382200Y-126514800D02*
G75*
G03X66382200Y-126514800I1000000J1000000D01*
G01*
X62382200Y-126514800D02*
G75*
G03X64382200Y-126514800I1000000J1000000D01*
G01*
X71132200Y-124764800D02*
X72132200Y-124764800D01*
X73132200Y-124764800D02*
X71132200Y-124764800D01*
X73132200Y-123764800D02*
X72132200Y-123764800D01*
X71132200Y-123764800D02*
X73132200Y-123764800D01*
X62132200Y-123764800D02*
X64132200Y-123764800D01*
X64132200Y-123764800D02*
X63132200Y-123764800D01*
X64132200Y-124764800D02*
X62132200Y-124764800D01*
X62132200Y-124764800D02*
X63132200Y-124764800D01*
X107556800Y-125688600D02*
X107556800Y-124688600D01*
X116556800Y-125688600D02*
X116556800Y-124688600D01*
X117056800Y-126188600D02*
X119556800Y-126188600D01*
X119556800Y-126188600D02*
X119556800Y-125688600D01*
X106556800Y-126188600D02*
X104056800Y-126188600D01*
X104056800Y-126188600D02*
X104056800Y-125688600D01*
X107556800Y-123688600D02*
X107556800Y-122688600D01*
X116556800Y-123688600D02*
X116556800Y-122688600D01*
X114806800Y-126438600D02*
G75*
G03X116806800Y-126438600I1000000J1000000D01*
G01*
X112806800Y-126438600D02*
G75*
G03X114806800Y-126438600I1000000J1000000D01*
G01*
X110806800Y-126438600D02*
G75*
G03X112806800Y-126438600I1000000J1000000D01*
G01*
X108806800Y-126438600D02*
G75*
G03X110806800Y-126438600I1000000J1000000D01*
G01*
X106806800Y-126438600D02*
G75*
G03X108806800Y-126438600I1000000J1000000D01*
G01*
X115556800Y-124688600D02*
X116556800Y-124688600D01*
X117556800Y-124688600D02*
X115556800Y-124688600D01*
X117556800Y-123688600D02*
X116556800Y-123688600D01*
X115556800Y-123688600D02*
X117556800Y-123688600D01*
X106556800Y-123688600D02*
X108556800Y-123688600D01*
X108556800Y-123688600D02*
X107556800Y-123688600D01*
X108556800Y-124688600D02*
X106556800Y-124688600D01*
X106556800Y-124688600D02*
X107556800Y-124688600D01*
X130035800Y-126069600D02*
X130035800Y-125069600D01*
X139035800Y-126069600D02*
X139035800Y-125069600D01*
X139535800Y-126569600D02*
X142035800Y-126569600D01*
X142035800Y-126569600D02*
X142035800Y-126069600D01*
X129035800Y-126569600D02*
X126535800Y-126569600D01*
X126535800Y-126569600D02*
X126535800Y-126069600D01*
X130035800Y-124069600D02*
X130035800Y-123069600D01*
X139035800Y-124069600D02*
X139035800Y-123069600D01*
X137285800Y-126819600D02*
G75*
G03X139285800Y-126819600I1000000J1000000D01*
G01*
X135285800Y-126819600D02*
G75*
G03X137285800Y-126819600I1000000J1000000D01*
G01*
X133285800Y-126819600D02*
G75*
G03X135285800Y-126819600I1000000J1000000D01*
G01*
X131285800Y-126819600D02*
G75*
G03X133285800Y-126819600I1000000J1000000D01*
G01*
X129285800Y-126819600D02*
G75*
G03X131285800Y-126819600I1000000J1000000D01*
G01*
X138035800Y-125069600D02*
X139035800Y-125069600D01*
X140035800Y-125069600D02*
X138035800Y-125069600D01*
X140035800Y-124069600D02*
X139035800Y-124069600D01*
X138035800Y-124069600D02*
X140035800Y-124069600D01*
X129035800Y-124069600D02*
X131035800Y-124069600D01*
X131035800Y-124069600D02*
X130035800Y-124069600D01*
X131035800Y-125069600D02*
X129035800Y-125069600D01*
X129035800Y-125069600D02*
X130035800Y-125069600D01*
X138162800Y-76571600D02*
X138162800Y-77571600D01*
X129162800Y-76571600D02*
X129162800Y-77571600D01*
X128662800Y-76071600D02*
X126162800Y-76071600D01*
X126162800Y-76071600D02*
X126162800Y-76571600D01*
X139162800Y-76071600D02*
X141662800Y-76071600D01*
X141662800Y-76071600D02*
X141662800Y-76571600D01*
X138162800Y-78571600D02*
X138162800Y-79571600D01*
X129162800Y-78571600D02*
X129162800Y-79571600D01*
X130912800Y-75821600D02*
G75*
G03X128912800Y-75821600I-1000000J-1000000D01*
G01*
X132912800Y-75821600D02*
G75*
G03X130912800Y-75821600I-1000000J-1000000D01*
G01*
X134912800Y-75821600D02*
G75*
G03X132912800Y-75821600I-1000000J-1000000D01*
G01*
X136912800Y-75821600D02*
G75*
G03X134912800Y-75821600I-1000000J-1000000D01*
G01*
X138912800Y-75821600D02*
G75*
G03X136912800Y-75821600I-1000000J-1000000D01*
G01*
X130162800Y-77571600D02*
X129162800Y-77571600D01*
X128162800Y-77571600D02*
X130162800Y-77571600D01*
X128162800Y-78571600D02*
X129162800Y-78571600D01*
X130162800Y-78571600D02*
X128162800Y-78571600D01*
X139162800Y-78571600D02*
X137162800Y-78571600D01*
X137162800Y-78571600D02*
X138162800Y-78571600D01*
X137162800Y-77571600D02*
X139162800Y-77571600D01*
X139162800Y-77571600D02*
X138162800Y-77571600D01*
X116953800Y-76444600D02*
X116953800Y-77444600D01*
X107953800Y-76444600D02*
X107953800Y-77444600D01*
X107453800Y-75944600D02*
X104953800Y-75944600D01*
X104953800Y-75944600D02*
X104953800Y-76444600D01*
X117953800Y-75944600D02*
X120453800Y-75944600D01*
X120453800Y-75944600D02*
X120453800Y-76444600D01*
X116953800Y-78444600D02*
X116953800Y-79444600D01*
X107953800Y-78444600D02*
X107953800Y-79444600D01*
X109703800Y-75694600D02*
G75*
G03X107703800Y-75694600I-1000000J-1000000D01*
G01*
X111703800Y-75694600D02*
G75*
G03X109703800Y-75694600I-1000000J-1000000D01*
G01*
X113703800Y-75694600D02*
G75*
G03X111703800Y-75694600I-1000000J-1000000D01*
G01*
X115703800Y-75694600D02*
G75*
G03X113703800Y-75694600I-1000000J-1000000D01*
G01*
X117703800Y-75694600D02*
G75*
G03X115703800Y-75694600I-1000000J-1000000D01*
G01*
X108953800Y-77444600D02*
X107953800Y-77444600D01*
X106953800Y-77444600D02*
X108953800Y-77444600D01*
X106953800Y-78444600D02*
X107953800Y-78444600D01*
X108953800Y-78444600D02*
X106953800Y-78444600D01*
X117953800Y-78444600D02*
X115953800Y-78444600D01*
X115953800Y-78444600D02*
X116953800Y-78444600D01*
X115953800Y-77444600D02*
X117953800Y-77444600D01*
X117953800Y-77444600D02*
X116953800Y-77444600D01*
X95125040Y-76637640D02*
X95125040Y-77637640D01*
X86125040Y-76637640D02*
X86125040Y-77637640D01*
X85625040Y-76137640D02*
X83125040Y-76137640D01*
X83125040Y-76137640D02*
X83125040Y-76637640D01*
X96125040Y-76137640D02*
X98625040Y-76137640D01*
X98625040Y-76137640D02*
X98625040Y-76637640D01*
X95125040Y-78637640D02*
X95125040Y-79637640D01*
X86125040Y-78637640D02*
X86125040Y-79637640D01*
X87875040Y-75887640D02*
G75*
G03X85875040Y-75887640I-1000000J-1000000D01*
G01*
X89875040Y-75887640D02*
G75*
G03X87875040Y-75887640I-1000000J-1000000D01*
G01*
X91875040Y-75887640D02*
G75*
G03X89875040Y-75887640I-1000000J-1000000D01*
G01*
X93875040Y-75887640D02*
G75*
G03X91875040Y-75887640I-1000000J-1000000D01*
G01*
X95875040Y-75887640D02*
G75*
G03X93875040Y-75887640I-1000000J-1000000D01*
G01*
X87125040Y-77637640D02*
X86125040Y-77637640D01*
X85125040Y-77637640D02*
X87125040Y-77637640D01*
X85125040Y-78637640D02*
X86125040Y-78637640D01*
X87125040Y-78637640D02*
X85125040Y-78637640D01*
X96125040Y-78637640D02*
X94125040Y-78637640D01*
X94125040Y-78637640D02*
X95125040Y-78637640D01*
X94125040Y-77637640D02*
X96125040Y-77637640D01*
X96125040Y-77637640D02*
X95125040Y-77637640D01*
X105985300Y-110028100D02*
X112985300Y-110028100D01*
X112985300Y-110028100D02*
X116485300Y-108528100D01*
X108985300Y-114528100D02*
X112985300Y-114528100D01*
X112985300Y-114528100D02*
X112985300Y-111528100D01*
X112985300Y-111528100D02*
X108985300Y-111528100D01*
X108985300Y-111528100D02*
X108985300Y-114528100D01*
X110985300Y-114528100D02*
X110985300Y-117528100D01*
X110985300Y-117528100D02*
X107985300Y-117528100D01*
X110985300Y-111528100D02*
X110985300Y-105528100D01*
X110985300Y-105528100D02*
X107985300Y-105528100D01*
X115985300Y-117528100D02*
X114985300Y-117528100D01*
X114985300Y-117528100D02*
X114985300Y-114528100D01*
X114985300Y-109028100D02*
X114985300Y-105528100D01*
X114985300Y-105528100D02*
X115985300Y-105528100D01*
X100985300Y-120528100D02*
X100985300Y-102528100D01*
X122985300Y-120528100D02*
X100985300Y-120528100D01*
X122985300Y-120528100D02*
X122985300Y-102528100D01*
X122985300Y-102528100D02*
X100985300Y-102528100D01*
D14*
X118985300Y-116528100D02*
X118985300Y-118528100D01*
D13*
X92807800Y-92498800D02*
X85807800Y-92498800D01*
X85807800Y-92498800D02*
X82307800Y-93998800D01*
X89807800Y-87998800D02*
X85807800Y-87998800D01*
X85807800Y-87998800D02*
X85807800Y-90998800D01*
X85807800Y-90998800D02*
X89807800Y-90998800D01*
X89807800Y-90998800D02*
X89807800Y-87998800D01*
X87807800Y-87998800D02*
X87807800Y-84998800D01*
X87807800Y-84998800D02*
X90807800Y-84998800D01*
X87807800Y-90998800D02*
X87807800Y-96998800D01*
X87807800Y-96998800D02*
X90807800Y-96998800D01*
X82807800Y-84998800D02*
X83807800Y-84998800D01*
X83807800Y-84998800D02*
X83807800Y-87998800D01*
X83807800Y-93498800D02*
X83807800Y-96998800D01*
X83807800Y-96998800D02*
X82807800Y-96998800D01*
X97807800Y-81998800D02*
X97807800Y-99998800D01*
X75807800Y-81998800D02*
X97807800Y-81998800D01*
X75807800Y-81998800D02*
X75807800Y-99998800D01*
X75807800Y-99998800D02*
X97807800Y-99998800D01*
D14*
X79807800Y-85998800D02*
X79807800Y-83998800D01*
D13*
X73562200Y-58936000D02*
X80562200Y-58936000D01*
X80562200Y-58936000D02*
X84062200Y-57436000D01*
X76562200Y-63436000D02*
X80562200Y-63436000D01*
X80562200Y-63436000D02*
X80562200Y-60436000D01*
X80562200Y-60436000D02*
X76562200Y-60436000D01*
X76562200Y-60436000D02*
X76562200Y-63436000D01*
X78562200Y-63436000D02*
X78562200Y-66436000D01*
X78562200Y-66436000D02*
X75562200Y-66436000D01*
X78562200Y-60436000D02*
X78562200Y-54436000D01*
X78562200Y-54436000D02*
X75562200Y-54436000D01*
X83562200Y-66436000D02*
X82562200Y-66436000D01*
X82562200Y-66436000D02*
X82562200Y-63436000D01*
X82562200Y-57936000D02*
X82562200Y-54436000D01*
X82562200Y-54436000D02*
X83562200Y-54436000D01*
X68562200Y-69436000D02*
X68562200Y-51436000D01*
X90562200Y-69436000D02*
X68562200Y-69436000D01*
X90562200Y-69436000D02*
X90562200Y-51436000D01*
X90562200Y-51436000D02*
X68562200Y-51436000D01*
D14*
X86562200Y-65436000D02*
X86562200Y-67436000D01*
D13*
X68296800Y-92549600D02*
X61296800Y-92549600D01*
X61296800Y-92549600D02*
X57796800Y-94049600D01*
X65296800Y-88049600D02*
X61296800Y-88049600D01*
X61296800Y-88049600D02*
X61296800Y-91049600D01*
X61296800Y-91049600D02*
X65296800Y-91049600D01*
X65296800Y-91049600D02*
X65296800Y-88049600D01*
X63296800Y-88049600D02*
X63296800Y-85049600D01*
X63296800Y-85049600D02*
X66296800Y-85049600D01*
X63296800Y-91049600D02*
X63296800Y-97049600D01*
X63296800Y-97049600D02*
X66296800Y-97049600D01*
X58296800Y-85049600D02*
X59296800Y-85049600D01*
X59296800Y-85049600D02*
X59296800Y-88049600D01*
X59296800Y-93549600D02*
X59296800Y-97049600D01*
X59296800Y-97049600D02*
X58296800Y-97049600D01*
X73296800Y-82049600D02*
X73296800Y-100049600D01*
X51296800Y-82049600D02*
X73296800Y-82049600D01*
X51296800Y-82049600D02*
X51296800Y-100049600D01*
X51296800Y-100049600D02*
X73296800Y-100049600D01*
D14*
X55296800Y-86049600D02*
X55296800Y-84049600D01*
D13*
X117344200Y-92229560D02*
X110344200Y-92229560D01*
X110344200Y-92229560D02*
X106844200Y-93729560D01*
X114344200Y-87729560D02*
X110344200Y-87729560D01*
X110344200Y-87729560D02*
X110344200Y-90729560D01*
X110344200Y-90729560D02*
X114344200Y-90729560D01*
X114344200Y-90729560D02*
X114344200Y-87729560D01*
X112344200Y-87729560D02*
X112344200Y-84729560D01*
X112344200Y-84729560D02*
X115344200Y-84729560D01*
X112344200Y-90729560D02*
X112344200Y-96729560D01*
X112344200Y-96729560D02*
X115344200Y-96729560D01*
X107344200Y-84729560D02*
X108344200Y-84729560D01*
X108344200Y-84729560D02*
X108344200Y-87729560D01*
X108344200Y-93229560D02*
X108344200Y-96729560D01*
X108344200Y-96729560D02*
X107344200Y-96729560D01*
X122344200Y-81729560D02*
X122344200Y-99729560D01*
X100344200Y-81729560D02*
X122344200Y-81729560D01*
X100344200Y-81729560D02*
X100344200Y-99729560D01*
X100344200Y-99729560D02*
X122344200Y-99729560D01*
D14*
X104344200Y-85729560D02*
X104344200Y-83729560D01*
D13*
X141702800Y-92321000D02*
X134702800Y-92321000D01*
X134702800Y-92321000D02*
X131202800Y-93821000D01*
X138702800Y-87821000D02*
X134702800Y-87821000D01*
X134702800Y-87821000D02*
X134702800Y-90821000D01*
X134702800Y-90821000D02*
X138702800Y-90821000D01*
X138702800Y-90821000D02*
X138702800Y-87821000D01*
X136702800Y-87821000D02*
X136702800Y-84821000D01*
X136702800Y-84821000D02*
X139702800Y-84821000D01*
X136702800Y-90821000D02*
X136702800Y-96821000D01*
X136702800Y-96821000D02*
X139702800Y-96821000D01*
X131702800Y-84821000D02*
X132702800Y-84821000D01*
X132702800Y-84821000D02*
X132702800Y-87821000D01*
X132702800Y-93321000D02*
X132702800Y-96821000D01*
X132702800Y-96821000D02*
X131702800Y-96821000D01*
X146702800Y-81821000D02*
X146702800Y-99821000D01*
X124702800Y-81821000D02*
X146702800Y-81821000D01*
X124702800Y-81821000D02*
X124702800Y-99821000D01*
X124702800Y-99821000D02*
X146702800Y-99821000D01*
D14*
X128702800Y-85821000D02*
X128702800Y-83821000D01*
D13*
X130623300Y-110409100D02*
X137623300Y-110409100D01*
X137623300Y-110409100D02*
X141123300Y-108909100D01*
X133623300Y-114909100D02*
X137623300Y-114909100D01*
X137623300Y-114909100D02*
X137623300Y-111909100D01*
X137623300Y-111909100D02*
X133623300Y-111909100D01*
X133623300Y-111909100D02*
X133623300Y-114909100D01*
X135623300Y-114909100D02*
X135623300Y-117909100D01*
X135623300Y-117909100D02*
X132623300Y-117909100D01*
X135623300Y-111909100D02*
X135623300Y-105909100D01*
X135623300Y-105909100D02*
X132623300Y-105909100D01*
X140623300Y-117909100D02*
X139623300Y-117909100D01*
X139623300Y-117909100D02*
X139623300Y-114909100D01*
X139623300Y-109409100D02*
X139623300Y-105909100D01*
X139623300Y-105909100D02*
X140623300Y-105909100D01*
X125623300Y-120909100D02*
X125623300Y-102909100D01*
X147623300Y-120909100D02*
X125623300Y-120909100D01*
X147623300Y-120909100D02*
X147623300Y-102909100D01*
X147623300Y-102909100D02*
X125623300Y-102909100D01*
D14*
X143623300Y-116909100D02*
X143623300Y-118909100D01*
D13*
X80712300Y-109964600D02*
X87712300Y-109964600D01*
X87712300Y-109964600D02*
X91212300Y-108464600D01*
X83712300Y-114464600D02*
X87712300Y-114464600D01*
X87712300Y-114464600D02*
X87712300Y-111464600D01*
X87712300Y-111464600D02*
X83712300Y-111464600D01*
X83712300Y-111464600D02*
X83712300Y-114464600D01*
X85712300Y-114464600D02*
X85712300Y-117464600D01*
X85712300Y-117464600D02*
X82712300Y-117464600D01*
X85712300Y-111464600D02*
X85712300Y-105464600D01*
X85712300Y-105464600D02*
X82712300Y-105464600D01*
X90712300Y-117464600D02*
X89712300Y-117464600D01*
X89712300Y-117464600D02*
X89712300Y-114464600D01*
X89712300Y-108964600D02*
X89712300Y-105464600D01*
X89712300Y-105464600D02*
X90712300Y-105464600D01*
X75712300Y-120464600D02*
X75712300Y-102464600D01*
X97712300Y-120464600D02*
X75712300Y-120464600D01*
X97712300Y-120464600D02*
X97712300Y-102464600D01*
X97712300Y-102464600D02*
X75712300Y-102464600D01*
D14*
X93712300Y-116464600D02*
X93712300Y-118464600D01*
D13*
X56010800Y-109964600D02*
X63010800Y-109964600D01*
X63010800Y-109964600D02*
X66510800Y-108464600D01*
X59010800Y-114464600D02*
X63010800Y-114464600D01*
X63010800Y-114464600D02*
X63010800Y-111464600D01*
X63010800Y-111464600D02*
X59010800Y-111464600D01*
X59010800Y-111464600D02*
X59010800Y-114464600D01*
X61010800Y-114464600D02*
X61010800Y-117464600D01*
X61010800Y-117464600D02*
X58010800Y-117464600D01*
X61010800Y-111464600D02*
X61010800Y-105464600D01*
X61010800Y-105464600D02*
X58010800Y-105464600D01*
X66010800Y-117464600D02*
X65010800Y-117464600D01*
X65010800Y-117464600D02*
X65010800Y-114464600D01*
X65010800Y-108964600D02*
X65010800Y-105464600D01*
X65010800Y-105464600D02*
X66010800Y-105464600D01*
X51010800Y-120464600D02*
X51010800Y-102464600D01*
X73010800Y-120464600D02*
X51010800Y-120464600D01*
X73010800Y-120464600D02*
X73010800Y-102464600D01*
X73010800Y-102464600D02*
X51010800Y-102464600D01*
D14*
X69010800Y-116464600D02*
X69010800Y-118464600D01*
D12*
X131677665Y-136714608D02*
G75*
G03X134910000Y-136871516I1672335J1078608D01*
G01*
X131677665Y-134557392D02*
G75*
G02X134910000Y-134400484I1672335J-1078608D01*
G01*
X132308870Y-136715837D02*
G75*
G03X134390961Y-136716000I1041130J1079837D01*
G01*
X132308870Y-134556163D02*
G75*
G02X134390961Y-134556000I1041130J-1079837D01*
G01*
X134910000Y-136872000D02*
X134910000Y-136716000D01*
X134910000Y-134556000D02*
X134910000Y-134400000D01*
X136503665Y-136714608D02*
G75*
G03X139736000Y-136871516I1672335J1078608D01*
G01*
X136503665Y-134557392D02*
G75*
G02X139736000Y-134400484I1672335J-1078608D01*
G01*
X137134870Y-136715837D02*
G75*
G03X139216961Y-136716000I1041130J1079837D01*
G01*
X137134870Y-134556163D02*
G75*
G02X139216961Y-134556000I1041130J-1079837D01*
G01*
X139736000Y-136872000D02*
X139736000Y-136716000D01*
X139736000Y-134556000D02*
X139736000Y-134400000D01*
X68580000Y-139446000D02*
X58420000Y-139446000D01*
X68580000Y-140716000D02*
X68580000Y-133096000D01*
X68580000Y-133096000D02*
X58420000Y-133096000D01*
X58420000Y-133096000D02*
X58420000Y-140716000D01*
X58420000Y-140716000D02*
X68580000Y-140716000D01*
X68580000Y-147574000D02*
X58420000Y-147574000D01*
X68580000Y-148844000D02*
X68580000Y-141224000D01*
X68580000Y-141224000D02*
X58420000Y-141224000D01*
X58420000Y-141224000D02*
X58420000Y-148844000D01*
X58420000Y-148844000D02*
X68580000Y-148844000D01*
X52324000Y-80518000D02*
X52324000Y-70358000D01*
X51054000Y-80518000D02*
X58674000Y-80518000D01*
X58674000Y-80518000D02*
X58674000Y-70358000D01*
X58674000Y-70358000D02*
X51054000Y-70358000D01*
X51054000Y-70358000D02*
X51054000Y-80518000D01*
D13*
X73093080Y-76459840D02*
X73093080Y-77459840D01*
X64093080Y-76459840D02*
X64093080Y-77459840D01*
X63593080Y-75959840D02*
X61093080Y-75959840D01*
X61093080Y-75959840D02*
X61093080Y-76459840D01*
X74093080Y-75959840D02*
X76593080Y-75959840D01*
X76593080Y-75959840D02*
X76593080Y-76459840D01*
X73093080Y-78459840D02*
X73093080Y-79459840D01*
X64093080Y-78459840D02*
X64093080Y-79459840D01*
X65843080Y-75709840D02*
G75*
G03X63843080Y-75709840I-1000000J-1000000D01*
G01*
X67843080Y-75709840D02*
G75*
G03X65843080Y-75709840I-1000000J-1000000D01*
G01*
X69843080Y-75709840D02*
G75*
G03X67843080Y-75709840I-1000000J-1000000D01*
G01*
X71843080Y-75709840D02*
G75*
G03X69843080Y-75709840I-1000000J-1000000D01*
G01*
X73843080Y-75709840D02*
G75*
G03X71843080Y-75709840I-1000000J-1000000D01*
G01*
X65093080Y-77459840D02*
X64093080Y-77459840D01*
X63093080Y-77459840D02*
X65093080Y-77459840D01*
X63093080Y-78459840D02*
X64093080Y-78459840D01*
X65093080Y-78459840D02*
X63093080Y-78459840D01*
X74093080Y-78459840D02*
X72093080Y-78459840D01*
X72093080Y-78459840D02*
X73093080Y-78459840D01*
X72093080Y-77459840D02*
X74093080Y-77459840D01*
X74093080Y-77459840D02*
X73093080Y-77459840D01*
X95622100Y-58936000D02*
X102622100Y-58936000D01*
X102622100Y-58936000D02*
X106122100Y-57436000D01*
X98622100Y-63436000D02*
X102622100Y-63436000D01*
X102622100Y-63436000D02*
X102622100Y-60436000D01*
X102622100Y-60436000D02*
X98622100Y-60436000D01*
X98622100Y-60436000D02*
X98622100Y-63436000D01*
X100622100Y-63436000D02*
X100622100Y-66436000D01*
X100622100Y-66436000D02*
X97622100Y-66436000D01*
X100622100Y-60436000D02*
X100622100Y-54436000D01*
X100622100Y-54436000D02*
X97622100Y-54436000D01*
X105622100Y-66436000D02*
X104622100Y-66436000D01*
X104622100Y-66436000D02*
X104622100Y-63436000D01*
X104622100Y-57936000D02*
X104622100Y-54436000D01*
X104622100Y-54436000D02*
X105622100Y-54436000D01*
X90622100Y-69436000D02*
X90622100Y-51436000D01*
X112622100Y-69436000D02*
X90622100Y-69436000D01*
X112622100Y-69436000D02*
X112622100Y-51436000D01*
X112622100Y-51436000D02*
X90622100Y-51436000D01*
D14*
X108622100Y-65436000D02*
X108622100Y-67436000D01*
D13*
X73994000Y-138438000D02*
X80994000Y-138438000D01*
X80994000Y-138438000D02*
X84494000Y-136938000D01*
X76994000Y-142938000D02*
X80994000Y-142938000D01*
X80994000Y-142938000D02*
X80994000Y-139938000D01*
X80994000Y-139938000D02*
X76994000Y-139938000D01*
X76994000Y-139938000D02*
X76994000Y-142938000D01*
X78994000Y-142938000D02*
X78994000Y-145938000D01*
X78994000Y-145938000D02*
X75994000Y-145938000D01*
X78994000Y-139938000D02*
X78994000Y-133938000D01*
X78994000Y-133938000D02*
X75994000Y-133938000D01*
X83994000Y-145938000D02*
X82994000Y-145938000D01*
X82994000Y-145938000D02*
X82994000Y-142938000D01*
X82994000Y-137438000D02*
X82994000Y-133938000D01*
X82994000Y-133938000D02*
X83994000Y-133938000D01*
X68994000Y-148938000D02*
X68994000Y-130938000D01*
X90994000Y-148938000D02*
X68994000Y-148938000D01*
X90994000Y-148938000D02*
X90994000Y-130938000D01*
X90994000Y-130938000D02*
X68994000Y-130938000D01*
D14*
X86994000Y-144938000D02*
X86994000Y-146938000D01*
D13*
X96346000Y-138438000D02*
X103346000Y-138438000D01*
X103346000Y-138438000D02*
X106846000Y-136938000D01*
X99346000Y-142938000D02*
X103346000Y-142938000D01*
X103346000Y-142938000D02*
X103346000Y-139938000D01*
X103346000Y-139938000D02*
X99346000Y-139938000D01*
X99346000Y-139938000D02*
X99346000Y-142938000D01*
X101346000Y-142938000D02*
X101346000Y-145938000D01*
X101346000Y-145938000D02*
X98346000Y-145938000D01*
X101346000Y-139938000D02*
X101346000Y-133938000D01*
X101346000Y-133938000D02*
X98346000Y-133938000D01*
X106346000Y-145938000D02*
X105346000Y-145938000D01*
X105346000Y-145938000D02*
X105346000Y-142938000D01*
X105346000Y-137438000D02*
X105346000Y-133938000D01*
X105346000Y-133938000D02*
X106346000Y-133938000D01*
X91346000Y-148938000D02*
X91346000Y-130938000D01*
X113346000Y-148938000D02*
X91346000Y-148938000D01*
X113346000Y-148938000D02*
X113346000Y-130938000D01*
X113346000Y-130938000D02*
X91346000Y-130938000D01*
D14*
X109346000Y-144938000D02*
X109346000Y-146938000D01*
D12*
X141690400Y-55584400D02*
X141690400Y-50384400D01*
X118770400Y-55584400D02*
X141690400Y-55584400D01*
X116170400Y-50384400D02*
X141690400Y-50384400D01*
X118770400Y-55584400D02*
X118770400Y-52984400D01*
X118770400Y-52984400D02*
X116170400Y-52984400D01*
X116170400Y-52984400D02*
X116170400Y-50384400D01*
X117500400Y-55584400D02*
X116170400Y-55584400D01*
X116170400Y-55584400D02*
X116170400Y-54254400D01*
X148833200Y-61127000D02*
X143713200Y-61127000D01*
X148833200Y-58507000D02*
X143713200Y-58507000D01*
X148833200Y-61127000D02*
X148833200Y-58507000D01*
X143713200Y-61127000D02*
X143713200Y-58507000D01*
D11*
X127785905Y-149550381D02*
X127785905Y-148550381D01*
X128024000Y-148550381D01*
X128166858Y-148598000D01*
X128262096Y-148693238D01*
X128309715Y-148788476D01*
X128357334Y-148978952D01*
X128357334Y-149121810D01*
X128309715Y-149312286D01*
X128262096Y-149407524D01*
X128166858Y-149502762D01*
X128024000Y-149550381D01*
X127785905Y-149550381D01*
X128690667Y-148550381D02*
X129309715Y-148550381D01*
X128976381Y-148931333D01*
X129119239Y-148931333D01*
X129214477Y-148978952D01*
X129262096Y-149026571D01*
X129309715Y-149121810D01*
X129309715Y-149359905D01*
X129262096Y-149455143D01*
X129214477Y-149502762D01*
X129119239Y-149550381D01*
X128833524Y-149550381D01*
X128738286Y-149502762D01*
X128690667Y-149455143D01*
X128458934Y-132202181D02*
X128125600Y-131725990D01*
X127887505Y-132202181D02*
X127887505Y-131202181D01*
X128268458Y-131202181D01*
X128363696Y-131249800D01*
X128411315Y-131297419D01*
X128458934Y-131392657D01*
X128458934Y-131535514D01*
X128411315Y-131630752D01*
X128363696Y-131678371D01*
X128268458Y-131725990D01*
X127887505Y-131725990D01*
X128935124Y-132202181D02*
X129125600Y-132202181D01*
X129220839Y-132154562D01*
X129268458Y-132106943D01*
X129363696Y-131964086D01*
X129411315Y-131773610D01*
X129411315Y-131392657D01*
X129363696Y-131297419D01*
X129316077Y-131249800D01*
X129220839Y-131202181D01*
X129030362Y-131202181D01*
X128935124Y-131249800D01*
X128887505Y-131297419D01*
X128839886Y-131392657D01*
X128839886Y-131630752D01*
X128887505Y-131725990D01*
X128935124Y-131773610D01*
X129030362Y-131821229D01*
X129220839Y-131821229D01*
X129316077Y-131773610D01*
X129363696Y-131725990D01*
X129411315Y-131630752D01*
X118387905Y-149550381D02*
X118387905Y-148550381D01*
X118626000Y-148550381D01*
X118768858Y-148598000D01*
X118864096Y-148693238D01*
X118911715Y-148788476D01*
X118959334Y-148978952D01*
X118959334Y-149121810D01*
X118911715Y-149312286D01*
X118864096Y-149407524D01*
X118768858Y-149502762D01*
X118626000Y-149550381D01*
X118387905Y-149550381D01*
X119911715Y-149550381D02*
X119340286Y-149550381D01*
X119626000Y-149550381D02*
X119626000Y-148550381D01*
X119530762Y-148693238D01*
X119435524Y-148788476D01*
X119340286Y-148836095D01*
X122959905Y-149550381D02*
X122959905Y-148550381D01*
X123198000Y-148550381D01*
X123340858Y-148598000D01*
X123436096Y-148693238D01*
X123483715Y-148788476D01*
X123531334Y-148978952D01*
X123531334Y-149121810D01*
X123483715Y-149312286D01*
X123436096Y-149407524D01*
X123340858Y-149502762D01*
X123198000Y-149550381D01*
X122959905Y-149550381D01*
X123912286Y-148645619D02*
X123959905Y-148598000D01*
X124055143Y-148550381D01*
X124293239Y-148550381D01*
X124388477Y-148598000D01*
X124436096Y-148645619D01*
X124483715Y-148740857D01*
X124483715Y-148836095D01*
X124436096Y-148978952D01*
X123864667Y-149550381D01*
X124483715Y-149550381D01*
X51228667Y-135723381D02*
X51228667Y-136437667D01*
X51181047Y-136580524D01*
X51085809Y-136675762D01*
X50942952Y-136723381D01*
X50847714Y-136723381D01*
X51847714Y-136151952D02*
X51752476Y-136104333D01*
X51704857Y-136056714D01*
X51657238Y-135961476D01*
X51657238Y-135913857D01*
X51704857Y-135818619D01*
X51752476Y-135771000D01*
X51847714Y-135723381D01*
X52038191Y-135723381D01*
X52133429Y-135771000D01*
X52181048Y-135818619D01*
X52228667Y-135913857D01*
X52228667Y-135961476D01*
X52181048Y-136056714D01*
X52133429Y-136104333D01*
X52038191Y-136151952D01*
X51847714Y-136151952D01*
X51752476Y-136199571D01*
X51704857Y-136247190D01*
X51657238Y-136342429D01*
X51657238Y-136532905D01*
X51704857Y-136628143D01*
X51752476Y-136675762D01*
X51847714Y-136723381D01*
X52038191Y-136723381D01*
X52133429Y-136675762D01*
X52181048Y-136628143D01*
X52228667Y-136532905D01*
X52228667Y-136342429D01*
X52181048Y-136247190D01*
X52133429Y-136199571D01*
X52038191Y-136151952D01*
X71486781Y-63458623D02*
X72201067Y-63458623D01*
X72343924Y-63506243D01*
X72439162Y-63601481D01*
X72486781Y-63744338D01*
X72486781Y-63839576D01*
X72486781Y-62458623D02*
X72486781Y-63030052D01*
X72486781Y-62744338D02*
X71486781Y-62744338D01*
X71629638Y-62839576D01*
X71724876Y-62934814D01*
X71772495Y-63030052D01*
X71486781Y-61839576D02*
X71486781Y-61744337D01*
X71534400Y-61649099D01*
X71582019Y-61601480D01*
X71677257Y-61553861D01*
X71867733Y-61506242D01*
X72105829Y-61506242D01*
X72296305Y-61553861D01*
X72391543Y-61601480D01*
X72439162Y-61649099D01*
X72486781Y-61744337D01*
X72486781Y-61839576D01*
X72439162Y-61934814D01*
X72391543Y-61982433D01*
X72296305Y-62030052D01*
X72105829Y-62077671D01*
X71867733Y-62077671D01*
X71677257Y-62030052D01*
X71582019Y-61982433D01*
X71534400Y-61934814D01*
X71486781Y-61839576D01*
X117364214Y-64507383D02*
X117316595Y-64555002D01*
X117173738Y-64602621D01*
X117078500Y-64602621D01*
X116935642Y-64555002D01*
X116840404Y-64459764D01*
X116792785Y-64364526D01*
X116745166Y-64174050D01*
X116745166Y-64031192D01*
X116792785Y-63840716D01*
X116840404Y-63745478D01*
X116935642Y-63650240D01*
X117078500Y-63602621D01*
X117173738Y-63602621D01*
X117316595Y-63650240D01*
X117364214Y-63697859D01*
X118316595Y-64602621D02*
X117745166Y-64602621D01*
X118030880Y-64602621D02*
X118030880Y-63602621D01*
X117935642Y-63745478D01*
X117840404Y-63840716D01*
X117745166Y-63888335D01*
X119904214Y-64507383D02*
X119856595Y-64555002D01*
X119713738Y-64602621D01*
X119618500Y-64602621D01*
X119475642Y-64555002D01*
X119380404Y-64459764D01*
X119332785Y-64364526D01*
X119285166Y-64174050D01*
X119285166Y-64031192D01*
X119332785Y-63840716D01*
X119380404Y-63745478D01*
X119475642Y-63650240D01*
X119618500Y-63602621D01*
X119713738Y-63602621D01*
X119856595Y-63650240D01*
X119904214Y-63697859D01*
X120285166Y-63697859D02*
X120332785Y-63650240D01*
X120428023Y-63602621D01*
X120666119Y-63602621D01*
X120761357Y-63650240D01*
X120808976Y-63697859D01*
X120856595Y-63793097D01*
X120856595Y-63888335D01*
X120808976Y-64031192D01*
X120237547Y-64602621D01*
X120856595Y-64602621D01*
X122444214Y-64507383D02*
X122396595Y-64555002D01*
X122253738Y-64602621D01*
X122158500Y-64602621D01*
X122015642Y-64555002D01*
X121920404Y-64459764D01*
X121872785Y-64364526D01*
X121825166Y-64174050D01*
X121825166Y-64031192D01*
X121872785Y-63840716D01*
X121920404Y-63745478D01*
X122015642Y-63650240D01*
X122158500Y-63602621D01*
X122253738Y-63602621D01*
X122396595Y-63650240D01*
X122444214Y-63697859D01*
X122777547Y-63602621D02*
X123396595Y-63602621D01*
X123063261Y-63983573D01*
X123206119Y-63983573D01*
X123301357Y-64031192D01*
X123348976Y-64078811D01*
X123396595Y-64174050D01*
X123396595Y-64412145D01*
X123348976Y-64507383D01*
X123301357Y-64555002D01*
X123206119Y-64602621D01*
X122920404Y-64602621D01*
X122825166Y-64555002D01*
X122777547Y-64507383D01*
X124984214Y-64507383D02*
X124936595Y-64555002D01*
X124793738Y-64602621D01*
X124698500Y-64602621D01*
X124555642Y-64555002D01*
X124460404Y-64459764D01*
X124412785Y-64364526D01*
X124365166Y-64174050D01*
X124365166Y-64031192D01*
X124412785Y-63840716D01*
X124460404Y-63745478D01*
X124555642Y-63650240D01*
X124698500Y-63602621D01*
X124793738Y-63602621D01*
X124936595Y-63650240D01*
X124984214Y-63697859D01*
X125841357Y-63935954D02*
X125841357Y-64602621D01*
X125603261Y-63555002D02*
X125365166Y-64269288D01*
X125984214Y-64269288D01*
X127524214Y-64507383D02*
X127476595Y-64555002D01*
X127333738Y-64602621D01*
X127238500Y-64602621D01*
X127095642Y-64555002D01*
X127000404Y-64459764D01*
X126952785Y-64364526D01*
X126905166Y-64174050D01*
X126905166Y-64031192D01*
X126952785Y-63840716D01*
X127000404Y-63745478D01*
X127095642Y-63650240D01*
X127238500Y-63602621D01*
X127333738Y-63602621D01*
X127476595Y-63650240D01*
X127524214Y-63697859D01*
X128428976Y-63602621D02*
X127952785Y-63602621D01*
X127905166Y-64078811D01*
X127952785Y-64031192D01*
X128048023Y-63983573D01*
X128286119Y-63983573D01*
X128381357Y-64031192D01*
X128428976Y-64078811D01*
X128476595Y-64174050D01*
X128476595Y-64412145D01*
X128428976Y-64507383D01*
X128381357Y-64555002D01*
X128286119Y-64602621D01*
X128048023Y-64602621D01*
X127952785Y-64555002D01*
X127905166Y-64507383D01*
X130064214Y-64507383D02*
X130016595Y-64555002D01*
X129873738Y-64602621D01*
X129778500Y-64602621D01*
X129635642Y-64555002D01*
X129540404Y-64459764D01*
X129492785Y-64364526D01*
X129445166Y-64174050D01*
X129445166Y-64031192D01*
X129492785Y-63840716D01*
X129540404Y-63745478D01*
X129635642Y-63650240D01*
X129778500Y-63602621D01*
X129873738Y-63602621D01*
X130016595Y-63650240D01*
X130064214Y-63697859D01*
X130921357Y-63602621D02*
X130730880Y-63602621D01*
X130635642Y-63650240D01*
X130588023Y-63697859D01*
X130492785Y-63840716D01*
X130445166Y-64031192D01*
X130445166Y-64412145D01*
X130492785Y-64507383D01*
X130540404Y-64555002D01*
X130635642Y-64602621D01*
X130826119Y-64602621D01*
X130921357Y-64555002D01*
X130968976Y-64507383D01*
X131016595Y-64412145D01*
X131016595Y-64174050D01*
X130968976Y-64078811D01*
X130921357Y-64031192D01*
X130826119Y-63983573D01*
X130635642Y-63983573D01*
X130540404Y-64031192D01*
X130492785Y-64078811D01*
X130445166Y-64174050D01*
X132604214Y-64507383D02*
X132556595Y-64555002D01*
X132413738Y-64602621D01*
X132318500Y-64602621D01*
X132175642Y-64555002D01*
X132080404Y-64459764D01*
X132032785Y-64364526D01*
X131985166Y-64174050D01*
X131985166Y-64031192D01*
X132032785Y-63840716D01*
X132080404Y-63745478D01*
X132175642Y-63650240D01*
X132318500Y-63602621D01*
X132413738Y-63602621D01*
X132556595Y-63650240D01*
X132604214Y-63697859D01*
X132937547Y-63602621D02*
X133604214Y-63602621D01*
X133175642Y-64602621D01*
X135144214Y-64507383D02*
X135096595Y-64555002D01*
X134953738Y-64602621D01*
X134858500Y-64602621D01*
X134715642Y-64555002D01*
X134620404Y-64459764D01*
X134572785Y-64364526D01*
X134525166Y-64174050D01*
X134525166Y-64031192D01*
X134572785Y-63840716D01*
X134620404Y-63745478D01*
X134715642Y-63650240D01*
X134858500Y-63602621D01*
X134953738Y-63602621D01*
X135096595Y-63650240D01*
X135144214Y-63697859D01*
X135715642Y-64031192D02*
X135620404Y-63983573D01*
X135572785Y-63935954D01*
X135525166Y-63840716D01*
X135525166Y-63793097D01*
X135572785Y-63697859D01*
X135620404Y-63650240D01*
X135715642Y-63602621D01*
X135906119Y-63602621D01*
X136001357Y-63650240D01*
X136048976Y-63697859D01*
X136096595Y-63793097D01*
X136096595Y-63840716D01*
X136048976Y-63935954D01*
X136001357Y-63983573D01*
X135906119Y-64031192D01*
X135715642Y-64031192D01*
X135620404Y-64078811D01*
X135572785Y-64126430D01*
X135525166Y-64221669D01*
X135525166Y-64412145D01*
X135572785Y-64507383D01*
X135620404Y-64555002D01*
X135715642Y-64602621D01*
X135906119Y-64602621D01*
X136001357Y-64555002D01*
X136048976Y-64507383D01*
X136096595Y-64412145D01*
X136096595Y-64221669D01*
X136048976Y-64126430D01*
X136001357Y-64078811D01*
X135906119Y-64031192D01*
X137684214Y-64507383D02*
X137636595Y-64555002D01*
X137493738Y-64602621D01*
X137398500Y-64602621D01*
X137255642Y-64555002D01*
X137160404Y-64459764D01*
X137112785Y-64364526D01*
X137065166Y-64174050D01*
X137065166Y-64031192D01*
X137112785Y-63840716D01*
X137160404Y-63745478D01*
X137255642Y-63650240D01*
X137398500Y-63602621D01*
X137493738Y-63602621D01*
X137636595Y-63650240D01*
X137684214Y-63697859D01*
X138160404Y-64602621D02*
X138350880Y-64602621D01*
X138446119Y-64555002D01*
X138493738Y-64507383D01*
X138588976Y-64364526D01*
X138636595Y-64174050D01*
X138636595Y-63793097D01*
X138588976Y-63697859D01*
X138541357Y-63650240D01*
X138446119Y-63602621D01*
X138255642Y-63602621D01*
X138160404Y-63650240D01*
X138112785Y-63697859D01*
X138065166Y-63793097D01*
X138065166Y-64031192D01*
X138112785Y-64126430D01*
X138160404Y-64174050D01*
X138255642Y-64221669D01*
X138446119Y-64221669D01*
X138541357Y-64174050D01*
X138588976Y-64126430D01*
X138636595Y-64031192D01*
X140002023Y-64507383D02*
X139954404Y-64555002D01*
X139811547Y-64602621D01*
X139716309Y-64602621D01*
X139573451Y-64555002D01*
X139478213Y-64459764D01*
X139430594Y-64364526D01*
X139382975Y-64174050D01*
X139382975Y-64031192D01*
X139430594Y-63840716D01*
X139478213Y-63745478D01*
X139573451Y-63650240D01*
X139716309Y-63602621D01*
X139811547Y-63602621D01*
X139954404Y-63650240D01*
X140002023Y-63697859D01*
X140954404Y-64602621D02*
X140382975Y-64602621D01*
X140668689Y-64602621D02*
X140668689Y-63602621D01*
X140573451Y-63745478D01*
X140478213Y-63840716D01*
X140382975Y-63888335D01*
X141573451Y-63602621D02*
X141668690Y-63602621D01*
X141763928Y-63650240D01*
X141811547Y-63697859D01*
X141859166Y-63793097D01*
X141906785Y-63983573D01*
X141906785Y-64221669D01*
X141859166Y-64412145D01*
X141811547Y-64507383D01*
X141763928Y-64555002D01*
X141668690Y-64602621D01*
X141573451Y-64602621D01*
X141478213Y-64555002D01*
X141430594Y-64507383D01*
X141382975Y-64412145D01*
X141335356Y-64221669D01*
X141335356Y-63983573D01*
X141382975Y-63793097D01*
X141430594Y-63697859D01*
X141478213Y-63650240D01*
X141573451Y-63602621D01*
X148178781Y-128233466D02*
X147702590Y-128566800D01*
X148178781Y-128804895D02*
X147178781Y-128804895D01*
X147178781Y-128423942D01*
X147226400Y-128328704D01*
X147274019Y-128281085D01*
X147369257Y-128233466D01*
X147512114Y-128233466D01*
X147607352Y-128281085D01*
X147654971Y-128328704D01*
X147702590Y-128423942D01*
X147702590Y-128804895D01*
X148178781Y-127281085D02*
X148178781Y-127852514D01*
X148178781Y-127566800D02*
X147178781Y-127566800D01*
X147321638Y-127662038D01*
X147416876Y-127757276D01*
X147464495Y-127852514D01*
X71131181Y-57102333D02*
X71845467Y-57102333D01*
X71988324Y-57149953D01*
X72083562Y-57245191D01*
X72131181Y-57388048D01*
X72131181Y-57483286D01*
X72131181Y-56578524D02*
X72131181Y-56388048D01*
X72083562Y-56292809D01*
X72035943Y-56245190D01*
X71893086Y-56149952D01*
X71702610Y-56102333D01*
X71321657Y-56102333D01*
X71226419Y-56149952D01*
X71178800Y-56197571D01*
X71131181Y-56292809D01*
X71131181Y-56483286D01*
X71178800Y-56578524D01*
X71226419Y-56626143D01*
X71321657Y-56673762D01*
X71559752Y-56673762D01*
X71654990Y-56626143D01*
X71702610Y-56578524D01*
X71750229Y-56483286D01*
X71750229Y-56292809D01*
X71702610Y-56197571D01*
X71654990Y-56149952D01*
X71559752Y-56102333D01*
X55578477Y-50506381D02*
X55578477Y-51220667D01*
X55530857Y-51363524D01*
X55435619Y-51458762D01*
X55292762Y-51506381D01*
X55197524Y-51506381D01*
X56578477Y-51506381D02*
X56007048Y-51506381D01*
X56292762Y-51506381D02*
X56292762Y-50506381D01*
X56197524Y-50649238D01*
X56102286Y-50744476D01*
X56007048Y-50792095D01*
X56959429Y-50601619D02*
X57007048Y-50554000D01*
X57102286Y-50506381D01*
X57340382Y-50506381D01*
X57435620Y-50554000D01*
X57483239Y-50601619D01*
X57530858Y-50696857D01*
X57530858Y-50792095D01*
X57483239Y-50934952D01*
X56911810Y-51506381D01*
X57530858Y-51506381D01*
X50201581Y-144624323D02*
X50915867Y-144624323D01*
X51058724Y-144671943D01*
X51153962Y-144767181D01*
X51201581Y-144910038D01*
X51201581Y-145005276D01*
X51201581Y-143624323D02*
X51201581Y-144195752D01*
X51201581Y-143910038D02*
X50201581Y-143910038D01*
X50344438Y-144005276D01*
X50439676Y-144100514D01*
X50487295Y-144195752D01*
X50201581Y-143290990D02*
X50201581Y-142671942D01*
X50582533Y-143005276D01*
X50582533Y-142862418D01*
X50630152Y-142767180D01*
X50677771Y-142719561D01*
X50773010Y-142671942D01*
X51011105Y-142671942D01*
X51106343Y-142719561D01*
X51153962Y-142767180D01*
X51201581Y-142862418D01*
X51201581Y-143148133D01*
X51153962Y-143243371D01*
X51106343Y-143290990D01*
X147043877Y-56272181D02*
X147043877Y-56986467D01*
X146996257Y-57129324D01*
X146901019Y-57224562D01*
X146758162Y-57272181D01*
X146662924Y-57272181D01*
X148043877Y-57272181D02*
X147472448Y-57272181D01*
X147758162Y-57272181D02*
X147758162Y-56272181D01*
X147662924Y-56415038D01*
X147567686Y-56510276D01*
X147472448Y-56557895D01*
X148901020Y-56605514D02*
X148901020Y-57272181D01*
X148662924Y-56224562D02*
X148424829Y-56938848D01*
X149043877Y-56938848D01*
X142700477Y-148296381D02*
X142700477Y-149010667D01*
X142652857Y-149153524D01*
X142557619Y-149248762D01*
X142414762Y-149296381D01*
X142319524Y-149296381D01*
X143700477Y-149296381D02*
X143129048Y-149296381D01*
X143414762Y-149296381D02*
X143414762Y-148296381D01*
X143319524Y-148439238D01*
X143224286Y-148534476D01*
X143129048Y-148582095D01*
X144605239Y-148296381D02*
X144129048Y-148296381D01*
X144081429Y-148772571D01*
X144129048Y-148724952D01*
X144224286Y-148677333D01*
X144462382Y-148677333D01*
X144557620Y-148724952D01*
X144605239Y-148772571D01*
X144652858Y-148867810D01*
X144652858Y-149105905D01*
X144605239Y-149201143D01*
X144557620Y-149248762D01*
X144462382Y-149296381D01*
X144224286Y-149296381D01*
X144129048Y-149248762D01*
X144081429Y-149201143D01*
X146070581Y-138545866D02*
X145594390Y-138879200D01*
X146070581Y-139117295D02*
X145070581Y-139117295D01*
X145070581Y-138736342D01*
X145118200Y-138641104D01*
X145165819Y-138593485D01*
X145261057Y-138545866D01*
X145403914Y-138545866D01*
X145499152Y-138593485D01*
X145546771Y-138641104D01*
X145594390Y-138736342D01*
X145594390Y-139117295D01*
X145165819Y-138164914D02*
X145118200Y-138117295D01*
X145070581Y-138022057D01*
X145070581Y-137783961D01*
X145118200Y-137688723D01*
X145165819Y-137641104D01*
X145261057Y-137593485D01*
X145356295Y-137593485D01*
X145499152Y-137641104D01*
X146070581Y-138212533D01*
X146070581Y-137593485D01*
X132865905Y-149550381D02*
X132865905Y-148550381D01*
X133104000Y-148550381D01*
X133246858Y-148598000D01*
X133342096Y-148693238D01*
X133389715Y-148788476D01*
X133437334Y-148978952D01*
X133437334Y-149121810D01*
X133389715Y-149312286D01*
X133342096Y-149407524D01*
X133246858Y-149502762D01*
X133104000Y-149550381D01*
X132865905Y-149550381D01*
X134294477Y-148883714D02*
X134294477Y-149550381D01*
X134056381Y-148502762D02*
X133818286Y-149217048D01*
X134437334Y-149217048D01*
X137437905Y-149550381D02*
X137437905Y-148550381D01*
X137676000Y-148550381D01*
X137818858Y-148598000D01*
X137914096Y-148693238D01*
X137961715Y-148788476D01*
X138009334Y-148978952D01*
X138009334Y-149121810D01*
X137961715Y-149312286D01*
X137914096Y-149407524D01*
X137818858Y-149502762D01*
X137676000Y-149550381D01*
X137437905Y-149550381D01*
X138914096Y-148550381D02*
X138437905Y-148550381D01*
X138390286Y-149026571D01*
X138437905Y-148978952D01*
X138533143Y-148931333D01*
X138771239Y-148931333D01*
X138866477Y-148978952D01*
X138914096Y-149026571D01*
X138961715Y-149121810D01*
X138961715Y-149359905D01*
X138914096Y-149455143D01*
X138866477Y-149502762D01*
X138771239Y-149550381D01*
X138533143Y-149550381D01*
X138437905Y-149502762D01*
X138390286Y-149455143D01*
X118133905Y-139136381D02*
X118133905Y-138136381D01*
X118372000Y-138136381D01*
X118514858Y-138184000D01*
X118610096Y-138279238D01*
X118657715Y-138374476D01*
X118705334Y-138564952D01*
X118705334Y-138707810D01*
X118657715Y-138898286D01*
X118610096Y-138993524D01*
X118514858Y-139088762D01*
X118372000Y-139136381D01*
X118133905Y-139136381D01*
X119562477Y-138136381D02*
X119372000Y-138136381D01*
X119276762Y-138184000D01*
X119229143Y-138231619D01*
X119133905Y-138374476D01*
X119086286Y-138564952D01*
X119086286Y-138945905D01*
X119133905Y-139041143D01*
X119181524Y-139088762D01*
X119276762Y-139136381D01*
X119467239Y-139136381D01*
X119562477Y-139088762D01*
X119610096Y-139041143D01*
X119657715Y-138945905D01*
X119657715Y-138707810D01*
X119610096Y-138612571D01*
X119562477Y-138564952D01*
X119467239Y-138517333D01*
X119276762Y-138517333D01*
X119181524Y-138564952D01*
X119133905Y-138612571D01*
X119086286Y-138707810D01*
X122705905Y-139136381D02*
X122705905Y-138136381D01*
X122944000Y-138136381D01*
X123086858Y-138184000D01*
X123182096Y-138279238D01*
X123229715Y-138374476D01*
X123277334Y-138564952D01*
X123277334Y-138707810D01*
X123229715Y-138898286D01*
X123182096Y-138993524D01*
X123086858Y-139088762D01*
X122944000Y-139136381D01*
X122705905Y-139136381D01*
X123610667Y-138136381D02*
X124277334Y-138136381D01*
X123848762Y-139136381D01*
X127785905Y-139136381D02*
X127785905Y-138136381D01*
X128024000Y-138136381D01*
X128166858Y-138184000D01*
X128262096Y-138279238D01*
X128309715Y-138374476D01*
X128357334Y-138564952D01*
X128357334Y-138707810D01*
X128309715Y-138898286D01*
X128262096Y-138993524D01*
X128166858Y-139088762D01*
X128024000Y-139136381D01*
X127785905Y-139136381D01*
X128928762Y-138564952D02*
X128833524Y-138517333D01*
X128785905Y-138469714D01*
X128738286Y-138374476D01*
X128738286Y-138326857D01*
X128785905Y-138231619D01*
X128833524Y-138184000D01*
X128928762Y-138136381D01*
X129119239Y-138136381D01*
X129214477Y-138184000D01*
X129262096Y-138231619D01*
X129309715Y-138326857D01*
X129309715Y-138374476D01*
X129262096Y-138469714D01*
X129214477Y-138517333D01*
X129119239Y-138564952D01*
X128928762Y-138564952D01*
X128833524Y-138612571D01*
X128785905Y-138660190D01*
X128738286Y-138755429D01*
X128738286Y-138945905D01*
X128785905Y-139041143D01*
X128833524Y-139088762D01*
X128928762Y-139136381D01*
X129119239Y-139136381D01*
X129214477Y-139088762D01*
X129262096Y-139041143D01*
X129309715Y-138945905D01*
X129309715Y-138755429D01*
X129262096Y-138660190D01*
X129214477Y-138612571D01*
X129119239Y-138564952D01*
X115488981Y-144095766D02*
X115012790Y-144429100D01*
X115488981Y-144667195D02*
X114488981Y-144667195D01*
X114488981Y-144286242D01*
X114536600Y-144191004D01*
X114584219Y-144143385D01*
X114679457Y-144095766D01*
X114822314Y-144095766D01*
X114917552Y-144143385D01*
X114965171Y-144191004D01*
X115012790Y-144286242D01*
X115012790Y-144667195D01*
X114488981Y-143762433D02*
X114488981Y-143143385D01*
X114869933Y-143476719D01*
X114869933Y-143333861D01*
X114917552Y-143238623D01*
X114965171Y-143191004D01*
X115060410Y-143143385D01*
X115298505Y-143143385D01*
X115393743Y-143191004D01*
X115441362Y-143238623D01*
X115488981Y-143333861D01*
X115488981Y-143619576D01*
X115441362Y-143714814D01*
X115393743Y-143762433D01*
X121689834Y-141701781D02*
X121356500Y-141225590D01*
X121118405Y-141701781D02*
X121118405Y-140701781D01*
X121499358Y-140701781D01*
X121594596Y-140749400D01*
X121642215Y-140797019D01*
X121689834Y-140892257D01*
X121689834Y-141035114D01*
X121642215Y-141130352D01*
X121594596Y-141177971D01*
X121499358Y-141225590D01*
X121118405Y-141225590D01*
X122546977Y-141035114D02*
X122546977Y-141701781D01*
X122308881Y-140654162D02*
X122070786Y-141368448D01*
X122689834Y-141368448D01*
X131773634Y-141536681D02*
X131440300Y-141060490D01*
X131202205Y-141536681D02*
X131202205Y-140536681D01*
X131583158Y-140536681D01*
X131678396Y-140584300D01*
X131726015Y-140631919D01*
X131773634Y-140727157D01*
X131773634Y-140870014D01*
X131726015Y-140965252D01*
X131678396Y-141012871D01*
X131583158Y-141060490D01*
X131202205Y-141060490D01*
X132678396Y-140536681D02*
X132202205Y-140536681D01*
X132154586Y-141012871D01*
X132202205Y-140965252D01*
X132297443Y-140917633D01*
X132535539Y-140917633D01*
X132630777Y-140965252D01*
X132678396Y-141012871D01*
X132726015Y-141108110D01*
X132726015Y-141346205D01*
X132678396Y-141441443D01*
X132630777Y-141489062D01*
X132535539Y-141536681D01*
X132297443Y-141536681D01*
X132202205Y-141489062D01*
X132154586Y-141441443D01*
X143340081Y-138215666D02*
X142863890Y-138549000D01*
X143340081Y-138787095D02*
X142340081Y-138787095D01*
X142340081Y-138406142D01*
X142387700Y-138310904D01*
X142435319Y-138263285D01*
X142530557Y-138215666D01*
X142673414Y-138215666D01*
X142768652Y-138263285D01*
X142816271Y-138310904D01*
X142863890Y-138406142D01*
X142863890Y-138787095D01*
X142340081Y-137358523D02*
X142340081Y-137549000D01*
X142387700Y-137644238D01*
X142435319Y-137691857D01*
X142578176Y-137787095D01*
X142768652Y-137834714D01*
X143149605Y-137834714D01*
X143244843Y-137787095D01*
X143292462Y-137739476D01*
X143340081Y-137644238D01*
X143340081Y-137453761D01*
X143292462Y-137358523D01*
X143244843Y-137310904D01*
X143149605Y-137263285D01*
X142911510Y-137263285D01*
X142816271Y-137310904D01*
X142768652Y-137358523D01*
X142721033Y-137453761D01*
X142721033Y-137644238D01*
X142768652Y-137739476D01*
X142816271Y-137787095D01*
X142911510Y-137834714D01*
X148864581Y-138241066D02*
X148388390Y-138574400D01*
X148864581Y-138812495D02*
X147864581Y-138812495D01*
X147864581Y-138431542D01*
X147912200Y-138336304D01*
X147959819Y-138288685D01*
X148055057Y-138241066D01*
X148197914Y-138241066D01*
X148293152Y-138288685D01*
X148340771Y-138336304D01*
X148388390Y-138431542D01*
X148388390Y-138812495D01*
X147864581Y-137907733D02*
X147864581Y-137241066D01*
X148864581Y-137669638D01*
X118298934Y-132176781D02*
X117965600Y-131700590D01*
X117727505Y-132176781D02*
X117727505Y-131176781D01*
X118108458Y-131176781D01*
X118203696Y-131224400D01*
X118251315Y-131272019D01*
X118298934Y-131367257D01*
X118298934Y-131510114D01*
X118251315Y-131605352D01*
X118203696Y-131652971D01*
X118108458Y-131700590D01*
X117727505Y-131700590D01*
X118870362Y-131605352D02*
X118775124Y-131557733D01*
X118727505Y-131510114D01*
X118679886Y-131414876D01*
X118679886Y-131367257D01*
X118727505Y-131272019D01*
X118775124Y-131224400D01*
X118870362Y-131176781D01*
X119060839Y-131176781D01*
X119156077Y-131224400D01*
X119203696Y-131272019D01*
X119251315Y-131367257D01*
X119251315Y-131414876D01*
X119203696Y-131510114D01*
X119156077Y-131557733D01*
X119060839Y-131605352D01*
X118870362Y-131605352D01*
X118775124Y-131652971D01*
X118727505Y-131700590D01*
X118679886Y-131795829D01*
X118679886Y-131986305D01*
X118727505Y-132081543D01*
X118775124Y-132129162D01*
X118870362Y-132176781D01*
X119060839Y-132176781D01*
X119156077Y-132129162D01*
X119203696Y-132081543D01*
X119251315Y-131986305D01*
X119251315Y-131795829D01*
X119203696Y-131700590D01*
X119156077Y-131652971D01*
X119060839Y-131605352D01*
X138561843Y-132062481D02*
X138228509Y-131586290D01*
X137990414Y-132062481D02*
X137990414Y-131062481D01*
X138371367Y-131062481D01*
X138466605Y-131110100D01*
X138514224Y-131157719D01*
X138561843Y-131252957D01*
X138561843Y-131395814D01*
X138514224Y-131491052D01*
X138466605Y-131538671D01*
X138371367Y-131586290D01*
X137990414Y-131586290D01*
X139514224Y-132062481D02*
X138942795Y-132062481D01*
X139228509Y-132062481D02*
X139228509Y-131062481D01*
X139133271Y-131205338D01*
X139038033Y-131300576D01*
X138942795Y-131348195D01*
X140133271Y-131062481D02*
X140228510Y-131062481D01*
X140323748Y-131110100D01*
X140371367Y-131157719D01*
X140418986Y-131252957D01*
X140466605Y-131443433D01*
X140466605Y-131681529D01*
X140418986Y-131872005D01*
X140371367Y-131967243D01*
X140323748Y-132014862D01*
X140228510Y-132062481D01*
X140133271Y-132062481D01*
X140038033Y-132014862D01*
X139990414Y-131967243D01*
X139942795Y-131872005D01*
X139895176Y-131681529D01*
X139895176Y-131443433D01*
X139942795Y-131252957D01*
X139990414Y-131157719D01*
X140038033Y-131110100D01*
X140133271Y-131062481D01*
X86879134Y-124640981D02*
X86402943Y-124640981D01*
X86402943Y-123640981D01*
X87783896Y-124545743D02*
X87736277Y-124593362D01*
X87593420Y-124640981D01*
X87498182Y-124640981D01*
X87355324Y-124593362D01*
X87260086Y-124498124D01*
X87212467Y-124402886D01*
X87164848Y-124212410D01*
X87164848Y-124069552D01*
X87212467Y-123879076D01*
X87260086Y-123783838D01*
X87355324Y-123688600D01*
X87498182Y-123640981D01*
X87593420Y-123640981D01*
X87736277Y-123688600D01*
X87783896Y-123736219D01*
X88164848Y-123736219D02*
X88212467Y-123688600D01*
X88307705Y-123640981D01*
X88545801Y-123640981D01*
X88641039Y-123688600D01*
X88688658Y-123736219D01*
X88736277Y-123831457D01*
X88736277Y-123926695D01*
X88688658Y-124069552D01*
X88117229Y-124640981D01*
X88736277Y-124640981D01*
X66965534Y-124717181D02*
X66489343Y-124717181D01*
X66489343Y-123717181D01*
X67870296Y-124621943D02*
X67822677Y-124669562D01*
X67679820Y-124717181D01*
X67584582Y-124717181D01*
X67441724Y-124669562D01*
X67346486Y-124574324D01*
X67298867Y-124479086D01*
X67251248Y-124288610D01*
X67251248Y-124145752D01*
X67298867Y-123955276D01*
X67346486Y-123860038D01*
X67441724Y-123764800D01*
X67584582Y-123717181D01*
X67679820Y-123717181D01*
X67822677Y-123764800D01*
X67870296Y-123812419D01*
X68822677Y-124717181D02*
X68251248Y-124717181D01*
X68536962Y-124717181D02*
X68536962Y-123717181D01*
X68441724Y-123860038D01*
X68346486Y-123955276D01*
X68251248Y-124002895D01*
X111390134Y-124640981D02*
X110913943Y-124640981D01*
X110913943Y-123640981D01*
X112294896Y-124545743D02*
X112247277Y-124593362D01*
X112104420Y-124640981D01*
X112009182Y-124640981D01*
X111866324Y-124593362D01*
X111771086Y-124498124D01*
X111723467Y-124402886D01*
X111675848Y-124212410D01*
X111675848Y-124069552D01*
X111723467Y-123879076D01*
X111771086Y-123783838D01*
X111866324Y-123688600D01*
X112009182Y-123640981D01*
X112104420Y-123640981D01*
X112247277Y-123688600D01*
X112294896Y-123736219D01*
X112628229Y-123640981D02*
X113247277Y-123640981D01*
X112913943Y-124021933D01*
X113056801Y-124021933D01*
X113152039Y-124069552D01*
X113199658Y-124117171D01*
X113247277Y-124212410D01*
X113247277Y-124450505D01*
X113199658Y-124545743D01*
X113152039Y-124593362D01*
X113056801Y-124640981D01*
X112771086Y-124640981D01*
X112675848Y-124593362D01*
X112628229Y-124545743D01*
X133869134Y-125021981D02*
X133392943Y-125021981D01*
X133392943Y-124021981D01*
X134773896Y-124926743D02*
X134726277Y-124974362D01*
X134583420Y-125021981D01*
X134488182Y-125021981D01*
X134345324Y-124974362D01*
X134250086Y-124879124D01*
X134202467Y-124783886D01*
X134154848Y-124593410D01*
X134154848Y-124450552D01*
X134202467Y-124260076D01*
X134250086Y-124164838D01*
X134345324Y-124069600D01*
X134488182Y-124021981D01*
X134583420Y-124021981D01*
X134726277Y-124069600D01*
X134773896Y-124117219D01*
X135631039Y-124355314D02*
X135631039Y-125021981D01*
X135392943Y-123974362D02*
X135154848Y-124688648D01*
X135773896Y-124688648D01*
X132996134Y-78523981D02*
X132519943Y-78523981D01*
X132519943Y-77523981D01*
X133900896Y-78428743D02*
X133853277Y-78476362D01*
X133710420Y-78523981D01*
X133615182Y-78523981D01*
X133472324Y-78476362D01*
X133377086Y-78381124D01*
X133329467Y-78285886D01*
X133281848Y-78095410D01*
X133281848Y-77952552D01*
X133329467Y-77762076D01*
X133377086Y-77666838D01*
X133472324Y-77571600D01*
X133615182Y-77523981D01*
X133710420Y-77523981D01*
X133853277Y-77571600D01*
X133900896Y-77619219D01*
X134805658Y-77523981D02*
X134329467Y-77523981D01*
X134281848Y-78000171D01*
X134329467Y-77952552D01*
X134424705Y-77904933D01*
X134662801Y-77904933D01*
X134758039Y-77952552D01*
X134805658Y-78000171D01*
X134853277Y-78095410D01*
X134853277Y-78333505D01*
X134805658Y-78428743D01*
X134758039Y-78476362D01*
X134662801Y-78523981D01*
X134424705Y-78523981D01*
X134329467Y-78476362D01*
X134281848Y-78428743D01*
X111787134Y-78396981D02*
X111310943Y-78396981D01*
X111310943Y-77396981D01*
X112691896Y-78301743D02*
X112644277Y-78349362D01*
X112501420Y-78396981D01*
X112406182Y-78396981D01*
X112263324Y-78349362D01*
X112168086Y-78254124D01*
X112120467Y-78158886D01*
X112072848Y-77968410D01*
X112072848Y-77825552D01*
X112120467Y-77635076D01*
X112168086Y-77539838D01*
X112263324Y-77444600D01*
X112406182Y-77396981D01*
X112501420Y-77396981D01*
X112644277Y-77444600D01*
X112691896Y-77492219D01*
X113549039Y-77396981D02*
X113358562Y-77396981D01*
X113263324Y-77444600D01*
X113215705Y-77492219D01*
X113120467Y-77635076D01*
X113072848Y-77825552D01*
X113072848Y-78206505D01*
X113120467Y-78301743D01*
X113168086Y-78349362D01*
X113263324Y-78396981D01*
X113453801Y-78396981D01*
X113549039Y-78349362D01*
X113596658Y-78301743D01*
X113644277Y-78206505D01*
X113644277Y-77968410D01*
X113596658Y-77873171D01*
X113549039Y-77825552D01*
X113453801Y-77777933D01*
X113263324Y-77777933D01*
X113168086Y-77825552D01*
X113120467Y-77873171D01*
X113072848Y-77968410D01*
X89958374Y-78590021D02*
X89482183Y-78590021D01*
X89482183Y-77590021D01*
X90863136Y-78494783D02*
X90815517Y-78542402D01*
X90672660Y-78590021D01*
X90577422Y-78590021D01*
X90434564Y-78542402D01*
X90339326Y-78447164D01*
X90291707Y-78351926D01*
X90244088Y-78161450D01*
X90244088Y-78018592D01*
X90291707Y-77828116D01*
X90339326Y-77732878D01*
X90434564Y-77637640D01*
X90577422Y-77590021D01*
X90672660Y-77590021D01*
X90815517Y-77637640D01*
X90863136Y-77685259D01*
X91196469Y-77590021D02*
X91863136Y-77590021D01*
X91434564Y-78590021D01*
X116985300Y-110980481D02*
X116651966Y-110504290D01*
X116413871Y-110980481D02*
X116413871Y-109980481D01*
X116794824Y-109980481D01*
X116890062Y-110028100D01*
X116937681Y-110075719D01*
X116985300Y-110170957D01*
X116985300Y-110313814D01*
X116937681Y-110409052D01*
X116890062Y-110456671D01*
X116794824Y-110504290D01*
X116413871Y-110504290D01*
X117890062Y-110980481D02*
X117413871Y-110980481D01*
X117413871Y-109980481D01*
X118413871Y-110504290D02*
X118413871Y-110980481D01*
X118080538Y-109980481D02*
X118413871Y-110504290D01*
X118747205Y-109980481D01*
X118985300Y-109980481D02*
X119604348Y-109980481D01*
X119271014Y-110361433D01*
X119413872Y-110361433D01*
X119509110Y-110409052D01*
X119556729Y-110456671D01*
X119604348Y-110551910D01*
X119604348Y-110790005D01*
X119556729Y-110885243D01*
X119509110Y-110932862D01*
X119413872Y-110980481D01*
X119128157Y-110980481D01*
X119032919Y-110932862D01*
X118985300Y-110885243D01*
X108675776Y-104932862D02*
X108818633Y-104980481D01*
X109056729Y-104980481D01*
X109151967Y-104932862D01*
X109199586Y-104885243D01*
X109247205Y-104790005D01*
X109247205Y-104694767D01*
X109199586Y-104599529D01*
X109151967Y-104551910D01*
X109056729Y-104504290D01*
X108866252Y-104456671D01*
X108771014Y-104409052D01*
X108723395Y-104361433D01*
X108675776Y-104266195D01*
X108675776Y-104170957D01*
X108723395Y-104075719D01*
X108771014Y-104028100D01*
X108866252Y-103980481D01*
X109104348Y-103980481D01*
X109247205Y-104028100D01*
X110247205Y-104980481D02*
X109913871Y-104504290D01*
X109675776Y-104980481D02*
X109675776Y-103980481D01*
X110056729Y-103980481D01*
X110151967Y-104028100D01*
X110199586Y-104075719D01*
X110247205Y-104170957D01*
X110247205Y-104313814D01*
X110199586Y-104409052D01*
X110151967Y-104456671D01*
X110056729Y-104504290D01*
X109675776Y-104504290D01*
X110675776Y-104980481D02*
X110675776Y-103980481D01*
X110913871Y-103980481D01*
X111056729Y-104028100D01*
X111151967Y-104123338D01*
X111199586Y-104218576D01*
X111247205Y-104409052D01*
X111247205Y-104551910D01*
X111199586Y-104742386D01*
X111151967Y-104837624D01*
X111056729Y-104932862D01*
X110913871Y-104980481D01*
X110675776Y-104980481D01*
X112247205Y-104980481D02*
X111913871Y-104504290D01*
X111675776Y-104980481D02*
X111675776Y-103980481D01*
X112056729Y-103980481D01*
X112151967Y-104028100D01*
X112199586Y-104075719D01*
X112247205Y-104170957D01*
X112247205Y-104313814D01*
X112199586Y-104409052D01*
X112151967Y-104456671D01*
X112056729Y-104504290D01*
X111675776Y-104504290D01*
X113056729Y-104932862D02*
X112961491Y-104980481D01*
X112771014Y-104980481D01*
X112675776Y-104932862D01*
X112628157Y-104837624D01*
X112628157Y-104456671D01*
X112675776Y-104361433D01*
X112771014Y-104313814D01*
X112961491Y-104313814D01*
X113056729Y-104361433D01*
X113104348Y-104456671D01*
X113104348Y-104551910D01*
X112628157Y-104647148D01*
X113675776Y-104980481D02*
X113580538Y-104932862D01*
X113532919Y-104837624D01*
X113532919Y-103980481D01*
X114485301Y-104980481D02*
X114485301Y-104456671D01*
X114437682Y-104361433D01*
X114342444Y-104313814D01*
X114151967Y-104313814D01*
X114056729Y-104361433D01*
X114485301Y-104932862D02*
X114390063Y-104980481D01*
X114151967Y-104980481D01*
X114056729Y-104932862D01*
X114009110Y-104837624D01*
X114009110Y-104742386D01*
X114056729Y-104647148D01*
X114151967Y-104599529D01*
X114390063Y-104599529D01*
X114485301Y-104551910D01*
X114866253Y-104313814D02*
X115104348Y-104980481D01*
X115342444Y-104313814D02*
X115104348Y-104980481D01*
X115009110Y-105218576D01*
X114961491Y-105266195D01*
X114866253Y-105313814D01*
X79807800Y-92451181D02*
X79474466Y-91974990D01*
X79236371Y-92451181D02*
X79236371Y-91451181D01*
X79617324Y-91451181D01*
X79712562Y-91498800D01*
X79760181Y-91546419D01*
X79807800Y-91641657D01*
X79807800Y-91784514D01*
X79760181Y-91879752D01*
X79712562Y-91927371D01*
X79617324Y-91974990D01*
X79236371Y-91974990D01*
X80712562Y-92451181D02*
X80236371Y-92451181D01*
X80236371Y-91451181D01*
X81236371Y-91974990D02*
X81236371Y-92451181D01*
X80903038Y-91451181D02*
X81236371Y-91974990D01*
X81569705Y-91451181D01*
X81807800Y-91451181D02*
X82474467Y-91451181D01*
X82045895Y-92451181D01*
X83498276Y-98403562D02*
X83641133Y-98451181D01*
X83879229Y-98451181D01*
X83974467Y-98403562D01*
X84022086Y-98355943D01*
X84069705Y-98260705D01*
X84069705Y-98165467D01*
X84022086Y-98070229D01*
X83974467Y-98022610D01*
X83879229Y-97974990D01*
X83688752Y-97927371D01*
X83593514Y-97879752D01*
X83545895Y-97832133D01*
X83498276Y-97736895D01*
X83498276Y-97641657D01*
X83545895Y-97546419D01*
X83593514Y-97498800D01*
X83688752Y-97451181D01*
X83926848Y-97451181D01*
X84069705Y-97498800D01*
X85069705Y-98451181D02*
X84736371Y-97974990D01*
X84498276Y-98451181D02*
X84498276Y-97451181D01*
X84879229Y-97451181D01*
X84974467Y-97498800D01*
X85022086Y-97546419D01*
X85069705Y-97641657D01*
X85069705Y-97784514D01*
X85022086Y-97879752D01*
X84974467Y-97927371D01*
X84879229Y-97974990D01*
X84498276Y-97974990D01*
X85498276Y-98451181D02*
X85498276Y-97451181D01*
X85736371Y-97451181D01*
X85879229Y-97498800D01*
X85974467Y-97594038D01*
X86022086Y-97689276D01*
X86069705Y-97879752D01*
X86069705Y-98022610D01*
X86022086Y-98213086D01*
X85974467Y-98308324D01*
X85879229Y-98403562D01*
X85736371Y-98451181D01*
X85498276Y-98451181D01*
X87069705Y-98451181D02*
X86736371Y-97974990D01*
X86498276Y-98451181D02*
X86498276Y-97451181D01*
X86879229Y-97451181D01*
X86974467Y-97498800D01*
X87022086Y-97546419D01*
X87069705Y-97641657D01*
X87069705Y-97784514D01*
X87022086Y-97879752D01*
X86974467Y-97927371D01*
X86879229Y-97974990D01*
X86498276Y-97974990D01*
X87879229Y-98403562D02*
X87783991Y-98451181D01*
X87593514Y-98451181D01*
X87498276Y-98403562D01*
X87450657Y-98308324D01*
X87450657Y-97927371D01*
X87498276Y-97832133D01*
X87593514Y-97784514D01*
X87783991Y-97784514D01*
X87879229Y-97832133D01*
X87926848Y-97927371D01*
X87926848Y-98022610D01*
X87450657Y-98117848D01*
X88498276Y-98451181D02*
X88403038Y-98403562D01*
X88355419Y-98308324D01*
X88355419Y-97451181D01*
X89307801Y-98451181D02*
X89307801Y-97927371D01*
X89260182Y-97832133D01*
X89164944Y-97784514D01*
X88974467Y-97784514D01*
X88879229Y-97832133D01*
X89307801Y-98403562D02*
X89212563Y-98451181D01*
X88974467Y-98451181D01*
X88879229Y-98403562D01*
X88831610Y-98308324D01*
X88831610Y-98213086D01*
X88879229Y-98117848D01*
X88974467Y-98070229D01*
X89212563Y-98070229D01*
X89307801Y-98022610D01*
X89688753Y-97784514D02*
X89926848Y-98451181D01*
X90164944Y-97784514D02*
X89926848Y-98451181D01*
X89831610Y-98689276D01*
X89783991Y-98736895D01*
X89688753Y-98784514D01*
X84562200Y-59888381D02*
X84228866Y-59412190D01*
X83990771Y-59888381D02*
X83990771Y-58888381D01*
X84371724Y-58888381D01*
X84466962Y-58936000D01*
X84514581Y-58983619D01*
X84562200Y-59078857D01*
X84562200Y-59221714D01*
X84514581Y-59316952D01*
X84466962Y-59364571D01*
X84371724Y-59412190D01*
X83990771Y-59412190D01*
X85466962Y-59888381D02*
X84990771Y-59888381D01*
X84990771Y-58888381D01*
X85990771Y-59412190D02*
X85990771Y-59888381D01*
X85657438Y-58888381D02*
X85990771Y-59412190D01*
X86324105Y-58888381D01*
X86705057Y-59888381D02*
X86895533Y-59888381D01*
X86990772Y-59840762D01*
X87038391Y-59793143D01*
X87133629Y-59650286D01*
X87181248Y-59459810D01*
X87181248Y-59078857D01*
X87133629Y-58983619D01*
X87086010Y-58936000D01*
X86990772Y-58888381D01*
X86800295Y-58888381D01*
X86705057Y-58936000D01*
X86657438Y-58983619D01*
X86609819Y-59078857D01*
X86609819Y-59316952D01*
X86657438Y-59412190D01*
X86705057Y-59459810D01*
X86800295Y-59507429D01*
X86990772Y-59507429D01*
X87086010Y-59459810D01*
X87133629Y-59412190D01*
X87181248Y-59316952D01*
X76252676Y-53840762D02*
X76395533Y-53888381D01*
X76633629Y-53888381D01*
X76728867Y-53840762D01*
X76776486Y-53793143D01*
X76824105Y-53697905D01*
X76824105Y-53602667D01*
X76776486Y-53507429D01*
X76728867Y-53459810D01*
X76633629Y-53412190D01*
X76443152Y-53364571D01*
X76347914Y-53316952D01*
X76300295Y-53269333D01*
X76252676Y-53174095D01*
X76252676Y-53078857D01*
X76300295Y-52983619D01*
X76347914Y-52936000D01*
X76443152Y-52888381D01*
X76681248Y-52888381D01*
X76824105Y-52936000D01*
X77824105Y-53888381D02*
X77490771Y-53412190D01*
X77252676Y-53888381D02*
X77252676Y-52888381D01*
X77633629Y-52888381D01*
X77728867Y-52936000D01*
X77776486Y-52983619D01*
X77824105Y-53078857D01*
X77824105Y-53221714D01*
X77776486Y-53316952D01*
X77728867Y-53364571D01*
X77633629Y-53412190D01*
X77252676Y-53412190D01*
X78252676Y-53888381D02*
X78252676Y-52888381D01*
X78490771Y-52888381D01*
X78633629Y-52936000D01*
X78728867Y-53031238D01*
X78776486Y-53126476D01*
X78824105Y-53316952D01*
X78824105Y-53459810D01*
X78776486Y-53650286D01*
X78728867Y-53745524D01*
X78633629Y-53840762D01*
X78490771Y-53888381D01*
X78252676Y-53888381D01*
X79824105Y-53888381D02*
X79490771Y-53412190D01*
X79252676Y-53888381D02*
X79252676Y-52888381D01*
X79633629Y-52888381D01*
X79728867Y-52936000D01*
X79776486Y-52983619D01*
X79824105Y-53078857D01*
X79824105Y-53221714D01*
X79776486Y-53316952D01*
X79728867Y-53364571D01*
X79633629Y-53412190D01*
X79252676Y-53412190D01*
X80633629Y-53840762D02*
X80538391Y-53888381D01*
X80347914Y-53888381D01*
X80252676Y-53840762D01*
X80205057Y-53745524D01*
X80205057Y-53364571D01*
X80252676Y-53269333D01*
X80347914Y-53221714D01*
X80538391Y-53221714D01*
X80633629Y-53269333D01*
X80681248Y-53364571D01*
X80681248Y-53459810D01*
X80205057Y-53555048D01*
X81252676Y-53888381D02*
X81157438Y-53840762D01*
X81109819Y-53745524D01*
X81109819Y-52888381D01*
X82062201Y-53888381D02*
X82062201Y-53364571D01*
X82014582Y-53269333D01*
X81919344Y-53221714D01*
X81728867Y-53221714D01*
X81633629Y-53269333D01*
X82062201Y-53840762D02*
X81966963Y-53888381D01*
X81728867Y-53888381D01*
X81633629Y-53840762D01*
X81586010Y-53745524D01*
X81586010Y-53650286D01*
X81633629Y-53555048D01*
X81728867Y-53507429D01*
X81966963Y-53507429D01*
X82062201Y-53459810D01*
X82443153Y-53221714D02*
X82681248Y-53888381D01*
X82919344Y-53221714D02*
X82681248Y-53888381D01*
X82586010Y-54126476D01*
X82538391Y-54174095D01*
X82443153Y-54221714D01*
X55296800Y-92501981D02*
X54963466Y-92025790D01*
X54725371Y-92501981D02*
X54725371Y-91501981D01*
X55106324Y-91501981D01*
X55201562Y-91549600D01*
X55249181Y-91597219D01*
X55296800Y-91692457D01*
X55296800Y-91835314D01*
X55249181Y-91930552D01*
X55201562Y-91978171D01*
X55106324Y-92025790D01*
X54725371Y-92025790D01*
X56201562Y-92501981D02*
X55725371Y-92501981D01*
X55725371Y-91501981D01*
X56725371Y-92025790D02*
X56725371Y-92501981D01*
X56392038Y-91501981D02*
X56725371Y-92025790D01*
X57058705Y-91501981D01*
X57534895Y-91930552D02*
X57439657Y-91882933D01*
X57392038Y-91835314D01*
X57344419Y-91740076D01*
X57344419Y-91692457D01*
X57392038Y-91597219D01*
X57439657Y-91549600D01*
X57534895Y-91501981D01*
X57725372Y-91501981D01*
X57820610Y-91549600D01*
X57868229Y-91597219D01*
X57915848Y-91692457D01*
X57915848Y-91740076D01*
X57868229Y-91835314D01*
X57820610Y-91882933D01*
X57725372Y-91930552D01*
X57534895Y-91930552D01*
X57439657Y-91978171D01*
X57392038Y-92025790D01*
X57344419Y-92121029D01*
X57344419Y-92311505D01*
X57392038Y-92406743D01*
X57439657Y-92454362D01*
X57534895Y-92501981D01*
X57725372Y-92501981D01*
X57820610Y-92454362D01*
X57868229Y-92406743D01*
X57915848Y-92311505D01*
X57915848Y-92121029D01*
X57868229Y-92025790D01*
X57820610Y-91978171D01*
X57725372Y-91930552D01*
X58987276Y-98454362D02*
X59130133Y-98501981D01*
X59368229Y-98501981D01*
X59463467Y-98454362D01*
X59511086Y-98406743D01*
X59558705Y-98311505D01*
X59558705Y-98216267D01*
X59511086Y-98121029D01*
X59463467Y-98073410D01*
X59368229Y-98025790D01*
X59177752Y-97978171D01*
X59082514Y-97930552D01*
X59034895Y-97882933D01*
X58987276Y-97787695D01*
X58987276Y-97692457D01*
X59034895Y-97597219D01*
X59082514Y-97549600D01*
X59177752Y-97501981D01*
X59415848Y-97501981D01*
X59558705Y-97549600D01*
X60558705Y-98501981D02*
X60225371Y-98025790D01*
X59987276Y-98501981D02*
X59987276Y-97501981D01*
X60368229Y-97501981D01*
X60463467Y-97549600D01*
X60511086Y-97597219D01*
X60558705Y-97692457D01*
X60558705Y-97835314D01*
X60511086Y-97930552D01*
X60463467Y-97978171D01*
X60368229Y-98025790D01*
X59987276Y-98025790D01*
X60987276Y-98501981D02*
X60987276Y-97501981D01*
X61225371Y-97501981D01*
X61368229Y-97549600D01*
X61463467Y-97644838D01*
X61511086Y-97740076D01*
X61558705Y-97930552D01*
X61558705Y-98073410D01*
X61511086Y-98263886D01*
X61463467Y-98359124D01*
X61368229Y-98454362D01*
X61225371Y-98501981D01*
X60987276Y-98501981D01*
X62558705Y-98501981D02*
X62225371Y-98025790D01*
X61987276Y-98501981D02*
X61987276Y-97501981D01*
X62368229Y-97501981D01*
X62463467Y-97549600D01*
X62511086Y-97597219D01*
X62558705Y-97692457D01*
X62558705Y-97835314D01*
X62511086Y-97930552D01*
X62463467Y-97978171D01*
X62368229Y-98025790D01*
X61987276Y-98025790D01*
X63368229Y-98454362D02*
X63272991Y-98501981D01*
X63082514Y-98501981D01*
X62987276Y-98454362D01*
X62939657Y-98359124D01*
X62939657Y-97978171D01*
X62987276Y-97882933D01*
X63082514Y-97835314D01*
X63272991Y-97835314D01*
X63368229Y-97882933D01*
X63415848Y-97978171D01*
X63415848Y-98073410D01*
X62939657Y-98168648D01*
X63987276Y-98501981D02*
X63892038Y-98454362D01*
X63844419Y-98359124D01*
X63844419Y-97501981D01*
X64796801Y-98501981D02*
X64796801Y-97978171D01*
X64749182Y-97882933D01*
X64653944Y-97835314D01*
X64463467Y-97835314D01*
X64368229Y-97882933D01*
X64796801Y-98454362D02*
X64701563Y-98501981D01*
X64463467Y-98501981D01*
X64368229Y-98454362D01*
X64320610Y-98359124D01*
X64320610Y-98263886D01*
X64368229Y-98168648D01*
X64463467Y-98121029D01*
X64701563Y-98121029D01*
X64796801Y-98073410D01*
X65177753Y-97835314D02*
X65415848Y-98501981D01*
X65653944Y-97835314D02*
X65415848Y-98501981D01*
X65320610Y-98740076D01*
X65272991Y-98787695D01*
X65177753Y-98835314D01*
X104344200Y-92181941D02*
X104010866Y-91705750D01*
X103772771Y-92181941D02*
X103772771Y-91181941D01*
X104153724Y-91181941D01*
X104248962Y-91229560D01*
X104296581Y-91277179D01*
X104344200Y-91372417D01*
X104344200Y-91515274D01*
X104296581Y-91610512D01*
X104248962Y-91658131D01*
X104153724Y-91705750D01*
X103772771Y-91705750D01*
X105248962Y-92181941D02*
X104772771Y-92181941D01*
X104772771Y-91181941D01*
X105772771Y-91705750D02*
X105772771Y-92181941D01*
X105439438Y-91181941D02*
X105772771Y-91705750D01*
X106106105Y-91181941D01*
X106868010Y-91181941D02*
X106677533Y-91181941D01*
X106582295Y-91229560D01*
X106534676Y-91277179D01*
X106439438Y-91420036D01*
X106391819Y-91610512D01*
X106391819Y-91991465D01*
X106439438Y-92086703D01*
X106487057Y-92134322D01*
X106582295Y-92181941D01*
X106772772Y-92181941D01*
X106868010Y-92134322D01*
X106915629Y-92086703D01*
X106963248Y-91991465D01*
X106963248Y-91753370D01*
X106915629Y-91658131D01*
X106868010Y-91610512D01*
X106772772Y-91562893D01*
X106582295Y-91562893D01*
X106487057Y-91610512D01*
X106439438Y-91658131D01*
X106391819Y-91753370D01*
X108034676Y-98134322D02*
X108177533Y-98181941D01*
X108415629Y-98181941D01*
X108510867Y-98134322D01*
X108558486Y-98086703D01*
X108606105Y-97991465D01*
X108606105Y-97896227D01*
X108558486Y-97800989D01*
X108510867Y-97753370D01*
X108415629Y-97705750D01*
X108225152Y-97658131D01*
X108129914Y-97610512D01*
X108082295Y-97562893D01*
X108034676Y-97467655D01*
X108034676Y-97372417D01*
X108082295Y-97277179D01*
X108129914Y-97229560D01*
X108225152Y-97181941D01*
X108463248Y-97181941D01*
X108606105Y-97229560D01*
X109606105Y-98181941D02*
X109272771Y-97705750D01*
X109034676Y-98181941D02*
X109034676Y-97181941D01*
X109415629Y-97181941D01*
X109510867Y-97229560D01*
X109558486Y-97277179D01*
X109606105Y-97372417D01*
X109606105Y-97515274D01*
X109558486Y-97610512D01*
X109510867Y-97658131D01*
X109415629Y-97705750D01*
X109034676Y-97705750D01*
X110034676Y-98181941D02*
X110034676Y-97181941D01*
X110272771Y-97181941D01*
X110415629Y-97229560D01*
X110510867Y-97324798D01*
X110558486Y-97420036D01*
X110606105Y-97610512D01*
X110606105Y-97753370D01*
X110558486Y-97943846D01*
X110510867Y-98039084D01*
X110415629Y-98134322D01*
X110272771Y-98181941D01*
X110034676Y-98181941D01*
X111606105Y-98181941D02*
X111272771Y-97705750D01*
X111034676Y-98181941D02*
X111034676Y-97181941D01*
X111415629Y-97181941D01*
X111510867Y-97229560D01*
X111558486Y-97277179D01*
X111606105Y-97372417D01*
X111606105Y-97515274D01*
X111558486Y-97610512D01*
X111510867Y-97658131D01*
X111415629Y-97705750D01*
X111034676Y-97705750D01*
X112415629Y-98134322D02*
X112320391Y-98181941D01*
X112129914Y-98181941D01*
X112034676Y-98134322D01*
X111987057Y-98039084D01*
X111987057Y-97658131D01*
X112034676Y-97562893D01*
X112129914Y-97515274D01*
X112320391Y-97515274D01*
X112415629Y-97562893D01*
X112463248Y-97658131D01*
X112463248Y-97753370D01*
X111987057Y-97848608D01*
X113034676Y-98181941D02*
X112939438Y-98134322D01*
X112891819Y-98039084D01*
X112891819Y-97181941D01*
X113844201Y-98181941D02*
X113844201Y-97658131D01*
X113796582Y-97562893D01*
X113701344Y-97515274D01*
X113510867Y-97515274D01*
X113415629Y-97562893D01*
X113844201Y-98134322D02*
X113748963Y-98181941D01*
X113510867Y-98181941D01*
X113415629Y-98134322D01*
X113368010Y-98039084D01*
X113368010Y-97943846D01*
X113415629Y-97848608D01*
X113510867Y-97800989D01*
X113748963Y-97800989D01*
X113844201Y-97753370D01*
X114225153Y-97515274D02*
X114463248Y-98181941D01*
X114701344Y-97515274D02*
X114463248Y-98181941D01*
X114368010Y-98420036D01*
X114320391Y-98467655D01*
X114225153Y-98515274D01*
X128702800Y-92273381D02*
X128369466Y-91797190D01*
X128131371Y-92273381D02*
X128131371Y-91273381D01*
X128512324Y-91273381D01*
X128607562Y-91321000D01*
X128655181Y-91368619D01*
X128702800Y-91463857D01*
X128702800Y-91606714D01*
X128655181Y-91701952D01*
X128607562Y-91749571D01*
X128512324Y-91797190D01*
X128131371Y-91797190D01*
X129607562Y-92273381D02*
X129131371Y-92273381D01*
X129131371Y-91273381D01*
X130131371Y-91797190D02*
X130131371Y-92273381D01*
X129798038Y-91273381D02*
X130131371Y-91797190D01*
X130464705Y-91273381D01*
X131274229Y-91273381D02*
X130798038Y-91273381D01*
X130750419Y-91749571D01*
X130798038Y-91701952D01*
X130893276Y-91654333D01*
X131131372Y-91654333D01*
X131226610Y-91701952D01*
X131274229Y-91749571D01*
X131321848Y-91844810D01*
X131321848Y-92082905D01*
X131274229Y-92178143D01*
X131226610Y-92225762D01*
X131131372Y-92273381D01*
X130893276Y-92273381D01*
X130798038Y-92225762D01*
X130750419Y-92178143D01*
X132393276Y-98225762D02*
X132536133Y-98273381D01*
X132774229Y-98273381D01*
X132869467Y-98225762D01*
X132917086Y-98178143D01*
X132964705Y-98082905D01*
X132964705Y-97987667D01*
X132917086Y-97892429D01*
X132869467Y-97844810D01*
X132774229Y-97797190D01*
X132583752Y-97749571D01*
X132488514Y-97701952D01*
X132440895Y-97654333D01*
X132393276Y-97559095D01*
X132393276Y-97463857D01*
X132440895Y-97368619D01*
X132488514Y-97321000D01*
X132583752Y-97273381D01*
X132821848Y-97273381D01*
X132964705Y-97321000D01*
X133964705Y-98273381D02*
X133631371Y-97797190D01*
X133393276Y-98273381D02*
X133393276Y-97273381D01*
X133774229Y-97273381D01*
X133869467Y-97321000D01*
X133917086Y-97368619D01*
X133964705Y-97463857D01*
X133964705Y-97606714D01*
X133917086Y-97701952D01*
X133869467Y-97749571D01*
X133774229Y-97797190D01*
X133393276Y-97797190D01*
X134393276Y-98273381D02*
X134393276Y-97273381D01*
X134631371Y-97273381D01*
X134774229Y-97321000D01*
X134869467Y-97416238D01*
X134917086Y-97511476D01*
X134964705Y-97701952D01*
X134964705Y-97844810D01*
X134917086Y-98035286D01*
X134869467Y-98130524D01*
X134774229Y-98225762D01*
X134631371Y-98273381D01*
X134393276Y-98273381D01*
X135964705Y-98273381D02*
X135631371Y-97797190D01*
X135393276Y-98273381D02*
X135393276Y-97273381D01*
X135774229Y-97273381D01*
X135869467Y-97321000D01*
X135917086Y-97368619D01*
X135964705Y-97463857D01*
X135964705Y-97606714D01*
X135917086Y-97701952D01*
X135869467Y-97749571D01*
X135774229Y-97797190D01*
X135393276Y-97797190D01*
X136774229Y-98225762D02*
X136678991Y-98273381D01*
X136488514Y-98273381D01*
X136393276Y-98225762D01*
X136345657Y-98130524D01*
X136345657Y-97749571D01*
X136393276Y-97654333D01*
X136488514Y-97606714D01*
X136678991Y-97606714D01*
X136774229Y-97654333D01*
X136821848Y-97749571D01*
X136821848Y-97844810D01*
X136345657Y-97940048D01*
X137393276Y-98273381D02*
X137298038Y-98225762D01*
X137250419Y-98130524D01*
X137250419Y-97273381D01*
X138202801Y-98273381D02*
X138202801Y-97749571D01*
X138155182Y-97654333D01*
X138059944Y-97606714D01*
X137869467Y-97606714D01*
X137774229Y-97654333D01*
X138202801Y-98225762D02*
X138107563Y-98273381D01*
X137869467Y-98273381D01*
X137774229Y-98225762D01*
X137726610Y-98130524D01*
X137726610Y-98035286D01*
X137774229Y-97940048D01*
X137869467Y-97892429D01*
X138107563Y-97892429D01*
X138202801Y-97844810D01*
X138583753Y-97606714D02*
X138821848Y-98273381D01*
X139059944Y-97606714D02*
X138821848Y-98273381D01*
X138726610Y-98511476D01*
X138678991Y-98559095D01*
X138583753Y-98606714D01*
X141623300Y-111361481D02*
X141289966Y-110885290D01*
X141051871Y-111361481D02*
X141051871Y-110361481D01*
X141432824Y-110361481D01*
X141528062Y-110409100D01*
X141575681Y-110456719D01*
X141623300Y-110551957D01*
X141623300Y-110694814D01*
X141575681Y-110790052D01*
X141528062Y-110837671D01*
X141432824Y-110885290D01*
X141051871Y-110885290D01*
X142528062Y-111361481D02*
X142051871Y-111361481D01*
X142051871Y-110361481D01*
X143051871Y-110885290D02*
X143051871Y-111361481D01*
X142718538Y-110361481D02*
X143051871Y-110885290D01*
X143385205Y-110361481D01*
X144147110Y-110694814D02*
X144147110Y-111361481D01*
X143909014Y-110313862D02*
X143670919Y-111028148D01*
X144289967Y-111028148D01*
X133313776Y-105313862D02*
X133456633Y-105361481D01*
X133694729Y-105361481D01*
X133789967Y-105313862D01*
X133837586Y-105266243D01*
X133885205Y-105171005D01*
X133885205Y-105075767D01*
X133837586Y-104980529D01*
X133789967Y-104932910D01*
X133694729Y-104885290D01*
X133504252Y-104837671D01*
X133409014Y-104790052D01*
X133361395Y-104742433D01*
X133313776Y-104647195D01*
X133313776Y-104551957D01*
X133361395Y-104456719D01*
X133409014Y-104409100D01*
X133504252Y-104361481D01*
X133742348Y-104361481D01*
X133885205Y-104409100D01*
X134885205Y-105361481D02*
X134551871Y-104885290D01*
X134313776Y-105361481D02*
X134313776Y-104361481D01*
X134694729Y-104361481D01*
X134789967Y-104409100D01*
X134837586Y-104456719D01*
X134885205Y-104551957D01*
X134885205Y-104694814D01*
X134837586Y-104790052D01*
X134789967Y-104837671D01*
X134694729Y-104885290D01*
X134313776Y-104885290D01*
X135313776Y-105361481D02*
X135313776Y-104361481D01*
X135551871Y-104361481D01*
X135694729Y-104409100D01*
X135789967Y-104504338D01*
X135837586Y-104599576D01*
X135885205Y-104790052D01*
X135885205Y-104932910D01*
X135837586Y-105123386D01*
X135789967Y-105218624D01*
X135694729Y-105313862D01*
X135551871Y-105361481D01*
X135313776Y-105361481D01*
X136885205Y-105361481D02*
X136551871Y-104885290D01*
X136313776Y-105361481D02*
X136313776Y-104361481D01*
X136694729Y-104361481D01*
X136789967Y-104409100D01*
X136837586Y-104456719D01*
X136885205Y-104551957D01*
X136885205Y-104694814D01*
X136837586Y-104790052D01*
X136789967Y-104837671D01*
X136694729Y-104885290D01*
X136313776Y-104885290D01*
X137694729Y-105313862D02*
X137599491Y-105361481D01*
X137409014Y-105361481D01*
X137313776Y-105313862D01*
X137266157Y-105218624D01*
X137266157Y-104837671D01*
X137313776Y-104742433D01*
X137409014Y-104694814D01*
X137599491Y-104694814D01*
X137694729Y-104742433D01*
X137742348Y-104837671D01*
X137742348Y-104932910D01*
X137266157Y-105028148D01*
X138313776Y-105361481D02*
X138218538Y-105313862D01*
X138170919Y-105218624D01*
X138170919Y-104361481D01*
X139123301Y-105361481D02*
X139123301Y-104837671D01*
X139075682Y-104742433D01*
X138980444Y-104694814D01*
X138789967Y-104694814D01*
X138694729Y-104742433D01*
X139123301Y-105313862D02*
X139028063Y-105361481D01*
X138789967Y-105361481D01*
X138694729Y-105313862D01*
X138647110Y-105218624D01*
X138647110Y-105123386D01*
X138694729Y-105028148D01*
X138789967Y-104980529D01*
X139028063Y-104980529D01*
X139123301Y-104932910D01*
X139504253Y-104694814D02*
X139742348Y-105361481D01*
X139980444Y-104694814D02*
X139742348Y-105361481D01*
X139647110Y-105599576D01*
X139599491Y-105647195D01*
X139504253Y-105694814D01*
X91712300Y-110916981D02*
X91378966Y-110440790D01*
X91140871Y-110916981D02*
X91140871Y-109916981D01*
X91521824Y-109916981D01*
X91617062Y-109964600D01*
X91664681Y-110012219D01*
X91712300Y-110107457D01*
X91712300Y-110250314D01*
X91664681Y-110345552D01*
X91617062Y-110393171D01*
X91521824Y-110440790D01*
X91140871Y-110440790D01*
X92617062Y-110916981D02*
X92140871Y-110916981D01*
X92140871Y-109916981D01*
X93140871Y-110440790D02*
X93140871Y-110916981D01*
X92807538Y-109916981D02*
X93140871Y-110440790D01*
X93474205Y-109916981D01*
X93759919Y-110012219D02*
X93807538Y-109964600D01*
X93902776Y-109916981D01*
X94140872Y-109916981D01*
X94236110Y-109964600D01*
X94283729Y-110012219D01*
X94331348Y-110107457D01*
X94331348Y-110202695D01*
X94283729Y-110345552D01*
X93712300Y-110916981D01*
X94331348Y-110916981D01*
X83402776Y-104869362D02*
X83545633Y-104916981D01*
X83783729Y-104916981D01*
X83878967Y-104869362D01*
X83926586Y-104821743D01*
X83974205Y-104726505D01*
X83974205Y-104631267D01*
X83926586Y-104536029D01*
X83878967Y-104488410D01*
X83783729Y-104440790D01*
X83593252Y-104393171D01*
X83498014Y-104345552D01*
X83450395Y-104297933D01*
X83402776Y-104202695D01*
X83402776Y-104107457D01*
X83450395Y-104012219D01*
X83498014Y-103964600D01*
X83593252Y-103916981D01*
X83831348Y-103916981D01*
X83974205Y-103964600D01*
X84974205Y-104916981D02*
X84640871Y-104440790D01*
X84402776Y-104916981D02*
X84402776Y-103916981D01*
X84783729Y-103916981D01*
X84878967Y-103964600D01*
X84926586Y-104012219D01*
X84974205Y-104107457D01*
X84974205Y-104250314D01*
X84926586Y-104345552D01*
X84878967Y-104393171D01*
X84783729Y-104440790D01*
X84402776Y-104440790D01*
X85402776Y-104916981D02*
X85402776Y-103916981D01*
X85640871Y-103916981D01*
X85783729Y-103964600D01*
X85878967Y-104059838D01*
X85926586Y-104155076D01*
X85974205Y-104345552D01*
X85974205Y-104488410D01*
X85926586Y-104678886D01*
X85878967Y-104774124D01*
X85783729Y-104869362D01*
X85640871Y-104916981D01*
X85402776Y-104916981D01*
X86974205Y-104916981D02*
X86640871Y-104440790D01*
X86402776Y-104916981D02*
X86402776Y-103916981D01*
X86783729Y-103916981D01*
X86878967Y-103964600D01*
X86926586Y-104012219D01*
X86974205Y-104107457D01*
X86974205Y-104250314D01*
X86926586Y-104345552D01*
X86878967Y-104393171D01*
X86783729Y-104440790D01*
X86402776Y-104440790D01*
X87783729Y-104869362D02*
X87688491Y-104916981D01*
X87498014Y-104916981D01*
X87402776Y-104869362D01*
X87355157Y-104774124D01*
X87355157Y-104393171D01*
X87402776Y-104297933D01*
X87498014Y-104250314D01*
X87688491Y-104250314D01*
X87783729Y-104297933D01*
X87831348Y-104393171D01*
X87831348Y-104488410D01*
X87355157Y-104583648D01*
X88402776Y-104916981D02*
X88307538Y-104869362D01*
X88259919Y-104774124D01*
X88259919Y-103916981D01*
X89212301Y-104916981D02*
X89212301Y-104393171D01*
X89164682Y-104297933D01*
X89069444Y-104250314D01*
X88878967Y-104250314D01*
X88783729Y-104297933D01*
X89212301Y-104869362D02*
X89117063Y-104916981D01*
X88878967Y-104916981D01*
X88783729Y-104869362D01*
X88736110Y-104774124D01*
X88736110Y-104678886D01*
X88783729Y-104583648D01*
X88878967Y-104536029D01*
X89117063Y-104536029D01*
X89212301Y-104488410D01*
X89593253Y-104250314D02*
X89831348Y-104916981D01*
X90069444Y-104250314D02*
X89831348Y-104916981D01*
X89736110Y-105155076D01*
X89688491Y-105202695D01*
X89593253Y-105250314D01*
X67010800Y-110916981D02*
X66677466Y-110440790D01*
X66439371Y-110916981D02*
X66439371Y-109916981D01*
X66820324Y-109916981D01*
X66915562Y-109964600D01*
X66963181Y-110012219D01*
X67010800Y-110107457D01*
X67010800Y-110250314D01*
X66963181Y-110345552D01*
X66915562Y-110393171D01*
X66820324Y-110440790D01*
X66439371Y-110440790D01*
X67915562Y-110916981D02*
X67439371Y-110916981D01*
X67439371Y-109916981D01*
X68439371Y-110440790D02*
X68439371Y-110916981D01*
X68106038Y-109916981D02*
X68439371Y-110440790D01*
X68772705Y-109916981D01*
X69629848Y-110916981D02*
X69058419Y-110916981D01*
X69344133Y-110916981D02*
X69344133Y-109916981D01*
X69248895Y-110059838D01*
X69153657Y-110155076D01*
X69058419Y-110202695D01*
X58701276Y-104869362D02*
X58844133Y-104916981D01*
X59082229Y-104916981D01*
X59177467Y-104869362D01*
X59225086Y-104821743D01*
X59272705Y-104726505D01*
X59272705Y-104631267D01*
X59225086Y-104536029D01*
X59177467Y-104488410D01*
X59082229Y-104440790D01*
X58891752Y-104393171D01*
X58796514Y-104345552D01*
X58748895Y-104297933D01*
X58701276Y-104202695D01*
X58701276Y-104107457D01*
X58748895Y-104012219D01*
X58796514Y-103964600D01*
X58891752Y-103916981D01*
X59129848Y-103916981D01*
X59272705Y-103964600D01*
X60272705Y-104916981D02*
X59939371Y-104440790D01*
X59701276Y-104916981D02*
X59701276Y-103916981D01*
X60082229Y-103916981D01*
X60177467Y-103964600D01*
X60225086Y-104012219D01*
X60272705Y-104107457D01*
X60272705Y-104250314D01*
X60225086Y-104345552D01*
X60177467Y-104393171D01*
X60082229Y-104440790D01*
X59701276Y-104440790D01*
X60701276Y-104916981D02*
X60701276Y-103916981D01*
X60939371Y-103916981D01*
X61082229Y-103964600D01*
X61177467Y-104059838D01*
X61225086Y-104155076D01*
X61272705Y-104345552D01*
X61272705Y-104488410D01*
X61225086Y-104678886D01*
X61177467Y-104774124D01*
X61082229Y-104869362D01*
X60939371Y-104916981D01*
X60701276Y-104916981D01*
X62272705Y-104916981D02*
X61939371Y-104440790D01*
X61701276Y-104916981D02*
X61701276Y-103916981D01*
X62082229Y-103916981D01*
X62177467Y-103964600D01*
X62225086Y-104012219D01*
X62272705Y-104107457D01*
X62272705Y-104250314D01*
X62225086Y-104345552D01*
X62177467Y-104393171D01*
X62082229Y-104440790D01*
X61701276Y-104440790D01*
X63082229Y-104869362D02*
X62986991Y-104916981D01*
X62796514Y-104916981D01*
X62701276Y-104869362D01*
X62653657Y-104774124D01*
X62653657Y-104393171D01*
X62701276Y-104297933D01*
X62796514Y-104250314D01*
X62986991Y-104250314D01*
X63082229Y-104297933D01*
X63129848Y-104393171D01*
X63129848Y-104488410D01*
X62653657Y-104583648D01*
X63701276Y-104916981D02*
X63606038Y-104869362D01*
X63558419Y-104774124D01*
X63558419Y-103916981D01*
X64510801Y-104916981D02*
X64510801Y-104393171D01*
X64463182Y-104297933D01*
X64367944Y-104250314D01*
X64177467Y-104250314D01*
X64082229Y-104297933D01*
X64510801Y-104869362D02*
X64415563Y-104916981D01*
X64177467Y-104916981D01*
X64082229Y-104869362D01*
X64034610Y-104774124D01*
X64034610Y-104678886D01*
X64082229Y-104583648D01*
X64177467Y-104536029D01*
X64415563Y-104536029D01*
X64510801Y-104488410D01*
X64891753Y-104250314D02*
X65129848Y-104916981D01*
X65367944Y-104250314D02*
X65129848Y-104916981D01*
X65034610Y-105155076D01*
X64986991Y-105202695D01*
X64891753Y-105250314D01*
X74393467Y-90775981D02*
X74393467Y-91490267D01*
X74345847Y-91633124D01*
X74250609Y-91728362D01*
X74107752Y-91775981D01*
X74012514Y-91775981D01*
X74774419Y-90775981D02*
X75441086Y-90775981D01*
X75012514Y-91775981D01*
X75036324Y-96330743D02*
X74988705Y-96378362D01*
X74845848Y-96425981D01*
X74750610Y-96425981D01*
X74607752Y-96378362D01*
X74512514Y-96283124D01*
X74464895Y-96187886D01*
X74417276Y-95997410D01*
X74417276Y-95854552D01*
X74464895Y-95664076D01*
X74512514Y-95568838D01*
X74607752Y-95473600D01*
X74750610Y-95425981D01*
X74845848Y-95425981D01*
X74988705Y-95473600D01*
X75036324Y-95521219D01*
X75036324Y-87125981D02*
X74560133Y-87125981D01*
X74560133Y-86125981D01*
X98777467Y-90013981D02*
X98777467Y-90728267D01*
X98729847Y-90871124D01*
X98634609Y-90966362D01*
X98491752Y-91013981D01*
X98396514Y-91013981D01*
X99682229Y-90013981D02*
X99491752Y-90013981D01*
X99396514Y-90061600D01*
X99348895Y-90109219D01*
X99253657Y-90252076D01*
X99206038Y-90442552D01*
X99206038Y-90823505D01*
X99253657Y-90918743D01*
X99301276Y-90966362D01*
X99396514Y-91013981D01*
X99586991Y-91013981D01*
X99682229Y-90966362D01*
X99729848Y-90918743D01*
X99777467Y-90823505D01*
X99777467Y-90585410D01*
X99729848Y-90490171D01*
X99682229Y-90442552D01*
X99586991Y-90394933D01*
X99396514Y-90394933D01*
X99301276Y-90442552D01*
X99253657Y-90490171D01*
X99206038Y-90585410D01*
X99420324Y-95568743D02*
X99372705Y-95616362D01*
X99229848Y-95663981D01*
X99134610Y-95663981D01*
X98991752Y-95616362D01*
X98896514Y-95521124D01*
X98848895Y-95425886D01*
X98801276Y-95235410D01*
X98801276Y-95092552D01*
X98848895Y-94902076D01*
X98896514Y-94806838D01*
X98991752Y-94711600D01*
X99134610Y-94663981D01*
X99229848Y-94663981D01*
X99372705Y-94711600D01*
X99420324Y-94759219D01*
X99420324Y-86363981D02*
X98944133Y-86363981D01*
X98944133Y-85363981D01*
X123161467Y-90013981D02*
X123161467Y-90728267D01*
X123113847Y-90871124D01*
X123018609Y-90966362D01*
X122875752Y-91013981D01*
X122780514Y-91013981D01*
X124113848Y-90013981D02*
X123637657Y-90013981D01*
X123590038Y-90490171D01*
X123637657Y-90442552D01*
X123732895Y-90394933D01*
X123970991Y-90394933D01*
X124066229Y-90442552D01*
X124113848Y-90490171D01*
X124161467Y-90585410D01*
X124161467Y-90823505D01*
X124113848Y-90918743D01*
X124066229Y-90966362D01*
X123970991Y-91013981D01*
X123732895Y-91013981D01*
X123637657Y-90966362D01*
X123590038Y-90918743D01*
X123804324Y-95568743D02*
X123756705Y-95616362D01*
X123613848Y-95663981D01*
X123518610Y-95663981D01*
X123375752Y-95616362D01*
X123280514Y-95521124D01*
X123232895Y-95425886D01*
X123185276Y-95235410D01*
X123185276Y-95092552D01*
X123232895Y-94902076D01*
X123280514Y-94806838D01*
X123375752Y-94711600D01*
X123518610Y-94663981D01*
X123613848Y-94663981D01*
X123756705Y-94711600D01*
X123804324Y-94759219D01*
X123804324Y-86363981D02*
X123328133Y-86363981D01*
X123328133Y-85363981D01*
X124177467Y-110769981D02*
X124177467Y-111484267D01*
X124129847Y-111627124D01*
X124034609Y-111722362D01*
X123891752Y-111769981D01*
X123796514Y-111769981D01*
X124558419Y-110769981D02*
X125177467Y-110769981D01*
X124844133Y-111150933D01*
X124986991Y-111150933D01*
X125082229Y-111198552D01*
X125129848Y-111246171D01*
X125177467Y-111341410D01*
X125177467Y-111579505D01*
X125129848Y-111674743D01*
X125082229Y-111722362D01*
X124986991Y-111769981D01*
X124701276Y-111769981D01*
X124606038Y-111722362D01*
X124558419Y-111674743D01*
X124820324Y-107024743D02*
X124772705Y-107072362D01*
X124629848Y-107119981D01*
X124534610Y-107119981D01*
X124391752Y-107072362D01*
X124296514Y-106977124D01*
X124248895Y-106881886D01*
X124201276Y-106691410D01*
X124201276Y-106548552D01*
X124248895Y-106358076D01*
X124296514Y-106262838D01*
X124391752Y-106167600D01*
X124534610Y-106119981D01*
X124629848Y-106119981D01*
X124772705Y-106167600D01*
X124820324Y-106215219D01*
X124820324Y-116419981D02*
X124344133Y-116419981D01*
X124344133Y-115419981D01*
X99031467Y-110769981D02*
X99031467Y-111484267D01*
X98983847Y-111627124D01*
X98888609Y-111722362D01*
X98745752Y-111769981D01*
X98650514Y-111769981D01*
X99460038Y-110865219D02*
X99507657Y-110817600D01*
X99602895Y-110769981D01*
X99840991Y-110769981D01*
X99936229Y-110817600D01*
X99983848Y-110865219D01*
X100031467Y-110960457D01*
X100031467Y-111055695D01*
X99983848Y-111198552D01*
X99412419Y-111769981D01*
X100031467Y-111769981D01*
X99674324Y-107024743D02*
X99626705Y-107072362D01*
X99483848Y-107119981D01*
X99388610Y-107119981D01*
X99245752Y-107072362D01*
X99150514Y-106977124D01*
X99102895Y-106881886D01*
X99055276Y-106691410D01*
X99055276Y-106548552D01*
X99102895Y-106358076D01*
X99150514Y-106262838D01*
X99245752Y-106167600D01*
X99388610Y-106119981D01*
X99483848Y-106119981D01*
X99626705Y-106167600D01*
X99674324Y-106215219D01*
X99674324Y-116419981D02*
X99198133Y-116419981D01*
X99198133Y-115419981D01*
X74139467Y-110515981D02*
X74139467Y-111230267D01*
X74091847Y-111373124D01*
X73996609Y-111468362D01*
X73853752Y-111515981D01*
X73758514Y-111515981D01*
X75139467Y-111515981D02*
X74568038Y-111515981D01*
X74853752Y-111515981D02*
X74853752Y-110515981D01*
X74758514Y-110658838D01*
X74663276Y-110754076D01*
X74568038Y-110801695D01*
X74782324Y-106770743D02*
X74734705Y-106818362D01*
X74591848Y-106865981D01*
X74496610Y-106865981D01*
X74353752Y-106818362D01*
X74258514Y-106723124D01*
X74210895Y-106627886D01*
X74163276Y-106437410D01*
X74163276Y-106294552D01*
X74210895Y-106104076D01*
X74258514Y-106008838D01*
X74353752Y-105913600D01*
X74496610Y-105865981D01*
X74591848Y-105865981D01*
X74734705Y-105913600D01*
X74782324Y-105961219D01*
X74782324Y-116165981D02*
X74306133Y-116165981D01*
X74306133Y-115165981D01*
X132611905Y-139136381D02*
X132611905Y-138136381D01*
X132850000Y-138136381D01*
X132992858Y-138184000D01*
X133088096Y-138279238D01*
X133135715Y-138374476D01*
X133183334Y-138564952D01*
X133183334Y-138707810D01*
X133135715Y-138898286D01*
X133088096Y-138993524D01*
X132992858Y-139088762D01*
X132850000Y-139136381D01*
X132611905Y-139136381D01*
X133659524Y-139136381D02*
X133850000Y-139136381D01*
X133945239Y-139088762D01*
X133992858Y-139041143D01*
X134088096Y-138898286D01*
X134135715Y-138707810D01*
X134135715Y-138326857D01*
X134088096Y-138231619D01*
X134040477Y-138184000D01*
X133945239Y-138136381D01*
X133754762Y-138136381D01*
X133659524Y-138184000D01*
X133611905Y-138231619D01*
X133564286Y-138326857D01*
X133564286Y-138564952D01*
X133611905Y-138660190D01*
X133659524Y-138707810D01*
X133754762Y-138755429D01*
X133945239Y-138755429D01*
X134040477Y-138707810D01*
X134088096Y-138660190D01*
X134135715Y-138564952D01*
X136961714Y-139048381D02*
X136961714Y-138048381D01*
X137199809Y-138048381D01*
X137342667Y-138096000D01*
X137437905Y-138191238D01*
X137485524Y-138286476D01*
X137533143Y-138476952D01*
X137533143Y-138619810D01*
X137485524Y-138810286D01*
X137437905Y-138905524D01*
X137342667Y-139000762D01*
X137199809Y-139048381D01*
X136961714Y-139048381D01*
X138485524Y-139048381D02*
X137914095Y-139048381D01*
X138199809Y-139048381D02*
X138199809Y-138048381D01*
X138104571Y-138191238D01*
X138009333Y-138286476D01*
X137914095Y-138334095D01*
X139104571Y-138048381D02*
X139199810Y-138048381D01*
X139295048Y-138096000D01*
X139342667Y-138143619D01*
X139390286Y-138238857D01*
X139437905Y-138429333D01*
X139437905Y-138667429D01*
X139390286Y-138857905D01*
X139342667Y-138953143D01*
X139295048Y-139000762D01*
X139199810Y-139048381D01*
X139104571Y-139048381D01*
X139009333Y-139000762D01*
X138961714Y-138953143D01*
X138914095Y-138857905D01*
X138866476Y-138667429D01*
X138866476Y-138429333D01*
X138914095Y-138238857D01*
X138961714Y-138143619D01*
X139009333Y-138096000D01*
X139104571Y-138048381D01*
X141834181Y-101526933D02*
X142548467Y-101526933D01*
X142691324Y-101574553D01*
X142786562Y-101669791D01*
X142834181Y-101812648D01*
X142834181Y-101907886D01*
X142167514Y-100622171D02*
X142834181Y-100622171D01*
X141786562Y-100860267D02*
X142500848Y-101098362D01*
X142500848Y-100479314D01*
X138088943Y-100884076D02*
X138136562Y-100931695D01*
X138184181Y-101074552D01*
X138184181Y-101169790D01*
X138136562Y-101312648D01*
X138041324Y-101407886D01*
X137946086Y-101455505D01*
X137755610Y-101503124D01*
X137612752Y-101503124D01*
X137422276Y-101455505D01*
X137327038Y-101407886D01*
X137231800Y-101312648D01*
X137184181Y-101169790D01*
X137184181Y-101074552D01*
X137231800Y-100931695D01*
X137279419Y-100884076D01*
X147484181Y-100884076D02*
X147484181Y-101360267D01*
X146484181Y-101360267D01*
X62690477Y-131278381D02*
X62690477Y-131992667D01*
X62642857Y-132135524D01*
X62547619Y-132230762D01*
X62404762Y-132278381D01*
X62309524Y-132278381D01*
X63690477Y-132278381D02*
X63119048Y-132278381D01*
X63404762Y-132278381D02*
X63404762Y-131278381D01*
X63309524Y-131421238D01*
X63214286Y-131516476D01*
X63119048Y-131564095D01*
X64642858Y-132278381D02*
X64071429Y-132278381D01*
X64357143Y-132278381D02*
X64357143Y-131278381D01*
X64261905Y-131421238D01*
X64166667Y-131516476D01*
X64071429Y-131564095D01*
X62690477Y-139406381D02*
X62690477Y-140120667D01*
X62642857Y-140263524D01*
X62547619Y-140358762D01*
X62404762Y-140406381D01*
X62309524Y-140406381D01*
X63690477Y-140406381D02*
X63119048Y-140406381D01*
X63404762Y-140406381D02*
X63404762Y-139406381D01*
X63309524Y-139549238D01*
X63214286Y-139644476D01*
X63119048Y-139692095D01*
X64547620Y-139406381D02*
X64357143Y-139406381D01*
X64261905Y-139454000D01*
X64214286Y-139501619D01*
X64119048Y-139644476D01*
X64071429Y-139834952D01*
X64071429Y-140215905D01*
X64119048Y-140311143D01*
X64166667Y-140358762D01*
X64261905Y-140406381D01*
X64452382Y-140406381D01*
X64547620Y-140358762D01*
X64595239Y-140311143D01*
X64642858Y-140215905D01*
X64642858Y-139977810D01*
X64595239Y-139882571D01*
X64547620Y-139834952D01*
X64452382Y-139787333D01*
X64261905Y-139787333D01*
X64166667Y-139834952D01*
X64119048Y-139882571D01*
X64071429Y-139977810D01*
X59396381Y-76247523D02*
X60110667Y-76247523D01*
X60253524Y-76295143D01*
X60348762Y-76390381D01*
X60396381Y-76533238D01*
X60396381Y-76628476D01*
X60396381Y-75247523D02*
X60396381Y-75818952D01*
X60396381Y-75533238D02*
X59396381Y-75533238D01*
X59539238Y-75628476D01*
X59634476Y-75723714D01*
X59682095Y-75818952D01*
X59824952Y-74676095D02*
X59777333Y-74771333D01*
X59729714Y-74818952D01*
X59634476Y-74866571D01*
X59586857Y-74866571D01*
X59491619Y-74818952D01*
X59444000Y-74771333D01*
X59396381Y-74676095D01*
X59396381Y-74485618D01*
X59444000Y-74390380D01*
X59491619Y-74342761D01*
X59586857Y-74295142D01*
X59634476Y-74295142D01*
X59729714Y-74342761D01*
X59777333Y-74390380D01*
X59824952Y-74485618D01*
X59824952Y-74676095D01*
X59872571Y-74771333D01*
X59920190Y-74818952D01*
X60015429Y-74866571D01*
X60205905Y-74866571D01*
X60301143Y-74818952D01*
X60348762Y-74771333D01*
X60396381Y-74676095D01*
X60396381Y-74485618D01*
X60348762Y-74390380D01*
X60301143Y-74342761D01*
X60205905Y-74295142D01*
X60015429Y-74295142D01*
X59920190Y-74342761D01*
X59872571Y-74390380D01*
X59824952Y-74485618D01*
X60422101Y-68464963D02*
X61136387Y-68464963D01*
X61279244Y-68512583D01*
X61374482Y-68607821D01*
X61422101Y-68750678D01*
X61422101Y-68845916D01*
X61422101Y-67464963D02*
X61422101Y-68036392D01*
X61422101Y-67750678D02*
X60422101Y-67750678D01*
X60564958Y-67845916D01*
X60660196Y-67941154D01*
X60707815Y-68036392D01*
X61422101Y-66988773D02*
X61422101Y-66798297D01*
X61374482Y-66703058D01*
X61326863Y-66655439D01*
X61184006Y-66560201D01*
X60993530Y-66512582D01*
X60612577Y-66512582D01*
X60517339Y-66560201D01*
X60469720Y-66607820D01*
X60422101Y-66703058D01*
X60422101Y-66893535D01*
X60469720Y-66988773D01*
X60517339Y-67036392D01*
X60612577Y-67084011D01*
X60850672Y-67084011D01*
X60945910Y-67036392D01*
X60993530Y-66988773D01*
X61041149Y-66893535D01*
X61041149Y-66703058D01*
X60993530Y-66607820D01*
X60945910Y-66560201D01*
X60850672Y-66512582D01*
X56676863Y-67345916D02*
X56724482Y-67393535D01*
X56772101Y-67536392D01*
X56772101Y-67631630D01*
X56724482Y-67774488D01*
X56629244Y-67869726D01*
X56534006Y-67917345D01*
X56343530Y-67964964D01*
X56200672Y-67964964D01*
X56010196Y-67917345D01*
X55914958Y-67869726D01*
X55819720Y-67774488D01*
X55772101Y-67631630D01*
X55772101Y-67536392D01*
X55819720Y-67393535D01*
X55867339Y-67345916D01*
X66072101Y-67345916D02*
X66072101Y-67822107D01*
X65072101Y-67822107D01*
X67926414Y-78412221D02*
X67450223Y-78412221D01*
X67450223Y-77412221D01*
X68831176Y-78316983D02*
X68783557Y-78364602D01*
X68640700Y-78412221D01*
X68545462Y-78412221D01*
X68402604Y-78364602D01*
X68307366Y-78269364D01*
X68259747Y-78174126D01*
X68212128Y-77983650D01*
X68212128Y-77840792D01*
X68259747Y-77650316D01*
X68307366Y-77555078D01*
X68402604Y-77459840D01*
X68545462Y-77412221D01*
X68640700Y-77412221D01*
X68783557Y-77459840D01*
X68831176Y-77507459D01*
X69402604Y-77840792D02*
X69307366Y-77793173D01*
X69259747Y-77745554D01*
X69212128Y-77650316D01*
X69212128Y-77602697D01*
X69259747Y-77507459D01*
X69307366Y-77459840D01*
X69402604Y-77412221D01*
X69593081Y-77412221D01*
X69688319Y-77459840D01*
X69735938Y-77507459D01*
X69783557Y-77602697D01*
X69783557Y-77650316D01*
X69735938Y-77745554D01*
X69688319Y-77793173D01*
X69593081Y-77840792D01*
X69402604Y-77840792D01*
X69307366Y-77888411D01*
X69259747Y-77936030D01*
X69212128Y-78031269D01*
X69212128Y-78221745D01*
X69259747Y-78316983D01*
X69307366Y-78364602D01*
X69402604Y-78412221D01*
X69593081Y-78412221D01*
X69688319Y-78364602D01*
X69735938Y-78316983D01*
X69783557Y-78221745D01*
X69783557Y-78031269D01*
X69735938Y-77936030D01*
X69688319Y-77888411D01*
X69593081Y-77840792D01*
X106145910Y-59888381D02*
X105812576Y-59412190D01*
X105574481Y-59888381D02*
X105574481Y-58888381D01*
X105955434Y-58888381D01*
X106050672Y-58936000D01*
X106098291Y-58983619D01*
X106145910Y-59078857D01*
X106145910Y-59221714D01*
X106098291Y-59316952D01*
X106050672Y-59364571D01*
X105955434Y-59412190D01*
X105574481Y-59412190D01*
X107050672Y-59888381D02*
X106574481Y-59888381D01*
X106574481Y-58888381D01*
X107574481Y-59412190D02*
X107574481Y-59888381D01*
X107241148Y-58888381D02*
X107574481Y-59412190D01*
X107907815Y-58888381D01*
X108764958Y-59888381D02*
X108193529Y-59888381D01*
X108479243Y-59888381D02*
X108479243Y-58888381D01*
X108384005Y-59031238D01*
X108288767Y-59126476D01*
X108193529Y-59174095D01*
X109384005Y-58888381D02*
X109479244Y-58888381D01*
X109574482Y-58936000D01*
X109622101Y-58983619D01*
X109669720Y-59078857D01*
X109717339Y-59269333D01*
X109717339Y-59507429D01*
X109669720Y-59697905D01*
X109622101Y-59793143D01*
X109574482Y-59840762D01*
X109479244Y-59888381D01*
X109384005Y-59888381D01*
X109288767Y-59840762D01*
X109241148Y-59793143D01*
X109193529Y-59697905D01*
X109145910Y-59507429D01*
X109145910Y-59269333D01*
X109193529Y-59078857D01*
X109241148Y-58983619D01*
X109288767Y-58936000D01*
X109384005Y-58888381D01*
X98312576Y-53840762D02*
X98455433Y-53888381D01*
X98693529Y-53888381D01*
X98788767Y-53840762D01*
X98836386Y-53793143D01*
X98884005Y-53697905D01*
X98884005Y-53602667D01*
X98836386Y-53507429D01*
X98788767Y-53459810D01*
X98693529Y-53412190D01*
X98503052Y-53364571D01*
X98407814Y-53316952D01*
X98360195Y-53269333D01*
X98312576Y-53174095D01*
X98312576Y-53078857D01*
X98360195Y-52983619D01*
X98407814Y-52936000D01*
X98503052Y-52888381D01*
X98741148Y-52888381D01*
X98884005Y-52936000D01*
X99884005Y-53888381D02*
X99550671Y-53412190D01*
X99312576Y-53888381D02*
X99312576Y-52888381D01*
X99693529Y-52888381D01*
X99788767Y-52936000D01*
X99836386Y-52983619D01*
X99884005Y-53078857D01*
X99884005Y-53221714D01*
X99836386Y-53316952D01*
X99788767Y-53364571D01*
X99693529Y-53412190D01*
X99312576Y-53412190D01*
X100312576Y-53888381D02*
X100312576Y-52888381D01*
X100550671Y-52888381D01*
X100693529Y-52936000D01*
X100788767Y-53031238D01*
X100836386Y-53126476D01*
X100884005Y-53316952D01*
X100884005Y-53459810D01*
X100836386Y-53650286D01*
X100788767Y-53745524D01*
X100693529Y-53840762D01*
X100550671Y-53888381D01*
X100312576Y-53888381D01*
X101884005Y-53888381D02*
X101550671Y-53412190D01*
X101312576Y-53888381D02*
X101312576Y-52888381D01*
X101693529Y-52888381D01*
X101788767Y-52936000D01*
X101836386Y-52983619D01*
X101884005Y-53078857D01*
X101884005Y-53221714D01*
X101836386Y-53316952D01*
X101788767Y-53364571D01*
X101693529Y-53412190D01*
X101312576Y-53412190D01*
X102693529Y-53840762D02*
X102598291Y-53888381D01*
X102407814Y-53888381D01*
X102312576Y-53840762D01*
X102264957Y-53745524D01*
X102264957Y-53364571D01*
X102312576Y-53269333D01*
X102407814Y-53221714D01*
X102598291Y-53221714D01*
X102693529Y-53269333D01*
X102741148Y-53364571D01*
X102741148Y-53459810D01*
X102264957Y-53555048D01*
X103312576Y-53888381D02*
X103217338Y-53840762D01*
X103169719Y-53745524D01*
X103169719Y-52888381D01*
X104122101Y-53888381D02*
X104122101Y-53364571D01*
X104074482Y-53269333D01*
X103979244Y-53221714D01*
X103788767Y-53221714D01*
X103693529Y-53269333D01*
X104122101Y-53840762D02*
X104026863Y-53888381D01*
X103788767Y-53888381D01*
X103693529Y-53840762D01*
X103645910Y-53745524D01*
X103645910Y-53650286D01*
X103693529Y-53555048D01*
X103788767Y-53507429D01*
X104026863Y-53507429D01*
X104122101Y-53459810D01*
X104503053Y-53221714D02*
X104741148Y-53888381D01*
X104979244Y-53221714D02*
X104741148Y-53888381D01*
X104645910Y-54126476D01*
X104598291Y-54174095D01*
X104503053Y-54221714D01*
X84517810Y-139390381D02*
X84184476Y-138914190D01*
X83946381Y-139390381D02*
X83946381Y-138390381D01*
X84327334Y-138390381D01*
X84422572Y-138438000D01*
X84470191Y-138485619D01*
X84517810Y-138580857D01*
X84517810Y-138723714D01*
X84470191Y-138818952D01*
X84422572Y-138866571D01*
X84327334Y-138914190D01*
X83946381Y-138914190D01*
X85422572Y-139390381D02*
X84946381Y-139390381D01*
X84946381Y-138390381D01*
X85946381Y-138914190D02*
X85946381Y-139390381D01*
X85613048Y-138390381D02*
X85946381Y-138914190D01*
X86279715Y-138390381D01*
X87136858Y-139390381D02*
X86565429Y-139390381D01*
X86851143Y-139390381D02*
X86851143Y-138390381D01*
X86755905Y-138533238D01*
X86660667Y-138628476D01*
X86565429Y-138676095D01*
X88089239Y-139390381D02*
X87517810Y-139390381D01*
X87803524Y-139390381D02*
X87803524Y-138390381D01*
X87708286Y-138533238D01*
X87613048Y-138628476D01*
X87517810Y-138676095D01*
X76684476Y-133342762D02*
X76827333Y-133390381D01*
X77065429Y-133390381D01*
X77160667Y-133342762D01*
X77208286Y-133295143D01*
X77255905Y-133199905D01*
X77255905Y-133104667D01*
X77208286Y-133009429D01*
X77160667Y-132961810D01*
X77065429Y-132914190D01*
X76874952Y-132866571D01*
X76779714Y-132818952D01*
X76732095Y-132771333D01*
X76684476Y-132676095D01*
X76684476Y-132580857D01*
X76732095Y-132485619D01*
X76779714Y-132438000D01*
X76874952Y-132390381D01*
X77113048Y-132390381D01*
X77255905Y-132438000D01*
X78255905Y-133390381D02*
X77922571Y-132914190D01*
X77684476Y-133390381D02*
X77684476Y-132390381D01*
X78065429Y-132390381D01*
X78160667Y-132438000D01*
X78208286Y-132485619D01*
X78255905Y-132580857D01*
X78255905Y-132723714D01*
X78208286Y-132818952D01*
X78160667Y-132866571D01*
X78065429Y-132914190D01*
X77684476Y-132914190D01*
X78684476Y-133390381D02*
X78684476Y-132390381D01*
X78922571Y-132390381D01*
X79065429Y-132438000D01*
X79160667Y-132533238D01*
X79208286Y-132628476D01*
X79255905Y-132818952D01*
X79255905Y-132961810D01*
X79208286Y-133152286D01*
X79160667Y-133247524D01*
X79065429Y-133342762D01*
X78922571Y-133390381D01*
X78684476Y-133390381D01*
X80255905Y-133390381D02*
X79922571Y-132914190D01*
X79684476Y-133390381D02*
X79684476Y-132390381D01*
X80065429Y-132390381D01*
X80160667Y-132438000D01*
X80208286Y-132485619D01*
X80255905Y-132580857D01*
X80255905Y-132723714D01*
X80208286Y-132818952D01*
X80160667Y-132866571D01*
X80065429Y-132914190D01*
X79684476Y-132914190D01*
X81065429Y-133342762D02*
X80970191Y-133390381D01*
X80779714Y-133390381D01*
X80684476Y-133342762D01*
X80636857Y-133247524D01*
X80636857Y-132866571D01*
X80684476Y-132771333D01*
X80779714Y-132723714D01*
X80970191Y-132723714D01*
X81065429Y-132771333D01*
X81113048Y-132866571D01*
X81113048Y-132961810D01*
X80636857Y-133057048D01*
X81684476Y-133390381D02*
X81589238Y-133342762D01*
X81541619Y-133247524D01*
X81541619Y-132390381D01*
X82494001Y-133390381D02*
X82494001Y-132866571D01*
X82446382Y-132771333D01*
X82351144Y-132723714D01*
X82160667Y-132723714D01*
X82065429Y-132771333D01*
X82494001Y-133342762D02*
X82398763Y-133390381D01*
X82160667Y-133390381D01*
X82065429Y-133342762D01*
X82017810Y-133247524D01*
X82017810Y-133152286D01*
X82065429Y-133057048D01*
X82160667Y-133009429D01*
X82398763Y-133009429D01*
X82494001Y-132961810D01*
X82874953Y-132723714D02*
X83113048Y-133390381D01*
X83351144Y-132723714D02*
X83113048Y-133390381D01*
X83017810Y-133628476D01*
X82970191Y-133676095D01*
X82874953Y-133723714D01*
X106869810Y-139390381D02*
X106536476Y-138914190D01*
X106298381Y-139390381D02*
X106298381Y-138390381D01*
X106679334Y-138390381D01*
X106774572Y-138438000D01*
X106822191Y-138485619D01*
X106869810Y-138580857D01*
X106869810Y-138723714D01*
X106822191Y-138818952D01*
X106774572Y-138866571D01*
X106679334Y-138914190D01*
X106298381Y-138914190D01*
X107774572Y-139390381D02*
X107298381Y-139390381D01*
X107298381Y-138390381D01*
X108298381Y-138914190D02*
X108298381Y-139390381D01*
X107965048Y-138390381D02*
X108298381Y-138914190D01*
X108631715Y-138390381D01*
X109488858Y-139390381D02*
X108917429Y-139390381D01*
X109203143Y-139390381D02*
X109203143Y-138390381D01*
X109107905Y-138533238D01*
X109012667Y-138628476D01*
X108917429Y-138676095D01*
X109869810Y-138485619D02*
X109917429Y-138438000D01*
X110012667Y-138390381D01*
X110250763Y-138390381D01*
X110346001Y-138438000D01*
X110393620Y-138485619D01*
X110441239Y-138580857D01*
X110441239Y-138676095D01*
X110393620Y-138818952D01*
X109822191Y-139390381D01*
X110441239Y-139390381D01*
X99036476Y-133342762D02*
X99179333Y-133390381D01*
X99417429Y-133390381D01*
X99512667Y-133342762D01*
X99560286Y-133295143D01*
X99607905Y-133199905D01*
X99607905Y-133104667D01*
X99560286Y-133009429D01*
X99512667Y-132961810D01*
X99417429Y-132914190D01*
X99226952Y-132866571D01*
X99131714Y-132818952D01*
X99084095Y-132771333D01*
X99036476Y-132676095D01*
X99036476Y-132580857D01*
X99084095Y-132485619D01*
X99131714Y-132438000D01*
X99226952Y-132390381D01*
X99465048Y-132390381D01*
X99607905Y-132438000D01*
X100607905Y-133390381D02*
X100274571Y-132914190D01*
X100036476Y-133390381D02*
X100036476Y-132390381D01*
X100417429Y-132390381D01*
X100512667Y-132438000D01*
X100560286Y-132485619D01*
X100607905Y-132580857D01*
X100607905Y-132723714D01*
X100560286Y-132818952D01*
X100512667Y-132866571D01*
X100417429Y-132914190D01*
X100036476Y-132914190D01*
X101036476Y-133390381D02*
X101036476Y-132390381D01*
X101274571Y-132390381D01*
X101417429Y-132438000D01*
X101512667Y-132533238D01*
X101560286Y-132628476D01*
X101607905Y-132818952D01*
X101607905Y-132961810D01*
X101560286Y-133152286D01*
X101512667Y-133247524D01*
X101417429Y-133342762D01*
X101274571Y-133390381D01*
X101036476Y-133390381D01*
X102607905Y-133390381D02*
X102274571Y-132914190D01*
X102036476Y-133390381D02*
X102036476Y-132390381D01*
X102417429Y-132390381D01*
X102512667Y-132438000D01*
X102560286Y-132485619D01*
X102607905Y-132580857D01*
X102607905Y-132723714D01*
X102560286Y-132818952D01*
X102512667Y-132866571D01*
X102417429Y-132914190D01*
X102036476Y-132914190D01*
X103417429Y-133342762D02*
X103322191Y-133390381D01*
X103131714Y-133390381D01*
X103036476Y-133342762D01*
X102988857Y-133247524D01*
X102988857Y-132866571D01*
X103036476Y-132771333D01*
X103131714Y-132723714D01*
X103322191Y-132723714D01*
X103417429Y-132771333D01*
X103465048Y-132866571D01*
X103465048Y-132961810D01*
X102988857Y-133057048D01*
X104036476Y-133390381D02*
X103941238Y-133342762D01*
X103893619Y-133247524D01*
X103893619Y-132390381D01*
X104846001Y-133390381D02*
X104846001Y-132866571D01*
X104798382Y-132771333D01*
X104703144Y-132723714D01*
X104512667Y-132723714D01*
X104417429Y-132771333D01*
X104846001Y-133342762D02*
X104750763Y-133390381D01*
X104512667Y-133390381D01*
X104417429Y-133342762D01*
X104369810Y-133247524D01*
X104369810Y-133152286D01*
X104417429Y-133057048D01*
X104512667Y-133009429D01*
X104750763Y-133009429D01*
X104846001Y-132961810D01*
X105226953Y-132723714D02*
X105465048Y-133390381D01*
X105703144Y-132723714D02*
X105465048Y-133390381D01*
X105369810Y-133628476D01*
X105322191Y-133676095D01*
X105226953Y-133723714D01*
X112990381Y-52371523D02*
X113704667Y-52371523D01*
X113847524Y-52419143D01*
X113942762Y-52514381D01*
X113990381Y-52657238D01*
X113990381Y-52752476D01*
X113990381Y-51371523D02*
X113990381Y-51942952D01*
X113990381Y-51657238D02*
X112990381Y-51657238D01*
X113133238Y-51752476D01*
X113228476Y-51847714D01*
X113276095Y-51942952D01*
X112990381Y-51038190D02*
X112990381Y-50371523D01*
X113990381Y-50800095D01*
X145630343Y-62734143D02*
X145582724Y-62781762D01*
X145439867Y-62829381D01*
X145344629Y-62829381D01*
X145201771Y-62781762D01*
X145106533Y-62686524D01*
X145058914Y-62591286D01*
X145011295Y-62400810D01*
X145011295Y-62257952D01*
X145058914Y-62067476D01*
X145106533Y-61972238D01*
X145201771Y-61877000D01*
X145344629Y-61829381D01*
X145439867Y-61829381D01*
X145582724Y-61877000D01*
X145630343Y-61924619D01*
X146582724Y-62829381D02*
X146011295Y-62829381D01*
X146297009Y-62829381D02*
X146297009Y-61829381D01*
X146201771Y-61972238D01*
X146106533Y-62067476D01*
X146011295Y-62115095D01*
X147535105Y-62829381D02*
X146963676Y-62829381D01*
X147249390Y-62829381D02*
X147249390Y-61829381D01*
X147154152Y-61972238D01*
X147058914Y-62067476D01*
X146963676Y-62115095D01*
M02*
