G04 #@! TF.FileFunction,Soldermask,Bot*
%FSLAX46Y46*%
G04 Gerber Fmt 4.6, Leading zero omitted, Abs format (unit mm)*
G04 Created by KiCad (PCBNEW 4.0.7) date 09/02/18 04:39:53*
%MOMM*%
%LPD*%
G01*
G04 APERTURE LIST*
%ADD10C,0.100000*%
%ADD11R,2.200000X2.200000*%
%ADD12C,2.200000*%
%ADD13C,2.000000*%
%ADD14O,2.000000X2.000000*%
%ADD15R,3.400000X3.400000*%
%ADD16C,3.400000*%
%ADD17C,4.464000*%
%ADD18C,2.100000*%
%ADD19C,2.800000*%
%ADD20R,4.400000X4.400000*%
%ADD21C,1.924000*%
%ADD22O,1.900000X3.400000*%
%ADD23O,3.400000X1.900000*%
%ADD24R,2.100000X2.100000*%
%ADD25O,2.100000X2.100000*%
G04 APERTURE END LIST*
D10*
D11*
X129794000Y-146050000D03*
D12*
X127254000Y-146050000D03*
D13*
X132334000Y-131826000D03*
D14*
X124714000Y-131826000D03*
D11*
X120142000Y-146050000D03*
D12*
X117602000Y-146050000D03*
D11*
X124968000Y-146050000D03*
D12*
X122428000Y-146050000D03*
D15*
X54102000Y-125984000D03*
D16*
X54102000Y-131064000D03*
D15*
X60858400Y-62141100D03*
D16*
X65938400Y-62141100D03*
D13*
X117530880Y-61610240D03*
X117530880Y-59110240D03*
X120070880Y-61610240D03*
X120070880Y-59110240D03*
X122610880Y-61610240D03*
X122610880Y-59110240D03*
X125150880Y-61610240D03*
X125150880Y-59110240D03*
X127690880Y-61610240D03*
X127690880Y-59110240D03*
X130230880Y-61610240D03*
X130230880Y-59110240D03*
X132770880Y-61610240D03*
X132770880Y-59110240D03*
X135310880Y-61610240D03*
X135310880Y-59110240D03*
X137850880Y-61610240D03*
X137850880Y-59110240D03*
X140390880Y-61610240D03*
X140390880Y-59110240D03*
X147828000Y-131826000D03*
D14*
X147828000Y-124206000D03*
D15*
X60579000Y-54152800D03*
D16*
X65659000Y-54152800D03*
D17*
X53000000Y-53000000D03*
X53000000Y-147000000D03*
X147000000Y-53000000D03*
X147000000Y-147000000D03*
D13*
X145669000Y-141986000D03*
D14*
X145669000Y-134366000D03*
D11*
X134620000Y-146050000D03*
D12*
X132080000Y-146050000D03*
D11*
X139446000Y-146050000D03*
D12*
X136906000Y-146050000D03*
D11*
X120142000Y-135636000D03*
D12*
X117602000Y-135636000D03*
D11*
X124968000Y-135636000D03*
D12*
X122428000Y-135636000D03*
D11*
X129794000Y-135636000D03*
D12*
X127254000Y-135636000D03*
D13*
X114808000Y-148082000D03*
D14*
X114808000Y-140462000D03*
D13*
X118110000Y-141224000D03*
D14*
X125730000Y-141224000D03*
D13*
X135763000Y-141224000D03*
D14*
X128143000Y-141224000D03*
D13*
X142875000Y-141986000D03*
D14*
X142875000Y-134366000D03*
D13*
X148336000Y-141986000D03*
D14*
X148336000Y-134366000D03*
D13*
X122428000Y-131826000D03*
D14*
X114808000Y-131826000D03*
D13*
X143002000Y-131826000D03*
D14*
X135382000Y-131826000D03*
D18*
X92045800Y-121688600D03*
X89045800Y-121688600D03*
X86045800Y-121688600D03*
X83045800Y-121688600D03*
X92045800Y-128688600D03*
X89045800Y-128688600D03*
X86045800Y-128688600D03*
X83045800Y-128688600D03*
D19*
X95045800Y-124688600D03*
X79425800Y-124688600D03*
D18*
X72132200Y-121764800D03*
X69132200Y-121764800D03*
X66132200Y-121764800D03*
X63132200Y-121764800D03*
X72132200Y-128764800D03*
X69132200Y-128764800D03*
X66132200Y-128764800D03*
X63132200Y-128764800D03*
D19*
X75132200Y-124764800D03*
X59512200Y-124764800D03*
D18*
X116556800Y-121688600D03*
X113556800Y-121688600D03*
X110556800Y-121688600D03*
X107556800Y-121688600D03*
X116556800Y-128688600D03*
X113556800Y-128688600D03*
X110556800Y-128688600D03*
X107556800Y-128688600D03*
D19*
X119556800Y-124688600D03*
X103936800Y-124688600D03*
D18*
X139035800Y-122069600D03*
X136035800Y-122069600D03*
X133035800Y-122069600D03*
X130035800Y-122069600D03*
X139035800Y-129069600D03*
X136035800Y-129069600D03*
X133035800Y-129069600D03*
X130035800Y-129069600D03*
D19*
X142035800Y-125069600D03*
X126415800Y-125069600D03*
D18*
X129162800Y-80571600D03*
X132162800Y-80571600D03*
X135162800Y-80571600D03*
X138162800Y-80571600D03*
X129162800Y-73571600D03*
X132162800Y-73571600D03*
X135162800Y-73571600D03*
X138162800Y-73571600D03*
D19*
X126162800Y-77571600D03*
X141782800Y-77571600D03*
D18*
X107953800Y-80444600D03*
X110953800Y-80444600D03*
X113953800Y-80444600D03*
X116953800Y-80444600D03*
X107953800Y-73444600D03*
X110953800Y-73444600D03*
X113953800Y-73444600D03*
X116953800Y-73444600D03*
D19*
X104953800Y-77444600D03*
X120573800Y-77444600D03*
D18*
X86125040Y-80637640D03*
X89125040Y-80637640D03*
X92125040Y-80637640D03*
X95125040Y-80637640D03*
X86125040Y-73637640D03*
X89125040Y-73637640D03*
X92125040Y-73637640D03*
X95125040Y-73637640D03*
D19*
X83125040Y-77637640D03*
X98745040Y-77637640D03*
D20*
X118185300Y-117528100D03*
X105985300Y-117528100D03*
X118185300Y-105528100D03*
X103985300Y-111528100D03*
D21*
X104985300Y-104528100D03*
X117185300Y-104528100D03*
X117185300Y-116528100D03*
X102985300Y-110528100D03*
X104985300Y-116528100D03*
X104985300Y-110528100D03*
X102985300Y-112528100D03*
X104985300Y-112528100D03*
X106985300Y-104528100D03*
X104985300Y-106528100D03*
X106985300Y-106528100D03*
X106985300Y-116528100D03*
X104985300Y-118528100D03*
X106985300Y-118528100D03*
X119185300Y-116528100D03*
X117185300Y-118528100D03*
X119185300Y-118528100D03*
X119185300Y-104528100D03*
X117185300Y-106528100D03*
X119185300Y-106528100D03*
D20*
X105985300Y-105528100D03*
X80607800Y-84998800D03*
X92807800Y-84998800D03*
X80607800Y-96998800D03*
X94807800Y-90998800D03*
D21*
X93807800Y-97998800D03*
X81607800Y-97998800D03*
X81607800Y-85998800D03*
X95807800Y-91998800D03*
X93807800Y-85998800D03*
X93807800Y-91998800D03*
X95807800Y-89998800D03*
X93807800Y-89998800D03*
X91807800Y-97998800D03*
X93807800Y-95998800D03*
X91807800Y-95998800D03*
X91807800Y-85998800D03*
X93807800Y-83998800D03*
X91807800Y-83998800D03*
X79607800Y-85998800D03*
X81607800Y-83998800D03*
X79607800Y-83998800D03*
X79607800Y-97998800D03*
X81607800Y-95998800D03*
X79607800Y-95998800D03*
D20*
X92807800Y-96998800D03*
X85762200Y-66436000D03*
X73562200Y-66436000D03*
X85762200Y-54436000D03*
X71562200Y-60436000D03*
D21*
X72562200Y-53436000D03*
X84762200Y-53436000D03*
X84762200Y-65436000D03*
X70562200Y-59436000D03*
X72562200Y-65436000D03*
X72562200Y-59436000D03*
X70562200Y-61436000D03*
X72562200Y-61436000D03*
X74562200Y-53436000D03*
X72562200Y-55436000D03*
X74562200Y-55436000D03*
X74562200Y-65436000D03*
X72562200Y-67436000D03*
X74562200Y-67436000D03*
X86762200Y-65436000D03*
X84762200Y-67436000D03*
X86762200Y-67436000D03*
X86762200Y-53436000D03*
X84762200Y-55436000D03*
X86762200Y-55436000D03*
D20*
X73562200Y-54436000D03*
X56096800Y-85049600D03*
X68296800Y-85049600D03*
X56096800Y-97049600D03*
X70296800Y-91049600D03*
D21*
X69296800Y-98049600D03*
X57096800Y-98049600D03*
X57096800Y-86049600D03*
X71296800Y-92049600D03*
X69296800Y-86049600D03*
X69296800Y-92049600D03*
X71296800Y-90049600D03*
X69296800Y-90049600D03*
X67296800Y-98049600D03*
X69296800Y-96049600D03*
X67296800Y-96049600D03*
X67296800Y-86049600D03*
X69296800Y-84049600D03*
X67296800Y-84049600D03*
X55096800Y-86049600D03*
X57096800Y-84049600D03*
X55096800Y-84049600D03*
X55096800Y-98049600D03*
X57096800Y-96049600D03*
X55096800Y-96049600D03*
D20*
X68296800Y-97049600D03*
X105144200Y-84729560D03*
X117344200Y-84729560D03*
X105144200Y-96729560D03*
X119344200Y-90729560D03*
D21*
X118344200Y-97729560D03*
X106144200Y-97729560D03*
X106144200Y-85729560D03*
X120344200Y-91729560D03*
X118344200Y-85729560D03*
X118344200Y-91729560D03*
X120344200Y-89729560D03*
X118344200Y-89729560D03*
X116344200Y-97729560D03*
X118344200Y-95729560D03*
X116344200Y-95729560D03*
X116344200Y-85729560D03*
X118344200Y-83729560D03*
X116344200Y-83729560D03*
X104144200Y-85729560D03*
X106144200Y-83729560D03*
X104144200Y-83729560D03*
X104144200Y-97729560D03*
X106144200Y-95729560D03*
X104144200Y-95729560D03*
D20*
X117344200Y-96729560D03*
X129502800Y-84821000D03*
X141702800Y-84821000D03*
X129502800Y-96821000D03*
X143702800Y-90821000D03*
D21*
X142702800Y-97821000D03*
X130502800Y-97821000D03*
X130502800Y-85821000D03*
X144702800Y-91821000D03*
X142702800Y-85821000D03*
X142702800Y-91821000D03*
X144702800Y-89821000D03*
X142702800Y-89821000D03*
X140702800Y-97821000D03*
X142702800Y-95821000D03*
X140702800Y-95821000D03*
X140702800Y-85821000D03*
X142702800Y-83821000D03*
X140702800Y-83821000D03*
X128502800Y-85821000D03*
X130502800Y-83821000D03*
X128502800Y-83821000D03*
X128502800Y-97821000D03*
X130502800Y-95821000D03*
X128502800Y-95821000D03*
D20*
X141702800Y-96821000D03*
X142823300Y-117909100D03*
X130623300Y-117909100D03*
X142823300Y-105909100D03*
X128623300Y-111909100D03*
D21*
X129623300Y-104909100D03*
X141823300Y-104909100D03*
X141823300Y-116909100D03*
X127623300Y-110909100D03*
X129623300Y-116909100D03*
X129623300Y-110909100D03*
X127623300Y-112909100D03*
X129623300Y-112909100D03*
X131623300Y-104909100D03*
X129623300Y-106909100D03*
X131623300Y-106909100D03*
X131623300Y-116909100D03*
X129623300Y-118909100D03*
X131623300Y-118909100D03*
X143823300Y-116909100D03*
X141823300Y-118909100D03*
X143823300Y-118909100D03*
X143823300Y-104909100D03*
X141823300Y-106909100D03*
X143823300Y-106909100D03*
D20*
X130623300Y-105909100D03*
X92912300Y-117464600D03*
X80712300Y-117464600D03*
X92912300Y-105464600D03*
X78712300Y-111464600D03*
D21*
X79712300Y-104464600D03*
X91912300Y-104464600D03*
X91912300Y-116464600D03*
X77712300Y-110464600D03*
X79712300Y-116464600D03*
X79712300Y-110464600D03*
X77712300Y-112464600D03*
X79712300Y-112464600D03*
X81712300Y-104464600D03*
X79712300Y-106464600D03*
X81712300Y-106464600D03*
X81712300Y-116464600D03*
X79712300Y-118464600D03*
X81712300Y-118464600D03*
X93912300Y-116464600D03*
X91912300Y-118464600D03*
X93912300Y-118464600D03*
X93912300Y-104464600D03*
X91912300Y-106464600D03*
X93912300Y-106464600D03*
D20*
X80712300Y-105464600D03*
X68210800Y-117464600D03*
X56010800Y-117464600D03*
X68210800Y-105464600D03*
X54010800Y-111464600D03*
D21*
X55010800Y-104464600D03*
X67210800Y-104464600D03*
X67210800Y-116464600D03*
X53010800Y-110464600D03*
X55010800Y-116464600D03*
X55010800Y-110464600D03*
X53010800Y-112464600D03*
X55010800Y-112464600D03*
X57010800Y-104464600D03*
X55010800Y-106464600D03*
X57010800Y-106464600D03*
X57010800Y-116464600D03*
X55010800Y-118464600D03*
X57010800Y-118464600D03*
X69210800Y-116464600D03*
X67210800Y-118464600D03*
X69210800Y-118464600D03*
X69210800Y-104464600D03*
X67210800Y-106464600D03*
X69210800Y-106464600D03*
D20*
X56010800Y-105464600D03*
D22*
X74726800Y-93573600D03*
X74726800Y-98073600D03*
X74726800Y-89073600D03*
X99110800Y-92811600D03*
X99110800Y-97311600D03*
X99110800Y-88311600D03*
X123494800Y-92811600D03*
X123494800Y-97311600D03*
X123494800Y-88311600D03*
X124510800Y-109067600D03*
X124510800Y-104567600D03*
X124510800Y-113567600D03*
X99364800Y-109067600D03*
X99364800Y-104567600D03*
X99364800Y-113567600D03*
X74472800Y-108813600D03*
X74472800Y-104313600D03*
X74472800Y-113313600D03*
D11*
X134620000Y-135636000D03*
D12*
X132080000Y-135636000D03*
D11*
X139446000Y-135636000D03*
D12*
X136906000Y-135636000D03*
D23*
X140131800Y-101193600D03*
X135631800Y-101193600D03*
X144631800Y-101193600D03*
D15*
X60960000Y-136906000D03*
D16*
X66040000Y-136906000D03*
D15*
X60960000Y-145034000D03*
D16*
X66040000Y-145034000D03*
D15*
X54864000Y-72898000D03*
D16*
X54864000Y-77978000D03*
D23*
X58719720Y-67655440D03*
X54219720Y-67655440D03*
X63219720Y-67655440D03*
D18*
X64093080Y-80459840D03*
X67093080Y-80459840D03*
X70093080Y-80459840D03*
X73093080Y-80459840D03*
X64093080Y-73459840D03*
X67093080Y-73459840D03*
X70093080Y-73459840D03*
X73093080Y-73459840D03*
D19*
X61093080Y-77459840D03*
X76713080Y-77459840D03*
D20*
X107822100Y-66436000D03*
X95622100Y-66436000D03*
X107822100Y-54436000D03*
X93622100Y-60436000D03*
D21*
X94622100Y-53436000D03*
X106822100Y-53436000D03*
X106822100Y-65436000D03*
X92622100Y-59436000D03*
X94622100Y-65436000D03*
X94622100Y-59436000D03*
X92622100Y-61436000D03*
X94622100Y-61436000D03*
X96622100Y-53436000D03*
X94622100Y-55436000D03*
X96622100Y-55436000D03*
X96622100Y-65436000D03*
X94622100Y-67436000D03*
X96622100Y-67436000D03*
X108822100Y-65436000D03*
X106822100Y-67436000D03*
X108822100Y-67436000D03*
X108822100Y-53436000D03*
X106822100Y-55436000D03*
X108822100Y-55436000D03*
D20*
X95622100Y-54436000D03*
X86194000Y-145938000D03*
X73994000Y-145938000D03*
X86194000Y-133938000D03*
X71994000Y-139938000D03*
D21*
X72994000Y-132938000D03*
X85194000Y-132938000D03*
X85194000Y-144938000D03*
X70994000Y-138938000D03*
X72994000Y-144938000D03*
X72994000Y-138938000D03*
X70994000Y-140938000D03*
X72994000Y-140938000D03*
X74994000Y-132938000D03*
X72994000Y-134938000D03*
X74994000Y-134938000D03*
X74994000Y-144938000D03*
X72994000Y-146938000D03*
X74994000Y-146938000D03*
X87194000Y-144938000D03*
X85194000Y-146938000D03*
X87194000Y-146938000D03*
X87194000Y-132938000D03*
X85194000Y-134938000D03*
X87194000Y-134938000D03*
D20*
X73994000Y-133938000D03*
X108546000Y-145938000D03*
X96346000Y-145938000D03*
X108546000Y-133938000D03*
X94346000Y-139938000D03*
D21*
X95346000Y-132938000D03*
X107546000Y-132938000D03*
X107546000Y-144938000D03*
X93346000Y-138938000D03*
X95346000Y-144938000D03*
X95346000Y-138938000D03*
X93346000Y-140938000D03*
X95346000Y-140938000D03*
X97346000Y-132938000D03*
X95346000Y-134938000D03*
X97346000Y-134938000D03*
X97346000Y-144938000D03*
X95346000Y-146938000D03*
X97346000Y-146938000D03*
X109546000Y-144938000D03*
X107546000Y-146938000D03*
X109546000Y-146938000D03*
X109546000Y-132938000D03*
X107546000Y-134938000D03*
X109546000Y-134938000D03*
D20*
X96346000Y-133938000D03*
D24*
X117500400Y-54254400D03*
D25*
X117500400Y-51714400D03*
X120040400Y-54254400D03*
X120040400Y-51714400D03*
X122580400Y-54254400D03*
X122580400Y-51714400D03*
X125120400Y-54254400D03*
X125120400Y-51714400D03*
X127660400Y-54254400D03*
X127660400Y-51714400D03*
X130200400Y-54254400D03*
X130200400Y-51714400D03*
X132740400Y-54254400D03*
X132740400Y-51714400D03*
X135280400Y-54254400D03*
X135280400Y-51714400D03*
X137820400Y-54254400D03*
X137820400Y-51714400D03*
X140360400Y-54254400D03*
X140360400Y-51714400D03*
M02*
