M48
;DRILL file {KiCad 4.0.7} date 04/12/19 23:12:49
;FORMAT={-:-/ absolute / metric / decimal}
FMAT,2
METRIC,TZ
T1C0.800
T2C0.900
T3C1.000
T4C1.500
T5C1.520
T6C3.048
%
G90
G05
M71
T1
X53.645Y-98.12
X53.823Y-69.621
X53.873Y-83.49
X54.254Y-138.227
X58.645Y-98.12
X58.823Y-69.621
X58.873Y-83.49
X59.254Y-138.227
X61.798Y-50.815
X61.798Y-53.315
X62.674Y-118.126
X62.674Y-123.126
X62.674Y-128.413
X62.674Y-133.413
X63.563Y-108.752
X63.563Y-111.252
X66.183Y-136.715
X67.462Y-88.905
X67.526Y-92.011
X67.526Y-99.631
X69.962Y-88.905
X70.066Y-92.011
X70.066Y-99.631
X71.183Y-136.715
X73.736Y-92.05
X73.736Y-99.67
X74.155Y-80.112
X74.155Y-87.732
X75.159Y-60.924
X75.159Y-63.424
X75.438Y-108.839
X75.438Y-111.339
X75.921Y-53.137
X75.921Y-56.21
X76.276Y-92.05
X76.276Y-99.67
X77.296Y-136.843
X77.394Y-80.061
X77.394Y-87.681
X78.791Y-62.865
X78.791Y-72.123
X80.366Y-92.05
X80.366Y-99.67
X80.632Y-79.997
X80.632Y-87.617
X80.645Y-106.934
X80.645Y-114.554
X81.534Y-118.389
X81.534Y-126.009
X82.296Y-136.843
X82.906Y-92.05
X82.906Y-99.67
X83.185Y-106.934
X83.185Y-114.554
X83.541Y-53.137
X83.541Y-56.21
X83.791Y-62.865
X83.791Y-72.123
X83.82Y-80.112
X83.82Y-87.732
X84.62Y-118.3
X84.62Y-125.92
X85.725Y-106.934
X85.725Y-114.554
X86.919Y-92.164
X86.919Y-99.784
X87.173Y-80.112
X87.173Y-87.732
X87.782Y-118.262
X87.782Y-125.882
X88.265Y-106.934
X88.265Y-114.554
X89.459Y-92.164
X89.459Y-99.784
X89.996Y-136.969
X90.411Y-79.997
X90.411Y-87.617
X90.729Y-118.313
X90.729Y-125.933
X90.805Y-106.934
X90.805Y-114.554
X93.345Y-106.934
X93.345Y-114.554
X93.358Y-92.164
X93.358Y-99.784
X93.828Y-79.997
X93.828Y-87.617
X93.929Y-118.262
X93.929Y-125.882
X94.996Y-136.969
X95.885Y-106.934
X95.885Y-114.554
X95.898Y-92.164
X95.898Y-99.784
X96.952Y-118.224
X96.952Y-125.844
X97.066Y-79.947
X97.066Y-87.566
X98.425Y-106.934
X98.425Y-114.554
X99.758Y-92.202
X99.758Y-99.822
X100.127Y-118.262
X100.127Y-125.882
X100.965Y-106.934
X100.965Y-114.554
X101.473Y-52.832
X101.473Y-55.372
X101.473Y-57.912
X101.473Y-60.452
X101.473Y-62.992
X101.473Y-65.532
X101.473Y-68.072
X101.473Y-70.612
X101.473Y-73.152
X101.473Y-75.692
X101.473Y-78.232
X101.473Y-80.772
X101.473Y-83.312
X101.473Y-85.852
X102.298Y-92.202
X102.298Y-99.822
X103.276Y-118.288
X103.276Y-125.908
X103.648Y-136.525
X106.083Y-92.126
X106.083Y-99.746
X106.718Y-106.947
X106.718Y-114.567
X108.623Y-92.126
X108.623Y-99.746
X108.648Y-136.525
X109.093Y-52.832
X109.093Y-55.372
X109.093Y-57.912
X109.093Y-60.452
X109.093Y-62.992
X109.093Y-65.532
X109.093Y-68.072
X109.093Y-70.612
X109.093Y-73.152
X109.093Y-75.692
X109.093Y-78.232
X109.093Y-80.772
X109.093Y-83.312
X109.093Y-85.852
X109.258Y-106.947
X109.258Y-114.567
X109.347Y-118.11
X109.347Y-125.73
X111.798Y-106.947
X111.798Y-114.567
X112.446Y-92.126
X112.446Y-99.746
X112.522Y-118.11
X112.522Y-125.73
X113.081Y-53.073
X113.081Y-55.573
X113.271Y-81.724
X113.271Y-84.887
X113.411Y-72.25
X113.411Y-75.438
X113.411Y-78.562
X113.474Y-65.773
X113.525Y-62.471
X113.525Y-69.063
X114.338Y-106.947
X114.338Y-114.567
X114.986Y-92.126
X114.986Y-99.746
X115.56Y-118.166
X115.56Y-125.786
X116.878Y-106.947
X116.878Y-114.567
X117.047Y-136.334
X118.656Y-92.126
X118.656Y-99.746
X118.796Y-118.148
X118.796Y-125.768
X119.418Y-106.947
X119.418Y-114.567
X120.891Y-81.724
X120.891Y-84.887
X121.031Y-72.25
X121.031Y-75.438
X121.031Y-78.562
X121.094Y-65.773
X121.145Y-62.471
X121.145Y-69.063
X121.196Y-92.126
X121.196Y-99.746
X121.846Y-118.11
X121.846Y-125.73
X121.958Y-106.947
X121.958Y-114.567
X122.047Y-136.334
X124.498Y-106.947
X124.498Y-114.567
X124.724Y-90.246
X124.724Y-92.786
X124.836Y-83.82
X124.836Y-86.36
X124.907Y-71.034
X124.907Y-73.574
X124.907Y-77.343
X124.907Y-79.883
X124.993Y-52.009
X124.993Y-54.549
X124.993Y-58.318
X124.993Y-60.858
X124.993Y-64.633
X124.993Y-67.173
X125.059Y-118.11
X125.059Y-125.73
X127.038Y-106.947
X127.038Y-114.567
X128.054Y-118.148
X128.054Y-125.768
X129.493Y-136.017
X131.206Y-118.166
X131.206Y-125.786
X132.344Y-90.246
X132.344Y-92.786
X132.456Y-83.82
X132.456Y-86.36
X132.527Y-71.034
X132.527Y-73.574
X132.527Y-77.343
X132.527Y-79.883
X132.613Y-52.009
X132.613Y-54.549
X132.613Y-58.318
X132.613Y-60.858
X132.613Y-64.633
X132.613Y-67.173
X134.493Y-136.017
X140.208Y-117.856
X140.208Y-122.856
X142.574Y-99.822
X142.726Y-84.582
X142.828Y-128.016
X143.002Y-142.32
X143.002Y-147.32
X143.082Y-113.792
X144.272Y-57.912
X147.574Y-99.822
X147.726Y-84.582
X147.828Y-128.016
X148.082Y-113.792
X149.272Y-57.912
T2
X71.298Y-128.918
X71.298Y-131.458
X75.717Y-128.969
X75.717Y-131.508
X80.302Y-128.969
X80.302Y-131.508
X84.849Y-128.994
X84.849Y-131.534
X89.383Y-128.918
X89.383Y-131.458
X93.878Y-128.918
X93.878Y-131.458
X98.374Y-128.918
X98.374Y-131.458
X102.908Y-128.918
X102.908Y-131.458
X107.569Y-128.905
X107.569Y-131.445
X112.014Y-128.905
X112.014Y-131.445
X116.586Y-128.905
X116.586Y-131.445
X121.031Y-128.905
X121.031Y-131.445
X125.476Y-128.905
X125.476Y-131.445
X129.921Y-128.905
X129.921Y-131.445
X134.366Y-128.905
X134.366Y-131.445
X138.811Y-128.905
X138.811Y-131.445
T3
X63.754Y-90.995
X63.754Y-93.535
X63.881Y-99.758
X63.881Y-102.298
X67.539Y-52.934
X67.539Y-55.474
X67.539Y-58.014
X67.539Y-60.554
X67.539Y-63.094
X69.85Y-71.018
X70.079Y-52.934
X70.079Y-55.474
X70.079Y-58.014
X70.079Y-60.554
X70.079Y-63.094
X72.39Y-71.018
X74.93Y-71.018
X90.576Y-52.807
X90.627Y-56.312
X90.703Y-59.855
X93.116Y-52.807
X93.167Y-56.312
X93.243Y-59.855
X95.656Y-52.807
X95.707Y-56.312
X95.783Y-59.855
T4
X67.056Y-106.172
X67.056Y-113.792
X70.866Y-106.172
X70.866Y-113.792
T5
X56.337Y-103.708
X56.337Y-108.788
X56.439Y-73.939
X56.439Y-79.019
X56.617Y-87.884
X56.617Y-92.964
X56.642Y-59.563
X56.642Y-64.643
X56.642Y-126.682
X56.642Y-131.762
X56.718Y-115.164
X56.718Y-120.244
X64.262Y-142.748
X69.342Y-142.748
X77.089Y-142.875
X82.169Y-142.875
X89.789Y-143.002
X94.869Y-143.002
X103.378Y-142.684
X108.458Y-142.684
X117.157Y-142.494
X122.237Y-142.494
X130.937Y-142.303
X136.017Y-142.303
X145.288Y-90.018
X145.288Y-95.098
X145.288Y-104.394
X145.288Y-109.474
X145.288Y-118.364
X145.288Y-123.444
X145.44Y-73.457
X145.44Y-78.537
X145.542Y-132.842
X145.542Y-137.922
T6
X54.Y-52.
X54.Y-146.
X148.Y-52.
X148.Y-146.
T0
M30
