G04 #@! TF.FileFunction,Soldermask,Bot*
%FSLAX46Y46*%
G04 Gerber Fmt 4.6, Leading zero omitted, Abs format (unit mm)*
G04 Created by KiCad (PCBNEW 4.0.7) date 03/03/19 01:56:39*
%MOMM*%
%LPD*%
G01*
G04 APERTURE LIST*
%ADD10C,0.100000*%
%ADD11C,4.210000*%
%ADD12C,3.956000*%
%ADD13C,2.200000*%
%ADD14C,2.000000*%
%ADD15O,2.000000X2.000000*%
%ADD16R,2.200000X2.200000*%
%ADD17C,5.900000*%
%ADD18R,2.100000X2.100000*%
%ADD19O,2.100000X2.100000*%
%ADD20C,2.400000*%
%ADD21O,1.900000X1.900000*%
%ADD22C,5.400000*%
%ADD23C,4.464000*%
%ADD24C,1.900000*%
%ADD25C,2.500000*%
%ADD26R,3.400000X3.400000*%
%ADD27C,3.400000*%
G04 APERTURE END LIST*
D10*
D11*
X101473000Y-91186000D03*
D12*
X104648000Y-94361000D03*
D11*
X107823000Y-91186000D03*
X101473000Y-97536000D03*
X107823000Y-97536000D03*
D13*
X109210000Y-61945500D03*
X109210000Y-72105500D03*
X109210000Y-67025500D03*
X101610000Y-67025500D03*
X101610000Y-61945500D03*
X101610000Y-72105500D03*
X109210000Y-54325500D03*
X101610000Y-54325500D03*
D11*
X76708000Y-77597000D03*
D12*
X79883000Y-80772000D03*
D11*
X83058000Y-77597000D03*
X76708000Y-83947000D03*
X83058000Y-83947000D03*
X105460800Y-116078000D03*
D12*
X108635800Y-119253000D03*
D11*
X111810800Y-116078000D03*
X105460800Y-122428000D03*
X111810800Y-122428000D03*
D13*
X70939500Y-137698500D03*
X70939500Y-127538500D03*
X70939500Y-132618500D03*
X78539500Y-132618500D03*
X78539500Y-137698500D03*
X78539500Y-127538500D03*
X70939500Y-145318500D03*
X78539500Y-145318500D03*
X87322500Y-137571500D03*
X87322500Y-127411500D03*
X87322500Y-132491500D03*
X94922500Y-132491500D03*
X94922500Y-137571500D03*
X94922500Y-127411500D03*
X87322500Y-145191500D03*
X94922500Y-145191500D03*
X130210400Y-137965200D03*
X130210400Y-127805200D03*
X130210400Y-132885200D03*
X137810400Y-132885200D03*
X137810400Y-137965200D03*
X137810400Y-127805200D03*
X130210400Y-145585200D03*
X137810400Y-145585200D03*
D14*
X53479700Y-129921000D03*
D15*
X53479700Y-137541000D03*
D14*
X74168000Y-51435000D03*
X76668000Y-51435000D03*
X63535560Y-111257080D03*
X61035560Y-111257080D03*
D16*
X63538100Y-129552700D03*
D13*
X60998100Y-129552700D03*
D14*
X52946300Y-71691500D03*
D15*
X52946300Y-79311500D03*
D16*
X63538100Y-138582400D03*
D13*
X60998100Y-138582400D03*
D16*
X63538100Y-133997700D03*
D13*
X60998100Y-133997700D03*
D14*
X135890000Y-148463000D03*
X133390000Y-148463000D03*
X122682000Y-148463000D03*
X120182000Y-148463000D03*
X107950000Y-148463000D03*
X105450000Y-148463000D03*
X91922600Y-148196300D03*
X89422600Y-148196300D03*
X76108560Y-148305520D03*
X73608560Y-148305520D03*
X89154000Y-51435000D03*
X91654000Y-51435000D03*
X104140000Y-51435000D03*
X106640000Y-51435000D03*
X118872000Y-51435000D03*
X121372000Y-51435000D03*
X59334400Y-59283600D03*
D15*
X51714400Y-59283600D03*
D17*
X147000000Y-53000000D03*
X53000000Y-147000000D03*
D14*
X52920900Y-69596000D03*
D15*
X52920900Y-61976000D03*
D16*
X63538100Y-125031500D03*
D13*
X60998100Y-125031500D03*
D16*
X63512700Y-120535700D03*
D13*
X60972700Y-120535700D03*
D16*
X61800000Y-81200000D03*
D13*
X59260000Y-81200000D03*
D16*
X61800000Y-76600000D03*
D13*
X59260000Y-76600000D03*
D16*
X61800000Y-72000000D03*
D13*
X59260000Y-72000000D03*
D14*
X56667400Y-130048000D03*
D15*
X56667400Y-137668000D03*
D14*
X53644800Y-127025400D03*
D15*
X53644800Y-119405400D03*
D14*
X56730900Y-126949200D03*
D15*
X56730900Y-119329200D03*
D14*
X56273700Y-116624100D03*
D15*
X63893700Y-116624100D03*
D14*
X55525000Y-79325000D03*
D15*
X55525000Y-71705000D03*
D14*
X55475000Y-69625000D03*
D15*
X55475000Y-62005000D03*
D16*
X61800000Y-67600000D03*
D13*
X59260000Y-67600000D03*
D16*
X61800000Y-63200000D03*
D13*
X59260000Y-63200000D03*
D18*
X54864000Y-111061500D03*
D19*
X52324000Y-111061500D03*
X54864000Y-108521500D03*
X52324000Y-108521500D03*
X54864000Y-105981500D03*
X52324000Y-105981500D03*
X54864000Y-103441500D03*
X52324000Y-103441500D03*
X54864000Y-100901500D03*
X52324000Y-100901500D03*
X54864000Y-98361500D03*
X52324000Y-98361500D03*
X54864000Y-95821500D03*
X52324000Y-95821500D03*
X54864000Y-93281500D03*
X52324000Y-93281500D03*
X54864000Y-90741500D03*
X52324000Y-90741500D03*
X54864000Y-88201500D03*
X52324000Y-88201500D03*
D14*
X63652400Y-88011000D03*
X61152400Y-88011000D03*
X63601600Y-90627200D03*
X61101600Y-90627200D03*
X63652400Y-93141800D03*
X61152400Y-93141800D03*
X63601600Y-95935800D03*
X61101600Y-95935800D03*
X63652400Y-98399600D03*
X61152400Y-98399600D03*
X63601600Y-101041200D03*
X61101600Y-101041200D03*
X63627000Y-103632000D03*
X61127000Y-103632000D03*
X63627000Y-106146600D03*
X61127000Y-106146600D03*
X63591440Y-108686600D03*
X61091440Y-108686600D03*
D20*
X58790840Y-148859240D03*
X58790840Y-143859240D03*
X62191900Y-148805900D03*
X62191900Y-143805900D03*
X56121300Y-141401800D03*
X51121300Y-141401800D03*
D17*
X147000000Y-147000000D03*
D21*
X141732000Y-51943000D03*
X141859000Y-56134000D03*
X143192500Y-142367000D03*
X146621500Y-142303500D03*
D13*
X117307200Y-137812800D03*
X117307200Y-127652800D03*
X117307200Y-132732800D03*
X124907200Y-132732800D03*
X124907200Y-137812800D03*
X124907200Y-127652800D03*
X117307200Y-145432800D03*
X124907200Y-145432800D03*
X102880000Y-137825500D03*
X102880000Y-127665500D03*
X102880000Y-132745500D03*
X110480000Y-132745500D03*
X110480000Y-137825500D03*
X110480000Y-127665500D03*
X102880000Y-145445500D03*
X110480000Y-145445500D03*
X79365000Y-62136000D03*
X79365000Y-72296000D03*
X79365000Y-67216000D03*
X71765000Y-67216000D03*
X71765000Y-62136000D03*
X71765000Y-72296000D03*
X79365000Y-54516000D03*
X71765000Y-54516000D03*
X93970000Y-62009000D03*
X93970000Y-72169000D03*
X93970000Y-67089000D03*
X86370000Y-67089000D03*
X86370000Y-62009000D03*
X86370000Y-72169000D03*
X93970000Y-54389000D03*
X86370000Y-54389000D03*
X124005500Y-62072500D03*
X124005500Y-72232500D03*
X124005500Y-67152500D03*
X116405500Y-67152500D03*
X116405500Y-62072500D03*
X116405500Y-72232500D03*
X124005500Y-54452500D03*
X116405500Y-54452500D03*
X137810400Y-62034400D03*
X137810400Y-72194400D03*
X137810400Y-67114400D03*
X130210400Y-67114400D03*
X130210400Y-62034400D03*
X130210400Y-72194400D03*
X137810400Y-54414400D03*
X130210400Y-54414400D03*
D22*
X53000000Y-53000000D03*
D11*
X72009000Y-91249500D03*
D12*
X75184000Y-94424500D03*
D11*
X78359000Y-91249500D03*
X72009000Y-97599500D03*
X78359000Y-97599500D03*
X91313000Y-77597000D03*
D12*
X94488000Y-80772000D03*
D11*
X97663000Y-77597000D03*
X91313000Y-83947000D03*
X97663000Y-83947000D03*
X120929400Y-115862100D03*
D12*
X124104400Y-119037100D03*
D11*
X127279400Y-115862100D03*
X120929400Y-122212100D03*
X127279400Y-122212100D03*
X86903560Y-91206320D03*
D12*
X90078560Y-94381320D03*
D11*
X93253560Y-91206320D03*
X86903560Y-97556320D03*
X93253560Y-97556320D03*
X128651000Y-103632000D03*
D12*
X131826000Y-106807000D03*
D11*
X135001000Y-103632000D03*
X128651000Y-109982000D03*
X135001000Y-109982000D03*
X107061000Y-78041500D03*
D12*
X110236000Y-81216500D03*
D11*
X113411000Y-78041500D03*
X107061000Y-84391500D03*
X113411000Y-84391500D03*
X113411000Y-103886000D03*
D12*
X116586000Y-107061000D03*
D11*
X119761000Y-103886000D03*
X113411000Y-110236000D03*
X119761000Y-110236000D03*
X123952000Y-78232000D03*
D12*
X127127000Y-81407000D03*
D11*
X130302000Y-78232000D03*
X123952000Y-84582000D03*
X130302000Y-84582000D03*
X88798400Y-115900200D03*
D12*
X91973400Y-119075200D03*
D11*
X95148400Y-115900200D03*
X88798400Y-122250200D03*
X95148400Y-122250200D03*
X117348000Y-91122500D03*
D12*
X120523000Y-94297500D03*
D11*
X123698000Y-91122500D03*
X117348000Y-97472500D03*
X123698000Y-97472500D03*
X96850200Y-103670100D03*
D12*
X100025200Y-106845100D03*
D11*
X103200200Y-103670100D03*
X96850200Y-110020100D03*
X103200200Y-110020100D03*
X71932800Y-115798600D03*
D12*
X75107800Y-118973600D03*
D11*
X78282800Y-115798600D03*
X71932800Y-122148600D03*
X78282800Y-122148600D03*
X80365600Y-103720900D03*
D12*
X83540600Y-106895900D03*
D11*
X86715600Y-103720900D03*
X80365600Y-110070900D03*
X86715600Y-110070900D03*
D14*
X132842000Y-51498500D03*
X135342000Y-51498500D03*
D23*
X136067800Y-78232000D03*
X142382240Y-78120240D03*
X135900160Y-85328760D03*
D21*
X147383500Y-139001500D03*
X144145000Y-56832500D03*
D23*
X142661640Y-85440520D03*
D24*
X142610800Y-130048000D03*
X142610800Y-127508000D03*
D25*
X147690800Y-124968000D03*
X147690800Y-135128000D03*
D26*
X145338800Y-132334000D03*
D27*
X145338800Y-127254000D03*
D24*
X141848800Y-66243200D03*
X141848800Y-63703200D03*
D25*
X146928800Y-61163200D03*
X146928800Y-71323200D03*
D26*
X144576800Y-68529200D03*
D27*
X144576800Y-63449200D03*
D18*
X146517360Y-76387960D03*
D19*
X146517360Y-78927960D03*
M02*
