G04 #@! TF.FileFunction,Copper,L2,Bot,Signal*
%FSLAX46Y46*%
G04 Gerber Fmt 4.6, Leading zero omitted, Abs format (unit mm)*
G04 Created by KiCad (PCBNEW 4.0.7) date 03/18/19 18:34:33*
%MOMM*%
%LPD*%
G01*
G04 APERTURE LIST*
%ADD10C,0.100000*%
%ADD11C,3.810000*%
%ADD12C,3.556000*%
%ADD13C,1.800000*%
%ADD14C,1.600000*%
%ADD15O,1.600000X1.600000*%
%ADD16R,1.800000X1.800000*%
%ADD17C,5.500000*%
%ADD18R,1.700000X1.700000*%
%ADD19O,1.700000X1.700000*%
%ADD20C,2.000000*%
%ADD21O,1.500000X1.500000*%
%ADD22C,5.000000*%
%ADD23C,4.064000*%
%ADD24C,1.500000*%
%ADD25R,3.000000X3.000000*%
%ADD26C,3.000000*%
%ADD27C,0.600000*%
%ADD28C,1.500000*%
%ADD29C,0.350000*%
%ADD30C,0.500000*%
G04 APERTURE END LIST*
D10*
D11*
X101473000Y-91186000D03*
D12*
X104648000Y-94361000D03*
D11*
X107823000Y-91186000D03*
X101473000Y-97536000D03*
X107823000Y-97536000D03*
D13*
X109210000Y-61945500D03*
X109210000Y-72105500D03*
X109210000Y-67025500D03*
X101610000Y-67025500D03*
X101610000Y-61945500D03*
X101610000Y-72105500D03*
X109210000Y-54325500D03*
X101610000Y-54325500D03*
D11*
X76708000Y-77597000D03*
D12*
X79883000Y-80772000D03*
D11*
X83058000Y-77597000D03*
X76708000Y-83947000D03*
X83058000Y-83947000D03*
X105460800Y-116078000D03*
D12*
X108635800Y-119253000D03*
D11*
X111810800Y-116078000D03*
X105460800Y-122428000D03*
X111810800Y-122428000D03*
D13*
X70939500Y-137698500D03*
X70939500Y-127538500D03*
X70939500Y-132618500D03*
X78539500Y-132618500D03*
X78539500Y-137698500D03*
X78539500Y-127538500D03*
X70939500Y-145318500D03*
X78539500Y-145318500D03*
X87322500Y-137571500D03*
X87322500Y-127411500D03*
X87322500Y-132491500D03*
X94922500Y-132491500D03*
X94922500Y-137571500D03*
X94922500Y-127411500D03*
X87322500Y-145191500D03*
X94922500Y-145191500D03*
X130210400Y-137965200D03*
X130210400Y-127805200D03*
X130210400Y-132885200D03*
X137810400Y-132885200D03*
X137810400Y-137965200D03*
X137810400Y-127805200D03*
X130210400Y-145585200D03*
X137810400Y-145585200D03*
D14*
X53479700Y-129921000D03*
D15*
X53479700Y-137541000D03*
D14*
X74168000Y-51435000D03*
X76668000Y-51435000D03*
X63535560Y-111257080D03*
X61035560Y-111257080D03*
D16*
X63538100Y-129552700D03*
D13*
X60998100Y-129552700D03*
D14*
X52946300Y-71691500D03*
D15*
X52946300Y-79311500D03*
D16*
X63538100Y-138582400D03*
D13*
X60998100Y-138582400D03*
D16*
X63538100Y-133997700D03*
D13*
X60998100Y-133997700D03*
D14*
X135890000Y-148463000D03*
X133390000Y-148463000D03*
X122682000Y-148463000D03*
X120182000Y-148463000D03*
X107950000Y-148463000D03*
X105450000Y-148463000D03*
X91922600Y-148196300D03*
X89422600Y-148196300D03*
X76108560Y-148305520D03*
X73608560Y-148305520D03*
X89154000Y-51435000D03*
X91654000Y-51435000D03*
X104140000Y-51435000D03*
X106640000Y-51435000D03*
X118872000Y-51435000D03*
X121372000Y-51435000D03*
X59334400Y-59283600D03*
D15*
X51714400Y-59283600D03*
D17*
X147000000Y-53000000D03*
X53000000Y-147000000D03*
D14*
X52920900Y-69596000D03*
D15*
X52920900Y-61976000D03*
D16*
X63538100Y-125031500D03*
D13*
X60998100Y-125031500D03*
D16*
X63512700Y-120535700D03*
D13*
X60972700Y-120535700D03*
D16*
X61800000Y-81200000D03*
D13*
X59260000Y-81200000D03*
D16*
X61800000Y-76600000D03*
D13*
X59260000Y-76600000D03*
D16*
X61800000Y-72000000D03*
D13*
X59260000Y-72000000D03*
D14*
X56667400Y-130048000D03*
D15*
X56667400Y-137668000D03*
D14*
X53644800Y-127025400D03*
D15*
X53644800Y-119405400D03*
D14*
X56730900Y-126949200D03*
D15*
X56730900Y-119329200D03*
D14*
X56273700Y-116624100D03*
D15*
X63893700Y-116624100D03*
D14*
X55525000Y-79325000D03*
D15*
X55525000Y-71705000D03*
D14*
X55475000Y-69625000D03*
D15*
X55475000Y-62005000D03*
D16*
X61800000Y-67600000D03*
D13*
X59260000Y-67600000D03*
D16*
X61800000Y-63200000D03*
D13*
X59260000Y-63200000D03*
D18*
X54864000Y-111061500D03*
D19*
X52324000Y-111061500D03*
X54864000Y-108521500D03*
X52324000Y-108521500D03*
X54864000Y-105981500D03*
X52324000Y-105981500D03*
X54864000Y-103441500D03*
X52324000Y-103441500D03*
X54864000Y-100901500D03*
X52324000Y-100901500D03*
X54864000Y-98361500D03*
X52324000Y-98361500D03*
X54864000Y-95821500D03*
X52324000Y-95821500D03*
X54864000Y-93281500D03*
X52324000Y-93281500D03*
X54864000Y-90741500D03*
X52324000Y-90741500D03*
X54864000Y-88201500D03*
X52324000Y-88201500D03*
D14*
X63652400Y-88011000D03*
X61152400Y-88011000D03*
X63601600Y-90627200D03*
X61101600Y-90627200D03*
X63652400Y-93141800D03*
X61152400Y-93141800D03*
X63601600Y-95935800D03*
X61101600Y-95935800D03*
X63652400Y-98399600D03*
X61152400Y-98399600D03*
X63601600Y-101041200D03*
X61101600Y-101041200D03*
X63627000Y-103632000D03*
X61127000Y-103632000D03*
X63627000Y-106146600D03*
X61127000Y-106146600D03*
X63591440Y-108686600D03*
X61091440Y-108686600D03*
D20*
X58790840Y-148859240D03*
X58790840Y-143859240D03*
X62191900Y-148805900D03*
X62191900Y-143805900D03*
X56121300Y-141401800D03*
X51121300Y-141401800D03*
D17*
X147000000Y-147000000D03*
D21*
X141732000Y-51943000D03*
X141859000Y-56134000D03*
X143192500Y-142367000D03*
X146621500Y-142303500D03*
D13*
X117307200Y-137812800D03*
X117307200Y-127652800D03*
X117307200Y-132732800D03*
X124907200Y-132732800D03*
X124907200Y-137812800D03*
X124907200Y-127652800D03*
X117307200Y-145432800D03*
X124907200Y-145432800D03*
X102880000Y-137825500D03*
X102880000Y-127665500D03*
X102880000Y-132745500D03*
X110480000Y-132745500D03*
X110480000Y-137825500D03*
X110480000Y-127665500D03*
X102880000Y-145445500D03*
X110480000Y-145445500D03*
X79365000Y-62136000D03*
X79365000Y-72296000D03*
X79365000Y-67216000D03*
X71765000Y-67216000D03*
X71765000Y-62136000D03*
X71765000Y-72296000D03*
X79365000Y-54516000D03*
X71765000Y-54516000D03*
X93970000Y-62009000D03*
X93970000Y-72169000D03*
X93970000Y-67089000D03*
X86370000Y-67089000D03*
X86370000Y-62009000D03*
X86370000Y-72169000D03*
X93970000Y-54389000D03*
X86370000Y-54389000D03*
X124005500Y-62072500D03*
X124005500Y-72232500D03*
X124005500Y-67152500D03*
X116405500Y-67152500D03*
X116405500Y-62072500D03*
X116405500Y-72232500D03*
X124005500Y-54452500D03*
X116405500Y-54452500D03*
X137810400Y-62034400D03*
X137810400Y-72194400D03*
X137810400Y-67114400D03*
X130210400Y-67114400D03*
X130210400Y-62034400D03*
X130210400Y-72194400D03*
X137810400Y-54414400D03*
X130210400Y-54414400D03*
D22*
X53000000Y-53000000D03*
D11*
X72009000Y-91249500D03*
D12*
X75184000Y-94424500D03*
D11*
X78359000Y-91249500D03*
X72009000Y-97599500D03*
X78359000Y-97599500D03*
X91313000Y-77597000D03*
D12*
X94488000Y-80772000D03*
D11*
X97663000Y-77597000D03*
X91313000Y-83947000D03*
X97663000Y-83947000D03*
X120929400Y-115862100D03*
D12*
X124104400Y-119037100D03*
D11*
X127279400Y-115862100D03*
X120929400Y-122212100D03*
X127279400Y-122212100D03*
X86903560Y-91206320D03*
D12*
X90078560Y-94381320D03*
D11*
X93253560Y-91206320D03*
X86903560Y-97556320D03*
X93253560Y-97556320D03*
X128651000Y-103632000D03*
D12*
X131826000Y-106807000D03*
D11*
X135001000Y-103632000D03*
X128651000Y-109982000D03*
X135001000Y-109982000D03*
X107061000Y-78041500D03*
D12*
X110236000Y-81216500D03*
D11*
X113411000Y-78041500D03*
X107061000Y-84391500D03*
X113411000Y-84391500D03*
X113411000Y-103886000D03*
D12*
X116586000Y-107061000D03*
D11*
X119761000Y-103886000D03*
X113411000Y-110236000D03*
X119761000Y-110236000D03*
X123952000Y-78232000D03*
D12*
X127127000Y-81407000D03*
D11*
X130302000Y-78232000D03*
X123952000Y-84582000D03*
X130302000Y-84582000D03*
X88798400Y-115900200D03*
D12*
X91973400Y-119075200D03*
D11*
X95148400Y-115900200D03*
X88798400Y-122250200D03*
X95148400Y-122250200D03*
X117348000Y-91122500D03*
D12*
X120523000Y-94297500D03*
D11*
X123698000Y-91122500D03*
X117348000Y-97472500D03*
X123698000Y-97472500D03*
X96850200Y-103670100D03*
D12*
X100025200Y-106845100D03*
D11*
X103200200Y-103670100D03*
X96850200Y-110020100D03*
X103200200Y-110020100D03*
X71932800Y-115798600D03*
D12*
X75107800Y-118973600D03*
D11*
X78282800Y-115798600D03*
X71932800Y-122148600D03*
X78282800Y-122148600D03*
X80365600Y-103720900D03*
D12*
X83540600Y-106895900D03*
D11*
X86715600Y-103720900D03*
X80365600Y-110070900D03*
X86715600Y-110070900D03*
D14*
X132842000Y-51498500D03*
X135342000Y-51498500D03*
D23*
X136067800Y-78232000D03*
X142382240Y-78120240D03*
X135900160Y-85328760D03*
D21*
X147383500Y-139001500D03*
X144145000Y-56832500D03*
D23*
X142661640Y-85440520D03*
D24*
X142610800Y-130048000D03*
X142610800Y-127508000D03*
D25*
X145338800Y-132334000D03*
D26*
X145338800Y-127254000D03*
D24*
X142295840Y-108966000D03*
X142295840Y-106426000D03*
D25*
X145023840Y-111252000D03*
D26*
X145023840Y-106172000D03*
D27*
X109918500Y-142227300D03*
X98869500Y-141541500D03*
X72466200Y-140779500D03*
X66913760Y-140106400D03*
X89662000Y-57404000D03*
X103797100Y-56553100D03*
D28*
X79883000Y-80772000D02*
X79883000Y-72814000D01*
X79883000Y-72814000D02*
X79365000Y-72296000D01*
X124907200Y-127652800D02*
X124907200Y-127505300D01*
X124907200Y-127505300D02*
X131787900Y-123101100D01*
X131787900Y-123101100D02*
X131826000Y-106807000D01*
D29*
X115481152Y-142237678D02*
X115796278Y-142237678D01*
X116776500Y-143217900D02*
X133056967Y-143217900D01*
X115796278Y-142237678D02*
X116776500Y-143217900D01*
X137810400Y-145585200D02*
X137279400Y-145585200D01*
X137279400Y-145585200D02*
X133056967Y-143217900D01*
X115481152Y-142237678D02*
X109918500Y-142227300D01*
X63535560Y-111257080D02*
X63535560Y-112638840D01*
X54724300Y-139255500D02*
X56667400Y-137668000D01*
X53098700Y-139255500D02*
X54724300Y-139255500D01*
X50969002Y-137024202D02*
X53098700Y-139255500D01*
X50969002Y-114308798D02*
X50969002Y-137024202D01*
X52120800Y-113157000D02*
X50969002Y-114308798D01*
X63017400Y-113157000D02*
X52120800Y-113157000D01*
X63535560Y-112638840D02*
X63017400Y-113157000D01*
X54864000Y-111061500D02*
X55377080Y-111061500D01*
X55377080Y-111061500D02*
X56494680Y-109943900D01*
X56494680Y-109943900D02*
X62222380Y-109943900D01*
X62222380Y-109943900D02*
X63535560Y-111257080D01*
X122682000Y-148463000D02*
X122682000Y-146933920D01*
X122682000Y-146933920D02*
X122516900Y-146768820D01*
X122796300Y-148348700D02*
X122682000Y-148463000D01*
X98869500Y-141541500D02*
X110756700Y-143164560D01*
X110756700Y-143164560D02*
X115559840Y-146768820D01*
X115559840Y-146768820D02*
X122516900Y-146768820D01*
X123444180Y-146768820D02*
X124907200Y-145432800D01*
X122516900Y-146768820D02*
X123444180Y-146768820D01*
X53479700Y-137541000D02*
X53492400Y-137541000D01*
X63591440Y-108686600D02*
X64795400Y-108686600D01*
X51663600Y-134975600D02*
X53479700Y-137541000D01*
X51663600Y-114681000D02*
X51663600Y-134975600D01*
X52501800Y-113842800D02*
X51663600Y-114681000D01*
X63741300Y-113842800D02*
X52501800Y-113842800D01*
X65036700Y-112547400D02*
X63741300Y-113842800D01*
X65036700Y-108927900D02*
X65036700Y-112547400D01*
X64795400Y-108686600D02*
X65036700Y-108927900D01*
X54864000Y-108521500D02*
X55262780Y-108521500D01*
X55262780Y-108521500D02*
X56410860Y-107373420D01*
X56410860Y-107373420D02*
X62278260Y-107373420D01*
X62278260Y-107373420D02*
X63591440Y-108686600D01*
X63591440Y-108686600D02*
X63982600Y-108686600D01*
X72466200Y-140779500D02*
X77083860Y-142008393D01*
X98145600Y-142875000D02*
X102108000Y-146837400D01*
X82296275Y-142989298D02*
X98145600Y-142875000D01*
X77083860Y-142008393D02*
X82296275Y-142989298D01*
X110480000Y-145445500D02*
X110226000Y-146187000D01*
X110226000Y-146187000D02*
X107950000Y-148463000D01*
X106324400Y-146837400D02*
X107950000Y-148463000D01*
X102108000Y-146837400D02*
X106324400Y-146837400D01*
X63627000Y-106146600D02*
X63969900Y-106146600D01*
X63969900Y-106146600D02*
X65722500Y-108165900D01*
X52425600Y-118186200D02*
X53644800Y-119405400D01*
X52425600Y-115062000D02*
X52425600Y-118186200D01*
X53073300Y-114414300D02*
X52425600Y-115062000D01*
X64160400Y-114414300D02*
X53073300Y-114414300D01*
X65722500Y-112737900D02*
X64160400Y-114414300D01*
X65722500Y-108165900D02*
X65722500Y-112737900D01*
X54864000Y-105981500D02*
X55511700Y-105981500D01*
X55511700Y-105981500D02*
X56662320Y-104830880D01*
X56662320Y-104830880D02*
X62311280Y-104830880D01*
X62311280Y-104830880D02*
X63627000Y-106146600D01*
X63627000Y-106146600D02*
X64046100Y-106146600D01*
X94922500Y-145191500D02*
X94922500Y-145679000D01*
X94922500Y-145679000D02*
X91922600Y-148196300D01*
X90271600Y-146545300D02*
X91922600Y-148196300D01*
X84714080Y-146545300D02*
X90271600Y-146545300D01*
X80631742Y-143885068D02*
X84714080Y-146545300D01*
X75628015Y-142803070D02*
X80631742Y-143885068D01*
X66913760Y-140106400D02*
X75628015Y-142803070D01*
X63627000Y-103632000D02*
X63715900Y-103632000D01*
X63715900Y-103632000D02*
X65239900Y-105156000D01*
X53949600Y-116547900D02*
X56730900Y-119329200D01*
X53949600Y-115163600D02*
X53949600Y-116547900D01*
X54140100Y-114973100D02*
X53949600Y-115163600D01*
X64516000Y-114973100D02*
X54140100Y-114973100D01*
X66400000Y-112966500D02*
X64516000Y-114973100D01*
X66400000Y-107810300D02*
X66400000Y-112966500D01*
X65239900Y-106527600D02*
X66400000Y-107810300D01*
X65239900Y-105156000D02*
X65239900Y-106527600D01*
X54864000Y-103441500D02*
X55592980Y-103441500D01*
X55592980Y-103441500D02*
X56634380Y-102400100D01*
X56634380Y-102400100D02*
X62395100Y-102400100D01*
X62395100Y-102400100D02*
X63627000Y-103632000D01*
X76761430Y-146779070D02*
X76761430Y-147652650D01*
X76761430Y-147652650D02*
X76108560Y-148305520D01*
X63893700Y-116624100D02*
X63985140Y-116624100D01*
X63985140Y-116624100D02*
X65184020Y-118219220D01*
X76687860Y-146852640D02*
X76761430Y-146779070D01*
X76761430Y-146779070D02*
X78539500Y-145318500D01*
X66217800Y-146852640D02*
X76687860Y-146852640D01*
X65189100Y-144741900D02*
X66217800Y-146852640D01*
X65184020Y-118219220D02*
X65189100Y-144741900D01*
X63601600Y-101041200D02*
X64287400Y-101041200D01*
X63601600Y-101041200D02*
X63652400Y-101041200D01*
X63652400Y-101041200D02*
X65151000Y-102539800D01*
X64714304Y-115803496D02*
X63893700Y-116624100D01*
X64714304Y-115557300D02*
X64714304Y-115803496D01*
X67000000Y-113799002D02*
X64714304Y-115557300D01*
X67000000Y-107576002D02*
X67000000Y-113799002D01*
X65938400Y-105841800D02*
X67000000Y-107576002D01*
X65938400Y-104711500D02*
X65938400Y-105841800D01*
X65151000Y-103924100D02*
X65938400Y-104711500D01*
X65151000Y-102539800D02*
X65151000Y-103924100D01*
X63601600Y-101041200D02*
X64312800Y-101041200D01*
X54864000Y-100901500D02*
X54919880Y-100901500D01*
X54919880Y-100901500D02*
X56075580Y-99745800D01*
X56075580Y-99745800D02*
X62306200Y-99745800D01*
X62306200Y-99745800D02*
X63601600Y-101041200D01*
X63601600Y-101041200D02*
X64211200Y-101041200D01*
X71765000Y-54516000D02*
X71765000Y-53838000D01*
X71765000Y-53838000D02*
X74168000Y-51435000D01*
X63652400Y-98399600D02*
X63690500Y-98399600D01*
X63690500Y-98399600D02*
X65468500Y-96621600D01*
X54155600Y-73254400D02*
X55525000Y-71705000D01*
X54155600Y-82741300D02*
X54155600Y-73254400D01*
X55130700Y-83591400D02*
X54155600Y-82741300D01*
X66179700Y-83591400D02*
X55130700Y-83591400D01*
X66941700Y-84353400D02*
X66179700Y-83591400D01*
X66941700Y-92278200D02*
X66941700Y-84353400D01*
X65468500Y-93751400D02*
X66941700Y-92278200D01*
X65468500Y-96621600D02*
X65468500Y-93751400D01*
X63652400Y-98399600D02*
X63804800Y-98399600D01*
X54864000Y-98361500D02*
X55336440Y-98361500D01*
X55336440Y-98361500D02*
X56550560Y-97147380D01*
X56550560Y-97147380D02*
X62400180Y-97147380D01*
X62400180Y-97147380D02*
X63652400Y-98399600D01*
X63652400Y-98399600D02*
X63652400Y-98348800D01*
X86370000Y-54389000D02*
X86370000Y-53965000D01*
X86370000Y-53965000D02*
X89154000Y-51435000D01*
X63601600Y-95935800D02*
X63627000Y-95935800D01*
X63627000Y-95935800D02*
X64846200Y-94716600D01*
X53301900Y-84010500D02*
X53301900Y-79667100D01*
X53682900Y-84391500D02*
X53301900Y-84010500D01*
X65684400Y-84391500D02*
X53682900Y-84391500D01*
X66255900Y-84963000D02*
X65684400Y-84391500D01*
X66255900Y-92163900D02*
X66255900Y-84963000D01*
X64846200Y-93573600D02*
X66255900Y-92163900D01*
X64846200Y-94716600D02*
X64846200Y-93573600D01*
X53301900Y-79667100D02*
X52946300Y-79311500D01*
X63601600Y-95935800D02*
X63957200Y-95935800D01*
X54864000Y-95821500D02*
X55222140Y-95821500D01*
X55222140Y-95821500D02*
X56522620Y-94521020D01*
X56522620Y-94521020D02*
X62186820Y-94521020D01*
X62186820Y-94521020D02*
X63601600Y-95935800D01*
X101610000Y-54325500D02*
X101610000Y-53647500D01*
X101610000Y-53647500D02*
X104140000Y-51435000D01*
X55475000Y-62005000D02*
X55475000Y-59472700D01*
X87938702Y-57293602D02*
X89662000Y-57404000D01*
X57082598Y-57293602D02*
X87938702Y-57293602D01*
X55475000Y-59472700D02*
X57082598Y-57293602D01*
X52146200Y-84429600D02*
X52019200Y-84429600D01*
X54571900Y-63207900D02*
X55475000Y-62005000D01*
X53606700Y-63207900D02*
X54571900Y-63207900D01*
X51587400Y-65227200D02*
X53606700Y-63207900D01*
X51587400Y-83997800D02*
X51587400Y-65227200D01*
X52019200Y-84429600D02*
X51587400Y-83997800D01*
X63652400Y-93141800D02*
X64389000Y-93141800D01*
X64389000Y-93141800D02*
X65659000Y-91719400D01*
X52730400Y-85013800D02*
X52146200Y-84429600D01*
X65125600Y-85013800D02*
X52730400Y-85013800D01*
X65659000Y-85750400D02*
X65125600Y-85013800D01*
X65659000Y-91719400D02*
X65659000Y-85750400D01*
X54864000Y-93281500D02*
X55331360Y-93281500D01*
X55331360Y-93281500D02*
X56774080Y-91838780D01*
X56774080Y-91838780D02*
X62349380Y-91838780D01*
X62349380Y-91838780D02*
X63652400Y-93141800D01*
D30*
X70939500Y-145318500D02*
X70794900Y-145318500D01*
X79365000Y-54516000D02*
X78707000Y-54516000D01*
X93970000Y-54389000D02*
X93566000Y-54389000D01*
X124005500Y-54452500D02*
X123855500Y-54452500D01*
X102880000Y-145445500D02*
X102880000Y-144942400D01*
X117307200Y-145432800D02*
X117307200Y-144815400D01*
X62191900Y-143805900D02*
X63077100Y-143805900D01*
X60972700Y-120535700D02*
X60972700Y-125006100D01*
X60972700Y-125006100D02*
X60998100Y-125031500D01*
X59260000Y-63200000D02*
X59260000Y-62409600D01*
X60998100Y-138582400D02*
X60998100Y-142612100D01*
X60998100Y-142612100D02*
X62191900Y-143805900D01*
X59260000Y-76600000D02*
X59260000Y-81200000D01*
X59260000Y-72000000D02*
X59183800Y-76523800D01*
X59183800Y-76523800D02*
X59260000Y-76600000D01*
X59254920Y-71994920D02*
X59260000Y-72000000D01*
X59260000Y-67600000D02*
X59204120Y-63255880D01*
X59204120Y-63255880D02*
X59260000Y-63200000D01*
X59260000Y-63113640D02*
X59260000Y-63200000D01*
D29*
X59310800Y-71949200D02*
X59260000Y-72000000D01*
D30*
X61035560Y-111257080D02*
X61020960Y-111257080D01*
D29*
X59326040Y-67640640D02*
X59219360Y-67640640D01*
X56667400Y-130048000D02*
X57505600Y-130048000D01*
X61912500Y-136956800D02*
X63538100Y-138582400D01*
X61734700Y-136956800D02*
X61912500Y-136956800D01*
X59436000Y-134658100D02*
X61734700Y-136956800D01*
X59436000Y-131978400D02*
X59436000Y-134658100D01*
X57505600Y-130048000D02*
X59436000Y-131978400D01*
X53479700Y-129921000D02*
X53886100Y-129921000D01*
X53886100Y-129921000D02*
X55041800Y-128765300D01*
X55041800Y-128765300D02*
X57696100Y-128765300D01*
X57696100Y-128765300D02*
X60426600Y-131495800D01*
X60426600Y-131495800D02*
X61798200Y-131495800D01*
X61798200Y-131495800D02*
X63538100Y-133235700D01*
X63538100Y-133235700D02*
X63538100Y-133997700D01*
X53644800Y-127025400D02*
X53924200Y-127025400D01*
X53924200Y-127025400D02*
X55194200Y-128206500D01*
X55194200Y-128206500D02*
X59296300Y-128206500D01*
X59296300Y-128206500D02*
X60071000Y-127800100D01*
X60071000Y-127800100D02*
X61785500Y-127800100D01*
X61785500Y-127800100D02*
X63538100Y-129552700D01*
X56730900Y-126949200D02*
X61683900Y-126949200D01*
X61683900Y-126949200D02*
X63538100Y-125095000D01*
X63538100Y-125095000D02*
X63538100Y-125031500D01*
X56273700Y-116624100D02*
X60401200Y-116624100D01*
X60401200Y-116624100D02*
X63512700Y-119735600D01*
X63512700Y-119735600D02*
X63512700Y-120535700D01*
X52946300Y-71691500D02*
X53721000Y-71691500D01*
X53721000Y-71691500D02*
X54178200Y-71234300D01*
X63232598Y-75332682D02*
X61800000Y-76600000D01*
X63232598Y-70735098D02*
X63232598Y-75332682D01*
X62296040Y-69842380D02*
X63232598Y-70735098D01*
X58092340Y-69842380D02*
X62296040Y-69842380D01*
X56705500Y-68211700D02*
X58092340Y-69842380D01*
X54825900Y-68211700D02*
X56705500Y-68211700D01*
X54178200Y-68859400D02*
X54825900Y-68211700D01*
X54178200Y-71234300D02*
X54178200Y-68859400D01*
X55475000Y-69625000D02*
X56540400Y-69545200D01*
X60568840Y-70510400D02*
X61800000Y-72000000D01*
X57505600Y-70510400D02*
X60568840Y-70510400D01*
X56540400Y-69545200D02*
X57505600Y-70510400D01*
X61800000Y-72000000D02*
X62485800Y-72000000D01*
X130210400Y-54414400D02*
X130883500Y-53457000D01*
X130883500Y-53457000D02*
X132842000Y-51498500D01*
X51714400Y-59283600D02*
X51930300Y-59283600D01*
X51930300Y-59283600D02*
X54592220Y-55859680D01*
X125717300Y-55867300D02*
X130210400Y-54414400D01*
X54592220Y-55859680D02*
X125717300Y-55867300D01*
X54864000Y-88201500D02*
X54864000Y-88493600D01*
X54864000Y-88493600D02*
X53898800Y-89458800D01*
X53898800Y-89458800D02*
X50774600Y-89458800D01*
X50774600Y-89458800D02*
X50419000Y-89103200D01*
X50419000Y-89103200D02*
X50419000Y-60579000D01*
X50419000Y-60579000D02*
X51714400Y-59283600D01*
X54864000Y-88201500D02*
X54810660Y-88201500D01*
X54864000Y-88201500D02*
X55130700Y-88201500D01*
X55130700Y-88201500D02*
X56690260Y-86641940D01*
X62283340Y-86641940D02*
X63652400Y-88011000D01*
X56690260Y-86641940D02*
X62283340Y-86641940D01*
X116405500Y-54452500D02*
X116405500Y-53774500D01*
X116405500Y-53774500D02*
X118872000Y-51435000D01*
X52920900Y-61976000D02*
X52920900Y-59702700D01*
X55372000Y-56553100D02*
X103797100Y-56553100D01*
X52920900Y-59702700D02*
X55372000Y-56553100D01*
X52920900Y-61976000D02*
X52920900Y-61252100D01*
X52920900Y-61976000D02*
X52438300Y-63233300D01*
X64643000Y-90627200D02*
X65074800Y-90195400D01*
X65074800Y-90195400D02*
X65074800Y-86410800D01*
X65074800Y-86410800D02*
X64287400Y-85623400D01*
X64287400Y-85623400D02*
X52019200Y-85623400D01*
X52019200Y-85623400D02*
X50969002Y-84573202D01*
X50969002Y-84573202D02*
X50969002Y-64702598D01*
X50969002Y-64702598D02*
X52438300Y-63233300D01*
X64643000Y-90627200D02*
X63601600Y-90627200D01*
X63601600Y-90627200D02*
X63385700Y-90627200D01*
X63385700Y-90627200D02*
X62194440Y-89435940D01*
X56169560Y-89435940D02*
X54864000Y-90741500D01*
X62194440Y-89435940D02*
X56169560Y-89435940D01*
X61800000Y-67600000D02*
X62018440Y-67600000D01*
X59334400Y-59283600D02*
X60528200Y-59283600D01*
X62194440Y-60949840D02*
X61800000Y-63200000D01*
X60528200Y-59283600D02*
X62194440Y-60949840D01*
X61916840Y-63200000D02*
X61800000Y-63200000D01*
D28*
X130210400Y-137965200D02*
X130477280Y-137965200D01*
X130477280Y-137965200D02*
X132913120Y-140401040D01*
X132913120Y-140401040D02*
X139364720Y-140401040D01*
X139364720Y-140401040D02*
X145338800Y-134426960D01*
X145338800Y-134426960D02*
X145338800Y-132334000D01*
X142610800Y-130048000D02*
X143052800Y-130048000D01*
X143052800Y-130048000D02*
X145338800Y-132334000D01*
X145338800Y-132334000D02*
X144896800Y-132334000D01*
X109210000Y-72105500D02*
X109210000Y-72507000D01*
X109210000Y-72507000D02*
X110236000Y-73533000D01*
X110236000Y-73533000D02*
X110236000Y-81216500D01*
X104648000Y-94361000D02*
X104648000Y-87503000D01*
X102108000Y-84963000D02*
X102108000Y-72603500D01*
X104648000Y-87503000D02*
X102108000Y-84963000D01*
X102108000Y-72603500D02*
X101610000Y-72105500D01*
X110480000Y-127665500D02*
X113507500Y-127665500D01*
X116586000Y-124587000D02*
X116586000Y-107061000D01*
X113507500Y-127665500D02*
X116586000Y-124587000D01*
X110480000Y-127665500D02*
X110713500Y-127665500D01*
X108635800Y-119253000D02*
X108839000Y-125222000D01*
X106395500Y-127665500D02*
X102880000Y-127665500D01*
X108839000Y-125222000D02*
X106395500Y-127665500D01*
X108508800Y-119380000D02*
X108635800Y-119253000D01*
X108483400Y-119405400D02*
X108635800Y-119253000D01*
X127127000Y-81407000D02*
X127127000Y-75946000D01*
X124714000Y-72941000D02*
X124005500Y-72232500D01*
X124714000Y-73533000D02*
X124714000Y-72941000D01*
X127127000Y-75946000D02*
X124714000Y-73533000D01*
X91973400Y-119075200D02*
X92075000Y-126111000D01*
X91186000Y-127000000D02*
X87734000Y-127000000D01*
X92075000Y-126111000D02*
X91186000Y-127000000D01*
X87734000Y-127000000D02*
X87322500Y-127411500D01*
X91897200Y-119151400D02*
X91973400Y-119075200D01*
X92125800Y-119227600D02*
X91973400Y-119075200D01*
X70939500Y-127538500D02*
X73908900Y-127538500D01*
X75298300Y-126149100D02*
X75285600Y-119151400D01*
X73908900Y-127538500D02*
X75298300Y-126149100D01*
X75285600Y-119151400D02*
X75107800Y-118973600D01*
X75044300Y-119037100D02*
X75107800Y-118973600D01*
X74917300Y-119164100D02*
X75107800Y-118973600D01*
X137810400Y-72194400D02*
X138234400Y-72194400D01*
X138234400Y-72194400D02*
X143499840Y-78176120D01*
X130210400Y-72194400D02*
X137810400Y-72194400D01*
X142295840Y-108966000D02*
X142737840Y-108966000D01*
X142737840Y-108966000D02*
X145023840Y-111252000D01*
X137810400Y-137965200D02*
X137810400Y-137693240D01*
X137810400Y-137693240D02*
X140284200Y-135219440D01*
X140284200Y-135219440D02*
X140284200Y-123662440D01*
X140284200Y-123662440D02*
X145023840Y-118922800D01*
X145023840Y-118922800D02*
X145023840Y-111252000D01*
X71765000Y-72296000D02*
X71765000Y-85608000D01*
X75184000Y-89027000D02*
X75184000Y-94424500D01*
X71765000Y-85608000D02*
X75184000Y-89027000D01*
X90078560Y-94381320D02*
X90078560Y-89189560D01*
X87122000Y-72921000D02*
X86370000Y-72169000D01*
X87122000Y-86233000D02*
X87122000Y-72921000D01*
X90078560Y-89189560D02*
X87122000Y-86233000D01*
X116405500Y-72232500D02*
X116405500Y-73860500D01*
X120523000Y-77978000D02*
X120523000Y-94297500D01*
X116405500Y-73860500D02*
X120523000Y-77978000D01*
X94922500Y-127411500D02*
X96108500Y-127411500D01*
X99949000Y-123571000D02*
X100025200Y-106845100D01*
X96108500Y-127411500D02*
X99949000Y-123571000D01*
X78539500Y-127538500D02*
X80665300Y-127538500D01*
X83388200Y-124815600D02*
X83540600Y-106895900D01*
X80665300Y-127538500D02*
X83388200Y-124815600D01*
X124907200Y-132732800D02*
X117307200Y-132732800D01*
X124907200Y-132732800D02*
X125470900Y-132732800D01*
X110480000Y-132745500D02*
X102880000Y-132745500D01*
X110480000Y-132745500D02*
X110480000Y-132979000D01*
X110480000Y-132705000D02*
X110480000Y-132745500D01*
X110480000Y-132745500D02*
X110904000Y-132745500D01*
X87322500Y-132491500D02*
X94922500Y-132491500D01*
X94922500Y-132491500D02*
X94922500Y-132491500D01*
X78539500Y-132618500D02*
X70939500Y-132618500D01*
X78539500Y-132618500D02*
X79154000Y-132618500D01*
X79365000Y-67216000D02*
X71765000Y-67216000D01*
X71765000Y-67216000D02*
X71849000Y-67216000D01*
X71765000Y-67216000D02*
X71595000Y-67216000D01*
X86370000Y-67089000D02*
X93970000Y-67089000D01*
X101610000Y-67025500D02*
X109210000Y-67025500D01*
X116405500Y-67152500D02*
X124005500Y-67152500D01*
X116405500Y-67152500D02*
X116405500Y-67256500D01*
X94488000Y-80772000D02*
X94488000Y-72687000D01*
X94488000Y-72687000D02*
X93970000Y-72169000D01*
X127762000Y-66865500D02*
X129986900Y-66890900D01*
X129986900Y-66890900D02*
X130210400Y-67114400D01*
X137810400Y-67114400D02*
X130210400Y-67114400D01*
X136906000Y-78232000D02*
X136906000Y-77343000D01*
X136906000Y-77343000D02*
X135128000Y-74803000D01*
X127762000Y-73025000D02*
X127762000Y-66865500D01*
X127762000Y-66865500D02*
X127762000Y-64643000D01*
X128778000Y-74803000D02*
X127762000Y-73025000D01*
X135128000Y-74803000D02*
X128778000Y-74803000D01*
X124005500Y-62072500D02*
X124429500Y-62072500D01*
X124429500Y-62072500D02*
X127762000Y-64643000D01*
X136906000Y-78232000D02*
X136906000Y-77851000D01*
X137810400Y-67114400D02*
X137939800Y-67114400D01*
X124907200Y-137812800D02*
X125775700Y-137812800D01*
X125775700Y-137812800D02*
X127571500Y-135890000D01*
X127571500Y-130406000D02*
X130210400Y-127805200D01*
X127571500Y-135890000D02*
X127571500Y-130406000D01*
X110480000Y-137825500D02*
X117307200Y-137812800D01*
X117307200Y-137812800D02*
X117307200Y-137645300D01*
X110480000Y-137825500D02*
X110967500Y-137825500D01*
X102880000Y-137825500D02*
X95176500Y-137825500D01*
X95176500Y-137825500D02*
X94922500Y-137571500D01*
X78539500Y-137698500D02*
X87195500Y-137698500D01*
X87195500Y-137698500D02*
X87322500Y-137571500D01*
X78539500Y-137698500D02*
X79090500Y-137698500D01*
X78539500Y-137698500D02*
X78539500Y-137487500D01*
X70939500Y-137698500D02*
X68801000Y-137698500D01*
X68630800Y-64566800D02*
X71061600Y-62136000D01*
X68630800Y-137528300D02*
X68630800Y-64566800D01*
X68801000Y-137698500D02*
X68630800Y-137528300D01*
X71061600Y-62136000D02*
X71765000Y-62136000D01*
X71765000Y-62136000D02*
X71341000Y-62136000D01*
X79365000Y-62136000D02*
X86243000Y-62136000D01*
X86243000Y-62136000D02*
X86370000Y-62009000D01*
X93970000Y-62009000D02*
X101546500Y-62009000D01*
X101546500Y-62009000D02*
X101610000Y-61945500D01*
X109210000Y-61945500D02*
X116278500Y-61945500D01*
X116278500Y-61945500D02*
X116405500Y-62072500D01*
X116405500Y-62072500D02*
X116362500Y-62072500D01*
X116405500Y-62072500D02*
X116405500Y-62176500D01*
X117307200Y-127652800D02*
X121699000Y-127665500D01*
X123952000Y-125412500D02*
X124104400Y-119037100D01*
X121699000Y-127665500D02*
X123952000Y-125412500D01*
X123952000Y-119189500D02*
X124104400Y-119037100D01*
X137810400Y-127805200D02*
X137810400Y-122366880D01*
X146979640Y-70289240D02*
X137810400Y-62034400D01*
X146979640Y-88813640D02*
X146979640Y-70289240D01*
X138846560Y-95361760D02*
X146979640Y-88813640D01*
X138846560Y-120660160D02*
X138846560Y-95361760D01*
X137810400Y-122366880D02*
X138846560Y-120660160D01*
X130210400Y-62034400D02*
X137810400Y-62034400D01*
X137810400Y-132885200D02*
X137810400Y-132816440D01*
X137810400Y-132885200D02*
X130210400Y-132885200D01*
X137810400Y-132885200D02*
X138351240Y-132885200D01*
X137810400Y-132885200D02*
X138297900Y-132885200D01*
M02*
