M48
;DRILL file {KiCad 4.0.7} date 03/18/19 18:34:34
;FORMAT={-:-/ absolute / metric / decimal}
FMAT,2
METRIC,TZ
T1C0.400
T2C0.800
T3C0.900
T4C1.000
T5C1.100
T6C1.200
T7C1.270
T8C1.500
T9C1.520
T10C1.524
T11C3.048
%
G90
G05
M71
T1
X66.914Y-140.106
X72.466Y-140.779
X89.662Y-57.404
X98.87Y-141.541
X103.797Y-56.553
X109.918Y-142.227
T2
X51.714Y-59.284
X52.921Y-61.976
X52.921Y-69.596
X52.946Y-71.691
X52.946Y-79.311
X53.48Y-129.921
X53.48Y-137.541
X53.645Y-119.405
X53.645Y-127.025
X55.475Y-62.005
X55.475Y-69.625
X55.525Y-71.705
X55.525Y-79.325
X56.274Y-116.624
X56.667Y-130.048
X56.667Y-137.668
X56.731Y-119.329
X56.731Y-126.949
X59.334Y-59.284
X61.036Y-111.257
X61.091Y-108.687
X61.102Y-90.627
X61.102Y-95.936
X61.102Y-101.041
X61.127Y-103.632
X61.127Y-106.147
X61.152Y-88.011
X61.152Y-93.142
X61.152Y-98.4
X63.536Y-111.257
X63.591Y-108.687
X63.602Y-90.627
X63.602Y-95.936
X63.602Y-101.041
X63.627Y-103.632
X63.627Y-106.147
X63.652Y-88.011
X63.652Y-93.142
X63.652Y-98.4
X63.894Y-116.624
X73.609Y-148.306
X74.168Y-51.435
X76.109Y-148.306
X76.668Y-51.435
X89.154Y-51.435
X89.423Y-148.196
X91.654Y-51.435
X91.923Y-148.196
X104.14Y-51.435
X105.45Y-148.463
X106.64Y-51.435
X107.95Y-148.463
X118.872Y-51.435
X120.182Y-148.463
X121.372Y-51.435
X122.682Y-148.463
X132.842Y-51.498
X133.39Y-148.463
X135.342Y-51.498
X135.89Y-148.463
T3
X59.26Y-63.2
X59.26Y-67.6
X59.26Y-72.
X59.26Y-76.6
X59.26Y-81.2
X60.973Y-120.536
X60.998Y-125.031
X60.998Y-129.553
X60.998Y-133.998
X60.998Y-138.582
X61.8Y-63.2
X61.8Y-67.6
X61.8Y-72.
X61.8Y-76.6
X61.8Y-81.2
X63.513Y-120.536
X63.538Y-125.031
X63.538Y-129.553
X63.538Y-133.998
X63.538Y-138.582
X142.296Y-106.426
X142.296Y-108.966
X142.611Y-127.508
X142.611Y-130.048
T4
X52.324Y-88.201
X52.324Y-90.742
X52.324Y-93.281
X52.324Y-95.822
X52.324Y-98.361
X52.324Y-100.901
X52.324Y-103.441
X52.324Y-105.981
X52.324Y-108.521
X52.324Y-111.061
X54.864Y-88.201
X54.864Y-90.742
X54.864Y-93.281
X54.864Y-95.822
X54.864Y-98.361
X54.864Y-100.901
X54.864Y-103.441
X54.864Y-105.981
X54.864Y-108.521
X54.864Y-111.061
X141.732Y-51.943
X141.859Y-56.134
X143.192Y-142.367
X144.145Y-56.832
X146.621Y-142.303
X147.383Y-139.001
T5
X70.939Y-127.538
X70.939Y-132.618
X70.939Y-137.698
X70.939Y-145.319
X71.765Y-54.516
X71.765Y-62.136
X71.765Y-67.216
X71.765Y-72.296
X78.539Y-127.538
X78.539Y-132.618
X78.539Y-137.698
X78.539Y-145.319
X79.365Y-54.516
X79.365Y-62.136
X79.365Y-67.216
X79.365Y-72.296
X86.37Y-54.389
X86.37Y-62.009
X86.37Y-67.089
X86.37Y-72.169
X87.322Y-127.411
X87.322Y-132.492
X87.322Y-137.571
X87.322Y-145.191
X93.97Y-54.389
X93.97Y-62.009
X93.97Y-67.089
X93.97Y-72.169
X94.922Y-127.411
X94.922Y-132.492
X94.922Y-137.571
X94.922Y-145.191
X101.61Y-54.325
X101.61Y-61.945
X101.61Y-67.025
X101.61Y-72.105
X102.88Y-127.665
X102.88Y-132.745
X102.88Y-137.826
X102.88Y-145.445
X109.21Y-54.325
X109.21Y-61.945
X109.21Y-67.025
X109.21Y-72.105
X110.48Y-127.665
X110.48Y-132.745
X110.48Y-137.826
X110.48Y-145.445
X116.405Y-54.453
X116.405Y-62.072
X116.405Y-67.153
X116.405Y-72.233
X117.307Y-127.653
X117.307Y-132.733
X117.307Y-137.813
X117.307Y-145.433
X124.005Y-54.453
X124.005Y-62.072
X124.005Y-67.153
X124.005Y-72.233
X124.907Y-127.653
X124.907Y-132.733
X124.907Y-137.813
X124.907Y-145.433
X130.21Y-54.414
X130.21Y-62.034
X130.21Y-67.114
X130.21Y-72.194
X130.21Y-127.805
X130.21Y-132.885
X130.21Y-137.965
X130.21Y-145.585
X137.81Y-54.414
X137.81Y-62.034
X137.81Y-67.114
X137.81Y-72.194
X137.81Y-127.805
X137.81Y-132.885
X137.81Y-137.965
X137.81Y-145.585
T6
X51.121Y-141.402
X56.121Y-141.402
X58.791Y-143.859
X58.791Y-148.859
X62.192Y-143.806
X62.192Y-148.806
T7
X75.108Y-118.974
X75.184Y-94.424
X79.883Y-80.772
X83.541Y-106.896
X90.079Y-94.381
X91.973Y-119.075
X94.488Y-80.772
X100.025Y-106.845
X104.648Y-94.361
X108.636Y-119.253
X110.236Y-81.216
X116.586Y-107.061
X120.523Y-94.297
X124.104Y-119.037
X127.127Y-81.407
X131.826Y-106.807
T8
X135.9Y-85.329
X136.068Y-78.232
X142.382Y-78.12
X142.662Y-85.441
T9
X145.024Y-106.172
X145.024Y-111.252
X145.339Y-127.254
X145.339Y-132.334
T10
X71.933Y-115.799
X71.933Y-122.149
X72.009Y-91.249
X72.009Y-97.599
X76.708Y-77.597
X76.708Y-83.947
X78.283Y-115.799
X78.283Y-122.149
X78.359Y-91.249
X78.359Y-97.599
X80.366Y-103.721
X80.366Y-110.071
X83.058Y-77.597
X83.058Y-83.947
X86.716Y-103.721
X86.716Y-110.071
X86.904Y-91.206
X86.904Y-97.556
X88.798Y-115.9
X88.798Y-122.25
X91.313Y-77.597
X91.313Y-83.947
X93.254Y-91.206
X93.254Y-97.556
X95.148Y-115.9
X95.148Y-122.25
X96.85Y-103.67
X96.85Y-110.02
X97.663Y-77.597
X97.663Y-83.947
X101.473Y-91.186
X101.473Y-97.536
X103.2Y-103.67
X103.2Y-110.02
X105.461Y-116.078
X105.461Y-122.428
X107.061Y-78.041
X107.061Y-84.391
X107.823Y-91.186
X107.823Y-97.536
X111.811Y-116.078
X111.811Y-122.428
X113.411Y-78.041
X113.411Y-84.391
X113.411Y-103.886
X113.411Y-110.236
X117.348Y-91.123
X117.348Y-97.472
X119.761Y-103.886
X119.761Y-110.236
X120.929Y-115.862
X120.929Y-122.212
X123.698Y-91.123
X123.698Y-97.472
X123.952Y-78.232
X123.952Y-84.582
X127.279Y-115.862
X127.279Y-122.212
X128.651Y-103.632
X128.651Y-109.982
X130.302Y-78.232
X130.302Y-84.582
X135.001Y-103.632
X135.001Y-109.982
T11
X53.Y-53.
X53.Y-147.
X147.Y-53.
X147.Y-147.
T0
M30
