G04 #@! TF.FileFunction,Copper,L2,Bot,Signal*
%FSLAX46Y46*%
G04 Gerber Fmt 4.6, Leading zero omitted, Abs format (unit mm)*
G04 Created by KiCad (PCBNEW 4.0.7) date 02/24/19 07:32:50*
%MOMM*%
%LPD*%
G01*
G04 APERTURE LIST*
%ADD10C,0.100000*%
%ADD11C,1.800000*%
%ADD12C,1.600000*%
%ADD13O,1.600000X1.600000*%
%ADD14R,1.800000X1.800000*%
%ADD15R,3.000000X3.000000*%
%ADD16C,3.000000*%
%ADD17C,5.500000*%
%ADD18R,1.700000X1.700000*%
%ADD19O,1.700000X1.700000*%
%ADD20C,2.000000*%
%ADD21O,1.500000X1.500000*%
%ADD22C,5.000000*%
%ADD23C,3.810000*%
%ADD24C,3.556000*%
%ADD25C,4.064000*%
%ADD26C,0.600000*%
%ADD27C,1.500000*%
%ADD28C,0.350000*%
%ADD29C,0.500000*%
G04 APERTURE END LIST*
D10*
D11*
X87322500Y-137571500D03*
X87322500Y-127411500D03*
X87322500Y-132491500D03*
X94922500Y-132491500D03*
X94922500Y-137571500D03*
X94922500Y-127411500D03*
X87322500Y-145191500D03*
X94922500Y-145191500D03*
X131074000Y-137889000D03*
X131074000Y-127729000D03*
X131074000Y-132809000D03*
X138674000Y-132809000D03*
X138674000Y-137889000D03*
X138674000Y-127729000D03*
X131074000Y-145509000D03*
X138674000Y-145509000D03*
X70939500Y-137698500D03*
X70939500Y-127538500D03*
X70939500Y-132618500D03*
X78539500Y-132618500D03*
X78539500Y-137698500D03*
X78539500Y-127538500D03*
X70939500Y-145318500D03*
X78539500Y-145318500D03*
D12*
X53479700Y-129921000D03*
D13*
X53479700Y-137541000D03*
D12*
X74168000Y-51435000D03*
X76668000Y-51435000D03*
X63535560Y-111257080D03*
X61035560Y-111257080D03*
D14*
X63538100Y-129552700D03*
D11*
X60998100Y-129552700D03*
D12*
X52946300Y-71691500D03*
D13*
X52946300Y-79311500D03*
D14*
X63538100Y-138582400D03*
D11*
X60998100Y-138582400D03*
D14*
X63538100Y-133997700D03*
D11*
X60998100Y-133997700D03*
D15*
X146291300Y-133502400D03*
D16*
X146291300Y-128422400D03*
D12*
X135890000Y-148463000D03*
X133390000Y-148463000D03*
X122682000Y-148463000D03*
X120182000Y-148463000D03*
X107950000Y-148463000D03*
X105450000Y-148463000D03*
X91922600Y-148196300D03*
X89422600Y-148196300D03*
X76108560Y-148305520D03*
X73608560Y-148305520D03*
X89154000Y-51435000D03*
X91654000Y-51435000D03*
X104140000Y-51435000D03*
X106640000Y-51435000D03*
X118872000Y-51435000D03*
X121372000Y-51435000D03*
X59334400Y-59283600D03*
D13*
X51714400Y-59283600D03*
D15*
X144653000Y-64262000D03*
D16*
X144653000Y-69342000D03*
D17*
X147000000Y-53000000D03*
X53000000Y-147000000D03*
D12*
X52920900Y-69596000D03*
D13*
X52920900Y-61976000D03*
D14*
X63538100Y-125031500D03*
D11*
X60998100Y-125031500D03*
D14*
X63512700Y-120535700D03*
D11*
X60972700Y-120535700D03*
D14*
X61800000Y-81200000D03*
D11*
X59260000Y-81200000D03*
D14*
X61800000Y-76600000D03*
D11*
X59260000Y-76600000D03*
D14*
X61800000Y-72000000D03*
D11*
X59260000Y-72000000D03*
D12*
X56667400Y-130048000D03*
D13*
X56667400Y-137668000D03*
D12*
X53644800Y-127025400D03*
D13*
X53644800Y-119405400D03*
D12*
X56730900Y-126949200D03*
D13*
X56730900Y-119329200D03*
D12*
X56273700Y-116624100D03*
D13*
X63893700Y-116624100D03*
D12*
X55525000Y-79325000D03*
D13*
X55525000Y-71705000D03*
D12*
X55475000Y-69625000D03*
D13*
X55475000Y-62005000D03*
D14*
X61800000Y-67600000D03*
D11*
X59260000Y-67600000D03*
D14*
X61800000Y-63200000D03*
D11*
X59260000Y-63200000D03*
D18*
X54864000Y-111061500D03*
D19*
X52324000Y-111061500D03*
X54864000Y-108521500D03*
X52324000Y-108521500D03*
X54864000Y-105981500D03*
X52324000Y-105981500D03*
X54864000Y-103441500D03*
X52324000Y-103441500D03*
X54864000Y-100901500D03*
X52324000Y-100901500D03*
X54864000Y-98361500D03*
X52324000Y-98361500D03*
X54864000Y-95821500D03*
X52324000Y-95821500D03*
X54864000Y-93281500D03*
X52324000Y-93281500D03*
X54864000Y-90741500D03*
X52324000Y-90741500D03*
X54864000Y-88201500D03*
X52324000Y-88201500D03*
D12*
X63652400Y-88011000D03*
X61152400Y-88011000D03*
X63601600Y-90627200D03*
X61101600Y-90627200D03*
X63652400Y-93141800D03*
X61152400Y-93141800D03*
X63601600Y-95935800D03*
X61101600Y-95935800D03*
X63652400Y-98399600D03*
X61152400Y-98399600D03*
X63601600Y-101041200D03*
X61101600Y-101041200D03*
X63627000Y-103632000D03*
X61127000Y-103632000D03*
X63627000Y-106146600D03*
X61127000Y-106146600D03*
X63591440Y-108686600D03*
X61091440Y-108686600D03*
D20*
X58790840Y-148859240D03*
X58790840Y-143859240D03*
X62191900Y-148805900D03*
X62191900Y-143805900D03*
X56121300Y-141401800D03*
X51121300Y-141401800D03*
D17*
X147000000Y-147000000D03*
D21*
X146812000Y-57277000D03*
X142748000Y-57340500D03*
X143192500Y-142367000D03*
X146621500Y-142303500D03*
D11*
X117993000Y-137825500D03*
X117993000Y-127665500D03*
X117993000Y-132745500D03*
X125593000Y-132745500D03*
X125593000Y-137825500D03*
X125593000Y-127665500D03*
X117993000Y-145445500D03*
X125593000Y-145445500D03*
X102880000Y-137825500D03*
X102880000Y-127665500D03*
X102880000Y-132745500D03*
X110480000Y-132745500D03*
X110480000Y-137825500D03*
X110480000Y-127665500D03*
X102880000Y-145445500D03*
X110480000Y-145445500D03*
X79365000Y-62136000D03*
X79365000Y-72296000D03*
X79365000Y-67216000D03*
X71765000Y-67216000D03*
X71765000Y-62136000D03*
X71765000Y-72296000D03*
X79365000Y-54516000D03*
X71765000Y-54516000D03*
X93970000Y-62009000D03*
X93970000Y-72169000D03*
X93970000Y-67089000D03*
X86370000Y-67089000D03*
X86370000Y-62009000D03*
X86370000Y-72169000D03*
X93970000Y-54389000D03*
X86370000Y-54389000D03*
X109210000Y-61945500D03*
X109210000Y-72105500D03*
X109210000Y-67025500D03*
X101610000Y-67025500D03*
X101610000Y-61945500D03*
X101610000Y-72105500D03*
X109210000Y-54325500D03*
X101610000Y-54325500D03*
X124005500Y-62072500D03*
X124005500Y-72232500D03*
X124005500Y-67152500D03*
X116405500Y-67152500D03*
X116405500Y-62072500D03*
X116405500Y-72232500D03*
X124005500Y-54452500D03*
X116405500Y-54452500D03*
X138293000Y-62009000D03*
X138293000Y-72169000D03*
X138293000Y-67089000D03*
X130693000Y-67089000D03*
X130693000Y-62009000D03*
X130693000Y-72169000D03*
X138293000Y-54389000D03*
X130693000Y-54389000D03*
D22*
X53000000Y-53000000D03*
D23*
X76708000Y-77597000D03*
D24*
X79883000Y-80772000D03*
D23*
X83058000Y-77597000D03*
X76708000Y-83947000D03*
X83058000Y-83947000D03*
X72009000Y-91249500D03*
D24*
X75184000Y-94424500D03*
D23*
X78359000Y-91249500D03*
X72009000Y-97599500D03*
X78359000Y-97599500D03*
X91313000Y-77597000D03*
D24*
X94488000Y-80772000D03*
D23*
X97663000Y-77597000D03*
X91313000Y-83947000D03*
X97663000Y-83947000D03*
X118237000Y-115697000D03*
D24*
X121412000Y-118872000D03*
D23*
X124587000Y-115697000D03*
X118237000Y-122047000D03*
X124587000Y-122047000D03*
X86903560Y-91206320D03*
D24*
X90078560Y-94381320D03*
D23*
X93253560Y-91206320D03*
X86903560Y-97556320D03*
X93253560Y-97556320D03*
X126174500Y-103682800D03*
D24*
X129349500Y-106857800D03*
D23*
X132524500Y-103682800D03*
X126174500Y-110032800D03*
X132524500Y-110032800D03*
X107061000Y-78041500D03*
D24*
X110236000Y-81216500D03*
D23*
X113411000Y-78041500D03*
X107061000Y-84391500D03*
X113411000Y-84391500D03*
X102870000Y-115951000D03*
D24*
X106045000Y-119126000D03*
D23*
X109220000Y-115951000D03*
X102870000Y-122301000D03*
X109220000Y-122301000D03*
X101473000Y-91186000D03*
D24*
X104648000Y-94361000D03*
D23*
X107823000Y-91186000D03*
X101473000Y-97536000D03*
X107823000Y-97536000D03*
X109791500Y-103568500D03*
D24*
X112966500Y-106743500D03*
D23*
X116141500Y-103568500D03*
X109791500Y-109918500D03*
X116141500Y-109918500D03*
X123952000Y-78232000D03*
D24*
X127127000Y-81407000D03*
D23*
X130302000Y-78232000D03*
X123952000Y-84582000D03*
X130302000Y-84582000D03*
X87058500Y-115697000D03*
D24*
X90233500Y-118872000D03*
D23*
X93408500Y-115697000D03*
X87058500Y-122047000D03*
X93408500Y-122047000D03*
X117348000Y-91122500D03*
D24*
X120523000Y-94297500D03*
D23*
X123698000Y-91122500D03*
X117348000Y-97472500D03*
X123698000Y-97472500D03*
X94386400Y-103670100D03*
D24*
X97561400Y-106845100D03*
D23*
X100736400Y-103670100D03*
X94386400Y-110020100D03*
X100736400Y-110020100D03*
X70167500Y-115570000D03*
D24*
X73342500Y-118745000D03*
D23*
X76517500Y-115570000D03*
X70167500Y-121920000D03*
X76517500Y-121920000D03*
X78740000Y-103568500D03*
D24*
X81915000Y-106743500D03*
D23*
X85090000Y-103568500D03*
X78740000Y-109918500D03*
X85090000Y-109918500D03*
D12*
X132842000Y-51498500D03*
X135342000Y-51498500D03*
D25*
X137668000Y-78232000D03*
X144780000Y-78232000D03*
X137795000Y-85344000D03*
D21*
X147383500Y-139001500D03*
X147637500Y-60452000D03*
D26*
X109918500Y-142227300D03*
X98869500Y-141541500D03*
X72466200Y-140779500D03*
X66913760Y-140106400D03*
X89662000Y-57404000D03*
X103797100Y-56553100D03*
D27*
X79883000Y-80772000D02*
X79438500Y-72369500D01*
X79438500Y-72369500D02*
X79365000Y-72296000D01*
X71765000Y-72296000D02*
X77249000Y-72423000D01*
X77249000Y-72423000D02*
X79365000Y-72296000D01*
X68580000Y-74041000D02*
X68834000Y-74041000D01*
X71120000Y-76327000D02*
X71247000Y-86169500D01*
X68834000Y-74041000D02*
X71120000Y-76327000D01*
X79365000Y-67216000D02*
X79365000Y-67193000D01*
X79365000Y-67193000D02*
X84295000Y-62263000D01*
X84295000Y-62263000D02*
X86370000Y-62009000D01*
X71765000Y-67216000D02*
X71595000Y-67216000D01*
X71595000Y-67216000D02*
X68580000Y-70231000D01*
X75247500Y-88709500D02*
X75184000Y-94424500D01*
X71247000Y-86169500D02*
X75247500Y-88709500D01*
X68580000Y-70231000D02*
X68580000Y-74041000D01*
X86370000Y-62009000D02*
X93970000Y-62009000D01*
X71765000Y-67216000D02*
X79365000Y-67216000D01*
X94488000Y-80772000D02*
X94488000Y-72687000D01*
X94488000Y-72687000D02*
X93970000Y-72169000D01*
X93726000Y-72413000D02*
X93970000Y-72169000D01*
X86370000Y-72169000D02*
X93970000Y-72169000D01*
X121285000Y-127221000D02*
X121259600Y-119024400D01*
X121259600Y-119024400D02*
X121412000Y-118872000D01*
X125593000Y-127665500D02*
X121285000Y-127221000D01*
X121285000Y-127221000D02*
X121158000Y-127221000D01*
X121158000Y-127221000D02*
X117993000Y-127665500D01*
X101610000Y-61945500D02*
X109210000Y-61945500D01*
X93970000Y-67089000D02*
X93970000Y-66812000D01*
X93970000Y-66812000D02*
X98773000Y-62263000D01*
X98773000Y-62263000D02*
X101610000Y-61945500D01*
X86370000Y-67089000D02*
X85311000Y-67343000D01*
X89966800Y-88849200D02*
X90078560Y-94381320D01*
X87058500Y-85725000D02*
X89966800Y-88849200D01*
X87058500Y-77089000D02*
X87058500Y-85725000D01*
X83121500Y-71882000D02*
X87058500Y-77089000D01*
X83185000Y-69469000D02*
X83121500Y-71882000D01*
X85311000Y-67343000D02*
X83185000Y-69469000D01*
X86370000Y-67089000D02*
X93970000Y-67089000D01*
X125593000Y-132745500D02*
X126156700Y-132745500D01*
X126156700Y-132745500D02*
X128389810Y-127612451D01*
X128778000Y-122428000D02*
X129349500Y-106857800D01*
X128651000Y-124587000D02*
X128778000Y-122428000D01*
X128389810Y-127612451D02*
X128651000Y-124587000D01*
X110480000Y-137825500D02*
X102880000Y-137825500D01*
X110480000Y-137825500D02*
X110480000Y-137741500D01*
X110480000Y-137741500D02*
X115476000Y-132301000D01*
X115476000Y-132301000D02*
X117993000Y-132745500D01*
X125593000Y-132745500D02*
X117993000Y-132745500D01*
D28*
X115481152Y-142237678D02*
X115796278Y-142237678D01*
X116776500Y-143217900D02*
X133056967Y-143217900D01*
X115796278Y-142237678D02*
X116776500Y-143217900D01*
X138674000Y-145509000D02*
X138143000Y-145509000D01*
X138143000Y-145509000D02*
X133056967Y-143217900D01*
X115481152Y-142237678D02*
X109918500Y-142227300D01*
X63535560Y-111257080D02*
X63535560Y-112638840D01*
X54724300Y-139255500D02*
X56667400Y-137668000D01*
X53098700Y-139255500D02*
X54724300Y-139255500D01*
X50969002Y-137024202D02*
X53098700Y-139255500D01*
X50969002Y-114308798D02*
X50969002Y-137024202D01*
X52120800Y-113157000D02*
X50969002Y-114308798D01*
X63017400Y-113157000D02*
X52120800Y-113157000D01*
X63535560Y-112638840D02*
X63017400Y-113157000D01*
X54864000Y-111061500D02*
X55377080Y-111061500D01*
X55377080Y-111061500D02*
X56494680Y-109943900D01*
X56494680Y-109943900D02*
X62222380Y-109943900D01*
X62222380Y-109943900D02*
X63535560Y-111257080D01*
X122682000Y-148463000D02*
X122682000Y-146933920D01*
X122682000Y-146933920D02*
X122516900Y-146768820D01*
X122796300Y-148348700D02*
X122682000Y-148463000D01*
X98869500Y-141541500D02*
X110756700Y-143164560D01*
X110756700Y-143164560D02*
X115559840Y-146768820D01*
X115559840Y-146768820D02*
X122516900Y-146768820D01*
X123444180Y-146768820D02*
X125593000Y-145445500D01*
X122516900Y-146768820D02*
X123444180Y-146768820D01*
X53479700Y-137541000D02*
X53492400Y-137541000D01*
X63591440Y-108686600D02*
X64795400Y-108686600D01*
X51663600Y-134975600D02*
X53479700Y-137541000D01*
X51663600Y-114681000D02*
X51663600Y-134975600D01*
X52501800Y-113842800D02*
X51663600Y-114681000D01*
X63741300Y-113842800D02*
X52501800Y-113842800D01*
X65036700Y-112547400D02*
X63741300Y-113842800D01*
X65036700Y-108927900D02*
X65036700Y-112547400D01*
X64795400Y-108686600D02*
X65036700Y-108927900D01*
X54864000Y-108521500D02*
X55262780Y-108521500D01*
X55262780Y-108521500D02*
X56410860Y-107373420D01*
X56410860Y-107373420D02*
X62278260Y-107373420D01*
X62278260Y-107373420D02*
X63591440Y-108686600D01*
X63591440Y-108686600D02*
X63982600Y-108686600D01*
X72466200Y-140779500D02*
X77083860Y-142008393D01*
X98145600Y-142875000D02*
X102108000Y-146837400D01*
X82296275Y-142989298D02*
X98145600Y-142875000D01*
X77083860Y-142008393D02*
X82296275Y-142989298D01*
X110480000Y-145445500D02*
X110226000Y-146187000D01*
X110226000Y-146187000D02*
X107950000Y-148463000D01*
X106324400Y-146837400D02*
X107950000Y-148463000D01*
X102108000Y-146837400D02*
X106324400Y-146837400D01*
X63627000Y-106146600D02*
X63969900Y-106146600D01*
X63969900Y-106146600D02*
X65722500Y-108165900D01*
X52425600Y-118186200D02*
X53644800Y-119405400D01*
X52425600Y-115062000D02*
X52425600Y-118186200D01*
X53073300Y-114414300D02*
X52425600Y-115062000D01*
X64160400Y-114414300D02*
X53073300Y-114414300D01*
X65722500Y-112737900D02*
X64160400Y-114414300D01*
X65722500Y-108165900D02*
X65722500Y-112737900D01*
X54864000Y-105981500D02*
X55511700Y-105981500D01*
X55511700Y-105981500D02*
X56662320Y-104830880D01*
X56662320Y-104830880D02*
X62311280Y-104830880D01*
X62311280Y-104830880D02*
X63627000Y-106146600D01*
X63627000Y-106146600D02*
X64046100Y-106146600D01*
X94922500Y-145191500D02*
X94922500Y-145679000D01*
X94922500Y-145679000D02*
X91922600Y-148196300D01*
X90271600Y-146545300D02*
X91922600Y-148196300D01*
X84714080Y-146545300D02*
X90271600Y-146545300D01*
X80631742Y-143885068D02*
X84714080Y-146545300D01*
X75628015Y-142803070D02*
X80631742Y-143885068D01*
X66913760Y-140106400D02*
X75628015Y-142803070D01*
X63627000Y-103632000D02*
X63715900Y-103632000D01*
X63715900Y-103632000D02*
X65239900Y-105156000D01*
X53949600Y-116547900D02*
X56730900Y-119329200D01*
X53949600Y-115163600D02*
X53949600Y-116547900D01*
X54140100Y-114973100D02*
X53949600Y-115163600D01*
X64516000Y-114973100D02*
X54140100Y-114973100D01*
X66400000Y-112966500D02*
X64516000Y-114973100D01*
X66400000Y-107810300D02*
X66400000Y-112966500D01*
X65239900Y-106527600D02*
X66400000Y-107810300D01*
X65239900Y-105156000D02*
X65239900Y-106527600D01*
X54864000Y-103441500D02*
X55592980Y-103441500D01*
X55592980Y-103441500D02*
X56634380Y-102400100D01*
X56634380Y-102400100D02*
X62395100Y-102400100D01*
X62395100Y-102400100D02*
X63627000Y-103632000D01*
X76761430Y-146779070D02*
X76761430Y-147652650D01*
X76761430Y-147652650D02*
X76108560Y-148305520D01*
X63893700Y-116624100D02*
X63985140Y-116624100D01*
X63985140Y-116624100D02*
X65184020Y-118219220D01*
X76687860Y-146852640D02*
X76761430Y-146779070D01*
X76761430Y-146779070D02*
X78539500Y-145318500D01*
X66217800Y-146852640D02*
X76687860Y-146852640D01*
X65189100Y-144741900D02*
X66217800Y-146852640D01*
X65184020Y-118219220D02*
X65189100Y-144741900D01*
X63601600Y-101041200D02*
X64287400Y-101041200D01*
X63601600Y-101041200D02*
X63652400Y-101041200D01*
X63652400Y-101041200D02*
X65151000Y-102539800D01*
X64714304Y-115803496D02*
X63893700Y-116624100D01*
X64714304Y-115557300D02*
X64714304Y-115803496D01*
X67000000Y-113799002D02*
X64714304Y-115557300D01*
X67000000Y-107576002D02*
X67000000Y-113799002D01*
X65938400Y-105841800D02*
X67000000Y-107576002D01*
X65938400Y-104711500D02*
X65938400Y-105841800D01*
X65151000Y-103924100D02*
X65938400Y-104711500D01*
X65151000Y-102539800D02*
X65151000Y-103924100D01*
X63601600Y-101041200D02*
X64312800Y-101041200D01*
X54864000Y-100901500D02*
X54919880Y-100901500D01*
X54919880Y-100901500D02*
X56075580Y-99745800D01*
X56075580Y-99745800D02*
X62306200Y-99745800D01*
X62306200Y-99745800D02*
X63601600Y-101041200D01*
X63601600Y-101041200D02*
X64211200Y-101041200D01*
X71765000Y-54516000D02*
X71765000Y-53838000D01*
X71765000Y-53838000D02*
X74168000Y-51435000D01*
X63652400Y-98399600D02*
X63690500Y-98399600D01*
X63690500Y-98399600D02*
X65468500Y-96621600D01*
X54155600Y-73254400D02*
X55525000Y-71705000D01*
X54155600Y-82741300D02*
X54155600Y-73254400D01*
X55130700Y-83591400D02*
X54155600Y-82741300D01*
X66179700Y-83591400D02*
X55130700Y-83591400D01*
X66941700Y-84353400D02*
X66179700Y-83591400D01*
X66941700Y-92278200D02*
X66941700Y-84353400D01*
X65468500Y-93751400D02*
X66941700Y-92278200D01*
X65468500Y-96621600D02*
X65468500Y-93751400D01*
X63652400Y-98399600D02*
X63804800Y-98399600D01*
X54864000Y-98361500D02*
X55336440Y-98361500D01*
X55336440Y-98361500D02*
X56550560Y-97147380D01*
X56550560Y-97147380D02*
X62400180Y-97147380D01*
X62400180Y-97147380D02*
X63652400Y-98399600D01*
X63652400Y-98399600D02*
X63652400Y-98348800D01*
X86370000Y-54389000D02*
X86370000Y-53965000D01*
X86370000Y-53965000D02*
X89154000Y-51435000D01*
X63601600Y-95935800D02*
X63627000Y-95935800D01*
X63627000Y-95935800D02*
X64846200Y-94716600D01*
X53301900Y-84010500D02*
X53301900Y-79667100D01*
X53682900Y-84391500D02*
X53301900Y-84010500D01*
X65684400Y-84391500D02*
X53682900Y-84391500D01*
X66255900Y-84963000D02*
X65684400Y-84391500D01*
X66255900Y-92163900D02*
X66255900Y-84963000D01*
X64846200Y-93573600D02*
X66255900Y-92163900D01*
X64846200Y-94716600D02*
X64846200Y-93573600D01*
X53301900Y-79667100D02*
X52946300Y-79311500D01*
X63601600Y-95935800D02*
X63957200Y-95935800D01*
X54864000Y-95821500D02*
X55222140Y-95821500D01*
X55222140Y-95821500D02*
X56522620Y-94521020D01*
X56522620Y-94521020D02*
X62186820Y-94521020D01*
X62186820Y-94521020D02*
X63601600Y-95935800D01*
X101610000Y-54325500D02*
X101610000Y-53647500D01*
X101610000Y-53647500D02*
X104140000Y-51435000D01*
X55475000Y-62005000D02*
X55475000Y-59472700D01*
X87938702Y-57293602D02*
X89662000Y-57404000D01*
X57082598Y-57293602D02*
X87938702Y-57293602D01*
X55475000Y-59472700D02*
X57082598Y-57293602D01*
X52146200Y-84429600D02*
X52019200Y-84429600D01*
X54571900Y-63207900D02*
X55475000Y-62005000D01*
X53606700Y-63207900D02*
X54571900Y-63207900D01*
X51587400Y-65227200D02*
X53606700Y-63207900D01*
X51587400Y-83997800D02*
X51587400Y-65227200D01*
X52019200Y-84429600D02*
X51587400Y-83997800D01*
X63652400Y-93141800D02*
X64389000Y-93141800D01*
X64389000Y-93141800D02*
X65659000Y-91719400D01*
X52730400Y-85013800D02*
X52146200Y-84429600D01*
X65125600Y-85013800D02*
X52730400Y-85013800D01*
X65659000Y-85750400D02*
X65125600Y-85013800D01*
X65659000Y-91719400D02*
X65659000Y-85750400D01*
X54864000Y-93281500D02*
X55331360Y-93281500D01*
X55331360Y-93281500D02*
X56774080Y-91838780D01*
X56774080Y-91838780D02*
X62349380Y-91838780D01*
X62349380Y-91838780D02*
X63652400Y-93141800D01*
D29*
X70939500Y-145318500D02*
X70794900Y-145318500D01*
X79365000Y-54516000D02*
X78707000Y-54516000D01*
X93970000Y-54389000D02*
X93566000Y-54389000D01*
X124005500Y-54452500D02*
X123855500Y-54452500D01*
X102880000Y-145445500D02*
X102880000Y-144942400D01*
X117993000Y-145445500D02*
X117993000Y-144828100D01*
X62191900Y-143805900D02*
X63077100Y-143805900D01*
X60972700Y-120535700D02*
X60972700Y-125006100D01*
X60972700Y-125006100D02*
X60998100Y-125031500D01*
X59260000Y-63200000D02*
X59260000Y-62409600D01*
X60998100Y-138582400D02*
X60998100Y-142612100D01*
X60998100Y-142612100D02*
X62191900Y-143805900D01*
X59260000Y-76600000D02*
X59260000Y-81200000D01*
X59260000Y-72000000D02*
X59183800Y-76523800D01*
X59183800Y-76523800D02*
X59260000Y-76600000D01*
X59254920Y-71994920D02*
X59260000Y-72000000D01*
X59260000Y-67600000D02*
X59204120Y-63255880D01*
X59204120Y-63255880D02*
X59260000Y-63200000D01*
X59260000Y-63113640D02*
X59260000Y-63200000D01*
D28*
X59310800Y-71949200D02*
X59260000Y-72000000D01*
D29*
X61035560Y-111257080D02*
X61020960Y-111257080D01*
D28*
X59326040Y-67640640D02*
X59219360Y-67640640D01*
X56667400Y-130048000D02*
X57505600Y-130048000D01*
X61912500Y-136956800D02*
X63538100Y-138582400D01*
X61734700Y-136956800D02*
X61912500Y-136956800D01*
X59436000Y-134658100D02*
X61734700Y-136956800D01*
X59436000Y-131978400D02*
X59436000Y-134658100D01*
X57505600Y-130048000D02*
X59436000Y-131978400D01*
X53479700Y-129921000D02*
X53886100Y-129921000D01*
X53886100Y-129921000D02*
X55041800Y-128765300D01*
X55041800Y-128765300D02*
X57696100Y-128765300D01*
X57696100Y-128765300D02*
X60426600Y-131495800D01*
X60426600Y-131495800D02*
X61798200Y-131495800D01*
X61798200Y-131495800D02*
X63538100Y-133235700D01*
X63538100Y-133235700D02*
X63538100Y-133997700D01*
X53644800Y-127025400D02*
X53924200Y-127025400D01*
X53924200Y-127025400D02*
X55194200Y-128206500D01*
X55194200Y-128206500D02*
X59296300Y-128206500D01*
X59296300Y-128206500D02*
X60071000Y-127800100D01*
X60071000Y-127800100D02*
X61785500Y-127800100D01*
X61785500Y-127800100D02*
X63538100Y-129552700D01*
X56730900Y-126949200D02*
X61683900Y-126949200D01*
X61683900Y-126949200D02*
X63538100Y-125095000D01*
X63538100Y-125095000D02*
X63538100Y-125031500D01*
X56273700Y-116624100D02*
X60401200Y-116624100D01*
X60401200Y-116624100D02*
X63512700Y-119735600D01*
X63512700Y-119735600D02*
X63512700Y-120535700D01*
X52946300Y-71691500D02*
X53721000Y-71691500D01*
X53721000Y-71691500D02*
X54178200Y-71234300D01*
X63232598Y-75332682D02*
X61800000Y-76600000D01*
X63232598Y-70735098D02*
X63232598Y-75332682D01*
X62296040Y-69842380D02*
X63232598Y-70735098D01*
X58092340Y-69842380D02*
X62296040Y-69842380D01*
X56705500Y-68211700D02*
X58092340Y-69842380D01*
X54825900Y-68211700D02*
X56705500Y-68211700D01*
X54178200Y-68859400D02*
X54825900Y-68211700D01*
X54178200Y-71234300D02*
X54178200Y-68859400D01*
X55475000Y-69625000D02*
X56540400Y-69545200D01*
X60568840Y-70510400D02*
X61800000Y-72000000D01*
X57505600Y-70510400D02*
X60568840Y-70510400D01*
X56540400Y-69545200D02*
X57505600Y-70510400D01*
X61800000Y-72000000D02*
X62485800Y-72000000D01*
X130693000Y-54389000D02*
X130883500Y-53457000D01*
X130883500Y-53457000D02*
X132842000Y-51498500D01*
X51714400Y-59283600D02*
X51930300Y-59283600D01*
X51930300Y-59283600D02*
X54592220Y-55859680D01*
X125717300Y-55867300D02*
X130693000Y-54389000D01*
X54592220Y-55859680D02*
X125717300Y-55867300D01*
X54864000Y-88201500D02*
X54864000Y-88493600D01*
X54864000Y-88493600D02*
X53898800Y-89458800D01*
X53898800Y-89458800D02*
X50774600Y-89458800D01*
X50774600Y-89458800D02*
X50419000Y-89103200D01*
X50419000Y-89103200D02*
X50419000Y-60579000D01*
X50419000Y-60579000D02*
X51714400Y-59283600D01*
X54864000Y-88201500D02*
X54810660Y-88201500D01*
X54864000Y-88201500D02*
X55130700Y-88201500D01*
X55130700Y-88201500D02*
X56690260Y-86641940D01*
X62283340Y-86641940D02*
X63652400Y-88011000D01*
X56690260Y-86641940D02*
X62283340Y-86641940D01*
X116405500Y-54452500D02*
X116405500Y-53774500D01*
X116405500Y-53774500D02*
X118872000Y-51435000D01*
X52920900Y-61976000D02*
X52920900Y-59702700D01*
X55372000Y-56553100D02*
X103797100Y-56553100D01*
X52920900Y-59702700D02*
X55372000Y-56553100D01*
X52920900Y-61976000D02*
X52920900Y-61252100D01*
X52920900Y-61976000D02*
X52438300Y-63233300D01*
X64643000Y-90627200D02*
X65074800Y-90195400D01*
X65074800Y-90195400D02*
X65074800Y-86410800D01*
X65074800Y-86410800D02*
X64287400Y-85623400D01*
X64287400Y-85623400D02*
X52019200Y-85623400D01*
X52019200Y-85623400D02*
X50969002Y-84573202D01*
X50969002Y-84573202D02*
X50969002Y-64702598D01*
X50969002Y-64702598D02*
X52438300Y-63233300D01*
X64643000Y-90627200D02*
X63601600Y-90627200D01*
X63601600Y-90627200D02*
X63385700Y-90627200D01*
X63385700Y-90627200D02*
X62194440Y-89435940D01*
X56169560Y-89435940D02*
X54864000Y-90741500D01*
X62194440Y-89435940D02*
X56169560Y-89435940D01*
X61800000Y-67600000D02*
X62018440Y-67600000D01*
X59334400Y-59283600D02*
X60528200Y-59283600D01*
X62194440Y-60949840D02*
X61800000Y-63200000D01*
X60528200Y-59283600D02*
X62194440Y-60949840D01*
X61916840Y-63200000D02*
X61800000Y-63200000D01*
D27*
X138674000Y-137889000D02*
X142412700Y-137381000D01*
X142412700Y-137381000D02*
X146291300Y-133502400D01*
X138674000Y-137889000D02*
X131074000Y-137889000D01*
X110236000Y-81216500D02*
X110363000Y-73576000D01*
X110363000Y-73576000D02*
X109210000Y-72105500D01*
X109524800Y-72420300D02*
X109210000Y-72105500D01*
X101610000Y-72105500D02*
X109210000Y-72105500D01*
X109210000Y-67025500D02*
X109314000Y-67025500D01*
X109314000Y-67025500D02*
X114394000Y-62263000D01*
X114394000Y-62263000D02*
X116405500Y-62072500D01*
X101610000Y-67025500D02*
X109210000Y-67025500D01*
X116405500Y-62072500D02*
X124005500Y-62072500D01*
X101610000Y-67025500D02*
X100297000Y-67343000D01*
X104521000Y-88201500D02*
X104648000Y-94361000D01*
X102362000Y-85217000D02*
X104521000Y-88201500D01*
X102235000Y-76009500D02*
X102362000Y-85217000D01*
X98425000Y-73406000D02*
X102235000Y-76009500D01*
X98425000Y-69215000D02*
X98425000Y-73406000D01*
X100297000Y-67343000D02*
X98425000Y-69215000D01*
X110480000Y-132745500D02*
X110904000Y-132745500D01*
X110904000Y-132745500D02*
X113220500Y-128778000D01*
X113220500Y-128778000D02*
X112966500Y-106743500D01*
X94922500Y-137571500D02*
X87322500Y-137571500D01*
X94922500Y-137571500D02*
X96883200Y-137177800D01*
X101506000Y-132555000D02*
X102880000Y-132745500D01*
X96883200Y-137177800D02*
X101506000Y-132555000D01*
X110480000Y-132745500D02*
X102880000Y-132745500D01*
X94922500Y-132491500D02*
X94922500Y-132491500D01*
X97561400Y-127914400D02*
X97561400Y-106845100D01*
X94922500Y-132491500D02*
X97561400Y-127914400D01*
X78539500Y-137698500D02*
X80421500Y-137444500D01*
X86555400Y-132776000D02*
X87322500Y-132491500D01*
X85090000Y-132776000D02*
X86555400Y-132776000D01*
X80421500Y-137444500D02*
X85090000Y-132776000D01*
X70939500Y-137698500D02*
X78539500Y-137698500D01*
X94922500Y-132491500D02*
X87322500Y-132491500D01*
X106172000Y-127475000D02*
X105892600Y-119278400D01*
X105892600Y-119278400D02*
X106045000Y-119126000D01*
X102880000Y-127665500D02*
X106172000Y-127475000D01*
X106172000Y-127475000D02*
X110480000Y-127665500D01*
X127127000Y-81407000D02*
X127000000Y-76454000D01*
X123942000Y-74043700D02*
X124005500Y-72232500D01*
X127000000Y-76454000D02*
X123942000Y-74043700D01*
X124282200Y-72509200D02*
X124005500Y-72232500D01*
X116405500Y-72232500D02*
X124005500Y-72232500D01*
X90182700Y-127017800D02*
X90157300Y-118948200D01*
X90157300Y-118948200D02*
X90233500Y-118872000D01*
X90385900Y-119024400D02*
X90233500Y-118872000D01*
X94922500Y-127411500D02*
X90182700Y-127017800D01*
X90182700Y-127017800D02*
X87322500Y-127411500D01*
X130693000Y-67089000D02*
X124069000Y-67089000D01*
X124069000Y-67089000D02*
X124005500Y-67152500D01*
X138293000Y-67089000D02*
X138293000Y-67173000D01*
X130693000Y-67089000D02*
X138293000Y-67089000D01*
X138293000Y-67089000D02*
X138422400Y-67089000D01*
X137668000Y-78232000D02*
X136271000Y-76009500D01*
X125890000Y-67152500D02*
X124005500Y-67152500D01*
X127190500Y-68453000D02*
X125890000Y-67152500D01*
X127190500Y-73025000D02*
X127190500Y-68453000D01*
X128968500Y-74803000D02*
X127190500Y-73025000D01*
X135064500Y-74803000D02*
X128968500Y-74803000D01*
X136271000Y-76009500D02*
X135064500Y-74803000D01*
X124005500Y-67152500D02*
X116405500Y-67152500D01*
X124005500Y-67152500D02*
X124005500Y-66913600D01*
X116405500Y-67152500D02*
X115384600Y-67343000D01*
X115384600Y-67343000D02*
X113322100Y-69405500D01*
X113322100Y-69405500D02*
X113322100Y-73596500D01*
X113322100Y-73596500D02*
X118389400Y-76824840D01*
X118389400Y-76824840D02*
X118389400Y-85930740D01*
X118389400Y-85930740D02*
X120396000Y-86868000D01*
X120396000Y-86868000D02*
X120523000Y-94297500D01*
X73342500Y-118745000D02*
X73342500Y-126814600D01*
X73342500Y-126814600D02*
X73812400Y-127284500D01*
X73279000Y-118808500D02*
X73342500Y-118745000D01*
X73152000Y-118935500D02*
X73342500Y-118745000D01*
X70939500Y-127538500D02*
X73812400Y-127284500D01*
X73812400Y-127284500D02*
X78539500Y-127538500D01*
X81915000Y-106743500D02*
X71958200Y-106502200D01*
X67658000Y-62263000D02*
X71765000Y-62136000D01*
X65826640Y-65176400D02*
X67658000Y-62263000D01*
X65826640Y-74574400D02*
X65826640Y-65176400D01*
X68580000Y-77851000D02*
X65826640Y-74574400D01*
X68580000Y-103124000D02*
X68580000Y-77851000D01*
X71958200Y-106502200D02*
X68580000Y-103124000D01*
X79365000Y-62136000D02*
X71765000Y-62136000D01*
X78539500Y-132618500D02*
X79154000Y-132618500D01*
X79154000Y-132618500D02*
X82429350Y-129025650D01*
X82429350Y-129025650D02*
X81915000Y-106743500D01*
X78539500Y-132618500D02*
X70939500Y-132618500D01*
X138293000Y-72169000D02*
X139987000Y-72169000D01*
X144322800Y-76504800D02*
X144780000Y-78232000D01*
X139987000Y-72169000D02*
X144322800Y-76504800D01*
X138531600Y-72407600D02*
X138293000Y-72169000D01*
X130693000Y-72169000D02*
X137464800Y-72169000D01*
X137464800Y-72169000D02*
X138293000Y-72169000D01*
X138674000Y-132809000D02*
X139161500Y-132809000D01*
X139161500Y-132809000D02*
X141097000Y-130873500D01*
X146431000Y-64262000D02*
X144653000Y-64262000D01*
X149034500Y-66865500D02*
X146431000Y-64262000D01*
X149034500Y-82105500D02*
X149034500Y-66865500D01*
X145097500Y-86042500D02*
X149034500Y-82105500D01*
X145097500Y-117411500D02*
X145097500Y-86042500D01*
X141097000Y-121412000D02*
X145097500Y-117411500D01*
X141097000Y-130873500D02*
X141097000Y-121412000D01*
X138674000Y-132809000D02*
X131074000Y-132809000D01*
X138293000Y-62009000D02*
X143835100Y-63444100D01*
X143835100Y-63444100D02*
X144653000Y-64262000D01*
X138293000Y-62009000D02*
X130693000Y-62009000D01*
X138674000Y-127729000D02*
X131074000Y-127729000D01*
X125593000Y-137825500D02*
X126334500Y-137825500D01*
X126334500Y-137825500D02*
X127484198Y-135431561D01*
X130135003Y-129011903D02*
X131074000Y-127729000D01*
X128778000Y-132080000D02*
X130135003Y-129011903D01*
X127484198Y-135431561D02*
X128778000Y-132080000D01*
X125593000Y-137825500D02*
X117993000Y-137825500D01*
M02*
