G04 #@! TF.FileFunction,Legend,Top*
%FSLAX46Y46*%
G04 Gerber Fmt 4.6, Leading zero omitted, Abs format (unit mm)*
G04 Created by KiCad (PCBNEW 4.0.7) date 11/25/19 11:07:39*
%MOMM*%
%LPD*%
G01*
G04 APERTURE LIST*
%ADD10C,0.100000*%
%ADD11C,0.150000*%
%ADD12C,0.120000*%
%ADD13C,0.200000*%
%ADD14C,0.300000*%
G04 APERTURE END LIST*
D10*
D11*
X143865696Y-68791200D02*
X143770458Y-68743581D01*
X143627601Y-68743581D01*
X143484743Y-68791200D01*
X143389505Y-68886438D01*
X143341886Y-68981676D01*
X143294267Y-69172152D01*
X143294267Y-69315010D01*
X143341886Y-69505486D01*
X143389505Y-69600724D01*
X143484743Y-69695962D01*
X143627601Y-69743581D01*
X143722839Y-69743581D01*
X143865696Y-69695962D01*
X143913315Y-69648343D01*
X143913315Y-69315010D01*
X143722839Y-69315010D01*
X144341886Y-69743581D02*
X144341886Y-68743581D01*
X144913315Y-69743581D01*
X144913315Y-68743581D01*
X145389505Y-69743581D02*
X145389505Y-68743581D01*
X145627600Y-68743581D01*
X145770458Y-68791200D01*
X145865696Y-68886438D01*
X145913315Y-68981676D01*
X145960934Y-69172152D01*
X145960934Y-69315010D01*
X145913315Y-69505486D01*
X145865696Y-69600724D01*
X145770458Y-69695962D01*
X145627600Y-69743581D01*
X145389505Y-69743581D01*
X143827596Y-138501500D02*
X143732358Y-138453881D01*
X143589501Y-138453881D01*
X143446643Y-138501500D01*
X143351405Y-138596738D01*
X143303786Y-138691976D01*
X143256167Y-138882452D01*
X143256167Y-139025310D01*
X143303786Y-139215786D01*
X143351405Y-139311024D01*
X143446643Y-139406262D01*
X143589501Y-139453881D01*
X143684739Y-139453881D01*
X143827596Y-139406262D01*
X143875215Y-139358643D01*
X143875215Y-139025310D01*
X143684739Y-139025310D01*
X144303786Y-139453881D02*
X144303786Y-138453881D01*
X144875215Y-139453881D01*
X144875215Y-138453881D01*
X145351405Y-139453881D02*
X145351405Y-138453881D01*
X145589500Y-138453881D01*
X145732358Y-138501500D01*
X145827596Y-138596738D01*
X145875215Y-138691976D01*
X145922834Y-138882452D01*
X145922834Y-139025310D01*
X145875215Y-139215786D01*
X145827596Y-139311024D01*
X145732358Y-139406262D01*
X145589500Y-139453881D01*
X145351405Y-139453881D01*
X136682933Y-91067381D02*
X136682933Y-90067381D01*
X137063886Y-90067381D01*
X137159124Y-90115000D01*
X137206743Y-90162619D01*
X137254362Y-90257857D01*
X137254362Y-90400714D01*
X137206743Y-90495952D01*
X137159124Y-90543571D01*
X137063886Y-90591190D01*
X136682933Y-90591190D01*
X137682933Y-91067381D02*
X137682933Y-90067381D01*
X137682933Y-90543571D02*
X138254362Y-90543571D01*
X138254362Y-91067381D02*
X138254362Y-90067381D01*
X138682933Y-90781667D02*
X139159124Y-90781667D01*
X138587695Y-91067381D02*
X138921028Y-90067381D01*
X139254362Y-91067381D01*
X139540076Y-91019762D02*
X139682933Y-91067381D01*
X139921029Y-91067381D01*
X140016267Y-91019762D01*
X140063886Y-90972143D01*
X140111505Y-90876905D01*
X140111505Y-90781667D01*
X140063886Y-90686429D01*
X140016267Y-90638810D01*
X139921029Y-90591190D01*
X139730552Y-90543571D01*
X139635314Y-90495952D01*
X139587695Y-90448333D01*
X139540076Y-90353095D01*
X139540076Y-90257857D01*
X139587695Y-90162619D01*
X139635314Y-90115000D01*
X139730552Y-90067381D01*
X139968648Y-90067381D01*
X140111505Y-90115000D01*
X140540076Y-90543571D02*
X140873410Y-90543571D01*
X141016267Y-91067381D02*
X140540076Y-91067381D01*
X140540076Y-90067381D01*
X141016267Y-90067381D01*
X142778172Y-91067381D02*
X142444838Y-90591190D01*
X142206743Y-91067381D02*
X142206743Y-90067381D01*
X142587696Y-90067381D01*
X142682934Y-90115000D01*
X142730553Y-90162619D01*
X142778172Y-90257857D01*
X142778172Y-90400714D01*
X142730553Y-90495952D01*
X142682934Y-90543571D01*
X142587696Y-90591190D01*
X142206743Y-90591190D01*
X143206743Y-90543571D02*
X143540077Y-90543571D01*
X143682934Y-91067381D02*
X143206743Y-91067381D01*
X143206743Y-90067381D01*
X143682934Y-90067381D01*
X143968648Y-90067381D02*
X144301981Y-91067381D01*
X144635315Y-90067381D01*
X144968648Y-90543571D02*
X145301982Y-90543571D01*
X145444839Y-91067381D02*
X144968648Y-91067381D01*
X144968648Y-90067381D01*
X145444839Y-90067381D01*
X146444839Y-91067381D02*
X146111505Y-90591190D01*
X145873410Y-91067381D02*
X145873410Y-90067381D01*
X146254363Y-90067381D01*
X146349601Y-90115000D01*
X146397220Y-90162619D01*
X146444839Y-90257857D01*
X146444839Y-90400714D01*
X146397220Y-90495952D01*
X146349601Y-90543571D01*
X146254363Y-90591190D01*
X145873410Y-90591190D01*
X146825791Y-91019762D02*
X146968648Y-91067381D01*
X147206744Y-91067381D01*
X147301982Y-91019762D01*
X147349601Y-90972143D01*
X147397220Y-90876905D01*
X147397220Y-90781667D01*
X147349601Y-90686429D01*
X147301982Y-90638810D01*
X147206744Y-90591190D01*
X147016267Y-90543571D01*
X146921029Y-90495952D01*
X146873410Y-90448333D01*
X146825791Y-90353095D01*
X146825791Y-90257857D01*
X146873410Y-90162619D01*
X146921029Y-90115000D01*
X147016267Y-90067381D01*
X147254363Y-90067381D01*
X147397220Y-90115000D01*
X147778172Y-90781667D02*
X148254363Y-90781667D01*
X147682934Y-91067381D02*
X148016267Y-90067381D01*
X148349601Y-91067381D01*
X149159125Y-91067381D02*
X148682934Y-91067381D01*
X148682934Y-90067381D01*
X137659124Y-91717381D02*
X138230553Y-91717381D01*
X137944838Y-92717381D02*
X137944838Y-91717381D01*
X139135315Y-92717381D02*
X138801981Y-92241190D01*
X138563886Y-92717381D02*
X138563886Y-91717381D01*
X138944839Y-91717381D01*
X139040077Y-91765000D01*
X139087696Y-91812619D01*
X139135315Y-91907857D01*
X139135315Y-92050714D01*
X139087696Y-92145952D01*
X139040077Y-92193571D01*
X138944839Y-92241190D01*
X138563886Y-92241190D01*
X139516267Y-92431667D02*
X139992458Y-92431667D01*
X139421029Y-92717381D02*
X139754362Y-91717381D01*
X140087696Y-92717381D01*
X140421029Y-92717381D02*
X140421029Y-91717381D01*
X140992458Y-92717381D01*
X140992458Y-91717381D01*
X141421029Y-92669762D02*
X141563886Y-92717381D01*
X141801982Y-92717381D01*
X141897220Y-92669762D01*
X141944839Y-92622143D01*
X141992458Y-92526905D01*
X141992458Y-92431667D01*
X141944839Y-92336429D01*
X141897220Y-92288810D01*
X141801982Y-92241190D01*
X141611505Y-92193571D01*
X141516267Y-92145952D01*
X141468648Y-92098333D01*
X141421029Y-92003095D01*
X141421029Y-91907857D01*
X141468648Y-91812619D01*
X141516267Y-91765000D01*
X141611505Y-91717381D01*
X141849601Y-91717381D01*
X141992458Y-91765000D01*
X142754363Y-92193571D02*
X142421029Y-92193571D01*
X142421029Y-92717381D02*
X142421029Y-91717381D01*
X142897220Y-91717381D01*
X143468648Y-91717381D02*
X143659125Y-91717381D01*
X143754363Y-91765000D01*
X143849601Y-91860238D01*
X143897220Y-92050714D01*
X143897220Y-92384048D01*
X143849601Y-92574524D01*
X143754363Y-92669762D01*
X143659125Y-92717381D01*
X143468648Y-92717381D01*
X143373410Y-92669762D01*
X143278172Y-92574524D01*
X143230553Y-92384048D01*
X143230553Y-92050714D01*
X143278172Y-91860238D01*
X143373410Y-91765000D01*
X143468648Y-91717381D01*
X144897220Y-92717381D02*
X144563886Y-92241190D01*
X144325791Y-92717381D02*
X144325791Y-91717381D01*
X144706744Y-91717381D01*
X144801982Y-91765000D01*
X144849601Y-91812619D01*
X144897220Y-91907857D01*
X144897220Y-92050714D01*
X144849601Y-92145952D01*
X144801982Y-92193571D01*
X144706744Y-92241190D01*
X144325791Y-92241190D01*
X145325791Y-92717381D02*
X145325791Y-91717381D01*
X145659125Y-92431667D01*
X145992458Y-91717381D01*
X145992458Y-92717381D01*
X146468648Y-92193571D02*
X146801982Y-92193571D01*
X146944839Y-92717381D02*
X146468648Y-92717381D01*
X146468648Y-91717381D01*
X146944839Y-91717381D01*
X147944839Y-92717381D02*
X147611505Y-92241190D01*
X147373410Y-92717381D02*
X147373410Y-91717381D01*
X147754363Y-91717381D01*
X147849601Y-91765000D01*
X147897220Y-91812619D01*
X147944839Y-91907857D01*
X147944839Y-92050714D01*
X147897220Y-92145952D01*
X147849601Y-92193571D01*
X147754363Y-92241190D01*
X147373410Y-92241190D01*
X142556172Y-76245981D02*
X142222838Y-75769790D01*
X141984743Y-76245981D02*
X141984743Y-75245981D01*
X142365696Y-75245981D01*
X142460934Y-75293600D01*
X142508553Y-75341219D01*
X142556172Y-75436457D01*
X142556172Y-75579314D01*
X142508553Y-75674552D01*
X142460934Y-75722171D01*
X142365696Y-75769790D01*
X141984743Y-75769790D01*
X142984743Y-75722171D02*
X143318077Y-75722171D01*
X143460934Y-76245981D02*
X142984743Y-76245981D01*
X142984743Y-75245981D01*
X143460934Y-75245981D01*
X143746648Y-75245981D02*
X144079981Y-76245981D01*
X144413315Y-75245981D01*
X144746648Y-76245981D02*
X144746648Y-75245981D01*
X145127601Y-75245981D01*
X145222839Y-75293600D01*
X145270458Y-75341219D01*
X145318077Y-75436457D01*
X145318077Y-75579314D01*
X145270458Y-75674552D01*
X145222839Y-75722171D01*
X145127601Y-75769790D01*
X144746648Y-75769790D01*
X145746648Y-76245981D02*
X145746648Y-75245981D01*
X145746648Y-75722171D02*
X146318077Y-75722171D01*
X146318077Y-76245981D02*
X146318077Y-75245981D01*
X146746648Y-76198362D02*
X146889505Y-76245981D01*
X147127601Y-76245981D01*
X147222839Y-76198362D01*
X147270458Y-76150743D01*
X147318077Y-76055505D01*
X147318077Y-75960267D01*
X147270458Y-75865029D01*
X147222839Y-75817410D01*
X147127601Y-75769790D01*
X146937124Y-75722171D01*
X146841886Y-75674552D01*
X146794267Y-75626933D01*
X146746648Y-75531695D01*
X146746648Y-75436457D01*
X146794267Y-75341219D01*
X146841886Y-75293600D01*
X146937124Y-75245981D01*
X147175220Y-75245981D01*
X147318077Y-75293600D01*
X143764096Y-82100800D02*
X143668858Y-82053181D01*
X143526001Y-82053181D01*
X143383143Y-82100800D01*
X143287905Y-82196038D01*
X143240286Y-82291276D01*
X143192667Y-82481752D01*
X143192667Y-82624610D01*
X143240286Y-82815086D01*
X143287905Y-82910324D01*
X143383143Y-83005562D01*
X143526001Y-83053181D01*
X143621239Y-83053181D01*
X143764096Y-83005562D01*
X143811715Y-82957943D01*
X143811715Y-82624610D01*
X143621239Y-82624610D01*
X144240286Y-83053181D02*
X144240286Y-82053181D01*
X144811715Y-83053181D01*
X144811715Y-82053181D01*
X145287905Y-83053181D02*
X145287905Y-82053181D01*
X145526000Y-82053181D01*
X145668858Y-82100800D01*
X145764096Y-82196038D01*
X145811715Y-82291276D01*
X145859334Y-82481752D01*
X145859334Y-82624610D01*
X145811715Y-82815086D01*
X145764096Y-82910324D01*
X145668858Y-83005562D01*
X145526000Y-83053181D01*
X145287905Y-83053181D01*
X141800629Y-63088781D02*
X141800629Y-62088781D01*
X142181582Y-62088781D01*
X142276820Y-62136400D01*
X142324439Y-62184019D01*
X142372058Y-62279257D01*
X142372058Y-62422114D01*
X142324439Y-62517352D01*
X142276820Y-62564971D01*
X142181582Y-62612590D01*
X141800629Y-62612590D01*
X143372058Y-63088781D02*
X143038724Y-62612590D01*
X142800629Y-63088781D02*
X142800629Y-62088781D01*
X143181582Y-62088781D01*
X143276820Y-62136400D01*
X143324439Y-62184019D01*
X143372058Y-62279257D01*
X143372058Y-62422114D01*
X143324439Y-62517352D01*
X143276820Y-62564971D01*
X143181582Y-62612590D01*
X142800629Y-62612590D01*
X143800629Y-63088781D02*
X143800629Y-62088781D01*
X144276819Y-63088781D02*
X144276819Y-62088781D01*
X144610153Y-62803067D01*
X144943486Y-62088781D01*
X144943486Y-63088781D01*
X145372057Y-62803067D02*
X145848248Y-62803067D01*
X145276819Y-63088781D02*
X145610152Y-62088781D01*
X145943486Y-63088781D01*
X146848248Y-63088781D02*
X146514914Y-62612590D01*
X146276819Y-63088781D02*
X146276819Y-62088781D01*
X146657772Y-62088781D01*
X146753010Y-62136400D01*
X146800629Y-62184019D01*
X146848248Y-62279257D01*
X146848248Y-62422114D01*
X146800629Y-62517352D01*
X146753010Y-62564971D01*
X146657772Y-62612590D01*
X146276819Y-62612590D01*
X147467295Y-62612590D02*
X147467295Y-63088781D01*
X147133962Y-62088781D02*
X147467295Y-62612590D01*
X147800629Y-62088781D01*
X118867181Y-94400334D02*
X117867181Y-94400334D01*
X117867181Y-94162239D01*
X117914800Y-94019381D01*
X118010038Y-93924143D01*
X118105276Y-93876524D01*
X118295752Y-93828905D01*
X118438610Y-93828905D01*
X118629086Y-93876524D01*
X118724324Y-93924143D01*
X118819562Y-94019381D01*
X118867181Y-94162239D01*
X118867181Y-94400334D01*
X118343371Y-93400334D02*
X118343371Y-93067000D01*
X118867181Y-92924143D02*
X118867181Y-93400334D01*
X117867181Y-93400334D01*
X117867181Y-92924143D01*
X118867181Y-92019381D02*
X118867181Y-92495572D01*
X117867181Y-92495572D01*
X118581467Y-91733667D02*
X118581467Y-91257476D01*
X118867181Y-91828905D02*
X117867181Y-91495572D01*
X118867181Y-91162238D01*
X118390990Y-90638429D02*
X118867181Y-90638429D01*
X117867181Y-90971762D02*
X118390990Y-90638429D01*
X117867181Y-90305095D01*
X118295752Y-89067000D02*
X118248133Y-89162238D01*
X118200514Y-89209857D01*
X118105276Y-89257476D01*
X118057657Y-89257476D01*
X117962419Y-89209857D01*
X117914800Y-89162238D01*
X117867181Y-89067000D01*
X117867181Y-88876523D01*
X117914800Y-88781285D01*
X117962419Y-88733666D01*
X118057657Y-88686047D01*
X118105276Y-88686047D01*
X118200514Y-88733666D01*
X118248133Y-88781285D01*
X118295752Y-88876523D01*
X118295752Y-89067000D01*
X118343371Y-89162238D01*
X118390990Y-89209857D01*
X118486229Y-89257476D01*
X118676705Y-89257476D01*
X118771943Y-89209857D01*
X118819562Y-89162238D01*
X118867181Y-89067000D01*
X118867181Y-88876523D01*
X118819562Y-88781285D01*
X118771943Y-88733666D01*
X118676705Y-88686047D01*
X118486229Y-88686047D01*
X118390990Y-88733666D01*
X118343371Y-88781285D01*
X118295752Y-88876523D01*
X126868181Y-81065334D02*
X125868181Y-81065334D01*
X125868181Y-80827239D01*
X125915800Y-80684381D01*
X126011038Y-80589143D01*
X126106276Y-80541524D01*
X126296752Y-80493905D01*
X126439610Y-80493905D01*
X126630086Y-80541524D01*
X126725324Y-80589143D01*
X126820562Y-80684381D01*
X126868181Y-80827239D01*
X126868181Y-81065334D01*
X126344371Y-80065334D02*
X126344371Y-79732000D01*
X126868181Y-79589143D02*
X126868181Y-80065334D01*
X125868181Y-80065334D01*
X125868181Y-79589143D01*
X126868181Y-78684381D02*
X126868181Y-79160572D01*
X125868181Y-79160572D01*
X126582467Y-78398667D02*
X126582467Y-77922476D01*
X126868181Y-78493905D02*
X125868181Y-78160572D01*
X126868181Y-77827238D01*
X126391990Y-77303429D02*
X126868181Y-77303429D01*
X125868181Y-77636762D02*
X126391990Y-77303429D01*
X125868181Y-76970095D01*
X126296752Y-75732000D02*
X126249133Y-75827238D01*
X126201514Y-75874857D01*
X126106276Y-75922476D01*
X126058657Y-75922476D01*
X125963419Y-75874857D01*
X125915800Y-75827238D01*
X125868181Y-75732000D01*
X125868181Y-75541523D01*
X125915800Y-75446285D01*
X125963419Y-75398666D01*
X126058657Y-75351047D01*
X126106276Y-75351047D01*
X126201514Y-75398666D01*
X126249133Y-75446285D01*
X126296752Y-75541523D01*
X126296752Y-75732000D01*
X126344371Y-75827238D01*
X126391990Y-75874857D01*
X126487229Y-75922476D01*
X126677705Y-75922476D01*
X126772943Y-75874857D01*
X126820562Y-75827238D01*
X126868181Y-75732000D01*
X126868181Y-75541523D01*
X126820562Y-75446285D01*
X126772943Y-75398666D01*
X126677705Y-75351047D01*
X126487229Y-75351047D01*
X126391990Y-75398666D01*
X126344371Y-75446285D01*
X126296752Y-75541523D01*
X101950781Y-95035334D02*
X100950781Y-95035334D01*
X100950781Y-94797239D01*
X100998400Y-94654381D01*
X101093638Y-94559143D01*
X101188876Y-94511524D01*
X101379352Y-94463905D01*
X101522210Y-94463905D01*
X101712686Y-94511524D01*
X101807924Y-94559143D01*
X101903162Y-94654381D01*
X101950781Y-94797239D01*
X101950781Y-95035334D01*
X101426971Y-94035334D02*
X101426971Y-93702000D01*
X101950781Y-93559143D02*
X101950781Y-94035334D01*
X100950781Y-94035334D01*
X100950781Y-93559143D01*
X101950781Y-92654381D02*
X101950781Y-93130572D01*
X100950781Y-93130572D01*
X101665067Y-92368667D02*
X101665067Y-91892476D01*
X101950781Y-92463905D02*
X100950781Y-92130572D01*
X101950781Y-91797238D01*
X101474590Y-91273429D02*
X101950781Y-91273429D01*
X100950781Y-91606762D02*
X101474590Y-91273429D01*
X100950781Y-90940095D01*
X100950781Y-89940095D02*
X100950781Y-89273428D01*
X101950781Y-89702000D01*
X110459781Y-81141534D02*
X109459781Y-81141534D01*
X109459781Y-80903439D01*
X109507400Y-80760581D01*
X109602638Y-80665343D01*
X109697876Y-80617724D01*
X109888352Y-80570105D01*
X110031210Y-80570105D01*
X110221686Y-80617724D01*
X110316924Y-80665343D01*
X110412162Y-80760581D01*
X110459781Y-80903439D01*
X110459781Y-81141534D01*
X109935971Y-80141534D02*
X109935971Y-79808200D01*
X110459781Y-79665343D02*
X110459781Y-80141534D01*
X109459781Y-80141534D01*
X109459781Y-79665343D01*
X110459781Y-78760581D02*
X110459781Y-79236772D01*
X109459781Y-79236772D01*
X110174067Y-78474867D02*
X110174067Y-77998676D01*
X110459781Y-78570105D02*
X109459781Y-78236772D01*
X110459781Y-77903438D01*
X109983590Y-77379629D02*
X110459781Y-77379629D01*
X109459781Y-77712962D02*
X109983590Y-77379629D01*
X109459781Y-77046295D01*
X109459781Y-76046295D02*
X109459781Y-75379628D01*
X110459781Y-75808200D01*
X94000581Y-81344734D02*
X93000581Y-81344734D01*
X93000581Y-81106639D01*
X93048200Y-80963781D01*
X93143438Y-80868543D01*
X93238676Y-80820924D01*
X93429152Y-80773305D01*
X93572010Y-80773305D01*
X93762486Y-80820924D01*
X93857724Y-80868543D01*
X93952962Y-80963781D01*
X94000581Y-81106639D01*
X94000581Y-81344734D01*
X93476771Y-80344734D02*
X93476771Y-80011400D01*
X94000581Y-79868543D02*
X94000581Y-80344734D01*
X93000581Y-80344734D01*
X93000581Y-79868543D01*
X94000581Y-78963781D02*
X94000581Y-79439972D01*
X93000581Y-79439972D01*
X93714867Y-78678067D02*
X93714867Y-78201876D01*
X94000581Y-78773305D02*
X93000581Y-78439972D01*
X94000581Y-78106638D01*
X93524390Y-77582829D02*
X94000581Y-77582829D01*
X93000581Y-77916162D02*
X93524390Y-77582829D01*
X93000581Y-77249495D01*
X93000581Y-75725685D02*
X93000581Y-75916162D01*
X93048200Y-76011400D01*
X93095819Y-76059019D01*
X93238676Y-76154257D01*
X93429152Y-76201876D01*
X93810105Y-76201876D01*
X93905343Y-76154257D01*
X93952962Y-76106638D01*
X94000581Y-76011400D01*
X94000581Y-75820923D01*
X93952962Y-75725685D01*
X93905343Y-75678066D01*
X93810105Y-75630447D01*
X93572010Y-75630447D01*
X93476771Y-75678066D01*
X93429152Y-75725685D01*
X93381533Y-75820923D01*
X93381533Y-76011400D01*
X93429152Y-76106638D01*
X93476771Y-76154257D01*
X93572010Y-76201876D01*
X85796381Y-95136934D02*
X84796381Y-95136934D01*
X84796381Y-94898839D01*
X84844000Y-94755981D01*
X84939238Y-94660743D01*
X85034476Y-94613124D01*
X85224952Y-94565505D01*
X85367810Y-94565505D01*
X85558286Y-94613124D01*
X85653524Y-94660743D01*
X85748762Y-94755981D01*
X85796381Y-94898839D01*
X85796381Y-95136934D01*
X85272571Y-94136934D02*
X85272571Y-93803600D01*
X85796381Y-93660743D02*
X85796381Y-94136934D01*
X84796381Y-94136934D01*
X84796381Y-93660743D01*
X85796381Y-92755981D02*
X85796381Y-93232172D01*
X84796381Y-93232172D01*
X85510667Y-92470267D02*
X85510667Y-91994076D01*
X85796381Y-92565505D02*
X84796381Y-92232172D01*
X85796381Y-91898838D01*
X85320190Y-91375029D02*
X85796381Y-91375029D01*
X84796381Y-91708362D02*
X85320190Y-91375029D01*
X84796381Y-91041695D01*
X84796381Y-89517885D02*
X84796381Y-89708362D01*
X84844000Y-89803600D01*
X84891619Y-89851219D01*
X85034476Y-89946457D01*
X85224952Y-89994076D01*
X85605905Y-89994076D01*
X85701143Y-89946457D01*
X85748762Y-89898838D01*
X85796381Y-89803600D01*
X85796381Y-89613123D01*
X85748762Y-89517885D01*
X85701143Y-89470266D01*
X85605905Y-89422647D01*
X85367810Y-89422647D01*
X85272571Y-89470266D01*
X85224952Y-89517885D01*
X85177333Y-89613123D01*
X85177333Y-89803600D01*
X85224952Y-89898838D01*
X85272571Y-89946457D01*
X85367810Y-89994076D01*
X68930781Y-94425734D02*
X67930781Y-94425734D01*
X67930781Y-94187639D01*
X67978400Y-94044781D01*
X68073638Y-93949543D01*
X68168876Y-93901924D01*
X68359352Y-93854305D01*
X68502210Y-93854305D01*
X68692686Y-93901924D01*
X68787924Y-93949543D01*
X68883162Y-94044781D01*
X68930781Y-94187639D01*
X68930781Y-94425734D01*
X68406971Y-93425734D02*
X68406971Y-93092400D01*
X68930781Y-92949543D02*
X68930781Y-93425734D01*
X67930781Y-93425734D01*
X67930781Y-92949543D01*
X68930781Y-92044781D02*
X68930781Y-92520972D01*
X67930781Y-92520972D01*
X68645067Y-91759067D02*
X68645067Y-91282876D01*
X68930781Y-91854305D02*
X67930781Y-91520972D01*
X68930781Y-91187638D01*
X68454590Y-90663829D02*
X68930781Y-90663829D01*
X67930781Y-90997162D02*
X68454590Y-90663829D01*
X67930781Y-90330495D01*
X67930781Y-88759066D02*
X67930781Y-89235257D01*
X68406971Y-89282876D01*
X68359352Y-89235257D01*
X68311733Y-89140019D01*
X68311733Y-88901923D01*
X68359352Y-88806685D01*
X68406971Y-88759066D01*
X68502210Y-88711447D01*
X68740305Y-88711447D01*
X68835543Y-88759066D01*
X68883162Y-88806685D01*
X68930781Y-88901923D01*
X68930781Y-89140019D01*
X68883162Y-89235257D01*
X68835543Y-89282876D01*
X77312781Y-81522534D02*
X76312781Y-81522534D01*
X76312781Y-81284439D01*
X76360400Y-81141581D01*
X76455638Y-81046343D01*
X76550876Y-80998724D01*
X76741352Y-80951105D01*
X76884210Y-80951105D01*
X77074686Y-80998724D01*
X77169924Y-81046343D01*
X77265162Y-81141581D01*
X77312781Y-81284439D01*
X77312781Y-81522534D01*
X76788971Y-80522534D02*
X76788971Y-80189200D01*
X77312781Y-80046343D02*
X77312781Y-80522534D01*
X76312781Y-80522534D01*
X76312781Y-80046343D01*
X77312781Y-79141581D02*
X77312781Y-79617772D01*
X76312781Y-79617772D01*
X77027067Y-78855867D02*
X77027067Y-78379676D01*
X77312781Y-78951105D02*
X76312781Y-78617772D01*
X77312781Y-78284438D01*
X76836590Y-77760629D02*
X77312781Y-77760629D01*
X76312781Y-78093962D02*
X76836590Y-77760629D01*
X76312781Y-77427295D01*
X76312781Y-75855866D02*
X76312781Y-76332057D01*
X76788971Y-76379676D01*
X76741352Y-76332057D01*
X76693733Y-76236819D01*
X76693733Y-75998723D01*
X76741352Y-75903485D01*
X76788971Y-75855866D01*
X76884210Y-75808247D01*
X77122305Y-75808247D01*
X77217543Y-75855866D01*
X77265162Y-75903485D01*
X77312781Y-75998723D01*
X77312781Y-76236819D01*
X77265162Y-76332057D01*
X77217543Y-76379676D01*
X68905381Y-120282934D02*
X67905381Y-120282934D01*
X67905381Y-120044839D01*
X67953000Y-119901981D01*
X68048238Y-119806743D01*
X68143476Y-119759124D01*
X68333952Y-119711505D01*
X68476810Y-119711505D01*
X68667286Y-119759124D01*
X68762524Y-119806743D01*
X68857762Y-119901981D01*
X68905381Y-120044839D01*
X68905381Y-120282934D01*
X68381571Y-119282934D02*
X68381571Y-118949600D01*
X68905381Y-118806743D02*
X68905381Y-119282934D01*
X67905381Y-119282934D01*
X67905381Y-118806743D01*
X68905381Y-117901981D02*
X68905381Y-118378172D01*
X67905381Y-118378172D01*
X68619667Y-117616267D02*
X68619667Y-117140076D01*
X68905381Y-117711505D02*
X67905381Y-117378172D01*
X68905381Y-117044838D01*
X68429190Y-116521029D02*
X68905381Y-116521029D01*
X67905381Y-116854362D02*
X68429190Y-116521029D01*
X67905381Y-116187695D01*
X68238714Y-114663885D02*
X68905381Y-114663885D01*
X67857762Y-114901981D02*
X68572048Y-115140076D01*
X68572048Y-114521028D01*
X77338181Y-107557534D02*
X76338181Y-107557534D01*
X76338181Y-107319439D01*
X76385800Y-107176581D01*
X76481038Y-107081343D01*
X76576276Y-107033724D01*
X76766752Y-106986105D01*
X76909610Y-106986105D01*
X77100086Y-107033724D01*
X77195324Y-107081343D01*
X77290562Y-107176581D01*
X77338181Y-107319439D01*
X77338181Y-107557534D01*
X76814371Y-106557534D02*
X76814371Y-106224200D01*
X77338181Y-106081343D02*
X77338181Y-106557534D01*
X76338181Y-106557534D01*
X76338181Y-106081343D01*
X77338181Y-105176581D02*
X77338181Y-105652772D01*
X76338181Y-105652772D01*
X77052467Y-104890867D02*
X77052467Y-104414676D01*
X77338181Y-104986105D02*
X76338181Y-104652772D01*
X77338181Y-104319438D01*
X76861990Y-103795629D02*
X77338181Y-103795629D01*
X76338181Y-104128962D02*
X76861990Y-103795629D01*
X76338181Y-103462295D01*
X76671514Y-101938485D02*
X77338181Y-101938485D01*
X76290562Y-102176581D02*
X77004848Y-102414676D01*
X77004848Y-101795628D01*
X93771981Y-107430534D02*
X92771981Y-107430534D01*
X92771981Y-107192439D01*
X92819600Y-107049581D01*
X92914838Y-106954343D01*
X93010076Y-106906724D01*
X93200552Y-106859105D01*
X93343410Y-106859105D01*
X93533886Y-106906724D01*
X93629124Y-106954343D01*
X93724362Y-107049581D01*
X93771981Y-107192439D01*
X93771981Y-107430534D01*
X93248171Y-106430534D02*
X93248171Y-106097200D01*
X93771981Y-105954343D02*
X93771981Y-106430534D01*
X92771981Y-106430534D01*
X92771981Y-105954343D01*
X93771981Y-105049581D02*
X93771981Y-105525772D01*
X92771981Y-105525772D01*
X93486267Y-104763867D02*
X93486267Y-104287676D01*
X93771981Y-104859105D02*
X92771981Y-104525772D01*
X93771981Y-104192438D01*
X93295790Y-103668629D02*
X93771981Y-103668629D01*
X92771981Y-104001962D02*
X93295790Y-103668629D01*
X92771981Y-103335295D01*
X92771981Y-102335295D02*
X92771981Y-101716247D01*
X93152933Y-102049581D01*
X93152933Y-101906723D01*
X93200552Y-101811485D01*
X93248171Y-101763866D01*
X93343410Y-101716247D01*
X93581505Y-101716247D01*
X93676743Y-101763866D01*
X93724362Y-101811485D01*
X93771981Y-101906723D01*
X93771981Y-102192438D01*
X93724362Y-102287676D01*
X93676743Y-102335295D01*
X85796381Y-120003534D02*
X84796381Y-120003534D01*
X84796381Y-119765439D01*
X84844000Y-119622581D01*
X84939238Y-119527343D01*
X85034476Y-119479724D01*
X85224952Y-119432105D01*
X85367810Y-119432105D01*
X85558286Y-119479724D01*
X85653524Y-119527343D01*
X85748762Y-119622581D01*
X85796381Y-119765439D01*
X85796381Y-120003534D01*
X85272571Y-119003534D02*
X85272571Y-118670200D01*
X85796381Y-118527343D02*
X85796381Y-119003534D01*
X84796381Y-119003534D01*
X84796381Y-118527343D01*
X85796381Y-117622581D02*
X85796381Y-118098772D01*
X84796381Y-118098772D01*
X85510667Y-117336867D02*
X85510667Y-116860676D01*
X85796381Y-117432105D02*
X84796381Y-117098772D01*
X85796381Y-116765438D01*
X85320190Y-116241629D02*
X85796381Y-116241629D01*
X84796381Y-116574962D02*
X85320190Y-116241629D01*
X84796381Y-115908295D01*
X84796381Y-114908295D02*
X84796381Y-114289247D01*
X85177333Y-114622581D01*
X85177333Y-114479723D01*
X85224952Y-114384485D01*
X85272571Y-114336866D01*
X85367810Y-114289247D01*
X85605905Y-114289247D01*
X85701143Y-114336866D01*
X85748762Y-114384485D01*
X85796381Y-114479723D01*
X85796381Y-114765438D01*
X85748762Y-114860676D01*
X85701143Y-114908295D01*
X102306381Y-121070334D02*
X101306381Y-121070334D01*
X101306381Y-120832239D01*
X101354000Y-120689381D01*
X101449238Y-120594143D01*
X101544476Y-120546524D01*
X101734952Y-120498905D01*
X101877810Y-120498905D01*
X102068286Y-120546524D01*
X102163524Y-120594143D01*
X102258762Y-120689381D01*
X102306381Y-120832239D01*
X102306381Y-121070334D01*
X101782571Y-120070334D02*
X101782571Y-119737000D01*
X102306381Y-119594143D02*
X102306381Y-120070334D01*
X101306381Y-120070334D01*
X101306381Y-119594143D01*
X102306381Y-118689381D02*
X102306381Y-119165572D01*
X101306381Y-119165572D01*
X102020667Y-118403667D02*
X102020667Y-117927476D01*
X102306381Y-118498905D02*
X101306381Y-118165572D01*
X102306381Y-117832238D01*
X101830190Y-117308429D02*
X102306381Y-117308429D01*
X101306381Y-117641762D02*
X101830190Y-117308429D01*
X101306381Y-116975095D01*
X101401619Y-115927476D02*
X101354000Y-115879857D01*
X101306381Y-115784619D01*
X101306381Y-115546523D01*
X101354000Y-115451285D01*
X101401619Y-115403666D01*
X101496857Y-115356047D01*
X101592095Y-115356047D01*
X101734952Y-115403666D01*
X102306381Y-115975095D01*
X102306381Y-115356047D01*
X110535981Y-107735334D02*
X109535981Y-107735334D01*
X109535981Y-107497239D01*
X109583600Y-107354381D01*
X109678838Y-107259143D01*
X109774076Y-107211524D01*
X109964552Y-107163905D01*
X110107410Y-107163905D01*
X110297886Y-107211524D01*
X110393124Y-107259143D01*
X110488362Y-107354381D01*
X110535981Y-107497239D01*
X110535981Y-107735334D01*
X110012171Y-106735334D02*
X110012171Y-106402000D01*
X110535981Y-106259143D02*
X110535981Y-106735334D01*
X109535981Y-106735334D01*
X109535981Y-106259143D01*
X110535981Y-105354381D02*
X110535981Y-105830572D01*
X109535981Y-105830572D01*
X110250267Y-105068667D02*
X110250267Y-104592476D01*
X110535981Y-105163905D02*
X109535981Y-104830572D01*
X110535981Y-104497238D01*
X110059790Y-103973429D02*
X110535981Y-103973429D01*
X109535981Y-104306762D02*
X110059790Y-103973429D01*
X109535981Y-103640095D01*
X109631219Y-102592476D02*
X109583600Y-102544857D01*
X109535981Y-102449619D01*
X109535981Y-102211523D01*
X109583600Y-102116285D01*
X109631219Y-102068666D01*
X109726457Y-102021047D01*
X109821695Y-102021047D01*
X109964552Y-102068666D01*
X110535981Y-102640095D01*
X110535981Y-102021047D01*
X126842781Y-107938534D02*
X125842781Y-107938534D01*
X125842781Y-107700439D01*
X125890400Y-107557581D01*
X125985638Y-107462343D01*
X126080876Y-107414724D01*
X126271352Y-107367105D01*
X126414210Y-107367105D01*
X126604686Y-107414724D01*
X126699924Y-107462343D01*
X126795162Y-107557581D01*
X126842781Y-107700439D01*
X126842781Y-107938534D01*
X126318971Y-106938534D02*
X126318971Y-106605200D01*
X126842781Y-106462343D02*
X126842781Y-106938534D01*
X125842781Y-106938534D01*
X125842781Y-106462343D01*
X126842781Y-105557581D02*
X126842781Y-106033772D01*
X125842781Y-106033772D01*
X126557067Y-105271867D02*
X126557067Y-104795676D01*
X126842781Y-105367105D02*
X125842781Y-105033772D01*
X126842781Y-104700438D01*
X126366590Y-104176629D02*
X126842781Y-104176629D01*
X125842781Y-104509962D02*
X126366590Y-104176629D01*
X125842781Y-103843295D01*
X126842781Y-102224247D02*
X126842781Y-102795676D01*
X126842781Y-102509962D02*
X125842781Y-102509962D01*
X125985638Y-102605200D01*
X126080876Y-102700438D01*
X126128495Y-102795676D01*
X118638581Y-120841734D02*
X117638581Y-120841734D01*
X117638581Y-120603639D01*
X117686200Y-120460781D01*
X117781438Y-120365543D01*
X117876676Y-120317924D01*
X118067152Y-120270305D01*
X118210010Y-120270305D01*
X118400486Y-120317924D01*
X118495724Y-120365543D01*
X118590962Y-120460781D01*
X118638581Y-120603639D01*
X118638581Y-120841734D01*
X118114771Y-119841734D02*
X118114771Y-119508400D01*
X118638581Y-119365543D02*
X118638581Y-119841734D01*
X117638581Y-119841734D01*
X117638581Y-119365543D01*
X118638581Y-118460781D02*
X118638581Y-118936972D01*
X117638581Y-118936972D01*
X118352867Y-118175067D02*
X118352867Y-117698876D01*
X118638581Y-118270305D02*
X117638581Y-117936972D01*
X118638581Y-117603638D01*
X118162390Y-117079829D02*
X118638581Y-117079829D01*
X117638581Y-117413162D02*
X118162390Y-117079829D01*
X117638581Y-116746495D01*
X118638581Y-115127447D02*
X118638581Y-115698876D01*
X118638581Y-115413162D02*
X117638581Y-115413162D01*
X117781438Y-115508400D01*
X117876676Y-115603638D01*
X117924295Y-115698876D01*
X144121807Y-114548659D02*
X144455141Y-115024850D01*
X144693236Y-114548659D02*
X144693236Y-115548659D01*
X144312283Y-115548659D01*
X144217045Y-115501040D01*
X144169426Y-115453421D01*
X144121807Y-115358183D01*
X144121807Y-115215326D01*
X144169426Y-115120088D01*
X144217045Y-115072469D01*
X144312283Y-115024850D01*
X144693236Y-115024850D01*
X143359902Y-115072469D02*
X143693236Y-115072469D01*
X143693236Y-114548659D02*
X143693236Y-115548659D01*
X143217045Y-115548659D01*
X81008981Y-147469691D02*
X80532790Y-147803025D01*
X81008981Y-148041120D02*
X80008981Y-148041120D01*
X80008981Y-147660167D01*
X80056600Y-147564929D01*
X80104219Y-147517310D01*
X80199457Y-147469691D01*
X80342314Y-147469691D01*
X80437552Y-147517310D01*
X80485171Y-147564929D01*
X80532790Y-147660167D01*
X80532790Y-148041120D01*
X80961362Y-146660167D02*
X81008981Y-146755405D01*
X81008981Y-146945882D01*
X80961362Y-147041120D01*
X80866124Y-147088739D01*
X80485171Y-147088739D01*
X80389933Y-147041120D01*
X80342314Y-146945882D01*
X80342314Y-146755405D01*
X80389933Y-146660167D01*
X80485171Y-146612548D01*
X80580410Y-146612548D01*
X80675648Y-147088739D01*
X81008981Y-146041120D02*
X80961362Y-146136358D01*
X80866124Y-146183977D01*
X80008981Y-146183977D01*
X81008981Y-145231595D02*
X80485171Y-145231595D01*
X80389933Y-145279214D01*
X80342314Y-145374452D01*
X80342314Y-145564929D01*
X80389933Y-145660167D01*
X80961362Y-145231595D02*
X81008981Y-145326833D01*
X81008981Y-145564929D01*
X80961362Y-145660167D01*
X80866124Y-145707786D01*
X80770886Y-145707786D01*
X80675648Y-145660167D01*
X80628029Y-145564929D01*
X80628029Y-145326833D01*
X80580410Y-145231595D01*
X80342314Y-144850643D02*
X81008981Y-144612548D01*
X80342314Y-144374452D02*
X81008981Y-144612548D01*
X81247076Y-144707786D01*
X81294695Y-144755405D01*
X81342314Y-144850643D01*
X80961362Y-144041119D02*
X81008981Y-143945881D01*
X81008981Y-143755405D01*
X80961362Y-143660166D01*
X80866124Y-143612547D01*
X80818505Y-143612547D01*
X80723267Y-143660166D01*
X80675648Y-143755405D01*
X80675648Y-143898262D01*
X80628029Y-143993500D01*
X80532790Y-144041119D01*
X80485171Y-144041119D01*
X80389933Y-143993500D01*
X80342314Y-143898262D01*
X80342314Y-143755405D01*
X80389933Y-143660166D01*
X81008981Y-141993499D02*
X80485171Y-141993499D01*
X80389933Y-142041118D01*
X80342314Y-142136356D01*
X80342314Y-142326833D01*
X80389933Y-142422071D01*
X80961362Y-141993499D02*
X81008981Y-142088737D01*
X81008981Y-142326833D01*
X80961362Y-142422071D01*
X80866124Y-142469690D01*
X80770886Y-142469690D01*
X80675648Y-142422071D01*
X80628029Y-142326833D01*
X80628029Y-142088737D01*
X80580410Y-141993499D01*
X81008981Y-141517309D02*
X80342314Y-141517309D01*
X80532790Y-141517309D02*
X80437552Y-141469690D01*
X80389933Y-141422071D01*
X80342314Y-141326833D01*
X80342314Y-141231594D01*
X80961362Y-140517308D02*
X81008981Y-140612546D01*
X81008981Y-140803023D01*
X80961362Y-140898261D01*
X80866124Y-140945880D01*
X80485171Y-140945880D01*
X80389933Y-140898261D01*
X80342314Y-140803023D01*
X80342314Y-140612546D01*
X80389933Y-140517308D01*
X80485171Y-140469689D01*
X80580410Y-140469689D01*
X80675648Y-140945880D01*
X81008981Y-139279213D02*
X80008981Y-139279213D01*
X80485171Y-139279213D02*
X80485171Y-138707784D01*
X81008981Y-138707784D02*
X80008981Y-138707784D01*
X80008981Y-138231594D02*
X80818505Y-138231594D01*
X80913743Y-138183975D01*
X80961362Y-138136356D01*
X81008981Y-138041118D01*
X81008981Y-137850641D01*
X80961362Y-137755403D01*
X80913743Y-137707784D01*
X80818505Y-137660165D01*
X80008981Y-137660165D01*
X81008981Y-137183975D02*
X80008981Y-137183975D01*
X81008981Y-135945880D02*
X80008981Y-135945880D01*
X81008981Y-135374451D02*
X80437552Y-135803023D01*
X80008981Y-135374451D02*
X80580410Y-135945880D01*
X80485171Y-134945880D02*
X80485171Y-134612546D01*
X81008981Y-134469689D02*
X81008981Y-134945880D01*
X80008981Y-134945880D01*
X80008981Y-134469689D01*
X81008981Y-133279213D02*
X80008981Y-133279213D01*
X80485171Y-133279213D02*
X80485171Y-132707784D01*
X81008981Y-132707784D02*
X80008981Y-132707784D01*
X81008981Y-132231594D02*
X80008981Y-132231594D01*
X81008981Y-131660165D02*
X80437552Y-132088737D01*
X80008981Y-131660165D02*
X80580410Y-132231594D01*
X81008981Y-130707784D02*
X81008981Y-131279213D01*
X81008981Y-130993499D02*
X80008981Y-130993499D01*
X80151838Y-131088737D01*
X80247076Y-131183975D01*
X80294695Y-131279213D01*
X81008981Y-130231594D02*
X81008981Y-130041118D01*
X80961362Y-129945879D01*
X80913743Y-129898260D01*
X80770886Y-129803022D01*
X80580410Y-129755403D01*
X80199457Y-129755403D01*
X80104219Y-129803022D01*
X80056600Y-129850641D01*
X80008981Y-129945879D01*
X80008981Y-130136356D01*
X80056600Y-130231594D01*
X80104219Y-130279213D01*
X80199457Y-130326832D01*
X80437552Y-130326832D01*
X80532790Y-130279213D01*
X80580410Y-130231594D01*
X80628029Y-130136356D01*
X80628029Y-129945879D01*
X80580410Y-129850641D01*
X80532790Y-129803022D01*
X80437552Y-129755403D01*
X80485171Y-128993498D02*
X80485171Y-129326832D01*
X81008981Y-129326832D02*
X80008981Y-129326832D01*
X80008981Y-128850641D01*
X82658981Y-149350644D02*
X81658981Y-149350644D01*
X82135171Y-149350644D02*
X82135171Y-148779215D01*
X82658981Y-148779215D02*
X81658981Y-148779215D01*
X82658981Y-148160168D02*
X82611362Y-148255406D01*
X82563743Y-148303025D01*
X82468505Y-148350644D01*
X82182790Y-148350644D01*
X82087552Y-148303025D01*
X82039933Y-148255406D01*
X81992314Y-148160168D01*
X81992314Y-148017310D01*
X82039933Y-147922072D01*
X82087552Y-147874453D01*
X82182790Y-147826834D01*
X82468505Y-147826834D01*
X82563743Y-147874453D01*
X82611362Y-147922072D01*
X82658981Y-148017310D01*
X82658981Y-148160168D01*
X81992314Y-147398263D02*
X82658981Y-147398263D01*
X82087552Y-147398263D02*
X82039933Y-147350644D01*
X81992314Y-147255406D01*
X81992314Y-147112548D01*
X82039933Y-147017310D01*
X82135171Y-146969691D01*
X82658981Y-146969691D01*
X81992314Y-146064929D02*
X82801838Y-146064929D01*
X82897076Y-146112548D01*
X82944695Y-146160167D01*
X82992314Y-146255406D01*
X82992314Y-146398263D01*
X82944695Y-146493501D01*
X82611362Y-146064929D02*
X82658981Y-146160167D01*
X82658981Y-146350644D01*
X82611362Y-146445882D01*
X82563743Y-146493501D01*
X82468505Y-146541120D01*
X82182790Y-146541120D01*
X82087552Y-146493501D01*
X82039933Y-146445882D01*
X81992314Y-146350644D01*
X81992314Y-146160167D01*
X82039933Y-146064929D01*
X81992314Y-145731596D02*
X81992314Y-145350644D01*
X82658981Y-145588739D02*
X81801838Y-145588739D01*
X81706600Y-145541120D01*
X81658981Y-145445882D01*
X81658981Y-145350644D01*
X82658981Y-144588738D02*
X82135171Y-144588738D01*
X82039933Y-144636357D01*
X81992314Y-144731595D01*
X81992314Y-144922072D01*
X82039933Y-145017310D01*
X82611362Y-144588738D02*
X82658981Y-144683976D01*
X82658981Y-144922072D01*
X82611362Y-145017310D01*
X82516124Y-145064929D01*
X82420886Y-145064929D01*
X82325648Y-145017310D01*
X82278029Y-144922072D01*
X82278029Y-144683976D01*
X82230410Y-144588738D01*
X82658981Y-143350643D02*
X81658981Y-143350643D01*
X82135171Y-143350643D02*
X82135171Y-142779214D01*
X82658981Y-142779214D02*
X81658981Y-142779214D01*
X82658981Y-142303024D02*
X81658981Y-142303024D01*
X81658981Y-142064929D01*
X81706600Y-141922071D01*
X81801838Y-141826833D01*
X81897076Y-141779214D01*
X82087552Y-141731595D01*
X82230410Y-141731595D01*
X82420886Y-141779214D01*
X82516124Y-141826833D01*
X82611362Y-141922071D01*
X82658981Y-142064929D01*
X82658981Y-142303024D01*
X82135171Y-140969690D02*
X82135171Y-141303024D01*
X82658981Y-141303024D02*
X81658981Y-141303024D01*
X81658981Y-140826833D01*
X81754219Y-140493500D02*
X81706600Y-140445881D01*
X81658981Y-140350643D01*
X81658981Y-140112547D01*
X81706600Y-140017309D01*
X81754219Y-139969690D01*
X81849457Y-139922071D01*
X81944695Y-139922071D01*
X82087552Y-139969690D01*
X82658981Y-140541119D01*
X82658981Y-139922071D01*
X81658981Y-138541119D02*
X81658981Y-138350642D01*
X81706600Y-138255404D01*
X81801838Y-138160166D01*
X81992314Y-138112547D01*
X82325648Y-138112547D01*
X82516124Y-138160166D01*
X82611362Y-138255404D01*
X82658981Y-138350642D01*
X82658981Y-138541119D01*
X82611362Y-138636357D01*
X82516124Y-138731595D01*
X82325648Y-138779214D01*
X81992314Y-138779214D01*
X81801838Y-138731595D01*
X81706600Y-138636357D01*
X81658981Y-138541119D01*
X82658981Y-137683976D02*
X81992314Y-137683976D01*
X82087552Y-137683976D02*
X82039933Y-137636357D01*
X81992314Y-137541119D01*
X81992314Y-137398261D01*
X82039933Y-137303023D01*
X82135171Y-137255404D01*
X82658981Y-137255404D01*
X82135171Y-137255404D02*
X82039933Y-137207785D01*
X81992314Y-137112547D01*
X81992314Y-136969690D01*
X82039933Y-136874452D01*
X82135171Y-136826833D01*
X82658981Y-136826833D01*
X82658981Y-136350643D02*
X81992314Y-136350643D01*
X82182790Y-136350643D02*
X82087552Y-136303024D01*
X82039933Y-136255405D01*
X81992314Y-136160167D01*
X81992314Y-136064928D01*
X82658981Y-135588738D02*
X82611362Y-135683976D01*
X82563743Y-135731595D01*
X82468505Y-135779214D01*
X82182790Y-135779214D01*
X82087552Y-135731595D01*
X82039933Y-135683976D01*
X81992314Y-135588738D01*
X81992314Y-135445880D01*
X82039933Y-135350642D01*
X82087552Y-135303023D01*
X82182790Y-135255404D01*
X82468505Y-135255404D01*
X82563743Y-135303023D01*
X82611362Y-135350642D01*
X82658981Y-135445880D01*
X82658981Y-135588738D01*
X81992314Y-134826833D02*
X82658981Y-134826833D01*
X82087552Y-134826833D02*
X82039933Y-134779214D01*
X81992314Y-134683976D01*
X81992314Y-134541118D01*
X82039933Y-134445880D01*
X82135171Y-134398261D01*
X82658981Y-134398261D01*
X81706600Y-132636356D02*
X81658981Y-132731594D01*
X81658981Y-132874451D01*
X81706600Y-133017309D01*
X81801838Y-133112547D01*
X81897076Y-133160166D01*
X82087552Y-133207785D01*
X82230410Y-133207785D01*
X82420886Y-133160166D01*
X82516124Y-133112547D01*
X82611362Y-133017309D01*
X82658981Y-132874451D01*
X82658981Y-132779213D01*
X82611362Y-132636356D01*
X82563743Y-132588737D01*
X82230410Y-132588737D01*
X82230410Y-132779213D01*
X81658981Y-131683975D02*
X81658981Y-132160166D01*
X82135171Y-132207785D01*
X82087552Y-132160166D01*
X82039933Y-132064928D01*
X82039933Y-131826832D01*
X82087552Y-131731594D01*
X82135171Y-131683975D01*
X82230410Y-131636356D01*
X82468505Y-131636356D01*
X82563743Y-131683975D01*
X82611362Y-131731594D01*
X82658981Y-131826832D01*
X82658981Y-132064928D01*
X82611362Y-132160166D01*
X82563743Y-132207785D01*
X82658981Y-130636356D02*
X82182790Y-130969690D01*
X82658981Y-131207785D02*
X81658981Y-131207785D01*
X81658981Y-130826832D01*
X81706600Y-130731594D01*
X81754219Y-130683975D01*
X81849457Y-130636356D01*
X81992314Y-130636356D01*
X82087552Y-130683975D01*
X82135171Y-130731594D01*
X82182790Y-130826832D01*
X82182790Y-131207785D01*
X81658981Y-130350642D02*
X82658981Y-130017309D01*
X81658981Y-129683975D01*
X82278029Y-129350642D02*
X82278029Y-128588737D01*
X81754219Y-128160166D02*
X81706600Y-128112547D01*
X81658981Y-128017309D01*
X81658981Y-127779213D01*
X81706600Y-127683975D01*
X81754219Y-127636356D01*
X81849457Y-127588737D01*
X81944695Y-127588737D01*
X82087552Y-127636356D01*
X82658981Y-128207785D01*
X82658981Y-127588737D01*
X148981421Y-122123531D02*
X147981421Y-122123531D01*
X148981421Y-121647341D02*
X147981421Y-121647341D01*
X148981421Y-121075912D01*
X147981421Y-121075912D01*
X148981421Y-120599722D02*
X147981421Y-120599722D01*
X147981421Y-120218769D01*
X148029040Y-120123531D01*
X148076659Y-120075912D01*
X148171897Y-120028293D01*
X148314754Y-120028293D01*
X148409992Y-120075912D01*
X148457611Y-120123531D01*
X148505230Y-120218769D01*
X148505230Y-120599722D01*
X147981421Y-119409246D02*
X147981421Y-119218769D01*
X148029040Y-119123531D01*
X148124278Y-119028293D01*
X148314754Y-118980674D01*
X148648088Y-118980674D01*
X148838564Y-119028293D01*
X148933802Y-119123531D01*
X148981421Y-119218769D01*
X148981421Y-119409246D01*
X148933802Y-119504484D01*
X148838564Y-119599722D01*
X148648088Y-119647341D01*
X148314754Y-119647341D01*
X148124278Y-119599722D01*
X148029040Y-119504484D01*
X147981421Y-119409246D01*
X148981421Y-117980674D02*
X148505230Y-118314008D01*
X148981421Y-118552103D02*
X147981421Y-118552103D01*
X147981421Y-118171150D01*
X148029040Y-118075912D01*
X148076659Y-118028293D01*
X148171897Y-117980674D01*
X148314754Y-117980674D01*
X148409992Y-118028293D01*
X148457611Y-118075912D01*
X148505230Y-118171150D01*
X148505230Y-118552103D01*
X147981421Y-117694960D02*
X147981421Y-117123531D01*
X148981421Y-117409246D02*
X147981421Y-117409246D01*
X145153047Y-135894819D02*
X145486381Y-136371010D01*
X145724476Y-135894819D02*
X145724476Y-136894819D01*
X145343523Y-136894819D01*
X145248285Y-136847200D01*
X145200666Y-136799581D01*
X145153047Y-136704343D01*
X145153047Y-136561486D01*
X145200666Y-136466248D01*
X145248285Y-136418629D01*
X145343523Y-136371010D01*
X145724476Y-136371010D01*
X144391142Y-136418629D02*
X144724476Y-136418629D01*
X144724476Y-135894819D02*
X144724476Y-136894819D01*
X144248285Y-136894819D01*
X145338704Y-124096400D02*
X145433942Y-124144019D01*
X145576799Y-124144019D01*
X145719657Y-124096400D01*
X145814895Y-124001162D01*
X145862514Y-123905924D01*
X145910133Y-123715448D01*
X145910133Y-123572590D01*
X145862514Y-123382114D01*
X145814895Y-123286876D01*
X145719657Y-123191638D01*
X145576799Y-123144019D01*
X145481561Y-123144019D01*
X145338704Y-123191638D01*
X145291085Y-123239257D01*
X145291085Y-123572590D01*
X145481561Y-123572590D01*
X144862514Y-123144019D02*
X144862514Y-124144019D01*
X144291085Y-123144019D01*
X144291085Y-124144019D01*
X143814895Y-123144019D02*
X143814895Y-124144019D01*
X143576800Y-124144019D01*
X143433942Y-124096400D01*
X143338704Y-124001162D01*
X143291085Y-123905924D01*
X143243466Y-123715448D01*
X143243466Y-123572590D01*
X143291085Y-123382114D01*
X143338704Y-123286876D01*
X143433942Y-123191638D01*
X143576800Y-123144019D01*
X143814895Y-123144019D01*
X148484341Y-100583002D02*
X148484341Y-100392525D01*
X148531960Y-100297287D01*
X148627198Y-100202049D01*
X148817674Y-100154430D01*
X149151008Y-100154430D01*
X149341484Y-100202049D01*
X149436722Y-100297287D01*
X149484341Y-100392525D01*
X149484341Y-100583002D01*
X149436722Y-100678240D01*
X149341484Y-100773478D01*
X149151008Y-100821097D01*
X148817674Y-100821097D01*
X148627198Y-100773478D01*
X148531960Y-100678240D01*
X148484341Y-100583002D01*
X148484341Y-99725859D02*
X149293865Y-99725859D01*
X149389103Y-99678240D01*
X149436722Y-99630621D01*
X149484341Y-99535383D01*
X149484341Y-99344906D01*
X149436722Y-99249668D01*
X149389103Y-99202049D01*
X149293865Y-99154430D01*
X148484341Y-99154430D01*
X148484341Y-98821097D02*
X148484341Y-98249668D01*
X149484341Y-98535383D02*
X148484341Y-98535383D01*
X149484341Y-97916335D02*
X148484341Y-97916335D01*
X148484341Y-97535382D01*
X148531960Y-97440144D01*
X148579579Y-97392525D01*
X148674817Y-97344906D01*
X148817674Y-97344906D01*
X148912912Y-97392525D01*
X148960531Y-97440144D01*
X149008150Y-97535382D01*
X149008150Y-97916335D01*
X148484341Y-96725859D02*
X148484341Y-96535382D01*
X148531960Y-96440144D01*
X148627198Y-96344906D01*
X148817674Y-96297287D01*
X149151008Y-96297287D01*
X149341484Y-96344906D01*
X149436722Y-96440144D01*
X149484341Y-96535382D01*
X149484341Y-96725859D01*
X149436722Y-96821097D01*
X149341484Y-96916335D01*
X149151008Y-96963954D01*
X148817674Y-96963954D01*
X148627198Y-96916335D01*
X148531960Y-96821097D01*
X148484341Y-96725859D01*
X149484341Y-95297287D02*
X149008150Y-95630621D01*
X149484341Y-95868716D02*
X148484341Y-95868716D01*
X148484341Y-95487763D01*
X148531960Y-95392525D01*
X148579579Y-95344906D01*
X148674817Y-95297287D01*
X148817674Y-95297287D01*
X148912912Y-95344906D01*
X148960531Y-95392525D01*
X149008150Y-95487763D01*
X149008150Y-95868716D01*
X148484341Y-95011573D02*
X148484341Y-94440144D01*
X149484341Y-94725859D02*
X148484341Y-94725859D01*
X143576136Y-102319200D02*
X143480898Y-102271581D01*
X143338041Y-102271581D01*
X143195183Y-102319200D01*
X143099945Y-102414438D01*
X143052326Y-102509676D01*
X143004707Y-102700152D01*
X143004707Y-102843010D01*
X143052326Y-103033486D01*
X143099945Y-103128724D01*
X143195183Y-103223962D01*
X143338041Y-103271581D01*
X143433279Y-103271581D01*
X143576136Y-103223962D01*
X143623755Y-103176343D01*
X143623755Y-102843010D01*
X143433279Y-102843010D01*
X144052326Y-103271581D02*
X144052326Y-102271581D01*
X144623755Y-103271581D01*
X144623755Y-102271581D01*
X145099945Y-103271581D02*
X145099945Y-102271581D01*
X145338040Y-102271581D01*
X145480898Y-102319200D01*
X145576136Y-102414438D01*
X145623755Y-102509676D01*
X145671374Y-102700152D01*
X145671374Y-102843010D01*
X145623755Y-103033486D01*
X145576136Y-103128724D01*
X145480898Y-103223962D01*
X145338040Y-103271581D01*
X145099945Y-103271581D01*
X55784715Y-114498381D02*
X55213286Y-114498381D01*
X55499000Y-114498381D02*
X55499000Y-113498381D01*
X55403762Y-113641238D01*
X55308524Y-113736476D01*
X55213286Y-113784095D01*
X66112381Y-74826048D02*
X65112381Y-74826048D01*
X65112381Y-74587953D01*
X65160000Y-74445095D01*
X65255238Y-74349857D01*
X65350476Y-74302238D01*
X65540952Y-74254619D01*
X65683810Y-74254619D01*
X65874286Y-74302238D01*
X65969524Y-74349857D01*
X66064762Y-74445095D01*
X66112381Y-74587953D01*
X66112381Y-74826048D01*
X65588571Y-73826048D02*
X65588571Y-73492714D01*
X66112381Y-73349857D02*
X66112381Y-73826048D01*
X65112381Y-73826048D01*
X65112381Y-73349857D01*
X66112381Y-72445095D02*
X66112381Y-72921286D01*
X65112381Y-72921286D01*
X65826667Y-72159381D02*
X65826667Y-71683190D01*
X66112381Y-72254619D02*
X65112381Y-71921286D01*
X66112381Y-71587952D01*
X65636190Y-71064143D02*
X66112381Y-71064143D01*
X65112381Y-71397476D02*
X65636190Y-71064143D01*
X65112381Y-70730809D01*
X65588571Y-69302237D02*
X65636190Y-69159380D01*
X65683810Y-69111761D01*
X65779048Y-69064142D01*
X65921905Y-69064142D01*
X66017143Y-69111761D01*
X66064762Y-69159380D01*
X66112381Y-69254618D01*
X66112381Y-69635571D01*
X65112381Y-69635571D01*
X65112381Y-69302237D01*
X65160000Y-69206999D01*
X65207619Y-69159380D01*
X65302857Y-69111761D01*
X65398095Y-69111761D01*
X65493333Y-69159380D01*
X65540952Y-69206999D01*
X65588571Y-69302237D01*
X65588571Y-69635571D01*
X65112381Y-68445095D02*
X65112381Y-68254618D01*
X65160000Y-68159380D01*
X65255238Y-68064142D01*
X65445714Y-68016523D01*
X65779048Y-68016523D01*
X65969524Y-68064142D01*
X66064762Y-68159380D01*
X66112381Y-68254618D01*
X66112381Y-68445095D01*
X66064762Y-68540333D01*
X65969524Y-68635571D01*
X65779048Y-68683190D01*
X65445714Y-68683190D01*
X65255238Y-68635571D01*
X65160000Y-68540333D01*
X65112381Y-68445095D01*
X65826667Y-67635571D02*
X65826667Y-67159380D01*
X66112381Y-67730809D02*
X65112381Y-67397476D01*
X66112381Y-67064142D01*
X66112381Y-66159380D02*
X65636190Y-66492714D01*
X66112381Y-66730809D02*
X65112381Y-66730809D01*
X65112381Y-66349856D01*
X65160000Y-66254618D01*
X65207619Y-66206999D01*
X65302857Y-66159380D01*
X65445714Y-66159380D01*
X65540952Y-66206999D01*
X65588571Y-66254618D01*
X65636190Y-66349856D01*
X65636190Y-66730809D01*
X66112381Y-65730809D02*
X65112381Y-65730809D01*
X65112381Y-65492714D01*
X65160000Y-65349856D01*
X65255238Y-65254618D01*
X65350476Y-65206999D01*
X65540952Y-65159380D01*
X65683810Y-65159380D01*
X65874286Y-65206999D01*
X65969524Y-65254618D01*
X66064762Y-65349856D01*
X66112381Y-65492714D01*
X66112381Y-65730809D01*
X65588571Y-63635570D02*
X65636190Y-63492713D01*
X65683810Y-63445094D01*
X65779048Y-63397475D01*
X65921905Y-63397475D01*
X66017143Y-63445094D01*
X66064762Y-63492713D01*
X66112381Y-63587951D01*
X66112381Y-63968904D01*
X65112381Y-63968904D01*
X65112381Y-63635570D01*
X65160000Y-63540332D01*
X65207619Y-63492713D01*
X65302857Y-63445094D01*
X65398095Y-63445094D01*
X65493333Y-63492713D01*
X65540952Y-63540332D01*
X65588571Y-63635570D01*
X65588571Y-63968904D01*
X65636190Y-62778428D02*
X66112381Y-62778428D01*
X65112381Y-63111761D02*
X65636190Y-62778428D01*
X65112381Y-62445094D01*
X67762381Y-74373667D02*
X66762381Y-74373667D01*
X66762381Y-74135572D01*
X66810000Y-73992714D01*
X66905238Y-73897476D01*
X67000476Y-73849857D01*
X67190952Y-73802238D01*
X67333810Y-73802238D01*
X67524286Y-73849857D01*
X67619524Y-73897476D01*
X67714762Y-73992714D01*
X67762381Y-74135572D01*
X67762381Y-74373667D01*
X67762381Y-72611762D02*
X66762381Y-72611762D01*
X67476667Y-72278428D01*
X66762381Y-71945095D01*
X67762381Y-71945095D01*
X67476667Y-71516524D02*
X67476667Y-71040333D01*
X67762381Y-71611762D02*
X66762381Y-71278429D01*
X67762381Y-70945095D01*
X67762381Y-70040333D02*
X67286190Y-70373667D01*
X67762381Y-70611762D02*
X66762381Y-70611762D01*
X66762381Y-70230809D01*
X66810000Y-70135571D01*
X66857619Y-70087952D01*
X66952857Y-70040333D01*
X67095714Y-70040333D01*
X67190952Y-70087952D01*
X67238571Y-70135571D01*
X67286190Y-70230809D01*
X67286190Y-70611762D01*
X67762381Y-69611762D02*
X66762381Y-69611762D01*
X67762381Y-69040333D02*
X67190952Y-69468905D01*
X66762381Y-69040333D02*
X67333810Y-69611762D01*
X67714762Y-68659381D02*
X67762381Y-68516524D01*
X67762381Y-68278428D01*
X67714762Y-68183190D01*
X67667143Y-68135571D01*
X67571905Y-68087952D01*
X67476667Y-68087952D01*
X67381429Y-68135571D01*
X67333810Y-68183190D01*
X67286190Y-68278428D01*
X67238571Y-68468905D01*
X67190952Y-68564143D01*
X67143333Y-68611762D01*
X67048095Y-68659381D01*
X66952857Y-68659381D01*
X66857619Y-68611762D01*
X66810000Y-68564143D01*
X66762381Y-68468905D01*
X66762381Y-68230809D01*
X66810000Y-68087952D01*
X67762381Y-66897476D02*
X66762381Y-66897476D01*
X67762381Y-66326047D02*
X67190952Y-66754619D01*
X66762381Y-66326047D02*
X67333810Y-66897476D01*
X66762381Y-65992714D02*
X67762381Y-65754619D01*
X67048095Y-65564142D01*
X67762381Y-65373666D01*
X66762381Y-65135571D01*
X67095714Y-64326047D02*
X67762381Y-64326047D01*
X66714762Y-64564143D02*
X67429048Y-64802238D01*
X67429048Y-64183190D01*
X66762381Y-63945095D02*
X66762381Y-63373666D01*
X67762381Y-63659381D02*
X66762381Y-63659381D01*
X67762381Y-63040333D02*
X66762381Y-63040333D01*
X69317143Y-73540333D02*
X69364762Y-73587952D01*
X69412381Y-73730809D01*
X69412381Y-73826047D01*
X69364762Y-73968905D01*
X69269524Y-74064143D01*
X69174286Y-74111762D01*
X68983810Y-74159381D01*
X68840952Y-74159381D01*
X68650476Y-74111762D01*
X68555238Y-74064143D01*
X68460000Y-73968905D01*
X68412381Y-73826047D01*
X68412381Y-73730809D01*
X68460000Y-73587952D01*
X68507619Y-73540333D01*
X69317143Y-72540333D02*
X69364762Y-72587952D01*
X69412381Y-72730809D01*
X69412381Y-72826047D01*
X69364762Y-72968905D01*
X69269524Y-73064143D01*
X69174286Y-73111762D01*
X68983810Y-73159381D01*
X68840952Y-73159381D01*
X68650476Y-73111762D01*
X68555238Y-73064143D01*
X68460000Y-72968905D01*
X68412381Y-72826047D01*
X68412381Y-72730809D01*
X68460000Y-72587952D01*
X68507619Y-72540333D01*
X69031429Y-72111762D02*
X69031429Y-71349857D01*
X68888571Y-70540333D02*
X68936190Y-70397476D01*
X68983810Y-70349857D01*
X69079048Y-70302238D01*
X69221905Y-70302238D01*
X69317143Y-70349857D01*
X69364762Y-70397476D01*
X69412381Y-70492714D01*
X69412381Y-70873667D01*
X68412381Y-70873667D01*
X68412381Y-70540333D01*
X68460000Y-70445095D01*
X68507619Y-70397476D01*
X68602857Y-70349857D01*
X68698095Y-70349857D01*
X68793333Y-70397476D01*
X68840952Y-70445095D01*
X68888571Y-70540333D01*
X68888571Y-70873667D01*
X68936190Y-69683191D02*
X69412381Y-69683191D01*
X68412381Y-70016524D02*
X68936190Y-69683191D01*
X68412381Y-69349857D01*
X69031429Y-69016524D02*
X69031429Y-68254619D01*
X69364762Y-67826048D02*
X69412381Y-67683191D01*
X69412381Y-67445095D01*
X69364762Y-67349857D01*
X69317143Y-67302238D01*
X69221905Y-67254619D01*
X69126667Y-67254619D01*
X69031429Y-67302238D01*
X68983810Y-67349857D01*
X68936190Y-67445095D01*
X68888571Y-67635572D01*
X68840952Y-67730810D01*
X68793333Y-67778429D01*
X68698095Y-67826048D01*
X68602857Y-67826048D01*
X68507619Y-67778429D01*
X68460000Y-67730810D01*
X68412381Y-67635572D01*
X68412381Y-67397476D01*
X68460000Y-67254619D01*
X69126667Y-66873667D02*
X69126667Y-66397476D01*
X69412381Y-66968905D02*
X68412381Y-66635572D01*
X69412381Y-66302238D01*
X68745714Y-64778428D02*
X69412381Y-64778428D01*
X68364762Y-65016524D02*
X69079048Y-65254619D01*
X69079048Y-64635571D01*
X69317143Y-64254619D02*
X69364762Y-64207000D01*
X69412381Y-64254619D01*
X69364762Y-64302238D01*
X69317143Y-64254619D01*
X69412381Y-64254619D01*
X68412381Y-63587953D02*
X68412381Y-63492714D01*
X68460000Y-63397476D01*
X68507619Y-63349857D01*
X68602857Y-63302238D01*
X68793333Y-63254619D01*
X69031429Y-63254619D01*
X69221905Y-63302238D01*
X69317143Y-63349857D01*
X69364762Y-63397476D01*
X69412381Y-63492714D01*
X69412381Y-63587953D01*
X69364762Y-63683191D01*
X69317143Y-63730810D01*
X69221905Y-63778429D01*
X69031429Y-63826048D01*
X68793333Y-63826048D01*
X68602857Y-63778429D01*
X68507619Y-63730810D01*
X68460000Y-63683191D01*
X68412381Y-63587953D01*
D12*
X95236411Y-104787337D02*
G75*
G03X95250000Y-108250000I4763589J-1712663D01*
G01*
X98287337Y-111263589D02*
G75*
G03X101750000Y-111250000I1712663J4763589D01*
G01*
X104763589Y-108212663D02*
G75*
G03X104750000Y-104750000I-4763589J1712663D01*
G01*
X101712663Y-101736411D02*
G75*
G03X98250000Y-101750000I-1712663J-4763589D01*
G01*
X128569741Y-104787337D02*
G75*
G03X128583330Y-108250000I4763589J-1712663D01*
G01*
X131620667Y-111263589D02*
G75*
G03X135083330Y-111250000I1712663J4763589D01*
G01*
X138096919Y-108212663D02*
G75*
G03X138083330Y-104750000I-4763589J1712663D01*
G01*
X135045993Y-101736411D02*
G75*
G03X131583330Y-101750000I-1712663J-4763589D01*
G01*
X111936411Y-104787337D02*
G75*
G03X111950000Y-108250000I4763589J-1712663D01*
G01*
X114987337Y-111263589D02*
G75*
G03X118450000Y-111250000I1712663J4763589D01*
G01*
X121463589Y-108212663D02*
G75*
G03X121450000Y-104750000I-4763589J1712663D01*
G01*
X118412663Y-101736411D02*
G75*
G03X114950000Y-101750000I-1712663J-4763589D01*
G01*
X103536411Y-91787337D02*
G75*
G03X103550000Y-95250000I4763589J-1712663D01*
G01*
X106587337Y-98263589D02*
G75*
G03X110050000Y-98250000I1712663J4763589D01*
G01*
X113063589Y-95212663D02*
G75*
G03X113050000Y-91750000I-4763589J1712663D01*
G01*
X110012663Y-88736411D02*
G75*
G03X106550000Y-88750000I-1712663J-4763589D01*
G01*
D13*
X100562400Y-50114700D02*
X100562400Y-71114700D01*
X110562400Y-71114700D02*
X110562400Y-50114700D01*
X110562400Y-50114700D02*
X100562400Y-50114700D01*
X106562400Y-64114700D02*
X106562400Y-69114700D01*
X106562400Y-69114700D02*
X108562400Y-69114700D01*
X104562400Y-64114700D02*
X104562400Y-69114700D01*
X104562400Y-69114700D02*
X102562400Y-69114700D01*
X102562400Y-64114700D02*
X103562400Y-64114700D01*
X108562400Y-64114700D02*
X107562400Y-64114700D01*
X102562400Y-59114700D02*
X104562400Y-59114700D01*
X104562400Y-59114700D02*
X103562400Y-66114700D01*
X108562400Y-59114700D02*
X106562400Y-59114700D01*
X106562400Y-59114700D02*
X107562400Y-66114700D01*
X100562400Y-71114700D02*
X110562400Y-71114700D01*
X104562400Y-55114700D02*
X101562400Y-55114700D01*
X109562400Y-53114700D02*
X109562400Y-55114700D01*
X109562400Y-55114700D02*
X106562400Y-55114700D01*
X106562400Y-55114700D02*
X106562400Y-53114700D01*
X106562400Y-53114700D02*
X104562400Y-53114700D01*
X104562400Y-53114700D02*
X104562400Y-57114700D01*
X104562400Y-57114700D02*
X106562400Y-57114700D01*
X106562400Y-57114700D02*
X106562400Y-55114700D01*
X101562400Y-53114700D02*
X101562400Y-55114700D01*
D12*
X78569741Y-78787337D02*
G75*
G03X78583330Y-82250000I4763589J-1712663D01*
G01*
X81620667Y-85263589D02*
G75*
G03X85083330Y-85250000I1712663J4763589D01*
G01*
X88096919Y-82212663D02*
G75*
G03X88083330Y-78750000I-4763589J1712663D01*
G01*
X85045993Y-75736411D02*
G75*
G03X81583330Y-75750000I-1712663J-4763589D01*
G01*
X103569711Y-117787337D02*
G75*
G03X103583300Y-121250000I4763589J-1712663D01*
G01*
X106620637Y-124263589D02*
G75*
G03X110083300Y-124250000I1712663J4763589D01*
G01*
X113096889Y-121212663D02*
G75*
G03X113083300Y-117750000I-4763589J1712663D01*
G01*
X110045963Y-114736411D02*
G75*
G03X106583300Y-114750000I-1712663J-4763589D01*
G01*
D13*
X79714100Y-149732500D02*
X79714100Y-128732500D01*
X69714100Y-128732500D02*
X69714100Y-149732500D01*
X69714100Y-149732500D02*
X79714100Y-149732500D01*
X73714100Y-135732500D02*
X73714100Y-130732500D01*
X73714100Y-130732500D02*
X71714100Y-130732500D01*
X75714100Y-135732500D02*
X75714100Y-130732500D01*
X75714100Y-130732500D02*
X77714100Y-130732500D01*
X77714100Y-135732500D02*
X76714100Y-135732500D01*
X71714100Y-135732500D02*
X72714100Y-135732500D01*
X77714100Y-140732500D02*
X75714100Y-140732500D01*
X75714100Y-140732500D02*
X76714100Y-133732500D01*
X71714100Y-140732500D02*
X73714100Y-140732500D01*
X73714100Y-140732500D02*
X72714100Y-133732500D01*
X79714100Y-128732500D02*
X69714100Y-128732500D01*
X75714100Y-144732500D02*
X78714100Y-144732500D01*
X70714100Y-146732500D02*
X70714100Y-144732500D01*
X70714100Y-144732500D02*
X73714100Y-144732500D01*
X73714100Y-144732500D02*
X73714100Y-146732500D01*
X73714100Y-146732500D02*
X75714100Y-146732500D01*
X75714100Y-146732500D02*
X75714100Y-142732500D01*
X75714100Y-142732500D02*
X73714100Y-142732500D01*
X73714100Y-142732500D02*
X73714100Y-144732500D01*
X78714100Y-146732500D02*
X78714100Y-144732500D01*
X96084400Y-149618200D02*
X96084400Y-128618200D01*
X86084400Y-128618200D02*
X86084400Y-149618200D01*
X86084400Y-149618200D02*
X96084400Y-149618200D01*
X90084400Y-135618200D02*
X90084400Y-130618200D01*
X90084400Y-130618200D02*
X88084400Y-130618200D01*
X92084400Y-135618200D02*
X92084400Y-130618200D01*
X92084400Y-130618200D02*
X94084400Y-130618200D01*
X94084400Y-135618200D02*
X93084400Y-135618200D01*
X88084400Y-135618200D02*
X89084400Y-135618200D01*
X94084400Y-140618200D02*
X92084400Y-140618200D01*
X92084400Y-140618200D02*
X93084400Y-133618200D01*
X88084400Y-140618200D02*
X90084400Y-140618200D01*
X90084400Y-140618200D02*
X89084400Y-133618200D01*
X96084400Y-128618200D02*
X86084400Y-128618200D01*
X92084400Y-144618200D02*
X95084400Y-144618200D01*
X87084400Y-146618200D02*
X87084400Y-144618200D01*
X87084400Y-144618200D02*
X90084400Y-144618200D01*
X90084400Y-144618200D02*
X90084400Y-146618200D01*
X90084400Y-146618200D02*
X92084400Y-146618200D01*
X92084400Y-146618200D02*
X92084400Y-142618200D01*
X92084400Y-142618200D02*
X90084400Y-142618200D01*
X90084400Y-142618200D02*
X90084400Y-144618200D01*
X95084400Y-146618200D02*
X95084400Y-144618200D01*
X139302500Y-149846800D02*
X139302500Y-128846800D01*
X129302500Y-128846800D02*
X129302500Y-149846800D01*
X129302500Y-149846800D02*
X139302500Y-149846800D01*
X133302500Y-135846800D02*
X133302500Y-130846800D01*
X133302500Y-130846800D02*
X131302500Y-130846800D01*
X135302500Y-135846800D02*
X135302500Y-130846800D01*
X135302500Y-130846800D02*
X137302500Y-130846800D01*
X137302500Y-135846800D02*
X136302500Y-135846800D01*
X131302500Y-135846800D02*
X132302500Y-135846800D01*
X137302500Y-140846800D02*
X135302500Y-140846800D01*
X135302500Y-140846800D02*
X136302500Y-133846800D01*
X131302500Y-140846800D02*
X133302500Y-140846800D01*
X133302500Y-140846800D02*
X132302500Y-133846800D01*
X139302500Y-128846800D02*
X129302500Y-128846800D01*
X135302500Y-144846800D02*
X138302500Y-144846800D01*
X130302500Y-146846800D02*
X130302500Y-144846800D01*
X130302500Y-144846800D02*
X133302500Y-144846800D01*
X133302500Y-144846800D02*
X133302500Y-146846800D01*
X133302500Y-146846800D02*
X135302500Y-146846800D01*
X135302500Y-146846800D02*
X135302500Y-142846800D01*
X135302500Y-142846800D02*
X133302500Y-142846800D01*
X133302500Y-142846800D02*
X133302500Y-144846800D01*
X138302500Y-146846800D02*
X138302500Y-144846800D01*
D12*
X54459700Y-130521000D02*
X54789700Y-130521000D01*
X54789700Y-130521000D02*
X54789700Y-136941000D01*
X54789700Y-136941000D02*
X54459700Y-136941000D01*
X52499700Y-130521000D02*
X52169700Y-130521000D01*
X52169700Y-130521000D02*
X52169700Y-136941000D01*
X52169700Y-136941000D02*
X52499700Y-136941000D01*
X67460500Y-55412000D02*
X67460500Y-50292000D01*
X70080500Y-55412000D02*
X70080500Y-50292000D01*
X67460500Y-55412000D02*
X70080500Y-55412000D01*
X67460500Y-50292000D02*
X70080500Y-50292000D01*
X64845560Y-112567080D02*
X59725560Y-112567080D01*
X64845560Y-109947080D02*
X59725560Y-109947080D01*
X64845560Y-112567080D02*
X64845560Y-109947080D01*
X59725560Y-112567080D02*
X59725560Y-109947080D01*
X60595765Y-130631308D02*
G75*
G03X63828100Y-130788216I1672335J1078608D01*
G01*
X60595765Y-128474092D02*
G75*
G02X63828100Y-128317184I1672335J-1078608D01*
G01*
X61226970Y-130632537D02*
G75*
G03X63309061Y-130632700I1041130J1079837D01*
G01*
X61226970Y-128472863D02*
G75*
G02X63309061Y-128472700I1041130J-1079837D01*
G01*
X63828100Y-130788700D02*
X63828100Y-130632700D01*
X63828100Y-128472700D02*
X63828100Y-128316700D01*
X53926300Y-72291500D02*
X54256300Y-72291500D01*
X54256300Y-72291500D02*
X54256300Y-78711500D01*
X54256300Y-78711500D02*
X53926300Y-78711500D01*
X51966300Y-72291500D02*
X51636300Y-72291500D01*
X51636300Y-72291500D02*
X51636300Y-78711500D01*
X51636300Y-78711500D02*
X51966300Y-78711500D01*
X60595765Y-139661008D02*
G75*
G03X63828100Y-139817916I1672335J1078608D01*
G01*
X60595765Y-137503792D02*
G75*
G02X63828100Y-137346884I1672335J-1078608D01*
G01*
X61226970Y-139662237D02*
G75*
G03X63309061Y-139662400I1041130J1079837D01*
G01*
X61226970Y-137502563D02*
G75*
G02X63309061Y-137502400I1041130J-1079837D01*
G01*
X63828100Y-139818400D02*
X63828100Y-139662400D01*
X63828100Y-137502400D02*
X63828100Y-137346400D01*
X60595765Y-135076308D02*
G75*
G03X63828100Y-135233216I1672335J1078608D01*
G01*
X60595765Y-132919092D02*
G75*
G02X63828100Y-132762184I1672335J-1078608D01*
G01*
X61226970Y-135077537D02*
G75*
G03X63309061Y-135077700I1041130J1079837D01*
G01*
X61226970Y-132917863D02*
G75*
G02X63309061Y-132917700I1041130J-1079837D01*
G01*
X63828100Y-135233700D02*
X63828100Y-135077700D01*
X63828100Y-132917700D02*
X63828100Y-132761700D01*
X128995800Y-144701900D02*
X128995800Y-149821900D01*
X126375800Y-144701900D02*
X126375800Y-149821900D01*
X128995800Y-144701900D02*
X126375800Y-144701900D01*
X128995800Y-149821900D02*
X126375800Y-149821900D01*
X115914800Y-144651100D02*
X115914800Y-149771100D01*
X113294800Y-144651100D02*
X113294800Y-149771100D01*
X115914800Y-144651100D02*
X113294800Y-144651100D01*
X115914800Y-149771100D02*
X113294800Y-149771100D01*
X101246300Y-144625700D02*
X101246300Y-149745700D01*
X98626300Y-144625700D02*
X98626300Y-149745700D01*
X101246300Y-144625700D02*
X98626300Y-144625700D01*
X101246300Y-149745700D02*
X98626300Y-149745700D01*
X85892000Y-144460600D02*
X85892000Y-149580600D01*
X83272000Y-144460600D02*
X83272000Y-149580600D01*
X85892000Y-144460600D02*
X83272000Y-144460600D01*
X85892000Y-149580600D02*
X83272000Y-149580600D01*
X69280400Y-144574900D02*
X69280400Y-149694900D01*
X66660400Y-144574900D02*
X66660400Y-149694900D01*
X69280400Y-144574900D02*
X66660400Y-144574900D01*
X69280400Y-149694900D02*
X66660400Y-149694900D01*
X82281400Y-55348500D02*
X82281400Y-50228500D01*
X84901400Y-55348500D02*
X84901400Y-50228500D01*
X82281400Y-55348500D02*
X84901400Y-55348500D01*
X82281400Y-50228500D02*
X84901400Y-50228500D01*
X97457900Y-55348500D02*
X97457900Y-50228500D01*
X100077900Y-55348500D02*
X100077900Y-50228500D01*
X97457900Y-55348500D02*
X100077900Y-55348500D01*
X97457900Y-50228500D02*
X100077900Y-50228500D01*
X112253400Y-55335800D02*
X112253400Y-50215800D01*
X114873400Y-55335800D02*
X114873400Y-50215800D01*
X112253400Y-55335800D02*
X114873400Y-55335800D01*
X112253400Y-50215800D02*
X114873400Y-50215800D01*
X58734400Y-60263600D02*
X58734400Y-60593600D01*
X58734400Y-60593600D02*
X52314400Y-60593600D01*
X52314400Y-60593600D02*
X52314400Y-60263600D01*
X58734400Y-58303600D02*
X58734400Y-57973600D01*
X58734400Y-57973600D02*
X52314400Y-57973600D01*
X52314400Y-57973600D02*
X52314400Y-58303600D01*
X149286000Y-53000000D02*
G75*
G03X149286000Y-53000000I-2286000J0D01*
G01*
X55286000Y-147000000D02*
G75*
G03X55286000Y-147000000I-2286000J0D01*
G01*
X51940900Y-68996000D02*
X51610900Y-68996000D01*
X51610900Y-68996000D02*
X51610900Y-62576000D01*
X51610900Y-62576000D02*
X51940900Y-62576000D01*
X53900900Y-68996000D02*
X54230900Y-68996000D01*
X54230900Y-68996000D02*
X54230900Y-62576000D01*
X54230900Y-62576000D02*
X53900900Y-62576000D01*
X60595765Y-126110108D02*
G75*
G03X63828100Y-126267016I1672335J1078608D01*
G01*
X60595765Y-123952892D02*
G75*
G02X63828100Y-123795984I1672335J-1078608D01*
G01*
X61226970Y-126111337D02*
G75*
G03X63309061Y-126111500I1041130J1079837D01*
G01*
X61226970Y-123951663D02*
G75*
G02X63309061Y-123951500I1041130J-1079837D01*
G01*
X63828100Y-126267500D02*
X63828100Y-126111500D01*
X63828100Y-123951500D02*
X63828100Y-123795500D01*
X60570365Y-121614308D02*
G75*
G03X63802700Y-121771216I1672335J1078608D01*
G01*
X60570365Y-119457092D02*
G75*
G02X63802700Y-119300184I1672335J-1078608D01*
G01*
X61201570Y-121615537D02*
G75*
G03X63283661Y-121615700I1041130J1079837D01*
G01*
X61201570Y-119455863D02*
G75*
G02X63283661Y-119455700I1041130J-1079837D01*
G01*
X63802700Y-121771700D02*
X63802700Y-121615700D01*
X63802700Y-119455700D02*
X63802700Y-119299700D01*
X58857665Y-82278608D02*
G75*
G03X62090000Y-82435516I1672335J1078608D01*
G01*
X58857665Y-80121392D02*
G75*
G02X62090000Y-79964484I1672335J-1078608D01*
G01*
X59488870Y-82279837D02*
G75*
G03X61570961Y-82280000I1041130J1079837D01*
G01*
X59488870Y-80120163D02*
G75*
G02X61570961Y-80120000I1041130J-1079837D01*
G01*
X62090000Y-82436000D02*
X62090000Y-82280000D01*
X62090000Y-80120000D02*
X62090000Y-79964000D01*
X58857665Y-77678608D02*
G75*
G03X62090000Y-77835516I1672335J1078608D01*
G01*
X58857665Y-75521392D02*
G75*
G02X62090000Y-75364484I1672335J-1078608D01*
G01*
X59488870Y-77679837D02*
G75*
G03X61570961Y-77680000I1041130J1079837D01*
G01*
X59488870Y-75520163D02*
G75*
G02X61570961Y-75520000I1041130J-1079837D01*
G01*
X62090000Y-77836000D02*
X62090000Y-77680000D01*
X62090000Y-75520000D02*
X62090000Y-75364000D01*
X58857665Y-73078608D02*
G75*
G03X62090000Y-73235516I1672335J1078608D01*
G01*
X58857665Y-70921392D02*
G75*
G02X62090000Y-70764484I1672335J-1078608D01*
G01*
X59488870Y-73079837D02*
G75*
G03X61570961Y-73080000I1041130J1079837D01*
G01*
X59488870Y-70920163D02*
G75*
G02X61570961Y-70920000I1041130J-1079837D01*
G01*
X62090000Y-73236000D02*
X62090000Y-73080000D01*
X62090000Y-70920000D02*
X62090000Y-70764000D01*
X57647400Y-130648000D02*
X57977400Y-130648000D01*
X57977400Y-130648000D02*
X57977400Y-137068000D01*
X57977400Y-137068000D02*
X57647400Y-137068000D01*
X55687400Y-130648000D02*
X55357400Y-130648000D01*
X55357400Y-130648000D02*
X55357400Y-137068000D01*
X55357400Y-137068000D02*
X55687400Y-137068000D01*
X52664800Y-126425400D02*
X52334800Y-126425400D01*
X52334800Y-126425400D02*
X52334800Y-120005400D01*
X52334800Y-120005400D02*
X52664800Y-120005400D01*
X54624800Y-126425400D02*
X54954800Y-126425400D01*
X54954800Y-126425400D02*
X54954800Y-120005400D01*
X54954800Y-120005400D02*
X54624800Y-120005400D01*
X55750900Y-126349200D02*
X55420900Y-126349200D01*
X55420900Y-126349200D02*
X55420900Y-119929200D01*
X55420900Y-119929200D02*
X55750900Y-119929200D01*
X57710900Y-126349200D02*
X58040900Y-126349200D01*
X58040900Y-126349200D02*
X58040900Y-119929200D01*
X58040900Y-119929200D02*
X57710900Y-119929200D01*
X56873700Y-115644100D02*
X56873700Y-115314100D01*
X56873700Y-115314100D02*
X63293700Y-115314100D01*
X63293700Y-115314100D02*
X63293700Y-115644100D01*
X56873700Y-117604100D02*
X56873700Y-117934100D01*
X56873700Y-117934100D02*
X63293700Y-117934100D01*
X63293700Y-117934100D02*
X63293700Y-117604100D01*
X54545000Y-78725000D02*
X54215000Y-78725000D01*
X54215000Y-78725000D02*
X54215000Y-72305000D01*
X54215000Y-72305000D02*
X54545000Y-72305000D01*
X56505000Y-78725000D02*
X56835000Y-78725000D01*
X56835000Y-78725000D02*
X56835000Y-72305000D01*
X56835000Y-72305000D02*
X56505000Y-72305000D01*
X54495000Y-69025000D02*
X54165000Y-69025000D01*
X54165000Y-69025000D02*
X54165000Y-62605000D01*
X54165000Y-62605000D02*
X54495000Y-62605000D01*
X56455000Y-69025000D02*
X56785000Y-69025000D01*
X56785000Y-69025000D02*
X56785000Y-62605000D01*
X56785000Y-62605000D02*
X56455000Y-62605000D01*
X58857665Y-68678608D02*
G75*
G03X62090000Y-68835516I1672335J1078608D01*
G01*
X58857665Y-66521392D02*
G75*
G02X62090000Y-66364484I1672335J-1078608D01*
G01*
X59488870Y-68679837D02*
G75*
G03X61570961Y-68680000I1041130J1079837D01*
G01*
X59488870Y-66520163D02*
G75*
G02X61570961Y-66520000I1041130J-1079837D01*
G01*
X62090000Y-68836000D02*
X62090000Y-68680000D01*
X62090000Y-66520000D02*
X62090000Y-66364000D01*
X58857665Y-64278608D02*
G75*
G03X62090000Y-64435516I1672335J1078608D01*
G01*
X58857665Y-62121392D02*
G75*
G02X62090000Y-61964484I1672335J-1078608D01*
G01*
X59488870Y-64279837D02*
G75*
G03X61570961Y-64280000I1041130J1079837D01*
G01*
X59488870Y-62120163D02*
G75*
G02X61570961Y-62120000I1041130J-1079837D01*
G01*
X62090000Y-64436000D02*
X62090000Y-64280000D01*
X62090000Y-62120000D02*
X62090000Y-61964000D01*
X56194000Y-86871500D02*
X50994000Y-86871500D01*
X56194000Y-109791500D02*
X56194000Y-86871500D01*
X50994000Y-112391500D02*
X50994000Y-86871500D01*
X56194000Y-109791500D02*
X53594000Y-109791500D01*
X53594000Y-109791500D02*
X53594000Y-112391500D01*
X53594000Y-112391500D02*
X50994000Y-112391500D01*
X56194000Y-111061500D02*
X56194000Y-112391500D01*
X56194000Y-112391500D02*
X54864000Y-112391500D01*
X64962400Y-89321000D02*
X59842400Y-89321000D01*
X64962400Y-86701000D02*
X59842400Y-86701000D01*
X64962400Y-89321000D02*
X64962400Y-86701000D01*
X59842400Y-89321000D02*
X59842400Y-86701000D01*
X64911600Y-91937200D02*
X59791600Y-91937200D01*
X64911600Y-89317200D02*
X59791600Y-89317200D01*
X64911600Y-91937200D02*
X64911600Y-89317200D01*
X59791600Y-91937200D02*
X59791600Y-89317200D01*
X64962400Y-94451800D02*
X59842400Y-94451800D01*
X64962400Y-91831800D02*
X59842400Y-91831800D01*
X64962400Y-94451800D02*
X64962400Y-91831800D01*
X59842400Y-94451800D02*
X59842400Y-91831800D01*
X64911600Y-97245800D02*
X59791600Y-97245800D01*
X64911600Y-94625800D02*
X59791600Y-94625800D01*
X64911600Y-97245800D02*
X64911600Y-94625800D01*
X59791600Y-97245800D02*
X59791600Y-94625800D01*
X64962400Y-99709600D02*
X59842400Y-99709600D01*
X64962400Y-97089600D02*
X59842400Y-97089600D01*
X64962400Y-99709600D02*
X64962400Y-97089600D01*
X59842400Y-99709600D02*
X59842400Y-97089600D01*
X64911600Y-102351200D02*
X59791600Y-102351200D01*
X64911600Y-99731200D02*
X59791600Y-99731200D01*
X64911600Y-102351200D02*
X64911600Y-99731200D01*
X59791600Y-102351200D02*
X59791600Y-99731200D01*
X64937000Y-104942000D02*
X59817000Y-104942000D01*
X64937000Y-102322000D02*
X59817000Y-102322000D01*
X64937000Y-104942000D02*
X64937000Y-102322000D01*
X59817000Y-104942000D02*
X59817000Y-102322000D01*
X64937000Y-107456600D02*
X59817000Y-107456600D01*
X64937000Y-104836600D02*
X59817000Y-104836600D01*
X64937000Y-107456600D02*
X64937000Y-104836600D01*
X59817000Y-107456600D02*
X59817000Y-104836600D01*
X64901440Y-109996600D02*
X59781440Y-109996600D01*
X64901440Y-107376600D02*
X59781440Y-107376600D01*
X64901440Y-109996600D02*
X64901440Y-107376600D01*
X59781440Y-109996600D02*
X59781440Y-107376600D01*
X57480840Y-148919240D02*
X57480840Y-143799240D01*
X60100840Y-148919240D02*
X60100840Y-143799240D01*
X57480840Y-148919240D02*
X57794840Y-148919240D01*
X59786840Y-148919240D02*
X60100840Y-148919240D01*
X57480840Y-143799240D02*
X57794840Y-143799240D01*
X59786840Y-143799240D02*
X60100840Y-143799240D01*
X60881900Y-148865900D02*
X60881900Y-143745900D01*
X63501900Y-148865900D02*
X63501900Y-143745900D01*
X60881900Y-148865900D02*
X61195900Y-148865900D01*
X63187900Y-148865900D02*
X63501900Y-148865900D01*
X60881900Y-143745900D02*
X61195900Y-143745900D01*
X63187900Y-143745900D02*
X63501900Y-143745900D01*
X56181300Y-142711800D02*
X51061300Y-142711800D01*
X56181300Y-140091800D02*
X51061300Y-140091800D01*
X56181300Y-142711800D02*
X56181300Y-142397800D01*
X56181300Y-140405800D02*
X56181300Y-140091800D01*
X51061300Y-142711800D02*
X51061300Y-142397800D01*
X51061300Y-140405800D02*
X51061300Y-140091800D01*
X149286000Y-147000000D02*
G75*
G03X149286000Y-147000000I-2286000J0D01*
G01*
D13*
X126069100Y-149757900D02*
X126069100Y-128757900D01*
X116069100Y-128757900D02*
X116069100Y-149757900D01*
X116069100Y-149757900D02*
X126069100Y-149757900D01*
X120069100Y-135757900D02*
X120069100Y-130757900D01*
X120069100Y-130757900D02*
X118069100Y-130757900D01*
X122069100Y-135757900D02*
X122069100Y-130757900D01*
X122069100Y-130757900D02*
X124069100Y-130757900D01*
X124069100Y-135757900D02*
X123069100Y-135757900D01*
X118069100Y-135757900D02*
X119069100Y-135757900D01*
X124069100Y-140757900D02*
X122069100Y-140757900D01*
X122069100Y-140757900D02*
X123069100Y-133757900D01*
X118069100Y-140757900D02*
X120069100Y-140757900D01*
X120069100Y-140757900D02*
X119069100Y-133757900D01*
X126069100Y-128757900D02*
X116069100Y-128757900D01*
X122069100Y-144757900D02*
X125069100Y-144757900D01*
X117069100Y-146757900D02*
X117069100Y-144757900D01*
X117069100Y-144757900D02*
X120069100Y-144757900D01*
X120069100Y-144757900D02*
X120069100Y-146757900D01*
X120069100Y-146757900D02*
X122069100Y-146757900D01*
X122069100Y-146757900D02*
X122069100Y-142757900D01*
X122069100Y-142757900D02*
X120069100Y-142757900D01*
X120069100Y-142757900D02*
X120069100Y-144757900D01*
X125069100Y-146757900D02*
X125069100Y-144757900D01*
X111565700Y-149694400D02*
X111565700Y-128694400D01*
X101565700Y-128694400D02*
X101565700Y-149694400D01*
X101565700Y-149694400D02*
X111565700Y-149694400D01*
X105565700Y-135694400D02*
X105565700Y-130694400D01*
X105565700Y-130694400D02*
X103565700Y-130694400D01*
X107565700Y-135694400D02*
X107565700Y-130694400D01*
X107565700Y-130694400D02*
X109565700Y-130694400D01*
X109565700Y-135694400D02*
X108565700Y-135694400D01*
X103565700Y-135694400D02*
X104565700Y-135694400D01*
X109565700Y-140694400D02*
X107565700Y-140694400D01*
X107565700Y-140694400D02*
X108565700Y-133694400D01*
X103565700Y-140694400D02*
X105565700Y-140694400D01*
X105565700Y-140694400D02*
X104565700Y-133694400D01*
X111565700Y-128694400D02*
X101565700Y-128694400D01*
X107565700Y-144694400D02*
X110565700Y-144694400D01*
X102565700Y-146694400D02*
X102565700Y-144694400D01*
X102565700Y-144694400D02*
X105565700Y-144694400D01*
X105565700Y-144694400D02*
X105565700Y-146694400D01*
X105565700Y-146694400D02*
X107565700Y-146694400D01*
X107565700Y-146694400D02*
X107565700Y-142694400D01*
X107565700Y-142694400D02*
X105565700Y-142694400D01*
X105565700Y-142694400D02*
X105565700Y-144694400D01*
X110565700Y-146694400D02*
X110565700Y-144694400D01*
X70361800Y-50292500D02*
X70361800Y-71292500D01*
X80361800Y-71292500D02*
X80361800Y-50292500D01*
X80361800Y-50292500D02*
X70361800Y-50292500D01*
X76361800Y-64292500D02*
X76361800Y-69292500D01*
X76361800Y-69292500D02*
X78361800Y-69292500D01*
X74361800Y-64292500D02*
X74361800Y-69292500D01*
X74361800Y-69292500D02*
X72361800Y-69292500D01*
X72361800Y-64292500D02*
X73361800Y-64292500D01*
X78361800Y-64292500D02*
X77361800Y-64292500D01*
X72361800Y-59292500D02*
X74361800Y-59292500D01*
X74361800Y-59292500D02*
X73361800Y-66292500D01*
X78361800Y-59292500D02*
X76361800Y-59292500D01*
X76361800Y-59292500D02*
X77361800Y-66292500D01*
X70361800Y-71292500D02*
X80361800Y-71292500D01*
X74361800Y-55292500D02*
X71361800Y-55292500D01*
X79361800Y-53292500D02*
X79361800Y-55292500D01*
X79361800Y-55292500D02*
X76361800Y-55292500D01*
X76361800Y-55292500D02*
X76361800Y-53292500D01*
X76361800Y-53292500D02*
X74361800Y-53292500D01*
X74361800Y-53292500D02*
X74361800Y-57292500D01*
X74361800Y-57292500D02*
X76361800Y-57292500D01*
X76361800Y-57292500D02*
X76361800Y-55292500D01*
X71361800Y-53292500D02*
X71361800Y-55292500D01*
X85271600Y-50267100D02*
X85271600Y-71267100D01*
X95271600Y-71267100D02*
X95271600Y-50267100D01*
X95271600Y-50267100D02*
X85271600Y-50267100D01*
X91271600Y-64267100D02*
X91271600Y-69267100D01*
X91271600Y-69267100D02*
X93271600Y-69267100D01*
X89271600Y-64267100D02*
X89271600Y-69267100D01*
X89271600Y-69267100D02*
X87271600Y-69267100D01*
X87271600Y-64267100D02*
X88271600Y-64267100D01*
X93271600Y-64267100D02*
X92271600Y-64267100D01*
X87271600Y-59267100D02*
X89271600Y-59267100D01*
X89271600Y-59267100D02*
X88271600Y-66267100D01*
X93271600Y-59267100D02*
X91271600Y-59267100D01*
X91271600Y-59267100D02*
X92271600Y-66267100D01*
X85271600Y-71267100D02*
X95271600Y-71267100D01*
X89271600Y-55267100D02*
X86271600Y-55267100D01*
X94271600Y-53267100D02*
X94271600Y-55267100D01*
X94271600Y-55267100D02*
X91271600Y-55267100D01*
X91271600Y-55267100D02*
X91271600Y-53267100D01*
X91271600Y-53267100D02*
X89271600Y-53267100D01*
X89271600Y-53267100D02*
X89271600Y-57267100D01*
X89271600Y-57267100D02*
X91271600Y-57267100D01*
X91271600Y-57267100D02*
X91271600Y-55267100D01*
X86271600Y-53267100D02*
X86271600Y-55267100D01*
X115256300Y-50152800D02*
X115256300Y-71152800D01*
X125256300Y-71152800D02*
X125256300Y-50152800D01*
X125256300Y-50152800D02*
X115256300Y-50152800D01*
X121256300Y-64152800D02*
X121256300Y-69152800D01*
X121256300Y-69152800D02*
X123256300Y-69152800D01*
X119256300Y-64152800D02*
X119256300Y-69152800D01*
X119256300Y-69152800D02*
X117256300Y-69152800D01*
X117256300Y-64152800D02*
X118256300Y-64152800D01*
X123256300Y-64152800D02*
X122256300Y-64152800D01*
X117256300Y-59152800D02*
X119256300Y-59152800D01*
X119256300Y-59152800D02*
X118256300Y-66152800D01*
X123256300Y-59152800D02*
X121256300Y-59152800D01*
X121256300Y-59152800D02*
X122256300Y-66152800D01*
X115256300Y-71152800D02*
X125256300Y-71152800D01*
X119256300Y-55152800D02*
X116256300Y-55152800D01*
X124256300Y-53152800D02*
X124256300Y-55152800D01*
X124256300Y-55152800D02*
X121256300Y-55152800D01*
X121256300Y-55152800D02*
X121256300Y-53152800D01*
X121256300Y-53152800D02*
X119256300Y-53152800D01*
X119256300Y-53152800D02*
X119256300Y-57152800D01*
X119256300Y-57152800D02*
X121256300Y-57152800D01*
X121256300Y-57152800D02*
X121256300Y-55152800D01*
X116256300Y-53152800D02*
X116256300Y-55152800D01*
X129162800Y-50229000D02*
X129162800Y-71229000D01*
X139162800Y-71229000D02*
X139162800Y-50229000D01*
X139162800Y-50229000D02*
X129162800Y-50229000D01*
X135162800Y-64229000D02*
X135162800Y-69229000D01*
X135162800Y-69229000D02*
X137162800Y-69229000D01*
X133162800Y-64229000D02*
X133162800Y-69229000D01*
X133162800Y-69229000D02*
X131162800Y-69229000D01*
X131162800Y-64229000D02*
X132162800Y-64229000D01*
X137162800Y-64229000D02*
X136162800Y-64229000D01*
X131162800Y-59229000D02*
X133162800Y-59229000D01*
X133162800Y-59229000D02*
X132162800Y-66229000D01*
X137162800Y-59229000D02*
X135162800Y-59229000D01*
X135162800Y-59229000D02*
X136162800Y-66229000D01*
X129162800Y-71229000D02*
X139162800Y-71229000D01*
X133162800Y-55229000D02*
X130162800Y-55229000D01*
X138162800Y-53229000D02*
X138162800Y-55229000D01*
X138162800Y-55229000D02*
X135162800Y-55229000D01*
X135162800Y-55229000D02*
X135162800Y-53229000D01*
X135162800Y-53229000D02*
X133162800Y-53229000D01*
X133162800Y-53229000D02*
X133162800Y-57229000D01*
X133162800Y-57229000D02*
X135162800Y-57229000D01*
X135162800Y-57229000D02*
X135162800Y-55229000D01*
X130162800Y-53229000D02*
X130162800Y-55229000D01*
D12*
X55286000Y-53000000D02*
G75*
G03X55286000Y-53000000I-2286000J0D01*
G01*
X70236411Y-91787337D02*
G75*
G03X70250000Y-95250000I4763589J-1712663D01*
G01*
X73287337Y-98263589D02*
G75*
G03X76750000Y-98250000I1712663J4763589D01*
G01*
X79763589Y-95212663D02*
G75*
G03X79750000Y-91750000I-4763589J1712663D01*
G01*
X76712663Y-88736411D02*
G75*
G03X73250000Y-88750000I-1712663J-4763589D01*
G01*
X95236411Y-78787337D02*
G75*
G03X95250000Y-82250000I4763589J-1712663D01*
G01*
X98287337Y-85263589D02*
G75*
G03X101750000Y-85250000I1712663J4763589D01*
G01*
X104763589Y-82212663D02*
G75*
G03X104750000Y-78750000I-4763589J1712663D01*
G01*
X101712663Y-75736411D02*
G75*
G03X98250000Y-75750000I-1712663J-4763589D01*
G01*
X120236411Y-117787337D02*
G75*
G03X120250000Y-121250000I4763589J-1712663D01*
G01*
X123287337Y-124263589D02*
G75*
G03X126750000Y-124250000I1712663J4763589D01*
G01*
X129763589Y-121212663D02*
G75*
G03X129750000Y-117750000I-4763589J1712663D01*
G01*
X126712663Y-114736411D02*
G75*
G03X123250000Y-114750000I-1712663J-4763589D01*
G01*
X86936411Y-91787337D02*
G75*
G03X86950000Y-95250000I4763589J-1712663D01*
G01*
X89987337Y-98263589D02*
G75*
G03X93450000Y-98250000I1712663J4763589D01*
G01*
X96463589Y-95212663D02*
G75*
G03X96450000Y-91750000I-4763589J1712663D01*
G01*
X93412663Y-88736411D02*
G75*
G03X89950000Y-88750000I-1712663J-4763589D01*
G01*
X111936411Y-78787337D02*
G75*
G03X111950000Y-82250000I4763589J-1712663D01*
G01*
X114987337Y-85263589D02*
G75*
G03X118450000Y-85250000I1712663J4763589D01*
G01*
X121463589Y-82212663D02*
G75*
G03X121450000Y-78750000I-4763589J1712663D01*
G01*
X118412663Y-75736411D02*
G75*
G03X114950000Y-75750000I-1712663J-4763589D01*
G01*
X128569741Y-78787337D02*
G75*
G03X128583330Y-82250000I4763589J-1712663D01*
G01*
X131620667Y-85263589D02*
G75*
G03X135083330Y-85250000I1712663J4763589D01*
G01*
X138096919Y-82212663D02*
G75*
G03X138083330Y-78750000I-4763589J1712663D01*
G01*
X135045993Y-75736411D02*
G75*
G03X131583330Y-75750000I-1712663J-4763589D01*
G01*
X86936411Y-117787337D02*
G75*
G03X86950000Y-121250000I4763589J-1712663D01*
G01*
X89987337Y-124263589D02*
G75*
G03X93450000Y-124250000I1712663J4763589D01*
G01*
X96463589Y-121212663D02*
G75*
G03X96450000Y-117750000I-4763589J1712663D01*
G01*
X93412663Y-114736411D02*
G75*
G03X89950000Y-114750000I-1712663J-4763589D01*
G01*
X120236411Y-91787337D02*
G75*
G03X120250000Y-95250000I4763589J-1712663D01*
G01*
X123287337Y-98263589D02*
G75*
G03X126750000Y-98250000I1712663J4763589D01*
G01*
X129763589Y-95212663D02*
G75*
G03X129750000Y-91750000I-4763589J1712663D01*
G01*
X126712663Y-88736411D02*
G75*
G03X123250000Y-88750000I-1712663J-4763589D01*
G01*
X70236411Y-117787337D02*
G75*
G03X70250000Y-121250000I4763589J-1712663D01*
G01*
X73287337Y-124263589D02*
G75*
G03X76750000Y-124250000I1712663J4763589D01*
G01*
X79763589Y-121212663D02*
G75*
G03X79750000Y-117750000I-4763589J1712663D01*
G01*
X76712663Y-114736411D02*
G75*
G03X73250000Y-114750000I-1712663J-4763589D01*
G01*
X78569744Y-104787337D02*
G75*
G03X78583333Y-108250000I4763589J-1712663D01*
G01*
X81620670Y-111263589D02*
G75*
G03X85083333Y-111250000I1712663J4763589D01*
G01*
X88096922Y-108212663D02*
G75*
G03X88083333Y-104750000I-4763589J1712663D01*
G01*
X85045996Y-101736411D02*
G75*
G03X81583333Y-101750000I-1712663J-4763589D01*
G01*
X126210700Y-55373900D02*
X126210700Y-50253900D01*
X128830700Y-55373900D02*
X128830700Y-50253900D01*
X126210700Y-55373900D02*
X128830700Y-55373900D01*
X126210700Y-50253900D02*
X128830700Y-50253900D01*
X146913600Y-65938400D02*
G75*
G03X146913600Y-65938400I-2286000J0D01*
G01*
X147066000Y-79146400D02*
G75*
G03X147066000Y-79146400I-2286000J0D01*
G01*
X146913600Y-85902800D02*
G75*
G03X146913600Y-85902800I-2286000J0D01*
G01*
X146913600Y-72593200D02*
G75*
G03X146913600Y-72593200I-2286000J0D01*
G01*
D14*
X154990800Y-122648000D02*
X141290800Y-122648000D01*
X141290800Y-137448000D02*
X154990800Y-137448000D01*
X141290800Y-137448000D02*
X141290800Y-122648000D01*
X154990800Y-137448000D02*
X154990800Y-122648000D01*
X154675840Y-101566000D02*
X140975840Y-101566000D01*
X140975840Y-116366000D02*
X154675840Y-116366000D01*
X140975840Y-116366000D02*
X140975840Y-101566000D01*
X154675840Y-116366000D02*
X154675840Y-101566000D01*
D12*
X142026000Y-144740000D02*
X142026000Y-149860000D01*
X139406000Y-144740000D02*
X139406000Y-149860000D01*
X142026000Y-144740000D02*
X139406000Y-144740000D01*
X142026000Y-149860000D02*
X139406000Y-149860000D01*
X139406000Y-55666000D02*
X139406000Y-50546000D01*
X142026000Y-55666000D02*
X142026000Y-50546000D01*
X139406000Y-55666000D02*
X142026000Y-55666000D01*
X139406000Y-50546000D02*
X142026000Y-50546000D01*
X58340000Y-52990000D02*
X63460000Y-52990000D01*
X58340000Y-55610000D02*
X63460000Y-55610000D01*
X58340000Y-52990000D02*
X58340000Y-53304000D01*
X58340000Y-55296000D02*
X58340000Y-55610000D01*
X63460000Y-52990000D02*
X63460000Y-53304000D01*
X63460000Y-55296000D02*
X63460000Y-55610000D01*
X58340000Y-50190000D02*
X63460000Y-50190000D01*
X58340000Y-52810000D02*
X63460000Y-52810000D01*
X58340000Y-50190000D02*
X58340000Y-50504000D01*
X58340000Y-52496000D02*
X58340000Y-52810000D01*
X63460000Y-50190000D02*
X63460000Y-50504000D01*
X63460000Y-52496000D02*
X63460000Y-52810000D01*
D11*
X92771981Y-111375723D02*
X93486267Y-111375723D01*
X93629124Y-111423343D01*
X93724362Y-111518581D01*
X93771981Y-111661438D01*
X93771981Y-111756676D01*
X92867219Y-110947152D02*
X92819600Y-110899533D01*
X92771981Y-110804295D01*
X92771981Y-110566199D01*
X92819600Y-110470961D01*
X92867219Y-110423342D01*
X92962457Y-110375723D01*
X93057695Y-110375723D01*
X93200552Y-110423342D01*
X93771981Y-110994771D01*
X93771981Y-110375723D01*
X92771981Y-110042390D02*
X92771981Y-109423342D01*
X93152933Y-109756676D01*
X93152933Y-109613818D01*
X93200552Y-109518580D01*
X93248171Y-109470961D01*
X93343410Y-109423342D01*
X93581505Y-109423342D01*
X93676743Y-109470961D01*
X93724362Y-109518580D01*
X93771981Y-109613818D01*
X93771981Y-109899533D01*
X93724362Y-109994771D01*
X93676743Y-110042390D01*
X125918981Y-111451923D02*
X126633267Y-111451923D01*
X126776124Y-111499543D01*
X126871362Y-111594781D01*
X126918981Y-111737638D01*
X126918981Y-111832876D01*
X126918981Y-110451923D02*
X126918981Y-111023352D01*
X126918981Y-110737638D02*
X125918981Y-110737638D01*
X126061838Y-110832876D01*
X126157076Y-110928114D01*
X126204695Y-111023352D01*
X125918981Y-109832876D02*
X125918981Y-109737637D01*
X125966600Y-109642399D01*
X126014219Y-109594780D01*
X126109457Y-109547161D01*
X126299933Y-109499542D01*
X126538029Y-109499542D01*
X126728505Y-109547161D01*
X126823743Y-109594780D01*
X126871362Y-109642399D01*
X126918981Y-109737637D01*
X126918981Y-109832876D01*
X126871362Y-109928114D01*
X126823743Y-109975733D01*
X126728505Y-110023352D01*
X126538029Y-110070971D01*
X126299933Y-110070971D01*
X126109457Y-110023352D01*
X126014219Y-109975733D01*
X125966600Y-109928114D01*
X125918981Y-109832876D01*
X109535981Y-111299523D02*
X110250267Y-111299523D01*
X110393124Y-111347143D01*
X110488362Y-111442381D01*
X110535981Y-111585238D01*
X110535981Y-111680476D01*
X110535981Y-110299523D02*
X110535981Y-110870952D01*
X110535981Y-110585238D02*
X109535981Y-110585238D01*
X109678838Y-110680476D01*
X109774076Y-110775714D01*
X109821695Y-110870952D01*
X110535981Y-109823333D02*
X110535981Y-109632857D01*
X110488362Y-109537618D01*
X110440743Y-109489999D01*
X110297886Y-109394761D01*
X110107410Y-109347142D01*
X109726457Y-109347142D01*
X109631219Y-109394761D01*
X109583600Y-109442380D01*
X109535981Y-109537618D01*
X109535981Y-109728095D01*
X109583600Y-109823333D01*
X109631219Y-109870952D01*
X109726457Y-109918571D01*
X109964552Y-109918571D01*
X110059790Y-109870952D01*
X110107410Y-109823333D01*
X110155029Y-109728095D01*
X110155029Y-109537618D01*
X110107410Y-109442380D01*
X110059790Y-109394761D01*
X109964552Y-109347142D01*
X100950781Y-98193123D02*
X101665067Y-98193123D01*
X101807924Y-98240743D01*
X101903162Y-98335981D01*
X101950781Y-98478838D01*
X101950781Y-98574076D01*
X101950781Y-97193123D02*
X101950781Y-97764552D01*
X101950781Y-97478838D02*
X100950781Y-97478838D01*
X101093638Y-97574076D01*
X101188876Y-97669314D01*
X101236495Y-97764552D01*
X101379352Y-96621695D02*
X101331733Y-96716933D01*
X101284114Y-96764552D01*
X101188876Y-96812171D01*
X101141257Y-96812171D01*
X101046019Y-96764552D01*
X100998400Y-96716933D01*
X100950781Y-96621695D01*
X100950781Y-96431218D01*
X100998400Y-96335980D01*
X101046019Y-96288361D01*
X101141257Y-96240742D01*
X101188876Y-96240742D01*
X101284114Y-96288361D01*
X101331733Y-96335980D01*
X101379352Y-96431218D01*
X101379352Y-96621695D01*
X101426971Y-96716933D01*
X101474590Y-96764552D01*
X101569829Y-96812171D01*
X101760305Y-96812171D01*
X101855543Y-96764552D01*
X101903162Y-96716933D01*
X101950781Y-96621695D01*
X101950781Y-96431218D01*
X101903162Y-96335980D01*
X101855543Y-96288361D01*
X101760305Y-96240742D01*
X101569829Y-96240742D01*
X101474590Y-96288361D01*
X101426971Y-96335980D01*
X101379352Y-96431218D01*
X104562400Y-70567081D02*
X104229066Y-70090890D01*
X103990971Y-70567081D02*
X103990971Y-69567081D01*
X104371924Y-69567081D01*
X104467162Y-69614700D01*
X104514781Y-69662319D01*
X104562400Y-69757557D01*
X104562400Y-69900414D01*
X104514781Y-69995652D01*
X104467162Y-70043271D01*
X104371924Y-70090890D01*
X103990971Y-70090890D01*
X105467162Y-70567081D02*
X104990971Y-70567081D01*
X104990971Y-69567081D01*
X105990971Y-70090890D02*
X105990971Y-70567081D01*
X105657638Y-69567081D02*
X105990971Y-70090890D01*
X106324305Y-69567081D01*
X106800495Y-69995652D02*
X106705257Y-69948033D01*
X106657638Y-69900414D01*
X106610019Y-69805176D01*
X106610019Y-69757557D01*
X106657638Y-69662319D01*
X106705257Y-69614700D01*
X106800495Y-69567081D01*
X106990972Y-69567081D01*
X107086210Y-69614700D01*
X107133829Y-69662319D01*
X107181448Y-69757557D01*
X107181448Y-69805176D01*
X107133829Y-69900414D01*
X107086210Y-69948033D01*
X106990972Y-69995652D01*
X106800495Y-69995652D01*
X106705257Y-70043271D01*
X106657638Y-70090890D01*
X106610019Y-70186129D01*
X106610019Y-70376605D01*
X106657638Y-70471843D01*
X106705257Y-70519462D01*
X106800495Y-70567081D01*
X106990972Y-70567081D01*
X107086210Y-70519462D01*
X107133829Y-70471843D01*
X107181448Y-70376605D01*
X107181448Y-70186129D01*
X107133829Y-70090890D01*
X107086210Y-70043271D01*
X106990972Y-69995652D01*
X105062400Y-63852795D02*
X105014781Y-63948033D01*
X105014781Y-64090890D01*
X105062400Y-64233748D01*
X105157638Y-64328986D01*
X105252876Y-64376605D01*
X105443352Y-64424224D01*
X105586210Y-64424224D01*
X105776686Y-64376605D01*
X105871924Y-64328986D01*
X105967162Y-64233748D01*
X106014781Y-64090890D01*
X106014781Y-63995652D01*
X105967162Y-63852795D01*
X105919543Y-63805176D01*
X105586210Y-63805176D01*
X105586210Y-63995652D01*
X105014781Y-62900414D02*
X105014781Y-63376605D01*
X105490971Y-63424224D01*
X105443352Y-63376605D01*
X105395733Y-63281367D01*
X105395733Y-63043271D01*
X105443352Y-62948033D01*
X105490971Y-62900414D01*
X105586210Y-62852795D01*
X105824305Y-62852795D01*
X105919543Y-62900414D01*
X105967162Y-62948033D01*
X106014781Y-63043271D01*
X106014781Y-63281367D01*
X105967162Y-63376605D01*
X105919543Y-63424224D01*
X105014781Y-62567081D02*
X106014781Y-62233748D01*
X105014781Y-61900414D01*
X105633829Y-61567081D02*
X105633829Y-60805176D01*
X105110019Y-60376605D02*
X105062400Y-60328986D01*
X105014781Y-60233748D01*
X105014781Y-59995652D01*
X105062400Y-59900414D01*
X105110019Y-59852795D01*
X105205257Y-59805176D01*
X105300495Y-59805176D01*
X105443352Y-59852795D01*
X106014781Y-60424224D01*
X106014781Y-59805176D01*
X76245211Y-85113233D02*
X76959497Y-85113233D01*
X77102354Y-85160853D01*
X77197592Y-85256091D01*
X77245211Y-85398948D01*
X77245211Y-85494186D01*
X77245211Y-84113233D02*
X77245211Y-84684662D01*
X77245211Y-84398948D02*
X76245211Y-84398948D01*
X76388068Y-84494186D01*
X76483306Y-84589424D01*
X76530925Y-84684662D01*
X101331781Y-124380523D02*
X102046067Y-124380523D01*
X102188924Y-124428143D01*
X102284162Y-124523381D01*
X102331781Y-124666238D01*
X102331781Y-124761476D01*
X102331781Y-123380523D02*
X102331781Y-123951952D01*
X102331781Y-123666238D02*
X101331781Y-123666238D01*
X101474638Y-123761476D01*
X101569876Y-123856714D01*
X101617495Y-123951952D01*
X101427019Y-122999571D02*
X101379400Y-122951952D01*
X101331781Y-122856714D01*
X101331781Y-122618618D01*
X101379400Y-122523380D01*
X101427019Y-122475761D01*
X101522257Y-122428142D01*
X101617495Y-122428142D01*
X101760352Y-122475761D01*
X102331781Y-123047190D01*
X102331781Y-122428142D01*
X73714100Y-130184881D02*
X73380766Y-129708690D01*
X73142671Y-130184881D02*
X73142671Y-129184881D01*
X73523624Y-129184881D01*
X73618862Y-129232500D01*
X73666481Y-129280119D01*
X73714100Y-129375357D01*
X73714100Y-129518214D01*
X73666481Y-129613452D01*
X73618862Y-129661071D01*
X73523624Y-129708690D01*
X73142671Y-129708690D01*
X74618862Y-130184881D02*
X74142671Y-130184881D01*
X74142671Y-129184881D01*
X75142671Y-129708690D02*
X75142671Y-130184881D01*
X74809338Y-129184881D02*
X75142671Y-129708690D01*
X75476005Y-129184881D01*
X76285529Y-129184881D02*
X75809338Y-129184881D01*
X75761719Y-129661071D01*
X75809338Y-129613452D01*
X75904576Y-129565833D01*
X76142672Y-129565833D01*
X76237910Y-129613452D01*
X76285529Y-129661071D01*
X76333148Y-129756310D01*
X76333148Y-129994405D01*
X76285529Y-130089643D01*
X76237910Y-130137262D01*
X76142672Y-130184881D01*
X75904576Y-130184881D01*
X75809338Y-130137262D01*
X75761719Y-130089643D01*
X74214100Y-139470595D02*
X74166481Y-139565833D01*
X74166481Y-139708690D01*
X74214100Y-139851548D01*
X74309338Y-139946786D01*
X74404576Y-139994405D01*
X74595052Y-140042024D01*
X74737910Y-140042024D01*
X74928386Y-139994405D01*
X75023624Y-139946786D01*
X75118862Y-139851548D01*
X75166481Y-139708690D01*
X75166481Y-139613452D01*
X75118862Y-139470595D01*
X75071243Y-139422976D01*
X74737910Y-139422976D01*
X74737910Y-139613452D01*
X74166481Y-138518214D02*
X74166481Y-138994405D01*
X74642671Y-139042024D01*
X74595052Y-138994405D01*
X74547433Y-138899167D01*
X74547433Y-138661071D01*
X74595052Y-138565833D01*
X74642671Y-138518214D01*
X74737910Y-138470595D01*
X74976005Y-138470595D01*
X75071243Y-138518214D01*
X75118862Y-138565833D01*
X75166481Y-138661071D01*
X75166481Y-138899167D01*
X75118862Y-138994405D01*
X75071243Y-139042024D01*
X74166481Y-138184881D02*
X75166481Y-137851548D01*
X74166481Y-137518214D01*
X74785529Y-137184881D02*
X74785529Y-136422976D01*
X74261719Y-135994405D02*
X74214100Y-135946786D01*
X74166481Y-135851548D01*
X74166481Y-135613452D01*
X74214100Y-135518214D01*
X74261719Y-135470595D01*
X74356957Y-135422976D01*
X74452195Y-135422976D01*
X74595052Y-135470595D01*
X75166481Y-136042024D01*
X75166481Y-135422976D01*
X90084400Y-130070581D02*
X89751066Y-129594390D01*
X89512971Y-130070581D02*
X89512971Y-129070581D01*
X89893924Y-129070581D01*
X89989162Y-129118200D01*
X90036781Y-129165819D01*
X90084400Y-129261057D01*
X90084400Y-129403914D01*
X90036781Y-129499152D01*
X89989162Y-129546771D01*
X89893924Y-129594390D01*
X89512971Y-129594390D01*
X90989162Y-130070581D02*
X90512971Y-130070581D01*
X90512971Y-129070581D01*
X91512971Y-129594390D02*
X91512971Y-130070581D01*
X91179638Y-129070581D02*
X91512971Y-129594390D01*
X91846305Y-129070581D01*
X92608210Y-129403914D02*
X92608210Y-130070581D01*
X92370114Y-129022962D02*
X92132019Y-129737248D01*
X92751067Y-129737248D01*
X90584400Y-139356295D02*
X90536781Y-139451533D01*
X90536781Y-139594390D01*
X90584400Y-139737248D01*
X90679638Y-139832486D01*
X90774876Y-139880105D01*
X90965352Y-139927724D01*
X91108210Y-139927724D01*
X91298686Y-139880105D01*
X91393924Y-139832486D01*
X91489162Y-139737248D01*
X91536781Y-139594390D01*
X91536781Y-139499152D01*
X91489162Y-139356295D01*
X91441543Y-139308676D01*
X91108210Y-139308676D01*
X91108210Y-139499152D01*
X90536781Y-138403914D02*
X90536781Y-138880105D01*
X91012971Y-138927724D01*
X90965352Y-138880105D01*
X90917733Y-138784867D01*
X90917733Y-138546771D01*
X90965352Y-138451533D01*
X91012971Y-138403914D01*
X91108210Y-138356295D01*
X91346305Y-138356295D01*
X91441543Y-138403914D01*
X91489162Y-138451533D01*
X91536781Y-138546771D01*
X91536781Y-138784867D01*
X91489162Y-138880105D01*
X91441543Y-138927724D01*
X90536781Y-138070581D02*
X91536781Y-137737248D01*
X90536781Y-137403914D01*
X91155829Y-137070581D02*
X91155829Y-136308676D01*
X90632019Y-135880105D02*
X90584400Y-135832486D01*
X90536781Y-135737248D01*
X90536781Y-135499152D01*
X90584400Y-135403914D01*
X90632019Y-135356295D01*
X90727257Y-135308676D01*
X90822495Y-135308676D01*
X90965352Y-135356295D01*
X91536781Y-135927724D01*
X91536781Y-135308676D01*
X133302500Y-130299181D02*
X132969166Y-129822990D01*
X132731071Y-130299181D02*
X132731071Y-129299181D01*
X133112024Y-129299181D01*
X133207262Y-129346800D01*
X133254881Y-129394419D01*
X133302500Y-129489657D01*
X133302500Y-129632514D01*
X133254881Y-129727752D01*
X133207262Y-129775371D01*
X133112024Y-129822990D01*
X132731071Y-129822990D01*
X134207262Y-130299181D02*
X133731071Y-130299181D01*
X133731071Y-129299181D01*
X134731071Y-129822990D02*
X134731071Y-130299181D01*
X134397738Y-129299181D02*
X134731071Y-129822990D01*
X135064405Y-129299181D01*
X135921548Y-130299181D02*
X135350119Y-130299181D01*
X135635833Y-130299181D02*
X135635833Y-129299181D01*
X135540595Y-129442038D01*
X135445357Y-129537276D01*
X135350119Y-129584895D01*
X133802500Y-139584895D02*
X133754881Y-139680133D01*
X133754881Y-139822990D01*
X133802500Y-139965848D01*
X133897738Y-140061086D01*
X133992976Y-140108705D01*
X134183452Y-140156324D01*
X134326310Y-140156324D01*
X134516786Y-140108705D01*
X134612024Y-140061086D01*
X134707262Y-139965848D01*
X134754881Y-139822990D01*
X134754881Y-139727752D01*
X134707262Y-139584895D01*
X134659643Y-139537276D01*
X134326310Y-139537276D01*
X134326310Y-139727752D01*
X133754881Y-138632514D02*
X133754881Y-139108705D01*
X134231071Y-139156324D01*
X134183452Y-139108705D01*
X134135833Y-139013467D01*
X134135833Y-138775371D01*
X134183452Y-138680133D01*
X134231071Y-138632514D01*
X134326310Y-138584895D01*
X134564405Y-138584895D01*
X134659643Y-138632514D01*
X134707262Y-138680133D01*
X134754881Y-138775371D01*
X134754881Y-139013467D01*
X134707262Y-139108705D01*
X134659643Y-139156324D01*
X133754881Y-138299181D02*
X134754881Y-137965848D01*
X133754881Y-137632514D01*
X134373929Y-137299181D02*
X134373929Y-136537276D01*
X133850119Y-136108705D02*
X133802500Y-136061086D01*
X133754881Y-135965848D01*
X133754881Y-135727752D01*
X133802500Y-135632514D01*
X133850119Y-135584895D01*
X133945357Y-135537276D01*
X134040595Y-135537276D01*
X134183452Y-135584895D01*
X134754881Y-136156324D01*
X134754881Y-135537276D01*
X53906681Y-133834166D02*
X53430490Y-134167500D01*
X53906681Y-134405595D02*
X52906681Y-134405595D01*
X52906681Y-134024642D01*
X52954300Y-133929404D01*
X53001919Y-133881785D01*
X53097157Y-133834166D01*
X53240014Y-133834166D01*
X53335252Y-133881785D01*
X53382871Y-133929404D01*
X53430490Y-134024642D01*
X53430490Y-134405595D01*
X53240014Y-132977023D02*
X53906681Y-132977023D01*
X52859062Y-133215119D02*
X53573348Y-133453214D01*
X53573348Y-132834166D01*
X69139843Y-56751066D02*
X69187462Y-56798685D01*
X69235081Y-56941542D01*
X69235081Y-57036780D01*
X69187462Y-57179638D01*
X69092224Y-57274876D01*
X68996986Y-57322495D01*
X68806510Y-57370114D01*
X68663652Y-57370114D01*
X68473176Y-57322495D01*
X68377938Y-57274876D01*
X68282700Y-57179638D01*
X68235081Y-57036780D01*
X68235081Y-56941542D01*
X68282700Y-56798685D01*
X68330319Y-56751066D01*
X68235081Y-55893923D02*
X68235081Y-56084400D01*
X68282700Y-56179638D01*
X68330319Y-56227257D01*
X68473176Y-56322495D01*
X68663652Y-56370114D01*
X69044605Y-56370114D01*
X69139843Y-56322495D01*
X69187462Y-56274876D01*
X69235081Y-56179638D01*
X69235081Y-55989161D01*
X69187462Y-55893923D01*
X69139843Y-55846304D01*
X69044605Y-55798685D01*
X68806510Y-55798685D01*
X68711271Y-55846304D01*
X68663652Y-55893923D01*
X68616033Y-55989161D01*
X68616033Y-56179638D01*
X68663652Y-56274876D01*
X68711271Y-56322495D01*
X68806510Y-56370114D01*
X57584103Y-111558343D02*
X57536484Y-111605962D01*
X57393627Y-111653581D01*
X57298389Y-111653581D01*
X57155531Y-111605962D01*
X57060293Y-111510724D01*
X57012674Y-111415486D01*
X56965055Y-111225010D01*
X56965055Y-111082152D01*
X57012674Y-110891676D01*
X57060293Y-110796438D01*
X57155531Y-110701200D01*
X57298389Y-110653581D01*
X57393627Y-110653581D01*
X57536484Y-110701200D01*
X57584103Y-110748819D01*
X57965055Y-110748819D02*
X58012674Y-110701200D01*
X58107912Y-110653581D01*
X58346008Y-110653581D01*
X58441246Y-110701200D01*
X58488865Y-110748819D01*
X58536484Y-110844057D01*
X58536484Y-110939295D01*
X58488865Y-111082152D01*
X57917436Y-111653581D01*
X58536484Y-111653581D01*
X58869817Y-110653581D02*
X59488865Y-110653581D01*
X59155531Y-111034533D01*
X59298389Y-111034533D01*
X59393627Y-111082152D01*
X59441246Y-111129771D01*
X59488865Y-111225010D01*
X59488865Y-111463105D01*
X59441246Y-111558343D01*
X59393627Y-111605962D01*
X59298389Y-111653581D01*
X59012674Y-111653581D01*
X58917436Y-111605962D01*
X58869817Y-111558343D01*
X59454041Y-130062195D02*
X58454041Y-130062195D01*
X58454041Y-129824100D01*
X58501660Y-129681242D01*
X58596898Y-129586004D01*
X58692136Y-129538385D01*
X58882612Y-129490766D01*
X59025470Y-129490766D01*
X59215946Y-129538385D01*
X59311184Y-129586004D01*
X59406422Y-129681242D01*
X59454041Y-129824100D01*
X59454041Y-130062195D01*
X58454041Y-129157433D02*
X58454041Y-128538385D01*
X58834993Y-128871719D01*
X58834993Y-128728861D01*
X58882612Y-128633623D01*
X58930231Y-128586004D01*
X59025470Y-128538385D01*
X59263565Y-128538385D01*
X59358803Y-128586004D01*
X59406422Y-128633623D01*
X59454041Y-128728861D01*
X59454041Y-129014576D01*
X59406422Y-129109814D01*
X59358803Y-129157433D01*
X53322481Y-75566566D02*
X52846290Y-75899900D01*
X53322481Y-76137995D02*
X52322481Y-76137995D01*
X52322481Y-75757042D01*
X52370100Y-75661804D01*
X52417719Y-75614185D01*
X52512957Y-75566566D01*
X52655814Y-75566566D01*
X52751052Y-75614185D01*
X52798671Y-75661804D01*
X52846290Y-75757042D01*
X52846290Y-76137995D01*
X53322481Y-75090376D02*
X53322481Y-74899900D01*
X53274862Y-74804661D01*
X53227243Y-74757042D01*
X53084386Y-74661804D01*
X52893910Y-74614185D01*
X52512957Y-74614185D01*
X52417719Y-74661804D01*
X52370100Y-74709423D01*
X52322481Y-74804661D01*
X52322481Y-74995138D01*
X52370100Y-75090376D01*
X52417719Y-75137995D01*
X52512957Y-75185614D01*
X52751052Y-75185614D01*
X52846290Y-75137995D01*
X52893910Y-75090376D01*
X52941529Y-74995138D01*
X52941529Y-74804661D01*
X52893910Y-74709423D01*
X52846290Y-74661804D01*
X52751052Y-74614185D01*
X59456581Y-139053795D02*
X58456581Y-139053795D01*
X58456581Y-138815700D01*
X58504200Y-138672842D01*
X58599438Y-138577604D01*
X58694676Y-138529985D01*
X58885152Y-138482366D01*
X59028010Y-138482366D01*
X59218486Y-138529985D01*
X59313724Y-138577604D01*
X59408962Y-138672842D01*
X59456581Y-138815700D01*
X59456581Y-139053795D01*
X59456581Y-137529985D02*
X59456581Y-138101414D01*
X59456581Y-137815700D02*
X58456581Y-137815700D01*
X58599438Y-137910938D01*
X58694676Y-138006176D01*
X58742295Y-138101414D01*
X59408321Y-134878035D02*
X58408321Y-134878035D01*
X58408321Y-134639940D01*
X58455940Y-134497082D01*
X58551178Y-134401844D01*
X58646416Y-134354225D01*
X58836892Y-134306606D01*
X58979750Y-134306606D01*
X59170226Y-134354225D01*
X59265464Y-134401844D01*
X59360702Y-134497082D01*
X59408321Y-134639940D01*
X59408321Y-134878035D01*
X58503559Y-133925654D02*
X58455940Y-133878035D01*
X58408321Y-133782797D01*
X58408321Y-133544701D01*
X58455940Y-133449463D01*
X58503559Y-133401844D01*
X58598797Y-133354225D01*
X58694035Y-133354225D01*
X58836892Y-133401844D01*
X59408321Y-133973273D01*
X59408321Y-133354225D01*
X128098823Y-143608086D02*
X128146442Y-143655705D01*
X128194061Y-143798562D01*
X128194061Y-143893800D01*
X128146442Y-144036658D01*
X128051204Y-144131896D01*
X127955966Y-144179515D01*
X127765490Y-144227134D01*
X127622632Y-144227134D01*
X127432156Y-144179515D01*
X127336918Y-144131896D01*
X127241680Y-144036658D01*
X127194061Y-143893800D01*
X127194061Y-143798562D01*
X127241680Y-143655705D01*
X127289299Y-143608086D01*
X128194061Y-142655705D02*
X128194061Y-143227134D01*
X128194061Y-142941420D02*
X127194061Y-142941420D01*
X127336918Y-143036658D01*
X127432156Y-143131896D01*
X127479775Y-143227134D01*
X115027543Y-143492166D02*
X115075162Y-143539785D01*
X115122781Y-143682642D01*
X115122781Y-143777880D01*
X115075162Y-143920738D01*
X114979924Y-144015976D01*
X114884686Y-144063595D01*
X114694210Y-144111214D01*
X114551352Y-144111214D01*
X114360876Y-144063595D01*
X114265638Y-144015976D01*
X114170400Y-143920738D01*
X114122781Y-143777880D01*
X114122781Y-143682642D01*
X114170400Y-143539785D01*
X114218019Y-143492166D01*
X114218019Y-143111214D02*
X114170400Y-143063595D01*
X114122781Y-142968357D01*
X114122781Y-142730261D01*
X114170400Y-142635023D01*
X114218019Y-142587404D01*
X114313257Y-142539785D01*
X114408495Y-142539785D01*
X114551352Y-142587404D01*
X115122781Y-143158833D01*
X115122781Y-142539785D01*
X100434443Y-143384966D02*
X100482062Y-143432585D01*
X100529681Y-143575442D01*
X100529681Y-143670680D01*
X100482062Y-143813538D01*
X100386824Y-143908776D01*
X100291586Y-143956395D01*
X100101110Y-144004014D01*
X99958252Y-144004014D01*
X99767776Y-143956395D01*
X99672538Y-143908776D01*
X99577300Y-143813538D01*
X99529681Y-143670680D01*
X99529681Y-143575442D01*
X99577300Y-143432585D01*
X99624919Y-143384966D01*
X99529681Y-143051633D02*
X99529681Y-142432585D01*
X99910633Y-142765919D01*
X99910633Y-142623061D01*
X99958252Y-142527823D01*
X100005871Y-142480204D01*
X100101110Y-142432585D01*
X100339205Y-142432585D01*
X100434443Y-142480204D01*
X100482062Y-142527823D01*
X100529681Y-142623061D01*
X100529681Y-142908776D01*
X100482062Y-143004014D01*
X100434443Y-143051633D01*
X84956743Y-143183666D02*
X85004362Y-143231285D01*
X85051981Y-143374142D01*
X85051981Y-143469380D01*
X85004362Y-143612238D01*
X84909124Y-143707476D01*
X84813886Y-143755095D01*
X84623410Y-143802714D01*
X84480552Y-143802714D01*
X84290076Y-143755095D01*
X84194838Y-143707476D01*
X84099600Y-143612238D01*
X84051981Y-143469380D01*
X84051981Y-143374142D01*
X84099600Y-143231285D01*
X84147219Y-143183666D01*
X84385314Y-142326523D02*
X85051981Y-142326523D01*
X84004362Y-142564619D02*
X84718648Y-142802714D01*
X84718648Y-142183666D01*
X68339943Y-143502766D02*
X68387562Y-143550385D01*
X68435181Y-143693242D01*
X68435181Y-143788480D01*
X68387562Y-143931338D01*
X68292324Y-144026576D01*
X68197086Y-144074195D01*
X68006610Y-144121814D01*
X67863752Y-144121814D01*
X67673276Y-144074195D01*
X67578038Y-144026576D01*
X67482800Y-143931338D01*
X67435181Y-143788480D01*
X67435181Y-143693242D01*
X67482800Y-143550385D01*
X67530419Y-143502766D01*
X67435181Y-142598004D02*
X67435181Y-143074195D01*
X67911371Y-143121814D01*
X67863752Y-143074195D01*
X67816133Y-142978957D01*
X67816133Y-142740861D01*
X67863752Y-142645623D01*
X67911371Y-142598004D01*
X68006610Y-142550385D01*
X68244705Y-142550385D01*
X68339943Y-142598004D01*
X68387562Y-142645623D01*
X68435181Y-142740861D01*
X68435181Y-142978957D01*
X68387562Y-143074195D01*
X68339943Y-143121814D01*
X83860743Y-56906766D02*
X83908362Y-56954385D01*
X83955981Y-57097242D01*
X83955981Y-57192480D01*
X83908362Y-57335338D01*
X83813124Y-57430576D01*
X83717886Y-57478195D01*
X83527410Y-57525814D01*
X83384552Y-57525814D01*
X83194076Y-57478195D01*
X83098838Y-57430576D01*
X83003600Y-57335338D01*
X82955981Y-57192480D01*
X82955981Y-57097242D01*
X83003600Y-56954385D01*
X83051219Y-56906766D01*
X82955981Y-56573433D02*
X82955981Y-55906766D01*
X83955981Y-56335338D01*
X99063043Y-56815566D02*
X99110662Y-56863185D01*
X99158281Y-57006042D01*
X99158281Y-57101280D01*
X99110662Y-57244138D01*
X99015424Y-57339376D01*
X98920186Y-57386995D01*
X98729710Y-57434614D01*
X98586852Y-57434614D01*
X98396376Y-57386995D01*
X98301138Y-57339376D01*
X98205900Y-57244138D01*
X98158281Y-57101280D01*
X98158281Y-57006042D01*
X98205900Y-56863185D01*
X98253519Y-56815566D01*
X98586852Y-56244138D02*
X98539233Y-56339376D01*
X98491614Y-56386995D01*
X98396376Y-56434614D01*
X98348757Y-56434614D01*
X98253519Y-56386995D01*
X98205900Y-56339376D01*
X98158281Y-56244138D01*
X98158281Y-56053661D01*
X98205900Y-55958423D01*
X98253519Y-55910804D01*
X98348757Y-55863185D01*
X98396376Y-55863185D01*
X98491614Y-55910804D01*
X98539233Y-55958423D01*
X98586852Y-56053661D01*
X98586852Y-56244138D01*
X98634471Y-56339376D01*
X98682090Y-56386995D01*
X98777329Y-56434614D01*
X98967805Y-56434614D01*
X99063043Y-56386995D01*
X99110662Y-56339376D01*
X99158281Y-56244138D01*
X99158281Y-56053661D01*
X99110662Y-55958423D01*
X99063043Y-55910804D01*
X98967805Y-55863185D01*
X98777329Y-55863185D01*
X98682090Y-55910804D01*
X98634471Y-55958423D01*
X98586852Y-56053661D01*
X113982343Y-56879866D02*
X114029962Y-56927485D01*
X114077581Y-57070342D01*
X114077581Y-57165580D01*
X114029962Y-57308438D01*
X113934724Y-57403676D01*
X113839486Y-57451295D01*
X113649010Y-57498914D01*
X113506152Y-57498914D01*
X113315676Y-57451295D01*
X113220438Y-57403676D01*
X113125200Y-57308438D01*
X113077581Y-57165580D01*
X113077581Y-57070342D01*
X113125200Y-56927485D01*
X113172819Y-56879866D01*
X114077581Y-56403676D02*
X114077581Y-56213200D01*
X114029962Y-56117961D01*
X113982343Y-56070342D01*
X113839486Y-55975104D01*
X113649010Y-55927485D01*
X113268057Y-55927485D01*
X113172819Y-55975104D01*
X113125200Y-56022723D01*
X113077581Y-56117961D01*
X113077581Y-56308438D01*
X113125200Y-56403676D01*
X113172819Y-56451295D01*
X113268057Y-56498914D01*
X113506152Y-56498914D01*
X113601390Y-56451295D01*
X113649010Y-56403676D01*
X113696629Y-56308438D01*
X113696629Y-56117961D01*
X113649010Y-56022723D01*
X113601390Y-55975104D01*
X113506152Y-55927485D01*
X55408534Y-59837581D02*
X55075200Y-59361390D01*
X54837105Y-59837581D02*
X54837105Y-58837581D01*
X55218058Y-58837581D01*
X55313296Y-58885200D01*
X55360915Y-58932819D01*
X55408534Y-59028057D01*
X55408534Y-59170914D01*
X55360915Y-59266152D01*
X55313296Y-59313771D01*
X55218058Y-59361390D01*
X54837105Y-59361390D01*
X56360915Y-59837581D02*
X55789486Y-59837581D01*
X56075200Y-59837581D02*
X56075200Y-58837581D01*
X55979962Y-58980438D01*
X55884724Y-59075676D01*
X55789486Y-59123295D01*
X148550381Y-57705523D02*
X149264667Y-57705523D01*
X149407524Y-57753143D01*
X149502762Y-57848381D01*
X149550381Y-57991238D01*
X149550381Y-58086476D01*
X149550381Y-56705523D02*
X149550381Y-57276952D01*
X149550381Y-56991238D02*
X148550381Y-56991238D01*
X148693238Y-57086476D01*
X148788476Y-57181714D01*
X148836095Y-57276952D01*
X148550381Y-56372190D02*
X148550381Y-55753142D01*
X148931333Y-56086476D01*
X148931333Y-55943618D01*
X148978952Y-55848380D01*
X149026571Y-55800761D01*
X149121810Y-55753142D01*
X149359905Y-55753142D01*
X149455143Y-55800761D01*
X149502762Y-55848380D01*
X149550381Y-55943618D01*
X149550381Y-56229333D01*
X149502762Y-56324571D01*
X149455143Y-56372190D01*
X51641477Y-142708381D02*
X51641477Y-143422667D01*
X51593857Y-143565524D01*
X51498619Y-143660762D01*
X51355762Y-143708381D01*
X51260524Y-143708381D01*
X52641477Y-143708381D02*
X52070048Y-143708381D01*
X52355762Y-143708381D02*
X52355762Y-142708381D01*
X52260524Y-142851238D01*
X52165286Y-142946476D01*
X52070048Y-142994095D01*
X53498620Y-143041714D02*
X53498620Y-143708381D01*
X53260524Y-142660762D02*
X53022429Y-143375048D01*
X53641477Y-143375048D01*
X53322481Y-66155866D02*
X52846290Y-66489200D01*
X53322481Y-66727295D02*
X52322481Y-66727295D01*
X52322481Y-66346342D01*
X52370100Y-66251104D01*
X52417719Y-66203485D01*
X52512957Y-66155866D01*
X52655814Y-66155866D01*
X52751052Y-66203485D01*
X52798671Y-66251104D01*
X52846290Y-66346342D01*
X52846290Y-66727295D01*
X52417719Y-65774914D02*
X52370100Y-65727295D01*
X52322481Y-65632057D01*
X52322481Y-65393961D01*
X52370100Y-65298723D01*
X52417719Y-65251104D01*
X52512957Y-65203485D01*
X52608195Y-65203485D01*
X52751052Y-65251104D01*
X53322481Y-65822533D01*
X53322481Y-65203485D01*
X59570881Y-125652755D02*
X58570881Y-125652755D01*
X58570881Y-125414660D01*
X58618500Y-125271802D01*
X58713738Y-125176564D01*
X58808976Y-125128945D01*
X58999452Y-125081326D01*
X59142310Y-125081326D01*
X59332786Y-125128945D01*
X59428024Y-125176564D01*
X59523262Y-125271802D01*
X59570881Y-125414660D01*
X59570881Y-125652755D01*
X58904214Y-124224183D02*
X59570881Y-124224183D01*
X58523262Y-124462279D02*
X59237548Y-124700374D01*
X59237548Y-124081326D01*
X59494681Y-121070595D02*
X58494681Y-121070595D01*
X58494681Y-120832500D01*
X58542300Y-120689642D01*
X58637538Y-120594404D01*
X58732776Y-120546785D01*
X58923252Y-120499166D01*
X59066110Y-120499166D01*
X59256586Y-120546785D01*
X59351824Y-120594404D01*
X59447062Y-120689642D01*
X59494681Y-120832500D01*
X59494681Y-121070595D01*
X58494681Y-119594404D02*
X58494681Y-120070595D01*
X58970871Y-120118214D01*
X58923252Y-120070595D01*
X58875633Y-119975357D01*
X58875633Y-119737261D01*
X58923252Y-119642023D01*
X58970871Y-119594404D01*
X59066110Y-119546785D01*
X59304205Y-119546785D01*
X59399443Y-119594404D01*
X59447062Y-119642023D01*
X59494681Y-119737261D01*
X59494681Y-119975357D01*
X59447062Y-120070595D01*
X59399443Y-120118214D01*
X58058841Y-81668855D02*
X57058841Y-81668855D01*
X57058841Y-81430760D01*
X57106460Y-81287902D01*
X57201698Y-81192664D01*
X57296936Y-81145045D01*
X57487412Y-81097426D01*
X57630270Y-81097426D01*
X57820746Y-81145045D01*
X57915984Y-81192664D01*
X58011222Y-81287902D01*
X58058841Y-81430760D01*
X58058841Y-81668855D01*
X57058841Y-80240283D02*
X57058841Y-80430760D01*
X57106460Y-80525998D01*
X57154079Y-80573617D01*
X57296936Y-80668855D01*
X57487412Y-80716474D01*
X57868365Y-80716474D01*
X57963603Y-80668855D01*
X58011222Y-80621236D01*
X58058841Y-80525998D01*
X58058841Y-80335521D01*
X58011222Y-80240283D01*
X57963603Y-80192664D01*
X57868365Y-80145045D01*
X57630270Y-80145045D01*
X57535031Y-80192664D01*
X57487412Y-80240283D01*
X57439793Y-80335521D01*
X57439793Y-80525998D01*
X57487412Y-80621236D01*
X57535031Y-80668855D01*
X57630270Y-80716474D01*
X57982641Y-77221255D02*
X56982641Y-77221255D01*
X56982641Y-76983160D01*
X57030260Y-76840302D01*
X57125498Y-76745064D01*
X57220736Y-76697445D01*
X57411212Y-76649826D01*
X57554070Y-76649826D01*
X57744546Y-76697445D01*
X57839784Y-76745064D01*
X57935022Y-76840302D01*
X57982641Y-76983160D01*
X57982641Y-77221255D01*
X56982641Y-76316493D02*
X56982641Y-75649826D01*
X57982641Y-76078398D01*
X58096941Y-72661895D02*
X57096941Y-72661895D01*
X57096941Y-72423800D01*
X57144560Y-72280942D01*
X57239798Y-72185704D01*
X57335036Y-72138085D01*
X57525512Y-72090466D01*
X57668370Y-72090466D01*
X57858846Y-72138085D01*
X57954084Y-72185704D01*
X58049322Y-72280942D01*
X58096941Y-72423800D01*
X58096941Y-72661895D01*
X57525512Y-71519038D02*
X57477893Y-71614276D01*
X57430274Y-71661895D01*
X57335036Y-71709514D01*
X57287417Y-71709514D01*
X57192179Y-71661895D01*
X57144560Y-71614276D01*
X57096941Y-71519038D01*
X57096941Y-71328561D01*
X57144560Y-71233323D01*
X57192179Y-71185704D01*
X57287417Y-71138085D01*
X57335036Y-71138085D01*
X57430274Y-71185704D01*
X57477893Y-71233323D01*
X57525512Y-71328561D01*
X57525512Y-71519038D01*
X57573131Y-71614276D01*
X57620750Y-71661895D01*
X57715989Y-71709514D01*
X57906465Y-71709514D01*
X58001703Y-71661895D01*
X58049322Y-71614276D01*
X58096941Y-71519038D01*
X58096941Y-71328561D01*
X58049322Y-71233323D01*
X58001703Y-71185704D01*
X57906465Y-71138085D01*
X57715989Y-71138085D01*
X57620750Y-71185704D01*
X57573131Y-71233323D01*
X57525512Y-71328561D01*
X56891181Y-134367566D02*
X56414990Y-134700900D01*
X56891181Y-134938995D02*
X55891181Y-134938995D01*
X55891181Y-134558042D01*
X55938800Y-134462804D01*
X55986419Y-134415185D01*
X56081657Y-134367566D01*
X56224514Y-134367566D01*
X56319752Y-134415185D01*
X56367371Y-134462804D01*
X56414990Y-134558042D01*
X56414990Y-134938995D01*
X55891181Y-134034233D02*
X55891181Y-133415185D01*
X56272133Y-133748519D01*
X56272133Y-133605661D01*
X56319752Y-133510423D01*
X56367371Y-133462804D01*
X56462610Y-133415185D01*
X56700705Y-133415185D01*
X56795943Y-133462804D01*
X56843562Y-133510423D01*
X56891181Y-133605661D01*
X56891181Y-133891376D01*
X56843562Y-133986614D01*
X56795943Y-134034233D01*
X54236881Y-123369366D02*
X53760690Y-123702700D01*
X54236881Y-123940795D02*
X53236881Y-123940795D01*
X53236881Y-123559842D01*
X53284500Y-123464604D01*
X53332119Y-123416985D01*
X53427357Y-123369366D01*
X53570214Y-123369366D01*
X53665452Y-123416985D01*
X53713071Y-123464604D01*
X53760690Y-123559842D01*
X53760690Y-123940795D01*
X53236881Y-122464604D02*
X53236881Y-122940795D01*
X53713071Y-122988414D01*
X53665452Y-122940795D01*
X53617833Y-122845557D01*
X53617833Y-122607461D01*
X53665452Y-122512223D01*
X53713071Y-122464604D01*
X53808310Y-122416985D01*
X54046405Y-122416985D01*
X54141643Y-122464604D01*
X54189262Y-122512223D01*
X54236881Y-122607461D01*
X54236881Y-122845557D01*
X54189262Y-122940795D01*
X54141643Y-122988414D01*
X57195981Y-123178866D02*
X56719790Y-123512200D01*
X57195981Y-123750295D02*
X56195981Y-123750295D01*
X56195981Y-123369342D01*
X56243600Y-123274104D01*
X56291219Y-123226485D01*
X56386457Y-123178866D01*
X56529314Y-123178866D01*
X56624552Y-123226485D01*
X56672171Y-123274104D01*
X56719790Y-123369342D01*
X56719790Y-123750295D01*
X56195981Y-122321723D02*
X56195981Y-122512200D01*
X56243600Y-122607438D01*
X56291219Y-122655057D01*
X56434076Y-122750295D01*
X56624552Y-122797914D01*
X57005505Y-122797914D01*
X57100743Y-122750295D01*
X57148362Y-122702676D01*
X57195981Y-122607438D01*
X57195981Y-122416961D01*
X57148362Y-122321723D01*
X57100743Y-122274104D01*
X57005505Y-122226485D01*
X56767410Y-122226485D01*
X56672171Y-122274104D01*
X56624552Y-122321723D01*
X56576933Y-122416961D01*
X56576933Y-122607438D01*
X56624552Y-122702676D01*
X56672171Y-122750295D01*
X56767410Y-122797914D01*
X60018634Y-117152681D02*
X59685300Y-116676490D01*
X59447205Y-117152681D02*
X59447205Y-116152681D01*
X59828158Y-116152681D01*
X59923396Y-116200300D01*
X59971015Y-116247919D01*
X60018634Y-116343157D01*
X60018634Y-116486014D01*
X59971015Y-116581252D01*
X59923396Y-116628871D01*
X59828158Y-116676490D01*
X59447205Y-116676490D01*
X60351967Y-116152681D02*
X61018634Y-116152681D01*
X60590062Y-117152681D01*
X56078981Y-75529266D02*
X55602790Y-75862600D01*
X56078981Y-76100695D02*
X55078981Y-76100695D01*
X55078981Y-75719742D01*
X55126600Y-75624504D01*
X55174219Y-75576885D01*
X55269457Y-75529266D01*
X55412314Y-75529266D01*
X55507552Y-75576885D01*
X55555171Y-75624504D01*
X55602790Y-75719742D01*
X55602790Y-76100695D01*
X55507552Y-74957838D02*
X55459933Y-75053076D01*
X55412314Y-75100695D01*
X55317076Y-75148314D01*
X55269457Y-75148314D01*
X55174219Y-75100695D01*
X55126600Y-75053076D01*
X55078981Y-74957838D01*
X55078981Y-74767361D01*
X55126600Y-74672123D01*
X55174219Y-74624504D01*
X55269457Y-74576885D01*
X55317076Y-74576885D01*
X55412314Y-74624504D01*
X55459933Y-74672123D01*
X55507552Y-74767361D01*
X55507552Y-74957838D01*
X55555171Y-75053076D01*
X55602790Y-75100695D01*
X55698029Y-75148314D01*
X55888505Y-75148314D01*
X55983743Y-75100695D01*
X56031362Y-75053076D01*
X56078981Y-74957838D01*
X56078981Y-74767361D01*
X56031362Y-74672123D01*
X55983743Y-74624504D01*
X55888505Y-74576885D01*
X55698029Y-74576885D01*
X55602790Y-74624504D01*
X55555171Y-74672123D01*
X55507552Y-74767361D01*
X56143281Y-66470557D02*
X55667090Y-66803891D01*
X56143281Y-67041986D02*
X55143281Y-67041986D01*
X55143281Y-66661033D01*
X55190900Y-66565795D01*
X55238519Y-66518176D01*
X55333757Y-66470557D01*
X55476614Y-66470557D01*
X55571852Y-66518176D01*
X55619471Y-66565795D01*
X55667090Y-66661033D01*
X55667090Y-67041986D01*
X56143281Y-65518176D02*
X56143281Y-66089605D01*
X56143281Y-65803891D02*
X55143281Y-65803891D01*
X55286138Y-65899129D01*
X55381376Y-65994367D01*
X55428995Y-66089605D01*
X55143281Y-64899129D02*
X55143281Y-64803890D01*
X55190900Y-64708652D01*
X55238519Y-64661033D01*
X55333757Y-64613414D01*
X55524233Y-64565795D01*
X55762329Y-64565795D01*
X55952805Y-64613414D01*
X56048043Y-64661033D01*
X56095662Y-64708652D01*
X56143281Y-64803890D01*
X56143281Y-64899129D01*
X56095662Y-64994367D01*
X56048043Y-65041986D01*
X55952805Y-65089605D01*
X55762329Y-65137224D01*
X55524233Y-65137224D01*
X55333757Y-65089605D01*
X55238519Y-65041986D01*
X55190900Y-64994367D01*
X55143281Y-64899129D01*
X57911521Y-68198395D02*
X56911521Y-68198395D01*
X56911521Y-67960300D01*
X56959140Y-67817442D01*
X57054378Y-67722204D01*
X57149616Y-67674585D01*
X57340092Y-67626966D01*
X57482950Y-67626966D01*
X57673426Y-67674585D01*
X57768664Y-67722204D01*
X57863902Y-67817442D01*
X57911521Y-67960300D01*
X57911521Y-68198395D01*
X57911521Y-67150776D02*
X57911521Y-66960300D01*
X57863902Y-66865061D01*
X57816283Y-66817442D01*
X57673426Y-66722204D01*
X57482950Y-66674585D01*
X57101997Y-66674585D01*
X57006759Y-66722204D01*
X56959140Y-66769823D01*
X56911521Y-66865061D01*
X56911521Y-67055538D01*
X56959140Y-67150776D01*
X57006759Y-67198395D01*
X57101997Y-67246014D01*
X57340092Y-67246014D01*
X57435330Y-67198395D01*
X57482950Y-67150776D01*
X57530569Y-67055538D01*
X57530569Y-66865061D01*
X57482950Y-66769823D01*
X57435330Y-66722204D01*
X57340092Y-66674585D01*
X57969941Y-64553986D02*
X56969941Y-64553986D01*
X56969941Y-64315891D01*
X57017560Y-64173033D01*
X57112798Y-64077795D01*
X57208036Y-64030176D01*
X57398512Y-63982557D01*
X57541370Y-63982557D01*
X57731846Y-64030176D01*
X57827084Y-64077795D01*
X57922322Y-64173033D01*
X57969941Y-64315891D01*
X57969941Y-64553986D01*
X57969941Y-63030176D02*
X57969941Y-63601605D01*
X57969941Y-63315891D02*
X56969941Y-63315891D01*
X57112798Y-63411129D01*
X57208036Y-63506367D01*
X57255655Y-63601605D01*
X56969941Y-62411129D02*
X56969941Y-62315890D01*
X57017560Y-62220652D01*
X57065179Y-62173033D01*
X57160417Y-62125414D01*
X57350893Y-62077795D01*
X57588989Y-62077795D01*
X57779465Y-62125414D01*
X57874703Y-62173033D01*
X57922322Y-62220652D01*
X57969941Y-62315890D01*
X57969941Y-62411129D01*
X57922322Y-62506367D01*
X57874703Y-62553986D01*
X57779465Y-62601605D01*
X57588989Y-62649224D01*
X57350893Y-62649224D01*
X57160417Y-62601605D01*
X57065179Y-62553986D01*
X57017560Y-62506367D01*
X56969941Y-62411129D01*
X51260477Y-113498381D02*
X51260477Y-114212667D01*
X51212857Y-114355524D01*
X51117619Y-114450762D01*
X50974762Y-114498381D01*
X50879524Y-114498381D01*
X52260477Y-114498381D02*
X51689048Y-114498381D01*
X51974762Y-114498381D02*
X51974762Y-113498381D01*
X51879524Y-113641238D01*
X51784286Y-113736476D01*
X51689048Y-113784095D01*
X52593810Y-113498381D02*
X53260477Y-113498381D01*
X52831905Y-114498381D01*
X57614583Y-88484983D02*
X57566964Y-88532602D01*
X57424107Y-88580221D01*
X57328869Y-88580221D01*
X57186011Y-88532602D01*
X57090773Y-88437364D01*
X57043154Y-88342126D01*
X56995535Y-88151650D01*
X56995535Y-88008792D01*
X57043154Y-87818316D01*
X57090773Y-87723078D01*
X57186011Y-87627840D01*
X57328869Y-87580221D01*
X57424107Y-87580221D01*
X57566964Y-87627840D01*
X57614583Y-87675459D01*
X58566964Y-88580221D02*
X57995535Y-88580221D01*
X58281249Y-88580221D02*
X58281249Y-87580221D01*
X58186011Y-87723078D01*
X58090773Y-87818316D01*
X57995535Y-87865935D01*
X59424107Y-87913554D02*
X59424107Y-88580221D01*
X59186011Y-87532602D02*
X58947916Y-88246888D01*
X59566964Y-88246888D01*
X57538383Y-90923383D02*
X57490764Y-90971002D01*
X57347907Y-91018621D01*
X57252669Y-91018621D01*
X57109811Y-90971002D01*
X57014573Y-90875764D01*
X56966954Y-90780526D01*
X56919335Y-90590050D01*
X56919335Y-90447192D01*
X56966954Y-90256716D01*
X57014573Y-90161478D01*
X57109811Y-90066240D01*
X57252669Y-90018621D01*
X57347907Y-90018621D01*
X57490764Y-90066240D01*
X57538383Y-90113859D01*
X58490764Y-91018621D02*
X57919335Y-91018621D01*
X58205049Y-91018621D02*
X58205049Y-90018621D01*
X58109811Y-90161478D01*
X58014573Y-90256716D01*
X57919335Y-90304335D01*
X59395526Y-90018621D02*
X58919335Y-90018621D01*
X58871716Y-90494811D01*
X58919335Y-90447192D01*
X59014573Y-90399573D01*
X59252669Y-90399573D01*
X59347907Y-90447192D01*
X59395526Y-90494811D01*
X59443145Y-90590050D01*
X59443145Y-90828145D01*
X59395526Y-90923383D01*
X59347907Y-90971002D01*
X59252669Y-91018621D01*
X59014573Y-91018621D01*
X58919335Y-90971002D01*
X58871716Y-90923383D01*
X57421543Y-93437983D02*
X57373924Y-93485602D01*
X57231067Y-93533221D01*
X57135829Y-93533221D01*
X56992971Y-93485602D01*
X56897733Y-93390364D01*
X56850114Y-93295126D01*
X56802495Y-93104650D01*
X56802495Y-92961792D01*
X56850114Y-92771316D01*
X56897733Y-92676078D01*
X56992971Y-92580840D01*
X57135829Y-92533221D01*
X57231067Y-92533221D01*
X57373924Y-92580840D01*
X57421543Y-92628459D01*
X58373924Y-93533221D02*
X57802495Y-93533221D01*
X58088209Y-93533221D02*
X58088209Y-92533221D01*
X57992971Y-92676078D01*
X57897733Y-92771316D01*
X57802495Y-92818935D01*
X59231067Y-92533221D02*
X59040590Y-92533221D01*
X58945352Y-92580840D01*
X58897733Y-92628459D01*
X58802495Y-92771316D01*
X58754876Y-92961792D01*
X58754876Y-93342745D01*
X58802495Y-93437983D01*
X58850114Y-93485602D01*
X58945352Y-93533221D01*
X59135829Y-93533221D01*
X59231067Y-93485602D01*
X59278686Y-93437983D01*
X59326305Y-93342745D01*
X59326305Y-93104650D01*
X59278686Y-93009411D01*
X59231067Y-92961792D01*
X59135829Y-92914173D01*
X58945352Y-92914173D01*
X58850114Y-92961792D01*
X58802495Y-93009411D01*
X58754876Y-93104650D01*
X57421543Y-96140543D02*
X57373924Y-96188162D01*
X57231067Y-96235781D01*
X57135829Y-96235781D01*
X56992971Y-96188162D01*
X56897733Y-96092924D01*
X56850114Y-95997686D01*
X56802495Y-95807210D01*
X56802495Y-95664352D01*
X56850114Y-95473876D01*
X56897733Y-95378638D01*
X56992971Y-95283400D01*
X57135829Y-95235781D01*
X57231067Y-95235781D01*
X57373924Y-95283400D01*
X57421543Y-95331019D01*
X58373924Y-96235781D02*
X57802495Y-96235781D01*
X58088209Y-96235781D02*
X58088209Y-95235781D01*
X57992971Y-95378638D01*
X57897733Y-95473876D01*
X57802495Y-95521495D01*
X58707257Y-95235781D02*
X59373924Y-95235781D01*
X58945352Y-96235781D01*
X57421543Y-98731343D02*
X57373924Y-98778962D01*
X57231067Y-98826581D01*
X57135829Y-98826581D01*
X56992971Y-98778962D01*
X56897733Y-98683724D01*
X56850114Y-98588486D01*
X56802495Y-98398010D01*
X56802495Y-98255152D01*
X56850114Y-98064676D01*
X56897733Y-97969438D01*
X56992971Y-97874200D01*
X57135829Y-97826581D01*
X57231067Y-97826581D01*
X57373924Y-97874200D01*
X57421543Y-97921819D01*
X58373924Y-98826581D02*
X57802495Y-98826581D01*
X58088209Y-98826581D02*
X58088209Y-97826581D01*
X57992971Y-97969438D01*
X57897733Y-98064676D01*
X57802495Y-98112295D01*
X58945352Y-98255152D02*
X58850114Y-98207533D01*
X58802495Y-98159914D01*
X58754876Y-98064676D01*
X58754876Y-98017057D01*
X58802495Y-97921819D01*
X58850114Y-97874200D01*
X58945352Y-97826581D01*
X59135829Y-97826581D01*
X59231067Y-97874200D01*
X59278686Y-97921819D01*
X59326305Y-98017057D01*
X59326305Y-98064676D01*
X59278686Y-98159914D01*
X59231067Y-98207533D01*
X59135829Y-98255152D01*
X58945352Y-98255152D01*
X58850114Y-98302771D01*
X58802495Y-98350390D01*
X58754876Y-98445629D01*
X58754876Y-98636105D01*
X58802495Y-98731343D01*
X58850114Y-98778962D01*
X58945352Y-98826581D01*
X59135829Y-98826581D01*
X59231067Y-98778962D01*
X59278686Y-98731343D01*
X59326305Y-98636105D01*
X59326305Y-98445629D01*
X59278686Y-98350390D01*
X59231067Y-98302771D01*
X59135829Y-98255152D01*
X57416463Y-101444063D02*
X57368844Y-101491682D01*
X57225987Y-101539301D01*
X57130749Y-101539301D01*
X56987891Y-101491682D01*
X56892653Y-101396444D01*
X56845034Y-101301206D01*
X56797415Y-101110730D01*
X56797415Y-100967872D01*
X56845034Y-100777396D01*
X56892653Y-100682158D01*
X56987891Y-100586920D01*
X57130749Y-100539301D01*
X57225987Y-100539301D01*
X57368844Y-100586920D01*
X57416463Y-100634539D01*
X58368844Y-101539301D02*
X57797415Y-101539301D01*
X58083129Y-101539301D02*
X58083129Y-100539301D01*
X57987891Y-100682158D01*
X57892653Y-100777396D01*
X57797415Y-100825015D01*
X58845034Y-101539301D02*
X59035510Y-101539301D01*
X59130749Y-101491682D01*
X59178368Y-101444063D01*
X59273606Y-101301206D01*
X59321225Y-101110730D01*
X59321225Y-100729777D01*
X59273606Y-100634539D01*
X59225987Y-100586920D01*
X59130749Y-100539301D01*
X58940272Y-100539301D01*
X58845034Y-100586920D01*
X58797415Y-100634539D01*
X58749796Y-100729777D01*
X58749796Y-100967872D01*
X58797415Y-101063110D01*
X58845034Y-101110730D01*
X58940272Y-101158349D01*
X59130749Y-101158349D01*
X59225987Y-101110730D01*
X59273606Y-101063110D01*
X59321225Y-100967872D01*
X57472343Y-103902783D02*
X57424724Y-103950402D01*
X57281867Y-103998021D01*
X57186629Y-103998021D01*
X57043771Y-103950402D01*
X56948533Y-103855164D01*
X56900914Y-103759926D01*
X56853295Y-103569450D01*
X56853295Y-103426592D01*
X56900914Y-103236116D01*
X56948533Y-103140878D01*
X57043771Y-103045640D01*
X57186629Y-102998021D01*
X57281867Y-102998021D01*
X57424724Y-103045640D01*
X57472343Y-103093259D01*
X57853295Y-103093259D02*
X57900914Y-103045640D01*
X57996152Y-102998021D01*
X58234248Y-102998021D01*
X58329486Y-103045640D01*
X58377105Y-103093259D01*
X58424724Y-103188497D01*
X58424724Y-103283735D01*
X58377105Y-103426592D01*
X57805676Y-103998021D01*
X58424724Y-103998021D01*
X59043771Y-102998021D02*
X59139010Y-102998021D01*
X59234248Y-103045640D01*
X59281867Y-103093259D01*
X59329486Y-103188497D01*
X59377105Y-103378973D01*
X59377105Y-103617069D01*
X59329486Y-103807545D01*
X59281867Y-103902783D01*
X59234248Y-103950402D01*
X59139010Y-103998021D01*
X59043771Y-103998021D01*
X58948533Y-103950402D01*
X58900914Y-103902783D01*
X58853295Y-103807545D01*
X58805676Y-103617069D01*
X58805676Y-103378973D01*
X58853295Y-103188497D01*
X58900914Y-103093259D01*
X58948533Y-103045640D01*
X59043771Y-102998021D01*
X57472343Y-106305623D02*
X57424724Y-106353242D01*
X57281867Y-106400861D01*
X57186629Y-106400861D01*
X57043771Y-106353242D01*
X56948533Y-106258004D01*
X56900914Y-106162766D01*
X56853295Y-105972290D01*
X56853295Y-105829432D01*
X56900914Y-105638956D01*
X56948533Y-105543718D01*
X57043771Y-105448480D01*
X57186629Y-105400861D01*
X57281867Y-105400861D01*
X57424724Y-105448480D01*
X57472343Y-105496099D01*
X57853295Y-105496099D02*
X57900914Y-105448480D01*
X57996152Y-105400861D01*
X58234248Y-105400861D01*
X58329486Y-105448480D01*
X58377105Y-105496099D01*
X58424724Y-105591337D01*
X58424724Y-105686575D01*
X58377105Y-105829432D01*
X57805676Y-106400861D01*
X58424724Y-106400861D01*
X59377105Y-106400861D02*
X58805676Y-106400861D01*
X59091390Y-106400861D02*
X59091390Y-105400861D01*
X58996152Y-105543718D01*
X58900914Y-105638956D01*
X58805676Y-105686575D01*
X57416463Y-108931983D02*
X57368844Y-108979602D01*
X57225987Y-109027221D01*
X57130749Y-109027221D01*
X56987891Y-108979602D01*
X56892653Y-108884364D01*
X56845034Y-108789126D01*
X56797415Y-108598650D01*
X56797415Y-108455792D01*
X56845034Y-108265316D01*
X56892653Y-108170078D01*
X56987891Y-108074840D01*
X57130749Y-108027221D01*
X57225987Y-108027221D01*
X57368844Y-108074840D01*
X57416463Y-108122459D01*
X57797415Y-108122459D02*
X57845034Y-108074840D01*
X57940272Y-108027221D01*
X58178368Y-108027221D01*
X58273606Y-108074840D01*
X58321225Y-108122459D01*
X58368844Y-108217697D01*
X58368844Y-108312935D01*
X58321225Y-108455792D01*
X57749796Y-109027221D01*
X58368844Y-109027221D01*
X58749796Y-108122459D02*
X58797415Y-108074840D01*
X58892653Y-108027221D01*
X59130749Y-108027221D01*
X59225987Y-108074840D01*
X59273606Y-108122459D01*
X59321225Y-108217697D01*
X59321225Y-108312935D01*
X59273606Y-108455792D01*
X58702177Y-109027221D01*
X59321225Y-109027221D01*
X59147983Y-147089097D02*
X59195602Y-147136716D01*
X59243221Y-147279573D01*
X59243221Y-147374811D01*
X59195602Y-147517669D01*
X59100364Y-147612907D01*
X59005126Y-147660526D01*
X58814650Y-147708145D01*
X58671792Y-147708145D01*
X58481316Y-147660526D01*
X58386078Y-147612907D01*
X58290840Y-147517669D01*
X58243221Y-147374811D01*
X58243221Y-147279573D01*
X58290840Y-147136716D01*
X58338459Y-147089097D01*
X59243221Y-146136716D02*
X59243221Y-146708145D01*
X59243221Y-146422431D02*
X58243221Y-146422431D01*
X58386078Y-146517669D01*
X58481316Y-146612907D01*
X58528935Y-146708145D01*
X59243221Y-145184335D02*
X59243221Y-145755764D01*
X59243221Y-145470050D02*
X58243221Y-145470050D01*
X58386078Y-145565288D01*
X58481316Y-145660526D01*
X58528935Y-145755764D01*
X62612543Y-146984957D02*
X62660162Y-147032576D01*
X62707781Y-147175433D01*
X62707781Y-147270671D01*
X62660162Y-147413529D01*
X62564924Y-147508767D01*
X62469686Y-147556386D01*
X62279210Y-147604005D01*
X62136352Y-147604005D01*
X61945876Y-147556386D01*
X61850638Y-147508767D01*
X61755400Y-147413529D01*
X61707781Y-147270671D01*
X61707781Y-147175433D01*
X61755400Y-147032576D01*
X61803019Y-146984957D01*
X61803019Y-146604005D02*
X61755400Y-146556386D01*
X61707781Y-146461148D01*
X61707781Y-146223052D01*
X61755400Y-146127814D01*
X61803019Y-146080195D01*
X61898257Y-146032576D01*
X61993495Y-146032576D01*
X62136352Y-146080195D01*
X62707781Y-146651624D01*
X62707781Y-146032576D01*
X62041114Y-145175433D02*
X62707781Y-145175433D01*
X61660162Y-145413529D02*
X62374448Y-145651624D01*
X62374448Y-145032576D01*
X52963843Y-141758943D02*
X52916224Y-141806562D01*
X52773367Y-141854181D01*
X52678129Y-141854181D01*
X52535271Y-141806562D01*
X52440033Y-141711324D01*
X52392414Y-141616086D01*
X52344795Y-141425610D01*
X52344795Y-141282752D01*
X52392414Y-141092276D01*
X52440033Y-140997038D01*
X52535271Y-140901800D01*
X52678129Y-140854181D01*
X52773367Y-140854181D01*
X52916224Y-140901800D01*
X52963843Y-140949419D01*
X53344795Y-140949419D02*
X53392414Y-140901800D01*
X53487652Y-140854181D01*
X53725748Y-140854181D01*
X53820986Y-140901800D01*
X53868605Y-140949419D01*
X53916224Y-141044657D01*
X53916224Y-141139895D01*
X53868605Y-141282752D01*
X53297176Y-141854181D01*
X53916224Y-141854181D01*
X54820986Y-140854181D02*
X54344795Y-140854181D01*
X54297176Y-141330371D01*
X54344795Y-141282752D01*
X54440033Y-141235133D01*
X54678129Y-141235133D01*
X54773367Y-141282752D01*
X54820986Y-141330371D01*
X54868605Y-141425610D01*
X54868605Y-141663705D01*
X54820986Y-141758943D01*
X54773367Y-141806562D01*
X54678129Y-141854181D01*
X54440033Y-141854181D01*
X54344795Y-141806562D01*
X54297176Y-141758943D01*
X143063981Y-148993123D02*
X143778267Y-148993123D01*
X143921124Y-149040743D01*
X144016362Y-149135981D01*
X144063981Y-149278838D01*
X144063981Y-149374076D01*
X144063981Y-147993123D02*
X144063981Y-148564552D01*
X144063981Y-148278838D02*
X143063981Y-148278838D01*
X143206838Y-148374076D01*
X143302076Y-148469314D01*
X143349695Y-148564552D01*
X143063981Y-147088361D02*
X143063981Y-147564552D01*
X143540171Y-147612171D01*
X143492552Y-147564552D01*
X143444933Y-147469314D01*
X143444933Y-147231218D01*
X143492552Y-147135980D01*
X143540171Y-147088361D01*
X143635410Y-147040742D01*
X143873505Y-147040742D01*
X143968743Y-147088361D01*
X144016362Y-147135980D01*
X144063981Y-147231218D01*
X144063981Y-147469314D01*
X144016362Y-147564552D01*
X143968743Y-147612171D01*
X143052381Y-53709523D02*
X143766667Y-53709523D01*
X143909524Y-53757143D01*
X144004762Y-53852381D01*
X144052381Y-53995238D01*
X144052381Y-54090476D01*
X143147619Y-53280952D02*
X143100000Y-53233333D01*
X143052381Y-53138095D01*
X143052381Y-52899999D01*
X143100000Y-52804761D01*
X143147619Y-52757142D01*
X143242857Y-52709523D01*
X143338095Y-52709523D01*
X143480952Y-52757142D01*
X144052381Y-53328571D01*
X144052381Y-52709523D01*
X143052381Y-51804761D02*
X143052381Y-52280952D01*
X143528571Y-52328571D01*
X143480952Y-52280952D01*
X143433333Y-52185714D01*
X143433333Y-51947618D01*
X143480952Y-51852380D01*
X143528571Y-51804761D01*
X143623810Y-51757142D01*
X143861905Y-51757142D01*
X143957143Y-51804761D01*
X144004762Y-51852380D01*
X144052381Y-51947618D01*
X144052381Y-52185714D01*
X144004762Y-52280952D01*
X143957143Y-52328571D01*
X142954477Y-56348381D02*
X142954477Y-57062667D01*
X142906857Y-57205524D01*
X142811619Y-57300762D01*
X142668762Y-57348381D01*
X142573524Y-57348381D01*
X143383048Y-56443619D02*
X143430667Y-56396000D01*
X143525905Y-56348381D01*
X143764001Y-56348381D01*
X143859239Y-56396000D01*
X143906858Y-56443619D01*
X143954477Y-56538857D01*
X143954477Y-56634095D01*
X143906858Y-56776952D01*
X143335429Y-57348381D01*
X143954477Y-57348381D01*
X144811620Y-56348381D02*
X144621143Y-56348381D01*
X144525905Y-56396000D01*
X144478286Y-56443619D01*
X144383048Y-56586476D01*
X144335429Y-56776952D01*
X144335429Y-57157905D01*
X144383048Y-57253143D01*
X144430667Y-57300762D01*
X144525905Y-57348381D01*
X144716382Y-57348381D01*
X144811620Y-57300762D01*
X144859239Y-57253143D01*
X144906858Y-57157905D01*
X144906858Y-56919810D01*
X144859239Y-56824571D01*
X144811620Y-56776952D01*
X144716382Y-56729333D01*
X144525905Y-56729333D01*
X144430667Y-56776952D01*
X144383048Y-56824571D01*
X144335429Y-56919810D01*
X141247881Y-143684523D02*
X141962167Y-143684523D01*
X142105024Y-143732143D01*
X142200262Y-143827381D01*
X142247881Y-143970238D01*
X142247881Y-144065476D01*
X141343119Y-143255952D02*
X141295500Y-143208333D01*
X141247881Y-143113095D01*
X141247881Y-142874999D01*
X141295500Y-142779761D01*
X141343119Y-142732142D01*
X141438357Y-142684523D01*
X141533595Y-142684523D01*
X141676452Y-142732142D01*
X142247881Y-143303571D01*
X142247881Y-142684523D01*
X141247881Y-142351190D02*
X141247881Y-141684523D01*
X142247881Y-142113095D01*
X144676881Y-143621023D02*
X145391167Y-143621023D01*
X145534024Y-143668643D01*
X145629262Y-143763881D01*
X145676881Y-143906738D01*
X145676881Y-144001976D01*
X144772119Y-143192452D02*
X144724500Y-143144833D01*
X144676881Y-143049595D01*
X144676881Y-142811499D01*
X144724500Y-142716261D01*
X144772119Y-142668642D01*
X144867357Y-142621023D01*
X144962595Y-142621023D01*
X145105452Y-142668642D01*
X145676881Y-143240071D01*
X145676881Y-142621023D01*
X145105452Y-142049595D02*
X145057833Y-142144833D01*
X145010214Y-142192452D01*
X144914976Y-142240071D01*
X144867357Y-142240071D01*
X144772119Y-142192452D01*
X144724500Y-142144833D01*
X144676881Y-142049595D01*
X144676881Y-141859118D01*
X144724500Y-141763880D01*
X144772119Y-141716261D01*
X144867357Y-141668642D01*
X144914976Y-141668642D01*
X145010214Y-141716261D01*
X145057833Y-141763880D01*
X145105452Y-141859118D01*
X145105452Y-142049595D01*
X145153071Y-142144833D01*
X145200690Y-142192452D01*
X145295929Y-142240071D01*
X145486405Y-142240071D01*
X145581643Y-142192452D01*
X145629262Y-142144833D01*
X145676881Y-142049595D01*
X145676881Y-141859118D01*
X145629262Y-141763880D01*
X145581643Y-141716261D01*
X145486405Y-141668642D01*
X145295929Y-141668642D01*
X145200690Y-141716261D01*
X145153071Y-141763880D01*
X145105452Y-141859118D01*
X120069100Y-130210281D02*
X119735766Y-129734090D01*
X119497671Y-130210281D02*
X119497671Y-129210281D01*
X119878624Y-129210281D01*
X119973862Y-129257900D01*
X120021481Y-129305519D01*
X120069100Y-129400757D01*
X120069100Y-129543614D01*
X120021481Y-129638852D01*
X119973862Y-129686471D01*
X119878624Y-129734090D01*
X119497671Y-129734090D01*
X120973862Y-130210281D02*
X120497671Y-130210281D01*
X120497671Y-129210281D01*
X121497671Y-129734090D02*
X121497671Y-130210281D01*
X121164338Y-129210281D02*
X121497671Y-129734090D01*
X121831005Y-129210281D01*
X122116719Y-129305519D02*
X122164338Y-129257900D01*
X122259576Y-129210281D01*
X122497672Y-129210281D01*
X122592910Y-129257900D01*
X122640529Y-129305519D01*
X122688148Y-129400757D01*
X122688148Y-129495995D01*
X122640529Y-129638852D01*
X122069100Y-130210281D01*
X122688148Y-130210281D01*
X120569100Y-139495995D02*
X120521481Y-139591233D01*
X120521481Y-139734090D01*
X120569100Y-139876948D01*
X120664338Y-139972186D01*
X120759576Y-140019805D01*
X120950052Y-140067424D01*
X121092910Y-140067424D01*
X121283386Y-140019805D01*
X121378624Y-139972186D01*
X121473862Y-139876948D01*
X121521481Y-139734090D01*
X121521481Y-139638852D01*
X121473862Y-139495995D01*
X121426243Y-139448376D01*
X121092910Y-139448376D01*
X121092910Y-139638852D01*
X120521481Y-138543614D02*
X120521481Y-139019805D01*
X120997671Y-139067424D01*
X120950052Y-139019805D01*
X120902433Y-138924567D01*
X120902433Y-138686471D01*
X120950052Y-138591233D01*
X120997671Y-138543614D01*
X121092910Y-138495995D01*
X121331005Y-138495995D01*
X121426243Y-138543614D01*
X121473862Y-138591233D01*
X121521481Y-138686471D01*
X121521481Y-138924567D01*
X121473862Y-139019805D01*
X121426243Y-139067424D01*
X120521481Y-138210281D02*
X121521481Y-137876948D01*
X120521481Y-137543614D01*
X121140529Y-137210281D02*
X121140529Y-136448376D01*
X120616719Y-136019805D02*
X120569100Y-135972186D01*
X120521481Y-135876948D01*
X120521481Y-135638852D01*
X120569100Y-135543614D01*
X120616719Y-135495995D01*
X120711957Y-135448376D01*
X120807195Y-135448376D01*
X120950052Y-135495995D01*
X121521481Y-136067424D01*
X121521481Y-135448376D01*
X105565700Y-130146781D02*
X105232366Y-129670590D01*
X104994271Y-130146781D02*
X104994271Y-129146781D01*
X105375224Y-129146781D01*
X105470462Y-129194400D01*
X105518081Y-129242019D01*
X105565700Y-129337257D01*
X105565700Y-129480114D01*
X105518081Y-129575352D01*
X105470462Y-129622971D01*
X105375224Y-129670590D01*
X104994271Y-129670590D01*
X106470462Y-130146781D02*
X105994271Y-130146781D01*
X105994271Y-129146781D01*
X106994271Y-129670590D02*
X106994271Y-130146781D01*
X106660938Y-129146781D02*
X106994271Y-129670590D01*
X107327605Y-129146781D01*
X107565700Y-129146781D02*
X108184748Y-129146781D01*
X107851414Y-129527733D01*
X107994272Y-129527733D01*
X108089510Y-129575352D01*
X108137129Y-129622971D01*
X108184748Y-129718210D01*
X108184748Y-129956305D01*
X108137129Y-130051543D01*
X108089510Y-130099162D01*
X107994272Y-130146781D01*
X107708557Y-130146781D01*
X107613319Y-130099162D01*
X107565700Y-130051543D01*
X106065700Y-139432495D02*
X106018081Y-139527733D01*
X106018081Y-139670590D01*
X106065700Y-139813448D01*
X106160938Y-139908686D01*
X106256176Y-139956305D01*
X106446652Y-140003924D01*
X106589510Y-140003924D01*
X106779986Y-139956305D01*
X106875224Y-139908686D01*
X106970462Y-139813448D01*
X107018081Y-139670590D01*
X107018081Y-139575352D01*
X106970462Y-139432495D01*
X106922843Y-139384876D01*
X106589510Y-139384876D01*
X106589510Y-139575352D01*
X106018081Y-138480114D02*
X106018081Y-138956305D01*
X106494271Y-139003924D01*
X106446652Y-138956305D01*
X106399033Y-138861067D01*
X106399033Y-138622971D01*
X106446652Y-138527733D01*
X106494271Y-138480114D01*
X106589510Y-138432495D01*
X106827605Y-138432495D01*
X106922843Y-138480114D01*
X106970462Y-138527733D01*
X107018081Y-138622971D01*
X107018081Y-138861067D01*
X106970462Y-138956305D01*
X106922843Y-139003924D01*
X106018081Y-138146781D02*
X107018081Y-137813448D01*
X106018081Y-137480114D01*
X106637129Y-137146781D02*
X106637129Y-136384876D01*
X106113319Y-135956305D02*
X106065700Y-135908686D01*
X106018081Y-135813448D01*
X106018081Y-135575352D01*
X106065700Y-135480114D01*
X106113319Y-135432495D01*
X106208557Y-135384876D01*
X106303795Y-135384876D01*
X106446652Y-135432495D01*
X107018081Y-136003924D01*
X107018081Y-135384876D01*
X74361800Y-70744881D02*
X74028466Y-70268690D01*
X73790371Y-70744881D02*
X73790371Y-69744881D01*
X74171324Y-69744881D01*
X74266562Y-69792500D01*
X74314181Y-69840119D01*
X74361800Y-69935357D01*
X74361800Y-70078214D01*
X74314181Y-70173452D01*
X74266562Y-70221071D01*
X74171324Y-70268690D01*
X73790371Y-70268690D01*
X75266562Y-70744881D02*
X74790371Y-70744881D01*
X74790371Y-69744881D01*
X75790371Y-70268690D02*
X75790371Y-70744881D01*
X75457038Y-69744881D02*
X75790371Y-70268690D01*
X76123705Y-69744881D01*
X76885610Y-69744881D02*
X76695133Y-69744881D01*
X76599895Y-69792500D01*
X76552276Y-69840119D01*
X76457038Y-69982976D01*
X76409419Y-70173452D01*
X76409419Y-70554405D01*
X76457038Y-70649643D01*
X76504657Y-70697262D01*
X76599895Y-70744881D01*
X76790372Y-70744881D01*
X76885610Y-70697262D01*
X76933229Y-70649643D01*
X76980848Y-70554405D01*
X76980848Y-70316310D01*
X76933229Y-70221071D01*
X76885610Y-70173452D01*
X76790372Y-70125833D01*
X76599895Y-70125833D01*
X76504657Y-70173452D01*
X76457038Y-70221071D01*
X76409419Y-70316310D01*
X74861800Y-64030595D02*
X74814181Y-64125833D01*
X74814181Y-64268690D01*
X74861800Y-64411548D01*
X74957038Y-64506786D01*
X75052276Y-64554405D01*
X75242752Y-64602024D01*
X75385610Y-64602024D01*
X75576086Y-64554405D01*
X75671324Y-64506786D01*
X75766562Y-64411548D01*
X75814181Y-64268690D01*
X75814181Y-64173452D01*
X75766562Y-64030595D01*
X75718943Y-63982976D01*
X75385610Y-63982976D01*
X75385610Y-64173452D01*
X74814181Y-63078214D02*
X74814181Y-63554405D01*
X75290371Y-63602024D01*
X75242752Y-63554405D01*
X75195133Y-63459167D01*
X75195133Y-63221071D01*
X75242752Y-63125833D01*
X75290371Y-63078214D01*
X75385610Y-63030595D01*
X75623705Y-63030595D01*
X75718943Y-63078214D01*
X75766562Y-63125833D01*
X75814181Y-63221071D01*
X75814181Y-63459167D01*
X75766562Y-63554405D01*
X75718943Y-63602024D01*
X74814181Y-62744881D02*
X75814181Y-62411548D01*
X74814181Y-62078214D01*
X75433229Y-61744881D02*
X75433229Y-60982976D01*
X74909419Y-60554405D02*
X74861800Y-60506786D01*
X74814181Y-60411548D01*
X74814181Y-60173452D01*
X74861800Y-60078214D01*
X74909419Y-60030595D01*
X75004657Y-59982976D01*
X75099895Y-59982976D01*
X75242752Y-60030595D01*
X75814181Y-60602024D01*
X75814181Y-59982976D01*
X89271600Y-70719481D02*
X88938266Y-70243290D01*
X88700171Y-70719481D02*
X88700171Y-69719481D01*
X89081124Y-69719481D01*
X89176362Y-69767100D01*
X89223981Y-69814719D01*
X89271600Y-69909957D01*
X89271600Y-70052814D01*
X89223981Y-70148052D01*
X89176362Y-70195671D01*
X89081124Y-70243290D01*
X88700171Y-70243290D01*
X90176362Y-70719481D02*
X89700171Y-70719481D01*
X89700171Y-69719481D01*
X90700171Y-70243290D02*
X90700171Y-70719481D01*
X90366838Y-69719481D02*
X90700171Y-70243290D01*
X91033505Y-69719481D01*
X91271600Y-69719481D02*
X91938267Y-69719481D01*
X91509695Y-70719481D01*
X89771600Y-64005195D02*
X89723981Y-64100433D01*
X89723981Y-64243290D01*
X89771600Y-64386148D01*
X89866838Y-64481386D01*
X89962076Y-64529005D01*
X90152552Y-64576624D01*
X90295410Y-64576624D01*
X90485886Y-64529005D01*
X90581124Y-64481386D01*
X90676362Y-64386148D01*
X90723981Y-64243290D01*
X90723981Y-64148052D01*
X90676362Y-64005195D01*
X90628743Y-63957576D01*
X90295410Y-63957576D01*
X90295410Y-64148052D01*
X89723981Y-63052814D02*
X89723981Y-63529005D01*
X90200171Y-63576624D01*
X90152552Y-63529005D01*
X90104933Y-63433767D01*
X90104933Y-63195671D01*
X90152552Y-63100433D01*
X90200171Y-63052814D01*
X90295410Y-63005195D01*
X90533505Y-63005195D01*
X90628743Y-63052814D01*
X90676362Y-63100433D01*
X90723981Y-63195671D01*
X90723981Y-63433767D01*
X90676362Y-63529005D01*
X90628743Y-63576624D01*
X89723981Y-62719481D02*
X90723981Y-62386148D01*
X89723981Y-62052814D01*
X90343029Y-61719481D02*
X90343029Y-60957576D01*
X89819219Y-60529005D02*
X89771600Y-60481386D01*
X89723981Y-60386148D01*
X89723981Y-60148052D01*
X89771600Y-60052814D01*
X89819219Y-60005195D01*
X89914457Y-59957576D01*
X90009695Y-59957576D01*
X90152552Y-60005195D01*
X90723981Y-60576624D01*
X90723981Y-59957576D01*
X119256300Y-70605181D02*
X118922966Y-70128990D01*
X118684871Y-70605181D02*
X118684871Y-69605181D01*
X119065824Y-69605181D01*
X119161062Y-69652800D01*
X119208681Y-69700419D01*
X119256300Y-69795657D01*
X119256300Y-69938514D01*
X119208681Y-70033752D01*
X119161062Y-70081371D01*
X119065824Y-70128990D01*
X118684871Y-70128990D01*
X120161062Y-70605181D02*
X119684871Y-70605181D01*
X119684871Y-69605181D01*
X120684871Y-70128990D02*
X120684871Y-70605181D01*
X120351538Y-69605181D02*
X120684871Y-70128990D01*
X121018205Y-69605181D01*
X121399157Y-70605181D02*
X121589633Y-70605181D01*
X121684872Y-70557562D01*
X121732491Y-70509943D01*
X121827729Y-70367086D01*
X121875348Y-70176610D01*
X121875348Y-69795657D01*
X121827729Y-69700419D01*
X121780110Y-69652800D01*
X121684872Y-69605181D01*
X121494395Y-69605181D01*
X121399157Y-69652800D01*
X121351538Y-69700419D01*
X121303919Y-69795657D01*
X121303919Y-70033752D01*
X121351538Y-70128990D01*
X121399157Y-70176610D01*
X121494395Y-70224229D01*
X121684872Y-70224229D01*
X121780110Y-70176610D01*
X121827729Y-70128990D01*
X121875348Y-70033752D01*
X119756300Y-63890895D02*
X119708681Y-63986133D01*
X119708681Y-64128990D01*
X119756300Y-64271848D01*
X119851538Y-64367086D01*
X119946776Y-64414705D01*
X120137252Y-64462324D01*
X120280110Y-64462324D01*
X120470586Y-64414705D01*
X120565824Y-64367086D01*
X120661062Y-64271848D01*
X120708681Y-64128990D01*
X120708681Y-64033752D01*
X120661062Y-63890895D01*
X120613443Y-63843276D01*
X120280110Y-63843276D01*
X120280110Y-64033752D01*
X119708681Y-62938514D02*
X119708681Y-63414705D01*
X120184871Y-63462324D01*
X120137252Y-63414705D01*
X120089633Y-63319467D01*
X120089633Y-63081371D01*
X120137252Y-62986133D01*
X120184871Y-62938514D01*
X120280110Y-62890895D01*
X120518205Y-62890895D01*
X120613443Y-62938514D01*
X120661062Y-62986133D01*
X120708681Y-63081371D01*
X120708681Y-63319467D01*
X120661062Y-63414705D01*
X120613443Y-63462324D01*
X119708681Y-62605181D02*
X120708681Y-62271848D01*
X119708681Y-61938514D01*
X120327729Y-61605181D02*
X120327729Y-60843276D01*
X119803919Y-60414705D02*
X119756300Y-60367086D01*
X119708681Y-60271848D01*
X119708681Y-60033752D01*
X119756300Y-59938514D01*
X119803919Y-59890895D01*
X119899157Y-59843276D01*
X119994395Y-59843276D01*
X120137252Y-59890895D01*
X120708681Y-60462324D01*
X120708681Y-59843276D01*
X132686610Y-70681381D02*
X132353276Y-70205190D01*
X132115181Y-70681381D02*
X132115181Y-69681381D01*
X132496134Y-69681381D01*
X132591372Y-69729000D01*
X132638991Y-69776619D01*
X132686610Y-69871857D01*
X132686610Y-70014714D01*
X132638991Y-70109952D01*
X132591372Y-70157571D01*
X132496134Y-70205190D01*
X132115181Y-70205190D01*
X133591372Y-70681381D02*
X133115181Y-70681381D01*
X133115181Y-69681381D01*
X134115181Y-70205190D02*
X134115181Y-70681381D01*
X133781848Y-69681381D02*
X134115181Y-70205190D01*
X134448515Y-69681381D01*
X135305658Y-70681381D02*
X134734229Y-70681381D01*
X135019943Y-70681381D02*
X135019943Y-69681381D01*
X134924705Y-69824238D01*
X134829467Y-69919476D01*
X134734229Y-69967095D01*
X135924705Y-69681381D02*
X136019944Y-69681381D01*
X136115182Y-69729000D01*
X136162801Y-69776619D01*
X136210420Y-69871857D01*
X136258039Y-70062333D01*
X136258039Y-70300429D01*
X136210420Y-70490905D01*
X136162801Y-70586143D01*
X136115182Y-70633762D01*
X136019944Y-70681381D01*
X135924705Y-70681381D01*
X135829467Y-70633762D01*
X135781848Y-70586143D01*
X135734229Y-70490905D01*
X135686610Y-70300429D01*
X135686610Y-70062333D01*
X135734229Y-69871857D01*
X135781848Y-69776619D01*
X135829467Y-69729000D01*
X135924705Y-69681381D01*
X133662800Y-63967095D02*
X133615181Y-64062333D01*
X133615181Y-64205190D01*
X133662800Y-64348048D01*
X133758038Y-64443286D01*
X133853276Y-64490905D01*
X134043752Y-64538524D01*
X134186610Y-64538524D01*
X134377086Y-64490905D01*
X134472324Y-64443286D01*
X134567562Y-64348048D01*
X134615181Y-64205190D01*
X134615181Y-64109952D01*
X134567562Y-63967095D01*
X134519943Y-63919476D01*
X134186610Y-63919476D01*
X134186610Y-64109952D01*
X133615181Y-63014714D02*
X133615181Y-63490905D01*
X134091371Y-63538524D01*
X134043752Y-63490905D01*
X133996133Y-63395667D01*
X133996133Y-63157571D01*
X134043752Y-63062333D01*
X134091371Y-63014714D01*
X134186610Y-62967095D01*
X134424705Y-62967095D01*
X134519943Y-63014714D01*
X134567562Y-63062333D01*
X134615181Y-63157571D01*
X134615181Y-63395667D01*
X134567562Y-63490905D01*
X134519943Y-63538524D01*
X133615181Y-62681381D02*
X134615181Y-62348048D01*
X133615181Y-62014714D01*
X134234229Y-61681381D02*
X134234229Y-60919476D01*
X133710419Y-60490905D02*
X133662800Y-60443286D01*
X133615181Y-60348048D01*
X133615181Y-60109952D01*
X133662800Y-60014714D01*
X133710419Y-59967095D01*
X133805657Y-59919476D01*
X133900895Y-59919476D01*
X134043752Y-59967095D01*
X134615181Y-60538524D01*
X134615181Y-59919476D01*
X55891181Y-53532303D02*
X56605467Y-53532303D01*
X56748324Y-53579923D01*
X56843562Y-53675161D01*
X56891181Y-53818018D01*
X56891181Y-53913256D01*
X56891181Y-52532303D02*
X56891181Y-53103732D01*
X56891181Y-52818018D02*
X55891181Y-52818018D01*
X56034038Y-52913256D01*
X56129276Y-53008494D01*
X56176895Y-53103732D01*
X55891181Y-51675160D02*
X55891181Y-51865637D01*
X55938800Y-51960875D01*
X55986419Y-52008494D01*
X56129276Y-52103732D01*
X56319752Y-52151351D01*
X56700705Y-52151351D01*
X56795943Y-52103732D01*
X56843562Y-52056113D01*
X56891181Y-51960875D01*
X56891181Y-51770398D01*
X56843562Y-51675160D01*
X56795943Y-51627541D01*
X56700705Y-51579922D01*
X56462610Y-51579922D01*
X56367371Y-51627541D01*
X56319752Y-51675160D01*
X56272133Y-51770398D01*
X56272133Y-51960875D01*
X56319752Y-52056113D01*
X56367371Y-52103732D01*
X56462610Y-52151351D01*
X68006981Y-97793133D02*
X68721267Y-97793133D01*
X68864124Y-97840753D01*
X68959362Y-97935991D01*
X69006981Y-98078848D01*
X69006981Y-98174086D01*
X68006981Y-97412181D02*
X68006981Y-96793133D01*
X68387933Y-97126467D01*
X68387933Y-96983609D01*
X68435552Y-96888371D01*
X68483171Y-96840752D01*
X68578410Y-96793133D01*
X68816505Y-96793133D01*
X68911743Y-96840752D01*
X68959362Y-96888371D01*
X69006981Y-96983609D01*
X69006981Y-97269324D01*
X68959362Y-97364562D01*
X68911743Y-97412181D01*
X92899181Y-85100533D02*
X93613467Y-85100533D01*
X93756324Y-85148153D01*
X93851562Y-85243391D01*
X93899181Y-85386248D01*
X93899181Y-85481486D01*
X92899181Y-84148152D02*
X92899181Y-84624343D01*
X93375371Y-84671962D01*
X93327752Y-84624343D01*
X93280133Y-84529105D01*
X93280133Y-84291009D01*
X93327752Y-84195771D01*
X93375371Y-84148152D01*
X93470610Y-84100533D01*
X93708705Y-84100533D01*
X93803943Y-84148152D01*
X93851562Y-84195771D01*
X93899181Y-84291009D01*
X93899181Y-84529105D01*
X93851562Y-84624343D01*
X93803943Y-84671962D01*
X117638581Y-123904333D02*
X118352867Y-123904333D01*
X118495724Y-123951953D01*
X118590962Y-124047191D01*
X118638581Y-124190048D01*
X118638581Y-124285286D01*
X117638581Y-122999571D02*
X117638581Y-123190048D01*
X117686200Y-123285286D01*
X117733819Y-123332905D01*
X117876676Y-123428143D01*
X118067152Y-123475762D01*
X118448105Y-123475762D01*
X118543343Y-123428143D01*
X118590962Y-123380524D01*
X118638581Y-123285286D01*
X118638581Y-123094809D01*
X118590962Y-122999571D01*
X118543343Y-122951952D01*
X118448105Y-122904333D01*
X118210010Y-122904333D01*
X118114771Y-122951952D01*
X118067152Y-122999571D01*
X118019533Y-123094809D01*
X118019533Y-123285286D01*
X118067152Y-123380524D01*
X118114771Y-123428143D01*
X118210010Y-123475762D01*
X84847181Y-97767733D02*
X85561467Y-97767733D01*
X85704324Y-97815353D01*
X85799562Y-97910591D01*
X85847181Y-98053448D01*
X85847181Y-98148686D01*
X84847181Y-97386781D02*
X84847181Y-96720114D01*
X85847181Y-97148686D01*
X109561081Y-85652923D02*
X110275367Y-85652923D01*
X110418224Y-85700543D01*
X110513462Y-85795781D01*
X110561081Y-85938638D01*
X110561081Y-86033876D01*
X110561081Y-84652923D02*
X110561081Y-85224352D01*
X110561081Y-84938638D02*
X109561081Y-84938638D01*
X109703938Y-85033876D01*
X109799176Y-85129114D01*
X109846795Y-85224352D01*
X110561081Y-83700542D02*
X110561081Y-84271971D01*
X110561081Y-83986257D02*
X109561081Y-83986257D01*
X109703938Y-84081495D01*
X109799176Y-84176733D01*
X109846795Y-84271971D01*
X126384911Y-85043323D02*
X127099197Y-85043323D01*
X127242054Y-85090943D01*
X127337292Y-85186181D01*
X127384911Y-85329038D01*
X127384911Y-85424276D01*
X126480149Y-84614752D02*
X126432530Y-84567133D01*
X126384911Y-84471895D01*
X126384911Y-84233799D01*
X126432530Y-84138561D01*
X126480149Y-84090942D01*
X126575387Y-84043323D01*
X126670625Y-84043323D01*
X126813482Y-84090942D01*
X127384911Y-84662371D01*
X127384911Y-84043323D01*
X126384911Y-83424276D02*
X126384911Y-83329037D01*
X126432530Y-83233799D01*
X126480149Y-83186180D01*
X126575387Y-83138561D01*
X126765863Y-83090942D01*
X127003959Y-83090942D01*
X127194435Y-83138561D01*
X127289673Y-83186180D01*
X127337292Y-83233799D01*
X127384911Y-83329037D01*
X127384911Y-83424276D01*
X127337292Y-83519514D01*
X127289673Y-83567133D01*
X127194435Y-83614752D01*
X127003959Y-83662371D01*
X126765863Y-83662371D01*
X126575387Y-83614752D01*
X126480149Y-83567133D01*
X126432530Y-83519514D01*
X126384911Y-83424276D01*
X84618581Y-124202723D02*
X85332867Y-124202723D01*
X85475724Y-124250343D01*
X85570962Y-124345581D01*
X85618581Y-124488438D01*
X85618581Y-124583676D01*
X84713819Y-123774152D02*
X84666200Y-123726533D01*
X84618581Y-123631295D01*
X84618581Y-123393199D01*
X84666200Y-123297961D01*
X84713819Y-123250342D01*
X84809057Y-123202723D01*
X84904295Y-123202723D01*
X85047152Y-123250342D01*
X85618581Y-123821771D01*
X85618581Y-123202723D01*
X85618581Y-122250342D02*
X85618581Y-122821771D01*
X85618581Y-122536057D02*
X84618581Y-122536057D01*
X84761438Y-122631295D01*
X84856676Y-122726533D01*
X84904295Y-122821771D01*
X118019581Y-98650323D02*
X118733867Y-98650323D01*
X118876724Y-98697943D01*
X118971962Y-98793181D01*
X119019581Y-98936038D01*
X119019581Y-99031276D01*
X118114819Y-98221752D02*
X118067200Y-98174133D01*
X118019581Y-98078895D01*
X118019581Y-97840799D01*
X118067200Y-97745561D01*
X118114819Y-97697942D01*
X118210057Y-97650323D01*
X118305295Y-97650323D01*
X118448152Y-97697942D01*
X119019581Y-98269371D01*
X119019581Y-97650323D01*
X118114819Y-97269371D02*
X118067200Y-97221752D01*
X118019581Y-97126514D01*
X118019581Y-96888418D01*
X118067200Y-96793180D01*
X118114819Y-96745561D01*
X118210057Y-96697942D01*
X118305295Y-96697942D01*
X118448152Y-96745561D01*
X119019581Y-97316990D01*
X119019581Y-96697942D01*
X67854581Y-124253523D02*
X68568867Y-124253523D01*
X68711724Y-124301143D01*
X68806962Y-124396381D01*
X68854581Y-124539238D01*
X68854581Y-124634476D01*
X67949819Y-123824952D02*
X67902200Y-123777333D01*
X67854581Y-123682095D01*
X67854581Y-123443999D01*
X67902200Y-123348761D01*
X67949819Y-123301142D01*
X68045057Y-123253523D01*
X68140295Y-123253523D01*
X68283152Y-123301142D01*
X68854581Y-123872571D01*
X68854581Y-123253523D01*
X68854581Y-122777333D02*
X68854581Y-122586857D01*
X68806962Y-122491618D01*
X68759343Y-122443999D01*
X68616486Y-122348761D01*
X68426010Y-122301142D01*
X68045057Y-122301142D01*
X67949819Y-122348761D01*
X67902200Y-122396380D01*
X67854581Y-122491618D01*
X67854581Y-122682095D01*
X67902200Y-122777333D01*
X67949819Y-122824952D01*
X68045057Y-122872571D01*
X68283152Y-122872571D01*
X68378390Y-122824952D01*
X68426010Y-122777333D01*
X68473629Y-122682095D01*
X68473629Y-122491618D01*
X68426010Y-122396380D01*
X68378390Y-122348761D01*
X68283152Y-122301142D01*
X76185781Y-111502723D02*
X76900067Y-111502723D01*
X77042924Y-111550343D01*
X77138162Y-111645581D01*
X77185781Y-111788438D01*
X77185781Y-111883676D01*
X76185781Y-111121771D02*
X76185781Y-110502723D01*
X76566733Y-110836057D01*
X76566733Y-110693199D01*
X76614352Y-110597961D01*
X76661971Y-110550342D01*
X76757210Y-110502723D01*
X76995305Y-110502723D01*
X77090543Y-110550342D01*
X77138162Y-110597961D01*
X77185781Y-110693199D01*
X77185781Y-110978914D01*
X77138162Y-111074152D01*
X77090543Y-111121771D01*
X77185781Y-109550342D02*
X77185781Y-110121771D01*
X77185781Y-109836057D02*
X76185781Y-109836057D01*
X76328638Y-109931295D01*
X76423876Y-110026533D01*
X76471495Y-110121771D01*
X127941343Y-57881757D02*
X127988962Y-57929376D01*
X128036581Y-58072233D01*
X128036581Y-58167471D01*
X127988962Y-58310329D01*
X127893724Y-58405567D01*
X127798486Y-58453186D01*
X127608010Y-58500805D01*
X127465152Y-58500805D01*
X127274676Y-58453186D01*
X127179438Y-58405567D01*
X127084200Y-58310329D01*
X127036581Y-58167471D01*
X127036581Y-58072233D01*
X127084200Y-57929376D01*
X127131819Y-57881757D01*
X128036581Y-56929376D02*
X128036581Y-57500805D01*
X128036581Y-57215091D02*
X127036581Y-57215091D01*
X127179438Y-57310329D01*
X127274676Y-57405567D01*
X127322295Y-57500805D01*
X127036581Y-56310329D02*
X127036581Y-56215090D01*
X127084200Y-56119852D01*
X127131819Y-56072233D01*
X127227057Y-56024614D01*
X127417533Y-55976995D01*
X127655629Y-55976995D01*
X127846105Y-56024614D01*
X127941343Y-56072233D01*
X127988962Y-56119852D01*
X128036581Y-56215090D01*
X128036581Y-56310329D01*
X127988962Y-56405567D01*
X127941343Y-56453186D01*
X127846105Y-56500805D01*
X127655629Y-56548424D01*
X127417533Y-56548424D01*
X127227057Y-56500805D01*
X127131819Y-56453186D01*
X127084200Y-56405567D01*
X127036581Y-56310329D01*
X147635981Y-66900323D02*
X148350267Y-66900323D01*
X148493124Y-66947943D01*
X148588362Y-67043181D01*
X148635981Y-67186038D01*
X148635981Y-67281276D01*
X147731219Y-66471752D02*
X147683600Y-66424133D01*
X147635981Y-66328895D01*
X147635981Y-66090799D01*
X147683600Y-65995561D01*
X147731219Y-65947942D01*
X147826457Y-65900323D01*
X147921695Y-65900323D01*
X148064552Y-65947942D01*
X148635981Y-66519371D01*
X148635981Y-65900323D01*
X147969314Y-65043180D02*
X148635981Y-65043180D01*
X147588362Y-65281276D02*
X148302648Y-65519371D01*
X148302648Y-64900323D01*
X147991581Y-79854323D02*
X148705867Y-79854323D01*
X148848724Y-79901943D01*
X148943962Y-79997181D01*
X148991581Y-80140038D01*
X148991581Y-80235276D01*
X147991581Y-79473371D02*
X147991581Y-78854323D01*
X148372533Y-79187657D01*
X148372533Y-79044799D01*
X148420152Y-78949561D01*
X148467771Y-78901942D01*
X148563010Y-78854323D01*
X148801105Y-78854323D01*
X148896343Y-78901942D01*
X148943962Y-78949561D01*
X148991581Y-79044799D01*
X148991581Y-79330514D01*
X148943962Y-79425752D01*
X148896343Y-79473371D01*
X148086819Y-78473371D02*
X148039200Y-78425752D01*
X147991581Y-78330514D01*
X147991581Y-78092418D01*
X148039200Y-77997180D01*
X148086819Y-77949561D01*
X148182057Y-77901942D01*
X148277295Y-77901942D01*
X148420152Y-77949561D01*
X148991581Y-78520990D01*
X148991581Y-77901942D01*
X147432781Y-86712323D02*
X148147067Y-86712323D01*
X148289924Y-86759943D01*
X148385162Y-86855181D01*
X148432781Y-86998038D01*
X148432781Y-87093276D01*
X147432781Y-86331371D02*
X147432781Y-85712323D01*
X147813733Y-86045657D01*
X147813733Y-85902799D01*
X147861352Y-85807561D01*
X147908971Y-85759942D01*
X148004210Y-85712323D01*
X148242305Y-85712323D01*
X148337543Y-85759942D01*
X148385162Y-85807561D01*
X148432781Y-85902799D01*
X148432781Y-86188514D01*
X148385162Y-86283752D01*
X148337543Y-86331371D01*
X147432781Y-85378990D02*
X147432781Y-84759942D01*
X147813733Y-85093276D01*
X147813733Y-84950418D01*
X147861352Y-84855180D01*
X147908971Y-84807561D01*
X148004210Y-84759942D01*
X148242305Y-84759942D01*
X148337543Y-84807561D01*
X148385162Y-84855180D01*
X148432781Y-84950418D01*
X148432781Y-85236133D01*
X148385162Y-85331371D01*
X148337543Y-85378990D01*
X148232881Y-139303023D02*
X148947167Y-139303023D01*
X149090024Y-139350643D01*
X149185262Y-139445881D01*
X149232881Y-139588738D01*
X149232881Y-139683976D01*
X148232881Y-138922071D02*
X148232881Y-138303023D01*
X148613833Y-138636357D01*
X148613833Y-138493499D01*
X148661452Y-138398261D01*
X148709071Y-138350642D01*
X148804310Y-138303023D01*
X149042405Y-138303023D01*
X149137643Y-138350642D01*
X149185262Y-138398261D01*
X149232881Y-138493499D01*
X149232881Y-138779214D01*
X149185262Y-138874452D01*
X149137643Y-138922071D01*
X148566214Y-137445880D02*
X149232881Y-137445880D01*
X148185262Y-137683976D02*
X148899548Y-137922071D01*
X148899548Y-137303023D01*
X145621477Y-58951881D02*
X145621477Y-59666167D01*
X145573857Y-59809024D01*
X145478619Y-59904262D01*
X145335762Y-59951881D01*
X145240524Y-59951881D01*
X146002429Y-58951881D02*
X146621477Y-58951881D01*
X146288143Y-59332833D01*
X146431001Y-59332833D01*
X146526239Y-59380452D01*
X146573858Y-59428071D01*
X146621477Y-59523310D01*
X146621477Y-59761405D01*
X146573858Y-59856643D01*
X146526239Y-59904262D01*
X146431001Y-59951881D01*
X146145286Y-59951881D01*
X146050048Y-59904262D01*
X146002429Y-59856643D01*
X147526239Y-58951881D02*
X147050048Y-58951881D01*
X147002429Y-59428071D01*
X147050048Y-59380452D01*
X147145286Y-59332833D01*
X147383382Y-59332833D01*
X147478620Y-59380452D01*
X147526239Y-59428071D01*
X147573858Y-59523310D01*
X147573858Y-59761405D01*
X147526239Y-59856643D01*
X147478620Y-59904262D01*
X147383382Y-59951881D01*
X147145286Y-59951881D01*
X147050048Y-59904262D01*
X147002429Y-59856643D01*
X147544541Y-72870653D02*
X148258827Y-72870653D01*
X148401684Y-72918273D01*
X148496922Y-73013511D01*
X148544541Y-73156368D01*
X148544541Y-73251606D01*
X147639779Y-72442082D02*
X147592160Y-72394463D01*
X147544541Y-72299225D01*
X147544541Y-72061129D01*
X147592160Y-71965891D01*
X147639779Y-71918272D01*
X147735017Y-71870653D01*
X147830255Y-71870653D01*
X147973112Y-71918272D01*
X148544541Y-72489701D01*
X148544541Y-71870653D01*
D13*
X146924781Y-130025733D02*
X147639067Y-130025733D01*
X147781924Y-130073353D01*
X147877162Y-130168591D01*
X147924781Y-130311448D01*
X147924781Y-130406686D01*
X147353352Y-129406686D02*
X147305733Y-129501924D01*
X147258114Y-129549543D01*
X147162876Y-129597162D01*
X147115257Y-129597162D01*
X147020019Y-129549543D01*
X146972400Y-129501924D01*
X146924781Y-129406686D01*
X146924781Y-129216209D01*
X146972400Y-129120971D01*
X147020019Y-129073352D01*
X147115257Y-129025733D01*
X147162876Y-129025733D01*
X147258114Y-129073352D01*
X147305733Y-129120971D01*
X147353352Y-129216209D01*
X147353352Y-129406686D01*
X147400971Y-129501924D01*
X147448590Y-129549543D01*
X147543829Y-129597162D01*
X147734305Y-129597162D01*
X147829543Y-129549543D01*
X147877162Y-129501924D01*
X147924781Y-129406686D01*
X147924781Y-129216209D01*
X147877162Y-129120971D01*
X147829543Y-129073352D01*
X147734305Y-129025733D01*
X147543829Y-129025733D01*
X147448590Y-129073352D01*
X147400971Y-129120971D01*
X147353352Y-129216209D01*
X149658343Y-133328895D02*
X149705962Y-133376514D01*
X149753581Y-133519371D01*
X149753581Y-133614609D01*
X149705962Y-133757467D01*
X149610724Y-133852705D01*
X149515486Y-133900324D01*
X149325010Y-133947943D01*
X149182152Y-133947943D01*
X148991676Y-133900324D01*
X148896438Y-133852705D01*
X148801200Y-133757467D01*
X148753581Y-133614609D01*
X148753581Y-133519371D01*
X148801200Y-133376514D01*
X148848819Y-133328895D01*
X149753581Y-132757467D02*
X149705962Y-132852705D01*
X149658343Y-132900324D01*
X149563105Y-132947943D01*
X149277390Y-132947943D01*
X149182152Y-132900324D01*
X149134533Y-132852705D01*
X149086914Y-132757467D01*
X149086914Y-132614609D01*
X149134533Y-132519371D01*
X149182152Y-132471752D01*
X149277390Y-132424133D01*
X149563105Y-132424133D01*
X149658343Y-132471752D01*
X149705962Y-132519371D01*
X149753581Y-132614609D01*
X149753581Y-132757467D01*
X149086914Y-131995562D02*
X149753581Y-131995562D01*
X149182152Y-131995562D02*
X149134533Y-131947943D01*
X149086914Y-131852705D01*
X149086914Y-131709847D01*
X149134533Y-131614609D01*
X149229771Y-131566990D01*
X149753581Y-131566990D01*
X149086914Y-131090800D02*
X149753581Y-131090800D01*
X149182152Y-131090800D02*
X149134533Y-131043181D01*
X149086914Y-130947943D01*
X149086914Y-130805085D01*
X149134533Y-130709847D01*
X149229771Y-130662228D01*
X149753581Y-130662228D01*
X149848819Y-130424133D02*
X149848819Y-129662228D01*
X148753581Y-129233657D02*
X148753581Y-129138418D01*
X148801200Y-129043180D01*
X148848819Y-128995561D01*
X148944057Y-128947942D01*
X149134533Y-128900323D01*
X149372629Y-128900323D01*
X149563105Y-128947942D01*
X149658343Y-128995561D01*
X149705962Y-129043180D01*
X149753581Y-129138418D01*
X149753581Y-129233657D01*
X149705962Y-129328895D01*
X149658343Y-129376514D01*
X149563105Y-129424133D01*
X149372629Y-129471752D01*
X149134533Y-129471752D01*
X148944057Y-129424133D01*
X148848819Y-129376514D01*
X148801200Y-129328895D01*
X148753581Y-129233657D01*
X149753581Y-127947942D02*
X149753581Y-128519371D01*
X149753581Y-128233657D02*
X148753581Y-128233657D01*
X148896438Y-128328895D01*
X148991676Y-128424133D01*
X149039295Y-128519371D01*
X149753581Y-127614609D02*
X149086914Y-127090799D01*
X149086914Y-127614609D02*
X149753581Y-127090799D01*
X148753581Y-126519371D02*
X148753581Y-126424132D01*
X148801200Y-126328894D01*
X148848819Y-126281275D01*
X148944057Y-126233656D01*
X149134533Y-126186037D01*
X149372629Y-126186037D01*
X149563105Y-126233656D01*
X149658343Y-126281275D01*
X149705962Y-126328894D01*
X149753581Y-126424132D01*
X149753581Y-126519371D01*
X149705962Y-126614609D01*
X149658343Y-126662228D01*
X149563105Y-126709847D01*
X149372629Y-126757466D01*
X149134533Y-126757466D01*
X148944057Y-126709847D01*
X148848819Y-126662228D01*
X148801200Y-126614609D01*
X148753581Y-126519371D01*
X148848819Y-125805085D02*
X148801200Y-125757466D01*
X148753581Y-125662228D01*
X148753581Y-125424132D01*
X148801200Y-125328894D01*
X148848819Y-125281275D01*
X148944057Y-125233656D01*
X149039295Y-125233656D01*
X149182152Y-125281275D01*
X149753581Y-125852704D01*
X149753581Y-125233656D01*
X147016221Y-109299333D02*
X147730507Y-109299333D01*
X147873364Y-109346953D01*
X147968602Y-109442191D01*
X148016221Y-109585048D01*
X148016221Y-109680286D01*
X148016221Y-108775524D02*
X148016221Y-108585048D01*
X147968602Y-108489809D01*
X147920983Y-108442190D01*
X147778126Y-108346952D01*
X147587650Y-108299333D01*
X147206697Y-108299333D01*
X147111459Y-108346952D01*
X147063840Y-108394571D01*
X147016221Y-108489809D01*
X147016221Y-108680286D01*
X147063840Y-108775524D01*
X147111459Y-108823143D01*
X147206697Y-108870762D01*
X147444792Y-108870762D01*
X147540030Y-108823143D01*
X147587650Y-108775524D01*
X147635269Y-108680286D01*
X147635269Y-108489809D01*
X147587650Y-108394571D01*
X147540030Y-108346952D01*
X147444792Y-108299333D01*
X149277343Y-112704095D02*
X149324962Y-112751714D01*
X149372581Y-112894571D01*
X149372581Y-112989809D01*
X149324962Y-113132667D01*
X149229724Y-113227905D01*
X149134486Y-113275524D01*
X148944010Y-113323143D01*
X148801152Y-113323143D01*
X148610676Y-113275524D01*
X148515438Y-113227905D01*
X148420200Y-113132667D01*
X148372581Y-112989809D01*
X148372581Y-112894571D01*
X148420200Y-112751714D01*
X148467819Y-112704095D01*
X149372581Y-112132667D02*
X149324962Y-112227905D01*
X149277343Y-112275524D01*
X149182105Y-112323143D01*
X148896390Y-112323143D01*
X148801152Y-112275524D01*
X148753533Y-112227905D01*
X148705914Y-112132667D01*
X148705914Y-111989809D01*
X148753533Y-111894571D01*
X148801152Y-111846952D01*
X148896390Y-111799333D01*
X149182105Y-111799333D01*
X149277343Y-111846952D01*
X149324962Y-111894571D01*
X149372581Y-111989809D01*
X149372581Y-112132667D01*
X148705914Y-111370762D02*
X149372581Y-111370762D01*
X148801152Y-111370762D02*
X148753533Y-111323143D01*
X148705914Y-111227905D01*
X148705914Y-111085047D01*
X148753533Y-110989809D01*
X148848771Y-110942190D01*
X149372581Y-110942190D01*
X148705914Y-110466000D02*
X149372581Y-110466000D01*
X148801152Y-110466000D02*
X148753533Y-110418381D01*
X148705914Y-110323143D01*
X148705914Y-110180285D01*
X148753533Y-110085047D01*
X148848771Y-110037428D01*
X149372581Y-110037428D01*
X149467819Y-109799333D02*
X149467819Y-109037428D01*
X148372581Y-108608857D02*
X148372581Y-108513618D01*
X148420200Y-108418380D01*
X148467819Y-108370761D01*
X148563057Y-108323142D01*
X148753533Y-108275523D01*
X148991629Y-108275523D01*
X149182105Y-108323142D01*
X149277343Y-108370761D01*
X149324962Y-108418380D01*
X149372581Y-108513618D01*
X149372581Y-108608857D01*
X149324962Y-108704095D01*
X149277343Y-108751714D01*
X149182105Y-108799333D01*
X148991629Y-108846952D01*
X148753533Y-108846952D01*
X148563057Y-108799333D01*
X148467819Y-108751714D01*
X148420200Y-108704095D01*
X148372581Y-108608857D01*
X149372581Y-107323142D02*
X149372581Y-107894571D01*
X149372581Y-107608857D02*
X148372581Y-107608857D01*
X148515438Y-107704095D01*
X148610676Y-107799333D01*
X148658295Y-107894571D01*
X149372581Y-106989809D02*
X148705914Y-106465999D01*
X148705914Y-106989809D02*
X149372581Y-106465999D01*
X148372581Y-105894571D02*
X148372581Y-105799332D01*
X148420200Y-105704094D01*
X148467819Y-105656475D01*
X148563057Y-105608856D01*
X148753533Y-105561237D01*
X148991629Y-105561237D01*
X149182105Y-105608856D01*
X149277343Y-105656475D01*
X149324962Y-105704094D01*
X149372581Y-105799332D01*
X149372581Y-105894571D01*
X149324962Y-105989809D01*
X149277343Y-106037428D01*
X149182105Y-106085047D01*
X148991629Y-106132666D01*
X148753533Y-106132666D01*
X148563057Y-106085047D01*
X148467819Y-106037428D01*
X148420200Y-105989809D01*
X148372581Y-105894571D01*
X148467819Y-105180285D02*
X148420200Y-105132666D01*
X148372581Y-105037428D01*
X148372581Y-104799332D01*
X148420200Y-104704094D01*
X148467819Y-104656475D01*
X148563057Y-104608856D01*
X148658295Y-104608856D01*
X148801152Y-104656475D01*
X149372581Y-105227904D01*
X149372581Y-104608856D01*
D11*
X143613143Y-145676857D02*
X143660762Y-145724476D01*
X143708381Y-145867333D01*
X143708381Y-145962571D01*
X143660762Y-146105429D01*
X143565524Y-146200667D01*
X143470286Y-146248286D01*
X143279810Y-146295905D01*
X143136952Y-146295905D01*
X142946476Y-146248286D01*
X142851238Y-146200667D01*
X142756000Y-146105429D01*
X142708381Y-145962571D01*
X142708381Y-145867333D01*
X142756000Y-145724476D01*
X142803619Y-145676857D01*
X143708381Y-144724476D02*
X143708381Y-145295905D01*
X143708381Y-145010191D02*
X142708381Y-145010191D01*
X142851238Y-145105429D01*
X142946476Y-145200667D01*
X142994095Y-145295905D01*
X142803619Y-144343524D02*
X142756000Y-144295905D01*
X142708381Y-144200667D01*
X142708381Y-143962571D01*
X142756000Y-143867333D01*
X142803619Y-143819714D01*
X142898857Y-143772095D01*
X142994095Y-143772095D01*
X143136952Y-143819714D01*
X143708381Y-144391143D01*
X143708381Y-143772095D01*
X140073143Y-56999143D02*
X140025524Y-57046762D01*
X139882667Y-57094381D01*
X139787429Y-57094381D01*
X139644571Y-57046762D01*
X139549333Y-56951524D01*
X139501714Y-56856286D01*
X139454095Y-56665810D01*
X139454095Y-56522952D01*
X139501714Y-56332476D01*
X139549333Y-56237238D01*
X139644571Y-56142000D01*
X139787429Y-56094381D01*
X139882667Y-56094381D01*
X140025524Y-56142000D01*
X140073143Y-56189619D01*
X141025524Y-57094381D02*
X140454095Y-57094381D01*
X140739809Y-57094381D02*
X140739809Y-56094381D01*
X140644571Y-56237238D01*
X140549333Y-56332476D01*
X140454095Y-56380095D01*
X141358857Y-56094381D02*
X141977905Y-56094381D01*
X141644571Y-56475333D01*
X141787429Y-56475333D01*
X141882667Y-56522952D01*
X141930286Y-56570571D01*
X141977905Y-56665810D01*
X141977905Y-56903905D01*
X141930286Y-56999143D01*
X141882667Y-57046762D01*
X141787429Y-57094381D01*
X141501714Y-57094381D01*
X141406476Y-57046762D01*
X141358857Y-56999143D01*
X60257143Y-54657143D02*
X60209524Y-54704762D01*
X60066667Y-54752381D01*
X59971429Y-54752381D01*
X59828571Y-54704762D01*
X59733333Y-54609524D01*
X59685714Y-54514286D01*
X59638095Y-54323810D01*
X59638095Y-54180952D01*
X59685714Y-53990476D01*
X59733333Y-53895238D01*
X59828571Y-53800000D01*
X59971429Y-53752381D01*
X60066667Y-53752381D01*
X60209524Y-53800000D01*
X60257143Y-53847619D01*
X60638095Y-53847619D02*
X60685714Y-53800000D01*
X60780952Y-53752381D01*
X61019048Y-53752381D01*
X61114286Y-53800000D01*
X61161905Y-53847619D01*
X61209524Y-53942857D01*
X61209524Y-54038095D01*
X61161905Y-54180952D01*
X60590476Y-54752381D01*
X61209524Y-54752381D01*
X62066667Y-53752381D02*
X61876190Y-53752381D01*
X61780952Y-53800000D01*
X61733333Y-53847619D01*
X61638095Y-53990476D01*
X61590476Y-54180952D01*
X61590476Y-54561905D01*
X61638095Y-54657143D01*
X61685714Y-54704762D01*
X61780952Y-54752381D01*
X61971429Y-54752381D01*
X62066667Y-54704762D01*
X62114286Y-54657143D01*
X62161905Y-54561905D01*
X62161905Y-54323810D01*
X62114286Y-54228571D01*
X62066667Y-54180952D01*
X61971429Y-54133333D01*
X61780952Y-54133333D01*
X61685714Y-54180952D01*
X61638095Y-54228571D01*
X61590476Y-54323810D01*
X60207143Y-51807143D02*
X60159524Y-51854762D01*
X60016667Y-51902381D01*
X59921429Y-51902381D01*
X59778571Y-51854762D01*
X59683333Y-51759524D01*
X59635714Y-51664286D01*
X59588095Y-51473810D01*
X59588095Y-51330952D01*
X59635714Y-51140476D01*
X59683333Y-51045238D01*
X59778571Y-50950000D01*
X59921429Y-50902381D01*
X60016667Y-50902381D01*
X60159524Y-50950000D01*
X60207143Y-50997619D01*
X60588095Y-50997619D02*
X60635714Y-50950000D01*
X60730952Y-50902381D01*
X60969048Y-50902381D01*
X61064286Y-50950000D01*
X61111905Y-50997619D01*
X61159524Y-51092857D01*
X61159524Y-51188095D01*
X61111905Y-51330952D01*
X60540476Y-51902381D01*
X61159524Y-51902381D01*
X61492857Y-50902381D02*
X62159524Y-50902381D01*
X61730952Y-51902381D01*
M02*
