G04 #@! TF.FileFunction,Copper,L2,Bot,Signal*
%FSLAX46Y46*%
G04 Gerber Fmt 4.6, Leading zero omitted, Abs format (unit mm)*
G04 Created by KiCad (PCBNEW 4.0.7) date 06/02/19 08:27:19*
%MOMM*%
%LPD*%
G01*
G04 APERTURE LIST*
%ADD10C,0.100000*%
%ADD11R,1.600000X1.600000*%
%ADD12O,1.600000X1.600000*%
%ADD13C,2.500000*%
%ADD14O,2.500000X2.500000*%
%ADD15R,1.800000X1.800000*%
%ADD16C,1.800000*%
%ADD17C,1.600000*%
%ADD18R,1.700000X1.700000*%
%ADD19O,1.700000X1.700000*%
%ADD20C,5.500000*%
%ADD21O,1.500000X3.000000*%
%ADD22O,3.000000X1.500000*%
%ADD23C,2.200000*%
%ADD24C,1.700000*%
%ADD25C,2.400000*%
%ADD26O,1.500000X1.500000*%
%ADD27C,1.500000*%
%ADD28R,3.000000X3.000000*%
%ADD29C,3.000000*%
%ADD30C,0.600000*%
%ADD31C,0.500000*%
%ADD32C,0.350000*%
%ADD33C,1.000000*%
G04 APERTURE END LIST*
D10*
D11*
X73025000Y-127762000D03*
D12*
X80645000Y-148082000D03*
X73025000Y-130302000D03*
X80645000Y-145542000D03*
X73025000Y-132842000D03*
X80645000Y-143002000D03*
X73025000Y-135382000D03*
X80645000Y-140462000D03*
X73025000Y-137922000D03*
X80645000Y-137922000D03*
X73025000Y-140462000D03*
X80645000Y-135382000D03*
X73025000Y-143002000D03*
X80645000Y-132842000D03*
X73025000Y-145542000D03*
X80645000Y-130302000D03*
X73025000Y-148082000D03*
X80645000Y-127762000D03*
D13*
X116586000Y-145542000D03*
D14*
X124206000Y-145542000D03*
D15*
X138811000Y-139319000D03*
D16*
X138811000Y-141859000D03*
D17*
X67259200Y-127609600D03*
D12*
X59639200Y-127609600D03*
D15*
X125222000Y-139319000D03*
D16*
X125222000Y-141859000D03*
D17*
X143510000Y-136906000D03*
D12*
X143510000Y-129286000D03*
D15*
X120650000Y-139319000D03*
D16*
X120650000Y-141859000D03*
D11*
X101473000Y-127889000D03*
D12*
X109093000Y-148209000D03*
X101473000Y-130429000D03*
X109093000Y-145669000D03*
X101473000Y-132969000D03*
X109093000Y-143129000D03*
X101473000Y-135509000D03*
X109093000Y-140589000D03*
X101473000Y-138049000D03*
X109093000Y-138049000D03*
X101473000Y-140589000D03*
X109093000Y-135509000D03*
X101473000Y-143129000D03*
X109093000Y-132969000D03*
X101473000Y-145669000D03*
X109093000Y-130429000D03*
X101473000Y-148209000D03*
X109093000Y-127889000D03*
D17*
X116078000Y-123952000D03*
X116078000Y-126452000D03*
X120904000Y-123952000D03*
X120904000Y-126452000D03*
X125222000Y-123952000D03*
X125222000Y-126452000D03*
X130048000Y-123952000D03*
X130048000Y-126452000D03*
X134366000Y-123952000D03*
X134366000Y-126452000D03*
X138684000Y-123952000D03*
X138684000Y-126452000D03*
X143510000Y-123952000D03*
X143510000Y-126452000D03*
X147828000Y-123190000D03*
X147828000Y-125690000D03*
X69926200Y-130225800D03*
X69926200Y-127725800D03*
D18*
X69342000Y-140258800D03*
D19*
X69342000Y-137718800D03*
X69342000Y-135178800D03*
D18*
X65963800Y-140182600D03*
D19*
X65963800Y-137642600D03*
X65963800Y-135102600D03*
D18*
X62611000Y-140182600D03*
D19*
X62611000Y-137642600D03*
X62611000Y-135102600D03*
D17*
X67259200Y-130378200D03*
D12*
X59639200Y-130378200D03*
D20*
X53000000Y-147000000D03*
X147002500Y-147002500D03*
D15*
X129794000Y-139319000D03*
D16*
X129794000Y-141859000D03*
D15*
X134239000Y-139319000D03*
D16*
X134239000Y-141859000D03*
D15*
X143383000Y-139319000D03*
D16*
X143383000Y-141859000D03*
D15*
X147828000Y-139319000D03*
D16*
X147828000Y-141859000D03*
D17*
X116141500Y-136969500D03*
D12*
X116141500Y-129349500D03*
D17*
X120777000Y-137160000D03*
D12*
X120777000Y-129540000D03*
D17*
X125222000Y-136906000D03*
D12*
X125222000Y-129286000D03*
D17*
X129794000Y-136906000D03*
D12*
X129794000Y-129286000D03*
D17*
X134366000Y-136906000D03*
D12*
X134366000Y-129286000D03*
D17*
X138684000Y-136906000D03*
D12*
X138684000Y-129286000D03*
D17*
X147447000Y-136906000D03*
D12*
X147447000Y-129286000D03*
D17*
X86106000Y-127152400D03*
X83606000Y-127152400D03*
D21*
X88646000Y-68326000D03*
X88646000Y-63826000D03*
X88646000Y-72826000D03*
X85661500Y-84899500D03*
X85661500Y-80399500D03*
X85661500Y-89399500D03*
X85725000Y-99822000D03*
X85725000Y-95322000D03*
X85725000Y-104322000D03*
X114046000Y-106172000D03*
X114046000Y-110672000D03*
X114046000Y-101672000D03*
X113880000Y-91310000D03*
X113880000Y-95810000D03*
X113880000Y-86810000D03*
X113875000Y-76050000D03*
X113875000Y-80550000D03*
X113875000Y-71550000D03*
D22*
X100647500Y-115316000D03*
X105147500Y-115316000D03*
X96147500Y-115316000D03*
D18*
X140970000Y-118491000D03*
X111569500Y-118745000D03*
X90805000Y-118300500D03*
X98107500Y-118491000D03*
X53340000Y-118237000D03*
X81470500Y-118300500D03*
X105029000Y-118681500D03*
X62674500Y-118173500D03*
X71818500Y-118173500D03*
X121983500Y-118364000D03*
X131826000Y-118491000D03*
D17*
X90297000Y-130302000D03*
D12*
X97917000Y-130302000D03*
D17*
X90297000Y-132842000D03*
D12*
X97917000Y-132842000D03*
D17*
X90297000Y-135255000D03*
D12*
X97917000Y-135255000D03*
D17*
X90297000Y-137668000D03*
D12*
X97917000Y-137668000D03*
D17*
X90424000Y-140081000D03*
D12*
X98044000Y-140081000D03*
D17*
X90424000Y-142621000D03*
D12*
X98044000Y-142621000D03*
D17*
X90424000Y-145034000D03*
D12*
X98044000Y-145034000D03*
D17*
X90551000Y-147701000D03*
D12*
X98171000Y-147701000D03*
D15*
X116078000Y-139319000D03*
D16*
X116078000Y-141859000D03*
D17*
X83820000Y-130175000D03*
X86320000Y-130175000D03*
X83820000Y-132842000D03*
X86320000Y-132842000D03*
X83566000Y-135382000D03*
X86066000Y-135382000D03*
X83693000Y-137922000D03*
X86193000Y-137922000D03*
X83693000Y-140525500D03*
X86193000Y-140525500D03*
X83756500Y-143129000D03*
X86256500Y-143129000D03*
X83756500Y-145796000D03*
X86256500Y-145796000D03*
X83693000Y-148272500D03*
X86193000Y-148272500D03*
D13*
X116586000Y-148463000D03*
D14*
X124206000Y-148463000D03*
D17*
X59664600Y-148132800D03*
X59664600Y-145632800D03*
X59690000Y-142494000D03*
X59690000Y-139994000D03*
D18*
X54203600Y-140035280D03*
D19*
X51663600Y-140035280D03*
X54203600Y-137495280D03*
X51663600Y-137495280D03*
X54203600Y-134955280D03*
X51663600Y-134955280D03*
X54203600Y-132415280D03*
X51663600Y-132415280D03*
X54203600Y-129875280D03*
X51663600Y-129875280D03*
D17*
X55676800Y-59232800D03*
X55676800Y-61732800D03*
X56591200Y-82880200D03*
X56591200Y-85380200D03*
X56464200Y-95148400D03*
X56464200Y-97648400D03*
X56718200Y-107670600D03*
X56718200Y-110170600D03*
X56464200Y-69799200D03*
X56464200Y-72299200D03*
X143992600Y-108305600D03*
X143992600Y-105805600D03*
X144068800Y-94488000D03*
X144068800Y-91988000D03*
X143840200Y-81711800D03*
X143840200Y-79211800D03*
X143941800Y-68910200D03*
X143941800Y-66410200D03*
D11*
X56657240Y-123027440D03*
D17*
X54157240Y-123027440D03*
D23*
X127508000Y-148005800D03*
X132508000Y-148005800D03*
X140665200Y-147980400D03*
X135665200Y-147980400D03*
D18*
X64068960Y-147579080D03*
D19*
X66608960Y-147579080D03*
X69148960Y-147579080D03*
D17*
X113792000Y-148437600D03*
X113792000Y-145937600D03*
D23*
X127467360Y-145409920D03*
X132467360Y-145409920D03*
X140655040Y-145348960D03*
X135655040Y-145348960D03*
D20*
X147000000Y-53000000D03*
D24*
X89208000Y-94079000D03*
X89208000Y-97079000D03*
X98811000Y-94079000D03*
X98811000Y-97079000D03*
D25*
X93700000Y-90825000D03*
X93700000Y-99825000D03*
D24*
X89107000Y-106902500D03*
X89107000Y-109902500D03*
X98710000Y-106902500D03*
X98710000Y-109902500D03*
D25*
X93599000Y-103648500D03*
X93599000Y-112648500D03*
D24*
X111235500Y-109315000D03*
X111235500Y-106315000D03*
X101632500Y-109315000D03*
X101632500Y-106315000D03*
D25*
X106743500Y-112569000D03*
X106743500Y-103569000D03*
D24*
X111167000Y-96946000D03*
X111167000Y-93946000D03*
X101564000Y-96946000D03*
X101564000Y-93946000D03*
D25*
X106675000Y-100200000D03*
X106675000Y-91200000D03*
D24*
X111167000Y-68771000D03*
X111167000Y-65771000D03*
X101564000Y-68771000D03*
X101564000Y-65771000D03*
D25*
X106675000Y-72025000D03*
X106675000Y-63025000D03*
D24*
X111167000Y-81946000D03*
X111167000Y-78946000D03*
X101564000Y-81946000D03*
X101564000Y-78946000D03*
D25*
X106675000Y-85200000D03*
X106675000Y-76200000D03*
D24*
X89308000Y-79429000D03*
X89308000Y-82429000D03*
X98911000Y-79429000D03*
X98911000Y-82429000D03*
D25*
X93800000Y-76175000D03*
X93800000Y-85175000D03*
D16*
X66088240Y-54493000D03*
X76248240Y-54493000D03*
X71168240Y-54493000D03*
X71168240Y-62093000D03*
X66088240Y-62093000D03*
X76248240Y-62093000D03*
X58468240Y-54493000D03*
X58468240Y-62093000D03*
X67470000Y-66685000D03*
X77630000Y-66685000D03*
X72550000Y-66685000D03*
X72550000Y-74285000D03*
X67470000Y-74285000D03*
X77630000Y-74285000D03*
X59850000Y-66685000D03*
X59850000Y-74285000D03*
X67470000Y-79512000D03*
X77630000Y-79512000D03*
X72550000Y-79512000D03*
X72550000Y-87112000D03*
X67470000Y-87112000D03*
X77630000Y-87112000D03*
X59850000Y-79512000D03*
X59850000Y-87112000D03*
X67368400Y-92770800D03*
X77528400Y-92770800D03*
X72448400Y-92770800D03*
X72448400Y-100370800D03*
X67368400Y-100370800D03*
X77528400Y-100370800D03*
X59748400Y-92770800D03*
X59748400Y-100370800D03*
X67495400Y-105724800D03*
X77655400Y-105724800D03*
X72575400Y-105724800D03*
X72575400Y-113324800D03*
X67495400Y-113324800D03*
X77655400Y-113324800D03*
X59875400Y-105724800D03*
X59875400Y-113324800D03*
X132732800Y-110530800D03*
X122572800Y-110530800D03*
X127652800Y-110530800D03*
X127652800Y-102930800D03*
X132732800Y-102930800D03*
X122572800Y-102930800D03*
X140352800Y-110530800D03*
X140352800Y-102930800D03*
X133012200Y-97068800D03*
X122852200Y-97068800D03*
X127932200Y-97068800D03*
X127932200Y-89468800D03*
X133012200Y-89468800D03*
X122852200Y-89468800D03*
X140632200Y-97068800D03*
X140632200Y-89468800D03*
X132885200Y-83987800D03*
X122725200Y-83987800D03*
X127805200Y-83987800D03*
X127805200Y-76387800D03*
X132885200Y-76387800D03*
X122725200Y-76387800D03*
X140505200Y-83987800D03*
X140505200Y-76387800D03*
X133012200Y-71186200D03*
X122852200Y-71186200D03*
X127932200Y-71186200D03*
X127932200Y-63586200D03*
X133012200Y-63586200D03*
X122852200Y-63586200D03*
X140632200Y-71186200D03*
X140632200Y-63586200D03*
D26*
X127000000Y-54800500D03*
X81254600Y-62560200D03*
X148107400Y-58714640D03*
X148148040Y-61762640D03*
X52151280Y-62976760D03*
X52095400Y-59791600D03*
D20*
X53000000Y-53000000D03*
D26*
X76459080Y-52024280D03*
D27*
X135331200Y-58150800D03*
X132791200Y-58150800D03*
D28*
X137617200Y-55422800D03*
D29*
X132537200Y-55422800D03*
D27*
X118681500Y-58163500D03*
X116141500Y-58163500D03*
D28*
X120967500Y-55435500D03*
D29*
X115887500Y-55435500D03*
D27*
X102235000Y-58354000D03*
X99695000Y-58354000D03*
D28*
X104521000Y-55626000D03*
D29*
X99441000Y-55626000D03*
D27*
X85953600Y-58328600D03*
X83413600Y-58328600D03*
D28*
X88239600Y-55600600D03*
D29*
X83159600Y-55600600D03*
D30*
X76517500Y-147828000D03*
X76835000Y-145415000D03*
X76898500Y-142811500D03*
X76835000Y-140271500D03*
X77279500Y-137160000D03*
X77216000Y-134620000D03*
X77343000Y-132080000D03*
X77406500Y-129794000D03*
X77406500Y-127635000D03*
X54483000Y-125730000D03*
X56388000Y-126492000D03*
X57975500Y-126365000D03*
X59880500Y-125349000D03*
X63500000Y-125349000D03*
X66040000Y-125476000D03*
X69088000Y-125476000D03*
X72072500Y-125412500D03*
X73787000Y-125412500D03*
X75692000Y-125412500D03*
X77597000Y-125412500D03*
X57975500Y-145351500D03*
X57721500Y-143637000D03*
X57277000Y-141986000D03*
X56007000Y-141605000D03*
X51244500Y-127889000D03*
X51181000Y-126365000D03*
X51308000Y-124650500D03*
X51689000Y-122682000D03*
X147396200Y-79806800D03*
X120396000Y-135382000D03*
X148137880Y-93253560D03*
X122428000Y-134620000D03*
X148854160Y-106710480D03*
X126492000Y-133858000D03*
X130048000Y-133096000D03*
X132842000Y-132334000D03*
X136144000Y-131572000D03*
X142240000Y-130810000D03*
X56261000Y-132918200D03*
D31*
X74461600Y-110083600D02*
X74772000Y-110394000D01*
D32*
X74461600Y-110083600D02*
X74772000Y-110394000D01*
D33*
X67495400Y-113324800D02*
X67495400Y-105724800D01*
X67495400Y-113324800D02*
X67495400Y-113444000D01*
X67495400Y-113444000D02*
X69545200Y-115493800D01*
X74879200Y-115493800D02*
X90741000Y-115506500D01*
X90741000Y-115506500D02*
X93599000Y-112648500D01*
X69545200Y-115493800D02*
X74879200Y-115493800D01*
X93599000Y-112648500D02*
X99123000Y-112648500D01*
X100647500Y-114173000D02*
X100647500Y-115316000D01*
X99123000Y-112648500D02*
X100647500Y-114173000D01*
X122572800Y-102930800D02*
X122572800Y-110530800D01*
X122852200Y-89468800D02*
X122852200Y-97068800D01*
X118681500Y-58163500D02*
X117906800Y-59969400D01*
X117043200Y-60833000D02*
X114173000Y-60833000D01*
X117906800Y-59969400D02*
X117043200Y-60833000D01*
X118681500Y-58163500D02*
X118681500Y-57721500D01*
X118681500Y-57721500D02*
X120967500Y-55435500D01*
X72550000Y-66685000D02*
X72550000Y-66261000D01*
X72550000Y-66261000D02*
X74422000Y-64389000D01*
X88138000Y-60833000D02*
X114173000Y-60833000D01*
X84582000Y-64389000D02*
X88138000Y-60833000D01*
X74422000Y-64389000D02*
X84582000Y-64389000D01*
D32*
X76835000Y-142875000D02*
X76835000Y-145415000D01*
X76898500Y-142811500D02*
X76835000Y-142875000D01*
X76835000Y-137604500D02*
X76835000Y-140271500D01*
X77279500Y-137160000D02*
X76835000Y-137604500D01*
X77216000Y-132207000D02*
X77216000Y-134620000D01*
X77343000Y-132080000D02*
X77216000Y-132207000D01*
X77406500Y-127635000D02*
X77406500Y-129794000D01*
X54157240Y-125404240D02*
X54483000Y-125730000D01*
X56388000Y-126492000D02*
X56515000Y-126365000D01*
X56515000Y-126365000D02*
X57975500Y-126365000D01*
X59880500Y-125349000D02*
X63500000Y-125349000D01*
X66040000Y-125476000D02*
X69088000Y-125476000D01*
X72072500Y-125412500D02*
X73787000Y-125412500D01*
X75692000Y-125412500D02*
X77597000Y-125412500D01*
X54157240Y-123027440D02*
X54157240Y-125404240D01*
X54203600Y-140035280D02*
X54437280Y-140035280D01*
X54437280Y-140035280D02*
X56007000Y-141605000D01*
X58256800Y-145632800D02*
X59664600Y-145632800D01*
X57975500Y-145351500D02*
X58256800Y-145632800D01*
X57721500Y-142430500D02*
X57721500Y-143637000D01*
X57277000Y-141986000D02*
X57721500Y-142430500D01*
X54157240Y-123027440D02*
X52034440Y-123027440D01*
X51663600Y-128308100D02*
X51663600Y-129875280D01*
X51244500Y-127889000D02*
X51663600Y-128308100D01*
X51181000Y-124777500D02*
X51181000Y-126365000D01*
X51308000Y-124650500D02*
X51181000Y-124777500D01*
X52034440Y-123027440D02*
X51689000Y-122682000D01*
X116078000Y-126452000D02*
X116981600Y-126452000D01*
X146685000Y-69153400D02*
X143941800Y-66410200D01*
X146685000Y-112318800D02*
X146685000Y-69153400D01*
X145415000Y-113588800D02*
X146685000Y-112318800D01*
X122072400Y-113588800D02*
X145415000Y-113588800D01*
X118562120Y-117561360D02*
X122072400Y-113588800D01*
X118567200Y-124866400D02*
X118562120Y-117561360D01*
X116981600Y-126452000D02*
X118567200Y-124866400D01*
D31*
X140632200Y-63586200D02*
X141117800Y-63586200D01*
X141117800Y-63586200D02*
X143941800Y-66410200D01*
D32*
X109093000Y-145669000D02*
X108369100Y-145669000D01*
X108369100Y-145669000D02*
X107480100Y-144780000D01*
X108242100Y-126377700D02*
X116003700Y-126377700D01*
X107480100Y-127139700D02*
X108242100Y-126377700D01*
X107480100Y-144780000D02*
X107480100Y-127139700D01*
X116003700Y-126377700D02*
X116078000Y-126452000D01*
X116078000Y-126452000D02*
X116078000Y-129286000D01*
X116078000Y-129286000D02*
X116141500Y-129349500D01*
X120904000Y-126452000D02*
X121833000Y-126452000D01*
X147396200Y-112496600D02*
X147396200Y-79806800D01*
X145618200Y-114274600D02*
X147396200Y-112496600D01*
X125365602Y-114274600D02*
X145618200Y-114274600D01*
X124714000Y-114926202D02*
X125365602Y-114274600D01*
X124714000Y-120319800D02*
X124714000Y-114926202D01*
X123393200Y-121640600D02*
X124714000Y-120319800D01*
X123393200Y-124891800D02*
X123393200Y-121640600D01*
X121833000Y-126452000D02*
X123393200Y-124891800D01*
D31*
X143840200Y-79211800D02*
X143329200Y-79211800D01*
X143329200Y-79211800D02*
X140505200Y-76387800D01*
D32*
X109093000Y-143129000D02*
X109093000Y-142875000D01*
X109093000Y-142875000D02*
X111760000Y-140208000D01*
X111760000Y-140208000D02*
X111760000Y-137160000D01*
X111760000Y-137160000D02*
X113538000Y-135382000D01*
X113538000Y-135382000D02*
X120396000Y-135382000D01*
X120904000Y-126452000D02*
X120904000Y-129413000D01*
X120904000Y-129413000D02*
X120777000Y-129540000D01*
X125222000Y-126452000D02*
X125871600Y-126452000D01*
X125871600Y-126452000D02*
X127025400Y-125298200D01*
X148137880Y-112963960D02*
X148137880Y-93253560D01*
X146304000Y-114884200D02*
X148137880Y-112963960D01*
X127863600Y-114884200D02*
X146304000Y-114884200D01*
X127025400Y-115722400D02*
X127863600Y-114884200D01*
X127025400Y-125298200D02*
X127025400Y-115722400D01*
D31*
X140632200Y-89468800D02*
X141549600Y-89468800D01*
X141549600Y-89468800D02*
X144068800Y-91988000D01*
D32*
X109093000Y-140589000D02*
X109855000Y-140589000D01*
X109855000Y-140589000D02*
X110998000Y-139446000D01*
X113284000Y-134620000D02*
X122428000Y-134620000D01*
X110998000Y-136906000D02*
X113284000Y-134620000D01*
X110998000Y-139446000D02*
X110998000Y-136906000D01*
X125222000Y-126452000D02*
X125222000Y-129286000D01*
X109093000Y-140589000D02*
X109093000Y-140081000D01*
X130048000Y-126452000D02*
X130951600Y-126452000D01*
X148854160Y-113060480D02*
X148854160Y-106710480D01*
X146964400Y-115519200D02*
X148854160Y-113060480D01*
X135432800Y-115519200D02*
X146964400Y-115519200D01*
X134620000Y-116332000D02*
X135432800Y-115519200D01*
X134620000Y-120116600D02*
X134620000Y-116332000D01*
X132283200Y-122453400D02*
X134620000Y-120116600D01*
X132283200Y-125120400D02*
X132283200Y-122453400D01*
X130951600Y-126452000D02*
X132283200Y-125120400D01*
D31*
X140352800Y-102930800D02*
X141117800Y-102930800D01*
X141117800Y-102930800D02*
X143992600Y-105805600D01*
D32*
X130048000Y-126452000D02*
X130786500Y-126452000D01*
X109093000Y-138049000D02*
X109093000Y-137795000D01*
X109093000Y-137795000D02*
X113030000Y-133858000D01*
X113030000Y-133858000D02*
X126492000Y-133858000D01*
X130048000Y-126452000D02*
X130048000Y-129032000D01*
X130048000Y-129032000D02*
X129794000Y-129286000D01*
D31*
X56718200Y-110170600D02*
X56721200Y-110170600D01*
X56721200Y-110170600D02*
X59875400Y-113324800D01*
D32*
X109093000Y-135509000D02*
X109855000Y-135509000D01*
X109855000Y-135509000D02*
X112268000Y-133096000D01*
X112268000Y-133096000D02*
X130048000Y-133096000D01*
X134366000Y-126452000D02*
X134366000Y-129286000D01*
X133858000Y-128778000D02*
X134366000Y-129286000D01*
D31*
X56464200Y-97648400D02*
X57026000Y-97648400D01*
X57026000Y-97648400D02*
X59748400Y-100370800D01*
D32*
X109093000Y-132969000D02*
X110617000Y-132969000D01*
X111252000Y-132334000D02*
X132842000Y-132334000D01*
X110617000Y-132969000D02*
X111252000Y-132334000D01*
X138684000Y-129286000D02*
X138684000Y-126452000D01*
D31*
X56591200Y-85380200D02*
X57610200Y-85380200D01*
X57610200Y-85380200D02*
X59850000Y-87112000D01*
D32*
X109093000Y-130429000D02*
X113157000Y-130429000D01*
X114300000Y-131572000D02*
X136144000Y-131572000D01*
X113157000Y-130429000D02*
X114300000Y-131572000D01*
X143510000Y-126452000D02*
X143510000Y-129286000D01*
D31*
X56464200Y-72299200D02*
X57051400Y-72299200D01*
X57051400Y-72299200D02*
X59850000Y-74285000D01*
D32*
X109093000Y-127889000D02*
X112649000Y-127889000D01*
X112649000Y-127889000D02*
X115570000Y-130810000D01*
X115570000Y-130810000D02*
X142240000Y-130810000D01*
X147828000Y-125690000D02*
X147447000Y-129286000D01*
X54203600Y-129875280D02*
X54020720Y-129875280D01*
D31*
X73025000Y-140462000D02*
X74955400Y-140462000D01*
X75046840Y-126959360D02*
X74350880Y-126263400D01*
X75046840Y-140370560D02*
X75046840Y-126959360D01*
X74955400Y-140462000D02*
X75046840Y-140370560D01*
X69148960Y-147579080D02*
X69047360Y-147579080D01*
X69047360Y-147579080D02*
X70469760Y-142890240D01*
X70469760Y-142890240D02*
X70774560Y-142565120D01*
X70774560Y-142565120D02*
X73025000Y-140462000D01*
X65963800Y-135102600D02*
X62611000Y-135102600D01*
X65963800Y-135102600D02*
X69265800Y-135102600D01*
X69265800Y-135102600D02*
X69342000Y-135178800D01*
X67259200Y-130378200D02*
X67259200Y-133807200D01*
X67259200Y-133807200D02*
X65963800Y-135102600D01*
X67259200Y-127609600D02*
X66294000Y-127355600D01*
X59283600Y-126161800D02*
X56657240Y-123027440D01*
X64592200Y-126161800D02*
X59283600Y-126161800D01*
X66294000Y-127355600D02*
X64592200Y-126161800D01*
X69926200Y-127725800D02*
X70445000Y-127725800D01*
X70445000Y-127725800D02*
X71501000Y-126263400D01*
X71501000Y-126263400D02*
X74350880Y-126263400D01*
X79146400Y-126263400D02*
X80645000Y-127762000D01*
X74350880Y-126263400D02*
X79146400Y-126263400D01*
X67259200Y-127609600D02*
X67208400Y-130327400D01*
X67208400Y-130327400D02*
X67259200Y-130378200D01*
X67259200Y-127609600D02*
X69864600Y-127787400D01*
X69864600Y-127787400D02*
X69926200Y-127725800D01*
X80645000Y-127762000D02*
X82996400Y-127762000D01*
X82996400Y-127762000D02*
X83606000Y-127152400D01*
X54203600Y-129875280D02*
X55372000Y-126492000D01*
X55372000Y-126492000D02*
X56769000Y-122875040D01*
D33*
X56769000Y-122875040D02*
X56769000Y-123129040D01*
D32*
X72390000Y-135382000D02*
X73025000Y-135382000D01*
X72898000Y-132842000D02*
X73025000Y-132842000D01*
D33*
X135331200Y-58150800D02*
X135331200Y-57708800D01*
X135331200Y-57708800D02*
X137617200Y-55422800D01*
X133012200Y-63586200D02*
X133035200Y-63586200D01*
X133035200Y-63586200D02*
X135331200Y-61290200D01*
X135331200Y-61290200D02*
X135331200Y-58150800D01*
X113576100Y-63025000D02*
X114802900Y-63025000D01*
X114802900Y-63025000D02*
X116586000Y-64808100D01*
X123786900Y-60960000D02*
X121348500Y-60960000D01*
X123786900Y-60960000D02*
X130386000Y-60960000D01*
X133012200Y-63586200D02*
X130386000Y-60960000D01*
X121348500Y-60960000D02*
X116586000Y-65722500D01*
X133012200Y-71186200D02*
X133012200Y-63586200D01*
X82994500Y-78422500D02*
X83684500Y-78422500D01*
X83684500Y-78422500D02*
X85661500Y-80399500D01*
X88646000Y-63826000D02*
X87494500Y-63826000D01*
X82994500Y-92591500D02*
X85725000Y-95322000D01*
X82994500Y-68326000D02*
X82994500Y-78422500D01*
X82994500Y-78422500D02*
X82994500Y-92591500D01*
X87494500Y-63826000D02*
X82994500Y-68326000D01*
X106675000Y-63025000D02*
X89447000Y-63025000D01*
X89447000Y-63025000D02*
X88646000Y-63826000D01*
X114046000Y-110672000D02*
X114046000Y-110807500D01*
X114046000Y-110807500D02*
X109537500Y-115316000D01*
X109537500Y-115316000D02*
X105147500Y-115316000D01*
X106675000Y-63025000D02*
X113576100Y-63025000D01*
X116586000Y-65722500D02*
X116586000Y-64808100D01*
X113880000Y-95810000D02*
X115581500Y-95810000D01*
X115581500Y-95810000D02*
X116586000Y-94805500D01*
X114046000Y-110672000D02*
X115070500Y-110672000D01*
X116586000Y-109156500D02*
X116586000Y-94805500D01*
X116586000Y-94805500D02*
X116586000Y-79692500D01*
X115070500Y-110672000D02*
X116586000Y-109156500D01*
X113875000Y-80550000D02*
X115728500Y-80550000D01*
X116586000Y-79692500D02*
X116586000Y-65722500D01*
X115728500Y-80550000D02*
X116586000Y-79692500D01*
X76375240Y-62474000D02*
X80914400Y-62474000D01*
X80914400Y-62474000D02*
X81254600Y-62560200D01*
X76248240Y-54493000D02*
X76375240Y-62474000D01*
X81254600Y-62560200D02*
X83174840Y-62560200D01*
X98117700Y-59131200D02*
X99695000Y-58354000D01*
X87929720Y-58983880D02*
X98117700Y-59131200D01*
X83174840Y-62560200D02*
X87929720Y-58983880D01*
X99441000Y-55626000D02*
X99441000Y-58100000D01*
X99441000Y-58100000D02*
X99695000Y-58354000D01*
X98679000Y-56388000D02*
X99441000Y-55626000D01*
D32*
X116141500Y-136969500D02*
X116141500Y-139255500D01*
X116141500Y-139255500D02*
X116078000Y-139319000D01*
X120777000Y-137160000D02*
X120777000Y-139192000D01*
X120777000Y-139192000D02*
X120650000Y-139319000D01*
X125222000Y-136906000D02*
X125095000Y-139192000D01*
X125095000Y-139192000D02*
X125222000Y-139319000D01*
X129794000Y-136906000D02*
X130048000Y-139065000D01*
X130048000Y-139065000D02*
X129794000Y-139319000D01*
X130144520Y-137256520D02*
X129794000Y-136906000D01*
X134239000Y-139319000D02*
X134366000Y-136906000D01*
X134879080Y-137419080D02*
X134366000Y-136906000D01*
X138684000Y-136906000D02*
X138684000Y-139192000D01*
X138684000Y-139192000D02*
X138811000Y-139319000D01*
X143383000Y-139319000D02*
X143129000Y-137287000D01*
X143129000Y-137287000D02*
X143510000Y-136906000D01*
X147447000Y-136906000D02*
X147447000Y-138938000D01*
X147447000Y-138938000D02*
X147828000Y-139319000D01*
X148463000Y-138684000D02*
X147828000Y-139319000D01*
X147929600Y-136601200D02*
X148082000Y-136448800D01*
D31*
X53403500Y-118173500D02*
X53340000Y-118237000D01*
X62674500Y-118173500D02*
X53403500Y-118173500D01*
X71818500Y-118173500D02*
X81343500Y-118173500D01*
X81343500Y-118173500D02*
X81470500Y-118300500D01*
X104838500Y-118491000D02*
X105029000Y-118681500D01*
X97917000Y-118300500D02*
X98107500Y-118491000D01*
X62611000Y-118237000D02*
X62674500Y-118173500D01*
X143510000Y-123952000D02*
X147828000Y-123190000D01*
X143510000Y-123952000D02*
X138684000Y-123952000D01*
X55676800Y-59232800D02*
X55676800Y-57624800D01*
X55676800Y-57624800D02*
X58468240Y-54493000D01*
X55676800Y-59232800D02*
X55118000Y-59232800D01*
X55118000Y-59232800D02*
X53695600Y-60655200D01*
X53695600Y-60655200D02*
X53695600Y-66243200D01*
X53695600Y-66243200D02*
X54660800Y-67208400D01*
X56464200Y-69799200D02*
X57193000Y-69799200D01*
X57193000Y-69799200D02*
X59850000Y-66685000D01*
X56464200Y-69799200D02*
X55168800Y-69799200D01*
X55168800Y-69799200D02*
X54660800Y-70307200D01*
X63855600Y-115163600D02*
X63957200Y-115163600D01*
X63957200Y-115163600D02*
X68580000Y-119786400D01*
X56642000Y-115163600D02*
X63855600Y-115163600D01*
X68580000Y-120116600D02*
X70383400Y-121920000D01*
X68580000Y-119786400D02*
X68580000Y-120116600D01*
X56718200Y-107670600D02*
X55041800Y-107670600D01*
X55041800Y-107670600D02*
X54660800Y-108051600D01*
X56464200Y-95148400D02*
X55041800Y-95148400D01*
X55041800Y-95148400D02*
X54660800Y-95529400D01*
X56591200Y-82880200D02*
X55270400Y-82880200D01*
X55270400Y-82880200D02*
X54660800Y-82270600D01*
X111404400Y-121920000D02*
X70383400Y-121920000D01*
X56642000Y-115163600D02*
X54660800Y-113182400D01*
X54660800Y-113182400D02*
X54660800Y-108051600D01*
X54660800Y-108051600D02*
X54660800Y-95529400D01*
X54660800Y-95529400D02*
X54660800Y-82270600D01*
X54660800Y-82270600D02*
X54660800Y-70307200D01*
X54660800Y-70307200D02*
X54660800Y-67208400D01*
X143992600Y-108305600D02*
X144780000Y-108305600D01*
X144780000Y-108305600D02*
X146050000Y-109575600D01*
X144068800Y-94488000D02*
X144195800Y-94488000D01*
X144195800Y-94488000D02*
X146050000Y-96342200D01*
X146050000Y-83489800D02*
X145618200Y-83489800D01*
X145618200Y-83489800D02*
X143840200Y-81711800D01*
X109093000Y-148209000D02*
X108991400Y-148209000D01*
X108991400Y-148209000D02*
X106680000Y-145897600D01*
X146050000Y-71018400D02*
X143941800Y-68910200D01*
X146050000Y-111506000D02*
X146050000Y-109575600D01*
X146050000Y-109575600D02*
X146050000Y-96342200D01*
X146050000Y-96342200D02*
X146050000Y-83489800D01*
X146050000Y-83489800D02*
X146050000Y-71018400D01*
X145064480Y-112628680D02*
X146050000Y-111506000D01*
X121488200Y-112623600D02*
X145064480Y-112628680D01*
X113715800Y-121920000D02*
X121488200Y-112623600D01*
X110896400Y-121920000D02*
X111404400Y-121920000D01*
X111404400Y-121920000D02*
X113715800Y-121920000D01*
X106680000Y-126136400D02*
X110896400Y-121920000D01*
X106680000Y-145897600D02*
X106680000Y-126136400D01*
X56718200Y-107670600D02*
X57929600Y-107670600D01*
X57929600Y-107670600D02*
X59875400Y-105724800D01*
X56464200Y-95148400D02*
X57370800Y-95148400D01*
X57370800Y-95148400D02*
X59748400Y-92770800D01*
X56591200Y-82880200D02*
X56786600Y-82880200D01*
X56786600Y-82880200D02*
X59850000Y-79512000D01*
X143992600Y-108305600D02*
X142578000Y-108305600D01*
X142578000Y-108305600D02*
X140352800Y-110530800D01*
X144068800Y-94488000D02*
X143213000Y-94488000D01*
X143213000Y-94488000D02*
X140632200Y-97068800D01*
X143840200Y-81711800D02*
X142781200Y-81711800D01*
X142781200Y-81711800D02*
X140505200Y-83987800D01*
X143941800Y-68910200D02*
X142908200Y-68910200D01*
X142908200Y-68910200D02*
X140632200Y-71186200D01*
X127467360Y-145409920D02*
X127467360Y-144185640D01*
X127467360Y-144185640D02*
X129794000Y-141859000D01*
X127467360Y-145409920D02*
X127467360Y-147965160D01*
X127467360Y-147965160D02*
X127508000Y-148005800D01*
X127467360Y-145409920D02*
X124439680Y-145308320D01*
X124439680Y-145308320D02*
X124206000Y-145542000D01*
D32*
X116078000Y-141859000D02*
X116078000Y-141986000D01*
X116078000Y-141986000D02*
X114046000Y-144018000D01*
X111252000Y-146050000D02*
X109093000Y-148209000D01*
X111252000Y-145034000D02*
X111252000Y-146050000D01*
X112268000Y-144018000D02*
X111252000Y-145034000D01*
X114046000Y-144018000D02*
X112268000Y-144018000D01*
D31*
X124206000Y-145542000D02*
X123291600Y-145135600D01*
X123291600Y-145135600D02*
X127508000Y-148005800D01*
X124206000Y-145542000D02*
X121259600Y-142468600D01*
X121259600Y-142468600D02*
X120650000Y-141859000D01*
X147828000Y-141859000D02*
X143383000Y-141859000D01*
X143383000Y-141859000D02*
X138811000Y-141859000D01*
X134239000Y-141859000D02*
X138811000Y-141859000D01*
X129794000Y-141859000D02*
X134239000Y-141859000D01*
X125222000Y-141859000D02*
X129794000Y-141859000D01*
X120650000Y-141859000D02*
X125222000Y-141859000D01*
X116078000Y-141859000D02*
X120650000Y-141859000D01*
X109093000Y-148209000D02*
X109093000Y-147891500D01*
D32*
X83820000Y-130175000D02*
X83820000Y-129667000D01*
X83820000Y-129667000D02*
X84582000Y-128905000D01*
X88900000Y-128905000D02*
X90297000Y-130302000D01*
X84582000Y-128905000D02*
X88900000Y-128905000D01*
X83820000Y-130175000D02*
X80772000Y-130429000D01*
X80772000Y-130429000D02*
X80645000Y-130302000D01*
X101473000Y-127889000D02*
X100330000Y-127889000D01*
X100330000Y-127889000D02*
X97917000Y-130302000D01*
X83820000Y-132842000D02*
X83820000Y-132715000D01*
X83820000Y-132715000D02*
X84963000Y-131572000D01*
X89027000Y-131572000D02*
X90297000Y-132842000D01*
X84963000Y-131572000D02*
X89027000Y-131572000D01*
X80645000Y-132842000D02*
X83820000Y-132842000D01*
X97917000Y-132842000D02*
X99060000Y-132842000D01*
X99060000Y-132842000D02*
X101473000Y-130429000D01*
X83566000Y-135382000D02*
X83566000Y-135128000D01*
X83566000Y-135128000D02*
X84582000Y-134112000D01*
X89154000Y-134112000D02*
X90297000Y-135255000D01*
X84582000Y-134112000D02*
X89154000Y-134112000D01*
X83566000Y-135382000D02*
X80645000Y-135382000D01*
X97917000Y-135255000D02*
X99187000Y-135255000D01*
X99187000Y-135255000D02*
X101473000Y-132969000D01*
X83693000Y-137922000D02*
X84963000Y-136652000D01*
X89154000Y-136652000D02*
X90170000Y-137668000D01*
X84963000Y-136652000D02*
X89154000Y-136652000D01*
X90170000Y-137668000D02*
X90297000Y-137668000D01*
X83693000Y-137922000D02*
X80772000Y-137795000D01*
X80772000Y-137795000D02*
X80645000Y-137922000D01*
X97917000Y-137668000D02*
X99314000Y-137668000D01*
X99314000Y-137668000D02*
X101473000Y-135509000D01*
X83693000Y-140525500D02*
X83693000Y-140398500D01*
X83693000Y-140398500D02*
X84709000Y-139192000D01*
X89535000Y-139192000D02*
X90424000Y-140081000D01*
X84709000Y-139192000D02*
X89535000Y-139192000D01*
X80645000Y-140462000D02*
X83693000Y-140525500D01*
X98044000Y-140081000D02*
X99441000Y-140081000D01*
X99441000Y-140081000D02*
X101473000Y-138049000D01*
X83756500Y-143129000D02*
X83756500Y-142748000D01*
X83756500Y-142748000D02*
X84455000Y-141732000D01*
X89535000Y-141732000D02*
X90424000Y-142621000D01*
X84455000Y-141732000D02*
X89535000Y-141732000D01*
X80645000Y-143002000D02*
X83629500Y-143002000D01*
X83629500Y-143002000D02*
X83756500Y-143129000D01*
X98044000Y-142621000D02*
X99441000Y-142621000D01*
X99441000Y-142621000D02*
X101473000Y-140589000D01*
X83756500Y-145796000D02*
X84836000Y-144526000D01*
X89535000Y-145034000D02*
X90424000Y-145034000D01*
X89027000Y-144526000D02*
X89535000Y-145034000D01*
X84836000Y-144526000D02*
X89027000Y-144526000D01*
X80645000Y-145542000D02*
X83502500Y-145542000D01*
X83502500Y-145542000D02*
X83756500Y-145796000D01*
X98044000Y-145034000D02*
X99568000Y-145034000D01*
X99568000Y-145034000D02*
X101473000Y-143129000D01*
X83693000Y-148272500D02*
X83693000Y-148018500D01*
X83693000Y-148018500D02*
X84582000Y-147002500D01*
X84582000Y-147002500D02*
X90043000Y-147002500D01*
X90043000Y-147002500D02*
X90551000Y-147701000D01*
X80645000Y-148082000D02*
X83312000Y-147891500D01*
X83312000Y-147891500D02*
X83693000Y-148272500D01*
X98171000Y-147701000D02*
X99441000Y-147701000D01*
X99441000Y-147701000D02*
X101473000Y-145669000D01*
X54203600Y-134955280D02*
X54122320Y-134955280D01*
X54122320Y-134955280D02*
X52908200Y-136169400D01*
X52908200Y-138049000D02*
X51663600Y-139293600D01*
X52908200Y-136169400D02*
X52908200Y-138049000D01*
X51663600Y-139293600D02*
X51663600Y-140035280D01*
X51663600Y-140035280D02*
X51663600Y-139560300D01*
D31*
X59690000Y-139994000D02*
X59690000Y-140208000D01*
X59690000Y-140208000D02*
X62230000Y-142748000D01*
X62230000Y-143256000D02*
X64068960Y-147579080D01*
X62230000Y-142748000D02*
X62230000Y-143256000D01*
X54203600Y-134955280D02*
X57500520Y-134904480D01*
X59690000Y-138176000D02*
X59690000Y-139994000D01*
X57500520Y-134904480D02*
X59690000Y-138176000D01*
D32*
X57302400Y-130784600D02*
X59639200Y-127609600D01*
X57099200Y-131191000D02*
X57302400Y-130784600D01*
X56261000Y-132918200D02*
X57099200Y-131191000D01*
X54203600Y-132415280D02*
X55803800Y-133807200D01*
X58089800Y-133832600D02*
X59283600Y-130733800D01*
X55803800Y-133807200D02*
X58089800Y-133832600D01*
X59283600Y-130733800D02*
X59639200Y-130378200D01*
X60147200Y-130886200D02*
X59639200Y-130378200D01*
X54203600Y-132415280D02*
X54897020Y-132415280D01*
D31*
X116586000Y-145542000D02*
X114187600Y-145542000D01*
X114187600Y-145542000D02*
X113792000Y-145937600D01*
X113792000Y-145937600D02*
X112405800Y-145937600D01*
X112405800Y-145937600D02*
X112039400Y-146837400D01*
X66608960Y-147579080D02*
X66608960Y-147833080D01*
X66608960Y-147833080D02*
X67909440Y-149595840D01*
X67909440Y-149595840D02*
X110998000Y-149606000D01*
X110998000Y-149606000D02*
X112039400Y-149098000D01*
X112039400Y-149098000D02*
X112039400Y-146837400D01*
X116128800Y-145542000D02*
X116586000Y-145542000D01*
D33*
X76459080Y-52024280D02*
X76878180Y-52024280D01*
X76878180Y-52024280D02*
X79133700Y-51447700D01*
X110337600Y-55473600D02*
X115887500Y-55435500D01*
X109423200Y-53987700D02*
X110337600Y-55473600D01*
X109423200Y-51968400D02*
X109423200Y-53987700D01*
X108077000Y-51447700D02*
X109423200Y-51968400D01*
X79133700Y-51447700D02*
X108077000Y-51447700D01*
X76459080Y-52024280D02*
X72644000Y-52070000D01*
X71635600Y-53078400D02*
X71168240Y-54493000D01*
X72644000Y-52070000D02*
X71635600Y-53078400D01*
X71168240Y-62093000D02*
X71168240Y-54493000D01*
X115887500Y-55435500D02*
X115887500Y-57909500D01*
X115887500Y-57909500D02*
X116141500Y-58163500D01*
D31*
G36*
X58690000Y-138479753D02*
X58690000Y-138802136D01*
X58376740Y-139114849D01*
X58140270Y-139684333D01*
X58139732Y-140300961D01*
X58375208Y-140870857D01*
X58810849Y-141307260D01*
X59252218Y-141490532D01*
X59690000Y-141928315D01*
X59843051Y-141775264D01*
X60408736Y-142340949D01*
X60255685Y-142494000D01*
X60920805Y-143159119D01*
X61148712Y-143080925D01*
X61230000Y-143162213D01*
X61230000Y-143256000D01*
X61230943Y-143260743D01*
X61230045Y-143265495D01*
X61268961Y-143451874D01*
X61306120Y-143638683D01*
X61308808Y-143642706D01*
X61309796Y-143647438D01*
X62507935Y-146464059D01*
X62454267Y-146729080D01*
X62454267Y-148429080D01*
X62506564Y-148707013D01*
X62670822Y-148962278D01*
X62921452Y-149133526D01*
X63126256Y-149175000D01*
X60814526Y-149175000D01*
X60977860Y-149011951D01*
X61214330Y-148442467D01*
X61214868Y-147825839D01*
X60979392Y-147255943D01*
X60543751Y-146819540D01*
X60102382Y-146636268D01*
X59664600Y-146198485D01*
X59226275Y-146636810D01*
X58787743Y-146818008D01*
X58351340Y-147253649D01*
X58114870Y-147823133D01*
X58114332Y-148439761D01*
X58349808Y-149009657D01*
X58514862Y-149175000D01*
X57925421Y-149175000D01*
X57884424Y-145662864D01*
X58076361Y-145662864D01*
X58185754Y-146212817D01*
X58433795Y-146297919D01*
X59098915Y-145632800D01*
X60230285Y-145632800D01*
X60895405Y-146297919D01*
X61143446Y-146212817D01*
X61252839Y-145602736D01*
X61143446Y-145052783D01*
X60895405Y-144967681D01*
X60230285Y-145632800D01*
X59098915Y-145632800D01*
X58433795Y-144967681D01*
X58185754Y-145052783D01*
X58076361Y-145662864D01*
X57884424Y-145662864D01*
X57869706Y-144401995D01*
X58999481Y-144401995D01*
X59664600Y-145067115D01*
X60329719Y-144401995D01*
X60244617Y-144153954D01*
X59779135Y-144070489D01*
X60270017Y-143972846D01*
X60355119Y-143724805D01*
X59690000Y-143059685D01*
X59024881Y-143724805D01*
X59109983Y-143972846D01*
X59575465Y-144056311D01*
X59084583Y-144153954D01*
X58999481Y-144401995D01*
X57869706Y-144401995D01*
X57857183Y-143329282D01*
X57836353Y-143232254D01*
X57779414Y-143150976D01*
X57695340Y-143098253D01*
X57611570Y-143082238D01*
X50825000Y-142963592D01*
X50825000Y-142524064D01*
X58101761Y-142524064D01*
X58211154Y-143074017D01*
X58459195Y-143159119D01*
X59124315Y-142494000D01*
X58459195Y-141828881D01*
X58211154Y-141913983D01*
X58101761Y-142524064D01*
X50825000Y-142524064D01*
X50825000Y-141383219D01*
X51019961Y-141513487D01*
X51632254Y-141635280D01*
X51694946Y-141635280D01*
X52307239Y-141513487D01*
X52648773Y-141285282D01*
X52698833Y-141285282D01*
X52710998Y-141314652D01*
X52924227Y-141527881D01*
X53202824Y-141643280D01*
X53589100Y-141643280D01*
X53778600Y-141453780D01*
X53778600Y-140460280D01*
X54628600Y-140460280D01*
X54628600Y-141453780D01*
X54818100Y-141643280D01*
X55204376Y-141643280D01*
X55482973Y-141527881D01*
X55696202Y-141314652D01*
X55811600Y-141036055D01*
X55811600Y-140649780D01*
X55622100Y-140460280D01*
X54628600Y-140460280D01*
X53778600Y-140460280D01*
X53353600Y-140460280D01*
X53353600Y-139610280D01*
X53778600Y-139610280D01*
X53778600Y-139185280D01*
X54628600Y-139185280D01*
X54628600Y-139610280D01*
X55622100Y-139610280D01*
X55811600Y-139420780D01*
X55811600Y-139034505D01*
X55696202Y-138755908D01*
X55482973Y-138542679D01*
X55453602Y-138530513D01*
X55453602Y-138496019D01*
X55713153Y-138107573D01*
X55834946Y-137495280D01*
X55713153Y-136882987D01*
X55366317Y-136363909D01*
X55158844Y-136225280D01*
X55366317Y-136086651D01*
X55467025Y-135935931D01*
X56972016Y-135912742D01*
X58690000Y-138479753D01*
X58690000Y-138479753D01*
G37*
X58690000Y-138479753D02*
X58690000Y-138802136D01*
X58376740Y-139114849D01*
X58140270Y-139684333D01*
X58139732Y-140300961D01*
X58375208Y-140870857D01*
X58810849Y-141307260D01*
X59252218Y-141490532D01*
X59690000Y-141928315D01*
X59843051Y-141775264D01*
X60408736Y-142340949D01*
X60255685Y-142494000D01*
X60920805Y-143159119D01*
X61148712Y-143080925D01*
X61230000Y-143162213D01*
X61230000Y-143256000D01*
X61230943Y-143260743D01*
X61230045Y-143265495D01*
X61268961Y-143451874D01*
X61306120Y-143638683D01*
X61308808Y-143642706D01*
X61309796Y-143647438D01*
X62507935Y-146464059D01*
X62454267Y-146729080D01*
X62454267Y-148429080D01*
X62506564Y-148707013D01*
X62670822Y-148962278D01*
X62921452Y-149133526D01*
X63126256Y-149175000D01*
X60814526Y-149175000D01*
X60977860Y-149011951D01*
X61214330Y-148442467D01*
X61214868Y-147825839D01*
X60979392Y-147255943D01*
X60543751Y-146819540D01*
X60102382Y-146636268D01*
X59664600Y-146198485D01*
X59226275Y-146636810D01*
X58787743Y-146818008D01*
X58351340Y-147253649D01*
X58114870Y-147823133D01*
X58114332Y-148439761D01*
X58349808Y-149009657D01*
X58514862Y-149175000D01*
X57925421Y-149175000D01*
X57884424Y-145662864D01*
X58076361Y-145662864D01*
X58185754Y-146212817D01*
X58433795Y-146297919D01*
X59098915Y-145632800D01*
X60230285Y-145632800D01*
X60895405Y-146297919D01*
X61143446Y-146212817D01*
X61252839Y-145602736D01*
X61143446Y-145052783D01*
X60895405Y-144967681D01*
X60230285Y-145632800D01*
X59098915Y-145632800D01*
X58433795Y-144967681D01*
X58185754Y-145052783D01*
X58076361Y-145662864D01*
X57884424Y-145662864D01*
X57869706Y-144401995D01*
X58999481Y-144401995D01*
X59664600Y-145067115D01*
X60329719Y-144401995D01*
X60244617Y-144153954D01*
X59779135Y-144070489D01*
X60270017Y-143972846D01*
X60355119Y-143724805D01*
X59690000Y-143059685D01*
X59024881Y-143724805D01*
X59109983Y-143972846D01*
X59575465Y-144056311D01*
X59084583Y-144153954D01*
X58999481Y-144401995D01*
X57869706Y-144401995D01*
X57857183Y-143329282D01*
X57836353Y-143232254D01*
X57779414Y-143150976D01*
X57695340Y-143098253D01*
X57611570Y-143082238D01*
X50825000Y-142963592D01*
X50825000Y-142524064D01*
X58101761Y-142524064D01*
X58211154Y-143074017D01*
X58459195Y-143159119D01*
X59124315Y-142494000D01*
X58459195Y-141828881D01*
X58211154Y-141913983D01*
X58101761Y-142524064D01*
X50825000Y-142524064D01*
X50825000Y-141383219D01*
X51019961Y-141513487D01*
X51632254Y-141635280D01*
X51694946Y-141635280D01*
X52307239Y-141513487D01*
X52648773Y-141285282D01*
X52698833Y-141285282D01*
X52710998Y-141314652D01*
X52924227Y-141527881D01*
X53202824Y-141643280D01*
X53589100Y-141643280D01*
X53778600Y-141453780D01*
X53778600Y-140460280D01*
X54628600Y-140460280D01*
X54628600Y-141453780D01*
X54818100Y-141643280D01*
X55204376Y-141643280D01*
X55482973Y-141527881D01*
X55696202Y-141314652D01*
X55811600Y-141036055D01*
X55811600Y-140649780D01*
X55622100Y-140460280D01*
X54628600Y-140460280D01*
X53778600Y-140460280D01*
X53353600Y-140460280D01*
X53353600Y-139610280D01*
X53778600Y-139610280D01*
X53778600Y-139185280D01*
X54628600Y-139185280D01*
X54628600Y-139610280D01*
X55622100Y-139610280D01*
X55811600Y-139420780D01*
X55811600Y-139034505D01*
X55696202Y-138755908D01*
X55482973Y-138542679D01*
X55453602Y-138530513D01*
X55453602Y-138496019D01*
X55713153Y-138107573D01*
X55834946Y-137495280D01*
X55713153Y-136882987D01*
X55366317Y-136363909D01*
X55158844Y-136225280D01*
X55366317Y-136086651D01*
X55467025Y-135935931D01*
X56972016Y-135912742D01*
X58690000Y-138479753D01*
G36*
X86771625Y-148259560D02*
X86758685Y-148272500D01*
X86771691Y-148285506D01*
X86772501Y-148600288D01*
X85389090Y-148599961D01*
X85344472Y-148555343D01*
X85627315Y-148272500D01*
X85344472Y-147989658D01*
X85406629Y-147927500D01*
X86770771Y-147927500D01*
X86771625Y-148259560D01*
X86771625Y-148259560D01*
G37*
X86771625Y-148259560D02*
X86758685Y-148272500D01*
X86771691Y-148285506D01*
X86772501Y-148600288D01*
X85389090Y-148599961D01*
X85344472Y-148555343D01*
X85627315Y-148272500D01*
X85344472Y-147989658D01*
X85406629Y-147927500D01*
X86770771Y-147927500D01*
X86771625Y-148259560D01*
G36*
X79092201Y-127623414D02*
X79064634Y-127762000D01*
X79182621Y-128355159D01*
X79518618Y-128858016D01*
X79779004Y-129032000D01*
X79518618Y-129205984D01*
X79182621Y-129708841D01*
X79064634Y-130302000D01*
X79182621Y-130895159D01*
X79518618Y-131398016D01*
X79779004Y-131572000D01*
X79518618Y-131745984D01*
X79182621Y-132248841D01*
X79064634Y-132842000D01*
X79182621Y-133435159D01*
X79518618Y-133938016D01*
X79779004Y-134112000D01*
X79518618Y-134285984D01*
X79182621Y-134788841D01*
X79064634Y-135382000D01*
X79182621Y-135975159D01*
X79518618Y-136478016D01*
X79779004Y-136652000D01*
X79518618Y-136825984D01*
X79182621Y-137328841D01*
X79064634Y-137922000D01*
X79182621Y-138515159D01*
X79518618Y-139018016D01*
X79779004Y-139192000D01*
X79518618Y-139365984D01*
X79182621Y-139868841D01*
X79064634Y-140462000D01*
X79182621Y-141055159D01*
X79518618Y-141558016D01*
X79779004Y-141732000D01*
X79518618Y-141905984D01*
X79182621Y-142408841D01*
X79064634Y-143002000D01*
X79182621Y-143595159D01*
X79518618Y-144098016D01*
X79779004Y-144272000D01*
X79518618Y-144445984D01*
X79182621Y-144948841D01*
X79064634Y-145542000D01*
X79182621Y-146135159D01*
X79518618Y-146638016D01*
X79779004Y-146812000D01*
X79518618Y-146985984D01*
X79182621Y-147488841D01*
X79064634Y-148082000D01*
X79167371Y-148598494D01*
X74391728Y-148597368D01*
X74333737Y-148482000D01*
X73425000Y-148482000D01*
X73425000Y-148597140D01*
X72625000Y-148596952D01*
X72625000Y-148482000D01*
X71716263Y-148482000D01*
X71658596Y-148596724D01*
X70377467Y-148596422D01*
X70627167Y-148222719D01*
X70748960Y-147610426D01*
X70748960Y-147547734D01*
X70627167Y-146935441D01*
X70393638Y-146585940D01*
X71358938Y-143403897D01*
X71481496Y-143273169D01*
X71495896Y-143259711D01*
X71562621Y-143595159D01*
X71898618Y-144098016D01*
X72159004Y-144272000D01*
X71898618Y-144445984D01*
X71562621Y-144948841D01*
X71444634Y-145542000D01*
X71562621Y-146135159D01*
X71822435Y-146524000D01*
X71774998Y-146524000D01*
X71774998Y-147189939D01*
X71600335Y-147451369D01*
X71716263Y-147682000D01*
X72625000Y-147682000D01*
X72625000Y-147282000D01*
X73425000Y-147282000D01*
X73425000Y-147682000D01*
X74333737Y-147682000D01*
X74449665Y-147451369D01*
X74275002Y-147189939D01*
X74275002Y-146524000D01*
X74227565Y-146524000D01*
X74487379Y-146135159D01*
X74605366Y-145542000D01*
X74487379Y-144948841D01*
X74151382Y-144445984D01*
X73890996Y-144272000D01*
X74151382Y-144098016D01*
X74487379Y-143595159D01*
X74605366Y-143002000D01*
X74487379Y-142408841D01*
X74151382Y-141905984D01*
X73890996Y-141732000D01*
X74151382Y-141558016D01*
X74215538Y-141462000D01*
X74955400Y-141462000D01*
X75338084Y-141385880D01*
X75662507Y-141169107D01*
X75753947Y-141077667D01*
X75970720Y-140753244D01*
X76046841Y-140370560D01*
X76046840Y-140370555D01*
X76046840Y-127263400D01*
X78732186Y-127263400D01*
X79092201Y-127623414D01*
X79092201Y-127623414D01*
G37*
X79092201Y-127623414D02*
X79064634Y-127762000D01*
X79182621Y-128355159D01*
X79518618Y-128858016D01*
X79779004Y-129032000D01*
X79518618Y-129205984D01*
X79182621Y-129708841D01*
X79064634Y-130302000D01*
X79182621Y-130895159D01*
X79518618Y-131398016D01*
X79779004Y-131572000D01*
X79518618Y-131745984D01*
X79182621Y-132248841D01*
X79064634Y-132842000D01*
X79182621Y-133435159D01*
X79518618Y-133938016D01*
X79779004Y-134112000D01*
X79518618Y-134285984D01*
X79182621Y-134788841D01*
X79064634Y-135382000D01*
X79182621Y-135975159D01*
X79518618Y-136478016D01*
X79779004Y-136652000D01*
X79518618Y-136825984D01*
X79182621Y-137328841D01*
X79064634Y-137922000D01*
X79182621Y-138515159D01*
X79518618Y-139018016D01*
X79779004Y-139192000D01*
X79518618Y-139365984D01*
X79182621Y-139868841D01*
X79064634Y-140462000D01*
X79182621Y-141055159D01*
X79518618Y-141558016D01*
X79779004Y-141732000D01*
X79518618Y-141905984D01*
X79182621Y-142408841D01*
X79064634Y-143002000D01*
X79182621Y-143595159D01*
X79518618Y-144098016D01*
X79779004Y-144272000D01*
X79518618Y-144445984D01*
X79182621Y-144948841D01*
X79064634Y-145542000D01*
X79182621Y-146135159D01*
X79518618Y-146638016D01*
X79779004Y-146812000D01*
X79518618Y-146985984D01*
X79182621Y-147488841D01*
X79064634Y-148082000D01*
X79167371Y-148598494D01*
X74391728Y-148597368D01*
X74333737Y-148482000D01*
X73425000Y-148482000D01*
X73425000Y-148597140D01*
X72625000Y-148596952D01*
X72625000Y-148482000D01*
X71716263Y-148482000D01*
X71658596Y-148596724D01*
X70377467Y-148596422D01*
X70627167Y-148222719D01*
X70748960Y-147610426D01*
X70748960Y-147547734D01*
X70627167Y-146935441D01*
X70393638Y-146585940D01*
X71358938Y-143403897D01*
X71481496Y-143273169D01*
X71495896Y-143259711D01*
X71562621Y-143595159D01*
X71898618Y-144098016D01*
X72159004Y-144272000D01*
X71898618Y-144445984D01*
X71562621Y-144948841D01*
X71444634Y-145542000D01*
X71562621Y-146135159D01*
X71822435Y-146524000D01*
X71774998Y-146524000D01*
X71774998Y-147189939D01*
X71600335Y-147451369D01*
X71716263Y-147682000D01*
X72625000Y-147682000D01*
X72625000Y-147282000D01*
X73425000Y-147282000D01*
X73425000Y-147682000D01*
X74333737Y-147682000D01*
X74449665Y-147451369D01*
X74275002Y-147189939D01*
X74275002Y-146524000D01*
X74227565Y-146524000D01*
X74487379Y-146135159D01*
X74605366Y-145542000D01*
X74487379Y-144948841D01*
X74151382Y-144445984D01*
X73890996Y-144272000D01*
X74151382Y-144098016D01*
X74487379Y-143595159D01*
X74605366Y-143002000D01*
X74487379Y-142408841D01*
X74151382Y-141905984D01*
X73890996Y-141732000D01*
X74151382Y-141558016D01*
X74215538Y-141462000D01*
X74955400Y-141462000D01*
X75338084Y-141385880D01*
X75662507Y-141169107D01*
X75753947Y-141077667D01*
X75970720Y-140753244D01*
X76046841Y-140370560D01*
X76046840Y-140370555D01*
X76046840Y-127263400D01*
X78732186Y-127263400D01*
X79092201Y-127623414D01*
G36*
X71460307Y-128562000D02*
X71512604Y-128839933D01*
X71676862Y-129095198D01*
X71879932Y-129233950D01*
X71562621Y-129708841D01*
X71490105Y-130073402D01*
X71405046Y-129645783D01*
X71157005Y-129560681D01*
X70491885Y-130225800D01*
X71157005Y-130890919D01*
X71405046Y-130805817D01*
X71471325Y-130436183D01*
X71562621Y-130895159D01*
X71898618Y-131398016D01*
X72159004Y-131572000D01*
X71898618Y-131745984D01*
X71562621Y-132248841D01*
X71444634Y-132842000D01*
X71562621Y-133435159D01*
X71898618Y-133938016D01*
X72159004Y-134112000D01*
X71898618Y-134285984D01*
X71562621Y-134788841D01*
X71444634Y-135382000D01*
X71562621Y-135975159D01*
X71898618Y-136478016D01*
X72159004Y-136652000D01*
X71898618Y-136825984D01*
X71562621Y-137328841D01*
X71444634Y-137922000D01*
X71562621Y-138515159D01*
X71898618Y-139018016D01*
X72159004Y-139192000D01*
X71898618Y-139365984D01*
X71562621Y-139868841D01*
X71444634Y-140462000D01*
X71462783Y-140553243D01*
X70950000Y-141032458D01*
X70950000Y-140873300D01*
X70760500Y-140683800D01*
X69767000Y-140683800D01*
X69767000Y-141677300D01*
X69956500Y-141866800D01*
X70065109Y-141866800D01*
X70045023Y-141881179D01*
X69740223Y-142206299D01*
X69722573Y-142234652D01*
X69696756Y-142255839D01*
X69620033Y-142399374D01*
X69534023Y-142537542D01*
X69528567Y-142570491D01*
X69512823Y-142599945D01*
X68440880Y-146133530D01*
X68017589Y-146416363D01*
X67878960Y-146623836D01*
X67740331Y-146416363D01*
X67221253Y-146069527D01*
X66608960Y-145947734D01*
X65996667Y-146069527D01*
X65569469Y-146354971D01*
X65467098Y-146195882D01*
X65216468Y-146024634D01*
X64918960Y-145964387D01*
X64468814Y-145964387D01*
X63230000Y-143052149D01*
X63230000Y-142748000D01*
X63153880Y-142365317D01*
X62937107Y-142040893D01*
X62937104Y-142040891D01*
X62686813Y-141790600D01*
X63861002Y-141790600D01*
X63861002Y-141687367D01*
X63890373Y-141675201D01*
X64103602Y-141461972D01*
X64219000Y-141183375D01*
X64219000Y-140797100D01*
X64355800Y-140797100D01*
X64355800Y-141183375D01*
X64471198Y-141461972D01*
X64684427Y-141675201D01*
X64963024Y-141790600D01*
X65349300Y-141790600D01*
X65538800Y-141601100D01*
X65538800Y-140607600D01*
X66388800Y-140607600D01*
X66388800Y-141601100D01*
X66578300Y-141790600D01*
X66964576Y-141790600D01*
X67243173Y-141675201D01*
X67456402Y-141461972D01*
X67571800Y-141183375D01*
X67571800Y-140873300D01*
X67734000Y-140873300D01*
X67734000Y-141259575D01*
X67849398Y-141538172D01*
X68062627Y-141751401D01*
X68341224Y-141866800D01*
X68727500Y-141866800D01*
X68917000Y-141677300D01*
X68917000Y-140683800D01*
X67923500Y-140683800D01*
X67734000Y-140873300D01*
X67571800Y-140873300D01*
X67571800Y-140797100D01*
X67382300Y-140607600D01*
X66388800Y-140607600D01*
X65538800Y-140607600D01*
X64545300Y-140607600D01*
X64355800Y-140797100D01*
X64219000Y-140797100D01*
X64029500Y-140607600D01*
X63036000Y-140607600D01*
X63036000Y-141032600D01*
X62186000Y-141032600D01*
X62186000Y-140607600D01*
X61761000Y-140607600D01*
X61761000Y-139757600D01*
X62186000Y-139757600D01*
X62186000Y-139332600D01*
X63036000Y-139332600D01*
X63036000Y-139757600D01*
X64029500Y-139757600D01*
X64219000Y-139568100D01*
X64219000Y-139181825D01*
X64103602Y-138903228D01*
X63890373Y-138689999D01*
X63861002Y-138677833D01*
X63861002Y-138643339D01*
X64120553Y-138254893D01*
X64242346Y-137642600D01*
X64120553Y-137030307D01*
X63773717Y-136511229D01*
X63566244Y-136372600D01*
X63773717Y-136233971D01*
X63861496Y-136102600D01*
X64713304Y-136102600D01*
X64801083Y-136233971D01*
X65008556Y-136372600D01*
X64801083Y-136511229D01*
X64454247Y-137030307D01*
X64332454Y-137642600D01*
X64454247Y-138254893D01*
X64713798Y-138643339D01*
X64713798Y-138677833D01*
X64684427Y-138689999D01*
X64471198Y-138903228D01*
X64355800Y-139181825D01*
X64355800Y-139568100D01*
X64545300Y-139757600D01*
X65538800Y-139757600D01*
X65538800Y-139332600D01*
X66388800Y-139332600D01*
X66388800Y-139757600D01*
X67382300Y-139757600D01*
X67571800Y-139568100D01*
X67571800Y-139181825D01*
X67456402Y-138903228D01*
X67243173Y-138689999D01*
X67213802Y-138677833D01*
X67213802Y-138643339D01*
X67473353Y-138254893D01*
X67595146Y-137642600D01*
X67473353Y-137030307D01*
X67126517Y-136511229D01*
X66919044Y-136372600D01*
X67126517Y-136233971D01*
X67214296Y-136102600D01*
X68040589Y-136102600D01*
X68179283Y-136310171D01*
X68386756Y-136448800D01*
X68179283Y-136587429D01*
X67832447Y-137106507D01*
X67710654Y-137718800D01*
X67832447Y-138331093D01*
X68091998Y-138719539D01*
X68091998Y-138754033D01*
X68062627Y-138766199D01*
X67849398Y-138979428D01*
X67734000Y-139258025D01*
X67734000Y-139644300D01*
X67923500Y-139833800D01*
X68917000Y-139833800D01*
X68917000Y-139408800D01*
X69767000Y-139408800D01*
X69767000Y-139833800D01*
X70760500Y-139833800D01*
X70950000Y-139644300D01*
X70950000Y-139258025D01*
X70834602Y-138979428D01*
X70621373Y-138766199D01*
X70592002Y-138754033D01*
X70592002Y-138719539D01*
X70851553Y-138331093D01*
X70973346Y-137718800D01*
X70851553Y-137106507D01*
X70504717Y-136587429D01*
X70297244Y-136448800D01*
X70504717Y-136310171D01*
X70851553Y-135791093D01*
X70973346Y-135178800D01*
X70851553Y-134566507D01*
X70504717Y-134047429D01*
X69985639Y-133700593D01*
X69373346Y-133578800D01*
X69310654Y-133578800D01*
X68698361Y-133700593D01*
X68216341Y-134022668D01*
X68259200Y-133807200D01*
X68259200Y-131570064D01*
X68372857Y-131456605D01*
X69261081Y-131456605D01*
X69346183Y-131704646D01*
X69956264Y-131814039D01*
X70506217Y-131704646D01*
X70591319Y-131456605D01*
X69926200Y-130791485D01*
X69261081Y-131456605D01*
X68372857Y-131456605D01*
X68572460Y-131257351D01*
X68745365Y-130840949D01*
X69360515Y-130225800D01*
X68695395Y-129560681D01*
X68610539Y-129589795D01*
X68573992Y-129501343D01*
X68230447Y-129157197D01*
X68236676Y-128823948D01*
X68372932Y-128687931D01*
X68720189Y-128711628D01*
X69047049Y-129039060D01*
X69488418Y-129222332D01*
X69926200Y-129660115D01*
X70364525Y-129221790D01*
X70803057Y-129040592D01*
X71239460Y-128604951D01*
X71460307Y-128073091D01*
X71460307Y-128562000D01*
X71460307Y-128562000D01*
G37*
X71460307Y-128562000D02*
X71512604Y-128839933D01*
X71676862Y-129095198D01*
X71879932Y-129233950D01*
X71562621Y-129708841D01*
X71490105Y-130073402D01*
X71405046Y-129645783D01*
X71157005Y-129560681D01*
X70491885Y-130225800D01*
X71157005Y-130890919D01*
X71405046Y-130805817D01*
X71471325Y-130436183D01*
X71562621Y-130895159D01*
X71898618Y-131398016D01*
X72159004Y-131572000D01*
X71898618Y-131745984D01*
X71562621Y-132248841D01*
X71444634Y-132842000D01*
X71562621Y-133435159D01*
X71898618Y-133938016D01*
X72159004Y-134112000D01*
X71898618Y-134285984D01*
X71562621Y-134788841D01*
X71444634Y-135382000D01*
X71562621Y-135975159D01*
X71898618Y-136478016D01*
X72159004Y-136652000D01*
X71898618Y-136825984D01*
X71562621Y-137328841D01*
X71444634Y-137922000D01*
X71562621Y-138515159D01*
X71898618Y-139018016D01*
X72159004Y-139192000D01*
X71898618Y-139365984D01*
X71562621Y-139868841D01*
X71444634Y-140462000D01*
X71462783Y-140553243D01*
X70950000Y-141032458D01*
X70950000Y-140873300D01*
X70760500Y-140683800D01*
X69767000Y-140683800D01*
X69767000Y-141677300D01*
X69956500Y-141866800D01*
X70065109Y-141866800D01*
X70045023Y-141881179D01*
X69740223Y-142206299D01*
X69722573Y-142234652D01*
X69696756Y-142255839D01*
X69620033Y-142399374D01*
X69534023Y-142537542D01*
X69528567Y-142570491D01*
X69512823Y-142599945D01*
X68440880Y-146133530D01*
X68017589Y-146416363D01*
X67878960Y-146623836D01*
X67740331Y-146416363D01*
X67221253Y-146069527D01*
X66608960Y-145947734D01*
X65996667Y-146069527D01*
X65569469Y-146354971D01*
X65467098Y-146195882D01*
X65216468Y-146024634D01*
X64918960Y-145964387D01*
X64468814Y-145964387D01*
X63230000Y-143052149D01*
X63230000Y-142748000D01*
X63153880Y-142365317D01*
X62937107Y-142040893D01*
X62937104Y-142040891D01*
X62686813Y-141790600D01*
X63861002Y-141790600D01*
X63861002Y-141687367D01*
X63890373Y-141675201D01*
X64103602Y-141461972D01*
X64219000Y-141183375D01*
X64219000Y-140797100D01*
X64355800Y-140797100D01*
X64355800Y-141183375D01*
X64471198Y-141461972D01*
X64684427Y-141675201D01*
X64963024Y-141790600D01*
X65349300Y-141790600D01*
X65538800Y-141601100D01*
X65538800Y-140607600D01*
X66388800Y-140607600D01*
X66388800Y-141601100D01*
X66578300Y-141790600D01*
X66964576Y-141790600D01*
X67243173Y-141675201D01*
X67456402Y-141461972D01*
X67571800Y-141183375D01*
X67571800Y-140873300D01*
X67734000Y-140873300D01*
X67734000Y-141259575D01*
X67849398Y-141538172D01*
X68062627Y-141751401D01*
X68341224Y-141866800D01*
X68727500Y-141866800D01*
X68917000Y-141677300D01*
X68917000Y-140683800D01*
X67923500Y-140683800D01*
X67734000Y-140873300D01*
X67571800Y-140873300D01*
X67571800Y-140797100D01*
X67382300Y-140607600D01*
X66388800Y-140607600D01*
X65538800Y-140607600D01*
X64545300Y-140607600D01*
X64355800Y-140797100D01*
X64219000Y-140797100D01*
X64029500Y-140607600D01*
X63036000Y-140607600D01*
X63036000Y-141032600D01*
X62186000Y-141032600D01*
X62186000Y-140607600D01*
X61761000Y-140607600D01*
X61761000Y-139757600D01*
X62186000Y-139757600D01*
X62186000Y-139332600D01*
X63036000Y-139332600D01*
X63036000Y-139757600D01*
X64029500Y-139757600D01*
X64219000Y-139568100D01*
X64219000Y-139181825D01*
X64103602Y-138903228D01*
X63890373Y-138689999D01*
X63861002Y-138677833D01*
X63861002Y-138643339D01*
X64120553Y-138254893D01*
X64242346Y-137642600D01*
X64120553Y-137030307D01*
X63773717Y-136511229D01*
X63566244Y-136372600D01*
X63773717Y-136233971D01*
X63861496Y-136102600D01*
X64713304Y-136102600D01*
X64801083Y-136233971D01*
X65008556Y-136372600D01*
X64801083Y-136511229D01*
X64454247Y-137030307D01*
X64332454Y-137642600D01*
X64454247Y-138254893D01*
X64713798Y-138643339D01*
X64713798Y-138677833D01*
X64684427Y-138689999D01*
X64471198Y-138903228D01*
X64355800Y-139181825D01*
X64355800Y-139568100D01*
X64545300Y-139757600D01*
X65538800Y-139757600D01*
X65538800Y-139332600D01*
X66388800Y-139332600D01*
X66388800Y-139757600D01*
X67382300Y-139757600D01*
X67571800Y-139568100D01*
X67571800Y-139181825D01*
X67456402Y-138903228D01*
X67243173Y-138689999D01*
X67213802Y-138677833D01*
X67213802Y-138643339D01*
X67473353Y-138254893D01*
X67595146Y-137642600D01*
X67473353Y-137030307D01*
X67126517Y-136511229D01*
X66919044Y-136372600D01*
X67126517Y-136233971D01*
X67214296Y-136102600D01*
X68040589Y-136102600D01*
X68179283Y-136310171D01*
X68386756Y-136448800D01*
X68179283Y-136587429D01*
X67832447Y-137106507D01*
X67710654Y-137718800D01*
X67832447Y-138331093D01*
X68091998Y-138719539D01*
X68091998Y-138754033D01*
X68062627Y-138766199D01*
X67849398Y-138979428D01*
X67734000Y-139258025D01*
X67734000Y-139644300D01*
X67923500Y-139833800D01*
X68917000Y-139833800D01*
X68917000Y-139408800D01*
X69767000Y-139408800D01*
X69767000Y-139833800D01*
X70760500Y-139833800D01*
X70950000Y-139644300D01*
X70950000Y-139258025D01*
X70834602Y-138979428D01*
X70621373Y-138766199D01*
X70592002Y-138754033D01*
X70592002Y-138719539D01*
X70851553Y-138331093D01*
X70973346Y-137718800D01*
X70851553Y-137106507D01*
X70504717Y-136587429D01*
X70297244Y-136448800D01*
X70504717Y-136310171D01*
X70851553Y-135791093D01*
X70973346Y-135178800D01*
X70851553Y-134566507D01*
X70504717Y-134047429D01*
X69985639Y-133700593D01*
X69373346Y-133578800D01*
X69310654Y-133578800D01*
X68698361Y-133700593D01*
X68216341Y-134022668D01*
X68259200Y-133807200D01*
X68259200Y-131570064D01*
X68372857Y-131456605D01*
X69261081Y-131456605D01*
X69346183Y-131704646D01*
X69956264Y-131814039D01*
X70506217Y-131704646D01*
X70591319Y-131456605D01*
X69926200Y-130791485D01*
X69261081Y-131456605D01*
X68372857Y-131456605D01*
X68572460Y-131257351D01*
X68745365Y-130840949D01*
X69360515Y-130225800D01*
X68695395Y-129560681D01*
X68610539Y-129589795D01*
X68573992Y-129501343D01*
X68230447Y-129157197D01*
X68236676Y-128823948D01*
X68372932Y-128687931D01*
X68720189Y-128711628D01*
X69047049Y-129039060D01*
X69488418Y-129222332D01*
X69926200Y-129660115D01*
X70364525Y-129221790D01*
X70803057Y-129040592D01*
X71239460Y-128604951D01*
X71460307Y-128073091D01*
X71460307Y-128562000D01*
G36*
X86766012Y-146077500D02*
X85409315Y-146077500D01*
X85690815Y-145796000D01*
X85407972Y-145513158D01*
X85470129Y-145451000D01*
X86764401Y-145451000D01*
X86766012Y-146077500D01*
X86766012Y-146077500D01*
G37*
X86766012Y-146077500D02*
X85409315Y-146077500D01*
X85690815Y-145796000D01*
X85407972Y-145513158D01*
X85470129Y-145451000D01*
X86764401Y-145451000D01*
X86766012Y-146077500D01*
G36*
X86759643Y-143601000D02*
X85597129Y-143601000D01*
X85407972Y-143411843D01*
X85690815Y-143129000D01*
X85407972Y-142846157D01*
X85597130Y-142657000D01*
X86757215Y-142657000D01*
X86759643Y-143601000D01*
X86759643Y-143601000D01*
G37*
X86759643Y-143601000D02*
X85597129Y-143601000D01*
X85407972Y-143411843D01*
X85690815Y-143129000D01*
X85407972Y-142846157D01*
X85597130Y-142657000D01*
X86757215Y-142657000D01*
X86759643Y-143601000D01*
G36*
X86752457Y-140807000D02*
X85345815Y-140807000D01*
X85627315Y-140525500D01*
X85344472Y-140242658D01*
X85470130Y-140117000D01*
X86750682Y-140117000D01*
X86752457Y-140807000D01*
X86752457Y-140807000D01*
G37*
X86752457Y-140807000D02*
X85345815Y-140807000D01*
X85627315Y-140525500D01*
X85344472Y-140242658D01*
X85470130Y-140117000D01*
X86750682Y-140117000D01*
X86752457Y-140807000D01*
G36*
X50876467Y-121275840D02*
X50927000Y-121281000D01*
X54135910Y-121281000D01*
X53940597Y-121476314D01*
X53577223Y-121548594D01*
X53492121Y-121796635D01*
X54157240Y-122461755D01*
X54440083Y-122178912D01*
X55005768Y-122744597D01*
X54722925Y-123027440D01*
X55005768Y-123310283D01*
X54440083Y-123875968D01*
X54157240Y-123593125D01*
X53492121Y-124258245D01*
X53577223Y-124506286D01*
X53931917Y-124569886D01*
X54393147Y-125031117D01*
X55160708Y-124263556D01*
X54439162Y-126131704D01*
X54436022Y-126149754D01*
X54426778Y-126165572D01*
X53663234Y-128376531D01*
X53559961Y-128397073D01*
X53218427Y-128625278D01*
X52626934Y-128625278D01*
X52325974Y-128410008D01*
X52088600Y-128513930D01*
X52088600Y-129450280D01*
X52513600Y-129450280D01*
X52513600Y-130300280D01*
X52088600Y-130300280D01*
X52088600Y-131990280D01*
X52513600Y-131990280D01*
X52513600Y-132840280D01*
X52088600Y-132840280D01*
X52088600Y-134530280D01*
X52513600Y-134530280D01*
X52513600Y-135255852D01*
X52389172Y-135380280D01*
X52088600Y-135380280D01*
X52088600Y-135763052D01*
X52053611Y-135815417D01*
X52011628Y-136026480D01*
X51983200Y-136169400D01*
X51983200Y-137665852D01*
X51303772Y-138345280D01*
X51238600Y-138345280D01*
X51238600Y-137920280D01*
X50825000Y-137920280D01*
X50825000Y-137070280D01*
X51238600Y-137070280D01*
X51238600Y-135380280D01*
X50825000Y-135380280D01*
X50825000Y-134530280D01*
X51238600Y-134530280D01*
X51238600Y-132840280D01*
X50825000Y-132840280D01*
X50825000Y-131990280D01*
X51238600Y-131990280D01*
X51238600Y-130300280D01*
X50825000Y-130300280D01*
X50825000Y-129450280D01*
X51238600Y-129450280D01*
X51238600Y-128513930D01*
X51001226Y-128410008D01*
X50825000Y-128536059D01*
X50825000Y-123057504D01*
X52569001Y-123057504D01*
X52678394Y-123607457D01*
X52926435Y-123692559D01*
X53591555Y-123027440D01*
X52926435Y-122362321D01*
X52678394Y-122447423D01*
X52569001Y-123057504D01*
X50825000Y-123057504D01*
X50825000Y-121253877D01*
X50876467Y-121275840D01*
X50876467Y-121275840D01*
G37*
X50876467Y-121275840D02*
X50927000Y-121281000D01*
X54135910Y-121281000D01*
X53940597Y-121476314D01*
X53577223Y-121548594D01*
X53492121Y-121796635D01*
X54157240Y-122461755D01*
X54440083Y-122178912D01*
X55005768Y-122744597D01*
X54722925Y-123027440D01*
X55005768Y-123310283D01*
X54440083Y-123875968D01*
X54157240Y-123593125D01*
X53492121Y-124258245D01*
X53577223Y-124506286D01*
X53931917Y-124569886D01*
X54393147Y-125031117D01*
X55160708Y-124263556D01*
X54439162Y-126131704D01*
X54436022Y-126149754D01*
X54426778Y-126165572D01*
X53663234Y-128376531D01*
X53559961Y-128397073D01*
X53218427Y-128625278D01*
X52626934Y-128625278D01*
X52325974Y-128410008D01*
X52088600Y-128513930D01*
X52088600Y-129450280D01*
X52513600Y-129450280D01*
X52513600Y-130300280D01*
X52088600Y-130300280D01*
X52088600Y-131990280D01*
X52513600Y-131990280D01*
X52513600Y-132840280D01*
X52088600Y-132840280D01*
X52088600Y-134530280D01*
X52513600Y-134530280D01*
X52513600Y-135255852D01*
X52389172Y-135380280D01*
X52088600Y-135380280D01*
X52088600Y-135763052D01*
X52053611Y-135815417D01*
X52011628Y-136026480D01*
X51983200Y-136169400D01*
X51983200Y-137665852D01*
X51303772Y-138345280D01*
X51238600Y-138345280D01*
X51238600Y-137920280D01*
X50825000Y-137920280D01*
X50825000Y-137070280D01*
X51238600Y-137070280D01*
X51238600Y-135380280D01*
X50825000Y-135380280D01*
X50825000Y-134530280D01*
X51238600Y-134530280D01*
X51238600Y-132840280D01*
X50825000Y-132840280D01*
X50825000Y-131990280D01*
X51238600Y-131990280D01*
X51238600Y-130300280D01*
X50825000Y-130300280D01*
X50825000Y-129450280D01*
X51238600Y-129450280D01*
X51238600Y-128513930D01*
X51001226Y-128410008D01*
X50825000Y-128536059D01*
X50825000Y-123057504D01*
X52569001Y-123057504D01*
X52678394Y-123607457D01*
X52926435Y-123692559D01*
X53591555Y-123027440D01*
X52926435Y-122362321D01*
X52678394Y-122447423D01*
X52569001Y-123057504D01*
X50825000Y-123057504D01*
X50825000Y-121253877D01*
X50876467Y-121275840D01*
G36*
X86745924Y-138267000D02*
X85406629Y-138267000D01*
X85344472Y-138204843D01*
X85627315Y-137922000D01*
X85344472Y-137639158D01*
X85406630Y-137577000D01*
X86744149Y-137577000D01*
X86745924Y-138267000D01*
X86745924Y-138267000D01*
G37*
X86745924Y-138267000D02*
X85406629Y-138267000D01*
X85344472Y-138204843D01*
X85627315Y-137922000D01*
X85344472Y-137639158D01*
X85406630Y-137577000D01*
X86744149Y-137577000D01*
X86745924Y-138267000D01*
G36*
X86738229Y-135275456D02*
X86631685Y-135382000D01*
X86738779Y-135489093D01*
X86739391Y-135727000D01*
X85279629Y-135727000D01*
X85217472Y-135664843D01*
X85500315Y-135382000D01*
X85217472Y-135099158D01*
X85279629Y-135037000D01*
X86737616Y-135037000D01*
X86738229Y-135275456D01*
X86738229Y-135275456D01*
G37*
X86738229Y-135275456D02*
X86631685Y-135382000D01*
X86738779Y-135489093D01*
X86739391Y-135727000D01*
X85279629Y-135727000D01*
X85217472Y-135664843D01*
X85500315Y-135382000D01*
X85217472Y-135099158D01*
X85279629Y-135037000D01*
X86737616Y-135037000D01*
X86738229Y-135275456D01*
G36*
X86732858Y-133187000D02*
X85533629Y-133187000D01*
X85471472Y-133124843D01*
X85754315Y-132842000D01*
X85471472Y-132559158D01*
X85533629Y-132497000D01*
X86731083Y-132497000D01*
X86732858Y-133187000D01*
X86732858Y-133187000D01*
G37*
X86732858Y-133187000D02*
X85533629Y-133187000D01*
X85471472Y-133124843D01*
X85754315Y-132842000D01*
X85471472Y-132559158D01*
X85533629Y-132497000D01*
X86731083Y-132497000D01*
X86732858Y-133187000D01*
G36*
X58406741Y-126672340D02*
X58176821Y-127016441D01*
X58058834Y-127609600D01*
X58150713Y-128071504D01*
X56557424Y-130236298D01*
X56523738Y-130308199D01*
X56475055Y-130370927D01*
X56271855Y-130777327D01*
X56270383Y-130782703D01*
X56267018Y-130787146D01*
X55730853Y-131891971D01*
X55713153Y-131802987D01*
X55366317Y-131283909D01*
X55158844Y-131145280D01*
X55366317Y-131006651D01*
X55713153Y-130487573D01*
X55834946Y-129875280D01*
X55713153Y-129262987D01*
X55554832Y-129026043D01*
X56311335Y-126835474D01*
X57015587Y-125012103D01*
X58406741Y-126672340D01*
X58406741Y-126672340D01*
G37*
X58406741Y-126672340D02*
X58176821Y-127016441D01*
X58058834Y-127609600D01*
X58150713Y-128071504D01*
X56557424Y-130236298D01*
X56523738Y-130308199D01*
X56475055Y-130370927D01*
X56271855Y-130777327D01*
X56270383Y-130782703D01*
X56267018Y-130787146D01*
X55730853Y-131891971D01*
X55713153Y-131802987D01*
X55366317Y-131283909D01*
X55158844Y-131145280D01*
X55366317Y-131006651D01*
X55713153Y-130487573D01*
X55834946Y-129875280D01*
X55713153Y-129262987D01*
X55554832Y-129026043D01*
X56311335Y-126835474D01*
X57015587Y-125012103D01*
X58406741Y-126672340D01*
G36*
X86726325Y-130647000D02*
X85660629Y-130647000D01*
X85471472Y-130457843D01*
X85754315Y-130175000D01*
X85471472Y-129892157D01*
X85533629Y-129830000D01*
X86724223Y-129830000D01*
X86726325Y-130647000D01*
X86726325Y-130647000D01*
G37*
X86726325Y-130647000D02*
X85660629Y-130647000D01*
X85471472Y-130457843D01*
X85754315Y-130175000D01*
X85471472Y-129892157D01*
X85533629Y-129830000D01*
X86724223Y-129830000D01*
X86726325Y-130647000D01*
G36*
X86171782Y-125318849D02*
X85889357Y-125601274D01*
X85525983Y-125673554D01*
X85440881Y-125921595D01*
X86106000Y-126586715D01*
X86388843Y-126303872D01*
X86715995Y-126631024D01*
X86717219Y-127106866D01*
X86671685Y-127152400D01*
X86717454Y-127198169D01*
X86718670Y-127671101D01*
X86409771Y-127980000D01*
X86367915Y-127980000D01*
X86106000Y-127718085D01*
X85844085Y-127980000D01*
X85802229Y-127980000D01*
X85257472Y-127435243D01*
X85540315Y-127152400D01*
X85101990Y-126714075D01*
X84920792Y-126275543D01*
X84485151Y-125839140D01*
X83915667Y-125602670D01*
X83299039Y-125602132D01*
X82729143Y-125837608D01*
X82292740Y-126273249D01*
X82089793Y-126762000D01*
X81835538Y-126762000D01*
X81771382Y-126665984D01*
X81268525Y-126329987D01*
X80675366Y-126212000D01*
X80614634Y-126212000D01*
X80526704Y-126229490D01*
X79853507Y-125556293D01*
X79529084Y-125339520D01*
X79392740Y-125312400D01*
X86171782Y-125318849D01*
X86171782Y-125318849D01*
G37*
X86171782Y-125318849D02*
X85889357Y-125601274D01*
X85525983Y-125673554D01*
X85440881Y-125921595D01*
X86106000Y-126586715D01*
X86388843Y-126303872D01*
X86715995Y-126631024D01*
X86717219Y-127106866D01*
X86671685Y-127152400D01*
X86717454Y-127198169D01*
X86718670Y-127671101D01*
X86409771Y-127980000D01*
X86367915Y-127980000D01*
X86106000Y-127718085D01*
X85844085Y-127980000D01*
X85802229Y-127980000D01*
X85257472Y-127435243D01*
X85540315Y-127152400D01*
X85101990Y-126714075D01*
X84920792Y-126275543D01*
X84485151Y-125839140D01*
X83915667Y-125602670D01*
X83299039Y-125602132D01*
X82729143Y-125837608D01*
X82292740Y-126273249D01*
X82089793Y-126762000D01*
X81835538Y-126762000D01*
X81771382Y-126665984D01*
X81268525Y-126329987D01*
X80675366Y-126212000D01*
X80614634Y-126212000D01*
X80526704Y-126229490D01*
X79853507Y-125556293D01*
X79529084Y-125339520D01*
X79392740Y-125312400D01*
X86171782Y-125318849D01*
G36*
X71265134Y-125304668D02*
X71232544Y-125316799D01*
X71118317Y-125339520D01*
X71051419Y-125384219D01*
X70976019Y-125412286D01*
X70890729Y-125491589D01*
X70793893Y-125556293D01*
X70749194Y-125623189D01*
X70690274Y-125677974D01*
X70308746Y-126206332D01*
X70235867Y-126176070D01*
X69619239Y-126175532D01*
X69049343Y-126411008D01*
X68750767Y-126709063D01*
X68535702Y-126694386D01*
X68138351Y-126296340D01*
X67568867Y-126059870D01*
X66952239Y-126059332D01*
X66470932Y-126258204D01*
X65166482Y-125343143D01*
X65066105Y-125298873D01*
X65065952Y-125298771D01*
X71265134Y-125304668D01*
X71265134Y-125304668D01*
G37*
X71265134Y-125304668D02*
X71232544Y-125316799D01*
X71118317Y-125339520D01*
X71051419Y-125384219D01*
X70976019Y-125412286D01*
X70890729Y-125491589D01*
X70793893Y-125556293D01*
X70749194Y-125623189D01*
X70690274Y-125677974D01*
X70308746Y-126206332D01*
X70235867Y-126176070D01*
X69619239Y-126175532D01*
X69049343Y-126411008D01*
X68750767Y-126709063D01*
X68535702Y-126694386D01*
X68138351Y-126296340D01*
X67568867Y-126059870D01*
X66952239Y-126059332D01*
X66470932Y-126258204D01*
X65166482Y-125343143D01*
X65066105Y-125298873D01*
X65065952Y-125298771D01*
X71265134Y-125304668D01*
M02*
